G04 start of page 5 for group 3 idx 14 *
G04 Title: (unknown), exclude1 *
G04 Creator: pcb 4.2.0 *
G04 CreationDate: Mon Aug 31 02:34:49 2020 UTC *
G04 For: commonadmin *
G04 Format: Gerber/RS-274X *
G04 PCB-Dimensions (mil): 1000.00 1100.00 *
G04 PCB-Coordinate-Origin: lower left *
%MOIN*%
%FSLAX25Y25*%
%LNGROUP3*%
%ADD61C,0.0354*%
%ADD60C,0.0197*%
%ADD59C,0.0295*%
%ADD58C,0.0492*%
%ADD57C,0.0787*%
%ADD56C,0.0100*%
%ADD55C,0.0130*%
%ADD54C,0.0200*%
%ADD53C,0.0270*%
%ADD52C,0.0512*%
%ADD51C,0.1102*%
%ADD50C,0.0394*%
%ADD49C,0.0472*%
%ADD48C,0.0669*%
%ADD47C,0.0945*%
G54D47*X10500Y11500D03*
G54D48*X6957Y18980D03*
G54D49*X12862Y18587D03*
G54D50*X16406Y15437D03*
G54D47*X25000Y11500D03*
G54D48*X21457Y18980D03*
G54D50*X30906Y15437D03*
G54D48*X18819Y83504D03*
G54D51*X18031Y70000D03*
G54D52*X46024Y73543D03*
X37992D03*
X29961D03*
X61535Y47520D03*
X71575D03*
G54D48*X69213Y83504D03*
G54D51*X70000Y70000D03*
G54D52*X54055Y73543D03*
X42008Y66457D03*
X33976D03*
X16457Y47520D03*
X26496D03*
X50039Y66457D03*
X58071D03*
G54D49*X27362Y18587D03*
G54D48*X35957Y18980D03*
G54D49*X41862Y18587D03*
G54D47*X39500Y11500D03*
G54D50*X45406Y15437D03*
G54D47*X54000Y11500D03*
G54D50*X59906Y15437D03*
G54D47*X68500Y11500D03*
G54D48*X50457Y18980D03*
G54D49*X56362Y18587D03*
G54D48*X64957Y18980D03*
G54D49*X70862Y18587D03*
G54D50*X74406Y15437D03*
G54D47*X83000Y11500D03*
G54D50*X88906Y15437D03*
G54D48*X79457Y18980D03*
G54D49*X85362Y18587D03*
G54D53*X41500Y46000D03*
X56500Y55500D03*
X57500Y61500D03*
X45000Y63000D03*
X50500Y61800D03*
X26200Y56900D03*
X27500Y64000D03*
X33300Y61900D03*
X39500Y62500D03*
X42100Y71100D03*
G54D54*X54000Y28500D03*
X32000D03*
X61000D03*
X57500Y37000D03*
X39000Y35000D03*
Y39000D03*
X35500Y34000D03*
X45500Y32500D03*
G54D55*G54D56*G54D57*G54D58*G54D59*G54D60*G54D57*G54D58*G54D60*G54D52*G54D47*G54D61*G54D52*G54D47*G54D61*G54D59*G54D58*G54D59*G54D57*G54D60*G54D57*G54D60*G54D57*G54D58*G54D59*G54D58*G54D59*G54D60*G54D57*G54D60*G54D58*G54D59*M02*
