G04 start of page 5 for group 3 idx 14 *
G04 Title: (unknown), exclude1 *
G04 Creator: pcb 4.2.0 *
G04 CreationDate: Sun Sep  6 18:52:41 2020 UTC *
G04 For: commonadmin *
G04 Format: Gerber/RS-274X *
G04 PCB-Dimensions (mil): 1250.00 1500.00 *
G04 PCB-Coordinate-Origin: lower left *
%MOIN*%
%FSLAX25Y25*%
%LNGROUP3*%
%ADD59C,0.0354*%
%ADD58C,0.0197*%
%ADD57C,0.0295*%
%ADD56C,0.0492*%
%ADD55C,0.0787*%
%ADD54C,0.0100*%
%ADD53C,0.0200*%
%ADD52C,0.1102*%
%ADD51C,0.0512*%
%ADD50C,0.0394*%
%ADD49C,0.0472*%
%ADD48C,0.0669*%
%ADD47C,0.0945*%
G54D47*X20000Y20000D03*
G54D48*X16457Y27480D03*
G54D49*X22362Y27087D03*
G54D50*X25906Y23937D03*
G54D47*X108000Y20000D03*
G54D48*X104457Y27480D03*
G54D49*X110362Y27087D03*
G54D50*X113906Y23937D03*
G54D47*X72000Y42500D03*
X88000Y40000D03*
G54D50*X93906Y43937D03*
G54D47*X56000Y42500D03*
X40000Y40000D03*
G54D50*X45906Y43937D03*
G54D49*X74362Y49587D03*
G54D50*X77906Y46437D03*
G54D48*X84457Y47480D03*
G54D49*X90362Y47087D03*
G54D48*X68457Y49980D03*
X52457D03*
G54D49*X58362Y49587D03*
G54D50*X61906Y46437D03*
G54D48*X36457Y47480D03*
G54D49*X42362Y47087D03*
G54D51*X82035Y71020D03*
X92075D03*
G54D48*X89713Y107004D03*
X39319D03*
G54D52*X38531Y93500D03*
G54D51*X36957Y71020D03*
X46996D03*
G54D52*X90500Y93500D03*
G54D51*X74555Y97043D03*
X78571Y89957D03*
X66524Y97043D03*
X58492D03*
X50461D03*
X62508Y89957D03*
X54476D03*
X70539D03*
G54D53*X62000Y100500D03*
X55000Y104500D03*
X62500Y109500D03*
G54D54*G54D55*G54D56*G54D57*G54D58*G54D55*G54D56*G54D57*G54D58*G54D55*G54D58*G54D55*G54D58*G54D57*G54D58*G54D56*G54D57*G54D56*G54D57*G54D58*G54D56*G54D57*G54D59*G54D51*G54D47*G54D59*G54D47*G54D59*M02*
