G04 start of page 13 for group -4014 idx -4014 *
G04 Title: (unknown), bottompaste *
G04 Creator: pcb 4.2.0 *
G04 CreationDate: Sun Sep  6 18:52:41 2020 UTC *
G04 For: commonadmin *
G04 Format: Gerber/RS-274X *
G04 PCB-Dimensions (mil): 1250.00 1500.00 *
G04 PCB-Coordinate-Origin: lower left *
%MOIN*%
%FSLAX25Y25*%
%LNBOTTOMPASTE*%
%ADD104C,0.0060*%
%ADD103C,0.0001*%
G54D103*G36*
X57973Y114952D02*X52855D01*
Y109048D01*
X57973D01*
Y114952D01*
G37*
G36*
X65059D02*X59941D01*
Y109048D01*
X65059D01*
Y114952D01*
G37*
G54D104*X69531Y82900D02*Y79900D01*
Y82900D02*X70231Y83600D01*
X69531Y79900D02*X70231Y79200D01*
G54D103*G36*
X70531Y79500D02*X69931D01*
Y77400D01*
X70531D01*
Y79500D01*
G37*
G36*
Y84400D02*X69931D01*
Y83300D01*
X70531D01*
Y84400D01*
G37*
G54D104*X69531Y80200D02*X70131Y80800D01*
X69531Y81400D02*X70131Y80800D01*
X69531Y82600D02*X70131Y82000D01*
X69531Y81400D02*X70131Y82000D01*
X72131Y83000D02*Y79900D01*
X71531Y83600D02*X72131Y83000D01*
X71531Y79300D02*X72131Y79900D01*
G54D103*G36*
X71831Y79600D02*X71231D01*
Y77400D01*
X71831D01*
Y79600D01*
G37*
G36*
Y84400D02*X71231D01*
Y83300D01*
X71831D01*
Y84400D01*
G37*
G54D104*X71431Y80800D02*X72131Y80100D01*
Y79900D01*
X71431Y80800D02*X72131Y81500D01*
X71431Y82000D02*X72131Y81300D01*
X71431Y82000D02*X72131Y82700D01*
X66431Y106500D02*X69431D01*
X70131Y105800D01*
X65731D02*X66431Y106500D01*
G54D103*G36*
X63931Y106100D02*Y105500D01*
X66031D01*
Y106100D01*
X63931D01*
G37*
G36*
X69831D02*Y105500D01*
X70931D01*
Y106100D01*
X69831D01*
G37*
G54D104*X66731Y106500D02*X67331Y105900D01*
X67931Y106500D01*
X68531Y105900D02*X69131Y106500D01*
X67931D02*X68531Y105900D01*
X66431Y103900D02*X69531D01*
X70131Y104500D01*
X65831D02*X66431Y103900D01*
G54D103*G36*
X63931Y104800D02*Y104200D01*
X66131D01*
Y104800D01*
X63931D01*
G37*
G36*
X69831D02*Y104200D01*
X70931D01*
Y104800D01*
X69831D01*
G37*
G54D104*X66631Y103900D02*X67331Y104600D01*
X66431Y103900D02*X66631D01*
X67331Y104600D02*X68031Y103900D01*
X67831D02*X68531Y104600D01*
X69231Y103900D01*
M02*
