M48
INCH
T80C0.010
T79C0.020
T78C0.030
T77C0.079
T76C0.035
T75C0.094
T74C0.051
T73C0.049
%
T80
X003647Y009600
X004347Y009200
X004397Y010100
T79
X002737Y003544
X004337Y003794
X005937Y003794
X007537Y003544
T78
X002383Y003859
X003983Y004109
X005583Y004109
X007183Y003859
T76
X001843Y006252
X002846Y006252
X003193Y008854
X003594Y008146
X003996Y008854
X004398Y008146
X004799Y008854
X005201Y008146
X005602Y008854
X006004Y008146
X006350Y006252
X007354Y006252
T73
X001793Y003898
X003393Y004148
X004993Y004148
X006593Y003898
T74
X002079Y009850
X007118Y009850
T77
X002147Y003150
X003747Y003400
X005347Y003400
X006947Y003150
T75
X002000Y008500
X007197Y008500
M30
