M48
INCH
T80C0.010
T79C0.020
T78C0.030
T77C0.079
T76C0.035
T75C0.094
T74C0.051
T73C0.049
%
T80
X003647Y067100
X004347Y066700
X004397Y067600
T79
X002737Y061044
X004337Y061294
X005937Y061294
X007537Y061044
T78
X002383Y061359
X003983Y061609
X005583Y061609
X007183Y061359
T76
X001843Y063752
X002846Y063752
X003193Y066354
X003594Y065646
X003996Y066354
X004398Y065646
X004799Y066354
X005201Y065646
X005602Y066354
X006004Y065646
X006350Y063752
X007354Y063752
T73
X001793Y061398
X003393Y061648
X004993Y061648
X006593Y061398
T74
X002079Y067350
X007118Y067350
T77
X002147Y060650
X003747Y060900
X005347Y060900
X006947Y060650
T75
X002000Y066000
X007197Y066000
M30
