G04 start of page 6 for group 4 idx 15 *
G04 Title: (unknown), exclude2 *
G04 Creator: pcb 4.2.0 *
G04 CreationDate: Wed Sep 23 11:56:37 2020 UTC *
G04 For: commonadmin *
G04 Format: Gerber/RS-274X *
G04 PCB-Dimensions (mil): 1250.00 1500.00 *
G04 PCB-Coordinate-Origin: lower left *
%MOIN*%
%FSLAX25Y25*%
%LNGROUP4*%
%ADD80C,0.0354*%
%ADD79C,0.0197*%
%ADD78C,0.0295*%
%ADD77C,0.0492*%
%ADD76C,0.0787*%
%ADD75C,0.0130*%
%ADD74C,0.0100*%
%ADD73C,0.0230*%
%ADD72C,0.0200*%
%ADD71C,0.0512*%
%ADD70C,0.1102*%
%ADD69C,0.0394*%
%ADD68C,0.0472*%
%ADD67C,0.0669*%
%ADD66C,0.0945*%
G54D66*X20000Y20000D03*
G54D67*X16457Y27480D03*
G54D68*X22362Y27087D03*
G54D69*X25906Y23937D03*
G54D66*X108000Y20000D03*
G54D67*X104457Y27480D03*
G54D68*X110362Y27087D03*
G54D69*X113906Y23937D03*
G54D66*X72000Y42500D03*
X88000Y40000D03*
G54D69*X93906Y43937D03*
G54D66*X56000Y42500D03*
X40000Y40000D03*
G54D69*X45906Y43937D03*
G54D68*X74362Y49587D03*
G54D69*X77906Y46437D03*
G54D67*X84457Y47480D03*
G54D68*X90362Y47087D03*
G54D67*X68457Y49980D03*
X52457D03*
G54D68*X58362Y49587D03*
G54D69*X61906Y46437D03*
G54D67*X36457Y47480D03*
G54D68*X42362Y47087D03*
G54D67*X39319Y107004D03*
G54D70*X38531Y93500D03*
G54D71*X36957Y71020D03*
X46996D03*
X66524Y97043D03*
X58492D03*
X50461D03*
X62508Y89957D03*
X54476D03*
X70539D03*
G54D66*X20000Y107000D03*
G54D69*X25906Y110937D03*
G54D67*X16457Y114480D03*
G54D68*X22362Y114087D03*
G54D71*X82035Y71020D03*
X92075D03*
G54D67*X89713Y107004D03*
G54D70*X90500Y93500D03*
G54D71*X74555Y97043D03*
X78571Y89957D03*
G54D66*X108000Y107000D03*
G54D67*X104457Y114480D03*
G54D68*X110362Y114087D03*
G54D69*X113906Y110937D03*
G54D72*X55000Y104500D03*
X62500Y109500D03*
G54D73*X42500Y101500D03*
X36000D03*
X62000Y100500D03*
X93000Y101000D03*
G54D74*G54D75*G54D76*G54D77*G54D78*G54D79*G54D76*G54D77*G54D78*G54D79*G54D76*G54D79*G54D76*G54D79*G54D78*G54D79*G54D77*G54D78*G54D77*G54D78*G54D79*G54D77*G54D78*G54D71*G54D66*G54D80*G54D76*G54D79*G54D77*G54D78*G54D80*G54D71*G54D66*G54D80*G54D76*G54D77*G54D78*G54D79*M02*
