G04 start of page 8 for group -4063 idx -4063 *
G04 Title: (unknown), componentmask *
G04 Creator: pcb 4.2.0 *
G04 CreationDate: Mon Sep 28 05:23:24 2020 UTC *
G04 For: commonadmin *
G04 Format: Gerber/RS-274X *
G04 PCB-Dimensions (mil): 1250.00 1500.00 *
G04 PCB-Coordinate-Origin: lower left *
%MOIN*%
%FSLAX25Y25*%
%LNTOPMASK*%
%ADD93C,0.0572*%
%ADD92C,0.1162*%
%ADD91C,0.0454*%
%ADD90C,0.0532*%
%ADD89C,0.0729*%
%ADD88C,0.1005*%
G54D88*X108000Y107000D03*
G54D89*X104457Y114480D03*
G54D90*X110362Y114087D03*
G54D91*X113906Y110937D03*
G54D89*X89713Y107004D03*
G54D92*X90500Y93500D03*
G54D88*X108000Y20000D03*
G54D89*X104457Y27480D03*
G54D90*X110362Y27087D03*
G54D91*X113906Y23937D03*
G54D90*X74362Y49587D03*
G54D91*X77906Y46437D03*
G54D89*X84457Y47480D03*
G54D90*X90362Y47087D03*
G54D93*X82035Y71020D03*
X92075D03*
G54D88*X20000Y107000D03*
G54D89*X16457Y114480D03*
G54D90*X22362Y114087D03*
G54D91*X25906Y110937D03*
G54D89*X39319Y107004D03*
G54D92*X38531Y93500D03*
G54D93*X58492Y97043D03*
X50461D03*
X54476Y89957D03*
X66524Y97043D03*
X74555D03*
X62508Y89957D03*
X70539D03*
X78571D03*
G54D88*X20000Y20000D03*
G54D89*X16457Y27480D03*
G54D90*X22362Y27087D03*
G54D91*X25906Y23937D03*
G54D88*X72000Y42500D03*
X88000Y40000D03*
G54D91*X93906Y43937D03*
G54D88*X56000Y42500D03*
X40000Y40000D03*
G54D91*X45906Y43937D03*
G54D89*X68457Y49980D03*
X52457D03*
G54D90*X58362Y49587D03*
G54D91*X61906Y46437D03*
G54D89*X36457Y47480D03*
G54D90*X42362Y47087D03*
G54D93*X36957Y71020D03*
X46996D03*
M02*
