M48
INCH
T67C0.035
T66C0.028
T65C0.030
T64C0.050
T63C0.187
T62C0.038
%
T66
X158250Y087500
X158250Y084500
X159250Y087500
X159250Y084500
X160250Y087500
X160250Y084500
T65
X163600Y107400
X164600Y107400
T67
X140750Y094000
X141750Y094550
X142750Y095050
X143750Y095550
T62
X001500Y093000
X001500Y081000
X001500Y069000
X001500Y057000
X002500Y093000
X002500Y081000
X002500Y069000
X002500Y057000
X003500Y093000
X003500Y081000
X003500Y069000
X003500Y057000
X004500Y093000
X004500Y081000
X004500Y069000
X004500Y057000
X005500Y093000
X005500Y081000
X005500Y069000
X005500Y057000
X006500Y093000
X006500Y081000
X006500Y069000
X006500Y057000
X008000Y106000
X008000Y093000
X008000Y092000
X008000Y081000
X008000Y080000
X008000Y069000
X008000Y068000
X008000Y057000
X008000Y056000
X009000Y106000
X009000Y093000
X009000Y092000
X009000Y081000
X009000Y080000
X009000Y069000
X009000Y068000
X009000Y057000
X009000Y056000
X011900Y093000
X011900Y092000
X011900Y081000
X011900Y080000
X011900Y069000
X011900Y068000
X011900Y057000
X011900Y056000
X012900Y093000
X012900Y092000
X012900Y081000
X012900Y080000
X012900Y069000
X012900Y068000
X012900Y057000
X012900Y056000
X013900Y093000
X013900Y092000
X013900Y081000
X013900Y080000
X013900Y069000
X013900Y068000
X013900Y057000
X013900Y056000
X014900Y093000
X014900Y092000
X014900Y081000
X014900Y080000
X014900Y069000
X014900Y068000
X014900Y057000
X014900Y056000
X015900Y093000
X015900Y092000
X015900Y081000
X015900Y080000
X015900Y069000
X015900Y068000
X015900Y057000
X015900Y056000
X017850Y090500
X017850Y089500
X017850Y088500
X017850Y087500
X017850Y086500
X017850Y085500
X017850Y078500
X017850Y077500
X017850Y076500
X017850Y075500
X017850Y074500
X017850Y073500
X017850Y066500
X017850Y065500
X017850Y064500
X017850Y063500
X017850Y062500
X017850Y061500
X017850Y054500
X017850Y053500
X017850Y052500
X017850Y051500
X017850Y050500
X017850Y049500
X018850Y093000
X018850Y092000
X018850Y081000
X018850Y080000
X018850Y069000
X018850Y068000
X018850Y057000
X018850Y056000
X019750Y090500
X019750Y085500
X019750Y078500
X019750Y073500
X019750Y066500
X019750Y061500
X019750Y054500
X019750Y049500
X019850Y093000
X019850Y092000
X019850Y081000
X019850Y080000
X019850Y069000
X019850Y068000
X019850Y057000
X019850Y056000
X020750Y090500
X020750Y085500
X020750Y078500
X020750Y073500
X020750Y066500
X020750Y061500
X020750Y054500
X020750Y049500
X020850Y093000
X020850Y092000
X020850Y081000
X020850Y080000
X020850Y069000
X020850Y068000
X020850Y057000
X020850Y056000
X021750Y090500
X021750Y085500
X021750Y078500
X021750Y073500
X021750Y066500
X021750Y061500
X021750Y054500
X021750Y049500
X021850Y093000
X021850Y092000
X021850Y081000
X021850Y080000
X021850Y071000
X021850Y069000
X021850Y068000
X021850Y057000
X021850Y056000
X022750Y090500
X022750Y085500
X022750Y078500
X022750Y073500
X022750Y066500
X022750Y061500
X022750Y054500
X022750Y049500
X022850Y093000
X022850Y092000
X022850Y081000
X022850Y080000
X022850Y069000
X022850Y068000
X022850Y057000
X022850Y056000
X023750Y090500
X023750Y085500
X023750Y078500
X023750Y073500
X023750Y066500
X023750Y061500
X023750Y054500
X023750Y049500
X024750Y090500
X024750Y085500
X024750Y078500
X024750Y073500
X024750Y066500
X024750Y061500
X024750Y054500
X024750Y049500
X025750Y093000
X025750Y092000
X025750Y090500
X025750Y085500
X025750Y081000
X025750Y080000
X025750Y078500
X025750Y073500
X025750Y069000
X025750Y068000
X025750Y066500
X025750Y061500
X025750Y057000
X025750Y056000
X025750Y054500
X025750Y049500
X026750Y093000
X026750Y092000
X026750Y090500
X026750Y085500
X026750Y081000
X026750Y080000
X026750Y078500
X026750Y073500
X026750Y069000
X026750Y068000
X026750Y066500
X026750Y061500
X026750Y057000
X026750Y056000
X026750Y054500
X026750Y049500
X028750Y093000
X028750Y085500
X028750Y081000
X028750Y073500
X028750Y069000
X028750Y061500
X028750Y057000
X028750Y049500
X029750Y093000
X029750Y085500
X029750Y081000
X029750Y073500
X029750Y069000
X029750Y061500
X029750Y057000
X029750Y049500
X030750Y093000
X030750Y085500
X030750Y081000
X030750Y073500
X030750Y069000
X030750Y061500
X030750Y057000
X030750Y049500
X031750Y093000
X031750Y085500
X031750Y081000
X031750Y073500
X031750Y069000
X031750Y061500
X031750Y057000
X031750Y049500
X032750Y093000
X032750Y085500
X032750Y081000
X032750Y073500
X032750Y069000
X032750Y061500
X032750Y057000
X032750Y049500
X033750Y093000
X033750Y085500
X033750Y081000
X033750Y073500
X033750Y069000
X033750Y061500
X033750Y057000
X033750Y049500
X034750Y093000
X034750Y085500
X034750Y081000
X034750Y073500
X034750Y069000
X034750Y061500
X034750Y057000
X034750Y049500
X035750Y093000
X035750Y085500
X035750Y081000
X035750Y073500
X035750Y069000
X035750Y061500
X035750Y057000
X035750Y049500
X043000Y102000
X043000Y101000
X044500Y092150
X044500Y090250
X044500Y089250
X044500Y088250
X044500Y087250
X044500Y086250
X044500Y085250
X044500Y084250
X044500Y083250
X044500Y081250
X044500Y080250
X044500Y079250
X044500Y078250
X044500Y077250
X044500Y076250
X044500Y075250
X044500Y074250
X045500Y092150
X046500Y092150
X047500Y092150
X048500Y092150
X049500Y092150
X049500Y090250
X049500Y089250
X049500Y088250
X049500Y087250
X049500Y086250
X049500Y085250
X049500Y084250
X049500Y083250
X051000Y102000
X051000Y101000
X051000Y098100
X051000Y097100
X051000Y096100
X051000Y095100
X051000Y094100
X051000Y091150
X051000Y090150
X051000Y089150
X051000Y088150
X051000Y087150
X051000Y084250
X051000Y083250
X052000Y108500
X052000Y107500
X052000Y106500
X052000Y105500
X052000Y104500
X052000Y103500
X052000Y102000
X052000Y101000
X052000Y098100
X052000Y097100
X052000Y096100
X052000Y095100
X052000Y094100
X052000Y091150
X052000Y090150
X052000Y089150
X052000Y088150
X052000Y087150
X052000Y084250
X052000Y083250
X052000Y081250
X052000Y080250
X052000Y079250
X052000Y078250
X052000Y077250
X052000Y076250
X052000Y075250
X052000Y074250
X052250Y040000
X054250Y042550
X055500Y062550
X055500Y027400
X056250Y040000
X056500Y027400
X057500Y027400
X058250Y042550
X058500Y027400
X059500Y062550
X060250Y042550
X060250Y040000
X061250Y042550
X061500Y027400
X062250Y042550
X062500Y027400
X063500Y062550
X063500Y027400
X064500Y027400
X067450Y057700
X067500Y062550
X067500Y027400
X068500Y092150
X068500Y090250
X068500Y089250
X068500Y088250
X068500Y087250
X068500Y086250
X068500Y085250
X068500Y084250
X068500Y083250
X068500Y081250
X068500Y080250
X068500Y079250
X068500Y078250
X068500Y077250
X068500Y076250
X068500Y075250
X068500Y074250
X068500Y027400
X069500Y092150
X069500Y027400
X070500Y092150
X070500Y027400
X071500Y092150
X071500Y062550
X072500Y092150
X072500Y027400
X073500Y092150
X073500Y090250
X073500Y089250
X073500Y088250
X073500Y087250
X073500Y086250
X073500Y085250
X073500Y084250
X073500Y083250
X073500Y062550
X073500Y027400
X074500Y027400
X075000Y102000
X075000Y101000
X075000Y098100
X075000Y097100
X075000Y096100
X075000Y095100
X075000Y094100
X075000Y091150
X075000Y090150
X075000Y089150
X075000Y088150
X075000Y087150
X075000Y084250
X075000Y083250
X075500Y027400
X076000Y108500
X076000Y107500
X076000Y106500
X076000Y105500
X076000Y104500
X076000Y103500
X076000Y102000
X076000Y101000
X076000Y098100
X076000Y097100
X076000Y096100
X076000Y095100
X076000Y094100
X076000Y091150
X076000Y090150
X076000Y089150
X076000Y088150
X076000Y087150
X076000Y084250
X076000Y083250
X076000Y081250
X076000Y080250
X076000Y079250
X076000Y078250
X076000Y077250
X076000Y076250
X076000Y075250
X076000Y074250
X076050Y039300
X077050Y039300
X078050Y039300
X078500Y027400
X079500Y027400
X079700Y049600
X079700Y048600
X080500Y027400
X081500Y027400
X084500Y027400
X085400Y042050
X085400Y038950
X085450Y049250
X085450Y048250
X085450Y045150
X085500Y027400
X086500Y027400
X087500Y027400
X088750Y059550
X088750Y057550
X088750Y055550
X088750Y053550
X088750Y051550
X088750Y049550
X101000Y102000
X101000Y101000
X101000Y084250
X101000Y083250
X105150Y102000
X105150Y101000
X105150Y099850
X105150Y098950
X107500Y102000
X107500Y101000
X107500Y099850
X107500Y098950
X109500Y105000
X109500Y093000
X109500Y081000
X109500Y069000
X109500Y057000
X110500Y105000
X110500Y093000
X110500Y081000
X110500Y069000
X110500Y057000
X111500Y105000
X111500Y093000
X111500Y081000
X111500Y069000
X111500Y057000
X112500Y105000
X112500Y093000
X112500Y081000
X112500Y069000
X112500Y057000
X113500Y105000
X113500Y093000
X113500Y081000
X113500Y069000
X113500Y057000
X114500Y105000
X114500Y093000
X114500Y081000
X114500Y069000
X114500Y057000
X116000Y106000
X116000Y105000
X116000Y104000
X116000Y093000
X116000Y092000
X116000Y081000
X116000Y080000
X116000Y069000
X116000Y068000
X116000Y057000
X116000Y056000
X117000Y106000
X117000Y105000
X117000Y104000
X117000Y093000
X117000Y092000
X117000Y081000
X117000Y080000
X117000Y069000
X117000Y068000
X117000Y057000
X117000Y056000
X119900Y105000
X119900Y104000
X119900Y093000
X119900Y092000
X119900Y081000
X119900Y080000
X119900Y069000
X119900Y068000
X119900Y057000
X119900Y056000
X120900Y105000
X120900Y104000
X120900Y093000
X120900Y092000
X120900Y081000
X120900Y080000
X120900Y069000
X120900Y068000
X120900Y057000
X120900Y056000
X121900Y105000
X121900Y104000
X121900Y093000
X121900Y092000
X121900Y081000
X121900Y080000
X121900Y069000
X121900Y068000
X121900Y057000
X121900Y056000
X122900Y105000
X122900Y104000
X122900Y093000
X122900Y092000
X122900Y081000
X122900Y080000
X122900Y069000
X122900Y068000
X122900Y057000
X122900Y056000
X123900Y105000
X123900Y104000
X123900Y093000
X123900Y092000
X123900Y081000
X123900Y080000
X123900Y069000
X123900Y068000
X123900Y057000
X123900Y056000
X125850Y102500
X125850Y101500
X125850Y100500
X125850Y099500
X125850Y098500
X125850Y097500
X125850Y090500
X125850Y089500
X125850Y088500
X125850Y087500
X125850Y086500
X125850Y085500
X125850Y078500
X125850Y077500
X125850Y076500
X125850Y075500
X125850Y074500
X125850Y073500
X125850Y066500
X125850Y065500
X125850Y064500
X125850Y063500
X125850Y062500
X125850Y061500
X125850Y054500
X125850Y053500
X125850Y052500
X125850Y051500
X125850Y050500
X125850Y049500
X126850Y105000
X126850Y104000
X126850Y093000
X126850Y092000
X126850Y081000
X126850Y080000
X126850Y069000
X126850Y068000
X126850Y057000
X126850Y056000
X127750Y102500
X127750Y097500
X127750Y090500
X127750Y085500
X127750Y078500
X127750Y073500
X127750Y066500
X127750Y061500
X127750Y054500
X127750Y049500
X127850Y105000
X127850Y104000
X127850Y093000
X127850Y092000
X127850Y081000
X127850Y080000
X127850Y069000
X127850Y068000
X127850Y057000
X127850Y056000
X128750Y102500
X128750Y097500
X128750Y090500
X128750Y085500
X128750Y078500
X128750Y073500
X128750Y066500
X128750Y061500
X128750Y054500
X128750Y049500
X128850Y105000
X128850Y104000
X128850Y093000
X128850Y092000
X128850Y081000
X128850Y080000
X128850Y069000
X128850Y068000
X128850Y057000
X128850Y056000
X129750Y102500
X129750Y097500
X129750Y090500
X129750Y085500
X129750Y078500
X129750Y073500
X129750Y066500
X129750Y061500
X129750Y054500
X129750Y049500
X129850Y105000
X129850Y104000
X129850Y093000
X129850Y092000
X129850Y081000
X129850Y080000
X129850Y069000
X129850Y068000
X129850Y057000
X129850Y056000
X130750Y102500
X130750Y097500
X130750Y090500
X130750Y085500
X130750Y078500
X130750Y073500
X130750Y066500
X130750Y061500
X130750Y054500
X130750Y049500
X130850Y105000
X130850Y104000
X130850Y093000
X130850Y092000
X130850Y081000
X130850Y080000
X130850Y069000
X130850Y068000
X130850Y057000
X130850Y056000
X131750Y102500
X131750Y097500
X131750Y090500
X131750Y085500
X131750Y078500
X131750Y073500
X131750Y066500
X131750Y061500
X131750Y054500
X131750Y049500
X132750Y102500
X132750Y097500
X132750Y090500
X132750Y085500
X132750Y078500
X132750Y073500
X132750Y066500
X132750Y061500
X132750Y054500
X132750Y049500
X133750Y106000
X133750Y105000
X133750Y104000
X133750Y102500
X133750Y097500
X133750Y093000
X133750Y092000
X133750Y090500
X133750Y085500
X133750Y081000
X133750Y080000
X133750Y078500
X133750Y073500
X133750Y069000
X133750Y068000
X133750Y066500
X133750Y061500
X133750Y057000
X133750Y056000
X133750Y054500
X133750Y049500
X134750Y106000
X134750Y105000
X134750Y104000
X134750Y102500
X134750Y097500
X134750Y093000
X134750Y092000
X134750Y090500
X134750Y085500
X134750Y081000
X134750Y080000
X134750Y078500
X134750Y073500
X134750Y069000
X134750Y068000
X134750Y066500
X134750Y061500
X134750Y057000
X134750Y056000
X134750Y054500
X134750Y049500
X136750Y105000
X136750Y097500
X136750Y093000
X136750Y085500
X136750Y081000
X136750Y073500
X136750Y069000
X136750Y061500
X136750Y057000
X136750Y049500
X137750Y105000
X137750Y097500
X137750Y093000
X137750Y085500
X137750Y081000
X137750Y073500
X137750Y069000
X137750Y061500
X137750Y057000
X137750Y049500
X138750Y105000
X138750Y097500
X138750Y093000
X138750Y085500
X138750Y081000
X138750Y073500
X138750Y069000
X138750Y061500
X138750Y057000
X138750Y049500
X139750Y105000
X139750Y097500
X139750Y093000
X139750Y085500
X139750Y081000
X139750Y073500
X139750Y069000
X139750Y061500
X139750Y057000
X139750Y049500
X140750Y105000
X140750Y097500
X140750Y093000
X140750Y085500
X140750Y081000
X140750Y073500
X140750Y069000
X140750Y061500
X140750Y057000
X140750Y049500
X141750Y105000
X141750Y097500
X141750Y093000
X141750Y085500
X141750Y081000
X141750Y073500
X141750Y069000
X141750Y061500
X141750Y057000
X141750Y049500
X142750Y105000
X142750Y097500
X142750Y093000
X142750Y085500
X142750Y081000
X142750Y073500
X142750Y069000
X142750Y061500
X142750Y057000
X142750Y049500
X143750Y105000
X143750Y097500
X143750Y093000
X143750Y085500
X143750Y081000
X143750Y073500
X143750Y069000
X143750Y061500
X143750Y057000
X143750Y049500
X154050Y039850
X156150Y039850
X158250Y039850
X160350Y039850
X162450Y039850
X164550Y039850
X166650Y039850
X168750Y039850
X169950Y108500
X170850Y039850
X170950Y108500
X172950Y039850
X175050Y039850
X177150Y039850
X177550Y084850
X177550Y083850
T64
X011900Y083000
X011900Y071000
X020900Y083000
X020900Y071000
X171000Y100450
X171000Y091450
X171000Y076850
X171000Y067850
T63
X078500Y107585
X078500Y104750
X081700Y107585
X081700Y104750
X084900Y107585
X084900Y104750
X088100Y107585
X088100Y104750
X149500Y049000
X150900Y087700
X150900Y084865
X152335Y049000
X153250Y101285
X153250Y098450
X155400Y087700
X155400Y084865
X159915Y081165
X161765Y104000
X162750Y087700
X162750Y084865
X162750Y081165
X164600Y104000
X168150Y104000
X168165Y061800
X170985Y104000
X171000Y084850
X171000Y082015
X171000Y061800
X174650Y084850
X174650Y082015
M30
