G04 start of page 5 for group 3 idx 14 *
G04 Title: (unknown), exclude1 *
G04 Creator: pcb 4.2.0 *
G04 CreationDate: Mon Sep  7 06:55:59 2020 UTC *
G04 For: commonadmin *
G04 Format: Gerber/RS-274X *
G04 PCB-Dimensions (mil): 18000.00 11000.00 *
G04 PCB-Coordinate-Origin: lower left *
%MOIN*%
%FSLAX25Y25*%
%LNGROUP3*%
%ADD50C,0.0280*%
%ADD49C,0.0300*%
%ADD48C,0.0500*%
%ADD47C,0.1870*%
%ADD46C,0.0350*%
%ADD45C,0.0380*%
%ADD44C,0.0800*%
%ADD43C,0.0550*%
%ADD42C,0.0001*%
%ADD41C,0.2362*%
%ADD40C,0.0600*%
G54D40*X1367500Y975000D03*
X1377500D03*
X1387500D03*
X1397500D03*
X1407500D03*
X1417500D03*
X1427500D03*
X1437500D03*
G54D41*X1532500Y1012846D03*
Y984500D03*
G54D42*G36*
X1706000Y1008500D02*Y1000500D01*
X1714000D01*
Y1008500D01*
X1706000D01*
G37*
G54D40*X1367500Y1050000D03*
X1347500D03*
Y1040000D03*
X1377500Y1050000D03*
X1387500D03*
X1397500D03*
X1407500D03*
X1417500D03*
X1427500D03*
X1437500D03*
X1337500Y1040000D03*
Y1050000D03*
X1308500D03*
Y1040000D03*
G54D41*X1646000D03*
X1617654D03*
G54D40*X1219000D03*
X1209000Y1050000D03*
X1199000D03*
X1209000Y1040000D03*
X1199000D03*
X1170000D03*
X1160000D03*
X1170000Y1050000D03*
X1160000D03*
X1145000D03*
X1135000D03*
X1125000D03*
X1115000D03*
X1105000D03*
X1095000D03*
G54D41*X1709846Y1040000D03*
X1681500D03*
G54D42*G36*
X1706500Y1088000D02*Y1082000D01*
X1712500D01*
Y1088000D01*
X1706500D01*
G37*
G54D40*X1699500Y1085000D03*
G54D42*G36*
X1643250Y1076750D02*Y1071250D01*
X1648750D01*
Y1076750D01*
X1643250D01*
G37*
G54D43*X1636000Y1074000D03*
G54D40*X1277500Y975000D03*
X1287500D03*
X1297500D03*
X1307500D03*
X1317500D03*
X1327500D03*
X1337500D03*
X1347500D03*
X1258500D03*
Y985000D03*
Y995000D03*
Y1005000D03*
Y1015000D03*
Y1025000D03*
X1277500D03*
X1287500D03*
X1297500D03*
X1307500D03*
X1317500D03*
X1327500D03*
X1337500D03*
X1347500D03*
X1298500Y1050000D03*
X1288500D03*
X1278500D03*
X1268500D03*
X1298500Y1040000D03*
X1288500D03*
X1278500D03*
X1268500D03*
X1239000D03*
X1229000D03*
X1239000Y1050000D03*
X1229000D03*
X1219000D03*
X287500Y495000D03*
X297500D03*
X307500D03*
X317500D03*
X327500D03*
X337500D03*
X347500D03*
X357500D03*
X197500D03*
X207500D03*
X217500D03*
X227500D03*
X237500D03*
X247500D03*
X257500D03*
X267500D03*
X178500D03*
Y505000D03*
Y515000D03*
Y525000D03*
Y535000D03*
Y545000D03*
X197500D03*
X207500D03*
X217500D03*
X227500D03*
X237500D03*
X247500D03*
X257500D03*
X267500D03*
X287500Y570000D03*
X267500D03*
Y560000D03*
X297500Y570000D03*
X307500D03*
X317500D03*
X327500D03*
X337500D03*
X347500D03*
X357500D03*
X257500Y560000D03*
Y570000D03*
X228500D03*
Y560000D03*
G54D42*G36*
X592000Y628500D02*Y622500D01*
X598000D01*
Y628500D01*
X592000D01*
G37*
G36*
X552000D02*Y622500D01*
X558000D01*
Y628500D01*
X552000D01*
G37*
G54D40*X218500Y570000D03*
X208500D03*
X198500D03*
X188500D03*
X218500Y560000D03*
X208500D03*
X198500D03*
X188500D03*
X159000D03*
X149000D03*
X159000Y570000D03*
X149000D03*
X139000D03*
Y560000D03*
X129000Y570000D03*
X119000D03*
X129000Y560000D03*
X119000D03*
X90000D03*
X80000D03*
X90000Y570000D03*
X80000D03*
X65000D03*
X55000D03*
X45000D03*
X35000D03*
X25000D03*
X15000D03*
X197500Y615000D03*
X207500D03*
X217500D03*
X227500D03*
X237500D03*
X247500D03*
X257500D03*
X267500D03*
X178500D03*
Y625000D03*
Y635000D03*
Y645000D03*
Y655000D03*
Y665000D03*
X197500D03*
X207500D03*
X217500D03*
X227500D03*
X237500D03*
X247500D03*
X257500D03*
X267500D03*
X218500Y690000D03*
Y680000D03*
X208500D03*
X198500D03*
X188500D03*
X208500Y690000D03*
X198500D03*
X188500D03*
X159000D03*
X149000D03*
X139000D03*
G54D44*X119000Y710000D03*
G54D42*G36*
X215500Y713000D02*Y707000D01*
X221500D01*
Y713000D01*
X215500D01*
G37*
G54D40*X159000Y680000D03*
X149000D03*
X139000D03*
X129000Y690000D03*
X119000D03*
X129000Y680000D03*
X119000D03*
X90000D03*
X80000D03*
X90000Y690000D03*
X80000D03*
X65000D03*
X55000D03*
X45000D03*
X35000D03*
X25000D03*
X15000D03*
X287500Y855000D03*
Y930000D03*
X297500D03*
X307500D03*
X317500D03*
X327500D03*
X337500D03*
X347500D03*
X357500D03*
X297500Y855000D03*
X307500D03*
X317500D03*
X327500D03*
X337500D03*
X347500D03*
X357500D03*
X317500Y810000D03*
X327500D03*
X337500D03*
X347500D03*
X357500D03*
X287500D03*
X297500D03*
X307500D03*
X228500D03*
X218500D03*
X208500D03*
X267500D03*
Y800000D03*
X257500D03*
Y810000D03*
X228500Y800000D03*
X218500D03*
X208500D03*
G54D42*G36*
X205000Y834000D02*Y826000D01*
X213000D01*
Y834000D01*
X205000D01*
G37*
G54D40*X198500Y810000D03*
Y800000D03*
X188500D03*
Y810000D03*
X159000D03*
X149000D03*
X139000D03*
X129000D03*
X119000D03*
X159000Y800000D03*
X149000D03*
X139000D03*
X129000D03*
X119000D03*
X197500Y855000D03*
X207500D03*
X217500D03*
X227500D03*
X237500D03*
X247500D03*
X257500D03*
X267500D03*
X178500D03*
Y865000D03*
Y875000D03*
Y885000D03*
Y895000D03*
Y905000D03*
X197500D03*
X207500D03*
X217500D03*
X227500D03*
X237500D03*
X247500D03*
X257500D03*
X267500D03*
Y930000D03*
Y920000D03*
X257500D03*
Y930000D03*
X228500D03*
Y920000D03*
X218500Y930000D03*
Y920000D03*
X208500Y930000D03*
Y920000D03*
X198500Y930000D03*
X188500D03*
X198500Y920000D03*
X188500D03*
X159000D03*
X149000D03*
X139000D03*
X129000D03*
X159000Y930000D03*
X149000D03*
X139000D03*
X129000D03*
X119000D03*
Y920000D03*
X90000Y930000D03*
X80000D03*
X65000D03*
X90000Y920000D03*
X80000D03*
X55000Y930000D03*
X45000D03*
X35000D03*
X25000D03*
X15000D03*
X317500Y615000D03*
X327500D03*
X337500D03*
X347500D03*
X287500D03*
X297500D03*
X307500D03*
X357500D03*
X307500Y690000D03*
X317500D03*
X327500D03*
X337500D03*
X347500D03*
X357500D03*
X287500D03*
X267500D03*
Y680000D03*
X297500Y690000D03*
X287500Y735000D03*
X297500D03*
X307500D03*
X317500D03*
X327500D03*
X337500D03*
X347500D03*
X357500D03*
X267500D03*
X257500Y680000D03*
Y690000D03*
X228500D03*
Y680000D03*
X257500Y735000D03*
G54D42*G36*
X205000Y714000D02*Y706000D01*
X213000D01*
Y714000D01*
X205000D01*
G37*
G54D40*X197500Y735000D03*
X207500D03*
X217500D03*
X227500D03*
X237500D03*
X247500D03*
X178500D03*
Y745000D03*
Y755000D03*
Y765000D03*
Y775000D03*
Y785000D03*
X197500D03*
X207500D03*
X217500D03*
X227500D03*
X237500D03*
X247500D03*
X257500D03*
X267500D03*
X90000Y810000D03*
X80000D03*
X65000D03*
X90000Y800000D03*
X80000D03*
X55000Y810000D03*
X45000D03*
X35000D03*
X25000D03*
X15000D03*
G54D44*X119000Y830000D03*
G54D40*X445000Y812500D03*
X520000D03*
X445000Y802500D03*
Y792500D03*
Y782500D03*
Y772500D03*
Y762500D03*
Y752500D03*
Y742500D03*
X520000Y802500D03*
Y792500D03*
Y782500D03*
Y772500D03*
Y762500D03*
Y752500D03*
Y742500D03*
Y832500D03*
X510000D03*
Y842500D03*
X520000D03*
X445000Y902500D03*
Y921500D03*
X455000D03*
X445000Y892500D03*
X465000Y921500D03*
X475000D03*
X485000D03*
X495000D03*
Y902500D03*
X445000Y882500D03*
Y872500D03*
Y862500D03*
Y852500D03*
Y842500D03*
Y832500D03*
X495000Y862500D03*
Y852500D03*
Y842500D03*
Y832500D03*
Y892500D03*
Y882500D03*
Y872500D03*
X520000Y871500D03*
X510000D03*
Y881500D03*
Y891500D03*
Y901500D03*
X520000Y881500D03*
Y891500D03*
Y901500D03*
Y911500D03*
Y941000D03*
Y951000D03*
X510000Y911500D03*
Y941000D03*
Y951000D03*
X520000Y961000D03*
Y971000D03*
Y981000D03*
Y1010000D03*
X510000Y961000D03*
Y971000D03*
Y981000D03*
Y1010000D03*
Y1020000D03*
X520000D03*
Y1035000D03*
Y1045000D03*
Y1055000D03*
Y1065000D03*
Y1075000D03*
Y1085000D03*
X1367500Y735000D03*
Y810000D03*
X1377500D03*
X1387500D03*
X1397500D03*
X1407500D03*
X1417500D03*
X1427500D03*
X1437500D03*
X1377500Y735000D03*
X1387500D03*
X1397500D03*
X1407500D03*
X1417500D03*
X1427500D03*
X1437500D03*
X1397500Y690000D03*
X1407500D03*
X1417500D03*
X1427500D03*
X1437500D03*
X1367500Y495000D03*
X1377500D03*
X1387500D03*
X1397500D03*
X1407500D03*
X1417500D03*
X1427500D03*
X1437500D03*
X1367500Y570000D03*
X1377500D03*
X1387500D03*
X1397500D03*
X1407500D03*
X1417500D03*
X1427500D03*
X1437500D03*
G54D41*X1495000Y490000D03*
X1523346D03*
G54D42*G36*
X1537500Y401500D02*Y395500D01*
X1543500D01*
Y401500D01*
X1537500D01*
G37*
G36*
X1558500D02*Y395500D01*
X1564500D01*
Y401500D01*
X1558500D01*
G37*
G36*
X1579500D02*Y395500D01*
X1585500D01*
Y401500D01*
X1579500D01*
G37*
G36*
X1600500D02*Y395500D01*
X1606500D01*
Y401500D01*
X1600500D01*
G37*
G36*
X1621500D02*Y395500D01*
X1627500D01*
Y401500D01*
X1621500D01*
G37*
G36*
X1642500D02*Y395500D01*
X1648500D01*
Y401500D01*
X1642500D01*
G37*
G36*
X1663500D02*Y395500D01*
X1669500D01*
Y401500D01*
X1663500D01*
G37*
G36*
X1684500D02*Y395500D01*
X1690500D01*
Y401500D01*
X1684500D01*
G37*
G36*
X1705500D02*Y395500D01*
X1711500D01*
Y401500D01*
X1705500D01*
G37*
G36*
X1726500D02*Y395500D01*
X1732500D01*
Y401500D01*
X1726500D01*
G37*
G36*
X1747500D02*Y395500D01*
X1753500D01*
Y401500D01*
X1747500D01*
G37*
G36*
X1768500D02*Y395500D01*
X1774500D01*
Y401500D01*
X1768500D01*
G37*
G54D40*X1278500Y810000D03*
X1268500D03*
X1278500Y800000D03*
X1268500D03*
X1239000D03*
X1229000D03*
X1219000D03*
X1209000D03*
X1239000Y810000D03*
X1229000D03*
X1219000D03*
X1209000D03*
X1199000D03*
Y800000D03*
X1170000Y810000D03*
X1160000D03*
X1145000D03*
X1170000Y800000D03*
X1160000D03*
X1135000Y810000D03*
X1125000D03*
X1115000D03*
X1105000D03*
X1095000D03*
X1367500Y615000D03*
X1377500D03*
X1387500D03*
X1397500D03*
X1407500D03*
X1417500D03*
X1427500D03*
X1437500D03*
X1297500D03*
X1307500D03*
X1317500D03*
X1327500D03*
X1337500D03*
X1347500D03*
X1277500D03*
X1258500D03*
Y625000D03*
Y635000D03*
Y645000D03*
Y655000D03*
Y665000D03*
X1287500D03*
X1297500D03*
X1307500D03*
X1317500D03*
X1327500D03*
X1337500D03*
X1347500D03*
X1287500Y615000D03*
X1277500Y735000D03*
X1287500D03*
X1297500D03*
X1307500D03*
X1317500D03*
X1327500D03*
X1337500D03*
X1347500D03*
X1258500D03*
Y745000D03*
Y755000D03*
Y765000D03*
Y775000D03*
Y785000D03*
X1277500D03*
X1287500D03*
X1297500D03*
X1307500D03*
X1317500D03*
X1327500D03*
X1337500D03*
X1347500D03*
Y810000D03*
Y800000D03*
X1337500D03*
Y810000D03*
X1308500D03*
Y800000D03*
X1298500Y810000D03*
Y800000D03*
X1288500Y810000D03*
Y800000D03*
X1367500Y690000D03*
X1377500D03*
X1387500D03*
X1308500D03*
X1298500D03*
X1288500D03*
X1347500D03*
Y680000D03*
X1337500D03*
Y690000D03*
X1308500Y680000D03*
X1298500D03*
X1288500D03*
X1278500Y690000D03*
Y680000D03*
X1268500D03*
Y690000D03*
X1239000D03*
X1229000D03*
X1219000D03*
X1209000D03*
X1199000D03*
X1239000Y680000D03*
X1229000D03*
X1219000D03*
X1209000D03*
X1199000D03*
X1170000Y690000D03*
X1160000D03*
X1145000D03*
X1170000Y680000D03*
X1160000D03*
X1135000Y690000D03*
X1125000D03*
X1115000D03*
X1105000D03*
X1095000D03*
X1287500Y495000D03*
X1297500D03*
X1307500D03*
X1317500D03*
X1327500D03*
X1337500D03*
X1277500Y665000D03*
Y495000D03*
Y545000D03*
X1258500Y525000D03*
Y535000D03*
Y545000D03*
X1287500D03*
X1297500D03*
X1307500D03*
X1317500D03*
X1278500Y560000D03*
X1268500Y570000D03*
Y560000D03*
X1258500Y495000D03*
Y505000D03*
Y515000D03*
X1347500Y495000D03*
G54D42*G36*
X884500Y518500D02*Y512500D01*
X890500D01*
Y518500D01*
X884500D01*
G37*
G36*
X851500Y485500D02*Y479500D01*
X857500D01*
Y485500D01*
X851500D01*
G37*
G36*
Y495500D02*Y489500D01*
X857500D01*
Y495500D01*
X851500D01*
G37*
G36*
Y454500D02*Y448500D01*
X857500D01*
Y454500D01*
X851500D01*
G37*
G36*
X884500Y498500D02*Y492500D01*
X890500D01*
Y498500D01*
X884500D01*
G37*
G36*
X794000Y499000D02*Y493000D01*
X800000D01*
Y499000D01*
X794000D01*
G37*
G36*
Y489000D02*Y483000D01*
X800000D01*
Y489000D01*
X794000D01*
G37*
G54D40*X1327500Y545000D03*
X1337500D03*
X1347500D03*
Y570000D03*
Y560000D03*
X1337500D03*
Y570000D03*
X1308500D03*
Y560000D03*
X1298500Y570000D03*
Y560000D03*
X1288500Y570000D03*
Y560000D03*
X1278500Y570000D03*
X1239000D03*
Y560000D03*
X1229000Y570000D03*
Y560000D03*
X1219000Y570000D03*
Y560000D03*
X1209000Y570000D03*
Y560000D03*
X1199000D03*
Y570000D03*
X1170000D03*
Y560000D03*
X1160000D03*
Y570000D03*
X1145000D03*
X1135000D03*
X1125000D03*
X1115000D03*
X1105000D03*
X1095000D03*
G54D42*G36*
X884500Y598500D02*Y592500D01*
X890500D01*
Y598500D01*
X884500D01*
G37*
G36*
X712000Y628500D02*Y622500D01*
X718000D01*
Y628500D01*
X712000D01*
G37*
G36*
X732000D02*Y622500D01*
X738000D01*
Y628500D01*
X732000D01*
G37*
G36*
X672000D02*Y622500D01*
X678000D01*
Y628500D01*
X672000D01*
G37*
G36*
X632000D02*Y622500D01*
X638000D01*
Y628500D01*
X632000D01*
G37*
G36*
X671500Y580000D02*Y574000D01*
X677500D01*
Y580000D01*
X671500D01*
G37*
G36*
X884500Y578500D02*Y572500D01*
X890500D01*
Y578500D01*
X884500D01*
G37*
G36*
Y538500D02*Y532500D01*
X890500D01*
Y538500D01*
X884500D01*
G37*
G36*
Y558500D02*Y552500D01*
X890500D01*
Y558500D01*
X884500D01*
G37*
G36*
X872000Y277000D02*Y271000D01*
X878000D01*
Y277000D01*
X872000D01*
G37*
G36*
X862000D02*Y271000D01*
X868000D01*
Y277000D01*
X862000D01*
G37*
G36*
X852000D02*Y271000D01*
X858000D01*
Y277000D01*
X852000D01*
G37*
G36*
X842000D02*Y271000D01*
X848000D01*
Y277000D01*
X842000D01*
G37*
G36*
X812000D02*Y271000D01*
X818000D01*
Y277000D01*
X812000D01*
G37*
G36*
X802000D02*Y271000D01*
X808000D01*
Y277000D01*
X802000D01*
G37*
G36*
X792000D02*Y271000D01*
X798000D01*
Y277000D01*
X792000D01*
G37*
G36*
X782000D02*Y271000D01*
X788000D01*
Y277000D01*
X782000D01*
G37*
G36*
X851000Y423500D02*Y417500D01*
X857000D01*
Y423500D01*
X851000D01*
G37*
G36*
Y392500D02*Y386500D01*
X857000D01*
Y392500D01*
X851000D01*
G37*
G36*
X777500Y396000D02*Y390000D01*
X783500D01*
Y396000D01*
X777500D01*
G37*
G36*
X767500D02*Y390000D01*
X773500D01*
Y396000D01*
X767500D01*
G37*
G36*
X757500D02*Y390000D01*
X763500D01*
Y396000D01*
X757500D01*
G37*
G36*
X599500Y403000D02*Y397000D01*
X605500D01*
Y403000D01*
X599500D01*
G37*
G36*
X559500D02*Y397000D01*
X565500D01*
Y403000D01*
X559500D01*
G37*
G36*
X519500D02*Y397000D01*
X525500D01*
Y403000D01*
X519500D01*
G37*
G36*
X539500Y428500D02*Y422500D01*
X545500D01*
Y428500D01*
X539500D01*
G37*
G36*
X579500D02*Y422500D01*
X585500D01*
Y428500D01*
X579500D01*
G37*
G36*
X599500D02*Y422500D01*
X605500D01*
Y428500D01*
X599500D01*
G37*
G36*
X609500D02*Y422500D01*
X615500D01*
Y428500D01*
X609500D01*
G37*
G36*
X619500D02*Y422500D01*
X625500D01*
Y428500D01*
X619500D01*
G37*
G36*
X582000Y277000D02*Y271000D01*
X588000D01*
Y277000D01*
X582000D01*
G37*
G36*
X572000D02*Y271000D01*
X578000D01*
Y277000D01*
X572000D01*
G37*
G36*
X562000D02*Y271000D01*
X568000D01*
Y277000D01*
X562000D01*
G37*
G36*
X552000D02*Y271000D01*
X558000D01*
Y277000D01*
X552000D01*
G37*
G36*
X642000D02*Y271000D01*
X648000D01*
Y277000D01*
X642000D01*
G37*
G36*
X632000D02*Y271000D01*
X638000D01*
Y277000D01*
X632000D01*
G37*
G36*
X622000D02*Y271000D01*
X628000D01*
Y277000D01*
X622000D01*
G37*
G36*
X612000D02*Y271000D01*
X618000D01*
Y277000D01*
X612000D01*
G37*
G36*
X702000D02*Y271000D01*
X708000D01*
Y277000D01*
X702000D01*
G37*
G36*
X692000D02*Y271000D01*
X698000D01*
Y277000D01*
X692000D01*
G37*
G36*
X682000D02*Y271000D01*
X688000D01*
Y277000D01*
X682000D01*
G37*
G36*
X672000D02*Y271000D01*
X678000D01*
Y277000D01*
X672000D01*
G37*
G36*
X732000D02*Y271000D01*
X738000D01*
Y277000D01*
X732000D01*
G37*
G36*
X752000D02*Y271000D01*
X758000D01*
Y277000D01*
X752000D01*
G37*
G36*
X742000D02*Y271000D01*
X748000D01*
Y277000D01*
X742000D01*
G37*
G36*
X722000D02*Y271000D01*
X728000D01*
Y277000D01*
X722000D01*
G37*
G54D41*X881000Y1075846D03*
Y1047500D03*
X849000Y1075846D03*
Y1047500D03*
X817000Y1075846D03*
Y1047500D03*
X785000Y1075846D03*
Y1047500D03*
G54D40*X760000Y1085000D03*
Y1075000D03*
Y1065000D03*
Y1055000D03*
Y1045000D03*
Y1035000D03*
Y1020000D03*
X750000D03*
Y1010000D03*
X760000D03*
X750000Y981000D03*
X760000D03*
X750000Y971000D03*
X760000D03*
X750000Y961000D03*
Y951000D03*
Y941000D03*
X760000Y961000D03*
Y951000D03*
Y941000D03*
Y911500D03*
Y901500D03*
Y891500D03*
Y742500D03*
Y752500D03*
Y762500D03*
Y772500D03*
Y782500D03*
Y792500D03*
Y802500D03*
Y812500D03*
Y881500D03*
Y871500D03*
Y842500D03*
Y832500D03*
X750000Y871500D03*
X735000Y852500D03*
Y862500D03*
X750000Y842500D03*
Y832500D03*
X735000D03*
Y842500D03*
Y872500D03*
X750000Y911500D03*
Y901500D03*
Y891500D03*
Y881500D03*
X735000Y882500D03*
Y892500D03*
Y902500D03*
Y921500D03*
X725000D03*
X715000D03*
X705000D03*
X695000D03*
X685000D03*
Y882500D03*
Y892500D03*
Y902500D03*
Y832500D03*
Y842500D03*
Y852500D03*
Y862500D03*
Y872500D03*
Y742500D03*
Y752500D03*
Y762500D03*
Y772500D03*
Y782500D03*
Y792500D03*
Y802500D03*
Y812500D03*
X1367500Y855000D03*
Y930000D03*
X1377500Y855000D03*
X1387500D03*
X1397500D03*
X1407500D03*
X1417500D03*
X1427500D03*
X1437500D03*
X1377500Y930000D03*
X1387500D03*
X1397500D03*
X1407500D03*
X1417500D03*
X1427500D03*
X1437500D03*
X1277500Y855000D03*
X1287500D03*
X1297500D03*
X1307500D03*
X1317500D03*
X1327500D03*
X1337500D03*
X1347500D03*
X1258500D03*
Y865000D03*
Y875000D03*
Y885000D03*
Y895000D03*
Y905000D03*
X1277500D03*
X1287500D03*
X1297500D03*
X1307500D03*
X1317500D03*
X1327500D03*
X1337500D03*
X1347500D03*
X1278500Y930000D03*
X1268500D03*
X1278500Y920000D03*
X1268500D03*
X1239000D03*
X1229000D03*
X1219000D03*
X1209000D03*
X1239000Y930000D03*
X1229000D03*
X1219000D03*
X1209000D03*
X1199000D03*
Y920000D03*
X1170000Y930000D03*
X1160000D03*
X1145000D03*
X1170000Y920000D03*
X1160000D03*
X1135000Y930000D03*
X1125000D03*
X1115000D03*
X1105000D03*
X1095000D03*
G54D41*X1746500Y848500D03*
G54D42*G36*
X1772500Y851500D02*Y845500D01*
X1778500D01*
Y851500D01*
X1772500D01*
G37*
G54D40*X1775500Y838500D03*
G54D41*X1746500Y820154D03*
X1710000Y848500D03*
Y820154D03*
G54D42*G36*
X1706000Y772500D02*Y764500D01*
X1714000D01*
Y772500D01*
X1706000D01*
G37*
G54D44*X1710000Y678500D03*
G54D41*Y618000D03*
X1681654D03*
X1554000Y848654D03*
G54D40*X1582500Y845000D03*
X1592500D03*
X1602500D03*
G54D41*X1627500Y848654D03*
X1599154Y811654D03*
X1627500D03*
G54D40*X1347500Y930000D03*
Y920000D03*
X1337500D03*
Y930000D03*
X1308500D03*
Y920000D03*
X1298500Y930000D03*
Y920000D03*
X1288500Y930000D03*
Y920000D03*
G54D44*X1710000Y914500D03*
G54D41*X1554000Y877000D03*
G54D42*G36*
X1599500Y878000D02*Y872000D01*
X1605500D01*
Y878000D01*
X1599500D01*
G37*
G54D40*X1592500Y875000D03*
X1582500D03*
G54D41*X1627500Y877000D03*
X1509000D03*
Y848654D03*
G54D40*X1075000Y1020000D03*
Y1010000D03*
X1051500D03*
Y1020000D03*
X1160000Y1060000D03*
X1170000D03*
X1337500D03*
X1347500D03*
X80000D03*
X90000D03*
X1010000Y1020000D03*
X430000D03*
Y1010000D03*
X1010000D03*
Y842500D03*
Y832500D03*
X1075000Y998500D03*
X1051500D03*
X1075000Y989500D03*
X1051500D03*
X1407500Y940000D03*
X1417500Y945500D03*
X1427500Y950500D03*
X1437500Y955500D03*
G54D45*G54D46*G54D45*G54D47*G54D48*G54D45*G54D47*G54D45*G54D47*G54D45*G54D49*G54D45*G54D48*G54D45*G54D48*G54D45*G54D48*G54D45*G54D48*G54D45*G54D47*G54D45*G54D47*G54D45*G54D47*G54D45*G54D47*G54D48*G54D47*G54D50*G54D47*G54D45*G54D48*G54D47*G54D50*G54D47*M02*
