G04 start of page 2 for group 0 idx 0 *
G04 Title: (unknown), P1_W1 *
G04 Creator: pcb 4.2.0 *
G04 CreationDate: Thu Sep 17 11:09:15 2020 UTC *
G04 For: commonadmin *
G04 Format: Gerber/RS-274X *
G04 PCB-Dimensions (mil): 18000.00 11000.00 *
G04 PCB-Coordinate-Origin: lower left *
%MOIN*%
%FSLAX25Y25*%
%LNTOP*%
%ADD24C,0.0280*%
%ADD23C,0.0300*%
%ADD22C,0.0500*%
%ADD21C,0.1870*%
%ADD20C,0.0350*%
%ADD19C,0.0380*%
%ADD18C,0.0800*%
%ADD17C,0.0550*%
%ADD16C,0.0001*%
%ADD15C,0.2362*%
%ADD14C,0.0600*%
%ADD13C,0.0400*%
%ADD12C,0.0100*%
%ADD11C,0.0250*%
G54D11*X770500Y393000D02*X771000D01*
X854500Y492500D02*Y505500D01*
X769000D01*
G54D12*X789500Y421500D02*X732500D01*
Y391000D01*
X693000D01*
X789500Y380000D02*X629500D01*
X789500Y421500D02*Y380000D01*
X629500D02*Y415500D01*
X596000D01*
Y433500D01*
X612500D01*
Y425500D01*
X693000Y391000D02*Y451000D01*
G54D11*X769000Y505500D02*Y792500D01*
X760000D01*
G54D12*X396000Y451000D02*Y844000D01*
X693000Y451000D02*X396000D01*
Y844000D02*X377000D01*
Y940500D01*
X307500D01*
Y930000D01*
G54D13*X1699500Y1085000D02*Y1058000D01*
X1681500Y1040000D01*
X1636000Y1074000D02*Y1058346D01*
X1617654Y1040000D01*
X1681500D02*Y618154D01*
X1681654Y618000D01*
G54D11*X1627500Y848654D02*Y811654D01*
G54D13*X1775500Y838500D02*X1764846D01*
X1746500Y820154D01*
G54D11*X1554000Y848654D02*Y854000D01*
X1572000Y872000D01*
Y896000D01*
X1573500Y897500D01*
X1591500D01*
X1592500Y896500D01*
Y875000D01*
G54D12*X392000Y447500D02*Y841500D01*
X374000D02*Y938500D01*
X317500D01*
Y930000D01*
G54D11*X765500Y502000D02*X790500D01*
Y486000D01*
X797000D01*
X765500Y502000D02*Y782500D01*
X760000D01*
G54D12*X688000Y447500D02*X392000D01*
X787000Y419500D02*X734500D01*
X787000D02*Y382000D01*
X631500Y417500D02*X602500D01*
Y425500D01*
X734500Y419500D02*Y388000D01*
X787000Y382000D02*X631500D01*
Y417500D01*
X688000Y447500D02*Y388000D01*
X734500D02*X688000D01*
X392000Y841500D02*X374000D01*
G54D13*X1746500Y848500D02*X1775500D01*
X1709846Y1084654D02*X1709500Y1085000D01*
X1709846Y1040000D02*Y1084654D01*
X1646000Y1074000D02*Y1040000D01*
X1710000Y1004500D02*Y1039846D01*
X1709846Y1040000D01*
X1710000Y914500D02*Y848500D01*
Y820154D02*Y768500D01*
Y678500D02*Y618000D01*
G54D11*X1602500Y875000D02*Y899500D01*
X1600000Y902000D01*
X1556500D01*
X1554000Y899500D01*
Y877000D01*
X1627500D02*X1621000D01*
X1611500Y867500D01*
X1586000D01*
X1582500Y864000D01*
Y845000D01*
X1602500D02*Y815000D01*
X1599154Y811654D01*
X547500Y671500D02*X754000D01*
Y721500D01*
X674000D01*
Y802500D01*
X685000D01*
X595000Y625500D02*Y615000D01*
X547500D01*
Y671500D01*
G54D13*X1010000Y1010000D02*X1051500D01*
X1075000D02*X1170000D01*
Y1060000D01*
X90000D02*Y1082500D01*
X418000D01*
Y1010000D01*
X430000D01*
G54D12*X287500Y930000D02*Y938500D01*
G54D13*X1010000Y1020000D02*X1051500D01*
X1075000D02*X1160000D01*
Y1060000D02*Y1020000D01*
X424000D02*X430000D01*
G54D12*X760500Y393000D02*Y385000D01*
G54D11*X685000Y772500D02*X679500D01*
Y725000D01*
X757500D01*
X555000Y625500D02*Y667500D01*
X757500Y725000D02*Y667500D01*
X555000D01*
G54D12*X760500Y385000D02*X685000D01*
Y442500D02*X386000D01*
Y835500D02*Y442500D01*
X685000Y385000D02*Y442500D01*
X287500Y938500D02*X113000D01*
Y835500D01*
X113500D01*
X114500Y836500D01*
X122500D01*
X123500Y835500D01*
X201000D01*
X202000Y836500D01*
X215000D01*
X216000Y835500D01*
X386000D01*
G54D13*X80000Y1060000D02*Y1088000D01*
X424000D01*
Y1020000D01*
G54D12*X297500Y810000D02*Y821500D01*
G54D11*X1069500Y813000D02*X984000D01*
G54D12*X109500Y830000D02*Y941500D01*
X297500D01*
Y930000D01*
X113000Y821500D02*X297500D01*
X113000Y710000D02*X119000D01*
Y830000D02*X109500D01*
X113000Y710000D02*Y821500D01*
G54D11*X781000Y240000D02*Y265500D01*
X779000Y267500D01*
Y281000D01*
X781500Y283500D01*
X815000D01*
Y257500D01*
G54D13*X1004500Y219000D02*X668500D01*
G54D11*X1019500Y200000D02*X610000D01*
X1034500Y182000D02*X550500D01*
X984000Y240000D02*X781000D01*
X705000Y274000D02*Y248500D01*
X645000Y282500D02*Y248500D01*
X585000Y282000D02*Y248500D01*
G54D13*X668500Y219000D02*Y265500D01*
X667500Y266500D01*
Y282500D01*
X668500Y283500D01*
X705000D01*
Y274000D01*
G54D11*X610000Y200000D02*Y265000D01*
X608500Y266500D01*
Y281000D01*
X610000Y282500D01*
X645000D01*
X550500Y182000D02*Y265500D01*
X549500Y266500D01*
Y281000D01*
X550500Y282000D01*
X585000D01*
G54D13*X1051500Y989500D02*X1041000D01*
Y832500D01*
X1010000D01*
X1088500Y824500D02*Y792000D01*
X1004500D01*
G54D11*X984000Y813000D02*Y240000D01*
G54D13*X1004500Y792000D02*Y219000D01*
G54D11*X1019500Y712000D02*Y200000D01*
X1034500Y590000D02*Y182000D01*
X1407500Y1050000D02*Y1081500D01*
X1069500D01*
Y813000D01*
X1347500Y1031500D02*X1181500D01*
G54D13*X1075000Y989500D02*X1181500D01*
Y1030500D01*
X1407500Y810000D02*Y824500D01*
G54D11*Y690000D02*Y712000D01*
Y570000D02*Y590000D01*
G54D13*Y824500D02*X1088500D01*
G54D11*X1407500Y712000D02*X1019500D01*
X1407500Y590000D02*X1034500D01*
X1347500Y1060000D02*Y1031500D01*
X1407500Y940000D02*Y930000D01*
G54D12*X622500Y425500D02*Y438500D01*
X380000D01*
G54D11*X805000Y252500D02*Y274000D01*
G54D12*X752000Y489000D02*Y610500D01*
X541000D01*
X854000Y420500D02*X844000D01*
Y468000D01*
X779500D01*
Y489000D02*X752000D01*
G54D11*X973000Y825000D02*Y252500D01*
G54D12*X541000Y677000D02*X749000D01*
Y716500D01*
X779500Y468000D02*Y489000D01*
X541000Y610500D02*Y677000D01*
X380000Y438500D02*Y710000D01*
X749000Y716500D02*X668500D01*
Y726500D01*
X445000D01*
Y742500D01*
X209000Y710000D02*X380000D01*
X218500D02*Y701500D01*
X110000D01*
Y821500D01*
Y824500D02*Y821000D01*
X209000Y830000D02*Y824500D01*
X124500D01*
X123500Y823500D01*
X114000D01*
X113000Y824500D01*
X110000D01*
G54D11*X1437500Y1050000D02*Y1094000D01*
G54D13*Y810000D02*Y841000D01*
G54D11*Y601500D02*Y570000D01*
Y955500D02*Y930000D01*
Y1094000D02*X1058000D01*
X1337500Y1060000D02*Y1035000D01*
X1177500D01*
G54D13*X1075000Y998500D02*X1176000D01*
X1437500Y841000D02*X1073500D01*
X1176000Y998500D02*Y1033500D01*
X1177500Y1035000D01*
G54D11*X1437500Y690000D02*Y722500D01*
X1009000D01*
X1437500Y601500D02*X1023000D01*
X1058000Y1094000D02*Y825000D01*
G54D13*X1035000Y842500D02*Y998500D01*
X1051500D01*
G54D11*X1058000Y825000D02*X973000D01*
G54D13*X1010000Y842500D02*X1035000D01*
X1073500Y841000D02*Y808000D01*
X988500D01*
Y235000D01*
G54D11*X1009000Y722500D02*Y211000D01*
X1023000Y601500D02*Y194000D01*
X805000Y252500D02*X973000D01*
G54D13*X988500Y235000D02*X695000D01*
G54D11*X1009000Y211000D02*X635000D01*
X1023000Y194000D02*X575000D01*
G54D13*X695000Y274000D02*Y235000D01*
G54D11*X635000Y274000D02*Y211000D01*
X575000Y194000D02*Y274000D01*
G54D12*X582500Y425500D02*Y435000D01*
X376000D01*
Y700500D01*
X297500D01*
Y690000D01*
G54D11*X795000Y248500D02*Y274000D01*
X976500Y248500D02*X795000D01*
G54D13*X994000Y229500D02*X685000D01*
Y274000D01*
G54D11*X1012500Y207500D02*X625000D01*
Y274000D01*
X1026500Y190000D02*X565000D01*
Y274000D01*
X1427500Y1050000D02*Y1090000D01*
X1062000D01*
X1427500Y950500D02*Y930000D01*
X1062000Y1090000D02*Y821500D01*
X976500D01*
G54D13*X994000Y802500D02*X1078500D01*
Y835500D01*
G54D11*X976500Y821500D02*Y248500D01*
G54D13*X994000Y802500D02*Y229500D01*
X1427500Y810000D02*Y835500D01*
X1078500D01*
G54D11*X1427500Y690000D02*Y719000D01*
X1012500D01*
X1427500Y570000D02*Y598000D01*
X1026500D01*
X1012500Y719000D02*Y207500D01*
X1026500Y598000D02*Y190000D01*
G54D12*X685000Y742500D02*Y728500D01*
X761000D01*
X786500Y480000D02*X841500D01*
Y482500D01*
G54D11*X785000Y244500D02*Y274000D01*
X980000Y817500D02*Y244500D01*
X785000D01*
G54D13*X999500Y797000D02*Y224000D01*
X675000D01*
G54D11*X1016000Y203500D02*X615000D01*
X1030500Y186000D02*X555000D01*
G54D13*X675000Y224000D02*Y274000D01*
G54D11*X615000Y203500D02*Y274000D01*
X555000Y186000D02*Y274000D01*
X1016000Y715500D02*Y203500D01*
X1030500Y594000D02*Y186000D01*
G54D12*X761000Y728500D02*Y497000D01*
X786500D01*
Y480000D01*
X841500Y482500D02*X854500D01*
X542500Y425500D02*Y433000D01*
X374000D01*
Y454500D01*
X297500Y570000D02*Y579500D01*
X374000D01*
Y454000D01*
G54D13*X1417500Y810000D02*Y830000D01*
G54D11*Y1050000D02*Y1085500D01*
X1065500D01*
Y817500D01*
X980000D01*
G54D13*X1417500Y830000D02*X1083500D01*
G54D11*X1417500Y945500D02*Y930000D01*
G54D13*X999500Y797000D02*X1083500D01*
Y830000D01*
G54D11*X1417500Y690000D02*Y715500D01*
Y570000D02*Y594000D01*
Y715500D02*X1016000D01*
X1417500Y594000D02*X1030500D01*
G54D14*X1367500Y975000D03*
X1377500D03*
X1387500D03*
X1397500D03*
X1407500D03*
X1417500D03*
X1427500D03*
X1437500D03*
G54D15*X1532500Y1012846D03*
Y984500D03*
G54D16*G36*
X1706000Y1008500D02*Y1000500D01*
X1714000D01*
Y1008500D01*
X1706000D01*
G37*
G54D14*X1367500Y1050000D03*
X1347500D03*
Y1040000D03*
X1377500Y1050000D03*
X1387500D03*
X1397500D03*
X1407500D03*
X1417500D03*
X1427500D03*
X1437500D03*
X1337500Y1040000D03*
Y1050000D03*
X1308500D03*
Y1040000D03*
G54D15*X1646000D03*
X1617654D03*
G54D14*X1219000D03*
X1209000Y1050000D03*
X1199000D03*
X1209000Y1040000D03*
X1199000D03*
X1170000D03*
X1160000D03*
X1170000Y1050000D03*
X1160000D03*
X1145000D03*
X1135000D03*
X1125000D03*
X1115000D03*
X1105000D03*
X1095000D03*
G54D15*X1709846Y1040000D03*
X1681500D03*
G54D16*G36*
X1706500Y1088000D02*Y1082000D01*
X1712500D01*
Y1088000D01*
X1706500D01*
G37*
G54D14*X1699500Y1085000D03*
G54D16*G36*
X1643250Y1076750D02*Y1071250D01*
X1648750D01*
Y1076750D01*
X1643250D01*
G37*
G54D17*X1636000Y1074000D03*
G54D14*X1277500Y975000D03*
X1287500D03*
X1297500D03*
X1307500D03*
X1317500D03*
X1327500D03*
X1337500D03*
X1347500D03*
X1258500D03*
Y985000D03*
Y995000D03*
Y1005000D03*
Y1015000D03*
Y1025000D03*
X1277500D03*
X1287500D03*
X1297500D03*
X1307500D03*
X1317500D03*
X1327500D03*
X1337500D03*
X1347500D03*
X1298500Y1050000D03*
X1288500D03*
X1278500D03*
X1268500D03*
X1298500Y1040000D03*
X1288500D03*
X1278500D03*
X1268500D03*
X1239000D03*
X1229000D03*
X1239000Y1050000D03*
X1229000D03*
X1219000D03*
X287500Y495000D03*
X297500D03*
X307500D03*
X317500D03*
X327500D03*
X337500D03*
X347500D03*
X357500D03*
X197500D03*
X207500D03*
X217500D03*
X227500D03*
X237500D03*
X247500D03*
X257500D03*
X267500D03*
X178500D03*
Y505000D03*
Y515000D03*
Y525000D03*
Y535000D03*
Y545000D03*
X197500D03*
X207500D03*
X217500D03*
X227500D03*
X237500D03*
X247500D03*
X257500D03*
X267500D03*
X287500Y570000D03*
X267500D03*
Y560000D03*
X297500Y570000D03*
X307500D03*
X317500D03*
X327500D03*
X337500D03*
X347500D03*
X357500D03*
X257500Y560000D03*
Y570000D03*
X228500D03*
Y560000D03*
G54D16*G36*
X592000Y628500D02*Y622500D01*
X598000D01*
Y628500D01*
X592000D01*
G37*
G36*
X552000D02*Y622500D01*
X558000D01*
Y628500D01*
X552000D01*
G37*
G54D14*X218500Y570000D03*
X208500D03*
X198500D03*
X188500D03*
X218500Y560000D03*
X208500D03*
X198500D03*
X188500D03*
X159000D03*
X149000D03*
X159000Y570000D03*
X149000D03*
X139000D03*
Y560000D03*
X129000Y570000D03*
X119000D03*
X129000Y560000D03*
X119000D03*
X90000D03*
X80000D03*
X90000Y570000D03*
X80000D03*
X65000D03*
X55000D03*
X45000D03*
X35000D03*
X25000D03*
X15000D03*
X197500Y615000D03*
X207500D03*
X217500D03*
X227500D03*
X237500D03*
X247500D03*
X257500D03*
X267500D03*
X178500D03*
Y625000D03*
Y635000D03*
Y645000D03*
Y655000D03*
Y665000D03*
X197500D03*
X207500D03*
X217500D03*
X227500D03*
X237500D03*
X247500D03*
X257500D03*
X267500D03*
X218500Y690000D03*
Y680000D03*
X208500D03*
X198500D03*
X188500D03*
X208500Y690000D03*
X198500D03*
X188500D03*
X159000D03*
X149000D03*
X139000D03*
G54D18*X119000Y710000D03*
G54D16*G36*
X215500Y713000D02*Y707000D01*
X221500D01*
Y713000D01*
X215500D01*
G37*
G54D14*X159000Y680000D03*
X149000D03*
X139000D03*
X129000Y690000D03*
X119000D03*
X129000Y680000D03*
X119000D03*
X90000D03*
X80000D03*
X90000Y690000D03*
X80000D03*
X65000D03*
X55000D03*
X45000D03*
X35000D03*
X25000D03*
X15000D03*
X287500Y855000D03*
Y930000D03*
X297500D03*
X307500D03*
X317500D03*
X327500D03*
X337500D03*
X347500D03*
X357500D03*
X297500Y855000D03*
X307500D03*
X317500D03*
X327500D03*
X337500D03*
X347500D03*
X357500D03*
X317500Y810000D03*
X327500D03*
X337500D03*
X347500D03*
X357500D03*
X287500D03*
X297500D03*
X307500D03*
X228500D03*
X218500D03*
X208500D03*
X267500D03*
Y800000D03*
X257500D03*
Y810000D03*
X228500Y800000D03*
X218500D03*
X208500D03*
G54D16*G36*
X205000Y834000D02*Y826000D01*
X213000D01*
Y834000D01*
X205000D01*
G37*
G54D14*X198500Y810000D03*
Y800000D03*
X188500D03*
Y810000D03*
X159000D03*
X149000D03*
X139000D03*
X129000D03*
X119000D03*
X159000Y800000D03*
X149000D03*
X139000D03*
X129000D03*
X119000D03*
X197500Y855000D03*
X207500D03*
X217500D03*
X227500D03*
X237500D03*
X247500D03*
X257500D03*
X267500D03*
X178500D03*
Y865000D03*
Y875000D03*
Y885000D03*
Y895000D03*
Y905000D03*
X197500D03*
X207500D03*
X217500D03*
X227500D03*
X237500D03*
X247500D03*
X257500D03*
X267500D03*
Y930000D03*
Y920000D03*
X257500D03*
Y930000D03*
X228500D03*
Y920000D03*
X218500Y930000D03*
Y920000D03*
X208500Y930000D03*
Y920000D03*
X198500Y930000D03*
X188500D03*
X198500Y920000D03*
X188500D03*
X159000D03*
X149000D03*
X139000D03*
X129000D03*
X159000Y930000D03*
X149000D03*
X139000D03*
X129000D03*
X119000D03*
Y920000D03*
X90000Y930000D03*
X80000D03*
X65000D03*
X90000Y920000D03*
X80000D03*
X55000Y930000D03*
X45000D03*
X35000D03*
X25000D03*
X15000D03*
X317500Y615000D03*
X327500D03*
X337500D03*
X347500D03*
X287500D03*
X297500D03*
X307500D03*
X357500D03*
X307500Y690000D03*
X317500D03*
X327500D03*
X337500D03*
X347500D03*
X357500D03*
X287500D03*
X267500D03*
Y680000D03*
X297500Y690000D03*
X287500Y735000D03*
X297500D03*
X307500D03*
X317500D03*
X327500D03*
X337500D03*
X347500D03*
X357500D03*
X267500D03*
X257500Y680000D03*
Y690000D03*
X228500D03*
Y680000D03*
X257500Y735000D03*
G54D16*G36*
X205000Y714000D02*Y706000D01*
X213000D01*
Y714000D01*
X205000D01*
G37*
G54D14*X197500Y735000D03*
X207500D03*
X217500D03*
X227500D03*
X237500D03*
X247500D03*
X178500D03*
Y745000D03*
Y755000D03*
Y765000D03*
Y775000D03*
Y785000D03*
X197500D03*
X207500D03*
X217500D03*
X227500D03*
X237500D03*
X247500D03*
X257500D03*
X267500D03*
X90000Y810000D03*
X80000D03*
X65000D03*
X90000Y800000D03*
X80000D03*
X55000Y810000D03*
X45000D03*
X35000D03*
X25000D03*
X15000D03*
G54D18*X119000Y830000D03*
G54D14*X445000Y812500D03*
X520000D03*
X445000Y802500D03*
Y792500D03*
Y782500D03*
Y772500D03*
Y762500D03*
Y752500D03*
Y742500D03*
X520000Y802500D03*
Y792500D03*
Y782500D03*
Y772500D03*
Y762500D03*
Y752500D03*
Y742500D03*
Y832500D03*
X510000D03*
Y842500D03*
X520000D03*
X445000Y902500D03*
Y921500D03*
X455000D03*
X445000Y892500D03*
X465000Y921500D03*
X475000D03*
X485000D03*
X495000D03*
Y902500D03*
X445000Y882500D03*
Y872500D03*
Y862500D03*
Y852500D03*
Y842500D03*
Y832500D03*
X495000Y862500D03*
Y852500D03*
Y842500D03*
Y832500D03*
Y892500D03*
Y882500D03*
Y872500D03*
X520000Y871500D03*
X510000D03*
Y881500D03*
Y891500D03*
Y901500D03*
X520000Y881500D03*
Y891500D03*
Y901500D03*
Y911500D03*
Y941000D03*
Y951000D03*
X510000Y911500D03*
Y941000D03*
Y951000D03*
X520000Y961000D03*
Y971000D03*
Y981000D03*
Y1010000D03*
X510000Y961000D03*
Y971000D03*
Y981000D03*
Y1010000D03*
Y1020000D03*
X520000D03*
Y1035000D03*
Y1045000D03*
Y1055000D03*
Y1065000D03*
Y1075000D03*
Y1085000D03*
X1367500Y735000D03*
Y810000D03*
X1377500D03*
X1387500D03*
X1397500D03*
X1407500D03*
X1417500D03*
X1427500D03*
X1437500D03*
X1377500Y735000D03*
X1387500D03*
X1397500D03*
X1407500D03*
X1417500D03*
X1427500D03*
X1437500D03*
X1397500Y690000D03*
X1407500D03*
X1417500D03*
X1427500D03*
X1437500D03*
X1367500Y495000D03*
X1377500D03*
X1387500D03*
X1397500D03*
X1407500D03*
X1417500D03*
X1427500D03*
X1437500D03*
X1367500Y570000D03*
X1377500D03*
X1387500D03*
X1397500D03*
X1407500D03*
X1417500D03*
X1427500D03*
X1437500D03*
G54D15*X1495000Y490000D03*
X1523346D03*
G54D16*G36*
X1537500Y401500D02*Y395500D01*
X1543500D01*
Y401500D01*
X1537500D01*
G37*
G36*
X1558500D02*Y395500D01*
X1564500D01*
Y401500D01*
X1558500D01*
G37*
G36*
X1579500D02*Y395500D01*
X1585500D01*
Y401500D01*
X1579500D01*
G37*
G36*
X1600500D02*Y395500D01*
X1606500D01*
Y401500D01*
X1600500D01*
G37*
G36*
X1621500D02*Y395500D01*
X1627500D01*
Y401500D01*
X1621500D01*
G37*
G36*
X1642500D02*Y395500D01*
X1648500D01*
Y401500D01*
X1642500D01*
G37*
G36*
X1663500D02*Y395500D01*
X1669500D01*
Y401500D01*
X1663500D01*
G37*
G36*
X1684500D02*Y395500D01*
X1690500D01*
Y401500D01*
X1684500D01*
G37*
G36*
X1705500D02*Y395500D01*
X1711500D01*
Y401500D01*
X1705500D01*
G37*
G36*
X1726500D02*Y395500D01*
X1732500D01*
Y401500D01*
X1726500D01*
G37*
G36*
X1747500D02*Y395500D01*
X1753500D01*
Y401500D01*
X1747500D01*
G37*
G36*
X1768500D02*Y395500D01*
X1774500D01*
Y401500D01*
X1768500D01*
G37*
G54D14*X1278500Y810000D03*
X1268500D03*
X1278500Y800000D03*
X1268500D03*
X1239000D03*
X1229000D03*
X1219000D03*
X1209000D03*
X1239000Y810000D03*
X1229000D03*
X1219000D03*
X1209000D03*
X1199000D03*
Y800000D03*
X1170000Y810000D03*
X1160000D03*
X1145000D03*
X1170000Y800000D03*
X1160000D03*
X1135000Y810000D03*
X1125000D03*
X1115000D03*
X1105000D03*
X1095000D03*
X1367500Y615000D03*
X1377500D03*
X1387500D03*
X1397500D03*
X1407500D03*
X1417500D03*
X1427500D03*
X1437500D03*
X1297500D03*
X1307500D03*
X1317500D03*
X1327500D03*
X1337500D03*
X1347500D03*
X1277500D03*
X1258500D03*
Y625000D03*
Y635000D03*
Y645000D03*
Y655000D03*
Y665000D03*
X1287500D03*
X1297500D03*
X1307500D03*
X1317500D03*
X1327500D03*
X1337500D03*
X1347500D03*
X1287500Y615000D03*
X1277500Y735000D03*
X1287500D03*
X1297500D03*
X1307500D03*
X1317500D03*
X1327500D03*
X1337500D03*
X1347500D03*
X1258500D03*
Y745000D03*
Y755000D03*
Y765000D03*
Y775000D03*
Y785000D03*
X1277500D03*
X1287500D03*
X1297500D03*
X1307500D03*
X1317500D03*
X1327500D03*
X1337500D03*
X1347500D03*
Y810000D03*
Y800000D03*
X1337500D03*
Y810000D03*
X1308500D03*
Y800000D03*
X1298500Y810000D03*
Y800000D03*
X1288500Y810000D03*
Y800000D03*
X1367500Y690000D03*
X1377500D03*
X1387500D03*
X1308500D03*
X1298500D03*
X1288500D03*
X1347500D03*
Y680000D03*
X1337500D03*
Y690000D03*
X1308500Y680000D03*
X1298500D03*
X1288500D03*
X1278500Y690000D03*
Y680000D03*
X1268500D03*
Y690000D03*
X1239000D03*
X1229000D03*
X1219000D03*
X1209000D03*
X1199000D03*
X1239000Y680000D03*
X1229000D03*
X1219000D03*
X1209000D03*
X1199000D03*
X1170000Y690000D03*
X1160000D03*
X1145000D03*
X1170000Y680000D03*
X1160000D03*
X1135000Y690000D03*
X1125000D03*
X1115000D03*
X1105000D03*
X1095000D03*
X1287500Y495000D03*
X1297500D03*
X1307500D03*
X1317500D03*
X1327500D03*
X1337500D03*
X1277500Y665000D03*
Y495000D03*
Y545000D03*
X1258500Y525000D03*
Y535000D03*
Y545000D03*
X1287500D03*
X1297500D03*
X1307500D03*
X1317500D03*
X1278500Y560000D03*
X1268500Y570000D03*
Y560000D03*
X1258500Y495000D03*
Y505000D03*
Y515000D03*
X1347500Y495000D03*
G54D16*G36*
X884500Y518500D02*Y512500D01*
X890500D01*
Y518500D01*
X884500D01*
G37*
G36*
X851500Y485500D02*Y479500D01*
X857500D01*
Y485500D01*
X851500D01*
G37*
G36*
Y495500D02*Y489500D01*
X857500D01*
Y495500D01*
X851500D01*
G37*
G36*
Y454500D02*Y448500D01*
X857500D01*
Y454500D01*
X851500D01*
G37*
G36*
X884500Y498500D02*Y492500D01*
X890500D01*
Y498500D01*
X884500D01*
G37*
G36*
X794000Y499000D02*Y493000D01*
X800000D01*
Y499000D01*
X794000D01*
G37*
G36*
Y489000D02*Y483000D01*
X800000D01*
Y489000D01*
X794000D01*
G37*
G54D14*X1327500Y545000D03*
X1337500D03*
X1347500D03*
Y570000D03*
Y560000D03*
X1337500D03*
Y570000D03*
X1308500D03*
Y560000D03*
X1298500Y570000D03*
Y560000D03*
X1288500Y570000D03*
Y560000D03*
X1278500Y570000D03*
X1239000D03*
Y560000D03*
X1229000Y570000D03*
Y560000D03*
X1219000Y570000D03*
Y560000D03*
X1209000Y570000D03*
Y560000D03*
X1199000D03*
Y570000D03*
X1170000D03*
Y560000D03*
X1160000D03*
Y570000D03*
X1145000D03*
X1135000D03*
X1125000D03*
X1115000D03*
X1105000D03*
X1095000D03*
G54D16*G36*
X884500Y598500D02*Y592500D01*
X890500D01*
Y598500D01*
X884500D01*
G37*
G36*
X712000Y628500D02*Y622500D01*
X718000D01*
Y628500D01*
X712000D01*
G37*
G36*
X732000D02*Y622500D01*
X738000D01*
Y628500D01*
X732000D01*
G37*
G36*
X672000D02*Y622500D01*
X678000D01*
Y628500D01*
X672000D01*
G37*
G36*
X632000D02*Y622500D01*
X638000D01*
Y628500D01*
X632000D01*
G37*
G36*
X671500Y580000D02*Y574000D01*
X677500D01*
Y580000D01*
X671500D01*
G37*
G36*
X884500Y578500D02*Y572500D01*
X890500D01*
Y578500D01*
X884500D01*
G37*
G36*
Y538500D02*Y532500D01*
X890500D01*
Y538500D01*
X884500D01*
G37*
G36*
Y558500D02*Y552500D01*
X890500D01*
Y558500D01*
X884500D01*
G37*
G36*
X872000Y277000D02*Y271000D01*
X878000D01*
Y277000D01*
X872000D01*
G37*
G36*
X862000D02*Y271000D01*
X868000D01*
Y277000D01*
X862000D01*
G37*
G36*
X852000D02*Y271000D01*
X858000D01*
Y277000D01*
X852000D01*
G37*
G36*
X842000D02*Y271000D01*
X848000D01*
Y277000D01*
X842000D01*
G37*
G36*
X812000D02*Y271000D01*
X818000D01*
Y277000D01*
X812000D01*
G37*
G36*
X802000D02*Y271000D01*
X808000D01*
Y277000D01*
X802000D01*
G37*
G36*
X792000D02*Y271000D01*
X798000D01*
Y277000D01*
X792000D01*
G37*
G36*
X782000D02*Y271000D01*
X788000D01*
Y277000D01*
X782000D01*
G37*
G36*
X851000Y423500D02*Y417500D01*
X857000D01*
Y423500D01*
X851000D01*
G37*
G36*
Y392500D02*Y386500D01*
X857000D01*
Y392500D01*
X851000D01*
G37*
G36*
X777500Y396000D02*Y390000D01*
X783500D01*
Y396000D01*
X777500D01*
G37*
G36*
X767500D02*Y390000D01*
X773500D01*
Y396000D01*
X767500D01*
G37*
G36*
X757500D02*Y390000D01*
X763500D01*
Y396000D01*
X757500D01*
G37*
G36*
X599500Y403000D02*Y397000D01*
X605500D01*
Y403000D01*
X599500D01*
G37*
G36*
X559500D02*Y397000D01*
X565500D01*
Y403000D01*
X559500D01*
G37*
G36*
X519500D02*Y397000D01*
X525500D01*
Y403000D01*
X519500D01*
G37*
G36*
X539500Y428500D02*Y422500D01*
X545500D01*
Y428500D01*
X539500D01*
G37*
G36*
X579500D02*Y422500D01*
X585500D01*
Y428500D01*
X579500D01*
G37*
G36*
X599500D02*Y422500D01*
X605500D01*
Y428500D01*
X599500D01*
G37*
G36*
X609500D02*Y422500D01*
X615500D01*
Y428500D01*
X609500D01*
G37*
G36*
X619500D02*Y422500D01*
X625500D01*
Y428500D01*
X619500D01*
G37*
G36*
X582000Y277000D02*Y271000D01*
X588000D01*
Y277000D01*
X582000D01*
G37*
G36*
X572000D02*Y271000D01*
X578000D01*
Y277000D01*
X572000D01*
G37*
G36*
X562000D02*Y271000D01*
X568000D01*
Y277000D01*
X562000D01*
G37*
G36*
X552000D02*Y271000D01*
X558000D01*
Y277000D01*
X552000D01*
G37*
G36*
X642000D02*Y271000D01*
X648000D01*
Y277000D01*
X642000D01*
G37*
G36*
X632000D02*Y271000D01*
X638000D01*
Y277000D01*
X632000D01*
G37*
G36*
X622000D02*Y271000D01*
X628000D01*
Y277000D01*
X622000D01*
G37*
G36*
X612000D02*Y271000D01*
X618000D01*
Y277000D01*
X612000D01*
G37*
G36*
X702000D02*Y271000D01*
X708000D01*
Y277000D01*
X702000D01*
G37*
G36*
X692000D02*Y271000D01*
X698000D01*
Y277000D01*
X692000D01*
G37*
G36*
X682000D02*Y271000D01*
X688000D01*
Y277000D01*
X682000D01*
G37*
G36*
X672000D02*Y271000D01*
X678000D01*
Y277000D01*
X672000D01*
G37*
G36*
X732000D02*Y271000D01*
X738000D01*
Y277000D01*
X732000D01*
G37*
G36*
X752000D02*Y271000D01*
X758000D01*
Y277000D01*
X752000D01*
G37*
G36*
X742000D02*Y271000D01*
X748000D01*
Y277000D01*
X742000D01*
G37*
G36*
X722000D02*Y271000D01*
X728000D01*
Y277000D01*
X722000D01*
G37*
G54D15*X881000Y1075846D03*
Y1047500D03*
X849000Y1075846D03*
Y1047500D03*
X817000Y1075846D03*
Y1047500D03*
X785000Y1075846D03*
Y1047500D03*
G54D14*X760000Y1085000D03*
Y1075000D03*
Y1065000D03*
Y1055000D03*
Y1045000D03*
Y1035000D03*
Y1020000D03*
X750000D03*
Y1010000D03*
X760000D03*
X750000Y981000D03*
X760000D03*
X750000Y971000D03*
X760000D03*
X750000Y961000D03*
Y951000D03*
Y941000D03*
X760000Y961000D03*
Y951000D03*
Y941000D03*
Y911500D03*
Y901500D03*
Y891500D03*
Y742500D03*
Y752500D03*
Y762500D03*
Y772500D03*
Y782500D03*
Y792500D03*
Y802500D03*
Y812500D03*
Y881500D03*
Y871500D03*
Y842500D03*
Y832500D03*
X750000Y871500D03*
X735000Y852500D03*
Y862500D03*
X750000Y842500D03*
Y832500D03*
X735000D03*
Y842500D03*
Y872500D03*
X750000Y911500D03*
Y901500D03*
Y891500D03*
Y881500D03*
X735000Y882500D03*
Y892500D03*
Y902500D03*
Y921500D03*
X725000D03*
X715000D03*
X705000D03*
X695000D03*
X685000D03*
Y882500D03*
Y892500D03*
Y902500D03*
Y832500D03*
Y842500D03*
Y852500D03*
Y862500D03*
Y872500D03*
Y742500D03*
Y752500D03*
Y762500D03*
Y772500D03*
Y782500D03*
Y792500D03*
Y802500D03*
Y812500D03*
X1367500Y855000D03*
Y930000D03*
X1377500Y855000D03*
X1387500D03*
X1397500D03*
X1407500D03*
X1417500D03*
X1427500D03*
X1437500D03*
X1377500Y930000D03*
X1387500D03*
X1397500D03*
X1407500D03*
X1417500D03*
X1427500D03*
X1437500D03*
X1277500Y855000D03*
X1287500D03*
X1297500D03*
X1307500D03*
X1317500D03*
X1327500D03*
X1337500D03*
X1347500D03*
X1258500D03*
Y865000D03*
Y875000D03*
Y885000D03*
Y895000D03*
Y905000D03*
X1277500D03*
X1287500D03*
X1297500D03*
X1307500D03*
X1317500D03*
X1327500D03*
X1337500D03*
X1347500D03*
X1278500Y930000D03*
X1268500D03*
X1278500Y920000D03*
X1268500D03*
X1239000D03*
X1229000D03*
X1219000D03*
X1209000D03*
X1239000Y930000D03*
X1229000D03*
X1219000D03*
X1209000D03*
X1199000D03*
Y920000D03*
X1170000Y930000D03*
X1160000D03*
X1145000D03*
X1170000Y920000D03*
X1160000D03*
X1135000Y930000D03*
X1125000D03*
X1115000D03*
X1105000D03*
X1095000D03*
G54D15*X1746500Y848500D03*
G54D16*G36*
X1772500Y851500D02*Y845500D01*
X1778500D01*
Y851500D01*
X1772500D01*
G37*
G54D14*X1775500Y838500D03*
G54D15*X1746500Y820154D03*
X1710000Y848500D03*
Y820154D03*
G54D16*G36*
X1706000Y772500D02*Y764500D01*
X1714000D01*
Y772500D01*
X1706000D01*
G37*
G54D18*X1710000Y678500D03*
G54D15*Y618000D03*
X1681654D03*
X1554000Y848654D03*
G54D14*X1582500Y845000D03*
X1592500D03*
X1602500D03*
G54D15*X1627500Y848654D03*
X1599154Y811654D03*
X1627500D03*
G54D14*X1347500Y930000D03*
Y920000D03*
X1337500D03*
Y930000D03*
X1308500D03*
Y920000D03*
X1298500Y930000D03*
Y920000D03*
X1288500Y930000D03*
Y920000D03*
G54D18*X1710000Y914500D03*
G54D15*X1554000Y877000D03*
G54D16*G36*
X1599500Y878000D02*Y872000D01*
X1605500D01*
Y878000D01*
X1599500D01*
G37*
G54D14*X1592500Y875000D03*
X1582500D03*
G54D15*X1627500Y877000D03*
X1509000D03*
Y848654D03*
G54D14*X1075000Y1020000D03*
Y1010000D03*
X1051500D03*
Y1020000D03*
X1160000Y1060000D03*
X1170000D03*
X1337500D03*
X1347500D03*
X80000D03*
X90000D03*
X1010000Y1020000D03*
X430000D03*
Y1010000D03*
X1010000D03*
Y842500D03*
Y832500D03*
X1075000Y998500D03*
X1051500D03*
X1075000Y989500D03*
X1051500D03*
X1407500Y940000D03*
X1417500Y945500D03*
X1427500Y950500D03*
X1437500Y955500D03*
G54D19*G54D20*G54D19*G54D21*G54D22*G54D19*G54D21*G54D19*G54D21*G54D19*G54D23*G54D19*G54D22*G54D19*G54D22*G54D19*G54D22*G54D19*G54D22*G54D19*G54D21*G54D19*G54D21*G54D19*G54D21*G54D19*G54D21*G54D22*G54D21*G54D24*G54D21*G54D19*G54D22*G54D21*G54D24*G54D21*M02*
