<?xml version="1.0" encoding="UTF-8"?>
<svg xmlns="http://www.w3.org/2000/svg" xmlns:xlink="http://www.w3.org/1999/xlink" width="144pt" height="166pt" viewBox="0 0 144 166" version="1.1">
<g id="surface1">
<path style="fill:none;stroke-width:0.006;stroke-linecap:round;stroke-linejoin:miter;stroke:rgb(45.882353%,94.901961%,40.392157%);stroke-opacity:1;stroke-miterlimit:10;" d="M -0.00000225421 2.300017 L 1.900009 2.300017 " transform="matrix(72,0,0,-72,3.6486,169.0114)"/>
<path style="fill:none;stroke-width:0.006;stroke-linecap:round;stroke-linejoin:miter;stroke:rgb(45.882353%,94.901961%,40.392157%);stroke-opacity:1;stroke-miterlimit:10;" d="M 1.900009 2.300017 L 1.900009 0.0999847 " transform="matrix(72,0,0,-72,3.6486,169.0114)"/>
<path style="fill:none;stroke-width:0.006;stroke-linecap:round;stroke-linejoin:miter;stroke:rgb(45.882353%,94.901961%,40.392157%);stroke-opacity:1;stroke-miterlimit:10;" d="M 1.900009 0.0999847 L -0.00000225421 0.0999847 " transform="matrix(72,0,0,-72,3.6486,169.0114)"/>
<path style="fill:none;stroke-width:0.006;stroke-linecap:round;stroke-linejoin:miter;stroke:rgb(45.882353%,94.901961%,40.392157%);stroke-opacity:1;stroke-miterlimit:10;" d="M -0.00000225421 0.0999847 L -0.00000225421 2.300017 " transform="matrix(72,0,0,-72,3.6486,169.0114)"/>
<path style=" stroke:none;fill-rule:evenodd;fill:rgb(75.686275%,0%,87.843137%);fill-opacity:1;" d="M 93.863281 131.210938 C 93.863281 129.964844 91.992188 129.964844 91.992188 131.210938 C 91.992188 132.460938 93.863281 132.460938 93.863281 131.210938 "/>
<path style=" stroke:none;fill-rule:evenodd;fill:rgb(75.686275%,0%,87.843137%);fill-opacity:1;" d="M 83.066406 131.210938 C 83.066406 129.964844 81.191406 129.964844 81.191406 131.210938 C 81.191406 132.460938 83.066406 132.460938 83.066406 131.210938 "/>
<path style=" stroke:none;fill-rule:evenodd;fill:rgb(75.686275%,0%,87.843137%);fill-opacity:1;" d="M 85.222656 131.210938 C 85.222656 129.964844 83.351562 129.964844 83.351562 131.210938 C 83.351562 132.460938 85.222656 132.460938 85.222656 131.210938 "/>
<path style=" stroke:none;fill-rule:evenodd;fill:rgb(75.686275%,0%,87.843137%);fill-opacity:1;" d="M 87.382812 131.210938 C 87.382812 129.964844 85.511719 129.964844 85.511719 131.210938 C 85.511719 132.460938 87.382812 132.460938 87.382812 131.210938 "/>
<path style=" stroke:none;fill-rule:evenodd;fill:rgb(75.686275%,0%,87.843137%);fill-opacity:1;" d="M 96.023438 131.210938 C 96.023438 129.964844 94.152344 129.964844 94.152344 131.210938 C 94.152344 132.460938 96.023438 132.460938 96.023438 131.210938 "/>
<path style=" stroke:none;fill-rule:evenodd;fill:rgb(75.686275%,0%,87.843137%);fill-opacity:1;" d="M 92.066406 129.769531 C 92.066406 128.523438 90.191406 128.523438 90.191406 129.769531 C 90.191406 131.019531 92.066406 131.019531 92.066406 129.769531 "/>
<path style=" stroke:none;fill-rule:evenodd;fill:rgb(75.686275%,0%,87.843137%);fill-opacity:1;" d="M 75.863281 124.011719 C 75.863281 122.761719 73.992188 122.761719 73.992188 124.011719 C 73.992188 125.257812 75.863281 125.257812 75.863281 124.011719 "/>
<path style=" stroke:none;fill-rule:evenodd;fill:rgb(75.686275%,0%,87.843137%);fill-opacity:1;" d="M 78.023438 124.011719 C 78.023438 122.761719 76.152344 122.761719 76.152344 124.011719 C 76.152344 125.257812 78.023438 125.257812 78.023438 124.011719 "/>
<path style=" stroke:none;fill-rule:evenodd;fill:rgb(75.686275%,0%,87.843137%);fill-opacity:1;" d="M 80.183594 124.011719 C 80.183594 122.761719 78.3125 122.761719 78.3125 124.011719 C 78.3125 125.257812 80.183594 125.257812 80.183594 124.011719 "/>
<path style=" stroke:none;fill-rule:evenodd;fill:rgb(75.686275%,0%,87.843137%);fill-opacity:1;" d="M 101.066406 123.652344 C 101.066406 122.402344 99.191406 122.402344 99.191406 123.652344 C 99.191406 124.898438 101.066406 124.898438 101.066406 123.652344 "/>
<path style=" stroke:none;fill-rule:evenodd;fill:rgb(75.686275%,0%,87.843137%);fill-opacity:1;" d="M 103.222656 123.652344 C 103.222656 122.402344 101.351562 122.402344 101.351562 123.652344 C 101.351562 124.898438 103.222656 124.898438 103.222656 123.652344 "/>
<path style=" stroke:none;fill-rule:evenodd;fill:rgb(75.686275%,0%,87.843137%);fill-opacity:1;" d="M 97.824219 129.769531 C 97.824219 128.523438 95.953125 128.523438 95.953125 129.769531 C 95.953125 131.019531 97.824219 131.019531 97.824219 129.769531 "/>
<path style=" stroke:none;fill-rule:evenodd;fill:rgb(75.686275%,0%,87.843137%);fill-opacity:1;" d="M 112.582031 130.851562 C 112.582031 129.601562 110.710938 129.601562 110.710938 130.851562 C 110.710938 132.097656 112.582031 132.097656 112.582031 130.851562 "/>
<path style=" stroke:none;fill-rule:evenodd;fill:rgb(75.686275%,0%,87.843137%);fill-opacity:1;" d="M 114.746094 130.851562 C 114.746094 129.601562 112.871094 129.601562 112.871094 130.851562 C 112.871094 132.097656 114.746094 132.097656 114.746094 130.851562 "/>
<path style=" stroke:none;fill-rule:evenodd;fill:rgb(75.686275%,0%,87.843137%);fill-opacity:1;" d="M 108.984375 128.332031 C 108.984375 127.082031 107.113281 127.082031 107.113281 128.332031 C 107.113281 129.578125 108.984375 129.578125 108.984375 128.332031 "/>
<path style=" stroke:none;fill-rule:evenodd;fill:rgb(75.686275%,0%,87.843137%);fill-opacity:1;" d="M 111.144531 128.332031 C 111.144531 127.082031 109.273438 127.082031 109.273438 128.332031 C 109.273438 129.578125 111.144531 129.578125 111.144531 128.332031 "/>
<path style=" stroke:none;fill-rule:evenodd;fill:rgb(75.686275%,0%,87.843137%);fill-opacity:1;" d="M 123.023438 131.210938 C 123.023438 129.964844 121.152344 129.964844 121.152344 131.210938 C 121.152344 132.460938 123.023438 132.460938 123.023438 131.210938 "/>
<path style=" stroke:none;fill-rule:evenodd;fill:rgb(75.686275%,0%,87.843137%);fill-opacity:1;" d="M 125.183594 131.210938 C 125.183594 129.964844 123.3125 129.964844 123.3125 131.210938 C 123.3125 132.460938 125.183594 132.460938 125.183594 131.210938 "/>
<path style=" stroke:none;fill-rule:evenodd;fill:rgb(75.686275%,0%,87.843137%);fill-opacity:1;" d="M 116.472656 22.636719 L 116.472656 27.386719 L 121.222656 27.386719 L 121.222656 22.636719 Z M 116.472656 22.636719 "/>
<path style=" stroke:none;fill-rule:evenodd;fill:rgb(75.686275%,0%,87.843137%);fill-opacity:1;" d="M 114.023438 25.011719 C 114.023438 21.84375 109.273438 21.84375 109.273438 25.011719 C 109.273438 28.179688 114.023438 28.179688 114.023438 25.011719 "/>
<path style=" stroke:none;fill-rule:evenodd;fill:rgb(75.686275%,0%,87.843137%);fill-opacity:1;" d="M 106.824219 25.011719 C 106.824219 21.84375 102.074219 21.84375 102.074219 25.011719 C 102.074219 28.179688 106.824219 28.179688 106.824219 25.011719 "/>
<path style=" stroke:none;fill-rule:evenodd;fill:rgb(75.686275%,0%,87.843137%);fill-opacity:1;" d="M 121.222656 32.210938 C 121.222656 29.042969 116.472656 29.042969 116.472656 32.210938 C 116.472656 35.378906 121.222656 35.378906 121.222656 32.210938 "/>
<path style=" stroke:none;fill-rule:evenodd;fill:rgb(75.686275%,0%,87.843137%);fill-opacity:1;" d="M 114.023438 32.210938 C 114.023438 29.042969 109.273438 29.042969 109.273438 32.210938 C 109.273438 35.378906 114.023438 35.378906 114.023438 32.210938 "/>
<path style=" stroke:none;fill-rule:evenodd;fill:rgb(75.686275%,0%,87.843137%);fill-opacity:1;" d="M 106.824219 32.210938 C 106.824219 29.042969 102.074219 29.042969 102.074219 32.210938 C 102.074219 35.378906 106.824219 35.378906 106.824219 32.210938 "/>
<path style=" stroke:none;fill-rule:evenodd;fill:rgb(75.686275%,0%,87.843137%);fill-opacity:1;" d="M 99.625 32.210938 C 99.625 29.042969 94.871094 29.042969 94.871094 32.210938 C 94.871094 35.378906 99.625 35.378906 99.625 32.210938 "/>
<path style=" stroke:none;fill-rule:evenodd;fill:rgb(75.686275%,0%,87.843137%);fill-opacity:1;" d="M 92.425781 32.210938 C 92.425781 29.042969 87.671875 29.042969 87.671875 32.210938 C 87.671875 35.378906 92.425781 35.378906 92.425781 32.210938 "/>
<path style=" stroke:none;fill-rule:evenodd;fill:rgb(75.686275%,0%,87.843137%);fill-opacity:1;" d="M 85.222656 32.210938 C 85.222656 29.042969 80.472656 29.042969 80.472656 32.210938 C 80.472656 35.378906 85.222656 35.378906 85.222656 32.210938 "/>
<path style=" stroke:none;fill-rule:evenodd;fill:rgb(75.686275%,0%,87.843137%);fill-opacity:1;" d="M 99.625 25.011719 C 99.625 21.84375 94.871094 21.84375 94.871094 25.011719 C 94.871094 28.179688 99.625 28.179688 99.625 25.011719 "/>
<path style=" stroke:none;fill-rule:evenodd;fill:rgb(75.686275%,0%,87.843137%);fill-opacity:1;" d="M 92.425781 25.011719 C 92.425781 21.84375 87.671875 21.84375 87.671875 25.011719 C 87.671875 28.179688 92.425781 28.179688 92.425781 25.011719 "/>
<path style=" stroke:none;fill-rule:evenodd;fill:rgb(75.686275%,0%,87.843137%);fill-opacity:1;" d="M 85.222656 25.011719 C 85.222656 21.84375 80.472656 21.84375 80.472656 25.011719 C 80.472656 28.179688 85.222656 28.179688 85.222656 25.011719 "/>
<path style=" stroke:none;fill-rule:evenodd;fill:rgb(75.686275%,0%,87.843137%);fill-opacity:1;" d="M 78.023438 25.011719 C 78.023438 21.84375 73.273438 21.84375 73.273438 25.011719 C 73.273438 28.179688 78.023438 28.179688 78.023438 25.011719 "/>
<path style=" stroke:none;fill-rule:evenodd;fill:rgb(75.686275%,0%,87.843137%);fill-opacity:1;" d="M 78.023438 32.210938 C 78.023438 29.042969 73.273438 29.042969 73.273438 32.210938 C 73.273438 35.378906 78.023438 35.378906 78.023438 32.210938 "/>
<path style=" stroke:none;fill-rule:evenodd;fill:rgb(75.686275%,0%,87.843137%);fill-opacity:1;" d="M 70.824219 25.011719 C 70.824219 21.84375 66.074219 21.84375 66.074219 25.011719 C 66.074219 28.179688 70.824219 28.179688 70.824219 25.011719 "/>
<path style=" stroke:none;fill-rule:evenodd;fill:rgb(75.686275%,0%,87.843137%);fill-opacity:1;" d="M 63.625 25.011719 C 63.625 21.84375 58.871094 21.84375 58.871094 25.011719 C 58.871094 28.179688 63.625 28.179688 63.625 25.011719 "/>
<path style=" stroke:none;fill-rule:evenodd;fill:rgb(75.686275%,0%,87.843137%);fill-opacity:1;" d="M 56.425781 25.011719 C 56.425781 21.84375 51.671875 21.84375 51.671875 25.011719 C 51.671875 28.179688 56.425781 28.179688 56.425781 25.011719 "/>
<path style=" stroke:none;fill-rule:evenodd;fill:rgb(75.686275%,0%,87.843137%);fill-opacity:1;" d="M 70.824219 32.210938 C 70.824219 29.042969 66.074219 29.042969 66.074219 32.210938 C 66.074219 35.378906 70.824219 35.378906 70.824219 32.210938 "/>
<path style=" stroke:none;fill-rule:evenodd;fill:rgb(75.686275%,0%,87.843137%);fill-opacity:1;" d="M 63.625 32.210938 C 63.625 29.042969 58.871094 29.042969 58.871094 32.210938 C 58.871094 35.378906 63.625 35.378906 63.625 32.210938 "/>
<path style=" stroke:none;fill-rule:evenodd;fill:rgb(75.686275%,0%,87.843137%);fill-opacity:1;" d="M 56.425781 32.210938 C 56.425781 29.042969 51.671875 29.042969 51.671875 32.210938 C 51.671875 35.378906 56.425781 35.378906 56.425781 32.210938 "/>
<path style=" stroke:none;fill-rule:evenodd;fill:rgb(75.686275%,0%,87.843137%);fill-opacity:1;" d="M 33.023438 124.011719 C 33.023438 122.761719 31.152344 122.761719 31.152344 124.011719 C 31.152344 125.257812 33.023438 125.257812 33.023438 124.011719 "/>
<path style=" stroke:none;fill-rule:evenodd;fill:rgb(75.686275%,0%,87.843137%);fill-opacity:1;" d="M 43.464844 124.011719 C 43.464844 122.761719 41.59375 122.761719 41.59375 124.011719 C 41.59375 125.257812 43.464844 125.257812 43.464844 124.011719 "/>
<path style=" stroke:none;fill-rule:evenodd;fill:rgb(75.686275%,0%,87.843137%);fill-opacity:1;" d="M 41.304688 124.011719 C 41.304688 122.761719 39.433594 122.761719 39.433594 124.011719 C 39.433594 125.257812 41.304688 125.257812 41.304688 124.011719 "/>
<path style=" stroke:none;fill-rule:evenodd;fill:rgb(75.686275%,0%,87.843137%);fill-opacity:1;" d="M 39.144531 124.011719 C 39.144531 122.761719 37.273438 122.761719 37.273438 124.011719 C 37.273438 125.257812 39.144531 125.257812 39.144531 124.011719 "/>
<path style=" stroke:none;fill-rule:evenodd;fill:rgb(75.686275%,0%,87.843137%);fill-opacity:1;" d="M 30.863281 124.011719 C 30.863281 122.761719 28.992188 122.761719 28.992188 124.011719 C 28.992188 125.257812 30.863281 125.257812 30.863281 124.011719 "/>
<path style=" stroke:none;fill-rule:evenodd;fill:rgb(75.686275%,0%,87.843137%);fill-opacity:1;" d="M 28.703125 124.011719 C 28.703125 122.761719 26.832031 122.761719 26.832031 124.011719 C 26.832031 125.257812 28.703125 125.257812 28.703125 124.011719 "/>
<path style=" stroke:none;fill-rule:evenodd;fill:rgb(75.686275%,0%,87.843137%);fill-opacity:1;" d="M 55.34375 124.011719 C 55.34375 122.761719 53.472656 122.761719 53.472656 124.011719 C 53.472656 125.257812 55.34375 125.257812 55.34375 124.011719 "/>
<path style=" stroke:none;fill-rule:evenodd;fill:rgb(75.686275%,0%,87.843137%);fill-opacity:1;" d="M 53.183594 124.011719 C 53.183594 122.761719 51.3125 122.761719 51.3125 124.011719 C 51.3125 125.257812 53.183594 125.257812 53.183594 124.011719 "/>
<path style=" stroke:none;fill-rule:evenodd;fill:rgb(75.686275%,0%,87.843137%);fill-opacity:1;" d="M 51.023438 124.011719 C 51.023438 122.761719 49.152344 122.761719 49.152344 124.011719 C 49.152344 125.257812 51.023438 125.257812 51.023438 124.011719 "/>
<path style=" stroke:none;fill-rule:evenodd;fill:rgb(75.686275%,0%,87.843137%);fill-opacity:1;" d="M 65.785156 124.011719 C 65.785156 122.761719 63.914062 122.761719 63.914062 124.011719 C 63.914062 125.257812 65.785156 125.257812 65.785156 124.011719 "/>
<path style=" stroke:none;fill-rule:evenodd;fill:rgb(75.686275%,0%,87.843137%);fill-opacity:1;" d="M 63.625 124.011719 C 63.625 122.761719 61.753906 122.761719 61.753906 124.011719 C 61.753906 125.257812 63.625 125.257812 63.625 124.011719 "/>
<path style=" stroke:none;fill-rule:evenodd;fill:rgb(75.686275%,0%,87.843137%);fill-opacity:1;" d="M 61.464844 124.011719 C 61.464844 122.761719 59.59375 122.761719 59.59375 124.011719 C 59.59375 125.257812 61.464844 125.257812 61.464844 124.011719 "/>
<path style=" stroke:none;fill-rule:evenodd;fill:rgb(100%,49.803922%,45.098039%);fill-opacity:1;" d="M 27.046875 88.011719 C 27.046875 87.53125 26.328125 87.53125 26.328125 88.011719 C 26.328125 88.492188 27.046875 88.492188 27.046875 88.011719 "/>
<path style=" stroke:none;fill-rule:evenodd;fill:rgb(100%,49.803922%,45.098039%);fill-opacity:1;" d="M 28.128906 124.011719 C 28.128906 123.53125 27.410156 123.53125 27.410156 124.011719 C 27.410156 124.492188 28.128906 124.492188 28.128906 124.011719 "/>
<path style=" stroke:none;fill-rule:evenodd;fill:rgb(100%,49.803922%,45.098039%);fill-opacity:1;" d="M 29.207031 90.171875 C 29.207031 89.691406 28.488281 89.691406 28.488281 90.171875 C 28.488281 90.652344 29.207031 90.652344 29.207031 90.171875 "/>
<path style=" stroke:none;fill-rule:evenodd;fill:rgb(100%,49.803922%,45.098039%);fill-opacity:1;" d="M 30.289062 124.011719 C 30.289062 123.53125 29.570312 123.53125 29.570312 124.011719 C 29.570312 124.492188 30.289062 124.492188 30.289062 124.011719 "/>
<path style=" stroke:none;fill-rule:evenodd;fill:rgb(100%,49.803922%,45.098039%);fill-opacity:1;" d="M 31.367188 92.691406 C 31.367188 92.210938 30.648438 92.210938 30.648438 92.691406 C 30.648438 93.171875 31.367188 93.171875 31.367188 92.691406 "/>
<path style=" stroke:none;fill-rule:evenodd;fill:rgb(100%,49.803922%,45.098039%);fill-opacity:1;" d="M 32.449219 124.011719 C 32.449219 123.53125 31.730469 123.53125 31.730469 124.011719 C 31.730469 124.492188 32.449219 124.492188 32.449219 124.011719 "/>
<path style=" stroke:none;fill-rule:evenodd;fill:rgb(100%,49.803922%,45.098039%);fill-opacity:1;" d="M 37.128906 88.011719 C 37.128906 87.53125 36.410156 87.53125 36.410156 88.011719 C 36.410156 88.492188 37.128906 88.492188 37.128906 88.011719 "/>
<path style=" stroke:none;fill-rule:evenodd;fill:rgb(100%,49.803922%,45.098039%);fill-opacity:1;" d="M 38.570312 124.011719 C 38.570312 123.53125 37.847656 123.53125 37.847656 124.011719 C 37.847656 124.492188 38.570312 124.492188 38.570312 124.011719 "/>
<path style=" stroke:none;fill-rule:evenodd;fill:rgb(100%,49.803922%,45.098039%);fill-opacity:1;" d="M 39.289062 90.171875 C 39.289062 89.691406 38.570312 89.691406 38.570312 90.171875 C 38.570312 90.652344 39.289062 90.652344 39.289062 90.171875 "/>
<path style=" stroke:none;fill-rule:evenodd;fill:rgb(100%,49.803922%,45.098039%);fill-opacity:1;" d="M 40.730469 124.011719 C 40.730469 123.53125 40.007812 123.53125 40.007812 124.011719 C 40.007812 124.492188 40.730469 124.492188 40.730469 124.011719 "/>
<path style=" stroke:none;fill-rule:evenodd;fill:rgb(100%,49.803922%,45.098039%);fill-opacity:1;" d="M 42.886719 86.210938 C 42.886719 85.730469 42.167969 85.730469 42.167969 86.210938 C 42.167969 86.691406 42.886719 86.691406 42.886719 86.210938 "/>
<path style=" stroke:none;fill-rule:evenodd;fill:rgb(100%,49.803922%,45.098039%);fill-opacity:1;" d="M 42.886719 124.011719 C 42.886719 123.53125 42.167969 123.53125 42.167969 124.011719 C 42.167969 124.492188 42.886719 124.492188 42.886719 124.011719 "/>
<path style=" stroke:none;fill-rule:evenodd;fill:rgb(100%,49.803922%,45.098039%);fill-opacity:1;" d="M 45.046875 84.769531 C 45.046875 84.292969 44.328125 84.292969 44.328125 84.769531 C 44.328125 85.25 45.046875 85.25 45.046875 84.769531 "/>
<path style=" stroke:none;fill-rule:evenodd;fill:rgb(100%,49.803922%,45.098039%);fill-opacity:1;" d="M 45.046875 92.691406 C 45.046875 92.210938 44.328125 92.210938 44.328125 92.691406 C 44.328125 93.171875 45.046875 93.171875 45.046875 92.691406 "/>
<path style=" stroke:none;fill-rule:evenodd;fill:rgb(100%,49.803922%,45.098039%);fill-opacity:1;" d="M 50.449219 124.011719 C 50.449219 123.53125 49.730469 123.53125 49.730469 124.011719 C 49.730469 124.492188 50.449219 124.492188 50.449219 124.011719 "/>
<path style=" stroke:none;fill-rule:evenodd;fill:rgb(100%,49.803922%,45.098039%);fill-opacity:1;" d="M 52.609375 124.011719 C 52.609375 123.53125 51.886719 123.53125 51.886719 124.011719 C 51.886719 124.492188 52.609375 124.492188 52.609375 124.011719 "/>
<path style=" stroke:none;fill-rule:evenodd;fill:rgb(100%,49.803922%,45.098039%);fill-opacity:1;" d="M 54.410156 90.53125 C 54.410156 90.050781 53.6875 90.050781 53.6875 90.53125 C 53.6875 91.011719 54.410156 91.011719 54.410156 90.53125 "/>
<path style=" stroke:none;fill-rule:evenodd;fill:rgb(100%,49.803922%,45.098039%);fill-opacity:1;" d="M 54.769531 124.011719 C 54.769531 123.53125 54.046875 123.53125 54.046875 124.011719 C 54.046875 124.492188 54.769531 124.492188 54.769531 124.011719 "/>
<path style=" stroke:none;fill-rule:evenodd;fill:rgb(100%,49.803922%,45.098039%);fill-opacity:1;" d="M 56.570312 88.730469 C 56.570312 88.25 55.847656 88.25 55.847656 88.730469 C 55.847656 89.210938 56.570312 89.210938 56.570312 88.730469 "/>
<path style=" stroke:none;fill-rule:evenodd;fill:rgb(100%,49.803922%,45.098039%);fill-opacity:1;" d="M 58.730469 92.691406 C 58.730469 92.210938 58.007812 92.210938 58.007812 92.691406 C 58.007812 93.171875 58.730469 93.171875 58.730469 92.691406 "/>
<path style=" stroke:none;fill-rule:evenodd;fill:rgb(100%,49.803922%,45.098039%);fill-opacity:1;" d="M 60.886719 124.011719 C 60.886719 123.53125 60.167969 123.53125 60.167969 124.011719 C 60.167969 124.492188 60.886719 124.492188 60.886719 124.011719 "/>
<path style=" stroke:none;fill-rule:evenodd;fill:rgb(100%,49.803922%,45.098039%);fill-opacity:1;" d="M 63.046875 124.011719 C 63.046875 123.53125 62.328125 123.53125 62.328125 124.011719 C 62.328125 124.492188 63.046875 124.492188 63.046875 124.011719 "/>
<path style=" stroke:none;fill-rule:evenodd;fill:rgb(100%,49.803922%,45.098039%);fill-opacity:1;" d="M 65.207031 124.011719 C 65.207031 123.53125 64.488281 123.53125 64.488281 124.011719 C 64.488281 124.492188 65.207031 124.492188 65.207031 124.011719 "/>
<path style=" stroke:none;fill-rule:evenodd;fill:rgb(100%,49.803922%,45.098039%);fill-opacity:1;" d="M 75.289062 124.011719 C 75.289062 123.53125 74.570312 123.53125 74.570312 124.011719 C 74.570312 124.492188 75.289062 124.492188 75.289062 124.011719 "/>
<path style=" stroke:none;fill-rule:evenodd;fill:rgb(100%,49.803922%,45.098039%);fill-opacity:1;" d="M 77.449219 124.011719 C 77.449219 123.53125 76.730469 123.53125 76.730469 124.011719 C 76.730469 124.492188 77.449219 124.492188 77.449219 124.011719 "/>
<path style=" stroke:none;fill-rule:evenodd;fill:rgb(100%,49.803922%,45.098039%);fill-opacity:1;" d="M 79.609375 124.011719 C 79.609375 123.53125 78.886719 123.53125 78.886719 124.011719 C 78.886719 124.492188 79.609375 124.492188 79.609375 124.011719 "/>
<path style=" stroke:none;fill-rule:evenodd;fill:rgb(100%,49.803922%,45.098039%);fill-opacity:1;" d="M 82.488281 131.210938 C 82.488281 130.730469 81.769531 130.730469 81.769531 131.210938 C 81.769531 131.691406 82.488281 131.691406 82.488281 131.210938 "/>
<path style=" stroke:none;fill-rule:evenodd;fill:rgb(100%,49.803922%,45.098039%);fill-opacity:1;" d="M 84.648438 131.210938 C 84.648438 130.730469 83.929688 130.730469 83.929688 131.210938 C 83.929688 131.691406 84.648438 131.691406 84.648438 131.210938 "/>
<path style=" stroke:none;fill-rule:evenodd;fill:rgb(100%,49.803922%,45.098039%);fill-opacity:1;" d="M 86.808594 131.210938 C 86.808594 130.730469 86.089844 130.730469 86.089844 131.210938 C 86.089844 131.691406 86.808594 131.691406 86.808594 131.210938 "/>
<path style=" stroke:none;fill-rule:evenodd;fill:rgb(100%,49.803922%,45.098039%);fill-opacity:1;" d="M 91.488281 129.769531 C 91.488281 129.292969 90.769531 129.292969 90.769531 129.769531 C 90.769531 130.25 91.488281 130.25 91.488281 129.769531 "/>
<path style=" stroke:none;fill-rule:evenodd;fill:rgb(100%,49.803922%,45.098039%);fill-opacity:1;" d="M 93.289062 131.210938 C 93.289062 130.730469 92.570312 130.730469 92.570312 131.210938 C 92.570312 131.691406 93.289062 131.691406 93.289062 131.210938 "/>
<path style=" stroke:none;fill-rule:evenodd;fill:rgb(100%,49.803922%,45.098039%);fill-opacity:1;" d="M 95.449219 131.210938 C 95.449219 130.730469 94.730469 130.730469 94.730469 131.210938 C 94.730469 131.691406 95.449219 131.691406 95.449219 131.210938 "/>
<path style=" stroke:none;fill-rule:evenodd;fill:rgb(100%,49.803922%,45.098039%);fill-opacity:1;" d="M 97.25 129.769531 C 97.25 129.292969 96.527344 129.292969 96.527344 129.769531 C 96.527344 130.25 97.25 130.25 97.25 129.769531 "/>
<path style=" stroke:none;fill-rule:evenodd;fill:rgb(100%,49.803922%,45.098039%);fill-opacity:1;" d="M 100.488281 123.652344 C 100.488281 123.171875 99.769531 123.171875 99.769531 123.652344 C 99.769531 124.132812 100.488281 124.132812 100.488281 123.652344 "/>
<path style=" stroke:none;fill-rule:evenodd;fill:rgb(100%,49.803922%,45.098039%);fill-opacity:1;" d="M 102.648438 123.652344 C 102.648438 123.171875 101.929688 123.171875 101.929688 123.652344 C 101.929688 124.132812 102.648438 124.132812 102.648438 123.652344 "/>
<path style=" stroke:none;fill-rule:evenodd;fill:rgb(100%,49.803922%,45.098039%);fill-opacity:1;" d="M 108.410156 128.332031 C 108.410156 127.851562 107.6875 127.851562 107.6875 128.332031 C 107.6875 128.8125 108.410156 128.8125 108.410156 128.332031 "/>
<path style=" stroke:none;fill-rule:evenodd;fill:rgb(100%,49.803922%,45.098039%);fill-opacity:1;" d="M 110.570312 128.332031 C 110.570312 127.851562 109.847656 127.851562 109.847656 128.332031 C 109.847656 128.8125 110.570312 128.8125 110.570312 128.332031 "/>
<path style=" stroke:none;fill-rule:evenodd;fill:rgb(100%,49.803922%,45.098039%);fill-opacity:1;" d="M 112.007812 130.851562 C 112.007812 130.371094 111.289062 130.371094 111.289062 130.851562 C 111.289062 131.332031 112.007812 131.332031 112.007812 130.851562 "/>
<path style=" stroke:none;fill-rule:evenodd;fill:rgb(100%,49.803922%,45.098039%);fill-opacity:1;" d="M 114.167969 130.851562 C 114.167969 130.371094 113.449219 130.371094 113.449219 130.851562 C 113.449219 131.332031 114.167969 131.332031 114.167969 130.851562 "/>
<path style=" stroke:none;fill-rule:evenodd;fill:rgb(100%,49.803922%,45.098039%);fill-opacity:1;" d="M 122.449219 131.210938 C 122.449219 130.730469 121.730469 130.730469 121.730469 131.210938 C 121.730469 131.691406 122.449219 131.691406 122.449219 131.210938 "/>
<path style=" stroke:none;fill-rule:evenodd;fill:rgb(100%,49.803922%,45.098039%);fill-opacity:1;" d="M 124.609375 131.210938 C 124.609375 130.730469 123.886719 130.730469 123.886719 131.210938 C 123.886719 131.691406 124.609375 131.691406 124.609375 131.210938 "/>
<path style=" stroke:none;fill-rule:evenodd;fill:rgb(100%,49.803922%,45.098039%);fill-opacity:1;" d="M 55.417969 25.011719 C 55.417969 23.1875 52.679688 23.1875 52.679688 25.011719 C 52.679688 26.835938 55.417969 26.835938 55.417969 25.011719 "/>
<path style=" stroke:none;fill-rule:evenodd;fill:rgb(100%,49.803922%,45.098039%);fill-opacity:1;" d="M 55.417969 32.210938 C 55.417969 30.386719 52.679688 30.386719 52.679688 32.210938 C 52.679688 34.035156 55.417969 34.035156 55.417969 32.210938 "/>
<path style=" stroke:none;fill-rule:evenodd;fill:rgb(100%,49.803922%,45.098039%);fill-opacity:1;" d="M 62.617188 25.011719 C 62.617188 23.1875 59.878906 23.1875 59.878906 25.011719 C 59.878906 26.835938 62.617188 26.835938 62.617188 25.011719 "/>
<path style=" stroke:none;fill-rule:evenodd;fill:rgb(100%,49.803922%,45.098039%);fill-opacity:1;" d="M 62.617188 32.210938 C 62.617188 30.386719 59.878906 30.386719 59.878906 32.210938 C 59.878906 34.035156 62.617188 34.035156 62.617188 32.210938 "/>
<path style=" stroke:none;fill-rule:evenodd;fill:rgb(100%,49.803922%,45.098039%);fill-opacity:1;" d="M 69.816406 25.011719 C 69.816406 23.1875 67.082031 23.1875 67.082031 25.011719 C 67.082031 26.835938 69.816406 26.835938 69.816406 25.011719 "/>
<path style=" stroke:none;fill-rule:evenodd;fill:rgb(100%,49.803922%,45.098039%);fill-opacity:1;" d="M 69.816406 32.210938 C 69.816406 30.386719 67.082031 30.386719 67.082031 32.210938 C 67.082031 34.035156 69.816406 34.035156 69.816406 32.210938 "/>
<path style=" stroke:none;fill-rule:evenodd;fill:rgb(100%,49.803922%,45.098039%);fill-opacity:1;" d="M 77.015625 25.011719 C 77.015625 23.1875 74.28125 23.1875 74.28125 25.011719 C 74.28125 26.835938 77.015625 26.835938 77.015625 25.011719 "/>
<path style=" stroke:none;fill-rule:evenodd;fill:rgb(100%,49.803922%,45.098039%);fill-opacity:1;" d="M 77.015625 32.210938 C 77.015625 30.386719 74.28125 30.386719 74.28125 32.210938 C 74.28125 34.035156 77.015625 34.035156 77.015625 32.210938 "/>
<path style=" stroke:none;fill-rule:evenodd;fill:rgb(100%,49.803922%,45.098039%);fill-opacity:1;" d="M 84.214844 25.011719 C 84.214844 23.1875 81.480469 23.1875 81.480469 25.011719 C 81.480469 26.835938 84.214844 26.835938 84.214844 25.011719 "/>
<path style=" stroke:none;fill-rule:evenodd;fill:rgb(100%,49.803922%,45.098039%);fill-opacity:1;" d="M 84.214844 32.210938 C 84.214844 30.386719 81.480469 30.386719 81.480469 32.210938 C 81.480469 34.035156 84.214844 34.035156 84.214844 32.210938 "/>
<path style=" stroke:none;fill-rule:evenodd;fill:rgb(100%,49.803922%,45.098039%);fill-opacity:1;" d="M 91.417969 25.011719 C 91.417969 23.1875 88.679688 23.1875 88.679688 25.011719 C 88.679688 26.835938 91.417969 26.835938 91.417969 25.011719 "/>
<path style=" stroke:none;fill-rule:evenodd;fill:rgb(100%,49.803922%,45.098039%);fill-opacity:1;" d="M 91.417969 32.210938 C 91.417969 30.386719 88.679688 30.386719 88.679688 32.210938 C 88.679688 34.035156 91.417969 34.035156 91.417969 32.210938 "/>
<path style=" stroke:none;fill-rule:evenodd;fill:rgb(100%,49.803922%,45.098039%);fill-opacity:1;" d="M 98.617188 25.011719 C 98.617188 23.1875 95.878906 23.1875 95.878906 25.011719 C 95.878906 26.835938 98.617188 26.835938 98.617188 25.011719 "/>
<path style=" stroke:none;fill-rule:evenodd;fill:rgb(100%,49.803922%,45.098039%);fill-opacity:1;" d="M 98.617188 32.210938 C 98.617188 30.386719 95.878906 30.386719 95.878906 32.210938 C 95.878906 34.035156 98.617188 34.035156 98.617188 32.210938 "/>
<path style=" stroke:none;fill-rule:evenodd;fill:rgb(100%,49.803922%,45.098039%);fill-opacity:1;" d="M 105.816406 25.011719 C 105.816406 23.1875 103.082031 23.1875 103.082031 25.011719 C 103.082031 26.835938 105.816406 26.835938 105.816406 25.011719 "/>
<path style=" stroke:none;fill-rule:evenodd;fill:rgb(100%,49.803922%,45.098039%);fill-opacity:1;" d="M 105.816406 32.210938 C 105.816406 30.386719 103.082031 30.386719 103.082031 32.210938 C 103.082031 34.035156 105.816406 34.035156 105.816406 32.210938 "/>
<path style=" stroke:none;fill-rule:evenodd;fill:rgb(100%,49.803922%,45.098039%);fill-opacity:1;" d="M 113.015625 25.011719 C 113.015625 23.1875 110.28125 23.1875 110.28125 25.011719 C 110.28125 26.835938 113.015625 26.835938 113.015625 25.011719 "/>
<path style=" stroke:none;fill-rule:evenodd;fill:rgb(100%,49.803922%,45.098039%);fill-opacity:1;" d="M 113.015625 32.210938 C 113.015625 30.386719 110.28125 30.386719 110.28125 32.210938 C 110.28125 34.035156 113.015625 34.035156 113.015625 32.210938 "/>
<path style=" stroke:none;fill-rule:evenodd;fill:rgb(100%,49.803922%,45.098039%);fill-opacity:1;" d="M 120.214844 25.011719 C 120.214844 23.1875 117.480469 23.1875 117.480469 25.011719 C 117.480469 26.835938 120.214844 26.835938 120.214844 25.011719 "/>
<path style=" stroke:none;fill-rule:evenodd;fill:rgb(100%,49.803922%,45.098039%);fill-opacity:1;" d="M 120.214844 32.210938 C 120.214844 30.386719 117.480469 30.386719 117.480469 32.210938 C 117.480469 34.035156 120.214844 34.035156 120.214844 32.210938 "/>
</g>
</svg>
