G04 This is an RS-274x file exported by *
G04 gerbv version 2.7.0 *
G04 More information is available about gerbv at *
G04 http://gerbv.geda-project.org/ *
G04 --End of header info--*
%MOIN*%
%FSLAX36Y36*%
%IPPOS*%
G04 --Define apertures--*
%ADD10C,0.0100*%
%ADD11C,0.0060*%
%ADD12C,0.0200*%
%ADD13C,0.0001*%
%ADD14C,0.0600*%
%ADD15C,0.0380*%
%ADD16C,0.0260*%
%ADD17C,0.0660*%
G04 --Start main section--*
G01X0000000Y0000000D02*
G54D11*
G01X0620000Y1170000D02*
G01X0570000Y1170000D01*
G01X0615000Y1150000D02*
G01X0540000Y1150000D01*
G01X0760000Y1060000D02*
G01X0380000Y1060000D01*
G01X0730000Y1115000D02*
G01X0675000Y1115000D01*
G01X0675000Y1115000D02*
G01X0620000Y1170000D01*
G01X0700000Y1090000D02*
G01X0675000Y1090000D01*
G01X0675000Y1090000D02*
G01X0615000Y1150000D01*
G01X0490000Y1095000D02*
G01X0350000Y1095000D01*
G01X0460000Y1125000D02*
G01X0320000Y1125000D01*
G54D12*
G01X1240000Y0525000D03*
G01X1090000Y0525000D03*
G01X1120000Y0525000D03*
G01X1150000Y0525000D03*
G01X1270000Y0525000D03*
G01X1215000Y0545000D03*
G01X0990000Y0625000D03*
G01X1020000Y0625000D03*
G01X1050000Y0625000D03*
G01X1340000Y0630000D03*
G01X1370000Y0630000D03*
G01X1295000Y0545000D03*
G01X1499990Y0530000D03*
G01X1530000Y0530000D03*
G01X1450000Y0565000D03*
G01X1480000Y0565000D03*
G01X1645000Y0525000D03*
G01X1675000Y0525000D03*
G54D13*
G36*
G01X1570000Y2030000D02*
G01X1570000Y1970000D01*
G01X1630000Y1970000D01*
G01X1630000Y2030000D01*
G01X1570000Y2030000D01*
G37*
G54D14*
G01X1500000Y2000000D03*
G01X1400000Y2000000D03*
G01X1600000Y1900000D03*
G01X1500000Y1900000D03*
G01X1400000Y1900000D03*
G01X1300000Y1900000D03*
G01X1200000Y1900000D03*
G01X1100000Y1900000D03*
G01X1300000Y2000000D03*
G01X1200000Y2000000D03*
G01X1100000Y2000000D03*
G01X1000000Y2000000D03*
G01X1000000Y1900000D03*
G01X0900000Y2000000D03*
G01X0800000Y2000000D03*
G01X0700000Y2000000D03*
G01X0900000Y1900000D03*
G01X0800000Y1900000D03*
G01X0700000Y1900000D03*
G54D12*
G01X0395000Y0625000D03*
G01X0540000Y0625000D03*
G01X0510000Y0625000D03*
G01X0480000Y0625000D03*
G01X0365000Y0625000D03*
G01X0335000Y0625000D03*
G01X0705000Y0625000D03*
G01X0675000Y0625000D03*
G01X0645000Y0625000D03*
G01X0850000Y0625000D03*
G01X0820000Y0625000D03*
G01X0790000Y0625000D03*
G01X0380000Y1060000D03*
G01X0570000Y1170000D03*
G01X0540000Y1150000D03*
G01X0730000Y1115000D03*
G01X0700000Y1090000D03*
G01X0570000Y1060000D03*
G01X0760000Y1060000D03*
G01X0490000Y1095000D03*
G01X0350000Y1095000D03*
G01X0320000Y1125000D03*
G01X0460000Y1125000D03*
G01X0000000Y0000000D02*
G54D11*
G01X0000000Y2300000D02*
G01X1900000Y2300000D01*
G01X1900000Y2300000D02*
G01X1900000Y0100000D01*
G01X1900000Y0100000D02*
G01X0000000Y0100000D01*
G01X0000000Y0100000D02*
G01X0000000Y2300000D01*
G01X0000000Y0000000D02*
G54D16*
G01X1240000Y0525000D03*
G01X1090000Y0525000D03*
G01X1120000Y0525000D03*
G01X1150000Y0525000D03*
G01X1270000Y0525000D03*
G01X1215000Y0545000D03*
G01X0990000Y0625000D03*
G01X1020000Y0625000D03*
G01X1050000Y0625000D03*
G01X1340000Y0630000D03*
G01X1370000Y0630000D03*
G01X1295000Y0545000D03*
G01X1499990Y0530000D03*
G01X1530000Y0530000D03*
G01X1450000Y0565000D03*
G01X1480000Y0565000D03*
G01X1645000Y0525000D03*
G01X1675000Y0525000D03*
G54D13*
G36*
G01X1567000Y2033000D02*
G01X1567000Y1967000D01*
G01X1633000Y1967000D01*
G01X1633000Y2033000D01*
G01X1567000Y2033000D01*
G37*
G54D17*
G01X1500000Y2000000D03*
G01X1400000Y2000000D03*
G01X1600000Y1900000D03*
G01X1500000Y1900000D03*
G01X1400000Y1900000D03*
G01X1300000Y1900000D03*
G01X1200000Y1900000D03*
G01X1100000Y1900000D03*
G01X1300000Y2000000D03*
G01X1200000Y2000000D03*
G01X1100000Y2000000D03*
G01X1000000Y2000000D03*
G01X1000000Y1900000D03*
G01X0900000Y2000000D03*
G01X0800000Y2000000D03*
G01X0700000Y2000000D03*
G01X0900000Y1900000D03*
G01X0800000Y1900000D03*
G01X0700000Y1900000D03*
G54D16*
G01X0395000Y0625000D03*
G01X0540000Y0625000D03*
G01X0510000Y0625000D03*
G01X0480000Y0625000D03*
G01X0365000Y0625000D03*
G01X0335000Y0625000D03*
G01X0705000Y0625000D03*
G01X0675000Y0625000D03*
G01X0645000Y0625000D03*
G01X0850000Y0625000D03*
G01X0820000Y0625000D03*
G01X0790000Y0625000D03*
G01X0000000Y0000000D02*
G54D10*
G01X0320000Y1125000D03*
G01X0335000Y0625000D03*
G01X0350000Y1095000D03*
G01X0365000Y0625000D03*
G01X0380000Y1060000D03*
G01X0395000Y0625000D03*
G01X0460000Y1125000D03*
G01X0480000Y0625000D03*
G01X0490000Y1095000D03*
G01X0510000Y0625000D03*
G01X0540000Y1150000D03*
G01X0540000Y0625000D03*
G01X0570000Y1170000D03*
G01X0570000Y1060000D03*
G01X0645000Y0625000D03*
G01X0675000Y0625000D03*
G01X0700000Y1090000D03*
G01X0705000Y0625000D03*
G01X0730000Y1115000D03*
G01X0760000Y1060000D03*
G01X0790000Y0625000D03*
G01X0820000Y0625000D03*
G01X0850000Y0625000D03*
G01X0990000Y0625000D03*
G01X1020000Y0625000D03*
G01X1050000Y0625000D03*
G01X1090000Y0525000D03*
G01X1120000Y0525000D03*
G01X1150000Y0525000D03*
G01X1215000Y0545000D03*
G01X1240000Y0525000D03*
G01X1270000Y0525000D03*
G01X1295000Y0545000D03*
G01X1340000Y0630000D03*
G01X1370000Y0630000D03*
G01X1450000Y0565000D03*
G01X1480000Y0565000D03*
G01X1500000Y0530000D03*
G01X1530000Y0530000D03*
G01X1645000Y0525000D03*
G01X1675000Y0525000D03*
G54D15*
G01X0700000Y2000000D03*
G01X0700000Y1900000D03*
G01X0800000Y2000000D03*
G01X0800000Y1900000D03*
G01X0900000Y2000000D03*
G01X0900000Y1900000D03*
G01X1000000Y2000000D03*
G01X1000000Y1900000D03*
G01X1100000Y2000000D03*
G01X1100000Y1900000D03*
G01X1200000Y2000000D03*
G01X1200000Y1900000D03*
G01X1300000Y2000000D03*
G01X1300000Y1900000D03*
G01X1400000Y2000000D03*
G01X1400000Y1900000D03*
G01X1500000Y2000000D03*
G01X1500000Y1900000D03*
G01X1600000Y2000000D03*
G01X1600000Y1900000D03*
M02*
