G04 This is an RS-274x file exported by *
G04 gerbv version 2.7.0 *
G04 More information is available about gerbv at *
G04 http://gerbv.geda-project.org/ *
G04 --End of header info--*
%MOIN*%
%FSLAX36Y36*%
%IPPOS*%
G04 --Define apertures--*
%ADD10C,0.0001*%
%ADD11C,0.0100*%
%ADD12C,0.0060*%
%ADD13C,0.0021*%
%ADD14C,0.0026*%
%ADD15C,0.0022*%
%ADD16C,0.0027*%
%ADD17C,0.0030*%
%ADD18C,0.0038*%
%ADD19C,0.0022*%
%ADD20C,0.0021*%
%ADD21C,0.0260*%
%ADD22C,0.0660*%
%ADD23C,0.0380*%
G04 --Start main section--*
G54D10*
G36*
G01X1105000Y0500000D02*
G01X1105000Y0540000D01*
G01X1135000Y0540000D01*
G01X1135000Y0500000D01*
G01X1105000Y0500000D01*
G37*
G36*
G01X1035000Y0600000D02*
G01X1035000Y0640000D01*
G01X1065000Y0640000D01*
G01X1065000Y0600000D01*
G01X1035000Y0600000D01*
G37*
G36*
G01X0495000Y0600000D02*
G01X0495000Y0640000D01*
G01X0525000Y0640000D01*
G01X0525000Y0600000D01*
G01X0495000Y0600000D01*
G37*
G36*
G01X0660000Y0600000D02*
G01X0660000Y0640000D01*
G01X0690000Y0640000D01*
G01X0690000Y0600000D01*
G01X0660000Y0600000D01*
G37*
G36*
G01X0805000Y0600000D02*
G01X0805000Y0640000D01*
G01X0835000Y0640000D01*
G01X0835000Y0600000D01*
G01X0805000Y0600000D01*
G37*
G36*
G01X1660000Y0500000D02*
G01X1660000Y0540000D01*
G01X1690000Y0540000D01*
G01X1690000Y0500000D01*
G01X1660000Y0500000D01*
G37*
G36*
G01X1515000Y0505000D02*
G01X1515000Y0545000D01*
G01X1545000Y0545000D01*
G01X1545000Y0505000D01*
G01X1515000Y0505000D01*
G37*
G36*
G01X1465000Y0540000D02*
G01X1465000Y0580000D01*
G01X1495000Y0580000D01*
G01X1495000Y0540000D01*
G01X1465000Y0540000D01*
G37*
G36*
G01X1355000Y0605000D02*
G01X1355000Y0645000D01*
G01X1385000Y0645000D01*
G01X1385000Y0605000D01*
G01X1355000Y0605000D01*
G37*
G36*
G01X0350000Y0600000D02*
G01X0350000Y0640000D01*
G01X0380000Y0640000D01*
G01X0380000Y0600000D01*
G01X0350000Y0600000D01*
G37*
G36*
G01X1680000Y1965000D02*
G01X1780000Y2065000D01*
G01X1880000Y1965000D01*
G01X1680000Y1965000D01*
G37*
G54D11*
G01X1300000Y1900000D02*
G01X1257500Y1942500D01*
G01X1257500Y1942500D02*
G01X1257500Y2200000D01*
G01X1200000Y2000000D02*
G01X1200000Y2250000D01*
G01X1157500Y1942500D02*
G01X1157500Y2200000D01*
G01X1100000Y2000000D02*
G01X1100000Y2250000D01*
G01X1200000Y1900000D02*
G01X1157500Y1942500D01*
G01X1100000Y1900000D02*
G01X1057500Y1942500D01*
G01X1000000Y1900000D02*
G01X0957500Y1942500D01*
G54D12*
G01X1145000Y1820000D02*
G01X1145000Y1755000D01*
G01X1145000Y1755000D02*
G01X0910000Y1520000D01*
G54D11*
G01X1457500Y1942500D02*
G01X1457500Y2200000D01*
G01X1400000Y2000000D02*
G01X1400000Y2250000D01*
G01X1357500Y1942500D02*
G01X1357500Y2200000D01*
G01X1300000Y2000000D02*
G01X1300000Y2250000D01*
G01X1600000Y2000000D02*
G01X1600000Y2250000D01*
G01X1557500Y1942500D02*
G01X1557500Y2200000D01*
G01X1500000Y2000000D02*
G01X1500000Y2250000D01*
G01X1675000Y2125000D02*
G01X1625000Y2075000D01*
G01X1670000Y2000000D02*
G01X1620000Y2000000D01*
G54D12*
G01X1430000Y0995000D02*
G01X1430000Y1005000D01*
G01X1490000Y0995000D02*
G01X1490000Y1005000D01*
G01X1490000Y1020000D02*
G01X1490000Y1030000D01*
G01X1490000Y1045000D02*
G01X1490000Y1055000D01*
G01X1430000Y1020000D02*
G01X1430000Y1030000D01*
G01X1430000Y0665000D02*
G01X1430000Y0975000D01*
G01X1490000Y0665000D02*
G01X1490000Y0975000D01*
G01X1430000Y1045000D02*
G01X1430000Y1055000D01*
G54D11*
G01X0900000Y1900000D02*
G01X0857500Y1942500D01*
G01X0800000Y1900000D02*
G01X0757500Y1942500D01*
G54D12*
G01X0910000Y1520000D02*
G01X0910000Y0135000D01*
G54D11*
G01X0900000Y2000000D02*
G01X0900000Y2250000D01*
G01X0857500Y1942500D02*
G01X0857500Y2200000D01*
G01X0800000Y2000000D02*
G01X0800000Y2250000D01*
G01X0757500Y1942500D02*
G01X0757500Y2200000D01*
G01X0700000Y2000000D02*
G01X0700000Y2250000D01*
G01X0700000Y1900000D02*
G01X0657500Y1942500D01*
G01X0657500Y1942500D02*
G01X0657500Y2200000D01*
G01X0625000Y2125000D02*
G01X0575000Y2075000D01*
G54D12*
G01X0720000Y1190000D02*
G01X0740000Y1170000D01*
G01X0535000Y1345000D02*
G01X0585000Y1345000D01*
G01X0585000Y0995000D02*
G01X0535000Y0995000D01*
G01X0585000Y0775000D02*
G01X0585000Y1040000D01*
G01X0585000Y1565000D02*
G01X0585000Y1300000D01*
G54D11*
G01X1057500Y1942500D02*
G01X1057500Y2200000D01*
G01X1000000Y2000000D02*
G01X1000000Y2250000D01*
G01X0957500Y1942500D02*
G01X0957500Y2200000D01*
G01X0575000Y2075000D02*
G01X1625000Y2075000D01*
G01X1675000Y2125000D02*
G01X0625000Y2125000D01*
G01X1600000Y1900000D02*
G01X1557500Y1942500D01*
G01X1500000Y1900000D02*
G01X1457500Y1942500D01*
G01X1400000Y1900000D02*
G01X1357500Y1942500D01*
G01X1680000Y1965000D02*
G01X1780000Y2065000D01*
G01X1780000Y2065000D02*
G01X1880000Y1965000D01*
G01X1880000Y1965000D02*
G01X1680000Y1965000D01*
G54D13*
G01X0690000Y0304700D02*
G01X0690000Y0283500D01*
G01X0690000Y0304700D02*
G01X0697950Y0294100D01*
G01X0697950Y0294100D02*
G01X0705900Y0304700D01*
G01X0705900Y0304700D02*
G01X0705900Y0283500D01*
G54D14*
G01X0712260Y0299400D02*
G01X0712260Y0298870D01*
G54D13*
G01X0712260Y0291450D02*
G01X0712260Y0283500D01*
G01X0720210Y0291450D02*
G01X0720210Y0283500D01*
G01X0720210Y0291450D02*
G01X0722860Y0294100D01*
G01X0722860Y0294100D02*
G01X0725510Y0294100D01*
G01X0725510Y0294100D02*
G01X0728160Y0291450D01*
G01X0728160Y0291450D02*
G01X0728160Y0283500D01*
G01X0717560Y0294100D02*
G01X0720210Y0291450D01*
G54D14*
G01X0734520Y0299400D02*
G01X0734520Y0298870D01*
G54D13*
G01X0734520Y0291450D02*
G01X0734520Y0283500D01*
G01X0749360Y0302050D02*
G01X0749360Y0286150D01*
G01X0749360Y0302050D02*
G01X0752010Y0304700D01*
G01X0752010Y0304700D02*
G01X0757310Y0304700D01*
G01X0757310Y0304700D02*
G01X0759960Y0302050D01*
G01X0759960Y0302050D02*
G01X0759960Y0286150D01*
G01X0757310Y0283500D02*
G01X0759960Y0286150D01*
G01X0752010Y0283500D02*
G01X0757310Y0283500D01*
G01X0749360Y0286150D02*
G01X0752010Y0283500D01*
G01X0768970Y0291450D02*
G01X0768970Y0283500D01*
G01X0768970Y0291450D02*
G01X0771620Y0294100D01*
G01X0771620Y0294100D02*
G01X0774270Y0294100D01*
G01X0774270Y0294100D02*
G01X0776920Y0291450D01*
G01X0776920Y0291450D02*
G01X0776920Y0283500D01*
G01X0766320Y0294100D02*
G01X0768970Y0291450D01*
G01X0783280Y0304700D02*
G01X0783280Y0286150D01*
G01X0783280Y0286150D02*
G01X0785930Y0283500D01*
G01X0791230Y0294100D02*
G01X0791230Y0286150D01*
G01X0791230Y0286150D02*
G01X0793880Y0283500D01*
G01X0801830Y0294100D02*
G01X0801830Y0278200D01*
G01X0799180Y0275550D02*
G01X0801830Y0278200D01*
G01X0793880Y0275550D02*
G01X0799180Y0275550D01*
G01X0791230Y0278200D02*
G01X0793880Y0275550D01*
G01X0793880Y0283500D02*
G01X0799180Y0283500D01*
G01X0799180Y0283500D02*
G01X0801830Y0286150D01*
G54D15*
G01X0785000Y0334600D02*
G01X0785000Y0313000D01*
G01X0785000Y0313000D02*
G01X0795800Y0313000D01*
G54D16*
G01X0802280Y0329200D02*
G01X0802280Y0328660D01*
G54D15*
G01X0802280Y0321100D02*
G01X0802280Y0313000D01*
G01X0810380Y0321100D02*
G01X0810380Y0313000D01*
G01X0810380Y0321100D02*
G01X0813080Y0323800D01*
G01X0813080Y0323800D02*
G01X0815780Y0323800D01*
G01X0815780Y0323800D02*
G01X0818480Y0321100D01*
G01X0818480Y0321100D02*
G01X0818480Y0313000D01*
G01X0818480Y0321100D02*
G01X0821180Y0323800D01*
G01X0821180Y0323800D02*
G01X0823880Y0323800D01*
G01X0823880Y0323800D02*
G01X0826580Y0321100D01*
G01X0826580Y0321100D02*
G01X0826580Y0313000D01*
G01X0807680Y0323800D02*
G01X0810380Y0321100D01*
G54D16*
G01X0833060Y0329200D02*
G01X0833060Y0328660D01*
G54D15*
G01X0833060Y0321100D02*
G01X0833060Y0313000D01*
G01X0841160Y0334600D02*
G01X0841160Y0315700D01*
G01X0841160Y0315700D02*
G01X0843860Y0313000D01*
G01X0838460Y0326500D02*
G01X0843860Y0326500D01*
G01X0630000Y0334600D02*
G01X0630000Y0313000D01*
G01X0630000Y0334600D02*
G01X0643500Y0313000D01*
G01X0643500Y0334600D02*
G01X0643500Y0313000D01*
G01X0649980Y0321100D02*
G01X0649980Y0315700D01*
G01X0649980Y0321100D02*
G01X0652680Y0323800D01*
G01X0652680Y0323800D02*
G01X0658080Y0323800D01*
G01X0658080Y0323800D02*
G01X0660780Y0321100D01*
G01X0660780Y0321100D02*
G01X0660780Y0315700D01*
G01X0658080Y0313000D02*
G01X0660780Y0315700D01*
G01X0652680Y0313000D02*
G01X0658080Y0313000D01*
G01X0649980Y0315700D02*
G01X0652680Y0313000D01*
G01X0667260Y0323800D02*
G01X0678060Y0323800D01*
G01X0667260Y0313000D02*
G01X0678060Y0323800D01*
G01X0667260Y0313000D02*
G01X0678060Y0313000D01*
G01X0684540Y0323800D02*
G01X0695340Y0323800D01*
G01X0684540Y0313000D02*
G01X0695340Y0323800D01*
G01X0684540Y0313000D02*
G01X0695340Y0313000D01*
G01X0701820Y0334600D02*
G01X0701820Y0315700D01*
G01X0701820Y0315700D02*
G01X0704520Y0313000D01*
G01X0712620Y0313000D02*
G01X0720720Y0313000D01*
G01X0709920Y0315700D02*
G01X0712620Y0313000D01*
G01X0709920Y0321100D02*
G01X0709920Y0315700D01*
G01X0709920Y0321100D02*
G01X0712620Y0323800D01*
G01X0712620Y0323800D02*
G01X0718020Y0323800D01*
G01X0718020Y0323800D02*
G01X0720720Y0321100D01*
G01X0709920Y0318400D02*
G01X0720720Y0318400D01*
G01X0720720Y0321100D02*
G01X0720720Y0318400D01*
G54D13*
G01X0375000Y0304700D02*
G01X0385600Y0304700D01*
G01X0380300Y0304700D02*
G01X0380300Y0283500D01*
G01X0399910Y0294100D02*
G01X0402560Y0291450D01*
G01X0394610Y0294100D02*
G01X0399910Y0294100D01*
G01X0391960Y0291450D02*
G01X0394610Y0294100D01*
G01X0391960Y0291450D02*
G01X0391960Y0286150D01*
G01X0391960Y0286150D02*
G01X0394610Y0283500D01*
G01X0402560Y0294100D02*
G01X0402560Y0286150D01*
G01X0402560Y0286150D02*
G01X0405210Y0283500D01*
G01X0394610Y0283500D02*
G01X0399910Y0283500D01*
G01X0399910Y0283500D02*
G01X0402560Y0286150D01*
G01X0411570Y0294100D02*
G01X0422170Y0294100D01*
G01X0411570Y0283500D02*
G01X0422170Y0294100D01*
G01X0411570Y0283500D02*
G01X0422170Y0283500D01*
G01X0436480Y0304700D02*
G01X0439130Y0302050D01*
G01X0431180Y0304700D02*
G01X0436480Y0304700D01*
G01X0428530Y0302050D02*
G01X0431180Y0304700D01*
G01X0428530Y0302050D02*
G01X0428530Y0286150D01*
G01X0428530Y0286150D02*
G01X0431180Y0283500D01*
G01X0436480Y0295160D02*
G01X0439130Y0292510D01*
G01X0428530Y0295160D02*
G01X0436480Y0295160D01*
G01X0431180Y0283500D02*
G01X0436480Y0283500D01*
G01X0436480Y0283500D02*
G01X0439130Y0286150D01*
G01X0439130Y0292510D02*
G01X0439130Y0286150D01*
G01X0455030Y0302050D02*
G01X0455030Y0286150D01*
G01X0455030Y0302050D02*
G01X0457680Y0304700D01*
G01X0457680Y0304700D02*
G01X0462980Y0304700D01*
G01X0462980Y0304700D02*
G01X0465630Y0302050D01*
G01X0465630Y0302050D02*
G01X0465630Y0286150D01*
G01X0462980Y0283500D02*
G01X0465630Y0286150D01*
G01X0457680Y0283500D02*
G01X0462980Y0283500D01*
G01X0455030Y0286150D02*
G01X0457680Y0283500D01*
G01X0474640Y0291450D02*
G01X0474640Y0283500D01*
G01X0474640Y0291450D02*
G01X0477290Y0294100D01*
G01X0477290Y0294100D02*
G01X0479940Y0294100D01*
G01X0479940Y0294100D02*
G01X0482590Y0291450D01*
G01X0482590Y0291450D02*
G01X0482590Y0283500D01*
G01X0471990Y0294100D02*
G01X0474640Y0291450D01*
G01X0488950Y0304700D02*
G01X0488950Y0286150D01*
G01X0488950Y0286150D02*
G01X0491600Y0283500D01*
G01X0496900Y0294100D02*
G01X0496900Y0286150D01*
G01X0496900Y0286150D02*
G01X0499550Y0283500D01*
G01X0507500Y0294100D02*
G01X0507500Y0278200D01*
G01X0504850Y0275550D02*
G01X0507500Y0278200D01*
G01X0499550Y0275550D02*
G01X0504850Y0275550D01*
G01X0496900Y0278200D02*
G01X0499550Y0275550D01*
G01X0499550Y0283500D02*
G01X0504850Y0283500D01*
G01X0504850Y0283500D02*
G01X0507500Y0286150D01*
G54D15*
G01X0335000Y0334600D02*
G01X0335000Y0313000D01*
G01X0335000Y0313000D02*
G01X0345800Y0313000D01*
G54D16*
G01X0352280Y0329200D02*
G01X0352280Y0328660D01*
G54D15*
G01X0352280Y0321100D02*
G01X0352280Y0313000D01*
G01X0360380Y0321100D02*
G01X0360380Y0313000D01*
G01X0360380Y0321100D02*
G01X0363080Y0323800D01*
G01X0363080Y0323800D02*
G01X0365780Y0323800D01*
G01X0365780Y0323800D02*
G01X0368480Y0321100D01*
G01X0368480Y0321100D02*
G01X0368480Y0313000D01*
G01X0368480Y0321100D02*
G01X0371180Y0323800D01*
G01X0371180Y0323800D02*
G01X0373880Y0323800D01*
G01X0373880Y0323800D02*
G01X0376580Y0321100D01*
G01X0376580Y0321100D02*
G01X0376580Y0313000D01*
G01X0357680Y0323800D02*
G01X0360380Y0321100D01*
G54D16*
G01X0383060Y0329200D02*
G01X0383060Y0328660D01*
G54D15*
G01X0383060Y0321100D02*
G01X0383060Y0313000D01*
G01X0391160Y0334600D02*
G01X0391160Y0315700D01*
G01X0391160Y0315700D02*
G01X0393860Y0313000D01*
G01X0388460Y0326500D02*
G01X0393860Y0326500D01*
G01X0470000Y0334600D02*
G01X0470000Y0313000D01*
G01X0470000Y0334600D02*
G01X0483500Y0313000D01*
G01X0483500Y0334600D02*
G01X0483500Y0313000D01*
G01X0489980Y0321100D02*
G01X0489980Y0315700D01*
G01X0489980Y0321100D02*
G01X0492680Y0323800D01*
G01X0492680Y0323800D02*
G01X0498080Y0323800D01*
G01X0498080Y0323800D02*
G01X0500780Y0321100D01*
G01X0500780Y0321100D02*
G01X0500780Y0315700D01*
G01X0498080Y0313000D02*
G01X0500780Y0315700D01*
G01X0492680Y0313000D02*
G01X0498080Y0313000D01*
G01X0489980Y0315700D02*
G01X0492680Y0313000D01*
G01X0507260Y0323800D02*
G01X0518060Y0323800D01*
G01X0507260Y0313000D02*
G01X0518060Y0323800D01*
G01X0507260Y0313000D02*
G01X0518060Y0313000D01*
G01X0524540Y0323800D02*
G01X0535340Y0323800D01*
G01X0524540Y0313000D02*
G01X0535340Y0323800D01*
G01X0524540Y0313000D02*
G01X0535340Y0313000D01*
G01X0541820Y0334600D02*
G01X0541820Y0315700D01*
G01X0541820Y0315700D02*
G01X0544520Y0313000D01*
G01X0552620Y0313000D02*
G01X0560720Y0313000D01*
G01X0549920Y0315700D02*
G01X0552620Y0313000D01*
G01X0549920Y0321100D02*
G01X0549920Y0315700D01*
G01X0549920Y0321100D02*
G01X0552620Y0323800D01*
G01X0552620Y0323800D02*
G01X0558020Y0323800D01*
G01X0558020Y0323800D02*
G01X0560720Y0321100D01*
G01X0549920Y0318400D02*
G01X0560720Y0318400D01*
G01X0560720Y0321100D02*
G01X0560720Y0318400D01*
G54D17*
G01X0248850Y2138050D02*
G01X0248850Y2114950D01*
G01X0245000Y2141900D02*
G01X0248850Y2138050D01*
G01X0248850Y2138050D02*
G01X0252700Y2141900D01*
G01X0252700Y2141900D02*
G01X0260400Y2141900D01*
G01X0260400Y2141900D02*
G01X0264250Y2138050D01*
G01X0264250Y2138050D02*
G01X0264250Y2130350D01*
G01X0260400Y2126500D02*
G01X0264250Y2130350D01*
G01X0252700Y2126500D02*
G01X0260400Y2126500D01*
G01X0248850Y2130350D02*
G01X0252700Y2126500D01*
G54D18*
G01X0273490Y2149600D02*
G01X0273490Y2148830D01*
G54D17*
G01X0273490Y2138050D02*
G01X0273490Y2126500D01*
G01X0285040Y2138050D02*
G01X0285040Y2126500D01*
G01X0285040Y2138050D02*
G01X0288890Y2141900D01*
G01X0288890Y2141900D02*
G01X0292740Y2141900D01*
G01X0292740Y2141900D02*
G01X0296590Y2138050D01*
G01X0296590Y2138050D02*
G01X0296590Y2126500D01*
G01X0281190Y2141900D02*
G01X0285040Y2138050D01*
G01X0309680Y2126500D02*
G01X0321230Y2126500D01*
G01X0321230Y2126500D02*
G01X0325080Y2130350D01*
G01X0321230Y2134200D02*
G01X0325080Y2130350D01*
G01X0309680Y2134200D02*
G01X0321230Y2134200D01*
G01X0305830Y2138050D02*
G01X0309680Y2134200D01*
G01X0305830Y2138050D02*
G01X0309680Y2141900D01*
G01X0309680Y2141900D02*
G01X0321230Y2141900D01*
G01X0321230Y2141900D02*
G01X0325080Y2138050D01*
G01X0305830Y2130350D02*
G01X0309680Y2126500D01*
G01X0348180Y2157300D02*
G01X0348180Y2130350D01*
G01X0348180Y2130350D02*
G01X0352030Y2126500D01*
G01X0359730Y2138050D02*
G01X0359730Y2130350D01*
G01X0359730Y2138050D02*
G01X0363580Y2141900D01*
G01X0363580Y2141900D02*
G01X0371280Y2141900D01*
G01X0371280Y2141900D02*
G01X0375130Y2138050D01*
G01X0375130Y2138050D02*
G01X0375130Y2130350D01*
G01X0371280Y2126500D02*
G01X0375130Y2130350D01*
G01X0363580Y2126500D02*
G01X0371280Y2126500D01*
G01X0359730Y2130350D02*
G01X0363580Y2126500D01*
G01X0388220Y2138050D02*
G01X0388220Y2126500D01*
G01X0388220Y2138050D02*
G01X0392070Y2141900D01*
G01X0392070Y2141900D02*
G01X0395920Y2141900D01*
G01X0395920Y2141900D02*
G01X0399770Y2138050D01*
G01X0399770Y2138050D02*
G01X0399770Y2126500D01*
G01X0384370Y2141900D02*
G01X0388220Y2138050D01*
G01X0420560Y2141900D02*
G01X0424410Y2138050D01*
G01X0412860Y2141900D02*
G01X0420560Y2141900D01*
G01X0409010Y2138050D02*
G01X0412860Y2141900D01*
G01X0409010Y2138050D02*
G01X0409010Y2130350D01*
G01X0409010Y2130350D02*
G01X0412860Y2126500D01*
G01X0412860Y2126500D02*
G01X0420560Y2126500D01*
G01X0420560Y2126500D02*
G01X0424410Y2130350D01*
G01X0409010Y2118800D02*
G01X0412860Y2114950D01*
G01X0412860Y2114950D02*
G01X0420560Y2114950D01*
G01X0420560Y2114950D02*
G01X0424410Y2118800D01*
G01X0424410Y2141900D02*
G01X0424410Y2118800D01*
G01X0437500Y2126500D02*
G01X0449050Y2126500D01*
G01X0433650Y2130350D02*
G01X0437500Y2126500D01*
G01X0433650Y2138050D02*
G01X0433650Y2130350D01*
G01X0433650Y2138050D02*
G01X0437500Y2141900D01*
G01X0437500Y2141900D02*
G01X0445200Y2141900D01*
G01X0445200Y2141900D02*
G01X0449050Y2138050D01*
G01X0433650Y2134200D02*
G01X0449050Y2134200D01*
G01X0449050Y2138050D02*
G01X0449050Y2134200D01*
G01X0462140Y2138050D02*
G01X0462140Y2126500D01*
G01X0462140Y2138050D02*
G01X0465990Y2141900D01*
G01X0465990Y2141900D02*
G01X0473690Y2141900D01*
G01X0458290Y2141900D02*
G01X0462140Y2138050D01*
G01X0482930Y2126500D02*
G01X0486780Y2126500D01*
G01X0250000Y2202300D02*
G01X0250000Y2171500D01*
G01X0250000Y2202300D02*
G01X0265400Y2202300D01*
G01X0250000Y2188440D02*
G01X0261550Y2188440D01*
G01X0286190Y2186900D02*
G01X0290040Y2183050D01*
G01X0278490Y2186900D02*
G01X0286190Y2186900D01*
G01X0274640Y2183050D02*
G01X0278490Y2186900D01*
G01X0274640Y2183050D02*
G01X0274640Y2175350D01*
G01X0274640Y2175350D02*
G01X0278490Y2171500D01*
G01X0290040Y2186900D02*
G01X0290040Y2175350D01*
G01X0290040Y2175350D02*
G01X0293890Y2171500D01*
G01X0278490Y2171500D02*
G01X0286190Y2171500D01*
G01X0286190Y2171500D02*
G01X0290040Y2175350D01*
G01X0306980Y2183050D02*
G01X0306980Y2171500D01*
G01X0306980Y2183050D02*
G01X0310830Y2186900D01*
G01X0310830Y2186900D02*
G01X0318530Y2186900D01*
G01X0303130Y2186900D02*
G01X0306980Y2183050D01*
G01X0345480Y2171500D02*
G01X0357030Y2171500D01*
G01X0357030Y2171500D02*
G01X0360880Y2175350D01*
G01X0357030Y2179200D02*
G01X0360880Y2175350D01*
G01X0345480Y2179200D02*
G01X0357030Y2179200D01*
G01X0341630Y2183050D02*
G01X0345480Y2179200D01*
G01X0341630Y2183050D02*
G01X0345480Y2186900D01*
G01X0345480Y2186900D02*
G01X0357030Y2186900D01*
G01X0357030Y2186900D02*
G01X0360880Y2183050D01*
G01X0341630Y2175350D02*
G01X0345480Y2171500D01*
G54D18*
G01X0370120Y2194600D02*
G01X0370120Y2193830D01*
G54D17*
G01X0370120Y2183050D02*
G01X0370120Y2171500D01*
G01X0393220Y2202300D02*
G01X0393220Y2171500D01*
G01X0389370Y2171500D02*
G01X0393220Y2175350D01*
G01X0381670Y2171500D02*
G01X0389370Y2171500D01*
G01X0377820Y2175350D02*
G01X0381670Y2171500D01*
G01X0377820Y2183050D02*
G01X0377820Y2175350D01*
G01X0377820Y2183050D02*
G01X0381670Y2186900D01*
G01X0381670Y2186900D02*
G01X0389370Y2186900D01*
G01X0389370Y2186900D02*
G01X0393220Y2183050D01*
G01X0406310Y2171500D02*
G01X0417860Y2171500D01*
G01X0402460Y2175350D02*
G01X0406310Y2171500D01*
G01X0402460Y2183050D02*
G01X0402460Y2175350D01*
G01X0402460Y2183050D02*
G01X0406310Y2186900D01*
G01X0406310Y2186900D02*
G01X0414010Y2186900D01*
G01X0414010Y2186900D02*
G01X0417860Y2183050D01*
G01X0402460Y2179200D02*
G01X0417860Y2179200D01*
G01X0417860Y2183050D02*
G01X0417860Y2179200D01*
G01X0444810Y2183050D02*
G01X0444810Y2159950D01*
G01X0440960Y2186900D02*
G01X0444810Y2183050D01*
G01X0444810Y2183050D02*
G01X0448660Y2186900D01*
G01X0448660Y2186900D02*
G01X0456360Y2186900D01*
G01X0456360Y2186900D02*
G01X0460210Y2183050D01*
G01X0460210Y2183050D02*
G01X0460210Y2175350D01*
G01X0456360Y2171500D02*
G01X0460210Y2175350D01*
G01X0448660Y2171500D02*
G01X0456360Y2171500D01*
G01X0444810Y2175350D02*
G01X0448660Y2171500D01*
G54D18*
G01X0469450Y2194600D02*
G01X0469450Y2193830D01*
G54D17*
G01X0469450Y2183050D02*
G01X0469450Y2171500D01*
G01X0481000Y2183050D02*
G01X0481000Y2171500D01*
G01X0481000Y2183050D02*
G01X0484850Y2186900D01*
G01X0484850Y2186900D02*
G01X0488700Y2186900D01*
G01X0488700Y2186900D02*
G01X0492550Y2183050D01*
G01X0492550Y2183050D02*
G01X0492550Y2171500D01*
G01X0477150Y2186900D02*
G01X0481000Y2183050D01*
G01X0501790Y2196140D02*
G01X0507950Y2202300D01*
G01X0507950Y2202300D02*
G01X0507950Y2171500D01*
G01X0501790Y2171500D02*
G01X0513340Y2171500D01*
G01X0540290Y2171500D02*
G01X0551840Y2171500D01*
G01X0551840Y2171500D02*
G01X0555690Y2175350D01*
G01X0551840Y2179200D02*
G01X0555690Y2175350D01*
G01X0540290Y2179200D02*
G01X0551840Y2179200D01*
G01X0536440Y2183050D02*
G01X0540290Y2179200D01*
G01X0536440Y2183050D02*
G01X0540290Y2186900D01*
G01X0540290Y2186900D02*
G01X0551840Y2186900D01*
G01X0551840Y2186900D02*
G01X0555690Y2183050D01*
G01X0536440Y2175350D02*
G01X0540290Y2171500D01*
G54D18*
G01X0564930Y2194600D02*
G01X0564930Y2193830D01*
G54D17*
G01X0564930Y2183050D02*
G01X0564930Y2171500D01*
G01X0588030Y2202300D02*
G01X0588030Y2171500D01*
G01X0584180Y2171500D02*
G01X0588030Y2175350D01*
G01X0576480Y2171500D02*
G01X0584180Y2171500D01*
G01X0572630Y2175350D02*
G01X0576480Y2171500D01*
G01X0572630Y2183050D02*
G01X0572630Y2175350D01*
G01X0572630Y2183050D02*
G01X0576480Y2186900D01*
G01X0576480Y2186900D02*
G01X0584180Y2186900D01*
G01X0584180Y2186900D02*
G01X0588030Y2183050D01*
G01X0601120Y2171500D02*
G01X0612670Y2171500D01*
G01X0597270Y2175350D02*
G01X0601120Y2171500D01*
G01X0597270Y2183050D02*
G01X0597270Y2175350D01*
G01X0597270Y2183050D02*
G01X0601120Y2186900D01*
G01X0601120Y2186900D02*
G01X0608820Y2186900D01*
G01X0608820Y2186900D02*
G01X0612670Y2183050D01*
G01X0597270Y2179200D02*
G01X0612670Y2179200D01*
G01X0612670Y2183050D02*
G01X0612670Y2179200D01*
G01X0542700Y1360000D02*
G01X0573500Y1360000D01*
G01X0542700Y1360000D02*
G01X0558100Y1371550D01*
G01X0558100Y1371550D02*
G01X0542700Y1383100D01*
G01X0542700Y1383100D02*
G01X0573500Y1383100D01*
G54D18*
G01X0550400Y1392340D02*
G01X0551170Y1392340D01*
G54D17*
G01X0561950Y1392340D02*
G01X0573500Y1392340D01*
G01X0561950Y1403890D02*
G01X0573500Y1403890D01*
G01X0561950Y1403890D02*
G01X0558100Y1407740D01*
G01X0558100Y1411590D02*
G01X0558100Y1407740D01*
G01X0558100Y1411590D02*
G01X0561950Y1415440D01*
G01X0561950Y1415440D02*
G01X0573500Y1415440D01*
G01X0558100Y1400040D02*
G01X0561950Y1403890D01*
G54D18*
G01X0550400Y1424680D02*
G01X0551170Y1424680D01*
G54D17*
G01X0561950Y1424680D02*
G01X0573500Y1424680D01*
G01X0573500Y1447780D02*
G01X0573500Y1432380D01*
G01X0542700Y1472420D02*
G01X0542700Y1457020D01*
G01X0542700Y1464720D02*
G01X0573500Y1464720D01*
G01X0558100Y1493210D02*
G01X0561950Y1497060D01*
G01X0558100Y1493210D02*
G01X0558100Y1485510D01*
G01X0561950Y1481660D02*
G01X0558100Y1485510D01*
G01X0561950Y1481660D02*
G01X0569650Y1481660D01*
G01X0569650Y1481660D02*
G01X0573500Y1485510D01*
G01X0558100Y1497060D02*
G01X0569650Y1497060D01*
G01X0569650Y1497060D02*
G01X0573500Y1500910D01*
G01X0573500Y1493210D02*
G01X0573500Y1485510D01*
G01X0573500Y1493210D02*
G01X0569650Y1497060D01*
G01X0558100Y1525550D02*
G01X0558100Y1510150D01*
G01X0573500Y1510150D02*
G01X0558100Y1525550D01*
G01X0573500Y1525550D02*
G01X0573500Y1510150D01*
G01X0542700Y1546340D02*
G01X0546550Y1550190D01*
G01X0542700Y1546340D02*
G01X0542700Y1538640D01*
G01X0546550Y1534790D02*
G01X0542700Y1538640D01*
G01X0546550Y1534790D02*
G01X0569650Y1534790D01*
G01X0569650Y1534790D02*
G01X0573500Y1538640D01*
G01X0556560Y1546340D02*
G01X0560410Y1550190D01*
G01X0556560Y1546340D02*
G01X0556560Y1534790D01*
G01X0573500Y1546340D02*
G01X0573500Y1538640D01*
G01X0573500Y1546340D02*
G01X0569650Y1550190D01*
G01X0560410Y1550190D02*
G01X0569650Y1550190D01*
G01X0542700Y0790000D02*
G01X0573500Y0790000D01*
G01X0542700Y0790000D02*
G01X0558100Y0801550D01*
G01X0558100Y0801550D02*
G01X0542700Y0813100D01*
G01X0542700Y0813100D02*
G01X0573500Y0813100D01*
G54D18*
G01X0550400Y0822340D02*
G01X0551170Y0822340D01*
G54D17*
G01X0561950Y0822340D02*
G01X0573500Y0822340D01*
G01X0561950Y0833890D02*
G01X0573500Y0833890D01*
G01X0561950Y0833890D02*
G01X0558100Y0837740D01*
G01X0558100Y0841590D02*
G01X0558100Y0837740D01*
G01X0558100Y0841590D02*
G01X0561950Y0845440D01*
G01X0561950Y0845440D02*
G01X0573500Y0845440D01*
G01X0558100Y0830040D02*
G01X0561950Y0833890D01*
G54D18*
G01X0550400Y0854680D02*
G01X0551170Y0854680D01*
G54D17*
G01X0561950Y0854680D02*
G01X0573500Y0854680D01*
G01X0573500Y0877780D02*
G01X0573500Y0862380D01*
G01X0542700Y0902420D02*
G01X0542700Y0887020D01*
G01X0542700Y0894720D02*
G01X0573500Y0894720D01*
G01X0558100Y0923210D02*
G01X0561950Y0927060D01*
G01X0558100Y0923210D02*
G01X0558100Y0915510D01*
G01X0561950Y0911660D02*
G01X0558100Y0915510D01*
G01X0561950Y0911660D02*
G01X0569650Y0911660D01*
G01X0569650Y0911660D02*
G01X0573500Y0915510D01*
G01X0558100Y0927060D02*
G01X0569650Y0927060D01*
G01X0569650Y0927060D02*
G01X0573500Y0930910D01*
G01X0573500Y0923210D02*
G01X0573500Y0915510D01*
G01X0573500Y0923210D02*
G01X0569650Y0927060D01*
G01X0558100Y0955550D02*
G01X0558100Y0940150D01*
G01X0573500Y0940150D02*
G01X0558100Y0955550D01*
G01X0573500Y0955550D02*
G01X0573500Y0940150D01*
G01X0542700Y0976340D02*
G01X0546550Y0980190D01*
G01X0542700Y0976340D02*
G01X0542700Y0968640D01*
G01X0546550Y0964790D02*
G01X0542700Y0968640D01*
G01X0546550Y0964790D02*
G01X0569650Y0964790D01*
G01X0569650Y0964790D02*
G01X0573500Y0968640D01*
G01X0556560Y0976340D02*
G01X0560410Y0980190D01*
G01X0556560Y0976340D02*
G01X0556560Y0964790D01*
G01X0573500Y0976340D02*
G01X0573500Y0968640D01*
G01X0573500Y0976340D02*
G01X0569650Y0980190D01*
G01X0560410Y0980190D02*
G01X0569650Y0980190D01*
G01X1387700Y0763850D02*
G01X1418500Y0763850D01*
G01X1387700Y0775400D02*
G01X1387700Y0760000D01*
G01X1387700Y0775400D02*
G01X1391550Y0779250D01*
G01X1391550Y0779250D02*
G01X1399250Y0779250D01*
G01X1403100Y0775400D02*
G01X1399250Y0779250D01*
G01X1403100Y0775400D02*
G01X1403100Y0763850D01*
G54D18*
G01X1395400Y0788490D02*
G01X1396170Y0788490D01*
G54D17*
G01X1406950Y0788490D02*
G01X1418500Y0788490D01*
G01X1406950Y0800040D02*
G01X1418500Y0800040D01*
G01X1406950Y0800040D02*
G01X1403100Y0803890D01*
G01X1403100Y0807740D02*
G01X1403100Y0803890D01*
G01X1403100Y0807740D02*
G01X1406950Y0811590D01*
G01X1406950Y0811590D02*
G01X1418500Y0811590D01*
G01X1403100Y0796190D02*
G01X1406950Y0800040D01*
G01X1418500Y0836230D02*
G01X1418500Y0824680D01*
G01X1418500Y0836230D02*
G01X1414650Y0840080D01*
G01X1410800Y0836230D02*
G01X1414650Y0840080D01*
G01X1410800Y0836230D02*
G01X1410800Y0824680D01*
G01X1406950Y0820830D02*
G01X1410800Y0824680D01*
G01X1406950Y0820830D02*
G01X1403100Y0824680D01*
G01X1403100Y0836230D02*
G01X1403100Y0824680D01*
G01X1403100Y0836230D02*
G01X1406950Y0840080D01*
G01X1414650Y0820830D02*
G01X1418500Y0824680D01*
G01X1393860Y0863180D02*
G01X1387700Y0869340D01*
G01X1387700Y0869340D02*
G01X1418500Y0869340D01*
G01X1418500Y0874730D02*
G01X1418500Y0863180D01*
G01X1393860Y0883970D02*
G01X1387700Y0890130D01*
G01X1387700Y0890130D02*
G01X1418500Y0890130D01*
G01X1418500Y0895520D02*
G01X1418500Y0883970D01*
G01X1403100Y0920160D02*
G01X1403100Y0904760D01*
G01X1391550Y0929400D02*
G01X1387700Y0933250D01*
G01X1387700Y0944800D02*
G01X1387700Y0933250D01*
G01X1387700Y0944800D02*
G01X1391550Y0948650D01*
G01X1391550Y0948650D02*
G01X1399250Y0948650D01*
G01X1418500Y0929400D02*
G01X1399250Y0948650D01*
G01X1418500Y0948650D02*
G01X1418500Y0929400D01*
G01X1414650Y0957890D02*
G01X1418500Y0961740D01*
G01X1391550Y0957890D02*
G01X1414650Y0957890D01*
G01X1391550Y0957890D02*
G01X1387700Y0961740D01*
G01X1387700Y0969440D02*
G01X1387700Y0961740D01*
G01X1387700Y0969440D02*
G01X1391550Y0973290D01*
G01X1391550Y0973290D02*
G01X1414650Y0973290D01*
G01X1418500Y0969440D02*
G01X1414650Y0973290D01*
G01X1418500Y0969440D02*
G01X1418500Y0961740D01*
G01X1410800Y0957890D02*
G01X1395400Y0973290D01*
G01X0927700Y0798850D02*
G01X0958500Y0798850D01*
G01X0927700Y0810400D02*
G01X0927700Y0795000D01*
G01X0927700Y0810400D02*
G01X0931550Y0814250D01*
G01X0931550Y0814250D02*
G01X0939250Y0814250D01*
G01X0943100Y0810400D02*
G01X0939250Y0814250D01*
G01X0943100Y0810400D02*
G01X0943100Y0798850D01*
G54D18*
G01X0935400Y0823490D02*
G01X0936170Y0823490D01*
G54D17*
G01X0946950Y0823490D02*
G01X0958500Y0823490D01*
G01X0946950Y0835040D02*
G01X0958500Y0835040D01*
G01X0946950Y0835040D02*
G01X0943100Y0838890D01*
G01X0943100Y0842740D02*
G01X0943100Y0838890D01*
G01X0943100Y0842740D02*
G01X0946950Y0846590D01*
G01X0946950Y0846590D02*
G01X0958500Y0846590D01*
G01X0943100Y0831190D02*
G01X0946950Y0835040D01*
G01X0958500Y0871230D02*
G01X0958500Y0859680D01*
G01X0958500Y0871230D02*
G01X0954650Y0875080D01*
G01X0950800Y0871230D02*
G01X0954650Y0875080D01*
G01X0950800Y0871230D02*
G01X0950800Y0859680D01*
G01X0946950Y0855830D02*
G01X0950800Y0859680D01*
G01X0946950Y0855830D02*
G01X0943100Y0859680D01*
G01X0943100Y0871230D02*
G01X0943100Y0859680D01*
G01X0943100Y0871230D02*
G01X0946950Y0875080D01*
G01X0954650Y0855830D02*
G01X0958500Y0859680D01*
G01X0954650Y0898180D02*
G01X0958500Y0902030D01*
G01X0931550Y0898180D02*
G01X0954650Y0898180D01*
G01X0931550Y0898180D02*
G01X0927700Y0902030D01*
G01X0927700Y0909730D02*
G01X0927700Y0902030D01*
G01X0927700Y0909730D02*
G01X0931550Y0913580D01*
G01X0931550Y0913580D02*
G01X0954650Y0913580D01*
G01X0958500Y0909730D02*
G01X0954650Y0913580D01*
G01X0958500Y0909730D02*
G01X0958500Y0902030D01*
G01X0950800Y0898180D02*
G01X0935400Y0913580D01*
G01X0933860Y0922820D02*
G01X0927700Y0928980D01*
G01X0927700Y0928980D02*
G01X0958500Y0928980D01*
G01X0958500Y0934370D02*
G01X0958500Y0922820D01*
G01X0943100Y0959010D02*
G01X0943100Y0943610D01*
G01X0933860Y0968250D02*
G01X0927700Y0974410D01*
G01X0927700Y0974410D02*
G01X0958500Y0974410D01*
G01X0958500Y0979800D02*
G01X0958500Y0968250D01*
G01X0954650Y0989040D02*
G01X0958500Y0992890D01*
G01X0931550Y0989040D02*
G01X0954650Y0989040D01*
G01X0931550Y0989040D02*
G01X0927700Y0992890D01*
G01X0927700Y1000590D02*
G01X0927700Y0992890D01*
G01X0927700Y1000590D02*
G01X0931550Y1004440D01*
G01X0931550Y1004440D02*
G01X0954650Y1004440D01*
G01X0958500Y1000590D02*
G01X0954650Y1004440D01*
G01X0958500Y1000590D02*
G01X0958500Y0992890D01*
G01X0950800Y0989040D02*
G01X0935400Y1004440D01*
G54D15*
G01X0785400Y1090000D02*
G01X0807000Y1090000D01*
G01X0785400Y1090000D02*
G01X0796200Y1098100D01*
G01X0796200Y1098100D02*
G01X0785400Y1106200D01*
G01X0785400Y1106200D02*
G01X0807000Y1106200D01*
G01X0796200Y1120780D02*
G01X0798900Y1123480D01*
G01X0796200Y1120780D02*
G01X0796200Y1115380D01*
G01X0798900Y1112680D02*
G01X0796200Y1115380D01*
G01X0798900Y1112680D02*
G01X0804300Y1112680D01*
G01X0804300Y1112680D02*
G01X0807000Y1115380D01*
G01X0796200Y1123480D02*
G01X0804300Y1123480D01*
G01X0804300Y1123480D02*
G01X0807000Y1126180D01*
G01X0807000Y1120780D02*
G01X0807000Y1115380D01*
G01X0807000Y1120780D02*
G01X0804300Y1123480D01*
G01X0796200Y1132660D02*
G01X0804300Y1132660D01*
G01X0804300Y1132660D02*
G01X0807000Y1135360D01*
G01X0796200Y1143460D02*
G01X0812400Y1143460D01*
G01X0815100Y1140760D02*
G01X0812400Y1143460D01*
G01X0815100Y1140760D02*
G01X0815100Y1135360D01*
G01X0812400Y1132660D02*
G01X0815100Y1135360D01*
G01X0807000Y1140760D02*
G01X0807000Y1135360D01*
G01X0807000Y1140760D02*
G01X0804300Y1143460D01*
G01X0785400Y1159660D02*
G01X0807000Y1159660D01*
G01X0804300Y1159660D02*
G01X0807000Y1162360D01*
G01X0807000Y1167760D02*
G01X0807000Y1162360D01*
G01X0807000Y1167760D02*
G01X0804300Y1170460D01*
G01X0798900Y1170460D02*
G01X0804300Y1170460D01*
G01X0796200Y1167760D02*
G01X0798900Y1170460D01*
G01X0796200Y1167760D02*
G01X0796200Y1162360D01*
G01X0798900Y1159660D02*
G01X0796200Y1162360D01*
G01X0798900Y1179640D02*
G01X0807000Y1179640D01*
G01X0798900Y1179640D02*
G01X0796200Y1182340D01*
G01X0796200Y1187740D02*
G01X0796200Y1182340D01*
G01X0796200Y1176940D02*
G01X0798900Y1179640D01*
G01X0807000Y1205020D02*
G01X0807000Y1196920D01*
G01X0804300Y1194220D02*
G01X0807000Y1196920D01*
G01X0798900Y1194220D02*
G01X0804300Y1194220D01*
G01X0798900Y1194220D02*
G01X0796200Y1196920D01*
G01X0796200Y1202320D02*
G01X0796200Y1196920D01*
G01X0796200Y1202320D02*
G01X0798900Y1205020D01*
G01X0801600Y1205020D02*
G01X0801600Y1194220D01*
G01X0798900Y1205020D02*
G01X0801600Y1205020D01*
G01X0796200Y1219600D02*
G01X0798900Y1222300D01*
G01X0796200Y1219600D02*
G01X0796200Y1214200D01*
G01X0798900Y1211500D02*
G01X0796200Y1214200D01*
G01X0798900Y1211500D02*
G01X0804300Y1211500D01*
G01X0804300Y1211500D02*
G01X0807000Y1214200D01*
G01X0796200Y1222300D02*
G01X0804300Y1222300D01*
G01X0804300Y1222300D02*
G01X0807000Y1225000D01*
G01X0807000Y1219600D02*
G01X0807000Y1214200D01*
G01X0807000Y1219600D02*
G01X0804300Y1222300D01*
G01X0785400Y1231480D02*
G01X0807000Y1231480D01*
G01X0798900Y1231480D02*
G01X0807000Y1239580D01*
G01X0798900Y1231480D02*
G01X0793500Y1236880D01*
G01X0823100Y1117700D02*
G01X0842000Y1117700D01*
G01X0823100Y1117700D02*
G01X0820400Y1120400D01*
G01X0820400Y1123100D02*
G01X0820400Y1120400D01*
G01X0831200Y1120400D02*
G01X0831200Y1115000D01*
G01X0833900Y1128500D02*
G01X0839300Y1128500D01*
G01X0833900Y1128500D02*
G01X0831200Y1131200D01*
G01X0831200Y1136600D02*
G01X0831200Y1131200D01*
G01X0831200Y1136600D02*
G01X0833900Y1139300D01*
G01X0833900Y1139300D02*
G01X0839300Y1139300D01*
G01X0842000Y1136600D02*
G01X0839300Y1139300D01*
G01X0842000Y1136600D02*
G01X0842000Y1131200D01*
G01X0839300Y1128500D02*
G01X0842000Y1131200D01*
G01X0833900Y1148480D02*
G01X0842000Y1148480D01*
G01X0833900Y1148480D02*
G01X0831200Y1151180D01*
G01X0831200Y1156580D02*
G01X0831200Y1151180D01*
G01X0831200Y1145780D02*
G01X0833900Y1148480D01*
G01X0820400Y1172780D02*
G01X0842000Y1172780D01*
G01X0820400Y1172780D02*
G01X0831200Y1180880D01*
G01X0831200Y1180880D02*
G01X0820400Y1188980D01*
G01X0820400Y1188980D02*
G01X0842000Y1188980D01*
G54D16*
G01X0825800Y1195460D02*
G01X0826340Y1195460D01*
G54D15*
G01X0833900Y1195460D02*
G01X0842000Y1195460D01*
G01X0833900Y1203560D02*
G01X0842000Y1203560D01*
G01X0833900Y1203560D02*
G01X0831200Y1206260D01*
G01X0831200Y1208960D02*
G01X0831200Y1206260D01*
G01X0831200Y1208960D02*
G01X0833900Y1211660D01*
G01X0833900Y1211660D02*
G01X0842000Y1211660D01*
G01X0831200Y1200860D02*
G01X0833900Y1203560D01*
G54D16*
G01X0825800Y1218140D02*
G01X0826340Y1218140D01*
G54D15*
G01X0833900Y1218140D02*
G01X0842000Y1218140D01*
G01X0842000Y1226240D02*
G01X0842000Y1223540D01*
G54D17*
G01X0867700Y0798850D02*
G01X0898500Y0798850D01*
G01X0867700Y0810400D02*
G01X0867700Y0795000D01*
G01X0867700Y0810400D02*
G01X0871550Y0814250D01*
G01X0871550Y0814250D02*
G01X0879250Y0814250D01*
G01X0883100Y0810400D02*
G01X0879250Y0814250D01*
G01X0883100Y0810400D02*
G01X0883100Y0798850D01*
G54D18*
G01X0875400Y0823490D02*
G01X0876170Y0823490D01*
G54D17*
G01X0886950Y0823490D02*
G01X0898500Y0823490D01*
G01X0886950Y0835040D02*
G01X0898500Y0835040D01*
G01X0886950Y0835040D02*
G01X0883100Y0838890D01*
G01X0883100Y0842740D02*
G01X0883100Y0838890D01*
G01X0883100Y0842740D02*
G01X0886950Y0846590D01*
G01X0886950Y0846590D02*
G01X0898500Y0846590D01*
G01X0883100Y0831190D02*
G01X0886950Y0835040D01*
G01X0898500Y0871230D02*
G01X0898500Y0859680D01*
G01X0898500Y0871230D02*
G01X0894650Y0875080D01*
G01X0890800Y0871230D02*
G01X0894650Y0875080D01*
G01X0890800Y0871230D02*
G01X0890800Y0859680D01*
G01X0886950Y0855830D02*
G01X0890800Y0859680D01*
G01X0886950Y0855830D02*
G01X0883100Y0859680D01*
G01X0883100Y0871230D02*
G01X0883100Y0859680D01*
G01X0883100Y0871230D02*
G01X0886950Y0875080D01*
G01X0894650Y0855830D02*
G01X0898500Y0859680D01*
G01X0873860Y0898180D02*
G01X0867700Y0904340D01*
G01X0867700Y0904340D02*
G01X0898500Y0904340D01*
G01X0898500Y0909730D02*
G01X0898500Y0898180D01*
G01X0873860Y0918970D02*
G01X0867700Y0925130D01*
G01X0867700Y0925130D02*
G01X0898500Y0925130D01*
G01X0898500Y0930520D02*
G01X0898500Y0918970D01*
G01X0883100Y0955160D02*
G01X0883100Y0939760D01*
G01X0871550Y0964400D02*
G01X0867700Y0968250D01*
G01X0867700Y0979800D02*
G01X0867700Y0968250D01*
G01X0867700Y0979800D02*
G01X0871550Y0983650D01*
G01X0871550Y0983650D02*
G01X0879250Y0983650D01*
G01X0898500Y0964400D02*
G01X0879250Y0983650D01*
G01X0898500Y0983650D02*
G01X0898500Y0964400D01*
G01X0894650Y0992890D02*
G01X0898500Y0996740D01*
G01X0871550Y0992890D02*
G01X0894650Y0992890D01*
G01X0871550Y0992890D02*
G01X0867700Y0996740D01*
G01X0867700Y1004440D02*
G01X0867700Y0996740D01*
G01X0867700Y1004440D02*
G01X0871550Y1008290D01*
G01X0871550Y1008290D02*
G01X0894650Y1008290D01*
G01X0898500Y1004440D02*
G01X0894650Y1008290D01*
G01X0898500Y1004440D02*
G01X0898500Y0996740D01*
G01X0890800Y0992890D02*
G01X0875400Y1008290D01*
G54D12*
G01X0955000Y0575000D02*
G01X0955000Y0270000D01*
G01X1080000Y0280000D02*
G01X1110000Y0310000D01*
G01X0985000Y0270000D02*
G01X1070000Y0270000D01*
G01X1110000Y0350000D02*
G01X1110000Y0310000D01*
G01X1120000Y0505000D02*
G01X1120000Y0475000D01*
G01X1090000Y0505000D02*
G01X1090000Y0475000D01*
G01X0975000Y0475000D02*
G01X0975000Y0220000D01*
G01X0925000Y0650000D02*
G01X0925000Y0170000D01*
G01X0975000Y0220000D02*
G01X1080000Y0220000D01*
G01X1080000Y0225000D02*
G01X1135000Y0225000D01*
G01X1080000Y0225000D02*
G01X1080000Y0210000D01*
G01X1120000Y0210000D02*
G01X1135000Y0210000D01*
G01X1100000Y0210000D02*
G01X1110000Y0200000D01*
G01X1080000Y0210000D02*
G01X1100000Y0210000D01*
G01X0955000Y0270000D02*
G01X0960000Y0270000D01*
G01X1110000Y0270000D02*
G01X1120000Y0280000D01*
G01X1110000Y0290000D02*
G01X1120000Y0280000D01*
G01X1100000Y0280000D02*
G01X1110000Y0290000D01*
G01X1100000Y0280000D02*
G01X1110000Y0270000D01*
G01X1080000Y0280000D02*
G01X1110000Y0250000D01*
G01X0975000Y0475000D02*
G01X1125000Y0475000D01*
G01X1020000Y0605000D02*
G01X1020000Y0575000D01*
G01X1050000Y0605000D02*
G01X1050000Y0575000D01*
G01X1050000Y0575000D02*
G01X0955000Y0575000D01*
G01X0990000Y0605000D02*
G01X0990000Y0575000D01*
G01X1340000Y0610000D02*
G01X1340000Y0595000D01*
G01X1370000Y0610000D02*
G01X1370000Y0595000D01*
G01X1340000Y0595000D02*
G01X1355000Y0595000D01*
G01X1370000Y0610000D02*
G01X1370000Y0605000D01*
G01X1340000Y0610000D02*
G01X1340000Y0605000D01*
G01X1350000Y0595000D02*
G01X1430000Y0595000D01*
G01X1215000Y0495000D02*
G01X1410000Y0495000D01*
G01X1295000Y0520000D02*
G01X1295000Y0495000D01*
G01X1215000Y0520000D02*
G01X1215000Y0495000D01*
G01X1270000Y0500000D02*
G01X1270000Y0495000D01*
G01X1240000Y0500000D02*
G01X1240000Y0495000D01*
G01X1450000Y0530000D02*
G01X1450000Y0230000D01*
G01X1430000Y0595000D02*
G01X1430000Y0270000D01*
G01X1410000Y0495000D02*
G01X1410000Y0355000D01*
G01X1480000Y0545000D02*
G01X1480000Y0540000D01*
G01X1470000Y0530000D02*
G01X1480000Y0540000D01*
G01X1470000Y0495000D02*
G01X1470000Y0470000D01*
G01X1470000Y0475000D02*
G01X1470000Y0200000D01*
G01X1470000Y0495000D02*
G01X1520000Y0495000D01*
G01X1530000Y0510000D02*
G01X1530000Y0505000D01*
G01X1520000Y0495000D02*
G01X1530000Y0505000D01*
G01X1499990Y0505000D02*
G01X1510000Y0495000D01*
G01X1499990Y0510000D02*
G01X1499990Y0505000D01*
G01X1450000Y0530000D02*
G01X1470000Y0530000D01*
G01X1450000Y0540000D02*
G01X1460000Y0530000D01*
G01X1450000Y0545000D02*
G01X1450000Y0540000D01*
G01X1675000Y0505000D02*
G01X1675000Y0475000D01*
G01X1530000Y0475000D02*
G01X1675000Y0475000D01*
G01X1645000Y0505000D02*
G01X1645000Y0475000D01*
G01X1530000Y0475000D02*
G01X1530000Y0285000D01*
G01X1530000Y0285000D02*
G01X1645000Y0285000D01*
G01X1645000Y0325000D02*
G01X1645000Y0230000D01*
G01X1670000Y0325000D02*
G01X1670000Y0205000D01*
G01X1645000Y0325000D02*
G01X1670000Y0325000D01*
G01X1494990Y0210000D02*
G01X1645000Y0230000D01*
G01X1494990Y0210000D02*
G01X1494990Y0200000D01*
G01X1494990Y0200000D02*
G01X1670000Y0205000D01*
G01X1275000Y0355000D02*
G01X1410000Y0355000D01*
G01X1195000Y0200000D02*
G01X1470000Y0200000D01*
G01X1190000Y0230000D02*
G01X1450000Y0230000D01*
G01X1270000Y0270000D02*
G01X1430000Y0270000D01*
G01X1215000Y0265000D02*
G01X1265000Y0265000D01*
G01X1190000Y0245000D02*
G01X1190000Y0215000D01*
G01X1185000Y0210000D02*
G01X1195000Y0200000D01*
G01X1160000Y0245000D02*
G01X1190000Y0245000D01*
G01X1160000Y0245000D02*
G01X1160000Y0215000D01*
G01X1175000Y0200000D02*
G01X1190000Y0215000D01*
G01X1160000Y0215000D02*
G01X1175000Y0200000D01*
G01X1175000Y0415000D02*
G01X1175000Y0375000D01*
G01X1175000Y0340000D02*
G01X1175000Y0335000D01*
G01X1175000Y0355000D02*
G01X1175000Y0350000D01*
G01X1160000Y0320000D02*
G01X1190000Y0320000D01*
G01X1200000Y0355000D02*
G01X1204990Y0350000D01*
G01X1204990Y0350000D02*
G01X1220000Y0350000D01*
G01X1200000Y0375000D02*
G01X1204990Y0380000D01*
G01X1204990Y0380000D02*
G01X1220000Y0380000D01*
G01X1190000Y0375000D02*
G01X1190000Y0355000D01*
G01X1180000Y0365000D02*
G01X1200000Y0365000D01*
G01X1160000Y0305000D02*
G01X1190000Y0305000D01*
G01X1160000Y0290000D02*
G01X1190000Y0290000D01*
G01X1160000Y0275000D02*
G01X1190000Y0275000D01*
G01X1175000Y0325000D02*
G01X1175000Y0245000D01*
G01X1215000Y0395000D02*
G01X1215000Y0335000D01*
G01X1215000Y0335000D02*
G01X1275000Y0335000D01*
G01X1204990Y0325000D02*
G01X1265000Y0325000D01*
G01X1265000Y0325000D02*
G01X1280000Y0310000D01*
G01X1204990Y0295000D02*
G01X1215000Y0295000D01*
G01X1215000Y0295000D02*
G01X1215000Y0265000D01*
G01X1215000Y0395000D02*
G01X1275000Y0395000D01*
G01X1275000Y0395000D02*
G01X1275000Y0335000D01*
G01X1230000Y0365000D02*
G01X1245000Y0350000D01*
G01X1245000Y0350000D02*
G01X1260000Y0365000D01*
G01X1245000Y0380000D02*
G01X1260000Y0365000D01*
G01X1230000Y0365000D02*
G01X1245000Y0380000D01*
G01X1265000Y0265000D02*
G01X1280000Y0280000D01*
G01X1280000Y0310000D02*
G01X1280000Y0280000D01*
G01X1245000Y0310000D02*
G01X1260000Y0295000D01*
G01X1230000Y0295000D02*
G01X1245000Y0310000D01*
G01X1230000Y0295000D02*
G01X1245000Y0280000D01*
G01X1245000Y0280000D02*
G01X1260000Y0295000D01*
G01X1110000Y0270000D02*
G01X1110000Y0225000D01*
G01X1135000Y0225000D02*
G01X1135000Y0210000D01*
G01X0925000Y0650000D02*
G01X1705000Y0650000D01*
G01X1705000Y0650000D02*
G01X1705000Y0170000D01*
G01X0925000Y0170000D02*
G01X1705000Y0170000D01*
G01X1110000Y0250000D02*
G01X1140000Y0280000D01*
G01X1110000Y0310000D02*
G01X1140000Y0280000D01*
G01X1150000Y0505000D02*
G01X1150000Y0475000D01*
G01X1085000Y0475000D02*
G01X1150000Y0475000D01*
G54D19*
G01X1222000Y0440800D02*
G01X1222000Y0430000D01*
G01X1219300Y0443490D02*
G01X1222000Y0440800D01*
G01X1212820Y0443490D02*
G01X1219300Y0443490D01*
G01X1210120Y0440800D02*
G01X1212820Y0443490D01*
G01X1210120Y0440800D02*
G01X1210120Y0432700D01*
G01X1200400Y0432700D02*
G01X1222000Y0432700D01*
G01X1200400Y0440800D02*
G01X1200400Y0430000D01*
G01X1200400Y0440800D02*
G01X1203100Y0443490D01*
G01X1203100Y0443490D02*
G01X1207420Y0443490D01*
G01X1207420Y0443490D02*
G01X1210120Y0440800D01*
G01X1200400Y0449980D02*
G01X1219300Y0449980D01*
G01X1219300Y0449980D02*
G01X1222000Y0452680D01*
G01X1211200Y0458080D02*
G01X1219300Y0458080D01*
G01X1219300Y0458080D02*
G01X1222000Y0460780D01*
G01X1222000Y0466180D02*
G01X1222000Y0460780D01*
G01X1219300Y0468880D02*
G01X1222000Y0466180D01*
G01X1211200Y0468880D02*
G01X1219300Y0468880D01*
G01X1222000Y0486160D02*
G01X1222000Y0478060D01*
G01X1219300Y0475350D02*
G01X1222000Y0478060D01*
G01X1213900Y0475350D02*
G01X1219300Y0475350D01*
G01X1211200Y0478060D02*
G01X1213900Y0475350D01*
G01X1211200Y0483450D02*
G01X1211200Y0478060D01*
G01X1211200Y0483450D02*
G01X1213900Y0486160D01*
G01X1216590Y0486160D02*
G01X1216590Y0475350D01*
G01X1213900Y0486160D02*
G01X1216590Y0486160D01*
G01X1140400Y0435000D02*
G01X1162000Y0435000D01*
G01X1140400Y0435000D02*
G01X1162000Y0448500D01*
G01X1140400Y0448500D02*
G01X1162000Y0448500D01*
G01X1162000Y0465780D02*
G01X1162000Y0458750D01*
G01X1158220Y0454980D02*
G01X1162000Y0458750D01*
G01X1144180Y0454980D02*
G01X1158220Y0454980D01*
G01X1140400Y0458750D02*
G01X1144180Y0454980D01*
G01X1140400Y0465780D02*
G01X1140400Y0458750D01*
G54D20*
G01X1096500Y0460600D02*
G01X1096500Y0453700D01*
G01X1092790Y0450000D02*
G01X1096500Y0453700D01*
G01X1079010Y0450000D02*
G01X1092790Y0450000D01*
G01X1075300Y0453700D02*
G01X1079010Y0450000D01*
G01X1075300Y0460600D02*
G01X1075300Y0453700D01*
G01X1110300Y0435000D02*
G01X1131500Y0435000D01*
G01X1110300Y0435000D02*
G01X1131500Y0448250D01*
G01X1110300Y0448250D02*
G01X1131500Y0448250D01*
G01X1112950Y0454610D02*
G01X1128850Y0454610D01*
G01X1110300Y0457250D02*
G01X1112950Y0454610D01*
G01X1110300Y0462560D02*
G01X1110300Y0457250D01*
G01X1110300Y0462560D02*
G01X1112950Y0465210D01*
G01X1112950Y0465210D02*
G01X1128850Y0465210D01*
G01X1128850Y0465210D02*
G01X1131500Y0462560D01*
G01X1131500Y0462560D02*
G01X1131500Y0457250D01*
G01X1128850Y0454610D02*
G01X1131500Y0457250D01*
G54D19*
G01X0995800Y0299600D02*
G01X0998500Y0296900D01*
G01X0987700Y0299600D02*
G01X0995800Y0299600D01*
G01X0985000Y0296900D02*
G01X0987700Y0299600D01*
G01X0985000Y0296900D02*
G01X0985000Y0291500D01*
G01X0985000Y0291500D02*
G01X0987700Y0288800D01*
G01X0987700Y0288800D02*
G01X0995800Y0288800D01*
G01X0995800Y0288800D02*
G01X0998500Y0286100D01*
G01X0998500Y0286100D02*
G01X0998500Y0280700D01*
G01X0995800Y0278000D02*
G01X0998500Y0280700D01*
G01X0987700Y0278000D02*
G01X0995800Y0278000D01*
G01X0985000Y0280700D02*
G01X0987700Y0278000D01*
G01X1007680Y0278000D02*
G01X1015780Y0278000D01*
G01X1004980Y0280700D02*
G01X1007680Y0278000D01*
G01X1004980Y0286100D02*
G01X1004980Y0280700D01*
G01X1004980Y0286100D02*
G01X1007680Y0288800D01*
G01X1007680Y0288800D02*
G01X1013080Y0288800D01*
G01X1013080Y0288800D02*
G01X1015780Y0286100D01*
G01X1004980Y0283390D02*
G01X1015780Y0283390D01*
G01X1015780Y0286100D02*
G01X1015780Y0283390D01*
G01X1024960Y0286100D02*
G01X1024960Y0278000D01*
G01X1024960Y0286100D02*
G01X1027660Y0288800D01*
G01X1027660Y0288800D02*
G01X1033060Y0288800D01*
G01X1022260Y0288800D02*
G01X1024960Y0286100D01*
G01X1039540Y0288800D02*
G01X1044940Y0278000D01*
G01X1044940Y0278000D02*
G01X1050340Y0288800D01*
G01X1056820Y0286100D02*
G01X1056820Y0280700D01*
G01X1056820Y0286100D02*
G01X1059520Y0288800D01*
G01X1059520Y0288800D02*
G01X1064920Y0288800D01*
G01X1064920Y0288800D02*
G01X1067620Y0286100D01*
G01X1067620Y0286100D02*
G01X1067620Y0280700D01*
G01X1064920Y0278000D02*
G01X1067620Y0280700D01*
G01X1059520Y0278000D02*
G01X1064920Y0278000D01*
G01X1056820Y0280700D02*
G01X1059520Y0278000D01*
G01X1290000Y0294600D02*
G01X1290000Y0273000D01*
G01X1303500Y0294600D02*
G01X1303500Y0273000D01*
G01X1290000Y0283800D02*
G01X1303500Y0283800D01*
G01X1312680Y0273000D02*
G01X1320780Y0273000D01*
G01X1309980Y0275700D02*
G01X1312680Y0273000D01*
G01X1309980Y0281090D02*
G01X1309980Y0275700D01*
G01X1309980Y0281090D02*
G01X1312680Y0283800D01*
G01X1312680Y0283800D02*
G01X1318080Y0283800D01*
G01X1318080Y0283800D02*
G01X1320780Y0281090D01*
G01X1309980Y0278400D02*
G01X1320780Y0278400D01*
G01X1320780Y0281090D02*
G01X1320780Y0278400D01*
G01X1335360Y0283800D02*
G01X1338060Y0281090D01*
G01X1329960Y0283800D02*
G01X1335360Y0283800D01*
G01X1327260Y0281090D02*
G01X1329960Y0283800D01*
G01X1327260Y0281090D02*
G01X1327260Y0275700D01*
G01X1327260Y0275700D02*
G01X1329960Y0273000D01*
G01X1338060Y0283800D02*
G01X1338060Y0275700D01*
G01X1338060Y0275700D02*
G01X1340760Y0273000D01*
G01X1329960Y0273000D02*
G01X1335360Y0273000D01*
G01X1335360Y0273000D02*
G01X1338060Y0275700D01*
G01X1349940Y0294600D02*
G01X1349940Y0275700D01*
G01X1349940Y0275700D02*
G01X1352640Y0273000D01*
G01X1347240Y0286500D02*
G01X1352640Y0286500D01*
G01X1360740Y0273000D02*
G01X1368840Y0273000D01*
G01X1368840Y0273000D02*
G01X1371540Y0275700D01*
G01X1368840Y0278400D02*
G01X1371540Y0275700D01*
G01X1360740Y0278400D02*
G01X1368840Y0278400D01*
G01X1358040Y0281090D02*
G01X1360740Y0278400D01*
G01X1358040Y0281090D02*
G01X1360740Y0283800D01*
G01X1360740Y0283800D02*
G01X1368840Y0283800D01*
G01X1368840Y0283800D02*
G01X1371540Y0281090D01*
G01X1358040Y0275700D02*
G01X1360740Y0273000D01*
G54D16*
G01X1378020Y0289200D02*
G01X1378020Y0288660D01*
G54D19*
G01X1378020Y0281090D02*
G01X1378020Y0273000D01*
G01X1386120Y0281090D02*
G01X1386120Y0273000D01*
G01X1386120Y0281090D02*
G01X1388820Y0283800D01*
G01X1388820Y0283800D02*
G01X1391520Y0283800D01*
G01X1391520Y0283800D02*
G01X1394220Y0281090D01*
G01X1394220Y0281090D02*
G01X1394220Y0273000D01*
G01X1383420Y0283800D02*
G01X1386120Y0281090D01*
G01X1400700Y0294600D02*
G01X1400700Y0273000D01*
G01X1400700Y0281090D02*
G01X1408800Y0273000D01*
G01X1400700Y0281090D02*
G01X1406100Y0286500D01*
G01X0987700Y0249600D02*
G01X0987700Y0228000D01*
G01X0985000Y0249600D02*
G01X0995800Y0249600D01*
G01X0995800Y0249600D02*
G01X0998500Y0246900D01*
G01X0998500Y0246900D02*
G01X0998500Y0241500D01*
G01X0995800Y0238800D02*
G01X0998500Y0241500D01*
G01X0987700Y0238800D02*
G01X0995800Y0238800D01*
G01X1007680Y0236100D02*
G01X1007680Y0228000D01*
G01X1007680Y0236100D02*
G01X1010380Y0238800D01*
G01X1010380Y0238800D02*
G01X1015780Y0238800D01*
G01X1004980Y0238800D02*
G01X1007680Y0236100D01*
G01X1022260Y0236100D02*
G01X1022260Y0230700D01*
G01X1022260Y0236100D02*
G01X1024960Y0238800D01*
G01X1024960Y0238800D02*
G01X1030360Y0238800D01*
G01X1030360Y0238800D02*
G01X1033060Y0236100D01*
G01X1033060Y0236100D02*
G01X1033060Y0230700D01*
G01X1030360Y0228000D02*
G01X1033060Y0230700D01*
G01X1024960Y0228000D02*
G01X1030360Y0228000D01*
G01X1022260Y0230700D02*
G01X1024960Y0228000D01*
G01X1039540Y0249600D02*
G01X1039540Y0228000D01*
G01X1039540Y0230700D02*
G01X1042240Y0228000D01*
G01X1042240Y0228000D02*
G01X1047640Y0228000D01*
G01X1047640Y0228000D02*
G01X1050340Y0230700D01*
G01X1050340Y0236100D02*
G01X1050340Y0230700D01*
G01X1047640Y0238800D02*
G01X1050340Y0236100D01*
G01X1042240Y0238800D02*
G01X1047640Y0238800D01*
G01X1039540Y0236100D02*
G01X1042240Y0238800D01*
G01X1059520Y0228000D02*
G01X1067620Y0228000D01*
G01X1056820Y0230700D02*
G01X1059520Y0228000D01*
G01X1056820Y0236100D02*
G01X1056820Y0230700D01*
G01X1056820Y0236100D02*
G01X1059520Y0238800D01*
G01X1059520Y0238800D02*
G01X1064920Y0238800D01*
G01X1064920Y0238800D02*
G01X1067620Y0236100D01*
G01X1056820Y0233400D02*
G01X1067620Y0233400D01*
G01X1067620Y0236100D02*
G01X1067620Y0233400D01*
G01X1200000Y0254600D02*
G01X1210800Y0254600D01*
G01X1205400Y0254600D02*
G01X1205400Y0233000D01*
G01X1217280Y0254600D02*
G01X1217280Y0233000D01*
G01X1217280Y0241100D02*
G01X1219980Y0243800D01*
G01X1219980Y0243800D02*
G01X1225380Y0243800D01*
G01X1225380Y0243800D02*
G01X1228080Y0241100D01*
G01X1228080Y0241100D02*
G01X1228080Y0233000D01*
G01X1237260Y0233000D02*
G01X1245360Y0233000D01*
G01X1234560Y0235690D02*
G01X1237260Y0233000D01*
G01X1234560Y0241100D02*
G01X1234560Y0235690D01*
G01X1234560Y0241100D02*
G01X1237260Y0243800D01*
G01X1237260Y0243800D02*
G01X1242660Y0243800D01*
G01X1242660Y0243800D02*
G01X1245360Y0241100D01*
G01X1234560Y0238400D02*
G01X1245360Y0238400D01*
G01X1245360Y0241100D02*
G01X1245360Y0238400D01*
G01X1254540Y0241100D02*
G01X1254540Y0233000D01*
G01X1254540Y0241100D02*
G01X1257240Y0243800D01*
G01X1257240Y0243800D02*
G01X1262640Y0243800D01*
G01X1251840Y0243800D02*
G01X1254540Y0241100D01*
G01X1271820Y0241100D02*
G01X1271820Y0233000D01*
G01X1271820Y0241100D02*
G01X1274520Y0243800D01*
G01X1274520Y0243800D02*
G01X1277220Y0243800D01*
G01X1277220Y0243800D02*
G01X1279920Y0241100D01*
G01X1279920Y0241100D02*
G01X1279920Y0233000D01*
G01X1279920Y0241100D02*
G01X1282620Y0243800D01*
G01X1282620Y0243800D02*
G01X1285320Y0243800D01*
G01X1285320Y0243800D02*
G01X1288020Y0241100D01*
G01X1288020Y0241100D02*
G01X1288020Y0233000D01*
G01X1269120Y0243800D02*
G01X1271820Y0241100D01*
G54D16*
G01X1294500Y0249200D02*
G01X1294500Y0248660D01*
G54D19*
G01X1294500Y0241100D02*
G01X1294500Y0233000D01*
G01X1302600Y0233000D02*
G01X1310700Y0233000D01*
G01X1310700Y0233000D02*
G01X1313400Y0235690D01*
G01X1310700Y0238400D02*
G01X1313400Y0235690D01*
G01X1302600Y0238400D02*
G01X1310700Y0238400D01*
G01X1299900Y0241100D02*
G01X1302600Y0238400D01*
G01X1299900Y0241100D02*
G01X1302600Y0243800D01*
G01X1302600Y0243800D02*
G01X1310700Y0243800D01*
G01X1310700Y0243800D02*
G01X1313400Y0241100D01*
G01X1299900Y0235690D02*
G01X1302600Y0233000D01*
G01X1322580Y0254600D02*
G01X1322580Y0235690D01*
G01X1322580Y0235690D02*
G01X1325280Y0233000D01*
G01X1319880Y0246500D02*
G01X1325280Y0246500D01*
G01X1330680Y0241100D02*
G01X1330680Y0235690D01*
G01X1330680Y0241100D02*
G01X1333380Y0243800D01*
G01X1333380Y0243800D02*
G01X1338780Y0243800D01*
G01X1338780Y0243800D02*
G01X1341480Y0241100D01*
G01X1341480Y0241100D02*
G01X1341480Y0235690D01*
G01X1338780Y0233000D02*
G01X1341480Y0235690D01*
G01X1333380Y0233000D02*
G01X1338780Y0233000D01*
G01X1330680Y0235690D02*
G01X1333380Y0233000D01*
G01X1350660Y0241100D02*
G01X1350660Y0233000D01*
G01X1350660Y0241100D02*
G01X1353360Y0243800D01*
G01X1353360Y0243800D02*
G01X1358760Y0243800D01*
G01X1347960Y0243800D02*
G01X1350660Y0241100D01*
G01X1204990Y0224590D02*
G01X1204990Y0203000D01*
G01X1218500Y0224590D02*
G01X1218500Y0203000D01*
G01X1204990Y0213800D02*
G01X1218500Y0213800D01*
G01X1227680Y0203000D02*
G01X1235780Y0203000D01*
G01X1224970Y0205700D02*
G01X1227680Y0203000D01*
G01X1224970Y0211100D02*
G01X1224970Y0205700D01*
G01X1224970Y0211100D02*
G01X1227680Y0213800D01*
G01X1227680Y0213800D02*
G01X1233080Y0213800D01*
G01X1233080Y0213800D02*
G01X1235780Y0211100D01*
G01X1224970Y0208400D02*
G01X1235780Y0208400D01*
G01X1235780Y0211100D02*
G01X1235780Y0208400D01*
G01X1250360Y0213800D02*
G01X1253060Y0211100D01*
G01X1244960Y0213800D02*
G01X1250360Y0213800D01*
G01X1242260Y0211100D02*
G01X1244960Y0213800D01*
G01X1242260Y0211100D02*
G01X1242260Y0205700D01*
G01X1242260Y0205700D02*
G01X1244960Y0203000D01*
G01X1253060Y0213800D02*
G01X1253060Y0205700D01*
G01X1253060Y0205700D02*
G01X1255760Y0203000D01*
G01X1244960Y0203000D02*
G01X1250360Y0203000D01*
G01X1250360Y0203000D02*
G01X1253060Y0205700D01*
G01X1264940Y0224590D02*
G01X1264940Y0205700D01*
G01X1264940Y0205700D02*
G01X1267640Y0203000D01*
G01X1262240Y0216500D02*
G01X1267640Y0216500D01*
G01X1275740Y0203000D02*
G01X1283840Y0203000D01*
G01X1273040Y0205700D02*
G01X1275740Y0203000D01*
G01X1273040Y0211100D02*
G01X1273040Y0205700D01*
G01X1273040Y0211100D02*
G01X1275740Y0213800D01*
G01X1275740Y0213800D02*
G01X1281140Y0213800D01*
G01X1281140Y0213800D02*
G01X1283840Y0211100D01*
G01X1273040Y0208400D02*
G01X1283840Y0208400D01*
G01X1283840Y0211100D02*
G01X1283840Y0208400D01*
G01X1293020Y0211100D02*
G01X1293020Y0203000D01*
G01X1293020Y0211100D02*
G01X1295720Y0213800D01*
G01X1295720Y0213800D02*
G01X1301120Y0213800D01*
G01X1290320Y0213800D02*
G01X1293020Y0211100D01*
G01X1005400Y0515800D02*
G01X1005400Y0505000D01*
G01X1005400Y0515800D02*
G01X1008100Y0518500D01*
G01X1008100Y0518500D02*
G01X1013500Y0518500D01*
G01X1013500Y0518500D02*
G01X1016200Y0515800D01*
G01X1016200Y0515800D02*
G01X1016200Y0507700D01*
G01X1005400Y0507700D02*
G01X1027000Y0507700D01*
G01X1016200Y0512020D02*
G01X1027000Y0518500D01*
G01X1027000Y0535780D02*
G01X1027000Y0527680D01*
G01X1024300Y0524980D02*
G01X1027000Y0527680D01*
G01X1018900Y0524980D02*
G01X1024300Y0524980D01*
G01X1016200Y0527680D02*
G01X1018900Y0524980D01*
G01X1016200Y0533080D02*
G01X1016200Y0527680D01*
G01X1016200Y0533080D02*
G01X1018900Y0535780D01*
G01X1021600Y0535780D02*
G01X1021600Y0524980D01*
G01X1018900Y0535780D02*
G01X1021600Y0535780D01*
G01X1005400Y0553060D02*
G01X1027000Y0553060D01*
G01X1024300Y0553060D02*
G01X1027000Y0550360D01*
G01X1027000Y0550360D02*
G01X1027000Y0544960D01*
G01X1024300Y0542260D02*
G01X1027000Y0544960D01*
G01X1018900Y0542260D02*
G01X1024300Y0542260D01*
G01X1016200Y0544960D02*
G01X1018900Y0542260D01*
G01X1016200Y0550360D02*
G01X1016200Y0544960D01*
G01X1016200Y0550360D02*
G01X1018900Y0553060D01*
G01X1016200Y0570340D02*
G01X1016200Y0559540D01*
G01X1010800Y0564940D02*
G01X1021600Y0564940D01*
G54D20*
G01X1056500Y0490600D02*
G01X1056500Y0480000D01*
G01X1053850Y0493250D02*
G01X1056500Y0490600D01*
G01X1047490Y0493250D02*
G01X1053850Y0493250D01*
G01X1044840Y0490600D02*
G01X1047490Y0493250D01*
G01X1044840Y0490600D02*
G01X1044840Y0482650D01*
G01X1035300Y0482650D02*
G01X1056500Y0482650D01*
G01X1035300Y0490600D02*
G01X1035300Y0480000D01*
G01X1035300Y0490600D02*
G01X1037950Y0493250D01*
G01X1037950Y0493250D02*
G01X1042190Y0493250D01*
G01X1042190Y0493250D02*
G01X1044840Y0490600D01*
G01X1035300Y0499610D02*
G01X1053850Y0499610D01*
G01X1053850Y0499610D02*
G01X1056500Y0502260D01*
G01X1045900Y0515510D02*
G01X1048550Y0518160D01*
G01X1045900Y0515510D02*
G01X1045900Y0510210D01*
G01X1045900Y0510210D02*
G01X1048550Y0507560D01*
G01X1048550Y0507560D02*
G01X1053850Y0507560D01*
G01X1053850Y0507560D02*
G01X1056500Y0510210D01*
G01X1045900Y0518160D02*
G01X1053850Y0518160D01*
G01X1053850Y0518160D02*
G01X1056500Y0520810D01*
G01X1056500Y0515510D02*
G01X1056500Y0510210D01*
G01X1053850Y0518160D02*
G01X1056500Y0515510D01*
G01X1045900Y0537770D02*
G01X1045900Y0529820D01*
G01X1045900Y0529820D02*
G01X1048550Y0527170D01*
G01X1048550Y0527170D02*
G01X1053850Y0527170D01*
G01X1053850Y0527170D02*
G01X1056500Y0529820D01*
G01X1056500Y0537770D02*
G01X1056500Y0529820D01*
G01X1035300Y0544130D02*
G01X1056500Y0544130D01*
G01X1048550Y0544130D02*
G01X1056500Y0552080D01*
G01X1043250Y0549430D02*
G01X1048550Y0544130D01*
G01X1045900Y0569040D02*
G01X1045900Y0558440D01*
G01X0993850Y0490000D02*
G01X0996500Y0492650D01*
G01X0975300Y0492650D02*
G01X0977950Y0490000D01*
G01X0977950Y0490000D02*
G01X0993850Y0490000D01*
G01X0975300Y0501660D02*
G01X0996500Y0501660D01*
G01X0975300Y0509610D02*
G01X0975300Y0499010D01*
G01X0975300Y0509610D02*
G01X0977950Y0512260D01*
G01X0977950Y0512260D02*
G01X0983250Y0512260D01*
G01X0983250Y0512260D02*
G01X0985900Y0509610D01*
G01X0985900Y0509610D02*
G01X0985900Y0501660D01*
G01X0975300Y0518620D02*
G01X0985900Y0518620D01*
G01X0985900Y0518620D02*
G01X0996500Y0521270D01*
G01X0985900Y0526570D02*
G01X0996500Y0521270D01*
G01X0985900Y0526570D02*
G01X0996500Y0531870D01*
G01X0985900Y0534520D02*
G01X0996500Y0531870D01*
G01X0975300Y0534520D02*
G01X0985900Y0534520D01*
G01X0975300Y0540880D02*
G01X0996500Y0540880D01*
G01X0975300Y0540880D02*
G01X0985900Y0548830D01*
G01X0975300Y0556780D02*
G01X0985900Y0548830D01*
G01X0975300Y0556780D02*
G01X0996500Y0556780D01*
G01X0975300Y0563140D02*
G01X0977950Y0565790D01*
G01X0977950Y0565790D02*
G01X0993850Y0565790D01*
G01X0993850Y0565790D02*
G01X0996500Y0563140D01*
G01X1381500Y0510600D02*
G01X1381500Y0500000D01*
G01X1378850Y0513250D02*
G01X1381500Y0510600D01*
G01X1372490Y0513250D02*
G01X1378850Y0513250D01*
G01X1369840Y0510600D02*
G01X1372490Y0513250D01*
G01X1369840Y0510600D02*
G01X1369840Y0502650D01*
G01X1360300Y0502650D02*
G01X1381500Y0502650D01*
G01X1360300Y0510600D02*
G01X1360300Y0500000D01*
G01X1360300Y0510600D02*
G01X1362950Y0513250D01*
G01X1362950Y0513250D02*
G01X1367190Y0513250D01*
G01X1367190Y0513250D02*
G01X1369840Y0510600D01*
G01X1360300Y0519610D02*
G01X1378850Y0519610D01*
G01X1378850Y0519610D02*
G01X1381500Y0522260D01*
G01X1370900Y0535510D02*
G01X1373550Y0538160D01*
G01X1370900Y0535510D02*
G01X1370900Y0530210D01*
G01X1370900Y0530210D02*
G01X1373550Y0527560D01*
G01X1373550Y0527560D02*
G01X1378850Y0527560D01*
G01X1378850Y0527560D02*
G01X1381500Y0530210D01*
G01X1370900Y0538160D02*
G01X1378850Y0538160D01*
G01X1378850Y0538160D02*
G01X1381500Y0540810D01*
G01X1381500Y0535510D02*
G01X1381500Y0530210D01*
G01X1378850Y0538160D02*
G01X1381500Y0535510D01*
G01X1370900Y0557770D02*
G01X1370900Y0549820D01*
G01X1370900Y0549820D02*
G01X1373550Y0547170D01*
G01X1373550Y0547170D02*
G01X1378850Y0547170D01*
G01X1378850Y0547170D02*
G01X1381500Y0549820D01*
G01X1381500Y0557770D02*
G01X1381500Y0549820D01*
G01X1360300Y0564130D02*
G01X1381500Y0564130D01*
G01X1373550Y0564130D02*
G01X1381500Y0572080D01*
G01X1368250Y0569430D02*
G01X1373550Y0564130D01*
G01X1370900Y0589040D02*
G01X1370900Y0578440D01*
G54D19*
G01X1330400Y0535800D02*
G01X1330400Y0525000D01*
G01X1330400Y0535800D02*
G01X1333100Y0538500D01*
G01X1333100Y0538500D02*
G01X1338500Y0538500D01*
G01X1338500Y0538500D02*
G01X1341200Y0535800D01*
G01X1341200Y0535800D02*
G01X1341200Y0527700D01*
G01X1330400Y0527700D02*
G01X1352000Y0527700D01*
G01X1341200Y0532020D02*
G01X1352000Y0538500D01*
G01X1352000Y0555780D02*
G01X1352000Y0547680D01*
G01X1349300Y0544980D02*
G01X1352000Y0547680D01*
G01X1343900Y0544980D02*
G01X1349300Y0544980D01*
G01X1341200Y0547680D02*
G01X1343900Y0544980D01*
G01X1341200Y0553080D02*
G01X1341200Y0547680D01*
G01X1341200Y0553080D02*
G01X1343900Y0555780D01*
G01X1346600Y0555780D02*
G01X1346600Y0544980D01*
G01X1343900Y0555780D02*
G01X1346600Y0555780D01*
G01X1330400Y0573060D02*
G01X1352000Y0573060D01*
G01X1349300Y0573060D02*
G01X1352000Y0570360D01*
G01X1352000Y0570360D02*
G01X1352000Y0564960D01*
G01X1349300Y0562260D02*
G01X1352000Y0564960D01*
G01X1343900Y0562260D02*
G01X1349300Y0562260D01*
G01X1341200Y0564960D02*
G01X1343900Y0562260D01*
G01X1341200Y0570360D02*
G01X1341200Y0564960D01*
G01X1341200Y0570360D02*
G01X1343900Y0573060D01*
G01X1341200Y0590340D02*
G01X1341200Y0579540D01*
G01X1335800Y0584940D02*
G01X1346600Y0584940D01*
G01X1225400Y0415790D02*
G01X1228100Y0418500D01*
G01X1225400Y0415790D02*
G01X1225400Y0407690D01*
G01X1225400Y0407690D02*
G01X1228100Y0405000D01*
G01X1228100Y0405000D02*
G01X1244290Y0405000D01*
G01X1244290Y0405000D02*
G01X1247000Y0407690D01*
G01X1247000Y0415790D02*
G01X1247000Y0407690D01*
G01X1244290Y0418500D02*
G01X1247000Y0415790D01*
G01X1238900Y0418500D02*
G01X1244290Y0418500D01*
G01X1236190Y0415790D02*
G01X1238900Y0418500D01*
G01X1236190Y0415790D02*
G01X1236190Y0410400D01*
G01X1238900Y0427670D02*
G01X1247000Y0427670D01*
G01X1236190Y0430380D02*
G01X1238900Y0427670D01*
G01X1236190Y0435770D02*
G01X1236190Y0430380D01*
G01X1236190Y0424980D02*
G01X1238900Y0427670D01*
G01X1247000Y0453060D02*
G01X1247000Y0444960D01*
G01X1244290Y0442260D02*
G01X1247000Y0444960D01*
G01X1238900Y0442260D02*
G01X1244290Y0442260D01*
G01X1236190Y0444960D02*
G01X1238900Y0442260D01*
G01X1236190Y0450360D02*
G01X1236190Y0444960D01*
G01X1236190Y0450360D02*
G01X1238900Y0453060D01*
G01X1241600Y0453060D02*
G01X1241600Y0442260D01*
G01X1238900Y0453060D02*
G01X1241600Y0453060D01*
G01X1247000Y0470340D02*
G01X1247000Y0462240D01*
G01X1244290Y0459530D02*
G01X1247000Y0462240D01*
G01X1238900Y0459530D02*
G01X1244290Y0459530D01*
G01X1236190Y0462240D02*
G01X1238900Y0459530D01*
G01X1236190Y0467630D02*
G01X1236190Y0462240D01*
G01X1236190Y0467630D02*
G01X1238900Y0470340D01*
G01X1241600Y0470340D02*
G01X1241600Y0459530D01*
G01X1238900Y0470340D02*
G01X1241600Y0470340D01*
G01X1238900Y0479510D02*
G01X1247000Y0479510D01*
G01X1236190Y0482220D02*
G01X1238900Y0479510D01*
G01X1236190Y0484920D02*
G01X1236190Y0482220D01*
G01X1236190Y0484920D02*
G01X1238900Y0487620D01*
G01X1238900Y0487620D02*
G01X1247000Y0487620D01*
G01X1236190Y0476820D02*
G01X1238900Y0479510D01*
G01X1285400Y0445800D02*
G01X1285400Y0435000D01*
G01X1285400Y0445800D02*
G01X1288100Y0448500D01*
G01X1288100Y0448500D02*
G01X1293500Y0448500D01*
G01X1293500Y0448500D02*
G01X1296200Y0445800D01*
G01X1296200Y0445800D02*
G01X1296200Y0437700D01*
G01X1285400Y0437700D02*
G01X1307000Y0437700D01*
G01X1296200Y0442020D02*
G01X1307000Y0448500D01*
G01X1307000Y0465780D02*
G01X1307000Y0457680D01*
G01X1304300Y0454980D02*
G01X1307000Y0457680D01*
G01X1298900Y0454980D02*
G01X1304300Y0454980D01*
G01X1296200Y0457680D02*
G01X1298900Y0454980D01*
G01X1296200Y0463080D02*
G01X1296200Y0457680D01*
G01X1296200Y0463080D02*
G01X1298900Y0465780D01*
G01X1301600Y0465780D02*
G01X1301600Y0454980D01*
G01X1298900Y0465780D02*
G01X1301600Y0465780D01*
G01X1285400Y0483060D02*
G01X1307000Y0483060D01*
G01X1304300Y0483060D02*
G01X1307000Y0480360D01*
G01X1307000Y0480360D02*
G01X1307000Y0474960D01*
G01X1304300Y0472260D02*
G01X1307000Y0474960D01*
G01X1298900Y0472260D02*
G01X1304300Y0472260D01*
G01X1296200Y0474960D02*
G01X1298900Y0472260D01*
G01X1296200Y0480360D02*
G01X1296200Y0474960D01*
G01X1296200Y0480360D02*
G01X1298900Y0483060D01*
G01X1277000Y0425800D02*
G01X1277000Y0415000D01*
G01X1274300Y0428500D02*
G01X1277000Y0425800D01*
G01X1267820Y0428500D02*
G01X1274300Y0428500D01*
G01X1265120Y0425800D02*
G01X1267820Y0428500D01*
G01X1265120Y0425800D02*
G01X1265120Y0417700D01*
G01X1255400Y0417700D02*
G01X1277000Y0417700D01*
G01X1255400Y0425800D02*
G01X1255400Y0415000D01*
G01X1255400Y0425800D02*
G01X1258100Y0428500D01*
G01X1258100Y0428500D02*
G01X1262420Y0428500D01*
G01X1262420Y0428500D02*
G01X1265120Y0425800D01*
G01X1255400Y0434980D02*
G01X1274300Y0434980D01*
G01X1274300Y0434980D02*
G01X1277000Y0437680D01*
G01X1266200Y0451180D02*
G01X1268900Y0453870D01*
G01X1266200Y0451180D02*
G01X1266200Y0445780D01*
G01X1266200Y0445780D02*
G01X1268900Y0443080D01*
G01X1268900Y0443080D02*
G01X1274300Y0443080D01*
G01X1274300Y0443080D02*
G01X1277000Y0445780D01*
G01X1266200Y0453870D02*
G01X1274300Y0453870D01*
G01X1274300Y0453870D02*
G01X1277000Y0456580D01*
G01X1277000Y0451180D02*
G01X1277000Y0445780D01*
G01X1274300Y0453870D02*
G01X1277000Y0451180D01*
G01X1266200Y0473850D02*
G01X1266200Y0465750D01*
G01X1266200Y0465750D02*
G01X1268900Y0463060D01*
G01X1268900Y0463060D02*
G01X1274300Y0463060D01*
G01X1274300Y0463060D02*
G01X1277000Y0465750D01*
G01X1277000Y0473850D02*
G01X1277000Y0465750D01*
G01X1255400Y0480340D02*
G01X1277000Y0480340D01*
G01X1268900Y0480340D02*
G01X1277000Y0488440D01*
G01X1263500Y0485740D02*
G01X1268900Y0480340D01*
G01X1295800Y0384600D02*
G01X1298500Y0381900D01*
G01X1287700Y0384600D02*
G01X1295800Y0384600D01*
G01X1285000Y0381900D02*
G01X1287700Y0384600D01*
G01X1285000Y0381900D02*
G01X1285000Y0376500D01*
G01X1285000Y0376500D02*
G01X1287700Y0373800D01*
G01X1287700Y0373800D02*
G01X1295800Y0373800D01*
G01X1295800Y0373800D02*
G01X1298500Y0371100D01*
G01X1298500Y0371100D02*
G01X1298500Y0365700D01*
G01X1295800Y0363000D02*
G01X1298500Y0365700D01*
G01X1287700Y0363000D02*
G01X1295800Y0363000D01*
G01X1285000Y0365700D02*
G01X1287700Y0363000D01*
G01X1307680Y0384600D02*
G01X1307680Y0365700D01*
G01X1307680Y0365700D02*
G01X1310380Y0363000D01*
G01X1304980Y0376500D02*
G01X1310380Y0376500D01*
G01X1318480Y0363000D02*
G01X1326580Y0363000D01*
G01X1315780Y0365700D02*
G01X1318480Y0363000D01*
G01X1315780Y0371100D02*
G01X1315780Y0365700D01*
G01X1315780Y0371100D02*
G01X1318480Y0373800D01*
G01X1318480Y0373800D02*
G01X1323880Y0373800D01*
G01X1323880Y0373800D02*
G01X1326580Y0371100D01*
G01X1315780Y0368400D02*
G01X1326580Y0368400D01*
G01X1326580Y0371100D02*
G01X1326580Y0368400D01*
G01X1335760Y0371100D02*
G01X1335760Y0354900D01*
G01X1333060Y0373800D02*
G01X1335760Y0371100D01*
G01X1335760Y0371100D02*
G01X1338460Y0373800D01*
G01X1338460Y0373800D02*
G01X1343860Y0373800D01*
G01X1343860Y0373800D02*
G01X1346560Y0371100D01*
G01X1346560Y0371100D02*
G01X1346560Y0365700D01*
G01X1343860Y0363000D02*
G01X1346560Y0365700D01*
G01X1338460Y0363000D02*
G01X1343860Y0363000D01*
G01X1335760Y0365700D02*
G01X1338460Y0363000D01*
G01X1355740Y0371100D02*
G01X1355740Y0354900D01*
G01X1353040Y0373800D02*
G01X1355740Y0371100D01*
G01X1355740Y0371100D02*
G01X1358440Y0373800D01*
G01X1358440Y0373800D02*
G01X1363840Y0373800D01*
G01X1363840Y0373800D02*
G01X1366540Y0371100D01*
G01X1366540Y0371100D02*
G01X1366540Y0365700D01*
G01X1363840Y0363000D02*
G01X1366540Y0365700D01*
G01X1358440Y0363000D02*
G01X1363840Y0363000D01*
G01X1355740Y0365700D02*
G01X1358440Y0363000D01*
G01X1375720Y0363000D02*
G01X1383820Y0363000D01*
G01X1373020Y0365700D02*
G01X1375720Y0363000D01*
G01X1373020Y0371100D02*
G01X1373020Y0365700D01*
G01X1373020Y0371100D02*
G01X1375720Y0373800D01*
G01X1375720Y0373800D02*
G01X1381120Y0373800D01*
G01X1381120Y0373800D02*
G01X1383820Y0371100D01*
G01X1373020Y0368400D02*
G01X1383820Y0368400D01*
G01X1383820Y0371100D02*
G01X1383820Y0368400D01*
G01X1393000Y0371100D02*
G01X1393000Y0363000D01*
G01X1393000Y0371100D02*
G01X1395700Y0373800D01*
G01X1395700Y0373800D02*
G01X1401100Y0373800D01*
G01X1390300Y0373800D02*
G01X1393000Y0371100D01*
G54D20*
G01X1681500Y0390600D02*
G01X1681500Y0380000D01*
G01X1678850Y0393250D02*
G01X1681500Y0390600D01*
G01X1672490Y0393250D02*
G01X1678850Y0393250D01*
G01X1669840Y0390600D02*
G01X1672490Y0393250D01*
G01X1669840Y0390600D02*
G01X1669840Y0382650D01*
G01X1660300Y0382650D02*
G01X1681500Y0382650D01*
G01X1660300Y0390600D02*
G01X1660300Y0380000D01*
G01X1660300Y0390600D02*
G01X1662950Y0393250D01*
G01X1662950Y0393250D02*
G01X1667190Y0393250D01*
G01X1667190Y0393250D02*
G01X1669840Y0390600D01*
G01X1660300Y0399610D02*
G01X1678850Y0399610D01*
G01X1678850Y0399610D02*
G01X1681500Y0402260D01*
G01X1670900Y0415510D02*
G01X1673550Y0418160D01*
G01X1670900Y0415510D02*
G01X1670900Y0410210D01*
G01X1670900Y0410210D02*
G01X1673550Y0407560D01*
G01X1673550Y0407560D02*
G01X1678850Y0407560D01*
G01X1678850Y0407560D02*
G01X1681500Y0410210D01*
G01X1670900Y0418160D02*
G01X1678850Y0418160D01*
G01X1678850Y0418160D02*
G01X1681500Y0420810D01*
G01X1681500Y0415510D02*
G01X1681500Y0410210D01*
G01X1678850Y0418160D02*
G01X1681500Y0415510D01*
G01X1670900Y0437770D02*
G01X1670900Y0429820D01*
G01X1670900Y0429820D02*
G01X1673550Y0427170D01*
G01X1673550Y0427170D02*
G01X1678850Y0427170D01*
G01X1678850Y0427170D02*
G01X1681500Y0429820D01*
G01X1681500Y0437770D02*
G01X1681500Y0429820D01*
G01X1660300Y0444130D02*
G01X1681500Y0444130D01*
G01X1673550Y0444130D02*
G01X1681500Y0452080D01*
G01X1668250Y0449430D02*
G01X1673550Y0444130D01*
G01X1670900Y0469040D02*
G01X1670900Y0458440D01*
G54D19*
G01X1630400Y0415790D02*
G01X1630400Y0405000D01*
G01X1630400Y0415790D02*
G01X1633100Y0418500D01*
G01X1633100Y0418500D02*
G01X1638500Y0418500D01*
G01X1638500Y0418500D02*
G01X1641200Y0415790D01*
G01X1641200Y0415790D02*
G01X1641200Y0407690D01*
G01X1630400Y0407690D02*
G01X1652000Y0407690D01*
G01X1641200Y0412020D02*
G01X1652000Y0418500D01*
G01X1652000Y0435770D02*
G01X1652000Y0427670D01*
G01X1649300Y0424980D02*
G01X1652000Y0427670D01*
G01X1643900Y0424980D02*
G01X1649300Y0424980D01*
G01X1641200Y0427670D02*
G01X1643900Y0424980D01*
G01X1641200Y0433080D02*
G01X1641200Y0427670D01*
G01X1641200Y0433080D02*
G01X1643900Y0435770D01*
G01X1646600Y0435770D02*
G01X1646600Y0424980D01*
G01X1643900Y0435770D02*
G01X1646600Y0435770D01*
G01X1630400Y0453060D02*
G01X1652000Y0453060D01*
G01X1649300Y0453060D02*
G01X1652000Y0450360D01*
G01X1652000Y0450360D02*
G01X1652000Y0444960D01*
G01X1649300Y0442260D02*
G01X1652000Y0444960D01*
G01X1643900Y0442260D02*
G01X1649300Y0442260D01*
G01X1641200Y0444960D02*
G01X1643900Y0442260D01*
G01X1641200Y0450360D02*
G01X1641200Y0444960D01*
G01X1641200Y0450360D02*
G01X1643900Y0453060D01*
G01X1641200Y0470340D02*
G01X1641200Y0459530D01*
G01X1635800Y0464940D02*
G01X1646600Y0464940D01*
G01X1543780Y0303000D02*
G01X1550800Y0303000D01*
G01X1540000Y0306780D02*
G01X1543780Y0303000D01*
G01X1540000Y0320820D02*
G01X1540000Y0306780D01*
G01X1540000Y0320820D02*
G01X1543780Y0324600D01*
G01X1543780Y0324600D02*
G01X1550800Y0324600D01*
G01X1557270Y0311090D02*
G01X1557270Y0305700D01*
G01X1557270Y0311090D02*
G01X1559980Y0313800D01*
G01X1559980Y0313800D02*
G01X1565370Y0313800D01*
G01X1565370Y0313800D02*
G01X1568080Y0311090D01*
G01X1568080Y0311090D02*
G01X1568080Y0305700D01*
G01X1565370Y0303000D02*
G01X1568080Y0305700D01*
G01X1559980Y0303000D02*
G01X1565370Y0303000D01*
G01X1557270Y0305700D02*
G01X1559980Y0303000D01*
G01X1574560Y0311090D02*
G01X1574560Y0305700D01*
G01X1574560Y0311090D02*
G01X1577250Y0313800D01*
G01X1577250Y0313800D02*
G01X1582660Y0313800D01*
G01X1582660Y0313800D02*
G01X1585360Y0311090D01*
G01X1585360Y0311090D02*
G01X1585360Y0305700D01*
G01X1582660Y0303000D02*
G01X1585360Y0305700D01*
G01X1577250Y0303000D02*
G01X1582660Y0303000D01*
G01X1574560Y0305700D02*
G01X1577250Y0303000D01*
G01X1591840Y0324600D02*
G01X1591840Y0305700D01*
G01X1591840Y0305700D02*
G01X1594540Y0303000D01*
G54D16*
G01X1599940Y0319200D02*
G01X1599940Y0318660D01*
G54D19*
G01X1599940Y0311090D02*
G01X1599940Y0303000D01*
G01X1608040Y0311090D02*
G01X1608040Y0303000D01*
G01X1608040Y0311090D02*
G01X1610740Y0313800D01*
G01X1610740Y0313800D02*
G01X1613440Y0313800D01*
G01X1613440Y0313800D02*
G01X1616140Y0311090D01*
G01X1616140Y0311090D02*
G01X1616140Y0303000D01*
G01X1605340Y0313800D02*
G01X1608040Y0311090D01*
G01X1630720Y0313800D02*
G01X1633420Y0311090D01*
G01X1625320Y0313800D02*
G01X1630720Y0313800D01*
G01X1622620Y0311090D02*
G01X1625320Y0313800D01*
G01X1622620Y0311090D02*
G01X1622620Y0305700D01*
G01X1622620Y0305700D02*
G01X1625320Y0303000D01*
G01X1625320Y0303000D02*
G01X1630720Y0303000D01*
G01X1630720Y0303000D02*
G01X1633420Y0305700D01*
G01X1622620Y0297600D02*
G01X1625320Y0294900D01*
G01X1625320Y0294900D02*
G01X1630720Y0294900D01*
G01X1630720Y0294900D02*
G01X1633420Y0297600D01*
G01X1633420Y0313800D02*
G01X1633420Y0297600D01*
G54D11*
G01X0650000Y2050000D02*
G01X1650000Y2050000D01*
G01X0650000Y2050000D02*
G01X0650000Y1850000D01*
G01X0650000Y1850000D02*
G01X1650000Y1850000D01*
G01X1650000Y2050000D02*
G01X1650000Y1850000D01*
G01X1550000Y2050000D02*
G01X1550000Y1950000D01*
G01X1550000Y1950000D02*
G01X1650000Y1950000D01*
G54D12*
G01X0358000Y0418000D02*
G01X0358000Y0363000D01*
G01X0358000Y0363000D02*
G01X0373000Y0363000D01*
G01X0373000Y0418000D02*
G01X0373000Y0403000D01*
G01X0373000Y0383000D02*
G01X0383000Y0393000D01*
G01X0373000Y0383000D02*
G01X0373000Y0363000D01*
G01X0313000Y0393000D02*
G01X0358000Y0393000D01*
G01X0358000Y0418000D02*
G01X0373000Y0418000D01*
G54D19*
G01X0338400Y0433180D02*
G01X0360000Y0433180D01*
G01X0338400Y0441280D02*
G01X0338400Y0430480D01*
G01X0338400Y0441280D02*
G01X0341100Y0443980D01*
G01X0341100Y0443980D02*
G01X0346500Y0443980D01*
G01X0349200Y0441280D02*
G01X0346500Y0443980D01*
G01X0349200Y0441280D02*
G01X0349200Y0433180D01*
G01X0351900Y0453160D02*
G01X0360000Y0453160D01*
G01X0351900Y0453160D02*
G01X0349200Y0455860D01*
G01X0349200Y0461260D02*
G01X0349200Y0455860D01*
G01X0349200Y0450460D02*
G01X0351900Y0453160D01*
G01X0351900Y0467740D02*
G01X0357300Y0467740D01*
G01X0351900Y0467740D02*
G01X0349200Y0470440D01*
G01X0349200Y0475840D02*
G01X0349200Y0470440D01*
G01X0349200Y0475840D02*
G01X0351900Y0478540D01*
G01X0351900Y0478540D02*
G01X0357300Y0478540D01*
G01X0360000Y0475840D02*
G01X0357300Y0478540D01*
G01X0360000Y0475840D02*
G01X0360000Y0470440D01*
G01X0357300Y0467740D02*
G01X0360000Y0470440D01*
G01X0338400Y0485020D02*
G01X0360000Y0485020D01*
G01X0357300Y0485020D02*
G01X0360000Y0487720D01*
G01X0360000Y0493120D02*
G01X0360000Y0487720D01*
G01X0360000Y0493120D02*
G01X0357300Y0495820D01*
G01X0351900Y0495820D02*
G01X0357300Y0495820D01*
G01X0349200Y0493120D02*
G01X0351900Y0495820D01*
G01X0349200Y0493120D02*
G01X0349200Y0487720D01*
G01X0351900Y0485020D02*
G01X0349200Y0487720D01*
G01X0360000Y0513100D02*
G01X0360000Y0505000D01*
G01X0357300Y0502300D02*
G01X0360000Y0505000D01*
G01X0351900Y0502300D02*
G01X0357300Y0502300D01*
G01X0351900Y0502300D02*
G01X0349200Y0505000D01*
G01X0349200Y0510400D02*
G01X0349200Y0505000D01*
G01X0349200Y0510400D02*
G01X0351900Y0513100D01*
G01X0354600Y0513100D02*
G01X0354600Y0502300D01*
G01X0351900Y0513100D02*
G01X0354600Y0513100D01*
G54D12*
G01X0370000Y0515000D02*
G01X0370000Y0418000D01*
G54D20*
G01X0373850Y0554610D02*
G01X0376500Y0557250D01*
G01X0376500Y0562560D02*
G01X0376500Y0557250D01*
G01X0373850Y0565210D02*
G01X0376500Y0562560D01*
G01X0357950Y0565210D02*
G01X0373850Y0565210D01*
G01X0355300Y0562560D02*
G01X0357950Y0565210D01*
G01X0355300Y0562560D02*
G01X0355300Y0557250D01*
G01X0355300Y0557250D02*
G01X0357950Y0554610D01*
G01X0357950Y0554610D02*
G01X0373850Y0554610D01*
G01X0355300Y0548250D02*
G01X0376500Y0548250D01*
G01X0355300Y0535000D02*
G01X0376500Y0548250D01*
G01X0355300Y0535000D02*
G01X0376500Y0535000D01*
G01X0320300Y0560600D02*
G01X0320300Y0553700D01*
G01X0320300Y0553700D02*
G01X0324010Y0550000D01*
G01X0324010Y0550000D02*
G01X0337790Y0550000D01*
G01X0337790Y0550000D02*
G01X0341500Y0553700D01*
G01X0341500Y0560600D02*
G01X0341500Y0553700D01*
G54D19*
G01X0385400Y0565780D02*
G01X0385400Y0558750D01*
G01X0385400Y0558750D02*
G01X0389180Y0554980D01*
G01X0389180Y0554980D02*
G01X0403220Y0554980D01*
G01X0403220Y0554980D02*
G01X0407000Y0558750D01*
G01X0407000Y0565780D02*
G01X0407000Y0558750D01*
G01X0385400Y0548500D02*
G01X0407000Y0548500D01*
G01X0385400Y0535000D02*
G01X0407000Y0548500D01*
G01X0385400Y0535000D02*
G01X0407000Y0535000D01*
G54D12*
G01X0395000Y0605000D02*
G01X0395000Y0575000D01*
G01X0335000Y0605000D02*
G01X0335000Y0575000D01*
G01X0365000Y0605000D02*
G01X0365000Y0575000D01*
G01X0335000Y0575000D02*
G01X0420000Y0575000D01*
G01X0420000Y0575000D02*
G01X0420000Y0515000D01*
G01X0370000Y0515000D02*
G01X0420000Y0515000D01*
G01X0300000Y0340000D02*
G01X0440000Y0340000D01*
G01X0440000Y0650000D02*
G01X0440000Y0340000D01*
G01X0300000Y0650000D02*
G01X0440000Y0650000D01*
G01X0300000Y0650000D02*
G01X0300000Y0340000D01*
G01X0503000Y0418000D02*
G01X0503000Y0363000D01*
G01X0503000Y0363000D02*
G01X0518000Y0363000D01*
G01X0518000Y0418000D02*
G01X0518000Y0403000D01*
G01X0518000Y0383000D02*
G01X0528000Y0393000D01*
G01X0518000Y0383000D02*
G01X0518000Y0363000D01*
G01X0458000Y0393000D02*
G01X0503000Y0393000D01*
G01X0503000Y0418000D02*
G01X0518000Y0418000D01*
G54D19*
G01X0483400Y0433180D02*
G01X0505000Y0433180D01*
G01X0483400Y0441280D02*
G01X0483400Y0430480D01*
G01X0483400Y0441280D02*
G01X0486100Y0443980D01*
G01X0486100Y0443980D02*
G01X0491500Y0443980D01*
G01X0494200Y0441280D02*
G01X0491500Y0443980D01*
G01X0494200Y0441280D02*
G01X0494200Y0433180D01*
G01X0496900Y0453160D02*
G01X0505000Y0453160D01*
G01X0496900Y0453160D02*
G01X0494200Y0455860D01*
G01X0494200Y0461260D02*
G01X0494200Y0455860D01*
G01X0494200Y0450460D02*
G01X0496900Y0453160D01*
G01X0496900Y0467740D02*
G01X0502300Y0467740D01*
G01X0496900Y0467740D02*
G01X0494200Y0470440D01*
G01X0494200Y0475840D02*
G01X0494200Y0470440D01*
G01X0494200Y0475840D02*
G01X0496900Y0478540D01*
G01X0496900Y0478540D02*
G01X0502300Y0478540D01*
G01X0505000Y0475840D02*
G01X0502300Y0478540D01*
G01X0505000Y0475840D02*
G01X0505000Y0470440D01*
G01X0502300Y0467740D02*
G01X0505000Y0470440D01*
G01X0483400Y0485020D02*
G01X0505000Y0485020D01*
G01X0502300Y0485020D02*
G01X0505000Y0487720D01*
G01X0505000Y0493120D02*
G01X0505000Y0487720D01*
G01X0505000Y0493120D02*
G01X0502300Y0495820D01*
G01X0496900Y0495820D02*
G01X0502300Y0495820D01*
G01X0494200Y0493120D02*
G01X0496900Y0495820D01*
G01X0494200Y0493120D02*
G01X0494200Y0487720D01*
G01X0496900Y0485020D02*
G01X0494200Y0487720D01*
G01X0505000Y0513100D02*
G01X0505000Y0505000D01*
G01X0502300Y0502300D02*
G01X0505000Y0505000D01*
G01X0496900Y0502300D02*
G01X0502300Y0502300D01*
G01X0496900Y0502300D02*
G01X0494200Y0505000D01*
G01X0494200Y0510400D02*
G01X0494200Y0505000D01*
G01X0494200Y0510400D02*
G01X0496900Y0513100D01*
G01X0499600Y0513100D02*
G01X0499600Y0502300D01*
G01X0496900Y0513100D02*
G01X0499600Y0513100D01*
G54D12*
G01X0515000Y0515000D02*
G01X0515000Y0418000D01*
G54D20*
G01X0518850Y0554610D02*
G01X0521500Y0557250D01*
G01X0521500Y0562560D02*
G01X0521500Y0557250D01*
G01X0518850Y0565210D02*
G01X0521500Y0562560D01*
G01X0502950Y0565210D02*
G01X0518850Y0565210D01*
G01X0500300Y0562560D02*
G01X0502950Y0565210D01*
G01X0500300Y0562560D02*
G01X0500300Y0557250D01*
G01X0500300Y0557250D02*
G01X0502950Y0554610D01*
G01X0502950Y0554610D02*
G01X0518850Y0554610D01*
G01X0500300Y0548250D02*
G01X0521500Y0548250D01*
G01X0500300Y0535000D02*
G01X0521500Y0548250D01*
G01X0500300Y0535000D02*
G01X0521500Y0535000D01*
G01X0465300Y0560600D02*
G01X0465300Y0553700D01*
G01X0465300Y0553700D02*
G01X0469010Y0550000D01*
G01X0469010Y0550000D02*
G01X0482790Y0550000D01*
G01X0482790Y0550000D02*
G01X0486500Y0553700D01*
G01X0486500Y0560600D02*
G01X0486500Y0553700D01*
G54D19*
G01X0530400Y0565780D02*
G01X0530400Y0558750D01*
G01X0530400Y0558750D02*
G01X0534180Y0554980D01*
G01X0534180Y0554980D02*
G01X0548220Y0554980D01*
G01X0548220Y0554980D02*
G01X0552000Y0558750D01*
G01X0552000Y0565780D02*
G01X0552000Y0558750D01*
G01X0530400Y0548500D02*
G01X0552000Y0548500D01*
G01X0530400Y0535000D02*
G01X0552000Y0548500D01*
G01X0530400Y0535000D02*
G01X0552000Y0535000D01*
G54D12*
G01X0540000Y0605000D02*
G01X0540000Y0575000D01*
G01X0480000Y0605000D02*
G01X0480000Y0575000D01*
G01X0510000Y0605000D02*
G01X0510000Y0575000D01*
G01X0480000Y0575000D02*
G01X0565000Y0575000D01*
G01X0565000Y0575000D02*
G01X0565000Y0515000D01*
G01X0515000Y0515000D02*
G01X0565000Y0515000D01*
G01X0445000Y0340000D02*
G01X0585000Y0340000D01*
G01X0585000Y0650000D02*
G01X0585000Y0340000D01*
G01X0445000Y0650000D02*
G01X0585000Y0650000D01*
G01X0445000Y0650000D02*
G01X0445000Y0340000D01*
G01X0668000Y0418000D02*
G01X0668000Y0363000D01*
G01X0668000Y0363000D02*
G01X0683000Y0363000D01*
G01X0683000Y0418000D02*
G01X0683000Y0403000D01*
G01X0683000Y0383000D02*
G01X0693000Y0393000D01*
G01X0683000Y0383000D02*
G01X0683000Y0363000D01*
G01X0623000Y0393000D02*
G01X0668000Y0393000D01*
G01X0668000Y0418000D02*
G01X0683000Y0418000D01*
G54D19*
G01X0648400Y0433180D02*
G01X0670000Y0433180D01*
G01X0648400Y0441280D02*
G01X0648400Y0430480D01*
G01X0648400Y0441280D02*
G01X0651100Y0443980D01*
G01X0651100Y0443980D02*
G01X0656500Y0443980D01*
G01X0659200Y0441280D02*
G01X0656500Y0443980D01*
G01X0659200Y0441280D02*
G01X0659200Y0433180D01*
G01X0661900Y0453160D02*
G01X0670000Y0453160D01*
G01X0661900Y0453160D02*
G01X0659200Y0455860D01*
G01X0659200Y0461260D02*
G01X0659200Y0455860D01*
G01X0659200Y0450460D02*
G01X0661900Y0453160D01*
G01X0661900Y0467740D02*
G01X0667300Y0467740D01*
G01X0661900Y0467740D02*
G01X0659200Y0470440D01*
G01X0659200Y0475840D02*
G01X0659200Y0470440D01*
G01X0659200Y0475840D02*
G01X0661900Y0478540D01*
G01X0661900Y0478540D02*
G01X0667300Y0478540D01*
G01X0670000Y0475840D02*
G01X0667300Y0478540D01*
G01X0670000Y0475840D02*
G01X0670000Y0470440D01*
G01X0667300Y0467740D02*
G01X0670000Y0470440D01*
G01X0648400Y0485020D02*
G01X0670000Y0485020D01*
G01X0667300Y0485020D02*
G01X0670000Y0487720D01*
G01X0670000Y0493120D02*
G01X0670000Y0487720D01*
G01X0670000Y0493120D02*
G01X0667300Y0495820D01*
G01X0661900Y0495820D02*
G01X0667300Y0495820D01*
G01X0659200Y0493120D02*
G01X0661900Y0495820D01*
G01X0659200Y0493120D02*
G01X0659200Y0487720D01*
G01X0661900Y0485020D02*
G01X0659200Y0487720D01*
G01X0670000Y0513100D02*
G01X0670000Y0505000D01*
G01X0667300Y0502300D02*
G01X0670000Y0505000D01*
G01X0661900Y0502300D02*
G01X0667300Y0502300D01*
G01X0661900Y0502300D02*
G01X0659200Y0505000D01*
G01X0659200Y0510400D02*
G01X0659200Y0505000D01*
G01X0659200Y0510400D02*
G01X0661900Y0513100D01*
G01X0664600Y0513100D02*
G01X0664600Y0502300D01*
G01X0661900Y0513100D02*
G01X0664600Y0513100D01*
G54D12*
G01X0680000Y0515000D02*
G01X0680000Y0418000D01*
G54D20*
G01X0683850Y0554610D02*
G01X0686500Y0557250D01*
G01X0686500Y0562560D02*
G01X0686500Y0557250D01*
G01X0683850Y0565210D02*
G01X0686500Y0562560D01*
G01X0667950Y0565210D02*
G01X0683850Y0565210D01*
G01X0665300Y0562560D02*
G01X0667950Y0565210D01*
G01X0665300Y0562560D02*
G01X0665300Y0557250D01*
G01X0665300Y0557250D02*
G01X0667950Y0554610D01*
G01X0667950Y0554610D02*
G01X0683850Y0554610D01*
G01X0665300Y0548250D02*
G01X0686500Y0548250D01*
G01X0665300Y0535000D02*
G01X0686500Y0548250D01*
G01X0665300Y0535000D02*
G01X0686500Y0535000D01*
G01X0630300Y0560600D02*
G01X0630300Y0553700D01*
G01X0630300Y0553700D02*
G01X0634010Y0550000D01*
G01X0634010Y0550000D02*
G01X0647790Y0550000D01*
G01X0647790Y0550000D02*
G01X0651500Y0553700D01*
G01X0651500Y0560600D02*
G01X0651500Y0553700D01*
G54D19*
G01X0695400Y0565780D02*
G01X0695400Y0558750D01*
G01X0695400Y0558750D02*
G01X0699180Y0554980D01*
G01X0699180Y0554980D02*
G01X0713220Y0554980D01*
G01X0713220Y0554980D02*
G01X0717000Y0558750D01*
G01X0717000Y0565780D02*
G01X0717000Y0558750D01*
G01X0695400Y0548500D02*
G01X0717000Y0548500D01*
G01X0695400Y0535000D02*
G01X0717000Y0548500D01*
G01X0695400Y0535000D02*
G01X0717000Y0535000D01*
G54D12*
G01X0705000Y0605000D02*
G01X0705000Y0575000D01*
G01X0645000Y0605000D02*
G01X0645000Y0575000D01*
G01X0675000Y0605000D02*
G01X0675000Y0575000D01*
G01X0645000Y0575000D02*
G01X0730000Y0575000D01*
G01X0730000Y0575000D02*
G01X0730000Y0515000D01*
G01X0680000Y0515000D02*
G01X0730000Y0515000D01*
G01X0610000Y0340000D02*
G01X0750000Y0340000D01*
G01X0750000Y0650000D02*
G01X0750000Y0340000D01*
G01X0610000Y0650000D02*
G01X0750000Y0650000D01*
G01X0610000Y0650000D02*
G01X0610000Y0340000D01*
G01X0813000Y0418000D02*
G01X0813000Y0363000D01*
G01X0813000Y0363000D02*
G01X0828000Y0363000D01*
G01X0828000Y0418000D02*
G01X0828000Y0403000D01*
G01X0828000Y0383000D02*
G01X0838000Y0393000D01*
G01X0828000Y0383000D02*
G01X0828000Y0363000D01*
G01X0768000Y0393000D02*
G01X0813000Y0393000D01*
G01X0813000Y0418000D02*
G01X0828000Y0418000D01*
G54D19*
G01X0793400Y0433180D02*
G01X0815000Y0433180D01*
G01X0793400Y0441280D02*
G01X0793400Y0430480D01*
G01X0793400Y0441280D02*
G01X0796100Y0443980D01*
G01X0796100Y0443980D02*
G01X0801500Y0443980D01*
G01X0804200Y0441280D02*
G01X0801500Y0443980D01*
G01X0804200Y0441280D02*
G01X0804200Y0433180D01*
G01X0806900Y0453160D02*
G01X0815000Y0453160D01*
G01X0806900Y0453160D02*
G01X0804200Y0455860D01*
G01X0804200Y0461260D02*
G01X0804200Y0455860D01*
G01X0804200Y0450460D02*
G01X0806900Y0453160D01*
G01X0806900Y0467740D02*
G01X0812300Y0467740D01*
G01X0806900Y0467740D02*
G01X0804200Y0470440D01*
G01X0804200Y0475840D02*
G01X0804200Y0470440D01*
G01X0804200Y0475840D02*
G01X0806900Y0478540D01*
G01X0806900Y0478540D02*
G01X0812300Y0478540D01*
G01X0815000Y0475840D02*
G01X0812300Y0478540D01*
G01X0815000Y0475840D02*
G01X0815000Y0470440D01*
G01X0812300Y0467740D02*
G01X0815000Y0470440D01*
G01X0793400Y0485020D02*
G01X0815000Y0485020D01*
G01X0812300Y0485020D02*
G01X0815000Y0487720D01*
G01X0815000Y0493120D02*
G01X0815000Y0487720D01*
G01X0815000Y0493120D02*
G01X0812300Y0495820D01*
G01X0806900Y0495820D02*
G01X0812300Y0495820D01*
G01X0804200Y0493120D02*
G01X0806900Y0495820D01*
G01X0804200Y0493120D02*
G01X0804200Y0487720D01*
G01X0806900Y0485020D02*
G01X0804200Y0487720D01*
G01X0815000Y0513100D02*
G01X0815000Y0505000D01*
G01X0812300Y0502300D02*
G01X0815000Y0505000D01*
G01X0806900Y0502300D02*
G01X0812300Y0502300D01*
G01X0806900Y0502300D02*
G01X0804200Y0505000D01*
G01X0804200Y0510400D02*
G01X0804200Y0505000D01*
G01X0804200Y0510400D02*
G01X0806900Y0513100D01*
G01X0809600Y0513100D02*
G01X0809600Y0502300D01*
G01X0806900Y0513100D02*
G01X0809600Y0513100D01*
G54D12*
G01X0825000Y0515000D02*
G01X0825000Y0418000D01*
G54D20*
G01X0828850Y0554610D02*
G01X0831500Y0557250D01*
G01X0831500Y0562560D02*
G01X0831500Y0557250D01*
G01X0828850Y0565210D02*
G01X0831500Y0562560D01*
G01X0812950Y0565210D02*
G01X0828850Y0565210D01*
G01X0810300Y0562560D02*
G01X0812950Y0565210D01*
G01X0810300Y0562560D02*
G01X0810300Y0557250D01*
G01X0810300Y0557250D02*
G01X0812950Y0554610D01*
G01X0812950Y0554610D02*
G01X0828850Y0554610D01*
G01X0810300Y0548250D02*
G01X0831500Y0548250D01*
G01X0810300Y0535000D02*
G01X0831500Y0548250D01*
G01X0810300Y0535000D02*
G01X0831500Y0535000D01*
G01X0775300Y0560600D02*
G01X0775300Y0553700D01*
G01X0775300Y0553700D02*
G01X0779010Y0550000D01*
G01X0779010Y0550000D02*
G01X0792790Y0550000D01*
G01X0792790Y0550000D02*
G01X0796500Y0553700D01*
G01X0796500Y0560600D02*
G01X0796500Y0553700D01*
G54D19*
G01X0840400Y0565780D02*
G01X0840400Y0558750D01*
G01X0840400Y0558750D02*
G01X0844180Y0554980D01*
G01X0844180Y0554980D02*
G01X0858220Y0554980D01*
G01X0858220Y0554980D02*
G01X0862000Y0558750D01*
G01X0862000Y0565780D02*
G01X0862000Y0558750D01*
G01X0840400Y0548500D02*
G01X0862000Y0548500D01*
G01X0840400Y0535000D02*
G01X0862000Y0548500D01*
G01X0840400Y0535000D02*
G01X0862000Y0535000D01*
G54D12*
G01X0850000Y0605000D02*
G01X0850000Y0575000D01*
G01X0790000Y0605000D02*
G01X0790000Y0575000D01*
G01X0820000Y0605000D02*
G01X0820000Y0575000D01*
G01X0790000Y0575000D02*
G01X0875000Y0575000D01*
G01X0875000Y0575000D02*
G01X0875000Y0515000D01*
G01X0825000Y0515000D02*
G01X0875000Y0515000D01*
G01X0755000Y0340000D02*
G01X0895000Y0340000D01*
G01X0895000Y0650000D02*
G01X0895000Y0340000D01*
G01X0755000Y0650000D02*
G01X0895000Y0650000D01*
G01X0755000Y0650000D02*
G01X0755000Y0340000D01*
G01X0000000Y0000000D02*
G01X0000000Y2300000D02*
G01X1900000Y2300000D01*
G01X1900000Y2300000D02*
G01X1900000Y0100000D01*
G01X1900000Y0100000D02*
G01X0000000Y0100000D01*
G01X0000000Y0100000D02*
G01X0000000Y2300000D01*
G01X0000000Y0000000D02*
G54D21*
G01X1240000Y0525000D03*
G01X1090000Y0525000D03*
G01X1120000Y0525000D03*
G01X1150000Y0525000D03*
G01X1270000Y0525000D03*
G01X1215000Y0545000D03*
G01X0990000Y0625000D03*
G01X1020000Y0625000D03*
G01X1050000Y0625000D03*
G01X1340000Y0630000D03*
G01X1370000Y0630000D03*
G01X1295000Y0545000D03*
G01X1499990Y0530000D03*
G01X1530000Y0530000D03*
G01X1450000Y0565000D03*
G01X1480000Y0565000D03*
G01X1645000Y0525000D03*
G01X1675000Y0525000D03*
G54D10*
G36*
G01X1567000Y2033000D02*
G01X1567000Y1967000D01*
G01X1633000Y1967000D01*
G01X1633000Y2033000D01*
G01X1567000Y2033000D01*
G37*
G54D22*
G01X1500000Y2000000D03*
G01X1400000Y2000000D03*
G01X1600000Y1900000D03*
G01X1500000Y1900000D03*
G01X1400000Y1900000D03*
G01X1300000Y1900000D03*
G01X1200000Y1900000D03*
G01X1100000Y1900000D03*
G01X1300000Y2000000D03*
G01X1200000Y2000000D03*
G01X1100000Y2000000D03*
G01X1000000Y2000000D03*
G01X1000000Y1900000D03*
G01X0900000Y2000000D03*
G01X0800000Y2000000D03*
G01X0700000Y2000000D03*
G01X0900000Y1900000D03*
G01X0800000Y1900000D03*
G01X0700000Y1900000D03*
G54D21*
G01X0395000Y0625000D03*
G01X0540000Y0625000D03*
G01X0510000Y0625000D03*
G01X0480000Y0625000D03*
G01X0365000Y0625000D03*
G01X0335000Y0625000D03*
G01X0705000Y0625000D03*
G01X0675000Y0625000D03*
G01X0645000Y0625000D03*
G01X0850000Y0625000D03*
G01X0820000Y0625000D03*
G01X0790000Y0625000D03*
G01X0000000Y0000000D02*
G54D11*
G01X0320000Y1125000D03*
G01X0335000Y0625000D03*
G01X0350000Y1095000D03*
G01X0365000Y0625000D03*
G01X0380000Y1060000D03*
G01X0395000Y0625000D03*
G01X0460000Y1125000D03*
G01X0480000Y0625000D03*
G01X0490000Y1095000D03*
G01X0510000Y0625000D03*
G01X0540000Y1150000D03*
G01X0540000Y0625000D03*
G01X0570000Y1170000D03*
G01X0570000Y1060000D03*
G01X0645000Y0625000D03*
G01X0675000Y0625000D03*
G01X0700000Y1090000D03*
G01X0705000Y0625000D03*
G01X0730000Y1115000D03*
G01X0760000Y1060000D03*
G01X0790000Y0625000D03*
G01X0820000Y0625000D03*
G01X0850000Y0625000D03*
G01X0990000Y0625000D03*
G01X1020000Y0625000D03*
G01X1050000Y0625000D03*
G01X1090000Y0525000D03*
G01X1120000Y0525000D03*
G01X1150000Y0525000D03*
G01X1215000Y0545000D03*
G01X1240000Y0525000D03*
G01X1270000Y0525000D03*
G01X1295000Y0545000D03*
G01X1340000Y0630000D03*
G01X1370000Y0630000D03*
G01X1450000Y0565000D03*
G01X1480000Y0565000D03*
G01X1500000Y0530000D03*
G01X1530000Y0530000D03*
G01X1645000Y0525000D03*
G01X1675000Y0525000D03*
G54D23*
G01X0700000Y2000000D03*
G01X0700000Y1900000D03*
G01X0800000Y2000000D03*
G01X0800000Y1900000D03*
G01X0900000Y2000000D03*
G01X0900000Y1900000D03*
G01X1000000Y2000000D03*
G01X1000000Y1900000D03*
G01X1100000Y2000000D03*
G01X1100000Y1900000D03*
G01X1200000Y2000000D03*
G01X1200000Y1900000D03*
G01X1300000Y2000000D03*
G01X1300000Y1900000D03*
G01X1400000Y2000000D03*
G01X1400000Y1900000D03*
G01X1500000Y2000000D03*
G01X1500000Y1900000D03*
G01X1600000Y2000000D03*
G01X1600000Y1900000D03*
M02*
