G04 start of page 2 for group 0 idx 0 *
G04 Title: (unknown), P1_W1 *
G04 Creator: pcb 4.2.0 *
G04 CreationDate: Sun Aug 30 21:45:36 2020 UTC *
G04 For: commonadmin *
G04 Format: Gerber/RS-274X *
G04 PCB-Dimensions (mil): 11000.00 7000.00 *
G04 PCB-Coordinate-Origin: lower left *
%MOIN*%
%FSLAX25Y25*%
%LNTOP*%
%ADD27C,0.0197*%
%ADD26C,0.0295*%
%ADD25C,0.0787*%
%ADD24C,0.0354*%
%ADD23C,0.0492*%
%ADD22C,0.0100*%
%ADD21C,0.0200*%
%ADD20C,0.0394*%
%ADD19C,0.0472*%
%ADD18C,0.0945*%
%ADD17C,0.0512*%
%ADD16C,0.1102*%
%ADD15C,0.0669*%
%ADD14C,0.0160*%
%ADD13C,0.0140*%
%ADD12C,0.0060*%
%ADD11C,0.0250*%
G54D11*X60039Y656457D02*X52008D01*
X54512Y663543D02*X51969Y661000D01*
X56024Y663543D02*X54512D01*
G54D12*X35945Y645000D02*Y656457D01*
X63469Y637555D02*X63504Y637520D01*
X63469Y646000D02*Y637555D01*
X69969Y652500D02*X63469Y646000D01*
X35945Y645000D02*X28465Y637520D01*
X75469Y667000D02*X67469D01*
X78469Y664000D02*X75469Y667000D01*
X63469Y671000D02*X67469Y667000D01*
X73969Y652500D02*X69969D01*
X78469Y657000D02*X73969Y652500D01*
X78469Y664000D02*Y657000D01*
X52969Y671000D02*X63469D01*
X49469Y667500D02*X52969Y671000D01*
X45469Y667500D02*X49469D01*
X44969Y667000D02*X45469Y667500D01*
X43469Y667000D02*X44969D01*
X43469D02*X43969D01*
G54D11*X49969Y616524D02*X49925Y616480D01*
X49969Y624500D02*Y616524D01*
X52008Y626539D02*X49969Y624500D01*
X52008Y656457D02*Y626539D01*
G54D13*X51969Y660500D02*X50469D01*
X49469Y659500D02*X51469Y661500D01*
G54D11*X47969Y628500D02*X45969Y626500D01*
X47969Y654500D02*Y628500D01*
G54D14*Y658000D02*Y652500D01*
G54D13*Y659500D02*X49469D01*
G54D14*X43969Y660500D02*X44469D01*
X47969Y659500D02*X46969D01*
G54D11*X47969Y659000D02*Y658500D01*
G54D13*X45984Y659984D02*X47969Y658000D01*
X45984Y660000D02*Y659984D01*
X44984Y661000D02*X45984Y660000D01*
X43969Y661000D02*X44984D01*
G54D11*X41425Y663543D02*X43969Y661000D01*
X39961Y663543D02*X41425D01*
X33969Y616524D02*X33925Y616480D01*
X33969Y625000D02*Y616524D01*
X35469Y626500D02*X33969Y625000D01*
X45969Y626500D02*X35469D01*
G54D12*X70563Y640500D02*X73543Y637520D01*
X65969Y640500D02*X70563D01*
X64969Y641500D02*X65969Y640500D01*
X64969Y645500D02*Y641500D01*
X70469Y651000D02*X64969Y645500D01*
X74469Y651000D02*X70469D01*
X79969Y656500D02*X74469Y651000D01*
X79969Y664500D02*Y656500D01*
X75969Y668500D02*X79969Y664500D01*
X67969Y668500D02*X75969D01*
X63969Y672500D02*X67969Y668500D01*
X44969Y672500D02*X63969D01*
X34469Y652500D02*Y645500D01*
X27969Y659000D02*X34469Y652500D01*
X27969Y668500D02*Y659000D01*
X32469Y673000D02*X27969Y668500D01*
X41469Y673000D02*X32469D01*
X43969Y675500D02*X41469Y673000D01*
X43969Y673500D02*Y676000D01*
X44969Y672500D02*X43969Y673500D01*
Y676000D02*Y675500D01*
G54D11*X43976Y656457D02*Y631008D01*
Y656457D02*X43925D01*
G54D12*X36469Y662000D02*Y671000D01*
X42012Y656457D02*X36469Y662000D01*
X43976Y656457D02*X42012D01*
G54D11*X42969Y630000D02*X33469D01*
X43976Y631008D02*X42969Y630000D01*
G54D12*X22406Y641500D02*X18425Y637520D01*
X30469Y641500D02*X22406D01*
X34469Y645500D02*X30469Y641500D01*
G54D11*X17969Y622000D02*Y614024D01*
X20469Y624500D02*X17969Y622000D01*
X27969Y624500D02*X20469D01*
X33469Y630000D02*X27969Y624500D01*
X17969Y614024D02*X17925Y613980D01*
X55469Y651000D02*Y627500D01*
X56469Y652000D02*X55469Y651000D01*
X65969Y614024D02*X65925Y613980D01*
X65969Y624500D02*Y614024D01*
X64469Y626000D02*X65969Y624500D01*
X56969Y626000D02*X64469D01*
X55469Y627500D02*X56969Y626000D01*
X62969Y652000D02*X56469D01*
X64469Y653500D02*X62969Y652000D01*
X64469Y665000D02*Y653500D01*
X60969Y668500D02*X64469Y665000D01*
X54469Y668500D02*X60969D01*
X49512Y663543D02*X54469Y668500D01*
X47992Y663543D02*X49512D01*
G54D15*X33925Y616480D03*
X20787Y673504D03*
G54D16*X20000Y660000D03*
G54D17*X31929Y663543D03*
X18425Y637520D03*
X28465D03*
X63504D03*
X73543D03*
G54D15*X71181Y673504D03*
G54D16*X71969Y660000D03*
G54D17*X47992Y663543D03*
X56024D03*
X39961D03*
X43976Y656457D03*
X35945D03*
X52008D03*
X60039D03*
G54D18*X69469Y606500D03*
G54D15*X65925Y613980D03*
G54D19*X71831Y613587D03*
G54D18*X53469Y609000D03*
G54D15*X49925Y616480D03*
G54D19*X55831Y616087D03*
G54D20*X59374Y612937D03*
X75374Y610437D03*
G54D18*X37469Y609000D03*
X21469Y606500D03*
G54D15*X17925Y613980D03*
G54D19*X23831Y613587D03*
G54D20*X27374Y610437D03*
G54D19*X39831Y616087D03*
G54D20*X43374Y612937D03*
G54D21*X43469Y667000D03*
X36469Y671000D03*
X43969Y676000D03*
G54D22*G54D23*G54D17*G54D18*G54D24*G54D17*G54D18*G54D24*G54D25*G54D23*G54D26*G54D25*G54D23*G54D26*G54D27*G54D25*G54D23*G54D26*G54D27*G54D26*G54D27*M02*
