G04 start of page 4 for group 2 idx 13 *
G04 Title: (unknown), jump *
G04 Creator: pcb 4.2.0 *
G04 CreationDate: Sun Sep  6 18:52:41 2020 UTC *
G04 For: commonadmin *
G04 Format: Gerber/RS-274X *
G04 PCB-Dimensions (mil): 1250.00 1500.00 *
G04 PCB-Coordinate-Origin: lower left *
%MOIN*%
%FSLAX25Y25*%
%LNBOTTOM*%
%ADD46C,0.0354*%
%ADD45C,0.0197*%
%ADD44C,0.0295*%
%ADD43C,0.0492*%
%ADD42C,0.0787*%
%ADD41C,0.0100*%
%ADD40C,0.0200*%
%ADD39C,0.1102*%
%ADD38C,0.0512*%
%ADD37C,0.0394*%
%ADD36C,0.0472*%
%ADD35C,0.0669*%
%ADD34C,0.0945*%
%ADD33C,0.0160*%
%ADD32C,0.0140*%
%ADD31C,0.0060*%
%ADD30C,0.0250*%
%ADD29C,0.0001*%
G54D29*G36*
X93019Y107504D02*X93046Y107300D01*
X93059Y107004D01*
X93046Y106708D01*
X93019Y106504D01*
Y107504D01*
G37*
G36*
Y98397D02*X93289Y98254D01*
X93698Y97989D01*
X93765Y97947D01*
X93838Y97918D01*
X93915Y97900D01*
X93993Y97895D01*
X94072Y97902D01*
X94148Y97921D01*
X94220Y97951D01*
X94287Y97993D01*
X94346Y98045D01*
X94397Y98105D01*
X94437Y98173D01*
X94467Y98246D01*
X94485Y98322D01*
X94490Y98401D01*
X94483Y98479D01*
X94464Y98556D01*
X94433Y98628D01*
X94391Y98695D01*
X94340Y98754D01*
X94279Y98803D01*
X93799Y99122D01*
X93289Y99391D01*
X93019Y99505D01*
Y104852D01*
X93117Y105000D01*
X93281Y105309D01*
X93417Y105632D01*
X93524Y105965D01*
X93601Y106307D01*
X93647Y106654D01*
X93663Y107004D01*
X93647Y107354D01*
X93601Y107701D01*
X93524Y108043D01*
X93417Y108376D01*
X93281Y108699D01*
X93117Y109008D01*
X93019Y109159D01*
Y123000D01*
X96531D01*
Y95956D01*
X96391Y96289D01*
X96122Y96799D01*
X95809Y97282D01*
X95758Y97344D01*
X95698Y97396D01*
X95630Y97438D01*
X95557Y97469D01*
X95480Y97488D01*
X95401Y97495D01*
X95322Y97490D01*
X95244Y97472D01*
X95170Y97442D01*
X95102Y97401D01*
X95041Y97350D01*
X94989Y97290D01*
X94947Y97223D01*
X94916Y97150D01*
X94896Y97072D01*
X94889Y96993D01*
X94895Y96914D01*
X94913Y96836D01*
X94942Y96763D01*
X94985Y96695D01*
X95254Y96289D01*
X95482Y95859D01*
X95671Y95409D01*
X95819Y94945D01*
X95926Y94470D01*
X95990Y93987D01*
X96012Y93500D01*
X95990Y93013D01*
X95926Y92530D01*
X95819Y92055D01*
X95671Y91591D01*
X95482Y91141D01*
X95254Y90711D01*
X94989Y90302D01*
X94947Y90235D01*
X94918Y90162D01*
X94900Y90085D01*
X94895Y90007D01*
X94902Y89928D01*
X94921Y89852D01*
X94951Y89780D01*
X94993Y89713D01*
X95045Y89654D01*
X95105Y89603D01*
X95173Y89563D01*
X95246Y89533D01*
X95322Y89515D01*
X95401Y89510D01*
X95479Y89517D01*
X95556Y89536D01*
X95628Y89567D01*
X95695Y89609D01*
X95754Y89660D01*
X95803Y89721D01*
X96122Y90201D01*
X96391Y90711D01*
X96531Y91044D01*
Y74307D01*
X93019Y77820D01*
Y87495D01*
X93289Y87609D01*
X93799Y87878D01*
X94282Y88191D01*
X94344Y88242D01*
X94396Y88302D01*
X94438Y88370D01*
X94469Y88443D01*
X94488Y88520D01*
X94495Y88599D01*
X94490Y88678D01*
X94472Y88756D01*
X94442Y88830D01*
X94401Y88898D01*
X94350Y88959D01*
X94290Y89011D01*
X94223Y89053D01*
X94150Y89084D01*
X94072Y89104D01*
X93993Y89111D01*
X93914Y89105D01*
X93836Y89087D01*
X93763Y89058D01*
X93695Y89015D01*
X93289Y88746D01*
X93019Y88603D01*
Y98397D01*
G37*
G36*
Y77820D02*X91013Y79826D01*
Y87005D01*
X91076Y87007D01*
X91647Y87084D01*
X92209Y87210D01*
X92758Y87385D01*
X93019Y87495D01*
Y77820D01*
G37*
G36*
Y99505D02*X92758Y99615D01*
X92209Y99790D01*
X91647Y99916D01*
X91076Y99993D01*
X91013Y99995D01*
Y103276D01*
X91085Y103300D01*
X91408Y103436D01*
X91717Y103600D01*
X92011Y103791D01*
X92047Y103821D01*
X92079Y103857D01*
X92104Y103898D01*
X92122Y103942D01*
X92134Y103988D01*
X92138Y104036D01*
X92135Y104083D01*
X92124Y104130D01*
X92106Y104174D01*
X92081Y104215D01*
X92051Y104251D01*
X92014Y104283D01*
X91974Y104308D01*
X91930Y104327D01*
X91884Y104338D01*
X91836Y104342D01*
X91789Y104339D01*
X91742Y104328D01*
X91698Y104310D01*
X91657Y104285D01*
X91411Y104120D01*
X91148Y103981D01*
X91013Y103924D01*
Y106953D01*
X91017Y107004D01*
X91001Y107208D01*
X91001Y107208D01*
X90964Y107359D01*
X90953Y107407D01*
X90920Y107485D01*
X90874Y107596D01*
X90833Y107664D01*
X90768Y107770D01*
X90767Y107771D01*
X90635Y107926D01*
X90596Y107959D01*
X89172Y109383D01*
X89139Y109422D01*
X88983Y109555D01*
X88983Y109555D01*
X88876Y109620D01*
X88809Y109662D01*
X88698Y109708D01*
X88620Y109740D01*
X88572Y109752D01*
X88421Y109788D01*
X88420Y109788D01*
X88217Y109804D01*
X88166Y109800D01*
X87883D01*
X88015Y109888D01*
X88277Y110027D01*
X88550Y110142D01*
X88833Y110233D01*
X89122Y110298D01*
X89416Y110337D01*
X89713Y110350D01*
X90009Y110337D01*
X90303Y110298D01*
X90593Y110233D01*
X90875Y110142D01*
X91148Y110027D01*
X91411Y109888D01*
X91659Y109726D01*
X91699Y109701D01*
X91743Y109683D01*
X91789Y109672D01*
X91836Y109669D01*
X91883Y109673D01*
X91929Y109684D01*
X91972Y109703D01*
X92013Y109728D01*
X92048Y109759D01*
X92079Y109795D01*
X92103Y109835D01*
X92121Y109879D01*
X92131Y109925D01*
X92135Y109972D01*
X92131Y110019D01*
X92119Y110065D01*
X92101Y110109D01*
X92076Y110149D01*
X92045Y110184D01*
X92008Y110214D01*
X91717Y110408D01*
X91408Y110572D01*
X91085Y110708D01*
X90751Y110815D01*
X90410Y110892D01*
X90063Y110939D01*
X89713Y110954D01*
X89363Y110939D01*
X89016Y110892D01*
X88674Y110815D01*
X88340Y110708D01*
X88018Y110572D01*
X87708Y110408D01*
X87415Y110217D01*
X87378Y110187D01*
X87347Y110151D01*
X87321Y110110D01*
X87303Y110066D01*
X87291Y110020D01*
X87287Y109972D01*
X87291Y109925D01*
X87301Y109878D01*
X87319Y109834D01*
X87340Y109800D01*
X70538D01*
X69300Y111038D01*
Y115949D01*
X69304Y116000D01*
X69288Y116204D01*
X69288Y116204D01*
X69252Y116355D01*
X69240Y116403D01*
X69208Y116481D01*
X69162Y116592D01*
X69120Y116660D01*
X69055Y116766D01*
X69055Y116767D01*
X68922Y116922D01*
X68883Y116955D01*
X67955Y117883D01*
X67922Y117922D01*
X67767Y118055D01*
X67766Y118055D01*
X67660Y118120D01*
X67592Y118162D01*
X67481Y118208D01*
X67403Y118240D01*
X67355Y118252D01*
X67204Y118288D01*
X67204Y118288D01*
X67000Y118304D01*
X66949Y118300D01*
X51551D01*
X51500Y118304D01*
X51296Y118288D01*
X51097Y118240D01*
X50908Y118162D01*
X50734Y118055D01*
X50733Y118055D01*
X50578Y117922D01*
X50545Y117883D01*
X49617Y116955D01*
X49578Y116922D01*
X49445Y116766D01*
X49338Y116592D01*
X49260Y116403D01*
X49212Y116204D01*
X49212Y116204D01*
X49196Y116000D01*
X49200Y115949D01*
Y111038D01*
X46465Y108304D01*
X43046D01*
X43023Y108376D01*
X42887Y108699D01*
X42723Y109008D01*
X42532Y109302D01*
X42502Y109339D01*
X42466Y109370D01*
X42425Y109395D01*
X42381Y109414D01*
X42335Y109425D01*
X42287Y109429D01*
X42240Y109426D01*
X42193Y109415D01*
X42149Y109397D01*
X42108Y109373D01*
X42071Y109342D01*
X42040Y109306D01*
X42015Y109265D01*
X41996Y109221D01*
X41985Y109175D01*
X41981Y109127D01*
X41984Y109080D01*
X41995Y109033D01*
X42013Y108989D01*
X42038Y108949D01*
X42203Y108702D01*
X42342Y108440D01*
X42399Y108304D01*
X39370D01*
X39319Y108308D01*
X39317Y108308D01*
Y110350D01*
X39319Y110350D01*
X39615Y110337D01*
X39909Y110298D01*
X40199Y110233D01*
X40481Y110142D01*
X40755Y110027D01*
X41017Y109888D01*
X41266Y109726D01*
X41306Y109701D01*
X41349Y109683D01*
X41395Y109672D01*
X41442Y109669D01*
X41489Y109673D01*
X41535Y109684D01*
X41579Y109703D01*
X41619Y109728D01*
X41655Y109759D01*
X41685Y109795D01*
X41709Y109835D01*
X41727Y109879D01*
X41738Y109925D01*
X41741Y109972D01*
X41737Y110019D01*
X41726Y110065D01*
X41707Y110109D01*
X41682Y110149D01*
X41651Y110184D01*
X41615Y110214D01*
X41323Y110408D01*
X41014Y110572D01*
X40691Y110708D01*
X40358Y110815D01*
X40016Y110892D01*
X39669Y110939D01*
X39319Y110954D01*
X39317Y110954D01*
Y123000D01*
X93019D01*
Y109159D01*
X92926Y109302D01*
X92895Y109339D01*
X92859Y109370D01*
X92819Y109395D01*
X92775Y109414D01*
X92728Y109425D01*
X92681Y109429D01*
X92633Y109426D01*
X92587Y109415D01*
X92542Y109397D01*
X92502Y109373D01*
X92465Y109342D01*
X92434Y109306D01*
X92409Y109265D01*
X92390Y109221D01*
X92378Y109175D01*
X92374Y109127D01*
X92378Y109080D01*
X92389Y109033D01*
X92406Y108989D01*
X92432Y108949D01*
X92596Y108702D01*
X92735Y108440D01*
X92851Y108166D01*
X92941Y107884D01*
X93007Y107594D01*
X93019Y107504D01*
Y106504D01*
X93007Y106413D01*
X92941Y106124D01*
X92851Y105841D01*
X92735Y105568D01*
X92596Y105306D01*
X92435Y105057D01*
X92409Y105017D01*
X92392Y104974D01*
X92381Y104928D01*
X92378Y104880D01*
X92382Y104833D01*
X92393Y104788D01*
X92411Y104744D01*
X92436Y104704D01*
X92467Y104668D01*
X92503Y104638D01*
X92544Y104614D01*
X92588Y104596D01*
X92634Y104585D01*
X92681Y104582D01*
X92728Y104586D01*
X92774Y104597D01*
X92817Y104616D01*
X92857Y104641D01*
X92893Y104671D01*
X92923Y104708D01*
X93019Y104852D01*
Y99505D01*
G37*
G36*
X36013Y87495D02*X36273Y87385D01*
X36822Y87210D01*
X37231Y87118D01*
Y79070D01*
X36013Y77851D01*
Y87495D01*
G37*
G36*
Y98397D02*X36173Y98482D01*
X36622Y98671D01*
X37086Y98819D01*
X37562Y98926D01*
X38019Y98987D01*
Y94826D01*
X37648Y94455D01*
X37609Y94422D01*
X37477Y94266D01*
X37370Y94092D01*
X37291Y93903D01*
X37244Y93704D01*
X37244Y93704D01*
X37227Y93500D01*
X37231Y93449D01*
Y88148D01*
X37086Y88181D01*
X36622Y88329D01*
X36173Y88518D01*
X36013Y88603D01*
Y98397D01*
G37*
G36*
X39317Y108308D02*X39115Y108292D01*
X38916Y108244D01*
X38727Y108166D01*
X38552Y108059D01*
X38397Y107926D01*
X38264Y107770D01*
X38157Y107596D01*
X38079Y107407D01*
X38031Y107208D01*
X38015Y107004D01*
X38019Y106953D01*
Y103924D01*
X37883Y103981D01*
X37621Y104120D01*
X37372Y104282D01*
X37332Y104307D01*
X37288Y104325D01*
X37242Y104336D01*
X37195Y104339D01*
X37148Y104335D01*
X37103Y104323D01*
X37059Y104305D01*
X37019Y104280D01*
X36983Y104249D01*
X36953Y104213D01*
X36929Y104173D01*
X36911Y104129D01*
X36900Y104083D01*
X36897Y104036D01*
X36901Y103989D01*
X36912Y103943D01*
X36931Y103899D01*
X36956Y103859D01*
X36986Y103824D01*
X37023Y103794D01*
X37315Y103600D01*
X37624Y103436D01*
X37947Y103300D01*
X38019Y103276D01*
Y99995D01*
X37956Y99993D01*
X37385Y99916D01*
X36822Y99790D01*
X36273Y99615D01*
X36013Y99505D01*
Y104849D01*
X36106Y104706D01*
X36136Y104669D01*
X36172Y104638D01*
X36213Y104613D01*
X36257Y104594D01*
X36303Y104583D01*
X36351Y104578D01*
X36398Y104582D01*
X36445Y104593D01*
X36489Y104611D01*
X36530Y104635D01*
X36566Y104666D01*
X36598Y104702D01*
X36623Y104743D01*
X36642Y104787D01*
X36653Y104833D01*
X36657Y104880D01*
X36654Y104928D01*
X36643Y104975D01*
X36625Y105019D01*
X36600Y105059D01*
X36435Y105306D01*
X36296Y105568D01*
X36181Y105841D01*
X36090Y106124D01*
X36025Y106413D01*
X36013Y106504D01*
Y107504D01*
X36025Y107594D01*
X36090Y107884D01*
X36181Y108166D01*
X36296Y108440D01*
X36435Y108702D01*
X36597Y108951D01*
X36622Y108991D01*
X36640Y109034D01*
X36650Y109080D01*
X36654Y109127D01*
X36650Y109174D01*
X36638Y109220D01*
X36620Y109264D01*
X36595Y109304D01*
X36564Y109340D01*
X36528Y109370D01*
X36488Y109394D01*
X36444Y109412D01*
X36398Y109423D01*
X36351Y109426D01*
X36304Y109422D01*
X36258Y109411D01*
X36214Y109392D01*
X36174Y109367D01*
X36139Y109336D01*
X36109Y109300D01*
X36013Y109155D01*
Y123000D01*
X39317D01*
Y110954D01*
X38969Y110939D01*
X38622Y110892D01*
X38280Y110815D01*
X37947Y110708D01*
X37624Y110572D01*
X37315Y110408D01*
X37021Y110217D01*
X36984Y110187D01*
X36953Y110151D01*
X36928Y110110D01*
X36909Y110066D01*
X36898Y110020D01*
X36893Y109972D01*
X36897Y109925D01*
X36908Y109878D01*
X36926Y109834D01*
X36950Y109793D01*
X36981Y109756D01*
X37017Y109725D01*
X37058Y109700D01*
X37101Y109681D01*
X37148Y109670D01*
X37195Y109666D01*
X37243Y109669D01*
X37289Y109680D01*
X37334Y109698D01*
X37374Y109723D01*
X37621Y109888D01*
X37883Y110027D01*
X38156Y110142D01*
X38439Y110233D01*
X38728Y110298D01*
X39022Y110337D01*
X39317Y110350D01*
Y108308D01*
G37*
G36*
X36013Y106504D02*X35986Y106708D01*
X35972Y107004D01*
X35986Y107300D01*
X36013Y107504D01*
Y106504D01*
G37*
G36*
Y99505D02*X35742Y99391D01*
X35233Y99122D01*
X34749Y98809D01*
X34688Y98758D01*
X34636Y98698D01*
X34593Y98630D01*
X34562Y98557D01*
X34543Y98480D01*
X34536Y98401D01*
X34542Y98322D01*
X34559Y98244D01*
X34589Y98170D01*
X34630Y98102D01*
X34681Y98041D01*
X34741Y97989D01*
X34809Y97947D01*
X34882Y97916D01*
X34959Y97896D01*
X35038Y97889D01*
X35118Y97895D01*
X35195Y97913D01*
X35269Y97942D01*
X35336Y97985D01*
X35742Y98254D01*
X36013Y98397D01*
Y88603D01*
X35742Y88746D01*
X35333Y89011D01*
X35267Y89053D01*
X35194Y89082D01*
X35117Y89100D01*
X35038Y89105D01*
X34960Y89098D01*
X34884Y89079D01*
X34811Y89049D01*
X34744Y89007D01*
X34685Y88955D01*
X34635Y88895D01*
X34594Y88827D01*
X34565Y88754D01*
X34547Y88678D01*
X34542Y88599D01*
X34548Y88521D01*
X34567Y88444D01*
X34598Y88372D01*
X34640Y88305D01*
X34692Y88246D01*
X34753Y88197D01*
X35233Y87878D01*
X35742Y87609D01*
X36013Y87495D01*
Y77851D01*
X32531Y74370D01*
Y90969D01*
X32640Y90711D01*
X32910Y90201D01*
X33223Y89718D01*
X33274Y89656D01*
X33334Y89604D01*
X33401Y89562D01*
X33474Y89531D01*
X33551Y89512D01*
X33631Y89505D01*
X33710Y89510D01*
X33788Y89528D01*
X33861Y89558D01*
X33929Y89599D01*
X33990Y89650D01*
X34043Y89710D01*
X34085Y89777D01*
X34116Y89850D01*
X34135Y89928D01*
X34142Y90007D01*
X34137Y90086D01*
X34119Y90164D01*
X34089Y90237D01*
X34047Y90305D01*
X33778Y90711D01*
X33550Y91141D01*
X33361Y91591D01*
X33213Y92055D01*
X33106Y92530D01*
X33041Y93013D01*
X33020Y93500D01*
X33041Y93987D01*
X33106Y94470D01*
X33213Y94945D01*
X33361Y95409D01*
X33550Y95859D01*
X33778Y96289D01*
X34043Y96698D01*
X34084Y96765D01*
X34114Y96838D01*
X34131Y96915D01*
X34137Y96993D01*
X34130Y97072D01*
X34111Y97148D01*
X34080Y97220D01*
X34038Y97287D01*
X33987Y97346D01*
X33926Y97397D01*
X33859Y97437D01*
X33786Y97467D01*
X33709Y97485D01*
X33631Y97490D01*
X33552Y97483D01*
X33476Y97464D01*
X33404Y97433D01*
X33337Y97391D01*
X33277Y97340D01*
X33228Y97279D01*
X32910Y96799D01*
X32640Y96289D01*
X32531Y96031D01*
Y123000D01*
X36013D01*
Y109155D01*
X35915Y109008D01*
X35751Y108699D01*
X35615Y108376D01*
X35508Y108043D01*
X35431Y107701D01*
X35384Y107354D01*
X35369Y107004D01*
X35384Y106654D01*
X35431Y106307D01*
X35508Y105965D01*
X35615Y105632D01*
X35751Y105309D01*
X35915Y105000D01*
X36013Y104849D01*
Y99505D01*
G37*
G36*
X91013Y94826D02*Y98987D01*
X91470Y98926D01*
X91945Y98819D01*
X92409Y98671D01*
X92859Y98482D01*
X93019Y98397D01*
Y88603D01*
X92859Y88518D01*
X92409Y88329D01*
X91945Y88181D01*
X91470Y88074D01*
X91013Y88013D01*
Y92305D01*
X91092Y92338D01*
X91266Y92445D01*
X91422Y92578D01*
X91555Y92734D01*
X91662Y92908D01*
X91740Y93097D01*
X91788Y93296D01*
X91804Y93500D01*
X91788Y93704D01*
X91740Y93903D01*
X91662Y94092D01*
X91555Y94266D01*
X91419Y94419D01*
X91013Y94826D01*
G37*
G36*
X82250Y56000D02*X70750D01*
Y57068D01*
X72044Y58362D01*
X72112Y58420D01*
X72276Y58613D01*
X72365Y58713D01*
X72550Y59015D01*
X72624Y59194D01*
X73847Y57971D01*
X73904Y57904D01*
X74173Y57674D01*
X74173Y57674D01*
X74361Y57559D01*
X74475Y57489D01*
X74803Y57354D01*
X75147Y57271D01*
X75147D01*
X75500Y57243D01*
X75588Y57250D01*
X82068D01*
X82250Y57068D01*
Y56000D01*
G37*
G36*
X68750Y79275D02*X68822Y79191D01*
X68852Y79165D01*
X69042Y78975D01*
X68991Y78853D01*
X68944Y78654D01*
X68931Y78450D01*
Y77800D01*
X68750D01*
Y79275D01*
G37*
G36*
X72706Y79061D02*X72781Y79136D01*
Y78862D01*
X72772Y78903D01*
X72706Y79061D01*
G37*
G36*
X70289Y75440D02*X68987Y74138D01*
X68920Y74080D01*
X68750Y73881D01*
Y75200D01*
X69481D01*
X69531Y75196D01*
X69735Y75212D01*
X69735Y75212D01*
X69934Y75260D01*
X70124Y75338D01*
X70289Y75440D01*
G37*
G36*
X63568Y62250D02*X63432D01*
X64036Y62855D01*
X64104Y62912D01*
X64250Y63083D01*
Y62932D01*
X63568Y62250D01*
G37*
G36*
X50207Y56000D02*X47542D01*
X47827Y56174D01*
X48096Y56404D01*
X48153Y56471D01*
X50205Y58523D01*
X50200Y58457D01*
X50207Y58369D01*
Y56000D01*
G37*
G36*
X66345Y58663D02*X66271Y58353D01*
X66271Y58353D01*
X66243Y58000D01*
X66250Y57912D01*
Y56000D01*
X54707D01*
Y57525D01*
X54932Y57750D01*
X64412D01*
X64500Y57743D01*
X64853Y57771D01*
X64853Y57771D01*
X65197Y57854D01*
X65525Y57989D01*
X65827Y58174D01*
X66096Y58404D01*
X66153Y58471D01*
X66345Y58663D01*
G37*
G36*
X43985Y60250D02*X39088D01*
X39000Y60257D01*
X38647Y60229D01*
X38303Y60146D01*
X37975Y60011D01*
X37673Y59826D01*
X37673Y59826D01*
X37404Y59596D01*
X37347Y59529D01*
X34971Y57153D01*
X34904Y57096D01*
X34674Y56827D01*
X34489Y56525D01*
X34354Y56197D01*
X34306Y56000D01*
X34300D01*
Y68650D01*
X34432Y68495D01*
X34858Y68131D01*
X35336Y67839D01*
X35853Y67624D01*
X36398Y67494D01*
X36957Y67450D01*
X37515Y67494D01*
X38060Y67624D01*
X38577Y67839D01*
X39055Y68131D01*
X39481Y68495D01*
X39845Y68921D01*
X40138Y69399D01*
X40352Y69916D01*
X40483Y70461D01*
X40516Y71020D01*
X40483Y71578D01*
X40352Y72123D01*
X40138Y72640D01*
X39845Y73118D01*
X39481Y73544D01*
X39055Y73908D01*
X38577Y74201D01*
X38060Y74415D01*
X37515Y74546D01*
X36957Y74590D01*
X36398Y74546D01*
X36380Y74541D01*
X39415Y77576D01*
X39454Y77609D01*
X39586Y77765D01*
X39586Y77765D01*
X39693Y77939D01*
X39772Y78129D01*
X39819Y78328D01*
X39836Y78531D01*
X39831Y78582D01*
Y87118D01*
X40241Y87210D01*
X40789Y87385D01*
X41321Y87609D01*
X41830Y87878D01*
X42314Y88191D01*
X42375Y88242D01*
X42427Y88302D01*
X42470Y88370D01*
X42501Y88443D01*
X42520Y88520D01*
X42527Y88599D01*
X42521Y88678D01*
X42504Y88756D01*
X42474Y88830D01*
X42433Y88898D01*
X42382Y88959D01*
X42322Y89011D01*
X42254Y89053D01*
X42181Y89084D01*
X42104Y89104D01*
X42025Y89111D01*
X41945Y89105D01*
X41868Y89087D01*
X41794Y89058D01*
X41727Y89015D01*
X41321Y88746D01*
X40890Y88518D01*
X40441Y88329D01*
X39977Y88181D01*
X39831Y88148D01*
Y92962D01*
X40202Y93332D01*
X40241Y93365D01*
X40374Y93521D01*
X40374Y93521D01*
X40481Y93695D01*
X40559Y93884D01*
X40607Y94083D01*
X40623Y94287D01*
X40619Y94338D01*
Y98596D01*
X40890Y98482D01*
X41321Y98254D01*
X41730Y97989D01*
X41796Y97947D01*
X41869Y97918D01*
X41946Y97900D01*
X42025Y97895D01*
X42103Y97902D01*
X42179Y97921D01*
X42252Y97951D01*
X42318Y97993D01*
X42378Y98045D01*
X42428Y98105D01*
X42469Y98173D01*
X42498Y98246D01*
X42516Y98322D01*
X42521Y98401D01*
X42515Y98479D01*
X42495Y98556D01*
X42465Y98628D01*
X42423Y98695D01*
X42371Y98754D01*
X42310Y98803D01*
X41830Y99122D01*
X41321Y99391D01*
X40789Y99615D01*
X40619Y99669D01*
Y103276D01*
X40691Y103300D01*
X41014Y103436D01*
X41323Y103600D01*
X41617Y103791D01*
X41654Y103821D01*
X41685Y103857D01*
X41710Y103898D01*
X41729Y103942D01*
X41740Y103988D01*
X41744Y104036D01*
X41741Y104083D01*
X41730Y104130D01*
X41712Y104174D01*
X41688Y104215D01*
X41657Y104251D01*
X41621Y104283D01*
X41580Y104308D01*
X41536Y104327D01*
X41490Y104338D01*
X41442Y104342D01*
X41395Y104339D01*
X41348Y104328D01*
X41304Y104310D01*
X41264Y104285D01*
X41017Y104120D01*
X40755Y103981D01*
X40619Y103924D01*
Y105704D01*
X42399D01*
X42342Y105568D01*
X42203Y105306D01*
X42041Y105057D01*
X42016Y105017D01*
X41998Y104974D01*
X41987Y104928D01*
X41984Y104880D01*
X41988Y104833D01*
X41999Y104788D01*
X42018Y104744D01*
X42043Y104704D01*
X42074Y104668D01*
X42110Y104638D01*
X42150Y104614D01*
X42194Y104596D01*
X42240Y104585D01*
X42287Y104582D01*
X42334Y104586D01*
X42380Y104597D01*
X42423Y104616D01*
X42464Y104641D01*
X42499Y104671D01*
X42529Y104708D01*
X42723Y105000D01*
X42887Y105309D01*
X43023Y105632D01*
X43046Y105704D01*
X43985D01*
Y97058D01*
X43840Y97282D01*
X43789Y97344D01*
X43729Y97396D01*
X43662Y97438D01*
X43589Y97469D01*
X43512Y97488D01*
X43432Y97495D01*
X43353Y97490D01*
X43275Y97472D01*
X43202Y97442D01*
X43133Y97401D01*
X43073Y97350D01*
X43020Y97290D01*
X42978Y97223D01*
X42947Y97150D01*
X42928Y97072D01*
X42921Y96993D01*
X42926Y96914D01*
X42944Y96836D01*
X42974Y96763D01*
X43016Y96695D01*
X43285Y96289D01*
X43513Y95859D01*
X43702Y95409D01*
X43850Y94945D01*
X43957Y94470D01*
X43985Y94261D01*
Y92739D01*
X43957Y92530D01*
X43850Y92055D01*
X43702Y91591D01*
X43513Y91141D01*
X43285Y90711D01*
X43020Y90302D01*
X42979Y90235D01*
X42949Y90162D01*
X42932Y90085D01*
X42926Y90007D01*
X42933Y89928D01*
X42952Y89852D01*
X42983Y89780D01*
X43025Y89713D01*
X43076Y89654D01*
X43137Y89603D01*
X43204Y89563D01*
X43277Y89533D01*
X43354Y89515D01*
X43432Y89510D01*
X43511Y89517D01*
X43587Y89536D01*
X43659Y89567D01*
X43726Y89609D01*
X43786Y89660D01*
X43835Y89721D01*
X43985Y89948D01*
Y72918D01*
X43815Y72640D01*
X43601Y72123D01*
X43470Y71578D01*
X43426Y71020D01*
X43470Y70461D01*
X43601Y69916D01*
X43815Y69399D01*
X43985Y69121D01*
Y60250D01*
G37*
G36*
X55776Y93270D02*Y94743D01*
X55968Y94519D01*
X56394Y94155D01*
X56871Y93862D01*
X57389Y93648D01*
X57934Y93517D01*
X58492Y93473D01*
X59051Y93517D01*
X59595Y93648D01*
X60002Y93816D01*
X60759Y93059D01*
X60409Y92845D01*
X59983Y92481D01*
X59620Y92055D01*
X59327Y91577D01*
X59113Y91060D01*
X58982Y90515D01*
X58938Y89957D01*
X58982Y89398D01*
X59113Y88853D01*
X59327Y88336D01*
X59620Y87858D01*
X59983Y87432D01*
X60258Y87198D01*
Y65750D01*
X52088D01*
X52000Y65757D01*
X51647Y65729D01*
X51303Y65646D01*
X50975Y65511D01*
X50673Y65326D01*
X50673Y65326D01*
X50404Y65096D01*
X50347Y65029D01*
X45568Y60250D01*
X43985D01*
Y69121D01*
X44108Y68921D01*
X44472Y68495D01*
X44898Y68131D01*
X45375Y67839D01*
X45893Y67624D01*
X46438Y67494D01*
X46996Y67450D01*
X47555Y67494D01*
X48099Y67624D01*
X48617Y67839D01*
X49094Y68131D01*
X49520Y68495D01*
X49884Y68921D01*
X50177Y69399D01*
X50391Y69916D01*
X50522Y70461D01*
X50555Y71020D01*
X50522Y71578D01*
X50391Y72123D01*
X50177Y72640D01*
X49884Y73118D01*
X49520Y73544D01*
X49094Y73908D01*
X48617Y74201D01*
X48099Y74415D01*
X47555Y74546D01*
X46996Y74590D01*
X46438Y74546D01*
X45893Y74415D01*
X45375Y74201D01*
X44898Y73908D01*
X44472Y73544D01*
X44108Y73118D01*
X43985Y72918D01*
Y89948D01*
X44153Y90201D01*
X44423Y90711D01*
X44646Y91242D01*
X44822Y91791D01*
X44948Y92353D01*
X45024Y92924D01*
X45050Y93500D01*
X45024Y94076D01*
X44948Y94647D01*
X44822Y95209D01*
X44646Y95758D01*
X44423Y96289D01*
X44153Y96799D01*
X43985Y97058D01*
Y105704D01*
X46953D01*
X47004Y105700D01*
X47208Y105716D01*
X47208Y105716D01*
X47407Y105764D01*
X47596Y105842D01*
X47770Y105949D01*
X47926Y106082D01*
X47959Y106121D01*
X51383Y109545D01*
X51422Y109578D01*
X51555Y109733D01*
X51555Y109734D01*
X51662Y109908D01*
X51740Y110097D01*
X51788Y110296D01*
X51804Y110500D01*
X51800Y110551D01*
Y115462D01*
X52038Y115700D01*
X52191D01*
X52146Y115661D01*
X52044Y115542D01*
X51961Y115407D01*
X51901Y115262D01*
X51864Y115109D01*
X51855Y114952D01*
X51864Y108891D01*
X51901Y108738D01*
X51961Y108593D01*
X52044Y108458D01*
X52146Y108339D01*
X52265Y108236D01*
X52400Y108154D01*
X52545Y108094D01*
X52698Y108057D01*
X52855Y108048D01*
X54114Y108050D01*
Y106298D01*
X54089Y106288D01*
X53821Y106123D01*
X53581Y105919D01*
X53377Y105679D01*
X53212Y105411D01*
X53092Y105120D01*
X53019Y104814D01*
X52994Y104500D01*
X53019Y104186D01*
X53092Y103880D01*
X53212Y103589D01*
X53377Y103321D01*
X53581Y103081D01*
X53821Y102877D01*
X54089Y102712D01*
X54380Y102592D01*
X54686Y102519D01*
X55000Y102494D01*
X55314Y102519D01*
X55620Y102592D01*
X55911Y102712D01*
X56179Y102877D01*
X56419Y103081D01*
X56623Y103321D01*
X56788Y103589D01*
X56908Y103880D01*
X56981Y104186D01*
X57000Y104500D01*
X63234D01*
X63238Y104090D01*
X63264Y103983D01*
X63306Y103881D01*
X63363Y103787D01*
X63435Y103704D01*
X63519Y103632D01*
X63613Y103574D01*
X63715Y103532D01*
X63731Y103528D01*
Y101502D01*
X63623Y101679D01*
X63419Y101919D01*
X63179Y102123D01*
X62911Y102288D01*
X62620Y102408D01*
X62314Y102481D01*
X62000Y102506D01*
X61686Y102481D01*
X61380Y102408D01*
X61119Y102300D01*
X57051D01*
X57000Y102304D01*
X56796Y102288D01*
X56597Y102240D01*
X56408Y102162D01*
X56234Y102055D01*
X56233Y102055D01*
X56078Y101922D01*
X56045Y101883D01*
X53593Y99432D01*
X53554Y99398D01*
X53421Y99243D01*
X53354Y99133D01*
X53349Y99142D01*
X52985Y99568D01*
X52559Y99932D01*
X52081Y100224D01*
X51564Y100439D01*
X51019Y100569D01*
X50461Y100613D01*
X49902Y100569D01*
X49357Y100439D01*
X48840Y100224D01*
X48362Y99932D01*
X47936Y99568D01*
X47572Y99142D01*
X47280Y98664D01*
X47065Y98147D01*
X46935Y97602D01*
X46891Y97043D01*
X46935Y96485D01*
X47065Y95940D01*
X47280Y95423D01*
X47572Y94945D01*
X47936Y94519D01*
X48362Y94155D01*
X48840Y93862D01*
X49357Y93648D01*
X49902Y93517D01*
X50461Y93473D01*
X51019Y93517D01*
X51564Y93648D01*
X52081Y93862D01*
X52559Y94155D01*
X52985Y94519D01*
X53176Y94743D01*
Y93270D01*
X52856Y93138D01*
X52378Y92845D01*
X51952Y92481D01*
X51588Y92055D01*
X51295Y91577D01*
X51081Y91060D01*
X50950Y90515D01*
X50906Y89957D01*
X50950Y89398D01*
X51081Y88853D01*
X51295Y88336D01*
X51588Y87858D01*
X51952Y87432D01*
X52378Y87068D01*
X52856Y86776D01*
X53373Y86561D01*
X53918Y86431D01*
X54476Y86387D01*
X55035Y86431D01*
X55580Y86561D01*
X56097Y86776D01*
X56575Y87068D01*
X57001Y87432D01*
X57365Y87858D01*
X57657Y88336D01*
X57872Y88853D01*
X58002Y89398D01*
X58035Y89957D01*
X58002Y90515D01*
X57872Y91060D01*
X57657Y91577D01*
X57365Y92055D01*
X57001Y92481D01*
X56575Y92845D01*
X56097Y93138D01*
X55776Y93270D01*
G37*
G36*
X43985Y94261D02*X44022Y93987D01*
X44043Y93500D01*
X44022Y93013D01*
X43985Y92739D01*
Y94261D01*
G37*
G36*
X62967Y97215D02*X61783Y98399D01*
X61735Y98515D01*
X62000Y98494D01*
X62314Y98519D01*
X62620Y98592D01*
X62911Y98712D01*
X63179Y98877D01*
X63419Y99081D01*
X63623Y99321D01*
X63731Y99498D01*
Y99254D01*
X63635Y99142D01*
X63343Y98664D01*
X63128Y98147D01*
X62998Y97602D01*
X62967Y97215D01*
G37*
G36*
X80781Y81568D02*X83029Y83815D01*
X83096Y83873D01*
X83326Y84142D01*
X83326Y84142D01*
X83329Y84147D01*
X84529Y85347D01*
X84596Y85404D01*
X84826Y85673D01*
X84826Y85673D01*
X85011Y85975D01*
X85146Y86303D01*
X85229Y86647D01*
X85257Y87000D01*
X85250Y87088D01*
Y89650D01*
X85302Y89604D01*
X85370Y89562D01*
X85443Y89531D01*
X85520Y89512D01*
X85599Y89505D01*
X85678Y89510D01*
X85756Y89528D01*
X85830Y89558D01*
X85898Y89599D01*
X85959Y89650D01*
X86011Y89710D01*
X86053Y89777D01*
X86084Y89850D01*
X86104Y89928D01*
X86111Y90007D01*
X86105Y90086D01*
X86087Y90164D01*
X86058Y90237D01*
X86015Y90305D01*
X85746Y90711D01*
X85518Y91141D01*
X85329Y91591D01*
X85250Y91839D01*
Y95161D01*
X85329Y95409D01*
X85518Y95859D01*
X85746Y96289D01*
X86011Y96698D01*
X86053Y96765D01*
X86082Y96838D01*
X86100Y96915D01*
X86105Y96993D01*
X86098Y97072D01*
X86079Y97148D01*
X86049Y97220D01*
X86007Y97287D01*
X85955Y97346D01*
X85895Y97397D01*
X85827Y97437D01*
X85754Y97467D01*
X85678Y97485D01*
X85599Y97490D01*
X85521Y97483D01*
X85444Y97464D01*
X85372Y97433D01*
X85305Y97391D01*
X85250Y97343D01*
Y98412D01*
X85257Y98500D01*
X85229Y98853D01*
X85146Y99197D01*
X85107Y99293D01*
X85011Y99525D01*
X84896Y99712D01*
X84826Y99827D01*
X84826Y99827D01*
X84596Y100096D01*
X84529Y100153D01*
X81153Y103529D01*
X81096Y103596D01*
X80827Y103826D01*
X80827Y103826D01*
X80712Y103896D01*
X80525Y104011D01*
X80293Y104107D01*
X80197Y104146D01*
X79853Y104229D01*
X79500Y104257D01*
X79412Y104250D01*
X73088D01*
X73000Y104257D01*
X72647Y104229D01*
X72303Y104146D01*
X71975Y104011D01*
X71673Y103826D01*
X71673Y103826D01*
X71404Y103596D01*
X71347Y103529D01*
X68072Y100254D01*
X67627Y100439D01*
X67082Y100569D01*
X66524Y100613D01*
X66331Y100598D01*
Y102905D01*
X66432Y102897D01*
X66471Y102900D01*
X66592D01*
X66631Y102897D01*
X66671Y102900D01*
X67792D01*
X67831Y102897D01*
X67871Y102900D01*
X67992D01*
X68032Y102897D01*
X68071Y102900D01*
X69192D01*
X69232Y102897D01*
X69271Y102900D01*
X69492D01*
X69531Y102897D01*
X69688Y102909D01*
X69688Y102909D01*
X69841Y102946D01*
X69987Y103006D01*
X70121Y103088D01*
X70241Y103191D01*
X70266Y103221D01*
X70550Y103504D01*
X71041Y103506D01*
X71148Y103532D01*
X71250Y103574D01*
X71344Y103632D01*
X71428Y103704D01*
X71500Y103787D01*
X71557Y103881D01*
X71599Y103983D01*
X71625Y104090D01*
X71631Y104200D01*
X71625Y104910D01*
X71599Y105017D01*
X71557Y105119D01*
X71538Y105150D01*
X71557Y105181D01*
X71599Y105283D01*
X71625Y105390D01*
X71631Y105500D01*
X71625Y106210D01*
X71599Y106317D01*
X71557Y106419D01*
X71500Y106513D01*
X71428Y106596D01*
X71344Y106668D01*
X71250Y106726D01*
X71148Y106768D01*
X71041Y106794D01*
X70931Y106800D01*
X70548Y106798D01*
X70166Y107179D01*
X70149Y107200D01*
X85771D01*
X85762Y107004D01*
X85778Y106654D01*
X85824Y106307D01*
X85901Y105965D01*
X86008Y105632D01*
X86144Y105309D01*
X86309Y105000D01*
X86499Y104706D01*
X86530Y104669D01*
X86566Y104638D01*
X86607Y104613D01*
X86650Y104594D01*
X86697Y104583D01*
X86744Y104578D01*
X86792Y104582D01*
X86838Y104593D01*
X86883Y104611D01*
X86924Y104635D01*
X86960Y104666D01*
X86991Y104702D01*
X87017Y104743D01*
X87035Y104787D01*
X87047Y104833D01*
X87051Y104880D01*
X87047Y104928D01*
X87037Y104975D01*
X87019Y105019D01*
X86993Y105059D01*
X86829Y105306D01*
X86690Y105568D01*
X86575Y105841D01*
X86484Y106124D01*
X86419Y106413D01*
X86379Y106708D01*
X86366Y107004D01*
X86375Y107200D01*
X87678D01*
X88413Y106465D01*
Y103924D01*
X88277Y103981D01*
X88015Y104120D01*
X87766Y104282D01*
X87726Y104307D01*
X87682Y104325D01*
X87636Y104336D01*
X87589Y104339D01*
X87542Y104335D01*
X87496Y104323D01*
X87453Y104305D01*
X87413Y104280D01*
X87377Y104249D01*
X87347Y104213D01*
X87322Y104173D01*
X87304Y104129D01*
X87294Y104083D01*
X87290Y104036D01*
X87294Y103989D01*
X87306Y103943D01*
X87324Y103899D01*
X87349Y103859D01*
X87380Y103824D01*
X87417Y103794D01*
X87708Y103600D01*
X88018Y103436D01*
X88340Y103300D01*
X88413Y103276D01*
Y99669D01*
X88242Y99615D01*
X87711Y99391D01*
X87201Y99122D01*
X86718Y98809D01*
X86656Y98758D01*
X86604Y98698D01*
X86562Y98630D01*
X86531Y98557D01*
X86512Y98480D01*
X86505Y98401D01*
X86510Y98322D01*
X86528Y98244D01*
X86558Y98170D01*
X86599Y98102D01*
X86650Y98041D01*
X86710Y97989D01*
X86777Y97947D01*
X86850Y97916D01*
X86928Y97896D01*
X87007Y97889D01*
X87086Y97895D01*
X87164Y97913D01*
X87237Y97942D01*
X87305Y97985D01*
X87711Y98254D01*
X88141Y98482D01*
X88413Y98596D01*
Y94338D01*
X88409Y94287D01*
X88421Y94135D01*
X88413Y94000D01*
Y88404D01*
X88141Y88518D01*
X87711Y88746D01*
X87302Y89011D01*
X87235Y89053D01*
X87162Y89082D01*
X87085Y89100D01*
X87007Y89105D01*
X86928Y89098D01*
X86852Y89079D01*
X86780Y89049D01*
X86713Y89007D01*
X86654Y88955D01*
X86603Y88895D01*
X86563Y88827D01*
X86533Y88754D01*
X86515Y88678D01*
X86510Y88599D01*
X86517Y88521D01*
X86536Y88444D01*
X86567Y88372D01*
X86609Y88305D01*
X86660Y88246D01*
X86721Y88197D01*
X87201Y87878D01*
X87711Y87609D01*
X88242Y87385D01*
X88413Y87331D01*
Y79338D01*
X88409Y79287D01*
X88425Y79084D01*
X88425Y79083D01*
X88472Y78884D01*
X88551Y78695D01*
X88591Y78629D01*
X88658Y78521D01*
X88658Y78521D01*
X88791Y78365D01*
X88829Y78332D01*
X92614Y74547D01*
X92075Y74590D01*
X91516Y74546D01*
X90972Y74415D01*
X90454Y74201D01*
X89976Y73908D01*
X89550Y73544D01*
X89187Y73118D01*
X88894Y72640D01*
X88680Y72123D01*
X88549Y71578D01*
X88505Y71020D01*
X88549Y70461D01*
X88680Y69916D01*
X88894Y69399D01*
X89187Y68921D01*
X89550Y68495D01*
X89976Y68131D01*
X90454Y67839D01*
X90972Y67624D01*
X91516Y67494D01*
X92075Y67450D01*
X92633Y67494D01*
X93178Y67624D01*
X93696Y67839D01*
X94173Y68131D01*
X94599Y68495D01*
X94700Y68613D01*
Y56000D01*
X86750D01*
Y57912D01*
X86757Y58000D01*
X86729Y58353D01*
X86646Y58697D01*
X86607Y58793D01*
X86511Y59025D01*
X86396Y59212D01*
X86326Y59327D01*
X86326Y59327D01*
X86096Y59596D01*
X86029Y59653D01*
X84653Y61029D01*
X84596Y61096D01*
X84327Y61326D01*
X84327Y61326D01*
X84212Y61396D01*
X84025Y61511D01*
X83793Y61607D01*
X83697Y61646D01*
X83353Y61729D01*
X83000Y61757D01*
X82912Y61750D01*
X76432D01*
X76250Y61932D01*
Y70037D01*
X78855Y72642D01*
X78855Y72640D01*
X78640Y72123D01*
X78509Y71578D01*
X78465Y71020D01*
X78509Y70461D01*
X78640Y69916D01*
X78855Y69399D01*
X79147Y68921D01*
X79511Y68495D01*
X79937Y68131D01*
X80415Y67839D01*
X80932Y67624D01*
X81477Y67494D01*
X82035Y67450D01*
X82594Y67494D01*
X83139Y67624D01*
X83656Y67839D01*
X84134Y68131D01*
X84560Y68495D01*
X84924Y68921D01*
X85216Y69399D01*
X85431Y69916D01*
X85562Y70461D01*
X85594Y71020D01*
X85562Y71578D01*
X85431Y72123D01*
X85216Y72640D01*
X84924Y73118D01*
X84560Y73544D01*
X84134Y73908D01*
X83656Y74201D01*
X83139Y74415D01*
X82594Y74546D01*
X82035Y74590D01*
X81477Y74546D01*
X80932Y74415D01*
X80415Y74201D01*
X80343Y74157D01*
X80357Y74173D01*
X80357Y74173D01*
X80542Y74475D01*
X80678Y74803D01*
X80761Y75147D01*
X80788Y75500D01*
X80781Y75588D01*
Y81568D01*
G37*
G36*
X77281Y85376D02*X77288Y85465D01*
X77261Y85818D01*
X77178Y86162D01*
X77138Y86258D01*
X77042Y86489D01*
X76928Y86676D01*
X76857Y86791D01*
X76857Y86791D01*
X76783Y86878D01*
X76950Y86776D01*
X77468Y86561D01*
X78012Y86431D01*
X78571Y86387D01*
X79129Y86431D01*
X79328Y86478D01*
X77281Y84432D01*
Y85376D01*
G37*
G36*
X68852Y83635D02*X68822Y83609D01*
X68750Y83525D01*
Y86879D01*
X68919Y86776D01*
X69436Y86561D01*
X69981Y86431D01*
X70539Y86387D01*
X70899Y86415D01*
X72781Y84533D01*
Y83764D01*
X72528Y84018D01*
X72525Y84510D01*
X72499Y84617D01*
X72457Y84719D01*
X72400Y84813D01*
X72328Y84896D01*
X72244Y84968D01*
X72150Y85026D01*
X72048Y85068D01*
X71941Y85094D01*
X71831Y85100D01*
X71122Y85094D01*
X71015Y85068D01*
X70913Y85026D01*
X70881Y85006D01*
X70850Y85026D01*
X70748Y85068D01*
X70641Y85094D01*
X70531Y85100D01*
X69822Y85094D01*
X69715Y85068D01*
X69613Y85026D01*
X69519Y84968D01*
X69435Y84896D01*
X69363Y84813D01*
X69306Y84719D01*
X69264Y84617D01*
X69238Y84510D01*
X69231Y84400D01*
X69234Y84016D01*
X68852Y83635D01*
G37*
G36*
X65842Y107311D02*X65722Y107209D01*
X65697Y107179D01*
X65507Y106990D01*
X65384Y107040D01*
X65185Y107088D01*
X64981Y107100D01*
X56714D01*
Y108055D01*
X58130Y108057D01*
X58283Y108094D01*
X58428Y108154D01*
X58563Y108236D01*
X58682Y108339D01*
X58785Y108458D01*
X58867Y108593D01*
X58927Y108738D01*
X58957Y108863D01*
X58987Y108738D01*
X59047Y108593D01*
X59130Y108458D01*
X59232Y108339D01*
X59351Y108236D01*
X59486Y108154D01*
X59631Y108094D01*
X59784Y108057D01*
X59941Y108048D01*
X61118Y108050D01*
X61321Y107877D01*
X61589Y107712D01*
X61880Y107592D01*
X62186Y107519D01*
X62500Y107494D01*
X62814Y107519D01*
X63120Y107592D01*
X63411Y107712D01*
X63679Y107877D01*
X63888Y108055D01*
X65216Y108057D01*
X65369Y108094D01*
X65514Y108154D01*
X65649Y108236D01*
X65768Y108339D01*
X65871Y108458D01*
X65953Y108593D01*
X66013Y108738D01*
X66050Y108891D01*
X66059Y109048D01*
X66050Y115109D01*
X66013Y115262D01*
X65953Y115407D01*
X65871Y115542D01*
X65768Y115661D01*
X65723Y115700D01*
X66462D01*
X66700Y115462D01*
Y110551D01*
X66696Y110500D01*
X66712Y110296D01*
X66712Y110296D01*
X66760Y110097D01*
X66838Y109908D01*
X66879Y109842D01*
X66945Y109734D01*
X66945Y109733D01*
X67078Y109578D01*
X67117Y109545D01*
X69045Y107617D01*
X69078Y107578D01*
X69169Y107500D01*
X69131Y107503D01*
X69092Y107500D01*
X67971D01*
X67931Y107503D01*
X67892Y107500D01*
X66771D01*
X66732Y107503D01*
X66692Y107500D01*
X66471D01*
X66431Y107503D01*
X66275Y107491D01*
X66122Y107454D01*
X65976Y107394D01*
X65842Y107312D01*
X65842Y107311D01*
G37*
G36*
X72259Y93077D02*X73012Y93830D01*
X73452Y93648D01*
X73997Y93517D01*
X74555Y93473D01*
X75114Y93517D01*
X75658Y93648D01*
X76176Y93862D01*
X76654Y94155D01*
X77080Y94519D01*
X77443Y94945D01*
X77736Y95423D01*
X77950Y95940D01*
X78081Y96485D01*
X78114Y97043D01*
X78081Y97602D01*
X77950Y98147D01*
X77736Y98664D01*
X77443Y99142D01*
X77080Y99568D01*
X76866Y99750D01*
X78568D01*
X80750Y97568D01*
Y92776D01*
X80669Y92845D01*
X80192Y93138D01*
X79674Y93352D01*
X79129Y93483D01*
X78571Y93527D01*
X78012Y93483D01*
X77468Y93352D01*
X76950Y93138D01*
X76472Y92845D01*
X76046Y92481D01*
X75812Y92207D01*
X73298D01*
X73064Y92481D01*
X72638Y92845D01*
X72259Y93077D01*
G37*
G36*
X59277Y115700D02*X59232Y115661D01*
X59130Y115542D01*
X59047Y115407D01*
X58987Y115262D01*
X58957Y115137D01*
X58927Y115262D01*
X58867Y115407D01*
X58785Y115542D01*
X58682Y115661D01*
X58637Y115700D01*
X59277D01*
G37*
G54D30*X90362Y47087D02*X90756D01*
X93906Y43937D01*
X84457Y47480D02*X90020D01*
X84500D02*Y43500D01*
X88000Y40000D01*
G54D31*X96000Y73000D02*Y51000D01*
X97500Y49500D01*
Y36500D01*
G54D30*X58362Y49587D02*X58756D01*
X74362D02*X74756D01*
X77906Y46437D01*
X68457Y49980D02*X74020D01*
X68500Y46000D02*X72000Y42500D01*
X52500Y46000D02*X56000Y42500D01*
X74000Y61000D02*X75500Y59500D01*
X70539Y60039D02*X68500Y58000D01*
Y46000D02*Y58000D01*
X75500Y59500D02*X83000D01*
X84500Y58000D01*
Y47524D01*
X84457Y47480D01*
G54D31*X97500Y36500D02*X99500Y34500D01*
X102500D01*
X104500Y32500D01*
Y27524D01*
X104457Y27480D01*
G54D30*Y23543D01*
X108000Y20000D01*
X104457Y27480D02*X109969D01*
X113906Y23937D02*X113512D01*
X109969Y27480D02*X113512Y23937D01*
G54D31*X39319Y107004D02*Y94287D01*
X38531Y93500D01*
X39319Y107004D02*X47004D01*
X50500Y110500D01*
Y116000D01*
X51500Y117000D01*
X55414Y112000D02*Y104914D01*
X55000Y104500D01*
X38531Y93500D02*Y78531D01*
X33000Y73000D01*
X62500Y109500D02*Y112000D01*
X51500Y117000D02*X67000D01*
X68000Y116000D01*
Y110500D01*
X70000Y108500D01*
X88217D01*
X54476Y89957D02*Y98476D01*
X57000Y101000D01*
X61500D01*
G54D30*X58492Y97043D02*X59957D01*
G54D31*X61500Y101000D02*X62000Y100500D01*
X64981Y105800D02*X56300D01*
X55000Y104500D01*
G54D30*X59957Y97043D02*X62500Y94500D01*
G54D32*X63508Y94543D02*X64508Y93543D01*
G54D33*X62492Y94043D02*X62992D01*
G54D30*X66500Y92000D02*Y92500D01*
G54D32*X64508Y93528D02*X66492Y91543D01*
G54D33*Y93043D02*X65492D01*
G54D32*X66492D02*X67992D01*
G54D31*X66488Y97043D02*X65031Y98500D01*
X89713Y107004D02*Y94287D01*
X88217Y108500D02*X89713Y107004D01*
Y94287D02*X90500Y93500D01*
X89713Y94000D02*Y79287D01*
X96000Y73000D01*
G54D30*X74555Y97043D02*X73043D01*
X66524D02*X68043D01*
X73000Y102000D01*
X79500D01*
X83000Y98500D01*
X73043Y97043D02*X70500Y94500D01*
X78571Y89957D02*X70539D01*
X83000Y87000D02*X81500Y85500D01*
X71031Y89957D02*X71075D01*
X81500Y85500D02*Y85469D01*
X78531Y82500D01*
G54D32*X67992Y93043D02*X69992Y95043D01*
X70492Y94043D02*X68992D01*
G54D31*X65031Y98500D02*Y104500D01*
G54D30*X83000Y98500D02*Y87000D01*
G54D33*X66492Y91543D02*Y86043D01*
G54D30*X75031Y85465D02*X70539Y89957D01*
X78531Y82500D02*Y75500D01*
G54D31*X71531Y77000D02*X72031Y76500D01*
X74531D01*
G54D30*X62508Y89957D02*Y64508D01*
X66500Y62000D02*Y88000D01*
G54D31*X70231Y78450D02*Y77200D01*
X69531Y76500D01*
X66500D01*
X71531Y78500D02*Y77000D01*
G54D30*X70516Y72484D02*X75031Y77000D01*
X78531Y75500D02*X74000Y70969D01*
X75031Y77000D02*Y85465D01*
X74000Y61000D02*Y70969D01*
X70516Y60016D02*Y72484D01*
X58756Y49587D02*X61906Y46437D01*
X52457Y49980D02*Y58457D01*
Y49980D02*X58020D01*
X52500D02*Y46000D01*
X62508Y64508D02*X61500Y63500D01*
X52000D01*
X46500Y58000D01*
X52457Y58457D02*X54000Y60000D01*
X64500D01*
X66500Y62000D01*
X42362Y47087D02*X42756D01*
X45906Y43937D01*
X42020Y47480D02*X42413Y47087D01*
X46500Y58000D02*X39000D01*
X36500Y55500D01*
Y47524D01*
X36457Y47480D02*X42020D01*
X36500D02*Y43500D01*
X40000Y40000D01*
X36500Y47524D02*X36457Y47480D01*
G54D31*X33000Y73000D02*Y51000D01*
X31500Y49500D01*
Y36500D01*
X29500Y34500D01*
X18500D01*
X16500Y32500D01*
Y27524D01*
X16457Y27480D01*
G54D30*X20000Y20000D02*X16500Y23500D01*
Y28000D01*
X21449D01*
X25906Y23937D02*X25512D01*
X21449Y28000D02*X25512Y23937D01*
G54D34*X20000Y20000D03*
G54D35*X16457Y27480D03*
G54D36*X22362Y27087D03*
G54D37*X25906Y23937D03*
G54D34*X108000Y20000D03*
G54D35*X104457Y27480D03*
G54D36*X110362Y27087D03*
G54D37*X113906Y23937D03*
G54D34*X72000Y42500D03*
X88000Y40000D03*
G54D37*X93906Y43937D03*
G54D34*X56000Y42500D03*
X40000Y40000D03*
G54D37*X45906Y43937D03*
G54D36*X74362Y49587D03*
G54D37*X77906Y46437D03*
G54D35*X84457Y47480D03*
G54D36*X90362Y47087D03*
G54D35*X68457Y49980D03*
X52457D03*
G54D36*X58362Y49587D03*
G54D37*X61906Y46437D03*
G54D35*X36457Y47480D03*
G54D36*X42362Y47087D03*
G54D38*X82035Y71020D03*
X92075D03*
G54D35*X89713Y107004D03*
X39319D03*
G54D39*X38531Y93500D03*
G54D38*X36957Y71020D03*
X46996D03*
G54D39*X90500Y93500D03*
G54D38*X74555Y97043D03*
X78571Y89957D03*
X66524Y97043D03*
X58492D03*
X50461D03*
X62508Y89957D03*
X54476D03*
X70539D03*
G54D29*G36*
X57973Y114952D02*X52855D01*
Y109048D01*
X57973D01*
Y114952D01*
G37*
G36*
X65059D02*X59941D01*
Y109048D01*
X65059D01*
Y114952D01*
G37*
G54D31*X66431Y106500D02*X69431D01*
X70131Y105800D01*
G54D29*G36*
X69831Y106100D02*Y105500D01*
X70931D01*
Y106100D01*
X69831D01*
G37*
G54D31*X68531Y105900D02*X69131Y106500D01*
X67931D02*X68531Y105900D01*
X65731Y105800D02*X66431Y106500D01*
G54D29*G36*
X63931Y106100D02*Y105500D01*
X66031D01*
Y106100D01*
X63931D01*
G37*
G54D31*X66731Y106500D02*X67331Y105900D01*
X67931Y106500D01*
X66431Y103900D02*X69531D01*
X66431D02*X66631D01*
X69531D02*X70131Y104500D01*
G54D29*G36*
X69831Y104800D02*Y104200D01*
X70931D01*
Y104800D01*
X69831D01*
G37*
G54D31*X65831Y104500D02*X66431Y103900D01*
G54D29*G36*
X63931Y104800D02*Y104200D01*
X66131D01*
Y104800D01*
X63931D01*
G37*
G54D31*X66631Y103900D02*X67331Y104600D01*
X68031Y103900D01*
X67831D02*X68531Y104600D01*
X69231Y103900D01*
X69531Y82900D02*Y79900D01*
Y82900D02*X70231Y83600D01*
G54D29*G36*
X70531Y84400D02*X69931D01*
Y83300D01*
X70531D01*
Y84400D01*
G37*
G54D31*X69531Y82600D02*X70131Y82000D01*
X69531Y81400D02*X70131Y82000D01*
X69531Y79900D02*X70231Y79200D01*
G54D29*G36*
X70531Y79500D02*X69931D01*
Y77400D01*
X70531D01*
Y79500D01*
G37*
G54D31*X69531Y80200D02*X70131Y80800D01*
X69531Y81400D02*X70131Y80800D01*
X72131Y83000D02*Y79900D01*
Y80100D02*Y79900D01*
X71531Y83600D02*X72131Y83000D01*
G54D29*G36*
X71831Y84400D02*X71231D01*
Y83300D01*
X71831D01*
Y84400D01*
G37*
G54D31*X71531Y79300D02*X72131Y79900D01*
G54D29*G36*
X71831Y79600D02*X71231D01*
Y77400D01*
X71831D01*
Y79600D01*
G37*
G54D31*X71431Y80800D02*X72131Y80100D01*
X71431Y80800D02*X72131Y81500D01*
X71431Y82000D02*X72131Y81300D01*
X71431Y82000D02*X72131Y82700D01*
G54D40*X62000Y100500D03*
X55000Y104500D03*
X62500Y109500D03*
G54D41*G54D42*G54D43*G54D44*G54D45*G54D42*G54D43*G54D44*G54D45*G54D42*G54D45*G54D42*G54D45*G54D44*G54D45*G54D43*G54D44*G54D43*G54D44*G54D45*G54D43*G54D44*G54D46*G54D38*G54D34*G54D46*G54D34*G54D46*M02*
