G04 start of page 13 for group -4014 idx -4014 *
G04 Title: (unknown), bottompaste *
G04 Creator: pcb 4.2.0 *
G04 CreationDate: Sun Aug 30 22:39:59 2020 UTC *
G04 For: commonadmin *
G04 Format: Gerber/RS-274X *
G04 PCB-Dimensions (mil): 1000.00 1250.00 *
G04 PCB-Coordinate-Origin: lower left *
%MOIN*%
%FSLAX25Y25*%
%LNBOTTOMPASTE*%
%ADD104C,0.0060*%
%ADD103C,0.0001*%
G54D103*G36*
X39442Y106452D02*X34324D01*
Y100548D01*
X39442D01*
Y106452D01*
G37*
G36*
X46528D02*X41410D01*
Y100548D01*
X46528D01*
Y106452D01*
G37*
G54D104*X51000Y74400D02*Y71400D01*
Y74400D02*X51700Y75100D01*
X51000Y71400D02*X51700Y70700D01*
G54D103*G36*
X52000Y71000D02*X51400D01*
Y68900D01*
X52000D01*
Y71000D01*
G37*
G36*
Y75900D02*X51400D01*
Y74800D01*
X52000D01*
Y75900D01*
G37*
G54D104*X51000Y71700D02*X51600Y72300D01*
X51000Y72900D02*X51600Y72300D01*
X51000Y74100D02*X51600Y73500D01*
X51000Y72900D02*X51600Y73500D01*
X53600Y74500D02*Y71400D01*
X53000Y75100D02*X53600Y74500D01*
X53000Y70800D02*X53600Y71400D01*
G54D103*G36*
X53300Y71100D02*X52700D01*
Y68900D01*
X53300D01*
Y71100D01*
G37*
G36*
Y75900D02*X52700D01*
Y74800D01*
X53300D01*
Y75900D01*
G37*
G54D104*X52900Y72300D02*X53600Y71600D01*
Y71400D01*
X52900Y72300D02*X53600Y73000D01*
X52900Y73500D02*X53600Y72800D01*
X52900Y73500D02*X53600Y74200D01*
X47900Y98000D02*X50900D01*
X51600Y97300D01*
X47200D02*X47900Y98000D01*
G54D103*G36*
X45400Y97600D02*Y97000D01*
X47500D01*
Y97600D01*
X45400D01*
G37*
G36*
X51300D02*Y97000D01*
X52400D01*
Y97600D01*
X51300D01*
G37*
G54D104*X48200Y98000D02*X48800Y97400D01*
X49400Y98000D01*
X50000Y97400D02*X50600Y98000D01*
X49400D02*X50000Y97400D01*
X47900Y95400D02*X51000D01*
X51600Y96000D01*
X47300D02*X47900Y95400D01*
G54D103*G36*
X45400Y96300D02*Y95700D01*
X47600D01*
Y96300D01*
X45400D01*
G37*
G36*
X51300D02*Y95700D01*
X52400D01*
Y96300D01*
X51300D01*
G37*
G54D104*X48100Y95400D02*X48800Y96100D01*
X47900Y95400D02*X48100D01*
X48800Y96100D02*X49500Y95400D01*
X49300D02*X50000Y96100D01*
X50700Y95400D01*
M02*
