G04 start of page 9 for group -4062 idx -4062 *
G04 Title: (unknown), soldermask *
G04 Creator: pcb 4.2.0 *
G04 CreationDate: Wed Sep 23 11:56:37 2020 UTC *
G04 For: commonadmin *
G04 Format: Gerber/RS-274X *
G04 PCB-Dimensions (mil): 1250.00 1500.00 *
G04 PCB-Coordinate-Origin: lower left *
%MOIN*%
%FSLAX25Y25*%
%LNBOTTOMMASK*%
%ADD103C,0.0200*%
%ADD102C,0.0001*%
%ADD101C,0.0572*%
%ADD100C,0.1162*%
%ADD99C,0.0454*%
%ADD98C,0.0532*%
%ADD97C,0.0729*%
%ADD96C,0.1005*%
G54D96*X20000Y20000D03*
G54D97*X16457Y27480D03*
G54D98*X22362Y27087D03*
G54D99*X25906Y23937D03*
G54D96*X108000Y20000D03*
G54D97*X104457Y27480D03*
G54D98*X110362Y27087D03*
G54D99*X113906Y23937D03*
G54D96*X72000Y42500D03*
X88000Y40000D03*
G54D99*X93906Y43937D03*
G54D96*X56000Y42500D03*
X40000Y40000D03*
G54D99*X45906Y43937D03*
G54D98*X74362Y49587D03*
G54D99*X77906Y46437D03*
G54D97*X84457Y47480D03*
G54D98*X90362Y47087D03*
G54D97*X68457Y49980D03*
X52457D03*
G54D98*X58362Y49587D03*
G54D99*X61906Y46437D03*
G54D97*X36457Y47480D03*
G54D98*X42362Y47087D03*
G54D97*X39319Y107004D03*
G54D100*X38531Y93500D03*
G54D101*X36957Y71020D03*
X46996D03*
X66524Y97043D03*
X58492D03*
X50461D03*
X62508Y89957D03*
X54476D03*
X70539D03*
G54D96*X20000Y107000D03*
G54D99*X25906Y110937D03*
G54D97*X16457Y114480D03*
G54D98*X22362Y114087D03*
G54D101*X82035Y71020D03*
X92075D03*
G54D97*X89713Y107004D03*
G54D100*X90500Y93500D03*
G54D101*X74555Y97043D03*
X78571Y89957D03*
G54D96*X108000Y107000D03*
G54D97*X104457Y114480D03*
G54D98*X110362Y114087D03*
G54D99*X113906Y110937D03*
G54D102*G36*
X58273Y115252D02*X52555D01*
Y108748D01*
X58273D01*
Y115252D01*
G37*
G36*
X65359D02*X59641D01*
Y108748D01*
X65359D01*
Y115252D01*
G37*
G54D103*X66431Y106500D02*X69431D01*
X70131Y105800D01*
G54D102*G36*
X69131Y106800D02*Y104800D01*
X71631D01*
Y106800D01*
X69131D01*
G37*
G54D103*X68531Y105900D02*X69131Y106500D01*
X67931D02*X68531Y105900D01*
X65731Y105800D02*X66431Y106500D01*
G54D102*G36*
X63231Y106800D02*Y104800D01*
X66731D01*
Y106800D01*
X63231D01*
G37*
G54D103*X66731Y106500D02*X67331Y105900D01*
X67931Y106500D01*
X66431Y103900D02*X69531D01*
X66431D02*X66631D01*
X69531D02*X70131Y104500D01*
G54D102*G36*
X69131Y105500D02*Y103500D01*
X71631D01*
Y105500D01*
X69131D01*
G37*
G54D103*X65831Y104500D02*X66431Y103900D01*
G54D102*G36*
X63231Y105500D02*Y103500D01*
X66831D01*
Y105500D01*
X63231D01*
G37*
G54D103*X66631Y103900D02*X67331Y104600D01*
X68031Y103900D01*
X67831D02*X68531Y104600D01*
X69231Y103900D01*
X69531Y82900D02*Y79900D01*
Y82900D02*X70231Y83600D01*
G54D102*G36*
X71231Y85100D02*X69231D01*
Y82600D01*
X71231D01*
Y85100D01*
G37*
G54D103*X69531Y82600D02*X70131Y82000D01*
X69531Y81400D02*X70131Y82000D01*
X69531Y79900D02*X70231Y79200D01*
G54D102*G36*
X71231Y80200D02*X69231D01*
Y76700D01*
X71231D01*
Y80200D01*
G37*
G54D103*X69531D02*X70131Y80800D01*
X69531Y81400D02*X70131Y80800D01*
X72131Y83000D02*Y79900D01*
Y80100D02*Y79900D01*
X71531Y83600D02*X72131Y83000D01*
G54D102*G36*
X72531Y85100D02*X70531D01*
Y82600D01*
X72531D01*
Y85100D01*
G37*
G54D103*X71531Y79300D02*X72131Y79900D01*
G54D102*G36*
X72531Y80300D02*X70531D01*
Y76700D01*
X72531D01*
Y80300D01*
G37*
G54D103*X71431Y80800D02*X72131Y80100D01*
X71431Y80800D02*X72131Y81500D01*
X71431Y82000D02*X72131Y81300D01*
X71431Y82000D02*X72131Y82700D01*
M02*
