G04 start of page 10 for group -4079 idx -4079 *
G04 Title: (unknown), topsilk *
G04 Creator: pcb 4.2.0 *
G04 CreationDate: Sun Aug 30 22:39:59 2020 UTC *
G04 For: commonadmin *
G04 Format: Gerber/RS-274X *
G04 PCB-Dimensions (mil): 1000.00 1250.00 *
G04 PCB-Coordinate-Origin: lower left *
%MOIN*%
%FSLAX25Y25*%
%LNTOPSILK*%
%ADD99C,0.0250*%
%ADD98C,0.0100*%
%ADD97C,0.0040*%
%ADD96C,0.0030*%
%ADD95C,0.0060*%
G54D95*X32672Y89543D02*X31098Y87969D01*
X32672D02*X31098Y89543D01*
G54D96*X61205Y68500D02*X61580Y68875D01*
X60605Y68500D02*X61205D01*
X60605D02*X60080Y69025D01*
Y69475D02*Y69025D01*
Y69475D02*X60605Y70000D01*
X61205D01*
X61580Y69625D02*X61205Y70000D01*
X61580Y69625D02*Y68875D01*
X59555Y68500D02*X60080Y69025D01*
X58955Y68500D02*X59555D01*
X58955D02*X58580Y68875D01*
Y69625D02*Y68875D01*
Y69625D02*X58955Y70000D01*
X59555D01*
X60080Y69475D02*X59555Y70000D01*
X61205Y70900D02*X58955Y73150D01*
X61580Y75550D02*Y74050D01*
Y75550D02*X61205Y75925D01*
X60305D02*X61205D01*
X59930Y75550D02*X60305Y75925D01*
X59930Y75550D02*Y74425D01*
X58580D02*X61580D01*
X58580Y75550D02*Y74050D01*
Y75550D02*X58955Y75925D01*
X59555D01*
X59930Y75550D02*X59555Y75925D01*
X60455Y77200D02*X61580D01*
X60455D02*X60080Y77575D01*
Y78325D02*Y77575D01*
Y76825D02*X60455Y77200D01*
X56698Y93718D02*X53698Y95218D01*
Y93343D01*
X56323Y96118D02*X54073Y98368D01*
X53698Y99268D02*X55198D01*
X56698Y99643D01*
X55198Y100393D01*
X56698Y101143D01*
X55198Y101518D01*
X53698D02*X55198D01*
X56698Y103918D02*Y102418D01*
Y103918D02*X56323Y104293D01*
X55423D02*X56323D01*
X55048Y103918D02*X55423Y104293D01*
X55048Y103918D02*Y102793D01*
X53698D02*X56698D01*
X53698Y103918D02*Y102418D01*
Y103918D02*X54073Y104293D01*
X54673D01*
X55048Y103918D02*X54673Y104293D01*
X55573Y105568D02*X56698D01*
X55573D02*X55198Y105943D01*
Y106693D02*Y105943D01*
Y105193D02*X55573Y105568D01*
X51316Y69625D02*X51691Y70000D01*
X51316Y69625D02*Y68875D01*
X51691Y68500D02*X51316Y68875D01*
X51691Y68500D02*X53941D01*
X54316Y68875D01*
X52666Y69625D02*X53041Y70000D01*
X52666Y69625D02*Y68500D01*
X54316Y69625D02*Y68875D01*
Y69625D02*X53941Y70000D01*
X53041D02*X53941D01*
Y70900D02*X51691Y73150D01*
Y74050D02*X53941D01*
X51691D02*X51316Y74425D01*
Y75175D02*Y74425D01*
Y75175D02*X51691Y75550D01*
X53941D01*
X54316Y75175D02*X53941Y75550D01*
X54316Y75175D02*Y74425D01*
X53941Y74050D02*X54316Y74425D01*
X45647Y94843D02*Y93343D01*
X47147D01*
X46772Y93718D01*
Y94468D02*Y93718D01*
Y94468D02*X47147Y94843D01*
X48272D01*
X48647Y94468D02*X48272Y94843D01*
X48647Y94468D02*Y93718D01*
X48272Y93343D02*X48647Y93718D01*
X48272Y95743D02*X46022Y97993D01*
X45647Y98893D02*X47147D01*
X48647Y99268D01*
X47147Y100018D01*
X48647Y100768D01*
X47147Y101143D01*
X45647D02*X47147D01*
X48647Y103543D02*Y102043D01*
Y103543D02*X48272Y103918D01*
X47372D02*X48272D01*
X46997Y103543D02*X47372Y103918D01*
X46997Y103543D02*Y102418D01*
X45647D02*X48647D01*
X45647Y103543D02*Y102043D01*
Y103543D02*X46022Y103918D01*
X46622D01*
X46997Y103543D02*X46622Y103918D01*
X45647Y104818D02*X48272D01*
X48647Y105193D01*
X43034Y68106D02*X41159Y69606D01*
X43034Y69981D02*Y68106D01*
X41159Y69606D02*X44159D01*
X43784Y70881D02*X41534Y73131D01*
X44159Y75531D02*Y74031D01*
Y75531D02*X43784Y75906D01*
X42884D02*X43784D01*
X42509Y75531D02*X42884Y75906D01*
X42509Y75531D02*Y74406D01*
X41159D02*X44159D01*
X41159Y75531D02*Y74031D01*
Y75531D02*X41534Y75906D01*
X42134D01*
X42509Y75531D02*X42134Y75906D01*
X41159Y76806D02*X43784D01*
X44159Y77181D01*
X38758Y93343D02*X38383Y93718D01*
Y94468D02*Y93718D01*
Y94468D02*X38758Y94843D01*
X41383Y94468D02*X41008Y94843D01*
X41383Y94468D02*Y93718D01*
X41008Y93343D02*X41383Y93718D01*
X39733Y94468D02*Y93718D01*
X38758Y94843D02*X39358D01*
X40108D02*X41008D01*
X40108D02*X39733Y94468D01*
X39358Y94843D02*X39733Y94468D01*
X41008Y95743D02*X38758Y97993D01*
X38383Y98893D02*X39883D01*
X41383Y99268D01*
X39883Y100018D01*
X41383Y100768D01*
X39883Y101143D01*
X38383D02*X39883D01*
X38758Y102043D02*X41008D01*
X38758D02*X38383Y102418D01*
Y103168D02*Y102418D01*
Y103168D02*X38758Y103543D01*
X41008D01*
X41383Y103168D02*X41008Y103543D01*
X41383Y103168D02*Y102418D01*
X41008Y102043D02*X41383Y102418D01*
X33876Y68106D02*X33501Y68481D01*
Y69606D02*Y68481D01*
Y69606D02*X33876Y69981D01*
X34626D01*
X36501Y68106D02*X34626Y69981D01*
X36501D02*Y68106D01*
X36126Y70881D02*X33876Y73131D01*
X33501Y75531D02*X33876Y75906D01*
X33501Y75531D02*Y74406D01*
X33876Y74031D02*X33501Y74406D01*
X33876Y74031D02*X36126D01*
X36501Y74406D01*
Y75531D02*Y74406D01*
Y75531D02*X36126Y75906D01*
X35376D02*X36126D01*
X35001Y75531D02*X35376Y75906D01*
X35001Y75531D02*Y74781D01*
X31030Y93283D02*X30430Y93883D01*
X33430D01*
Y94408D02*Y93283D01*
X33055Y95308D02*X30805Y97558D01*
X30430Y98458D02*X31930D01*
X33430Y98833D01*
X31930Y99583D01*
X33430Y100333D01*
X31930Y100708D01*
X30430D02*X31930D01*
X30430Y103108D02*X30805Y103483D01*
X30430Y103108D02*Y101983D01*
X30805Y101608D02*X30430Y101983D01*
X30805Y101608D02*X33055D01*
X33430Y101983D01*
Y103108D02*Y101983D01*
Y103108D02*X33055Y103483D01*
X32305D02*X33055D01*
X31930Y103108D02*X32305Y103483D01*
X31930Y103108D02*Y102358D01*
X25011Y68600D02*X26511D01*
X25761Y71600D02*Y68600D01*
X22611D02*X24111D01*
Y70100D02*Y68600D01*
Y70100D02*X23736Y69725D01*
X22986D02*X23736D01*
X22986D02*X22611Y70100D01*
Y71225D02*Y70100D01*
X22986Y71600D02*X22611Y71225D01*
X22986Y71600D02*X23736D01*
X24111Y71225D02*X23736Y71600D01*
X20586Y68600D02*X20211Y68975D01*
X20586Y68600D02*X21336D01*
X21711Y68975D02*X21336Y68600D01*
X21711Y71225D02*Y68975D01*
Y71225D02*X21336Y71600D01*
X20586Y69950D02*X20211Y70325D01*
X20586Y69950D02*X21711D01*
X20586Y71600D02*X21336D01*
X20586D02*X20211Y71225D01*
Y70325D01*
X19311Y71225D02*X18936Y71600D01*
X19311Y71225D02*Y70625D01*
X18786Y70100D01*
X18336D02*X18786D01*
X18336D02*X17811Y70625D01*
Y71225D02*Y70625D01*
X18186Y71600D02*X17811Y71225D01*
X18186Y71600D02*X18936D01*
X19311Y69575D02*X18786Y70100D01*
X19311Y69575D02*Y68975D01*
X18936Y68600D01*
X18186D02*X18936D01*
X18186D02*X17811Y68975D01*
Y69575D02*Y68975D01*
X18336Y70100D02*X17811Y69575D01*
X16911Y71600D02*Y69350D01*
X16386Y68600D01*
X15561D02*X16386D01*
X15561D02*X15036Y69350D01*
Y71600D02*Y69350D01*
Y70100D02*X16911D01*
X17575Y43935D02*X19075Y45810D01*
X17575Y43935D02*X19450D01*
X19075Y45810D02*Y42810D01*
X20350Y43185D02*X22600Y45435D01*
X23500Y42810D02*X25000D01*
X25375Y43185D01*
Y44085D02*Y43185D01*
X25000Y44460D02*X25375Y44085D01*
X23875Y44460D02*X25000D01*
X23875Y45810D02*Y42810D01*
X23500Y45810D02*X25000D01*
X25375Y45435D01*
Y44835D01*
X25000Y44460D02*X25375Y44835D01*
X26275Y45810D02*Y43185D01*
X26650Y42810D01*
G54D97*X15969Y49500D02*X16469Y49000D01*
X14969Y49500D02*X15969D01*
X14469Y49000D02*X14969Y49500D01*
X14469Y49000D02*Y48000D01*
X14969Y47500D01*
X16469Y49500D02*Y48000D01*
X16969Y47500D01*
X14969D02*X15969D01*
X16469Y48000D01*
X18669Y51500D02*Y47500D01*
X18169Y51500D02*X20169D01*
X20669Y51000D01*
Y50000D01*
X20169Y49500D02*X20669Y50000D01*
X18669Y49500D02*X20169D01*
X25969Y51500D02*Y47500D01*
Y48000D02*X26469Y47500D01*
X27469D01*
X27969Y48000D01*
Y49000D02*Y48000D01*
X27469Y49500D02*X27969Y49000D01*
X26469Y49500D02*X27469D01*
X25969Y49000D02*X26469Y49500D01*
X29669Y51500D02*Y47500D01*
X29169Y51500D02*X31169D01*
X31669Y51000D01*
Y50000D01*
X31169Y49500D02*X31669Y50000D01*
X29669Y49500D02*X31169D01*
G54D96*X33811Y48710D02*X34186Y49085D01*
X34936D01*
X35311Y48710D01*
X34936Y46085D02*X35311Y46460D01*
X34186Y46085D02*X34936D01*
X33811Y46460D02*X34186Y46085D01*
Y47735D02*X34936D01*
X35311Y48710D02*Y48110D01*
Y47360D02*Y46460D01*
Y47360D02*X34936Y47735D01*
X35311Y48110D02*X34936Y47735D01*
X36211Y46460D02*X38461Y48710D01*
X39361Y49085D02*Y47585D01*
X39736Y46085D01*
X40486Y47585D01*
X41236Y46085D01*
X41611Y47585D01*
Y49085D02*Y47585D01*
X42511Y48710D02*Y46460D01*
Y48710D02*X42886Y49085D01*
X43636D01*
X44011Y48710D01*
Y46460D01*
X43636Y46085D02*X44011Y46460D01*
X42886Y46085D02*X43636D01*
X42511Y46460D02*X42886Y46085D01*
X65811Y45822D02*X67311D01*
X65811D02*Y44322D01*
X66186Y44697D01*
X66936D01*
X67311Y44322D01*
Y43197D01*
X66936Y42822D02*X67311Y43197D01*
X66186Y42822D02*X66936D01*
X65811Y43197D02*X66186Y42822D01*
X68211Y43197D02*X70461Y45447D01*
X71361Y45822D02*Y44322D01*
X71736Y42822D01*
X72486Y44322D01*
X73236Y42822D01*
X73611Y44322D01*
Y45822D02*Y44322D01*
X74511Y42822D02*X76011D01*
X76386Y43197D01*
Y44097D02*Y43197D01*
X76011Y44472D02*X76386Y44097D01*
X74886Y44472D02*X76011D01*
X74886Y45822D02*Y42822D01*
X74511Y45822D02*X76011D01*
X76386Y45447D01*
Y44847D01*
X76011Y44472D02*X76386Y44847D01*
X77286Y45822D02*Y43197D01*
X77661Y42822D01*
G54D97*X61969Y52000D02*Y48000D01*
Y48500D02*X62469Y48000D01*
X63469D01*
X63969Y48500D01*
Y49500D02*Y48500D01*
X63469Y50000D02*X63969Y49500D01*
X62469Y50000D02*X63469D01*
X61969Y49500D02*X62469Y50000D01*
X65169Y52000D02*Y48000D01*
Y52000D02*X66669Y50000D01*
X68169Y52000D01*
Y48000D01*
X72969Y50000D02*X73469Y49500D01*
X71969Y50000D02*X72969D01*
X71469Y49500D02*X71969Y50000D01*
X71469Y49500D02*Y48500D01*
X71969Y48000D01*
X73469Y50000D02*Y48500D01*
X73969Y48000D01*
X71969D02*X72969D01*
X73469Y48500D01*
X75169Y52000D02*Y48000D01*
Y52000D02*X76669Y50000D01*
X78169Y52000D01*
Y48000D01*
G54D96*X51094Y49152D02*X51469Y48777D01*
X50344Y49152D02*X51094D01*
X49969Y48777D02*X50344Y49152D01*
X49969Y48777D02*Y46527D01*
X50344Y46152D01*
X51094Y47802D02*X51469Y47427D01*
X49969Y47802D02*X51094D01*
X50344Y46152D02*X51094D01*
X51469Y46527D01*
Y47427D02*Y46527D01*
X52369D02*X54619Y48777D01*
X55519D02*Y46527D01*
Y48777D02*X55894Y49152D01*
X56644D01*
X57019Y48777D01*
Y46527D01*
X56644Y46152D02*X57019Y46527D01*
X55894Y46152D02*X56644D01*
X55519Y46527D02*X55894Y46152D01*
X49969Y50264D02*X50344Y49889D01*
X49969Y50864D02*Y50264D01*
Y50864D02*X50494Y51389D01*
X50944D01*
X51469Y50864D01*
Y50264D01*
X51094Y49889D02*X51469Y50264D01*
X50344Y49889D02*X51094D01*
X49969Y51914D02*X50494Y51389D01*
X49969Y52514D02*Y51914D01*
Y52514D02*X50344Y52889D01*
X51094D01*
X51469Y52514D01*
Y51914D01*
X50944Y51389D02*X51469Y51914D01*
X52369Y50264D02*X54619Y52514D01*
X55519Y49889D02*X57019D01*
X57394Y50264D01*
Y51164D02*Y50264D01*
X57019Y51539D02*X57394Y51164D01*
X55894Y51539D02*X57019D01*
X55894Y52889D02*Y49889D01*
X55519Y52889D02*X57019D01*
X57394Y52514D01*
Y51914D01*
X57019Y51539D02*X57394Y51914D01*
X58669Y51014D02*Y49889D01*
Y51014D02*X59044Y51389D01*
X59794D01*
X58294D02*X58669Y51014D01*
X33686Y49770D02*X35186Y52770D01*
X33311D02*X35186D01*
X36086Y50145D02*X38336Y52395D01*
X39236Y52770D02*Y51270D01*
X39611Y49770D01*
X40361Y51270D01*
X41111Y49770D01*
X41486Y51270D01*
Y52770D02*Y51270D01*
X42386Y49770D02*X43886D01*
X44261Y50145D01*
Y51045D02*Y50145D01*
X43886Y51420D02*X44261Y51045D01*
X42761Y51420D02*X43886D01*
X42761Y52770D02*Y49770D01*
X42386Y52770D02*X43886D01*
X44261Y52395D01*
Y51795D01*
X43886Y51420D02*X44261Y51795D01*
X45536Y50895D02*Y49770D01*
Y50895D02*X45911Y51270D01*
X46661D01*
X45161D02*X45536Y50895D01*
G54D95*X69213Y62520D02*X70000D01*
X67047D02*X67835D01*
Y63701D02*Y61339D01*
X69213Y63504D02*Y61535D01*
X68228Y62520D02*X69213Y63504D01*
Y61535D02*X68228Y62520D01*
X23917Y61461D02*X22933Y62445D01*
X23917Y63429D01*
Y61461D01*
X22539Y63626D02*Y61264D01*
X21752Y62445D02*X22539D01*
X23917D02*X24705D01*
G54D98*X32008Y88543D02*Y81457D01*
X59961Y88543D02*Y81457D01*
G54D95*X24528Y88543D02*X67638D01*
X24528Y81457D02*X67638D01*
X45197Y85000D02*X46772D01*
X45984Y85787D02*Y84213D01*
X77874Y114528D02*Y112559D01*
X75906Y114528D02*X77874D01*
X14094D02*Y112559D01*
Y114528D02*X16063D01*
X77874Y57441D02*Y55472D01*
X75906D02*X77874D01*
X14094Y57441D02*Y55472D01*
X16063D01*
X28858Y90118D02*X27874Y91102D01*
X28858D02*X27874Y90118D01*
G54D99*X49925Y41480D02*Y37543D01*
X53469Y34000D01*
X49925Y42000D02*X54917D01*
X59374Y37937D02*X58980D01*
X54917Y42000D02*X58980Y37937D01*
X65925Y38980D02*Y35043D01*
X69469Y31500D01*
X65925Y39500D02*X70917D01*
X75374Y35437D02*X74980D01*
X70917Y39500D02*X74980Y35437D01*
X33925Y41480D02*Y37543D01*
X37469Y34000D01*
X33925Y42000D02*X38917D01*
X43374Y37937D02*X42980D01*
X38917Y42000D02*X42980Y37937D01*
X17925Y38980D02*Y35043D01*
X21469Y31500D01*
X17925Y39500D02*X22917D01*
X27374Y35437D02*X26980D01*
X22917Y39500D02*X26980Y35437D01*
G54D97*X26105Y109261D02*X25605Y109761D01*
X26105Y109261D02*X27605D01*
X28105Y109761D02*X27605Y109261D01*
X28105Y110761D02*Y109761D01*
Y110761D02*X27605Y111261D01*
X26105D02*X27605D01*
X26105D02*X25605Y111761D01*
Y112761D02*Y111761D01*
X26105Y113261D02*X25605Y112761D01*
X26105Y113261D02*X27605D01*
X28105Y112761D02*X27605Y113261D01*
X22405Y109261D02*X24405D01*
X23405Y113261D02*Y109261D01*
X19705Y111061D02*X21205D01*
X19205Y113261D02*X21205D01*
Y109261D01*
X19205D02*X21205D01*
X17505Y113261D02*Y109261D01*
X16005D02*X18005D01*
X16005D02*X15505Y109761D01*
Y110761D02*Y109761D01*
X16005Y111261D02*X15505Y110761D01*
X16005Y111261D02*X17505D01*
X49469Y24500D02*X51469D01*
X51969Y25000D01*
Y26200D02*Y25000D01*
X51469Y26700D02*X51969Y26200D01*
X49969Y26700D02*X51469D01*
X49969Y28500D02*Y24500D01*
X49469Y28500D02*X51469D01*
X51969Y28000D01*
Y27200D01*
X51469Y26700D02*X51969Y27200D01*
X53169Y28500D02*Y24500D01*
X55169D01*
X56369Y27500D02*Y24500D01*
Y27500D02*X57069Y28500D01*
X58169D01*
X58869Y27500D01*
Y24500D01*
X56369Y26500D02*X58869D01*
X60769Y24500D02*X62069D01*
X60069Y25200D02*X60769Y24500D01*
X60069Y27800D02*Y25200D01*
Y27800D02*X60769Y28500D01*
X62069D01*
X63269D02*Y24500D01*
Y26500D02*X65269Y28500D01*
X63269Y26500D02*X65269Y24500D01*
X66469Y26000D02*X68469D01*
X68969Y25500D01*
Y24500D01*
X68469Y24000D02*X68969Y24500D01*
X66969Y24000D02*X68469D01*
X66969Y26000D02*Y22000D01*
X67769Y24000D02*X68969Y22000D01*
X70169Y24200D02*X71669D01*
X70169Y22000D02*X72169D01*
X70169Y26000D02*Y22000D01*
Y26000D02*X72169D01*
X73869D02*Y22000D01*
X75169Y26000D02*X75869Y25300D01*
Y22700D01*
X75169Y22000D02*X75869Y22700D01*
X73369Y22000D02*X75169D01*
X73369Y26000D02*X75169D01*
X29469Y28500D02*X29969Y28000D01*
X27969Y28500D02*X29469D01*
X27469Y28000D02*X27969Y28500D01*
X27469Y28000D02*Y25000D01*
X27969Y24500D01*
X29469D01*
X29969Y25000D01*
Y26000D02*Y25000D01*
X29469Y26500D02*X29969Y26000D01*
X28469Y26500D02*X29469D01*
X31169Y28500D02*X33169D01*
X33669Y28000D01*
Y27000D01*
X33169Y26500D02*X33669Y27000D01*
X31669Y26500D02*X33169D01*
X31669Y28500D02*Y24500D01*
X32469Y26500D02*X33669Y24500D01*
X34869Y26700D02*X36369D01*
X34869Y24500D02*X36869D01*
X34869Y28500D02*Y24500D01*
Y28500D02*X36869D01*
X38069Y26700D02*X39569D01*
X38069Y24500D02*X40069D01*
X38069Y28500D02*Y24500D01*
Y28500D02*X40069D01*
X41269D02*Y24500D01*
Y28500D02*X43769Y24500D01*
Y28500D02*Y24500D01*
X14469Y22000D02*X16469D01*
X16969Y22500D01*
Y23700D02*Y22500D01*
X16469Y24200D02*X16969Y23700D01*
X14969Y24200D02*X16469D01*
X14969Y26000D02*Y22000D01*
X14469Y26000D02*X16469D01*
X16969Y25500D01*
Y24700D01*
X16469Y24200D02*X16969Y24700D01*
X18169Y26000D02*Y22000D01*
X20169D01*
X21369Y26000D02*Y22500D01*
X21869Y22000D01*
X22869D01*
X23369Y22500D01*
Y26000D02*Y22500D01*
X24569Y24200D02*X26069D01*
X24569Y22000D02*X26569D01*
X24569Y26000D02*Y22000D01*
Y26000D02*X26569D01*
M02*
