G04 start of page 2 for group 0 idx 0 *
G04 Title: (unknown), P1_W1 *
G04 Creator: pcb 4.2.0 *
G04 CreationDate: Mon Sep 28 05:23:24 2020 UTC *
G04 For: commonadmin *
G04 Format: Gerber/RS-274X *
G04 PCB-Dimensions (mil): 1250.00 1500.00 *
G04 PCB-Coordinate-Origin: lower left *
%MOIN*%
%FSLAX25Y25*%
%LNTOP*%
%ADD28C,0.0354*%
%ADD27C,0.0197*%
%ADD26C,0.0295*%
%ADD25C,0.0492*%
%ADD24C,0.0787*%
%ADD23C,0.0100*%
%ADD22C,0.0130*%
%ADD21C,0.0200*%
%ADD20C,0.0230*%
%ADD19C,0.0512*%
%ADD18C,0.1102*%
%ADD17C,0.0394*%
%ADD16C,0.0472*%
%ADD15C,0.0669*%
%ADD14C,0.0945*%
%ADD13C,0.0140*%
%ADD12C,0.0060*%
%ADD11C,0.0250*%
G54D11*X78571Y89957D02*X70539D01*
X78571D02*X77457D01*
X78543D02*X78457D01*
X76500Y88000D01*
X72496D01*
X70539Y89957D01*
X74555Y97043D02*X73043D01*
X71000Y95000D01*
G54D12*X94000Y100500D02*X86000D01*
X97000Y97500D02*X94000Y100500D01*
X82000Y104500D02*X86000Y100500D01*
G54D13*Y101000D02*X93000D01*
G54D12*X92500Y86000D02*X88500D01*
X97000Y90500D02*X92500Y86000D01*
X97000Y97500D02*Y90500D01*
X71500Y104500D02*X82000D01*
X54476Y78500D02*Y89957D01*
X82000Y71055D02*X82035Y71020D01*
X82000Y79500D02*Y71055D01*
X88500Y86000D02*X82000Y79500D01*
X54476Y78500D02*X46996Y71020D01*
X68000Y101000D02*X71500Y104500D01*
X64000Y101000D02*X68000D01*
G54D13*X64000Y101500D02*X67500D01*
G54D12*X63500Y100500D02*X64000Y101000D01*
X62000Y100500D02*X63500D01*
X62000D02*X62500D01*
G54D13*X62000D02*X63000D01*
X64000Y101500D01*
X67500D02*X71000Y105000D01*
X82000D01*
X86000Y101000D01*
X42500Y101500D02*X36000D01*
G54D11*X70539Y89957D02*Y86961D01*
X72500Y87996D02*X70539Y89957D01*
X72500Y86500D02*X73000D01*
X70539Y86961D02*X72500Y85000D01*
X73000Y86500D02*X74500Y85000D01*
Y60500D01*
X72500Y59000D02*Y87996D01*
X81500Y58000D02*X73500D01*
X72500Y59000D01*
X74500Y60500D02*X75000Y60000D01*
X82000D01*
X84457Y47480D02*Y55043D01*
X81500Y58000D01*
X82000Y60000D02*X86000Y56000D01*
Y55043D01*
X84457Y53500D01*
X82250Y57250D02*Y49687D01*
X84457Y47480D01*
X45000Y59000D02*X40000D01*
X36457Y55457D01*
X38000Y54000D02*X41000Y57000D01*
X45000D01*
X46500Y58500D01*
X36457Y47480D02*Y48957D01*
X38000Y50500D01*
X36457Y47480D02*Y55457D01*
X38000Y50500D02*Y54000D01*
X57500Y67000D02*X56000Y65500D01*
X55500Y67000D02*X54000Y65500D01*
X55500Y66500D02*Y69000D01*
Y67000D01*
X46500Y58500D02*Y63500D01*
X51500Y65500D02*X45000Y59000D01*
X46500Y63500D02*X48500Y65500D01*
X56000D02*X48500D01*
X51500D02*X52000D01*
X50250Y64250D02*X53250D01*
X46500Y62500D02*X43000Y59000D01*
X53250Y64250D02*X55500Y66500D01*
X57500Y71000D02*X52000Y65500D01*
X57500Y71000D02*X55500Y69000D01*
X57500Y72000D02*Y67000D01*
X58492Y97043D02*X60535Y95000D01*
X62000D01*
X57500Y83500D02*Y71000D01*
G54D12*X89094Y74000D02*X92075Y71020D01*
X84500Y74000D02*X89094D01*
X83500Y75000D02*X84500Y74000D01*
X83500Y79000D02*Y75000D01*
X89000Y84500D02*X83500Y79000D01*
X93000Y84500D02*X89000D01*
X98500Y90000D02*X93000Y84500D01*
X53000Y86000D02*Y79000D01*
X46500Y92500D02*X53000Y86000D01*
X46500Y102000D02*Y92500D01*
X51000Y106500D02*X46500Y102000D01*
X62500Y109000D02*X60000Y106500D01*
X63500Y106000D02*X62500Y107000D01*
X60000Y106500D02*X51000D01*
X62500Y109500D02*Y109000D01*
X55000Y95500D02*Y104500D01*
X62500Y107000D02*Y109500D01*
X62508Y89957D02*X60543D01*
G54D11*X62500Y89949D02*X62508Y89957D01*
Y89508D01*
X62500Y87000D02*X63000Y86500D01*
G54D12*X60543Y89957D02*X55000Y95500D01*
G54D11*X61000Y84700D02*X62900Y86600D01*
X61000Y88449D02*X62508Y89957D01*
G54D12*X98500Y90000D02*Y99000D01*
X94000Y103500D01*
X92500D01*
X91750Y102750D01*
X87250D01*
X83000Y107000D01*
X64500D01*
X63500Y106000D01*
X40937Y75000D02*X36957Y71020D01*
X49000Y75000D02*X40937D01*
X53000Y79000D02*X49000Y75000D01*
G54D11*X52457Y58457D02*X53000Y59000D01*
X61500D01*
X62500Y60000D01*
X63000D02*X62000Y59000D01*
X56500D01*
X60500Y61000D02*X60000Y60500D01*
X62500Y60000D02*Y89949D01*
X63000Y86500D02*Y60000D01*
X60500Y60500D02*Y64900D01*
X61000Y65400D01*
Y88449D01*
X60000Y60500D02*X52000D01*
X50500Y59000D01*
Y51937D01*
X52457Y49980D02*Y58457D01*
X50500Y51937D02*X52457Y49980D01*
X66500Y51937D02*X68457Y49980D01*
X68500Y57000D02*X66500Y55000D01*
Y57000D02*X64500Y55000D01*
Y52000D01*
X66500Y50000D01*
X68500D01*
X66500Y97020D02*X66524Y97043D01*
X67543D01*
X66500Y86000D02*X68500Y84000D01*
G54D13*X66500Y92000D02*Y88000D01*
G54D11*Y97020D02*Y92000D01*
X68500Y84000D02*Y57000D01*
X66500Y88000D02*Y51937D01*
X67543Y97043D02*X72500Y102000D01*
X78500D01*
X83000Y97500D01*
Y86500D01*
X79500Y83000D01*
G54D14*X108000Y107000D03*
G54D15*X104457Y114480D03*
G54D16*X110362Y114087D03*
G54D17*X113906Y110937D03*
G54D15*X89713Y107004D03*
G54D18*X90500Y93500D03*
G54D14*X108000Y20000D03*
G54D15*X104457Y27480D03*
G54D16*X110362Y27087D03*
G54D17*X113906Y23937D03*
G54D16*X74362Y49587D03*
G54D17*X77906Y46437D03*
G54D15*X84457Y47480D03*
G54D16*X90362Y47087D03*
G54D19*X82035Y71020D03*
X92075D03*
G54D14*X20000Y107000D03*
G54D15*X16457Y114480D03*
G54D16*X22362Y114087D03*
G54D17*X25906Y110937D03*
G54D15*X39319Y107004D03*
G54D18*X38531Y93500D03*
G54D19*X58492Y97043D03*
X50461D03*
X54476Y89957D03*
X66524Y97043D03*
X74555D03*
X62508Y89957D03*
X70539D03*
X78571D03*
G54D14*X20000Y20000D03*
G54D15*X16457Y27480D03*
G54D16*X22362Y27087D03*
G54D17*X25906Y23937D03*
G54D14*X72000Y42500D03*
X88000Y40000D03*
G54D17*X93906Y43937D03*
G54D14*X56000Y42500D03*
X40000Y40000D03*
G54D17*X45906Y43937D03*
G54D15*X68457Y49980D03*
X52457D03*
G54D16*X58362Y49587D03*
G54D17*X61906Y46437D03*
G54D15*X36457Y47480D03*
G54D16*X42362Y47087D03*
G54D19*X36957Y71020D03*
X46996D03*
G54D20*X93000Y101000D03*
X79500Y83000D03*
G54D21*X55000Y104500D03*
X62500Y109500D03*
G54D20*X42500Y101500D03*
X36000D03*
X62000Y100500D03*
X57500Y83500D03*
X54500Y66500D03*
X67500Y82000D03*
Y66000D03*
X73500Y79000D03*
Y66500D03*
X62000Y80000D03*
Y66000D03*
G54D22*G54D23*G54D22*G54D24*G54D25*G54D26*G54D27*G54D19*G54D14*G54D24*G54D25*G54D26*G54D27*G54D26*G54D27*G54D25*G54D26*G54D28*G54D24*G54D25*G54D26*G54D27*G54D19*G54D14*G54D28*G54D24*G54D25*G54D26*G54D27*G54D24*G54D27*G54D24*G54D27*G54D25*G54D26*G54D27*G54D25*G54D26*G54D28*M02*
