G04 start of page 4 for group 2 idx 13 *
G04 Title: (unknown), jump *
G04 Creator: pcb 4.2.0 *
G04 CreationDate: Sun Aug 30 21:45:36 2020 UTC *
G04 For: commonadmin *
G04 Format: Gerber/RS-274X *
G04 PCB-Dimensions (mil): 11000.00 7000.00 *
G04 PCB-Coordinate-Origin: lower left *
%MOIN*%
%FSLAX25Y25*%
%LNBOTTOM*%
%ADD46C,0.0197*%
%ADD45C,0.0295*%
%ADD44C,0.0787*%
%ADD43C,0.0354*%
%ADD42C,0.0492*%
%ADD41C,0.0100*%
%ADD40C,0.0200*%
%ADD39C,0.0394*%
%ADD38C,0.0472*%
%ADD37C,0.0945*%
%ADD36C,0.0512*%
%ADD35C,0.1102*%
%ADD34C,0.0669*%
%ADD33C,0.0140*%
%ADD32C,0.0160*%
%ADD31C,0.0250*%
%ADD30C,0.0060*%
%ADD29C,0.0001*%
G54D29*G36*
X74487Y674004D02*X74514Y673800D01*
X74528Y673504D01*
X74514Y673208D01*
X74487Y673004D01*
Y674004D01*
G37*
G36*
Y689500D02*X78000D01*
Y662456D01*
X77860Y662789D01*
X77590Y663299D01*
X77277Y663782D01*
X77226Y663844D01*
X77166Y663896D01*
X77099Y663938D01*
X77026Y663969D01*
X76949Y663988D01*
X76869Y663995D01*
X76790Y663990D01*
X76712Y663972D01*
X76639Y663942D01*
X76571Y663901D01*
X76510Y663850D01*
X76457Y663790D01*
X76415Y663723D01*
X76384Y663650D01*
X76365Y663572D01*
X76358Y663493D01*
X76363Y663414D01*
X76381Y663336D01*
X76411Y663263D01*
X76453Y663195D01*
X76722Y662789D01*
X76950Y662359D01*
X77139Y661909D01*
X77287Y661445D01*
X77394Y660970D01*
X77459Y660487D01*
X77480Y660000D01*
X77459Y659513D01*
X77394Y659030D01*
X77287Y658555D01*
X77139Y658091D01*
X76950Y657641D01*
X76722Y657211D01*
X76457Y656802D01*
X76416Y656735D01*
X76386Y656662D01*
X76369Y656585D01*
X76363Y656507D01*
X76370Y656428D01*
X76389Y656352D01*
X76420Y656280D01*
X76462Y656213D01*
X76513Y656154D01*
X76574Y656103D01*
X76641Y656063D01*
X76714Y656033D01*
X76791Y656015D01*
X76869Y656010D01*
X76948Y656017D01*
X77024Y656036D01*
X77096Y656067D01*
X77163Y656109D01*
X77223Y656160D01*
X77272Y656221D01*
X77590Y656701D01*
X77860Y657211D01*
X78000Y657544D01*
Y622500D01*
X74487D01*
Y634086D01*
X74647Y634124D01*
X75164Y634339D01*
X75642Y634631D01*
X76068Y634995D01*
X76432Y635421D01*
X76724Y635899D01*
X76939Y636416D01*
X77069Y636961D01*
X77102Y637520D01*
X77069Y638078D01*
X76939Y638623D01*
X76724Y639140D01*
X76432Y639618D01*
X76068Y640044D01*
X75642Y640408D01*
X75164Y640701D01*
X74647Y640915D01*
X74487Y640953D01*
Y653995D01*
X74758Y654109D01*
X75267Y654378D01*
X75751Y654691D01*
X75812Y654742D01*
X75864Y654802D01*
X75907Y654870D01*
X75938Y654943D01*
X75957Y655020D01*
X75964Y655099D01*
X75958Y655178D01*
X75941Y655256D01*
X75911Y655330D01*
X75870Y655398D01*
X75819Y655459D01*
X75759Y655511D01*
X75691Y655553D01*
X75618Y655584D01*
X75541Y655604D01*
X75462Y655611D01*
X75382Y655605D01*
X75305Y655587D01*
X75231Y655558D01*
X75164Y655515D01*
X74758Y655246D01*
X74487Y655103D01*
Y664897D01*
X74758Y664754D01*
X75167Y664489D01*
X75233Y664447D01*
X75306Y664418D01*
X75383Y664400D01*
X75462Y664395D01*
X75540Y664402D01*
X75616Y664421D01*
X75689Y664451D01*
X75756Y664493D01*
X75815Y664545D01*
X75865Y664605D01*
X75906Y664673D01*
X75935Y664746D01*
X75953Y664822D01*
X75958Y664901D01*
X75952Y664979D01*
X75932Y665056D01*
X75902Y665128D01*
X75860Y665195D01*
X75808Y665254D01*
X75747Y665303D01*
X75267Y665622D01*
X74758Y665891D01*
X74487Y666005D01*
Y671352D01*
X74585Y671500D01*
X74749Y671809D01*
X74885Y672132D01*
X74992Y672465D01*
X75069Y672807D01*
X75116Y673154D01*
X75131Y673504D01*
X75116Y673854D01*
X75069Y674201D01*
X74992Y674543D01*
X74885Y674876D01*
X74749Y675199D01*
X74585Y675508D01*
X74487Y675659D01*
Y689500D01*
G37*
G36*
Y655103D02*X74327Y655018D01*
X73878Y654829D01*
X73538Y654721D01*
Y665279D01*
X73878Y665171D01*
X74327Y664982D01*
X74487Y664897D01*
Y655103D01*
G37*
G36*
Y640953D02*X74102Y641046D01*
X73543Y641090D01*
X73538Y641089D01*
Y653678D01*
X73678Y653710D01*
X74227Y653885D01*
X74487Y653995D01*
Y640953D01*
G37*
G36*
Y622500D02*X73538D01*
Y633950D01*
X73543Y633950D01*
X74102Y633994D01*
X74487Y634086D01*
Y622500D01*
G37*
G36*
X73538Y689500D02*X74487D01*
Y675659D01*
X74394Y675802D01*
X74364Y675839D01*
X74328Y675870D01*
X74287Y675895D01*
X74243Y675914D01*
X74197Y675925D01*
X74149Y675929D01*
X74102Y675926D01*
X74055Y675915D01*
X74011Y675897D01*
X73970Y675873D01*
X73934Y675842D01*
X73902Y675806D01*
X73877Y675765D01*
X73858Y675721D01*
X73847Y675675D01*
X73843Y675627D01*
X73846Y675580D01*
X73857Y675533D01*
X73875Y675489D01*
X73900Y675449D01*
X74065Y675202D01*
X74204Y674940D01*
X74319Y674666D01*
X74410Y674384D01*
X74475Y674094D01*
X74487Y674004D01*
Y673004D01*
X74475Y672913D01*
X74410Y672624D01*
X74319Y672341D01*
X74204Y672068D01*
X74065Y671806D01*
X73903Y671557D01*
X73878Y671517D01*
X73860Y671474D01*
X73849Y671428D01*
X73846Y671380D01*
X73850Y671333D01*
X73862Y671288D01*
X73880Y671244D01*
X73905Y671204D01*
X73936Y671168D01*
X73972Y671138D01*
X74012Y671114D01*
X74056Y671096D01*
X74102Y671085D01*
X74149Y671082D01*
X74196Y671086D01*
X74242Y671097D01*
X74286Y671116D01*
X74326Y671141D01*
X74361Y671171D01*
X74391Y671208D01*
X74487Y671352D01*
Y666005D01*
X74227Y666115D01*
X73678Y666290D01*
X73538Y666322D01*
Y670347D01*
X73547Y670357D01*
X73572Y670398D01*
X73591Y670442D01*
X73602Y670488D01*
X73607Y670536D01*
X73603Y670583D01*
X73592Y670630D01*
X73574Y670674D01*
X73550Y670715D01*
X73538Y670729D01*
Y676284D01*
X73547Y676295D01*
X73571Y676335D01*
X73589Y676379D01*
X73600Y676425D01*
X73603Y676472D01*
X73599Y676519D01*
X73588Y676565D01*
X73569Y676609D01*
X73544Y676649D01*
X73538Y676656D01*
Y689500D01*
G37*
G36*
Y670729D02*X73519Y670751D01*
X73483Y670783D01*
X73442Y670808D01*
X73399Y670827D01*
X73352Y670838D01*
X73305Y670842D01*
X73257Y670839D01*
X73211Y670828D01*
X73166Y670810D01*
X73126Y670785D01*
X72879Y670620D01*
X72617Y670481D01*
X72481Y670424D01*
Y673453D01*
X72485Y673504D01*
X72469Y673708D01*
X72469Y673708D01*
X72433Y673859D01*
X72421Y673907D01*
X72389Y673985D01*
X72343Y674096D01*
X72302Y674164D01*
X72236Y674270D01*
X72236Y674271D01*
X72103Y674426D01*
X72064Y674459D01*
X70640Y675883D01*
X70607Y675922D01*
X70452Y676055D01*
X70452Y676055D01*
X70345Y676120D01*
X70277Y676162D01*
X70166Y676208D01*
X70088Y676240D01*
X70040Y676252D01*
X69889Y676288D01*
X69889Y676288D01*
X69685Y676304D01*
X69634Y676300D01*
X69352D01*
X69483Y676388D01*
X69745Y676527D01*
X70019Y676642D01*
X70301Y676733D01*
X70591Y676798D01*
X70885Y676837D01*
X71181Y676850D01*
X71478Y676837D01*
X71772Y676798D01*
X72061Y676733D01*
X72344Y676642D01*
X72617Y676527D01*
X72879Y676388D01*
X73128Y676226D01*
X73168Y676201D01*
X73212Y676183D01*
X73257Y676172D01*
X73305Y676169D01*
X73352Y676173D01*
X73397Y676184D01*
X73441Y676203D01*
X73481Y676228D01*
X73517Y676259D01*
X73538Y676284D01*
Y670729D01*
G37*
G36*
Y666322D02*X73115Y666416D01*
X72544Y666493D01*
X72481Y666495D01*
Y669776D01*
X72553Y669800D01*
X72876Y669936D01*
X73185Y670100D01*
X73479Y670291D01*
X73516Y670321D01*
X73538Y670347D01*
Y666322D01*
G37*
G36*
Y622500D02*X68219D01*
Y624412D01*
X68225Y624500D01*
X68198Y624853D01*
X68115Y625197D01*
X68075Y625293D01*
X67979Y625525D01*
X67865Y625712D01*
X67794Y625827D01*
X67794Y625827D01*
X67564Y626096D01*
X67497Y626153D01*
X66122Y627529D01*
X66064Y627596D01*
X65795Y627826D01*
X65795Y627826D01*
X65680Y627896D01*
X65493Y628011D01*
X65262Y628107D01*
X65166Y628146D01*
X64822Y628229D01*
X64469Y628257D01*
X64380Y628250D01*
X63498D01*
Y633950D01*
X63504Y633950D01*
X64062Y633994D01*
X64607Y634124D01*
X65125Y634339D01*
X65602Y634631D01*
X66028Y634995D01*
X66392Y635421D01*
X66685Y635899D01*
X66899Y636416D01*
X67030Y636961D01*
X67063Y637520D01*
X67030Y638078D01*
X66899Y638623D01*
X66685Y639140D01*
X66392Y639618D01*
X66028Y640044D01*
X65602Y640408D01*
X65125Y640701D01*
X64607Y640915D01*
X64062Y641046D01*
X63504Y641090D01*
X63498Y641089D01*
Y649813D01*
X63666Y649854D01*
X63993Y649989D01*
X64295Y650174D01*
X64564Y650404D01*
X64622Y650471D01*
X65997Y651847D01*
X66064Y651904D01*
X66294Y652173D01*
X66294Y652173D01*
X66479Y652475D01*
X66615Y652803D01*
X66698Y653147D01*
X66725Y653500D01*
X66719Y653588D01*
Y656150D01*
X66771Y656104D01*
X66838Y656062D01*
X66911Y656031D01*
X66988Y656012D01*
X67068Y656005D01*
X67147Y656010D01*
X67225Y656028D01*
X67298Y656058D01*
X67366Y656099D01*
X67427Y656150D01*
X67480Y656210D01*
X67522Y656277D01*
X67553Y656350D01*
X67572Y656428D01*
X67579Y656507D01*
X67574Y656586D01*
X67556Y656664D01*
X67526Y656737D01*
X67484Y656805D01*
X67215Y657211D01*
X66987Y657641D01*
X66798Y658091D01*
X66719Y658339D01*
Y661661D01*
X66798Y661909D01*
X66987Y662359D01*
X67215Y662789D01*
X67480Y663198D01*
X67521Y663265D01*
X67551Y663338D01*
X67568Y663415D01*
X67574Y663493D01*
X67567Y663572D01*
X67548Y663648D01*
X67517Y663720D01*
X67475Y663787D01*
X67424Y663846D01*
X67363Y663897D01*
X67296Y663937D01*
X67223Y663967D01*
X67146Y663985D01*
X67068Y663990D01*
X66989Y663983D01*
X66913Y663964D01*
X66841Y663933D01*
X66774Y663891D01*
X66719Y663843D01*
Y664912D01*
X66725Y665000D01*
X66698Y665353D01*
X66615Y665697D01*
X66575Y665793D01*
X66479Y666025D01*
X66365Y666212D01*
X66294Y666327D01*
X66294Y666327D01*
X66064Y666596D01*
X65997Y666653D01*
X63498Y669152D01*
Y673700D01*
X67239D01*
X67231Y673504D01*
X67246Y673154D01*
X67293Y672807D01*
X67370Y672465D01*
X67477Y672132D01*
X67613Y671809D01*
X67777Y671500D01*
X67968Y671206D01*
X67998Y671169D01*
X68034Y671138D01*
X68075Y671113D01*
X68119Y671094D01*
X68165Y671083D01*
X68213Y671078D01*
X68260Y671082D01*
X68307Y671093D01*
X68351Y671111D01*
X68392Y671135D01*
X68429Y671166D01*
X68460Y671202D01*
X68485Y671243D01*
X68504Y671287D01*
X68515Y671333D01*
X68519Y671380D01*
X68516Y671428D01*
X68505Y671475D01*
X68487Y671519D01*
X68462Y671559D01*
X68297Y671806D01*
X68158Y672068D01*
X68043Y672341D01*
X67952Y672624D01*
X67887Y672913D01*
X67848Y673208D01*
X67835Y673504D01*
X67843Y673700D01*
X69147D01*
X69881Y672965D01*
Y670424D01*
X69745Y670481D01*
X69483Y670620D01*
X69234Y670782D01*
X69194Y670807D01*
X69151Y670825D01*
X69105Y670836D01*
X69058Y670839D01*
X69011Y670835D01*
X68965Y670823D01*
X68921Y670805D01*
X68881Y670780D01*
X68845Y670749D01*
X68815Y670713D01*
X68791Y670673D01*
X68773Y670629D01*
X68762Y670583D01*
X68759Y670536D01*
X68763Y670489D01*
X68774Y670443D01*
X68793Y670399D01*
X68818Y670359D01*
X68849Y670324D01*
X68885Y670294D01*
X69177Y670100D01*
X69486Y669936D01*
X69809Y669800D01*
X69881Y669776D01*
Y666169D01*
X69710Y666115D01*
X69179Y665891D01*
X68670Y665622D01*
X68186Y665309D01*
X68125Y665258D01*
X68073Y665198D01*
X68030Y665130D01*
X67999Y665057D01*
X67980Y664980D01*
X67973Y664901D01*
X67979Y664822D01*
X67996Y664744D01*
X68026Y664670D01*
X68067Y664602D01*
X68118Y664541D01*
X68178Y664489D01*
X68246Y664447D01*
X68319Y664416D01*
X68396Y664396D01*
X68475Y664389D01*
X68555Y664395D01*
X68632Y664413D01*
X68706Y664442D01*
X68773Y664485D01*
X69179Y664754D01*
X69610Y664982D01*
X69881Y665096D01*
Y660838D01*
X69877Y660787D01*
X69893Y660584D01*
X69893Y660583D01*
X69941Y660384D01*
X70019Y660195D01*
X70060Y660129D01*
X70126Y660021D01*
X70126Y660021D01*
X70259Y659865D01*
X70298Y659832D01*
X71049Y659081D01*
X71202Y658945D01*
X71376Y658838D01*
X71566Y658760D01*
X71765Y658712D01*
X71969Y658696D01*
X72172Y658712D01*
X72371Y658760D01*
X72561Y658838D01*
X72735Y658945D01*
X72891Y659078D01*
X73023Y659234D01*
X73130Y659408D01*
X73209Y659597D01*
X73256Y659796D01*
X73273Y660000D01*
X73256Y660204D01*
X73209Y660403D01*
X73130Y660592D01*
X73023Y660766D01*
X72888Y660919D01*
X72481Y661326D01*
Y665487D01*
X72938Y665426D01*
X73414Y665319D01*
X73538Y665279D01*
Y654721D01*
X73414Y654681D01*
X72938Y654574D01*
X72455Y654510D01*
X71969Y654488D01*
X71482Y654510D01*
X70999Y654574D01*
X70523Y654681D01*
X70059Y654829D01*
X69610Y655018D01*
X69179Y655246D01*
X68770Y655511D01*
X68704Y655553D01*
X68631Y655582D01*
X68554Y655600D01*
X68475Y655605D01*
X68397Y655598D01*
X68321Y655579D01*
X68248Y655549D01*
X68181Y655507D01*
X68122Y655455D01*
X68072Y655395D01*
X68031Y655327D01*
X68002Y655254D01*
X67984Y655178D01*
X67979Y655099D01*
X67985Y655021D01*
X68005Y654944D01*
X68035Y654872D01*
X68077Y654805D01*
X68129Y654746D01*
X68190Y654697D01*
X68670Y654378D01*
X69179Y654109D01*
X69710Y653885D01*
X70259Y653710D01*
X70822Y653584D01*
X71393Y653507D01*
X71969Y653482D01*
X72544Y653507D01*
X73115Y653584D01*
X73538Y653678D01*
Y641089D01*
X72985Y641046D01*
X72440Y640915D01*
X71923Y640701D01*
X71445Y640408D01*
X71019Y640044D01*
X70655Y639618D01*
X70362Y639140D01*
X70148Y638623D01*
X70017Y638078D01*
X69973Y637520D01*
X70017Y636961D01*
X70148Y636416D01*
X70362Y635899D01*
X70655Y635421D01*
X71019Y634995D01*
X71445Y634631D01*
X71923Y634339D01*
X72440Y634124D01*
X72985Y633994D01*
X73538Y633950D01*
Y622500D01*
G37*
G36*
X63498Y689500D02*X73538D01*
Y676656D01*
X73514Y676684D01*
X73477Y676714D01*
X73185Y676908D01*
X72876Y677072D01*
X72553Y677208D01*
X72220Y677315D01*
X71878Y677392D01*
X71531Y677439D01*
X71181Y677454D01*
X70831Y677439D01*
X70484Y677392D01*
X70142Y677315D01*
X69809Y677208D01*
X69486Y677072D01*
X69177Y676908D01*
X68883Y676717D01*
X68846Y676687D01*
X68815Y676651D01*
X68790Y676610D01*
X68771Y676566D01*
X68760Y676520D01*
X68756Y676472D01*
X68759Y676425D01*
X68770Y676378D01*
X68788Y676334D01*
X68808Y676300D01*
X63498D01*
Y689500D01*
G37*
G36*
Y669152D02*X62622Y670029D01*
X62564Y670096D01*
X62295Y670326D01*
X62295Y670326D01*
X62180Y670396D01*
X61993Y670511D01*
X61762Y670607D01*
X61666Y670646D01*
X61322Y670729D01*
X60969Y670757D01*
X60880Y670750D01*
X54557D01*
X54469Y670757D01*
X54115Y670729D01*
X53771Y670646D01*
X53444Y670511D01*
X53142Y670326D01*
X53142Y670326D01*
X52873Y670096D01*
X52815Y670029D01*
X49541Y666754D01*
X49095Y666939D01*
X48551Y667069D01*
X47992Y667113D01*
X47434Y667069D01*
X46889Y666939D01*
X46371Y666724D01*
X45982Y666485D01*
Y674556D01*
X46685Y674557D01*
X46838Y674594D01*
X46983Y674654D01*
X47117Y674736D01*
X47237Y674839D01*
X47339Y674958D01*
X47421Y675093D01*
X47482Y675238D01*
X47518Y675391D01*
X47528Y675548D01*
X47518Y681609D01*
X47482Y681762D01*
X47421Y681907D01*
X47339Y682042D01*
X47237Y682161D01*
X47192Y682200D01*
X47930D01*
X48169Y681962D01*
Y677051D01*
X48164Y677000D01*
X48181Y676796D01*
X48181Y676796D01*
X48228Y676597D01*
X48307Y676408D01*
X48347Y676342D01*
X48414Y676234D01*
X48414Y676233D01*
X48546Y676078D01*
X48585Y676045D01*
X50513Y674117D01*
X50546Y674078D01*
X50702Y673945D01*
X50702Y673945D01*
X50810Y673879D01*
X50876Y673838D01*
X51066Y673760D01*
X51265Y673712D01*
X51265Y673712D01*
X51469Y673696D01*
X51519Y673700D01*
X63498D01*
Y669152D01*
G37*
G36*
Y628250D02*X57900D01*
X57719Y628432D01*
Y649750D01*
X62880D01*
X62969Y649743D01*
X63321Y649771D01*
X63322Y649771D01*
X63498Y649813D01*
Y641089D01*
X62945Y641046D01*
X62401Y640915D01*
X61883Y640701D01*
X61406Y640408D01*
X60980Y640044D01*
X60616Y639618D01*
X60323Y639140D01*
X60109Y638623D01*
X59978Y638078D01*
X59934Y637520D01*
X59978Y636961D01*
X60109Y636416D01*
X60323Y635899D01*
X60616Y635421D01*
X60980Y634995D01*
X61406Y634631D01*
X61883Y634339D01*
X62401Y634124D01*
X62945Y633994D01*
X63498Y633950D01*
Y628250D01*
G37*
G36*
X45982Y689500D02*X63498D01*
Y676300D01*
X52007D01*
X50769Y677538D01*
Y682449D01*
X50773Y682500D01*
X50756Y682704D01*
X50756Y682704D01*
X50720Y682855D01*
X50709Y682903D01*
X50676Y682981D01*
X50630Y683092D01*
X50589Y683160D01*
X50523Y683266D01*
X50523Y683267D01*
X50391Y683422D01*
X50352Y683455D01*
X49424Y684383D01*
X49391Y684422D01*
X49235Y684555D01*
X49235Y684555D01*
X49128Y684620D01*
X49061Y684662D01*
X48950Y684708D01*
X48871Y684740D01*
X48824Y684752D01*
X48672Y684788D01*
X48672Y684788D01*
X48469Y684804D01*
X48418Y684800D01*
X45982D01*
Y689500D01*
G37*
G36*
X20786D02*X45982D01*
Y684800D01*
X33019D01*
X32969Y684804D01*
X32765Y684788D01*
X32566Y684740D01*
X32376Y684662D01*
X32202Y684555D01*
X32202Y684555D01*
X32046Y684422D01*
X32013Y684383D01*
X31085Y683455D01*
X31046Y683422D01*
X30914Y683266D01*
X30807Y683092D01*
X30728Y682903D01*
X30681Y682704D01*
X30681Y682704D01*
X30664Y682500D01*
X30669Y682449D01*
Y677538D01*
X27934Y674804D01*
X24515D01*
X24492Y674876D01*
X24356Y675199D01*
X24191Y675508D01*
X24001Y675802D01*
X23970Y675839D01*
X23934Y675870D01*
X23893Y675895D01*
X23850Y675914D01*
X23803Y675925D01*
X23756Y675929D01*
X23708Y675926D01*
X23662Y675915D01*
X23617Y675897D01*
X23576Y675873D01*
X23540Y675842D01*
X23509Y675806D01*
X23483Y675765D01*
X23465Y675721D01*
X23453Y675675D01*
X23449Y675627D01*
X23453Y675580D01*
X23463Y675533D01*
X23481Y675489D01*
X23507Y675449D01*
X23671Y675202D01*
X23810Y674940D01*
X23867Y674804D01*
X20838D01*
X20787Y674808D01*
X20786Y674808D01*
Y676850D01*
X20787Y676850D01*
X21084Y676837D01*
X21378Y676798D01*
X21667Y676733D01*
X21950Y676642D01*
X22223Y676527D01*
X22485Y676388D01*
X22734Y676226D01*
X22774Y676201D01*
X22818Y676183D01*
X22864Y676172D01*
X22911Y676169D01*
X22958Y676173D01*
X23004Y676184D01*
X23047Y676203D01*
X23087Y676228D01*
X23123Y676259D01*
X23153Y676295D01*
X23178Y676335D01*
X23196Y676379D01*
X23206Y676425D01*
X23210Y676472D01*
X23206Y676519D01*
X23194Y676565D01*
X23176Y676609D01*
X23151Y676649D01*
X23120Y676684D01*
X23083Y676714D01*
X22792Y676908D01*
X22482Y677072D01*
X22160Y677208D01*
X21826Y677315D01*
X21484Y677392D01*
X21137Y677439D01*
X20787Y677454D01*
X20786Y677454D01*
Y689500D01*
G37*
G36*
X25454Y660761D02*X25490Y660487D01*
X25512Y660000D01*
X25490Y659513D01*
X25454Y659239D01*
Y660761D01*
G37*
G36*
X37245Y659770D02*Y661243D01*
X37436Y661019D01*
X37862Y660655D01*
X38340Y660362D01*
X38857Y660148D01*
X39402Y660017D01*
X39961Y659973D01*
X40519Y660017D01*
X41064Y660148D01*
X41470Y660316D01*
X42227Y659559D01*
X41878Y659345D01*
X41452Y658981D01*
X41088Y658555D01*
X40795Y658077D01*
X40581Y657560D01*
X40450Y657015D01*
X40406Y656457D01*
X40450Y655898D01*
X40581Y655353D01*
X40795Y654836D01*
X41088Y654358D01*
X41452Y653932D01*
X41726Y653698D01*
Y632250D01*
X33557D01*
X33469Y632257D01*
X33115Y632229D01*
X32771Y632146D01*
X32444Y632011D01*
X32142Y631826D01*
X32142Y631826D01*
X31873Y631596D01*
X31815Y631529D01*
X27037Y626750D01*
X25454D01*
Y635621D01*
X25576Y635421D01*
X25940Y634995D01*
X26366Y634631D01*
X26844Y634339D01*
X27361Y634124D01*
X27906Y633994D01*
X28465Y633950D01*
X29023Y633994D01*
X29568Y634124D01*
X30085Y634339D01*
X30563Y634631D01*
X30989Y634995D01*
X31353Y635421D01*
X31645Y635899D01*
X31860Y636416D01*
X31991Y636961D01*
X32024Y637520D01*
X31991Y638078D01*
X31860Y638623D01*
X31645Y639140D01*
X31353Y639618D01*
X30989Y640044D01*
X30563Y640408D01*
X30085Y640701D01*
X29568Y640915D01*
X29023Y641046D01*
X28465Y641090D01*
X27906Y641046D01*
X27361Y640915D01*
X26844Y640701D01*
X26366Y640408D01*
X25940Y640044D01*
X25576Y639618D01*
X25454Y639418D01*
Y656448D01*
X25622Y656701D01*
X25891Y657211D01*
X26115Y657742D01*
X26290Y658291D01*
X26416Y658853D01*
X26493Y659424D01*
X26518Y660000D01*
X26493Y660576D01*
X26416Y661147D01*
X26290Y661709D01*
X26115Y662258D01*
X25891Y662789D01*
X25622Y663299D01*
X25454Y663558D01*
Y672204D01*
X28422D01*
X28472Y672200D01*
X28676Y672216D01*
X28676Y672216D01*
X28875Y672264D01*
X29064Y672342D01*
X29239Y672449D01*
X29395Y672582D01*
X29428Y672621D01*
X32852Y676045D01*
X32891Y676078D01*
X33023Y676233D01*
X33023Y676234D01*
X33130Y676408D01*
X33209Y676597D01*
X33256Y676796D01*
X33273Y677000D01*
X33269Y677051D01*
Y681962D01*
X33507Y682200D01*
X33660D01*
X33614Y682161D01*
X33512Y682042D01*
X33430Y681907D01*
X33370Y681762D01*
X33333Y681609D01*
X33324Y681452D01*
X33333Y675391D01*
X33370Y675238D01*
X33430Y675093D01*
X33512Y674958D01*
X33614Y674839D01*
X33734Y674736D01*
X33868Y674654D01*
X34014Y674594D01*
X34167Y674557D01*
X34324Y674548D01*
X35583Y674550D01*
Y672798D01*
X35558Y672788D01*
X35289Y672623D01*
X35050Y672419D01*
X34845Y672179D01*
X34681Y671911D01*
X34561Y671620D01*
X34487Y671314D01*
X34462Y671000D01*
X34487Y670686D01*
X34561Y670380D01*
X34681Y670089D01*
X34845Y669821D01*
X35050Y669581D01*
X35289Y669377D01*
X35558Y669212D01*
X35849Y669092D01*
X36155Y669019D01*
X36469Y668994D01*
X36782Y669019D01*
X37088Y669092D01*
X37379Y669212D01*
X37648Y669377D01*
X37887Y669581D01*
X38092Y669821D01*
X38256Y670089D01*
X38376Y670380D01*
X38450Y670686D01*
X38469Y671000D01*
X38450Y671314D01*
X38376Y671620D01*
X38256Y671911D01*
X38183Y672030D01*
Y674555D01*
X39599Y674557D01*
X39752Y674594D01*
X39897Y674654D01*
X40031Y674736D01*
X40151Y674839D01*
X40253Y674958D01*
X40335Y675093D01*
X40396Y675238D01*
X40426Y675363D01*
X40456Y675238D01*
X40516Y675093D01*
X40598Y674958D01*
X40700Y674839D01*
X40820Y674736D01*
X40954Y674654D01*
X41100Y674594D01*
X41253Y674557D01*
X41410Y674548D01*
X42587Y674550D01*
X42789Y674377D01*
X43058Y674212D01*
X43349Y674092D01*
X43655Y674019D01*
X43969Y673994D01*
X44282Y674019D01*
X44588Y674092D01*
X44879Y674212D01*
X45148Y674377D01*
X45356Y674555D01*
X45982Y674556D01*
Y666485D01*
X45894Y666432D01*
X45468Y666068D01*
X45104Y665642D01*
X44811Y665164D01*
X44597Y664647D01*
X44466Y664102D01*
X44436Y663715D01*
X43251Y664899D01*
X43203Y665015D01*
X43469Y664994D01*
X43782Y665019D01*
X44088Y665092D01*
X44379Y665212D01*
X44648Y665377D01*
X44887Y665581D01*
X45092Y665821D01*
X45256Y666089D01*
X45376Y666380D01*
X45450Y666686D01*
X45469Y667000D01*
X45450Y667314D01*
X45376Y667620D01*
X45256Y667911D01*
X45092Y668179D01*
X44887Y668419D01*
X44648Y668623D01*
X44379Y668788D01*
X44088Y668908D01*
X43782Y668981D01*
X43469Y669006D01*
X43155Y668981D01*
X42849Y668908D01*
X42588Y668800D01*
X38519D01*
X38469Y668804D01*
X38265Y668788D01*
X38066Y668740D01*
X37876Y668662D01*
X37702Y668555D01*
X37702Y668555D01*
X37546Y668422D01*
X37513Y668383D01*
X35062Y665932D01*
X35023Y665898D01*
X34890Y665743D01*
X34823Y665633D01*
X34817Y665642D01*
X34454Y666068D01*
X34028Y666432D01*
X33550Y666724D01*
X33032Y666939D01*
X32488Y667069D01*
X31929Y667113D01*
X31371Y667069D01*
X30826Y666939D01*
X30308Y666724D01*
X29831Y666432D01*
X29405Y666068D01*
X29041Y665642D01*
X28748Y665164D01*
X28534Y664647D01*
X28403Y664102D01*
X28359Y663543D01*
X28403Y662985D01*
X28534Y662440D01*
X28748Y661923D01*
X29041Y661445D01*
X29405Y661019D01*
X29831Y660655D01*
X30308Y660362D01*
X30826Y660148D01*
X31371Y660017D01*
X31929Y659973D01*
X32488Y660017D01*
X33032Y660148D01*
X33550Y660362D01*
X34028Y660655D01*
X34454Y661019D01*
X34645Y661243D01*
Y659770D01*
X34324Y659638D01*
X33846Y659345D01*
X33420Y658981D01*
X33057Y658555D01*
X32764Y658077D01*
X32550Y657560D01*
X32419Y657015D01*
X32375Y656457D01*
X32419Y655898D01*
X32550Y655353D01*
X32764Y654836D01*
X33057Y654358D01*
X33420Y653932D01*
X33846Y653568D01*
X34324Y653276D01*
X34842Y653061D01*
X35386Y652931D01*
X35945Y652887D01*
X36503Y652931D01*
X37048Y653061D01*
X37566Y653276D01*
X38043Y653568D01*
X38469Y653932D01*
X38833Y654358D01*
X39126Y654836D01*
X39340Y655353D01*
X39471Y655898D01*
X39504Y656457D01*
X39471Y657015D01*
X39340Y657560D01*
X39126Y658077D01*
X38833Y658555D01*
X38469Y658981D01*
X38043Y659345D01*
X37566Y659638D01*
X37245Y659770D01*
G37*
G36*
X25454Y626750D02*X20786D01*
Y634855D01*
X20950Y634995D01*
X21313Y635421D01*
X21606Y635899D01*
X21820Y636416D01*
X21951Y636961D01*
X21984Y637520D01*
X21951Y638078D01*
X21820Y638623D01*
X21606Y639140D01*
X21313Y639618D01*
X20950Y640044D01*
X20786Y640184D01*
Y653535D01*
X21147Y653584D01*
X21709Y653710D01*
X22258Y653885D01*
X22789Y654109D01*
X23299Y654378D01*
X23782Y654691D01*
X23844Y654742D01*
X23896Y654802D01*
X23938Y654870D01*
X23969Y654943D01*
X23988Y655020D01*
X23995Y655099D01*
X23990Y655178D01*
X23972Y655256D01*
X23942Y655330D01*
X23901Y655398D01*
X23850Y655459D01*
X23790Y655511D01*
X23723Y655553D01*
X23650Y655584D01*
X23572Y655604D01*
X23493Y655611D01*
X23414Y655605D01*
X23336Y655587D01*
X23263Y655558D01*
X23195Y655515D01*
X22789Y655246D01*
X22359Y655018D01*
X21909Y654829D01*
X21445Y654681D01*
X20970Y654574D01*
X20786Y654550D01*
Y658962D01*
X20919Y659081D01*
X21671Y659832D01*
X21709Y659865D01*
X21842Y660021D01*
X21842Y660021D01*
X21949Y660195D01*
X22028Y660384D01*
X22075Y660583D01*
X22091Y660787D01*
X22087Y660838D01*
Y665096D01*
X22359Y664982D01*
X22789Y664754D01*
X23198Y664489D01*
X23265Y664447D01*
X23338Y664418D01*
X23415Y664400D01*
X23493Y664395D01*
X23572Y664402D01*
X23648Y664421D01*
X23720Y664451D01*
X23787Y664493D01*
X23846Y664545D01*
X23897Y664605D01*
X23937Y664673D01*
X23967Y664746D01*
X23985Y664822D01*
X23990Y664901D01*
X23983Y664979D01*
X23964Y665056D01*
X23933Y665128D01*
X23891Y665195D01*
X23840Y665254D01*
X23779Y665303D01*
X23299Y665622D01*
X22789Y665891D01*
X22258Y666115D01*
X22087Y666169D01*
Y669776D01*
X22160Y669800D01*
X22482Y669936D01*
X22792Y670100D01*
X23085Y670291D01*
X23122Y670321D01*
X23153Y670357D01*
X23179Y670398D01*
X23197Y670442D01*
X23209Y670488D01*
X23213Y670536D01*
X23209Y670583D01*
X23199Y670630D01*
X23181Y670674D01*
X23156Y670715D01*
X23125Y670751D01*
X23089Y670783D01*
X23049Y670808D01*
X23005Y670827D01*
X22958Y670838D01*
X22911Y670842D01*
X22863Y670839D01*
X22817Y670828D01*
X22773Y670810D01*
X22732Y670785D01*
X22485Y670620D01*
X22223Y670481D01*
X22087Y670424D01*
Y672204D01*
X23867D01*
X23810Y672068D01*
X23671Y671806D01*
X23509Y671557D01*
X23484Y671517D01*
X23466Y671474D01*
X23456Y671428D01*
X23452Y671380D01*
X23456Y671333D01*
X23468Y671288D01*
X23486Y671244D01*
X23511Y671204D01*
X23542Y671168D01*
X23578Y671138D01*
X23619Y671114D01*
X23663Y671096D01*
X23708Y671085D01*
X23756Y671082D01*
X23803Y671086D01*
X23848Y671097D01*
X23892Y671116D01*
X23932Y671141D01*
X23968Y671171D01*
X23997Y671208D01*
X24191Y671500D01*
X24356Y671809D01*
X24492Y672132D01*
X24515Y672204D01*
X25454D01*
Y663558D01*
X25309Y663782D01*
X25258Y663844D01*
X25198Y663896D01*
X25130Y663938D01*
X25057Y663969D01*
X24980Y663988D01*
X24901Y663995D01*
X24822Y663990D01*
X24744Y663972D01*
X24670Y663942D01*
X24602Y663901D01*
X24541Y663850D01*
X24489Y663790D01*
X24447Y663723D01*
X24416Y663650D01*
X24396Y663572D01*
X24389Y663493D01*
X24395Y663414D01*
X24413Y663336D01*
X24442Y663263D01*
X24485Y663195D01*
X24754Y662789D01*
X24982Y662359D01*
X25171Y661909D01*
X25319Y661445D01*
X25426Y660970D01*
X25454Y660761D01*
Y659239D01*
X25426Y659030D01*
X25319Y658555D01*
X25171Y658091D01*
X24982Y657641D01*
X24754Y657211D01*
X24489Y656802D01*
X24447Y656735D01*
X24418Y656662D01*
X24400Y656585D01*
X24395Y656507D01*
X24402Y656428D01*
X24421Y656352D01*
X24451Y656280D01*
X24493Y656213D01*
X24545Y656154D01*
X24605Y656103D01*
X24673Y656063D01*
X24746Y656033D01*
X24822Y656015D01*
X24901Y656010D01*
X24979Y656017D01*
X25056Y656036D01*
X25128Y656067D01*
X25195Y656109D01*
X25254Y656160D01*
X25303Y656221D01*
X25454Y656448D01*
Y639418D01*
X25284Y639140D01*
X25069Y638623D01*
X24938Y638078D01*
X24895Y637520D01*
X24938Y636961D01*
X25069Y636416D01*
X25284Y635899D01*
X25454Y635621D01*
Y626750D01*
G37*
G36*
X17481Y653995D02*X17742Y653885D01*
X18291Y653710D01*
X18853Y653584D01*
X19424Y653507D01*
X20000Y653482D01*
X20576Y653507D01*
X20786Y653535D01*
Y640184D01*
X20524Y640408D01*
X20046Y640701D01*
X19528Y640915D01*
X18984Y641046D01*
X18425Y641090D01*
X17867Y641046D01*
X17481Y640953D01*
Y653995D01*
G37*
G36*
Y664897D02*X17641Y664982D01*
X18091Y665171D01*
X18555Y665319D01*
X19030Y665426D01*
X19487Y665487D01*
Y661326D01*
X19081Y660919D01*
X18945Y660766D01*
X18838Y660592D01*
X18760Y660403D01*
X18712Y660204D01*
X18696Y660000D01*
X18712Y659796D01*
X18760Y659597D01*
X18838Y659408D01*
X18945Y659234D01*
X19078Y659078D01*
X19234Y658945D01*
X19408Y658838D01*
X19597Y658760D01*
X19796Y658712D01*
X20000Y658696D01*
X20204Y658712D01*
X20403Y658760D01*
X20592Y658838D01*
X20766Y658945D01*
X20786Y658962D01*
Y654550D01*
X20487Y654510D01*
X20000Y654488D01*
X19513Y654510D01*
X19030Y654574D01*
X18555Y654681D01*
X18091Y654829D01*
X17641Y655018D01*
X17481Y655103D01*
Y664897D01*
G37*
G36*
Y689500D02*X20786D01*
Y677454D01*
X20437Y677439D01*
X20090Y677392D01*
X19749Y677315D01*
X19415Y677208D01*
X19092Y677072D01*
X18783Y676908D01*
X18489Y676717D01*
X18453Y676687D01*
X18421Y676651D01*
X18396Y676610D01*
X18378Y676566D01*
X18366Y676520D01*
X18362Y676472D01*
X18365Y676425D01*
X18376Y676378D01*
X18394Y676334D01*
X18419Y676293D01*
X18449Y676256D01*
X18485Y676225D01*
X18526Y676200D01*
X18570Y676181D01*
X18616Y676170D01*
X18664Y676166D01*
X18711Y676169D01*
X18758Y676180D01*
X18802Y676198D01*
X18843Y676223D01*
X19089Y676388D01*
X19352Y676527D01*
X19625Y676642D01*
X19907Y676733D01*
X20197Y676798D01*
X20491Y676837D01*
X20786Y676850D01*
Y674808D01*
X20583Y674792D01*
X20384Y674744D01*
X20195Y674666D01*
X20021Y674559D01*
X19865Y674426D01*
X19732Y674270D01*
X19626Y674096D01*
X19547Y673907D01*
X19499Y673708D01*
X19483Y673504D01*
X19487Y673453D01*
Y670424D01*
X19352Y670481D01*
X19089Y670620D01*
X18841Y670782D01*
X18801Y670807D01*
X18757Y670825D01*
X18711Y670836D01*
X18664Y670839D01*
X18617Y670835D01*
X18571Y670823D01*
X18528Y670805D01*
X18487Y670780D01*
X18452Y670749D01*
X18421Y670713D01*
X18397Y670673D01*
X18379Y670629D01*
X18369Y670583D01*
X18365Y670536D01*
X18369Y670489D01*
X18381Y670443D01*
X18399Y670399D01*
X18424Y670359D01*
X18455Y670324D01*
X18492Y670294D01*
X18783Y670100D01*
X19092Y669936D01*
X19415Y669800D01*
X19487Y669776D01*
Y666495D01*
X19424Y666493D01*
X18853Y666416D01*
X18291Y666290D01*
X17742Y666115D01*
X17481Y666005D01*
Y671349D01*
X17574Y671206D01*
X17605Y671169D01*
X17641Y671138D01*
X17681Y671113D01*
X17725Y671094D01*
X17772Y671083D01*
X17819Y671078D01*
X17867Y671082D01*
X17913Y671093D01*
X17958Y671111D01*
X17998Y671135D01*
X18035Y671166D01*
X18066Y671202D01*
X18091Y671243D01*
X18110Y671287D01*
X18122Y671333D01*
X18126Y671380D01*
X18122Y671428D01*
X18111Y671475D01*
X18094Y671519D01*
X18068Y671559D01*
X17904Y671806D01*
X17765Y672068D01*
X17649Y672341D01*
X17559Y672624D01*
X17493Y672913D01*
X17481Y673004D01*
Y674004D01*
X17493Y674094D01*
X17559Y674384D01*
X17649Y674666D01*
X17765Y674940D01*
X17904Y675202D01*
X18065Y675451D01*
X18091Y675491D01*
X18108Y675534D01*
X18119Y675580D01*
X18122Y675627D01*
X18118Y675674D01*
X18107Y675720D01*
X18089Y675764D01*
X18064Y675804D01*
X18033Y675840D01*
X17996Y675870D01*
X17956Y675894D01*
X17912Y675912D01*
X17866Y675923D01*
X17819Y675926D01*
X17772Y675922D01*
X17726Y675911D01*
X17683Y675892D01*
X17643Y675867D01*
X17607Y675836D01*
X17577Y675800D01*
X17481Y675655D01*
Y689500D01*
G37*
G36*
X20786Y626750D02*X20557D01*
X20469Y626757D01*
X20115Y626729D01*
X19771Y626646D01*
X19444Y626511D01*
X19142Y626326D01*
X19142Y626326D01*
X18873Y626096D01*
X18815Y626029D01*
X17481Y624695D01*
Y634086D01*
X17867Y633994D01*
X18425Y633950D01*
X18984Y633994D01*
X19528Y634124D01*
X20046Y634339D01*
X20524Y634631D01*
X20786Y634855D01*
Y626750D01*
G37*
G36*
X17481Y673004D02*X17454Y673208D01*
X17441Y673504D01*
X17454Y673800D01*
X17481Y674004D01*
Y673004D01*
G37*
G36*
Y624695D02*X16440Y623653D01*
X16373Y623596D01*
X16143Y623327D01*
X15958Y623025D01*
X15822Y622697D01*
X15775Y622500D01*
X14000D01*
Y657469D01*
X14109Y657211D01*
X14378Y656701D01*
X14691Y656218D01*
X14742Y656156D01*
X14802Y656104D01*
X14870Y656062D01*
X14943Y656031D01*
X15020Y656012D01*
X15099Y656005D01*
X15178Y656010D01*
X15256Y656028D01*
X15330Y656058D01*
X15398Y656099D01*
X15459Y656150D01*
X15511Y656210D01*
X15553Y656277D01*
X15584Y656350D01*
X15604Y656428D01*
X15611Y656507D01*
X15605Y656586D01*
X15587Y656664D01*
X15558Y656737D01*
X15515Y656805D01*
X15246Y657211D01*
X15018Y657641D01*
X14829Y658091D01*
X14681Y658555D01*
X14574Y659030D01*
X14510Y659513D01*
X14488Y660000D01*
X14510Y660487D01*
X14574Y660970D01*
X14681Y661445D01*
X14829Y661909D01*
X15018Y662359D01*
X15246Y662789D01*
X15511Y663198D01*
X15553Y663265D01*
X15582Y663338D01*
X15600Y663415D01*
X15605Y663493D01*
X15598Y663572D01*
X15579Y663648D01*
X15549Y663720D01*
X15507Y663787D01*
X15455Y663846D01*
X15395Y663897D01*
X15327Y663937D01*
X15254Y663967D01*
X15178Y663985D01*
X15099Y663990D01*
X15021Y663983D01*
X14944Y663964D01*
X14872Y663933D01*
X14805Y663891D01*
X14746Y663840D01*
X14697Y663779D01*
X14378Y663299D01*
X14109Y662789D01*
X14000Y662531D01*
Y689500D01*
X17481D01*
Y675655D01*
X17383Y675508D01*
X17219Y675199D01*
X17083Y674876D01*
X16976Y674543D01*
X16899Y674201D01*
X16853Y673854D01*
X16837Y673504D01*
X16853Y673154D01*
X16899Y672807D01*
X16976Y672465D01*
X17083Y672132D01*
X17219Y671809D01*
X17383Y671500D01*
X17481Y671349D01*
Y666005D01*
X17211Y665891D01*
X16701Y665622D01*
X16218Y665309D01*
X16156Y665258D01*
X16104Y665198D01*
X16062Y665130D01*
X16031Y665057D01*
X16012Y664980D01*
X16005Y664901D01*
X16010Y664822D01*
X16028Y664744D01*
X16058Y664670D01*
X16099Y664602D01*
X16150Y664541D01*
X16210Y664489D01*
X16277Y664447D01*
X16350Y664416D01*
X16428Y664396D01*
X16507Y664389D01*
X16586Y664395D01*
X16664Y664413D01*
X16737Y664442D01*
X16805Y664485D01*
X17211Y664754D01*
X17481Y664897D01*
Y655103D01*
X17211Y655246D01*
X16802Y655511D01*
X16735Y655553D01*
X16662Y655582D01*
X16585Y655600D01*
X16507Y655605D01*
X16428Y655598D01*
X16352Y655579D01*
X16280Y655549D01*
X16213Y655507D01*
X16154Y655455D01*
X16103Y655395D01*
X16063Y655327D01*
X16033Y655254D01*
X16015Y655178D01*
X16010Y655099D01*
X16017Y655021D01*
X16036Y654944D01*
X16067Y654872D01*
X16109Y654805D01*
X16160Y654746D01*
X16221Y654697D01*
X16701Y654378D01*
X17211Y654109D01*
X17481Y653995D01*
Y640953D01*
X17322Y640915D01*
X16804Y640701D01*
X16327Y640408D01*
X15901Y640044D01*
X15537Y639618D01*
X15244Y639140D01*
X15030Y638623D01*
X14899Y638078D01*
X14855Y637520D01*
X14899Y636961D01*
X15030Y636416D01*
X15244Y635899D01*
X15537Y635421D01*
X15901Y634995D01*
X16327Y634631D01*
X16804Y634339D01*
X17322Y634124D01*
X17481Y634086D01*
Y624695D01*
G37*
G36*
X45719Y629432D02*X45037Y628750D01*
X44900D01*
X45505Y629355D01*
X45572Y629412D01*
X45719Y629583D01*
Y629432D01*
G37*
G36*
X47719Y622500D02*X36175D01*
Y624025D01*
X36400Y624250D01*
X45880D01*
X45969Y624243D01*
X46321Y624271D01*
X46322Y624271D01*
X46666Y624354D01*
X46993Y624489D01*
X47295Y624674D01*
X47564Y624904D01*
X47622Y624971D01*
X47814Y625163D01*
X47739Y624853D01*
X47739Y624853D01*
X47712Y624500D01*
X47719Y624412D01*
Y622500D01*
G37*
G36*
X63719D02*X52219D01*
Y623568D01*
X53536Y624886D01*
X53604Y624943D01*
X53834Y625213D01*
X53834Y625213D01*
X54019Y625515D01*
X54093Y625694D01*
X55315Y624471D01*
X55373Y624404D01*
X55642Y624174D01*
X55642Y624174D01*
X55829Y624059D01*
X55944Y623989D01*
X56271Y623854D01*
X56615Y623771D01*
X56615D01*
X56969Y623743D01*
X57057Y623750D01*
X63537D01*
X63719Y623568D01*
Y622500D01*
G37*
G36*
X31675D02*X29011D01*
X29295Y622674D01*
X29564Y622904D01*
X29622Y622971D01*
X31673Y625023D01*
X31668Y624957D01*
X31675Y624869D01*
Y622500D01*
G37*
G36*
X54767Y654207D02*X56022D01*
X55771Y654146D01*
X55444Y654011D01*
X55142Y653826D01*
X55142Y653826D01*
X54873Y653596D01*
X54815Y653529D01*
X54258Y652971D01*
Y653698D01*
X54532Y653932D01*
X54767Y654207D01*
G37*
G36*
X62219Y664068D02*Y659276D01*
X62138Y659345D01*
X61660Y659638D01*
X61143Y659852D01*
X60598Y659983D01*
X60039Y660027D01*
X59481Y659983D01*
X58936Y659852D01*
X58419Y659638D01*
X57941Y659345D01*
X57515Y658981D01*
X57281Y658707D01*
X54767D01*
X54532Y658981D01*
X54106Y659345D01*
X53728Y659577D01*
X54481Y660330D01*
X54920Y660148D01*
X55465Y660017D01*
X56024Y659973D01*
X56582Y660017D01*
X57127Y660148D01*
X57644Y660362D01*
X58122Y660655D01*
X58548Y661019D01*
X58912Y661445D01*
X59205Y661923D01*
X59419Y662440D01*
X59550Y662985D01*
X59583Y663543D01*
X59550Y664102D01*
X59419Y664647D01*
X59205Y665164D01*
X58912Y665642D01*
X58548Y666068D01*
X58335Y666250D01*
X60037D01*
X62219Y664068D01*
G37*
G36*
X40746Y682200D02*X40700Y682161D01*
X40598Y682042D01*
X40516Y681907D01*
X40456Y681762D01*
X40426Y681637D01*
X40396Y681762D01*
X40335Y681907D01*
X40253Y682042D01*
X40151Y682161D01*
X40106Y682200D01*
X40746D01*
G37*
G54D30*X20787Y673504D02*Y660787D01*
X20000Y660000D01*
X35945Y656457D02*Y664976D01*
X38469Y667500D01*
X42969D01*
X43469Y667000D01*
G54D31*X39961Y663543D02*X41425D01*
G54D30*X20787Y673504D02*X28472D01*
X31969Y677000D01*
Y682500D01*
X32969Y683500D01*
X36883Y678500D02*Y671414D01*
X36469Y671000D01*
X71181Y673504D02*Y660787D01*
X69685Y675000D02*X71181Y673504D01*
Y660787D02*X71969Y660000D01*
G54D31*X64469Y665000D02*Y653500D01*
X62969Y652000D01*
X60039Y656457D02*X52008D01*
X62969Y652000D02*X56469D01*
X55469Y651000D01*
X43976Y656457D02*Y631008D01*
X42969Y630000D01*
X47969Y628500D02*Y654500D01*
G54D32*X47961Y658043D02*Y652543D01*
G54D31*X42969Y630000D02*X33469D01*
X35469Y626500D02*X45969D01*
X47969Y628500D01*
X33469Y630000D02*X27969Y624500D01*
X33925Y624957D02*X35469Y626500D01*
X55469Y651000D02*Y627500D01*
X56969Y626000D01*
X64469D01*
X65969Y624500D01*
X52008Y656457D02*Y626539D01*
X49969Y624500D01*
G54D30*X43969Y676000D02*Y678500D01*
X32969Y683500D02*X48469D01*
X49469Y682500D01*
Y677000D01*
X51469Y675000D01*
X69685D01*
G54D31*X41425Y663543D02*X43969Y661000D01*
G54D32*X43961Y660543D02*X44461D01*
G54D31*X56024Y663543D02*X54512D01*
X49512D02*X54469Y668500D01*
X60969D01*
X64469Y665000D01*
X54512Y663543D02*X51969Y661000D01*
X47992Y663543D02*X49512D01*
X47969Y658500D02*Y659000D01*
G54D33*X47961Y659543D02*X49461D01*
X51461Y661543D01*
X51961Y660543D02*X50461D01*
X44976Y661043D02*X45976Y660043D01*
Y660028D02*X47961Y658043D01*
G54D32*Y659543D02*X46961D01*
G54D31*X71831Y613587D02*X72224D01*
X75374Y610437D01*
X65925Y613980D02*X71488D01*
X65969D02*Y610000D01*
X69469Y606500D01*
X65969Y624500D02*Y614024D01*
X65925Y613980D01*
X39831Y616087D02*X40224D01*
X55831D02*X56224D01*
X59374Y612937D01*
X49925Y616480D02*X55488D01*
X49969Y612500D02*X53469Y609000D01*
X40224Y616087D02*X43374Y612937D01*
X33969Y612500D02*X37469Y609000D01*
X49969Y612500D02*Y624500D01*
X33925Y616480D02*Y624957D01*
X23831Y613587D02*X24224D01*
X27374Y610437D01*
X23488Y613980D02*X23882Y613587D01*
X33925Y616480D02*X39488D01*
X33969D02*Y612500D01*
X27969Y624500D02*X20469D01*
X17969Y622000D01*
Y614024D01*
X17925Y613980D02*X23488D01*
X17969D02*Y610000D01*
X21469Y606500D01*
X17969Y614024D02*X17925Y613980D01*
G54D34*X33925Y616480D03*
X20787Y673504D03*
G54D35*X20000Y660000D03*
G54D36*X31929Y663543D03*
X18425Y637520D03*
X28465D03*
X63504D03*
X73543D03*
G54D34*X71181Y673504D03*
G54D35*X71969Y660000D03*
G54D36*X47992Y663543D03*
X56024D03*
X39961D03*
X43976Y656457D03*
X35945D03*
X52008D03*
X60039D03*
G54D37*X69469Y606500D03*
G54D34*X65925Y613980D03*
G54D38*X71831Y613587D03*
G54D37*X53469Y609000D03*
G54D34*X49925Y616480D03*
G54D38*X55831Y616087D03*
G54D39*X59374Y612937D03*
X75374Y610437D03*
G54D37*X37469Y609000D03*
X21469Y606500D03*
G54D34*X17925Y613980D03*
G54D38*X23831Y613587D03*
G54D39*X27374Y610437D03*
G54D38*X39831Y616087D03*
G54D39*X43374Y612937D03*
G54D29*G36*
X39442Y681452D02*X34324D01*
Y675548D01*
X39442D01*
Y681452D01*
G37*
G36*
X46528D02*X41410D01*
Y675548D01*
X46528D01*
Y681452D01*
G37*
G54D40*X43469Y667000D03*
X36469Y671000D03*
X43969Y676000D03*
G54D41*G54D42*G54D36*G54D37*G54D43*G54D36*G54D37*G54D43*G54D44*G54D42*G54D45*G54D44*G54D42*G54D45*G54D46*G54D44*G54D42*G54D45*G54D46*G54D45*G54D46*M02*
