G04 start of page 14 for group -3984 idx -3984 *
G04 Title: (unknown), fab *
G04 Creator: pcb 4.2.0 *
G04 CreationDate: Sun Aug 30 22:39:59 2020 UTC *
G04 For: commonadmin *
G04 Format: Gerber/RS-274X *
G04 PCB-Dimensions (mil): 1000.00 1250.00 *
G04 PCB-Coordinate-Origin: lower left *
%MOIN*%
%FSLAX25Y25*%
%LNFAB*%
%ADD108C,0.0100*%
%ADD107C,0.0075*%
%ADD106C,0.0060*%
%ADD105C,0.0080*%
G54D105*X17600Y87400D02*X22400Y82600D01*
X17600D02*X22400Y87400D01*
X18400Y86600D02*X21600D01*
X18400D02*Y83400D01*
X21600D01*
Y86600D02*Y83400D01*
X69569Y87400D02*X74369Y82600D01*
X69569D02*X74369Y87400D01*
X70369Y86600D02*X73569D01*
X70369D02*Y83400D01*
X73569D01*
Y86600D02*Y83400D01*
X12600Y138650D02*X17400Y133850D01*
X12600D02*X17400Y138650D01*
X13400Y137850D02*X16600D01*
X13400D02*Y134650D01*
X16600D01*
Y137850D02*Y134650D01*
G54D106*X135000Y138500D02*X136500Y135500D01*
X138000Y138500D01*
X136500Y135500D02*Y132500D01*
X139800Y135800D02*X142050D01*
X139800Y132500D02*X142800D01*
X139800Y138500D02*Y132500D01*
Y138500D02*X142800D01*
X147600D02*X148350Y137750D01*
X145350Y138500D02*X147600D01*
X144600Y137750D02*X145350Y138500D01*
X144600Y137750D02*Y136250D01*
X145350Y135500D01*
X147600D01*
X148350Y134750D01*
Y133250D01*
X147600Y132500D02*X148350Y133250D01*
X145350Y132500D02*X147600D01*
X144600Y133250D02*X145350Y132500D01*
X98000Y137750D02*X98750Y138500D01*
X101000D01*
X101750Y137750D01*
Y136250D01*
X98000Y132500D02*X101750Y136250D01*
X98000Y132500D02*X101750D01*
X45000Y133250D02*X45750Y132500D01*
X45000Y137750D02*Y133250D01*
Y137750D02*X45750Y138500D01*
X47250D01*
X48000Y137750D01*
Y133250D01*
X47250Y132500D02*X48000Y133250D01*
X45750Y132500D02*X47250D01*
X45000Y134000D02*X48000Y137000D01*
X49800Y132500D02*X50550D01*
X52350Y133250D02*X53100Y132500D01*
X52350Y137750D02*Y133250D01*
Y137750D02*X53100Y138500D01*
X54600D01*
X55350Y137750D01*
Y133250D01*
X54600Y132500D02*X55350Y133250D01*
X53100Y132500D02*X54600D01*
X52350Y134000D02*X55350Y137000D01*
X57900Y132500D02*X60150Y135500D01*
Y137750D02*Y135500D01*
X59400Y138500D02*X60150Y137750D01*
X57900Y138500D02*X59400D01*
X57150Y137750D02*X57900Y138500D01*
X57150Y137750D02*Y136250D01*
X57900Y135500D01*
X60150D01*
X61950Y134750D02*X64950Y138500D01*
X61950Y134750D02*X65700D01*
X64950Y138500D02*Y132500D01*
X53469Y37200D02*Y30800D01*
X50269Y34000D02*X56669D01*
X51869Y35600D02*X55069D01*
X51869D02*Y32400D01*
X55069D01*
Y35600D02*Y32400D01*
X69469Y34700D02*Y28300D01*
X66269Y31500D02*X72669D01*
X67869Y33100D02*X71069D01*
X67869D02*Y29900D01*
X71069D01*
Y33100D02*Y29900D01*
X37469Y37200D02*Y30800D01*
X34269Y34000D02*X40669D01*
X35869Y35600D02*X39069D01*
X35869D02*Y32400D01*
X39069D01*
Y35600D02*Y32400D01*
X21469Y34700D02*Y28300D01*
X18269Y31500D02*X24669D01*
X19869Y33100D02*X23069D01*
X19869D02*Y29900D01*
X23069D01*
Y33100D02*Y29900D01*
X15000Y154450D02*Y148050D01*
X11800Y151250D02*X18200D01*
X13400Y152850D02*X16600D01*
X13400D02*Y149650D01*
X16600D01*
Y152850D02*Y149650D01*
X135000Y153500D02*X136500Y150500D01*
X138000Y153500D01*
X136500Y150500D02*Y147500D01*
X139800Y150800D02*X142050D01*
X139800Y147500D02*X142800D01*
X139800Y153500D02*Y147500D01*
Y153500D02*X142800D01*
X147600D02*X148350Y152750D01*
X145350Y153500D02*X147600D01*
X144600Y152750D02*X145350Y153500D01*
X144600Y152750D02*Y151250D01*
X145350Y150500D01*
X147600D01*
X148350Y149750D01*
Y148250D01*
X147600Y147500D02*X148350Y148250D01*
X145350Y147500D02*X147600D01*
X144600Y148250D02*X145350Y147500D01*
X98000Y149750D02*X101000Y153500D01*
X98000Y149750D02*X101750D01*
X101000Y153500D02*Y147500D01*
X45000Y148250D02*X45750Y147500D01*
X45000Y152750D02*Y148250D01*
Y152750D02*X45750Y153500D01*
X47250D01*
X48000Y152750D01*
Y148250D01*
X47250Y147500D02*X48000Y148250D01*
X45750Y147500D02*X47250D01*
X45000Y149000D02*X48000Y152000D01*
X49800Y147500D02*X50550D01*
X52350Y148250D02*X53100Y147500D01*
X52350Y152750D02*Y148250D01*
Y152750D02*X53100Y153500D01*
X54600D01*
X55350Y152750D01*
Y148250D01*
X54600Y147500D02*X55350Y148250D01*
X53100Y147500D02*X54600D01*
X52350Y149000D02*X55350Y152000D01*
X57900Y147500D02*X60900Y153500D01*
X57150D02*X60900D01*
X63450Y147500D02*X65700Y150500D01*
Y152750D02*Y150500D01*
X64950Y153500D02*X65700Y152750D01*
X63450Y153500D02*X64950D01*
X62700Y152750D02*X63450Y153500D01*
X62700Y152750D02*Y151250D01*
X63450Y150500D01*
X65700D01*
X71181Y98504D02*Y95304D01*
Y98504D02*X73954Y100104D01*
X71181Y98504D02*X68408Y100104D01*
X69581Y98504D02*G75*G03X72781Y98504I1600J0D01*G01*
G75*G03X69581Y98504I-1600J0D01*G01*
X20787D02*Y95304D01*
Y98504D02*X23561Y100104D01*
X20787Y98504D02*X18014Y100104D01*
X19187Y98504D02*G75*G03X22387Y98504I1600J0D01*G01*
G75*G03X19187Y98504I-1600J0D01*G01*
X15000Y166250D02*Y163050D01*
Y166250D02*X17773Y167850D01*
X15000Y166250D02*X12227Y167850D01*
X13400Y166250D02*G75*G03X16600Y166250I1600J0D01*G01*
G75*G03X13400Y166250I-1600J0D01*G01*
X135000Y168500D02*X136500Y165500D01*
X138000Y168500D01*
X136500Y165500D02*Y162500D01*
X139800Y165800D02*X142050D01*
X139800Y162500D02*X142800D01*
X139800Y168500D02*Y162500D01*
Y168500D02*X142800D01*
X147600D02*X148350Y167750D01*
X145350Y168500D02*X147600D01*
X144600Y167750D02*X145350Y168500D01*
X144600Y167750D02*Y166250D01*
X145350Y165500D01*
X147600D01*
X148350Y164750D01*
Y163250D01*
X147600Y162500D02*X148350Y163250D01*
X145350Y162500D02*X147600D01*
X144600Y163250D02*X145350Y162500D01*
X98000Y167750D02*X98750Y168500D01*
X101000D01*
X101750Y167750D01*
Y166250D01*
X98000Y162500D02*X101750Y166250D01*
X98000Y162500D02*X101750D01*
X45000Y163250D02*X45750Y162500D01*
X45000Y167750D02*Y163250D01*
Y167750D02*X45750Y168500D01*
X47250D01*
X48000Y167750D01*
Y163250D01*
X47250Y162500D02*X48000Y163250D01*
X45750Y162500D02*X47250D01*
X45000Y164000D02*X48000Y167000D01*
X49800Y162500D02*X50550D01*
X52350Y163250D02*X53100Y162500D01*
X52350Y167750D02*Y163250D01*
Y167750D02*X53100Y168500D01*
X54600D01*
X55350Y167750D01*
Y163250D01*
X54600Y162500D02*X55350Y163250D01*
X53100Y162500D02*X54600D01*
X52350Y164000D02*X55350Y167000D01*
X57150Y168500D02*X60150D01*
X57150D02*Y165500D01*
X57900Y166250D01*
X59400D01*
X60150Y165500D01*
Y163250D01*
X59400Y162500D02*X60150Y163250D01*
X57900Y162500D02*X59400D01*
X57150Y163250D02*X57900Y162500D01*
X61950Y167300D02*X63150Y168500D01*
Y162500D01*
X61950D02*X64200D01*
X48325Y43080D02*X51525D01*
X48325D02*Y39880D01*
X51525D01*
Y43080D02*Y39880D01*
X64325Y40580D02*X67525D01*
X64325D02*Y37380D01*
X67525D01*
Y40580D02*Y37380D01*
X32325Y43080D02*X35525D01*
X32325D02*Y39880D01*
X35525D01*
Y43080D02*Y39880D01*
X16325Y40580D02*X19525D01*
X16325D02*Y37380D01*
X19525D01*
Y40580D02*Y37380D01*
X13400Y182850D02*X16600D01*
X13400D02*Y179650D01*
X16600D01*
Y182850D02*Y179650D01*
X135000Y183500D02*X136500Y180500D01*
X138000Y183500D01*
X136500Y180500D02*Y177500D01*
X139800Y180800D02*X142050D01*
X139800Y177500D02*X142800D01*
X139800Y183500D02*Y177500D01*
Y183500D02*X142800D01*
X147600D02*X148350Y182750D01*
X145350Y183500D02*X147600D01*
X144600Y182750D02*X145350Y183500D01*
X144600Y182750D02*Y181250D01*
X145350Y180500D01*
X147600D01*
X148350Y179750D01*
Y178250D01*
X147600Y177500D02*X148350Y178250D01*
X145350Y177500D02*X147600D01*
X144600Y178250D02*X145350Y177500D01*
X98000Y179750D02*X101000Y183500D01*
X98000Y179750D02*X101750D01*
X101000Y183500D02*Y177500D01*
X45000Y178250D02*X45750Y177500D01*
X45000Y182750D02*Y178250D01*
Y182750D02*X45750Y183500D01*
X47250D01*
X48000Y182750D01*
Y178250D01*
X47250Y177500D02*X48000Y178250D01*
X45750Y177500D02*X47250D01*
X45000Y179000D02*X48000Y182000D01*
X49800Y177500D02*X50550D01*
X52350Y178250D02*X53100Y177500D01*
X52350Y182750D02*Y178250D01*
Y182750D02*X53100Y183500D01*
X54600D01*
X55350Y182750D01*
Y178250D01*
X54600Y177500D02*X55350Y178250D01*
X53100Y177500D02*X54600D01*
X52350Y179000D02*X55350Y182000D01*
X57150Y179750D02*X60150Y183500D01*
X57150Y179750D02*X60900D01*
X60150Y183500D02*Y177500D01*
X63450D02*X65700Y180500D01*
Y182750D02*Y180500D01*
X64950Y183500D02*X65700Y182750D01*
X63450Y183500D02*X64950D01*
X62700Y182750D02*X63450Y183500D01*
X62700Y182750D02*Y181250D01*
X63450Y180500D01*
X65700D01*
X62704Y62520D02*G75*G03X64304Y62520I800J0D01*G01*
G75*G03X62704Y62520I-800J0D01*G01*
X72743D02*G75*G03X74343Y62520I800J0D01*G01*
G75*G03X72743Y62520I-800J0D01*G01*
X47192Y88543D02*G75*G03X48792Y88543I800J0D01*G01*
G75*G03X47192Y88543I-800J0D01*G01*
X55224D02*G75*G03X56824Y88543I800J0D01*G01*
G75*G03X55224Y88543I-800J0D01*G01*
X39161D02*G75*G03X40761Y88543I800J0D01*G01*
G75*G03X39161Y88543I-800J0D01*G01*
X31129D02*G75*G03X32729Y88543I800J0D01*G01*
G75*G03X31129Y88543I-800J0D01*G01*
X43176Y81457D02*G75*G03X44776Y81457I800J0D01*G01*
G75*G03X43176Y81457I-800J0D01*G01*
X35145D02*G75*G03X36745Y81457I800J0D01*G01*
G75*G03X35145Y81457I-800J0D01*G01*
X51208D02*G75*G03X52808Y81457I800J0D01*G01*
G75*G03X51208Y81457I-800J0D01*G01*
X59239D02*G75*G03X60839Y81457I800J0D01*G01*
G75*G03X59239Y81457I-800J0D01*G01*
X17625Y62520D02*G75*G03X19225Y62520I800J0D01*G01*
G75*G03X17625Y62520I-800J0D01*G01*
X27665D02*G75*G03X29265Y62520I800J0D01*G01*
G75*G03X27665Y62520I-800J0D01*G01*
X14200Y196250D02*G75*G03X15800Y196250I800J0D01*G01*
G75*G03X14200Y196250I-800J0D01*G01*
X135000Y198500D02*X136500Y195500D01*
X138000Y198500D01*
X136500Y195500D02*Y192500D01*
X139800Y195800D02*X142050D01*
X139800Y192500D02*X142800D01*
X139800Y198500D02*Y192500D01*
Y198500D02*X142800D01*
X147600D02*X148350Y197750D01*
X145350Y198500D02*X147600D01*
X144600Y197750D02*X145350Y198500D01*
X144600Y197750D02*Y196250D01*
X145350Y195500D01*
X147600D01*
X148350Y194750D01*
Y193250D01*
X147600Y192500D02*X148350Y193250D01*
X145350Y192500D02*X147600D01*
X144600Y193250D02*X145350Y192500D01*
X98000Y197300D02*X99200Y198500D01*
Y192500D01*
X98000D02*X100250D01*
X102050Y197750D02*X102800Y198500D01*
X105050D01*
X105800Y197750D01*
Y196250D01*
X102050Y192500D02*X105800Y196250D01*
X102050Y192500D02*X105800D01*
X45000Y193250D02*X45750Y192500D01*
X45000Y197750D02*Y193250D01*
Y197750D02*X45750Y198500D01*
X47250D01*
X48000Y197750D01*
Y193250D01*
X47250Y192500D02*X48000Y193250D01*
X45750Y192500D02*X47250D01*
X45000Y194000D02*X48000Y197000D01*
X49800Y192500D02*X50550D01*
X52350Y193250D02*X53100Y192500D01*
X52350Y197750D02*Y193250D01*
Y197750D02*X53100Y198500D01*
X54600D01*
X55350Y197750D01*
Y193250D01*
X54600Y192500D02*X55350Y193250D01*
X53100Y192500D02*X54600D01*
X52350Y194000D02*X55350Y197000D01*
X57150Y197750D02*X57900Y198500D01*
X59400D01*
X60150Y197750D01*
X59400Y192500D02*X60150Y193250D01*
X57900Y192500D02*X59400D01*
X57150Y193250D02*X57900Y192500D01*
Y195800D02*X59400D01*
X60150Y197750D02*Y196550D01*
Y195050D02*Y193250D01*
Y195050D02*X59400Y195800D01*
X60150Y196550D02*X59400Y195800D01*
X61950Y198500D02*X64950D01*
X61950D02*Y195500D01*
X62700Y196250D01*
X64200D01*
X64950Y195500D01*
Y193250D01*
X64200Y192500D02*X64950Y193250D01*
X62700Y192500D02*X64200D01*
X61950Y193250D02*X62700Y192500D01*
X54631Y42287D02*X57031Y39887D01*
X54631D02*X57031Y42287D01*
X70631Y39787D02*X73031Y37387D01*
X70631D02*X73031Y39787D01*
X38631Y42287D02*X41031Y39887D01*
X38631D02*X41031Y42287D01*
X22631Y39787D02*X25031Y37387D01*
X22631D02*X25031Y39787D01*
X13800Y212450D02*X16200Y210050D01*
X13800D02*X16200Y212450D01*
X135000Y213500D02*X136500Y210500D01*
X138000Y213500D01*
X136500Y210500D02*Y207500D01*
X139800Y210800D02*X142050D01*
X139800Y207500D02*X142800D01*
X139800Y213500D02*Y207500D01*
Y213500D02*X142800D01*
X147600D02*X148350Y212750D01*
X145350Y213500D02*X147600D01*
X144600Y212750D02*X145350Y213500D01*
X144600Y212750D02*Y211250D01*
X145350Y210500D01*
X147600D01*
X148350Y209750D01*
Y208250D01*
X147600Y207500D02*X148350Y208250D01*
X145350Y207500D02*X147600D01*
X144600Y208250D02*X145350Y207500D01*
X98000Y209750D02*X101000Y213500D01*
X98000Y209750D02*X101750D01*
X101000Y213500D02*Y207500D01*
X45000Y208250D02*X45750Y207500D01*
X45000Y212750D02*Y208250D01*
Y212750D02*X45750Y213500D01*
X47250D01*
X48000Y212750D01*
Y208250D01*
X47250Y207500D02*X48000Y208250D01*
X45750Y207500D02*X47250D01*
X45000Y209000D02*X48000Y212000D01*
X49800Y207500D02*X50550D01*
X52350Y208250D02*X53100Y207500D01*
X52350Y212750D02*Y208250D01*
Y212750D02*X53100Y213500D01*
X54600D01*
X55350Y212750D01*
Y208250D01*
X54600Y207500D02*X55350Y208250D01*
X53100Y207500D02*X54600D01*
X52350Y209000D02*X55350Y212000D01*
X57150Y212750D02*X57900Y213500D01*
X59400D01*
X60150Y212750D01*
X59400Y207500D02*X60150Y208250D01*
X57900Y207500D02*X59400D01*
X57150Y208250D02*X57900Y207500D01*
Y210800D02*X59400D01*
X60150Y212750D02*Y211550D01*
Y210050D02*Y208250D01*
Y210050D02*X59400Y210800D01*
X60150Y211550D02*X59400Y210800D01*
X61950Y208250D02*X62700Y207500D01*
X61950Y212750D02*Y208250D01*
Y212750D02*X62700Y213500D01*
X64200D01*
X64950Y212750D01*
Y208250D01*
X64200Y207500D02*X64950Y208250D01*
X62700Y207500D02*X64200D01*
X61950Y209000D02*X64950Y212000D01*
X59374Y39537D02*Y36337D01*
X57774Y37937D02*X60974D01*
X75374Y37037D02*Y33837D01*
X73774Y35437D02*X76974D01*
X43374Y39537D02*Y36337D01*
X41774Y37937D02*X44974D01*
X27374Y37037D02*Y33837D01*
X25774Y35437D02*X28974D01*
X15000Y227850D02*Y224650D01*
X13400Y226250D02*X16600D01*
X135000Y228500D02*X136500Y225500D01*
X138000Y228500D01*
X136500Y225500D02*Y222500D01*
X139800Y225800D02*X142050D01*
X139800Y222500D02*X142800D01*
X139800Y228500D02*Y222500D01*
Y228500D02*X142800D01*
X147600D02*X148350Y227750D01*
X145350Y228500D02*X147600D01*
X144600Y227750D02*X145350Y228500D01*
X144600Y227750D02*Y226250D01*
X145350Y225500D01*
X147600D01*
X148350Y224750D01*
Y223250D01*
X147600Y222500D02*X148350Y223250D01*
X145350Y222500D02*X147600D01*
X144600Y223250D02*X145350Y222500D01*
X98000Y224750D02*X101000Y228500D01*
X98000Y224750D02*X101750D01*
X101000Y228500D02*Y222500D01*
X45000Y223250D02*X45750Y222500D01*
X45000Y227750D02*Y223250D01*
Y227750D02*X45750Y228500D01*
X47250D01*
X48000Y227750D01*
Y223250D01*
X47250Y222500D02*X48000Y223250D01*
X45750Y222500D02*X47250D01*
X45000Y224000D02*X48000Y227000D01*
X49800Y222500D02*X50550D01*
X52350Y223250D02*X53100Y222500D01*
X52350Y227750D02*Y223250D01*
Y227750D02*X53100Y228500D01*
X54600D01*
X55350Y227750D01*
Y223250D01*
X54600Y222500D02*X55350Y223250D01*
X53100Y222500D02*X54600D01*
X52350Y224000D02*X55350Y227000D01*
X57150Y227750D02*X57900Y228500D01*
X60150D01*
X60900Y227750D01*
Y226250D01*
X57150Y222500D02*X60900Y226250D01*
X57150Y222500D02*X60900D01*
X62700Y223250D02*X63450Y222500D01*
X62700Y227750D02*Y223250D01*
Y227750D02*X63450Y228500D01*
X64950D01*
X65700Y227750D01*
Y223250D01*
X64950Y222500D02*X65700Y223250D01*
X63450Y222500D02*X64950D01*
X62700Y224000D02*X65700Y227000D01*
X43469Y92000D02*Y90400D01*
Y92000D02*X44855Y92800D01*
X43469Y92000D02*X42082Y92800D01*
X36469Y96000D02*Y94400D01*
Y96000D02*X37855Y96800D01*
X36469Y96000D02*X35082Y96800D01*
X43969Y101000D02*Y99400D01*
Y101000D02*X45355Y101800D01*
X43969Y101000D02*X42582Y101800D01*
X15000Y241250D02*Y239650D01*
Y241250D02*X16387Y242050D01*
X15000Y241250D02*X13613Y242050D01*
X135000Y243500D02*X136500Y240500D01*
X138000Y243500D01*
X136500Y240500D02*Y237500D01*
X139800Y240800D02*X142050D01*
X139800Y237500D02*X142800D01*
X139800Y243500D02*Y237500D01*
Y243500D02*X142800D01*
X147600D02*X148350Y242750D01*
X145350Y243500D02*X147600D01*
X144600Y242750D02*X145350Y243500D01*
X144600Y242750D02*Y241250D01*
X145350Y240500D01*
X147600D01*
X148350Y239750D01*
Y238250D01*
X147600Y237500D02*X148350Y238250D01*
X145350Y237500D02*X147600D01*
X144600Y238250D02*X145350Y237500D01*
X98000Y242750D02*X98750Y243500D01*
X100250D01*
X101000Y242750D01*
X100250Y237500D02*X101000Y238250D01*
X98750Y237500D02*X100250D01*
X98000Y238250D02*X98750Y237500D01*
Y240800D02*X100250D01*
X101000Y242750D02*Y241550D01*
Y240050D02*Y238250D01*
Y240050D02*X100250Y240800D01*
X101000Y241550D02*X100250Y240800D01*
X45000Y238250D02*X45750Y237500D01*
X45000Y242750D02*Y238250D01*
Y242750D02*X45750Y243500D01*
X47250D01*
X48000Y242750D01*
Y238250D01*
X47250Y237500D02*X48000Y238250D01*
X45750Y237500D02*X47250D01*
X45000Y239000D02*X48000Y242000D01*
X49800Y237500D02*X50550D01*
X52350Y238250D02*X53100Y237500D01*
X52350Y242750D02*Y238250D01*
Y242750D02*X53100Y243500D01*
X54600D01*
X55350Y242750D01*
Y238250D01*
X54600Y237500D02*X55350Y238250D01*
X53100Y237500D02*X54600D01*
X52350Y239000D02*X55350Y242000D01*
X57150Y242300D02*X58350Y243500D01*
Y237500D01*
X57150D02*X59400D01*
X61200Y238250D02*X61950Y237500D01*
X61200Y242750D02*Y238250D01*
Y242750D02*X61950Y243500D01*
X63450D01*
X64200Y242750D01*
Y238250D01*
X63450Y237500D02*X64200Y238250D01*
X61950Y237500D02*X63450D01*
X61200Y239000D02*X64200Y242000D01*
X3000Y258500D02*X3750Y257750D01*
X750Y258500D02*X3000D01*
X0Y257750D02*X750Y258500D01*
X0Y257750D02*Y256250D01*
X750Y255500D01*
X3000D01*
X3750Y254750D01*
Y253250D01*
X3000Y252500D02*X3750Y253250D01*
X750Y252500D02*X3000D01*
X0Y253250D02*X750Y252500D01*
X5550Y255500D02*Y253250D01*
X6300Y252500D01*
X8550Y255500D02*Y251000D01*
X7800Y250250D02*X8550Y251000D01*
X6300Y250250D02*X7800D01*
X5550Y251000D02*X6300Y250250D01*
Y252500D02*X7800D01*
X8550Y253250D01*
X11100Y254750D02*Y252500D01*
Y254750D02*X11850Y255500D01*
X12600D01*
X13350Y254750D01*
Y252500D01*
Y254750D02*X14100Y255500D01*
X14850D01*
X15600Y254750D01*
Y252500D01*
X10350Y255500D02*X11100Y254750D01*
X17400Y258500D02*Y252500D01*
Y253250D02*X18150Y252500D01*
X19650D01*
X20400Y253250D01*
Y254750D02*Y253250D01*
X19650Y255500D02*X20400Y254750D01*
X18150Y255500D02*X19650D01*
X17400Y254750D02*X18150Y255500D01*
X22200Y254750D02*Y253250D01*
Y254750D02*X22950Y255500D01*
X24450D01*
X25200Y254750D01*
Y253250D01*
X24450Y252500D02*X25200Y253250D01*
X22950Y252500D02*X24450D01*
X22200Y253250D02*X22950Y252500D01*
X27000Y258500D02*Y253250D01*
X27750Y252500D01*
X0Y249250D02*X29250D01*
X41750Y258500D02*Y252500D01*
X43700Y258500D02*X44750Y257450D01*
Y253550D01*
X43700Y252500D02*X44750Y253550D01*
X41000Y252500D02*X43700D01*
X41000Y258500D02*X43700D01*
G54D107*X46550Y257000D02*Y256850D01*
G54D106*Y254750D02*Y252500D01*
X50300Y255500D02*X51050Y254750D01*
X48800Y255500D02*X50300D01*
X48050Y254750D02*X48800Y255500D01*
X48050Y254750D02*Y253250D01*
X48800Y252500D01*
X51050Y255500D02*Y253250D01*
X51800Y252500D01*
X48800D02*X50300D01*
X51050Y253250D01*
X54350Y254750D02*Y252500D01*
Y254750D02*X55100Y255500D01*
X55850D01*
X56600Y254750D01*
Y252500D01*
Y254750D02*X57350Y255500D01*
X58100D01*
X58850Y254750D01*
Y252500D01*
X53600Y255500D02*X54350Y254750D01*
X60650Y252500D02*X61400D01*
X65900Y253250D02*X66650Y252500D01*
X65900Y257750D02*X66650Y258500D01*
X65900Y257750D02*Y253250D01*
X68450Y258500D02*X69950D01*
X69200D02*Y252500D01*
X68450D02*X69950D01*
X72500Y254750D02*Y252500D01*
Y254750D02*X73250Y255500D01*
X74000D01*
X74750Y254750D01*
Y252500D01*
X71750Y255500D02*X72500Y254750D01*
X77300Y255500D02*X79550D01*
X76550Y254750D02*X77300Y255500D01*
X76550Y254750D02*Y253250D01*
X77300Y252500D01*
X79550D01*
X81350Y258500D02*Y252500D01*
Y254750D02*X82100Y255500D01*
X83600D01*
X84350Y254750D01*
Y252500D01*
X86150Y258500D02*X86900Y257750D01*
Y253250D01*
X86150Y252500D02*X86900Y253250D01*
X41000Y249250D02*X88700D01*
X96050Y252500D02*X98000D01*
X95000Y253550D02*X96050Y252500D01*
X95000Y257450D02*Y253550D01*
Y257450D02*X96050Y258500D01*
X98000D01*
X99800Y254750D02*Y253250D01*
Y254750D02*X100550Y255500D01*
X102050D01*
X102800Y254750D01*
Y253250D01*
X102050Y252500D02*X102800Y253250D01*
X100550Y252500D02*X102050D01*
X99800Y253250D02*X100550Y252500D01*
X104600Y255500D02*Y253250D01*
X105350Y252500D01*
X106850D01*
X107600Y253250D01*
Y255500D02*Y253250D01*
X110150Y254750D02*Y252500D01*
Y254750D02*X110900Y255500D01*
X111650D01*
X112400Y254750D01*
Y252500D01*
X109400Y255500D02*X110150Y254750D01*
X114950Y258500D02*Y253250D01*
X115700Y252500D01*
X114200Y256250D02*X115700D01*
X95000Y249250D02*X117200D01*
X130750Y258500D02*Y252500D01*
X130000Y258500D02*X133000D01*
X133750Y257750D01*
Y256250D01*
X133000Y255500D02*X133750Y256250D01*
X130750Y255500D02*X133000D01*
X135550Y258500D02*Y253250D01*
X136300Y252500D01*
X140050Y255500D02*X140800Y254750D01*
X138550Y255500D02*X140050D01*
X137800Y254750D02*X138550Y255500D01*
X137800Y254750D02*Y253250D01*
X138550Y252500D01*
X140800Y255500D02*Y253250D01*
X141550Y252500D01*
X138550D02*X140050D01*
X140800Y253250D01*
X144100Y258500D02*Y253250D01*
X144850Y252500D01*
X143350Y256250D02*X144850D01*
X147100Y252500D02*X149350D01*
X146350Y253250D02*X147100Y252500D01*
X146350Y254750D02*Y253250D01*
Y254750D02*X147100Y255500D01*
X148600D01*
X149350Y254750D01*
X146350Y254000D02*X149350D01*
Y254750D02*Y254000D01*
X154150Y258500D02*Y252500D01*
X153400D02*X154150Y253250D01*
X151900Y252500D02*X153400D01*
X151150Y253250D02*X151900Y252500D01*
X151150Y254750D02*Y253250D01*
Y254750D02*X151900Y255500D01*
X153400D01*
X154150Y254750D01*
X157450Y255500D02*Y254750D01*
Y253250D02*Y252500D01*
X155950Y257750D02*Y257000D01*
Y257750D02*X156700Y258500D01*
X158200D01*
X158950Y257750D01*
Y257000D01*
X157450Y255500D02*X158950Y257000D01*
X130000Y249250D02*X160750D01*
X0Y273500D02*X3000D01*
X1500D02*Y267500D01*
X4800Y273500D02*Y267500D01*
Y269750D02*X5550Y270500D01*
X7050D01*
X7800Y269750D01*
Y267500D01*
X10350D02*X12600D01*
X9600Y268250D02*X10350Y267500D01*
X9600Y269750D02*Y268250D01*
Y269750D02*X10350Y270500D01*
X11850D01*
X12600Y269750D01*
X9600Y269000D02*X12600D01*
Y269750D02*Y269000D01*
X15150Y269750D02*Y267500D01*
Y269750D02*X15900Y270500D01*
X17400D01*
X14400D02*X15150Y269750D01*
X19950Y267500D02*X22200D01*
X19200Y268250D02*X19950Y267500D01*
X19200Y269750D02*Y268250D01*
Y269750D02*X19950Y270500D01*
X21450D01*
X22200Y269750D01*
X19200Y269000D02*X22200D01*
Y269750D02*Y269000D01*
X28950Y270500D02*X29700Y269750D01*
X27450Y270500D02*X28950D01*
X26700Y269750D02*X27450Y270500D01*
X26700Y269750D02*Y268250D01*
X27450Y267500D01*
X29700Y270500D02*Y268250D01*
X30450Y267500D01*
X27450D02*X28950D01*
X29700Y268250D01*
X33000Y269750D02*Y267500D01*
Y269750D02*X33750Y270500D01*
X35250D01*
X32250D02*X33000Y269750D01*
X37800Y267500D02*X40050D01*
X37050Y268250D02*X37800Y267500D01*
X37050Y269750D02*Y268250D01*
Y269750D02*X37800Y270500D01*
X39300D01*
X40050Y269750D01*
X37050Y269000D02*X40050D01*
Y269750D02*Y269000D01*
X44550Y268250D02*X45300Y267500D01*
X44550Y269450D02*Y268250D01*
Y269450D02*X45600Y270500D01*
X46500D01*
X47550Y269450D01*
Y268250D01*
X46800Y267500D02*X47550Y268250D01*
X45300Y267500D02*X46800D01*
X44550Y271550D02*X45600Y270500D01*
X44550Y272750D02*Y271550D01*
Y272750D02*X45300Y273500D01*
X46800D01*
X47550Y272750D01*
Y271550D01*
X46500Y270500D02*X47550Y271550D01*
X55050Y273500D02*Y267500D01*
X54300D02*X55050Y268250D01*
X52800Y267500D02*X54300D01*
X52050Y268250D02*X52800Y267500D01*
X52050Y269750D02*Y268250D01*
Y269750D02*X52800Y270500D01*
X54300D01*
X55050Y269750D01*
G54D107*X56850Y272000D02*Y271850D01*
G54D106*Y269750D02*Y267500D01*
X59100Y272750D02*Y267500D01*
Y272750D02*X59850Y273500D01*
X60600D01*
X58350Y270500D02*X59850D01*
X62850Y272750D02*Y267500D01*
Y272750D02*X63600Y273500D01*
X64350D01*
X62100Y270500D02*X63600D01*
X66600Y267500D02*X68850D01*
X65850Y268250D02*X66600Y267500D01*
X65850Y269750D02*Y268250D01*
Y269750D02*X66600Y270500D01*
X68100D01*
X68850Y269750D01*
X65850Y269000D02*X68850D01*
Y269750D02*Y269000D01*
X71400Y269750D02*Y267500D01*
Y269750D02*X72150Y270500D01*
X73650D01*
X70650D02*X71400Y269750D01*
X76200Y267500D02*X78450D01*
X75450Y268250D02*X76200Y267500D01*
X75450Y269750D02*Y268250D01*
Y269750D02*X76200Y270500D01*
X77700D01*
X78450Y269750D01*
X75450Y269000D02*X78450D01*
Y269750D02*Y269000D01*
X81000Y269750D02*Y267500D01*
Y269750D02*X81750Y270500D01*
X82500D01*
X83250Y269750D01*
Y267500D01*
X80250Y270500D02*X81000Y269750D01*
X85800Y273500D02*Y268250D01*
X86550Y267500D01*
X85050Y271250D02*X86550D01*
X93750Y273500D02*Y267500D01*
X93000D02*X93750Y268250D01*
X91500Y267500D02*X93000D01*
X90750Y268250D02*X91500Y267500D01*
X90750Y269750D02*Y268250D01*
Y269750D02*X91500Y270500D01*
X93000D01*
X93750Y269750D01*
X96300D02*Y267500D01*
Y269750D02*X97050Y270500D01*
X98550D01*
X95550D02*X96300Y269750D01*
G54D107*X100350Y272000D02*Y271850D01*
G54D106*Y269750D02*Y267500D01*
X101850Y273500D02*Y268250D01*
X102600Y267500D01*
X104100Y273500D02*Y268250D01*
X104850Y267500D01*
X109800D02*X112050D01*
X112800Y268250D01*
X112050Y269000D02*X112800Y268250D01*
X109800Y269000D02*X112050D01*
X109050Y269750D02*X109800Y269000D01*
X109050Y269750D02*X109800Y270500D01*
X112050D01*
X112800Y269750D01*
X109050Y268250D02*X109800Y267500D01*
G54D107*X114600Y272000D02*Y271850D01*
G54D106*Y269750D02*Y267500D01*
X116100Y270500D02*X119100D01*
X116100Y267500D02*X119100Y270500D01*
X116100Y267500D02*X119100D01*
X121650D02*X123900D01*
X120900Y268250D02*X121650Y267500D01*
X120900Y269750D02*Y268250D01*
Y269750D02*X121650Y270500D01*
X123150D01*
X123900Y269750D01*
X120900Y269000D02*X123900D01*
Y269750D02*Y269000D01*
X126450Y267500D02*X128700D01*
X129450Y268250D01*
X128700Y269000D02*X129450Y268250D01*
X126450Y269000D02*X128700D01*
X125700Y269750D02*X126450Y269000D01*
X125700Y269750D02*X126450Y270500D01*
X128700D01*
X129450Y269750D01*
X125700Y268250D02*X126450Y267500D01*
X133950Y270500D02*Y268250D01*
X134700Y267500D01*
X136200D01*
X136950Y268250D01*
Y270500D02*Y268250D01*
X139500Y267500D02*X141750D01*
X142500Y268250D01*
X141750Y269000D02*X142500Y268250D01*
X139500Y269000D02*X141750D01*
X138750Y269750D02*X139500Y269000D01*
X138750Y269750D02*X139500Y270500D01*
X141750D01*
X142500Y269750D01*
X138750Y268250D02*X139500Y267500D01*
X145050D02*X147300D01*
X144300Y268250D02*X145050Y267500D01*
X144300Y269750D02*Y268250D01*
Y269750D02*X145050Y270500D01*
X146550D01*
X147300Y269750D01*
X144300Y269000D02*X147300D01*
Y269750D02*Y269000D01*
X152100Y273500D02*Y267500D01*
X151350D02*X152100Y268250D01*
X149850Y267500D02*X151350D01*
X149100Y268250D02*X149850Y267500D01*
X149100Y269750D02*Y268250D01*
Y269750D02*X149850Y270500D01*
X151350D01*
X152100Y269750D01*
G54D107*X156600Y272000D02*Y271850D01*
G54D106*Y269750D02*Y267500D01*
X158850Y269750D02*Y267500D01*
Y269750D02*X159600Y270500D01*
X160350D01*
X161100Y269750D01*
Y267500D01*
X158100Y270500D02*X158850Y269750D01*
X166350Y273500D02*Y268250D01*
X167100Y267500D01*
X165600Y271250D02*X167100D01*
X168600Y273500D02*Y267500D01*
Y269750D02*X169350Y270500D01*
X170850D01*
X171600Y269750D01*
Y267500D01*
G54D107*X173400Y272000D02*Y271850D01*
G54D106*Y269750D02*Y267500D01*
X175650D02*X177900D01*
X178650Y268250D01*
X177900Y269000D02*X178650Y268250D01*
X175650Y269000D02*X177900D01*
X174900Y269750D02*X175650Y269000D01*
X174900Y269750D02*X175650Y270500D01*
X177900D01*
X178650Y269750D01*
X174900Y268250D02*X175650Y267500D01*
X183150Y273500D02*Y268250D01*
X183900Y267500D01*
X187650Y270500D02*X188400Y269750D01*
X186150Y270500D02*X187650D01*
X185400Y269750D02*X186150Y270500D01*
X185400Y269750D02*Y268250D01*
X186150Y267500D01*
X188400Y270500D02*Y268250D01*
X189150Y267500D01*
X186150D02*X187650D01*
X188400Y268250D01*
X190950Y270500D02*Y268250D01*
X191700Y267500D01*
X193950Y270500D02*Y266000D01*
X193200Y265250D02*X193950Y266000D01*
X191700Y265250D02*X193200D01*
X190950Y266000D02*X191700Y265250D01*
Y267500D02*X193200D01*
X193950Y268250D01*
X195750Y269750D02*Y268250D01*
Y269750D02*X196500Y270500D01*
X198000D01*
X198750Y269750D01*
Y268250D01*
X198000Y267500D02*X198750Y268250D01*
X196500Y267500D02*X198000D01*
X195750Y268250D02*X196500Y267500D01*
X200550Y270500D02*Y268250D01*
X201300Y267500D01*
X202800D01*
X203550Y268250D01*
Y270500D02*Y268250D01*
X206100Y273500D02*Y268250D01*
X206850Y267500D01*
X205350Y271250D02*X206850D01*
X208350Y266000D02*X209850Y267500D01*
X214350Y272750D02*X215100Y273500D01*
X216600D01*
X217350Y272750D01*
X216600Y267500D02*X217350Y268250D01*
X215100Y267500D02*X216600D01*
X214350Y268250D02*X215100Y267500D01*
Y270800D02*X216600D01*
X217350Y272750D02*Y271550D01*
Y270050D02*Y268250D01*
Y270050D02*X216600Y270800D01*
X217350Y271550D02*X216600Y270800D01*
X219150Y273500D02*X222150D01*
X219150D02*Y270500D01*
X219900Y271250D01*
X221400D01*
X222150Y270500D01*
Y268250D01*
X221400Y267500D02*X222150Y268250D01*
X219900Y267500D02*X221400D01*
X219150Y268250D02*X219900Y267500D01*
X226650Y273500D02*Y267500D01*
Y269750D02*X227400Y270500D01*
X228900D01*
X229650Y269750D01*
Y267500D01*
X231450Y269750D02*Y268250D01*
Y269750D02*X232200Y270500D01*
X233700D01*
X234450Y269750D01*
Y268250D01*
X233700Y267500D02*X234450Y268250D01*
X232200Y267500D02*X233700D01*
X231450Y268250D02*X232200Y267500D01*
X236250Y273500D02*Y268250D01*
X237000Y267500D01*
X239250D02*X241500D01*
X238500Y268250D02*X239250Y267500D01*
X238500Y269750D02*Y268250D01*
Y269750D02*X239250Y270500D01*
X240750D01*
X241500Y269750D01*
X238500Y269000D02*X241500D01*
Y269750D02*Y269000D01*
X244050Y267500D02*X246300D01*
X247050Y268250D01*
X246300Y269000D02*X247050Y268250D01*
X244050Y269000D02*X246300D01*
X243300Y269750D02*X244050Y269000D01*
X243300Y269750D02*X244050Y270500D01*
X246300D01*
X247050Y269750D01*
X243300Y268250D02*X244050Y267500D01*
X252300Y273500D02*Y268250D01*
X253050Y267500D01*
X251550Y271250D02*X253050D01*
X254550Y269750D02*Y268250D01*
Y269750D02*X255300Y270500D01*
X256800D01*
X257550Y269750D01*
Y268250D01*
X256800Y267500D02*X257550Y268250D01*
X255300Y267500D02*X256800D01*
X254550Y268250D02*X255300Y267500D01*
X260100Y273500D02*Y268250D01*
X260850Y267500D01*
X259350Y271250D02*X260850D01*
X264600Y270500D02*X265350Y269750D01*
X263100Y270500D02*X264600D01*
X262350Y269750D02*X263100Y270500D01*
X262350Y269750D02*Y268250D01*
X263100Y267500D01*
X265350Y270500D02*Y268250D01*
X266100Y267500D01*
X263100D02*X264600D01*
X265350Y268250D01*
X267900Y273500D02*Y268250D01*
X268650Y267500D01*
G54D108*X11000Y118000D02*Y20000D01*
X83000D01*
Y118000D01*
X11000D01*
G54D106*X0Y-9500D02*X3000D01*
X3750Y-8750D01*
Y-6950D02*Y-8750D01*
X3000Y-6200D02*X3750Y-6950D01*
X750Y-6200D02*X3000D01*
X750Y-3500D02*Y-9500D01*
X0Y-3500D02*X3000D01*
X3750Y-4250D01*
Y-5450D01*
X3000Y-6200D02*X3750Y-5450D01*
X5550Y-7250D02*Y-8750D01*
Y-7250D02*X6300Y-6500D01*
X7800D01*
X8550Y-7250D01*
Y-8750D01*
X7800Y-9500D02*X8550Y-8750D01*
X6300Y-9500D02*X7800D01*
X5550Y-8750D02*X6300Y-9500D01*
X12600Y-6500D02*X13350Y-7250D01*
X11100Y-6500D02*X12600D01*
X10350Y-7250D02*X11100Y-6500D01*
X10350Y-7250D02*Y-8750D01*
X11100Y-9500D01*
X13350Y-6500D02*Y-8750D01*
X14100Y-9500D01*
X11100D02*X12600D01*
X13350Y-8750D01*
X16650Y-7250D02*Y-9500D01*
Y-7250D02*X17400Y-6500D01*
X18900D01*
X15900D02*X16650Y-7250D01*
X23700Y-3500D02*Y-9500D01*
X22950D02*X23700Y-8750D01*
X21450Y-9500D02*X22950D01*
X20700Y-8750D02*X21450Y-9500D01*
X20700Y-7250D02*Y-8750D01*
Y-7250D02*X21450Y-6500D01*
X22950D01*
X23700Y-7250D01*
X28200D02*Y-8750D01*
Y-7250D02*X28950Y-6500D01*
X30450D01*
X31200Y-7250D01*
Y-8750D01*
X30450Y-9500D02*X31200Y-8750D01*
X28950Y-9500D02*X30450D01*
X28200Y-8750D02*X28950Y-9500D01*
X33000Y-6500D02*Y-8750D01*
X33750Y-9500D01*
X35250D01*
X36000Y-8750D01*
Y-6500D02*Y-8750D01*
X38550Y-3500D02*Y-8750D01*
X39300Y-9500D01*
X37800Y-5750D02*X39300D01*
X40800Y-3500D02*Y-8750D01*
X41550Y-9500D01*
G54D107*X43050Y-5000D02*Y-5150D01*
G54D106*Y-7250D02*Y-9500D01*
X45300Y-7250D02*Y-9500D01*
Y-7250D02*X46050Y-6500D01*
X46800D01*
X47550Y-7250D01*
Y-9500D01*
X44550Y-6500D02*X45300Y-7250D01*
X50100Y-9500D02*X52350D01*
X49350Y-8750D02*X50100Y-9500D01*
X49350Y-7250D02*Y-8750D01*
Y-7250D02*X50100Y-6500D01*
X51600D01*
X52350Y-7250D01*
X49350Y-8000D02*X52350D01*
Y-7250D02*Y-8000D01*
G54D107*X56850Y-5000D02*Y-5150D01*
G54D106*Y-7250D02*Y-9500D01*
X59100D02*X61350D01*
X62100Y-8750D01*
X61350Y-8000D02*X62100Y-8750D01*
X59100Y-8000D02*X61350D01*
X58350Y-7250D02*X59100Y-8000D01*
X58350Y-7250D02*X59100Y-6500D01*
X61350D01*
X62100Y-7250D01*
X58350Y-8750D02*X59100Y-9500D01*
X67350Y-3500D02*Y-8750D01*
X68100Y-9500D01*
X66600Y-5750D02*X68100D01*
X69600Y-3500D02*Y-9500D01*
Y-7250D02*X70350Y-6500D01*
X71850D01*
X72600Y-7250D01*
Y-9500D01*
X75150D02*X77400D01*
X74400Y-8750D02*X75150Y-9500D01*
X74400Y-7250D02*Y-8750D01*
Y-7250D02*X75150Y-6500D01*
X76650D01*
X77400Y-7250D01*
X74400Y-8000D02*X77400D01*
Y-7250D02*Y-8000D01*
X82650Y-6500D02*X84900D01*
X81900Y-7250D02*X82650Y-6500D01*
X81900Y-7250D02*Y-8750D01*
X82650Y-9500D01*
X84900D01*
X87450D02*X89700D01*
X86700Y-8750D02*X87450Y-9500D01*
X86700Y-7250D02*Y-8750D01*
Y-7250D02*X87450Y-6500D01*
X88950D01*
X89700Y-7250D01*
X86700Y-8000D02*X89700D01*
Y-7250D02*Y-8000D01*
X92250Y-7250D02*Y-9500D01*
Y-7250D02*X93000Y-6500D01*
X93750D01*
X94500Y-7250D01*
Y-9500D01*
X91500Y-6500D02*X92250Y-7250D01*
X97050Y-3500D02*Y-8750D01*
X97800Y-9500D01*
X96300Y-5750D02*X97800D01*
X100050Y-9500D02*X102300D01*
X99300Y-8750D02*X100050Y-9500D01*
X99300Y-7250D02*Y-8750D01*
Y-7250D02*X100050Y-6500D01*
X101550D01*
X102300Y-7250D01*
X99300Y-8000D02*X102300D01*
Y-7250D02*Y-8000D01*
X104850Y-7250D02*Y-9500D01*
Y-7250D02*X105600Y-6500D01*
X107100D01*
X104100D02*X104850Y-7250D01*
X108900Y-3500D02*Y-8750D01*
X109650Y-9500D01*
G54D107*X111150Y-5000D02*Y-5150D01*
G54D106*Y-7250D02*Y-9500D01*
X113400Y-7250D02*Y-9500D01*
Y-7250D02*X114150Y-6500D01*
X114900D01*
X115650Y-7250D01*
Y-9500D01*
X112650Y-6500D02*X113400Y-7250D01*
X118200Y-9500D02*X120450D01*
X117450Y-8750D02*X118200Y-9500D01*
X117450Y-7250D02*Y-8750D01*
Y-7250D02*X118200Y-6500D01*
X119700D01*
X120450Y-7250D01*
X117450Y-8000D02*X120450D01*
Y-7250D02*Y-8000D01*
X124950Y-7250D02*Y-8750D01*
Y-7250D02*X125700Y-6500D01*
X127200D01*
X127950Y-7250D01*
Y-8750D01*
X127200Y-9500D02*X127950Y-8750D01*
X125700Y-9500D02*X127200D01*
X124950Y-8750D02*X125700Y-9500D01*
X130500Y-4250D02*Y-9500D01*
Y-4250D02*X131250Y-3500D01*
X132000D01*
X129750Y-6500D02*X131250D01*
X136950Y-3500D02*Y-8750D01*
X137700Y-9500D01*
X136200Y-5750D02*X137700D01*
X139200Y-3500D02*Y-9500D01*
Y-7250D02*X139950Y-6500D01*
X141450D01*
X142200Y-7250D01*
Y-9500D01*
G54D107*X144000Y-5000D02*Y-5150D01*
G54D106*Y-7250D02*Y-9500D01*
X146250D02*X148500D01*
X149250Y-8750D01*
X148500Y-8000D02*X149250Y-8750D01*
X146250Y-8000D02*X148500D01*
X145500Y-7250D02*X146250Y-8000D01*
X145500Y-7250D02*X146250Y-6500D01*
X148500D01*
X149250Y-7250D01*
X145500Y-8750D02*X146250Y-9500D01*
X154500Y-7250D02*Y-11750D01*
X153750Y-6500D02*X154500Y-7250D01*
X155250Y-6500D01*
X156750D01*
X157500Y-7250D01*
Y-8750D01*
X156750Y-9500D02*X157500Y-8750D01*
X155250Y-9500D02*X156750D01*
X154500Y-8750D02*X155250Y-9500D01*
X161550Y-6500D02*X162300Y-7250D01*
X160050Y-6500D02*X161550D01*
X159300Y-7250D02*X160050Y-6500D01*
X159300Y-7250D02*Y-8750D01*
X160050Y-9500D01*
X162300Y-6500D02*Y-8750D01*
X163050Y-9500D01*
X160050D02*X161550D01*
X162300Y-8750D01*
X165600Y-3500D02*Y-8750D01*
X166350Y-9500D01*
X164850Y-5750D02*X166350D01*
X167850Y-3500D02*Y-9500D01*
Y-7250D02*X168600Y-6500D01*
X170100D01*
X170850Y-7250D01*
Y-9500D01*
X200750Y153500D02*Y147500D01*
X202700Y153500D02*X203750Y152450D01*
Y148550D01*
X202700Y147500D02*X203750Y148550D01*
X200000Y147500D02*X202700D01*
X200000Y153500D02*X202700D01*
X207800Y150500D02*X208550Y149750D01*
X206300Y150500D02*X207800D01*
X205550Y149750D02*X206300Y150500D01*
X205550Y149750D02*Y148250D01*
X206300Y147500D01*
X208550Y150500D02*Y148250D01*
X209300Y147500D01*
X206300D02*X207800D01*
X208550Y148250D01*
X211850Y153500D02*Y148250D01*
X212600Y147500D01*
X211100Y151250D02*X212600D01*
X214850Y147500D02*X217100D01*
X214100Y148250D02*X214850Y147500D01*
X214100Y149750D02*Y148250D01*
Y149750D02*X214850Y150500D01*
X216350D01*
X217100Y149750D01*
X214100Y149000D02*X217100D01*
Y149750D02*Y149000D01*
X218900Y151250D02*X219650D01*
X218900Y149750D02*X219650D01*
X227150Y153500D02*X227900Y152750D01*
X224900Y153500D02*X227150D01*
X224150Y152750D02*X224900Y153500D01*
X224150Y152750D02*Y151250D01*
X224900Y150500D01*
X227150D01*
X227900Y149750D01*
Y148250D01*
X227150Y147500D02*X227900Y148250D01*
X224900Y147500D02*X227150D01*
X224150Y148250D02*X224900Y147500D01*
X229700Y150500D02*Y148250D01*
X230450Y147500D01*
X231950D01*
X232700Y148250D01*
Y150500D02*Y148250D01*
X235250Y149750D02*Y147500D01*
Y149750D02*X236000Y150500D01*
X236750D01*
X237500Y149750D01*
Y147500D01*
X234500Y150500D02*X235250Y149750D01*
X242000Y152000D02*Y147500D01*
Y152000D02*X243050Y153500D01*
X244700D01*
X245750Y152000D01*
Y147500D01*
X242000Y150500D02*X245750D01*
X247550D02*Y148250D01*
X248300Y147500D01*
X249800D01*
X250550Y148250D01*
Y150500D02*Y148250D01*
X254600Y150500D02*X255350Y149750D01*
X253100Y150500D02*X254600D01*
X252350Y149750D02*X253100Y150500D01*
X252350Y149750D02*Y148250D01*
X253100Y147500D01*
X254600D01*
X255350Y148250D01*
X252350Y146000D02*X253100Y145250D01*
X254600D01*
X255350Y146000D01*
Y150500D02*Y146000D01*
X259850Y152750D02*X260600Y153500D01*
X262100D01*
X262850Y152750D01*
X262100Y147500D02*X262850Y148250D01*
X260600Y147500D02*X262100D01*
X259850Y148250D02*X260600Y147500D01*
Y150800D02*X262100D01*
X262850Y152750D02*Y151550D01*
Y150050D02*Y148250D01*
Y150050D02*X262100Y150800D01*
X262850Y151550D02*X262100Y150800D01*
X264650Y148250D02*X265400Y147500D01*
X264650Y152750D02*Y148250D01*
Y152750D02*X265400Y153500D01*
X266900D01*
X267650Y152750D01*
Y148250D01*
X266900Y147500D02*X267650Y148250D01*
X265400Y147500D02*X266900D01*
X264650Y149000D02*X267650Y152000D01*
X272150Y152750D02*X272900Y153500D01*
X275150D01*
X275900Y152750D01*
Y151250D01*
X272150Y147500D02*X275900Y151250D01*
X272150Y147500D02*X275900D01*
X277700Y152750D02*X278450Y153500D01*
X280700D01*
X281450Y152750D01*
Y151250D01*
X277700Y147500D02*X281450Y151250D01*
X277700Y147500D02*X281450D01*
X283250Y151250D02*X284000D01*
X283250Y149750D02*X284000D01*
X285800Y152750D02*X286550Y153500D01*
X288050D01*
X288800Y152750D01*
X288050Y147500D02*X288800Y148250D01*
X286550Y147500D02*X288050D01*
X285800Y148250D02*X286550Y147500D01*
Y150800D02*X288050D01*
X288800Y152750D02*Y151550D01*
Y150050D02*Y148250D01*
Y150050D02*X288050Y150800D01*
X288800Y151550D02*X288050Y150800D01*
X291350Y147500D02*X293600Y150500D01*
Y152750D02*Y150500D01*
X292850Y153500D02*X293600Y152750D01*
X291350Y153500D02*X292850D01*
X290600Y152750D02*X291350Y153500D01*
X290600Y152750D02*Y151250D01*
X291350Y150500D01*
X293600D01*
X295400Y151250D02*X296150D01*
X295400Y149750D02*X296150D01*
X297950Y153500D02*X300950D01*
X297950D02*Y150500D01*
X298700Y151250D01*
X300200D01*
X300950Y150500D01*
Y148250D01*
X300200Y147500D02*X300950Y148250D01*
X298700Y147500D02*X300200D01*
X297950Y148250D02*X298700Y147500D01*
X303500D02*X305750Y150500D01*
Y152750D02*Y150500D01*
X305000Y153500D02*X305750Y152750D01*
X303500Y153500D02*X305000D01*
X302750Y152750D02*X303500Y153500D01*
X302750Y152750D02*Y151250D01*
X303500Y150500D01*
X305750D01*
X310250Y152750D02*X311000Y153500D01*
X313250D01*
X314000Y152750D01*
Y151250D01*
X310250Y147500D02*X314000Y151250D01*
X310250Y147500D02*X314000D01*
X315800Y148250D02*X316550Y147500D01*
X315800Y152750D02*Y148250D01*
Y152750D02*X316550Y153500D01*
X318050D01*
X318800Y152750D01*
Y148250D01*
X318050Y147500D02*X318800Y148250D01*
X316550Y147500D02*X318050D01*
X315800Y149000D02*X318800Y152000D01*
X320600Y152750D02*X321350Y153500D01*
X323600D01*
X324350Y152750D01*
Y151250D01*
X320600Y147500D02*X324350Y151250D01*
X320600Y147500D02*X324350D01*
X326150Y148250D02*X326900Y147500D01*
X326150Y152750D02*Y148250D01*
Y152750D02*X326900Y153500D01*
X328400D01*
X329150Y152750D01*
Y148250D01*
X328400Y147500D02*X329150Y148250D01*
X326900Y147500D02*X328400D01*
X326150Y149000D02*X329150Y152000D01*
X333650Y153500D02*Y148250D01*
X334400Y147500D01*
X335900D01*
X336650Y148250D01*
Y153500D02*Y148250D01*
X338450Y153500D02*X341450D01*
X339950D02*Y147500D01*
X344300D02*X346250D01*
X343250Y148550D02*X344300Y147500D01*
X343250Y152450D02*Y148550D01*
Y152450D02*X344300Y153500D01*
X346250D01*
X200000Y167000D02*Y162500D01*
Y167000D02*X201050Y168500D01*
X202700D01*
X203750Y167000D01*
Y162500D01*
X200000Y165500D02*X203750D01*
X205550D02*Y163250D01*
X206300Y162500D01*
X207800D01*
X208550Y163250D01*
Y165500D02*Y163250D01*
X211100Y168500D02*Y163250D01*
X211850Y162500D01*
X210350Y166250D02*X211850D01*
X213350Y168500D02*Y162500D01*
Y164750D02*X214100Y165500D01*
X215600D01*
X216350Y164750D01*
Y162500D01*
X218150Y164750D02*Y163250D01*
Y164750D02*X218900Y165500D01*
X220400D01*
X221150Y164750D01*
Y163250D01*
X220400Y162500D02*X221150Y163250D01*
X218900Y162500D02*X220400D01*
X218150Y163250D02*X218900Y162500D01*
X223700Y164750D02*Y162500D01*
Y164750D02*X224450Y165500D01*
X225950D01*
X222950D02*X223700Y164750D01*
X227750Y166250D02*X228500D01*
X227750Y164750D02*X228500D01*
X233750Y165500D02*X236000D01*
X233000Y164750D02*X233750Y165500D01*
X233000Y164750D02*Y163250D01*
X233750Y162500D01*
X236000D01*
X237800Y164750D02*Y163250D01*
Y164750D02*X238550Y165500D01*
X240050D01*
X240800Y164750D01*
Y163250D01*
X240050Y162500D02*X240800Y163250D01*
X238550Y162500D02*X240050D01*
X237800Y163250D02*X238550Y162500D01*
X243350Y164750D02*Y162500D01*
Y164750D02*X244100Y165500D01*
X244850D01*
X245600Y164750D01*
Y162500D01*
Y164750D02*X246350Y165500D01*
X247100D01*
X247850Y164750D01*
Y162500D01*
X242600Y165500D02*X243350Y164750D01*
X250400D02*Y162500D01*
Y164750D02*X251150Y165500D01*
X251900D01*
X252650Y164750D01*
Y162500D01*
Y164750D02*X253400Y165500D01*
X254150D01*
X254900Y164750D01*
Y162500D01*
X249650Y165500D02*X250400Y164750D01*
X256700D02*Y163250D01*
Y164750D02*X257450Y165500D01*
X258950D01*
X259700Y164750D01*
Y163250D01*
X258950Y162500D02*X259700Y163250D01*
X257450Y162500D02*X258950D01*
X256700Y163250D02*X257450Y162500D01*
X262250Y164750D02*Y162500D01*
Y164750D02*X263000Y165500D01*
X263750D01*
X264500Y164750D01*
Y162500D01*
X261500Y165500D02*X262250Y164750D01*
X268550Y165500D02*X269300Y164750D01*
X267050Y165500D02*X268550D01*
X266300Y164750D02*X267050Y165500D01*
X266300Y164750D02*Y163250D01*
X267050Y162500D01*
X269300Y165500D02*Y163250D01*
X270050Y162500D01*
X267050D02*X268550D01*
X269300Y163250D01*
X274850Y168500D02*Y162500D01*
X274100D02*X274850Y163250D01*
X272600Y162500D02*X274100D01*
X271850Y163250D02*X272600Y162500D01*
X271850Y164750D02*Y163250D01*
Y164750D02*X272600Y165500D01*
X274100D01*
X274850Y164750D01*
X277400D02*Y162500D01*
Y164750D02*X278150Y165500D01*
X278900D01*
X279650Y164750D01*
Y162500D01*
Y164750D02*X280400Y165500D01*
X281150D01*
X281900Y164750D01*
Y162500D01*
X276650Y165500D02*X277400Y164750D01*
G54D107*X283700Y167000D02*Y166850D01*
G54D106*Y164750D02*Y162500D01*
X285950Y164750D02*Y162500D01*
Y164750D02*X286700Y165500D01*
X287450D01*
X288200Y164750D01*
Y162500D01*
X285200Y165500D02*X285950Y164750D01*
X200000Y183500D02*X203000D01*
X201500D02*Y177500D01*
G54D107*X204800Y182000D02*Y181850D01*
G54D106*Y179750D02*Y177500D01*
X207050Y183500D02*Y178250D01*
X207800Y177500D01*
X206300Y181250D02*X207800D01*
X209300Y183500D02*Y178250D01*
X210050Y177500D01*
X212300D02*X214550D01*
X211550Y178250D02*X212300Y177500D01*
X211550Y179750D02*Y178250D01*
Y179750D02*X212300Y180500D01*
X213800D01*
X214550Y179750D01*
X211550Y179000D02*X214550D01*
Y179750D02*Y179000D01*
X216350Y181250D02*X217100D01*
X216350Y179750D02*X217100D01*
X221600Y178250D02*X222350Y177500D01*
X221600Y182750D02*X222350Y183500D01*
X221600Y182750D02*Y178250D01*
X224150Y180500D02*Y178250D01*
X224900Y177500D01*
X226400D01*
X227150Y178250D01*
Y180500D02*Y178250D01*
X229700Y179750D02*Y177500D01*
Y179750D02*X230450Y180500D01*
X231200D01*
X231950Y179750D01*
Y177500D01*
X228950Y180500D02*X229700Y179750D01*
X233750Y183500D02*Y177500D01*
Y179750D02*X236000Y177500D01*
X233750Y179750D02*X235250Y181250D01*
X238550Y179750D02*Y177500D01*
Y179750D02*X239300Y180500D01*
X240050D01*
X240800Y179750D01*
Y177500D01*
X237800Y180500D02*X238550Y179750D01*
X242600D02*Y178250D01*
Y179750D02*X243350Y180500D01*
X244850D01*
X245600Y179750D01*
Y178250D01*
X244850Y177500D02*X245600Y178250D01*
X243350Y177500D02*X244850D01*
X242600Y178250D02*X243350Y177500D01*
X247400Y180500D02*Y178250D01*
X248150Y177500D01*
X248900D01*
X249650Y178250D01*
Y180500D02*Y178250D01*
X250400Y177500D01*
X251150D01*
X251900Y178250D01*
Y180500D02*Y178250D01*
X254450Y179750D02*Y177500D01*
Y179750D02*X255200Y180500D01*
X255950D01*
X256700Y179750D01*
Y177500D01*
X253700Y180500D02*X254450Y179750D01*
X258500Y183500D02*X259250Y182750D01*
Y178250D01*
X258500Y177500D02*X259250Y178250D01*
X263750Y180500D02*X266750D01*
X271250Y183500D02*Y177500D01*
Y183500D02*X274250D01*
X271250Y180800D02*X273500D01*
X278300Y180500D02*X279050Y179750D01*
X276800Y180500D02*X278300D01*
X276050Y179750D02*X276800Y180500D01*
X276050Y179750D02*Y178250D01*
X276800Y177500D01*
X279050Y180500D02*Y178250D01*
X279800Y177500D01*
X276800D02*X278300D01*
X279050Y178250D01*
X281600Y183500D02*Y177500D01*
Y178250D02*X282350Y177500D01*
X283850D01*
X284600Y178250D01*
Y179750D02*Y178250D01*
X283850Y180500D02*X284600Y179750D01*
X282350Y180500D02*X283850D01*
X281600Y179750D02*X282350Y180500D01*
X287150Y179750D02*Y177500D01*
Y179750D02*X287900Y180500D01*
X289400D01*
X286400D02*X287150Y179750D01*
G54D107*X291200Y182000D02*Y181850D01*
G54D106*Y179750D02*Y177500D01*
X293450Y180500D02*X295700D01*
X292700Y179750D02*X293450Y180500D01*
X292700Y179750D02*Y178250D01*
X293450Y177500D01*
X295700D01*
X299750Y180500D02*X300500Y179750D01*
X298250Y180500D02*X299750D01*
X297500Y179750D02*X298250Y180500D01*
X297500Y179750D02*Y178250D01*
X298250Y177500D01*
X300500Y180500D02*Y178250D01*
X301250Y177500D01*
X298250D02*X299750D01*
X300500Y178250D01*
X303800Y183500D02*Y178250D01*
X304550Y177500D01*
X303050Y181250D02*X304550D01*
G54D107*X306050Y182000D02*Y181850D01*
G54D106*Y179750D02*Y177500D01*
X307550Y179750D02*Y178250D01*
Y179750D02*X308300Y180500D01*
X309800D01*
X310550Y179750D01*
Y178250D01*
X309800Y177500D02*X310550Y178250D01*
X308300Y177500D02*X309800D01*
X307550Y178250D02*X308300Y177500D01*
X313100Y179750D02*Y177500D01*
Y179750D02*X313850Y180500D01*
X314600D01*
X315350Y179750D01*
Y177500D01*
X312350Y180500D02*X313100Y179750D01*
X320600Y183500D02*Y177500D01*
X322550Y183500D02*X323600Y182450D01*
Y178550D01*
X322550Y177500D02*X323600Y178550D01*
X319850Y177500D02*X322550D01*
X319850Y183500D02*X322550D01*
X326150Y179750D02*Y177500D01*
Y179750D02*X326900Y180500D01*
X328400D01*
X325400D02*X326150Y179750D01*
X332450Y180500D02*X333200Y179750D01*
X330950Y180500D02*X332450D01*
X330200Y179750D02*X330950Y180500D01*
X330200Y179750D02*Y178250D01*
X330950Y177500D01*
X333200Y180500D02*Y178250D01*
X333950Y177500D01*
X330950D02*X332450D01*
X333200Y178250D01*
X335750Y180500D02*Y178250D01*
X336500Y177500D01*
X337250D01*
X338000Y178250D01*
Y180500D02*Y178250D01*
X338750Y177500D01*
X339500D01*
X340250Y178250D01*
Y180500D02*Y178250D01*
G54D107*X342050Y182000D02*Y181850D01*
G54D106*Y179750D02*Y177500D01*
X344300Y179750D02*Y177500D01*
Y179750D02*X345050Y180500D01*
X345800D01*
X346550Y179750D01*
Y177500D01*
X343550Y180500D02*X344300Y179750D01*
X350600Y180500D02*X351350Y179750D01*
X349100Y180500D02*X350600D01*
X348350Y179750D02*X349100Y180500D01*
X348350Y179750D02*Y178250D01*
X349100Y177500D01*
X350600D01*
X351350Y178250D01*
X348350Y176000D02*X349100Y175250D01*
X350600D01*
X351350Y176000D01*
Y180500D02*Y176000D01*
M02*
