G04 start of page 5 for group 3 idx 14 *
G04 Title: (unknown), exclude1 *
G04 Creator: pcb 4.2.0 *
G04 CreationDate: Mon Sep 28 05:23:24 2020 UTC *
G04 For: commonadmin *
G04 Format: Gerber/RS-274X *
G04 PCB-Dimensions (mil): 1250.00 1500.00 *
G04 PCB-Coordinate-Origin: lower left *
%MOIN*%
%FSLAX25Y25*%
%LNGROUP3*%
%ADD63C,0.0354*%
%ADD62C,0.0197*%
%ADD61C,0.0295*%
%ADD60C,0.0492*%
%ADD59C,0.0787*%
%ADD58C,0.0100*%
%ADD57C,0.0130*%
%ADD56C,0.0200*%
%ADD55C,0.0230*%
%ADD54C,0.0512*%
%ADD53C,0.1102*%
%ADD52C,0.0394*%
%ADD51C,0.0472*%
%ADD50C,0.0669*%
%ADD49C,0.0945*%
G54D49*X108000Y107000D03*
G54D50*X104457Y114480D03*
G54D51*X110362Y114087D03*
G54D52*X113906Y110937D03*
G54D50*X89713Y107004D03*
G54D53*X90500Y93500D03*
G54D49*X108000Y20000D03*
G54D50*X104457Y27480D03*
G54D51*X110362Y27087D03*
G54D52*X113906Y23937D03*
G54D51*X74362Y49587D03*
G54D52*X77906Y46437D03*
G54D50*X84457Y47480D03*
G54D51*X90362Y47087D03*
G54D54*X82035Y71020D03*
X92075D03*
G54D49*X20000Y107000D03*
G54D50*X16457Y114480D03*
G54D51*X22362Y114087D03*
G54D52*X25906Y110937D03*
G54D50*X39319Y107004D03*
G54D53*X38531Y93500D03*
G54D54*X58492Y97043D03*
X50461D03*
X54476Y89957D03*
X66524Y97043D03*
X74555D03*
X62508Y89957D03*
X70539D03*
X78571D03*
G54D49*X20000Y20000D03*
G54D50*X16457Y27480D03*
G54D51*X22362Y27087D03*
G54D52*X25906Y23937D03*
G54D49*X72000Y42500D03*
X88000Y40000D03*
G54D52*X93906Y43937D03*
G54D49*X56000Y42500D03*
X40000Y40000D03*
G54D52*X45906Y43937D03*
G54D50*X68457Y49980D03*
X52457D03*
G54D51*X58362Y49587D03*
G54D52*X61906Y46437D03*
G54D50*X36457Y47480D03*
G54D51*X42362Y47087D03*
G54D54*X36957Y71020D03*
X46996D03*
G54D55*X93000Y101000D03*
X79500Y83000D03*
G54D56*X55000Y104500D03*
X62500Y109500D03*
G54D55*X42500Y101500D03*
X36000D03*
X62000Y100500D03*
X57500Y83500D03*
X54500Y66500D03*
X67500Y82000D03*
Y66000D03*
X73500Y79000D03*
Y66500D03*
X62000Y80000D03*
Y66000D03*
G54D57*G54D58*G54D57*G54D59*G54D60*G54D61*G54D62*G54D54*G54D49*G54D59*G54D60*G54D61*G54D62*G54D61*G54D62*G54D60*G54D61*G54D63*G54D59*G54D60*G54D61*G54D62*G54D54*G54D49*G54D63*G54D59*G54D60*G54D61*G54D62*G54D59*G54D62*G54D59*G54D62*G54D60*G54D61*G54D62*G54D60*G54D61*G54D63*M02*
