G04 start of page 6 for group 4 idx 15 *
G04 Title: (unknown), exclude2 *
G04 Creator: pcb 4.2.0 *
G04 CreationDate: Thu Sep 17 07:54:02 2020 UTC *
G04 For: commonadmin *
G04 Format: Gerber/RS-274X *
G04 PCB-Dimensions (mil): 3500.00 4250.00 *
G04 PCB-Coordinate-Origin: lower left *
%MOIN*%
%FSLAX25Y25*%
%LNGROUP4*%
%ADD83C,0.0380*%
%ADD82C,0.0295*%
%ADD81C,0.0492*%
%ADD80C,0.0787*%
%ADD79C,0.0197*%
%ADD78C,0.0100*%
%ADD77C,0.1181*%
%ADD76C,0.0250*%
%ADD75C,0.1600*%
%ADD74C,0.0350*%
%ADD73C,0.0600*%
%ADD72C,0.0001*%
%ADD71C,0.0200*%
%ADD70C,0.0472*%
%ADD69C,0.0669*%
%ADD68C,0.0945*%
%ADD67C,0.0394*%
G54D67*X231406Y141437D03*
G54D68*X240000Y137500D03*
G54D69*X236457Y144980D03*
G54D70*X242362Y144587D03*
G54D68*X225500Y137500D03*
G54D69*X221957Y144980D03*
G54D70*X227862Y144587D03*
G54D67*X245906Y141437D03*
X187906D03*
G54D69*X192957Y144980D03*
G54D70*X198862Y144587D03*
G54D68*X196500Y137500D03*
X211000D03*
G54D67*X202406Y141437D03*
G54D69*X207457Y144980D03*
G54D70*X213362Y144587D03*
G54D67*X216906Y141437D03*
G54D68*X254500Y137500D03*
X269000D03*
X283500D03*
G54D69*X250957Y144980D03*
G54D70*X256862Y144587D03*
G54D67*X260406Y141437D03*
G54D69*X265457Y144980D03*
G54D70*X271362Y144587D03*
G54D67*X274906Y141437D03*
G54D69*X279957Y144980D03*
G54D70*X285862Y144587D03*
G54D67*X289406Y141437D03*
G54D71*X201499Y66000D03*
X181000Y67500D03*
X204500Y66000D03*
X216000Y65500D03*
X219000D03*
X196500Y69500D03*
X199500D03*
X185500Y76000D03*
X188500D03*
X173000Y67500D03*
X175500Y65500D03*
X178500D03*
X160500D03*
X163500D03*
X166500D03*
X153500Y75500D03*
X156500D03*
X150500D03*
X86000D03*
X83000D03*
X80000D03*
X100500D03*
X97500D03*
X94500D03*
X116500D03*
X113500D03*
X110500D03*
X131000D03*
X128000D03*
X125000D03*
G54D68*X80500Y137500D03*
X95000D03*
X109500D03*
G54D69*X76957Y144980D03*
G54D70*X82862Y144587D03*
G54D67*X86406Y141437D03*
G54D69*X91457Y144980D03*
G54D70*X97362Y144587D03*
G54D67*X100906Y141437D03*
G54D69*X105957Y144980D03*
G54D70*X111862Y144587D03*
G54D68*X61000Y141500D03*
G54D67*X64937Y135594D03*
G54D68*X61000Y170500D03*
G54D67*X64937Y164594D03*
G54D68*X61000Y156000D03*
G54D67*X64937Y150094D03*
G54D69*X68480Y145043D03*
G54D70*X68087Y139138D03*
G54D69*X68480Y174043D03*
G54D70*X68087Y168138D03*
G54D69*X68480Y159543D03*
G54D70*X68087Y153638D03*
G54D67*X115406Y141437D03*
G54D69*X120457Y144980D03*
G54D70*X126362Y144587D03*
G54D68*X124000Y137500D03*
X138500D03*
G54D67*X129906Y141437D03*
G54D69*X134957Y144980D03*
G54D70*X140862Y144587D03*
G54D67*X144406Y141437D03*
G54D68*X153000Y137500D03*
X167500D03*
X182000D03*
G54D69*X149457Y144980D03*
G54D70*X155362Y144587D03*
G54D67*X158906Y141437D03*
G54D69*X163957Y144980D03*
G54D70*X169862Y144587D03*
G54D67*X173406Y141437D03*
G54D69*X178457Y144980D03*
G54D70*X184362Y144587D03*
G54D72*G36*
X272000Y303000D02*Y297000D01*
X278000D01*
Y303000D01*
X272000D01*
G37*
G54D73*X275000Y290000D03*
X265000Y300000D03*
Y290000D03*
X255000Y300000D03*
Y290000D03*
X245000Y300000D03*
Y290000D03*
X235000Y300000D03*
Y290000D03*
X225000Y300000D03*
X215000D03*
X205000D03*
X195000D03*
X185000D03*
X225000Y290000D03*
X215000D03*
X205000D03*
X195000D03*
X185000D03*
G54D72*G36*
X272000Y387000D02*Y381000D01*
X278000D01*
Y387000D01*
X272000D01*
G37*
G54D73*X275000Y374000D03*
X265000Y384000D03*
Y374000D03*
X255000Y384000D03*
Y374000D03*
X245000Y384000D03*
Y374000D03*
X235000D03*
X225000D03*
X235000Y384000D03*
X225000D03*
X215000D03*
X205000D03*
X195000D03*
X185000D03*
X215000Y374000D03*
X205000D03*
X195000D03*
X185000D03*
G54D74*X275000Y269000D03*
X276500Y273500D03*
X278000Y278000D03*
X280000Y282500D03*
Y264500D03*
X270000D03*
X188500Y282500D03*
X186500Y278000D03*
G54D75*X130000Y285000D03*
G54D74*X189000Y269000D03*
X184500Y273500D03*
G54D71*X223000Y212500D03*
X224500Y227500D03*
X205500Y151000D03*
X225500Y167000D03*
G54D74*X198000Y170500D03*
G54D71*X236000Y221500D03*
X193000Y227500D03*
X191000Y224500D03*
X189000Y212500D03*
X186000Y221500D03*
X183500Y218500D03*
X233000D03*
X231000Y224500D03*
G54D75*X235000Y190000D03*
G54D71*X236500Y246500D03*
Y240500D03*
Y236000D03*
Y230000D03*
X234500Y233000D03*
Y243500D03*
X195500Y240500D03*
X116000Y154500D03*
X114500Y157000D03*
X113000Y159500D03*
X100200Y171000D03*
X104200D03*
X110200D03*
X114200D03*
G54D75*X130000Y245000D03*
G54D71*X280000Y254000D03*
X279000Y256500D03*
G54D74*X277500Y260000D03*
G54D71*X265500Y230000D03*
X262500Y233000D03*
X265500Y240500D03*
X265000Y243500D03*
X266000Y246000D03*
Y249000D03*
X265000Y251500D03*
X261000D03*
X258500Y249000D03*
G54D74*X265500Y260000D03*
G54D71*X263500Y254000D03*
X264500Y256500D03*
X88500Y164500D03*
X94500D03*
X99000Y167000D03*
X87000D03*
Y157000D03*
X90200Y171000D03*
X94200D03*
X90500Y162000D03*
X94500Y159500D03*
X98000Y162000D03*
X89000Y154500D03*
X79500Y239000D03*
X76500Y237000D03*
X95500Y233500D03*
X92500Y231000D03*
X79500Y228000D03*
X98500D03*
X60500D03*
X71500Y231500D03*
X57500D03*
X54500Y234500D03*
X68500D03*
G54D76*G54D77*G54D76*G54D78*G54D76*G54D78*G54D77*G54D78*G54D77*G54D78*G54D76*G54D78*G54D76*G54D78*G54D79*G54D80*G54D81*G54D82*G54D80*G54D81*G54D82*G54D79*G54D81*G54D82*G54D80*G54D79*G54D81*G54D82*G54D79*G54D80*G54D81*G54D82*G54D79*G54D81*G54D82*G54D79*G54D81*G54D82*G54D79*G54D78*G54D80*G54D81*G54D82*G54D79*G54D81*G54D82*G54D79*G54D81*G54D82*G54D80*G54D79*G54D80*G54D79*G54D80*G54D79*G54D81*G54D82*G54D81*G54D82*G54D81*G54D82*G54D79*G54D81*G54D82*G54D80*G54D79*G54D81*G54D82*G54D79*G54D80*G54D81*G54D82*G54D79*G54D81*G54D82*G54D79*G54D81*G54D82*G54D83*M02*
