M48
INCH
T35C0.038
T34C0.010
%
T34
X003200Y011250
X003350Y006250
X003500Y010950
X003650Y006250
X003800Y010600
X003950Y006250
X004600Y011250
X004800Y006250
X004900Y010950
X005100Y006250
X005400Y011500
X005400Y006250
X005700Y011700
X005700Y010600
X006450Y006250
X006750Y006250
X007000Y010900
X007050Y006250
X007300Y011150
X007600Y010600
X007900Y006250
X008200Y006250
X008500Y006250
X009900Y006250
X010200Y006250
X010500Y006250
X010900Y005250
X011200Y005250
X011500Y005250
X012150Y005450
X012400Y005250
X012700Y005250
X012950Y005450
X013400Y006300
X013700Y006300
X014500Y005650
X014800Y005650
X015000Y005300
X015300Y005300
X016450Y005250
X016750Y005250
T35
X007000Y020000
X007000Y019000
X008000Y020000
X008000Y019000
X009000Y020000
X009000Y019000
X010000Y020000
X010000Y019000
X011000Y020000
X011000Y019000
X012000Y020000
X012000Y019000
X013000Y020000
X013000Y019000
X014000Y020000
X014000Y019000
X015000Y020000
X015000Y019000
X016000Y020000
X016000Y019000
M30
