G04 start of page 2 for group 0 idx 0 *
G04 Title: (unknown), P1_W1 *
G04 Creator: pcb 4.2.0 *
G04 CreationDate: Mon Sep 28 04:23:24 2020 UTC *
G04 For: commonadmin *
G04 Format: Gerber/RS-274X *
G04 PCB-Dimensions (mil): 2000.00 2300.00 *
G04 PCB-Coordinate-Origin: lower left *
%MOIN*%
%FSLAX25Y25*%
%LNTOP*%
%ADD16C,0.0380*%
%ADD15C,0.0100*%
%ADD14C,0.0600*%
%ADD13C,0.0001*%
%ADD12C,0.0200*%
%ADD11C,0.0060*%
G54D11*X67000Y220000D02*Y218500D01*
X70000Y190000D02*Y185500D01*
X67000Y182500D01*
X117000Y220000D02*Y218500D01*
X120000Y190000D02*Y185500D01*
X117000Y182500D01*
Y180500D01*
X67000Y182500D02*Y180500D01*
X137000Y63000D02*Y71000D01*
X67500Y62500D02*Y71000D01*
X49000Y102000D02*Y132500D01*
X71500Y225000D02*Y223500D01*
X70000Y200000D02*X74000Y196000D01*
X121500Y225000D02*Y223500D01*
X120000Y200000D02*X124000Y196000D01*
Y185000D01*
X121500Y182500D01*
Y180500D01*
X74000Y196000D02*Y185000D01*
X71500Y182500D01*
Y180500D01*
X46000Y102000D02*Y132500D01*
X134000Y63000D02*Y71000D01*
X64500Y62500D02*Y71000D01*
X77000Y220000D02*Y218500D01*
X80000Y190000D02*Y185500D01*
X77000Y182500D01*
X127000Y220000D02*Y218500D01*
X130000Y190000D02*Y185500D01*
X127000Y182500D01*
Y180500D01*
X77000Y182500D02*Y180500D01*
X167500Y52500D02*Y71000D01*
X57000Y117000D02*Y132500D01*
X81500Y225000D02*Y223500D01*
X80000Y200000D02*X84000Y196000D01*
X131500Y225000D02*Y223500D01*
X130000Y200000D02*X134000Y196000D01*
Y185000D01*
X131500Y182500D01*
Y180500D01*
X84000Y196000D02*Y185000D01*
X81500Y182500D01*
Y180500D01*
X54000Y115000D02*Y132500D01*
X164500Y52500D02*Y71000D01*
X87000Y220000D02*Y218500D01*
X90000Y190000D02*Y185500D01*
X87000Y182500D01*
X137000Y220000D02*Y218500D01*
X140000Y190000D02*Y185500D01*
X137000Y182500D01*
Y180500D01*
X87000Y182500D02*Y180500D01*
X82000Y62500D02*Y71000D01*
X73000Y102000D02*Y132500D01*
X76000Y106000D02*Y126000D01*
X73000Y129000D01*
X57000Y106000D02*Y102000D01*
X147000Y71000D02*Y57500D01*
X148000Y56500D01*
X153000Y53000D02*Y54000D01*
X156500Y57500D01*
Y71000D01*
X91500Y225000D02*Y223500D01*
X90000Y200000D02*X94000Y196000D01*
X141000Y225000D02*Y223500D01*
X140000Y200000D02*X144000Y196000D01*
Y185000D01*
X141500Y182500D01*
Y180500D01*
X94000Y196000D02*Y185000D01*
X91500Y182500D01*
Y180500D01*
X70000Y102000D02*Y132500D01*
X149999Y53000D02*X150000D01*
X154500Y57500D01*
Y71000D01*
X145000Y56500D02*Y71000D01*
X97500Y220000D02*Y218500D01*
X100000Y190000D02*Y185500D01*
X97000Y182500D01*
X147000Y220000D02*Y218500D01*
X150000Y190000D02*Y185500D01*
X147000Y182500D01*
Y180500D01*
X97000Y182500D02*Y180500D01*
X127000Y52500D02*Y71000D01*
X51000Y62500D02*Y71000D01*
X38000Y102000D02*Y132500D01*
X101500Y225000D02*Y223500D01*
X100000Y200000D02*X104000Y196000D01*
X151000Y225000D02*Y223500D01*
X150000Y200000D02*X154000Y196000D01*
Y185000D01*
X151500Y182500D01*
Y180500D01*
X104000Y196000D02*Y185000D01*
X101500Y182500D01*
Y180500D01*
X124000Y52500D02*Y71000D01*
X107000Y220000D02*Y218500D01*
X110000Y190000D02*Y185500D01*
X107000Y182500D01*
X157000Y220000D02*Y218500D01*
X160000Y190000D02*Y185500D01*
X157000Y182500D01*
Y180500D01*
X107000Y182500D02*Y180500D01*
X121500Y54500D02*Y71000D01*
X36500Y62500D02*Y71000D01*
X35000Y102000D02*Y132500D01*
X111500Y225000D02*Y223500D01*
X110000Y200000D02*X114000Y196000D01*
X161000Y225000D02*Y223500D01*
X160000Y200000D02*X164000Y196000D01*
Y185000D01*
X161500Y182500D01*
Y180500D01*
X114000Y196000D02*Y185000D01*
X111500Y182500D01*
Y180500D01*
X129500Y54500D02*Y71000D01*
X33500Y62500D02*Y71000D01*
X32000Y102000D02*Y132500D01*
G54D12*X124000Y52500D03*
X109000D03*
X112000D03*
X115000D03*
X127000D03*
X121500Y54500D03*
X99000Y62500D03*
X102000D03*
X105000D03*
X134000Y63000D03*
X137000D03*
X129500Y54500D03*
X149999Y53000D03*
X153000D03*
X145000Y56500D03*
X148000D03*
X164500Y52500D03*
X167500D03*
G54D13*G36*
X157000Y203000D02*Y197000D01*
X163000D01*
Y203000D01*
X157000D01*
G37*
G54D14*X150000Y200000D03*
X140000D03*
X160000Y190000D03*
X150000D03*
X140000D03*
X130000D03*
X120000D03*
X110000D03*
X130000Y200000D03*
X120000D03*
X110000D03*
X100000D03*
Y190000D03*
X90000Y200000D03*
X80000D03*
X70000D03*
X90000Y190000D03*
X80000D03*
X70000D03*
G54D12*X39500Y62500D03*
X54000D03*
X51000D03*
X48000D03*
X36500D03*
X33500D03*
X70500D03*
X67500D03*
X64500D03*
X85000D03*
X82000D03*
X79000D03*
X38000Y106000D03*
X57000Y117000D03*
X54000Y115000D03*
X73000Y111500D03*
X70000Y109000D03*
X57000Y106000D03*
X76000D03*
X49000Y109500D03*
X35000D03*
X32000Y112500D03*
X46000D03*
G54D15*G54D16*G54D15*M02*
