G04 start of page 10 for group -4079 idx -4079 *
G04 Title: (unknown), topsilk *
G04 Creator: pcb 4.2.0 *
G04 CreationDate: Mon Sep 28 04:23:24 2020 UTC *
G04 For: commonadmin *
G04 Format: Gerber/RS-274X *
G04 PCB-Dimensions (mil): 2000.00 2300.00 *
G04 PCB-Coordinate-Origin: lower left *
%MOIN*%
%FSLAX25Y25*%
%LNTOPSILK*%
%ADD52C,0.0021*%
%ADD51C,0.0022*%
%ADD50C,0.0038*%
%ADD49C,0.0030*%
%ADD48C,0.0027*%
%ADD47C,0.0022*%
%ADD46C,0.0026*%
%ADD45C,0.0021*%
%ADD44C,0.0060*%
%ADD43C,0.0100*%
%ADD42C,0.0001*%
G54D42*G36*
X110500Y50000D02*Y54000D01*
X113500D01*
Y50000D01*
X110500D01*
G37*
G36*
X103500Y60000D02*Y64000D01*
X106500D01*
Y60000D01*
X103500D01*
G37*
G36*
X49500D02*Y64000D01*
X52500D01*
Y60000D01*
X49500D01*
G37*
G36*
X66000D02*Y64000D01*
X69000D01*
Y60000D01*
X66000D01*
G37*
G36*
X80500D02*Y64000D01*
X83500D01*
Y60000D01*
X80500D01*
G37*
G36*
X166000Y50000D02*Y54000D01*
X169000D01*
Y50000D01*
X166000D01*
G37*
G36*
X151500Y50500D02*Y54500D01*
X154500D01*
Y50500D01*
X151500D01*
G37*
G36*
X146500Y54000D02*Y58000D01*
X149500D01*
Y54000D01*
X146500D01*
G37*
G36*
X135500Y60500D02*Y64500D01*
X138500D01*
Y60500D01*
X135500D01*
G37*
G36*
X35000Y60000D02*Y64000D01*
X38000D01*
Y60000D01*
X35000D01*
G37*
G36*
X168000Y196500D02*X178000Y206500D01*
X188000Y196500D01*
X168000D01*
G37*
G54D43*X130000Y190000D02*X125750Y194250D01*
Y220000D01*
X120000Y200000D02*Y225000D01*
X115750Y194250D02*Y220000D01*
X110000Y200000D02*Y225000D01*
X120000Y190000D02*X115750Y194250D01*
X110000Y190000D02*X105750Y194250D01*
X100000Y190000D02*X95750Y194250D01*
G54D44*X114500Y182000D02*Y175500D01*
X91000Y152000D01*
G54D43*X145750Y194250D02*Y220000D01*
X140000Y200000D02*Y225000D01*
X135750Y194250D02*Y220000D01*
X130000Y200000D02*Y225000D01*
X160000Y200000D02*Y225000D01*
X155750Y194250D02*Y220000D01*
X150000Y200000D02*Y225000D01*
X167500Y212500D02*X162500Y207500D01*
X167000Y200000D02*X162000D01*
G54D44*X143000Y99500D02*Y100500D01*
X149000Y99500D02*Y100500D01*
Y102000D02*Y103000D01*
Y104500D02*Y105500D01*
X143000Y102000D02*Y103000D01*
Y66500D02*Y97500D01*
X149000Y66500D02*Y97500D01*
X143000Y104500D02*Y105500D01*
G54D43*X90000Y190000D02*X85750Y194250D01*
X80000Y190000D02*X75750Y194250D01*
G54D44*X91000Y152000D02*Y13500D01*
G54D43*X90000Y200000D02*Y225000D01*
X85750Y194250D02*Y220000D01*
X80000Y200000D02*Y225000D01*
X75750Y194250D02*Y220000D01*
X70000Y200000D02*Y225000D01*
Y190000D02*X65750Y194250D01*
Y220000D01*
X62500Y212500D02*X57500Y207500D01*
G54D44*X72000Y119000D02*X74000Y117000D01*
X53500Y134500D02*X58500D01*
Y99500D02*X53500D01*
X58500Y77500D02*Y104000D01*
Y156500D02*Y130000D01*
G54D43*X105750Y194250D02*Y220000D01*
X100000Y200000D02*Y225000D01*
X95750Y194250D02*Y220000D01*
X57500Y207500D02*X162500D01*
X167500Y212500D02*X62500D01*
X160000Y190000D02*X155750Y194250D01*
X150000Y190000D02*X145750Y194250D01*
X140000Y190000D02*X135750Y194250D01*
X168000Y196500D02*X178000Y206500D01*
X188000Y196500D01*
X168000D01*
G54D45*X69000Y30470D02*Y28350D01*
Y30470D02*X69795Y29410D01*
X70590Y30470D01*
Y28350D01*
G54D46*X71226Y29940D02*Y29887D01*
G54D45*Y29145D02*Y28350D01*
X72021Y29145D02*Y28350D01*
Y29145D02*X72286Y29410D01*
X72551D01*
X72816Y29145D01*
Y28350D01*
X71756Y29410D02*X72021Y29145D01*
G54D46*X73452Y29940D02*Y29887D01*
G54D45*Y29145D02*Y28350D01*
X74936Y30205D02*Y28615D01*
Y30205D02*X75201Y30470D01*
X75731D01*
X75996Y30205D01*
Y28615D01*
X75731Y28350D02*X75996Y28615D01*
X75201Y28350D02*X75731D01*
X74936Y28615D02*X75201Y28350D01*
X76897Y29145D02*Y28350D01*
Y29145D02*X77162Y29410D01*
X77427D01*
X77692Y29145D01*
Y28350D01*
X76632Y29410D02*X76897Y29145D01*
X78328Y30470D02*Y28615D01*
X78593Y28350D01*
X79123Y29410D02*Y28615D01*
X79388Y28350D01*
X80183Y29410D02*Y27820D01*
X79918Y27555D02*X80183Y27820D01*
X79388Y27555D02*X79918D01*
X79123Y27820D02*X79388Y27555D01*
Y28350D02*X79918D01*
X80183Y28615D01*
G54D47*X78500Y33460D02*Y31300D01*
X79580D01*
G54D48*X80228Y32920D02*Y32866D01*
G54D47*Y32110D02*Y31300D01*
X81038Y32110D02*Y31300D01*
Y32110D02*X81308Y32380D01*
X81578D01*
X81848Y32110D01*
Y31300D01*
Y32110D02*X82118Y32380D01*
X82388D01*
X82658Y32110D01*
Y31300D01*
X80768Y32380D02*X81038Y32110D01*
G54D48*X83306Y32920D02*Y32866D01*
G54D47*Y32110D02*Y31300D01*
X84116Y33460D02*Y31570D01*
X84386Y31300D01*
X83846Y32650D02*X84386D01*
X63000Y33460D02*Y31300D01*
Y33460D02*X64350Y31300D01*
Y33460D02*Y31300D01*
X64998Y32110D02*Y31570D01*
Y32110D02*X65268Y32380D01*
X65808D01*
X66078Y32110D01*
Y31570D01*
X65808Y31300D02*X66078Y31570D01*
X65268Y31300D02*X65808D01*
X64998Y31570D02*X65268Y31300D01*
X66726Y32380D02*X67806D01*
X66726Y31300D02*X67806Y32380D01*
X66726Y31300D02*X67806D01*
X68454Y32380D02*X69534D01*
X68454Y31300D02*X69534Y32380D01*
X68454Y31300D02*X69534D01*
X70182Y33460D02*Y31570D01*
X70452Y31300D01*
X71262D02*X72072D01*
X70992Y31570D02*X71262Y31300D01*
X70992Y32110D02*Y31570D01*
Y32110D02*X71262Y32380D01*
X71802D01*
X72072Y32110D01*
X70992Y31840D02*X72072D01*
Y32110D02*Y31840D01*
G54D45*X37500Y30470D02*X38560D01*
X38030D02*Y28350D01*
X39991Y29410D02*X40256Y29145D01*
X39461Y29410D02*X39991D01*
X39196Y29145D02*X39461Y29410D01*
X39196Y29145D02*Y28615D01*
X39461Y28350D01*
X40256Y29410D02*Y28615D01*
X40521Y28350D01*
X39461D02*X39991D01*
X40256Y28615D01*
X41157Y29410D02*X42217D01*
X41157Y28350D02*X42217Y29410D01*
X41157Y28350D02*X42217D01*
X43648Y30470D02*X43913Y30205D01*
X43118Y30470D02*X43648D01*
X42853Y30205D02*X43118Y30470D01*
X42853Y30205D02*Y28615D01*
X43118Y28350D01*
X43648Y29516D02*X43913Y29251D01*
X42853Y29516D02*X43648D01*
X43118Y28350D02*X43648D01*
X43913Y28615D01*
Y29251D02*Y28615D01*
X45503Y30205D02*Y28615D01*
Y30205D02*X45768Y30470D01*
X46298D01*
X46563Y30205D01*
Y28615D01*
X46298Y28350D02*X46563Y28615D01*
X45768Y28350D02*X46298D01*
X45503Y28615D02*X45768Y28350D01*
X47464Y29145D02*Y28350D01*
Y29145D02*X47729Y29410D01*
X47994D01*
X48259Y29145D01*
Y28350D01*
X47199Y29410D02*X47464Y29145D01*
X48895Y30470D02*Y28615D01*
X49160Y28350D01*
X49690Y29410D02*Y28615D01*
X49955Y28350D01*
X50750Y29410D02*Y27820D01*
X50485Y27555D02*X50750Y27820D01*
X49955Y27555D02*X50485D01*
X49690Y27820D02*X49955Y27555D01*
Y28350D02*X50485D01*
X50750Y28615D01*
G54D47*X33500Y33460D02*Y31300D01*
X34580D01*
G54D48*X35228Y32920D02*Y32866D01*
G54D47*Y32110D02*Y31300D01*
X36038Y32110D02*Y31300D01*
Y32110D02*X36308Y32380D01*
X36578D01*
X36848Y32110D01*
Y31300D01*
Y32110D02*X37118Y32380D01*
X37388D01*
X37658Y32110D01*
Y31300D01*
X35768Y32380D02*X36038Y32110D01*
G54D48*X38306Y32920D02*Y32866D01*
G54D47*Y32110D02*Y31300D01*
X39116Y33460D02*Y31570D01*
X39386Y31300D01*
X38846Y32650D02*X39386D01*
X47000Y33460D02*Y31300D01*
Y33460D02*X48350Y31300D01*
Y33460D02*Y31300D01*
X48998Y32110D02*Y31570D01*
Y32110D02*X49268Y32380D01*
X49808D01*
X50078Y32110D01*
Y31570D01*
X49808Y31300D02*X50078Y31570D01*
X49268Y31300D02*X49808D01*
X48998Y31570D02*X49268Y31300D01*
X50726Y32380D02*X51806D01*
X50726Y31300D02*X51806Y32380D01*
X50726Y31300D02*X51806D01*
X52454Y32380D02*X53534D01*
X52454Y31300D02*X53534Y32380D01*
X52454Y31300D02*X53534D01*
X54182Y33460D02*Y31570D01*
X54452Y31300D01*
X55262D02*X56072D01*
X54992Y31570D02*X55262Y31300D01*
X54992Y32110D02*Y31570D01*
Y32110D02*X55262Y32380D01*
X55802D01*
X56072Y32110D01*
X54992Y31840D02*X56072D01*
Y32110D02*Y31840D01*
G54D49*X24885Y213805D02*Y211495D01*
X24500Y214190D02*X24885Y213805D01*
X25270Y214190D01*
X26040D01*
X26425Y213805D01*
Y213035D01*
X26040Y212650D02*X26425Y213035D01*
X25270Y212650D02*X26040D01*
X24885Y213035D02*X25270Y212650D01*
G54D50*X27349Y214960D02*Y214883D01*
G54D49*Y213805D02*Y212650D01*
X28504Y213805D02*Y212650D01*
Y213805D02*X28889Y214190D01*
X29274D01*
X29659Y213805D01*
Y212650D01*
X28119Y214190D02*X28504Y213805D01*
X30968Y212650D02*X32123D01*
X32508Y213035D01*
X32123Y213420D02*X32508Y213035D01*
X30968Y213420D02*X32123D01*
X30583Y213805D02*X30968Y213420D01*
X30583Y213805D02*X30968Y214190D01*
X32123D01*
X32508Y213805D01*
X30583Y213035D02*X30968Y212650D01*
X34818Y215730D02*Y213035D01*
X35203Y212650D01*
X35973Y213805D02*Y213035D01*
Y213805D02*X36358Y214190D01*
X37128D01*
X37513Y213805D01*
Y213035D01*
X37128Y212650D02*X37513Y213035D01*
X36358Y212650D02*X37128D01*
X35973Y213035D02*X36358Y212650D01*
X38822Y213805D02*Y212650D01*
Y213805D02*X39207Y214190D01*
X39592D01*
X39977Y213805D01*
Y212650D01*
X38437Y214190D02*X38822Y213805D01*
X42056Y214190D02*X42441Y213805D01*
X41286Y214190D02*X42056D01*
X40901Y213805D02*X41286Y214190D01*
X40901Y213805D02*Y213035D01*
X41286Y212650D01*
X42056D01*
X42441Y213035D01*
X40901Y211880D02*X41286Y211495D01*
X42056D01*
X42441Y211880D01*
Y214190D02*Y211880D01*
X43750Y212650D02*X44905D01*
X43365Y213035D02*X43750Y212650D01*
X43365Y213805D02*Y213035D01*
Y213805D02*X43750Y214190D01*
X44520D01*
X44905Y213805D01*
X43365Y213420D02*X44905D01*
Y213805D02*Y213420D01*
X46214Y213805D02*Y212650D01*
Y213805D02*X46599Y214190D01*
X47369D01*
X45829D02*X46214Y213805D01*
X48293Y212650D02*X48678D01*
X25000Y220230D02*Y217150D01*
Y220230D02*X26540D01*
X25000Y218844D02*X26155D01*
X28619Y218690D02*X29004Y218305D01*
X27849Y218690D02*X28619D01*
X27464Y218305D02*X27849Y218690D01*
X27464Y218305D02*Y217535D01*
X27849Y217150D01*
X29004Y218690D02*Y217535D01*
X29389Y217150D01*
X27849D02*X28619D01*
X29004Y217535D01*
X30698Y218305D02*Y217150D01*
Y218305D02*X31083Y218690D01*
X31853D01*
X30313D02*X30698Y218305D01*
X34548Y217150D02*X35703D01*
X36088Y217535D01*
X35703Y217920D02*X36088Y217535D01*
X34548Y217920D02*X35703D01*
X34163Y218305D02*X34548Y217920D01*
X34163Y218305D02*X34548Y218690D01*
X35703D01*
X36088Y218305D01*
X34163Y217535D02*X34548Y217150D01*
G54D50*X37012Y219460D02*Y219383D01*
G54D49*Y218305D02*Y217150D01*
X39322Y220230D02*Y217150D01*
X38937D02*X39322Y217535D01*
X38167Y217150D02*X38937D01*
X37782Y217535D02*X38167Y217150D01*
X37782Y218305D02*Y217535D01*
Y218305D02*X38167Y218690D01*
X38937D01*
X39322Y218305D01*
X40631Y217150D02*X41786D01*
X40246Y217535D02*X40631Y217150D01*
X40246Y218305D02*Y217535D01*
Y218305D02*X40631Y218690D01*
X41401D01*
X41786Y218305D01*
X40246Y217920D02*X41786D01*
Y218305D02*Y217920D01*
X44481Y218305D02*Y215995D01*
X44096Y218690D02*X44481Y218305D01*
X44866Y218690D01*
X45636D01*
X46021Y218305D01*
Y217535D01*
X45636Y217150D02*X46021Y217535D01*
X44866Y217150D02*X45636D01*
X44481Y217535D02*X44866Y217150D01*
G54D50*X46945Y219460D02*Y219383D01*
G54D49*Y218305D02*Y217150D01*
X48100Y218305D02*Y217150D01*
Y218305D02*X48485Y218690D01*
X48870D01*
X49255Y218305D01*
Y217150D01*
X47715Y218690D02*X48100Y218305D01*
X50179Y219614D02*X50795Y220230D01*
Y217150D01*
X50179D02*X51334D01*
X54029D02*X55184D01*
X55569Y217535D01*
X55184Y217920D02*X55569Y217535D01*
X54029Y217920D02*X55184D01*
X53644Y218305D02*X54029Y217920D01*
X53644Y218305D02*X54029Y218690D01*
X55184D01*
X55569Y218305D01*
X53644Y217535D02*X54029Y217150D01*
G54D50*X56493Y219460D02*Y219383D01*
G54D49*Y218305D02*Y217150D01*
X58803Y220230D02*Y217150D01*
X58418D02*X58803Y217535D01*
X57648Y217150D02*X58418D01*
X57263Y217535D02*X57648Y217150D01*
X57263Y218305D02*Y217535D01*
Y218305D02*X57648Y218690D01*
X58418D01*
X58803Y218305D01*
X60112Y217150D02*X61267D01*
X59727Y217535D02*X60112Y217150D01*
X59727Y218305D02*Y217535D01*
Y218305D02*X60112Y218690D01*
X60882D01*
X61267Y218305D01*
X59727Y217920D02*X61267D01*
Y218305D02*Y217920D01*
X54270Y136000D02*X57350D01*
X54270D02*X55810Y137155D01*
X54270Y138310D01*
X57350D01*
G54D50*X55040Y139234D02*X55117D01*
G54D49*X56195D02*X57350D01*
X56195Y140389D02*X57350D01*
X56195D02*X55810Y140774D01*
Y141159D02*Y140774D01*
Y141159D02*X56195Y141544D01*
X57350D01*
X55810Y140004D02*X56195Y140389D01*
G54D50*X55040Y142468D02*X55117D01*
G54D49*X56195D02*X57350D01*
Y144778D02*Y143238D01*
X54270Y147242D02*Y145702D01*
Y146472D02*X57350D01*
X55810Y149321D02*X56195Y149706D01*
X55810Y149321D02*Y148551D01*
X56195Y148166D02*X55810Y148551D01*
X56195Y148166D02*X56965D01*
X57350Y148551D01*
X55810Y149706D02*X56965D01*
X57350Y150091D01*
Y149321D02*Y148551D01*
Y149321D02*X56965Y149706D01*
X55810Y152555D02*Y151015D01*
X57350D02*X55810Y152555D01*
X57350D02*Y151015D01*
X54270Y154634D02*X54655Y155019D01*
X54270Y154634D02*Y153864D01*
X54655Y153479D02*X54270Y153864D01*
X54655Y153479D02*X56965D01*
X57350Y153864D01*
X55656Y154634D02*X56041Y155019D01*
X55656Y154634D02*Y153479D01*
X57350Y154634D02*Y153864D01*
Y154634D02*X56965Y155019D01*
X56041D02*X56965D01*
X54270Y79000D02*X57350D01*
X54270D02*X55810Y80155D01*
X54270Y81310D01*
X57350D01*
G54D50*X55040Y82234D02*X55117D01*
G54D49*X56195D02*X57350D01*
X56195Y83389D02*X57350D01*
X56195D02*X55810Y83774D01*
Y84159D02*Y83774D01*
Y84159D02*X56195Y84544D01*
X57350D01*
X55810Y83004D02*X56195Y83389D01*
G54D50*X55040Y85468D02*X55117D01*
G54D49*X56195D02*X57350D01*
Y87778D02*Y86238D01*
X54270Y90242D02*Y88702D01*
Y89472D02*X57350D01*
X55810Y92321D02*X56195Y92706D01*
X55810Y92321D02*Y91551D01*
X56195Y91166D02*X55810Y91551D01*
X56195Y91166D02*X56965D01*
X57350Y91551D01*
X55810Y92706D02*X56965D01*
X57350Y93091D01*
Y92321D02*Y91551D01*
Y92321D02*X56965Y92706D01*
X55810Y95555D02*Y94015D01*
X57350D02*X55810Y95555D01*
X57350D02*Y94015D01*
X54270Y97634D02*X54655Y98019D01*
X54270Y97634D02*Y96864D01*
X54655Y96479D02*X54270Y96864D01*
X54655Y96479D02*X56965D01*
X57350Y96864D01*
X55656Y97634D02*X56041Y98019D01*
X55656Y97634D02*Y96479D01*
X57350Y97634D02*Y96864D01*
Y97634D02*X56965Y98019D01*
X56041D02*X56965D01*
X138770Y76385D02*X141850D01*
X138770Y77540D02*Y76000D01*
Y77540D02*X139155Y77925D01*
X139925D01*
X140310Y77540D02*X139925Y77925D01*
X140310Y77540D02*Y76385D01*
G54D50*X139540Y78849D02*X139617D01*
G54D49*X140695D02*X141850D01*
X140695Y80004D02*X141850D01*
X140695D02*X140310Y80389D01*
Y80774D02*Y80389D01*
Y80774D02*X140695Y81159D01*
X141850D01*
X140310Y79619D02*X140695Y80004D01*
X141850Y83623D02*Y82468D01*
Y83623D02*X141465Y84008D01*
X141080Y83623D02*X141465Y84008D01*
X141080Y83623D02*Y82468D01*
X140695Y82083D02*X141080Y82468D01*
X140695Y82083D02*X140310Y82468D01*
Y83623D02*Y82468D01*
Y83623D02*X140695Y84008D01*
X141465Y82083D02*X141850Y82468D01*
X139386Y86318D02*X138770Y86934D01*
X141850D01*
Y87473D02*Y86318D01*
X139386Y88397D02*X138770Y89013D01*
X141850D01*
Y89552D02*Y88397D01*
X140310Y92016D02*Y90476D01*
X139155Y92940D02*X138770Y93325D01*
Y94480D02*Y93325D01*
Y94480D02*X139155Y94865D01*
X139925D01*
X141850Y92940D02*X139925Y94865D01*
X141850D02*Y92940D01*
X141465Y95789D02*X141850Y96174D01*
X139155Y95789D02*X141465D01*
X139155D02*X138770Y96174D01*
Y96944D02*Y96174D01*
Y96944D02*X139155Y97329D01*
X141465D01*
X141850Y96944D02*X141465Y97329D01*
X141850Y96944D02*Y96174D01*
X141080Y95789D02*X139540Y97329D01*
X92770Y79885D02*X95850D01*
X92770Y81040D02*Y79500D01*
Y81040D02*X93155Y81425D01*
X93925D01*
X94310Y81040D02*X93925Y81425D01*
X94310Y81040D02*Y79885D01*
G54D50*X93540Y82349D02*X93617D01*
G54D49*X94695D02*X95850D01*
X94695Y83504D02*X95850D01*
X94695D02*X94310Y83889D01*
Y84274D02*Y83889D01*
Y84274D02*X94695Y84659D01*
X95850D01*
X94310Y83119D02*X94695Y83504D01*
X95850Y87123D02*Y85968D01*
Y87123D02*X95465Y87508D01*
X95080Y87123D02*X95465Y87508D01*
X95080Y87123D02*Y85968D01*
X94695Y85583D02*X95080Y85968D01*
X94695Y85583D02*X94310Y85968D01*
Y87123D02*Y85968D01*
Y87123D02*X94695Y87508D01*
X95465Y85583D02*X95850Y85968D01*
X95465Y89818D02*X95850Y90203D01*
X93155Y89818D02*X95465D01*
X93155D02*X92770Y90203D01*
Y90973D02*Y90203D01*
Y90973D02*X93155Y91358D01*
X95465D01*
X95850Y90973D02*X95465Y91358D01*
X95850Y90973D02*Y90203D01*
X95080Y89818D02*X93540Y91358D01*
X93386Y92282D02*X92770Y92898D01*
X95850D01*
Y93437D02*Y92282D01*
X94310Y95901D02*Y94361D01*
X93386Y96825D02*X92770Y97441D01*
X95850D01*
Y97980D02*Y96825D01*
X95465Y98904D02*X95850Y99289D01*
X93155Y98904D02*X95465D01*
X93155D02*X92770Y99289D01*
Y100059D02*Y99289D01*
Y100059D02*X93155Y100444D01*
X95465D01*
X95850Y100059D02*X95465Y100444D01*
X95850Y100059D02*Y99289D01*
X95080Y98904D02*X93540Y100444D01*
G54D47*X78540Y109000D02*X80700D01*
X78540D02*X79620Y109810D01*
X78540Y110620D01*
X80700D01*
X79620Y112078D02*X79890Y112348D01*
X79620Y112078D02*Y111538D01*
X79890Y111268D02*X79620Y111538D01*
X79890Y111268D02*X80430D01*
X80700Y111538D01*
X79620Y112348D02*X80430D01*
X80700Y112618D01*
Y112078D02*Y111538D01*
Y112078D02*X80430Y112348D01*
X79620Y113266D02*X80430D01*
X80700Y113536D01*
X79620Y114346D02*X81240D01*
X81510Y114076D02*X81240Y114346D01*
X81510Y114076D02*Y113536D01*
X81240Y113266D02*X81510Y113536D01*
X80700Y114076D02*Y113536D01*
Y114076D02*X80430Y114346D01*
X78540Y115966D02*X80700D01*
X80430D02*X80700Y116236D01*
Y116776D02*Y116236D01*
Y116776D02*X80430Y117046D01*
X79890D02*X80430D01*
X79620Y116776D02*X79890Y117046D01*
X79620Y116776D02*Y116236D01*
X79890Y115966D02*X79620Y116236D01*
X79890Y117964D02*X80700D01*
X79890D02*X79620Y118234D01*
Y118774D02*Y118234D01*
Y117694D02*X79890Y117964D01*
X80700Y120502D02*Y119692D01*
X80430Y119422D02*X80700Y119692D01*
X79890Y119422D02*X80430D01*
X79890D02*X79620Y119692D01*
Y120232D02*Y119692D01*
Y120232D02*X79890Y120502D01*
X80160D02*Y119422D01*
X79890Y120502D02*X80160D01*
X79620Y121960D02*X79890Y122230D01*
X79620Y121960D02*Y121420D01*
X79890Y121150D02*X79620Y121420D01*
X79890Y121150D02*X80430D01*
X80700Y121420D01*
X79620Y122230D02*X80430D01*
X80700Y122500D01*
Y121960D02*Y121420D01*
Y121960D02*X80430Y122230D01*
X78540Y123148D02*X80700D01*
X79890D02*X80700Y123958D01*
X79890Y123148D02*X79350Y123688D01*
X82310Y111770D02*X84200D01*
X82310D02*X82040Y112040D01*
Y112310D02*Y112040D01*
X83120D02*Y111500D01*
X83390Y112850D02*X83930D01*
X83390D02*X83120Y113120D01*
Y113660D02*Y113120D01*
Y113660D02*X83390Y113930D01*
X83930D01*
X84200Y113660D02*X83930Y113930D01*
X84200Y113660D02*Y113120D01*
X83930Y112850D02*X84200Y113120D01*
X83390Y114848D02*X84200D01*
X83390D02*X83120Y115118D01*
Y115658D02*Y115118D01*
Y114578D02*X83390Y114848D01*
X82040Y117278D02*X84200D01*
X82040D02*X83120Y118088D01*
X82040Y118898D01*
X84200D01*
G54D48*X82580Y119546D02*X82634D01*
G54D47*X83390D02*X84200D01*
X83390Y120356D02*X84200D01*
X83390D02*X83120Y120626D01*
Y120896D02*Y120626D01*
Y120896D02*X83390Y121166D01*
X84200D01*
X83120Y120086D02*X83390Y120356D01*
G54D48*X82580Y121814D02*X82634D01*
G54D47*X83390D02*X84200D01*
Y122624D02*Y122354D01*
G54D49*X86770Y79885D02*X89850D01*
X86770Y81040D02*Y79500D01*
Y81040D02*X87155Y81425D01*
X87925D01*
X88310Y81040D02*X87925Y81425D01*
X88310Y81040D02*Y79885D01*
G54D50*X87540Y82349D02*X87617D01*
G54D49*X88695D02*X89850D01*
X88695Y83504D02*X89850D01*
X88695D02*X88310Y83889D01*
Y84274D02*Y83889D01*
Y84274D02*X88695Y84659D01*
X89850D01*
X88310Y83119D02*X88695Y83504D01*
X89850Y87123D02*Y85968D01*
Y87123D02*X89465Y87508D01*
X89080Y87123D02*X89465Y87508D01*
X89080Y87123D02*Y85968D01*
X88695Y85583D02*X89080Y85968D01*
X88695Y85583D02*X88310Y85968D01*
Y87123D02*Y85968D01*
Y87123D02*X88695Y87508D01*
X89465Y85583D02*X89850Y85968D01*
X87386Y89818D02*X86770Y90434D01*
X89850D01*
Y90973D02*Y89818D01*
X87386Y91897D02*X86770Y92513D01*
X89850D01*
Y93052D02*Y91897D01*
X88310Y95516D02*Y93976D01*
X87155Y96440D02*X86770Y96825D01*
Y97980D02*Y96825D01*
Y97980D02*X87155Y98365D01*
X87925D01*
X89850Y96440D02*X87925Y98365D01*
X89850D02*Y96440D01*
X89465Y99289D02*X89850Y99674D01*
X87155Y99289D02*X89465D01*
X87155D02*X86770Y99674D01*
Y100444D02*Y99674D01*
Y100444D02*X87155Y100829D01*
X89465D01*
X89850Y100444D02*X89465Y100829D01*
X89850Y100444D02*Y99674D01*
X89080Y99289D02*X87540Y100829D01*
G54D44*X95500Y57500D02*Y27000D01*
X108000Y28000D02*X111000Y31000D01*
X98500Y27000D02*X107000D01*
X111000Y35000D02*Y31000D01*
X112000Y50500D02*Y47500D01*
X109000Y50500D02*Y47500D01*
X97500D02*Y22000D01*
X92500Y65000D02*Y17000D01*
X97500Y22000D02*X108000D01*
Y22500D02*X113500D01*
X108000D02*Y21000D01*
X112000D02*X113500D01*
X110000D02*X111000Y20000D01*
X108000Y21000D02*X110000D01*
X95500Y27000D02*X96000D01*
X111000D02*X112000Y28000D01*
X111000Y29000D02*X112000Y28000D01*
X110000D02*X111000Y29000D01*
X110000Y28000D02*X111000Y27000D01*
X108000Y28000D02*X111000Y25000D01*
X97500Y47500D02*X112500D01*
X102000Y60500D02*Y57500D01*
X105000Y60500D02*Y57500D01*
X95500D01*
X99000Y60500D02*Y57500D01*
X134000Y61000D02*Y59500D01*
X137000Y61000D02*Y59500D01*
X134000D02*X135500D01*
X137000Y61000D02*Y60500D01*
X134000Y61000D02*Y60500D01*
X135000Y59500D02*X143000D01*
X121500Y49500D02*X141000D01*
X129500Y52000D02*Y49500D01*
X121500Y52000D02*Y49500D01*
X127000Y50000D02*Y49500D01*
X124000Y50000D02*Y49500D01*
X145000Y53000D02*Y23000D01*
X143000Y59500D02*Y27000D01*
X141000Y49500D02*Y35500D01*
X148000Y54500D02*Y54000D01*
X147000Y53000D02*X148000Y54000D01*
X147000Y49500D02*Y47000D01*
Y47500D02*Y20000D01*
Y49500D02*X152000D01*
X153000Y51000D02*Y50500D01*
X152000Y49500D02*X153000Y50500D01*
X149999D02*X151000Y49500D01*
X149999Y51000D02*Y50500D01*
X145000Y53000D02*X147000D01*
X145000Y54000D02*X146000Y53000D01*
X145000Y54500D02*Y54000D01*
X167500Y50500D02*Y47500D01*
X153000D02*X167500D01*
X164500Y50500D02*Y47500D01*
X153000D02*Y28500D01*
X164500D01*
Y32500D02*Y23000D01*
X167000Y32500D02*Y20500D01*
X164500Y32500D02*X167000D01*
X149499Y21000D02*X164500Y23000D01*
X149499Y21000D02*Y20000D01*
X167000Y20500D01*
X127500Y35500D02*X141000D01*
X119500Y20000D02*X147000D01*
X119000Y23000D02*X145000D01*
X127000Y27000D02*X143000D01*
X121500Y26500D02*X126500D01*
X119000Y24500D02*Y21500D01*
X118500Y21000D02*X119500Y20000D01*
X116000Y24500D02*X119000D01*
X116000D02*Y21500D01*
X117500Y20000D02*X119000Y21500D01*
X116000D02*X117500Y20000D01*
Y41500D02*Y37500D01*
Y34000D02*Y33500D01*
Y35500D02*Y35000D01*
X116000Y32000D02*X119000D01*
X120000Y35500D02*X120499Y35000D01*
X122000D01*
X120000Y37500D02*X120499Y38000D01*
X122000D01*
X119000Y37500D02*Y35500D01*
X118000Y36500D02*X120000D01*
X116000Y30500D02*X119000D01*
X116000Y29000D02*X119000D01*
X116000Y27500D02*X119000D01*
X117500Y32500D02*Y24500D01*
X121500Y39500D02*Y33500D01*
X127500D01*
X120499Y32500D02*X126500D01*
X128000Y31000D01*
X120499Y29500D02*X121500D01*
Y26500D01*
Y39500D02*X127500D01*
Y33500D01*
X123000Y36500D02*X124500Y35000D01*
X126000Y36500D01*
X124500Y38000D02*X126000Y36500D01*
X123000D02*X124500Y38000D01*
X126500Y26500D02*X128000Y28000D01*
Y31000D02*Y28000D01*
X124500Y31000D02*X126000Y29500D01*
X123000D02*X124500Y31000D01*
X123000Y29500D02*X124500Y28000D01*
X126000Y29500D01*
X111000Y27000D02*Y22500D01*
X113500D02*Y21000D01*
X92500Y65000D02*X170500D01*
Y17000D01*
X92500D02*X170500D01*
X111000Y25000D02*X114000Y28000D01*
X111000Y31000D02*X114000Y28000D01*
X115000Y50500D02*Y47500D01*
X108500D02*X115000D01*
G54D51*X122200Y44080D02*Y43000D01*
X121930Y44349D02*X122200Y44080D01*
X121282Y44349D02*X121930D01*
X121012Y44080D02*X121282Y44349D01*
X121012Y44080D02*Y43270D01*
X120040D02*X122200D01*
X120040Y44080D02*Y43000D01*
Y44080D02*X120310Y44349D01*
X120742D01*
X121012Y44080D01*
X120040Y44998D02*X121930D01*
X122200Y45268D01*
X121120Y45808D02*X121930D01*
X122200Y46078D01*
Y46618D02*Y46078D01*
X121930Y46888D02*X122200Y46618D01*
X121120Y46888D02*X121930D01*
X122200Y48616D02*Y47806D01*
X121930Y47535D02*X122200Y47806D01*
X121390Y47535D02*X121930D01*
X121120Y47806D02*X121390Y47535D01*
X121120Y48345D02*Y47806D01*
Y48345D02*X121390Y48616D01*
X121659D02*Y47535D01*
X121390Y48616D02*X121659D01*
X114040Y43500D02*X116200D01*
X114040D02*X116200Y44850D01*
X114040D02*X116200D01*
Y46578D02*Y45875D01*
X115822Y45498D02*X116200Y45875D01*
X114418Y45498D02*X115822D01*
X114040Y45875D02*X114418Y45498D01*
X114040Y46578D02*Y45875D01*
G54D52*X109650Y46060D02*Y45370D01*
X109279Y45000D02*X109650Y45370D01*
X107901Y45000D02*X109279D01*
X107530Y45370D02*X107901Y45000D01*
X107530Y46060D02*Y45370D01*
X111030Y43500D02*X113150D01*
X111030D02*X113150Y44825D01*
X111030D02*X113150D01*
X111295Y45461D02*X112885D01*
X111030Y45725D02*X111295Y45461D01*
X111030Y46256D02*Y45725D01*
Y46256D02*X111295Y46521D01*
X112885D01*
X113150Y46256D01*
Y45725D01*
X112885Y45461D02*X113150Y45725D01*
G54D51*X99580Y29960D02*X99850Y29690D01*
X98770Y29960D02*X99580D01*
X98500Y29690D02*X98770Y29960D01*
X98500Y29690D02*Y29150D01*
X98770Y28880D01*
X99580D01*
X99850Y28610D01*
Y28070D01*
X99580Y27800D02*X99850Y28070D01*
X98770Y27800D02*X99580D01*
X98500Y28070D02*X98770Y27800D01*
X100768D02*X101578D01*
X100498Y28070D02*X100768Y27800D01*
X100498Y28610D02*Y28070D01*
Y28610D02*X100768Y28880D01*
X101308D01*
X101578Y28610D01*
X100498Y28339D02*X101578D01*
Y28610D02*Y28339D01*
X102496Y28610D02*Y27800D01*
Y28610D02*X102766Y28880D01*
X103306D01*
X102226D02*X102496Y28610D01*
X103954Y28880D02*X104494Y27800D01*
X105034Y28880D01*
X105682Y28610D02*Y28070D01*
Y28610D02*X105952Y28880D01*
X106492D01*
X106762Y28610D01*
Y28070D01*
X106492Y27800D02*X106762Y28070D01*
X105952Y27800D02*X106492D01*
X105682Y28070D02*X105952Y27800D01*
X129000Y29460D02*Y27300D01*
X130350Y29460D02*Y27300D01*
X129000Y28380D02*X130350D01*
X131268Y27300D02*X132078D01*
X130998Y27570D02*X131268Y27300D01*
X130998Y28109D02*Y27570D01*
Y28109D02*X131268Y28380D01*
X131808D01*
X132078Y28109D01*
X130998Y27840D02*X132078D01*
Y28109D02*Y27840D01*
X133536Y28380D02*X133806Y28109D01*
X132996Y28380D02*X133536D01*
X132726Y28109D02*X132996Y28380D01*
X132726Y28109D02*Y27570D01*
X132996Y27300D01*
X133806Y28380D02*Y27570D01*
X134076Y27300D01*
X132996D02*X133536D01*
X133806Y27570D01*
X134994Y29460D02*Y27570D01*
X135264Y27300D01*
X134724Y28650D02*X135264D01*
X136074Y27300D02*X136884D01*
X137154Y27570D01*
X136884Y27840D02*X137154Y27570D01*
X136074Y27840D02*X136884D01*
X135804Y28109D02*X136074Y27840D01*
X135804Y28109D02*X136074Y28380D01*
X136884D01*
X137154Y28109D01*
X135804Y27570D02*X136074Y27300D01*
G54D48*X137802Y28920D02*Y28866D01*
G54D51*Y28109D02*Y27300D01*
X138612Y28109D02*Y27300D01*
Y28109D02*X138882Y28380D01*
X139152D01*
X139422Y28109D01*
Y27300D01*
X138342Y28380D02*X138612Y28109D01*
X140070Y29460D02*Y27300D01*
Y28109D02*X140880Y27300D01*
X140070Y28109D02*X140610Y28650D01*
X98770Y24960D02*Y22800D01*
X98500Y24960D02*X99580D01*
X99850Y24690D01*
Y24150D01*
X99580Y23880D02*X99850Y24150D01*
X98770Y23880D02*X99580D01*
X100768Y23610D02*Y22800D01*
Y23610D02*X101038Y23880D01*
X101578D01*
X100498D02*X100768Y23610D01*
X102226D02*Y23070D01*
Y23610D02*X102496Y23880D01*
X103036D01*
X103306Y23610D01*
Y23070D01*
X103036Y22800D02*X103306Y23070D01*
X102496Y22800D02*X103036D01*
X102226Y23070D02*X102496Y22800D01*
X103954Y24960D02*Y22800D01*
Y23070D02*X104224Y22800D01*
X104764D01*
X105034Y23070D01*
Y23610D02*Y23070D01*
X104764Y23880D02*X105034Y23610D01*
X104224Y23880D02*X104764D01*
X103954Y23610D02*X104224Y23880D01*
X105952Y22800D02*X106762D01*
X105682Y23070D02*X105952Y22800D01*
X105682Y23610D02*Y23070D01*
Y23610D02*X105952Y23880D01*
X106492D01*
X106762Y23610D01*
X105682Y23340D02*X106762D01*
Y23610D02*Y23340D01*
X120000Y25460D02*X121080D01*
X120540D02*Y23300D01*
X121728Y25460D02*Y23300D01*
Y24110D02*X121998Y24380D01*
X122538D01*
X122808Y24110D01*
Y23300D01*
X123726D02*X124536D01*
X123456Y23569D02*X123726Y23300D01*
X123456Y24110D02*Y23569D01*
Y24110D02*X123726Y24380D01*
X124266D01*
X124536Y24110D01*
X123456Y23840D02*X124536D01*
Y24110D02*Y23840D01*
X125454Y24110D02*Y23300D01*
Y24110D02*X125724Y24380D01*
X126264D01*
X125184D02*X125454Y24110D01*
X127182D02*Y23300D01*
Y24110D02*X127452Y24380D01*
X127722D01*
X127992Y24110D01*
Y23300D01*
Y24110D02*X128262Y24380D01*
X128532D01*
X128802Y24110D01*
Y23300D01*
X126912Y24380D02*X127182Y24110D01*
G54D48*X129450Y24920D02*Y24866D01*
G54D51*Y24110D02*Y23300D01*
X130260D02*X131070D01*
X131340Y23569D01*
X131070Y23840D02*X131340Y23569D01*
X130260Y23840D02*X131070D01*
X129990Y24110D02*X130260Y23840D01*
X129990Y24110D02*X130260Y24380D01*
X131070D01*
X131340Y24110D01*
X129990Y23569D02*X130260Y23300D01*
X132258Y25460D02*Y23569D01*
X132528Y23300D01*
X131988Y24650D02*X132528D01*
X133068Y24110D02*Y23569D01*
Y24110D02*X133338Y24380D01*
X133878D01*
X134148Y24110D01*
Y23569D01*
X133878Y23300D02*X134148Y23569D01*
X133338Y23300D02*X133878D01*
X133068Y23569D02*X133338Y23300D01*
X135066Y24110D02*Y23300D01*
Y24110D02*X135336Y24380D01*
X135876D01*
X134796D02*X135066Y24110D01*
X120499Y22459D02*Y20300D01*
X121850Y22459D02*Y20300D01*
X120499Y21380D02*X121850D01*
X122768Y20300D02*X123578D01*
X122497Y20570D02*X122768Y20300D01*
X122497Y21110D02*Y20570D01*
Y21110D02*X122768Y21380D01*
X123308D01*
X123578Y21110D01*
X122497Y20840D02*X123578D01*
Y21110D02*Y20840D01*
X125036Y21380D02*X125306Y21110D01*
X124496Y21380D02*X125036D01*
X124226Y21110D02*X124496Y21380D01*
X124226Y21110D02*Y20570D01*
X124496Y20300D01*
X125306Y21380D02*Y20570D01*
X125576Y20300D01*
X124496D02*X125036D01*
X125306Y20570D01*
X126494Y22459D02*Y20570D01*
X126764Y20300D01*
X126224Y21650D02*X126764D01*
X127574Y20300D02*X128384D01*
X127304Y20570D02*X127574Y20300D01*
X127304Y21110D02*Y20570D01*
Y21110D02*X127574Y21380D01*
X128114D01*
X128384Y21110D01*
X127304Y20840D02*X128384D01*
Y21110D02*Y20840D01*
X129302Y21110D02*Y20300D01*
Y21110D02*X129572Y21380D01*
X130112D01*
X129032D02*X129302Y21110D01*
X100540Y51580D02*Y50500D01*
Y51580D02*X100810Y51850D01*
X101350D01*
X101620Y51580D01*
Y50770D01*
X100540D02*X102700D01*
X101620Y51202D02*X102700Y51850D01*
Y53578D02*Y52768D01*
X102430Y52498D02*X102700Y52768D01*
X101890Y52498D02*X102430D01*
X101620Y52768D02*X101890Y52498D01*
X101620Y53308D02*Y52768D01*
Y53308D02*X101890Y53578D01*
X102160D02*Y52498D01*
X101890Y53578D02*X102160D01*
X100540Y55306D02*X102700D01*
X102430D02*X102700Y55036D01*
Y54496D01*
X102430Y54226D02*X102700Y54496D01*
X101890Y54226D02*X102430D01*
X101620Y54496D02*X101890Y54226D01*
X101620Y55036D02*Y54496D01*
Y55036D02*X101890Y55306D01*
X101620Y57034D02*Y55954D01*
X101080Y56494D02*X102160D01*
G54D52*X105650Y49060D02*Y48000D01*
X105385Y49325D02*X105650Y49060D01*
X104749Y49325D02*X105385D01*
X104484Y49060D02*X104749Y49325D01*
X104484Y49060D02*Y48265D01*
X103530D02*X105650D01*
X103530Y49060D02*Y48000D01*
Y49060D02*X103795Y49325D01*
X104219D01*
X104484Y49060D01*
X103530Y49961D02*X105385D01*
X105650Y50226D01*
X104590Y51551D02*X104855Y51816D01*
X104590Y51551D02*Y51021D01*
X104855Y50756D01*
X105385D01*
X105650Y51021D01*
X104590Y51816D02*X105385D01*
X105650Y52081D01*
Y51551D02*Y51021D01*
X105385Y51816D02*X105650Y51551D01*
X104590Y53777D02*Y52982D01*
X104855Y52717D01*
X105385D01*
X105650Y52982D01*
Y53777D02*Y52982D01*
X103530Y54413D02*X105650D01*
X104855D02*X105650Y55208D01*
X104325Y54943D02*X104855Y54413D01*
X104590Y56904D02*Y55844D01*
X99385Y49000D02*X99650Y49265D01*
X97530D02*X97795Y49000D01*
X99385D01*
X97530Y50166D02*X99650D01*
X97530Y50961D02*Y49901D01*
Y50961D02*X97795Y51226D01*
X98325D01*
X98590Y50961D01*
Y50166D01*
X97530Y51862D02*X98590D01*
X99650Y52127D01*
X98590Y52657D02*X99650Y52127D01*
X98590Y52657D02*X99650Y53187D01*
X98590Y53452D02*X99650Y53187D01*
X97530Y53452D02*X98590D01*
X97530Y54088D02*X99650D01*
X97530D02*X98590Y54883D01*
X97530Y55678D02*X98590Y54883D01*
X97530Y55678D02*X99650D01*
X97530Y56314D02*X97795Y56579D01*
X99385D01*
X99650Y56314D01*
X138150Y51060D02*Y50000D01*
X137885Y51325D02*X138150Y51060D01*
X137249Y51325D02*X137885D01*
X136984Y51060D02*X137249Y51325D01*
X136984Y51060D02*Y50265D01*
X136030D02*X138150D01*
X136030Y51060D02*Y50000D01*
Y51060D02*X136295Y51325D01*
X136719D01*
X136984Y51060D01*
X136030Y51961D02*X137885D01*
X138150Y52226D01*
X137090Y53551D02*X137355Y53816D01*
X137090Y53551D02*Y53021D01*
X137355Y52756D01*
X137885D01*
X138150Y53021D01*
X137090Y53816D02*X137885D01*
X138150Y54081D01*
Y53551D02*Y53021D01*
X137885Y53816D02*X138150Y53551D01*
X137090Y55777D02*Y54982D01*
X137355Y54717D01*
X137885D01*
X138150Y54982D01*
Y55777D02*Y54982D01*
X136030Y56413D02*X138150D01*
X137355D02*X138150Y57208D01*
X136825Y56943D02*X137355Y56413D01*
X137090Y58904D02*Y57844D01*
G54D51*X133040Y53580D02*Y52500D01*
Y53580D02*X133310Y53850D01*
X133850D01*
X134120Y53580D01*
Y52770D01*
X133040D02*X135200D01*
X134120Y53202D02*X135200Y53850D01*
Y55578D02*Y54768D01*
X134930Y54498D02*X135200Y54768D01*
X134390Y54498D02*X134930D01*
X134120Y54768D02*X134390Y54498D01*
X134120Y55308D02*Y54768D01*
Y55308D02*X134390Y55578D01*
X134660D02*Y54498D01*
X134390Y55578D02*X134660D01*
X133040Y57306D02*X135200D01*
X134930D02*X135200Y57036D01*
Y56496D01*
X134930Y56226D02*X135200Y56496D01*
X134390Y56226D02*X134930D01*
X134120Y56496D02*X134390Y56226D01*
X134120Y57036D02*Y56496D01*
Y57036D02*X134390Y57306D01*
X134120Y59034D02*Y57954D01*
X133580Y58494D02*X134660D01*
X122540Y41579D02*X122810Y41850D01*
X122540Y41579D02*Y40769D01*
X122810Y40500D01*
X124429D01*
X124700Y40769D01*
Y41579D02*Y40769D01*
X124429Y41850D02*X124700Y41579D01*
X123890Y41850D02*X124429D01*
X123619Y41579D02*X123890Y41850D01*
X123619Y41579D02*Y41040D01*
X123890Y42767D02*X124700D01*
X123619Y43038D02*X123890Y42767D01*
X123619Y43577D02*Y43038D01*
Y42498D02*X123890Y42767D01*
X124700Y45306D02*Y44496D01*
X124429Y44226D02*X124700Y44496D01*
X123890Y44226D02*X124429D01*
X123619Y44496D02*X123890Y44226D01*
X123619Y45036D02*Y44496D01*
Y45036D02*X123890Y45306D01*
X124160D02*Y44226D01*
X123890Y45306D02*X124160D01*
X124700Y47034D02*Y46224D01*
X124429Y45953D02*X124700Y46224D01*
X123890Y45953D02*X124429D01*
X123619Y46224D02*X123890Y45953D01*
X123619Y46763D02*Y46224D01*
Y46763D02*X123890Y47034D01*
X124160D02*Y45953D01*
X123890Y47034D02*X124160D01*
X123890Y47951D02*X124700D01*
X123619Y48222D02*X123890Y47951D01*
X123619Y48492D02*Y48222D01*
Y48492D02*X123890Y48762D01*
X124700D01*
X123619Y47682D02*X123890Y47951D01*
X128540Y44580D02*Y43500D01*
Y44580D02*X128810Y44850D01*
X129350D01*
X129620Y44580D01*
Y43770D01*
X128540D02*X130700D01*
X129620Y44202D02*X130700Y44850D01*
Y46578D02*Y45768D01*
X130430Y45498D02*X130700Y45768D01*
X129890Y45498D02*X130430D01*
X129620Y45768D02*X129890Y45498D01*
X129620Y46308D02*Y45768D01*
Y46308D02*X129890Y46578D01*
X130160D02*Y45498D01*
X129890Y46578D02*X130160D01*
X128540Y48306D02*X130700D01*
X130430D02*X130700Y48036D01*
Y47496D01*
X130430Y47226D02*X130700Y47496D01*
X129890Y47226D02*X130430D01*
X129620Y47496D02*X129890Y47226D01*
X129620Y48036D02*Y47496D01*
Y48036D02*X129890Y48306D01*
X127700Y42580D02*Y41500D01*
X127430Y42850D02*X127700Y42580D01*
X126782Y42850D02*X127430D01*
X126512Y42580D02*X126782Y42850D01*
X126512Y42580D02*Y41770D01*
X125540D02*X127700D01*
X125540Y42580D02*Y41500D01*
Y42580D02*X125810Y42850D01*
X126242D01*
X126512Y42580D01*
X125540Y43498D02*X127430D01*
X127700Y43768D01*
X126620Y45118D02*X126890Y45387D01*
X126620Y45118D02*Y44578D01*
X126890Y44308D01*
X127430D01*
X127700Y44578D01*
X126620Y45387D02*X127430D01*
X127700Y45658D01*
Y45118D02*Y44578D01*
X127430Y45387D02*X127700Y45118D01*
X126620Y47385D02*Y46575D01*
X126890Y46306D01*
X127430D01*
X127700Y46575D01*
Y47385D02*Y46575D01*
X125540Y48034D02*X127700D01*
X126890D02*X127700Y48844D01*
X126350Y48574D02*X126890Y48034D01*
X129580Y38460D02*X129850Y38190D01*
X128770Y38460D02*X129580D01*
X128500Y38190D02*X128770Y38460D01*
X128500Y38190D02*Y37650D01*
X128770Y37380D01*
X129580D01*
X129850Y37110D01*
Y36570D01*
X129580Y36300D02*X129850Y36570D01*
X128770Y36300D02*X129580D01*
X128500Y36570D02*X128770Y36300D01*
X130768Y38460D02*Y36570D01*
X131038Y36300D01*
X130498Y37650D02*X131038D01*
X131848Y36300D02*X132658D01*
X131578Y36570D02*X131848Y36300D01*
X131578Y37110D02*Y36570D01*
Y37110D02*X131848Y37380D01*
X132388D01*
X132658Y37110D01*
X131578Y36840D02*X132658D01*
Y37110D02*Y36840D01*
X133576Y37110D02*Y35490D01*
X133306Y37380D02*X133576Y37110D01*
X133846Y37380D01*
X134386D01*
X134656Y37110D01*
Y36570D01*
X134386Y36300D02*X134656Y36570D01*
X133846Y36300D02*X134386D01*
X133576Y36570D02*X133846Y36300D01*
X135574Y37110D02*Y35490D01*
X135304Y37380D02*X135574Y37110D01*
X135844Y37380D01*
X136384D01*
X136654Y37110D01*
Y36570D01*
X136384Y36300D02*X136654Y36570D01*
X135844Y36300D02*X136384D01*
X135574Y36570D02*X135844Y36300D01*
X137572D02*X138382D01*
X137302Y36570D02*X137572Y36300D01*
X137302Y37110D02*Y36570D01*
Y37110D02*X137572Y37380D01*
X138112D01*
X138382Y37110D01*
X137302Y36840D02*X138382D01*
Y37110D02*Y36840D01*
X139300Y37110D02*Y36300D01*
Y37110D02*X139570Y37380D01*
X140110D01*
X139030D02*X139300Y37110D01*
G54D52*X168150Y39060D02*Y38000D01*
X167885Y39325D02*X168150Y39060D01*
X167249Y39325D02*X167885D01*
X166984Y39060D02*X167249Y39325D01*
X166984Y39060D02*Y38265D01*
X166030D02*X168150D01*
X166030Y39060D02*Y38000D01*
Y39060D02*X166295Y39325D01*
X166719D01*
X166984Y39060D01*
X166030Y39961D02*X167885D01*
X168150Y40226D01*
X167090Y41551D02*X167355Y41816D01*
X167090Y41551D02*Y41021D01*
X167355Y40756D01*
X167885D01*
X168150Y41021D01*
X167090Y41816D02*X167885D01*
X168150Y42081D01*
Y41551D02*Y41021D01*
X167885Y41816D02*X168150Y41551D01*
X167090Y43777D02*Y42982D01*
X167355Y42717D01*
X167885D01*
X168150Y42982D01*
Y43777D02*Y42982D01*
X166030Y44413D02*X168150D01*
X167355D02*X168150Y45208D01*
X166825Y44943D02*X167355Y44413D01*
X167090Y46904D02*Y45844D01*
G54D51*X163040Y41579D02*Y40500D01*
Y41579D02*X163310Y41850D01*
X163850D01*
X164120Y41579D01*
Y40769D01*
X163040D02*X165200D01*
X164120Y41202D02*X165200Y41850D01*
Y43577D02*Y42767D01*
X164930Y42498D02*X165200Y42767D01*
X164390Y42498D02*X164930D01*
X164120Y42767D02*X164390Y42498D01*
X164120Y43308D02*Y42767D01*
Y43308D02*X164390Y43577D01*
X164660D02*Y42498D01*
X164390Y43577D02*X164660D01*
X163040Y45306D02*X165200D01*
X164930D02*X165200Y45036D01*
Y44496D01*
X164930Y44226D02*X165200Y44496D01*
X164390Y44226D02*X164930D01*
X164120Y44496D02*X164390Y44226D01*
X164120Y45036D02*Y44496D01*
Y45036D02*X164390Y45306D01*
X164120Y47034D02*Y45953D01*
X163580Y46494D02*X164660D01*
X154378Y30300D02*X155080D01*
X154000Y30678D02*X154378Y30300D01*
X154000Y32082D02*Y30678D01*
Y32082D02*X154378Y32460D01*
X155080D01*
X155727Y31109D02*Y30570D01*
Y31109D02*X155998Y31380D01*
X156537D01*
X156808Y31109D01*
Y30570D01*
X156537Y30300D02*X156808Y30570D01*
X155998Y30300D02*X156537D01*
X155727Y30570D02*X155998Y30300D01*
X157456Y31109D02*Y30570D01*
Y31109D02*X157725Y31380D01*
X158266D01*
X158536Y31109D01*
Y30570D01*
X158266Y30300D02*X158536Y30570D01*
X157725Y30300D02*X158266D01*
X157456Y30570D02*X157725Y30300D01*
X159184Y32460D02*Y30570D01*
X159454Y30300D01*
G54D48*X159994Y31920D02*Y31866D01*
G54D51*Y31109D02*Y30300D01*
X160804Y31109D02*Y30300D01*
Y31109D02*X161074Y31380D01*
X161344D01*
X161614Y31109D01*
Y30300D01*
X160534Y31380D02*X160804Y31109D01*
X163072Y31380D02*X163342Y31109D01*
X162532Y31380D02*X163072D01*
X162262Y31109D02*X162532Y31380D01*
X162262Y31109D02*Y30570D01*
X162532Y30300D01*
X163072D01*
X163342Y30570D01*
X162262Y29760D02*X162532Y29490D01*
X163072D01*
X163342Y29760D01*
Y31380D02*Y29760D01*
G54D43*X65000Y205000D02*X165000D01*
X65000D02*Y185000D01*
X165000D01*
Y205000D02*Y185000D01*
X155000Y205000D02*Y195000D01*
X165000D01*
G54D44*X35800Y41800D02*Y36300D01*
X37300D01*
Y41800D02*Y40300D01*
Y38300D02*X38300Y39300D01*
X37300Y38300D02*Y36300D01*
X31300Y39300D02*X35800D01*
Y41800D02*X37300D01*
G54D51*X33840Y43318D02*X36000D01*
X33840Y44128D02*Y43048D01*
Y44128D02*X34110Y44398D01*
X34650D01*
X34920Y44128D02*X34650Y44398D01*
X34920Y44128D02*Y43318D01*
X35190Y45316D02*X36000D01*
X35190D02*X34920Y45586D01*
Y46126D02*Y45586D01*
Y45046D02*X35190Y45316D01*
Y46774D02*X35730D01*
X35190D02*X34920Y47044D01*
Y47584D02*Y47044D01*
Y47584D02*X35190Y47854D01*
X35730D01*
X36000Y47584D02*X35730Y47854D01*
X36000Y47584D02*Y47044D01*
X35730Y46774D02*X36000Y47044D01*
X33840Y48502D02*X36000D01*
X35730D02*X36000Y48772D01*
Y49312D02*Y48772D01*
Y49312D02*X35730Y49582D01*
X35190D02*X35730D01*
X34920Y49312D02*X35190Y49582D01*
X34920Y49312D02*Y48772D01*
X35190Y48502D02*X34920Y48772D01*
X36000Y51310D02*Y50500D01*
X35730Y50230D02*X36000Y50500D01*
X35190Y50230D02*X35730D01*
X35190D02*X34920Y50500D01*
Y51040D02*Y50500D01*
Y51040D02*X35190Y51310D01*
X35460D02*Y50230D01*
X35190Y51310D02*X35460D01*
G54D44*X37000Y51500D02*Y41800D01*
G54D52*X37385Y55461D02*X37650Y55725D01*
Y56256D02*Y55725D01*
X37385Y56521D02*X37650Y56256D01*
X35795Y56521D02*X37385D01*
X35530Y56256D02*X35795Y56521D01*
X35530Y56256D02*Y55725D01*
X35795Y55461D01*
X37385D01*
X35530Y54825D02*X37650D01*
X35530Y53500D02*X37650Y54825D01*
X35530Y53500D02*X37650D01*
X32030Y56060D02*Y55370D01*
X32401Y55000D01*
X33779D01*
X34150Y55370D01*
Y56060D02*Y55370D01*
G54D51*X38540Y56578D02*Y55875D01*
X38918Y55498D01*
X40322D01*
X40700Y55875D01*
Y56578D02*Y55875D01*
X38540Y54850D02*X40700D01*
X38540Y53500D02*X40700Y54850D01*
X38540Y53500D02*X40700D01*
G54D44*X39500Y60500D02*Y57500D01*
X33500Y60500D02*Y57500D01*
X36500Y60500D02*Y57500D01*
X33500D02*X42000D01*
Y51500D01*
X37000D02*X42000D01*
X30000Y34000D02*X44000D01*
Y65000D02*Y34000D01*
X30000Y65000D02*X44000D01*
X30000D02*Y34000D01*
X50300Y41800D02*Y36300D01*
X51800D01*
Y41800D02*Y40300D01*
Y38300D02*X52800Y39300D01*
X51800Y38300D02*Y36300D01*
X45800Y39300D02*X50300D01*
Y41800D02*X51800D01*
G54D51*X48340Y43318D02*X50500D01*
X48340Y44128D02*Y43048D01*
Y44128D02*X48610Y44398D01*
X49150D01*
X49420Y44128D02*X49150Y44398D01*
X49420Y44128D02*Y43318D01*
X49690Y45316D02*X50500D01*
X49690D02*X49420Y45586D01*
Y46126D02*Y45586D01*
Y45046D02*X49690Y45316D01*
Y46774D02*X50230D01*
X49690D02*X49420Y47044D01*
Y47584D02*Y47044D01*
Y47584D02*X49690Y47854D01*
X50230D01*
X50500Y47584D02*X50230Y47854D01*
X50500Y47584D02*Y47044D01*
X50230Y46774D02*X50500Y47044D01*
X48340Y48502D02*X50500D01*
X50230D02*X50500Y48772D01*
Y49312D02*Y48772D01*
Y49312D02*X50230Y49582D01*
X49690D02*X50230D01*
X49420Y49312D02*X49690Y49582D01*
X49420Y49312D02*Y48772D01*
X49690Y48502D02*X49420Y48772D01*
X50500Y51310D02*Y50500D01*
X50230Y50230D02*X50500Y50500D01*
X49690Y50230D02*X50230D01*
X49690D02*X49420Y50500D01*
Y51040D02*Y50500D01*
Y51040D02*X49690Y51310D01*
X49960D02*Y50230D01*
X49690Y51310D02*X49960D01*
G54D44*X51500Y51500D02*Y41800D01*
G54D52*X51885Y55461D02*X52150Y55725D01*
Y56256D02*Y55725D01*
X51885Y56521D02*X52150Y56256D01*
X50295Y56521D02*X51885D01*
X50030Y56256D02*X50295Y56521D01*
X50030Y56256D02*Y55725D01*
X50295Y55461D01*
X51885D01*
X50030Y54825D02*X52150D01*
X50030Y53500D02*X52150Y54825D01*
X50030Y53500D02*X52150D01*
X46530Y56060D02*Y55370D01*
X46901Y55000D01*
X48279D01*
X48650Y55370D01*
Y56060D02*Y55370D01*
G54D51*X53040Y56578D02*Y55875D01*
X53418Y55498D01*
X54822D01*
X55200Y55875D01*
Y56578D02*Y55875D01*
X53040Y54850D02*X55200D01*
X53040Y53500D02*X55200Y54850D01*
X53040Y53500D02*X55200D01*
G54D44*X54000Y60500D02*Y57500D01*
X48000Y60500D02*Y57500D01*
X51000Y60500D02*Y57500D01*
X48000D02*X56500D01*
Y51500D01*
X51500D02*X56500D01*
X44500Y34000D02*X58500D01*
Y65000D02*Y34000D01*
X44500Y65000D02*X58500D01*
X44500D02*Y34000D01*
X66800Y41800D02*Y36300D01*
X68300D01*
Y41800D02*Y40300D01*
Y38300D02*X69300Y39300D01*
X68300Y38300D02*Y36300D01*
X62300Y39300D02*X66800D01*
Y41800D02*X68300D01*
G54D51*X64840Y43318D02*X67000D01*
X64840Y44128D02*Y43048D01*
Y44128D02*X65110Y44398D01*
X65650D01*
X65920Y44128D02*X65650Y44398D01*
X65920Y44128D02*Y43318D01*
X66190Y45316D02*X67000D01*
X66190D02*X65920Y45586D01*
Y46126D02*Y45586D01*
Y45046D02*X66190Y45316D01*
Y46774D02*X66730D01*
X66190D02*X65920Y47044D01*
Y47584D02*Y47044D01*
Y47584D02*X66190Y47854D01*
X66730D01*
X67000Y47584D02*X66730Y47854D01*
X67000Y47584D02*Y47044D01*
X66730Y46774D02*X67000Y47044D01*
X64840Y48502D02*X67000D01*
X66730D02*X67000Y48772D01*
Y49312D02*Y48772D01*
Y49312D02*X66730Y49582D01*
X66190D02*X66730D01*
X65920Y49312D02*X66190Y49582D01*
X65920Y49312D02*Y48772D01*
X66190Y48502D02*X65920Y48772D01*
X67000Y51310D02*Y50500D01*
X66730Y50230D02*X67000Y50500D01*
X66190Y50230D02*X66730D01*
X66190D02*X65920Y50500D01*
Y51040D02*Y50500D01*
Y51040D02*X66190Y51310D01*
X66460D02*Y50230D01*
X66190Y51310D02*X66460D01*
G54D44*X68000Y51500D02*Y41800D01*
G54D52*X68385Y55461D02*X68650Y55725D01*
Y56256D02*Y55725D01*
X68385Y56521D02*X68650Y56256D01*
X66795Y56521D02*X68385D01*
X66530Y56256D02*X66795Y56521D01*
X66530Y56256D02*Y55725D01*
X66795Y55461D01*
X68385D01*
X66530Y54825D02*X68650D01*
X66530Y53500D02*X68650Y54825D01*
X66530Y53500D02*X68650D01*
X63030Y56060D02*Y55370D01*
X63401Y55000D01*
X64779D01*
X65150Y55370D01*
Y56060D02*Y55370D01*
G54D51*X69540Y56578D02*Y55875D01*
X69918Y55498D01*
X71322D01*
X71700Y55875D01*
Y56578D02*Y55875D01*
X69540Y54850D02*X71700D01*
X69540Y53500D02*X71700Y54850D01*
X69540Y53500D02*X71700D01*
G54D44*X70500Y60500D02*Y57500D01*
X64500Y60500D02*Y57500D01*
X67500Y60500D02*Y57500D01*
X64500D02*X73000D01*
Y51500D01*
X68000D02*X73000D01*
X61000Y34000D02*X75000D01*
Y65000D02*Y34000D01*
X61000Y65000D02*X75000D01*
X61000D02*Y34000D01*
X81300Y41800D02*Y36300D01*
X82800D01*
Y41800D02*Y40300D01*
Y38300D02*X83800Y39300D01*
X82800Y38300D02*Y36300D01*
X76800Y39300D02*X81300D01*
Y41800D02*X82800D01*
G54D51*X79340Y43318D02*X81500D01*
X79340Y44128D02*Y43048D01*
Y44128D02*X79610Y44398D01*
X80150D01*
X80420Y44128D02*X80150Y44398D01*
X80420Y44128D02*Y43318D01*
X80690Y45316D02*X81500D01*
X80690D02*X80420Y45586D01*
Y46126D02*Y45586D01*
Y45046D02*X80690Y45316D01*
Y46774D02*X81230D01*
X80690D02*X80420Y47044D01*
Y47584D02*Y47044D01*
Y47584D02*X80690Y47854D01*
X81230D01*
X81500Y47584D02*X81230Y47854D01*
X81500Y47584D02*Y47044D01*
X81230Y46774D02*X81500Y47044D01*
X79340Y48502D02*X81500D01*
X81230D02*X81500Y48772D01*
Y49312D02*Y48772D01*
Y49312D02*X81230Y49582D01*
X80690D02*X81230D01*
X80420Y49312D02*X80690Y49582D01*
X80420Y49312D02*Y48772D01*
X80690Y48502D02*X80420Y48772D01*
X81500Y51310D02*Y50500D01*
X81230Y50230D02*X81500Y50500D01*
X80690Y50230D02*X81230D01*
X80690D02*X80420Y50500D01*
Y51040D02*Y50500D01*
Y51040D02*X80690Y51310D01*
X80960D02*Y50230D01*
X80690Y51310D02*X80960D01*
G54D44*X82500Y51500D02*Y41800D01*
G54D52*X82885Y55461D02*X83150Y55725D01*
Y56256D02*Y55725D01*
X82885Y56521D02*X83150Y56256D01*
X81295Y56521D02*X82885D01*
X81030Y56256D02*X81295Y56521D01*
X81030Y56256D02*Y55725D01*
X81295Y55461D01*
X82885D01*
X81030Y54825D02*X83150D01*
X81030Y53500D02*X83150Y54825D01*
X81030Y53500D02*X83150D01*
X77530Y56060D02*Y55370D01*
X77901Y55000D01*
X79279D01*
X79650Y55370D01*
Y56060D02*Y55370D01*
G54D51*X84040Y56578D02*Y55875D01*
X84418Y55498D01*
X85822D01*
X86200Y55875D01*
Y56578D02*Y55875D01*
X84040Y54850D02*X86200D01*
X84040Y53500D02*X86200Y54850D01*
X84040Y53500D02*X86200D01*
G54D44*X85000Y60500D02*Y57500D01*
X79000Y60500D02*Y57500D01*
X82000Y60500D02*Y57500D01*
X79000D02*X87500D01*
Y51500D01*
X82500D02*X87500D01*
X75500Y34000D02*X89500D01*
Y65000D02*Y34000D01*
X75500Y65000D02*X89500D01*
X75500D02*Y34000D01*
M02*
