G04 start of page 5 for group 3 idx 14 *
G04 Title: (unknown), exclude1 *
G04 Creator: pcb 4.2.0 *
G04 CreationDate: Mon Sep 28 04:23:24 2020 UTC *
G04 For: commonadmin *
G04 Format: Gerber/RS-274X *
G04 PCB-Dimensions (mil): 2000.00 2300.00 *
G04 PCB-Coordinate-Origin: lower left *
%MOIN*%
%FSLAX25Y25*%
%LNGROUP3*%
%ADD28C,0.0380*%
%ADD27C,0.0100*%
%ADD26C,0.0600*%
%ADD25C,0.0001*%
%ADD24C,0.0200*%
G54D24*X124000Y52500D03*
X109000D03*
X112000D03*
X115000D03*
X127000D03*
X121500Y54500D03*
X99000Y62500D03*
X102000D03*
X105000D03*
X134000Y63000D03*
X137000D03*
X129500Y54500D03*
X149999Y53000D03*
X153000D03*
X145000Y56500D03*
X148000D03*
X164500Y52500D03*
X167500D03*
G54D25*G36*
X157000Y203000D02*Y197000D01*
X163000D01*
Y203000D01*
X157000D01*
G37*
G54D26*X150000Y200000D03*
X140000D03*
X160000Y190000D03*
X150000D03*
X140000D03*
X130000D03*
X120000D03*
X110000D03*
X130000Y200000D03*
X120000D03*
X110000D03*
X100000D03*
Y190000D03*
X90000Y200000D03*
X80000D03*
X70000D03*
X90000Y190000D03*
X80000D03*
X70000D03*
G54D24*X39500Y62500D03*
X54000D03*
X51000D03*
X48000D03*
X36500D03*
X33500D03*
X70500D03*
X67500D03*
X64500D03*
X85000D03*
X82000D03*
X79000D03*
X38000Y106000D03*
X57000Y117000D03*
X54000Y115000D03*
X73000Y111500D03*
X70000Y109000D03*
X57000Y106000D03*
X76000D03*
X49000Y109500D03*
X35000D03*
X32000Y112500D03*
X46000D03*
G54D27*G54D28*G54D27*M02*
