<?xml version="1.0" encoding="UTF-8"?>
<svg xmlns="http://www.w3.org/2000/svg" xmlns:xlink="http://www.w3.org/1999/xlink" width="183pt" height="242pt" viewBox="0 0 183 242" version="1.1">
<g id="surface1">
<path style="fill:none;stroke-width:0.006;stroke-linecap:round;stroke-linejoin:miter;stroke:rgb(100%,49.803922%,45.098039%);stroke-opacity:1;stroke-miterlimit:10;" d="M 2.960024 1.29501 L 0.535002 1.29501 " transform="matrix(72,0,0,-72,-33.926401,283.021996)"/>
<path style="fill:none;stroke-width:0.006;stroke-linecap:round;stroke-linejoin:miter;stroke:rgb(100%,49.803922%,45.098039%);stroke-opacity:1;stroke-miterlimit:10;" d="M 2.960024 3.075013 L 1.160002 3.075013 " transform="matrix(72,0,0,-72,-33.926401,283.021996)"/>
<path style="fill:none;stroke-width:0.006;stroke-linecap:round;stroke-linejoin:miter;stroke:rgb(100%,49.803922%,45.098039%);stroke-opacity:1;stroke-miterlimit:10;" d="M 2.960024 3.075013 L 2.960024 2.800002 " transform="matrix(72,0,0,-72,-33.926401,283.021996)"/>
<path style="fill:none;stroke-width:0.006;stroke-linecap:round;stroke-linejoin:miter;stroke:rgb(100%,49.803922%,45.098039%);stroke-opacity:1;stroke-miterlimit:10;" d="M 2.960024 2.49998 L 2.960024 1.29501 " transform="matrix(72,0,0,-72,-33.926401,283.021996)"/>
<path style="fill:none;stroke-width:0.006;stroke-linecap:round;stroke-linejoin:miter;stroke:rgb(100%,49.803922%,45.098039%);stroke-opacity:1;stroke-miterlimit:10;" d="M 2.960024 2.800002 L 2.85998 2.700013 " transform="matrix(72,0,0,-72,-33.926401,283.021996)"/>
<path style="fill:none;stroke-width:0.006;stroke-linecap:round;stroke-linejoin:miter;stroke:rgb(100%,49.803922%,45.098039%);stroke-opacity:1;stroke-miterlimit:10;" d="M 2.85998 2.700013 L 2.85998 2.600023 " transform="matrix(72,0,0,-72,-33.926401,283.021996)"/>
<path style="fill:none;stroke-width:0.006;stroke-linecap:round;stroke-linejoin:miter;stroke:rgb(100%,49.803922%,45.098039%);stroke-opacity:1;stroke-miterlimit:10;" d="M 2.85998 2.600023 L 2.960024 2.49998 " transform="matrix(72,0,0,-72,-33.926401,283.021996)"/>
<path style="fill:none;stroke-width:0.006;stroke-linecap:round;stroke-linejoin:miter;stroke:rgb(100%,49.803922%,45.098039%);stroke-opacity:1;stroke-miterlimit:10;" d="M 1.160002 2.800002 L 1.259991 2.700013 " transform="matrix(72,0,0,-72,-33.926401,283.021996)"/>
<path style="fill:none;stroke-width:0.006;stroke-linecap:round;stroke-linejoin:miter;stroke:rgb(100%,49.803922%,45.098039%);stroke-opacity:1;stroke-miterlimit:10;" d="M 1.259991 2.700013 L 1.259991 2.600023 " transform="matrix(72,0,0,-72,-33.926401,283.021996)"/>
<path style="fill:none;stroke-width:0.006;stroke-linecap:round;stroke-linejoin:miter;stroke:rgb(100%,49.803922%,45.098039%);stroke-opacity:1;stroke-miterlimit:10;" d="M 1.259991 2.600023 L 1.160002 2.49998 " transform="matrix(72,0,0,-72,-33.926401,283.021996)"/>
<path style="fill:none;stroke-width:0.006;stroke-linecap:round;stroke-linejoin:miter;stroke:rgb(100%,49.803922%,45.098039%);stroke-opacity:1;stroke-miterlimit:10;" d="M 1.160002 1.800002 L 0.535002 1.800002 " transform="matrix(72,0,0,-72,-33.926401,283.021996)"/>
<path style="fill:none;stroke-width:0.006;stroke-linecap:round;stroke-linejoin:miter;stroke:rgb(100%,49.803922%,45.098039%);stroke-opacity:1;stroke-miterlimit:10;" d="M 0.535002 1.800002 L 0.535002 1.29501 " transform="matrix(72,0,0,-72,-33.926401,283.021996)"/>
<path style="fill:none;stroke-width:0.006;stroke-linecap:round;stroke-linejoin:miter;stroke:rgb(100%,49.803922%,45.098039%);stroke-opacity:1;stroke-miterlimit:10;" d="M 1.160002 3.075013 L 1.160002 2.800002 " transform="matrix(72,0,0,-72,-33.926401,283.021996)"/>
<path style="fill:none;stroke-width:0.006;stroke-linecap:round;stroke-linejoin:miter;stroke:rgb(100%,49.803922%,45.098039%);stroke-opacity:1;stroke-miterlimit:10;" d="M 1.160002 2.49998 L 1.160002 1.800002 " transform="matrix(72,0,0,-72,-33.926401,283.021996)"/>
<path style=" stroke:none;fill-rule:evenodd;fill:rgb(45.098039%,45.098039%,87.058824%);fill-opacity:1;" d="M 5.671875 114.183594 C 5.671875 113.703125 4.953125 113.703125 4.953125 114.183594 C 4.953125 114.660156 5.671875 114.660156 5.671875 114.183594 "/>
<path style=" stroke:none;fill-rule:evenodd;fill:rgb(45.098039%,45.098039%,87.058824%);fill-opacity:1;" d="M 7.832031 116.34375 C 7.832031 115.863281 7.113281 115.863281 7.113281 116.34375 C 7.113281 116.820312 7.832031 116.820312 7.832031 116.34375 "/>
<path style=" stroke:none;fill-rule:evenodd;fill:rgb(45.098039%,45.098039%,87.058824%);fill-opacity:1;" d="M 9.992188 118.863281 C 9.992188 118.382812 9.273438 118.382812 9.273438 118.863281 C 9.273438 119.34375 9.992188 119.34375 9.992188 118.863281 "/>
<path style=" stroke:none;fill-rule:evenodd;fill:rgb(45.098039%,45.098039%,87.058824%);fill-opacity:1;" d="M 15.753906 114.183594 C 15.753906 113.703125 15.035156 113.703125 15.035156 114.183594 C 15.035156 114.660156 15.753906 114.660156 15.753906 114.183594 "/>
<path style=" stroke:none;fill-rule:evenodd;fill:rgb(45.098039%,45.098039%,87.058824%);fill-opacity:1;" d="M 17.914062 116.34375 C 17.914062 115.863281 17.195312 115.863281 17.195312 116.34375 C 17.195312 116.820312 17.914062 116.820312 17.914062 116.34375 "/>
<path style=" stroke:none;fill-rule:evenodd;fill:rgb(45.098039%,45.098039%,87.058824%);fill-opacity:1;" d="M 21.511719 112.382812 C 21.511719 111.902344 20.792969 111.902344 20.792969 112.382812 C 20.792969 112.863281 21.511719 112.863281 21.511719 112.382812 "/>
<path style=" stroke:none;fill-rule:evenodd;fill:rgb(45.098039%,45.098039%,87.058824%);fill-opacity:1;" d="M 23.671875 110.941406 C 23.671875 110.460938 22.953125 110.460938 22.953125 110.941406 C 22.953125 111.421875 23.671875 111.421875 23.671875 110.941406 "/>
<path style=" stroke:none;fill-rule:evenodd;fill:rgb(45.098039%,45.098039%,87.058824%);fill-opacity:1;" d="M 23.671875 118.863281 C 23.671875 118.382812 22.953125 118.382812 22.953125 118.863281 C 22.953125 119.34375 23.671875 119.34375 23.671875 118.863281 "/>
<path style=" stroke:none;fill-rule:evenodd;fill:rgb(45.098039%,45.098039%,87.058824%);fill-opacity:1;" d="M 24.035156 228.660156 C 24.035156 228.183594 23.3125 228.183594 23.3125 228.660156 C 23.3125 229.140625 24.035156 229.140625 24.035156 228.660156 "/>
<path style=" stroke:none;fill-rule:evenodd;fill:rgb(45.098039%,45.098039%,87.058824%);fill-opacity:1;" d="M 26.195312 228.660156 C 26.195312 228.183594 25.472656 228.183594 25.472656 228.660156 C 25.472656 229.140625 26.195312 229.140625 26.195312 228.660156 "/>
<path style=" stroke:none;fill-rule:evenodd;fill:rgb(45.098039%,45.098039%,87.058824%);fill-opacity:1;" d="M 28.355469 228.660156 C 28.355469 228.183594 27.632812 228.183594 27.632812 228.660156 C 27.632812 229.140625 28.355469 229.140625 28.355469 228.660156 "/>
<path style=" stroke:none;fill-rule:evenodd;fill:rgb(45.098039%,45.098039%,87.058824%);fill-opacity:1;" d="M 29.074219 162.78125 C 29.074219 162.300781 28.355469 162.300781 28.355469 162.78125 C 28.355469 163.261719 29.074219 163.261719 29.074219 162.78125 "/>
<path style=" stroke:none;fill-rule:evenodd;fill:rgb(45.098039%,45.098039%,87.058824%);fill-opacity:1;" d="M 29.074219 169.980469 C 29.074219 169.503906 28.355469 169.503906 28.355469 169.980469 C 28.355469 170.460938 29.074219 170.460938 29.074219 169.980469 "/>
<path style=" stroke:none;fill-rule:evenodd;fill:rgb(45.098039%,45.098039%,87.058824%);fill-opacity:1;" d="M 30.152344 164.582031 C 30.152344 164.101562 29.433594 164.101562 29.433594 164.582031 C 29.433594 165.0625 30.152344 165.0625 30.152344 164.582031 "/>
<path style=" stroke:none;fill-rule:evenodd;fill:rgb(45.098039%,45.098039%,87.058824%);fill-opacity:1;" d="M 30.511719 171.78125 C 30.511719 171.300781 29.792969 171.300781 29.792969 171.78125 C 29.792969 172.261719 30.511719 172.261719 30.511719 171.78125 "/>
<path style=" stroke:none;fill-rule:evenodd;fill:rgb(45.098039%,45.098039%,87.058824%);fill-opacity:1;" d="M 31.378906 159.902344 C 31.378906 159.421875 30.65625 159.421875 30.65625 159.902344 C 30.65625 160.382812 31.378906 160.382812 31.378906 159.902344 "/>
<path style=" stroke:none;fill-rule:evenodd;fill:rgb(45.098039%,45.098039%,87.058824%);fill-opacity:1;" d="M 31.59375 166.382812 C 31.59375 165.902344 30.875 165.902344 30.875 166.382812 C 30.875 166.863281 31.59375 166.863281 31.59375 166.382812 "/>
<path style=" stroke:none;fill-rule:evenodd;fill:rgb(45.098039%,45.098039%,87.058824%);fill-opacity:1;" d="M 33.035156 116.703125 C 33.035156 116.222656 32.3125 116.222656 32.3125 116.703125 C 32.3125 117.183594 33.035156 117.183594 33.035156 116.703125 "/>
<path style=" stroke:none;fill-rule:evenodd;fill:rgb(45.098039%,45.098039%,87.058824%);fill-opacity:1;" d="M 34.257812 159.902344 C 34.257812 159.421875 33.539062 159.421875 33.539062 159.902344 C 33.539062 160.382812 34.257812 160.382812 34.257812 159.902344 "/>
<path style=" stroke:none;fill-rule:evenodd;fill:rgb(45.098039%,45.098039%,87.058824%);fill-opacity:1;" d="M 34.472656 164.582031 C 34.472656 164.101562 33.753906 164.101562 33.753906 164.582031 C 33.753906 165.0625 34.472656 165.0625 34.472656 164.582031 "/>
<path style=" stroke:none;fill-rule:evenodd;fill:rgb(45.098039%,45.098039%,87.058824%);fill-opacity:1;" d="M 34.472656 168.183594 C 34.472656 167.703125 33.753906 167.703125 33.753906 168.183594 C 33.753906 168.660156 34.472656 168.660156 34.472656 168.183594 "/>
<path style=" stroke:none;fill-rule:evenodd;fill:rgb(45.098039%,45.098039%,87.058824%);fill-opacity:1;" d="M 34.472656 228.660156 C 34.472656 228.183594 33.753906 228.183594 33.753906 228.660156 C 33.753906 229.140625 34.472656 229.140625 34.472656 228.660156 "/>
<path style=" stroke:none;fill-rule:evenodd;fill:rgb(45.098039%,45.098039%,87.058824%);fill-opacity:1;" d="M 35.195312 114.902344 C 35.195312 114.421875 34.472656 114.421875 34.472656 114.902344 C 34.472656 115.382812 35.195312 115.382812 35.195312 114.902344 "/>
<path style=" stroke:none;fill-rule:evenodd;fill:rgb(45.098039%,45.098039%,87.058824%);fill-opacity:1;" d="M 36.632812 228.660156 C 36.632812 228.183594 35.914062 228.183594 35.914062 228.660156 C 35.914062 229.140625 36.632812 229.140625 36.632812 228.660156 "/>
<path style=" stroke:none;fill-rule:evenodd;fill:rgb(45.098039%,45.098039%,87.058824%);fill-opacity:1;" d="M 36.992188 166.382812 C 36.992188 165.902344 36.273438 165.902344 36.273438 166.382812 C 36.273438 166.863281 36.992188 166.863281 36.992188 166.382812 "/>
<path style=" stroke:none;fill-rule:evenodd;fill:rgb(45.098039%,45.098039%,87.058824%);fill-opacity:1;" d="M 37.355469 118.863281 C 37.355469 118.382812 36.632812 118.382812 36.632812 118.863281 C 36.632812 119.34375 37.355469 119.34375 37.355469 118.863281 "/>
<path style=" stroke:none;fill-rule:evenodd;fill:rgb(45.098039%,45.098039%,87.058824%);fill-opacity:1;" d="M 37.714844 162.78125 C 37.714844 162.300781 36.992188 162.300781 36.992188 162.78125 C 36.992188 163.261719 37.714844 163.261719 37.714844 162.78125 "/>
<path style=" stroke:none;fill-rule:evenodd;fill:rgb(45.098039%,45.098039%,87.058824%);fill-opacity:1;" d="M 38.578125 159.902344 C 38.578125 159.421875 37.859375 159.421875 37.859375 159.902344 C 37.859375 160.382812 38.578125 160.382812 38.578125 159.902344 "/>
<path style=" stroke:none;fill-rule:evenodd;fill:rgb(45.098039%,45.098039%,87.058824%);fill-opacity:1;" d="M 38.792969 228.660156 C 38.792969 228.183594 38.074219 228.183594 38.074219 228.660156 C 38.074219 229.140625 38.792969 229.140625 38.792969 228.660156 "/>
<path style=" stroke:none;fill-rule:evenodd;fill:rgb(45.098039%,45.098039%,87.058824%);fill-opacity:1;" d="M 41.457031 159.902344 C 41.457031 159.421875 40.738281 159.421875 40.738281 159.902344 C 40.738281 160.382812 41.457031 160.382812 41.457031 159.902344 "/>
<path style=" stroke:none;fill-rule:evenodd;fill:rgb(45.098039%,45.098039%,87.058824%);fill-opacity:1;" d="M 45.777344 159.902344 C 45.777344 159.421875 45.058594 159.421875 45.058594 159.902344 C 45.058594 160.382812 45.777344 160.382812 45.777344 159.902344 "/>
<path style=" stroke:none;fill-rule:evenodd;fill:rgb(45.098039%,45.098039%,87.058824%);fill-opacity:1;" d="M 45.992188 228.660156 C 45.992188 228.183594 45.273438 228.183594 45.273438 228.660156 C 45.273438 229.140625 45.992188 229.140625 45.992188 228.660156 "/>
<path style=" stroke:none;fill-rule:evenodd;fill:rgb(45.098039%,45.098039%,87.058824%);fill-opacity:1;" d="M 47.792969 168.183594 C 47.792969 167.703125 47.074219 167.703125 47.074219 168.183594 C 47.074219 168.660156 47.792969 168.660156 47.792969 168.183594 "/>
<path style=" stroke:none;fill-rule:evenodd;fill:rgb(45.098039%,45.098039%,87.058824%);fill-opacity:1;" d="M 48.152344 228.660156 C 48.152344 228.183594 47.433594 228.183594 47.433594 228.660156 C 47.433594 229.140625 48.152344 229.140625 48.152344 228.660156 "/>
<path style=" stroke:none;fill-rule:evenodd;fill:rgb(45.098039%,45.098039%,87.058824%);fill-opacity:1;" d="M 48.65625 159.902344 C 48.65625 159.421875 47.9375 159.421875 47.9375 159.902344 C 47.9375 160.382812 48.65625 160.382812 48.65625 159.902344 "/>
<path style=" stroke:none;fill-rule:evenodd;fill:rgb(45.098039%,45.098039%,87.058824%);fill-opacity:1;" d="M 48.875 169.980469 C 48.875 169.503906 48.152344 169.503906 48.152344 169.980469 C 48.152344 170.460938 48.875 170.460938 48.875 169.980469 "/>
<path style=" stroke:none;fill-rule:evenodd;fill:rgb(45.098039%,45.098039%,87.058824%);fill-opacity:1;" d="M 49.953125 171.78125 C 49.953125 171.300781 49.234375 171.300781 49.234375 171.78125 C 49.234375 172.261719 49.953125 172.261719 49.953125 171.78125 "/>
<path style=" stroke:none;fill-rule:evenodd;fill:rgb(45.098039%,45.098039%,87.058824%);fill-opacity:1;" d="M 50.3125 228.660156 C 50.3125 228.183594 49.59375 228.183594 49.59375 228.660156 C 49.59375 229.140625 50.3125 229.140625 50.3125 228.660156 "/>
<path style=" stroke:none;fill-rule:evenodd;fill:rgb(45.098039%,45.098039%,87.058824%);fill-opacity:1;" d="M 56.433594 228.660156 C 56.433594 228.183594 55.714844 228.183594 55.714844 228.660156 C 55.714844 229.140625 56.433594 229.140625 56.433594 228.660156 "/>
<path style=" stroke:none;fill-rule:evenodd;fill:rgb(45.098039%,45.098039%,87.058824%);fill-opacity:1;" d="M 58.59375 228.660156 C 58.59375 228.183594 57.875 228.183594 57.875 228.660156 C 57.875 229.140625 58.59375 229.140625 58.59375 228.660156 "/>
<path style=" stroke:none;fill-rule:evenodd;fill:rgb(45.098039%,45.098039%,87.058824%);fill-opacity:1;" d="M 60.753906 228.660156 C 60.753906 228.183594 60.035156 228.183594 60.035156 228.660156 C 60.035156 229.140625 60.753906 229.140625 60.753906 228.660156 "/>
<path style=" stroke:none;fill-rule:evenodd;fill:rgb(45.098039%,45.098039%,87.058824%);fill-opacity:1;" d="M 74.792969 228.660156 C 74.792969 228.183594 74.074219 228.183594 74.074219 228.660156 C 74.074219 229.140625 74.792969 229.140625 74.792969 228.660156 "/>
<path style=" stroke:none;fill-rule:evenodd;fill:rgb(45.098039%,45.098039%,87.058824%);fill-opacity:1;" d="M 76.953125 228.660156 C 76.953125 228.183594 76.234375 228.183594 76.234375 228.660156 C 76.234375 229.140625 76.953125 229.140625 76.953125 228.660156 "/>
<path style=" stroke:none;fill-rule:evenodd;fill:rgb(45.098039%,45.098039%,87.058824%);fill-opacity:1;" d="M 79.113281 228.660156 C 79.113281 228.183594 78.394531 228.183594 78.394531 228.660156 C 78.394531 229.140625 79.113281 229.140625 79.113281 228.660156 "/>
<path style=" stroke:none;fill-rule:evenodd;fill:rgb(45.098039%,45.098039%,87.058824%);fill-opacity:1;" d="M 81.992188 235.863281 C 81.992188 235.382812 81.273438 235.382812 81.273438 235.863281 C 81.273438 236.34375 81.992188 236.34375 81.992188 235.863281 "/>
<path style=" stroke:none;fill-rule:evenodd;fill:rgb(45.098039%,45.098039%,87.058824%);fill-opacity:1;" d="M 84.152344 235.863281 C 84.152344 235.382812 83.433594 235.382812 83.433594 235.863281 C 83.433594 236.34375 84.152344 236.34375 84.152344 235.863281 "/>
<path style=" stroke:none;fill-rule:evenodd;fill:rgb(45.098039%,45.098039%,87.058824%);fill-opacity:1;" d="M 86.3125 235.863281 C 86.3125 235.382812 85.59375 235.382812 85.59375 235.863281 C 85.59375 236.34375 86.3125 236.34375 86.3125 235.863281 "/>
<path style=" stroke:none;fill-rule:evenodd;fill:rgb(45.098039%,45.098039%,87.058824%);fill-opacity:1;" d="M 90.992188 234.421875 C 90.992188 233.941406 90.273438 233.941406 90.273438 234.421875 C 90.273438 234.902344 90.992188 234.902344 90.992188 234.421875 "/>
<path style=" stroke:none;fill-rule:evenodd;fill:rgb(45.098039%,45.098039%,87.058824%);fill-opacity:1;" d="M 92.792969 235.863281 C 92.792969 235.382812 92.074219 235.382812 92.074219 235.863281 C 92.074219 236.34375 92.792969 236.34375 92.792969 235.863281 "/>
<path style=" stroke:none;fill-rule:evenodd;fill:rgb(45.098039%,45.098039%,87.058824%);fill-opacity:1;" d="M 94.953125 235.863281 C 94.953125 235.382812 94.234375 235.382812 94.234375 235.863281 C 94.234375 236.34375 94.953125 236.34375 94.953125 235.863281 "/>
<path style=" stroke:none;fill-rule:evenodd;fill:rgb(45.098039%,45.098039%,87.058824%);fill-opacity:1;" d="M 96.753906 234.421875 C 96.753906 233.941406 96.035156 233.941406 96.035156 234.421875 C 96.035156 234.902344 96.753906 234.902344 96.753906 234.421875 "/>
<path style=" stroke:none;fill-rule:evenodd;fill:rgb(45.098039%,45.098039%,87.058824%);fill-opacity:1;" d="M 98.554688 125.703125 C 98.554688 125.222656 97.832031 125.222656 97.832031 125.703125 C 97.832031 126.183594 98.554688 126.183594 98.554688 125.703125 "/>
<path style=" stroke:none;fill-rule:evenodd;fill:rgb(45.098039%,45.098039%,87.058824%);fill-opacity:1;" d="M 99.992188 228.300781 C 99.992188 227.820312 99.273438 227.820312 99.273438 228.300781 C 99.273438 228.78125 99.992188 228.78125 99.992188 228.300781 "/>
<path style=" stroke:none;fill-rule:evenodd;fill:rgb(45.098039%,45.098039%,87.058824%);fill-opacity:1;" d="M 100.355469 123.542969 C 100.355469 123.0625 99.632812 123.0625 99.632812 123.542969 C 99.632812 124.023438 100.355469 124.023438 100.355469 123.542969 "/>
<path style=" stroke:none;fill-rule:evenodd;fill:rgb(45.098039%,45.098039%,87.058824%);fill-opacity:1;" d="M 102.152344 228.300781 C 102.152344 227.820312 101.433594 227.820312 101.433594 228.300781 C 101.433594 228.78125 102.152344 228.78125 102.152344 228.300781 "/>
<path style=" stroke:none;fill-rule:evenodd;fill:rgb(45.098039%,45.098039%,87.058824%);fill-opacity:1;" d="M 102.511719 130.023438 C 102.511719 129.542969 101.792969 129.542969 101.792969 130.023438 C 101.792969 130.503906 102.511719 130.503906 102.511719 130.023438 "/>
<path style=" stroke:none;fill-rule:evenodd;fill:rgb(45.098039%,45.098039%,87.058824%);fill-opacity:1;" d="M 103.953125 121.382812 C 103.953125 120.902344 103.234375 120.902344 103.234375 121.382812 C 103.234375 121.863281 103.953125 121.863281 103.953125 121.382812 "/>
<path style=" stroke:none;fill-rule:evenodd;fill:rgb(45.098039%,45.098039%,87.058824%);fill-opacity:1;" d="M 105.394531 119.222656 C 105.394531 118.742188 104.671875 118.742188 104.671875 119.222656 C 104.671875 119.703125 105.394531 119.703125 105.394531 119.222656 "/>
<path style=" stroke:none;fill-rule:evenodd;fill:rgb(45.098039%,45.098039%,87.058824%);fill-opacity:1;" d="M 107.195312 109.863281 C 107.195312 109.382812 106.472656 109.382812 106.472656 109.863281 C 106.472656 110.34375 107.195312 110.34375 107.195312 109.863281 "/>
<path style=" stroke:none;fill-rule:evenodd;fill:rgb(45.098039%,45.098039%,87.058824%);fill-opacity:1;" d="M 107.914062 232.980469 C 107.914062 232.503906 107.195312 232.503906 107.195312 232.980469 C 107.195312 233.460938 107.914062 233.460938 107.914062 232.980469 "/>
<path style=" stroke:none;fill-rule:evenodd;fill:rgb(45.098039%,45.098039%,87.058824%);fill-opacity:1;" d="M 110.074219 232.980469 C 110.074219 232.503906 109.355469 232.503906 109.355469 232.980469 C 109.355469 233.460938 110.074219 233.460938 110.074219 232.980469 "/>
<path style=" stroke:none;fill-rule:evenodd;fill:rgb(45.098039%,45.098039%,87.058824%);fill-opacity:1;" d="M 111.511719 235.503906 C 111.511719 235.023438 110.792969 235.023438 110.792969 235.503906 C 110.792969 235.980469 111.511719 235.980469 111.511719 235.503906 "/>
<path style=" stroke:none;fill-rule:evenodd;fill:rgb(45.098039%,45.098039%,87.058824%);fill-opacity:1;" d="M 113.671875 235.503906 C 113.671875 235.023438 112.953125 235.023438 112.953125 235.503906 C 112.953125 235.980469 113.671875 235.980469 113.671875 235.503906 "/>
<path style=" stroke:none;fill-rule:evenodd;fill:rgb(45.098039%,45.098039%,87.058824%);fill-opacity:1;" d="M 114.394531 174.300781 C 114.394531 173.820312 113.671875 173.820312 113.671875 174.300781 C 113.671875 174.78125 114.394531 174.78125 114.394531 174.300781 "/>
<path style=" stroke:none;fill-rule:evenodd;fill:rgb(45.098039%,45.098039%,87.058824%);fill-opacity:1;" d="M 121.953125 235.863281 C 121.953125 235.382812 121.234375 235.382812 121.234375 235.863281 C 121.234375 236.34375 121.953125 236.34375 121.953125 235.863281 "/>
<path style=" stroke:none;fill-rule:evenodd;fill:rgb(45.098039%,45.098039%,87.058824%);fill-opacity:1;" d="M 124.113281 235.863281 C 124.113281 235.382812 123.394531 235.382812 123.394531 235.863281 C 123.394531 236.34375 124.113281 236.34375 124.113281 235.863281 "/>
<path style=" stroke:none;fill-rule:evenodd;fill:rgb(45.098039%,45.098039%,87.058824%);fill-opacity:1;" d="M 126.992188 130.023438 C 126.992188 129.542969 126.273438 129.542969 126.273438 130.023438 C 126.273438 130.503906 126.992188 130.503906 126.992188 130.023438 "/>
<path style=" stroke:none;fill-rule:evenodd;fill:rgb(45.098039%,45.098039%,87.058824%);fill-opacity:1;" d="M 128.074219 119.222656 C 128.074219 118.742188 127.355469 118.742188 127.355469 119.222656 C 127.355469 119.703125 128.074219 119.703125 128.074219 119.222656 "/>
<path style=" stroke:none;fill-rule:evenodd;fill:rgb(45.098039%,45.098039%,87.058824%);fill-opacity:1;" d="M 128.792969 162.78125 C 128.792969 162.300781 128.074219 162.300781 128.074219 162.78125 C 128.074219 163.261719 128.792969 163.261719 128.792969 162.78125 "/>
<path style=" stroke:none;fill-rule:evenodd;fill:rgb(45.098039%,45.098039%,87.058824%);fill-opacity:1;" d="M 132.753906 121.382812 C 132.753906 120.902344 132.035156 120.902344 132.035156 121.382812 C 132.035156 121.863281 132.753906 121.863281 132.753906 121.382812 "/>
<path style=" stroke:none;fill-rule:evenodd;fill:rgb(45.098039%,45.098039%,87.058824%);fill-opacity:1;" d="M 134.195312 125.703125 C 134.195312 125.222656 133.472656 125.222656 133.472656 125.703125 C 133.472656 126.183594 134.195312 126.183594 134.195312 125.703125 "/>
<path style=" stroke:none;fill-rule:evenodd;fill:rgb(45.098039%,45.098039%,87.058824%);fill-opacity:1;" d="M 135.273438 107.703125 C 135.273438 107.222656 134.554688 107.222656 134.554688 107.703125 C 134.554688 108.183594 135.273438 108.183594 135.273438 107.703125 "/>
<path style=" stroke:none;fill-rule:evenodd;fill:rgb(45.098039%,45.098039%,87.058824%);fill-opacity:1;" d="M 135.273438 115.261719 C 135.273438 114.78125 134.554688 114.78125 134.554688 115.261719 C 134.554688 115.742188 135.273438 115.742188 135.273438 115.261719 "/>
<path style=" stroke:none;fill-rule:evenodd;fill:rgb(45.098039%,45.098039%,87.058824%);fill-opacity:1;" d="M 136.355469 123.542969 C 136.355469 123.0625 135.632812 123.0625 135.632812 123.542969 C 135.632812 124.023438 136.355469 124.023438 136.355469 123.542969 "/>
<path style=" stroke:none;fill-rule:evenodd;fill:rgb(45.098039%,45.098039%,87.058824%);fill-opacity:1;" d="M 136.714844 105.542969 C 136.714844 105.0625 135.992188 105.0625 135.992188 105.542969 C 135.992188 106.023438 136.714844 106.023438 136.714844 105.542969 "/>
<path style=" stroke:none;fill-rule:evenodd;fill:rgb(45.098039%,45.098039%,87.058824%);fill-opacity:1;" d="M 136.714844 109.863281 C 136.714844 109.382812 135.992188 109.382812 135.992188 109.863281 C 135.992188 110.34375 136.714844 110.34375 136.714844 109.863281 "/>
<path style=" stroke:none;fill-rule:evenodd;fill:rgb(45.098039%,45.098039%,87.058824%);fill-opacity:1;" d="M 136.714844 113.101562 C 136.714844 112.621094 135.992188 112.621094 135.992188 113.101562 C 135.992188 113.582031 136.714844 113.582031 136.714844 113.101562 "/>
<path style=" stroke:none;fill-rule:evenodd;fill:rgb(45.098039%,45.098039%,87.058824%);fill-opacity:1;" d="M 136.714844 117.421875 C 136.714844 116.941406 135.992188 116.941406 135.992188 117.421875 C 135.992188 117.902344 136.714844 117.902344 136.714844 117.421875 "/>
<path style=" stroke:none;fill-rule:evenodd;fill:rgb(45.098039%,45.098039%,87.058824%);fill-opacity:1;" d="M 152.554688 103.742188 C 152.554688 103.261719 151.832031 103.261719 151.832031 103.742188 C 151.832031 104.222656 152.554688 104.222656 152.554688 103.742188 "/>
<path style=" stroke:none;fill-rule:evenodd;fill:rgb(45.098039%,45.098039%,87.058824%);fill-opacity:1;" d="M 154.355469 101.941406 C 154.355469 101.460938 153.632812 101.460938 153.632812 101.941406 C 153.632812 102.421875 154.355469 102.421875 154.355469 101.941406 "/>
<path style=" stroke:none;fill-rule:evenodd;fill:rgb(45.098039%,45.098039%,87.058824%);fill-opacity:1;" d="M 155.433594 115.261719 C 155.433594 114.78125 154.714844 114.78125 154.714844 115.261719 C 154.714844 115.742188 155.433594 115.742188 155.433594 115.261719 "/>
<path style=" stroke:none;fill-rule:evenodd;fill:rgb(45.098039%,45.098039%,87.058824%);fill-opacity:1;" d="M 156.152344 100.140625 C 156.152344 99.660156 155.433594 99.660156 155.433594 100.140625 C 155.433594 100.621094 156.152344 100.621094 156.152344 100.140625 "/>
<path style=" stroke:none;fill-rule:evenodd;fill:rgb(45.098039%,45.098039%,87.058824%);fill-opacity:1;" d="M 156.875 98.34375 C 156.875 97.863281 156.152344 97.863281 156.152344 98.34375 C 156.152344 98.820312 156.875 98.820312 156.875 98.34375 "/>
<path style=" stroke:none;fill-rule:evenodd;fill:rgb(45.098039%,45.098039%,87.058824%);fill-opacity:1;" d="M 157.234375 101.941406 C 157.234375 101.460938 156.511719 101.460938 156.511719 101.941406 C 156.511719 102.421875 157.234375 102.421875 157.234375 101.941406 "/>
<path style=" stroke:none;fill-rule:evenodd;fill:rgb(45.098039%,45.098039%,87.058824%);fill-opacity:1;" d="M 157.234375 107.703125 C 157.234375 107.222656 156.511719 107.222656 156.511719 107.703125 C 156.511719 108.183594 157.234375 108.183594 157.234375 107.703125 "/>
<path style=" stroke:none;fill-rule:evenodd;fill:rgb(45.098039%,45.098039%,87.058824%);fill-opacity:1;" d="M 157.59375 109.863281 C 157.59375 109.382812 156.875 109.382812 156.875 109.863281 C 156.875 110.34375 157.59375 110.34375 157.59375 109.863281 "/>
<path style=" stroke:none;fill-rule:evenodd;fill:rgb(45.098039%,45.098039%,87.058824%);fill-opacity:1;" d="M 157.59375 117.421875 C 157.59375 116.941406 156.875 116.941406 156.875 117.421875 C 156.875 117.902344 157.59375 117.902344 157.59375 117.421875 "/>
<path style=" stroke:none;fill-rule:evenodd;fill:rgb(45.098039%,45.098039%,87.058824%);fill-opacity:1;" d="M 157.953125 103.742188 C 157.953125 103.261719 157.234375 103.261719 157.234375 103.742188 C 157.234375 104.222656 157.953125 104.222656 157.953125 103.742188 "/>
<path style=" stroke:none;fill-rule:evenodd;fill:rgb(45.098039%,45.098039%,87.058824%);fill-opacity:1;" d="M 157.953125 105.902344 C 157.953125 105.421875 157.234375 105.421875 157.234375 105.902344 C 157.234375 106.382812 157.953125 106.382812 157.953125 105.902344 "/>
<path style=" stroke:none;fill-rule:evenodd;fill:rgb(45.098039%,45.098039%,87.058824%);fill-opacity:1;" d="M 167.3125 98.34375 C 167.3125 97.863281 166.59375 97.863281 166.59375 98.34375 C 166.59375 98.820312 167.3125 98.820312 167.3125 98.34375 "/>
<path style=" stroke:none;fill-rule:evenodd;fill:rgb(45.098039%,45.098039%,87.058824%);fill-opacity:1;" d="M 168.035156 100.140625 C 168.035156 99.660156 167.3125 99.660156 167.3125 100.140625 C 167.3125 100.621094 168.035156 100.621094 168.035156 100.140625 "/>
<path style=" stroke:none;fill-rule:evenodd;fill:rgb(45.098039%,45.098039%,87.058824%);fill-opacity:1;" d="M 13.550781 164.515625 C 13.550781 163.558594 12.109375 163.558594 12.109375 164.515625 C 12.109375 165.476562 13.550781 165.476562 13.550781 164.515625 "/>
<path style=" stroke:none;fill-rule:evenodd;fill:rgb(45.098039%,45.098039%,87.058824%);fill-opacity:1;" d="M 13.550781 174.957031 C 13.550781 173.996094 12.109375 173.996094 12.109375 174.957031 C 12.109375 175.917969 13.550781 175.917969 13.550781 174.957031 "/>
<path style=" stroke:none;fill-rule:evenodd;fill:rgb(45.098039%,45.098039%,87.058824%);fill-opacity:1;" d="M 13.550781 185.398438 C 13.550781 184.4375 12.109375 184.4375 12.109375 185.398438 C 12.109375 186.355469 13.550781 186.355469 13.550781 185.398438 "/>
<path style=" stroke:none;fill-rule:evenodd;fill:rgb(45.098039%,45.098039%,87.058824%);fill-opacity:1;" d="M 29.007812 181.183594 C 29.007812 180.226562 27.570312 180.226562 27.570312 181.183594 C 27.570312 182.144531 29.007812 182.144531 29.007812 181.183594 "/>
<path style=" stroke:none;fill-rule:evenodd;fill:rgb(45.098039%,45.098039%,87.058824%);fill-opacity:1;" d="M 39.449219 181.183594 C 39.449219 180.226562 38.007812 180.226562 38.007812 181.183594 C 38.007812 182.144531 39.449219 182.144531 39.449219 181.183594 "/>
<path style=" stroke:none;fill-rule:evenodd;fill:rgb(45.098039%,45.098039%,87.058824%);fill-opacity:1;" d="M 49.890625 181.183594 C 49.890625 180.226562 48.449219 180.226562 48.449219 181.183594 C 48.449219 182.144531 49.890625 182.144531 49.890625 181.183594 "/>
<path style=" stroke:none;fill-rule:evenodd;fill:rgb(45.098039%,45.098039%,87.058824%);fill-opacity:1;" d="M 60.328125 181.183594 C 60.328125 180.226562 58.890625 180.226562 58.890625 181.183594 C 58.890625 182.144531 60.328125 182.144531 60.328125 181.183594 "/>
<path style=" stroke:none;fill-rule:evenodd;fill:rgb(45.098039%,45.098039%,87.058824%);fill-opacity:1;" d="M 70.769531 181.183594 C 70.769531 180.226562 69.328125 180.226562 69.328125 181.183594 C 69.328125 182.144531 70.769531 182.144531 70.769531 181.183594 "/>
<path style=" stroke:none;fill-rule:evenodd;fill:rgb(45.098039%,45.098039%,87.058824%);fill-opacity:1;" d="M 81.207031 181.183594 C 81.207031 180.226562 79.769531 180.226562 79.769531 181.183594 C 79.769531 182.144531 81.207031 182.144531 81.207031 181.183594 "/>
<path style=" stroke:none;fill-rule:evenodd;fill:rgb(45.098039%,45.098039%,87.058824%);fill-opacity:1;" d="M 91.648438 181.183594 C 91.648438 180.226562 90.207031 180.226562 90.207031 181.183594 C 90.207031 182.144531 91.648438 182.144531 91.648438 181.183594 "/>
<path style=" stroke:none;fill-rule:evenodd;fill:rgb(45.098039%,45.098039%,87.058824%);fill-opacity:1;" d="M 102.089844 181.183594 C 102.089844 180.226562 100.648438 180.226562 100.648438 181.183594 C 100.648438 182.144531 102.089844 182.144531 102.089844 181.183594 "/>
<path style=" stroke:none;fill-rule:evenodd;fill:rgb(45.098039%,45.098039%,87.058824%);fill-opacity:1;" d="M 112.527344 181.183594 C 112.527344 180.226562 111.089844 180.226562 111.089844 181.183594 C 111.089844 182.144531 112.527344 182.144531 112.527344 181.183594 "/>
<path style=" stroke:none;fill-rule:evenodd;fill:rgb(45.098039%,45.098039%,87.058824%);fill-opacity:1;" d="M 122.96875 181.183594 C 122.96875 180.226562 121.527344 180.226562 121.527344 181.183594 C 121.527344 182.144531 122.96875 182.144531 122.96875 181.183594 "/>
<path style=" stroke:none;fill-rule:evenodd;fill:rgb(45.098039%,45.098039%,87.058824%);fill-opacity:1;" d="M 133.410156 181.183594 C 133.410156 180.226562 131.96875 180.226562 131.96875 181.183594 C 131.96875 182.144531 133.410156 182.144531 133.410156 181.183594 "/>
<path style=" stroke:none;fill-rule:evenodd;fill:rgb(45.098039%,45.098039%,87.058824%);fill-opacity:1;" d="M 143.847656 181.183594 C 143.847656 180.226562 142.410156 180.226562 142.410156 181.183594 C 142.410156 182.144531 143.847656 182.144531 143.847656 181.183594 "/>
<path style=" stroke:none;fill-rule:evenodd;fill:rgb(45.098039%,45.098039%,87.058824%);fill-opacity:1;" d="M 154.289062 181.183594 C 154.289062 180.226562 152.847656 180.226562 152.847656 181.183594 C 152.847656 182.144531 154.289062 182.144531 154.289062 181.183594 "/>
<path style=" stroke:none;fill-rule:evenodd;fill:rgb(45.098039%,45.098039%,87.058824%);fill-opacity:1;" d="M 164.730469 181.183594 C 164.730469 180.226562 163.289062 180.226562 163.289062 181.183594 C 163.289062 182.144531 164.730469 182.144531 164.730469 181.183594 "/>
<path style=" stroke:none;fill-rule:evenodd;fill:rgb(45.098039%,45.098039%,87.058824%);fill-opacity:1;" d="M 175.167969 181.183594 C 175.167969 180.226562 173.730469 180.226562 173.730469 181.183594 C 173.730469 182.144531 175.167969 182.144531 175.167969 181.183594 "/>
<path style=" stroke:none;fill-rule:evenodd;fill:rgb(45.098039%,45.098039%,87.058824%);fill-opacity:1;" d="M 99.8125 86.101562 C 99.8125 84.902344 98.011719 84.902344 98.011719 86.101562 C 98.011719 87.300781 99.8125 87.300781 99.8125 86.101562 "/>
<path style=" stroke:none;fill-rule:evenodd;fill:rgb(45.098039%,45.098039%,87.058824%);fill-opacity:1;" d="M 101.253906 82.863281 C 101.253906 81.660156 99.453125 81.660156 99.453125 82.863281 C 99.453125 84.0625 101.253906 84.0625 101.253906 82.863281 "/>
<path style=" stroke:none;fill-rule:evenodd;fill:rgb(45.098039%,45.098039%,87.058824%);fill-opacity:1;" d="M 102.695312 79.621094 C 102.695312 78.421875 100.894531 78.421875 100.894531 79.621094 C 100.894531 80.820312 102.695312 80.820312 102.695312 79.621094 "/>
<path style=" stroke:none;fill-rule:evenodd;fill:rgb(45.098039%,45.098039%,87.058824%);fill-opacity:1;" d="M 103.054688 89.34375 C 103.054688 88.140625 101.253906 88.140625 101.253906 89.34375 C 101.253906 90.542969 103.054688 90.542969 103.054688 89.34375 "/>
<path style=" stroke:none;fill-rule:evenodd;fill:rgb(45.098039%,45.098039%,87.058824%);fill-opacity:1;" d="M 109.535156 160.261719 C 109.535156 159.0625 107.734375 159.0625 107.734375 160.261719 C 107.734375 161.460938 109.535156 161.460938 109.535156 160.261719 "/>
<path style=" stroke:none;fill-rule:evenodd;fill:rgb(45.098039%,45.098039%,87.058824%);fill-opacity:1;" d="M 158.132812 95.820312 C 158.132812 94.621094 156.332031 94.621094 156.332031 95.820312 C 156.332031 97.023438 158.132812 97.023438 158.132812 95.820312 "/>
<path style=" stroke:none;fill-rule:evenodd;fill:rgb(45.098039%,45.098039%,87.058824%);fill-opacity:1;" d="M 161.375 92.582031 C 161.375 91.382812 159.574219 91.382812 159.574219 92.582031 C 159.574219 93.78125 161.375 93.78125 161.375 92.582031 "/>
<path style=" stroke:none;fill-rule:evenodd;fill:rgb(45.098039%,45.098039%,87.058824%);fill-opacity:1;" d="M 164.972656 89.34375 C 164.972656 88.140625 163.171875 88.140625 163.171875 89.34375 C 163.171875 90.542969 164.972656 90.542969 164.972656 89.34375 "/>
<path style=" stroke:none;fill-rule:evenodd;fill:rgb(45.098039%,45.098039%,87.058824%);fill-opacity:1;" d="M 166.054688 86.101562 C 166.054688 84.902344 164.253906 84.902344 164.253906 86.101562 C 164.253906 87.300781 166.054688 87.300781 166.054688 86.101562 "/>
<path style=" stroke:none;fill-rule:evenodd;fill:rgb(45.098039%,45.098039%,87.058824%);fill-opacity:1;" d="M 166.773438 95.820312 C 166.773438 94.621094 164.972656 94.621094 164.972656 95.820312 C 164.972656 97.023438 166.773438 97.023438 166.773438 95.820312 "/>
<path style=" stroke:none;fill-rule:evenodd;fill:rgb(45.098039%,45.098039%,87.058824%);fill-opacity:1;" d="M 167.132812 82.863281 C 167.132812 81.660156 165.332031 81.660156 165.332031 82.863281 C 165.332031 84.0625 167.132812 84.0625 167.132812 82.863281 "/>
<path style=" stroke:none;fill-rule:evenodd;fill:rgb(45.098039%,45.098039%,87.058824%);fill-opacity:1;" d="M 168.574219 79.621094 C 168.574219 78.421875 166.773438 78.421875 166.773438 79.621094 C 166.773438 80.820312 168.574219 80.820312 168.574219 79.621094 "/>
<path style=" stroke:none;fill-rule:evenodd;fill:rgb(45.098039%,45.098039%,87.058824%);fill-opacity:1;" d="M 168.574219 92.582031 C 168.574219 91.382812 166.773438 91.382812 166.773438 92.582031 C 166.773438 93.78125 168.574219 93.78125 168.574219 92.582031 "/>
<path style=" stroke:none;fill-rule:evenodd;fill:rgb(45.098039%,45.098039%,87.058824%);fill-opacity:1;" d="M 16.179688 161.960938 C 16.179688 160.519531 14.019531 160.519531 14.019531 161.960938 C 14.019531 163.402344 16.179688 163.402344 16.179688 161.960938 "/>
<path style=" stroke:none;fill-rule:evenodd;fill:rgb(45.098039%,45.098039%,87.058824%);fill-opacity:1;" d="M 16.179688 172.402344 C 16.179688 170.960938 14.019531 170.960938 14.019531 172.402344 C 14.019531 173.839844 16.179688 173.839844 16.179688 172.402344 "/>
<path style=" stroke:none;fill-rule:evenodd;fill:rgb(45.098039%,45.098039%,87.058824%);fill-opacity:1;" d="M 16.179688 182.839844 C 16.179688 181.402344 14.019531 181.402344 14.019531 182.839844 C 14.019531 184.28125 16.179688 184.28125 16.179688 182.839844 "/>
<path style=" stroke:none;fill-rule:evenodd;fill:rgb(45.098039%,45.098039%,87.058824%);fill-opacity:1;" d="M 26.8125 178.917969 C 26.8125 177.476562 24.652344 177.476562 24.652344 178.917969 C 24.652344 180.355469 26.8125 180.355469 26.8125 178.917969 "/>
<path style=" stroke:none;fill-rule:evenodd;fill:rgb(45.098039%,45.098039%,87.058824%);fill-opacity:1;" d="M 37.253906 178.917969 C 37.253906 177.476562 35.09375 177.476562 35.09375 178.917969 C 35.09375 180.355469 37.253906 180.355469 37.253906 178.917969 "/>
<path style=" stroke:none;fill-rule:evenodd;fill:rgb(45.098039%,45.098039%,87.058824%);fill-opacity:1;" d="M 47.691406 178.917969 C 47.691406 177.476562 45.53125 177.476562 45.53125 178.917969 C 45.53125 180.355469 47.691406 180.355469 47.691406 178.917969 "/>
<path style=" stroke:none;fill-rule:evenodd;fill:rgb(45.098039%,45.098039%,87.058824%);fill-opacity:1;" d="M 58.132812 178.917969 C 58.132812 177.476562 55.972656 177.476562 55.972656 178.917969 C 55.972656 180.355469 58.132812 180.355469 58.132812 178.917969 "/>
<path style=" stroke:none;fill-rule:evenodd;fill:rgb(45.098039%,45.098039%,87.058824%);fill-opacity:1;" d="M 68.574219 178.917969 C 68.574219 177.476562 66.414062 177.476562 66.414062 178.917969 C 66.414062 180.355469 68.574219 180.355469 68.574219 178.917969 "/>
<path style=" stroke:none;fill-rule:evenodd;fill:rgb(45.098039%,45.098039%,87.058824%);fill-opacity:1;" d="M 79.011719 178.917969 C 79.011719 177.476562 76.851562 177.476562 76.851562 178.917969 C 76.851562 180.355469 79.011719 180.355469 79.011719 178.917969 "/>
<path style=" stroke:none;fill-rule:evenodd;fill:rgb(45.098039%,45.098039%,87.058824%);fill-opacity:1;" d="M 89.453125 178.917969 C 89.453125 177.476562 87.292969 177.476562 87.292969 178.917969 C 87.292969 180.355469 89.453125 180.355469 89.453125 178.917969 "/>
<path style=" stroke:none;fill-rule:evenodd;fill:rgb(45.098039%,45.098039%,87.058824%);fill-opacity:1;" d="M 99.894531 178.917969 C 99.894531 177.476562 97.734375 177.476562 97.734375 178.917969 C 97.734375 180.355469 99.894531 180.355469 99.894531 178.917969 "/>
<path style=" stroke:none;fill-rule:evenodd;fill:rgb(45.098039%,45.098039%,87.058824%);fill-opacity:1;" d="M 110.332031 178.917969 C 110.332031 177.476562 108.171875 177.476562 108.171875 178.917969 C 108.171875 180.355469 110.332031 180.355469 110.332031 178.917969 "/>
<path style=" stroke:none;fill-rule:evenodd;fill:rgb(45.098039%,45.098039%,87.058824%);fill-opacity:1;" d="M 120.773438 178.917969 C 120.773438 177.476562 118.613281 177.476562 118.613281 178.917969 C 118.613281 180.355469 120.773438 180.355469 120.773438 178.917969 "/>
<path style=" stroke:none;fill-rule:evenodd;fill:rgb(45.098039%,45.098039%,87.058824%);fill-opacity:1;" d="M 131.210938 178.917969 C 131.210938 177.476562 129.054688 177.476562 129.054688 178.917969 C 129.054688 180.355469 131.210938 180.355469 131.210938 178.917969 "/>
<path style=" stroke:none;fill-rule:evenodd;fill:rgb(45.098039%,45.098039%,87.058824%);fill-opacity:1;" d="M 141.652344 178.917969 C 141.652344 177.476562 139.492188 177.476562 139.492188 178.917969 C 139.492188 180.355469 141.652344 180.355469 141.652344 178.917969 "/>
<path style=" stroke:none;fill-rule:evenodd;fill:rgb(45.098039%,45.098039%,87.058824%);fill-opacity:1;" d="M 152.09375 178.917969 C 152.09375 177.476562 149.933594 177.476562 149.933594 178.917969 C 149.933594 180.355469 152.09375 180.355469 152.09375 178.917969 "/>
<path style=" stroke:none;fill-rule:evenodd;fill:rgb(45.098039%,45.098039%,87.058824%);fill-opacity:1;" d="M 162.53125 178.917969 C 162.53125 177.476562 160.371094 177.476562 160.371094 178.917969 C 160.371094 180.355469 162.53125 180.355469 162.53125 178.917969 "/>
<path style=" stroke:none;fill-rule:evenodd;fill:rgb(45.098039%,45.098039%,87.058824%);fill-opacity:1;" d="M 172.972656 178.917969 C 172.972656 177.476562 170.8125 177.476562 170.8125 178.917969 C 170.8125 180.355469 172.972656 180.355469 172.972656 178.917969 "/>
<path style=" stroke:none;fill-rule:evenodd;fill:rgb(45.098039%,45.098039%,87.058824%);fill-opacity:1;" d="M 100.640625 6.542969 C 100.640625 4.71875 97.90625 4.71875 97.90625 6.542969 C 97.90625 8.367188 100.640625 8.367188 100.640625 6.542969 "/>
<path style=" stroke:none;fill-rule:evenodd;fill:rgb(45.098039%,45.098039%,87.058824%);fill-opacity:1;" d="M 100.640625 13.742188 C 100.640625 11.917969 97.90625 11.917969 97.90625 13.742188 C 97.90625 15.566406 100.640625 15.566406 100.640625 13.742188 "/>
<path style=" stroke:none;fill-rule:evenodd;fill:rgb(45.098039%,45.098039%,87.058824%);fill-opacity:1;" d="M 100.640625 67.023438 C 100.640625 65.199219 97.90625 65.199219 97.90625 67.023438 C 97.90625 68.847656 100.640625 68.847656 100.640625 67.023438 "/>
<path style=" stroke:none;fill-rule:evenodd;fill:rgb(45.098039%,45.098039%,87.058824%);fill-opacity:1;" d="M 100.640625 74.222656 C 100.640625 72.398438 97.90625 72.398438 97.90625 74.222656 C 97.90625 76.046875 100.640625 76.046875 100.640625 74.222656 "/>
<path style=" stroke:none;fill-rule:evenodd;fill:rgb(45.098039%,45.098039%,87.058824%);fill-opacity:1;" d="M 107.839844 6.542969 C 107.839844 4.71875 105.105469 4.71875 105.105469 6.542969 C 105.105469 8.367188 107.839844 8.367188 107.839844 6.542969 "/>
<path style=" stroke:none;fill-rule:evenodd;fill:rgb(45.098039%,45.098039%,87.058824%);fill-opacity:1;" d="M 107.839844 13.742188 C 107.839844 11.917969 105.105469 11.917969 105.105469 13.742188 C 105.105469 15.566406 107.839844 15.566406 107.839844 13.742188 "/>
<path style=" stroke:none;fill-rule:evenodd;fill:rgb(45.098039%,45.098039%,87.058824%);fill-opacity:1;" d="M 107.839844 67.023438 C 107.839844 65.199219 105.105469 65.199219 105.105469 67.023438 C 105.105469 68.847656 107.839844 68.847656 107.839844 67.023438 "/>
<path style=" stroke:none;fill-rule:evenodd;fill:rgb(45.098039%,45.098039%,87.058824%);fill-opacity:1;" d="M 107.839844 74.222656 C 107.839844 72.398438 105.105469 72.398438 105.105469 74.222656 C 105.105469 76.046875 107.839844 76.046875 107.839844 74.222656 "/>
<path style=" stroke:none;fill-rule:evenodd;fill:rgb(45.098039%,45.098039%,87.058824%);fill-opacity:1;" d="M 115.042969 6.542969 C 115.042969 4.71875 112.304688 4.71875 112.304688 6.542969 C 112.304688 8.367188 115.042969 8.367188 115.042969 6.542969 "/>
<path style=" stroke:none;fill-rule:evenodd;fill:rgb(45.098039%,45.098039%,87.058824%);fill-opacity:1;" d="M 115.042969 13.742188 C 115.042969 11.917969 112.304688 11.917969 112.304688 13.742188 C 112.304688 15.566406 115.042969 15.566406 115.042969 13.742188 "/>
<path style=" stroke:none;fill-rule:evenodd;fill:rgb(45.098039%,45.098039%,87.058824%);fill-opacity:1;" d="M 115.042969 67.023438 C 115.042969 65.199219 112.304688 65.199219 112.304688 67.023438 C 112.304688 68.847656 115.042969 68.847656 115.042969 67.023438 "/>
<path style=" stroke:none;fill-rule:evenodd;fill:rgb(45.098039%,45.098039%,87.058824%);fill-opacity:1;" d="M 115.042969 74.222656 C 115.042969 72.398438 112.304688 72.398438 112.304688 74.222656 C 112.304688 76.046875 115.042969 76.046875 115.042969 74.222656 "/>
<path style=" stroke:none;fill-rule:evenodd;fill:rgb(45.098039%,45.098039%,87.058824%);fill-opacity:1;" d="M 122.242188 6.542969 C 122.242188 4.71875 119.503906 4.71875 119.503906 6.542969 C 119.503906 8.367188 122.242188 8.367188 122.242188 6.542969 "/>
<path style=" stroke:none;fill-rule:evenodd;fill:rgb(45.098039%,45.098039%,87.058824%);fill-opacity:1;" d="M 122.242188 13.742188 C 122.242188 11.917969 119.503906 11.917969 119.503906 13.742188 C 119.503906 15.566406 122.242188 15.566406 122.242188 13.742188 "/>
<path style=" stroke:none;fill-rule:evenodd;fill:rgb(45.098039%,45.098039%,87.058824%);fill-opacity:1;" d="M 122.242188 67.023438 C 122.242188 65.199219 119.503906 65.199219 119.503906 67.023438 C 119.503906 68.847656 122.242188 68.847656 122.242188 67.023438 "/>
<path style=" stroke:none;fill-rule:evenodd;fill:rgb(45.098039%,45.098039%,87.058824%);fill-opacity:1;" d="M 122.242188 74.222656 C 122.242188 72.398438 119.503906 72.398438 119.503906 74.222656 C 119.503906 76.046875 122.242188 76.046875 122.242188 74.222656 "/>
<path style=" stroke:none;fill-rule:evenodd;fill:rgb(45.098039%,45.098039%,87.058824%);fill-opacity:1;" d="M 129.441406 6.542969 C 129.441406 4.71875 126.707031 4.71875 126.707031 6.542969 C 126.707031 8.367188 129.441406 8.367188 129.441406 6.542969 "/>
<path style=" stroke:none;fill-rule:evenodd;fill:rgb(45.098039%,45.098039%,87.058824%);fill-opacity:1;" d="M 129.441406 13.742188 C 129.441406 11.917969 126.707031 11.917969 126.707031 13.742188 C 126.707031 15.566406 129.441406 15.566406 129.441406 13.742188 "/>
<path style=" stroke:none;fill-rule:evenodd;fill:rgb(45.098039%,45.098039%,87.058824%);fill-opacity:1;" d="M 129.441406 67.023438 C 129.441406 65.199219 126.707031 65.199219 126.707031 67.023438 C 126.707031 68.847656 129.441406 68.847656 129.441406 67.023438 "/>
<path style=" stroke:none;fill-rule:evenodd;fill:rgb(45.098039%,45.098039%,87.058824%);fill-opacity:1;" d="M 129.441406 74.222656 C 129.441406 72.398438 126.707031 72.398438 126.707031 74.222656 C 126.707031 76.046875 129.441406 76.046875 129.441406 74.222656 "/>
<path style=" stroke:none;fill-rule:evenodd;fill:rgb(45.098039%,45.098039%,87.058824%);fill-opacity:1;" d="M 136.640625 6.542969 C 136.640625 4.71875 133.90625 4.71875 133.90625 6.542969 C 133.90625 8.367188 136.640625 8.367188 136.640625 6.542969 "/>
<path style=" stroke:none;fill-rule:evenodd;fill:rgb(45.098039%,45.098039%,87.058824%);fill-opacity:1;" d="M 136.640625 13.742188 C 136.640625 11.917969 133.90625 11.917969 133.90625 13.742188 C 133.90625 15.566406 136.640625 15.566406 136.640625 13.742188 "/>
<path style=" stroke:none;fill-rule:evenodd;fill:rgb(45.098039%,45.098039%,87.058824%);fill-opacity:1;" d="M 136.640625 67.023438 C 136.640625 65.199219 133.90625 65.199219 133.90625 67.023438 C 133.90625 68.847656 136.640625 68.847656 136.640625 67.023438 "/>
<path style=" stroke:none;fill-rule:evenodd;fill:rgb(45.098039%,45.098039%,87.058824%);fill-opacity:1;" d="M 136.640625 74.222656 C 136.640625 72.398438 133.90625 72.398438 133.90625 74.222656 C 133.90625 76.046875 136.640625 76.046875 136.640625 74.222656 "/>
<path style=" stroke:none;fill-rule:evenodd;fill:rgb(45.098039%,45.098039%,87.058824%);fill-opacity:1;" d="M 143.839844 6.542969 C 143.839844 4.71875 141.105469 4.71875 141.105469 6.542969 C 141.105469 8.367188 143.839844 8.367188 143.839844 6.542969 "/>
<path style=" stroke:none;fill-rule:evenodd;fill:rgb(45.098039%,45.098039%,87.058824%);fill-opacity:1;" d="M 143.839844 13.742188 C 143.839844 11.917969 141.105469 11.917969 141.105469 13.742188 C 141.105469 15.566406 143.839844 15.566406 143.839844 13.742188 "/>
<path style=" stroke:none;fill-rule:evenodd;fill:rgb(45.098039%,45.098039%,87.058824%);fill-opacity:1;" d="M 143.839844 67.023438 C 143.839844 65.199219 141.105469 65.199219 141.105469 67.023438 C 141.105469 68.847656 143.839844 68.847656 143.839844 67.023438 "/>
<path style=" stroke:none;fill-rule:evenodd;fill:rgb(45.098039%,45.098039%,87.058824%);fill-opacity:1;" d="M 143.839844 74.222656 C 143.839844 72.398438 141.105469 72.398438 141.105469 74.222656 C 141.105469 76.046875 143.839844 76.046875 143.839844 74.222656 "/>
<path style=" stroke:none;fill-rule:evenodd;fill:rgb(45.098039%,45.098039%,87.058824%);fill-opacity:1;" d="M 151.042969 6.542969 C 151.042969 4.71875 148.304688 4.71875 148.304688 6.542969 C 148.304688 8.367188 151.042969 8.367188 151.042969 6.542969 "/>
<path style=" stroke:none;fill-rule:evenodd;fill:rgb(45.098039%,45.098039%,87.058824%);fill-opacity:1;" d="M 151.042969 13.742188 C 151.042969 11.917969 148.304688 11.917969 148.304688 13.742188 C 148.304688 15.566406 151.042969 15.566406 151.042969 13.742188 "/>
<path style=" stroke:none;fill-rule:evenodd;fill:rgb(45.098039%,45.098039%,87.058824%);fill-opacity:1;" d="M 151.042969 67.023438 C 151.042969 65.199219 148.304688 65.199219 148.304688 67.023438 C 148.304688 68.847656 151.042969 68.847656 151.042969 67.023438 "/>
<path style=" stroke:none;fill-rule:evenodd;fill:rgb(45.098039%,45.098039%,87.058824%);fill-opacity:1;" d="M 151.042969 74.222656 C 151.042969 72.398438 148.304688 72.398438 148.304688 74.222656 C 148.304688 76.046875 151.042969 76.046875 151.042969 74.222656 "/>
<path style=" stroke:none;fill-rule:evenodd;fill:rgb(45.098039%,45.098039%,87.058824%);fill-opacity:1;" d="M 158.242188 6.542969 C 158.242188 4.71875 155.503906 4.71875 155.503906 6.542969 C 155.503906 8.367188 158.242188 8.367188 158.242188 6.542969 "/>
<path style=" stroke:none;fill-rule:evenodd;fill:rgb(45.098039%,45.098039%,87.058824%);fill-opacity:1;" d="M 158.242188 13.742188 C 158.242188 11.917969 155.503906 11.917969 155.503906 13.742188 C 155.503906 15.566406 158.242188 15.566406 158.242188 13.742188 "/>
<path style=" stroke:none;fill-rule:evenodd;fill:rgb(45.098039%,45.098039%,87.058824%);fill-opacity:1;" d="M 158.242188 67.023438 C 158.242188 65.199219 155.503906 65.199219 155.503906 67.023438 C 155.503906 68.847656 158.242188 68.847656 158.242188 67.023438 "/>
<path style=" stroke:none;fill-rule:evenodd;fill:rgb(45.098039%,45.098039%,87.058824%);fill-opacity:1;" d="M 158.242188 74.222656 C 158.242188 72.398438 155.503906 72.398438 155.503906 74.222656 C 155.503906 76.046875 158.242188 76.046875 158.242188 74.222656 "/>
<path style=" stroke:none;fill-rule:evenodd;fill:rgb(45.098039%,45.098039%,87.058824%);fill-opacity:1;" d="M 165.441406 6.542969 C 165.441406 4.71875 162.707031 4.71875 162.707031 6.542969 C 162.707031 8.367188 165.441406 8.367188 165.441406 6.542969 "/>
<path style=" stroke:none;fill-rule:evenodd;fill:rgb(45.098039%,45.098039%,87.058824%);fill-opacity:1;" d="M 165.441406 13.742188 C 165.441406 11.917969 162.707031 11.917969 162.707031 13.742188 C 162.707031 15.566406 165.441406 15.566406 165.441406 13.742188 "/>
<path style=" stroke:none;fill-rule:evenodd;fill:rgb(45.098039%,45.098039%,87.058824%);fill-opacity:1;" d="M 165.441406 67.023438 C 165.441406 65.199219 162.707031 65.199219 162.707031 67.023438 C 162.707031 68.847656 165.441406 68.847656 165.441406 67.023438 "/>
<path style=" stroke:none;fill-rule:evenodd;fill:rgb(45.098039%,45.098039%,87.058824%);fill-opacity:1;" d="M 165.441406 74.222656 C 165.441406 72.398438 162.707031 72.398438 162.707031 74.222656 C 162.707031 76.046875 165.441406 76.046875 165.441406 74.222656 "/>
<path style=" stroke:none;fill-rule:evenodd;fill:rgb(45.098039%,45.098039%,87.058824%);fill-opacity:1;" d="M 17.144531 157.714844 C 17.144531 155.359375 13.613281 155.359375 13.613281 157.714844 C 13.613281 160.066406 17.144531 160.066406 17.144531 157.714844 "/>
<path style=" stroke:none;fill-rule:evenodd;fill:rgb(45.098039%,45.098039%,87.058824%);fill-opacity:1;" d="M 17.144531 168.152344 C 17.144531 165.800781 13.613281 165.800781 13.613281 168.152344 C 13.613281 170.503906 17.144531 170.503906 17.144531 168.152344 "/>
<path style=" stroke:none;fill-rule:evenodd;fill:rgb(45.098039%,45.098039%,87.058824%);fill-opacity:1;" d="M 17.144531 178.59375 C 17.144531 176.242188 13.613281 176.242188 13.613281 178.59375 C 13.613281 180.945312 17.144531 180.945312 17.144531 178.59375 "/>
<path style=" stroke:none;fill-rule:evenodd;fill:rgb(45.098039%,45.098039%,87.058824%);fill-opacity:1;" d="M 23.25 178.636719 C 23.25 176.285156 19.722656 176.285156 19.722656 178.636719 C 19.722656 180.988281 23.25 180.988281 23.25 178.636719 "/>
<path style=" stroke:none;fill-rule:evenodd;fill:rgb(45.098039%,45.098039%,87.058824%);fill-opacity:1;" d="M 33.6875 178.636719 C 33.6875 176.285156 30.160156 176.285156 30.160156 178.636719 C 30.160156 180.988281 33.6875 180.988281 33.6875 178.636719 "/>
<path style=" stroke:none;fill-rule:evenodd;fill:rgb(45.098039%,45.098039%,87.058824%);fill-opacity:1;" d="M 44.128906 178.636719 C 44.128906 176.285156 40.601562 176.285156 40.601562 178.636719 C 40.601562 180.988281 44.128906 180.988281 44.128906 178.636719 "/>
<path style=" stroke:none;fill-rule:evenodd;fill:rgb(45.098039%,45.098039%,87.058824%);fill-opacity:1;" d="M 54.570312 178.636719 C 54.570312 176.285156 51.039062 176.285156 51.039062 178.636719 C 51.039062 180.988281 54.570312 180.988281 54.570312 178.636719 "/>
<path style=" stroke:none;fill-rule:evenodd;fill:rgb(45.098039%,45.098039%,87.058824%);fill-opacity:1;" d="M 65.007812 178.636719 C 65.007812 176.285156 61.480469 176.285156 61.480469 178.636719 C 61.480469 180.988281 65.007812 180.988281 65.007812 178.636719 "/>
<path style=" stroke:none;fill-rule:evenodd;fill:rgb(45.098039%,45.098039%,87.058824%);fill-opacity:1;" d="M 75.449219 178.636719 C 75.449219 176.285156 71.921875 176.285156 71.921875 178.636719 C 71.921875 180.988281 75.449219 180.988281 75.449219 178.636719 "/>
<path style=" stroke:none;fill-rule:evenodd;fill:rgb(45.098039%,45.098039%,87.058824%);fill-opacity:1;" d="M 85.890625 178.636719 C 85.890625 176.285156 82.359375 176.285156 82.359375 178.636719 C 82.359375 180.988281 85.890625 180.988281 85.890625 178.636719 "/>
<path style=" stroke:none;fill-rule:evenodd;fill:rgb(45.098039%,45.098039%,87.058824%);fill-opacity:1;" d="M 96.328125 178.636719 C 96.328125 176.285156 92.800781 176.285156 92.800781 178.636719 C 92.800781 180.988281 96.328125 180.988281 96.328125 178.636719 "/>
<path style=" stroke:none;fill-rule:evenodd;fill:rgb(45.098039%,45.098039%,87.058824%);fill-opacity:1;" d="M 106.769531 178.636719 C 106.769531 176.285156 103.242188 176.285156 103.242188 178.636719 C 103.242188 180.988281 106.769531 180.988281 106.769531 178.636719 "/>
<path style=" stroke:none;fill-rule:evenodd;fill:rgb(45.098039%,45.098039%,87.058824%);fill-opacity:1;" d="M 117.207031 178.636719 C 117.207031 176.285156 113.679688 176.285156 113.679688 178.636719 C 113.679688 180.988281 117.207031 180.988281 117.207031 178.636719 "/>
<path style=" stroke:none;fill-rule:evenodd;fill:rgb(45.098039%,45.098039%,87.058824%);fill-opacity:1;" d="M 127.648438 178.636719 C 127.648438 176.285156 124.121094 176.285156 124.121094 178.636719 C 124.121094 180.988281 127.648438 180.988281 127.648438 178.636719 "/>
<path style=" stroke:none;fill-rule:evenodd;fill:rgb(45.098039%,45.098039%,87.058824%);fill-opacity:1;" d="M 138.089844 178.636719 C 138.089844 176.285156 134.5625 176.285156 134.5625 178.636719 C 134.5625 180.988281 138.089844 180.988281 138.089844 178.636719 "/>
<path style=" stroke:none;fill-rule:evenodd;fill:rgb(45.098039%,45.098039%,87.058824%);fill-opacity:1;" d="M 148.527344 178.636719 C 148.527344 176.285156 145 176.285156 145 178.636719 C 145 180.988281 148.527344 180.988281 148.527344 178.636719 "/>
<path style=" stroke:none;fill-rule:evenodd;fill:rgb(45.098039%,45.098039%,87.058824%);fill-opacity:1;" d="M 158.96875 178.636719 C 158.96875 176.285156 155.441406 176.285156 155.441406 178.636719 C 155.441406 180.988281 158.96875 180.988281 158.96875 178.636719 "/>
<path style=" stroke:none;fill-rule:evenodd;fill:rgb(45.098039%,45.098039%,87.058824%);fill-opacity:1;" d="M 169.410156 178.636719 C 169.410156 176.285156 165.878906 176.285156 165.878906 178.636719 C 165.878906 180.988281 169.410156 180.988281 169.410156 178.636719 "/>
<path style=" stroke:none;fill-rule:evenodd;fill:rgb(45.098039%,45.098039%,87.058824%);fill-opacity:1;" d="M 12.835938 160.261719 C 12.835938 156.46875 7.148438 156.46875 7.148438 160.261719 C 7.148438 164.054688 12.835938 164.054688 12.835938 160.261719 "/>
<path style=" stroke:none;fill-rule:evenodd;fill:rgb(45.098039%,45.098039%,87.058824%);fill-opacity:1;" d="M 12.835938 170.703125 C 12.835938 166.910156 7.148438 166.910156 7.148438 170.703125 C 7.148438 174.492188 12.835938 174.492188 12.835938 170.703125 "/>
<path style=" stroke:none;fill-rule:evenodd;fill:rgb(45.098039%,45.098039%,87.058824%);fill-opacity:1;" d="M 12.835938 181.140625 C 12.835938 177.351562 7.148438 177.351562 7.148438 181.140625 C 7.148438 184.933594 12.835938 184.933594 12.835938 181.140625 "/>
<path style=" stroke:none;fill-rule:evenodd;fill:rgb(45.098039%,45.098039%,87.058824%);fill-opacity:1;" d="M 26.878906 184.023438 C 26.878906 180.230469 21.191406 180.230469 21.191406 184.023438 C 21.191406 187.8125 26.878906 187.8125 26.878906 184.023438 "/>
<path style=" stroke:none;fill-rule:evenodd;fill:rgb(45.098039%,45.098039%,87.058824%);fill-opacity:1;" d="M 37.316406 184.023438 C 37.316406 180.230469 31.628906 180.230469 31.628906 184.023438 C 31.628906 187.8125 37.316406 187.8125 37.316406 184.023438 "/>
<path style=" stroke:none;fill-rule:evenodd;fill:rgb(45.098039%,45.098039%,87.058824%);fill-opacity:1;" d="M 47.757812 184.023438 C 47.757812 180.230469 42.070312 180.230469 42.070312 184.023438 C 42.070312 187.8125 47.757812 187.8125 47.757812 184.023438 "/>
<path style=" stroke:none;fill-rule:evenodd;fill:rgb(45.098039%,45.098039%,87.058824%);fill-opacity:1;" d="M 58.199219 184.023438 C 58.199219 180.230469 52.507812 180.230469 52.507812 184.023438 C 52.507812 187.8125 58.199219 187.8125 58.199219 184.023438 "/>
<path style=" stroke:none;fill-rule:evenodd;fill:rgb(45.098039%,45.098039%,87.058824%);fill-opacity:1;" d="M 68.636719 184.023438 C 68.636719 180.230469 62.949219 180.230469 62.949219 184.023438 C 62.949219 187.8125 68.636719 187.8125 68.636719 184.023438 "/>
<path style=" stroke:none;fill-rule:evenodd;fill:rgb(45.098039%,45.098039%,87.058824%);fill-opacity:1;" d="M 79.078125 184.023438 C 79.078125 180.230469 73.390625 180.230469 73.390625 184.023438 C 73.390625 187.8125 79.078125 187.8125 79.078125 184.023438 "/>
<path style=" stroke:none;fill-rule:evenodd;fill:rgb(45.098039%,45.098039%,87.058824%);fill-opacity:1;" d="M 89.519531 184.023438 C 89.519531 180.230469 83.828125 180.230469 83.828125 184.023438 C 83.828125 187.8125 89.519531 187.8125 89.519531 184.023438 "/>
<path style=" stroke:none;fill-rule:evenodd;fill:rgb(45.098039%,45.098039%,87.058824%);fill-opacity:1;" d="M 99.957031 184.023438 C 99.957031 180.230469 94.269531 180.230469 94.269531 184.023438 C 94.269531 187.8125 99.957031 187.8125 99.957031 184.023438 "/>
<path style=" stroke:none;fill-rule:evenodd;fill:rgb(45.098039%,45.098039%,87.058824%);fill-opacity:1;" d="M 110.398438 184.023438 C 110.398438 180.230469 104.710938 180.230469 104.710938 184.023438 C 104.710938 187.8125 110.398438 187.8125 110.398438 184.023438 "/>
<path style=" stroke:none;fill-rule:evenodd;fill:rgb(45.098039%,45.098039%,87.058824%);fill-opacity:1;" d="M 120.835938 184.023438 C 120.835938 180.230469 115.148438 180.230469 115.148438 184.023438 C 115.148438 187.8125 120.835938 187.8125 120.835938 184.023438 "/>
<path style=" stroke:none;fill-rule:evenodd;fill:rgb(45.098039%,45.098039%,87.058824%);fill-opacity:1;" d="M 131.277344 184.023438 C 131.277344 180.230469 125.589844 180.230469 125.589844 184.023438 C 125.589844 187.8125 131.277344 187.8125 131.277344 184.023438 "/>
<path style=" stroke:none;fill-rule:evenodd;fill:rgb(45.098039%,45.098039%,87.058824%);fill-opacity:1;" d="M 141.71875 184.023438 C 141.71875 180.230469 136.03125 180.230469 136.03125 184.023438 C 136.03125 187.8125 141.71875 187.8125 141.71875 184.023438 "/>
<path style=" stroke:none;fill-rule:evenodd;fill:rgb(45.098039%,45.098039%,87.058824%);fill-opacity:1;" d="M 152.15625 184.023438 C 152.15625 180.230469 146.46875 180.230469 146.46875 184.023438 C 146.46875 187.8125 152.15625 187.8125 152.15625 184.023438 "/>
<path style=" stroke:none;fill-rule:evenodd;fill:rgb(45.098039%,45.098039%,87.058824%);fill-opacity:1;" d="M 162.597656 184.023438 C 162.597656 180.230469 156.910156 180.230469 156.910156 184.023438 C 156.910156 187.8125 162.597656 187.8125 162.597656 184.023438 "/>
<path style=" stroke:none;fill-rule:evenodd;fill:rgb(45.098039%,45.098039%,87.058824%);fill-opacity:1;" d="M 173.039062 184.023438 C 173.039062 180.230469 167.347656 180.230469 167.347656 184.023438 C 167.347656 187.8125 173.039062 187.8125 173.039062 184.023438 "/>
<path style=" stroke:none;fill-rule:evenodd;fill:rgb(45.098039%,45.098039%,87.058824%);fill-opacity:1;" d="M 63.921875 77.820312 C 63.921875 72.15625 55.425781 72.15625 55.425781 77.820312 C 55.425781 83.484375 63.921875 83.484375 63.921875 77.820312 "/>
<path style=" stroke:none;fill-rule:evenodd;fill:rgb(45.098039%,45.098039%,87.058824%);fill-opacity:1;" d="M 63.921875 106.621094 C 63.921875 100.957031 55.425781 100.957031 55.425781 106.621094 C 55.425781 112.285156 63.921875 112.285156 63.921875 106.621094 "/>
<path style=" stroke:none;fill-rule:evenodd;fill:rgb(45.098039%,45.098039%,87.058824%);fill-opacity:1;" d="M 139.523438 146.222656 C 139.523438 140.558594 131.027344 140.558594 131.027344 146.222656 C 131.027344 151.886719 139.523438 151.886719 139.523438 146.222656 "/>
</g>
</svg>
