G04 This is an RS-274x file exported by *
G04 gerbv version 2.7.0 *
G04 More information is available about gerbv at *
G04 http://gerbv.geda-project.org/ *
G04 --End of header info--*
%MOIN*%
%FSLAX36Y36*%
%IPPOS*%
G04 --Define apertures--*
%ADD10C,0.0060*%
%ADD11C,0.0001*%
%ADD12C,0.0150*%
%ADD13C,0.0350*%
%ADD14C,0.0394*%
%ADD15C,0.0945*%
%ADD16C,0.0669*%
%ADD17C,0.0472*%
%ADD18C,0.0200*%
%ADD19C,0.0600*%
%ADD20C,0.1600*%
%ADD21C,0.0250*%
%ADD22C,0.1181*%
%ADD23C,0.0100*%
%ADD24C,0.0197*%
%ADD25C,0.0787*%
%ADD26C,0.0492*%
%ADD27C,0.0295*%
%ADD28C,0.0380*%
%ADD29C,0.0454*%
%ADD30C,0.1005*%
%ADD31C,0.0729*%
%ADD32C,0.0532*%
%ADD33C,0.0260*%
%ADD34C,0.0660*%
%ADD35C,0.2000*%
%ADD36C,0.0790*%
%ADD37C,0.0490*%
%ADD38C,0.0300*%
%ADD39C,0.1180*%
G04 --Start main section--*
G54D10*
G01X2831500Y2969000D02*
G01X2839500Y2961000D01*
G01X2796500Y2969000D02*
G01X2831500Y2969000D01*
G01X2789500Y2962000D02*
G01X2796500Y2969000D01*
G01X2797500Y2929000D02*
G01X2790500Y2936000D01*
G01X2797500Y2929000D02*
G01X2832500Y2929000D01*
G01X2839500Y2936000D02*
G01X2832500Y2929000D01*
G01X2706500Y2969000D02*
G01X2714500Y2961000D01*
G01X2671500Y2969000D02*
G01X2706500Y2969000D01*
G01X2664500Y2962000D02*
G01X2671500Y2969000D01*
G01X2672500Y2929000D02*
G01X2665500Y2936000D01*
G01X2672500Y2929000D02*
G01X2707500Y2929000D01*
G01X2714500Y2936000D02*
G01X2707500Y2929000D01*
G01X1848000Y1562500D02*
G01X1856000Y1570500D01*
G01X1848000Y1562500D02*
G01X1848000Y1527500D01*
G01X1855000Y1520500D02*
G01X1848000Y1527500D01*
G01X1888000Y1528500D02*
G01X1881000Y1521500D01*
G01X1888000Y1563500D02*
G01X1888000Y1528500D01*
G01X1881000Y1570500D02*
G01X1888000Y1563500D01*
G01X2272000Y1524000D02*
G01X2264000Y1516000D01*
G01X2272000Y1559000D02*
G01X2272000Y1524000D01*
G01X2265000Y1566000D02*
G01X2272000Y1559000D01*
G01X2232000Y1558000D02*
G01X2239000Y1565000D01*
G01X2232000Y1558000D02*
G01X2232000Y1523000D01*
G01X2239000Y1516000D02*
G01X2232000Y1523000D01*
G01X0000000Y0000000D02*
G54D11*
G36*
G01X2425830Y1925390D02*
G01X2426150Y1924530D01*
G01X2428030Y1917660D01*
G01X2429290Y1910650D01*
G01X2429920Y1903560D01*
G01X2429920Y1896440D01*
G01X2429290Y1889350D01*
G01X2428030Y1882340D01*
G01X2426150Y1875470D01*
G01X2425830Y1874610D01*
G01X2425830Y1925390D01*
G37*
G36*
G01X2808310Y2425000D02*
G01X2809220Y2425780D01*
G01X2810550Y2427340D01*
G01X2811620Y2429080D01*
G01X2812400Y2430970D01*
G01X2812880Y2432960D01*
G01X2813040Y2435000D01*
G01X2812880Y2437040D01*
G01X2812400Y2439030D01*
G01X2811620Y2440920D01*
G01X2810550Y2442660D01*
G01X2809220Y2444220D01*
G01X2808310Y2445000D01*
G01X2809220Y2445780D01*
G01X2810550Y2447340D01*
G01X2811620Y2449080D01*
G01X2812400Y2450970D01*
G01X2812880Y2452960D01*
G01X2813040Y2455000D01*
G01X2813000Y2455510D01*
G01X2813000Y2464490D01*
G01X2813040Y2465000D01*
G01X2812880Y2467040D01*
G01X2812400Y2469030D01*
G01X2811620Y2470920D01*
G01X2810550Y2472660D01*
G01X2809220Y2474220D01*
G01X2808600Y2474750D01*
G01X2810320Y2475800D01*
G01X2812410Y2477590D01*
G01X2814200Y2479680D01*
G01X2815640Y2482030D01*
G01X2816690Y2484580D01*
G01X2817340Y2487250D01*
G01X2817550Y2490000D01*
G01X2817340Y2492750D01*
G01X2816690Y2495420D01*
G01X2815640Y2497970D01*
G01X2814200Y2500320D01*
G01X2812410Y2502410D01*
G01X2812310Y2502500D01*
G01X2812410Y2502590D01*
G01X2814200Y2504680D01*
G01X2815640Y2507030D01*
G01X2816690Y2509580D01*
G01X2817340Y2512250D01*
G01X2817550Y2515000D01*
G01X2817340Y2517750D01*
G01X2816690Y2520420D01*
G01X2815640Y2522970D01*
G01X2814200Y2525320D01*
G01X2813950Y2525610D01*
G01X2814190Y2525810D01*
G01X2816230Y2528210D01*
G01X2817880Y2530890D01*
G01X2819080Y2533800D01*
G01X2819810Y2536860D01*
G01X2820000Y2540000D01*
G01X2819810Y2543140D01*
G01X2819080Y2546200D01*
G01X2817880Y2549110D01*
G01X2816230Y2551790D01*
G01X2814190Y2554190D01*
G01X2813950Y2554390D01*
G01X2814200Y2554680D01*
G01X2815640Y2557030D01*
G01X2816690Y2559580D01*
G01X2817340Y2562250D01*
G01X2817550Y2565000D01*
G01X2817340Y2567750D01*
G01X2816690Y2570420D01*
G01X2815640Y2572970D01*
G01X2814200Y2575320D01*
G01X2813570Y2576060D01*
G01X2816210Y2577680D01*
G01X2819510Y2580490D01*
G01X2822320Y2583790D01*
G01X2824580Y2587480D01*
G01X2826230Y2591480D01*
G01X2827250Y2595680D01*
G01X2827580Y2600000D01*
G01X2827250Y2604320D01*
G01X2826230Y2608520D01*
G01X2824580Y2612520D01*
G01X2822320Y2616210D01*
G01X2819510Y2619510D01*
G01X2816210Y2622320D01*
G01X2815910Y2622500D01*
G01X2816210Y2622680D01*
G01X2819510Y2625490D01*
G01X2822320Y2628790D01*
G01X2824580Y2632480D01*
G01X2826230Y2636480D01*
G01X2827250Y2640680D01*
G01X2827580Y2645000D01*
G01X2827250Y2649320D01*
G01X2826230Y2653520D01*
G01X2824580Y2657520D01*
G01X2822320Y2661210D01*
G01X2819510Y2664510D01*
G01X2816210Y2667320D01*
G01X2815910Y2667500D01*
G01X2816210Y2667680D01*
G01X2819510Y2670490D01*
G01X2822320Y2673790D01*
G01X2824580Y2677480D01*
G01X2826230Y2681480D01*
G01X2827250Y2685680D01*
G01X2827580Y2690000D01*
G01X2827250Y2694320D01*
G01X2826230Y2698520D01*
G01X2824580Y2702520D01*
G01X2822320Y2706210D01*
G01X2819510Y2709510D01*
G01X2816210Y2712320D01*
G01X2815910Y2712500D01*
G01X2816210Y2712680D01*
G01X2819510Y2715490D01*
G01X2822320Y2718790D01*
G01X2824580Y2722480D01*
G01X2826230Y2726480D01*
G01X2827250Y2730680D01*
G01X2827580Y2735000D01*
G01X2827250Y2739320D01*
G01X2826230Y2743520D01*
G01X2824580Y2747520D01*
G01X2822320Y2751210D01*
G01X2819510Y2754510D01*
G01X2816210Y2757320D01*
G01X2815910Y2757500D01*
G01X2816210Y2757680D01*
G01X2819510Y2760490D01*
G01X2822320Y2763790D01*
G01X2824580Y2767480D01*
G01X2826230Y2771480D01*
G01X2827250Y2775680D01*
G01X2827580Y2780000D01*
G01X2827250Y2784320D01*
G01X2826230Y2788520D01*
G01X2824580Y2792520D01*
G01X2822320Y2796210D01*
G01X2819510Y2799510D01*
G01X2816210Y2802320D01*
G01X2815910Y2802500D01*
G01X2816210Y2802680D01*
G01X2819510Y2805490D01*
G01X2822320Y2808790D01*
G01X2824580Y2812480D01*
G01X2826230Y2816480D01*
G01X2827250Y2820680D01*
G01X2827580Y2825000D01*
G01X2827250Y2829320D01*
G01X2826230Y2833520D01*
G01X2824580Y2837520D01*
G01X2822320Y2841210D01*
G01X2821650Y2842000D01*
G01X2835000Y2842000D01*
G01X2835000Y1580000D01*
G01X2425830Y1580000D01*
G01X2425830Y1851410D01*
G01X2429500Y1857630D01*
G01X2432950Y1864860D01*
G01X2435750Y1872380D01*
G01X2437870Y1880110D01*
G01X2439290Y1888000D01*
G01X2440000Y1895990D01*
G01X2440000Y1904010D01*
G01X2439290Y1912000D01*
G01X2437870Y1919890D01*
G01X2435750Y1927620D01*
G01X2432950Y1935140D01*
G01X2429500Y1942370D01*
G01X2425830Y1948590D01*
G01X2425830Y2112000D01*
G01X2800000Y2112000D01*
G01X2802040Y2112120D01*
G01X2804030Y2112600D01*
G01X2805920Y2113380D01*
G01X2807660Y2114450D01*
G01X2809220Y2115780D01*
G01X2810550Y2117340D01*
G01X2811620Y2119080D01*
G01X2812400Y2120970D01*
G01X2812880Y2122960D01*
G01X2813040Y2125000D01*
G01X2812880Y2127040D01*
G01X2812400Y2129030D01*
G01X2811620Y2130920D01*
G01X2810550Y2132660D01*
G01X2809220Y2134220D01*
G01X2807660Y2135550D01*
G01X2805920Y2136620D01*
G01X2804030Y2137400D01*
G01X2802040Y2137880D01*
G01X2800000Y2138000D01*
G01X2425830Y2138000D01*
G01X2425830Y2142000D01*
G01X2800000Y2142000D01*
G01X2802040Y2142120D01*
G01X2804030Y2142600D01*
G01X2805920Y2143380D01*
G01X2807660Y2144450D01*
G01X2809220Y2145780D01*
G01X2810550Y2147340D01*
G01X2811620Y2149080D01*
G01X2812400Y2150970D01*
G01X2812880Y2152960D01*
G01X2813040Y2155000D01*
G01X2812880Y2157040D01*
G01X2812400Y2159030D01*
G01X2811620Y2160920D01*
G01X2810550Y2162660D01*
G01X2809220Y2164220D01*
G01X2807660Y2165550D01*
G01X2805920Y2166620D01*
G01X2804030Y2167400D01*
G01X2802040Y2167880D01*
G01X2800000Y2168000D01*
G01X2425830Y2168000D01*
G01X2425830Y2172000D01*
G01X2800000Y2172000D01*
G01X2802040Y2172120D01*
G01X2804030Y2172600D01*
G01X2805920Y2173380D01*
G01X2807660Y2174450D01*
G01X2809220Y2175780D01*
G01X2810550Y2177340D01*
G01X2811620Y2179080D01*
G01X2812400Y2180970D01*
G01X2812880Y2182960D01*
G01X2813040Y2185000D01*
G01X2812880Y2187040D01*
G01X2812400Y2189030D01*
G01X2811620Y2190920D01*
G01X2810550Y2192660D01*
G01X2809220Y2194220D01*
G01X2807660Y2195550D01*
G01X2805920Y2196620D01*
G01X2804030Y2197400D01*
G01X2802040Y2197880D01*
G01X2800000Y2198000D01*
G01X2425830Y2198000D01*
G01X2425830Y2202000D01*
G01X2800000Y2202000D01*
G01X2802040Y2202120D01*
G01X2804030Y2202600D01*
G01X2805920Y2203380D01*
G01X2807660Y2204450D01*
G01X2809220Y2205780D01*
G01X2810550Y2207340D01*
G01X2811620Y2209080D01*
G01X2812400Y2210970D01*
G01X2812880Y2212960D01*
G01X2813040Y2215000D01*
G01X2812880Y2217040D01*
G01X2812400Y2219030D01*
G01X2811620Y2220920D01*
G01X2810550Y2222660D01*
G01X2809220Y2224220D01*
G01X2807660Y2225550D01*
G01X2805920Y2226620D01*
G01X2804030Y2227400D01*
G01X2802040Y2227880D01*
G01X2800000Y2228000D01*
G01X2425830Y2228000D01*
G01X2425830Y2232000D01*
G01X2800000Y2232000D01*
G01X2802040Y2232120D01*
G01X2804030Y2232600D01*
G01X2805920Y2233380D01*
G01X2807660Y2234450D01*
G01X2809220Y2235780D01*
G01X2810550Y2237340D01*
G01X2811620Y2239080D01*
G01X2812400Y2240970D01*
G01X2812880Y2242960D01*
G01X2813040Y2245000D01*
G01X2812880Y2247040D01*
G01X2812400Y2249030D01*
G01X2811620Y2250920D01*
G01X2810550Y2252660D01*
G01X2809220Y2254220D01*
G01X2807660Y2255550D01*
G01X2805920Y2256620D01*
G01X2804030Y2257400D01*
G01X2802040Y2257880D01*
G01X2800000Y2258000D01*
G01X2425830Y2258000D01*
G01X2425830Y2262000D01*
G01X2800000Y2262000D01*
G01X2802040Y2262120D01*
G01X2804030Y2262600D01*
G01X2805920Y2263380D01*
G01X2807660Y2264450D01*
G01X2809220Y2265780D01*
G01X2810550Y2267340D01*
G01X2811620Y2269080D01*
G01X2812400Y2270970D01*
G01X2812880Y2272960D01*
G01X2813040Y2275000D01*
G01X2812880Y2277040D01*
G01X2812400Y2279030D01*
G01X2811620Y2280920D01*
G01X2810550Y2282660D01*
G01X2809220Y2284220D01*
G01X2807660Y2285550D01*
G01X2805920Y2286620D01*
G01X2804030Y2287400D01*
G01X2803620Y2287500D01*
G01X2804030Y2287600D01*
G01X2805920Y2288380D01*
G01X2807660Y2289450D01*
G01X2809220Y2290780D01*
G01X2810550Y2292340D01*
G01X2811620Y2294080D01*
G01X2812400Y2295970D01*
G01X2812880Y2297960D01*
G01X2813040Y2300000D01*
G01X2813000Y2300510D01*
G01X2813000Y2309490D01*
G01X2813040Y2310000D01*
G01X2812880Y2312040D01*
G01X2812400Y2314030D01*
G01X2811620Y2315920D01*
G01X2810550Y2317660D01*
G01X2809220Y2319220D01*
G01X2808310Y2320000D01*
G01X2809220Y2320780D01*
G01X2810550Y2322340D01*
G01X2811620Y2324080D01*
G01X2812400Y2325970D01*
G01X2812880Y2327960D01*
G01X2813040Y2330000D01*
G01X2812880Y2332040D01*
G01X2812400Y2334030D01*
G01X2811620Y2335920D01*
G01X2810550Y2337660D01*
G01X2809220Y2339220D01*
G01X2808310Y2340000D01*
G01X2809220Y2340780D01*
G01X2810550Y2342340D01*
G01X2811620Y2344080D01*
G01X2812400Y2345970D01*
G01X2812880Y2347960D01*
G01X2813040Y2350000D01*
G01X2813000Y2350510D01*
G01X2813000Y2359490D01*
G01X2813040Y2360000D01*
G01X2812880Y2362040D01*
G01X2812400Y2364030D01*
G01X2811620Y2365920D01*
G01X2810550Y2367660D01*
G01X2809220Y2369220D01*
G01X2807660Y2370550D01*
G01X2805920Y2371620D01*
G01X2804030Y2372400D01*
G01X2802040Y2372880D01*
G01X2800000Y2373040D01*
G01X2799490Y2373000D01*
G01X2425830Y2373000D01*
G01X2425830Y2392000D01*
G01X2639800Y2392000D01*
G01X2640810Y2390810D01*
G01X2643210Y2388770D01*
G01X2645890Y2387120D01*
G01X2648800Y2385920D01*
G01X2651860Y2385190D01*
G01X2655000Y2384940D01*
G01X2658140Y2385190D01*
G01X2661200Y2385920D01*
G01X2664110Y2387120D01*
G01X2666790Y2388770D01*
G01X2669190Y2390810D01*
G01X2670200Y2392000D01*
G01X2799490Y2392000D01*
G01X2800000Y2391960D01*
G01X2802040Y2392120D01*
G01X2804030Y2392600D01*
G01X2805920Y2393380D01*
G01X2807660Y2394450D01*
G01X2809220Y2395780D01*
G01X2810550Y2397340D01*
G01X2811620Y2399080D01*
G01X2812400Y2400970D01*
G01X2812880Y2402960D01*
G01X2813040Y2405000D01*
G01X2813000Y2405510D01*
G01X2813000Y2414490D01*
G01X2813040Y2415000D01*
G01X2812880Y2417040D01*
G01X2812400Y2419030D01*
G01X2811620Y2420920D01*
G01X2810550Y2422660D01*
G01X2809220Y2424220D01*
G01X2808310Y2425000D01*
G37*
G36*
G01X2425830Y2373000D02*
G01X2380200Y2373000D01*
G01X2379190Y2374190D01*
G01X2376790Y2376230D01*
G01X2374110Y2377880D01*
G01X2371200Y2379080D01*
G01X2368140Y2379810D01*
G01X2365000Y2380060D01*
G01X2361860Y2379810D01*
G01X2358800Y2379080D01*
G01X2355890Y2377880D01*
G01X2353210Y2376230D01*
G01X2350810Y2374190D01*
G01X2349800Y2373000D01*
G01X2300000Y2373000D01*
G01X2300000Y2392000D01*
G01X2349800Y2392000D01*
G01X2350810Y2390810D01*
G01X2353210Y2388770D01*
G01X2355890Y2387120D01*
G01X2358800Y2385920D01*
G01X2361860Y2385190D01*
G01X2365000Y2384940D01*
G01X2368140Y2385190D01*
G01X2371200Y2385920D01*
G01X2374110Y2387120D01*
G01X2376790Y2388770D01*
G01X2379190Y2390810D01*
G01X2380200Y2392000D01*
G01X2425830Y2392000D01*
G01X2425830Y2373000D01*
G37*
G36*
G01X2425830Y2258000D02*
G01X2325200Y2258000D01*
G01X2324190Y2259190D01*
G01X2321790Y2261230D01*
G01X2320540Y2262000D01*
G01X2425830Y2262000D01*
G01X2425830Y2258000D01*
G37*
G36*
G01X2425830Y2228000D02*
G01X2375200Y2228000D01*
G01X2374190Y2229190D01*
G01X2371790Y2231230D01*
G01X2370540Y2232000D01*
G01X2425830Y2232000D01*
G01X2425830Y2228000D01*
G37*
G36*
G01X2425830Y2198000D02*
G01X2370540Y2198000D01*
G01X2371790Y2198770D01*
G01X2374190Y2200810D01*
G01X2375200Y2202000D01*
G01X2425830Y2202000D01*
G01X2425830Y2198000D01*
G37*
G36*
G01X2425830Y2168000D02*
G01X2340540Y2168000D01*
G01X2341790Y2168770D01*
G01X2344190Y2170810D01*
G01X2345200Y2172000D01*
G01X2425830Y2172000D01*
G01X2425830Y2168000D01*
G37*
G36*
G01X2425830Y2138000D02*
G01X2300000Y2138000D01*
G01X2300000Y2142000D01*
G01X2425830Y2142000D01*
G01X2425830Y2138000D01*
G37*
G36*
G01X2425830Y1580000D02*
G01X2300000Y1580000D01*
G01X2300000Y1825110D01*
G01X2300730Y1824580D01*
G01X2307630Y1820500D01*
G01X2314860Y1817050D01*
G01X2322380Y1814250D01*
G01X2330110Y1812130D01*
G01X2338000Y1810710D01*
G01X2345990Y1810000D01*
G01X2354010Y1810000D01*
G01X2362000Y1810710D01*
G01X2369890Y1812130D01*
G01X2377620Y1814250D01*
G01X2385140Y1817050D01*
G01X2392370Y1820500D01*
G01X2399270Y1824580D01*
G01X2405790Y1829260D01*
G01X2406380Y1829800D01*
G01X2406870Y1830430D01*
G01X2407260Y1831120D01*
G01X2407540Y1831870D01*
G01X2407690Y1832660D01*
G01X2407720Y1833460D01*
G01X2407630Y1834250D01*
G01X2407410Y1835020D01*
G01X2407080Y1835750D01*
G01X2406630Y1836410D01*
G01X2406090Y1837000D01*
G01X2405460Y1837490D01*
G01X2404770Y1837880D01*
G01X2404020Y1838160D01*
G01X2403230Y1838320D01*
G01X2402430Y1838350D01*
G01X2401640Y1838250D01*
G01X2400870Y1838040D01*
G01X2400140Y1837700D01*
G01X2399490Y1837240D01*
G01X2393760Y1833030D01*
G01X2387630Y1829400D01*
G01X2381200Y1826340D01*
G01X2374530Y1823850D01*
G01X2367660Y1821970D01*
G01X2360650Y1820710D01*
G01X2353560Y1820080D01*
G01X2346440Y1820080D01*
G01X2339350Y1820710D01*
G01X2332340Y1821970D01*
G01X2325470Y1823850D01*
G01X2318800Y1826340D01*
G01X2312370Y1829400D01*
G01X2306240Y1833030D01*
G01X2300460Y1837180D01*
G01X2300000Y1837500D01*
G01X2300000Y1962400D01*
G01X2300510Y1962760D01*
G01X2306240Y1966970D01*
G01X2312370Y1970600D01*
G01X2318800Y1973660D01*
G01X2325470Y1976150D01*
G01X2332340Y1978030D01*
G01X2339350Y1979290D01*
G01X2346440Y1979920D01*
G01X2353560Y1979920D01*
G01X2360650Y1979290D01*
G01X2367660Y1978030D01*
G01X2374530Y1976150D01*
G01X2381200Y1973660D01*
G01X2387630Y1970600D01*
G01X2393760Y1966970D01*
G01X2399540Y1962820D01*
G01X2400180Y1962370D01*
G01X2400900Y1962040D01*
G01X2401650Y1961820D01*
G01X2402440Y1961730D01*
G01X2403220Y1961760D01*
G01X2403990Y1961920D01*
G01X2404730Y1962190D01*
G01X2405420Y1962570D01*
G01X2406040Y1963060D01*
G01X2406570Y1963640D01*
G01X2407010Y1964290D01*
G01X2407340Y1965010D01*
G01X2407550Y1965760D01*
G01X2407650Y1966550D01*
G01X2407610Y1967330D01*
G01X2407460Y1968100D01*
G01X2407190Y1968840D01*
G01X2406800Y1969530D01*
G01X2406320Y1970150D01*
G01X2405730Y1970670D01*
G01X2399270Y1975420D01*
G01X2392370Y1979500D01*
G01X2385140Y1982950D01*
G01X2377620Y1985750D01*
G01X2369890Y1987870D01*
G01X2362000Y1989290D01*
G01X2354010Y1990000D01*
G01X2345990Y1990000D01*
G01X2338000Y1989290D01*
G01X2330110Y1987870D01*
G01X2322380Y1985750D01*
G01X2314860Y1982950D01*
G01X2307630Y1979500D01*
G01X2300730Y1975420D01*
G01X2300000Y1974900D01*
G01X2300000Y2112000D01*
G01X2425830Y2112000D01*
G01X2425830Y1948590D01*
G01X2425420Y1949270D01*
G01X2420740Y1955790D01*
G01X2420200Y1956380D01*
G01X2419570Y1956870D01*
G01X2418880Y1957260D01*
G01X2418130Y1957540D01*
G01X2417340Y1957690D01*
G01X2416540Y1957720D01*
G01X2415750Y1957630D01*
G01X2414980Y1957410D01*
G01X2414250Y1957080D01*
G01X2413590Y1956630D01*
G01X2413000Y1956090D01*
G01X2412510Y1955460D01*
G01X2412120Y1954770D01*
G01X2411840Y1954020D01*
G01X2411680Y1953230D01*
G01X2411650Y1952430D01*
G01X2411750Y1951640D01*
G01X2411960Y1950870D01*
G01X2412300Y1950140D01*
G01X2412760Y1949490D01*
G01X2416970Y1943760D01*
G01X2420600Y1937630D01*
G01X2423660Y1931200D01*
G01X2425830Y1925390D01*
G01X2425830Y1874610D01*
G01X2423660Y1868800D01*
G01X2420600Y1862370D01*
G01X2416970Y1856240D01*
G01X2412820Y1850460D01*
G01X2412370Y1849820D01*
G01X2412040Y1849100D01*
G01X2411820Y1848350D01*
G01X2411730Y1847560D01*
G01X2411760Y1846780D01*
G01X2411920Y1846010D01*
G01X2412190Y1845270D01*
G01X2412570Y1844580D01*
G01X2413060Y1843960D01*
G01X2413640Y1843430D01*
G01X2414290Y1842990D01*
G01X2415010Y1842660D01*
G01X2415760Y1842450D01*
G01X2416550Y1842350D01*
G01X2417330Y1842390D01*
G01X2418100Y1842540D01*
G01X2418840Y1842810D01*
G01X2419530Y1843200D01*
G01X2420150Y1843680D01*
G01X2420670Y1844270D01*
G01X2425420Y1850730D01*
G01X2425830Y1851410D01*
G01X2425830Y1580000D01*
G37*
G36*
G01X2300000Y2138000D02*
G01X2245200Y2138000D01*
G01X2244190Y2139190D01*
G01X2241790Y2141230D01*
G01X2240540Y2142000D01*
G01X2300000Y2142000D01*
G01X2300000Y2138000D01*
G37*
G36*
G01X2274170Y2392000D02*
G01X2300000Y2392000D01*
G01X2300000Y2373000D01*
G01X2274170Y2373000D01*
G01X2274170Y2392000D01*
G37*
G36*
G01X2300000Y1580000D02*
G01X2283000Y1580000D01*
G01X2283000Y1599490D01*
G01X2283040Y1600000D01*
G01X2282880Y1602040D01*
G01X2282880Y1602040D01*
G01X2282520Y1603550D01*
G01X2282400Y1604030D01*
G01X2282080Y1604810D01*
G01X2281620Y1605920D01*
G01X2281200Y1606600D01*
G01X2280550Y1607660D01*
G01X2280550Y1607670D01*
G01X2279220Y1609220D01*
G01X2278830Y1609550D01*
G01X2274170Y1614210D01*
G01X2274170Y1664190D01*
G01X2274810Y1666860D01*
G01X2275000Y1670000D01*
G01X2274810Y1673140D01*
G01X2274170Y1675810D01*
G01X2274170Y1851410D01*
G01X2274580Y1850730D01*
G01X2279260Y1844210D01*
G01X2279800Y1843620D01*
G01X2280430Y1843130D01*
G01X2281120Y1842740D01*
G01X2281870Y1842460D01*
G01X2282660Y1842310D01*
G01X2283460Y1842280D01*
G01X2284250Y1842370D01*
G01X2285020Y1842590D01*
G01X2285750Y1842920D01*
G01X2286410Y1843370D01*
G01X2287000Y1843910D01*
G01X2287490Y1844540D01*
G01X2287880Y1845230D01*
G01X2288160Y1845980D01*
G01X2288320Y1846770D01*
G01X2288350Y1847570D01*
G01X2288250Y1848360D01*
G01X2288040Y1849130D01*
G01X2287700Y1849860D01*
G01X2287240Y1850510D01*
G01X2283030Y1856240D01*
G01X2279400Y1862370D01*
G01X2276340Y1868800D01*
G01X2274170Y1874610D01*
G01X2274170Y1925390D01*
G01X2276340Y1931200D01*
G01X2279400Y1937630D01*
G01X2283030Y1943760D01*
G01X2287180Y1949540D01*
G01X2287630Y1950180D01*
G01X2287960Y1950900D01*
G01X2288180Y1951650D01*
G01X2288270Y1952440D01*
G01X2288240Y1953220D01*
G01X2288080Y1953990D01*
G01X2287810Y1954730D01*
G01X2287430Y1955420D01*
G01X2286940Y1956040D01*
G01X2286360Y1956570D01*
G01X2285710Y1957010D01*
G01X2284990Y1957340D01*
G01X2284240Y1957550D01*
G01X2283450Y1957650D01*
G01X2282670Y1957610D01*
G01X2281900Y1957460D01*
G01X2281160Y1957190D01*
G01X2280470Y1956800D01*
G01X2279850Y1956320D01*
G01X2279330Y1955730D01*
G01X2274580Y1949270D01*
G01X2274170Y1948590D01*
G01X2274170Y2112000D01*
G01X2300000Y2112000D01*
G01X2300000Y1974900D01*
G01X2294210Y1970740D01*
G01X2293620Y1970200D01*
G01X2293130Y1969570D01*
G01X2292740Y1968880D01*
G01X2292460Y1968130D01*
G01X2292310Y1967340D01*
G01X2292280Y1966540D01*
G01X2292370Y1965750D01*
G01X2292590Y1964980D01*
G01X2292920Y1964250D01*
G01X2293370Y1963590D01*
G01X2293910Y1963000D01*
G01X2294540Y1962510D01*
G01X2295230Y1962120D01*
G01X2295980Y1961840D01*
G01X2296770Y1961680D01*
G01X2297570Y1961650D01*
G01X2298360Y1961750D01*
G01X2299130Y1961960D01*
G01X2299860Y1962300D01*
G01X2300000Y1962400D01*
G01X2300000Y1837500D01*
G01X2299820Y1837630D01*
G01X2299100Y1837960D01*
G01X2298350Y1838180D01*
G01X2297560Y1838270D01*
G01X2296780Y1838240D01*
G01X2296010Y1838080D01*
G01X2295270Y1837810D01*
G01X2294580Y1837430D01*
G01X2293960Y1836940D01*
G01X2293430Y1836360D01*
G01X2292990Y1835710D01*
G01X2292660Y1834990D01*
G01X2292450Y1834240D01*
G01X2292350Y1833450D01*
G01X2292390Y1832670D01*
G01X2292540Y1831900D01*
G01X2292810Y1831160D01*
G01X2293200Y1830470D01*
G01X2293680Y1829850D01*
G01X2294270Y1829330D01*
G01X2300000Y1825110D01*
G01X2300000Y1580000D01*
G37*
G36*
G01X2274170Y1874610D02*
G01X2273850Y1875470D01*
G01X2271970Y1882340D01*
G01X2270710Y1889350D01*
G01X2270080Y1896440D01*
G01X2270080Y1903560D01*
G01X2270710Y1910650D01*
G01X2271970Y1917660D01*
G01X2273850Y1924530D01*
G01X2274170Y1925390D01*
G01X2274170Y1874610D01*
G37*
G36*
G01X1375830Y2475390D02*
G01X1376150Y2474530D01*
G01X1378030Y2467660D01*
G01X1379290Y2460650D01*
G01X1379920Y2453560D01*
G01X1379920Y2446440D01*
G01X1379290Y2439350D01*
G01X1378030Y2432340D01*
G01X1376150Y2425470D01*
G01X1375830Y2424610D01*
G01X1375830Y2475390D01*
G37*
G36*
G01X1375830Y2842000D02*
G01X1379520Y2842000D01*
G01X1379290Y2839350D01*
G01X1378030Y2832340D01*
G01X1376150Y2825470D01*
G01X1375830Y2824610D01*
G01X1375830Y2842000D01*
G37*
G36*
G01X2274170Y1675810D02*
G01X2274080Y1676200D01*
G01X2272880Y1679110D01*
G01X2271230Y1681790D01*
G01X2269190Y1684190D01*
G01X2266790Y1686230D01*
G01X2264110Y1687880D01*
G01X2261200Y1689080D01*
G01X2258140Y1689810D01*
G01X2255000Y1690060D01*
G01X2251860Y1689810D01*
G01X2248800Y1689080D01*
G01X2245890Y1687880D01*
G01X2243210Y1686230D01*
G01X2240810Y1684190D01*
G01X2238770Y1681790D01*
G01X2237120Y1679110D01*
G01X2235920Y1676200D01*
G01X2235190Y1673140D01*
G01X2234940Y1670000D01*
G01X2235190Y1666860D01*
G01X2235920Y1663800D01*
G01X2237120Y1660890D01*
G01X2238770Y1658210D01*
G01X2240810Y1655810D01*
G01X2242000Y1654800D01*
G01X2242000Y1615510D01*
G01X2241960Y1615000D01*
G01X2242120Y1612960D01*
G01X2242120Y1612960D01*
G01X2242600Y1610970D01*
G01X2243380Y1609080D01*
G01X2243790Y1608420D01*
G01X2244450Y1607340D01*
G01X2244450Y1607330D01*
G01X2245780Y1605780D01*
G01X2246170Y1605450D01*
G01X2257000Y1594620D01*
G01X2257000Y1587960D01*
G01X2253900Y1587940D01*
G01X2252830Y1587680D01*
G01X2251810Y1587260D01*
G01X2251500Y1587060D01*
G01X2251190Y1587260D01*
G01X2250170Y1587680D01*
G01X2249100Y1587940D01*
G01X2248000Y1588000D01*
G01X2240900Y1587940D01*
G01X2239830Y1587680D01*
G01X2238810Y1587260D01*
G01X2237870Y1586680D01*
G01X2237040Y1585960D01*
G01X2236320Y1585130D01*
G01X2235740Y1584190D01*
G01X2235320Y1583170D01*
G01X2235280Y1583000D01*
G01X2220510Y1583000D01*
G01X2220000Y1583040D01*
G01X2217960Y1582880D01*
G01X2215970Y1582400D01*
G01X2214080Y1581620D01*
G01X2212340Y1580550D01*
G01X2212330Y1580550D01*
G01X2211690Y1580000D01*
G01X1893930Y1580000D01*
G01X1894510Y1580490D01*
G01X1895210Y1581320D01*
G01X1998680Y1684790D01*
G01X1999510Y1685490D01*
G01X2002310Y1688780D01*
G01X2002320Y1688790D01*
G01X2004580Y1692480D01*
G01X2006230Y1696480D01*
G01X2007250Y1700680D01*
G01X2007580Y1705000D01*
G01X2007250Y1709320D01*
G01X2006230Y1713520D01*
G01X2004580Y1717520D01*
G01X2002320Y1721210D01*
G01X1999510Y1724510D01*
G01X1996210Y1727320D01*
G01X1992520Y1729580D01*
G01X1988520Y1731230D01*
G01X1984320Y1732250D01*
G01X1980000Y1732580D01*
G01X1975680Y1732250D01*
G01X1971480Y1731230D01*
G01X1967480Y1729580D01*
G01X1963790Y1727320D01*
G01X1963780Y1727310D01*
G01X1960490Y1724510D01*
G01X1959790Y1723680D01*
G01X1863610Y1627500D01*
G01X1375830Y1627500D01*
G01X1375830Y2401410D01*
G01X1379500Y2407630D01*
G01X1382950Y2414860D01*
G01X1385750Y2422380D01*
G01X1387870Y2430110D01*
G01X1389290Y2438000D01*
G01X1390000Y2445990D01*
G01X1390000Y2454010D01*
G01X1389290Y2462000D01*
G01X1387870Y2469890D01*
G01X1385750Y2477620D01*
G01X1382950Y2485140D01*
G01X1379500Y2492370D01*
G01X1375830Y2498590D01*
G01X1375830Y2801410D01*
G01X1379500Y2807630D01*
G01X1382950Y2814860D01*
G01X1385750Y2822380D01*
G01X1387870Y2830110D01*
G01X1389290Y2838000D01*
G01X1389640Y2842000D01*
G01X1778350Y2842000D01*
G01X1777680Y2841210D01*
G01X1775420Y2837520D01*
G01X1773770Y2833520D01*
G01X1772750Y2829320D01*
G01X1772420Y2825000D01*
G01X1772750Y2820680D01*
G01X1773770Y2816480D01*
G01X1775420Y2812480D01*
G01X1777680Y2808790D01*
G01X1780490Y2805490D01*
G01X1783790Y2802680D01*
G01X1784090Y2802500D01*
G01X1783790Y2802320D01*
G01X1780490Y2799510D01*
G01X1777680Y2796210D01*
G01X1775420Y2792520D01*
G01X1773770Y2788520D01*
G01X1772750Y2784320D01*
G01X1772420Y2780000D01*
G01X1772750Y2775680D01*
G01X1773770Y2771480D01*
G01X1775420Y2767480D01*
G01X1777680Y2763790D01*
G01X1780490Y2760490D01*
G01X1783790Y2757680D01*
G01X1784090Y2757500D01*
G01X1783790Y2757320D01*
G01X1780490Y2754510D01*
G01X1777680Y2751210D01*
G01X1775420Y2747520D01*
G01X1773770Y2743520D01*
G01X1772750Y2739320D01*
G01X1772420Y2735000D01*
G01X1772750Y2730680D01*
G01X1773770Y2726480D01*
G01X1775420Y2722480D01*
G01X1777680Y2718790D01*
G01X1780490Y2715490D01*
G01X1783790Y2712680D01*
G01X1784090Y2712500D01*
G01X1783790Y2712320D01*
G01X1780490Y2709510D01*
G01X1777680Y2706210D01*
G01X1775420Y2702520D01*
G01X1773770Y2698520D01*
G01X1772750Y2694320D01*
G01X1772420Y2690000D01*
G01X1772750Y2685680D01*
G01X1773770Y2681480D01*
G01X1775420Y2677480D01*
G01X1777680Y2673790D01*
G01X1780490Y2670490D01*
G01X1783790Y2667680D01*
G01X1784090Y2667500D01*
G01X1783790Y2667320D01*
G01X1780490Y2664510D01*
G01X1777680Y2661210D01*
G01X1775420Y2657520D01*
G01X1773770Y2653520D01*
G01X1772750Y2649320D01*
G01X1772420Y2645000D01*
G01X1772750Y2640680D01*
G01X1773770Y2636480D01*
G01X1775420Y2632480D01*
G01X1777680Y2628790D01*
G01X1780490Y2625490D01*
G01X1783790Y2622680D01*
G01X1784090Y2622500D01*
G01X1783790Y2622320D01*
G01X1780490Y2619510D01*
G01X1777680Y2616210D01*
G01X1775420Y2612520D01*
G01X1773770Y2608520D01*
G01X1772750Y2604320D01*
G01X1772420Y2600000D01*
G01X1772750Y2595680D01*
G01X1773770Y2591480D01*
G01X1775420Y2587480D01*
G01X1777680Y2583790D01*
G01X1780490Y2580490D01*
G01X1783790Y2577680D01*
G01X1786430Y2576060D01*
G01X1785800Y2575320D01*
G01X1784360Y2572970D01*
G01X1783310Y2570420D01*
G01X1782660Y2567750D01*
G01X1782450Y2565000D01*
G01X1782660Y2562250D01*
G01X1783310Y2559580D01*
G01X1784360Y2557030D01*
G01X1785800Y2554680D01*
G01X1787590Y2552590D01*
G01X1787690Y2552500D01*
G01X1787590Y2552410D01*
G01X1785800Y2550320D01*
G01X1784360Y2547970D01*
G01X1783310Y2545420D01*
G01X1782660Y2542750D01*
G01X1782450Y2540000D01*
G01X1782660Y2537250D01*
G01X1783310Y2534580D01*
G01X1784360Y2532030D01*
G01X1785800Y2529680D01*
G01X1787590Y2527590D01*
G01X1787690Y2527500D01*
G01X1787590Y2527410D01*
G01X1785800Y2525320D01*
G01X1784360Y2522970D01*
G01X1783310Y2520420D01*
G01X1782660Y2517750D01*
G01X1782450Y2515000D01*
G01X1782660Y2512250D01*
G01X1783310Y2509580D01*
G01X1784360Y2507030D01*
G01X1785800Y2504680D01*
G01X1787590Y2502590D01*
G01X1787690Y2502500D01*
G01X1787590Y2502410D01*
G01X1785800Y2500320D01*
G01X1784360Y2497970D01*
G01X1783310Y2495420D01*
G01X1782660Y2492750D01*
G01X1782450Y2490000D01*
G01X1782660Y2487250D01*
G01X1783310Y2484580D01*
G01X1784360Y2482030D01*
G01X1785800Y2479680D01*
G01X1787590Y2477590D01*
G01X1789680Y2475800D01*
G01X1791400Y2474750D01*
G01X1790780Y2474220D01*
G01X1789450Y2472660D01*
G01X1788380Y2470920D01*
G01X1787600Y2469030D01*
G01X1787120Y2467040D01*
G01X1786960Y2465000D01*
G01X1787000Y2464490D01*
G01X1787000Y2455510D01*
G01X1786960Y2455000D01*
G01X1787120Y2452960D01*
G01X1787600Y2450970D01*
G01X1788380Y2449080D01*
G01X1789450Y2447340D01*
G01X1790780Y2445780D01*
G01X1791690Y2445000D01*
G01X1790780Y2444220D01*
G01X1789450Y2442660D01*
G01X1788380Y2440920D01*
G01X1787600Y2439030D01*
G01X1787120Y2437040D01*
G01X1786960Y2435000D01*
G01X1787120Y2432960D01*
G01X1787600Y2430970D01*
G01X1788380Y2429080D01*
G01X1789450Y2427340D01*
G01X1790780Y2425780D01*
G01X1791690Y2425000D01*
G01X1790780Y2424220D01*
G01X1789450Y2422660D01*
G01X1788380Y2420920D01*
G01X1787600Y2419030D01*
G01X1787120Y2417040D01*
G01X1786960Y2415000D01*
G01X1787000Y2414490D01*
G01X1787000Y2405510D01*
G01X1786960Y2405000D01*
G01X1787120Y2402960D01*
G01X1787600Y2400970D01*
G01X1788380Y2399080D01*
G01X1789450Y2397340D01*
G01X1790780Y2395780D01*
G01X1792340Y2394450D01*
G01X1794080Y2393380D01*
G01X1795970Y2392600D01*
G01X1797960Y2392120D01*
G01X1800000Y2391960D01*
G01X1800510Y2392000D01*
G01X1939800Y2392000D01*
G01X1940810Y2390810D01*
G01X1943210Y2388770D01*
G01X1945890Y2387120D01*
G01X1948800Y2385920D01*
G01X1951860Y2385190D01*
G01X1955000Y2384940D01*
G01X1958140Y2385190D01*
G01X1961200Y2385920D01*
G01X1964110Y2387120D01*
G01X1966790Y2388770D01*
G01X1969190Y2390810D01*
G01X1970200Y2392000D01*
G01X2274170Y2392000D01*
G01X2274170Y2373000D01*
G01X1800510Y2373000D01*
G01X1800000Y2373040D01*
G01X1797960Y2372880D01*
G01X1795970Y2372400D01*
G01X1794080Y2371620D01*
G01X1792340Y2370550D01*
G01X1790780Y2369220D01*
G01X1789450Y2367660D01*
G01X1788380Y2365920D01*
G01X1787600Y2364030D01*
G01X1787120Y2362040D01*
G01X1786960Y2360000D01*
G01X1787000Y2359490D01*
G01X1787000Y2350510D01*
G01X1786960Y2350000D01*
G01X1787120Y2347960D01*
G01X1787600Y2345970D01*
G01X1788380Y2344080D01*
G01X1789450Y2342340D01*
G01X1790780Y2340780D01*
G01X1791690Y2340000D01*
G01X1790780Y2339220D01*
G01X1789450Y2337660D01*
G01X1788380Y2335920D01*
G01X1787600Y2334030D01*
G01X1787120Y2332040D01*
G01X1786960Y2330000D01*
G01X1787120Y2327960D01*
G01X1787600Y2325970D01*
G01X1788380Y2324080D01*
G01X1789450Y2322340D01*
G01X1790780Y2320780D01*
G01X1791690Y2320000D01*
G01X1790780Y2319220D01*
G01X1789450Y2317660D01*
G01X1788380Y2315920D01*
G01X1787600Y2314030D01*
G01X1787120Y2312040D01*
G01X1786960Y2310000D01*
G01X1787000Y2309490D01*
G01X1787000Y2300510D01*
G01X1786960Y2300000D01*
G01X1787120Y2297960D01*
G01X1787600Y2295970D01*
G01X1788380Y2294080D01*
G01X1789450Y2292340D01*
G01X1790780Y2290780D01*
G01X1792340Y2289450D01*
G01X1794080Y2288380D01*
G01X1795970Y2287600D01*
G01X1796380Y2287500D01*
G01X1795970Y2287400D01*
G01X1794080Y2286620D01*
G01X1792340Y2285550D01*
G01X1790780Y2284220D01*
G01X1789450Y2282660D01*
G01X1788380Y2280920D01*
G01X1787600Y2279030D01*
G01X1787120Y2277040D01*
G01X1786960Y2275000D01*
G01X1787120Y2272960D01*
G01X1787600Y2270970D01*
G01X1788380Y2269080D01*
G01X1789450Y2267340D01*
G01X1790780Y2265780D01*
G01X1792340Y2264450D01*
G01X1794080Y2263380D01*
G01X1795970Y2262600D01*
G01X1797960Y2262120D01*
G01X1800000Y2262000D01*
G01X1899460Y2262000D01*
G01X1898210Y2261230D01*
G01X1895810Y2259190D01*
G01X1894800Y2258000D01*
G01X1800000Y2258000D01*
G01X1797960Y2257880D01*
G01X1795970Y2257400D01*
G01X1794080Y2256620D01*
G01X1792340Y2255550D01*
G01X1790780Y2254220D01*
G01X1789450Y2252660D01*
G01X1788380Y2250920D01*
G01X1787600Y2249030D01*
G01X1787120Y2247040D01*
G01X1786960Y2245000D01*
G01X1787120Y2242960D01*
G01X1787600Y2240970D01*
G01X1788380Y2239080D01*
G01X1789450Y2237340D01*
G01X1790780Y2235780D01*
G01X1792340Y2234450D01*
G01X1794080Y2233380D01*
G01X1795970Y2232600D01*
G01X1797960Y2232120D01*
G01X1800000Y2232000D01*
G01X1849460Y2232000D01*
G01X1848210Y2231230D01*
G01X1845810Y2229190D01*
G01X1844800Y2228000D01*
G01X1800000Y2228000D01*
G01X1797960Y2227880D01*
G01X1795970Y2227400D01*
G01X1794080Y2226620D01*
G01X1792340Y2225550D01*
G01X1790780Y2224220D01*
G01X1789450Y2222660D01*
G01X1788380Y2220920D01*
G01X1787600Y2219030D01*
G01X1787120Y2217040D01*
G01X1786960Y2215000D01*
G01X1787120Y2212960D01*
G01X1787600Y2210970D01*
G01X1788380Y2209080D01*
G01X1789450Y2207340D01*
G01X1790780Y2205780D01*
G01X1792340Y2204450D01*
G01X1794080Y2203380D01*
G01X1795970Y2202600D01*
G01X1797960Y2202120D01*
G01X1800000Y2202000D01*
G01X1824460Y2202000D01*
G01X1823210Y2201230D01*
G01X1820810Y2199190D01*
G01X1819800Y2198000D01*
G01X1800000Y2198000D01*
G01X1797960Y2197880D01*
G01X1795970Y2197400D01*
G01X1794080Y2196620D01*
G01X1792340Y2195550D01*
G01X1790780Y2194220D01*
G01X1789450Y2192660D01*
G01X1788380Y2190920D01*
G01X1787600Y2189030D01*
G01X1787120Y2187040D01*
G01X1786960Y2185000D01*
G01X1787120Y2182960D01*
G01X1787600Y2180970D01*
G01X1788380Y2179080D01*
G01X1789450Y2177340D01*
G01X1790780Y2175780D01*
G01X1792340Y2174450D01*
G01X1794080Y2173380D01*
G01X1795970Y2172600D01*
G01X1797960Y2172120D01*
G01X1800000Y2172000D01*
G01X1819800Y2172000D01*
G01X1820810Y2170810D01*
G01X1823210Y2168770D01*
G01X1824460Y2168000D01*
G01X1800000Y2168000D01*
G01X1797960Y2167880D01*
G01X1795970Y2167400D01*
G01X1794080Y2166620D01*
G01X1792340Y2165550D01*
G01X1790780Y2164220D01*
G01X1789450Y2162660D01*
G01X1788380Y2160920D01*
G01X1787600Y2159030D01*
G01X1787120Y2157040D01*
G01X1786960Y2155000D01*
G01X1787120Y2152960D01*
G01X1787600Y2150970D01*
G01X1788380Y2149080D01*
G01X1789450Y2147340D01*
G01X1790780Y2145780D01*
G01X1792340Y2144450D01*
G01X1794080Y2143380D01*
G01X1795970Y2142600D01*
G01X1797960Y2142120D01*
G01X1800000Y2142000D01*
G01X1879460Y2142000D01*
G01X1878210Y2141230D01*
G01X1875810Y2139190D01*
G01X1874800Y2138000D01*
G01X1800000Y2138000D01*
G01X1797960Y2137880D01*
G01X1795970Y2137400D01*
G01X1794080Y2136620D01*
G01X1792340Y2135550D01*
G01X1790780Y2134220D01*
G01X1789450Y2132660D01*
G01X1788380Y2130920D01*
G01X1787600Y2129030D01*
G01X1787120Y2127040D01*
G01X1786960Y2125000D01*
G01X1787120Y2122960D01*
G01X1787600Y2120970D01*
G01X1788380Y2119080D01*
G01X1789450Y2117340D01*
G01X1790780Y2115780D01*
G01X1792340Y2114450D01*
G01X1794080Y2113380D01*
G01X1795970Y2112600D01*
G01X1797960Y2112120D01*
G01X1800000Y2112000D01*
G01X1874800Y2112000D01*
G01X1875810Y2110810D01*
G01X1878210Y2108770D01*
G01X1880890Y2107120D01*
G01X1883800Y2105920D01*
G01X1886860Y2105190D01*
G01X1890000Y2104940D01*
G01X1893140Y2105190D01*
G01X1896200Y2105920D01*
G01X1899110Y2107120D01*
G01X1901790Y2108770D01*
G01X1904190Y2110810D01*
G01X1905200Y2112000D01*
G01X2214800Y2112000D01*
G01X2215810Y2110810D01*
G01X2218210Y2108770D01*
G01X2220890Y2107120D01*
G01X2223800Y2105920D01*
G01X2226860Y2105190D01*
G01X2230000Y2104940D01*
G01X2233140Y2105190D01*
G01X2236200Y2105920D01*
G01X2239110Y2107120D01*
G01X2241790Y2108770D01*
G01X2244190Y2110810D01*
G01X2245200Y2112000D01*
G01X2274170Y2112000D01*
G01X2274170Y1948590D01*
G01X2270500Y1942370D01*
G01X2267050Y1935140D01*
G01X2264250Y1927620D01*
G01X2262130Y1919890D01*
G01X2260710Y1912000D01*
G01X2260000Y1904010D01*
G01X2260000Y1895990D01*
G01X2260710Y1888000D01*
G01X2262130Y1880110D01*
G01X2264250Y1872380D01*
G01X2267050Y1864860D01*
G01X2270500Y1857630D01*
G01X2274170Y1851410D01*
G01X2274170Y1675810D01*
G37*
G36*
G01X1375830Y1627500D02*
G01X1316080Y1627500D01*
G01X1315000Y1627580D01*
G01X1310680Y1627250D01*
G01X1306480Y1626230D01*
G01X1302480Y1624580D01*
G01X1300000Y1623060D01*
G01X1300000Y2360000D01*
G01X1304010Y2360000D01*
G01X1312000Y2360710D01*
G01X1319890Y2362130D01*
G01X1327620Y2364250D01*
G01X1335140Y2367050D01*
G01X1342370Y2370500D01*
G01X1349270Y2374580D01*
G01X1355790Y2379260D01*
G01X1356380Y2379800D01*
G01X1356870Y2380430D01*
G01X1357260Y2381120D01*
G01X1357540Y2381870D01*
G01X1357690Y2382660D01*
G01X1357720Y2383460D01*
G01X1357630Y2384250D01*
G01X1357410Y2385020D01*
G01X1357080Y2385750D01*
G01X1356630Y2386410D01*
G01X1356090Y2387000D01*
G01X1355460Y2387490D01*
G01X1354770Y2387880D01*
G01X1354020Y2388160D01*
G01X1353230Y2388320D01*
G01X1352430Y2388350D01*
G01X1351640Y2388250D01*
G01X1350870Y2388040D01*
G01X1350140Y2387700D01*
G01X1349490Y2387240D01*
G01X1343760Y2383030D01*
G01X1337630Y2379400D01*
G01X1331200Y2376340D01*
G01X1324530Y2373850D01*
G01X1317660Y2371970D01*
G01X1310650Y2370710D01*
G01X1303560Y2370080D01*
G01X1300000Y2370080D01*
G01X1300000Y2529920D01*
G01X1303560Y2529920D01*
G01X1310650Y2529290D01*
G01X1317660Y2528030D01*
G01X1324530Y2526150D01*
G01X1331200Y2523660D01*
G01X1337630Y2520600D01*
G01X1343760Y2516970D01*
G01X1349540Y2512820D01*
G01X1350180Y2512370D01*
G01X1350900Y2512040D01*
G01X1351650Y2511820D01*
G01X1352440Y2511730D01*
G01X1353220Y2511760D01*
G01X1353990Y2511920D01*
G01X1354730Y2512190D01*
G01X1355420Y2512570D01*
G01X1356040Y2513060D01*
G01X1356570Y2513640D01*
G01X1357010Y2514290D01*
G01X1357340Y2515010D01*
G01X1357550Y2515760D01*
G01X1357650Y2516550D01*
G01X1357610Y2517330D01*
G01X1357460Y2518100D01*
G01X1357190Y2518840D01*
G01X1356800Y2519530D01*
G01X1356320Y2520150D01*
G01X1355730Y2520670D01*
G01X1349270Y2525420D01*
G01X1342370Y2529500D01*
G01X1335140Y2532950D01*
G01X1327620Y2535750D01*
G01X1319890Y2537870D01*
G01X1312000Y2539290D01*
G01X1304010Y2540000D01*
G01X1300000Y2540000D01*
G01X1300000Y2760000D01*
G01X1304010Y2760000D01*
G01X1312000Y2760710D01*
G01X1319890Y2762130D01*
G01X1327620Y2764250D01*
G01X1335140Y2767050D01*
G01X1342370Y2770500D01*
G01X1349270Y2774580D01*
G01X1355790Y2779260D01*
G01X1356380Y2779800D01*
G01X1356870Y2780430D01*
G01X1357260Y2781120D01*
G01X1357540Y2781870D01*
G01X1357690Y2782660D01*
G01X1357720Y2783460D01*
G01X1357630Y2784250D01*
G01X1357410Y2785020D01*
G01X1357080Y2785750D01*
G01X1356630Y2786410D01*
G01X1356090Y2787000D01*
G01X1355460Y2787490D01*
G01X1354770Y2787880D01*
G01X1354020Y2788160D01*
G01X1353230Y2788320D01*
G01X1352430Y2788350D01*
G01X1351640Y2788250D01*
G01X1350870Y2788040D01*
G01X1350140Y2787700D01*
G01X1349490Y2787240D01*
G01X1343760Y2783030D01*
G01X1337630Y2779400D01*
G01X1331200Y2776340D01*
G01X1324530Y2773850D01*
G01X1317660Y2771970D01*
G01X1310650Y2770710D01*
G01X1303560Y2770080D01*
G01X1300000Y2770080D01*
G01X1300000Y2842000D01*
G01X1375830Y2842000D01*
G01X1375830Y2824610D01*
G01X1373660Y2818800D01*
G01X1370600Y2812370D01*
G01X1366970Y2806240D01*
G01X1362820Y2800460D01*
G01X1362370Y2799820D01*
G01X1362040Y2799100D01*
G01X1361820Y2798350D01*
G01X1361730Y2797560D01*
G01X1361760Y2796780D01*
G01X1361920Y2796010D01*
G01X1362190Y2795270D01*
G01X1362570Y2794580D01*
G01X1363060Y2793960D01*
G01X1363640Y2793430D01*
G01X1364290Y2792990D01*
G01X1365010Y2792660D01*
G01X1365760Y2792450D01*
G01X1366550Y2792350D01*
G01X1367330Y2792390D01*
G01X1368100Y2792540D01*
G01X1368840Y2792810D01*
G01X1369530Y2793200D01*
G01X1370150Y2793680D01*
G01X1370670Y2794270D01*
G01X1375420Y2800730D01*
G01X1375830Y2801410D01*
G01X1375830Y2498590D01*
G01X1375420Y2499270D01*
G01X1370740Y2505790D01*
G01X1370200Y2506380D01*
G01X1369570Y2506870D01*
G01X1368880Y2507260D01*
G01X1368130Y2507540D01*
G01X1367340Y2507690D01*
G01X1366540Y2507720D01*
G01X1365750Y2507630D01*
G01X1364980Y2507410D01*
G01X1364250Y2507080D01*
G01X1363590Y2506630D01*
G01X1363000Y2506090D01*
G01X1362510Y2505460D01*
G01X1362120Y2504770D01*
G01X1361840Y2504020D01*
G01X1361680Y2503230D01*
G01X1361650Y2502430D01*
G01X1361750Y2501640D01*
G01X1361960Y2500870D01*
G01X1362300Y2500140D01*
G01X1362760Y2499490D01*
G01X1366970Y2493760D01*
G01X1370600Y2487630D01*
G01X1373660Y2481200D01*
G01X1375830Y2475390D01*
G01X1375830Y2424610D01*
G01X1373660Y2418800D01*
G01X1370600Y2412370D01*
G01X1366970Y2406240D01*
G01X1362820Y2400460D01*
G01X1362370Y2399820D01*
G01X1362040Y2399100D01*
G01X1361820Y2398350D01*
G01X1361730Y2397560D01*
G01X1361760Y2396780D01*
G01X1361920Y2396010D01*
G01X1362190Y2395270D01*
G01X1362570Y2394580D01*
G01X1363060Y2393960D01*
G01X1363640Y2393430D01*
G01X1364290Y2392990D01*
G01X1365010Y2392660D01*
G01X1365760Y2392450D01*
G01X1366550Y2392350D01*
G01X1367330Y2392390D01*
G01X1368100Y2392540D01*
G01X1368840Y2392810D01*
G01X1369530Y2393200D01*
G01X1370150Y2393680D01*
G01X1370670Y2394270D01*
G01X1375420Y2400730D01*
G01X1375830Y2401410D01*
G01X1375830Y1627500D01*
G37*
G36*
G01X2274170Y1614210D02*
G01X2268000Y1620380D01*
G01X2268000Y1654800D01*
G01X2269190Y1655810D01*
G01X2271230Y1658210D01*
G01X2272880Y1660890D01*
G01X2274080Y1663800D01*
G01X2274170Y1664190D01*
G01X2274170Y1614210D01*
G37*
G36*
G01X2387000Y2868000D02*
G01X2381820Y2868000D01*
G01X2381920Y2868080D01*
G01X2386520Y2873470D01*
G01X2387000Y2874250D01*
G01X2387000Y2868000D01*
G37*
G36*
G01X2313000Y2925750D02*
G01X2313000Y2934620D01*
G01X2315380Y2937000D01*
G01X2324250Y2937000D01*
G01X2323470Y2936520D01*
G01X2318080Y2931920D01*
G01X2313480Y2926530D01*
G01X2313000Y2925750D01*
G37*
G36*
G01X2385200Y2928080D02*
G01X2385920Y2928380D01*
G01X2387660Y2929450D01*
G01X2389220Y2930780D01*
G01X2389550Y2931170D01*
G01X2398830Y2940450D01*
G01X2399220Y2940780D01*
G01X2400000Y2941690D01*
G01X2400780Y2940780D01*
G01X2401170Y2940450D01*
G01X2401620Y2940000D01*
G01X2391170Y2929550D01*
G01X2390780Y2929220D01*
G01X2389450Y2927660D01*
G01X2388380Y2925920D01*
G01X2387780Y2924470D01*
G01X2386520Y2926530D01*
G01X2385200Y2928080D01*
G37*
G36*
G01X2640610Y2955980D02*
G01X2640780Y2955780D01*
G01X2641170Y2955450D01*
G01X2642540Y2954080D01*
G01X2642560Y2950900D01*
G01X2642820Y2949830D01*
G01X2643240Y2948810D01*
G01X2643440Y2948500D01*
G01X2643240Y2948190D01*
G01X2642820Y2947170D01*
G01X2642560Y2946100D01*
G01X2642500Y2945000D01*
G01X2642500Y2944480D01*
G01X2636050Y2942930D01*
G01X2629510Y2940220D01*
G01X2623470Y2936520D01*
G01X2618080Y2931920D01*
G01X2613480Y2926530D01*
G01X2609780Y2920490D01*
G01X2607070Y2913950D01*
G01X2605420Y2907060D01*
G01X2604860Y2900000D01*
G01X2605420Y2892940D01*
G01X2607070Y2886050D01*
G01X2609780Y2879510D01*
G01X2613480Y2873470D01*
G01X2618080Y2868080D01*
G01X2618180Y2868000D01*
G01X2581820Y2868000D01*
G01X2581920Y2868080D01*
G01X2586520Y2873470D01*
G01X2590220Y2879510D01*
G01X2592930Y2886050D01*
G01X2594580Y2892940D01*
G01X2595000Y2900000D01*
G01X2594580Y2907060D01*
G01X2592930Y2913950D01*
G01X2590220Y2920490D01*
G01X2586520Y2926530D01*
G01X2581920Y2931920D01*
G01X2576530Y2936520D01*
G01X2570490Y2940220D01*
G01X2563950Y2942930D01*
G01X2557060Y2944580D01*
G01X2550000Y2945140D01*
G01X2542940Y2944580D01*
G01X2536050Y2942930D01*
G01X2529510Y2940220D01*
G01X2523470Y2936520D01*
G01X2518080Y2931920D01*
G01X2513480Y2926530D01*
G01X2509780Y2920490D01*
G01X2507070Y2913950D01*
G01X2505420Y2907060D01*
G01X2504860Y2900000D01*
G01X2505420Y2892940D01*
G01X2507070Y2886050D01*
G01X2509780Y2879510D01*
G01X2513480Y2873470D01*
G01X2518080Y2868080D01*
G01X2518180Y2868000D01*
G01X2481820Y2868000D01*
G01X2481920Y2868080D01*
G01X2486520Y2873470D01*
G01X2490220Y2879510D01*
G01X2492930Y2886050D01*
G01X2494580Y2892940D01*
G01X2495000Y2900000D01*
G01X2494580Y2907060D01*
G01X2492930Y2913950D01*
G01X2490220Y2920490D01*
G01X2486520Y2926530D01*
G01X2481920Y2931920D01*
G01X2476530Y2936520D01*
G01X2470490Y2940220D01*
G01X2463950Y2942930D01*
G01X2457060Y2944580D01*
G01X2450000Y2945140D01*
G01X2442940Y2944580D01*
G01X2436050Y2942930D01*
G01X2432910Y2941630D01*
G01X2432880Y2942040D01*
G01X2432400Y2944030D01*
G01X2431620Y2945920D01*
G01X2430550Y2947660D01*
G01X2429220Y2949220D01*
G01X2428830Y2949550D01*
G01X2428380Y2950000D01*
G01X2428830Y2950450D01*
G01X2429220Y2950780D01*
G01X2430550Y2952330D01*
G01X2430550Y2952340D01*
G01X2431620Y2954080D01*
G01X2432400Y2955970D01*
G01X2432880Y2957960D01*
G01X2432910Y2958370D01*
G01X2436050Y2957070D01*
G01X2442940Y2955420D01*
G01X2450000Y2954860D01*
G01X2457060Y2955420D01*
G01X2463950Y2957070D01*
G01X2470490Y2959780D01*
G01X2476530Y2963480D01*
G01X2481920Y2968080D01*
G01X2486520Y2973470D01*
G01X2490220Y2979510D01*
G01X2492930Y2986050D01*
G01X2494580Y2992940D01*
G01X2495000Y3000000D01*
G01X2494580Y3007060D01*
G01X2492930Y3013950D01*
G01X2490220Y3020490D01*
G01X2486520Y3026530D01*
G01X2481920Y3031920D01*
G01X2476530Y3036520D01*
G01X2470850Y3040000D01*
G01X2529150Y3040000D01*
G01X2523470Y3036520D01*
G01X2518080Y3031920D01*
G01X2513480Y3026530D01*
G01X2509780Y3020490D01*
G01X2507070Y3013950D01*
G01X2505420Y3007060D01*
G01X2504860Y3000000D01*
G01X2505420Y2992940D01*
G01X2507070Y2986050D01*
G01X2509780Y2979510D01*
G01X2513480Y2973470D01*
G01X2518080Y2968080D01*
G01X2523470Y2963480D01*
G01X2529510Y2959780D01*
G01X2536050Y2957070D01*
G01X2542940Y2955420D01*
G01X2550000Y2954860D01*
G01X2557060Y2955420D01*
G01X2563950Y2957070D01*
G01X2570490Y2959780D01*
G01X2576530Y2963480D01*
G01X2581920Y2968080D01*
G01X2586520Y2973470D01*
G01X2590220Y2979510D01*
G01X2592930Y2986050D01*
G01X2594580Y2992940D01*
G01X2595000Y3000000D01*
G01X2594580Y3007060D01*
G01X2592930Y3013950D01*
G01X2590220Y3020490D01*
G01X2586520Y3026530D01*
G01X2581920Y3031920D01*
G01X2576530Y3036520D01*
G01X2570850Y3040000D01*
G01X2629150Y3040000D01*
G01X2623470Y3036520D01*
G01X2618080Y3031920D01*
G01X2613480Y3026530D01*
G01X2609780Y3020490D01*
G01X2607070Y3013950D01*
G01X2605420Y3007060D01*
G01X2604860Y3000000D01*
G01X2605420Y2992940D01*
G01X2607070Y2986050D01*
G01X2609780Y2979510D01*
G01X2613480Y2973470D01*
G01X2618080Y2968080D01*
G01X2623470Y2963480D01*
G01X2629510Y2959780D01*
G01X2636050Y2957070D01*
G01X2640610Y2955980D01*
G37*
G36*
G01X2686840Y2926000D02*
G01X2688110Y2926000D01*
G01X2688500Y2925970D01*
G01X2688890Y2926000D01*
G01X2690110Y2926000D01*
G01X2690500Y2925970D01*
G01X2690890Y2926000D01*
G01X2702110Y2926000D01*
G01X2702500Y2925970D01*
G01X2702890Y2926000D01*
G01X2705110Y2926000D01*
G01X2705500Y2925970D01*
G01X2707070Y2926090D01*
G01X2707070Y2926090D01*
G01X2708600Y2926460D01*
G01X2710050Y2927060D01*
G01X2711400Y2927880D01*
G01X2712590Y2928910D01*
G01X2712850Y2929210D01*
G01X2715680Y2932040D01*
G01X2718240Y2932050D01*
G01X2718080Y2931920D01*
G01X2713480Y2926530D01*
G01X2709780Y2920490D01*
G01X2707070Y2913950D01*
G01X2705420Y2907060D01*
G01X2704860Y2900000D01*
G01X2705420Y2892940D01*
G01X2707070Y2886050D01*
G01X2709780Y2879510D01*
G01X2713480Y2873470D01*
G01X2718080Y2868080D01*
G01X2718180Y2868000D01*
G01X2681820Y2868000D01*
G01X2681920Y2868080D01*
G01X2686520Y2873470D01*
G01X2690220Y2879510D01*
G01X2692930Y2886050D01*
G01X2694580Y2892940D01*
G01X2695000Y2900000D01*
G01X2694580Y2907060D01*
G01X2692930Y2913950D01*
G01X2690220Y2920490D01*
G01X2686840Y2926000D01*
G37*
G36*
G01X2726460Y2938350D02*
G01X2726500Y2939000D01*
G01X2726440Y2946100D01*
G01X2726180Y2947170D01*
G01X2725760Y2948190D01*
G01X2725560Y2948500D01*
G01X2725760Y2948810D01*
G01X2726180Y2949830D01*
G01X2726440Y2950900D01*
G01X2726500Y2952000D01*
G01X2726470Y2955010D01*
G01X2766510Y2955100D01*
G01X2767540Y2954080D01*
G01X2767560Y2950900D01*
G01X2767820Y2949830D01*
G01X2768240Y2948810D01*
G01X2768440Y2948500D01*
G01X2768240Y2948190D01*
G01X2767820Y2947170D01*
G01X2767560Y2946100D01*
G01X2767500Y2945000D01*
G01X2767520Y2942410D01*
G01X2766850Y2941730D01*
G01X2763950Y2942930D01*
G01X2757060Y2944580D01*
G01X2750000Y2945140D01*
G01X2742940Y2944580D01*
G01X2736050Y2942930D01*
G01X2729510Y2940220D01*
G01X2726460Y2938350D01*
G37*
G36*
G01X2705130Y2971980D02*
G01X2704500Y2972030D01*
G01X2704110Y2972000D01*
G01X2701890Y2972000D01*
G01X2701500Y2972030D01*
G01X2701110Y2972000D01*
G01X2689890Y2972000D01*
G01X2689500Y2972030D01*
G01X2689110Y2972000D01*
G01X2685260Y2972000D01*
G01X2686520Y2973470D01*
G01X2690220Y2979510D01*
G01X2692930Y2986050D01*
G01X2694580Y2992940D01*
G01X2695000Y3000000D01*
G01X2694580Y3007060D01*
G01X2692930Y3013950D01*
G01X2690220Y3020490D01*
G01X2686520Y3026530D01*
G01X2681920Y3031920D01*
G01X2676530Y3036520D01*
G01X2670850Y3040000D01*
G01X2708810Y3040000D01*
G01X2707830Y3038840D01*
G01X2706590Y3036830D01*
G01X2705690Y3034650D01*
G01X2705140Y3032350D01*
G01X2705000Y3030000D01*
G01X2705130Y2971980D01*
G37*
G36*
G01X1300000Y3040000D02*
G01X1829150Y3040000D01*
G01X1823470Y3036520D01*
G01X1818080Y3031920D01*
G01X1813480Y3026530D01*
G01X1809780Y3020490D01*
G01X1807070Y3013950D01*
G01X1805420Y3007060D01*
G01X1804860Y3000000D01*
G01X1805420Y2992940D01*
G01X1807070Y2986050D01*
G01X1809780Y2979510D01*
G01X1813480Y2973470D01*
G01X1818080Y2968080D01*
G01X1823470Y2963480D01*
G01X1829510Y2959780D01*
G01X1836050Y2957070D01*
G01X1842940Y2955420D01*
G01X1850000Y2954860D01*
G01X1857060Y2955420D01*
G01X1863950Y2957070D01*
G01X1870490Y2959780D01*
G01X1876530Y2963480D01*
G01X1881920Y2968080D01*
G01X1886520Y2973470D01*
G01X1890220Y2979510D01*
G01X1892930Y2986050D01*
G01X1894580Y2992940D01*
G01X1895000Y3000000D01*
G01X1894580Y3007060D01*
G01X1892930Y3013950D01*
G01X1890220Y3020490D01*
G01X1886520Y3026530D01*
G01X1881920Y3031920D01*
G01X1876530Y3036520D01*
G01X1870850Y3040000D01*
G01X1929150Y3040000D01*
G01X1923470Y3036520D01*
G01X1918080Y3031920D01*
G01X1913480Y3026530D01*
G01X1909780Y3020490D01*
G01X1907070Y3013950D01*
G01X1905420Y3007060D01*
G01X1904860Y3000000D01*
G01X1905420Y2992940D01*
G01X1907070Y2986050D01*
G01X1909780Y2979510D01*
G01X1913480Y2973470D01*
G01X1918080Y2968080D01*
G01X1923470Y2963480D01*
G01X1929510Y2959780D01*
G01X1936050Y2957070D01*
G01X1942940Y2955420D01*
G01X1950000Y2954860D01*
G01X1957060Y2955420D01*
G01X1963950Y2957070D01*
G01X1970490Y2959780D01*
G01X1976530Y2963480D01*
G01X1981920Y2968080D01*
G01X1986520Y2973470D01*
G01X1990220Y2979510D01*
G01X1992930Y2986050D01*
G01X1994580Y2992940D01*
G01X1995000Y3000000D01*
G01X1994580Y3007060D01*
G01X1992930Y3013950D01*
G01X1990220Y3020490D01*
G01X1986520Y3026530D01*
G01X1981920Y3031920D01*
G01X1976530Y3036520D01*
G01X1970850Y3040000D01*
G01X2029150Y3040000D01*
G01X2023470Y3036520D01*
G01X2018080Y3031920D01*
G01X2013480Y3026530D01*
G01X2009780Y3020490D01*
G01X2007070Y3013950D01*
G01X2005420Y3007060D01*
G01X2004860Y3000000D01*
G01X2005420Y2992940D01*
G01X2007070Y2986050D01*
G01X2009780Y2979510D01*
G01X2013480Y2973470D01*
G01X2018080Y2968080D01*
G01X2023470Y2963480D01*
G01X2029510Y2959780D01*
G01X2036050Y2957070D01*
G01X2042940Y2955420D01*
G01X2050000Y2954860D01*
G01X2057060Y2955420D01*
G01X2063950Y2957070D01*
G01X2070490Y2959780D01*
G01X2076530Y2963480D01*
G01X2081920Y2968080D01*
G01X2086520Y2973470D01*
G01X2090220Y2979510D01*
G01X2092930Y2986050D01*
G01X2094580Y2992940D01*
G01X2095000Y3000000D01*
G01X2094580Y3007060D01*
G01X2092930Y3013950D01*
G01X2090220Y3020490D01*
G01X2086520Y3026530D01*
G01X2081920Y3031920D01*
G01X2076530Y3036520D01*
G01X2070850Y3040000D01*
G01X2129150Y3040000D01*
G01X2123470Y3036520D01*
G01X2118080Y3031920D01*
G01X2113480Y3026530D01*
G01X2109780Y3020490D01*
G01X2107070Y3013950D01*
G01X2105420Y3007060D01*
G01X2104860Y3000000D01*
G01X2105420Y2992940D01*
G01X2107070Y2986050D01*
G01X2109780Y2979510D01*
G01X2113480Y2973470D01*
G01X2118080Y2968080D01*
G01X2123470Y2963480D01*
G01X2129510Y2959780D01*
G01X2136050Y2957070D01*
G01X2142940Y2955420D01*
G01X2150000Y2954860D01*
G01X2157060Y2955420D01*
G01X2163950Y2957070D01*
G01X2170490Y2959780D01*
G01X2176530Y2963480D01*
G01X2181920Y2968080D01*
G01X2186520Y2973470D01*
G01X2190220Y2979510D01*
G01X2192930Y2986050D01*
G01X2194580Y2992940D01*
G01X2195000Y3000000D01*
G01X2194580Y3007060D01*
G01X2192930Y3013950D01*
G01X2190220Y3020490D01*
G01X2186520Y3026530D01*
G01X2181920Y3031920D01*
G01X2176530Y3036520D01*
G01X2170850Y3040000D01*
G01X2229150Y3040000D01*
G01X2223470Y3036520D01*
G01X2218080Y3031920D01*
G01X2213480Y3026530D01*
G01X2209780Y3020490D01*
G01X2207070Y3013950D01*
G01X2205420Y3007060D01*
G01X2204860Y3000000D01*
G01X2205420Y2992940D01*
G01X2207070Y2986050D01*
G01X2209780Y2979510D01*
G01X2213480Y2973470D01*
G01X2218080Y2968080D01*
G01X2223470Y2963480D01*
G01X2229510Y2959780D01*
G01X2236050Y2957070D01*
G01X2242940Y2955420D01*
G01X2250000Y2954860D01*
G01X2257060Y2955420D01*
G01X2263950Y2957070D01*
G01X2270490Y2959780D01*
G01X2276530Y2963480D01*
G01X2281920Y2968080D01*
G01X2286520Y2973470D01*
G01X2290220Y2979510D01*
G01X2292930Y2986050D01*
G01X2294580Y2992940D01*
G01X2295000Y3000000D01*
G01X2294580Y3007060D01*
G01X2292930Y3013950D01*
G01X2290220Y3020490D01*
G01X2286520Y3026530D01*
G01X2281920Y3031920D01*
G01X2276530Y3036520D01*
G01X2270850Y3040000D01*
G01X2329150Y3040000D01*
G01X2323470Y3036520D01*
G01X2318080Y3031920D01*
G01X2313480Y3026530D01*
G01X2309780Y3020490D01*
G01X2307070Y3013950D01*
G01X2305420Y3007060D01*
G01X2304860Y3000000D01*
G01X2305420Y2992940D01*
G01X2307070Y2986050D01*
G01X2309780Y2979510D01*
G01X2313480Y2973470D01*
G01X2318080Y2968080D01*
G01X2323470Y2963480D01*
G01X2324250Y2963000D01*
G01X2310510Y2963000D01*
G01X2310000Y2963040D01*
G01X2307960Y2962880D01*
G01X2305970Y2962400D01*
G01X2304080Y2961620D01*
G01X2302340Y2960550D01*
G01X2302330Y2960550D01*
G01X2300780Y2959220D01*
G01X2300450Y2958830D01*
G01X2291170Y2949550D01*
G01X2290780Y2949220D01*
G01X2289450Y2947660D01*
G01X2288380Y2945920D01*
G01X2287600Y2944030D01*
G01X2287120Y2942040D01*
G01X2287120Y2942040D01*
G01X2286960Y2940000D01*
G01X2287000Y2939490D01*
G01X2287000Y2925750D01*
G01X2286520Y2926530D01*
G01X2281920Y2931920D01*
G01X2276530Y2936520D01*
G01X2270490Y2940220D01*
G01X2263950Y2942930D01*
G01X2257060Y2944580D01*
G01X2250000Y2945140D01*
G01X2242940Y2944580D01*
G01X2236050Y2942930D01*
G01X2229510Y2940220D01*
G01X2223470Y2936520D01*
G01X2218080Y2931920D01*
G01X2213480Y2926530D01*
G01X2209780Y2920490D01*
G01X2207070Y2913950D01*
G01X2205420Y2907060D01*
G01X2204860Y2900000D01*
G01X2205420Y2892940D01*
G01X2207070Y2886050D01*
G01X2209780Y2879510D01*
G01X2213480Y2873470D01*
G01X2218080Y2868080D01*
G01X2218180Y2868000D01*
G01X2181820Y2868000D01*
G01X2181920Y2868080D01*
G01X2186520Y2873470D01*
G01X2190220Y2879510D01*
G01X2192930Y2886050D01*
G01X2194580Y2892940D01*
G01X2195000Y2900000D01*
G01X2194580Y2907060D01*
G01X2192930Y2913950D01*
G01X2190220Y2920490D01*
G01X2186520Y2926530D01*
G01X2181920Y2931920D01*
G01X2176530Y2936520D01*
G01X2170490Y2940220D01*
G01X2163950Y2942930D01*
G01X2157060Y2944580D01*
G01X2150000Y2945140D01*
G01X2142940Y2944580D01*
G01X2136050Y2942930D01*
G01X2129510Y2940220D01*
G01X2123470Y2936520D01*
G01X2118080Y2931920D01*
G01X2113480Y2926530D01*
G01X2109780Y2920490D01*
G01X2107070Y2913950D01*
G01X2105420Y2907060D01*
G01X2104860Y2900000D01*
G01X2105420Y2892940D01*
G01X2107070Y2886050D01*
G01X2109780Y2879510D01*
G01X2113480Y2873470D01*
G01X2118080Y2868080D01*
G01X2118180Y2868000D01*
G01X2081820Y2868000D01*
G01X2081920Y2868080D01*
G01X2086520Y2873470D01*
G01X2090220Y2879510D01*
G01X2092930Y2886050D01*
G01X2094580Y2892940D01*
G01X2095000Y2900000D01*
G01X2094580Y2907060D01*
G01X2092930Y2913950D01*
G01X2090220Y2920490D01*
G01X2086520Y2926530D01*
G01X2081920Y2931920D01*
G01X2076530Y2936520D01*
G01X2070490Y2940220D01*
G01X2063950Y2942930D01*
G01X2057060Y2944580D01*
G01X2050000Y2945140D01*
G01X2042940Y2944580D01*
G01X2036050Y2942930D01*
G01X2029510Y2940220D01*
G01X2023470Y2936520D01*
G01X2018080Y2931920D01*
G01X2013480Y2926530D01*
G01X2009780Y2920490D01*
G01X2007070Y2913950D01*
G01X2005420Y2907060D01*
G01X2004860Y2900000D01*
G01X2005420Y2892940D01*
G01X2007070Y2886050D01*
G01X2009780Y2879510D01*
G01X2013480Y2873470D01*
G01X2018080Y2868080D01*
G01X2018180Y2868000D01*
G01X1981820Y2868000D01*
G01X1981920Y2868080D01*
G01X1986520Y2873470D01*
G01X1990220Y2879510D01*
G01X1992930Y2886050D01*
G01X1994580Y2892940D01*
G01X1995000Y2900000D01*
G01X1994580Y2907060D01*
G01X1992930Y2913950D01*
G01X1990220Y2920490D01*
G01X1986520Y2926530D01*
G01X1981920Y2931920D01*
G01X1976530Y2936520D01*
G01X1970490Y2940220D01*
G01X1963950Y2942930D01*
G01X1957060Y2944580D01*
G01X1950000Y2945140D01*
G01X1942940Y2944580D01*
G01X1936050Y2942930D01*
G01X1929510Y2940220D01*
G01X1923470Y2936520D01*
G01X1918080Y2931920D01*
G01X1913480Y2926530D01*
G01X1909780Y2920490D01*
G01X1907070Y2913950D01*
G01X1905420Y2907060D01*
G01X1904860Y2900000D01*
G01X1905420Y2892940D01*
G01X1907070Y2886050D01*
G01X1909780Y2879510D01*
G01X1913480Y2873470D01*
G01X1918080Y2868080D01*
G01X1918180Y2868000D01*
G01X1881820Y2868000D01*
G01X1881920Y2868080D01*
G01X1886520Y2873470D01*
G01X1890220Y2879510D01*
G01X1892930Y2886050D01*
G01X1894580Y2892940D01*
G01X1895000Y2900000D01*
G01X1894580Y2907060D01*
G01X1892930Y2913950D01*
G01X1890220Y2920490D01*
G01X1886520Y2926530D01*
G01X1881920Y2931920D01*
G01X1876530Y2936520D01*
G01X1870490Y2940220D01*
G01X1863950Y2942930D01*
G01X1857060Y2944580D01*
G01X1850000Y2945140D01*
G01X1842940Y2944580D01*
G01X1836050Y2942930D01*
G01X1829510Y2940220D01*
G01X1823470Y2936520D01*
G01X1818080Y2931920D01*
G01X1813480Y2926530D01*
G01X1809780Y2920490D01*
G01X1807070Y2913950D01*
G01X1805420Y2907060D01*
G01X1804860Y2900000D01*
G01X1805420Y2892940D01*
G01X1807070Y2886050D01*
G01X1809780Y2879510D01*
G01X1813480Y2873470D01*
G01X1818080Y2868080D01*
G01X1818180Y2868000D01*
G01X1388210Y2868000D01*
G01X1387870Y2869890D01*
G01X1385750Y2877620D01*
G01X1382950Y2885140D01*
G01X1379500Y2892370D01*
G01X1375420Y2899270D01*
G01X1370740Y2905790D01*
G01X1370200Y2906380D01*
G01X1369570Y2906870D01*
G01X1368880Y2907260D01*
G01X1368130Y2907540D01*
G01X1367340Y2907690D01*
G01X1366540Y2907720D01*
G01X1365750Y2907630D01*
G01X1364980Y2907410D01*
G01X1364250Y2907080D01*
G01X1363590Y2906630D01*
G01X1363000Y2906090D01*
G01X1362510Y2905460D01*
G01X1362120Y2904770D01*
G01X1361840Y2904020D01*
G01X1361680Y2903230D01*
G01X1361650Y2902430D01*
G01X1361750Y2901640D01*
G01X1361960Y2900870D01*
G01X1362300Y2900140D01*
G01X1362760Y2899490D01*
G01X1366970Y2893760D01*
G01X1370600Y2887630D01*
G01X1373660Y2881200D01*
G01X1376150Y2874530D01*
G01X1377930Y2868000D01*
G01X1300000Y2868000D01*
G01X1300000Y2929920D01*
G01X1303560Y2929920D01*
G01X1310650Y2929290D01*
G01X1317660Y2928030D01*
G01X1324530Y2926150D01*
G01X1331200Y2923660D01*
G01X1337630Y2920600D01*
G01X1343760Y2916970D01*
G01X1349540Y2912820D01*
G01X1350180Y2912370D01*
G01X1350900Y2912040D01*
G01X1351650Y2911820D01*
G01X1352440Y2911730D01*
G01X1353220Y2911760D01*
G01X1353990Y2911920D01*
G01X1354730Y2912190D01*
G01X1355420Y2912570D01*
G01X1356040Y2913060D01*
G01X1356570Y2913640D01*
G01X1357010Y2914290D01*
G01X1357340Y2915010D01*
G01X1357550Y2915760D01*
G01X1357650Y2916550D01*
G01X1357610Y2917330D01*
G01X1357460Y2918100D01*
G01X1357190Y2918840D01*
G01X1356800Y2919530D01*
G01X1356320Y2920150D01*
G01X1355730Y2920670D01*
G01X1349270Y2925420D01*
G01X1342370Y2929500D01*
G01X1335140Y2932950D01*
G01X1327620Y2935750D01*
G01X1319890Y2937870D01*
G01X1312000Y2939290D01*
G01X1304010Y2940000D01*
G01X1300000Y2940000D01*
G01X1300000Y3040000D01*
G37*
G36*
G01X2370850Y3040000D02*
G01X2429150Y3040000D01*
G01X2423470Y3036520D01*
G01X2418080Y3031920D01*
G01X2413480Y3026530D01*
G01X2409780Y3020490D01*
G01X2407070Y3013950D01*
G01X2405420Y3007060D01*
G01X2404860Y3000000D01*
G01X2405420Y2992940D01*
G01X2405710Y2991700D01*
G01X2404030Y2992400D01*
G01X2402040Y2992880D01*
G01X2400000Y2993040D01*
G01X2397960Y2992880D01*
G01X2395970Y2992400D01*
G01X2394290Y2991700D01*
G01X2394580Y2992940D01*
G01X2395000Y3000000D01*
G01X2394580Y3007060D01*
G01X2392930Y3013950D01*
G01X2390220Y3020490D01*
G01X2386520Y3026530D01*
G01X2381920Y3031920D01*
G01X2376530Y3036520D01*
G01X2370850Y3040000D01*
G37*
G36*
G01X2791190Y3040000D02*
G01X2835000Y3040000D01*
G01X2835000Y2970360D01*
G01X2834050Y2970940D01*
G01X2832600Y2971540D01*
G01X2831070Y2971910D01*
G01X2829500Y2972030D01*
G01X2829110Y2972000D01*
G01X2826890Y2972000D01*
G01X2826500Y2972030D01*
G01X2826110Y2972000D01*
G01X2814890Y2972000D01*
G01X2814500Y2972030D01*
G01X2814110Y2972000D01*
G01X2802890Y2972000D01*
G01X2802500Y2972030D01*
G01X2802110Y2972000D01*
G01X2799890Y2972000D01*
G01X2799500Y2972030D01*
G01X2797930Y2971910D01*
G01X2796400Y2971540D01*
G01X2795000Y2970960D01*
G01X2794860Y3032350D01*
G01X2794310Y3034650D01*
G01X2793410Y3036830D01*
G01X2792170Y3038840D01*
G01X2791190Y3040000D01*
G37*
G36*
G01X2787240Y2925350D02*
G01X2791620Y2929740D01*
G01X2792150Y2929210D01*
G01X2792410Y2928910D01*
G01X2793600Y2927890D01*
G01X2793600Y2927880D01*
G01X2794950Y2927060D01*
G01X2796400Y2926460D01*
G01X2797630Y2926160D01*
G01X2797930Y2926090D01*
G01X2797930Y2926090D01*
G01X2799500Y2925970D01*
G01X2799890Y2926000D01*
G01X2801110Y2926000D01*
G01X2801500Y2925970D01*
G01X2801890Y2926000D01*
G01X2813110Y2926000D01*
G01X2813500Y2925970D01*
G01X2813890Y2926000D01*
G01X2815110Y2926000D01*
G01X2815500Y2925970D01*
G01X2815890Y2926000D01*
G01X2827110Y2926000D01*
G01X2827500Y2925970D01*
G01X2827890Y2926000D01*
G01X2830110Y2926000D01*
G01X2830500Y2925970D01*
G01X2832070Y2926090D01*
G01X2832070Y2926090D01*
G01X2833600Y2926460D01*
G01X2835000Y2927040D01*
G01X2835000Y2868000D01*
G01X2781820Y2868000D01*
G01X2781920Y2868080D01*
G01X2786520Y2873470D01*
G01X2790220Y2879510D01*
G01X2792930Y2886050D01*
G01X2794580Y2892940D01*
G01X2795000Y2900000D01*
G01X2794580Y2907060D01*
G01X2792930Y2913950D01*
G01X2790220Y2920490D01*
G01X2787240Y2925350D01*
G37*
G36*
G01X2418180Y2868000D02*
G01X2413000Y2868000D01*
G01X2413000Y2874250D01*
G01X2413480Y2873470D01*
G01X2418080Y2868080D01*
G01X2418180Y2868000D01*
G37*
G36*
G01X2289170Y2877790D02*
G01X2289450Y2877340D01*
G01X2289450Y2877330D01*
G01X2290780Y2875780D01*
G01X2291170Y2875450D01*
G01X2295450Y2871170D01*
G01X2295780Y2870780D01*
G01X2297330Y2869450D01*
G01X2297340Y2869450D01*
G01X2298420Y2868790D01*
G01X2299080Y2868380D01*
G01X2300000Y2868000D01*
G01X2281820Y2868000D01*
G01X2281920Y2868080D01*
G01X2286520Y2873470D01*
G01X2289170Y2877790D01*
G37*
G36*
G01X2214800Y2138000D02*
G01X1905200Y2138000D01*
G01X1904190Y2139190D01*
G01X1901790Y2141230D01*
G01X1900540Y2142000D01*
G01X2219460Y2142000D01*
G01X2218210Y2141230D01*
G01X2215810Y2139190D01*
G01X2214800Y2138000D01*
G37*
G36*
G01X2319460Y2168000D02*
G01X1845540Y2168000D01*
G01X1846790Y2168770D01*
G01X1849190Y2170810D01*
G01X1850200Y2172000D01*
G01X2314800Y2172000D01*
G01X2315810Y2170810D01*
G01X2318210Y2168770D01*
G01X2319460Y2168000D01*
G37*
G36*
G01X2349460Y2198000D02*
G01X2345200Y2198000D01*
G01X2344190Y2199190D01*
G01X2341790Y2201230D01*
G01X2340540Y2202000D01*
G01X2344800Y2202000D01*
G01X2345810Y2200810D01*
G01X2348210Y2198770D01*
G01X2349460Y2198000D01*
G37*
G36*
G01X2314800Y2198000D02*
G01X1870540Y2198000D01*
G01X1871790Y2198770D01*
G01X1874190Y2200810D01*
G01X1875200Y2202000D01*
G01X2319460Y2202000D01*
G01X2318210Y2201230D01*
G01X2315810Y2199190D01*
G01X2314800Y2198000D01*
G37*
G36*
G01X2344800Y2228000D02*
G01X2320540Y2228000D01*
G01X2321790Y2228770D01*
G01X2324190Y2230810D01*
G01X2325200Y2232000D01*
G01X2349460Y2232000D01*
G01X2348210Y2231230D01*
G01X2345810Y2229190D01*
G01X2344800Y2228000D01*
G37*
G36*
G01X2299460Y2228000D02*
G01X1920540Y2228000D01*
G01X1921790Y2228770D01*
G01X1924190Y2230810D01*
G01X1925200Y2232000D01*
G01X2294800Y2232000D01*
G01X2295810Y2230810D01*
G01X2298210Y2228770D01*
G01X2299460Y2228000D01*
G37*
G36*
G01X1899460Y2228000D02*
G01X1875200Y2228000D01*
G01X1874190Y2229190D01*
G01X1871790Y2231230D01*
G01X1870540Y2232000D01*
G01X1894800Y2232000D01*
G01X1895810Y2230810D01*
G01X1898210Y2228770D01*
G01X1899460Y2228000D01*
G37*
G36*
G01X2294800Y2258000D02*
G01X2255540Y2258000D01*
G01X2256790Y2258770D01*
G01X2259190Y2260810D01*
G01X2260200Y2262000D01*
G01X2299460Y2262000D01*
G01X2298210Y2261230D01*
G01X2295810Y2259190D01*
G01X2294800Y2258000D01*
G37*
G36*
G01X2234460Y2258000D02*
G01X1940540Y2258000D01*
G01X1941790Y2258770D01*
G01X1944190Y2260810D01*
G01X1945200Y2262000D01*
G01X2229800Y2262000D01*
G01X2230810Y2260810D01*
G01X2233210Y2258770D01*
G01X2234460Y2258000D01*
G37*
G36*
G01X2400000Y2958310D02*
G01X2399220Y2959220D01*
G01X2398830Y2959550D01*
G01X2398380Y2960000D01*
G01X2400000Y2961620D01*
G01X2401620Y2960000D01*
G01X2401170Y2959550D01*
G01X2400780Y2959220D01*
G01X2400000Y2958310D01*
G37*
G54D10*
G01X1195000Y2855000D02*
G01X1195000Y3040000D01*
G01X0955000Y2335000D02*
G01X0900000Y2335000D01*
G01X0685000Y2345000D02*
G01X0545000Y2345000D01*
G01X0900000Y2335000D02*
G01X0845000Y2390000D01*
G01X0845000Y2390000D02*
G01X0795000Y2390000D01*
G01X0840000Y2370000D02*
G01X0765000Y2370000D01*
G01X0925000Y2310000D02*
G01X0900000Y2310000D01*
G01X0985000Y2280000D02*
G01X0605000Y2280000D01*
G01X0715000Y2315000D02*
G01X0575000Y2315000D01*
G01X0900000Y2310000D02*
G01X0840000Y2370000D01*
G01X1755000Y2855000D02*
G01X1755000Y1970000D01*
G01X1755000Y1970000D02*
G01X1195000Y1970000D01*
G01X2785000Y2955000D02*
G01X2750000Y2990000D01*
G01X2750000Y2990000D02*
G01X2750000Y3000000D01*
G01X2785500Y2942000D02*
G01X2750000Y2906500D01*
G01X2660500Y2942000D02*
G01X2650000Y2931500D01*
G01X2650000Y2931500D02*
G01X2650000Y2900000D01*
G01X2660000Y2955000D02*
G01X2650000Y2965000D01*
G01X2650000Y2965000D02*
G01X2650000Y3000000D01*
G01X2750000Y2906500D02*
G01X2750000Y2900000D01*
G01X2925000Y2855000D02*
G01X2925000Y3040000D01*
G01X2835000Y2855000D02*
G01X2835000Y1970000D01*
G01X2925000Y2855000D02*
G01X1195000Y2855000D01*
G54D12*
G01X2800000Y2565000D02*
G01X1800000Y2565000D01*
G01X1800000Y2540000D02*
G01X2800000Y2540000D01*
G01X2800000Y2515000D02*
G01X1800000Y2515000D01*
G01X1800000Y2490000D02*
G01X2800000Y2490000D01*
G54D10*
G01X2800000Y2435000D02*
G01X1800000Y2435000D01*
G01X2800000Y2405000D02*
G01X1800000Y2405000D01*
G01X1800000Y2455000D02*
G01X1800000Y2465000D01*
G01X2800000Y2330000D02*
G01X1800000Y2330000D01*
G01X2800000Y2360000D02*
G01X1800000Y2360000D01*
G01X1800000Y2350000D02*
G01X1800000Y2360000D01*
G01X2800000Y2350000D02*
G01X2800000Y2360000D01*
G01X1800000Y2350000D02*
G01X2800000Y2350000D01*
G01X2800000Y2300000D02*
G01X1800000Y2300000D01*
G01X1800000Y2310000D02*
G01X1800000Y2300000D01*
G01X1800000Y2310000D02*
G01X2800000Y2310000D01*
G01X2800000Y2275000D02*
G01X1800000Y2275000D01*
G01X2800000Y2310000D02*
G01X2800000Y2300000D01*
G01X2800000Y2245000D02*
G01X1800000Y2245000D01*
G01X2800000Y2215000D02*
G01X1800000Y2215000D01*
G01X2800000Y2185000D02*
G01X1800000Y2185000D01*
G01X2800000Y2155000D02*
G01X1800000Y2155000D01*
G01X2800000Y2125000D02*
G01X1800000Y2125000D01*
G54D13*
G01X2800000Y2825000D02*
G01X1800000Y2825000D01*
G01X2800000Y2780000D02*
G01X1800000Y2780000D01*
G01X2800000Y2735000D02*
G01X1800000Y2735000D01*
G54D10*
G01X1800000Y2415000D02*
G01X1800000Y2405000D01*
G01X1800000Y2415000D02*
G01X2800000Y2415000D01*
G01X2800000Y2465000D02*
G01X1800000Y2465000D01*
G01X1800000Y2455000D02*
G01X2800000Y2455000D01*
G54D13*
G01X2800000Y2690000D02*
G01X1800000Y2690000D01*
G01X2800000Y2645000D02*
G01X1800000Y2645000D01*
G01X2800000Y2600000D02*
G01X1800000Y2600000D01*
G54D10*
G01X2800000Y2455000D02*
G01X2800000Y2465000D01*
G01X2800000Y2415000D02*
G01X2800000Y2405000D01*
G01X2400000Y2855000D02*
G01X2400000Y2920000D01*
G01X2400000Y2920000D02*
G01X2420000Y2940000D01*
G01X2420000Y2940000D02*
G01X2410000Y2950000D01*
G01X2410000Y2950000D02*
G01X2420000Y2960000D01*
G01X2420000Y2960000D02*
G01X2400000Y2980000D01*
G01X2400000Y2980000D02*
G01X2380000Y2960000D01*
G01X2380000Y2960000D02*
G01X2390000Y2950000D01*
G01X2390000Y2950000D02*
G01X2380000Y2940000D01*
G01X2380000Y2940000D02*
G01X2370000Y2940000D01*
G01X2370000Y2940000D02*
G01X2360000Y2950000D01*
G01X2360000Y2950000D02*
G01X2310000Y2950000D01*
G01X2310000Y2950000D02*
G01X2300000Y2940000D01*
G01X2300000Y2940000D02*
G01X2300000Y2885000D01*
G01X2300000Y2885000D02*
G01X2305000Y2880000D01*
G01X2305000Y2880000D02*
G01X2330000Y2880000D01*
G01X2330000Y2880000D02*
G01X2350000Y2900000D01*
G54D13*
G01X2255000Y1375000D02*
G01X2220000Y1410000D01*
G01X2220000Y1410000D02*
G01X2220000Y1450000D01*
G01X2220000Y1450000D02*
G01X2274490Y1450000D01*
G01X2274490Y1450000D02*
G01X2278620Y1445870D01*
G01X2278620Y1445870D02*
G01X2282560Y1445870D01*
G01X2282560Y1445870D02*
G01X2314060Y1414370D01*
G01X2365000Y1410000D02*
G01X2365000Y1450000D01*
G01X2400000Y1375000D02*
G01X2365000Y1410000D01*
G01X2365000Y1450000D02*
G01X2419490Y1450000D01*
G01X2419490Y1450000D02*
G01X2423620Y1445870D01*
G01X2423620Y1445870D02*
G01X2427560Y1445870D01*
G01X2427560Y1445870D02*
G01X2459060Y1414370D01*
G01X2545000Y1375000D02*
G01X2510000Y1410000D01*
G01X2690000Y1375000D02*
G01X2655000Y1410000D01*
G01X2835000Y1375000D02*
G01X2800000Y1410000D01*
G01X2510000Y1410000D02*
G01X2510000Y1450000D01*
G01X2510000Y1450000D02*
G01X2564490Y1450000D01*
G01X2564490Y1450000D02*
G01X2568620Y1445870D01*
G01X2568620Y1445870D02*
G01X2572560Y1445870D01*
G01X2572560Y1445870D02*
G01X2604060Y1414370D01*
G01X2655000Y1410000D02*
G01X2655000Y1450000D01*
G01X2655000Y1450000D02*
G01X2709490Y1450000D01*
G01X2709490Y1450000D02*
G01X2713620Y1445870D01*
G01X2713620Y1445870D02*
G01X2717560Y1445870D01*
G01X2717560Y1445870D02*
G01X2749060Y1414370D01*
G01X2800000Y1410000D02*
G01X2800000Y1450000D01*
G01X2800000Y1450000D02*
G01X2854490Y1450000D01*
G01X2854490Y1450000D02*
G01X2858620Y1445870D01*
G01X2858620Y1445870D02*
G01X2862560Y1445870D01*
G01X2862560Y1445870D02*
G01X2894060Y1414370D01*
G01X1385000Y1375000D02*
G01X1350000Y1410000D01*
G01X1530000Y1375000D02*
G01X1495000Y1410000D01*
G01X1675000Y1375000D02*
G01X1640000Y1410000D01*
G01X1240000Y1375000D02*
G01X1205000Y1410000D01*
G01X1095000Y1375000D02*
G01X1060000Y1410000D01*
G01X1350000Y1450000D02*
G01X1404490Y1450000D01*
G01X1404490Y1450000D02*
G01X1408620Y1445870D01*
G01X1408620Y1445870D02*
G01X1412560Y1445870D01*
G01X1412560Y1445870D02*
G01X1444060Y1414370D01*
G01X1495000Y1410000D02*
G01X1495000Y1450000D01*
G01X1495000Y1450000D02*
G01X1549490Y1450000D01*
G01X1549490Y1450000D02*
G01X1553620Y1445870D01*
G01X1553620Y1445870D02*
G01X1557560Y1445870D01*
G01X1557560Y1445870D02*
G01X1589060Y1414370D01*
G01X1640000Y1410000D02*
G01X1640000Y1450000D01*
G01X1640000Y1450000D02*
G01X1694490Y1450000D01*
G01X1694490Y1450000D02*
G01X1698620Y1445870D01*
G01X1698620Y1445870D02*
G01X1702560Y1445870D01*
G01X1702560Y1445870D02*
G01X1734060Y1414370D01*
G01X1785000Y1410000D02*
G01X1785000Y1450000D01*
G01X1315000Y1600000D02*
G01X1875000Y1600000D01*
G01X1205000Y1410000D02*
G01X1205000Y1450000D01*
G01X1060000Y1410000D02*
G01X1060000Y1450000D01*
G01X1350000Y1410000D02*
G01X1350000Y1450000D01*
G01X1259490Y1450000D02*
G01X1263620Y1445870D01*
G01X1263620Y1445870D02*
G01X1267560Y1445870D01*
G01X1267560Y1445870D02*
G01X1299060Y1414370D01*
G01X1205000Y1450000D02*
G01X1259490Y1450000D01*
G01X1118620Y1445870D02*
G01X1122560Y1445870D01*
G01X1122560Y1445870D02*
G01X1154060Y1414370D01*
G01X1060000Y1450000D02*
G01X1114490Y1450000D01*
G01X1114490Y1450000D02*
G01X1118620Y1445870D01*
G54D10*
G01X1060000Y1465000D02*
G01X1060000Y1485000D01*
G01X1060000Y1485000D02*
G01X1070000Y1495000D01*
G01X1015000Y1495000D02*
G01X1030000Y1510000D01*
G01X1010000Y1510000D02*
G01X1025000Y1525000D01*
G01X1070000Y1495000D02*
G01X1150000Y1495000D01*
G01X1030000Y1510000D02*
G01X1135000Y1510000D01*
G01X1135000Y1510000D02*
G01X1140000Y1515000D01*
G01X1025000Y1525000D02*
G01X1120000Y1525000D01*
G01X1120000Y1525000D02*
G01X1125000Y1530000D01*
G01X1150000Y1495000D02*
G01X1155000Y1500000D01*
G54D13*
G01X1204570Y1449800D02*
G01X1204570Y1489570D01*
G01X1204570Y1489570D02*
G01X1315000Y1600000D01*
G01X0950000Y1375000D02*
G01X0915000Y1410000D01*
G01X0969490Y1450000D02*
G01X0973620Y1445870D01*
G01X0973620Y1445870D02*
G01X0977560Y1445870D01*
G01X0977560Y1445870D02*
G01X1009060Y1414370D01*
G54D10*
G01X1015000Y1495000D02*
G01X0920000Y1495000D01*
G01X0920000Y1495000D02*
G01X0915000Y1490000D01*
G01X0915000Y1490000D02*
G01X0915000Y1450240D01*
G54D13*
G01X0915000Y1410000D02*
G01X0915000Y1450000D01*
G01X0915000Y1450000D02*
G01X0969490Y1450000D01*
G54D10*
G01X0915000Y1450240D02*
G01X0914570Y1449800D01*
G01X1010000Y1510000D02*
G01X0790000Y1510000D01*
G01X0905000Y1620000D02*
G01X0854370Y1620000D01*
G01X0885000Y1600000D02*
G01X0915000Y1600000D01*
G01X0915000Y1600000D02*
G01X0925000Y1610000D01*
G01X0925000Y1610000D02*
G01X0925000Y1635000D01*
G01X0925000Y1635000D02*
G01X0902000Y1658000D01*
G01X0902000Y1658000D02*
G01X0902000Y1710000D01*
G01X0900000Y1575000D02*
G01X0890000Y1565000D01*
G01X0890000Y1565000D02*
G01X0890000Y1545000D01*
G01X1155000Y1500000D02*
G01X1155000Y1545000D01*
G01X1140000Y1515000D02*
G01X1140000Y1570000D01*
G01X1125000Y1530000D02*
G01X1125000Y1590000D01*
G01X1125000Y1590000D02*
G01X1130000Y1595000D01*
G01X1080000Y1660000D02*
G01X1135000Y1660000D01*
G01X1135000Y1660000D02*
G01X1145000Y1670000D01*
G01X1145000Y1670000D02*
G01X1145000Y1707000D01*
G01X1090000Y1705000D02*
G01X1090000Y1690000D01*
G01X1145000Y1707000D02*
G01X1142000Y1710000D01*
G01X1102000Y1710000D02*
G01X1095000Y1710000D01*
G01X1095000Y1710000D02*
G01X1090000Y1705000D01*
G01X0942000Y1710000D02*
G01X0942000Y1648000D01*
G01X0942000Y1648000D02*
G01X0945000Y1645000D01*
G01X0945000Y1595000D02*
G01X0945000Y1615000D01*
G01X0945000Y1615000D02*
G01X0970000Y1640000D01*
G01X0970000Y1640000D02*
G01X0970000Y1700000D01*
G01X0985000Y1625000D02*
G01X0980000Y1620000D01*
G01X1000000Y1610000D02*
G01X0965000Y1575000D01*
G01X0900000Y1575000D02*
G01X0965000Y1575000D01*
G01X0970000Y1700000D02*
G01X0980000Y1710000D01*
G01X0980000Y1710000D02*
G01X1002000Y1710000D01*
G01X1042000Y1710000D02*
G01X1042000Y1697000D01*
G01X1042000Y1697000D02*
G01X1025000Y1680000D01*
G01X1090000Y1690000D02*
G01X1040000Y1640000D01*
G01X1080000Y1660000D02*
G01X1045000Y1625000D01*
G01X1025000Y1680000D02*
G01X1000000Y1680000D01*
G01X1000000Y1680000D02*
G01X0990000Y1670000D01*
G01X1040000Y1640000D02*
G01X0990000Y1640000D01*
G01X0990000Y1640000D02*
G01X0985000Y1635000D01*
G01X0985000Y1635000D02*
G01X0985000Y1625000D01*
G01X1045000Y1625000D02*
G01X1010000Y1625000D01*
G01X1010000Y1625000D02*
G01X1000000Y1615000D01*
G01X1000000Y1615000D02*
G01X1000000Y1610000D01*
G54D13*
G01X1785000Y1450000D02*
G01X1839490Y1450000D01*
G01X1839490Y1450000D02*
G01X1843620Y1445870D01*
G01X1843620Y1445870D02*
G01X1847560Y1445870D01*
G54D10*
G01X1862000Y1516000D02*
G01X1796000Y1516000D01*
G01X1875000Y1516500D02*
G01X1918500Y1516500D01*
G01X1918500Y1516500D02*
G01X1930000Y1505000D01*
G01X1796000Y1516000D02*
G01X1785000Y1505000D01*
G01X1785000Y1505000D02*
G01X1785000Y1450000D01*
G54D13*
G01X1820000Y1375000D02*
G01X1785000Y1410000D01*
G01X1965000Y1375000D02*
G01X1930000Y1410000D01*
G01X2110000Y1375000D02*
G01X2075000Y1410000D01*
G01X2075000Y1410000D02*
G01X2075000Y1450000D01*
G01X2075000Y1450000D02*
G01X2129490Y1450000D01*
G01X2129490Y1450000D02*
G01X2133620Y1445870D01*
G01X2133620Y1445870D02*
G01X2137560Y1445870D01*
G01X2137560Y1445870D02*
G01X2169060Y1414370D01*
G54D10*
G01X2055000Y1510000D02*
G01X2215000Y1510000D01*
G01X2220000Y1505000D02*
G01X2220000Y1450000D01*
G01X2210000Y1560000D02*
G01X2210000Y1515000D01*
G01X2220000Y1505000D02*
G01X2210000Y1515000D01*
G01X2245000Y1570000D02*
G01X2220000Y1570000D01*
G01X2220000Y1570000D02*
G01X2210000Y1560000D01*
G01X2258000Y1570500D02*
G01X2265500Y1570500D01*
G01X2265500Y1570500D02*
G01X2270000Y1575000D01*
G01X2270000Y1575000D02*
G01X2270000Y1600000D01*
G01X2270000Y1600000D02*
G01X2255000Y1615000D01*
G01X2255000Y1615000D02*
G01X2255000Y1670000D01*
G54D13*
G01X1984490Y1450000D02*
G01X1988620Y1445870D01*
G54D10*
G01X1930000Y1505000D02*
G01X1930000Y1450240D01*
G54D13*
G01X1988620Y1445870D02*
G01X1992560Y1445870D01*
G01X1992560Y1445870D02*
G01X2024060Y1414370D01*
G01X1847560Y1445870D02*
G01X1879060Y1414370D01*
G01X1930000Y1410000D02*
G01X1930000Y1450000D01*
G01X1930000Y1450000D02*
G01X1984490Y1450000D01*
G54D10*
G01X1930000Y1450240D02*
G01X1929570Y1449800D01*
G54D13*
G01X1875000Y1600000D02*
G01X1980000Y1705000D01*
G01X0805000Y1375000D02*
G01X0770000Y1410000D01*
G01X0770000Y1410000D02*
G01X0770000Y1450000D01*
G01X0610000Y1415000D02*
G01X0645000Y1450000D01*
G01X0645000Y1450000D02*
G01X0685000Y1450000D01*
G01X0685000Y1450000D02*
G01X0685000Y1395510D01*
G01X0685000Y1395510D02*
G01X0680870Y1391380D01*
G01X0680870Y1391380D02*
G01X0680870Y1387440D01*
G01X0680870Y1387440D02*
G01X0649370Y1355940D01*
G01X0610000Y1560000D02*
G01X0645000Y1595000D01*
G01X0645000Y1595000D02*
G01X0685000Y1595000D01*
G01X0685000Y1595000D02*
G01X0685000Y1540510D01*
G01X0685000Y1540510D02*
G01X0680870Y1536380D01*
G01X0680870Y1536380D02*
G01X0680870Y1532440D01*
G01X0680870Y1532440D02*
G01X0649370Y1500940D01*
G01X0610000Y1705000D02*
G01X0645000Y1740000D01*
G01X0685000Y1685510D02*
G01X0680870Y1681380D01*
G01X0680870Y1681380D02*
G01X0680870Y1677440D01*
G01X0680870Y1677440D02*
G01X0649370Y1645940D01*
G01X0645000Y1740000D02*
G01X0685000Y1740000D01*
G01X0685000Y1740000D02*
G01X0685000Y1685510D01*
G54D10*
G01X0685240Y1740000D02*
G01X0684800Y1740430D01*
G54D13*
G01X0770000Y1450000D02*
G01X0824490Y1450000D01*
G01X0824490Y1450000D02*
G01X0828620Y1445870D01*
G01X0828620Y1445870D02*
G01X0832560Y1445870D01*
G01X0832560Y1445870D02*
G01X0864060Y1414370D01*
G54D10*
G01X0769570Y1449800D02*
G01X0769570Y1489570D01*
G01X0854370Y1620000D02*
G01X0684800Y1450430D01*
G01X0795000Y1645000D02*
G01X0745000Y1595000D01*
G01X0745000Y1595000D02*
G01X0685000Y1595000D01*
G01X0870000Y1570000D02*
G01X0870000Y1585000D01*
G01X0870000Y1585000D02*
G01X0885000Y1600000D01*
G01X0769570Y1489570D02*
G01X0790000Y1510000D01*
G01X0885000Y1645000D02*
G01X0795000Y1645000D01*
G01X0870000Y1670000D02*
G01X0805000Y1670000D01*
G01X0805000Y1670000D02*
G01X0735000Y1740000D01*
G01X0735000Y1740000D02*
G01X0685240Y1740000D01*
G54D14*
G01X2314060Y1414370D03*
G54D15*
G01X2400000Y1375000D03*
G54D16*
G01X2364570Y1449800D03*
G54D17*
G01X2423620Y1445870D03*
G54D15*
G01X2255000Y1375000D03*
G54D16*
G01X2219570Y1449800D03*
G54D17*
G01X2278620Y1445870D03*
G54D14*
G01X2459060Y1414370D03*
G01X1879060Y1414370D03*
G54D16*
G01X1929570Y1449800D03*
G54D17*
G01X1988620Y1445870D03*
G54D15*
G01X1965000Y1375000D03*
G01X2110000Y1375000D03*
G54D14*
G01X2024060Y1414370D03*
G54D16*
G01X2074570Y1449800D03*
G54D17*
G01X2133620Y1445870D03*
G54D14*
G01X2169060Y1414370D03*
G54D15*
G01X2545000Y1375000D03*
G01X2690000Y1375000D03*
G01X2835000Y1375000D03*
G54D16*
G01X2509570Y1449800D03*
G54D17*
G01X2568620Y1445870D03*
G54D14*
G01X2604060Y1414370D03*
G54D16*
G01X2654570Y1449800D03*
G54D17*
G01X2713620Y1445870D03*
G54D14*
G01X2749060Y1414370D03*
G54D16*
G01X2799570Y1449800D03*
G54D17*
G01X2858620Y1445870D03*
G54D14*
G01X2894060Y1414370D03*
G54D18*
G01X2014990Y0660000D03*
G01X1810000Y0675000D03*
G01X2045000Y0660000D03*
G01X2160000Y0655000D03*
G01X2190000Y0655000D03*
G01X1965000Y0695000D03*
G01X1995000Y0695000D03*
G01X1855000Y0760000D03*
G01X1885000Y0760000D03*
G01X1730000Y0675000D03*
G01X1755000Y0655000D03*
G01X1785000Y0655000D03*
G01X1605000Y0655000D03*
G01X1635000Y0655000D03*
G01X1665000Y0655000D03*
G01X1535000Y0755000D03*
G01X1565000Y0755000D03*
G01X1505000Y0755000D03*
G01X1005000Y0755000D03*
G01X0975000Y0755000D03*
G01X0945000Y0755000D03*
G01X0860000Y0755000D03*
G01X0830000Y0755000D03*
G01X0800000Y0755000D03*
G01X1165000Y0755000D03*
G01X1135000Y0755000D03*
G01X1105000Y0755000D03*
G01X1310000Y0755000D03*
G01X1280000Y0755000D03*
G01X1250000Y0755000D03*
G54D15*
G01X0805000Y1375000D03*
G01X0950000Y1375000D03*
G01X1095000Y1375000D03*
G54D16*
G01X0769570Y1449800D03*
G54D17*
G01X0828620Y1445870D03*
G54D14*
G01X0864060Y1414370D03*
G54D16*
G01X0914570Y1449800D03*
G54D17*
G01X0973620Y1445870D03*
G54D14*
G01X1009060Y1414370D03*
G54D16*
G01X1059570Y1449800D03*
G54D17*
G01X1118620Y1445870D03*
G54D15*
G01X0610000Y1415000D03*
G54D14*
G01X0649370Y1355940D03*
G54D15*
G01X0610000Y1705000D03*
G54D14*
G01X0649370Y1645940D03*
G54D15*
G01X0610000Y1560000D03*
G54D14*
G01X0649370Y1500940D03*
G54D16*
G01X0684800Y1450430D03*
G54D17*
G01X0680870Y1391380D03*
G54D16*
G01X0684800Y1740430D03*
G54D17*
G01X0680870Y1681380D03*
G54D16*
G01X0684800Y1595430D03*
G54D17*
G01X0680870Y1536380D03*
G54D14*
G01X1154060Y1414370D03*
G54D16*
G01X1204570Y1449800D03*
G54D17*
G01X1263620Y1445870D03*
G54D15*
G01X1240000Y1375000D03*
G01X1385000Y1375000D03*
G54D14*
G01X1299060Y1414370D03*
G54D16*
G01X1349570Y1449800D03*
G54D17*
G01X1408620Y1445870D03*
G54D14*
G01X1444060Y1414370D03*
G54D15*
G01X1530000Y1375000D03*
G01X1675000Y1375000D03*
G01X1820000Y1375000D03*
G54D16*
G01X1494570Y1449800D03*
G54D17*
G01X1553620Y1445870D03*
G54D14*
G01X1589060Y1414370D03*
G54D16*
G01X1639570Y1449800D03*
G54D17*
G01X1698620Y1445870D03*
G54D14*
G01X1734060Y1414370D03*
G54D16*
G01X1784570Y1449800D03*
G54D17*
G01X1843620Y1445870D03*
G54D11*
G36*
G01X2720000Y3030000D02*
G01X2720000Y2970000D01*
G01X2780000Y2970000D01*
G01X2780000Y3030000D01*
G01X2720000Y3030000D01*
G37*
G54D19*
G01X2750000Y2900000D03*
G01X2650000Y3000000D03*
G01X2650000Y2900000D03*
G01X2550000Y3000000D03*
G01X2550000Y2900000D03*
G01X2450000Y3000000D03*
G01X2450000Y2900000D03*
G01X2350000Y3000000D03*
G01X2350000Y2900000D03*
G01X2250000Y3000000D03*
G01X2150000Y3000000D03*
G01X2050000Y3000000D03*
G01X1950000Y3000000D03*
G01X1850000Y3000000D03*
G01X2250000Y2900000D03*
G01X2150000Y2900000D03*
G01X2050000Y2900000D03*
G01X1950000Y2900000D03*
G01X1850000Y2900000D03*
G54D11*
G36*
G01X2720000Y3870000D02*
G01X2720000Y3810000D01*
G01X2780000Y3810000D01*
G01X2780000Y3870000D01*
G01X2720000Y3870000D01*
G37*
G54D19*
G01X2750000Y3740000D03*
G01X2650000Y3840000D03*
G01X2650000Y3740000D03*
G01X2550000Y3840000D03*
G01X2550000Y3740000D03*
G01X2450000Y3840000D03*
G01X2450000Y3740000D03*
G01X2350000Y3740000D03*
G01X2250000Y3740000D03*
G01X2350000Y3840000D03*
G01X2250000Y3840000D03*
G01X2150000Y3840000D03*
G01X2050000Y3840000D03*
G01X1950000Y3840000D03*
G01X1850000Y3840000D03*
G01X2150000Y3740000D03*
G01X2050000Y3740000D03*
G01X1950000Y3740000D03*
G01X1850000Y3740000D03*
G54D10*
G01X1855000Y1530500D02*
G01X1862000Y1523500D01*
G54D11*
G36*
G01X1865000Y1526500D02*
G01X1859000Y1526500D01*
G01X1859000Y1505500D01*
G01X1865000Y1505500D01*
G01X1865000Y1526500D01*
G37*
G54D10*
G01X1855000Y1533500D02*
G01X1861000Y1539500D01*
G01X1855000Y1545500D02*
G01X1861000Y1539500D01*
G01X1855000Y1560500D02*
G01X1855000Y1530500D01*
G01X1855000Y1560500D02*
G01X1862000Y1567500D01*
G54D11*
G36*
G01X1865000Y1575500D02*
G01X1859000Y1575500D01*
G01X1859000Y1564500D01*
G01X1865000Y1564500D01*
G01X1865000Y1575500D01*
G37*
G54D10*
G01X1855000Y1557500D02*
G01X1861000Y1551500D01*
G01X1855000Y1545500D02*
G01X1861000Y1551500D01*
G01X1881000Y1561500D02*
G01X1881000Y1530500D01*
G01X1881000Y1532500D02*
G01X1881000Y1530500D01*
G01X1875000Y1567500D02*
G01X1881000Y1561500D01*
G54D11*
G36*
G01X1878000Y1575500D02*
G01X1872000Y1575500D01*
G01X1872000Y1564500D01*
G01X1878000Y1564500D01*
G01X1878000Y1575500D01*
G37*
G54D10*
G01X1875000Y1524500D02*
G01X1881000Y1530500D01*
G01X1874000Y1539500D02*
G01X1881000Y1532500D01*
G01X1874000Y1539500D02*
G01X1881000Y1546500D01*
G01X1874000Y1551500D02*
G01X1881000Y1544500D01*
G01X1874000Y1551500D02*
G01X1881000Y1558500D01*
G54D11*
G36*
G01X1878000Y1527500D02*
G01X1872000Y1527500D01*
G01X1872000Y1505500D01*
G01X1878000Y1505500D01*
G01X1878000Y1527500D01*
G37*
G54D10*
G01X2265000Y1556000D02*
G01X2265000Y1526000D01*
G01X2258000Y1519000D02*
G01X2265000Y1526000D01*
G01X2259000Y1547000D02*
G01X2265000Y1553000D01*
G01X2259000Y1547000D02*
G01X2265000Y1541000D01*
G01X2259000Y1535000D02*
G01X2265000Y1529000D01*
G01X2259000Y1535000D02*
G01X2265000Y1541000D01*
G54D11*
G36*
G01X2261000Y1522000D02*
G01X2255000Y1522000D01*
G01X2255000Y1511000D01*
G01X2261000Y1511000D01*
G01X2261000Y1522000D01*
G37*
G54D10*
G01X2239000Y1525000D02*
G01X2245000Y1519000D01*
G54D11*
G36*
G01X2248000Y1522000D02*
G01X2242000Y1522000D01*
G01X2242000Y1511000D01*
G01X2248000Y1511000D01*
G01X2248000Y1522000D01*
G37*
G54D10*
G01X2239000Y1528000D02*
G01X2246000Y1535000D01*
G01X2258000Y1563000D02*
G01X2265000Y1556000D01*
G54D11*
G36*
G01X2261000Y1581000D02*
G01X2255000Y1581000D01*
G01X2255000Y1560000D01*
G01X2261000Y1560000D01*
G01X2261000Y1581000D01*
G37*
G54D10*
G01X2239000Y1556000D02*
G01X2245000Y1562000D01*
G54D11*
G36*
G01X2248000Y1581000D02*
G01X2242000Y1581000D01*
G01X2242000Y1559000D01*
G01X2248000Y1559000D01*
G01X2248000Y1581000D01*
G37*
G54D10*
G01X2239000Y1554000D02*
G01X2246000Y1547000D01*
G01X2239000Y1556000D02*
G01X2239000Y1554000D01*
G01X2239000Y1556000D02*
G01X2239000Y1525000D01*
G01X2239000Y1540000D02*
G01X2246000Y1547000D01*
G01X2239000Y1542000D02*
G01X2246000Y1535000D01*
G01X2799500Y2962000D02*
G01X2829500Y2962000D01*
G01X2829500Y2962000D02*
G01X2836500Y2955000D01*
G54D11*
G36*
G01X2833500Y2958000D02*
G01X2833500Y2952000D01*
G01X2844500Y2952000D01*
G01X2844500Y2958000D01*
G01X2833500Y2958000D01*
G37*
G54D10*
G01X2820500Y2956000D02*
G01X2826500Y2962000D01*
G01X2814500Y2962000D02*
G01X2820500Y2956000D01*
G01X2792500Y2955000D02*
G01X2799500Y2962000D01*
G54D11*
G36*
G01X2774500Y2958000D02*
G01X2774500Y2952000D01*
G01X2795500Y2952000D01*
G01X2795500Y2958000D01*
G01X2774500Y2958000D01*
G37*
G54D10*
G01X2802500Y2962000D02*
G01X2808500Y2956000D01*
G01X2808500Y2956000D02*
G01X2814500Y2962000D01*
G01X2799500Y2936000D02*
G01X2830500Y2936000D01*
G01X2799500Y2936000D02*
G01X2801500Y2936000D01*
G01X2830500Y2936000D02*
G01X2836500Y2942000D01*
G54D11*
G36*
G01X2833500Y2945000D02*
G01X2833500Y2939000D01*
G01X2844500Y2939000D01*
G01X2844500Y2945000D01*
G01X2833500Y2945000D01*
G37*
G54D10*
G01X2793500Y2942000D02*
G01X2799500Y2936000D01*
G01X2801500Y2936000D02*
G01X2808500Y2943000D01*
G01X2808500Y2943000D02*
G01X2815500Y2936000D01*
G01X2813500Y2936000D02*
G01X2820500Y2943000D01*
G01X2820500Y2943000D02*
G01X2827500Y2936000D01*
G54D11*
G36*
G01X2774500Y2945000D02*
G01X2774500Y2939000D01*
G01X2796500Y2939000D01*
G01X2796500Y2945000D01*
G01X2774500Y2945000D01*
G37*
G54D10*
G01X2674500Y2962000D02*
G01X2704500Y2962000D01*
G01X2667500Y2955000D02*
G01X2674500Y2962000D01*
G01X2677500Y2962000D02*
G01X2683500Y2956000D01*
G01X2683500Y2956000D02*
G01X2689500Y2962000D01*
G54D11*
G36*
G01X2649500Y2958000D02*
G01X2649500Y2952000D01*
G01X2670500Y2952000D01*
G01X2670500Y2958000D01*
G01X2649500Y2958000D01*
G37*
G54D10*
G01X2704500Y2962000D02*
G01X2711500Y2955000D01*
G01X2695500Y2956000D02*
G01X2701500Y2962000D01*
G01X2689500Y2962000D02*
G01X2695500Y2956000D01*
G54D11*
G36*
G01X2708500Y2958000D02*
G01X2708500Y2952000D01*
G01X2719500Y2952000D01*
G01X2719500Y2958000D01*
G01X2708500Y2958000D01*
G37*
G54D10*
G01X2668500Y2942000D02*
G01X2674500Y2936000D01*
G54D11*
G36*
G01X2649500Y2945000D02*
G01X2649500Y2939000D01*
G01X2671500Y2939000D01*
G01X2671500Y2945000D01*
G01X2649500Y2945000D01*
G37*
G54D10*
G01X2676500Y2936000D02*
G01X2683500Y2943000D01*
G01X2674500Y2936000D02*
G01X2676500Y2936000D01*
G01X2705500Y2936000D02*
G01X2711500Y2942000D01*
G54D11*
G36*
G01X2708500Y2945000D02*
G01X2708500Y2939000D01*
G01X2719500Y2939000D01*
G01X2719500Y2945000D01*
G01X2708500Y2945000D01*
G37*
G54D10*
G01X2674500Y2936000D02*
G01X2705500Y2936000D01*
G01X2683500Y2943000D02*
G01X2690500Y2936000D01*
G01X2688500Y2936000D02*
G01X2695500Y2943000D01*
G01X2695500Y2943000D02*
G01X2702500Y2936000D01*
G54D13*
G01X2750000Y2690000D03*
G01X2765000Y2735000D03*
G01X2780000Y2780000D03*
G01X2800000Y2825000D03*
G01X2800000Y2645000D03*
G01X2700000Y2645000D03*
G01X1885000Y2825000D03*
G01X1865000Y2780000D03*
G54D20*
G01X1300000Y2850000D03*
G54D13*
G01X1890000Y2690000D03*
G01X1845000Y2735000D03*
G54D18*
G01X2230000Y2125000D03*
G01X2245000Y2275000D03*
G01X2055000Y1510000D03*
G01X2255000Y1670000D03*
G54D13*
G01X1980000Y1705000D03*
G54D18*
G01X2360000Y2215000D03*
G01X1930000Y2275000D03*
G01X1910000Y2245000D03*
G01X1890000Y2125000D03*
G01X1860000Y2215000D03*
G01X1835000Y2185000D03*
G01X2330000Y2185000D03*
G01X2310000Y2245000D03*
G54D20*
G01X2350000Y1900000D03*
G54D18*
G01X2365000Y2465000D03*
G01X2365000Y2405000D03*
G01X2365000Y2360000D03*
G01X2365000Y2300000D03*
G01X2345000Y2330000D03*
G01X2345000Y2435000D03*
G01X1955000Y2405000D03*
G01X1160000Y1545000D03*
G01X1145000Y1570000D03*
G01X1130000Y1595000D03*
G01X1002000Y1710000D03*
G01X1042000Y1710000D03*
G01X1102000Y1710000D03*
G01X1142000Y1710000D03*
G54D20*
G01X1300000Y2450000D03*
G54D18*
G01X2800000Y2540000D03*
G01X2790000Y2565000D03*
G54D13*
G01X2775000Y2600000D03*
G54D18*
G01X2655000Y2300000D03*
G01X2625000Y2330000D03*
G01X2655000Y2405000D03*
G01X2650000Y2435000D03*
G01X2660000Y2460000D03*
G01X2660000Y2490000D03*
G01X2650000Y2515000D03*
G01X2610000Y2515000D03*
G01X2585000Y2490000D03*
G54D13*
G01X2655000Y2600000D03*
G54D18*
G01X2635000Y2540000D03*
G01X2645000Y2565000D03*
G01X0885000Y1645000D03*
G01X0945000Y1645000D03*
G01X0990000Y1670000D03*
G01X0870000Y1670000D03*
G01X0870000Y1570000D03*
G01X0902000Y1710000D03*
G01X0942000Y1710000D03*
G01X0905000Y1620000D03*
G01X0945000Y1595000D03*
G01X0980000Y1620000D03*
G01X0890000Y1545000D03*
G01X0795000Y2390000D03*
G01X0765000Y2370000D03*
G01X0955000Y2335000D03*
G01X0925000Y2310000D03*
G01X0795000Y2280000D03*
G01X0985000Y2280000D03*
G01X0605000Y2280000D03*
G01X0715000Y2315000D03*
G01X0575000Y2315000D03*
G01X0545000Y2345000D03*
G01X0685000Y2345000D03*
G01X0000000Y0000000D02*
G54D10*
G01X2960000Y1295000D02*
G01X0535000Y1295000D01*
G01X2960000Y3075000D02*
G01X1160000Y3075000D01*
G01X2960000Y3075000D02*
G01X2960000Y2800000D01*
G01X2960000Y2500000D02*
G01X2960000Y1295000D01*
G01X2960000Y2800000D02*
G01X2860000Y2700000D01*
G01X2860000Y2700000D02*
G01X2860000Y2600000D01*
G01X2860000Y2600000D02*
G01X2960000Y2500000D01*
G01X1160000Y2800000D02*
G01X1260000Y2700000D01*
G01X1260000Y2700000D02*
G01X1260000Y2600000D01*
G01X1260000Y2600000D02*
G01X1160000Y2500000D01*
G01X1160000Y1800000D02*
G01X0535000Y1800000D01*
G01X0535000Y1800000D02*
G01X0535000Y1295000D01*
G01X1160000Y3075000D02*
G01X1160000Y2800000D01*
G01X1160000Y2500000D02*
G01X1160000Y1800000D01*
G01X0000000Y0000000D02*
G54D29*
G01X2314060Y1414370D03*
G54D30*
G01X2400000Y1375000D03*
G54D31*
G01X2364570Y1449800D03*
G54D32*
G01X2423620Y1445870D03*
G54D30*
G01X2255000Y1375000D03*
G54D31*
G01X2219570Y1449800D03*
G54D32*
G01X2278620Y1445870D03*
G54D29*
G01X2459060Y1414370D03*
G01X1879060Y1414370D03*
G54D31*
G01X1929570Y1449800D03*
G54D32*
G01X1988620Y1445870D03*
G54D30*
G01X1965000Y1375000D03*
G01X2110000Y1375000D03*
G54D29*
G01X2024060Y1414370D03*
G54D31*
G01X2074570Y1449800D03*
G54D32*
G01X2133620Y1445870D03*
G54D29*
G01X2169060Y1414370D03*
G54D30*
G01X2545000Y1375000D03*
G01X2690000Y1375000D03*
G01X2835000Y1375000D03*
G54D31*
G01X2509570Y1449800D03*
G54D32*
G01X2568620Y1445870D03*
G54D29*
G01X2604060Y1414370D03*
G54D31*
G01X2654570Y1449800D03*
G54D32*
G01X2713620Y1445870D03*
G54D29*
G01X2749060Y1414370D03*
G54D31*
G01X2799570Y1449800D03*
G54D32*
G01X2858620Y1445870D03*
G54D29*
G01X2894060Y1414370D03*
G54D33*
G01X2014990Y0660000D03*
G01X1810000Y0675000D03*
G01X2045000Y0660000D03*
G01X2160000Y0655000D03*
G01X2190000Y0655000D03*
G01X1965000Y0695000D03*
G01X1995000Y0695000D03*
G01X1855000Y0760000D03*
G01X1885000Y0760000D03*
G01X1730000Y0675000D03*
G01X1755000Y0655000D03*
G01X1785000Y0655000D03*
G01X1605000Y0655000D03*
G01X1635000Y0655000D03*
G01X1665000Y0655000D03*
G01X1535000Y0755000D03*
G01X1565000Y0755000D03*
G01X1505000Y0755000D03*
G01X1005000Y0755000D03*
G01X0975000Y0755000D03*
G01X0945000Y0755000D03*
G01X0860000Y0755000D03*
G01X0830000Y0755000D03*
G01X0800000Y0755000D03*
G01X1165000Y0755000D03*
G01X1135000Y0755000D03*
G01X1105000Y0755000D03*
G01X1310000Y0755000D03*
G01X1280000Y0755000D03*
G01X1250000Y0755000D03*
G54D30*
G01X0805000Y1375000D03*
G01X0950000Y1375000D03*
G01X1095000Y1375000D03*
G54D31*
G01X0769570Y1449800D03*
G54D32*
G01X0828620Y1445870D03*
G54D29*
G01X0864060Y1414370D03*
G54D31*
G01X0914570Y1449800D03*
G54D32*
G01X0973620Y1445870D03*
G54D29*
G01X1009060Y1414370D03*
G54D31*
G01X1059570Y1449800D03*
G54D32*
G01X1118620Y1445870D03*
G54D30*
G01X0610000Y1415000D03*
G54D29*
G01X0649370Y1355940D03*
G54D30*
G01X0610000Y1705000D03*
G54D29*
G01X0649370Y1645940D03*
G54D30*
G01X0610000Y1560000D03*
G54D29*
G01X0649370Y1500940D03*
G54D31*
G01X0684800Y1450430D03*
G54D32*
G01X0680870Y1391380D03*
G54D31*
G01X0684800Y1740430D03*
G54D32*
G01X0680870Y1681380D03*
G54D31*
G01X0684800Y1595430D03*
G54D32*
G01X0680870Y1536380D03*
G54D29*
G01X1154060Y1414370D03*
G54D31*
G01X1204570Y1449800D03*
G54D32*
G01X1263620Y1445870D03*
G54D30*
G01X1240000Y1375000D03*
G01X1385000Y1375000D03*
G54D29*
G01X1299060Y1414370D03*
G54D31*
G01X1349570Y1449800D03*
G54D32*
G01X1408620Y1445870D03*
G54D29*
G01X1444060Y1414370D03*
G54D30*
G01X1530000Y1375000D03*
G01X1675000Y1375000D03*
G01X1820000Y1375000D03*
G54D31*
G01X1494570Y1449800D03*
G54D32*
G01X1553620Y1445870D03*
G54D29*
G01X1589060Y1414370D03*
G54D31*
G01X1639570Y1449800D03*
G54D32*
G01X1698620Y1445870D03*
G54D29*
G01X1734060Y1414370D03*
G54D31*
G01X1784570Y1449800D03*
G54D32*
G01X1843620Y1445870D03*
G54D11*
G36*
G01X2717000Y3033000D02*
G01X2717000Y2967000D01*
G01X2783000Y2967000D01*
G01X2783000Y3033000D01*
G01X2717000Y3033000D01*
G37*
G54D34*
G01X2750000Y2900000D03*
G01X2650000Y3000000D03*
G01X2650000Y2900000D03*
G01X2550000Y3000000D03*
G01X2550000Y2900000D03*
G01X2450000Y3000000D03*
G01X2450000Y2900000D03*
G01X2350000Y3000000D03*
G01X2350000Y2900000D03*
G01X2250000Y3000000D03*
G01X2150000Y3000000D03*
G01X2050000Y3000000D03*
G01X1950000Y3000000D03*
G01X1850000Y3000000D03*
G01X2250000Y2900000D03*
G01X2150000Y2900000D03*
G01X2050000Y2900000D03*
G01X1950000Y2900000D03*
G01X1850000Y2900000D03*
G54D11*
G36*
G01X2717000Y3873000D02*
G01X2717000Y3807000D01*
G01X2783000Y3807000D01*
G01X2783000Y3873000D01*
G01X2717000Y3873000D01*
G37*
G54D34*
G01X2750000Y3740000D03*
G01X2650000Y3840000D03*
G01X2650000Y3740000D03*
G01X2550000Y3840000D03*
G01X2550000Y3740000D03*
G01X2450000Y3840000D03*
G01X2450000Y3740000D03*
G01X2350000Y3740000D03*
G01X2250000Y3740000D03*
G01X2350000Y3840000D03*
G01X2250000Y3840000D03*
G01X2150000Y3840000D03*
G01X2050000Y3840000D03*
G01X1950000Y3840000D03*
G01X1850000Y3840000D03*
G01X2150000Y3740000D03*
G01X2050000Y3740000D03*
G01X1950000Y3740000D03*
G01X1850000Y3740000D03*
G54D35*
G01X1300000Y2850000D03*
G01X2350000Y1900000D03*
G01X1300000Y2450000D03*
G54D18*
G01X1855000Y1530500D02*
G01X1862000Y1523500D01*
G54D11*
G36*
G01X1872000Y1533500D02*
G01X1852000Y1533500D01*
G01X1852000Y1498500D01*
G01X1872000Y1498500D01*
G01X1872000Y1533500D01*
G37*
G54D18*
G01X1855000Y1533500D02*
G01X1861000Y1539500D01*
G01X1855000Y1545500D02*
G01X1861000Y1539500D01*
G01X1855000Y1560500D02*
G01X1855000Y1530500D01*
G01X1855000Y1560500D02*
G01X1862000Y1567500D01*
G54D11*
G36*
G01X1872000Y1582500D02*
G01X1852000Y1582500D01*
G01X1852000Y1557500D01*
G01X1872000Y1557500D01*
G01X1872000Y1582500D01*
G37*
G54D18*
G01X1855000Y1557500D02*
G01X1861000Y1551500D01*
G01X1855000Y1545500D02*
G01X1861000Y1551500D01*
G01X1881000Y1561500D02*
G01X1881000Y1530500D01*
G01X1881000Y1532500D02*
G01X1881000Y1530500D01*
G01X1875000Y1567500D02*
G01X1881000Y1561500D01*
G54D11*
G36*
G01X1885000Y1582500D02*
G01X1865000Y1582500D01*
G01X1865000Y1557500D01*
G01X1885000Y1557500D01*
G01X1885000Y1582500D01*
G37*
G54D18*
G01X1875000Y1524500D02*
G01X1881000Y1530500D01*
G01X1874000Y1539500D02*
G01X1881000Y1532500D01*
G01X1874000Y1539500D02*
G01X1881000Y1546500D01*
G01X1874000Y1551500D02*
G01X1881000Y1544500D01*
G01X1874000Y1551500D02*
G01X1881000Y1558500D01*
G54D11*
G36*
G01X1885000Y1534500D02*
G01X1865000Y1534500D01*
G01X1865000Y1498500D01*
G01X1885000Y1498500D01*
G01X1885000Y1534500D01*
G37*
G54D18*
G01X2265000Y1556000D02*
G01X2265000Y1526000D01*
G01X2258000Y1519000D02*
G01X2265000Y1526000D01*
G01X2259000Y1547000D02*
G01X2265000Y1553000D01*
G01X2259000Y1547000D02*
G01X2265000Y1541000D01*
G01X2259000Y1535000D02*
G01X2265000Y1529000D01*
G01X2259000Y1535000D02*
G01X2265000Y1541000D01*
G54D11*
G36*
G01X2268000Y1529000D02*
G01X2248000Y1529000D01*
G01X2248000Y1504000D01*
G01X2268000Y1504000D01*
G01X2268000Y1529000D01*
G37*
G54D18*
G01X2239000Y1525000D02*
G01X2245000Y1519000D01*
G54D11*
G36*
G01X2255000Y1529000D02*
G01X2235000Y1529000D01*
G01X2235000Y1504000D01*
G01X2255000Y1504000D01*
G01X2255000Y1529000D01*
G37*
G54D18*
G01X2239000Y1528000D02*
G01X2246000Y1535000D01*
G01X2258000Y1563000D02*
G01X2265000Y1556000D01*
G54D11*
G36*
G01X2268000Y1588000D02*
G01X2248000Y1588000D01*
G01X2248000Y1553000D01*
G01X2268000Y1553000D01*
G01X2268000Y1588000D01*
G37*
G54D18*
G01X2239000Y1556000D02*
G01X2245000Y1562000D01*
G54D11*
G36*
G01X2255000Y1588000D02*
G01X2235000Y1588000D01*
G01X2235000Y1552000D01*
G01X2255000Y1552000D01*
G01X2255000Y1588000D01*
G37*
G54D18*
G01X2239000Y1554000D02*
G01X2246000Y1547000D01*
G01X2239000Y1556000D02*
G01X2239000Y1554000D01*
G01X2239000Y1556000D02*
G01X2239000Y1525000D01*
G01X2239000Y1540000D02*
G01X2246000Y1547000D01*
G01X2239000Y1542000D02*
G01X2246000Y1535000D01*
G01X2799500Y2962000D02*
G01X2829500Y2962000D01*
G01X2829500Y2962000D02*
G01X2836500Y2955000D01*
G54D11*
G36*
G01X2826500Y2965000D02*
G01X2826500Y2945000D01*
G01X2851500Y2945000D01*
G01X2851500Y2965000D01*
G01X2826500Y2965000D01*
G37*
G54D18*
G01X2820500Y2956000D02*
G01X2826500Y2962000D01*
G01X2814500Y2962000D02*
G01X2820500Y2956000D01*
G01X2792500Y2955000D02*
G01X2799500Y2962000D01*
G54D11*
G36*
G01X2767500Y2965000D02*
G01X2767500Y2945000D01*
G01X2802500Y2945000D01*
G01X2802500Y2965000D01*
G01X2767500Y2965000D01*
G37*
G54D18*
G01X2802500Y2962000D02*
G01X2808500Y2956000D01*
G01X2808500Y2956000D02*
G01X2814500Y2962000D01*
G01X2799500Y2936000D02*
G01X2830500Y2936000D01*
G01X2799500Y2936000D02*
G01X2801500Y2936000D01*
G01X2830500Y2936000D02*
G01X2836500Y2942000D01*
G54D11*
G36*
G01X2826500Y2952000D02*
G01X2826500Y2932000D01*
G01X2851500Y2932000D01*
G01X2851500Y2952000D01*
G01X2826500Y2952000D01*
G37*
G54D18*
G01X2793500Y2942000D02*
G01X2799500Y2936000D01*
G01X2801500Y2936000D02*
G01X2808500Y2943000D01*
G01X2808500Y2943000D02*
G01X2815500Y2936000D01*
G01X2813500Y2936000D02*
G01X2820500Y2943000D01*
G01X2820500Y2943000D02*
G01X2827500Y2936000D01*
G54D11*
G36*
G01X2767500Y2952000D02*
G01X2767500Y2932000D01*
G01X2803500Y2932000D01*
G01X2803500Y2952000D01*
G01X2767500Y2952000D01*
G37*
G54D18*
G01X2674500Y2962000D02*
G01X2704500Y2962000D01*
G01X2667500Y2955000D02*
G01X2674500Y2962000D01*
G01X2677500Y2962000D02*
G01X2683500Y2956000D01*
G01X2683500Y2956000D02*
G01X2689500Y2962000D01*
G54D11*
G36*
G01X2642500Y2965000D02*
G01X2642500Y2945000D01*
G01X2677500Y2945000D01*
G01X2677500Y2965000D01*
G01X2642500Y2965000D01*
G37*
G54D18*
G01X2704500Y2962000D02*
G01X2711500Y2955000D01*
G01X2695500Y2956000D02*
G01X2701500Y2962000D01*
G01X2689500Y2962000D02*
G01X2695500Y2956000D01*
G54D11*
G36*
G01X2701500Y2965000D02*
G01X2701500Y2945000D01*
G01X2726500Y2945000D01*
G01X2726500Y2965000D01*
G01X2701500Y2965000D01*
G37*
G54D18*
G01X2668500Y2942000D02*
G01X2674500Y2936000D01*
G54D11*
G36*
G01X2642500Y2952000D02*
G01X2642500Y2932000D01*
G01X2678500Y2932000D01*
G01X2678500Y2952000D01*
G01X2642500Y2952000D01*
G37*
G54D18*
G01X2676500Y2936000D02*
G01X2683500Y2943000D01*
G01X2674500Y2936000D02*
G01X2676500Y2936000D01*
G01X2705500Y2936000D02*
G01X2711500Y2942000D01*
G54D11*
G36*
G01X2701500Y2952000D02*
G01X2701500Y2932000D01*
G01X2726500Y2932000D01*
G01X2726500Y2952000D01*
G01X2701500Y2952000D01*
G37*
G54D18*
G01X2674500Y2936000D02*
G01X2705500Y2936000D01*
G01X2683500Y2943000D02*
G01X2690500Y2936000D01*
G01X2688500Y2936000D02*
G01X2695500Y2943000D01*
G01X2695500Y2943000D02*
G01X2702500Y2936000D01*
G01X0000000Y0000000D02*
G54D23*
G01X0545000Y2345000D03*
G01X0575000Y2315000D03*
G01X0605000Y2280000D03*
G01X0685000Y2345000D03*
G01X0715000Y2315000D03*
G01X0765000Y2370000D03*
G01X0795000Y2390000D03*
G01X0795000Y2280000D03*
G01X0800000Y0755000D03*
G01X0830000Y0755000D03*
G01X0860000Y0755000D03*
G01X0870000Y1670000D03*
G01X0870000Y1570000D03*
G01X0885000Y1645000D03*
G01X0890000Y1545000D03*
G01X0902000Y1710000D03*
G01X0905000Y1620000D03*
G01X0925000Y2310000D03*
G01X0942000Y1710000D03*
G01X0945000Y1645000D03*
G01X0945000Y1595000D03*
G01X0945000Y0755000D03*
G01X0955000Y2335000D03*
G01X0975000Y0755000D03*
G01X0980000Y1620000D03*
G01X0985000Y2280000D03*
G01X0990000Y1670000D03*
G01X1002000Y1710000D03*
G01X1005000Y0755000D03*
G01X1042000Y1710000D03*
G01X1102000Y1710000D03*
G01X1105000Y0755000D03*
G01X1130000Y1595000D03*
G01X1135000Y0755000D03*
G01X1142000Y1710000D03*
G01X1145000Y1570000D03*
G01X1160000Y1545000D03*
G01X1165000Y0755000D03*
G01X1250000Y0755000D03*
G01X1280000Y0755000D03*
G01X1310000Y0755000D03*
G01X1505000Y0755000D03*
G01X1535000Y0755000D03*
G01X1565000Y0755000D03*
G01X1605000Y0655000D03*
G01X1635000Y0655000D03*
G01X1665000Y0655000D03*
G01X1730000Y0675000D03*
G01X1755000Y0655000D03*
G01X1785000Y0655000D03*
G01X1810000Y0675000D03*
G01X1835000Y2185000D03*
G01X1855000Y0760000D03*
G01X1860000Y2215000D03*
G01X1885000Y0760000D03*
G01X1890000Y2125000D03*
G01X1910000Y2245000D03*
G01X1930000Y2275000D03*
G01X1955000Y2405000D03*
G01X1965000Y0695000D03*
G01X1995000Y0695000D03*
G01X2015000Y0660000D03*
G01X2045000Y0660000D03*
G01X2055000Y1510000D03*
G01X2160000Y0655000D03*
G01X2190000Y0655000D03*
G01X2230000Y2125000D03*
G01X2245000Y2275000D03*
G01X2255000Y1670000D03*
G01X2310000Y2245000D03*
G01X2330000Y2185000D03*
G01X2345000Y2435000D03*
G01X2345000Y2330000D03*
G01X2360000Y2215000D03*
G01X2365000Y2465000D03*
G01X2365000Y2405000D03*
G01X2365000Y2360000D03*
G01X2365000Y2300000D03*
G01X2585000Y2490000D03*
G01X2610000Y2515000D03*
G01X2625000Y2330000D03*
G01X2635000Y2540000D03*
G01X2645000Y2565000D03*
G01X2650000Y2515000D03*
G01X2650000Y2435000D03*
G01X2655000Y2405000D03*
G01X2655000Y2300000D03*
G01X2660000Y2490000D03*
G01X2660000Y2460000D03*
G01X2790000Y2565000D03*
G01X2800000Y2540000D03*
G54D18*
G01X0649400Y1645900D03*
G01X0649400Y1500900D03*
G01X0649400Y1355900D03*
G01X0864100Y1414400D03*
G01X1009100Y1414400D03*
G01X1154100Y1414400D03*
G01X1299100Y1414400D03*
G01X1444100Y1414400D03*
G01X1589100Y1414400D03*
G01X1734100Y1414400D03*
G01X1879100Y1414400D03*
G01X2024100Y1414400D03*
G01X2169100Y1414400D03*
G01X2314100Y1414400D03*
G01X2459100Y1414400D03*
G01X2604100Y1414400D03*
G01X2749100Y1414400D03*
G01X2894100Y1414400D03*
G54D21*
G01X1845000Y2735000D03*
G01X1865000Y2780000D03*
G01X1885000Y2825000D03*
G01X1890000Y2690000D03*
G01X1980000Y1705000D03*
G01X2655000Y2600000D03*
G01X2700000Y2645000D03*
G01X2750000Y2690000D03*
G01X2765000Y2735000D03*
G01X2775000Y2600000D03*
G01X2780000Y2780000D03*
G01X2800000Y2825000D03*
G01X2800000Y2645000D03*
G54D38*
G01X0680900Y1681400D03*
G01X0680900Y1536400D03*
G01X0680900Y1391400D03*
G01X0828600Y1445900D03*
G01X0973600Y1445900D03*
G01X1118600Y1445900D03*
G01X1263600Y1445900D03*
G01X1408600Y1445900D03*
G01X1553600Y1445900D03*
G01X1698600Y1445900D03*
G01X1843600Y1445900D03*
G01X1988600Y1445900D03*
G01X2133600Y1445900D03*
G01X2278600Y1445900D03*
G01X2423600Y1445900D03*
G01X2568600Y1445900D03*
G01X2713600Y1445900D03*
G01X2858600Y1445900D03*
G54D28*
G01X1850000Y3840000D03*
G01X1850000Y3740000D03*
G01X1850000Y3000000D03*
G01X1850000Y2900000D03*
G01X1950000Y3840000D03*
G01X1950000Y3740000D03*
G01X1950000Y3000000D03*
G01X1950000Y2900000D03*
G01X2050000Y3840000D03*
G01X2050000Y3740000D03*
G01X2050000Y3000000D03*
G01X2050000Y2900000D03*
G01X2150000Y3840000D03*
G01X2150000Y3740000D03*
G01X2150000Y3000000D03*
G01X2150000Y2900000D03*
G01X2250000Y3840000D03*
G01X2250000Y3740000D03*
G01X2250000Y3000000D03*
G01X2250000Y2900000D03*
G01X2350000Y3840000D03*
G01X2350000Y3740000D03*
G01X2350000Y3000000D03*
G01X2350000Y2900000D03*
G01X2450000Y3840000D03*
G01X2450000Y3740000D03*
G01X2450000Y3000000D03*
G01X2450000Y2900000D03*
G01X2550000Y3840000D03*
G01X2550000Y3740000D03*
G01X2550000Y3000000D03*
G01X2550000Y2900000D03*
G01X2650000Y3840000D03*
G01X2650000Y3740000D03*
G01X2650000Y3000000D03*
G01X2650000Y2900000D03*
G01X2750000Y3840000D03*
G01X2750000Y3740000D03*
G01X2750000Y3000000D03*
G01X2750000Y2900000D03*
G54D37*
G01X0684800Y1740400D03*
G01X0684800Y1595400D03*
G01X0684800Y1450400D03*
G01X0769600Y1449800D03*
G01X0914600Y1449800D03*
G01X1059600Y1449800D03*
G01X1204600Y1449800D03*
G01X1349600Y1449800D03*
G01X1494600Y1449800D03*
G01X1639600Y1449800D03*
G01X1784600Y1449800D03*
G01X1929600Y1449800D03*
G01X2074600Y1449800D03*
G01X2219600Y1449800D03*
G01X2364600Y1449800D03*
G01X2509600Y1449800D03*
G01X2654600Y1449800D03*
G01X2799600Y1449800D03*
G54D36*
G01X0610000Y1705000D03*
G01X0610000Y1560000D03*
G01X0610000Y1415000D03*
G01X0805000Y1375000D03*
G01X0950000Y1375000D03*
G01X1095000Y1375000D03*
G01X1240000Y1375000D03*
G01X1385000Y1375000D03*
G01X1530000Y1375000D03*
G01X1675000Y1375000D03*
G01X1820000Y1375000D03*
G01X1965000Y1375000D03*
G01X2110000Y1375000D03*
G01X2255000Y1375000D03*
G01X2400000Y1375000D03*
G01X2545000Y1375000D03*
G01X2690000Y1375000D03*
G01X2835000Y1375000D03*
G54D39*
G01X1300000Y2850000D03*
G01X1300000Y2450000D03*
G01X2350000Y1900000D03*
M02*
