G04 start of page 11 for group -4078 idx -4078 *
G04 Title: (unknown), bottomsilk *
G04 Creator: pcb 4.2.0 *
G04 CreationDate: Sun Aug 30 22:39:59 2020 UTC *
G04 For: commonadmin *
G04 Format: Gerber/RS-274X *
G04 PCB-Dimensions (mil): 1000.00 1250.00 *
G04 PCB-Coordinate-Origin: lower left *
%MOIN*%
%FSLAX25Y25*%
%LNBOTTOMSILK*%
%ADD102C,0.0040*%
%ADD101C,0.0060*%
%ADD100C,0.0080*%
G54D100*X40033Y100745D02*X40819D01*
X40033Y106255D02*X40819D01*
G54D101*X50300Y74600D02*X51100Y75400D01*
X50300Y74600D02*Y71100D01*
X51000Y70400D02*X50300Y71100D01*
X54300Y71200D02*X53600Y70500D01*
X54300Y74700D02*Y71200D01*
X53600Y75400D02*X54300Y74700D01*
X51100Y98700D02*X51900Y97900D01*
X47600Y98700D02*X51100D01*
X46900Y98000D02*X47600Y98700D01*
X47700Y94700D02*X47000Y95400D01*
X47700Y94700D02*X51200D01*
X51900Y95400D02*X51200Y94700D01*
G54D102*X37276Y101350D02*X39276D01*
X39776Y101850D01*
Y102850D01*
X39276Y103350D02*X39776Y102850D01*
X37776Y103350D02*X39276D01*
X37776Y101350D02*Y105350D01*
X38576Y103350D02*X39776Y105350D01*
X40976Y102150D02*X41776Y101350D01*
Y105350D01*
X40976D02*X42476D01*
M02*
