G04 start of page 2 for group 0 idx 0 *
G04 Title: (unknown), P1_W1 *
G04 Creator: pcb 4.2.0 *
G04 CreationDate: Sun Aug 30 22:39:59 2020 UTC *
G04 For: commonadmin *
G04 Format: Gerber/RS-274X *
G04 PCB-Dimensions (mil): 1000.00 1250.00 *
G04 PCB-Coordinate-Origin: lower left *
%MOIN*%
%FSLAX25Y25*%
%LNTOP*%
%ADD27C,0.0197*%
%ADD26C,0.0295*%
%ADD25C,0.0787*%
%ADD24C,0.0354*%
%ADD23C,0.0492*%
%ADD22C,0.0100*%
%ADD21C,0.0200*%
%ADD20C,0.0394*%
%ADD19C,0.0472*%
%ADD18C,0.0945*%
%ADD17C,0.0512*%
%ADD16C,0.1102*%
%ADD15C,0.0669*%
%ADD14C,0.0160*%
%ADD13C,0.0140*%
%ADD12C,0.0060*%
%ADD11C,0.0250*%
G54D11*X60039Y81457D02*X52008D01*
X54512Y88543D02*X51969Y86000D01*
X56024Y88543D02*X54512D01*
G54D12*X35945Y70000D02*Y81457D01*
X63469Y62555D02*X63504Y62520D01*
X63469Y71000D02*Y62555D01*
X69969Y77500D02*X63469Y71000D01*
X35945Y70000D02*X28465Y62520D01*
X75469Y92000D02*X67469D01*
X78469Y89000D02*X75469Y92000D01*
X63469Y96000D02*X67469Y92000D01*
X73969Y77500D02*X69969D01*
X78469Y82000D02*X73969Y77500D01*
X78469Y89000D02*Y82000D01*
X52969Y96000D02*X63469D01*
X49469Y92500D02*X52969Y96000D01*
X45469Y92500D02*X49469D01*
X44969Y92000D02*X45469Y92500D01*
X43469Y92000D02*X44969D01*
X43469D02*X43969D01*
G54D11*X52008Y51539D02*Y64008D01*
X56500Y68500D01*
Y76965D01*
X52008Y81457D01*
X49969Y41524D02*X49925Y41480D01*
X49969Y49500D02*Y41524D01*
X52008Y51539D02*X49969Y49500D01*
G54D13*X51969Y85500D02*X50469D01*
X49469Y84500D02*X51469Y86500D01*
G54D11*X47969Y53500D02*X45969Y51500D01*
X47969Y79500D02*Y53500D01*
G54D14*Y83000D02*Y77500D01*
G54D13*Y84500D02*X49469D01*
G54D14*X43969Y85500D02*X44469D01*
X47969Y84500D02*X46969D01*
G54D11*X47969Y84000D02*Y83500D01*
G54D13*X45984Y84984D02*X47969Y83000D01*
X45984Y85000D02*Y84984D01*
X44984Y86000D02*X45984Y85000D01*
X43969Y86000D02*X44984D01*
G54D11*X41425Y88543D02*X43969Y86000D01*
X39961Y88543D02*X41425D01*
X33969Y41524D02*X33925Y41480D01*
X33969Y50000D02*Y41524D01*
X35469Y51500D02*X33969Y50000D01*
X45969Y51500D02*X35469D01*
G54D12*X70563Y65500D02*X73543Y62520D01*
X65969Y65500D02*X70563D01*
X64969Y66500D02*X65969Y65500D01*
X64969Y70500D02*Y66500D01*
X70469Y76000D02*X64969Y70500D01*
X74469Y76000D02*X70469D01*
X79969Y81500D02*X74469Y76000D01*
X79969Y89500D02*Y81500D01*
X75969Y93500D02*X79969Y89500D01*
X67969Y93500D02*X75969D01*
X63969Y97500D02*X67969Y93500D01*
X44969Y97500D02*X63969D01*
X34469Y77500D02*Y70500D01*
X27969Y84000D02*X34469Y77500D01*
X27969Y93500D02*Y84000D01*
X32469Y98000D02*X27969Y93500D01*
X43969Y100500D02*X41469Y98000D01*
X44969Y97500D02*X43969Y98500D01*
X41469Y98000D02*X32469D01*
X43969Y101000D02*Y100500D01*
X36469Y87000D02*Y96000D01*
X42012Y81457D02*X36469Y87000D01*
X43976Y81457D02*X42012D01*
X43969Y98500D02*Y101000D01*
G54D11*X43976Y81457D02*Y56008D01*
Y81457D02*X43925D01*
X42969Y55000D02*X33469D01*
X43976Y56008D02*X42969Y55000D01*
G54D12*X22406Y66500D02*X18425Y62520D01*
X30469Y66500D02*X22406D01*
X34469Y70500D02*X30469Y66500D01*
G54D11*X17969Y47000D02*Y39024D01*
X20469Y49500D02*X17969Y47000D01*
X27969Y49500D02*X20469D01*
X33469Y55000D02*X27969Y49500D01*
X17969Y39024D02*X17925Y38980D01*
X64469Y78500D02*X62969Y77000D01*
X64469Y90000D02*Y78500D01*
X60969Y93500D02*X64469Y90000D01*
X54469Y93500D02*X60969D01*
X63000Y77031D02*Y77000D01*
X65969Y39024D02*X65925Y38980D01*
X65969Y49500D02*Y39024D01*
X64469Y51000D02*X65969Y49500D01*
X49512Y88543D02*X54469Y93500D01*
X47992Y88543D02*X49512D01*
X63000Y77000D02*X60000Y74000D01*
Y67000D01*
X55500Y62500D01*
Y52469D01*
X56969Y51000D01*
X64469D01*
G54D15*X33925Y41480D03*
X20787Y98504D03*
G54D16*X20000Y85000D03*
G54D17*X31929Y88543D03*
X18425Y62520D03*
X28465D03*
X63504D03*
X73543D03*
G54D15*X71181Y98504D03*
G54D16*X71969Y85000D03*
G54D17*X47992Y88543D03*
X56024D03*
X39961D03*
X43976Y81457D03*
X35945D03*
X52008D03*
X60039D03*
G54D18*X69469Y31500D03*
G54D15*X65925Y38980D03*
G54D19*X71831Y38587D03*
G54D18*X53469Y34000D03*
G54D15*X49925Y41480D03*
G54D19*X55831Y41087D03*
G54D20*X59374Y37937D03*
X75374Y35437D03*
G54D18*X37469Y34000D03*
X21469Y31500D03*
G54D15*X17925Y38980D03*
G54D19*X23831Y38587D03*
G54D20*X27374Y35437D03*
G54D19*X39831Y41087D03*
G54D20*X43374Y37937D03*
G54D21*X43469Y92000D03*
X36469Y96000D03*
X43969Y101000D03*
G54D22*G54D23*G54D17*G54D18*G54D24*G54D17*G54D18*G54D24*G54D25*G54D23*G54D26*G54D25*G54D23*G54D26*G54D27*G54D25*G54D23*G54D26*G54D27*G54D26*G54D27*M02*
