G04 start of page 14 for group -3984 idx -3984 *
G04 Title: (unknown), fab *
G04 Creator: pcb 4.2.0 *
G04 CreationDate: Sun Aug 30 21:45:36 2020 UTC *
G04 For: commonadmin *
G04 Format: Gerber/RS-274X *
G04 PCB-Dimensions (mil): 11000.00 7000.00 *
G04 PCB-Coordinate-Origin: lower left *
%MOIN*%
%FSLAX25Y25*%
%LNFAB*%
%ADD106C,0.0100*%
%ADD105C,0.0075*%
%ADD104C,0.0060*%
%ADD103R,0.0080X0.0080*%
%ADD102C,0.0001*%
G54D102*G36*
X17600Y662966D02*X22966Y657600D01*
X22400Y657034D01*
X17034Y662400D01*
X17600Y662966D01*
G37*
G36*
X17034Y657600D02*X22400Y662966D01*
X22966Y662400D01*
X17600Y657034D01*
X17034Y657600D01*
G37*
G54D103*X18400Y661600D02*X21600D01*
X18400D02*Y658400D01*
X21600D01*
Y661600D02*Y658400D01*
G54D102*G36*
X69569Y662966D02*X74934Y657600D01*
X74369Y657034D01*
X69003Y662400D01*
X69569Y662966D01*
G37*
G36*
X69003Y657600D02*X74369Y662966D01*
X74934Y662400D01*
X69569Y657034D01*
X69003Y657600D01*
G37*
G54D103*X70369Y661600D02*X73569D01*
X70369D02*Y658400D01*
X73569D01*
Y661600D02*Y658400D01*
G54D102*G36*
X12600Y714216D02*X17966Y708850D01*
X17400Y708284D01*
X12034Y713650D01*
X12600Y714216D01*
G37*
G36*
X12034Y708850D02*X17400Y714216D01*
X17966Y713650D01*
X12600Y708284D01*
X12034Y708850D01*
G37*
G54D103*X13400Y712850D02*X16600D01*
X13400D02*Y709650D01*
X16600D01*
Y712850D02*Y709650D01*
G54D104*X135000Y713500D02*X136500Y710500D01*
X138000Y713500D01*
X136500Y710500D02*Y707500D01*
X139800Y710800D02*X142050D01*
X139800Y707500D02*X142800D01*
X139800Y713500D02*Y707500D01*
Y713500D02*X142800D01*
X147600D02*X148350Y712750D01*
X145350Y713500D02*X147600D01*
X144600Y712750D02*X145350Y713500D01*
X144600Y712750D02*Y711250D01*
X145350Y710500D01*
X147600D01*
X148350Y709750D01*
Y708250D01*
X147600Y707500D02*X148350Y708250D01*
X145350Y707500D02*X147600D01*
X144600Y708250D02*X145350Y707500D01*
X98000Y712750D02*X98750Y713500D01*
X101000D01*
X101750Y712750D01*
Y711250D01*
X98000Y707500D02*X101750Y711250D01*
X98000Y707500D02*X101750D01*
X45000Y708250D02*X45750Y707500D01*
X45000Y712750D02*Y708250D01*
Y712750D02*X45750Y713500D01*
X47250D01*
X48000Y712750D01*
Y708250D01*
X47250Y707500D02*X48000Y708250D01*
X45750Y707500D02*X47250D01*
X45000Y709000D02*X48000Y712000D01*
X49800Y707500D02*X50550D01*
X52350Y708250D02*X53100Y707500D01*
X52350Y712750D02*Y708250D01*
Y712750D02*X53100Y713500D01*
X54600D01*
X55350Y712750D01*
Y708250D01*
X54600Y707500D02*X55350Y708250D01*
X53100Y707500D02*X54600D01*
X52350Y709000D02*X55350Y712000D01*
X57900Y707500D02*X60150Y710500D01*
Y712750D02*Y710500D01*
X59400Y713500D02*X60150Y712750D01*
X57900Y713500D02*X59400D01*
X57150Y712750D02*X57900Y713500D01*
X57150Y712750D02*Y711250D01*
X57900Y710500D01*
X60150D01*
X61950Y709750D02*X64950Y713500D01*
X61950Y709750D02*X65700D01*
X64950Y713500D02*Y707500D01*
X53469Y612200D02*Y605800D01*
X50269Y609000D02*X56669D01*
X51869Y610600D02*X55069D01*
X51869D02*Y607400D01*
X55069D01*
Y610600D02*Y607400D01*
X69469Y609700D02*Y603300D01*
X66269Y606500D02*X72669D01*
X67869Y608100D02*X71069D01*
X67869D02*Y604900D01*
X71069D01*
Y608100D02*Y604900D01*
X37469Y612200D02*Y605800D01*
X34269Y609000D02*X40669D01*
X35869Y610600D02*X39069D01*
X35869D02*Y607400D01*
X39069D01*
Y610600D02*Y607400D01*
X21469Y609700D02*Y603300D01*
X18269Y606500D02*X24669D01*
X19869Y608100D02*X23069D01*
X19869D02*Y604900D01*
X23069D01*
Y608100D02*Y604900D01*
X15000Y729450D02*Y723050D01*
X11800Y726250D02*X18200D01*
X13400Y727850D02*X16600D01*
X13400D02*Y724650D01*
X16600D01*
Y727850D02*Y724650D01*
X135000Y728500D02*X136500Y725500D01*
X138000Y728500D01*
X136500Y725500D02*Y722500D01*
X139800Y725800D02*X142050D01*
X139800Y722500D02*X142800D01*
X139800Y728500D02*Y722500D01*
Y728500D02*X142800D01*
X147600D02*X148350Y727750D01*
X145350Y728500D02*X147600D01*
X144600Y727750D02*X145350Y728500D01*
X144600Y727750D02*Y726250D01*
X145350Y725500D01*
X147600D01*
X148350Y724750D01*
Y723250D01*
X147600Y722500D02*X148350Y723250D01*
X145350Y722500D02*X147600D01*
X144600Y723250D02*X145350Y722500D01*
X98000Y724750D02*X101000Y728500D01*
X98000Y724750D02*X101750D01*
X101000Y728500D02*Y722500D01*
X45000Y723250D02*X45750Y722500D01*
X45000Y727750D02*Y723250D01*
Y727750D02*X45750Y728500D01*
X47250D01*
X48000Y727750D01*
Y723250D01*
X47250Y722500D02*X48000Y723250D01*
X45750Y722500D02*X47250D01*
X45000Y724000D02*X48000Y727000D01*
X49800Y722500D02*X50550D01*
X52350Y723250D02*X53100Y722500D01*
X52350Y727750D02*Y723250D01*
Y727750D02*X53100Y728500D01*
X54600D01*
X55350Y727750D01*
Y723250D01*
X54600Y722500D02*X55350Y723250D01*
X53100Y722500D02*X54600D01*
X52350Y724000D02*X55350Y727000D01*
X57900Y722500D02*X60900Y728500D01*
X57150D02*X60900D01*
X63450Y722500D02*X65700Y725500D01*
Y727750D02*Y725500D01*
X64950Y728500D02*X65700Y727750D01*
X63450Y728500D02*X64950D01*
X62700Y727750D02*X63450Y728500D01*
X62700Y727750D02*Y726250D01*
X63450Y725500D01*
X65700D01*
X71181Y673504D02*Y670304D01*
Y673504D02*X73954Y675104D01*
X71181Y673504D02*X68408Y675104D01*
X69581Y673504D02*G75*G03X72781Y673504I1600J0D01*G01*
G75*G03X69581Y673504I-1600J0D01*G01*
X20787D02*Y670304D01*
Y673504D02*X23561Y675104D01*
X20787Y673504D02*X18014Y675104D01*
X19187Y673504D02*G75*G03X22387Y673504I1600J0D01*G01*
G75*G03X19187Y673504I-1600J0D01*G01*
X15000Y741250D02*Y738050D01*
Y741250D02*X17773Y742850D01*
X15000Y741250D02*X12227Y742850D01*
X13400Y741250D02*G75*G03X16600Y741250I1600J0D01*G01*
G75*G03X13400Y741250I-1600J0D01*G01*
X135000Y743500D02*X136500Y740500D01*
X138000Y743500D01*
X136500Y740500D02*Y737500D01*
X139800Y740800D02*X142050D01*
X139800Y737500D02*X142800D01*
X139800Y743500D02*Y737500D01*
Y743500D02*X142800D01*
X147600D02*X148350Y742750D01*
X145350Y743500D02*X147600D01*
X144600Y742750D02*X145350Y743500D01*
X144600Y742750D02*Y741250D01*
X145350Y740500D01*
X147600D01*
X148350Y739750D01*
Y738250D01*
X147600Y737500D02*X148350Y738250D01*
X145350Y737500D02*X147600D01*
X144600Y738250D02*X145350Y737500D01*
X98000Y742750D02*X98750Y743500D01*
X101000D01*
X101750Y742750D01*
Y741250D01*
X98000Y737500D02*X101750Y741250D01*
X98000Y737500D02*X101750D01*
X45000Y738250D02*X45750Y737500D01*
X45000Y742750D02*Y738250D01*
Y742750D02*X45750Y743500D01*
X47250D01*
X48000Y742750D01*
Y738250D01*
X47250Y737500D02*X48000Y738250D01*
X45750Y737500D02*X47250D01*
X45000Y739000D02*X48000Y742000D01*
X49800Y737500D02*X50550D01*
X52350Y738250D02*X53100Y737500D01*
X52350Y742750D02*Y738250D01*
Y742750D02*X53100Y743500D01*
X54600D01*
X55350Y742750D01*
Y738250D01*
X54600Y737500D02*X55350Y738250D01*
X53100Y737500D02*X54600D01*
X52350Y739000D02*X55350Y742000D01*
X57150Y743500D02*X60150D01*
X57150D02*Y740500D01*
X57900Y741250D01*
X59400D01*
X60150Y740500D01*
Y738250D01*
X59400Y737500D02*X60150Y738250D01*
X57900Y737500D02*X59400D01*
X57150Y738250D02*X57900Y737500D01*
X61950Y742300D02*X63150Y743500D01*
Y737500D01*
X61950D02*X64200D01*
X48325Y618080D02*X51525D01*
X48325D02*Y614880D01*
X51525D01*
Y618080D02*Y614880D01*
X64325Y615580D02*X67525D01*
X64325D02*Y612380D01*
X67525D01*
Y615580D02*Y612380D01*
X32325Y618080D02*X35525D01*
X32325D02*Y614880D01*
X35525D01*
Y618080D02*Y614880D01*
X16325Y615580D02*X19525D01*
X16325D02*Y612380D01*
X19525D01*
Y615580D02*Y612380D01*
X13400Y757850D02*X16600D01*
X13400D02*Y754650D01*
X16600D01*
Y757850D02*Y754650D01*
X135000Y758500D02*X136500Y755500D01*
X138000Y758500D01*
X136500Y755500D02*Y752500D01*
X139800Y755800D02*X142050D01*
X139800Y752500D02*X142800D01*
X139800Y758500D02*Y752500D01*
Y758500D02*X142800D01*
X147600D02*X148350Y757750D01*
X145350Y758500D02*X147600D01*
X144600Y757750D02*X145350Y758500D01*
X144600Y757750D02*Y756250D01*
X145350Y755500D01*
X147600D01*
X148350Y754750D01*
Y753250D01*
X147600Y752500D02*X148350Y753250D01*
X145350Y752500D02*X147600D01*
X144600Y753250D02*X145350Y752500D01*
X98000Y754750D02*X101000Y758500D01*
X98000Y754750D02*X101750D01*
X101000Y758500D02*Y752500D01*
X45000Y753250D02*X45750Y752500D01*
X45000Y757750D02*Y753250D01*
Y757750D02*X45750Y758500D01*
X47250D01*
X48000Y757750D01*
Y753250D01*
X47250Y752500D02*X48000Y753250D01*
X45750Y752500D02*X47250D01*
X45000Y754000D02*X48000Y757000D01*
X49800Y752500D02*X50550D01*
X52350Y753250D02*X53100Y752500D01*
X52350Y757750D02*Y753250D01*
Y757750D02*X53100Y758500D01*
X54600D01*
X55350Y757750D01*
Y753250D01*
X54600Y752500D02*X55350Y753250D01*
X53100Y752500D02*X54600D01*
X52350Y754000D02*X55350Y757000D01*
X57150Y754750D02*X60150Y758500D01*
X57150Y754750D02*X60900D01*
X60150Y758500D02*Y752500D01*
X63450D02*X65700Y755500D01*
Y757750D02*Y755500D01*
X64950Y758500D02*X65700Y757750D01*
X63450Y758500D02*X64950D01*
X62700Y757750D02*X63450Y758500D01*
X62700Y757750D02*Y756250D01*
X63450Y755500D01*
X65700D01*
X62704Y637520D02*G75*G03X64304Y637520I800J0D01*G01*
G75*G03X62704Y637520I-800J0D01*G01*
X72743D02*G75*G03X74343Y637520I800J0D01*G01*
G75*G03X72743Y637520I-800J0D01*G01*
X47192Y663543D02*G75*G03X48792Y663543I800J0D01*G01*
G75*G03X47192Y663543I-800J0D01*G01*
X55224D02*G75*G03X56824Y663543I800J0D01*G01*
G75*G03X55224Y663543I-800J0D01*G01*
X39161D02*G75*G03X40761Y663543I800J0D01*G01*
G75*G03X39161Y663543I-800J0D01*G01*
X31129D02*G75*G03X32729Y663543I800J0D01*G01*
G75*G03X31129Y663543I-800J0D01*G01*
X43176Y656457D02*G75*G03X44776Y656457I800J0D01*G01*
G75*G03X43176Y656457I-800J0D01*G01*
X35145D02*G75*G03X36745Y656457I800J0D01*G01*
G75*G03X35145Y656457I-800J0D01*G01*
X51208D02*G75*G03X52808Y656457I800J0D01*G01*
G75*G03X51208Y656457I-800J0D01*G01*
X59239D02*G75*G03X60839Y656457I800J0D01*G01*
G75*G03X59239Y656457I-800J0D01*G01*
X17625Y637520D02*G75*G03X19225Y637520I800J0D01*G01*
G75*G03X17625Y637520I-800J0D01*G01*
X27665D02*G75*G03X29265Y637520I800J0D01*G01*
G75*G03X27665Y637520I-800J0D01*G01*
X14200Y771250D02*G75*G03X15800Y771250I800J0D01*G01*
G75*G03X14200Y771250I-800J0D01*G01*
X135000Y773500D02*X136500Y770500D01*
X138000Y773500D01*
X136500Y770500D02*Y767500D01*
X139800Y770800D02*X142050D01*
X139800Y767500D02*X142800D01*
X139800Y773500D02*Y767500D01*
Y773500D02*X142800D01*
X147600D02*X148350Y772750D01*
X145350Y773500D02*X147600D01*
X144600Y772750D02*X145350Y773500D01*
X144600Y772750D02*Y771250D01*
X145350Y770500D01*
X147600D01*
X148350Y769750D01*
Y768250D01*
X147600Y767500D02*X148350Y768250D01*
X145350Y767500D02*X147600D01*
X144600Y768250D02*X145350Y767500D01*
X98000Y772300D02*X99200Y773500D01*
Y767500D01*
X98000D02*X100250D01*
X102050Y772750D02*X102800Y773500D01*
X105050D01*
X105800Y772750D01*
Y771250D01*
X102050Y767500D02*X105800Y771250D01*
X102050Y767500D02*X105800D01*
X45000Y768250D02*X45750Y767500D01*
X45000Y772750D02*Y768250D01*
Y772750D02*X45750Y773500D01*
X47250D01*
X48000Y772750D01*
Y768250D01*
X47250Y767500D02*X48000Y768250D01*
X45750Y767500D02*X47250D01*
X45000Y769000D02*X48000Y772000D01*
X49800Y767500D02*X50550D01*
X52350Y768250D02*X53100Y767500D01*
X52350Y772750D02*Y768250D01*
Y772750D02*X53100Y773500D01*
X54600D01*
X55350Y772750D01*
Y768250D01*
X54600Y767500D02*X55350Y768250D01*
X53100Y767500D02*X54600D01*
X52350Y769000D02*X55350Y772000D01*
X57150Y772750D02*X57900Y773500D01*
X59400D01*
X60150Y772750D01*
X59400Y767500D02*X60150Y768250D01*
X57900Y767500D02*X59400D01*
X57150Y768250D02*X57900Y767500D01*
Y770800D02*X59400D01*
X60150Y772750D02*Y771550D01*
Y770050D02*Y768250D01*
Y770050D02*X59400Y770800D01*
X60150Y771550D02*X59400Y770800D01*
X61950Y773500D02*X64950D01*
X61950D02*Y770500D01*
X62700Y771250D01*
X64200D01*
X64950Y770500D01*
Y768250D01*
X64200Y767500D02*X64950Y768250D01*
X62700Y767500D02*X64200D01*
X61950Y768250D02*X62700Y767500D01*
X54631Y617287D02*X57031Y614887D01*
X54631D02*X57031Y617287D01*
X70631Y614787D02*X73031Y612387D01*
X70631D02*X73031Y614787D01*
X38631Y617287D02*X41031Y614887D01*
X38631D02*X41031Y617287D01*
X22631Y614787D02*X25031Y612387D01*
X22631D02*X25031Y614787D01*
X13800Y787450D02*X16200Y785050D01*
X13800D02*X16200Y787450D01*
X135000Y788500D02*X136500Y785500D01*
X138000Y788500D01*
X136500Y785500D02*Y782500D01*
X139800Y785800D02*X142050D01*
X139800Y782500D02*X142800D01*
X139800Y788500D02*Y782500D01*
Y788500D02*X142800D01*
X147600D02*X148350Y787750D01*
X145350Y788500D02*X147600D01*
X144600Y787750D02*X145350Y788500D01*
X144600Y787750D02*Y786250D01*
X145350Y785500D01*
X147600D01*
X148350Y784750D01*
Y783250D01*
X147600Y782500D02*X148350Y783250D01*
X145350Y782500D02*X147600D01*
X144600Y783250D02*X145350Y782500D01*
X98000Y784750D02*X101000Y788500D01*
X98000Y784750D02*X101750D01*
X101000Y788500D02*Y782500D01*
X45000Y783250D02*X45750Y782500D01*
X45000Y787750D02*Y783250D01*
Y787750D02*X45750Y788500D01*
X47250D01*
X48000Y787750D01*
Y783250D01*
X47250Y782500D02*X48000Y783250D01*
X45750Y782500D02*X47250D01*
X45000Y784000D02*X48000Y787000D01*
X49800Y782500D02*X50550D01*
X52350Y783250D02*X53100Y782500D01*
X52350Y787750D02*Y783250D01*
Y787750D02*X53100Y788500D01*
X54600D01*
X55350Y787750D01*
Y783250D01*
X54600Y782500D02*X55350Y783250D01*
X53100Y782500D02*X54600D01*
X52350Y784000D02*X55350Y787000D01*
X57150Y787750D02*X57900Y788500D01*
X59400D01*
X60150Y787750D01*
X59400Y782500D02*X60150Y783250D01*
X57900Y782500D02*X59400D01*
X57150Y783250D02*X57900Y782500D01*
Y785800D02*X59400D01*
X60150Y787750D02*Y786550D01*
Y785050D02*Y783250D01*
Y785050D02*X59400Y785800D01*
X60150Y786550D02*X59400Y785800D01*
X61950Y783250D02*X62700Y782500D01*
X61950Y787750D02*Y783250D01*
Y787750D02*X62700Y788500D01*
X64200D01*
X64950Y787750D01*
Y783250D01*
X64200Y782500D02*X64950Y783250D01*
X62700Y782500D02*X64200D01*
X61950Y784000D02*X64950Y787000D01*
X59374Y614537D02*Y611337D01*
X57774Y612937D02*X60974D01*
X75374Y612037D02*Y608837D01*
X73774Y610437D02*X76974D01*
X43374Y614537D02*Y611337D01*
X41774Y612937D02*X44974D01*
X27374Y612037D02*Y608837D01*
X25774Y610437D02*X28974D01*
X15000Y802850D02*Y799650D01*
X13400Y801250D02*X16600D01*
X135000Y803500D02*X136500Y800500D01*
X138000Y803500D01*
X136500Y800500D02*Y797500D01*
X139800Y800800D02*X142050D01*
X139800Y797500D02*X142800D01*
X139800Y803500D02*Y797500D01*
Y803500D02*X142800D01*
X147600D02*X148350Y802750D01*
X145350Y803500D02*X147600D01*
X144600Y802750D02*X145350Y803500D01*
X144600Y802750D02*Y801250D01*
X145350Y800500D01*
X147600D01*
X148350Y799750D01*
Y798250D01*
X147600Y797500D02*X148350Y798250D01*
X145350Y797500D02*X147600D01*
X144600Y798250D02*X145350Y797500D01*
X98000Y799750D02*X101000Y803500D01*
X98000Y799750D02*X101750D01*
X101000Y803500D02*Y797500D01*
X45000Y798250D02*X45750Y797500D01*
X45000Y802750D02*Y798250D01*
Y802750D02*X45750Y803500D01*
X47250D01*
X48000Y802750D01*
Y798250D01*
X47250Y797500D02*X48000Y798250D01*
X45750Y797500D02*X47250D01*
X45000Y799000D02*X48000Y802000D01*
X49800Y797500D02*X50550D01*
X52350Y798250D02*X53100Y797500D01*
X52350Y802750D02*Y798250D01*
Y802750D02*X53100Y803500D01*
X54600D01*
X55350Y802750D01*
Y798250D01*
X54600Y797500D02*X55350Y798250D01*
X53100Y797500D02*X54600D01*
X52350Y799000D02*X55350Y802000D01*
X57150Y802750D02*X57900Y803500D01*
X60150D01*
X60900Y802750D01*
Y801250D01*
X57150Y797500D02*X60900Y801250D01*
X57150Y797500D02*X60900D01*
X62700Y798250D02*X63450Y797500D01*
X62700Y802750D02*Y798250D01*
Y802750D02*X63450Y803500D01*
X64950D01*
X65700Y802750D01*
Y798250D01*
X64950Y797500D02*X65700Y798250D01*
X63450Y797500D02*X64950D01*
X62700Y799000D02*X65700Y802000D01*
X43469Y667000D02*Y665400D01*
Y667000D02*X44855Y667800D01*
X43469Y667000D02*X42082Y667800D01*
X36469Y671000D02*Y669400D01*
Y671000D02*X37855Y671800D01*
X36469Y671000D02*X35082Y671800D01*
X43969Y676000D02*Y674400D01*
Y676000D02*X45355Y676800D01*
X43969Y676000D02*X42582Y676800D01*
X15000Y816250D02*Y814650D01*
Y816250D02*X16387Y817050D01*
X15000Y816250D02*X13613Y817050D01*
X135000Y818500D02*X136500Y815500D01*
X138000Y818500D01*
X136500Y815500D02*Y812500D01*
X139800Y815800D02*X142050D01*
X139800Y812500D02*X142800D01*
X139800Y818500D02*Y812500D01*
Y818500D02*X142800D01*
X147600D02*X148350Y817750D01*
X145350Y818500D02*X147600D01*
X144600Y817750D02*X145350Y818500D01*
X144600Y817750D02*Y816250D01*
X145350Y815500D01*
X147600D01*
X148350Y814750D01*
Y813250D01*
X147600Y812500D02*X148350Y813250D01*
X145350Y812500D02*X147600D01*
X144600Y813250D02*X145350Y812500D01*
X98000Y817750D02*X98750Y818500D01*
X100250D01*
X101000Y817750D01*
X100250Y812500D02*X101000Y813250D01*
X98750Y812500D02*X100250D01*
X98000Y813250D02*X98750Y812500D01*
Y815800D02*X100250D01*
X101000Y817750D02*Y816550D01*
Y815050D02*Y813250D01*
Y815050D02*X100250Y815800D01*
X101000Y816550D02*X100250Y815800D01*
X45000Y813250D02*X45750Y812500D01*
X45000Y817750D02*Y813250D01*
Y817750D02*X45750Y818500D01*
X47250D01*
X48000Y817750D01*
Y813250D01*
X47250Y812500D02*X48000Y813250D01*
X45750Y812500D02*X47250D01*
X45000Y814000D02*X48000Y817000D01*
X49800Y812500D02*X50550D01*
X52350Y813250D02*X53100Y812500D01*
X52350Y817750D02*Y813250D01*
Y817750D02*X53100Y818500D01*
X54600D01*
X55350Y817750D01*
Y813250D01*
X54600Y812500D02*X55350Y813250D01*
X53100Y812500D02*X54600D01*
X52350Y814000D02*X55350Y817000D01*
X57150Y817300D02*X58350Y818500D01*
Y812500D01*
X57150D02*X59400D01*
X61200Y813250D02*X61950Y812500D01*
X61200Y817750D02*Y813250D01*
Y817750D02*X61950Y818500D01*
X63450D01*
X64200Y817750D01*
Y813250D01*
X63450Y812500D02*X64200Y813250D01*
X61950Y812500D02*X63450D01*
X61200Y814000D02*X64200Y817000D01*
X3000Y833500D02*X3750Y832750D01*
X750Y833500D02*X3000D01*
X0Y832750D02*X750Y833500D01*
X0Y832750D02*Y831250D01*
X750Y830500D01*
X3000D01*
X3750Y829750D01*
Y828250D01*
X3000Y827500D02*X3750Y828250D01*
X750Y827500D02*X3000D01*
X0Y828250D02*X750Y827500D01*
X5550Y830500D02*Y828250D01*
X6300Y827500D01*
X8550Y830500D02*Y826000D01*
X7800Y825250D02*X8550Y826000D01*
X6300Y825250D02*X7800D01*
X5550Y826000D02*X6300Y825250D01*
Y827500D02*X7800D01*
X8550Y828250D01*
X11100Y829750D02*Y827500D01*
Y829750D02*X11850Y830500D01*
X12600D01*
X13350Y829750D01*
Y827500D01*
Y829750D02*X14100Y830500D01*
X14850D01*
X15600Y829750D01*
Y827500D01*
X10350Y830500D02*X11100Y829750D01*
X17400Y833500D02*Y827500D01*
Y828250D02*X18150Y827500D01*
X19650D01*
X20400Y828250D01*
Y829750D02*Y828250D01*
X19650Y830500D02*X20400Y829750D01*
X18150Y830500D02*X19650D01*
X17400Y829750D02*X18150Y830500D01*
X22200Y829750D02*Y828250D01*
Y829750D02*X22950Y830500D01*
X24450D01*
X25200Y829750D01*
Y828250D01*
X24450Y827500D02*X25200Y828250D01*
X22950Y827500D02*X24450D01*
X22200Y828250D02*X22950Y827500D01*
X27000Y833500D02*Y828250D01*
X27750Y827500D01*
X0Y824250D02*X29250D01*
X41750Y833500D02*Y827500D01*
X43700Y833500D02*X44750Y832450D01*
Y828550D01*
X43700Y827500D02*X44750Y828550D01*
X41000Y827500D02*X43700D01*
X41000Y833500D02*X43700D01*
G54D105*X46550Y832000D02*Y831850D01*
G54D104*Y829750D02*Y827500D01*
X50300Y830500D02*X51050Y829750D01*
X48800Y830500D02*X50300D01*
X48050Y829750D02*X48800Y830500D01*
X48050Y829750D02*Y828250D01*
X48800Y827500D01*
X51050Y830500D02*Y828250D01*
X51800Y827500D01*
X48800D02*X50300D01*
X51050Y828250D01*
X54350Y829750D02*Y827500D01*
Y829750D02*X55100Y830500D01*
X55850D01*
X56600Y829750D01*
Y827500D01*
Y829750D02*X57350Y830500D01*
X58100D01*
X58850Y829750D01*
Y827500D01*
X53600Y830500D02*X54350Y829750D01*
X60650Y827500D02*X61400D01*
X65900Y828250D02*X66650Y827500D01*
X65900Y832750D02*X66650Y833500D01*
X65900Y832750D02*Y828250D01*
X68450Y833500D02*X69950D01*
X69200D02*Y827500D01*
X68450D02*X69950D01*
X72500Y829750D02*Y827500D01*
Y829750D02*X73250Y830500D01*
X74000D01*
X74750Y829750D01*
Y827500D01*
X71750Y830500D02*X72500Y829750D01*
X77300Y830500D02*X79550D01*
X76550Y829750D02*X77300Y830500D01*
X76550Y829750D02*Y828250D01*
X77300Y827500D01*
X79550D01*
X81350Y833500D02*Y827500D01*
Y829750D02*X82100Y830500D01*
X83600D01*
X84350Y829750D01*
Y827500D01*
X86150Y833500D02*X86900Y832750D01*
Y828250D01*
X86150Y827500D02*X86900Y828250D01*
X41000Y824250D02*X88700D01*
X96050Y827500D02*X98000D01*
X95000Y828550D02*X96050Y827500D01*
X95000Y832450D02*Y828550D01*
Y832450D02*X96050Y833500D01*
X98000D01*
X99800Y829750D02*Y828250D01*
Y829750D02*X100550Y830500D01*
X102050D01*
X102800Y829750D01*
Y828250D01*
X102050Y827500D02*X102800Y828250D01*
X100550Y827500D02*X102050D01*
X99800Y828250D02*X100550Y827500D01*
X104600Y830500D02*Y828250D01*
X105350Y827500D01*
X106850D01*
X107600Y828250D01*
Y830500D02*Y828250D01*
X110150Y829750D02*Y827500D01*
Y829750D02*X110900Y830500D01*
X111650D01*
X112400Y829750D01*
Y827500D01*
X109400Y830500D02*X110150Y829750D01*
X114950Y833500D02*Y828250D01*
X115700Y827500D01*
X114200Y831250D02*X115700D01*
X95000Y824250D02*X117200D01*
X130750Y833500D02*Y827500D01*
X130000Y833500D02*X133000D01*
X133750Y832750D01*
Y831250D01*
X133000Y830500D02*X133750Y831250D01*
X130750Y830500D02*X133000D01*
X135550Y833500D02*Y828250D01*
X136300Y827500D01*
X140050Y830500D02*X140800Y829750D01*
X138550Y830500D02*X140050D01*
X137800Y829750D02*X138550Y830500D01*
X137800Y829750D02*Y828250D01*
X138550Y827500D01*
X140800Y830500D02*Y828250D01*
X141550Y827500D01*
X138550D02*X140050D01*
X140800Y828250D01*
X144100Y833500D02*Y828250D01*
X144850Y827500D01*
X143350Y831250D02*X144850D01*
X147100Y827500D02*X149350D01*
X146350Y828250D02*X147100Y827500D01*
X146350Y829750D02*Y828250D01*
Y829750D02*X147100Y830500D01*
X148600D01*
X149350Y829750D01*
X146350Y829000D02*X149350D01*
Y829750D02*Y829000D01*
X154150Y833500D02*Y827500D01*
X153400D02*X154150Y828250D01*
X151900Y827500D02*X153400D01*
X151150Y828250D02*X151900Y827500D01*
X151150Y829750D02*Y828250D01*
Y829750D02*X151900Y830500D01*
X153400D01*
X154150Y829750D01*
X157450Y830500D02*Y829750D01*
Y828250D02*Y827500D01*
X155950Y832750D02*Y832000D01*
Y832750D02*X156700Y833500D01*
X158200D01*
X158950Y832750D01*
Y832000D01*
X157450Y830500D02*X158950Y832000D01*
X130000Y824250D02*X160750D01*
X0Y848500D02*X3000D01*
X1500D02*Y842500D01*
X4800Y848500D02*Y842500D01*
Y844750D02*X5550Y845500D01*
X7050D01*
X7800Y844750D01*
Y842500D01*
X10350D02*X12600D01*
X9600Y843250D02*X10350Y842500D01*
X9600Y844750D02*Y843250D01*
Y844750D02*X10350Y845500D01*
X11850D01*
X12600Y844750D01*
X9600Y844000D02*X12600D01*
Y844750D02*Y844000D01*
X15150Y844750D02*Y842500D01*
Y844750D02*X15900Y845500D01*
X17400D01*
X14400D02*X15150Y844750D01*
X19950Y842500D02*X22200D01*
X19200Y843250D02*X19950Y842500D01*
X19200Y844750D02*Y843250D01*
Y844750D02*X19950Y845500D01*
X21450D01*
X22200Y844750D01*
X19200Y844000D02*X22200D01*
Y844750D02*Y844000D01*
X28950Y845500D02*X29700Y844750D01*
X27450Y845500D02*X28950D01*
X26700Y844750D02*X27450Y845500D01*
X26700Y844750D02*Y843250D01*
X27450Y842500D01*
X29700Y845500D02*Y843250D01*
X30450Y842500D01*
X27450D02*X28950D01*
X29700Y843250D01*
X33000Y844750D02*Y842500D01*
Y844750D02*X33750Y845500D01*
X35250D01*
X32250D02*X33000Y844750D01*
X37800Y842500D02*X40050D01*
X37050Y843250D02*X37800Y842500D01*
X37050Y844750D02*Y843250D01*
Y844750D02*X37800Y845500D01*
X39300D01*
X40050Y844750D01*
X37050Y844000D02*X40050D01*
Y844750D02*Y844000D01*
X44550Y843250D02*X45300Y842500D01*
X44550Y844450D02*Y843250D01*
Y844450D02*X45600Y845500D01*
X46500D01*
X47550Y844450D01*
Y843250D01*
X46800Y842500D02*X47550Y843250D01*
X45300Y842500D02*X46800D01*
X44550Y846550D02*X45600Y845500D01*
X44550Y847750D02*Y846550D01*
Y847750D02*X45300Y848500D01*
X46800D01*
X47550Y847750D01*
Y846550D01*
X46500Y845500D02*X47550Y846550D01*
X55050Y848500D02*Y842500D01*
X54300D02*X55050Y843250D01*
X52800Y842500D02*X54300D01*
X52050Y843250D02*X52800Y842500D01*
X52050Y844750D02*Y843250D01*
Y844750D02*X52800Y845500D01*
X54300D01*
X55050Y844750D01*
G54D105*X56850Y847000D02*Y846850D01*
G54D104*Y844750D02*Y842500D01*
X59100Y847750D02*Y842500D01*
Y847750D02*X59850Y848500D01*
X60600D01*
X58350Y845500D02*X59850D01*
X62850Y847750D02*Y842500D01*
Y847750D02*X63600Y848500D01*
X64350D01*
X62100Y845500D02*X63600D01*
X66600Y842500D02*X68850D01*
X65850Y843250D02*X66600Y842500D01*
X65850Y844750D02*Y843250D01*
Y844750D02*X66600Y845500D01*
X68100D01*
X68850Y844750D01*
X65850Y844000D02*X68850D01*
Y844750D02*Y844000D01*
X71400Y844750D02*Y842500D01*
Y844750D02*X72150Y845500D01*
X73650D01*
X70650D02*X71400Y844750D01*
X76200Y842500D02*X78450D01*
X75450Y843250D02*X76200Y842500D01*
X75450Y844750D02*Y843250D01*
Y844750D02*X76200Y845500D01*
X77700D01*
X78450Y844750D01*
X75450Y844000D02*X78450D01*
Y844750D02*Y844000D01*
X81000Y844750D02*Y842500D01*
Y844750D02*X81750Y845500D01*
X82500D01*
X83250Y844750D01*
Y842500D01*
X80250Y845500D02*X81000Y844750D01*
X85800Y848500D02*Y843250D01*
X86550Y842500D01*
X85050Y846250D02*X86550D01*
X93750Y848500D02*Y842500D01*
X93000D02*X93750Y843250D01*
X91500Y842500D02*X93000D01*
X90750Y843250D02*X91500Y842500D01*
X90750Y844750D02*Y843250D01*
Y844750D02*X91500Y845500D01*
X93000D01*
X93750Y844750D01*
X96300D02*Y842500D01*
Y844750D02*X97050Y845500D01*
X98550D01*
X95550D02*X96300Y844750D01*
G54D105*X100350Y847000D02*Y846850D01*
G54D104*Y844750D02*Y842500D01*
X101850Y848500D02*Y843250D01*
X102600Y842500D01*
X104100Y848500D02*Y843250D01*
X104850Y842500D01*
X109800D02*X112050D01*
X112800Y843250D01*
X112050Y844000D02*X112800Y843250D01*
X109800Y844000D02*X112050D01*
X109050Y844750D02*X109800Y844000D01*
X109050Y844750D02*X109800Y845500D01*
X112050D01*
X112800Y844750D01*
X109050Y843250D02*X109800Y842500D01*
G54D105*X114600Y847000D02*Y846850D01*
G54D104*Y844750D02*Y842500D01*
X116100Y845500D02*X119100D01*
X116100Y842500D02*X119100Y845500D01*
X116100Y842500D02*X119100D01*
X121650D02*X123900D01*
X120900Y843250D02*X121650Y842500D01*
X120900Y844750D02*Y843250D01*
Y844750D02*X121650Y845500D01*
X123150D01*
X123900Y844750D01*
X120900Y844000D02*X123900D01*
Y844750D02*Y844000D01*
X126450Y842500D02*X128700D01*
X129450Y843250D01*
X128700Y844000D02*X129450Y843250D01*
X126450Y844000D02*X128700D01*
X125700Y844750D02*X126450Y844000D01*
X125700Y844750D02*X126450Y845500D01*
X128700D01*
X129450Y844750D01*
X125700Y843250D02*X126450Y842500D01*
X133950Y845500D02*Y843250D01*
X134700Y842500D01*
X136200D01*
X136950Y843250D01*
Y845500D02*Y843250D01*
X139500Y842500D02*X141750D01*
X142500Y843250D01*
X141750Y844000D02*X142500Y843250D01*
X139500Y844000D02*X141750D01*
X138750Y844750D02*X139500Y844000D01*
X138750Y844750D02*X139500Y845500D01*
X141750D01*
X142500Y844750D01*
X138750Y843250D02*X139500Y842500D01*
X145050D02*X147300D01*
X144300Y843250D02*X145050Y842500D01*
X144300Y844750D02*Y843250D01*
Y844750D02*X145050Y845500D01*
X146550D01*
X147300Y844750D01*
X144300Y844000D02*X147300D01*
Y844750D02*Y844000D01*
X152100Y848500D02*Y842500D01*
X151350D02*X152100Y843250D01*
X149850Y842500D02*X151350D01*
X149100Y843250D02*X149850Y842500D01*
X149100Y844750D02*Y843250D01*
Y844750D02*X149850Y845500D01*
X151350D01*
X152100Y844750D01*
G54D105*X156600Y847000D02*Y846850D01*
G54D104*Y844750D02*Y842500D01*
X158850Y844750D02*Y842500D01*
Y844750D02*X159600Y845500D01*
X160350D01*
X161100Y844750D01*
Y842500D01*
X158100Y845500D02*X158850Y844750D01*
X166350Y848500D02*Y843250D01*
X167100Y842500D01*
X165600Y846250D02*X167100D01*
X168600Y848500D02*Y842500D01*
Y844750D02*X169350Y845500D01*
X170850D01*
X171600Y844750D01*
Y842500D01*
G54D105*X173400Y847000D02*Y846850D01*
G54D104*Y844750D02*Y842500D01*
X175650D02*X177900D01*
X178650Y843250D01*
X177900Y844000D02*X178650Y843250D01*
X175650Y844000D02*X177900D01*
X174900Y844750D02*X175650Y844000D01*
X174900Y844750D02*X175650Y845500D01*
X177900D01*
X178650Y844750D01*
X174900Y843250D02*X175650Y842500D01*
X183150Y848500D02*Y843250D01*
X183900Y842500D01*
X187650Y845500D02*X188400Y844750D01*
X186150Y845500D02*X187650D01*
X185400Y844750D02*X186150Y845500D01*
X185400Y844750D02*Y843250D01*
X186150Y842500D01*
X188400Y845500D02*Y843250D01*
X189150Y842500D01*
X186150D02*X187650D01*
X188400Y843250D01*
X190950Y845500D02*Y843250D01*
X191700Y842500D01*
X193950Y845500D02*Y841000D01*
X193200Y840250D02*X193950Y841000D01*
X191700Y840250D02*X193200D01*
X190950Y841000D02*X191700Y840250D01*
Y842500D02*X193200D01*
X193950Y843250D01*
X195750Y844750D02*Y843250D01*
Y844750D02*X196500Y845500D01*
X198000D01*
X198750Y844750D01*
Y843250D01*
X198000Y842500D02*X198750Y843250D01*
X196500Y842500D02*X198000D01*
X195750Y843250D02*X196500Y842500D01*
X200550Y845500D02*Y843250D01*
X201300Y842500D01*
X202800D01*
X203550Y843250D01*
Y845500D02*Y843250D01*
X206100Y848500D02*Y843250D01*
X206850Y842500D01*
X205350Y846250D02*X206850D01*
X208350Y841000D02*X209850Y842500D01*
X214350Y847750D02*X215100Y848500D01*
X216600D01*
X217350Y847750D01*
X216600Y842500D02*X217350Y843250D01*
X215100Y842500D02*X216600D01*
X214350Y843250D02*X215100Y842500D01*
Y845800D02*X216600D01*
X217350Y847750D02*Y846550D01*
Y845050D02*Y843250D01*
Y845050D02*X216600Y845800D01*
X217350Y846550D02*X216600Y845800D01*
X219150Y848500D02*X222150D01*
X219150D02*Y845500D01*
X219900Y846250D01*
X221400D01*
X222150Y845500D01*
Y843250D01*
X221400Y842500D02*X222150Y843250D01*
X219900Y842500D02*X221400D01*
X219150Y843250D02*X219900Y842500D01*
X226650Y848500D02*Y842500D01*
Y844750D02*X227400Y845500D01*
X228900D01*
X229650Y844750D01*
Y842500D01*
X231450Y844750D02*Y843250D01*
Y844750D02*X232200Y845500D01*
X233700D01*
X234450Y844750D01*
Y843250D01*
X233700Y842500D02*X234450Y843250D01*
X232200Y842500D02*X233700D01*
X231450Y843250D02*X232200Y842500D01*
X236250Y848500D02*Y843250D01*
X237000Y842500D01*
X239250D02*X241500D01*
X238500Y843250D02*X239250Y842500D01*
X238500Y844750D02*Y843250D01*
Y844750D02*X239250Y845500D01*
X240750D01*
X241500Y844750D01*
X238500Y844000D02*X241500D01*
Y844750D02*Y844000D01*
X244050Y842500D02*X246300D01*
X247050Y843250D01*
X246300Y844000D02*X247050Y843250D01*
X244050Y844000D02*X246300D01*
X243300Y844750D02*X244050Y844000D01*
X243300Y844750D02*X244050Y845500D01*
X246300D01*
X247050Y844750D01*
X243300Y843250D02*X244050Y842500D01*
X252300Y848500D02*Y843250D01*
X253050Y842500D01*
X251550Y846250D02*X253050D01*
X254550Y844750D02*Y843250D01*
Y844750D02*X255300Y845500D01*
X256800D01*
X257550Y844750D01*
Y843250D01*
X256800Y842500D02*X257550Y843250D01*
X255300Y842500D02*X256800D01*
X254550Y843250D02*X255300Y842500D01*
X260100Y848500D02*Y843250D01*
X260850Y842500D01*
X259350Y846250D02*X260850D01*
X264600Y845500D02*X265350Y844750D01*
X263100Y845500D02*X264600D01*
X262350Y844750D02*X263100Y845500D01*
X262350Y844750D02*Y843250D01*
X263100Y842500D01*
X265350Y845500D02*Y843250D01*
X266100Y842500D01*
X263100D02*X264600D01*
X265350Y843250D01*
X267900Y848500D02*Y843250D01*
X268650Y842500D01*
G54D106*X11000Y693000D02*Y595000D01*
X83000D01*
Y693000D01*
X11000D01*
G54D104*X463675Y-9500D02*X466675D01*
X467425Y-8750D01*
Y-6950D02*Y-8750D01*
X466675Y-6200D02*X467425Y-6950D01*
X464425Y-6200D02*X466675D01*
X464425Y-3500D02*Y-9500D01*
X463675Y-3500D02*X466675D01*
X467425Y-4250D01*
Y-5450D01*
X466675Y-6200D02*X467425Y-5450D01*
X469225Y-7250D02*Y-8750D01*
Y-7250D02*X469975Y-6500D01*
X471475D01*
X472225Y-7250D01*
Y-8750D01*
X471475Y-9500D02*X472225Y-8750D01*
X469975Y-9500D02*X471475D01*
X469225Y-8750D02*X469975Y-9500D01*
X476275Y-6500D02*X477025Y-7250D01*
X474775Y-6500D02*X476275D01*
X474025Y-7250D02*X474775Y-6500D01*
X474025Y-7250D02*Y-8750D01*
X474775Y-9500D01*
X477025Y-6500D02*Y-8750D01*
X477775Y-9500D01*
X474775D02*X476275D01*
X477025Y-8750D01*
X480325Y-7250D02*Y-9500D01*
Y-7250D02*X481075Y-6500D01*
X482575D01*
X479575D02*X480325Y-7250D01*
X487375Y-3500D02*Y-9500D01*
X486625D02*X487375Y-8750D01*
X485125Y-9500D02*X486625D01*
X484375Y-8750D02*X485125Y-9500D01*
X484375Y-7250D02*Y-8750D01*
Y-7250D02*X485125Y-6500D01*
X486625D01*
X487375Y-7250D01*
X491875D02*Y-8750D01*
Y-7250D02*X492625Y-6500D01*
X494125D01*
X494875Y-7250D01*
Y-8750D01*
X494125Y-9500D02*X494875Y-8750D01*
X492625Y-9500D02*X494125D01*
X491875Y-8750D02*X492625Y-9500D01*
X496675Y-6500D02*Y-8750D01*
X497425Y-9500D01*
X498925D01*
X499675Y-8750D01*
Y-6500D02*Y-8750D01*
X502225Y-3500D02*Y-8750D01*
X502975Y-9500D01*
X501475Y-5750D02*X502975D01*
X504475Y-3500D02*Y-8750D01*
X505225Y-9500D01*
G54D105*X506725Y-5000D02*Y-5150D01*
G54D104*Y-7250D02*Y-9500D01*
X508975Y-7250D02*Y-9500D01*
Y-7250D02*X509725Y-6500D01*
X510475D01*
X511225Y-7250D01*
Y-9500D01*
X508225Y-6500D02*X508975Y-7250D01*
X513775Y-9500D02*X516025D01*
X513025Y-8750D02*X513775Y-9500D01*
X513025Y-7250D02*Y-8750D01*
Y-7250D02*X513775Y-6500D01*
X515275D01*
X516025Y-7250D01*
X513025Y-8000D02*X516025D01*
Y-7250D02*Y-8000D01*
G54D105*X520525Y-5000D02*Y-5150D01*
G54D104*Y-7250D02*Y-9500D01*
X522775D02*X525025D01*
X525775Y-8750D01*
X525025Y-8000D02*X525775Y-8750D01*
X522775Y-8000D02*X525025D01*
X522025Y-7250D02*X522775Y-8000D01*
X522025Y-7250D02*X522775Y-6500D01*
X525025D01*
X525775Y-7250D01*
X522025Y-8750D02*X522775Y-9500D01*
X531025Y-3500D02*Y-8750D01*
X531775Y-9500D01*
X530275Y-5750D02*X531775D01*
X533275Y-3500D02*Y-9500D01*
Y-7250D02*X534025Y-6500D01*
X535525D01*
X536275Y-7250D01*
Y-9500D01*
X538825D02*X541075D01*
X538075Y-8750D02*X538825Y-9500D01*
X538075Y-7250D02*Y-8750D01*
Y-7250D02*X538825Y-6500D01*
X540325D01*
X541075Y-7250D01*
X538075Y-8000D02*X541075D01*
Y-7250D02*Y-8000D01*
X546325Y-6500D02*X548575D01*
X545575Y-7250D02*X546325Y-6500D01*
X545575Y-7250D02*Y-8750D01*
X546325Y-9500D01*
X548575D01*
X551125D02*X553375D01*
X550375Y-8750D02*X551125Y-9500D01*
X550375Y-7250D02*Y-8750D01*
Y-7250D02*X551125Y-6500D01*
X552625D01*
X553375Y-7250D01*
X550375Y-8000D02*X553375D01*
Y-7250D02*Y-8000D01*
X555925Y-7250D02*Y-9500D01*
Y-7250D02*X556675Y-6500D01*
X557425D01*
X558175Y-7250D01*
Y-9500D01*
X555175Y-6500D02*X555925Y-7250D01*
X560725Y-3500D02*Y-8750D01*
X561475Y-9500D01*
X559975Y-5750D02*X561475D01*
X563725Y-9500D02*X565975D01*
X562975Y-8750D02*X563725Y-9500D01*
X562975Y-7250D02*Y-8750D01*
Y-7250D02*X563725Y-6500D01*
X565225D01*
X565975Y-7250D01*
X562975Y-8000D02*X565975D01*
Y-7250D02*Y-8000D01*
X568525Y-7250D02*Y-9500D01*
Y-7250D02*X569275Y-6500D01*
X570775D01*
X567775D02*X568525Y-7250D01*
X572575Y-3500D02*Y-8750D01*
X573325Y-9500D01*
G54D105*X574825Y-5000D02*Y-5150D01*
G54D104*Y-7250D02*Y-9500D01*
X577075Y-7250D02*Y-9500D01*
Y-7250D02*X577825Y-6500D01*
X578575D01*
X579325Y-7250D01*
Y-9500D01*
X576325Y-6500D02*X577075Y-7250D01*
X581875Y-9500D02*X584125D01*
X581125Y-8750D02*X581875Y-9500D01*
X581125Y-7250D02*Y-8750D01*
Y-7250D02*X581875Y-6500D01*
X583375D01*
X584125Y-7250D01*
X581125Y-8000D02*X584125D01*
Y-7250D02*Y-8000D01*
X588625Y-7250D02*Y-8750D01*
Y-7250D02*X589375Y-6500D01*
X590875D01*
X591625Y-7250D01*
Y-8750D01*
X590875Y-9500D02*X591625Y-8750D01*
X589375Y-9500D02*X590875D01*
X588625Y-8750D02*X589375Y-9500D01*
X594175Y-4250D02*Y-9500D01*
Y-4250D02*X594925Y-3500D01*
X595675D01*
X593425Y-6500D02*X594925D01*
X600625Y-3500D02*Y-8750D01*
X601375Y-9500D01*
X599875Y-5750D02*X601375D01*
X602875Y-3500D02*Y-9500D01*
Y-7250D02*X603625Y-6500D01*
X605125D01*
X605875Y-7250D01*
Y-9500D01*
G54D105*X607675Y-5000D02*Y-5150D01*
G54D104*Y-7250D02*Y-9500D01*
X609925D02*X612175D01*
X612925Y-8750D01*
X612175Y-8000D02*X612925Y-8750D01*
X609925Y-8000D02*X612175D01*
X609175Y-7250D02*X609925Y-8000D01*
X609175Y-7250D02*X609925Y-6500D01*
X612175D01*
X612925Y-7250D01*
X609175Y-8750D02*X609925Y-9500D01*
X618175Y-7250D02*Y-11750D01*
X617425Y-6500D02*X618175Y-7250D01*
X618925Y-6500D01*
X620425D01*
X621175Y-7250D01*
Y-8750D01*
X620425Y-9500D02*X621175Y-8750D01*
X618925Y-9500D02*X620425D01*
X618175Y-8750D02*X618925Y-9500D01*
X625225Y-6500D02*X625975Y-7250D01*
X623725Y-6500D02*X625225D01*
X622975Y-7250D02*X623725Y-6500D01*
X622975Y-7250D02*Y-8750D01*
X623725Y-9500D01*
X625975Y-6500D02*Y-8750D01*
X626725Y-9500D01*
X623725D02*X625225D01*
X625975Y-8750D01*
X629275Y-3500D02*Y-8750D01*
X630025Y-9500D01*
X628525Y-5750D02*X630025D01*
X631525Y-3500D02*Y-9500D01*
Y-7250D02*X632275Y-6500D01*
X633775D01*
X634525Y-7250D01*
Y-9500D01*
X200750Y728500D02*Y722500D01*
X202700Y728500D02*X203750Y727450D01*
Y723550D01*
X202700Y722500D02*X203750Y723550D01*
X200000Y722500D02*X202700D01*
X200000Y728500D02*X202700D01*
X207800Y725500D02*X208550Y724750D01*
X206300Y725500D02*X207800D01*
X205550Y724750D02*X206300Y725500D01*
X205550Y724750D02*Y723250D01*
X206300Y722500D01*
X208550Y725500D02*Y723250D01*
X209300Y722500D01*
X206300D02*X207800D01*
X208550Y723250D01*
X211850Y728500D02*Y723250D01*
X212600Y722500D01*
X211100Y726250D02*X212600D01*
X214850Y722500D02*X217100D01*
X214100Y723250D02*X214850Y722500D01*
X214100Y724750D02*Y723250D01*
Y724750D02*X214850Y725500D01*
X216350D01*
X217100Y724750D01*
X214100Y724000D02*X217100D01*
Y724750D02*Y724000D01*
X218900Y726250D02*X219650D01*
X218900Y724750D02*X219650D01*
X227150Y728500D02*X227900Y727750D01*
X224900Y728500D02*X227150D01*
X224150Y727750D02*X224900Y728500D01*
X224150Y727750D02*Y726250D01*
X224900Y725500D01*
X227150D01*
X227900Y724750D01*
Y723250D01*
X227150Y722500D02*X227900Y723250D01*
X224900Y722500D02*X227150D01*
X224150Y723250D02*X224900Y722500D01*
X229700Y725500D02*Y723250D01*
X230450Y722500D01*
X231950D01*
X232700Y723250D01*
Y725500D02*Y723250D01*
X235250Y724750D02*Y722500D01*
Y724750D02*X236000Y725500D01*
X236750D01*
X237500Y724750D01*
Y722500D01*
X234500Y725500D02*X235250Y724750D01*
X242000Y727000D02*Y722500D01*
Y727000D02*X243050Y728500D01*
X244700D01*
X245750Y727000D01*
Y722500D01*
X242000Y725500D02*X245750D01*
X247550D02*Y723250D01*
X248300Y722500D01*
X249800D01*
X250550Y723250D01*
Y725500D02*Y723250D01*
X254600Y725500D02*X255350Y724750D01*
X253100Y725500D02*X254600D01*
X252350Y724750D02*X253100Y725500D01*
X252350Y724750D02*Y723250D01*
X253100Y722500D01*
X254600D01*
X255350Y723250D01*
X252350Y721000D02*X253100Y720250D01*
X254600D01*
X255350Y721000D01*
Y725500D02*Y721000D01*
X259850Y727750D02*X260600Y728500D01*
X262100D01*
X262850Y727750D01*
X262100Y722500D02*X262850Y723250D01*
X260600Y722500D02*X262100D01*
X259850Y723250D02*X260600Y722500D01*
Y725800D02*X262100D01*
X262850Y727750D02*Y726550D01*
Y725050D02*Y723250D01*
Y725050D02*X262100Y725800D01*
X262850Y726550D02*X262100Y725800D01*
X264650Y723250D02*X265400Y722500D01*
X264650Y727750D02*Y723250D01*
Y727750D02*X265400Y728500D01*
X266900D01*
X267650Y727750D01*
Y723250D01*
X266900Y722500D02*X267650Y723250D01*
X265400Y722500D02*X266900D01*
X264650Y724000D02*X267650Y727000D01*
X272150Y727750D02*X272900Y728500D01*
X275150D01*
X275900Y727750D01*
Y726250D01*
X272150Y722500D02*X275900Y726250D01*
X272150Y722500D02*X275900D01*
X277700Y727300D02*X278900Y728500D01*
Y722500D01*
X277700D02*X279950D01*
X281750Y726250D02*X282500D01*
X281750Y724750D02*X282500D01*
X284300D02*X287300Y728500D01*
X284300Y724750D02*X288050D01*
X287300Y728500D02*Y722500D01*
X289850Y728500D02*X292850D01*
X289850D02*Y725500D01*
X290600Y726250D01*
X292100D01*
X292850Y725500D01*
Y723250D01*
X292100Y722500D02*X292850Y723250D01*
X290600Y722500D02*X292100D01*
X289850Y723250D02*X290600Y722500D01*
X294650Y726250D02*X295400D01*
X294650Y724750D02*X295400D01*
X297200Y727750D02*X297950Y728500D01*
X299450D01*
X300200Y727750D01*
X299450Y722500D02*X300200Y723250D01*
X297950Y722500D02*X299450D01*
X297200Y723250D02*X297950Y722500D01*
Y725800D02*X299450D01*
X300200Y727750D02*Y726550D01*
Y725050D02*Y723250D01*
Y725050D02*X299450Y725800D01*
X300200Y726550D02*X299450Y725800D01*
X304250Y728500D02*X305000Y727750D01*
X302750Y728500D02*X304250D01*
X302000Y727750D02*X302750Y728500D01*
X302000Y727750D02*Y723250D01*
X302750Y722500D01*
X304250Y725800D02*X305000Y725050D01*
X302000Y725800D02*X304250D01*
X302750Y722500D02*X304250D01*
X305000Y723250D01*
Y725050D02*Y723250D01*
X309500Y727750D02*X310250Y728500D01*
X312500D01*
X313250Y727750D01*
Y726250D01*
X309500Y722500D02*X313250Y726250D01*
X309500Y722500D02*X313250D01*
X315050Y723250D02*X315800Y722500D01*
X315050Y727750D02*Y723250D01*
Y727750D02*X315800Y728500D01*
X317300D01*
X318050Y727750D01*
Y723250D01*
X317300Y722500D02*X318050Y723250D01*
X315800Y722500D02*X317300D01*
X315050Y724000D02*X318050Y727000D01*
X319850Y727750D02*X320600Y728500D01*
X322850D01*
X323600Y727750D01*
Y726250D01*
X319850Y722500D02*X323600Y726250D01*
X319850Y722500D02*X323600D01*
X325400Y723250D02*X326150Y722500D01*
X325400Y727750D02*Y723250D01*
Y727750D02*X326150Y728500D01*
X327650D01*
X328400Y727750D01*
Y723250D01*
X327650Y722500D02*X328400Y723250D01*
X326150Y722500D02*X327650D01*
X325400Y724000D02*X328400Y727000D01*
X332900Y728500D02*Y723250D01*
X333650Y722500D01*
X335150D01*
X335900Y723250D01*
Y728500D02*Y723250D01*
X337700Y728500D02*X340700D01*
X339200D02*Y722500D01*
X343550D02*X345500D01*
X342500Y723550D02*X343550Y722500D01*
X342500Y727450D02*Y723550D01*
Y727450D02*X343550Y728500D01*
X345500D01*
X200000Y742000D02*Y737500D01*
Y742000D02*X201050Y743500D01*
X202700D01*
X203750Y742000D01*
Y737500D01*
X200000Y740500D02*X203750D01*
X205550D02*Y738250D01*
X206300Y737500D01*
X207800D01*
X208550Y738250D01*
Y740500D02*Y738250D01*
X211100Y743500D02*Y738250D01*
X211850Y737500D01*
X210350Y741250D02*X211850D01*
X213350Y743500D02*Y737500D01*
Y739750D02*X214100Y740500D01*
X215600D01*
X216350Y739750D01*
Y737500D01*
X218150Y739750D02*Y738250D01*
Y739750D02*X218900Y740500D01*
X220400D01*
X221150Y739750D01*
Y738250D01*
X220400Y737500D02*X221150Y738250D01*
X218900Y737500D02*X220400D01*
X218150Y738250D02*X218900Y737500D01*
X223700Y739750D02*Y737500D01*
Y739750D02*X224450Y740500D01*
X225950D01*
X222950D02*X223700Y739750D01*
X227750Y741250D02*X228500D01*
X227750Y739750D02*X228500D01*
X233750Y740500D02*X236000D01*
X233000Y739750D02*X233750Y740500D01*
X233000Y739750D02*Y738250D01*
X233750Y737500D01*
X236000D01*
X237800Y739750D02*Y738250D01*
Y739750D02*X238550Y740500D01*
X240050D01*
X240800Y739750D01*
Y738250D01*
X240050Y737500D02*X240800Y738250D01*
X238550Y737500D02*X240050D01*
X237800Y738250D02*X238550Y737500D01*
X243350Y739750D02*Y737500D01*
Y739750D02*X244100Y740500D01*
X244850D01*
X245600Y739750D01*
Y737500D01*
Y739750D02*X246350Y740500D01*
X247100D01*
X247850Y739750D01*
Y737500D01*
X242600Y740500D02*X243350Y739750D01*
X250400D02*Y737500D01*
Y739750D02*X251150Y740500D01*
X251900D01*
X252650Y739750D01*
Y737500D01*
Y739750D02*X253400Y740500D01*
X254150D01*
X254900Y739750D01*
Y737500D01*
X249650Y740500D02*X250400Y739750D01*
X256700D02*Y738250D01*
Y739750D02*X257450Y740500D01*
X258950D01*
X259700Y739750D01*
Y738250D01*
X258950Y737500D02*X259700Y738250D01*
X257450Y737500D02*X258950D01*
X256700Y738250D02*X257450Y737500D01*
X262250Y739750D02*Y737500D01*
Y739750D02*X263000Y740500D01*
X263750D01*
X264500Y739750D01*
Y737500D01*
X261500Y740500D02*X262250Y739750D01*
X268550Y740500D02*X269300Y739750D01*
X267050Y740500D02*X268550D01*
X266300Y739750D02*X267050Y740500D01*
X266300Y739750D02*Y738250D01*
X267050Y737500D01*
X269300Y740500D02*Y738250D01*
X270050Y737500D01*
X267050D02*X268550D01*
X269300Y738250D01*
X274850Y743500D02*Y737500D01*
X274100D02*X274850Y738250D01*
X272600Y737500D02*X274100D01*
X271850Y738250D02*X272600Y737500D01*
X271850Y739750D02*Y738250D01*
Y739750D02*X272600Y740500D01*
X274100D01*
X274850Y739750D01*
X277400D02*Y737500D01*
Y739750D02*X278150Y740500D01*
X278900D01*
X279650Y739750D01*
Y737500D01*
Y739750D02*X280400Y740500D01*
X281150D01*
X281900Y739750D01*
Y737500D01*
X276650Y740500D02*X277400Y739750D01*
G54D105*X283700Y742000D02*Y741850D01*
G54D104*Y739750D02*Y737500D01*
X285950Y739750D02*Y737500D01*
Y739750D02*X286700Y740500D01*
X287450D01*
X288200Y739750D01*
Y737500D01*
X285200Y740500D02*X285950Y739750D01*
X200000Y758500D02*X203000D01*
X201500D02*Y752500D01*
G54D105*X204800Y757000D02*Y756850D01*
G54D104*Y754750D02*Y752500D01*
X207050Y758500D02*Y753250D01*
X207800Y752500D01*
X206300Y756250D02*X207800D01*
X209300Y758500D02*Y753250D01*
X210050Y752500D01*
X212300D02*X214550D01*
X211550Y753250D02*X212300Y752500D01*
X211550Y754750D02*Y753250D01*
Y754750D02*X212300Y755500D01*
X213800D01*
X214550Y754750D01*
X211550Y754000D02*X214550D01*
Y754750D02*Y754000D01*
X216350Y756250D02*X217100D01*
X216350Y754750D02*X217100D01*
X221600Y753250D02*X222350Y752500D01*
X221600Y757750D02*X222350Y758500D01*
X221600Y757750D02*Y753250D01*
X224150Y755500D02*Y753250D01*
X224900Y752500D01*
X226400D01*
X227150Y753250D01*
Y755500D02*Y753250D01*
X229700Y754750D02*Y752500D01*
Y754750D02*X230450Y755500D01*
X231200D01*
X231950Y754750D01*
Y752500D01*
X228950Y755500D02*X229700Y754750D01*
X233750Y758500D02*Y752500D01*
Y754750D02*X236000Y752500D01*
X233750Y754750D02*X235250Y756250D01*
X238550Y754750D02*Y752500D01*
Y754750D02*X239300Y755500D01*
X240050D01*
X240800Y754750D01*
Y752500D01*
X237800Y755500D02*X238550Y754750D01*
X242600D02*Y753250D01*
Y754750D02*X243350Y755500D01*
X244850D01*
X245600Y754750D01*
Y753250D01*
X244850Y752500D02*X245600Y753250D01*
X243350Y752500D02*X244850D01*
X242600Y753250D02*X243350Y752500D01*
X247400Y755500D02*Y753250D01*
X248150Y752500D01*
X248900D01*
X249650Y753250D01*
Y755500D02*Y753250D01*
X250400Y752500D01*
X251150D01*
X251900Y753250D01*
Y755500D02*Y753250D01*
X254450Y754750D02*Y752500D01*
Y754750D02*X255200Y755500D01*
X255950D01*
X256700Y754750D01*
Y752500D01*
X253700Y755500D02*X254450Y754750D01*
X258500Y758500D02*X259250Y757750D01*
Y753250D01*
X258500Y752500D02*X259250Y753250D01*
X263750Y755500D02*X266750D01*
X271250Y758500D02*Y752500D01*
Y758500D02*X274250D01*
X271250Y755800D02*X273500D01*
X278300Y755500D02*X279050Y754750D01*
X276800Y755500D02*X278300D01*
X276050Y754750D02*X276800Y755500D01*
X276050Y754750D02*Y753250D01*
X276800Y752500D01*
X279050Y755500D02*Y753250D01*
X279800Y752500D01*
X276800D02*X278300D01*
X279050Y753250D01*
X281600Y758500D02*Y752500D01*
Y753250D02*X282350Y752500D01*
X283850D01*
X284600Y753250D01*
Y754750D02*Y753250D01*
X283850Y755500D02*X284600Y754750D01*
X282350Y755500D02*X283850D01*
X281600Y754750D02*X282350Y755500D01*
X287150Y754750D02*Y752500D01*
Y754750D02*X287900Y755500D01*
X289400D01*
X286400D02*X287150Y754750D01*
G54D105*X291200Y757000D02*Y756850D01*
G54D104*Y754750D02*Y752500D01*
X293450Y755500D02*X295700D01*
X292700Y754750D02*X293450Y755500D01*
X292700Y754750D02*Y753250D01*
X293450Y752500D01*
X295700D01*
X299750Y755500D02*X300500Y754750D01*
X298250Y755500D02*X299750D01*
X297500Y754750D02*X298250Y755500D01*
X297500Y754750D02*Y753250D01*
X298250Y752500D01*
X300500Y755500D02*Y753250D01*
X301250Y752500D01*
X298250D02*X299750D01*
X300500Y753250D01*
X303800Y758500D02*Y753250D01*
X304550Y752500D01*
X303050Y756250D02*X304550D01*
G54D105*X306050Y757000D02*Y756850D01*
G54D104*Y754750D02*Y752500D01*
X307550Y754750D02*Y753250D01*
Y754750D02*X308300Y755500D01*
X309800D01*
X310550Y754750D01*
Y753250D01*
X309800Y752500D02*X310550Y753250D01*
X308300Y752500D02*X309800D01*
X307550Y753250D02*X308300Y752500D01*
X313100Y754750D02*Y752500D01*
Y754750D02*X313850Y755500D01*
X314600D01*
X315350Y754750D01*
Y752500D01*
X312350Y755500D02*X313100Y754750D01*
X320600Y758500D02*Y752500D01*
X322550Y758500D02*X323600Y757450D01*
Y753550D01*
X322550Y752500D02*X323600Y753550D01*
X319850Y752500D02*X322550D01*
X319850Y758500D02*X322550D01*
X326150Y754750D02*Y752500D01*
Y754750D02*X326900Y755500D01*
X328400D01*
X325400D02*X326150Y754750D01*
X332450Y755500D02*X333200Y754750D01*
X330950Y755500D02*X332450D01*
X330200Y754750D02*X330950Y755500D01*
X330200Y754750D02*Y753250D01*
X330950Y752500D01*
X333200Y755500D02*Y753250D01*
X333950Y752500D01*
X330950D02*X332450D01*
X333200Y753250D01*
X335750Y755500D02*Y753250D01*
X336500Y752500D01*
X337250D01*
X338000Y753250D01*
Y755500D02*Y753250D01*
X338750Y752500D01*
X339500D01*
X340250Y753250D01*
Y755500D02*Y753250D01*
G54D105*X342050Y757000D02*Y756850D01*
G54D104*Y754750D02*Y752500D01*
X344300Y754750D02*Y752500D01*
Y754750D02*X345050Y755500D01*
X345800D01*
X346550Y754750D01*
Y752500D01*
X343550Y755500D02*X344300Y754750D01*
X350600Y755500D02*X351350Y754750D01*
X349100Y755500D02*X350600D01*
X348350Y754750D02*X349100Y755500D01*
X348350Y754750D02*Y753250D01*
X349100Y752500D01*
X350600D01*
X351350Y753250D01*
X348350Y751000D02*X349100Y750250D01*
X350600D01*
X351350Y751000D01*
Y755500D02*Y751000D01*
M02*
