G04 start of page 11 for group -4078 idx -4078 *
G04 Title: (unknown), bottomsilk *
G04 Creator: pcb 4.2.0 *
G04 CreationDate: Sun Sep  6 18:52:41 2020 UTC *
G04 For: commonadmin *
G04 Format: Gerber/RS-274X *
G04 PCB-Dimensions (mil): 1250.00 1500.00 *
G04 PCB-Coordinate-Origin: lower left *
%MOIN*%
%FSLAX25Y25*%
%LNBOTTOMSILK*%
%ADD102C,0.0040*%
%ADD101C,0.0060*%
%ADD100C,0.0080*%
G54D100*X58564Y109245D02*X59350D01*
X58564Y114755D02*X59350D01*
G54D101*X68831Y83100D02*X69631Y83900D01*
X68831Y83100D02*Y79600D01*
X69531Y78900D02*X68831Y79600D01*
X72831Y79700D02*X72131Y79000D01*
X72831Y83200D02*Y79700D01*
X72131Y83900D02*X72831Y83200D01*
X69631Y107200D02*X70431Y106400D01*
X66131Y107200D02*X69631D01*
X65431Y106500D02*X66131Y107200D01*
X66231Y103200D02*X65531Y103900D01*
X66231Y103200D02*X69731D01*
X70431Y103900D02*X69731Y103200D01*
G54D102*X55807Y109850D02*X57807D01*
X58307Y110350D01*
Y111350D01*
X57807Y111850D02*X58307Y111350D01*
X56307Y111850D02*X57807D01*
X56307Y109850D02*Y113850D01*
X57107Y111850D02*X58307Y113850D01*
X59507Y110650D02*X60307Y109850D01*
Y113850D01*
X59507D02*X61007D01*
M02*
