G04 start of page 2 for group 0 idx 0 *
G04 Title: (unknown), P1_W1 *
G04 Creator: pcb 4.2.0 *
G04 CreationDate: Mon Sep 28 05:23:14 2020 UTC *
G04 For: commonadmin *
G04 Format: Gerber/RS-274X *
G04 PCB-Dimensions (mil): 3500.00 4250.00 *
G04 PCB-Coordinate-Origin: lower left *
%MOIN*%
%FSLAX25Y25*%
%LNTOP*%
%ADD29C,0.0380*%
%ADD28C,0.0295*%
%ADD27C,0.0492*%
%ADD26C,0.0787*%
%ADD25C,0.0197*%
%ADD24C,0.0100*%
%ADD23C,0.1181*%
%ADD22C,0.0250*%
%ADD21C,0.1600*%
%ADD20C,0.0600*%
%ADD19C,0.0001*%
%ADD18C,0.0472*%
%ADD17C,0.0669*%
%ADD16C,0.0945*%
%ADD15C,0.0394*%
%ADD14C,0.0150*%
%ADD13C,0.0200*%
%ADD12C,0.0350*%
%ADD11C,0.0060*%
G54D11*X252000Y320000D02*Y318500D01*
X222000Y320000D02*Y318500D01*
X273500Y323500D02*Y325000D01*
G54D12*X274000Y256500D02*X277500Y260000D01*
X265500D02*Y266500D01*
X256000Y276000D01*
X255500Y289500D02*Y276500D01*
X256500Y275500D01*
G54D11*X225000Y290000D02*X227500Y287500D01*
G54D12*X255000Y290000D02*X255500Y289500D01*
G54D11*X227500Y287500D02*X229000D01*
X232250Y284250D01*
X236250D01*
X241000Y279500D01*
Y271500D01*
X251000Y261500D01*
Y256000D01*
X242500Y247500D01*
G54D12*X250957Y144980D02*Y150457D01*
X252000Y151500D01*
X262500D01*
X264750Y153750D01*
X272750D02*X274000Y155000D01*
Y256500D01*
G54D11*X242500Y247500D02*Y228000D01*
X254500Y137500D02*Y121000D01*
X253000Y119500D01*
X207000D01*
X204500Y117000D01*
Y66000D02*Y117000D01*
G54D12*X264750Y153750D02*X272750D01*
G54D11*X68524Y159500D02*X68480Y159543D01*
X242500Y228000D02*X236000Y221500D01*
X186000D02*Y211500D01*
X189000Y208500D01*
Y195000D01*
X185000Y191000D01*
X144000D01*
X117500Y164500D01*
X87000D01*
X83000Y75500D02*Y88000D01*
X81500Y89500D01*
X61000Y156000D02*X48000D01*
X44000Y152000D02*X48000Y156000D01*
X57500Y224000D02*Y254500D01*
X30000Y152000D02*X44000D01*
X81500Y89500D02*X22500D01*
X18500Y93500D01*
Y140500D01*
X30000Y152000D01*
X252000Y404000D02*Y402500D01*
X222000Y404000D02*Y402500D01*
X255000Y374000D02*Y369500D01*
X252000Y366500D01*
Y364500D01*
X225000Y374000D02*Y369500D01*
X222000Y366500D01*
Y364500D01*
X273500Y407500D02*Y409000D01*
X256000Y325000D02*Y323500D01*
X226500Y325000D02*Y323500D01*
X229000Y292000D02*Y289500D01*
G54D12*X260000Y288000D02*Y278000D01*
G54D11*X225000Y300000D02*Y296000D01*
X229000Y292000D01*
Y289500D02*X233000Y285500D01*
X237000D01*
X242500Y280000D01*
Y272000D01*
G54D12*X255000Y300000D02*Y298000D01*
X260000Y293000D01*
Y292000D01*
G54D13*Y288000D01*
G54D11*X256000Y409000D02*Y407500D01*
X255000Y384000D02*X259000Y380000D01*
Y369000D01*
X256500Y366500D01*
Y364500D01*
X269500Y404000D02*Y402500D01*
X226500Y409000D02*Y407500D01*
X225000Y384000D02*X229000Y380000D01*
Y369000D01*
X226500Y366500D01*
Y364500D01*
G54D12*X236457Y144980D02*Y146957D01*
X239000Y149500D01*
X243500D01*
X250500Y156500D01*
X261000D01*
X262500Y158000D01*
X268500D01*
X269500Y159000D01*
G54D11*X240000Y137500D02*Y122500D01*
X238500Y121000D01*
X205500D01*
X201500Y117000D01*
Y66001D02*X201499Y66000D01*
X201500Y117000D02*Y66001D01*
G54D12*X269500Y159000D02*Y258000D01*
X276000Y264500D01*
X280000D01*
G54D11*X269500Y320000D02*Y318500D01*
G54D12*X270000Y264500D02*Y268000D01*
G54D11*X242500Y272000D02*X252500Y262000D01*
Y255500D01*
G54D12*X270000Y268000D02*X260000Y278000D01*
G54D11*X252500Y255500D02*X244000Y247000D01*
Y227500D01*
X238500Y222000D01*
Y220500D01*
X236500Y218500D01*
X233000D01*
X144000Y193500D02*X184000D01*
X186500Y196000D01*
Y208500D01*
X184500Y210500D01*
Y217500D01*
X183500Y218500D01*
X144000Y193500D02*X117500Y167000D01*
X87000D01*
X61000Y170500D02*X49000D01*
X54500Y224000D02*Y254500D01*
X49000Y170500D02*X33500Y155000D01*
X30000D01*
X16000Y141000D01*
Y92500D01*
X22000Y86500D01*
X79000D01*
X80000Y85500D01*
Y75500D02*Y85500D01*
X242000Y320000D02*Y318500D01*
X212500Y320000D02*Y318500D01*
G54D14*X245000Y290000D02*X249500Y285500D01*
Y274500D01*
X259500Y264500D01*
G54D11*X215000Y290000D02*X218500D01*
G54D14*X259500Y264500D02*Y258000D01*
X263500Y254000D01*
G54D11*X218500Y290000D02*X245500Y263000D01*
X242000Y404000D02*Y402500D01*
X245000Y374000D02*Y369500D01*
X242000Y366500D01*
Y364500D01*
X212500Y404000D02*Y402500D01*
X215000Y374000D02*Y369500D01*
X212000Y366500D01*
Y364500D01*
X219000Y65500D02*Y109500D01*
G54D14*X280000Y145024D02*X279957Y144980D01*
X280000Y254000D02*Y145024D01*
G54D11*X220500Y111000D02*X282000D01*
X283500Y112500D01*
Y137500D01*
X220500Y111000D02*X219000Y109500D01*
X245500Y263000D02*Y255000D01*
X239000Y248500D01*
Y228500D01*
X223000Y212500D01*
X189000D02*X190500Y211000D01*
Y192000D01*
X187500Y189000D01*
X144500D01*
X117500Y162000D01*
X60500Y224000D02*Y254500D01*
X117500Y162000D02*X87000D01*
X61000Y141500D02*X48000D01*
X30000Y137500D02*X44000D01*
X48000Y141500D01*
X97500Y75500D02*Y86500D01*
X92000Y92000D01*
X29500D01*
X24000Y97500D01*
Y131500D01*
X30000Y137500D01*
X246500Y325000D02*Y323500D01*
G54D14*X245000Y300000D02*Y296500D01*
X249500Y292000D01*
G54D11*X216500Y325000D02*Y323500D01*
G54D14*X277500Y255000D02*X279000Y256500D01*
X262000Y259000D02*X264500Y256500D01*
X249500Y292000D02*Y289000D01*
X252000Y286500D01*
Y275500D01*
X262000Y265500D01*
Y259000D01*
G54D11*X246500Y409000D02*Y407500D01*
X216500Y409000D02*Y407500D01*
X215000Y384000D02*X219000Y380000D01*
Y369000D01*
X216500Y366500D01*
Y364500D01*
X245000Y384000D02*X249000Y380000D01*
Y369000D01*
X246500Y366500D01*
Y364500D01*
G54D14*X265457Y144980D02*Y149457D01*
X266500Y150500D01*
X276500D01*
G54D11*X269000Y137500D02*Y114500D01*
G54D14*X276500Y150500D02*X277500Y151500D01*
Y255000D01*
G54D11*X269000Y114500D02*X267000Y112500D01*
X218000D01*
X216000Y110500D01*
Y65500D01*
X144500Y185000D02*X191000D01*
X144500D02*X116500Y157000D01*
X87000D01*
X71500Y224000D02*Y254500D01*
G54D14*X192957Y144980D02*Y149457D01*
X197500Y154000D01*
G54D11*X196500Y137500D02*Y127500D01*
X194500Y125500D01*
X190000D01*
G54D14*X253500Y168500D02*Y200500D01*
X250500Y203500D01*
G54D11*X191000Y185000D02*X193500Y187500D01*
G54D14*X252500Y167500D02*X253500Y168500D01*
X252500Y167500D02*X232000D01*
X228000Y171500D01*
X223500D01*
X221000Y169000D01*
Y162500D01*
X217000Y158500D01*
Y155000D01*
X216000Y154000D01*
X197500D02*X216000D01*
G54D12*X190000Y155500D02*X213000Y178500D01*
G54D11*X95000Y137500D02*Y117000D01*
X113500Y98500D02*X95000Y117000D01*
X190000Y125500D02*X188500Y124000D01*
G54D12*X167500Y155500D02*X190000D01*
G54D11*X179000Y126500D02*X181000Y124500D01*
X113500Y75500D02*Y98500D01*
G54D12*X163957Y144980D02*Y151957D01*
X167500Y155500D01*
G54D11*Y137500D02*Y127500D01*
X168500Y126500D01*
X179000D01*
X232000Y320000D02*Y318500D01*
G54D14*X235000Y290000D02*X244500Y280500D01*
Y272500D01*
X254500Y262500D01*
Y256000D01*
X258000Y220000D02*Y234500D01*
X260500Y237000D01*
Y244500D01*
X264500Y248500D01*
X265500D01*
X266000Y249000D01*
G54D12*X275000Y300000D02*Y298000D01*
X280500Y292500D02*Y283000D01*
X280000Y282500D01*
X275000Y298000D02*X280500Y292500D01*
G54D11*X276500Y325000D02*Y323500D01*
X182000Y404000D02*Y402500D01*
X185000Y374000D02*Y369500D01*
X182000Y366500D01*
Y364500D01*
X188500Y124000D02*Y76000D01*
X181000Y124500D02*Y67500D01*
X232000Y404000D02*Y402500D01*
X235000Y374000D02*Y369500D01*
X232000Y366500D01*
Y364500D01*
X276500Y409000D02*Y407500D01*
X275000Y384000D02*X279000Y380000D01*
Y369000D01*
X276500Y366500D01*
Y364500D01*
G54D14*X250500Y203500D02*Y212500D01*
X258000Y220000D01*
G54D11*X193500Y187500D02*Y227000D01*
X193000Y227500D01*
G54D12*X213000Y178500D02*Y258000D01*
G54D14*X254500Y256000D02*X258500Y252000D01*
Y249000D01*
G54D11*X220500Y258000D02*Y231500D01*
X224500Y227500D01*
X182000Y320000D02*Y318500D01*
X185000Y290000D02*X186000D01*
X192000Y284000D01*
X194500D01*
X220500Y258000D01*
G54D12*X213000D02*X188500Y282500D01*
G54D14*X178457Y144980D02*Y150457D01*
X179500Y151500D01*
G54D11*X182000Y137500D02*Y127000D01*
X183500Y125500D01*
X186000D01*
X187000Y124500D01*
G54D14*X179500Y151500D02*X191500D01*
G54D11*X144500Y187000D02*X189500D01*
X126000Y117500D02*X171000D01*
X173000Y115500D02*X171000Y117500D01*
X173000Y115500D02*Y67500D01*
G54D14*X257000Y263500D02*Y257000D01*
X255500Y221000D02*Y235000D01*
X258000Y237500D01*
Y245000D01*
X264500Y251500D01*
X265000D01*
X257000Y257000D02*X261000Y253000D01*
Y251500D01*
G54D11*X222500Y258500D02*Y233000D01*
X231000Y224500D01*
X192000Y223500D02*X191000Y224500D01*
X68500Y224000D02*Y254500D01*
X144500Y187000D02*X117000Y159500D01*
X87000D01*
X80500Y137500D02*Y127500D01*
X83000Y125000D01*
X89000D01*
X92000Y122000D01*
Y117000D01*
X110500Y75500D02*Y98500D01*
X92000Y117000D01*
X124000Y137500D02*Y119500D01*
X126000Y117500D01*
X186500Y325000D02*Y323500D01*
X185000Y300000D02*Y296000D01*
X190500Y290500D01*
Y288000D01*
X193000Y285500D01*
X195500D01*
X236500Y409000D02*Y407500D01*
X235000Y384000D02*X239000Y380000D01*
Y369000D01*
X236500Y366500D01*
Y364500D01*
X186500Y409000D02*Y407500D01*
X185000Y384000D02*X189000Y380000D01*
Y369000D01*
X186500Y366500D01*
Y364500D01*
X195500Y285500D02*X222500Y258500D01*
G54D12*X208000Y256500D02*X186500Y278000D01*
G54D11*X272000Y404000D02*Y402500D01*
X275000Y374000D02*Y369500D01*
X272000Y366500D01*
Y364500D01*
X236500Y325000D02*Y323500D01*
G54D14*X235000Y300000D02*Y296500D01*
X239500Y292000D01*
Y289000D01*
X247000Y281500D01*
Y273500D01*
X257000Y263500D01*
G54D12*X275000Y281000D02*X278000Y278000D01*
X275000Y290000D02*Y281000D01*
G54D11*X272000Y320000D02*Y318500D01*
G54D14*X191500Y151500D02*X196500Y156500D01*
X213500D01*
G54D11*X189500Y187000D02*X192000Y189500D01*
G54D12*X198000Y170500D02*X208000Y180500D01*
G54D14*X213500Y156500D02*X214500Y157500D01*
Y159500D01*
X218500Y163500D01*
Y170000D01*
X222500Y174000D01*
G54D11*X187000Y124500D02*Y77500D01*
X185500Y76000D01*
X192000Y189500D02*Y223500D01*
G54D14*X250500Y170000D02*X251000Y170500D01*
Y199000D01*
X248000Y202000D01*
Y213500D01*
X255500Y221000D01*
X222500Y174000D02*X229000D01*
X233000Y170000D01*
X250500D01*
G54D12*X208000Y180500D02*Y256500D01*
G54D11*X258500Y162000D02*Y209681D01*
X255500Y164000D02*Y202000D01*
X252500Y205000D01*
Y211500D01*
X256500Y215500D01*
G54D12*X182500Y168000D02*X199000Y184500D01*
Y252500D01*
G54D11*X258500Y205000D02*X263500D01*
X264500Y206000D01*
X258500Y209681D02*X261681D01*
X263000Y211000D01*
Y230500D01*
X264500Y206000D02*Y229000D01*
X265500Y230000D01*
X256500Y215500D02*X259500D01*
X260000Y216000D01*
X263000Y230500D02*X264500Y232000D01*
X265500D01*
X266000Y232500D01*
X260000Y216000D02*Y233500D01*
X266000Y232500D02*Y240000D01*
X265500Y240500D01*
X260000Y233500D02*X262000Y235500D01*
X262500D01*
X263000Y236000D01*
Y237500D01*
X262250Y238250D01*
Y243750D01*
X95500Y224000D02*Y254500D01*
X79500Y239000D02*Y254500D01*
X98500Y228000D02*Y248000D01*
X95500Y251000D01*
X79500Y228000D02*Y224000D01*
X262250Y243750D02*X264500Y246000D01*
X266000D01*
X202000Y320000D02*Y318500D01*
X192000Y320000D02*Y318500D01*
X195000Y294000D02*X191000Y298000D01*
Y302000D01*
X193000Y304000D01*
X197000D01*
X199000Y302000D01*
Y298000D01*
X197500Y296500D01*
Y295500D01*
X200500Y292500D01*
X195000Y290000D02*Y294000D01*
G54D12*X199000Y252500D02*X184500Y267000D01*
Y273500D01*
G54D11*X205000Y294000D02*X201000Y298000D01*
Y302000D01*
X205000Y294000D02*Y290000D01*
X200500Y288500D02*X204500Y284500D01*
X201000Y302000D02*X203000Y304000D01*
X207000D01*
X209000Y302000D01*
Y298000D01*
X207500Y296500D01*
Y295500D01*
X210500Y292500D01*
Y288500D01*
X205000Y290000D02*X212500Y282500D01*
X204500Y284500D02*X208000D01*
X212000Y280500D01*
X203500Y281500D02*X207000D01*
X211500Y277000D01*
X200500Y292500D02*Y288500D01*
X195000Y290000D02*X203500Y281500D01*
X210500Y288500D02*X213500Y285500D01*
X218500D01*
X241500Y262500D01*
X212500Y282500D02*X217500D01*
X212000Y280500D02*X215500D01*
X211500Y277000D02*X215000D01*
X217500Y282500D02*X238500Y261500D01*
X215500Y280500D02*X234500Y261500D01*
X215000Y277000D02*X231500Y260500D01*
G54D12*X265000Y298000D02*X270000Y293000D01*
X265000Y300000D02*Y298000D01*
G54D11*X266500Y324500D02*Y323000D01*
G54D12*X270000Y293000D02*Y292000D01*
G54D13*Y288000D01*
G54D12*Y280000D02*X276500Y273500D01*
X270000Y288000D02*Y280000D01*
G54D11*X241500Y262500D02*Y257000D01*
X236500Y252000D01*
Y240500D01*
X238500Y261500D02*Y258000D01*
X233500Y253000D01*
X234500Y258500D02*X230500Y254500D01*
X231500Y259500D02*X227500Y255500D01*
X233500Y253000D02*Y248500D01*
X233000Y248000D01*
Y245000D01*
X232500Y244500D01*
X230500Y254500D02*Y242000D01*
X227500Y255500D02*Y241000D01*
X232500Y244500D02*Y242500D01*
X234000Y241000D01*
X236000D01*
X236500Y240500D01*
X234500Y261500D02*Y258500D01*
X231500Y260500D02*Y259500D01*
X202000Y404000D02*Y402500D01*
X192000Y404000D02*Y402500D01*
X205000Y374000D02*Y369500D01*
X202000Y366500D01*
Y364500D01*
X195000Y374000D02*Y369500D01*
X192000Y366500D01*
Y364500D01*
X266500Y408500D02*Y407000D01*
X265000Y384000D02*X269000Y380000D01*
Y369000D01*
X266500Y366500D01*
Y364500D01*
X218000Y151000D02*X205500D01*
X116500Y154500D02*X87000D01*
X195500Y186000D02*X192500Y183000D01*
X145000D01*
G54D12*X157000Y157500D02*X167500Y168000D01*
X182500D01*
G54D11*X225500Y137500D02*Y125000D01*
X230500Y242000D02*X236500Y236000D01*
X227500Y241000D02*X232500Y236000D01*
X236500D02*Y230000D01*
X232500Y236000D02*Y234000D01*
X232000Y233500D01*
Y232000D01*
X233500Y230500D01*
X236000D01*
X236500Y230000D01*
X195500Y186000D02*Y240500D01*
X199500Y123000D02*Y69500D01*
X222000Y145024D02*X221957Y144980D01*
X219000Y157500D02*Y152000D01*
X218000Y151000D01*
X221957Y144980D02*Y156457D01*
X258500Y162000D02*X257000Y160500D01*
X255500Y164000D02*X255000Y163500D01*
X229500Y160500D02*X257000D01*
X230500Y163500D02*X255000D01*
X221957Y156457D02*X224000Y158500D01*
X227500D01*
X229500Y160500D01*
X219000Y157500D02*X223000Y161500D01*
X230500Y163500D02*X228000Y166000D01*
Y168000D01*
X227000Y169000D01*
X224000D01*
X223000Y168000D01*
Y161500D01*
X109500Y137500D02*Y117000D01*
X128000Y75500D02*Y98500D01*
X109500Y117000D01*
X225500Y125000D02*X224500Y124000D01*
X200500D02*X199500Y123000D01*
X224500Y124000D02*X200500D01*
X145000Y183000D02*X116500Y154500D01*
G54D12*X134957Y144980D02*Y153957D01*
X138500Y157500D01*
X157000D01*
G54D11*X138500Y137500D02*Y123500D01*
X140500Y121500D01*
X174500D01*
X175500Y120500D01*
Y65500D01*
X206500Y325000D02*Y323500D01*
X205000Y300000D02*Y296000D01*
X209000Y292000D01*
X196500Y325000D02*Y323500D01*
X195000Y300000D02*Y296000D01*
X199000Y292000D01*
X209000D02*Y288000D01*
X199000Y292000D02*Y288000D01*
X204000Y283000D01*
X207500D01*
G54D12*X203500Y182500D02*Y254500D01*
G54D11*X206500Y409000D02*Y407500D01*
X196500Y409000D02*Y407500D01*
X205000Y384000D02*X209000Y380000D01*
X195000Y384000D02*X199000Y380000D01*
X209000D02*Y369000D01*
X206500Y366500D01*
Y364500D01*
X199000Y380000D02*Y369000D01*
X196500Y366500D01*
Y364500D01*
X207457Y144980D02*Y148957D01*
X210000Y125500D02*X199500D01*
X211000Y126500D02*X210000Y125500D01*
X211000Y137500D02*Y126500D01*
X199500Y125500D02*X196500Y122500D01*
Y69500D01*
X208000Y149500D02*X218500D01*
X220500Y151500D01*
Y157000D01*
X225500Y162000D01*
X256000D01*
X225500D02*X225000Y161500D01*
X178500Y121500D02*Y65500D01*
X256000Y162000D02*X257000Y163000D01*
Y202500D01*
X254000Y205500D01*
Y211000D01*
X257000Y214000D01*
X260500D01*
X261500Y215000D01*
Y232000D01*
X262000Y320000D02*Y318500D01*
Y404000D02*Y402500D01*
Y366500D02*Y364500D01*
X261500Y232000D02*X264500Y235000D01*
Y238000D01*
X265000Y374000D02*Y369500D01*
X262000Y366500D01*
X264500Y238000D02*X263500Y239000D01*
Y242000D01*
X265000Y243500D01*
X209000Y288000D02*X213000Y284000D01*
X207500Y283000D02*X212000Y278500D01*
X215500D01*
X213000Y284000D02*X218000D01*
X240000Y262000D01*
X215500Y278500D02*X233000Y261000D01*
G54D12*X265000Y279000D02*X275000Y269000D01*
X265000Y290000D02*Y279000D01*
X203500Y254500D02*X189000Y269000D01*
G54D11*X240000Y262000D02*Y257500D01*
X235000Y252500D01*
X233000Y261000D02*Y259000D01*
X235000Y252500D02*Y248000D01*
X234500Y247500D01*
X233000Y259000D02*X229000Y255000D01*
Y241500D01*
X234500Y247500D02*Y243500D01*
X229000Y241500D02*X234000Y236500D01*
X234500Y233000D02*Y234000D01*
X234000Y234500D01*
Y236500D01*
X92500Y224000D02*Y254500D01*
X76500Y237000D02*Y254500D01*
X207457Y148957D02*X208000Y149500D01*
G54D12*X169000Y163500D02*X184500D01*
G54D11*X225500Y162000D02*Y167000D01*
G54D12*X184500Y163500D02*X203500Y182500D01*
X149457Y144980D02*Y150457D01*
X152000Y153000D01*
X158500D01*
X169000Y163500D01*
G54D11*X153000Y137500D02*Y124500D01*
X154500Y123000D01*
X177000D01*
X178500Y121500D01*
G54D15*X231406Y141437D03*
G54D16*X240000Y137500D03*
G54D17*X236457Y144980D03*
G54D18*X242362Y144587D03*
G54D16*X225500Y137500D03*
G54D17*X221957Y144980D03*
G54D18*X227862Y144587D03*
G54D15*X245906Y141437D03*
X187906D03*
G54D17*X192957Y144980D03*
G54D18*X198862Y144587D03*
G54D16*X196500Y137500D03*
X211000D03*
G54D15*X202406Y141437D03*
G54D17*X207457Y144980D03*
G54D18*X213362Y144587D03*
G54D15*X216906Y141437D03*
G54D16*X254500Y137500D03*
X269000D03*
X283500D03*
G54D17*X250957Y144980D03*
G54D18*X256862Y144587D03*
G54D15*X260406Y141437D03*
G54D17*X265457Y144980D03*
G54D18*X271362Y144587D03*
G54D15*X274906Y141437D03*
G54D17*X279957Y144980D03*
G54D18*X285862Y144587D03*
G54D15*X289406Y141437D03*
G54D13*X201499Y66000D03*
X181000Y67500D03*
X204500Y66000D03*
X216000Y65500D03*
X219000D03*
X196500Y69500D03*
X199500D03*
X185500Y76000D03*
X188500D03*
X173000Y67500D03*
X175500Y65500D03*
X178500D03*
X160500D03*
X163500D03*
X166500D03*
X153500Y75500D03*
X156500D03*
X150500D03*
X86000D03*
X83000D03*
X80000D03*
X100500D03*
X97500D03*
X94500D03*
X116500D03*
X113500D03*
X110500D03*
X131000D03*
X128000D03*
X125000D03*
G54D16*X80500Y137500D03*
X95000D03*
X109500D03*
G54D17*X76957Y144980D03*
G54D18*X82862Y144587D03*
G54D15*X86406Y141437D03*
G54D17*X91457Y144980D03*
G54D18*X97362Y144587D03*
G54D15*X100906Y141437D03*
G54D17*X105957Y144980D03*
G54D18*X111862Y144587D03*
G54D16*X61000Y141500D03*
G54D15*X64937Y135594D03*
G54D16*X61000Y170500D03*
G54D15*X64937Y164594D03*
G54D16*X61000Y156000D03*
G54D15*X64937Y150094D03*
G54D17*X68480Y145043D03*
G54D18*X68087Y139138D03*
G54D17*X68480Y174043D03*
G54D18*X68087Y168138D03*
G54D17*X68480Y159543D03*
G54D18*X68087Y153638D03*
G54D15*X115406Y141437D03*
G54D17*X120457Y144980D03*
G54D18*X126362Y144587D03*
G54D16*X124000Y137500D03*
X138500D03*
G54D15*X129906Y141437D03*
G54D17*X134957Y144980D03*
G54D18*X140862Y144587D03*
G54D15*X144406Y141437D03*
G54D16*X153000Y137500D03*
X167500D03*
X182000D03*
G54D17*X149457Y144980D03*
G54D18*X155362Y144587D03*
G54D15*X158906Y141437D03*
G54D17*X163957Y144980D03*
G54D18*X169862Y144587D03*
G54D15*X173406Y141437D03*
G54D17*X178457Y144980D03*
G54D18*X184362Y144587D03*
G54D19*G36*
X272000Y303000D02*Y297000D01*
X278000D01*
Y303000D01*
X272000D01*
G37*
G54D20*X275000Y290000D03*
X265000Y300000D03*
Y290000D03*
X255000Y300000D03*
Y290000D03*
X245000Y300000D03*
Y290000D03*
X235000Y300000D03*
Y290000D03*
X225000Y300000D03*
X215000D03*
X205000D03*
X195000D03*
X185000D03*
X225000Y290000D03*
X215000D03*
X205000D03*
X195000D03*
X185000D03*
G54D19*G36*
X272000Y387000D02*Y381000D01*
X278000D01*
Y387000D01*
X272000D01*
G37*
G54D20*X275000Y374000D03*
X265000Y384000D03*
Y374000D03*
X255000Y384000D03*
Y374000D03*
X245000Y384000D03*
Y374000D03*
X235000D03*
X225000D03*
X235000Y384000D03*
X225000D03*
X215000D03*
X205000D03*
X195000D03*
X185000D03*
X215000Y374000D03*
X205000D03*
X195000D03*
X185000D03*
G54D19*G36*
X90213Y171787D02*Y170213D01*
X91787D01*
Y171787D01*
X90213D01*
G37*
G36*
X92575D02*Y170213D01*
X94149D01*
Y171787D01*
X92575D01*
G37*
G36*
X110213D02*Y170213D01*
X111787D01*
Y171787D01*
X110213D01*
G37*
G36*
X112575D02*Y170213D01*
X114149D01*
Y171787D01*
X112575D01*
G37*
G36*
X100213D02*Y170213D01*
X101787D01*
Y171787D01*
X100213D01*
G37*
G36*
X102575D02*Y170213D01*
X104149D01*
Y171787D01*
X102575D01*
G37*
G36*
X257713Y208106D02*Y206532D01*
X259287D01*
Y208106D01*
X257713D01*
G37*
G36*
Y210468D02*Y208894D01*
X259287D01*
Y210468D01*
X257713D01*
G37*
G54D12*X275000Y269000D03*
X276500Y273500D03*
X278000Y278000D03*
X280000Y282500D03*
Y264500D03*
X270000D03*
X188500Y282500D03*
X186500Y278000D03*
G54D21*X130000Y285000D03*
G54D12*X189000Y269000D03*
X184500Y273500D03*
G54D13*X223000Y212500D03*
X224500Y227500D03*
X205500Y151000D03*
X225500Y167000D03*
G54D12*X198000Y170500D03*
G54D13*X236000Y221500D03*
X193000Y227500D03*
X191000Y224500D03*
X189000Y212500D03*
X186000Y221500D03*
X183500Y218500D03*
X233000D03*
X231000Y224500D03*
G54D21*X235000Y190000D03*
G54D13*X236500Y246500D03*
Y240500D03*
Y236000D03*
Y230000D03*
X234500Y233000D03*
Y243500D03*
X195500Y240500D03*
X116000Y154500D03*
X114500Y157000D03*
X113000Y159500D03*
X100200Y171000D03*
X104200D03*
X110200D03*
X114200D03*
G54D21*X130000Y245000D03*
G54D13*X280000Y254000D03*
X279000Y256500D03*
G54D12*X277500Y260000D03*
G54D13*X265500Y230000D03*
X262500Y233000D03*
X265500Y240500D03*
X265000Y243500D03*
X266000Y246000D03*
Y249000D03*
X265000Y251500D03*
X261000D03*
X258500Y249000D03*
G54D12*X265500Y260000D03*
G54D13*X263500Y254000D03*
X264500Y256500D03*
X88500Y164500D03*
X94500D03*
X99000Y167000D03*
X87000D03*
Y157000D03*
X90200Y171000D03*
X94200D03*
X90500Y162000D03*
X94500Y159500D03*
X98000Y162000D03*
X89000Y154500D03*
X79500Y239000D03*
X76500Y237000D03*
X95500Y233500D03*
X92500Y231000D03*
X79500Y228000D03*
X98500D03*
X60500D03*
X71500Y231500D03*
X57500D03*
X54500Y234500D03*
X68500D03*
G54D22*G54D23*G54D22*G54D24*G54D22*G54D24*G54D23*G54D24*G54D23*G54D24*G54D22*G54D24*G54D22*G54D24*G54D25*G54D26*G54D27*G54D28*G54D26*G54D27*G54D28*G54D25*G54D27*G54D28*G54D26*G54D25*G54D27*G54D28*G54D25*G54D26*G54D27*G54D28*G54D25*G54D27*G54D28*G54D25*G54D27*G54D28*G54D25*G54D24*G54D26*G54D27*G54D28*G54D25*G54D27*G54D28*G54D25*G54D27*G54D28*G54D26*G54D25*G54D26*G54D25*G54D26*G54D25*G54D27*G54D28*G54D27*G54D28*G54D27*G54D28*G54D25*G54D27*G54D28*G54D26*G54D25*G54D27*G54D28*G54D25*G54D26*G54D27*G54D28*G54D25*G54D27*G54D28*G54D25*G54D27*G54D28*G54D29*M02*
