G04 start of page 4 for group 2 idx 13 *
G04 Title: (unknown), jump *
G04 Creator: pcb 4.2.0 *
G04 CreationDate: Mon Sep 28 05:23:14 2020 UTC *
G04 For: commonadmin *
G04 Format: Gerber/RS-274X *
G04 PCB-Dimensions (mil): 3500.00 4250.00 *
G04 PCB-Coordinate-Origin: lower left *
%MOIN*%
%FSLAX25Y25*%
%LNBOTTOM*%
%ADD49C,0.0380*%
%ADD48C,0.0295*%
%ADD47C,0.0492*%
%ADD46C,0.0787*%
%ADD45C,0.0197*%
%ADD44C,0.0100*%
%ADD43C,0.1181*%
%ADD42C,0.0250*%
%ADD41C,0.1600*%
%ADD40C,0.0600*%
%ADD39C,0.0200*%
%ADD38C,0.0472*%
%ADD37C,0.0669*%
%ADD36C,0.0945*%
%ADD35C,0.0394*%
%ADD34C,0.0350*%
%ADD33C,0.0150*%
%ADD32C,0.0060*%
%ADD31C,0.0001*%
G54D31*G36*
X242583Y192539D02*X242615Y192453D01*
X242803Y191766D01*
X242929Y191065D01*
X242992Y190356D01*
Y189644D01*
X242929Y188935D01*
X242803Y188234D01*
X242615Y187547D01*
X242583Y187461D01*
Y192539D01*
G37*
G36*
X280831Y242500D02*X280922Y242578D01*
X281055Y242734D01*
X281162Y242908D01*
X281240Y243097D01*
X281288Y243296D01*
X281304Y243500D01*
X281288Y243704D01*
X281240Y243903D01*
X281162Y244092D01*
X281055Y244266D01*
X280922Y244422D01*
X280831Y244500D01*
X280922Y244578D01*
X281055Y244734D01*
X281162Y244908D01*
X281240Y245097D01*
X281288Y245296D01*
X281304Y245500D01*
X281300Y245551D01*
Y246449D01*
X281304Y246500D01*
X281288Y246704D01*
X281240Y246903D01*
X281162Y247092D01*
X281055Y247266D01*
X280922Y247422D01*
X280860Y247475D01*
X281032Y247580D01*
X281241Y247759D01*
X281420Y247968D01*
X281564Y248203D01*
X281669Y248458D01*
X281734Y248725D01*
X281755Y249000D01*
X281734Y249275D01*
X281669Y249542D01*
X281564Y249797D01*
X281420Y250032D01*
X281241Y250241D01*
X281231Y250250D01*
X281241Y250259D01*
X281420Y250468D01*
X281564Y250703D01*
X281669Y250958D01*
X281734Y251225D01*
X281755Y251500D01*
X281734Y251775D01*
X281669Y252042D01*
X281564Y252297D01*
X281420Y252532D01*
X281395Y252561D01*
X281419Y252581D01*
X281623Y252821D01*
X281788Y253089D01*
X281908Y253380D01*
X281981Y253686D01*
X282000Y254000D01*
X281981Y254314D01*
X281908Y254620D01*
X281788Y254911D01*
X281623Y255179D01*
X281419Y255419D01*
X281395Y255439D01*
X281420Y255468D01*
X281564Y255703D01*
X281669Y255958D01*
X281734Y256225D01*
X281755Y256500D01*
X281734Y256775D01*
X281669Y257042D01*
X281564Y257297D01*
X281420Y257532D01*
X281357Y257606D01*
X281621Y257768D01*
X281951Y258049D01*
X282232Y258379D01*
X282458Y258748D01*
X282623Y259148D01*
X282725Y259568D01*
X282758Y260000D01*
X282725Y260432D01*
X282623Y260852D01*
X282458Y261252D01*
X282232Y261621D01*
X281951Y261951D01*
X281621Y262232D01*
X281591Y262250D01*
X281621Y262268D01*
X281951Y262549D01*
X282232Y262879D01*
X282458Y263248D01*
X282623Y263648D01*
X282725Y264068D01*
X282758Y264500D01*
X282725Y264932D01*
X282623Y265352D01*
X282458Y265752D01*
X282232Y266121D01*
X281951Y266451D01*
X281621Y266732D01*
X281591Y266750D01*
X281621Y266768D01*
X281951Y267049D01*
X282232Y267379D01*
X282458Y267748D01*
X282623Y268148D01*
X282725Y268568D01*
X282758Y269000D01*
X282725Y269432D01*
X282623Y269852D01*
X282458Y270252D01*
X282232Y270621D01*
X281951Y270951D01*
X281621Y271232D01*
X281591Y271250D01*
X281621Y271268D01*
X281951Y271549D01*
X282232Y271879D01*
X282458Y272248D01*
X282623Y272648D01*
X282725Y273068D01*
X282758Y273500D01*
X282725Y273932D01*
X282623Y274352D01*
X282458Y274752D01*
X282232Y275121D01*
X281951Y275451D01*
X281621Y275732D01*
X281591Y275750D01*
X281621Y275768D01*
X281951Y276049D01*
X282232Y276379D01*
X282458Y276748D01*
X282623Y277148D01*
X282725Y277568D01*
X282758Y278000D01*
X282725Y278432D01*
X282623Y278852D01*
X282458Y279252D01*
X282232Y279621D01*
X281951Y279951D01*
X281621Y280232D01*
X281591Y280250D01*
X281621Y280268D01*
X281951Y280549D01*
X282232Y280879D01*
X282458Y281248D01*
X282623Y281648D01*
X282725Y282068D01*
X282758Y282500D01*
X282725Y282932D01*
X282623Y283352D01*
X282458Y283752D01*
X282232Y284121D01*
X282165Y284200D01*
X283500D01*
Y158000D01*
X242583D01*
Y185141D01*
X242950Y185763D01*
X243295Y186486D01*
X243575Y187238D01*
X243787Y188011D01*
X243929Y188800D01*
X244000Y189599D01*
Y190401D01*
X243929Y191200D01*
X243787Y191989D01*
X243575Y192762D01*
X243295Y193514D01*
X242950Y194237D01*
X242583Y194859D01*
Y211200D01*
X280000D01*
X280204Y211212D01*
X280403Y211260D01*
X280592Y211338D01*
X280766Y211445D01*
X280922Y211578D01*
X281055Y211734D01*
X281162Y211908D01*
X281240Y212097D01*
X281288Y212296D01*
X281304Y212500D01*
X281288Y212704D01*
X281240Y212903D01*
X281162Y213092D01*
X281055Y213266D01*
X280922Y213422D01*
X280766Y213555D01*
X280592Y213662D01*
X280403Y213740D01*
X280204Y213788D01*
X280000Y213800D01*
X242583D01*
Y214200D01*
X280000D01*
X280204Y214212D01*
X280403Y214260D01*
X280592Y214338D01*
X280766Y214445D01*
X280922Y214578D01*
X281055Y214734D01*
X281162Y214908D01*
X281240Y215097D01*
X281288Y215296D01*
X281304Y215500D01*
X281288Y215704D01*
X281240Y215903D01*
X281162Y216092D01*
X281055Y216266D01*
X280922Y216422D01*
X280766Y216555D01*
X280592Y216662D01*
X280403Y216740D01*
X280204Y216788D01*
X280000Y216800D01*
X242583D01*
Y217200D01*
X280000D01*
X280204Y217212D01*
X280403Y217260D01*
X280592Y217338D01*
X280766Y217445D01*
X280922Y217578D01*
X281055Y217734D01*
X281162Y217908D01*
X281240Y218097D01*
X281288Y218296D01*
X281304Y218500D01*
X281288Y218704D01*
X281240Y218903D01*
X281162Y219092D01*
X281055Y219266D01*
X280922Y219422D01*
X280766Y219555D01*
X280592Y219662D01*
X280403Y219740D01*
X280204Y219788D01*
X280000Y219800D01*
X242583D01*
Y220200D01*
X280000D01*
X280204Y220212D01*
X280403Y220260D01*
X280592Y220338D01*
X280766Y220445D01*
X280922Y220578D01*
X281055Y220734D01*
X281162Y220908D01*
X281240Y221097D01*
X281288Y221296D01*
X281304Y221500D01*
X281288Y221704D01*
X281240Y221903D01*
X281162Y222092D01*
X281055Y222266D01*
X280922Y222422D01*
X280766Y222555D01*
X280592Y222662D01*
X280403Y222740D01*
X280204Y222788D01*
X280000Y222800D01*
X242583D01*
Y223200D01*
X280000D01*
X280204Y223212D01*
X280403Y223260D01*
X280592Y223338D01*
X280766Y223445D01*
X280922Y223578D01*
X281055Y223734D01*
X281162Y223908D01*
X281240Y224097D01*
X281288Y224296D01*
X281304Y224500D01*
X281288Y224704D01*
X281240Y224903D01*
X281162Y225092D01*
X281055Y225266D01*
X280922Y225422D01*
X280766Y225555D01*
X280592Y225662D01*
X280403Y225740D01*
X280204Y225788D01*
X280000Y225800D01*
X242583D01*
Y226200D01*
X280000D01*
X280204Y226212D01*
X280403Y226260D01*
X280592Y226338D01*
X280766Y226445D01*
X280922Y226578D01*
X281055Y226734D01*
X281162Y226908D01*
X281240Y227097D01*
X281288Y227296D01*
X281304Y227500D01*
X281288Y227704D01*
X281240Y227903D01*
X281162Y228092D01*
X281055Y228266D01*
X280922Y228422D01*
X280766Y228555D01*
X280592Y228662D01*
X280403Y228740D01*
X280362Y228750D01*
X280403Y228760D01*
X280592Y228838D01*
X280766Y228945D01*
X280922Y229078D01*
X281055Y229234D01*
X281162Y229408D01*
X281240Y229597D01*
X281288Y229796D01*
X281304Y230000D01*
X281300Y230051D01*
Y230949D01*
X281304Y231000D01*
X281288Y231204D01*
X281240Y231403D01*
X281162Y231592D01*
X281055Y231766D01*
X280922Y231922D01*
X280831Y232000D01*
X280922Y232078D01*
X281055Y232234D01*
X281162Y232408D01*
X281240Y232597D01*
X281288Y232796D01*
X281304Y233000D01*
X281288Y233204D01*
X281240Y233403D01*
X281162Y233592D01*
X281055Y233766D01*
X280922Y233922D01*
X280831Y234000D01*
X280922Y234078D01*
X281055Y234234D01*
X281162Y234408D01*
X281240Y234597D01*
X281288Y234796D01*
X281304Y235000D01*
X281300Y235051D01*
Y235949D01*
X281304Y236000D01*
X281288Y236204D01*
X281240Y236403D01*
X281162Y236592D01*
X281055Y236766D01*
X280922Y236922D01*
X280766Y237055D01*
X280592Y237162D01*
X280403Y237240D01*
X280204Y237288D01*
X280000Y237304D01*
X279949Y237300D01*
X242583D01*
Y239200D01*
X263980D01*
X264081Y239081D01*
X264321Y238877D01*
X264589Y238712D01*
X264880Y238592D01*
X265186Y238519D01*
X265500Y238494D01*
X265814Y238519D01*
X266120Y238592D01*
X266411Y238712D01*
X266679Y238877D01*
X266919Y239081D01*
X267020Y239200D01*
X279949D01*
X280000Y239196D01*
X280204Y239212D01*
X280403Y239260D01*
X280592Y239338D01*
X280766Y239445D01*
X280922Y239578D01*
X281055Y239734D01*
X281162Y239908D01*
X281240Y240097D01*
X281288Y240296D01*
X281304Y240500D01*
X281300Y240551D01*
Y241449D01*
X281304Y241500D01*
X281288Y241704D01*
X281240Y241903D01*
X281162Y242092D01*
X281055Y242266D01*
X280922Y242422D01*
X280831Y242500D01*
G37*
G36*
X242583Y237300D02*X238020D01*
X237919Y237419D01*
X237679Y237623D01*
X237411Y237788D01*
X237120Y237908D01*
X236814Y237981D01*
X236500Y238006D01*
X236186Y237981D01*
X235880Y237908D01*
X235589Y237788D01*
X235321Y237623D01*
X235081Y237419D01*
X234980Y237300D01*
X230000D01*
Y239200D01*
X234980D01*
X235081Y239081D01*
X235321Y238877D01*
X235589Y238712D01*
X235880Y238592D01*
X236186Y238519D01*
X236500Y238494D01*
X236814Y238519D01*
X237120Y238592D01*
X237411Y238712D01*
X237679Y238877D01*
X237919Y239081D01*
X238020Y239200D01*
X242583D01*
Y237300D01*
G37*
G36*
Y225800D02*X232520D01*
X232419Y225919D01*
X232179Y226123D01*
X232054Y226200D01*
X242583D01*
Y225800D01*
G37*
G36*
Y222800D02*X237520D01*
X237419Y222919D01*
X237179Y223123D01*
X237054Y223200D01*
X242583D01*
Y222800D01*
G37*
G36*
Y219800D02*X237054D01*
X237179Y219877D01*
X237419Y220081D01*
X237520Y220200D01*
X242583D01*
Y219800D01*
G37*
G36*
Y216800D02*X234054D01*
X234179Y216877D01*
X234419Y217081D01*
X234520Y217200D01*
X242583D01*
Y216800D01*
G37*
G36*
Y213800D02*X230000D01*
Y214200D01*
X242583D01*
Y213800D01*
G37*
G36*
Y158000D02*X230000D01*
Y182511D01*
X230073Y182458D01*
X230763Y182050D01*
X231486Y181705D01*
X232238Y181425D01*
X233011Y181213D01*
X233800Y181071D01*
X234599Y181000D01*
X235401D01*
X236200Y181071D01*
X236989Y181213D01*
X237762Y181425D01*
X238514Y181705D01*
X239237Y182050D01*
X239927Y182458D01*
X240579Y182926D01*
X240638Y182980D01*
X240687Y183043D01*
X240726Y183112D01*
X240754Y183187D01*
X240769Y183266D01*
X240772Y183346D01*
X240763Y183425D01*
X240741Y183502D01*
X240708Y183575D01*
X240663Y183641D01*
X240609Y183700D01*
X240546Y183749D01*
X240477Y183788D01*
X240402Y183816D01*
X240323Y183832D01*
X240243Y183835D01*
X240164Y183825D01*
X240087Y183804D01*
X240014Y183770D01*
X239949Y183724D01*
X239376Y183303D01*
X238763Y182940D01*
X238120Y182634D01*
X237453Y182385D01*
X236766Y182197D01*
X236065Y182071D01*
X235356Y182008D01*
X234644D01*
X233935Y182071D01*
X233234Y182197D01*
X232547Y182385D01*
X231880Y182634D01*
X231237Y182940D01*
X230624Y183303D01*
X230046Y183718D01*
X230000Y183750D01*
Y196240D01*
X230051Y196276D01*
X230624Y196697D01*
X231237Y197060D01*
X231880Y197366D01*
X232547Y197615D01*
X233234Y197803D01*
X233935Y197929D01*
X234644Y197992D01*
X235356D01*
X236065Y197929D01*
X236766Y197803D01*
X237453Y197615D01*
X238120Y197366D01*
X238763Y197060D01*
X239376Y196697D01*
X239954Y196282D01*
X240018Y196237D01*
X240090Y196204D01*
X240165Y196182D01*
X240244Y196173D01*
X240322Y196176D01*
X240399Y196192D01*
X240473Y196219D01*
X240542Y196257D01*
X240604Y196306D01*
X240657Y196364D01*
X240701Y196429D01*
X240734Y196501D01*
X240755Y196576D01*
X240765Y196655D01*
X240761Y196733D01*
X240746Y196810D01*
X240719Y196884D01*
X240680Y196953D01*
X240632Y197015D01*
X240573Y197067D01*
X239927Y197542D01*
X239237Y197950D01*
X238514Y198295D01*
X237762Y198575D01*
X236989Y198787D01*
X236200Y198929D01*
X235401Y199000D01*
X234599D01*
X233800Y198929D01*
X233011Y198787D01*
X232238Y198575D01*
X231486Y198295D01*
X230763Y197950D01*
X230073Y197542D01*
X230000Y197490D01*
Y211200D01*
X242583D01*
Y194859D01*
X242542Y194927D01*
X242074Y195579D01*
X242020Y195638D01*
X241957Y195687D01*
X241888Y195726D01*
X241813Y195754D01*
X241734Y195769D01*
X241654Y195772D01*
X241575Y195763D01*
X241498Y195741D01*
X241425Y195708D01*
X241359Y195663D01*
X241300Y195609D01*
X241251Y195546D01*
X241212Y195477D01*
X241184Y195402D01*
X241168Y195323D01*
X241165Y195243D01*
X241175Y195164D01*
X241196Y195087D01*
X241230Y195014D01*
X241276Y194949D01*
X241697Y194376D01*
X242060Y193763D01*
X242366Y193120D01*
X242583Y192539D01*
Y187461D01*
X242366Y186880D01*
X242060Y186237D01*
X241697Y185624D01*
X241282Y185046D01*
X241237Y184982D01*
X241204Y184910D01*
X241182Y184835D01*
X241173Y184756D01*
X241176Y184678D01*
X241192Y184601D01*
X241219Y184527D01*
X241257Y184458D01*
X241306Y184396D01*
X241364Y184343D01*
X241429Y184299D01*
X241501Y184266D01*
X241576Y184245D01*
X241655Y184235D01*
X241733Y184239D01*
X241810Y184254D01*
X241884Y184281D01*
X241953Y184320D01*
X242015Y184368D01*
X242067Y184427D01*
X242542Y185073D01*
X242583Y185141D01*
Y158000D01*
G37*
G36*
X230000Y213800D02*X224520D01*
X224419Y213919D01*
X224179Y214123D01*
X224054Y214200D01*
X230000D01*
Y213800D01*
G37*
G36*
X227417Y239200D02*X230000D01*
Y237300D01*
X227417D01*
Y239200D01*
G37*
G36*
X230000Y158000D02*X228300D01*
Y159949D01*
X228304Y160000D01*
X228288Y160204D01*
X228288Y160204D01*
X228252Y160355D01*
X228240Y160403D01*
X228208Y160481D01*
X228162Y160592D01*
X228120Y160660D01*
X228055Y160766D01*
X228055Y160767D01*
X227922Y160922D01*
X227883Y160955D01*
X227417Y161421D01*
Y166419D01*
X227481Y166686D01*
X227500Y167000D01*
X227481Y167314D01*
X227417Y167581D01*
Y185141D01*
X227458Y185073D01*
X227926Y184421D01*
X227980Y184362D01*
X228043Y184313D01*
X228112Y184274D01*
X228187Y184246D01*
X228266Y184231D01*
X228346Y184228D01*
X228425Y184237D01*
X228502Y184259D01*
X228575Y184292D01*
X228641Y184337D01*
X228700Y184391D01*
X228749Y184454D01*
X228788Y184523D01*
X228816Y184598D01*
X228832Y184677D01*
X228835Y184757D01*
X228825Y184836D01*
X228804Y184913D01*
X228770Y184986D01*
X228724Y185051D01*
X228303Y185624D01*
X227940Y186237D01*
X227634Y186880D01*
X227417Y187461D01*
Y192539D01*
X227634Y193120D01*
X227940Y193763D01*
X228303Y194376D01*
X228718Y194954D01*
X228763Y195018D01*
X228796Y195090D01*
X228818Y195165D01*
X228827Y195244D01*
X228824Y195322D01*
X228808Y195399D01*
X228781Y195473D01*
X228743Y195542D01*
X228694Y195604D01*
X228636Y195657D01*
X228571Y195701D01*
X228499Y195734D01*
X228424Y195755D01*
X228345Y195765D01*
X228267Y195761D01*
X228190Y195746D01*
X228116Y195719D01*
X228047Y195680D01*
X227985Y195632D01*
X227933Y195573D01*
X227458Y194927D01*
X227417Y194859D01*
Y211200D01*
X230000D01*
Y197490D01*
X229421Y197074D01*
X229362Y197020D01*
X229313Y196957D01*
X229274Y196888D01*
X229246Y196813D01*
X229231Y196734D01*
X229228Y196654D01*
X229237Y196575D01*
X229259Y196498D01*
X229292Y196425D01*
X229337Y196359D01*
X229391Y196300D01*
X229454Y196251D01*
X229523Y196212D01*
X229598Y196184D01*
X229677Y196168D01*
X229757Y196165D01*
X229836Y196175D01*
X229913Y196196D01*
X229986Y196230D01*
X230000Y196240D01*
Y183750D01*
X229982Y183763D01*
X229910Y183796D01*
X229835Y183818D01*
X229756Y183827D01*
X229678Y183824D01*
X229601Y183808D01*
X229527Y183781D01*
X229458Y183743D01*
X229396Y183694D01*
X229343Y183636D01*
X229299Y183571D01*
X229266Y183499D01*
X229245Y183424D01*
X229235Y183345D01*
X229239Y183267D01*
X229254Y183190D01*
X229281Y183116D01*
X229320Y183047D01*
X229368Y182985D01*
X229427Y182933D01*
X230000Y182511D01*
Y158000D01*
G37*
G36*
X227417Y187461D02*X227385Y187547D01*
X227197Y188234D01*
X227071Y188935D01*
X227008Y189644D01*
Y190356D01*
X227071Y191065D01*
X227197Y191766D01*
X227385Y192453D01*
X227417Y192539D01*
Y187461D01*
G37*
G36*
X137583Y247539D02*X137615Y247453D01*
X137803Y246766D01*
X137929Y246065D01*
X137992Y245356D01*
Y244644D01*
X137929Y243935D01*
X137803Y243234D01*
X137615Y242547D01*
X137583Y242461D01*
Y247539D01*
G37*
G36*
Y284200D02*X137952D01*
X137929Y283935D01*
X137803Y283234D01*
X137615Y282547D01*
X137583Y282461D01*
Y284200D01*
G37*
G36*
X227417Y167581D02*X227408Y167620D01*
X227288Y167911D01*
X227123Y168179D01*
X226919Y168419D01*
X226679Y168623D01*
X226411Y168788D01*
X226120Y168908D01*
X225814Y168981D01*
X225500Y169006D01*
X225186Y168981D01*
X224880Y168908D01*
X224589Y168788D01*
X224321Y168623D01*
X224081Y168419D01*
X223877Y168179D01*
X223712Y167911D01*
X223592Y167620D01*
X223519Y167314D01*
X223494Y167000D01*
X223519Y166686D01*
X223592Y166380D01*
X223712Y166089D01*
X223877Y165821D01*
X224081Y165581D01*
X224200Y165480D01*
Y161551D01*
X224196Y161500D01*
X224212Y161296D01*
X224212Y161296D01*
X224260Y161097D01*
X224338Y160908D01*
X224379Y160842D01*
X224445Y160734D01*
X224445Y160733D01*
X224578Y160578D01*
X224617Y160545D01*
X225700Y159462D01*
Y158796D01*
X225390Y158794D01*
X225283Y158768D01*
X225181Y158726D01*
X225150Y158706D01*
X225119Y158726D01*
X225017Y158768D01*
X224910Y158794D01*
X224800Y158800D01*
X224090Y158794D01*
X223983Y158768D01*
X223881Y158726D01*
X223787Y158668D01*
X223704Y158596D01*
X223632Y158513D01*
X223574Y158419D01*
X223532Y158317D01*
X223528Y158300D01*
X222051D01*
X222000Y158304D01*
X221796Y158288D01*
X221597Y158240D01*
X221408Y158162D01*
X221234Y158055D01*
X221233Y158055D01*
X221169Y158000D01*
X189393D01*
X189451Y158049D01*
X189521Y158132D01*
X199868Y168479D01*
X199951Y168549D01*
X200231Y168878D01*
X200232Y168879D01*
X200458Y169248D01*
X200623Y169648D01*
X200725Y170068D01*
X200758Y170500D01*
X200725Y170932D01*
X200623Y171352D01*
X200458Y171752D01*
X200232Y172121D01*
X199951Y172451D01*
X199621Y172732D01*
X199252Y172958D01*
X198852Y173123D01*
X198432Y173225D01*
X198000Y173258D01*
X197568Y173225D01*
X197148Y173123D01*
X196748Y172958D01*
X196379Y172732D01*
X196378Y172731D01*
X196049Y172451D01*
X195979Y172368D01*
X186361Y162750D01*
X137583D01*
Y240141D01*
X137950Y240763D01*
X138295Y241486D01*
X138575Y242238D01*
X138787Y243011D01*
X138929Y243800D01*
X139000Y244599D01*
Y245401D01*
X138929Y246200D01*
X138787Y246989D01*
X138575Y247762D01*
X138295Y248514D01*
X137950Y249237D01*
X137583Y249859D01*
Y280141D01*
X137950Y280763D01*
X138295Y281486D01*
X138575Y282238D01*
X138787Y283011D01*
X138929Y283800D01*
X138964Y284200D01*
X177835D01*
X177768Y284121D01*
X177542Y283752D01*
X177377Y283352D01*
X177275Y282932D01*
X177242Y282500D01*
X177275Y282068D01*
X177377Y281648D01*
X177542Y281248D01*
X177768Y280879D01*
X178049Y280549D01*
X178379Y280268D01*
X178409Y280250D01*
X178379Y280232D01*
X178049Y279951D01*
X177768Y279621D01*
X177542Y279252D01*
X177377Y278852D01*
X177275Y278432D01*
X177242Y278000D01*
X177275Y277568D01*
X177377Y277148D01*
X177542Y276748D01*
X177768Y276379D01*
X178049Y276049D01*
X178379Y275768D01*
X178409Y275750D01*
X178379Y275732D01*
X178049Y275451D01*
X177768Y275121D01*
X177542Y274752D01*
X177377Y274352D01*
X177275Y273932D01*
X177242Y273500D01*
X177275Y273068D01*
X177377Y272648D01*
X177542Y272248D01*
X177768Y271879D01*
X178049Y271549D01*
X178379Y271268D01*
X178409Y271250D01*
X178379Y271232D01*
X178049Y270951D01*
X177768Y270621D01*
X177542Y270252D01*
X177377Y269852D01*
X177275Y269432D01*
X177242Y269000D01*
X177275Y268568D01*
X177377Y268148D01*
X177542Y267748D01*
X177768Y267379D01*
X178049Y267049D01*
X178379Y266768D01*
X178409Y266750D01*
X178379Y266732D01*
X178049Y266451D01*
X177768Y266121D01*
X177542Y265752D01*
X177377Y265352D01*
X177275Y264932D01*
X177242Y264500D01*
X177275Y264068D01*
X177377Y263648D01*
X177542Y263248D01*
X177768Y262879D01*
X178049Y262549D01*
X178379Y262268D01*
X178409Y262250D01*
X178379Y262232D01*
X178049Y261951D01*
X177768Y261621D01*
X177542Y261252D01*
X177377Y260852D01*
X177275Y260432D01*
X177242Y260000D01*
X177275Y259568D01*
X177377Y259148D01*
X177542Y258748D01*
X177768Y258379D01*
X178049Y258049D01*
X178379Y257768D01*
X178643Y257606D01*
X178580Y257532D01*
X178436Y257297D01*
X178331Y257042D01*
X178266Y256775D01*
X178245Y256500D01*
X178266Y256225D01*
X178331Y255958D01*
X178436Y255703D01*
X178580Y255468D01*
X178759Y255259D01*
X178769Y255250D01*
X178759Y255241D01*
X178580Y255032D01*
X178436Y254797D01*
X178331Y254542D01*
X178266Y254275D01*
X178245Y254000D01*
X178266Y253725D01*
X178331Y253458D01*
X178436Y253203D01*
X178580Y252968D01*
X178759Y252759D01*
X178769Y252750D01*
X178759Y252741D01*
X178580Y252532D01*
X178436Y252297D01*
X178331Y252042D01*
X178266Y251775D01*
X178245Y251500D01*
X178266Y251225D01*
X178331Y250958D01*
X178436Y250703D01*
X178580Y250468D01*
X178759Y250259D01*
X178769Y250250D01*
X178759Y250241D01*
X178580Y250032D01*
X178436Y249797D01*
X178331Y249542D01*
X178266Y249275D01*
X178245Y249000D01*
X178266Y248725D01*
X178331Y248458D01*
X178436Y248203D01*
X178580Y247968D01*
X178759Y247759D01*
X178968Y247580D01*
X179140Y247475D01*
X179078Y247422D01*
X178945Y247266D01*
X178838Y247092D01*
X178760Y246903D01*
X178712Y246704D01*
X178696Y246500D01*
X178700Y246449D01*
Y245551D01*
X178696Y245500D01*
X178712Y245296D01*
X178760Y245097D01*
X178838Y244908D01*
X178945Y244734D01*
X179078Y244578D01*
X179169Y244500D01*
X179078Y244422D01*
X178945Y244266D01*
X178838Y244092D01*
X178760Y243903D01*
X178712Y243704D01*
X178696Y243500D01*
X178712Y243296D01*
X178760Y243097D01*
X178838Y242908D01*
X178945Y242734D01*
X179078Y242578D01*
X179169Y242500D01*
X179078Y242422D01*
X178945Y242266D01*
X178838Y242092D01*
X178760Y241903D01*
X178712Y241704D01*
X178696Y241500D01*
X178700Y241449D01*
Y240551D01*
X178696Y240500D01*
X178712Y240296D01*
X178760Y240097D01*
X178838Y239908D01*
X178945Y239734D01*
X179078Y239578D01*
X179234Y239445D01*
X179408Y239338D01*
X179597Y239260D01*
X179796Y239212D01*
X180000Y239196D01*
X180051Y239200D01*
X193980D01*
X194081Y239081D01*
X194321Y238877D01*
X194589Y238712D01*
X194880Y238592D01*
X195186Y238519D01*
X195500Y238494D01*
X195814Y238519D01*
X196120Y238592D01*
X196411Y238712D01*
X196679Y238877D01*
X196919Y239081D01*
X197020Y239200D01*
X227417D01*
Y237300D01*
X180051D01*
X180000Y237304D01*
X179796Y237288D01*
X179597Y237240D01*
X179408Y237162D01*
X179234Y237055D01*
X179078Y236922D01*
X178945Y236766D01*
X178838Y236592D01*
X178760Y236403D01*
X178712Y236204D01*
X178696Y236000D01*
X178700Y235949D01*
Y235051D01*
X178696Y235000D01*
X178712Y234796D01*
X178760Y234597D01*
X178838Y234408D01*
X178945Y234234D01*
X179078Y234078D01*
X179169Y234000D01*
X179078Y233922D01*
X178945Y233766D01*
X178838Y233592D01*
X178760Y233403D01*
X178712Y233204D01*
X178696Y233000D01*
X178712Y232796D01*
X178760Y232597D01*
X178838Y232408D01*
X178945Y232234D01*
X179078Y232078D01*
X179169Y232000D01*
X179078Y231922D01*
X178945Y231766D01*
X178838Y231592D01*
X178760Y231403D01*
X178712Y231204D01*
X178696Y231000D01*
X178700Y230949D01*
Y230051D01*
X178696Y230000D01*
X178712Y229796D01*
X178760Y229597D01*
X178838Y229408D01*
X178945Y229234D01*
X179078Y229078D01*
X179234Y228945D01*
X179408Y228838D01*
X179597Y228760D01*
X179638Y228750D01*
X179597Y228740D01*
X179408Y228662D01*
X179234Y228555D01*
X179078Y228422D01*
X178945Y228266D01*
X178838Y228092D01*
X178760Y227903D01*
X178712Y227704D01*
X178696Y227500D01*
X178712Y227296D01*
X178760Y227097D01*
X178838Y226908D01*
X178945Y226734D01*
X179078Y226578D01*
X179234Y226445D01*
X179408Y226338D01*
X179597Y226260D01*
X179796Y226212D01*
X180000Y226200D01*
X189946D01*
X189821Y226123D01*
X189581Y225919D01*
X189480Y225800D01*
X180000D01*
X179796Y225788D01*
X179597Y225740D01*
X179408Y225662D01*
X179234Y225555D01*
X179078Y225422D01*
X178945Y225266D01*
X178838Y225092D01*
X178760Y224903D01*
X178712Y224704D01*
X178696Y224500D01*
X178712Y224296D01*
X178760Y224097D01*
X178838Y223908D01*
X178945Y223734D01*
X179078Y223578D01*
X179234Y223445D01*
X179408Y223338D01*
X179597Y223260D01*
X179796Y223212D01*
X180000Y223200D01*
X184946D01*
X184821Y223123D01*
X184581Y222919D01*
X184480Y222800D01*
X180000D01*
X179796Y222788D01*
X179597Y222740D01*
X179408Y222662D01*
X179234Y222555D01*
X179078Y222422D01*
X178945Y222266D01*
X178838Y222092D01*
X178760Y221903D01*
X178712Y221704D01*
X178696Y221500D01*
X178712Y221296D01*
X178760Y221097D01*
X178838Y220908D01*
X178945Y220734D01*
X179078Y220578D01*
X179234Y220445D01*
X179408Y220338D01*
X179597Y220260D01*
X179796Y220212D01*
X180000Y220200D01*
X182446D01*
X182321Y220123D01*
X182081Y219919D01*
X181980Y219800D01*
X180000D01*
X179796Y219788D01*
X179597Y219740D01*
X179408Y219662D01*
X179234Y219555D01*
X179078Y219422D01*
X178945Y219266D01*
X178838Y219092D01*
X178760Y218903D01*
X178712Y218704D01*
X178696Y218500D01*
X178712Y218296D01*
X178760Y218097D01*
X178838Y217908D01*
X178945Y217734D01*
X179078Y217578D01*
X179234Y217445D01*
X179408Y217338D01*
X179597Y217260D01*
X179796Y217212D01*
X180000Y217200D01*
X181980D01*
X182081Y217081D01*
X182321Y216877D01*
X182446Y216800D01*
X180000D01*
X179796Y216788D01*
X179597Y216740D01*
X179408Y216662D01*
X179234Y216555D01*
X179078Y216422D01*
X178945Y216266D01*
X178838Y216092D01*
X178760Y215903D01*
X178712Y215704D01*
X178696Y215500D01*
X178712Y215296D01*
X178760Y215097D01*
X178838Y214908D01*
X178945Y214734D01*
X179078Y214578D01*
X179234Y214445D01*
X179408Y214338D01*
X179597Y214260D01*
X179796Y214212D01*
X180000Y214200D01*
X187946D01*
X187821Y214123D01*
X187581Y213919D01*
X187480Y213800D01*
X180000D01*
X179796Y213788D01*
X179597Y213740D01*
X179408Y213662D01*
X179234Y213555D01*
X179078Y213422D01*
X178945Y213266D01*
X178838Y213092D01*
X178760Y212903D01*
X178712Y212704D01*
X178696Y212500D01*
X178712Y212296D01*
X178760Y212097D01*
X178838Y211908D01*
X178945Y211734D01*
X179078Y211578D01*
X179234Y211445D01*
X179408Y211338D01*
X179597Y211260D01*
X179796Y211212D01*
X180000Y211200D01*
X187480D01*
X187581Y211081D01*
X187821Y210877D01*
X188089Y210712D01*
X188380Y210592D01*
X188686Y210519D01*
X189000Y210494D01*
X189314Y210519D01*
X189620Y210592D01*
X189911Y210712D01*
X190179Y210877D01*
X190419Y211081D01*
X190520Y211200D01*
X221480D01*
X221581Y211081D01*
X221821Y210877D01*
X222089Y210712D01*
X222380Y210592D01*
X222686Y210519D01*
X223000Y210494D01*
X223314Y210519D01*
X223620Y210592D01*
X223911Y210712D01*
X224179Y210877D01*
X224419Y211081D01*
X224520Y211200D01*
X227417D01*
Y194859D01*
X227050Y194237D01*
X226705Y193514D01*
X226425Y192762D01*
X226213Y191989D01*
X226071Y191200D01*
X226000Y190401D01*
Y189599D01*
X226071Y188800D01*
X226213Y188011D01*
X226425Y187238D01*
X226705Y186486D01*
X227050Y185763D01*
X227417Y185141D01*
Y167581D01*
G37*
G36*
X137583Y162750D02*X131608D01*
X131500Y162758D01*
X131068Y162725D01*
X130648Y162623D01*
X130248Y162458D01*
X130000Y162306D01*
Y236000D01*
X130401D01*
X131200Y236071D01*
X131989Y236213D01*
X132762Y236425D01*
X133514Y236705D01*
X134237Y237050D01*
X134927Y237458D01*
X135579Y237926D01*
X135638Y237980D01*
X135687Y238043D01*
X135726Y238112D01*
X135754Y238187D01*
X135769Y238266D01*
X135772Y238346D01*
X135763Y238425D01*
X135741Y238502D01*
X135708Y238575D01*
X135663Y238641D01*
X135609Y238700D01*
X135546Y238749D01*
X135477Y238788D01*
X135402Y238816D01*
X135323Y238832D01*
X135243Y238835D01*
X135164Y238825D01*
X135087Y238804D01*
X135014Y238770D01*
X134949Y238724D01*
X134376Y238303D01*
X133763Y237940D01*
X133120Y237634D01*
X132453Y237385D01*
X131766Y237197D01*
X131065Y237071D01*
X130356Y237008D01*
X130000D01*
Y252992D01*
X130356D01*
X131065Y252929D01*
X131766Y252803D01*
X132453Y252615D01*
X133120Y252366D01*
X133763Y252060D01*
X134376Y251697D01*
X134954Y251282D01*
X135018Y251237D01*
X135090Y251204D01*
X135165Y251182D01*
X135244Y251173D01*
X135322Y251176D01*
X135399Y251192D01*
X135473Y251219D01*
X135542Y251257D01*
X135604Y251306D01*
X135657Y251364D01*
X135701Y251429D01*
X135734Y251501D01*
X135755Y251576D01*
X135765Y251655D01*
X135761Y251733D01*
X135746Y251810D01*
X135719Y251884D01*
X135680Y251953D01*
X135632Y252015D01*
X135573Y252067D01*
X134927Y252542D01*
X134237Y252950D01*
X133514Y253295D01*
X132762Y253575D01*
X131989Y253787D01*
X131200Y253929D01*
X130401Y254000D01*
X130000D01*
Y276000D01*
X130401D01*
X131200Y276071D01*
X131989Y276213D01*
X132762Y276425D01*
X133514Y276705D01*
X134237Y277050D01*
X134927Y277458D01*
X135579Y277926D01*
X135638Y277980D01*
X135687Y278043D01*
X135726Y278112D01*
X135754Y278187D01*
X135769Y278266D01*
X135772Y278346D01*
X135763Y278425D01*
X135741Y278502D01*
X135708Y278575D01*
X135663Y278641D01*
X135609Y278700D01*
X135546Y278749D01*
X135477Y278788D01*
X135402Y278816D01*
X135323Y278832D01*
X135243Y278835D01*
X135164Y278825D01*
X135087Y278804D01*
X135014Y278770D01*
X134949Y278724D01*
X134376Y278303D01*
X133763Y277940D01*
X133120Y277634D01*
X132453Y277385D01*
X131766Y277197D01*
X131065Y277071D01*
X130356Y277008D01*
X130000D01*
Y284200D01*
X137583D01*
Y282461D01*
X137366Y281880D01*
X137060Y281237D01*
X136697Y280624D01*
X136282Y280046D01*
X136237Y279982D01*
X136204Y279910D01*
X136182Y279835D01*
X136173Y279756D01*
X136176Y279678D01*
X136192Y279601D01*
X136219Y279527D01*
X136257Y279458D01*
X136306Y279396D01*
X136364Y279343D01*
X136429Y279299D01*
X136501Y279266D01*
X136576Y279245D01*
X136655Y279235D01*
X136733Y279239D01*
X136810Y279254D01*
X136884Y279281D01*
X136953Y279320D01*
X137015Y279368D01*
X137067Y279427D01*
X137542Y280073D01*
X137583Y280141D01*
Y249859D01*
X137542Y249927D01*
X137074Y250579D01*
X137020Y250638D01*
X136957Y250687D01*
X136888Y250726D01*
X136813Y250754D01*
X136734Y250769D01*
X136654Y250772D01*
X136575Y250763D01*
X136498Y250741D01*
X136425Y250708D01*
X136359Y250663D01*
X136300Y250609D01*
X136251Y250546D01*
X136212Y250477D01*
X136184Y250402D01*
X136168Y250323D01*
X136165Y250243D01*
X136175Y250164D01*
X136196Y250087D01*
X136230Y250014D01*
X136276Y249949D01*
X136697Y249376D01*
X137060Y248763D01*
X137366Y248120D01*
X137583Y247539D01*
Y242461D01*
X137366Y241880D01*
X137060Y241237D01*
X136697Y240624D01*
X136282Y240046D01*
X136237Y239982D01*
X136204Y239910D01*
X136182Y239835D01*
X136173Y239756D01*
X136176Y239678D01*
X136192Y239601D01*
X136219Y239527D01*
X136257Y239458D01*
X136306Y239396D01*
X136364Y239343D01*
X136429Y239299D01*
X136501Y239266D01*
X136576Y239245D01*
X136655Y239235D01*
X136733Y239239D01*
X136810Y239254D01*
X136884Y239281D01*
X136953Y239320D01*
X137015Y239368D01*
X137067Y239427D01*
X137542Y240073D01*
X137583Y240141D01*
Y162750D01*
G37*
G36*
X227417Y161421D02*X226800Y162038D01*
Y165480D01*
X226919Y165581D01*
X227123Y165821D01*
X227288Y166089D01*
X227408Y166380D01*
X227417Y166419D01*
Y161421D01*
G37*
G36*
X238700Y286800D02*X238182D01*
X238192Y286808D01*
X238652Y287347D01*
X238700Y287425D01*
Y286800D01*
G37*
G36*
X231300Y292575D02*Y293462D01*
X231538Y293700D01*
X232425D01*
X232347Y293652D01*
X231808Y293192D01*
X231348Y292653D01*
X231300Y292575D01*
G37*
G36*
X238520Y292808D02*X238592Y292838D01*
X238766Y292945D01*
X238922Y293078D01*
X238955Y293117D01*
X239883Y294045D01*
X239922Y294078D01*
X240000Y294169D01*
X240078Y294078D01*
X240117Y294045D01*
X240162Y294000D01*
X239117Y292955D01*
X239078Y292922D01*
X238945Y292766D01*
X238838Y292592D01*
X238778Y292447D01*
X238652Y292653D01*
X238520Y292808D01*
G37*
G36*
X264061Y295598D02*X264078Y295578D01*
X264117Y295545D01*
X264254Y295408D01*
X264256Y295090D01*
X264282Y294983D01*
X264324Y294881D01*
X264344Y294850D01*
X264324Y294819D01*
X264282Y294717D01*
X264256Y294610D01*
X264250Y294500D01*
X264250Y294448D01*
X263605Y294293D01*
X262951Y294022D01*
X262347Y293652D01*
X261808Y293192D01*
X261348Y292653D01*
X260978Y292049D01*
X260707Y291395D01*
X260542Y290706D01*
X260486Y290000D01*
X260542Y289294D01*
X260707Y288605D01*
X260978Y287951D01*
X261348Y287347D01*
X261808Y286808D01*
X261818Y286800D01*
X258182D01*
X258192Y286808D01*
X258652Y287347D01*
X259022Y287951D01*
X259293Y288605D01*
X259458Y289294D01*
X259500Y290000D01*
X259458Y290706D01*
X259293Y291395D01*
X259022Y292049D01*
X258652Y292653D01*
X258192Y293192D01*
X257653Y293652D01*
X257049Y294022D01*
X256395Y294293D01*
X255706Y294458D01*
X255000Y294514D01*
X254294Y294458D01*
X253605Y294293D01*
X252951Y294022D01*
X252347Y293652D01*
X251808Y293192D01*
X251348Y292653D01*
X250978Y292049D01*
X250707Y291395D01*
X250542Y290706D01*
X250486Y290000D01*
X250542Y289294D01*
X250707Y288605D01*
X250978Y287951D01*
X251348Y287347D01*
X251808Y286808D01*
X251818Y286800D01*
X248182D01*
X248192Y286808D01*
X248652Y287347D01*
X249022Y287951D01*
X249293Y288605D01*
X249458Y289294D01*
X249500Y290000D01*
X249458Y290706D01*
X249293Y291395D01*
X249022Y292049D01*
X248652Y292653D01*
X248192Y293192D01*
X247653Y293652D01*
X247049Y294022D01*
X246395Y294293D01*
X245706Y294458D01*
X245000Y294514D01*
X244294Y294458D01*
X243605Y294293D01*
X243291Y294163D01*
X243288Y294204D01*
X243240Y294403D01*
X243162Y294592D01*
X243055Y294766D01*
X242922Y294922D01*
X242883Y294955D01*
X242838Y295000D01*
X242883Y295045D01*
X242922Y295078D01*
X243055Y295233D01*
X243055Y295234D01*
X243162Y295408D01*
X243240Y295597D01*
X243288Y295796D01*
X243291Y295837D01*
X243605Y295707D01*
X244294Y295542D01*
X245000Y295486D01*
X245706Y295542D01*
X246395Y295707D01*
X247049Y295978D01*
X247653Y296348D01*
X248192Y296808D01*
X248652Y297347D01*
X249022Y297951D01*
X249293Y298605D01*
X249458Y299294D01*
X249500Y300000D01*
X249458Y300706D01*
X249293Y301395D01*
X249022Y302049D01*
X248652Y302653D01*
X248192Y303192D01*
X247653Y303652D01*
X247085Y304000D01*
X252915D01*
X252347Y303652D01*
X251808Y303192D01*
X251348Y302653D01*
X250978Y302049D01*
X250707Y301395D01*
X250542Y300706D01*
X250486Y300000D01*
X250542Y299294D01*
X250707Y298605D01*
X250978Y297951D01*
X251348Y297347D01*
X251808Y296808D01*
X252347Y296348D01*
X252951Y295978D01*
X253605Y295707D01*
X254294Y295542D01*
X255000Y295486D01*
X255706Y295542D01*
X256395Y295707D01*
X257049Y295978D01*
X257653Y296348D01*
X258192Y296808D01*
X258652Y297347D01*
X259022Y297951D01*
X259293Y298605D01*
X259458Y299294D01*
X259500Y300000D01*
X259458Y300706D01*
X259293Y301395D01*
X259022Y302049D01*
X258652Y302653D01*
X258192Y303192D01*
X257653Y303652D01*
X257085Y304000D01*
X262915D01*
X262347Y303652D01*
X261808Y303192D01*
X261348Y302653D01*
X260978Y302049D01*
X260707Y301395D01*
X260542Y300706D01*
X260486Y300000D01*
X260542Y299294D01*
X260707Y298605D01*
X260978Y297951D01*
X261348Y297347D01*
X261808Y296808D01*
X262347Y296348D01*
X262951Y295978D01*
X263605Y295707D01*
X264061Y295598D01*
G37*
G36*
X268684Y292600D02*X268811D01*
X268850Y292597D01*
X268889Y292600D01*
X269011D01*
X269050Y292597D01*
X269089Y292600D01*
X270211D01*
X270250Y292597D01*
X270289Y292600D01*
X270511D01*
X270550Y292597D01*
X270707Y292609D01*
X270707Y292609D01*
X270860Y292646D01*
X271005Y292706D01*
X271140Y292788D01*
X271259Y292891D01*
X271285Y292921D01*
X271568Y293204D01*
X271824Y293205D01*
X271808Y293192D01*
X271348Y292653D01*
X270978Y292049D01*
X270707Y291395D01*
X270542Y290706D01*
X270486Y290000D01*
X270542Y289294D01*
X270707Y288605D01*
X270978Y287951D01*
X271348Y287347D01*
X271808Y286808D01*
X271818Y286800D01*
X268182D01*
X268192Y286808D01*
X268652Y287347D01*
X269022Y287951D01*
X269293Y288605D01*
X269458Y289294D01*
X269500Y290000D01*
X269458Y290706D01*
X269293Y291395D01*
X269022Y292049D01*
X268684Y292600D01*
G37*
G36*
X272646Y293835D02*X272650Y293900D01*
X272644Y294610D01*
X272618Y294717D01*
X272576Y294819D01*
X272556Y294850D01*
X272576Y294881D01*
X272618Y294983D01*
X272644Y295090D01*
X272650Y295200D01*
X272647Y295501D01*
X276651Y295510D01*
X276754Y295408D01*
X276756Y295090D01*
X276782Y294983D01*
X276824Y294881D01*
X276844Y294850D01*
X276824Y294819D01*
X276782Y294717D01*
X276756Y294610D01*
X276750Y294500D01*
X276752Y294241D01*
X276685Y294173D01*
X276395Y294293D01*
X275706Y294458D01*
X275000Y294514D01*
X274294Y294458D01*
X273605Y294293D01*
X272951Y294022D01*
X272646Y293835D01*
G37*
G36*
X270513Y297198D02*X270450Y297203D01*
X270411Y297200D01*
X270189D01*
X270150Y297203D01*
X270111Y297200D01*
X268989D01*
X268950Y297203D01*
X268911Y297200D01*
X268526D01*
X268652Y297347D01*
X269022Y297951D01*
X269293Y298605D01*
X269458Y299294D01*
X269500Y300000D01*
X269458Y300706D01*
X269293Y301395D01*
X269022Y302049D01*
X268652Y302653D01*
X268192Y303192D01*
X267653Y303652D01*
X267085Y304000D01*
X270881D01*
X270783Y303884D01*
X270659Y303683D01*
X270569Y303465D01*
X270514Y303235D01*
X270500Y303000D01*
X270513Y297198D01*
G37*
G36*
X130000Y304000D02*X182915D01*
X182347Y303652D01*
X181808Y303192D01*
X181348Y302653D01*
X180978Y302049D01*
X180707Y301395D01*
X180542Y300706D01*
X180486Y300000D01*
X180542Y299294D01*
X180707Y298605D01*
X180978Y297951D01*
X181348Y297347D01*
X181808Y296808D01*
X182347Y296348D01*
X182951Y295978D01*
X183605Y295707D01*
X184294Y295542D01*
X185000Y295486D01*
X185706Y295542D01*
X186395Y295707D01*
X187049Y295978D01*
X187653Y296348D01*
X188192Y296808D01*
X188652Y297347D01*
X189022Y297951D01*
X189293Y298605D01*
X189458Y299294D01*
X189500Y300000D01*
X189458Y300706D01*
X189293Y301395D01*
X189022Y302049D01*
X188652Y302653D01*
X188192Y303192D01*
X187653Y303652D01*
X187085Y304000D01*
X192915D01*
X192347Y303652D01*
X191808Y303192D01*
X191348Y302653D01*
X190978Y302049D01*
X190707Y301395D01*
X190542Y300706D01*
X190486Y300000D01*
X190542Y299294D01*
X190707Y298605D01*
X190978Y297951D01*
X191348Y297347D01*
X191808Y296808D01*
X192347Y296348D01*
X192951Y295978D01*
X193605Y295707D01*
X194294Y295542D01*
X195000Y295486D01*
X195706Y295542D01*
X196395Y295707D01*
X197049Y295978D01*
X197653Y296348D01*
X198192Y296808D01*
X198652Y297347D01*
X199022Y297951D01*
X199293Y298605D01*
X199458Y299294D01*
X199500Y300000D01*
X199458Y300706D01*
X199293Y301395D01*
X199022Y302049D01*
X198652Y302653D01*
X198192Y303192D01*
X197653Y303652D01*
X197085Y304000D01*
X202915D01*
X202347Y303652D01*
X201808Y303192D01*
X201348Y302653D01*
X200978Y302049D01*
X200707Y301395D01*
X200542Y300706D01*
X200486Y300000D01*
X200542Y299294D01*
X200707Y298605D01*
X200978Y297951D01*
X201348Y297347D01*
X201808Y296808D01*
X202347Y296348D01*
X202951Y295978D01*
X203605Y295707D01*
X204294Y295542D01*
X205000Y295486D01*
X205706Y295542D01*
X206395Y295707D01*
X207049Y295978D01*
X207653Y296348D01*
X208192Y296808D01*
X208652Y297347D01*
X209022Y297951D01*
X209293Y298605D01*
X209458Y299294D01*
X209500Y300000D01*
X209458Y300706D01*
X209293Y301395D01*
X209022Y302049D01*
X208652Y302653D01*
X208192Y303192D01*
X207653Y303652D01*
X207085Y304000D01*
X212915D01*
X212347Y303652D01*
X211808Y303192D01*
X211348Y302653D01*
X210978Y302049D01*
X210707Y301395D01*
X210542Y300706D01*
X210486Y300000D01*
X210542Y299294D01*
X210707Y298605D01*
X210978Y297951D01*
X211348Y297347D01*
X211808Y296808D01*
X212347Y296348D01*
X212951Y295978D01*
X213605Y295707D01*
X214294Y295542D01*
X215000Y295486D01*
X215706Y295542D01*
X216395Y295707D01*
X217049Y295978D01*
X217653Y296348D01*
X218192Y296808D01*
X218652Y297347D01*
X219022Y297951D01*
X219293Y298605D01*
X219458Y299294D01*
X219500Y300000D01*
X219458Y300706D01*
X219293Y301395D01*
X219022Y302049D01*
X218652Y302653D01*
X218192Y303192D01*
X217653Y303652D01*
X217085Y304000D01*
X222915D01*
X222347Y303652D01*
X221808Y303192D01*
X221348Y302653D01*
X220978Y302049D01*
X220707Y301395D01*
X220542Y300706D01*
X220486Y300000D01*
X220542Y299294D01*
X220707Y298605D01*
X220978Y297951D01*
X221348Y297347D01*
X221808Y296808D01*
X222347Y296348D01*
X222951Y295978D01*
X223605Y295707D01*
X224294Y295542D01*
X225000Y295486D01*
X225706Y295542D01*
X226395Y295707D01*
X227049Y295978D01*
X227653Y296348D01*
X228192Y296808D01*
X228652Y297347D01*
X229022Y297951D01*
X229293Y298605D01*
X229458Y299294D01*
X229500Y300000D01*
X229458Y300706D01*
X229293Y301395D01*
X229022Y302049D01*
X228652Y302653D01*
X228192Y303192D01*
X227653Y303652D01*
X227085Y304000D01*
X232915D01*
X232347Y303652D01*
X231808Y303192D01*
X231348Y302653D01*
X230978Y302049D01*
X230707Y301395D01*
X230542Y300706D01*
X230486Y300000D01*
X230542Y299294D01*
X230707Y298605D01*
X230978Y297951D01*
X231348Y297347D01*
X231808Y296808D01*
X232347Y296348D01*
X232425Y296300D01*
X231051D01*
X231000Y296304D01*
X230796Y296288D01*
X230597Y296240D01*
X230408Y296162D01*
X230234Y296055D01*
X230233Y296055D01*
X230078Y295922D01*
X230045Y295883D01*
X229117Y294955D01*
X229078Y294922D01*
X228945Y294766D01*
X228838Y294592D01*
X228760Y294403D01*
X228712Y294204D01*
X228712Y294204D01*
X228696Y294000D01*
X228700Y293949D01*
Y292575D01*
X228652Y292653D01*
X228192Y293192D01*
X227653Y293652D01*
X227049Y294022D01*
X226395Y294293D01*
X225706Y294458D01*
X225000Y294514D01*
X224294Y294458D01*
X223605Y294293D01*
X222951Y294022D01*
X222347Y293652D01*
X221808Y293192D01*
X221348Y292653D01*
X220978Y292049D01*
X220707Y291395D01*
X220542Y290706D01*
X220486Y290000D01*
X220542Y289294D01*
X220707Y288605D01*
X220978Y287951D01*
X221348Y287347D01*
X221808Y286808D01*
X221818Y286800D01*
X218182D01*
X218192Y286808D01*
X218652Y287347D01*
X219022Y287951D01*
X219293Y288605D01*
X219458Y289294D01*
X219500Y290000D01*
X219458Y290706D01*
X219293Y291395D01*
X219022Y292049D01*
X218652Y292653D01*
X218192Y293192D01*
X217653Y293652D01*
X217049Y294022D01*
X216395Y294293D01*
X215706Y294458D01*
X215000Y294514D01*
X214294Y294458D01*
X213605Y294293D01*
X212951Y294022D01*
X212347Y293652D01*
X211808Y293192D01*
X211348Y292653D01*
X210978Y292049D01*
X210707Y291395D01*
X210542Y290706D01*
X210486Y290000D01*
X210542Y289294D01*
X210707Y288605D01*
X210978Y287951D01*
X211348Y287347D01*
X211808Y286808D01*
X211818Y286800D01*
X208182D01*
X208192Y286808D01*
X208652Y287347D01*
X209022Y287951D01*
X209293Y288605D01*
X209458Y289294D01*
X209500Y290000D01*
X209458Y290706D01*
X209293Y291395D01*
X209022Y292049D01*
X208652Y292653D01*
X208192Y293192D01*
X207653Y293652D01*
X207049Y294022D01*
X206395Y294293D01*
X205706Y294458D01*
X205000Y294514D01*
X204294Y294458D01*
X203605Y294293D01*
X202951Y294022D01*
X202347Y293652D01*
X201808Y293192D01*
X201348Y292653D01*
X200978Y292049D01*
X200707Y291395D01*
X200542Y290706D01*
X200486Y290000D01*
X200542Y289294D01*
X200707Y288605D01*
X200978Y287951D01*
X201348Y287347D01*
X201808Y286808D01*
X201818Y286800D01*
X198182D01*
X198192Y286808D01*
X198652Y287347D01*
X199022Y287951D01*
X199293Y288605D01*
X199458Y289294D01*
X199500Y290000D01*
X199458Y290706D01*
X199293Y291395D01*
X199022Y292049D01*
X198652Y292653D01*
X198192Y293192D01*
X197653Y293652D01*
X197049Y294022D01*
X196395Y294293D01*
X195706Y294458D01*
X195000Y294514D01*
X194294Y294458D01*
X193605Y294293D01*
X192951Y294022D01*
X192347Y293652D01*
X191808Y293192D01*
X191348Y292653D01*
X190978Y292049D01*
X190707Y291395D01*
X190542Y290706D01*
X190486Y290000D01*
X190542Y289294D01*
X190707Y288605D01*
X190978Y287951D01*
X191348Y287347D01*
X191808Y286808D01*
X191818Y286800D01*
X188182D01*
X188192Y286808D01*
X188652Y287347D01*
X189022Y287951D01*
X189293Y288605D01*
X189458Y289294D01*
X189500Y290000D01*
X189458Y290706D01*
X189293Y291395D01*
X189022Y292049D01*
X188652Y292653D01*
X188192Y293192D01*
X187653Y293652D01*
X187049Y294022D01*
X186395Y294293D01*
X185706Y294458D01*
X185000Y294514D01*
X184294Y294458D01*
X183605Y294293D01*
X182951Y294022D01*
X182347Y293652D01*
X181808Y293192D01*
X181348Y292653D01*
X180978Y292049D01*
X180707Y291395D01*
X180542Y290706D01*
X180486Y290000D01*
X180542Y289294D01*
X180707Y288605D01*
X180978Y287951D01*
X181348Y287347D01*
X181808Y286808D01*
X181818Y286800D01*
X138821D01*
X138787Y286989D01*
X138575Y287762D01*
X138295Y288514D01*
X137950Y289237D01*
X137542Y289927D01*
X137074Y290579D01*
X137020Y290638D01*
X136957Y290687D01*
X136888Y290726D01*
X136813Y290754D01*
X136734Y290769D01*
X136654Y290772D01*
X136575Y290763D01*
X136498Y290741D01*
X136425Y290708D01*
X136359Y290663D01*
X136300Y290609D01*
X136251Y290546D01*
X136212Y290477D01*
X136184Y290402D01*
X136168Y290323D01*
X136165Y290243D01*
X136175Y290164D01*
X136196Y290087D01*
X136230Y290014D01*
X136276Y289949D01*
X136697Y289376D01*
X137060Y288763D01*
X137366Y288120D01*
X137615Y287453D01*
X137793Y286800D01*
X130000D01*
Y292992D01*
X130356D01*
X131065Y292929D01*
X131766Y292803D01*
X132453Y292615D01*
X133120Y292366D01*
X133763Y292060D01*
X134376Y291697D01*
X134954Y291282D01*
X135018Y291237D01*
X135090Y291204D01*
X135165Y291182D01*
X135244Y291173D01*
X135322Y291176D01*
X135399Y291192D01*
X135473Y291219D01*
X135542Y291257D01*
X135604Y291306D01*
X135657Y291364D01*
X135701Y291429D01*
X135734Y291501D01*
X135755Y291576D01*
X135765Y291655D01*
X135761Y291733D01*
X135746Y291810D01*
X135719Y291884D01*
X135680Y291953D01*
X135632Y292015D01*
X135573Y292067D01*
X134927Y292542D01*
X134237Y292950D01*
X133514Y293295D01*
X132762Y293575D01*
X131989Y293787D01*
X131200Y293929D01*
X130401Y294000D01*
X130000D01*
Y304000D01*
G37*
G36*
X237085D02*X242915D01*
X242347Y303652D01*
X241808Y303192D01*
X241348Y302653D01*
X240978Y302049D01*
X240707Y301395D01*
X240542Y300706D01*
X240486Y300000D01*
X240542Y299294D01*
X240571Y299170D01*
X240403Y299240D01*
X240204Y299288D01*
X240000Y299304D01*
X239796Y299288D01*
X239597Y299240D01*
X239429Y299170D01*
X239458Y299294D01*
X239500Y300000D01*
X239458Y300706D01*
X239293Y301395D01*
X239022Y302049D01*
X238652Y302653D01*
X238192Y303192D01*
X237653Y303652D01*
X237085Y304000D01*
G37*
G36*
X279119D02*X283500D01*
Y297036D01*
X283405Y297094D01*
X283260Y297154D01*
X283107Y297191D01*
X282950Y297203D01*
X282911Y297200D01*
X282689D01*
X282650Y297203D01*
X282611Y297200D01*
X281489D01*
X281450Y297203D01*
X281411Y297200D01*
X280289D01*
X280250Y297203D01*
X280211Y297200D01*
X279989D01*
X279950Y297203D01*
X279793Y297191D01*
X279640Y297154D01*
X279500Y297096D01*
X279486Y303235D01*
X279431Y303465D01*
X279341Y303683D01*
X279217Y303884D01*
X279119Y304000D01*
G37*
G36*
X278724Y292535D02*X279162Y292974D01*
X279215Y292921D01*
X279241Y292891D01*
X279360Y292789D01*
X279360Y292788D01*
X279495Y292706D01*
X279640Y292646D01*
X279763Y292616D01*
X279793Y292609D01*
X279793D01*
X279950Y292597D01*
X279989Y292600D01*
X280111D01*
X280150Y292597D01*
X280189Y292600D01*
X281311D01*
X281350Y292597D01*
X281389Y292600D01*
X281511D01*
X281550Y292597D01*
X281589Y292600D01*
X282711D01*
X282750Y292597D01*
X282789Y292600D01*
X283011D01*
X283050Y292597D01*
X283207Y292609D01*
X283207Y292609D01*
X283360Y292646D01*
X283500Y292704D01*
Y286800D01*
X278182D01*
X278192Y286808D01*
X278652Y287347D01*
X279022Y287951D01*
X279293Y288605D01*
X279458Y289294D01*
X279500Y290000D01*
X279458Y290706D01*
X279293Y291395D01*
X279022Y292049D01*
X278724Y292535D01*
G37*
G36*
X241818Y286800D02*X241300D01*
Y287425D01*
X241348Y287347D01*
X241808Y286808D01*
X241818Y286800D01*
G37*
G36*
X228917Y287779D02*X228945Y287734D01*
X228945Y287733D01*
X229078Y287578D01*
X229117Y287545D01*
X229545Y287117D01*
X229578Y287078D01*
X229733Y286945D01*
X229734Y286945D01*
X229842Y286879D01*
X229908Y286838D01*
X230000Y286800D01*
X228182D01*
X228192Y286808D01*
X228652Y287347D01*
X228917Y287779D01*
G37*
G36*
X221480Y213800D02*X190520D01*
X190419Y213919D01*
X190179Y214123D01*
X190054Y214200D01*
X221946D01*
X221821Y214123D01*
X221581Y213919D01*
X221480Y213800D01*
G37*
G36*
X231946Y216800D02*X184554D01*
X184679Y216877D01*
X184919Y217081D01*
X185020Y217200D01*
X231480D01*
X231581Y217081D01*
X231821Y216877D01*
X231946Y216800D01*
G37*
G36*
X234946Y219800D02*X234520D01*
X234419Y219919D01*
X234179Y220123D01*
X234054Y220200D01*
X234480D01*
X234581Y220081D01*
X234821Y219877D01*
X234946Y219800D01*
G37*
G36*
X231480D02*X187054D01*
X187179Y219877D01*
X187419Y220081D01*
X187520Y220200D01*
X231946D01*
X231821Y220123D01*
X231581Y219919D01*
X231480Y219800D01*
G37*
G36*
X234480Y222800D02*X232054D01*
X232179Y222877D01*
X232419Y223081D01*
X232520Y223200D01*
X234946D01*
X234821Y223123D01*
X234581Y222919D01*
X234480Y222800D01*
G37*
G36*
X229946D02*X192054D01*
X192179Y222877D01*
X192419Y223081D01*
X192520Y223200D01*
X229480D01*
X229581Y223081D01*
X229821Y222877D01*
X229946Y222800D01*
G37*
G36*
X189946D02*X187520D01*
X187419Y222919D01*
X187179Y223123D01*
X187054Y223200D01*
X189480D01*
X189581Y223081D01*
X189821Y222877D01*
X189946Y222800D01*
G37*
G36*
X229480Y225800D02*X225554D01*
X225679Y225877D01*
X225919Y226081D01*
X226020Y226200D01*
X229946D01*
X229821Y226123D01*
X229581Y225919D01*
X229480Y225800D01*
G37*
G36*
X223446D02*X194054D01*
X194179Y225877D01*
X194419Y226081D01*
X194520Y226200D01*
X222980D01*
X223081Y226081D01*
X223321Y225877D01*
X223446Y225800D01*
G37*
G36*
X240000Y295831D02*X239922Y295922D01*
X239883Y295955D01*
X239838Y296000D01*
X240000Y296162D01*
X240162Y296000D01*
X240117Y295955D01*
X240078Y295922D01*
X240000Y295831D01*
G37*
G54D32*X119500Y285500D02*Y304000D01*
X95500Y233500D02*X90000D01*
X68500Y234500D02*X54500D01*
X90000Y233500D02*X84500Y239000D01*
X79500D01*
X84000Y237000D02*X76500D01*
X92500Y231000D02*X90000D01*
X98500Y228000D02*X60500D01*
X71500Y231500D02*X57500D01*
X90000Y231000D02*X84000Y237000D01*
X175500Y285500D02*Y197000D01*
X119500D01*
X278500Y295500D02*X275000Y299000D01*
Y300000D01*
X278550Y294200D02*X275000Y290650D01*
X266050Y294200D02*X265000Y293150D01*
Y290000D01*
X266000Y295500D02*X265000Y296500D01*
Y300000D01*
X275000Y290650D02*Y290000D01*
X292500Y285500D02*Y304000D01*
X283500Y285500D02*Y197000D01*
X292500Y285500D02*X119500D01*
G54D33*X280000Y256500D02*X180000D01*
Y254000D02*X280000D01*
Y251500D02*X180000D01*
Y249000D02*X280000D01*
G54D32*Y243500D02*X180000D01*
X280000Y240500D02*X180000D01*
Y245500D02*Y246500D01*
X280000Y233000D02*X180000D01*
X280000Y236000D02*X180000D01*
Y235000D02*Y236000D01*
X280000Y235000D02*Y236000D01*
X180000Y235000D02*X280000D01*
Y230000D02*X180000D01*
Y231000D02*Y230000D01*
Y231000D02*X280000D01*
Y227500D02*X180000D01*
X280000Y231000D02*Y230000D01*
Y224500D02*X180000D01*
X280000Y221500D02*X180000D01*
X280000Y218500D02*X180000D01*
X280000Y215500D02*X180000D01*
X280000Y212500D02*X180000D01*
G54D34*X280000Y282500D02*X180000D01*
X280000Y278000D02*X180000D01*
X280000Y273500D02*X180000D01*
G54D32*Y241500D02*Y240500D01*
Y241500D02*X280000D01*
Y246500D02*X180000D01*
Y245500D02*X280000D01*
G54D34*Y269000D02*X180000D01*
X280000Y264500D02*X180000D01*
X280000Y260000D02*X180000D01*
G54D32*X280000Y245500D02*Y246500D01*
Y241500D02*Y240500D01*
X240000Y285500D02*Y292000D01*
X242000Y294000D01*
X241000Y295000D01*
X242000Y296000D01*
X240000Y298000D01*
X238000Y296000D01*
X239000Y295000D01*
X238000Y294000D01*
X237000D01*
X236000Y295000D01*
X231000D01*
X230000Y294000D01*
Y288500D01*
X230500Y288000D01*
X233000D01*
X235000Y290000D01*
G54D34*X225500Y137500D02*X222000Y141000D01*
Y145000D01*
X227449D01*
X227862Y144587D01*
X228256D01*
X231406Y141437D01*
X236500Y141000D02*Y145000D01*
X240000Y137500D02*X236500Y141000D01*
Y145000D02*X241949D01*
X242362Y144587D01*
X242756D01*
X245906Y141437D01*
X254500Y137500D02*X251000Y141000D01*
X269000Y137500D02*X265500Y141000D01*
X283500Y137500D02*X280000Y141000D01*
X251000D02*Y145000D01*
X256449D01*
X256862Y144587D01*
X257256D01*
X260406Y141437D01*
X265500Y141000D02*Y145000D01*
X270949D01*
X271362Y144587D01*
X271756D01*
X274906Y141437D01*
X280000Y141000D02*Y145000D01*
X285449D01*
X285862Y144587D01*
X286256D01*
X289406Y141437D01*
X138500Y137500D02*X135000Y141000D01*
X153000Y137500D02*X149500Y141000D01*
X167500Y137500D02*X164000Y141000D01*
X124000Y137500D02*X120500Y141000D01*
X109500Y137500D02*X106000Y141000D01*
X135000Y145000D02*X140449D01*
X140862Y144587D01*
X141256D01*
X144406Y141437D01*
X149500Y141000D02*Y145000D01*
X154949D01*
X155362Y144587D01*
X155756D01*
X158906Y141437D01*
X164000Y141000D02*Y145000D01*
X169449D01*
X169862Y144587D01*
X170256D01*
X173406Y141437D01*
X178500Y141000D02*Y145000D01*
X131500Y160000D02*X187500D01*
X120500Y141000D02*Y145000D01*
X106000Y141000D02*Y145000D01*
X135000Y141000D02*Y145000D01*
X125949D02*X126362Y144587D01*
X126756D01*
X129906Y141437D01*
X120500Y145000D02*X125949D01*
X111862Y144587D02*X112256D01*
X115406Y141437D01*
X106000Y145000D02*X111449D01*
X111862Y144587D01*
G54D32*X106000Y146500D02*Y148500D01*
X107000Y149500D01*
X101500D02*X103000Y151000D01*
X101000D02*X102500Y152500D01*
X107000Y149500D02*X115000D01*
X103000Y151000D02*X113500D01*
X114000Y151500D01*
X102500Y152500D02*X112000D01*
X112500Y153000D01*
X115000Y149500D02*X115500Y150000D01*
G54D34*X120457Y144980D02*Y148957D01*
X131500Y160000D01*
X95000Y137500D02*X91500Y141000D01*
X96949Y145000D02*X97362Y144587D01*
X97756D01*
X100906Y141437D01*
G54D32*X101500Y149500D02*X92000D01*
X91500Y149000D01*
Y145024D01*
G54D34*Y141000D02*Y145000D01*
X96949D01*
G54D32*X91500Y145024D02*X91457Y144980D01*
X101000Y151000D02*X79000D01*
X90500Y162000D02*X85437D01*
X88500Y160000D02*X91500D01*
X92500Y161000D01*
Y163500D01*
X90200Y165800D01*
Y171000D01*
X90000Y157500D02*X89000Y156500D01*
Y154500D01*
X115500Y150000D02*Y154500D01*
X114000Y151500D02*Y157000D01*
X112500Y153000D02*Y159000D01*
X113000Y159500D01*
X108000Y166000D02*X113500D01*
X114500Y167000D01*
Y170700D01*
X109000Y170500D02*Y169000D01*
X114500Y170700D02*X114200Y171000D01*
X110200D02*X109500D01*
X109000Y170500D01*
X94200Y171000D02*Y164800D01*
X94500Y164500D01*
Y159500D02*Y161500D01*
X97000Y164000D01*
Y170000D01*
X98500Y162500D02*X98000Y162000D01*
X100000Y161000D02*X96500Y157500D01*
X90000D02*X96500D01*
X97000Y170000D02*X98000Y171000D01*
X100200D01*
X104200D02*Y169700D01*
X102500Y168000D01*
X109000Y169000D02*X104000Y164000D01*
X108000Y166000D02*X104500Y162500D01*
X102500Y168000D02*X100000D01*
X99000Y167000D01*
X104000Y164000D02*X99000D01*
X98500Y163500D01*
Y162500D01*
X104500D02*X101000D01*
X100000Y161500D01*
Y161000D01*
G54D34*X178500Y145000D02*X183949D01*
X184362Y144587D01*
X184756D01*
G54D32*X186200Y151600D02*X179600D01*
X187500Y151650D02*X191850D01*
X193000Y150500D01*
X179600Y151600D02*X178500Y150500D01*
Y145000D01*
G54D34*X182000Y137500D02*X178500Y141000D01*
X196500Y137500D02*X193000Y141000D01*
X211000Y137500D02*X207500Y141000D01*
Y145000D01*
X212949D01*
X213362Y144587D01*
X213756D01*
X216906Y141437D01*
G54D32*X205500Y151000D02*X221500D01*
X222000Y150500D02*Y145000D01*
X221000Y156000D02*Y151500D01*
X222000Y150500D02*X221000Y151500D01*
X224500Y157000D02*X222000D01*
X221000Y156000D01*
X225800Y157050D02*X226550D01*
X227000Y157500D01*
Y160000D01*
X225500Y161500D01*
Y167000D01*
G54D34*X198449Y145000D02*X198862Y144587D01*
G54D32*X193000Y150500D02*Y145024D01*
G54D34*X198862Y144587D02*X199256D01*
X202406Y141437D01*
X184756Y144587D02*X187906Y141437D01*
X193000Y141000D02*Y145000D01*
X198449D01*
G54D32*X193000Y145024D02*X192957Y144980D01*
G54D34*X187500Y160000D02*X198000Y170500D01*
X80500Y137500D02*X77000Y141000D01*
Y145000D01*
X61000Y141500D02*X64500Y145000D01*
X68500D01*
Y139551D01*
X68087Y139138D01*
Y138744D01*
X64937Y135594D01*
X61000Y156000D02*X64500Y159500D01*
X68500D01*
Y154051D01*
X68087Y153638D01*
Y153244D01*
X64937Y150094D01*
X61000Y170500D02*X64500Y174000D01*
X68500Y168551D02*X68087Y168138D01*
Y167744D01*
X64937Y164594D01*
X64500Y174000D02*X68500D01*
Y168551D01*
G54D32*X68524Y174000D02*X68480Y174043D01*
G54D34*X77000Y145000D02*X82449D01*
X82862Y144587D01*
X83256D01*
X86406Y141437D01*
G54D32*X76957Y144980D02*Y148957D01*
X85437Y162000D02*X68480Y145043D01*
X79500Y164500D02*X74500Y159500D01*
X68500D01*
X87000Y157000D02*Y158500D01*
X88500Y160000D01*
X76957Y148957D02*X79000Y151000D01*
X88500Y164500D02*X79500D01*
X87000Y167000D02*X80500D01*
X73500Y174000D01*
X68524D01*
G54D35*X231406Y141437D03*
G54D36*X240000Y137500D03*
G54D37*X236457Y144980D03*
G54D38*X242362Y144587D03*
G54D36*X225500Y137500D03*
G54D37*X221957Y144980D03*
G54D38*X227862Y144587D03*
G54D35*X245906Y141437D03*
X187906D03*
G54D37*X192957Y144980D03*
G54D38*X198862Y144587D03*
G54D36*X196500Y137500D03*
X211000D03*
G54D35*X202406Y141437D03*
G54D37*X207457Y144980D03*
G54D38*X213362Y144587D03*
G54D35*X216906Y141437D03*
G54D36*X254500Y137500D03*
X269000D03*
X283500D03*
G54D37*X250957Y144980D03*
G54D38*X256862Y144587D03*
G54D35*X260406Y141437D03*
G54D37*X265457Y144980D03*
G54D38*X271362Y144587D03*
G54D35*X274906Y141437D03*
G54D37*X279957Y144980D03*
G54D38*X285862Y144587D03*
G54D35*X289406Y141437D03*
G54D39*X201499Y66000D03*
X181000Y67500D03*
X204500Y66000D03*
X216000Y65500D03*
X219000D03*
X196500Y69500D03*
X199500D03*
X185500Y76000D03*
X188500D03*
X173000Y67500D03*
X175500Y65500D03*
X178500D03*
X160500D03*
X163500D03*
X166500D03*
X153500Y75500D03*
X156500D03*
X150500D03*
X86000D03*
X83000D03*
X80000D03*
X100500D03*
X97500D03*
X94500D03*
X116500D03*
X113500D03*
X110500D03*
X131000D03*
X128000D03*
X125000D03*
G54D36*X80500Y137500D03*
X95000D03*
X109500D03*
G54D37*X76957Y144980D03*
G54D38*X82862Y144587D03*
G54D35*X86406Y141437D03*
G54D37*X91457Y144980D03*
G54D38*X97362Y144587D03*
G54D35*X100906Y141437D03*
G54D37*X105957Y144980D03*
G54D38*X111862Y144587D03*
G54D36*X61000Y141500D03*
G54D35*X64937Y135594D03*
G54D36*X61000Y170500D03*
G54D35*X64937Y164594D03*
G54D36*X61000Y156000D03*
G54D35*X64937Y150094D03*
G54D37*X68480Y145043D03*
G54D38*X68087Y139138D03*
G54D37*X68480Y174043D03*
G54D38*X68087Y168138D03*
G54D37*X68480Y159543D03*
G54D38*X68087Y153638D03*
G54D35*X115406Y141437D03*
G54D37*X120457Y144980D03*
G54D38*X126362Y144587D03*
G54D36*X124000Y137500D03*
X138500D03*
G54D35*X129906Y141437D03*
G54D37*X134957Y144980D03*
G54D38*X140862Y144587D03*
G54D35*X144406Y141437D03*
G54D36*X153000Y137500D03*
X167500D03*
X182000D03*
G54D37*X149457Y144980D03*
G54D38*X155362Y144587D03*
G54D35*X158906Y141437D03*
G54D37*X163957Y144980D03*
G54D38*X169862Y144587D03*
G54D35*X173406Y141437D03*
G54D37*X178457Y144980D03*
G54D38*X184362Y144587D03*
G54D31*G36*
X272000Y303000D02*Y297000D01*
X278000D01*
Y303000D01*
X272000D01*
G37*
G54D40*X275000Y290000D03*
X265000Y300000D03*
Y290000D03*
X255000Y300000D03*
Y290000D03*
X245000Y300000D03*
Y290000D03*
X235000Y300000D03*
Y290000D03*
X225000Y300000D03*
X215000D03*
X205000D03*
X195000D03*
X185000D03*
X225000Y290000D03*
X215000D03*
X205000D03*
X195000D03*
X185000D03*
G54D31*G36*
X272000Y387000D02*Y381000D01*
X278000D01*
Y387000D01*
X272000D01*
G37*
G54D40*X275000Y374000D03*
X265000Y384000D03*
Y374000D03*
X255000Y384000D03*
Y374000D03*
X245000Y384000D03*
Y374000D03*
X235000D03*
X225000D03*
X235000Y384000D03*
X225000D03*
X215000D03*
X205000D03*
X195000D03*
X185000D03*
X215000Y374000D03*
X205000D03*
X195000D03*
X185000D03*
G54D32*X185500Y153050D02*X186200Y152350D01*
G54D31*G36*
X186500Y152650D02*X185900D01*
Y150550D01*
X186500D01*
Y152650D01*
G37*
G54D32*X185500Y153350D02*X186100Y153950D01*
X185500Y154550D02*X186100Y153950D01*
X185500Y156050D02*Y153050D01*
Y156050D02*X186200Y156750D01*
G54D31*G36*
X186500Y157550D02*X185900D01*
Y156450D01*
X186500D01*
Y157550D01*
G37*
G54D32*X185500Y155750D02*X186100Y155150D01*
X185500Y154550D02*X186100Y155150D01*
X188100Y156150D02*Y153050D01*
Y153250D02*Y153050D01*
X187500Y156750D02*X188100Y156150D01*
G54D31*G36*
X187800Y157550D02*X187200D01*
Y156450D01*
X187800D01*
Y157550D01*
G37*
G54D32*X187500Y152450D02*X188100Y153050D01*
X187400Y153950D02*X188100Y153250D01*
X187400Y153950D02*X188100Y154650D01*
X187400Y155150D02*X188100Y154450D01*
X187400Y155150D02*X188100Y155850D01*
G54D31*G36*
X187800Y152750D02*X187200D01*
Y150550D01*
X187800D01*
Y152750D01*
G37*
G54D32*X226500Y155600D02*Y152600D01*
X225800Y151900D02*X226500Y152600D01*
X225900Y154700D02*X226500Y155300D01*
X225900Y154700D02*X226500Y154100D01*
X225900Y153500D02*X226500Y152900D01*
X225900Y153500D02*X226500Y154100D01*
G54D31*G36*
X226100Y152200D02*X225500D01*
Y151100D01*
X226100D01*
Y152200D01*
G37*
G54D32*X223900Y152500D02*X224500Y151900D01*
G54D31*G36*
X224800Y152200D02*X224200D01*
Y151100D01*
X224800D01*
Y152200D01*
G37*
G54D32*X223900Y152800D02*X224600Y153500D01*
X225800Y156300D02*X226500Y155600D01*
G54D31*G36*
X226100Y158100D02*X225500D01*
Y156000D01*
X226100D01*
Y158100D01*
G37*
G54D32*X223900Y155600D02*X224500Y156200D01*
G54D31*G36*
X224800Y158100D02*X224200D01*
Y155900D01*
X224800D01*
Y158100D01*
G37*
G54D32*X223900Y155400D02*X224600Y154700D01*
X223900Y155600D02*Y155400D01*
Y155600D02*Y152500D01*
Y154000D02*X224600Y154700D01*
X223900Y154200D02*X224600Y153500D01*
X279950Y296200D02*X282950D01*
X283650Y295500D01*
G54D31*G36*
X283350Y295800D02*Y295200D01*
X284450D01*
Y295800D01*
X283350D01*
G37*
G54D32*X282050Y295600D02*X282650Y296200D01*
X281450D02*X282050Y295600D01*
X279250Y295500D02*X279950Y296200D01*
G54D31*G36*
X277450Y295800D02*Y295200D01*
X279550D01*
Y295800D01*
X277450D01*
G37*
G54D32*X280250Y296200D02*X280850Y295600D01*
X281450Y296200D01*
X279950Y293600D02*X283050D01*
X279950D02*X280150D01*
X283050D02*X283650Y294200D01*
G54D31*G36*
X283350Y294500D02*Y293900D01*
X284450D01*
Y294500D01*
X283350D01*
G37*
G54D32*X279350Y294200D02*X279950Y293600D01*
X280150D02*X280850Y294300D01*
X281550Y293600D01*
X281350D02*X282050Y294300D01*
X282750Y293600D01*
G54D31*G36*
X277450Y294500D02*Y293900D01*
X279650D01*
Y294500D01*
X277450D01*
G37*
G54D32*X267450Y296200D02*X270450D01*
X266750Y295500D02*X267450Y296200D01*
X267750D02*X268350Y295600D01*
X268950Y296200D01*
G54D31*G36*
X264950Y295800D02*Y295200D01*
X267050D01*
Y295800D01*
X264950D01*
G37*
G54D32*X270450Y296200D02*X271150Y295500D01*
X269550Y295600D02*X270150Y296200D01*
X268950D02*X269550Y295600D01*
G54D31*G36*
X270850Y295800D02*Y295200D01*
X271950D01*
Y295800D01*
X270850D01*
G37*
G54D32*X266850Y294200D02*X267450Y293600D01*
G54D31*G36*
X264950Y294500D02*Y293900D01*
X267150D01*
Y294500D01*
X264950D01*
G37*
G54D32*X267650Y293600D02*X268350Y294300D01*
X267450Y293600D02*X267650D01*
X270550D02*X271150Y294200D01*
G54D31*G36*
X270850Y294500D02*Y293900D01*
X271950D01*
Y294500D01*
X270850D01*
G37*
G54D32*X267450Y293600D02*X270550D01*
X268350Y294300D02*X269050Y293600D01*
X268850D02*X269550Y294300D01*
X270250Y293600D01*
G54D34*X275000Y269000D03*
X276500Y273500D03*
X278000Y278000D03*
X280000Y282500D03*
Y264500D03*
X270000D03*
X188500Y282500D03*
X186500Y278000D03*
G54D41*X130000Y285000D03*
G54D34*X189000Y269000D03*
X184500Y273500D03*
G54D39*X223000Y212500D03*
X224500Y227500D03*
X205500Y151000D03*
X225500Y167000D03*
G54D34*X198000Y170500D03*
G54D39*X236000Y221500D03*
X193000Y227500D03*
X191000Y224500D03*
X189000Y212500D03*
X186000Y221500D03*
X183500Y218500D03*
X233000D03*
X231000Y224500D03*
G54D41*X235000Y190000D03*
G54D39*X236500Y246500D03*
Y240500D03*
Y236000D03*
Y230000D03*
X234500Y233000D03*
Y243500D03*
X195500Y240500D03*
X116000Y154500D03*
X114500Y157000D03*
X113000Y159500D03*
X100200Y171000D03*
X104200D03*
X110200D03*
X114200D03*
G54D41*X130000Y245000D03*
G54D39*X280000Y254000D03*
X279000Y256500D03*
G54D34*X277500Y260000D03*
G54D39*X265500Y230000D03*
X262500Y233000D03*
X265500Y240500D03*
X265000Y243500D03*
X266000Y246000D03*
Y249000D03*
X265000Y251500D03*
X261000D03*
X258500Y249000D03*
G54D34*X265500Y260000D03*
G54D39*X263500Y254000D03*
X264500Y256500D03*
X88500Y164500D03*
X94500D03*
X99000Y167000D03*
X87000D03*
Y157000D03*
X90200Y171000D03*
X94200D03*
X90500Y162000D03*
X94500Y159500D03*
X98000Y162000D03*
X89000Y154500D03*
X79500Y239000D03*
X76500Y237000D03*
X95500Y233500D03*
X92500Y231000D03*
X79500Y228000D03*
X98500D03*
X60500D03*
X71500Y231500D03*
X57500D03*
X54500Y234500D03*
X68500D03*
G54D42*G54D43*G54D42*G54D44*G54D42*G54D44*G54D43*G54D44*G54D43*G54D44*G54D42*G54D44*G54D42*G54D44*G54D45*G54D46*G54D47*G54D48*G54D46*G54D47*G54D48*G54D45*G54D47*G54D48*G54D46*G54D45*G54D47*G54D48*G54D45*G54D46*G54D47*G54D48*G54D45*G54D47*G54D48*G54D45*G54D47*G54D48*G54D45*G54D44*G54D46*G54D47*G54D48*G54D45*G54D47*G54D48*G54D45*G54D47*G54D48*G54D46*G54D45*G54D46*G54D45*G54D46*G54D45*G54D47*G54D48*G54D47*G54D48*G54D47*G54D48*G54D45*G54D47*G54D48*G54D46*G54D45*G54D47*G54D48*G54D45*G54D46*G54D47*G54D48*G54D45*G54D47*G54D48*G54D45*G54D47*G54D48*G54D49*M02*
