G04 start of page 10 for group -4079 idx -4079 *
G04 Title: (unknown), topsilk *
G04 Creator: pcb 4.2.0 *
G04 CreationDate: Thu Sep 17 07:54:02 2020 UTC *
G04 For: commonadmin *
G04 Format: Gerber/RS-274X *
G04 PCB-Dimensions (mil): 3500.00 4250.00 *
G04 PCB-Coordinate-Origin: lower left *
%MOIN*%
%FSLAX25Y25*%
%LNTOPSILK*%
%ADD127C,0.0021*%
%ADD126C,0.0022*%
%ADD125C,0.0250*%
%ADD124C,0.0049*%
%ADD123C,0.0039*%
%ADD122C,0.0026*%
%ADD121C,0.0021*%
%ADD120C,0.0027*%
%ADD119C,0.0022*%
%ADD118C,0.0048*%
%ADD117C,0.0038*%
%ADD116C,0.0050*%
%ADD115C,0.0040*%
%ADD114C,0.0030*%
%ADD113C,0.0038*%
%ADD112C,0.0030*%
%ADD111C,0.0060*%
%ADD110C,0.0100*%
%ADD109C,0.0001*%
G54D109*G36*
X53000Y146000D02*X73000D01*
Y137000D01*
X53000D01*
Y146000D01*
G37*
G36*
Y160500D02*X73000D01*
Y151500D01*
X53000D01*
Y160500D01*
G37*
G36*
X165000Y67000D02*Y63000D01*
X162000D01*
Y67000D01*
X165000D01*
G37*
G36*
X158000Y77000D02*Y73000D01*
X155000D01*
Y77000D01*
X158000D01*
G37*
G36*
X190000Y77500D02*Y73500D01*
X187000D01*
Y77500D01*
X190000D01*
G37*
G36*
X201000Y71000D02*Y67000D01*
X198000D01*
Y71000D01*
X201000D01*
G37*
G36*
X220500Y67000D02*Y63000D01*
X217500D01*
Y67000D01*
X220500D01*
G37*
G36*
X206000Y67500D02*Y63500D01*
X203000D01*
Y67500D01*
X206000D01*
G37*
G36*
X84500Y77000D02*Y73000D01*
X81500D01*
Y77000D01*
X84500D01*
G37*
G36*
X99000D02*Y73000D01*
X96000D01*
Y77000D01*
X99000D01*
G37*
G36*
X129500D02*Y73000D01*
X126500D01*
Y77000D01*
X129500D01*
G37*
G36*
X115000D02*Y73000D01*
X112000D01*
Y77000D01*
X115000D01*
G37*
G36*
X279000Y129500D02*Y149500D01*
X288000D01*
Y129500D01*
X279000D01*
G37*
G36*
X250000D02*Y149500D01*
X259000D01*
Y129500D01*
X250000D01*
G37*
G36*
X221000D02*Y149500D01*
X230000D01*
Y129500D01*
X221000D01*
G37*
G36*
X192000D02*Y149500D01*
X201000D01*
Y129500D01*
X192000D01*
G37*
G36*
X90500D02*Y149500D01*
X99500D01*
Y129500D01*
X90500D01*
G37*
G36*
X105000D02*Y149500D01*
X114000D01*
Y129500D01*
X105000D01*
G37*
G36*
X170000Y288000D02*X173500Y291500D01*
X177000Y288000D01*
X170000D01*
G37*
G36*
X283000D02*X286500Y291500D01*
X290000Y288000D01*
X283000D01*
G37*
G36*
X170000Y372000D02*X173500Y375500D01*
X177000Y372000D01*
X170000D01*
G37*
G36*
X283000D02*X286500Y375500D01*
X290000Y372000D01*
X283000D01*
G37*
G36*
X282500Y303000D02*X288000D01*
Y297500D01*
X282500D01*
Y303000D01*
G37*
G54D110*X245000Y290000D02*X240750Y294250D01*
Y320000D01*
X235000Y300000D02*Y325000D01*
X230750Y294250D02*Y320000D01*
X225000Y300000D02*Y325000D01*
G54D111*X226500Y317500D02*Y314000D01*
G54D110*X235000Y290000D02*X230750Y294250D01*
X225000Y290000D02*X220750Y294250D01*
X215000Y290000D02*X210750Y294250D01*
G54D111*X228500Y278000D02*X210500D01*
G54D110*X260750Y294250D02*Y320000D01*
X255000Y300000D02*Y325000D01*
X250750Y294250D02*Y320000D01*
X245000Y300000D02*Y325000D01*
G54D111*X259000Y315000D02*Y316500D01*
X257000D02*Y315000D01*
G54D110*X275000Y300000D02*Y325000D01*
X270750Y294250D02*Y320000D01*
X265000Y300000D02*Y325000D01*
X282500Y312500D02*X277500Y307500D01*
G54D111*X259000Y316500D02*X277000D01*
Y315000D01*
X259000D01*
G54D110*X220750Y294250D02*Y320000D01*
X215000Y300000D02*Y325000D01*
X210750Y294250D02*Y320000D01*
X205000Y290000D02*X200750Y294250D01*
X195000Y290000D02*X190750Y294250D01*
X172500Y307500D02*X277500D01*
G54D111*X178500Y290000D02*X177000D01*
G54D110*X282500Y312500D02*X177500D01*
G54D111*X207000Y316500D02*X198500D01*
X207000Y315000D02*X198500D01*
X226500Y314000D02*X210000D01*
X226500Y317500D02*X210000D01*
X257000Y316500D02*X228500D01*
X257000Y315000D02*X228500D01*
G54D110*X275000Y290000D02*X270750Y294250D01*
X255000Y290000D02*X250750Y294250D01*
X265000Y290000D02*X260750Y294250D01*
G54D111*X290000Y288000D02*X286500Y291500D01*
X283000Y288000D01*
X290000D01*
X283000Y290000D02*X281500D01*
X260000Y282000D02*Y278000D01*
X258500Y282000D02*Y244500D01*
X228500Y282000D02*Y256500D01*
X260000Y278000D02*X279000D01*
X230500Y279500D02*Y278500D01*
X231000Y278000D01*
X258500D01*
X279000D02*Y282000D01*
Y265000D01*
G54D110*X205000Y300000D02*Y325000D01*
X200750Y294250D02*Y320000D01*
X195000Y300000D02*Y325000D01*
X190750Y294250D02*Y320000D01*
G54D111*X198500Y316500D02*Y315000D01*
G54D110*X185000Y300000D02*Y325000D01*
X180750Y294250D02*Y320000D01*
X177500Y312500D02*X172500Y307500D01*
G54D111*X179000Y317500D02*Y314000D01*
X180000Y282000D02*Y256500D01*
X179000Y317500D02*X196000D01*
X179000Y314000D02*X196000D01*
X180000Y278000D02*X197500D01*
X198000Y278500D01*
X200000Y278000D02*X207500D01*
X208000Y278500D01*
Y279500D01*
X200000Y282000D02*Y244500D01*
X210000Y278500D02*X210500Y278000D01*
G54D110*X185000Y290000D02*X180750Y294250D01*
G54D111*X184500Y85000D02*Y79000D01*
X220500Y85000D02*X184500D01*
X220500Y119500D02*Y79000D01*
X183000D02*Y95500D01*
X175500Y267500D02*X177500D01*
X175500D02*Y284000D01*
X177500D01*
Y266000D02*X175500D01*
Y240500D01*
X175000Y129500D02*Y139000D01*
X170000Y85000D02*Y79000D01*
X183000Y85000D02*X170000D01*
X175500Y240500D02*X177500D01*
X177000Y288000D02*X173500Y291500D01*
X170000Y288000D02*X177000D01*
X173500Y291500D02*X170000Y288000D01*
X142500Y133500D02*X149000D01*
X128000D02*X130000Y131500D01*
X161500D01*
X163500Y133500D01*
X117000Y139000D02*Y129500D01*
X77500Y85000D02*X134500D01*
X77500D02*Y79000D01*
X134500D02*Y107000D01*
X94500Y241000D02*X96500Y239000D01*
X90500Y256500D02*X97000D01*
X76000D02*X81000D01*
X97000Y221500D02*X90500D01*
X81000D02*X76000D01*
X97000Y186000D02*Y226000D01*
Y292000D02*Y252000D01*
X81000Y199500D02*Y226000D01*
Y278500D02*Y252000D01*
G54D110*X275000Y384000D02*Y409000D01*
X270750Y378250D02*Y404000D01*
X245000Y384000D02*Y409000D01*
X282500Y396500D02*X277500Y391500D01*
X265000Y384000D02*Y409000D01*
X260750Y378250D02*Y404000D01*
X255000Y384000D02*Y409000D01*
X250750Y378250D02*Y404000D01*
G54D111*X259000Y399000D02*Y400500D01*
X257000D02*Y399000D01*
X259000Y400500D02*X277000D01*
Y399000D02*X259000D01*
X277000Y400500D02*Y399000D01*
G54D110*X245000Y374000D02*X240750Y378250D01*
Y404000D01*
X235000Y384000D02*Y409000D01*
X230750Y378250D02*Y404000D01*
X225000Y384000D02*Y409000D01*
G54D111*X226500Y401500D02*Y398000D01*
G54D110*X235000Y374000D02*X230750Y378250D01*
X225000Y374000D02*X220750Y378250D01*
X215000Y374000D02*X210750Y378250D01*
G54D111*X228500Y362000D02*X210500D01*
G54D110*X205000Y384000D02*Y409000D01*
X200750Y378250D02*Y404000D01*
X195000Y384000D02*Y409000D01*
X190750Y378250D02*Y404000D01*
G54D111*X198500Y400500D02*Y399000D01*
G54D110*X185000Y384000D02*Y409000D01*
X180750Y378250D02*Y404000D01*
X177500Y396500D02*X172500Y391500D01*
G54D111*X179000Y401500D02*Y398000D01*
Y401500D02*X196000D01*
X179000Y398000D02*X196000D01*
X177000Y372000D02*X173500Y375500D01*
X170000Y372000D01*
X178500Y374000D02*X177000D01*
X170000Y372000D02*X177000D01*
G54D110*X220750Y378250D02*Y404000D01*
X215000Y384000D02*Y409000D01*
X210750Y378250D02*Y404000D01*
X205000Y374000D02*X200750Y378250D01*
X195000Y374000D02*X190750Y378250D01*
X172500Y391500D02*X277500D01*
X282500Y396500D02*X177500D01*
G54D111*X207000Y400500D02*X198500D01*
X207000Y399000D02*X198500D01*
X226500Y398000D02*X210000D01*
X226500Y401500D02*X210000D01*
X257000Y400500D02*X228500D01*
X257000Y399000D02*X228500D01*
G54D110*X275000Y374000D02*X270750Y378250D01*
X255000Y374000D02*X250750Y378250D01*
X265000Y374000D02*X260750Y378250D01*
G54D111*X290000Y372000D02*X286500Y375500D01*
X283000Y372000D01*
X290000D01*
X283000Y374000D02*X281500D01*
X260000Y366000D02*Y362000D01*
X258500Y366000D02*Y328500D01*
X228500Y366000D02*Y340500D01*
X260000Y362000D02*X279000D01*
X230500Y363500D02*Y362500D01*
X231000Y362000D01*
X258500D01*
X279000D02*Y366000D01*
Y349000D01*
G54D110*X185000Y374000D02*X180750Y378250D01*
G54D111*X180000Y366000D02*Y340500D01*
X200000Y362000D02*X207500D01*
X208000Y362500D01*
X210000D02*X210500Y362000D01*
X208000Y362500D02*Y363500D01*
X200000Y366000D02*Y328500D01*
X180000Y362000D02*X197500D01*
X198000Y362500D01*
G54D112*X270032Y154700D02*X271020D01*
X269500Y155232D02*X270032Y154700D01*
X269500Y157208D02*Y155232D01*
Y157208D02*X270032Y157740D01*
X271020D01*
X271932Y155840D02*Y155080D01*
Y155840D02*X272312Y156220D01*
X273072D01*
X273452Y155840D01*
Y155080D01*
X273072Y154700D02*X273452Y155080D01*
X272312Y154700D02*X273072D01*
X271932Y155080D02*X272312Y154700D01*
X274364Y155840D02*Y155080D01*
Y155840D02*X274744Y156220D01*
X275504D01*
X275884Y155840D01*
Y155080D01*
X275504Y154700D02*X275884Y155080D01*
X274744Y154700D02*X275504D01*
X274364Y155080D02*X274744Y154700D01*
X276796Y157740D02*Y155080D01*
X277176Y154700D01*
G54D113*X277936Y156980D02*Y156904D01*
G54D112*Y155840D02*Y154700D01*
X279076Y155840D02*Y154700D01*
Y155840D02*X279456Y156220D01*
X279836D01*
X280216Y155840D01*
Y154700D01*
X278696Y156220D02*X279076Y155840D01*
X282268Y156220D02*X282648Y155840D01*
X281508Y156220D02*X282268D01*
X281128Y155840D02*X281508Y156220D01*
X281128Y155840D02*Y155080D01*
X281508Y154700D01*
X282268D01*
X282648Y155080D01*
X281128Y153940D02*X281508Y153560D01*
X282268D01*
X282648Y153940D01*
Y156220D02*Y153940D01*
X265000Y153230D02*X266540D01*
X266925Y152845D01*
Y152075D01*
X266540Y151690D02*X266925Y152075D01*
X265385Y151690D02*X266540D01*
X265385Y153230D02*Y150150D01*
X266001Y151690D02*X266925Y150150D01*
X268234D02*X269389D01*
X267849Y150535D02*X268234Y150150D01*
X267849Y151305D02*Y150535D01*
Y151305D02*X268234Y151690D01*
X269004D01*
X269389Y151305D01*
X267849Y150920D02*X269389D01*
Y151305D02*Y150920D01*
X271853Y153230D02*Y150150D01*
X271468D02*X271853Y150535D01*
X270698Y150150D02*X271468D01*
X270313Y150535D02*X270698Y150150D01*
X270313Y151305D02*Y150535D01*
Y151305D02*X270698Y151690D01*
X271468D01*
X271853Y151305D01*
X272777Y151690D02*X274317D01*
X273547Y152460D02*Y150920D01*
X278000Y150150D02*X279540D01*
X279925Y150535D01*
Y151459D02*Y150535D01*
X279540Y151844D02*X279925Y151459D01*
X278385Y151844D02*X279540D01*
X278385Y153230D02*Y150150D01*
X278000Y153230D02*X279540D01*
X279925Y152845D01*
Y152229D01*
X279540Y151844D02*X279925Y152229D01*
X280849Y153230D02*Y150535D01*
X281234Y150150D01*
X283159Y151690D02*X283544Y151305D01*
X282389Y151690D02*X283159D01*
X282004Y151305D02*X282389Y151690D01*
X282004Y151305D02*Y150535D01*
X282389Y150150D01*
X283544Y151690D02*Y150535D01*
X283929Y150150D01*
X282389D02*X283159D01*
X283544Y150535D01*
X285238Y151690D02*X286393D01*
X284853Y151305D02*X285238Y151690D01*
X284853Y151305D02*Y150535D01*
X285238Y150150D01*
X286393D01*
X287317Y153230D02*Y150150D01*
Y151305D02*X288472Y150150D01*
X287317Y151305D02*X288087Y152075D01*
X289396Y151690D02*X290936D01*
G54D114*X280280Y162623D02*X280655Y162998D01*
X281780D01*
X282155Y162623D01*
Y161873D01*
X280280Y159998D02*X282155Y161873D01*
X280280Y159998D02*X282155D01*
X283055Y160373D02*X285305Y162623D01*
X287705Y162998D02*X288080Y162623D01*
X286580Y162998D02*X287705D01*
X286205Y162623D02*X286580Y162998D01*
X286205Y162623D02*Y160373D01*
X286580Y159998D01*
X287705D01*
X288080Y160373D01*
Y161123D02*Y160373D01*
X287705Y161498D02*X288080Y161123D01*
X286955Y161498D02*X287705D01*
X265457Y162469D02*X266057Y163069D01*
Y160069D01*
X265457D02*X266582D01*
X267482Y160444D02*X269732Y162694D01*
X270632Y163069D02*Y161569D01*
X271007Y160069D01*
X271757Y161569D01*
X272507Y160069D01*
X272882Y161569D01*
Y163069D02*Y161569D01*
X275282Y163069D02*X275657Y162694D01*
X274157Y163069D02*X275282D01*
X273782Y162694D02*X274157Y163069D01*
X273782Y162694D02*Y160444D01*
X274157Y160069D01*
X275282D01*
X275657Y160444D01*
Y161194D02*Y160444D01*
X275282Y161569D02*X275657Y161194D01*
X274532Y161569D02*X275282D01*
X251173Y160294D02*X251548Y159919D01*
X251173Y160894D02*Y160294D01*
Y160894D02*X251698Y161419D01*
X252148D01*
X252673Y160894D01*
Y160294D01*
X252298Y159919D02*X252673Y160294D01*
X251548Y159919D02*X252298D01*
X251173Y161944D02*X251698Y161419D01*
X251173Y162544D02*Y161944D01*
Y162544D02*X251548Y162919D01*
X252298D01*
X252673Y162544D01*
Y161944D01*
X252148Y161419D02*X252673Y161944D01*
X253573Y160294D02*X255823Y162544D01*
X256723Y159919D02*X258223D01*
X258598Y160294D01*
Y161194D02*Y160294D01*
X258223Y161569D02*X258598Y161194D01*
X257098Y161569D02*X258223D01*
X257098Y162919D02*Y159919D01*
X256723Y162919D02*X258223D01*
X258598Y162544D01*
Y161944D01*
X258223Y161569D02*X258598Y161944D01*
X259873Y161044D02*Y159919D01*
Y161044D02*X260248Y161419D01*
X260998D01*
X259498D02*X259873Y161044D01*
G54D115*X237500Y155500D02*Y151500D01*
X240000Y155500D02*Y151500D01*
X237500Y153500D02*X240000D01*
X241700Y151500D02*X243200D01*
X241200Y152000D02*X241700Y151500D01*
X241200Y153000D02*Y152000D01*
Y153000D02*X241700Y153500D01*
X242700D01*
X243200Y153000D01*
X241200Y152500D02*X243200D01*
Y153000D02*Y152500D01*
X245900Y153500D02*X246400Y153000D01*
X244900Y153500D02*X245900D01*
X244400Y153000D02*X244900Y153500D01*
X244400Y153000D02*Y152000D01*
X244900Y151500D01*
X246400Y153500D02*Y152000D01*
X246900Y151500D01*
X244900D02*X245900D01*
X246400Y152000D01*
X248600Y155500D02*Y152000D01*
X249100Y151500D01*
X248100Y154000D02*X249100D01*
X250600Y151500D02*X252100D01*
X250100Y152000D02*X250600Y151500D01*
X250100Y153000D02*Y152000D01*
Y153000D02*X250600Y153500D01*
X251600D01*
X252100Y153000D01*
X250100Y152500D02*X252100D01*
Y153000D02*Y152500D01*
X253800Y153000D02*Y151500D01*
Y153000D02*X254300Y153500D01*
X255300D01*
X253300D02*X253800Y153000D01*
G54D114*X235891Y159801D02*X237391Y162801D01*
X235516D02*X237391D01*
X238291Y160176D02*X240541Y162426D01*
X241441Y162801D02*Y161301D01*
X241816Y159801D01*
X242566Y161301D01*
X243316Y159801D01*
X243691Y161301D01*
Y162801D02*Y161301D01*
X244591Y159801D02*X246091D01*
X246466Y160176D01*
Y161076D02*Y160176D01*
X246091Y161451D02*X246466Y161076D01*
X244966Y161451D02*X246091D01*
X244966Y162801D02*Y159801D01*
X244591Y162801D02*X246091D01*
X246466Y162426D01*
Y161826D01*
X246091Y161451D02*X246466Y161826D01*
X247741Y160926D02*Y159801D01*
Y160926D02*X248116Y161301D01*
X248866D01*
X247366D02*X247741Y160926D01*
G54D112*X215270Y87000D02*X218350D01*
Y88540D02*Y87000D01*
Y91004D02*Y89849D01*
X217965Y89464D02*X218350Y89849D01*
X217195Y89464D02*X217965D01*
X217195D02*X216810Y89849D01*
Y90619D02*Y89849D01*
Y90619D02*X217195Y91004D01*
X217580D02*Y89464D01*
X217195Y91004D02*X217580D01*
X216810Y93083D02*X217195Y93468D01*
X216810Y93083D02*Y92313D01*
X217195Y91928D02*X216810Y92313D01*
X217195Y91928D02*X217965D01*
X218350Y92313D01*
Y93083D02*Y92313D01*
Y93083D02*X217965Y93468D01*
X219120Y91928D02*X219505Y92313D01*
Y93083D02*Y92313D01*
Y93083D02*X219120Y93468D01*
X216810D02*X219120D01*
X216810Y95547D02*X217195Y95932D01*
X216810Y95547D02*Y94777D01*
X217195Y94392D02*X216810Y94777D01*
X217195Y94392D02*X217965D01*
X218350Y94777D01*
X216810Y95932D02*X217965D01*
X218350Y96317D01*
Y95547D02*Y94777D01*
Y95547D02*X217965Y95932D01*
X216810Y98781D02*Y97626D01*
X217195Y97241D02*X216810Y97626D01*
X217195Y97241D02*X217965D01*
X218350Y97626D01*
Y98781D02*Y97626D01*
X216810Y99705D02*X217965D01*
X218350Y100090D01*
X216810Y101245D02*X219120D01*
X219505Y100860D02*X219120Y101245D01*
X219505Y100860D02*Y100090D01*
X219120Y99705D02*X219505Y100090D01*
X218350Y100860D02*Y100090D01*
Y100860D02*X217965Y101245D01*
X216810Y103709D02*Y102169D01*
X215270Y104633D02*X218350D01*
Y106173D02*Y104633D01*
X216810Y107097D02*X217965D01*
X218350Y107482D01*
Y108252D02*Y107482D01*
Y108252D02*X217965Y108637D01*
X216810D02*X217965D01*
X215270Y109561D02*X217965D01*
X218350Y109946D01*
X216810Y112256D02*Y110716D01*
X218350D02*X216810Y112256D01*
X218350D02*Y110716D01*
Y114720D02*Y113180D01*
Y114720D02*X217965Y115105D01*
X217041D02*X217965D01*
X216656Y114720D02*X217041Y115105D01*
X216656Y114720D02*Y113565D01*
X215270D02*X218350D01*
X215270Y114720D02*Y113180D01*
Y114720D02*X215655Y115105D01*
X216271D01*
X216656Y114720D02*X216271Y115105D01*
X217195Y116029D02*X217965D01*
X217195D02*X216810Y116414D01*
Y117184D02*Y116414D01*
Y117184D02*X217195Y117569D01*
X217965D01*
X218350Y117184D02*X217965Y117569D01*
X218350Y117184D02*Y116414D01*
X217965Y116029D02*X218350Y116414D01*
X215270Y118878D02*X217965D01*
X218350Y119263D01*
X216425D02*Y118493D01*
X181300Y87520D02*Y86380D01*
Y87520D02*X180920Y87900D01*
X180540Y87520D02*X180920Y87900D01*
X180540Y87520D02*Y86380D01*
X180160Y86000D02*X180540Y86380D01*
X180160Y86000D02*X179780Y86380D01*
Y87520D02*Y86380D01*
Y87520D02*X180160Y87900D01*
X180920Y86000D02*X181300Y86380D01*
X178260Y89192D02*X180920D01*
X181300Y89572D01*
X179400D02*Y88812D01*
X181300Y91852D02*Y90712D01*
X180920Y90332D02*X181300Y90712D01*
X180160Y90332D02*X180920D01*
X180160D02*X179780Y90712D01*
Y91472D02*Y90712D01*
Y91472D02*X180160Y91852D01*
X180540D02*Y90332D01*
X180160Y91852D02*X180540D01*
X180160Y93144D02*X182440D01*
X179780Y92764D02*X180160Y93144D01*
X179780Y93524D01*
Y94284D02*Y93524D01*
Y94284D02*X180160Y94664D01*
X180920D01*
X181300Y94284D02*X180920Y94664D01*
X181300Y94284D02*Y93524D01*
X180920Y93144D02*X181300Y93524D01*
G54D115*X204900Y155550D02*X206900D01*
X205900D02*Y151550D01*
X208100Y155550D02*Y151550D01*
Y153050D02*X208600Y153550D01*
X209600D01*
X210100Y153050D01*
Y151550D01*
X211800D02*X213300D01*
X211300Y152050D02*X211800Y151550D01*
X211300Y153050D02*Y152050D01*
Y153050D02*X211800Y153550D01*
X212800D01*
X213300Y153050D01*
X211300Y152550D02*X213300D01*
Y153050D02*Y152550D01*
X215000Y153050D02*Y151550D01*
Y153050D02*X215500Y153550D01*
X216500D01*
X214500D02*X215000Y153050D01*
X218200D02*Y151550D01*
Y153050D02*X218700Y153550D01*
X219200D01*
X219700Y153050D01*
Y151550D01*
Y153050D02*X220200Y153550D01*
X220700D01*
X221200Y153050D01*
Y151550D01*
X217700Y153550D02*X218200Y153050D01*
G54D116*X222400Y154550D02*Y154450D01*
G54D115*Y153050D02*Y151550D01*
X223900D02*X225400D01*
X225900Y152050D01*
X225400Y152550D02*X225900Y152050D01*
X223900Y152550D02*X225400D01*
X223400Y153050D02*X223900Y152550D01*
X223400Y153050D02*X223900Y153550D01*
X225400D01*
X225900Y153050D01*
X223400Y152050D02*X223900Y151550D01*
X227600Y155550D02*Y152050D01*
X228100Y151550D01*
X227100Y154050D02*X228100D01*
X229100Y153050D02*Y152050D01*
Y153050D02*X229600Y153550D01*
X230600D01*
X231100Y153050D01*
Y152050D01*
X230600Y151550D02*X231100Y152050D01*
X229600Y151550D02*X230600D01*
X229100Y152050D02*X229600Y151550D01*
X232800Y153050D02*Y151550D01*
Y153050D02*X233300Y153550D01*
X234300D01*
X232300D02*X232800Y153050D01*
G54D114*X222280Y160966D02*X223780Y162841D01*
X222280Y160966D02*X224155D01*
X223780Y162841D02*Y159841D01*
X225055Y160216D02*X227305Y162466D01*
X228205Y159841D02*X229705D01*
X230080Y160216D01*
Y161116D02*Y160216D01*
X229705Y161491D02*X230080Y161116D01*
X228580Y161491D02*X229705D01*
X228580Y162841D02*Y159841D01*
X228205Y162841D02*X229705D01*
X230080Y162466D01*
Y161866D01*
X229705Y161491D02*X230080Y161866D01*
X230980Y162841D02*Y160216D01*
X231355Y159841D01*
X206516Y162852D02*X208016D01*
X206516D02*Y161352D01*
X206891Y161727D01*
X207641D01*
X208016Y161352D01*
Y160227D01*
X207641Y159852D02*X208016Y160227D01*
X206891Y159852D02*X207641D01*
X206516Y160227D02*X206891Y159852D01*
X208916Y160227D02*X211166Y162477D01*
X212066Y162852D02*Y161352D01*
X212441Y159852D01*
X213191Y161352D01*
X213941Y159852D01*
X214316Y161352D01*
Y162852D02*Y161352D01*
X215216Y159852D02*X216716D01*
X217091Y160227D01*
Y161127D02*Y160227D01*
X216716Y161502D02*X217091Y161127D01*
X215591Y161502D02*X216716D01*
X215591Y162852D02*Y159852D01*
X215216Y162852D02*X216716D01*
X217091Y162477D01*
Y161877D01*
X216716Y161502D02*X217091Y161877D01*
X217991Y162852D02*Y160227D01*
X218366Y159852D01*
G54D112*X182000Y157740D02*Y154700D01*
X183900Y157740D02*Y154700D01*
X182000Y156220D02*X183900D01*
X185192Y154700D02*X186332D01*
X184812Y155080D02*X185192Y154700D01*
X184812Y155840D02*Y155080D01*
Y155840D02*X185192Y156220D01*
X185952D01*
X186332Y155840D01*
X184812Y155460D02*X186332D01*
Y155840D02*Y155460D01*
X188384Y156220D02*X188764Y155840D01*
X187624Y156220D02*X188384D01*
X187244Y155840D02*X187624Y156220D01*
X187244Y155840D02*Y155080D01*
X187624Y154700D01*
X188764Y156220D02*Y155080D01*
X189144Y154700D01*
X187624D02*X188384D01*
X188764Y155080D01*
X190436Y157740D02*Y155080D01*
X190816Y154700D01*
X190056Y156600D02*X190816D01*
X191956Y154700D02*X193096D01*
X193476Y155080D01*
X193096Y155460D02*X193476Y155080D01*
X191956Y155460D02*X193096D01*
X191576Y155840D02*X191956Y155460D01*
X191576Y155840D02*X191956Y156220D01*
X193096D01*
X193476Y155840D01*
X191576Y155080D02*X191956Y154700D01*
G54D113*X194388Y156980D02*Y156904D01*
G54D112*Y155840D02*Y154700D01*
X195528Y155840D02*Y154700D01*
Y155840D02*X195908Y156220D01*
X196288D01*
X196668Y155840D01*
Y154700D01*
X195148Y156220D02*X195528Y155840D01*
X197580Y157740D02*Y154700D01*
Y155840D02*X198720Y154700D01*
X197580Y155840D02*X198340Y156600D01*
X178000Y153230D02*X179540D01*
X179925Y152845D01*
Y152075D01*
X179540Y151690D02*X179925Y152075D01*
X178385Y151690D02*X179540D01*
X178385Y153230D02*Y150150D01*
X179001Y151690D02*X179925Y150150D01*
X181234D02*X182389D01*
X180849Y150535D02*X181234Y150150D01*
X180849Y151305D02*Y150535D01*
Y151305D02*X181234Y151690D01*
X182004D01*
X182389Y151305D01*
X180849Y150920D02*X182389D01*
Y151305D02*Y150920D01*
X184853Y153230D02*Y150150D01*
X184468D02*X184853Y150535D01*
X183698Y150150D02*X184468D01*
X183313Y150535D02*X183698Y150150D01*
X183313Y151305D02*Y150535D01*
Y151305D02*X183698Y151690D01*
X184468D01*
X184853Y151305D01*
X185777Y151690D02*X187317D01*
X186547Y152460D02*Y150920D01*
G54D114*X178016Y162741D02*X178391Y163116D01*
X179141D01*
X179516Y162741D01*
X179141Y160116D02*X179516Y160491D01*
X178391Y160116D02*X179141D01*
X178016Y160491D02*X178391Y160116D01*
Y161766D02*X179141D01*
X179516Y162741D02*Y162141D01*
Y161391D02*Y160491D01*
Y161391D02*X179141Y161766D01*
X179516Y162141D02*X179141Y161766D01*
X180416Y160491D02*X182666Y162741D01*
X183566Y163116D02*Y161616D01*
X183941Y160116D01*
X184691Y161616D01*
X185441Y160116D01*
X185816Y161616D01*
Y163116D02*Y161616D01*
X186716Y162741D02*Y160491D01*
Y162741D02*X187091Y163116D01*
X187841D01*
X188216Y162741D01*
Y160491D01*
X187841Y160116D02*X188216Y160491D01*
X187091Y160116D02*X187841D01*
X186716Y160491D02*X187091Y160116D01*
G54D112*X191000Y150150D02*X192540D01*
X192925Y150535D01*
Y151459D02*Y150535D01*
X192540Y151844D02*X192925Y151459D01*
X191385Y151844D02*X192540D01*
X191385Y153230D02*Y150150D01*
X191000Y153230D02*X192540D01*
X192925Y152845D01*
Y152229D01*
X192540Y151844D02*X192925Y152229D01*
X193849Y153230D02*Y150535D01*
X194234Y150150D01*
X196159Y151690D02*X196544Y151305D01*
X195389Y151690D02*X196159D01*
X195004Y151305D02*X195389Y151690D01*
X195004Y151305D02*Y150535D01*
X195389Y150150D01*
X196544Y151690D02*Y150535D01*
X196929Y150150D01*
X195389D02*X196159D01*
X196544Y150535D01*
X198238Y151690D02*X199393D01*
X197853Y151305D02*X198238Y151690D01*
X197853Y151305D02*Y150535D01*
X198238Y150150D01*
X199393D01*
X200317Y153230D02*Y150150D01*
Y151305D02*X201472Y150150D01*
X200317Y151305D02*X201087Y152075D01*
X202396Y151690D02*X203936D01*
G54D115*X164000Y154000D02*X166000D01*
X166500Y153500D01*
Y152500D01*
X166000Y152000D02*X166500Y152500D01*
X164500Y152000D02*X166000D01*
X164500Y154000D02*Y150000D01*
X165300Y152000D02*X166500Y150000D01*
X168200D02*X169700D01*
X167700Y150500D02*X168200Y150000D01*
X167700Y151500D02*Y150500D01*
Y151500D02*X168200Y152000D01*
X169200D01*
X169700Y151500D01*
X167700Y151000D02*X169700D01*
Y151500D02*Y151000D01*
X172900Y154000D02*Y150000D01*
X172400D02*X172900Y150500D01*
X171400Y150000D02*X172400D01*
X170900Y150500D02*X171400Y150000D01*
X170900Y151500D02*Y150500D01*
Y151500D02*X171400Y152000D01*
X172400D01*
X172900Y151500D01*
X147500Y150000D02*X149500D01*
X150000Y150500D01*
Y151700D02*Y150500D01*
X149500Y152200D02*X150000Y151700D01*
X148000Y152200D02*X149500D01*
X148000Y154000D02*Y150000D01*
X147500Y154000D02*X149500D01*
X150000Y153500D01*
Y152700D01*
X149500Y152200D02*X150000Y152700D01*
X151200Y154000D02*Y150500D01*
X151700Y150000D01*
X154200Y152000D02*X154700Y151500D01*
X153200Y152000D02*X154200D01*
X152700Y151500D02*X153200Y152000D01*
X152700Y151500D02*Y150500D01*
X153200Y150000D01*
X154700Y152000D02*Y150500D01*
X155200Y150000D01*
X153200D02*X154200D01*
X154700Y150500D01*
X156900Y152000D02*X158400D01*
X156400Y151500D02*X156900Y152000D01*
X156400Y151500D02*Y150500D01*
X156900Y150000D01*
X158400D01*
X159600Y154000D02*Y150000D01*
Y151500D02*X161100Y150000D01*
X159600Y151500D02*X160600Y152500D01*
G54D114*X194798Y163183D02*X195173Y162808D01*
X194048Y163183D02*X194798D01*
X193673Y162808D02*X194048Y163183D01*
X193673Y162808D02*Y160558D01*
X194048Y160183D01*
X194798Y161833D02*X195173Y161458D01*
X193673Y161833D02*X194798D01*
X194048Y160183D02*X194798D01*
X195173Y160558D01*
Y161458D02*Y160558D01*
X196073D02*X198323Y162808D01*
X199223D02*Y160558D01*
Y162808D02*X199598Y163183D01*
X200348D01*
X200723Y162808D01*
Y160558D01*
X200348Y160183D02*X200723Y160558D01*
X199598Y160183D02*X200348D01*
X199223Y160558D02*X199598Y160183D01*
G54D115*X141000Y162500D02*X141500Y162000D01*
X139500Y162500D02*X141000D01*
X139000Y162000D02*X139500Y162500D01*
X139000Y162000D02*Y161000D01*
X139500Y160500D01*
X141000D01*
X141500Y160000D01*
Y159000D01*
X141000Y158500D02*X141500Y159000D01*
X139500Y158500D02*X141000D01*
X139000Y159000D02*X139500Y158500D01*
X143200Y162500D02*Y159000D01*
X143700Y158500D01*
X142700Y161000D02*X143700D01*
X145200Y158500D02*X146700D01*
X144700Y159000D02*X145200Y158500D01*
X144700Y160000D02*Y159000D01*
Y160000D02*X145200Y160500D01*
X146200D01*
X146700Y160000D01*
X144700Y159500D02*X146700D01*
Y160000D02*Y159500D01*
X148400Y160000D02*Y157000D01*
X147900Y160500D02*X148400Y160000D01*
X148900Y160500D01*
X149900D01*
X150400Y160000D01*
Y159000D01*
X149900Y158500D02*X150400Y159000D01*
X148900Y158500D02*X149900D01*
X148400Y159000D02*X148900Y158500D01*
X152100Y160000D02*Y157000D01*
X151600Y160500D02*X152100Y160000D01*
X152600Y160500D01*
X153600D01*
X154100Y160000D01*
Y159000D01*
X153600Y158500D02*X154100Y159000D01*
X152600Y158500D02*X153600D01*
X152100Y159000D02*X152600Y158500D01*
X155800D02*X157300D01*
X155300Y159000D02*X155800Y158500D01*
X155300Y160000D02*Y159000D01*
Y160000D02*X155800Y160500D01*
X156800D01*
X157300Y160000D01*
X155300Y159500D02*X157300D01*
Y160000D02*Y159500D01*
X159000Y160000D02*Y158500D01*
Y160000D02*X159500Y160500D01*
X160500D01*
X158500D02*X159000Y160000D01*
X132500Y154000D02*X133000Y153500D01*
X131000Y154000D02*X132500D01*
X130500Y153500D02*X131000Y154000D01*
X130500Y153500D02*Y150500D01*
X131000Y150000D01*
X132500D01*
X133000Y150500D01*
Y151500D02*Y150500D01*
X132500Y152000D02*X133000Y151500D01*
X131500Y152000D02*X132500D01*
X134700Y151500D02*Y150000D01*
Y151500D02*X135200Y152000D01*
X136200D01*
X134200D02*X134700Y151500D01*
X137900Y150000D02*X139400D01*
X137400Y150500D02*X137900Y150000D01*
X137400Y151500D02*Y150500D01*
Y151500D02*X137900Y152000D01*
X138900D01*
X139400Y151500D01*
X137400Y151000D02*X139400D01*
Y151500D02*Y151000D01*
X141100Y150000D02*X142600D01*
X140600Y150500D02*X141100Y150000D01*
X140600Y151500D02*Y150500D01*
Y151500D02*X141100Y152000D01*
X142100D01*
X142600Y151500D01*
X140600Y151000D02*X142600D01*
Y151500D02*Y151000D01*
X144300Y151500D02*Y150000D01*
Y151500D02*X144800Y152000D01*
X145300D01*
X145800Y151500D01*
Y150000D01*
X143800Y152000D02*X144300Y151500D01*
X166000Y179000D02*X166500Y178500D01*
X165000Y179000D02*X166000D01*
X164500Y178500D02*X165000Y179000D01*
X164500Y178500D02*Y177500D01*
X165000Y177000D01*
X166500Y179000D02*Y177500D01*
X167000Y177000D01*
X165000D02*X166000D01*
X166500Y177500D01*
X168200Y181000D02*Y177000D01*
Y181000D02*X169700Y179000D01*
X171200Y181000D01*
Y177000D01*
X149000Y180500D02*Y176500D01*
Y177000D02*X149500Y176500D01*
X150500D01*
X151000Y177000D01*
Y178000D02*Y177000D01*
X150500Y178500D02*X151000Y178000D01*
X149500Y178500D02*X150500D01*
X149000Y178000D02*X149500Y178500D01*
X152200Y180500D02*Y176500D01*
Y180500D02*X153700Y178500D01*
X155200Y180500D01*
Y176500D01*
X122500Y179000D02*X123000Y178500D01*
X121500Y179000D02*X122500D01*
X121000Y178500D02*X121500Y179000D01*
X121000Y178500D02*Y177500D01*
X121500Y177000D01*
X123000Y179000D02*Y177500D01*
X123500Y177000D01*
X121500D02*X122500D01*
X123000Y177500D01*
X125200Y181000D02*Y177000D01*
X124700Y181000D02*X126700D01*
X127200Y180500D01*
Y179500D01*
X126700Y179000D02*X127200Y179500D01*
X125200Y179000D02*X126700D01*
X137500Y180500D02*Y176500D01*
Y177000D02*X138000Y176500D01*
X139000D01*
X139500Y177000D01*
Y178000D02*Y177000D01*
X139000Y178500D02*X139500Y178000D01*
X138000Y178500D02*X139000D01*
X137500Y178000D02*X138000Y178500D01*
X141200Y180500D02*Y176500D01*
X140700Y180500D02*X142700D01*
X143200Y180000D01*
Y179000D01*
X142700Y178500D02*X143200Y179000D01*
X141200Y178500D02*X142700D01*
G54D114*X133016Y166741D02*X133391Y167116D01*
X134141D01*
X134516Y166741D01*
X134141Y164116D02*X134516Y164491D01*
X133391Y164116D02*X134141D01*
X133016Y164491D02*X133391Y164116D01*
Y165766D02*X134141D01*
X134516Y166741D02*Y166141D01*
Y165391D02*Y164491D01*
Y165391D02*X134141Y165766D01*
X134516Y166141D02*X134141Y165766D01*
X135416Y164491D02*X137666Y166741D01*
X138566Y167116D02*Y165616D01*
X138941Y164116D01*
X139691Y165616D01*
X140441Y164116D01*
X140816Y165616D01*
Y167116D02*Y165616D01*
X141716Y166741D02*Y164491D01*
Y166741D02*X142091Y167116D01*
X142841D01*
X143216Y166741D01*
Y164491D01*
X142841Y164116D02*X143216Y164491D01*
X142091Y164116D02*X142841D01*
X141716Y164491D02*X142091Y164116D01*
X133391Y168801D02*X134891Y171801D01*
X133016D02*X134891D01*
X135791Y169176D02*X138041Y171426D01*
X138941Y171801D02*Y170301D01*
X139316Y168801D01*
X140066Y170301D01*
X140816Y168801D01*
X141191Y170301D01*
Y171801D02*Y170301D01*
X142091Y168801D02*X143591D01*
X143966Y169176D01*
Y170076D02*Y169176D01*
X143591Y170451D02*X143966Y170076D01*
X142466Y170451D02*X143591D01*
X142466Y171801D02*Y168801D01*
X142091Y171801D02*X143591D01*
X143966Y171426D01*
Y170826D01*
X143591Y170451D02*X143966Y170826D01*
X145241Y169926D02*Y168801D01*
Y169926D02*X145616Y170301D01*
X146366D01*
X144866D02*X145241Y169926D01*
X152298Y166683D02*X152673Y166308D01*
X151548Y166683D02*X152298D01*
X151173Y166308D02*X151548Y166683D01*
X151173Y166308D02*Y164058D01*
X151548Y163683D01*
X152298Y165333D02*X152673Y164958D01*
X151173Y165333D02*X152298D01*
X151548Y163683D02*X152298D01*
X152673Y164058D01*
Y164958D02*Y164058D01*
X153573D02*X155823Y166308D01*
X156723D02*Y164058D01*
Y166308D02*X157098Y166683D01*
X157848D01*
X158223Y166308D01*
Y164058D01*
X157848Y163683D02*X158223Y164058D01*
X157098Y163683D02*X157848D01*
X156723Y164058D02*X157098Y163683D01*
X151173Y168294D02*X151548Y167919D01*
X151173Y168894D02*Y168294D01*
Y168894D02*X151698Y169419D01*
X152148D01*
X152673Y168894D01*
Y168294D01*
X152298Y167919D02*X152673Y168294D01*
X151548Y167919D02*X152298D01*
X151173Y169944D02*X151698Y169419D01*
X151173Y170544D02*Y169944D01*
Y170544D02*X151548Y170919D01*
X152298D01*
X152673Y170544D01*
Y169944D01*
X152148Y169419D02*X152673Y169944D01*
X153573Y168294D02*X155823Y170544D01*
X156723Y167919D02*X158223D01*
X158598Y168294D01*
Y169194D02*Y168294D01*
X158223Y169569D02*X158598Y169194D01*
X157098Y169569D02*X158223D01*
X157098Y170919D02*Y167919D01*
X156723Y170919D02*X158223D01*
X158598Y170544D01*
Y169944D01*
X158223Y169569D02*X158598Y169944D01*
X159873Y169044D02*Y167919D01*
Y169044D02*X160248Y169419D01*
X160998D01*
X159498D02*X159873Y169044D01*
X166016Y167352D02*X167516D01*
X166016D02*Y165852D01*
X166391Y166227D01*
X167141D01*
X167516Y165852D01*
Y164727D01*
X167141Y164352D02*X167516Y164727D01*
X166391Y164352D02*X167141D01*
X166016Y164727D02*X166391Y164352D01*
X168416Y164727D02*X170666Y166977D01*
X171566Y167352D02*Y165852D01*
X171941Y164352D01*
X172691Y165852D01*
X173441Y164352D01*
X173816Y165852D01*
Y167352D02*Y165852D01*
X174716Y164352D02*X176216D01*
X176591Y164727D01*
Y165627D02*Y164727D01*
X176216Y166002D02*X176591Y165627D01*
X175091Y166002D02*X176216D01*
X175091Y167352D02*Y164352D01*
X174716Y167352D02*X176216D01*
X176591Y166977D01*
Y166377D01*
X176216Y166002D02*X176591Y166377D01*
X177491Y167352D02*Y164727D01*
X177866Y164352D01*
X118280Y165466D02*X119780Y167341D01*
X118280Y165466D02*X120155D01*
X119780Y167341D02*Y164341D01*
X121055Y164716D02*X123305Y166966D01*
X124205Y164341D02*X125705D01*
X126080Y164716D01*
Y165616D02*Y164716D01*
X125705Y165991D02*X126080Y165616D01*
X124580Y165991D02*X125705D01*
X124580Y167341D02*Y164341D01*
X124205Y167341D02*X125705D01*
X126080Y166966D01*
Y166366D01*
X125705Y165991D02*X126080Y166366D01*
X126980Y167341D02*Y164716D01*
X127355Y164341D01*
G54D117*X47650Y168500D02*X51530D01*
X47650D02*Y166560D01*
G54D118*X50463Y165396D02*X50560D01*
G54D117*X47650D02*X49105D01*
X47650Y163941D02*X49105D01*
X49590Y163456D01*
Y162971D01*
X49105Y162486D01*
X47650D02*X49105D01*
X49590Y162001D01*
Y161516D01*
X49105Y161031D01*
X47650D02*X49105D01*
X49590Y164426D02*X49105Y163941D01*
G54D118*X50463Y159867D02*X50560D01*
G54D117*X47650D02*X49105D01*
X48135Y158412D02*X51530D01*
X48135D02*X47650Y157927D01*
X50075Y158897D02*Y157927D01*
G54D115*X117500Y150000D02*X119500D01*
X120000Y150500D01*
Y151700D02*Y150500D01*
X119500Y152200D02*X120000Y151700D01*
X118000Y152200D02*X119500D01*
X118000Y154000D02*Y150000D01*
X117500Y154000D02*X119500D01*
X120000Y153500D01*
Y152700D01*
X119500Y152200D02*X120000Y152700D01*
X121200Y154000D02*Y150500D01*
X121700Y150000D01*
X122700Y152000D02*Y150500D01*
X123200Y150000D01*
X124200D01*
X124700Y150500D01*
Y152000D02*Y150500D01*
X126400Y150000D02*X127900D01*
X125900Y150500D02*X126400Y150000D01*
X125900Y151500D02*Y150500D01*
Y151500D02*X126400Y152000D01*
X127400D01*
X127900Y151500D01*
X125900Y151000D02*X127900D01*
Y151500D02*Y151000D01*
G54D117*X82500Y155530D02*Y151650D01*
X84440D01*
G54D118*X85604Y154560D02*Y154463D01*
G54D117*Y153105D02*Y151650D01*
X87059Y153105D02*Y151650D01*
Y153105D02*X87544Y153590D01*
X88029D01*
X88514Y153105D01*
Y151650D01*
Y153105D02*X88999Y153590D01*
X89484D01*
X89969Y153105D01*
Y151650D01*
X86574Y153590D02*X87059Y153105D01*
G54D118*X91133Y154560D02*Y154463D01*
G54D117*Y153105D02*Y151650D01*
X92588Y155530D02*Y152135D01*
X93073Y151650D01*
X92103Y154075D02*X93073D01*
G54D112*X102500Y154730D02*Y151650D01*
Y154730D02*X104425Y151650D01*
Y154730D02*Y151650D01*
X105349Y152805D02*Y152035D01*
Y152805D02*X105734Y153190D01*
X106504D01*
X106889Y152805D01*
Y152035D01*
X106504Y151650D02*X106889Y152035D01*
X105734Y151650D02*X106504D01*
X105349Y152035D02*X105734Y151650D01*
X107813Y153190D02*X109353D01*
X107813Y151650D02*X109353Y153190D01*
X107813Y151650D02*X109353D01*
X110277Y153190D02*X111817D01*
X110277Y151650D02*X111817Y153190D01*
X110277Y151650D02*X111817D01*
X112741Y154730D02*Y152035D01*
X113126Y151650D01*
X114281D02*X115436D01*
X113896Y152035D02*X114281Y151650D01*
X113896Y152805D02*Y152035D01*
Y152805D02*X114281Y153190D01*
X115051D01*
X115436Y152805D01*
X113896Y152420D02*X115436D01*
Y152805D02*Y152420D01*
X47650Y146000D02*X50730D01*
X47650Y144075D01*
X50730D01*
X48035Y143151D02*X48805D01*
X49190Y142766D01*
Y141996D01*
X48805Y141611D01*
X48035D02*X48805D01*
X47650Y141996D02*X48035Y141611D01*
X47650Y142766D02*Y141996D01*
X48035Y143151D02*X47650Y142766D01*
X49190Y140687D02*Y139147D01*
X47650Y140687D02*X49190Y139147D01*
X47650Y140687D02*Y139147D01*
X49190Y138223D02*Y136683D01*
X47650Y138223D02*X49190Y136683D01*
X47650Y138223D02*Y136683D01*
X48035Y135759D02*X50730D01*
X48035D02*X47650Y135374D01*
Y134219D02*Y133064D01*
X48035Y134604D02*X47650Y134219D01*
X48035Y134604D02*X48805D01*
X49190Y134219D01*
Y133449D01*
X48805Y133064D01*
X48420Y134604D02*Y133064D01*
X48805D01*
G54D115*X40000Y155500D02*Y153500D01*
X36000Y154500D02*X40000D01*
X38000Y150800D02*X37500Y150300D01*
X38000Y151800D02*Y150800D01*
X37500Y152300D02*X38000Y151800D01*
X36500Y152300D02*X37500D01*
X36500D02*X36000Y151800D01*
X36500Y150300D02*X38000D01*
X36500D02*X36000Y149800D01*
Y151800D02*Y150800D01*
X36500Y150300D01*
X38000Y148600D02*Y146600D01*
X36000Y148600D02*X38000Y146600D01*
X36000Y148600D02*Y146600D01*
X40000Y143900D02*X39500Y143400D01*
X40000Y144900D02*Y143900D01*
X39500Y145400D02*X40000Y144900D01*
X36500Y145400D02*X39500D01*
X36500D02*X36000Y144900D01*
X38200Y143900D02*X37700Y143400D01*
X38200Y145400D02*Y143900D01*
X36000Y144900D02*Y143900D01*
X36500Y143400D01*
X37700D01*
X97500Y126000D02*Y122000D01*
Y126000D02*X99000Y124000D01*
X100500Y126000D01*
Y122000D01*
G54D116*X101700Y125000D02*Y124900D01*
G54D115*Y123500D02*Y122000D01*
X103200Y123500D02*Y122000D01*
Y123500D02*X103700Y124000D01*
X104200D01*
X104700Y123500D01*
Y122000D01*
X102700Y124000D02*X103200Y123500D01*
G54D116*X105900Y125000D02*Y124900D01*
G54D115*Y123500D02*Y122000D01*
G54D119*X80500Y45960D02*Y43800D01*
X81580D01*
G54D120*X82228Y45420D02*Y45366D01*
G54D119*Y44610D02*Y43800D01*
X83038Y44610D02*Y43800D01*
Y44610D02*X83308Y44880D01*
X83578D01*
X83848Y44610D01*
Y43800D01*
Y44610D02*X84118Y44880D01*
X84388D01*
X84658Y44610D01*
Y43800D01*
X82768Y44880D02*X83038Y44610D01*
G54D120*X85306Y45420D02*Y45366D01*
G54D119*Y44610D02*Y43800D01*
X86116Y45960D02*Y44070D01*
X86386Y43800D01*
X85846Y45150D02*X86386D01*
X93000Y45960D02*Y43800D01*
Y45960D02*X94350Y43800D01*
Y45960D02*Y43800D01*
X94998Y44610D02*Y44070D01*
Y44610D02*X95268Y44880D01*
X95808D01*
X96078Y44610D01*
Y44070D01*
X95808Y43800D02*X96078Y44070D01*
X95268Y43800D02*X95808D01*
X94998Y44070D02*X95268Y43800D01*
X96726Y44880D02*X97806D01*
X96726Y43800D02*X97806Y44880D01*
X96726Y43800D02*X97806D01*
X98454Y44880D02*X99534D01*
X98454Y43800D02*X99534Y44880D01*
X98454Y43800D02*X99534D01*
X100182Y45960D02*Y44070D01*
X100452Y43800D01*
X101262D02*X102072D01*
X100992Y44070D02*X101262Y43800D01*
X100992Y44610D02*Y44070D01*
Y44610D02*X101262Y44880D01*
X101802D01*
X102072Y44610D01*
X100992Y44340D02*X102072D01*
Y44610D02*Y44340D01*
G54D121*X84000Y42970D02*X85060D01*
X84530D02*Y40850D01*
X86491Y41910D02*X86756Y41645D01*
X85961Y41910D02*X86491D01*
X85696Y41645D02*X85961Y41910D01*
X85696Y41645D02*Y41115D01*
X85961Y40850D01*
X86756Y41910D02*Y41115D01*
X87021Y40850D01*
X85961D02*X86491D01*
X86756Y41115D01*
X87657Y41910D02*X88717D01*
X87657Y40850D02*X88717Y41910D01*
X87657Y40850D02*X88717D01*
X90148Y42970D02*X90413Y42705D01*
X89618Y42970D02*X90148D01*
X89353Y42705D02*X89618Y42970D01*
X89353Y42705D02*Y41115D01*
X89618Y40850D01*
X90148Y42016D02*X90413Y41751D01*
X89353Y42016D02*X90148D01*
X89618Y40850D02*X90148D01*
X90413Y41115D01*
Y41751D02*Y41115D01*
X92003Y42705D02*Y41115D01*
Y42705D02*X92268Y42970D01*
X92798D01*
X93063Y42705D01*
Y41115D01*
X92798Y40850D02*X93063Y41115D01*
X92268Y40850D02*X92798D01*
X92003Y41115D02*X92268Y40850D01*
X93964Y41645D02*Y40850D01*
Y41645D02*X94229Y41910D01*
X94494D01*
X94759Y41645D01*
Y40850D01*
X93699Y41910D02*X93964Y41645D01*
X95395Y42970D02*Y41115D01*
X95660Y40850D01*
X96190Y41910D02*Y41115D01*
X96455Y40850D01*
X97250Y41910D02*Y40320D01*
X96985Y40055D02*X97250Y40320D01*
X96455Y40055D02*X96985D01*
X96190Y40320D02*X96455Y40055D01*
Y40850D02*X96985D01*
X97250Y41115D01*
X115500Y43470D02*Y41350D01*
Y43470D02*X116295Y42410D01*
X117090Y43470D01*
Y41350D01*
G54D122*X117726Y42940D02*Y42887D01*
G54D121*Y42145D02*Y41350D01*
X118521Y42145D02*Y41350D01*
Y42145D02*X118786Y42410D01*
X119051D01*
X119316Y42145D01*
Y41350D01*
X118256Y42410D02*X118521Y42145D01*
G54D122*X119952Y42940D02*Y42887D01*
G54D121*Y42145D02*Y41350D01*
X121436Y43205D02*Y41615D01*
Y43205D02*X121701Y43470D01*
X122231D01*
X122496Y43205D01*
Y41615D01*
X122231Y41350D02*X122496Y41615D01*
X121701Y41350D02*X122231D01*
X121436Y41615D02*X121701Y41350D01*
X123397Y42145D02*Y41350D01*
Y42145D02*X123662Y42410D01*
X123927D01*
X124192Y42145D01*
Y41350D01*
X123132Y42410D02*X123397Y42145D01*
X124828Y43470D02*Y41615D01*
X125093Y41350D01*
X125623Y42410D02*Y41615D01*
X125888Y41350D01*
X126683Y42410D02*Y40820D01*
X126418Y40555D02*X126683Y40820D01*
X125888Y40555D02*X126418D01*
X125623Y40820D02*X125888Y40555D01*
Y41350D02*X126418D01*
X126683Y41615D01*
G54D119*X125500Y45960D02*Y43800D01*
X126580D01*
G54D120*X127228Y45420D02*Y45366D01*
G54D119*Y44610D02*Y43800D01*
X128038Y44610D02*Y43800D01*
Y44610D02*X128308Y44880D01*
X128578D01*
X128848Y44610D01*
Y43800D01*
Y44610D02*X129118Y44880D01*
X129388D01*
X129658Y44610D01*
Y43800D01*
X127768Y44880D02*X128038Y44610D01*
G54D120*X130306Y45420D02*Y45366D01*
G54D119*Y44610D02*Y43800D01*
X131116Y45960D02*Y44070D01*
X131386Y43800D01*
X130846Y45150D02*X131386D01*
X109000Y45960D02*Y43800D01*
Y45960D02*X110350Y43800D01*
Y45960D02*Y43800D01*
X110998Y44610D02*Y44070D01*
Y44610D02*X111268Y44880D01*
X111808D01*
X112078Y44610D01*
Y44070D01*
X111808Y43800D02*X112078Y44070D01*
X111268Y43800D02*X111808D01*
X110998Y44070D02*X111268Y43800D01*
X112726Y44880D02*X113806D01*
X112726Y43800D02*X113806Y44880D01*
X112726Y43800D02*X113806D01*
X114454Y44880D02*X115534D01*
X114454Y43800D02*X115534Y44880D01*
X114454Y43800D02*X115534D01*
X116182Y45960D02*Y44070D01*
X116452Y43800D01*
X117262D02*X118072D01*
X116992Y44070D02*X117262Y43800D01*
X116992Y44610D02*Y44070D01*
Y44610D02*X117262Y44880D01*
X117802D01*
X118072Y44610D01*
X116992Y44340D02*X118072D01*
Y44610D02*Y44340D01*
G54D115*X117500Y128000D02*Y126000D01*
X118000Y124000D01*
X119000Y126000D01*
X120000Y124000D01*
X120500Y126000D01*
Y128000D02*Y126000D01*
X121700Y128000D02*Y124000D01*
Y125500D02*X122200Y126000D01*
X123200D01*
X123700Y125500D01*
Y124000D01*
G54D116*X124900Y127000D02*Y126900D01*
G54D115*Y125500D02*Y124000D01*
X126400Y128000D02*Y124500D01*
X126900Y124000D01*
X125900Y126500D02*X126900D01*
X128400Y124000D02*X129900D01*
X127900Y124500D02*X128400Y124000D01*
X127900Y125500D02*Y124500D01*
Y125500D02*X128400Y126000D01*
X129400D01*
X129900Y125500D01*
X127900Y125000D02*X129900D01*
Y125500D02*Y125000D01*
G54D112*X129770Y87000D02*X132850D01*
X129770D02*X131310Y88155D01*
X129770Y89310D01*
X132850D01*
G54D113*X130540Y90234D02*X130617D01*
G54D112*X131695D02*X132850D01*
X131695Y91389D02*X132850D01*
X131695D02*X131310Y91774D01*
Y92159D02*Y91774D01*
Y92159D02*X131695Y92544D01*
X132850D01*
X131310Y91004D02*X131695Y91389D01*
G54D113*X130540Y93468D02*X130617D01*
G54D112*X131695D02*X132850D01*
Y95778D02*Y94238D01*
X129770Y98242D02*Y96702D01*
Y97472D02*X132850D01*
X131310Y100321D02*X131695Y100706D01*
X131310Y100321D02*Y99551D01*
X131695Y99166D02*X131310Y99551D01*
X131695Y99166D02*X132465D01*
X132850Y99551D01*
X131310Y100706D02*X132465D01*
X132850Y101091D01*
Y100321D02*Y99551D01*
Y100321D02*X132465Y100706D01*
X131310Y103555D02*Y102015D01*
X132850D02*X131310Y103555D01*
X132850D02*Y102015D01*
X129770Y105634D02*X130155Y106019D01*
X129770Y105634D02*Y104864D01*
X130155Y104479D02*X129770Y104864D01*
X130155Y104479D02*X132465D01*
X132850Y104864D01*
X131156Y105634D02*X131541Y106019D01*
X131156Y105634D02*Y104479D01*
X132850Y105634D02*Y104864D01*
Y105634D02*X132465Y106019D01*
X131541D02*X132465D01*
G54D115*X141000Y311000D02*X141500Y310500D01*
X141000Y314000D02*X141500Y314500D01*
X141000Y314000D02*Y311000D01*
X142700Y312500D02*Y311000D01*
X143200Y310500D01*
X144200D01*
X144700Y311000D01*
Y312500D02*Y311000D01*
X146400Y312000D02*Y310500D01*
Y312000D02*X146900Y312500D01*
X147400D01*
X147900Y312000D01*
Y310500D01*
X145900Y312500D02*X146400Y312000D01*
X149100Y312500D02*Y311000D01*
X149600Y310500D01*
X150600D01*
X151100Y311000D01*
Y312500D02*Y311000D01*
X152800Y310500D02*X154300D01*
X154800Y311000D01*
X154300Y311500D02*X154800Y311000D01*
X152800Y311500D02*X154300D01*
X152300Y312000D02*X152800Y311500D01*
X152300Y312000D02*X152800Y312500D01*
X154300D01*
X154800Y312000D01*
X152300Y311000D02*X152800Y310500D01*
X156000Y312500D02*Y311000D01*
X156500Y310500D01*
X157500D01*
X158000Y311000D01*
Y312500D02*Y311000D01*
X160700Y312500D02*X161200Y312000D01*
X159700Y312500D02*X160700D01*
X159200Y312000D02*X159700Y312500D01*
X159200Y312000D02*Y311000D01*
X159700Y310500D01*
X161200Y312500D02*Y311000D01*
X161700Y310500D01*
X159700D02*X160700D01*
X161200Y311000D01*
X162900Y314500D02*Y311000D01*
X163400Y310500D01*
X164400Y314500D02*X164900Y314000D01*
Y311000D01*
X164400Y310500D02*X164900Y311000D01*
G54D112*X138000Y328230D02*Y325150D01*
Y328230D02*X139540D01*
X138000Y326844D02*X139155D01*
X141619Y326690D02*X142004Y326305D01*
X140849Y326690D02*X141619D01*
X140464Y326305D02*X140849Y326690D01*
X140464Y326305D02*Y325535D01*
X140849Y325150D01*
X142004Y326690D02*Y325535D01*
X142389Y325150D01*
X140849D02*X141619D01*
X142004Y325535D01*
X143698Y326305D02*Y325150D01*
Y326305D02*X144083Y326690D01*
X144853D01*
X143313D02*X143698Y326305D01*
X147548Y325150D02*X148703D01*
X149088Y325535D01*
X148703Y325920D02*X149088Y325535D01*
X147548Y325920D02*X148703D01*
X147163Y326305D02*X147548Y325920D01*
X147163Y326305D02*X147548Y326690D01*
X148703D01*
X149088Y326305D01*
X147163Y325535D02*X147548Y325150D01*
G54D113*X150012Y327460D02*Y327383D01*
G54D112*Y326305D02*Y325150D01*
X152322Y328230D02*Y325150D01*
X151937D02*X152322Y325535D01*
X151167Y325150D02*X151937D01*
X150782Y325535D02*X151167Y325150D01*
X150782Y326305D02*Y325535D01*
Y326305D02*X151167Y326690D01*
X151937D01*
X152322Y326305D01*
X153631Y325150D02*X154786D01*
X153246Y325535D02*X153631Y325150D01*
X153246Y326305D02*Y325535D01*
Y326305D02*X153631Y326690D01*
X154401D01*
X154786Y326305D01*
X153246Y325920D02*X154786D01*
Y326305D02*Y325920D01*
X157481Y326305D02*Y323995D01*
X157096Y326690D02*X157481Y326305D01*
X157866Y326690D01*
X158636D01*
X159021Y326305D01*
Y325535D01*
X158636Y325150D02*X159021Y325535D01*
X157866Y325150D02*X158636D01*
X157481Y325535D02*X157866Y325150D01*
G54D113*X159945Y327460D02*Y327383D01*
G54D112*Y326305D02*Y325150D01*
X161100Y326305D02*Y325150D01*
Y326305D02*X161485Y326690D01*
X161870D01*
X162255Y326305D01*
Y325150D01*
X160715Y326690D02*X161100Y326305D01*
X163179Y327614D02*X163795Y328230D01*
Y325150D01*
X163179D02*X164334D01*
X167029D02*X168184D01*
X168569Y325535D01*
X168184Y325920D02*X168569Y325535D01*
X167029Y325920D02*X168184D01*
X166644Y326305D02*X167029Y325920D01*
X166644Y326305D02*X167029Y326690D01*
X168184D01*
X168569Y326305D01*
X166644Y325535D02*X167029Y325150D01*
G54D113*X169493Y327460D02*Y327383D01*
G54D112*Y326305D02*Y325150D01*
X171803Y328230D02*Y325150D01*
X171418D02*X171803Y325535D01*
X170648Y325150D02*X171418D01*
X170263Y325535D02*X170648Y325150D01*
X170263Y326305D02*Y325535D01*
Y326305D02*X170648Y326690D01*
X171418D01*
X171803Y326305D01*
X173112Y325150D02*X174267D01*
X172727Y325535D02*X173112Y325150D01*
X172727Y326305D02*Y325535D01*
Y326305D02*X173112Y326690D01*
X173882D01*
X174267Y326305D01*
X172727Y325920D02*X174267D01*
Y326305D02*Y325920D01*
X137885Y321805D02*Y319495D01*
X137500Y322190D02*X137885Y321805D01*
X138270Y322190D01*
X139040D01*
X139425Y321805D01*
Y321035D01*
X139040Y320650D02*X139425Y321035D01*
X138270Y320650D02*X139040D01*
X137885Y321035D02*X138270Y320650D01*
G54D113*X140349Y322960D02*Y322883D01*
G54D112*Y321805D02*Y320650D01*
X141504Y321805D02*Y320650D01*
Y321805D02*X141889Y322190D01*
X142274D01*
X142659Y321805D01*
Y320650D01*
X141119Y322190D02*X141504Y321805D01*
X143968Y320650D02*X145123D01*
X145508Y321035D01*
X145123Y321420D02*X145508Y321035D01*
X143968Y321420D02*X145123D01*
X143583Y321805D02*X143968Y321420D01*
X143583Y321805D02*X143968Y322190D01*
X145123D01*
X145508Y321805D01*
X143583Y321035D02*X143968Y320650D01*
X147818Y323730D02*Y321035D01*
X148203Y320650D01*
X148973Y321805D02*Y321035D01*
Y321805D02*X149358Y322190D01*
X150128D01*
X150513Y321805D01*
Y321035D01*
X150128Y320650D02*X150513Y321035D01*
X149358Y320650D02*X150128D01*
X148973Y321035D02*X149358Y320650D01*
X151822Y321805D02*Y320650D01*
Y321805D02*X152207Y322190D01*
X152592D01*
X152977Y321805D01*
Y320650D01*
X151437Y322190D02*X151822Y321805D01*
X155056Y322190D02*X155441Y321805D01*
X154286Y322190D02*X155056D01*
X153901Y321805D02*X154286Y322190D01*
X153901Y321805D02*Y321035D01*
X154286Y320650D01*
X155056D01*
X155441Y321035D01*
X153901Y319880D02*X154286Y319495D01*
X155056D01*
X155441Y319880D01*
Y322190D02*Y319880D01*
X156750Y320650D02*X157905D01*
X156365Y321035D02*X156750Y320650D01*
X156365Y321805D02*Y321035D01*
Y321805D02*X156750Y322190D01*
X157520D01*
X157905Y321805D01*
X156365Y321420D02*X157905D01*
Y321805D02*Y321420D01*
X159214Y321805D02*Y320650D01*
Y321805D02*X159599Y322190D01*
X160369D01*
X158829D02*X159214Y321805D01*
X161293Y320650D02*X161678D01*
X141880Y334740D02*Y332080D01*
X142260Y331700D01*
X141500Y333600D02*X142260D01*
X143020Y332840D02*Y332080D01*
Y332840D02*X143400Y333220D01*
X144160D01*
X144540Y332840D01*
Y332080D01*
X144160Y331700D02*X144540Y332080D01*
X143400Y331700D02*X144160D01*
X143020Y332080D02*X143400Y331700D01*
X145832Y332840D02*Y330560D01*
X145452Y333220D02*X145832Y332840D01*
X146212Y333220D01*
X146972D01*
X147352Y332840D01*
Y332080D01*
X146972Y331700D02*X147352Y332080D01*
X146212Y331700D02*X146972D01*
X145832Y332080D02*X146212Y331700D01*
X149632Y332080D02*X150012Y331700D01*
X149632Y334360D02*X150012Y334740D01*
X149632Y334360D02*Y332080D01*
X151304Y334740D02*Y332080D01*
X151684Y331700D01*
X150924Y333600D02*X151684D01*
X152444Y334740D02*Y331700D01*
Y332840D02*X152824Y333220D01*
X153584D01*
X153964Y332840D01*
Y331700D01*
G54D113*X154876Y333980D02*Y333904D01*
G54D112*Y332840D02*Y331700D01*
X156016D02*X157156D01*
X157536Y332080D01*
X157156Y332460D02*X157536Y332080D01*
X156016Y332460D02*X157156D01*
X155636Y332840D02*X156016Y332460D01*
X155636Y332840D02*X156016Y333220D01*
X157156D01*
X157536Y332840D01*
X155636Y332080D02*X156016Y331700D01*
X160196D02*X161336D01*
X161716Y332080D01*
X161336Y332460D02*X161716Y332080D01*
X160196Y332460D02*X161336D01*
X159816Y332840D02*X160196Y332460D01*
X159816Y332840D02*X160196Y333220D01*
X161336D01*
X161716Y332840D01*
X159816Y332080D02*X160196Y331700D01*
G54D113*X162628Y333980D02*Y333904D01*
G54D112*Y332840D02*Y331700D01*
X164908Y334740D02*Y331700D01*
X164528D02*X164908Y332080D01*
X163768Y331700D02*X164528D01*
X163388Y332080D02*X163768Y331700D01*
X163388Y332840D02*Y332080D01*
Y332840D02*X163768Y333220D01*
X164528D01*
X164908Y332840D01*
X166200Y331700D02*X167340D01*
X165820Y332080D02*X166200Y331700D01*
X165820Y332840D02*Y332080D01*
Y332840D02*X166200Y333220D01*
X166960D01*
X167340Y332840D01*
X165820Y332460D02*X167340D01*
Y332840D02*Y332460D01*
X168252Y334740D02*X168632Y334360D01*
Y332080D01*
X168252Y331700D02*X168632Y332080D01*
X170912Y331700D02*X171292D01*
X137880Y340740D02*Y337700D01*
X137500Y340740D02*X139020D01*
X139400Y340360D01*
Y339600D01*
X139020Y339220D02*X139400Y339600D01*
X137880Y339220D02*X139020D01*
G54D113*X140312Y339980D02*Y339904D01*
G54D112*Y338840D02*Y337700D01*
X141452Y338840D02*Y337700D01*
Y338840D02*X141832Y339220D01*
X142212D01*
X142592Y338840D01*
Y337700D01*
X141072Y339220D02*X141452Y338840D01*
X143884Y337700D02*X145024D01*
X145404Y338080D01*
X145024Y338460D02*X145404Y338080D01*
X143884Y338460D02*X145024D01*
X143504Y338840D02*X143884Y338460D01*
X143504Y338840D02*X143884Y339220D01*
X145024D01*
X145404Y338840D01*
X143504Y338080D02*X143884Y337700D01*
X148064D02*X149204D01*
X147684Y338080D02*X148064Y337700D01*
X147684Y338840D02*Y338080D01*
Y338840D02*X148064Y339220D01*
X148824D01*
X149204Y338840D01*
X147684Y338460D02*X149204D01*
Y338840D02*Y338460D01*
X150496Y338840D02*Y337700D01*
Y338840D02*X150876Y339220D01*
X151256D01*
X151636Y338840D01*
Y337700D01*
Y338840D02*X152016Y339220D01*
X152396D01*
X152776Y338840D01*
Y337700D01*
X150116Y339220D02*X150496Y338840D01*
X154068Y337700D02*X155208D01*
X153688Y338080D02*X154068Y337700D01*
X153688Y338840D02*Y338080D01*
Y338840D02*X154068Y339220D01*
X154828D01*
X155208Y338840D01*
X153688Y338460D02*X155208D01*
Y338840D02*Y338460D01*
X156500Y338840D02*Y337700D01*
Y338840D02*X156880Y339220D01*
X157640D01*
X156120D02*X156500Y338840D01*
X159692Y339220D02*X160072Y338840D01*
X158932Y339220D02*X159692D01*
X158552Y338840D02*X158932Y339220D01*
X158552Y338840D02*Y338080D01*
X158932Y337700D01*
X159692D01*
X160072Y338080D01*
X158552Y336940D02*X158932Y336560D01*
X159692D01*
X160072Y336940D01*
Y339220D02*Y336940D01*
X161364Y337700D02*X162504D01*
X160984Y338080D02*X161364Y337700D01*
X160984Y338840D02*Y338080D01*
Y338840D02*X161364Y339220D01*
X162124D01*
X162504Y338840D01*
X160984Y338460D02*X162504D01*
Y338840D02*Y338460D01*
X165164Y340360D02*Y337700D01*
Y340360D02*X165544Y340740D01*
X165924D01*
X164784Y339220D02*X165544D01*
X167064Y338840D02*Y337700D01*
Y338840D02*X167444Y339220D01*
X168204D01*
X166684D02*X167064Y338840D01*
X169116D02*Y338080D01*
Y338840D02*X169496Y339220D01*
X170256D01*
X170636Y338840D01*
Y338080D01*
X170256Y337700D02*X170636Y338080D01*
X169496Y337700D02*X170256D01*
X169116Y338080D02*X169496Y337700D01*
X171928Y338840D02*Y337700D01*
Y338840D02*X172308Y339220D01*
X172688D01*
X173068Y338840D01*
Y337700D01*
Y338840D02*X173448Y339220D01*
X173828D01*
X174208Y338840D01*
Y337700D01*
X171548Y339220D02*X171928Y338840D01*
G54D123*X136495Y305510D02*Y301550D01*
X136000Y305510D02*X137980D01*
X138475Y305015D01*
Y304025D01*
X137980Y303530D02*X138475Y304025D01*
X136495Y303530D02*X137980D01*
X139663Y303035D02*Y302045D01*
Y303035D02*X140158Y303530D01*
X141148D01*
X141643Y303035D01*
Y302045D01*
X141148Y301550D02*X141643Y302045D01*
X140158Y301550D02*X141148D01*
X139663Y302045D02*X140158Y301550D01*
X142831Y305510D02*Y302045D01*
X143326Y301550D01*
X145801Y303530D02*X146296Y303035D01*
X144811Y303530D02*X145801D01*
X144316Y303035D02*X144811Y303530D01*
X144316Y303035D02*Y302045D01*
X144811Y301550D01*
X146296Y303530D02*Y302045D01*
X146791Y301550D01*
X144811D02*X145801D01*
X146296Y302045D01*
X148474Y303035D02*Y301550D01*
Y303035D02*X148969Y303530D01*
X149959D01*
X147979D02*X148474Y303035D01*
G54D124*X151147Y304520D02*Y304421D01*
G54D123*Y303035D02*Y301550D01*
X152632Y305510D02*Y302045D01*
X153127Y301550D01*
X152137Y304025D02*X153127D01*
X154117Y303530D02*Y302045D01*
X154612Y301550D01*
X156097Y303530D02*Y300560D01*
X155602Y300065D02*X156097Y300560D01*
X154612Y300065D02*X155602D01*
X154117Y300560D02*X154612Y300065D01*
Y301550D02*X155602D01*
X156097Y302045D01*
X159562Y303035D02*Y301550D01*
Y303035D02*X160057Y303530D01*
X160552D01*
X161047Y303035D01*
Y301550D01*
Y303035D02*X161542Y303530D01*
X162037D01*
X162532Y303035D01*
Y301550D01*
X159067Y303530D02*X159562Y303035D01*
X165205Y303530D02*X165700Y303035D01*
X164215Y303530D02*X165205D01*
X163720Y303035D02*X164215Y303530D01*
X163720Y303035D02*Y302045D01*
X164215Y301550D01*
X165700Y303530D02*Y302045D01*
X166195Y301550D01*
X164215D02*X165205D01*
X165700Y302045D01*
X167878Y303035D02*Y301550D01*
Y303035D02*X168373Y303530D01*
X169363D01*
X167383D02*X167878Y303035D01*
X170551Y305510D02*Y301550D01*
Y303035D02*X172036Y301550D01*
X170551Y303035D02*X171541Y304025D01*
X173719Y301550D02*X175204D01*
X173224Y302045D02*X173719Y301550D01*
X173224Y303035D02*Y302045D01*
Y303035D02*X173719Y303530D01*
X174709D01*
X175204Y303035D01*
X173224Y302540D02*X175204D01*
Y303035D02*Y302540D01*
X176887Y303035D02*Y301550D01*
Y303035D02*X177382Y303530D01*
X178372D01*
X176392D02*X176887Y303035D01*
G54D115*X137000Y297500D02*Y294500D01*
X136500Y298000D02*X137000Y297500D01*
X137500Y298000D01*
X138500D01*
X139000Y297500D01*
Y296500D01*
X138500Y296000D02*X139000Y296500D01*
X137500Y296000D02*X138500D01*
X137000Y296500D02*X137500Y296000D01*
G54D116*X140200Y299000D02*Y298900D01*
G54D115*Y297500D02*Y296000D01*
X141700Y297500D02*Y296000D01*
Y297500D02*X142200Y298000D01*
X142700D01*
X143200Y297500D01*
Y296000D01*
X141200Y298000D02*X141700Y297500D01*
X146200Y299500D02*X146700Y300000D01*
X148200D01*
X148700Y299500D01*
Y298500D01*
X146200Y296000D02*X148700Y298500D01*
X146200Y296000D02*X148700D01*
X152200D02*X153700D01*
X154200Y296500D01*
X153700Y297000D02*X154200Y296500D01*
X152200Y297000D02*X153700D01*
X151700Y297500D02*X152200Y297000D01*
X151700Y297500D02*X152200Y298000D01*
X153700D01*
X154200Y297500D01*
X151700Y296500D02*X152200Y296000D01*
G54D116*X155400Y299000D02*Y298900D01*
G54D115*Y297500D02*Y296000D01*
X158400Y300000D02*Y296000D01*
X157900D02*X158400Y296500D01*
X156900Y296000D02*X157900D01*
X156400Y296500D02*X156900Y296000D01*
X156400Y297500D02*Y296500D01*
Y297500D02*X156900Y298000D01*
X157900D01*
X158400Y297500D01*
X160100Y296000D02*X161600D01*
X159600Y296500D02*X160100Y296000D01*
X159600Y297500D02*Y296500D01*
Y297500D02*X160100Y298000D01*
X161100D01*
X161600Y297500D01*
X159600Y297000D02*X161600D01*
Y297500D02*Y297000D01*
X162800Y296000D02*X163300D01*
G54D112*X201270Y329000D02*X204350D01*
Y330540D02*Y329000D01*
Y333004D02*Y331849D01*
X203965Y331464D02*X204350Y331849D01*
X203195Y331464D02*X203965D01*
X203195D02*X202810Y331849D01*
Y332619D02*Y331849D01*
Y332619D02*X203195Y333004D01*
X203580D02*Y331464D01*
X203195Y333004D02*X203580D01*
X202810Y335083D02*X203195Y335468D01*
X202810Y335083D02*Y334313D01*
X203195Y333928D02*X202810Y334313D01*
X203195Y333928D02*X203965D01*
X204350Y334313D01*
Y335083D02*Y334313D01*
Y335083D02*X203965Y335468D01*
X205120Y333928D02*X205505Y334313D01*
Y335083D02*Y334313D01*
Y335083D02*X205120Y335468D01*
X202810D02*X205120D01*
X202810Y337547D02*X203195Y337932D01*
X202810Y337547D02*Y336777D01*
X203195Y336392D02*X202810Y336777D01*
X203195Y336392D02*X203965D01*
X204350Y336777D01*
X202810Y337932D02*X203965D01*
X204350Y338317D01*
Y337547D02*Y336777D01*
Y337547D02*X203965Y337932D01*
X202810Y340781D02*Y339626D01*
X203195Y339241D02*X202810Y339626D01*
X203195Y339241D02*X203965D01*
X204350Y339626D01*
Y340781D02*Y339626D01*
X202810Y341705D02*X203965D01*
X204350Y342090D01*
X202810Y343245D02*X205120D01*
X205505Y342860D02*X205120Y343245D01*
X205505Y342860D02*Y342090D01*
X205120Y341705D02*X205505Y342090D01*
X204350Y342860D02*Y342090D01*
Y342860D02*X203965Y343245D01*
X202810Y345709D02*Y344169D01*
X201270Y346633D02*X204350D01*
Y348173D02*Y346633D01*
X202810Y349097D02*X203965D01*
X204350Y349482D01*
Y350252D02*Y349482D01*
Y350252D02*X203965Y350637D01*
X202810D02*X203965D01*
X201270Y351561D02*X203965D01*
X204350Y351946D01*
X202810Y354256D02*Y352716D01*
X204350D02*X202810Y354256D01*
X204350D02*Y352716D01*
Y356720D02*Y355180D01*
Y356720D02*X203965Y357105D01*
X203041D02*X203965D01*
X202656Y356720D02*X203041Y357105D01*
X202656Y356720D02*Y355565D01*
X201270D02*X204350D01*
X201270Y356720D02*Y355180D01*
Y356720D02*X201655Y357105D01*
X202271D01*
X202656Y356720D02*X202271Y357105D01*
X203195Y358029D02*X203965D01*
X203195D02*X202810Y358414D01*
Y359184D02*Y358414D01*
Y359184D02*X203195Y359569D01*
X203965D01*
X204350Y359184D02*X203965Y359569D01*
X204350Y359184D02*Y358414D01*
X203965Y358029D02*X204350Y358414D01*
X201270Y360878D02*X203965D01*
X204350Y361263D01*
X202425D02*Y360493D01*
X181270Y341500D02*X184350D01*
X181270D02*X182810Y342655D01*
X181270Y343810D01*
X184350D01*
G54D113*X182040Y344734D02*X182117D01*
G54D112*X183195D02*X184350D01*
X183195Y345889D02*X184350D01*
X183195D02*X182810Y346274D01*
Y346659D02*Y346274D01*
Y346659D02*X183195Y347044D01*
X184350D01*
X182810Y345504D02*X183195Y345889D01*
G54D113*X182040Y347968D02*X182117D01*
G54D112*X183195D02*X184350D01*
Y350278D02*Y348738D01*
X181270Y352742D02*Y351202D01*
Y351972D02*X184350D01*
X182810Y354821D02*X183195Y355206D01*
X182810Y354821D02*Y354051D01*
X183195Y353666D02*X182810Y354051D01*
X183195Y353666D02*X183965D01*
X184350Y354051D01*
X182810Y355206D02*X183965D01*
X184350Y355591D01*
Y354821D02*Y354051D01*
Y354821D02*X183965Y355206D01*
X182810Y358055D02*Y356515D01*
X184350D02*X182810Y358055D01*
X184350D02*Y356515D01*
X181270Y360134D02*X181655Y360519D01*
X181270Y360134D02*Y359364D01*
X181655Y358979D02*X181270Y359364D01*
X181655Y358979D02*X183965D01*
X184350Y359364D01*
X182656Y360134D02*X183041Y360519D01*
X182656Y360134D02*Y358979D01*
X184350Y360134D02*Y359364D01*
Y360134D02*X183965Y360519D01*
X183041D02*X183965D01*
X91270Y258000D02*X94350D01*
Y259540D02*Y258000D01*
Y262004D02*Y260849D01*
X93965Y260464D02*X94350Y260849D01*
X93195Y260464D02*X93965D01*
X93195D02*X92810Y260849D01*
Y261619D02*Y260849D01*
Y261619D02*X93195Y262004D01*
X93580D02*Y260464D01*
X93195Y262004D02*X93580D01*
X92810Y264083D02*X93195Y264468D01*
X92810Y264083D02*Y263313D01*
X93195Y262928D02*X92810Y263313D01*
X93195Y262928D02*X93965D01*
X94350Y263313D01*
Y264083D02*Y263313D01*
Y264083D02*X93965Y264468D01*
X95120Y262928D02*X95505Y263313D01*
Y264083D02*Y263313D01*
Y264083D02*X95120Y264468D01*
X92810D02*X95120D01*
X92810Y266547D02*X93195Y266932D01*
X92810Y266547D02*Y265777D01*
X93195Y265392D02*X92810Y265777D01*
X93195Y265392D02*X93965D01*
X94350Y265777D01*
X92810Y266932D02*X93965D01*
X94350Y267317D01*
Y266547D02*Y265777D01*
Y266547D02*X93965Y266932D01*
X92810Y269781D02*Y268626D01*
X93195Y268241D02*X92810Y268626D01*
X93195Y268241D02*X93965D01*
X94350Y268626D01*
Y269781D02*Y268626D01*
X92810Y270705D02*X93965D01*
X94350Y271090D01*
X92810Y272245D02*X95120D01*
X95505Y271860D02*X95120Y272245D01*
X95505Y271860D02*Y271090D01*
X95120Y270705D02*X95505Y271090D01*
X94350Y271860D02*Y271090D01*
Y271860D02*X93965Y272245D01*
X92810Y274709D02*Y273169D01*
X91270Y275633D02*X94350D01*
Y277173D02*Y275633D01*
X92810Y278097D02*X93965D01*
X94350Y278482D01*
Y279252D02*Y278482D01*
Y279252D02*X93965Y279637D01*
X92810D02*X93965D01*
X91270Y280561D02*X93965D01*
X94350Y280946D01*
X92810Y283256D02*Y281716D01*
X94350D02*X92810Y283256D01*
X94350D02*Y281716D01*
Y285720D02*Y284180D01*
Y285720D02*X93965Y286105D01*
X93041D02*X93965D01*
X92656Y285720D02*X93041Y286105D01*
X92656Y285720D02*Y284565D01*
X91270D02*X94350D01*
X91270Y285720D02*Y284180D01*
Y285720D02*X91655Y286105D01*
X92271D01*
X92656Y285720D02*X92271Y286105D01*
X93195Y287029D02*X93965D01*
X93195D02*X92810Y287414D01*
Y288184D02*Y287414D01*
Y288184D02*X93195Y288569D01*
X93965D01*
X94350Y288184D02*X93965Y288569D01*
X94350Y288184D02*Y287414D01*
X93965Y287029D02*X94350Y287414D01*
X91270Y289878D02*X93965D01*
X94350Y290263D01*
X92425D02*Y289493D01*
X91270Y187500D02*X94350D01*
Y189040D02*Y187500D01*
Y191504D02*Y190349D01*
X93965Y189964D02*X94350Y190349D01*
X93195Y189964D02*X93965D01*
X93195D02*X92810Y190349D01*
Y191119D02*Y190349D01*
Y191119D02*X93195Y191504D01*
X93580D02*Y189964D01*
X93195Y191504D02*X93580D01*
X92810Y193583D02*X93195Y193968D01*
X92810Y193583D02*Y192813D01*
X93195Y192428D02*X92810Y192813D01*
X93195Y192428D02*X93965D01*
X94350Y192813D01*
Y193583D02*Y192813D01*
Y193583D02*X93965Y193968D01*
X95120Y192428D02*X95505Y192813D01*
Y193583D02*Y192813D01*
Y193583D02*X95120Y193968D01*
X92810D02*X95120D01*
X92810Y196047D02*X93195Y196432D01*
X92810Y196047D02*Y195277D01*
X93195Y194892D02*X92810Y195277D01*
X93195Y194892D02*X93965D01*
X94350Y195277D01*
X92810Y196432D02*X93965D01*
X94350Y196817D01*
Y196047D02*Y195277D01*
Y196047D02*X93965Y196432D01*
X92810Y199281D02*Y198126D01*
X93195Y197741D02*X92810Y198126D01*
X93195Y197741D02*X93965D01*
X94350Y198126D01*
Y199281D02*Y198126D01*
X92810Y200205D02*X93965D01*
X94350Y200590D01*
X92810Y201745D02*X95120D01*
X95505Y201360D02*X95120Y201745D01*
X95505Y201360D02*Y200590D01*
X95120Y200205D02*X95505Y200590D01*
X94350Y201360D02*Y200590D01*
Y201360D02*X93965Y201745D01*
X92810Y204209D02*Y202669D01*
X91270Y205133D02*X94350D01*
Y206673D02*Y205133D01*
X92810Y207597D02*X93965D01*
X94350Y207982D01*
Y208752D02*Y207982D01*
Y208752D02*X93965Y209137D01*
X92810D02*X93965D01*
X91270Y210061D02*X93965D01*
X94350Y210446D01*
X92810Y212756D02*Y211216D01*
X94350D02*X92810Y212756D01*
X94350D02*Y211216D01*
Y215220D02*Y213680D01*
Y215220D02*X93965Y215605D01*
X93041D02*X93965D01*
X92656Y215220D02*X93041Y215605D01*
X92656Y215220D02*Y214065D01*
X91270D02*X94350D01*
X91270Y215220D02*Y213680D01*
Y215220D02*X91655Y215605D01*
X92271D01*
X92656Y215220D02*X92271Y215605D01*
X93195Y216529D02*X93965D01*
X93195D02*X92810Y216914D01*
Y217684D02*Y216914D01*
Y217684D02*X93195Y218069D01*
X93965D01*
X94350Y217684D02*X93965Y218069D01*
X94350Y217684D02*Y216914D01*
X93965Y216529D02*X94350Y216914D01*
X91270Y219378D02*X93965D01*
X94350Y219763D01*
X92425D02*Y218993D01*
G54D119*X101040Y231000D02*X103200D01*
X101040D02*X102120Y231810D01*
X101040Y232620D01*
X103200D01*
X102120Y234078D02*X102390Y234348D01*
X102120Y234078D02*Y233538D01*
X102390Y233268D02*X102120Y233538D01*
X102390Y233268D02*X102930D01*
X103200Y233538D01*
X102120Y234348D02*X102930D01*
X103200Y234618D01*
Y234078D02*Y233538D01*
Y234078D02*X102930Y234348D01*
X102120Y235266D02*X102930D01*
X103200Y235536D01*
X102120Y236346D02*X103740D01*
X104010Y236076D02*X103740Y236346D01*
X104010Y236076D02*Y235536D01*
X103740Y235266D02*X104010Y235536D01*
X103200Y236076D02*Y235536D01*
Y236076D02*X102930Y236346D01*
X101040Y237966D02*X103200D01*
X102930D02*X103200Y238236D01*
Y238776D02*Y238236D01*
Y238776D02*X102930Y239046D01*
X102390D02*X102930D01*
X102120Y238776D02*X102390Y239046D01*
X102120Y238776D02*Y238236D01*
X102390Y237966D02*X102120Y238236D01*
X102390Y239964D02*X103200D01*
X102390D02*X102120Y240234D01*
Y240774D02*Y240234D01*
Y239694D02*X102390Y239964D01*
X103200Y242502D02*Y241692D01*
X102930Y241422D02*X103200Y241692D01*
X102390Y241422D02*X102930D01*
X102390D02*X102120Y241692D01*
Y242232D02*Y241692D01*
Y242232D02*X102390Y242502D01*
X102660D02*Y241422D01*
X102390Y242502D02*X102660D01*
X102120Y243960D02*X102390Y244230D01*
X102120Y243960D02*Y243420D01*
X102390Y243150D02*X102120Y243420D01*
X102390Y243150D02*X102930D01*
X103200Y243420D01*
X102120Y244230D02*X102930D01*
X103200Y244500D01*
Y243960D02*Y243420D01*
Y243960D02*X102930Y244230D01*
X101040Y245148D02*X103200D01*
X102390D02*X103200Y245958D01*
X102390Y245148D02*X101850Y245688D01*
X104810Y233770D02*X106700D01*
X104810D02*X104540Y234040D01*
Y234310D02*Y234040D01*
X105620D02*Y233500D01*
X105890Y234850D02*X106430D01*
X105890D02*X105620Y235120D01*
Y235660D02*Y235120D01*
Y235660D02*X105890Y235930D01*
X106430D01*
X106700Y235660D02*X106430Y235930D01*
X106700Y235660D02*Y235120D01*
X106430Y234850D02*X106700Y235120D01*
X105890Y236848D02*X106700D01*
X105890D02*X105620Y237118D01*
Y237658D02*Y237118D01*
Y236578D02*X105890Y236848D01*
X104540Y239278D02*X106700D01*
X104540D02*X105620Y240088D01*
X104540Y240898D01*
X106700D01*
G54D120*X105080Y241546D02*X105134D01*
G54D119*X105890D02*X106700D01*
X105890Y242356D02*X106700D01*
X105890D02*X105620Y242626D01*
Y242896D02*Y242626D01*
Y242896D02*X105890Y243166D01*
X106700D01*
X105620Y242086D02*X105890Y242356D01*
G54D120*X105080Y243814D02*X105134D01*
G54D119*X105890D02*X106700D01*
Y244624D02*Y244354D01*
G54D112*X76770Y258000D02*X79850D01*
X76770D02*X78310Y259155D01*
X76770Y260310D01*
X79850D01*
G54D113*X77540Y261234D02*X77617D01*
G54D112*X78695D02*X79850D01*
X78695Y262389D02*X79850D01*
X78695D02*X78310Y262774D01*
Y263159D02*Y262774D01*
Y263159D02*X78695Y263544D01*
X79850D01*
X78310Y262004D02*X78695Y262389D01*
G54D113*X77540Y264468D02*X77617D01*
G54D112*X78695D02*X79850D01*
Y266778D02*Y265238D01*
X76770Y269242D02*Y267702D01*
Y268472D02*X79850D01*
X78310Y271321D02*X78695Y271706D01*
X78310Y271321D02*Y270551D01*
X78695Y270166D02*X78310Y270551D01*
X78695Y270166D02*X79465D01*
X79850Y270551D01*
X78310Y271706D02*X79465D01*
X79850Y272091D01*
Y271321D02*Y270551D01*
Y271321D02*X79465Y271706D01*
X78310Y274555D02*Y273015D01*
X79850D02*X78310Y274555D01*
X79850D02*Y273015D01*
X76770Y276634D02*X77155Y277019D01*
X76770Y276634D02*Y275864D01*
X77155Y275479D02*X76770Y275864D01*
X77155Y275479D02*X79465D01*
X79850Y275864D01*
X78156Y276634D02*X78541Y277019D01*
X78156Y276634D02*Y275479D01*
X79850Y276634D02*Y275864D01*
Y276634D02*X79465Y277019D01*
X78541D02*X79465D01*
X76770Y201000D02*X79850D01*
X76770D02*X78310Y202155D01*
X76770Y203310D01*
X79850D01*
G54D113*X77540Y204234D02*X77617D01*
G54D112*X78695D02*X79850D01*
X78695Y205389D02*X79850D01*
X78695D02*X78310Y205774D01*
Y206159D02*Y205774D01*
Y206159D02*X78695Y206544D01*
X79850D01*
X78310Y205004D02*X78695Y205389D01*
G54D113*X77540Y207468D02*X77617D01*
G54D112*X78695D02*X79850D01*
Y209778D02*Y208238D01*
X76770Y212242D02*Y210702D01*
Y211472D02*X79850D01*
X78310Y214321D02*X78695Y214706D01*
X78310Y214321D02*Y213551D01*
X78695Y213166D02*X78310Y213551D01*
X78695Y213166D02*X79465D01*
X79850Y213551D01*
X78310Y214706D02*X79465D01*
X79850Y215091D01*
Y214321D02*Y213551D01*
Y214321D02*X79465Y214706D01*
X78310Y217555D02*Y216015D01*
X79850D02*X78310Y217555D01*
X79850D02*Y216015D01*
X76770Y219634D02*X77155Y220019D01*
X76770Y219634D02*Y218864D01*
X77155Y218479D02*X76770Y218864D01*
X77155Y218479D02*X79465D01*
X79850Y218864D01*
X78156Y219634D02*X78541Y220019D01*
X78156Y219634D02*Y218479D01*
X79850Y219634D02*Y218864D01*
Y219634D02*X79465Y220019D01*
X78541D02*X79465D01*
X265270Y207000D02*X268350D01*
X265270D02*X266810Y208155D01*
X265270Y209310D01*
X268350D01*
X266810Y211389D02*X267195Y211774D01*
X266810Y211389D02*Y210619D01*
X267195Y210234D02*X266810Y210619D01*
X267195Y210234D02*X267965D01*
X268350Y210619D01*
X266810Y211774D02*X267965D01*
X268350Y212159D01*
Y211389D02*Y210619D01*
Y211389D02*X267965Y211774D01*
X266810Y213083D02*X267965D01*
X268350Y213468D01*
X266810Y214623D02*X269120D01*
X269505Y214238D02*X269120Y214623D01*
X269505Y214238D02*Y213468D01*
X269120Y213083D02*X269505Y213468D01*
X268350Y214238D02*Y213468D01*
Y214238D02*X267965Y214623D01*
X268350Y218473D02*Y216933D01*
Y218473D02*X267965Y218858D01*
X267041D02*X267965D01*
X266656Y218473D02*X267041Y218858D01*
X266656Y218473D02*Y217318D01*
X265270D02*X268350D01*
X265270Y218473D02*Y216933D01*
Y218473D02*X265655Y218858D01*
X266271D01*
X266656Y218473D02*X266271Y218858D01*
X267195Y220167D02*X268350D01*
X267195D02*X266810Y220552D01*
Y221322D02*Y220552D01*
Y219782D02*X267195Y220167D01*
X268350Y223786D02*Y222631D01*
X267965Y222246D02*X268350Y222631D01*
X267195Y222246D02*X267965D01*
X267195D02*X266810Y222631D01*
Y223401D02*Y222631D01*
Y223401D02*X267195Y223786D01*
X267580D02*Y222246D01*
X267195Y223786D02*X267580D01*
X266810Y225865D02*X267195Y226250D01*
X266810Y225865D02*Y225095D01*
X267195Y224710D02*X266810Y225095D01*
X267195Y224710D02*X267965D01*
X268350Y225095D01*
X266810Y226250D02*X267965D01*
X268350Y226635D01*
Y225865D02*Y225095D01*
Y225865D02*X267965Y226250D01*
X265270Y227559D02*X268350D01*
X267195D02*X268350Y228714D01*
X267195Y227559D02*X266425Y228329D01*
X261270Y208000D02*X264350D01*
X261270D02*X262810Y209155D01*
X261270Y210310D01*
X264350D01*
G54D113*X262040Y211234D02*X262117D01*
G54D112*X263195D02*X264350D01*
X263195Y212389D02*X264350D01*
X263195D02*X262810Y212774D01*
Y213159D02*Y212774D01*
Y213159D02*X263195Y213544D01*
X264350D01*
X262810Y212004D02*X263195Y212389D01*
G54D113*X262040Y214468D02*X262117D01*
G54D112*X263195D02*X264350D01*
X261655Y216624D02*X263965D01*
X261655D02*X261270Y217009D01*
Y217779D02*Y217009D01*
Y217779D02*X261655Y218164D01*
X263965D01*
X264350Y217779D02*X263965Y218164D01*
X264350Y217779D02*Y217009D01*
X263965Y216624D02*X264350Y217009D01*
X263195Y219473D02*X264350D01*
X263195D02*X262810Y219858D01*
Y220243D02*Y219858D01*
Y220243D02*X263195Y220628D01*
X264350D01*
X262810Y219088D02*X263195Y219473D01*
X261270Y221552D02*X263965D01*
X264350Y221937D01*
X262810Y222707D02*X263965D01*
X264350Y223092D01*
X262810Y224247D02*X265120D01*
X265505Y223862D02*X265120Y224247D01*
X265505Y223862D02*Y223092D01*
X265120Y222707D02*X265505Y223092D01*
X264350Y223862D02*Y223092D01*
Y223862D02*X263965Y224247D01*
X277300Y270020D02*Y268880D01*
Y270020D02*X276920Y270400D01*
X276540Y270020D02*X276920Y270400D01*
X276540Y270020D02*Y268880D01*
X276160Y268500D02*X276540Y268880D01*
X276160Y268500D02*X275780Y268880D01*
Y270020D02*Y268880D01*
Y270020D02*X276160Y270400D01*
X276920Y268500D02*X277300Y268880D01*
X274260Y271692D02*X276920D01*
X277300Y272072D01*
X275400D02*Y271312D01*
X277300Y274352D02*Y273212D01*
X276920Y272832D02*X277300Y273212D01*
X276160Y272832D02*X276920D01*
X276160D02*X275780Y273212D01*
Y273972D02*Y273212D01*
Y273972D02*X276160Y274352D01*
X276540D02*Y272832D01*
X276160Y274352D02*X276540D01*
X276160Y275644D02*X278440D01*
X275780Y275264D02*X276160Y275644D01*
X275780Y276024D01*
Y276784D02*Y276024D01*
Y276784D02*X276160Y277164D01*
X276920D01*
X277300Y276784D02*X276920Y277164D01*
X277300Y276784D02*Y276024D01*
X276920Y275644D02*X277300Y276024D01*
Y354020D02*Y352880D01*
Y354020D02*X276920Y354400D01*
X276540Y354020D02*X276920Y354400D01*
X276540Y354020D02*Y352880D01*
X276160Y352500D02*X276540Y352880D01*
X276160Y352500D02*X275780Y352880D01*
Y354020D02*Y352880D01*
Y354020D02*X276160Y354400D01*
X276920Y352500D02*X277300Y352880D01*
X274260Y355692D02*X276920D01*
X277300Y356072D01*
X275400D02*Y355312D01*
X277300Y358352D02*Y357212D01*
X276920Y356832D02*X277300Y357212D01*
X276160Y356832D02*X276920D01*
X276160D02*X275780Y357212D01*
Y357972D02*Y357212D01*
Y357972D02*X276160Y358352D01*
X276540D02*Y356832D01*
X276160Y358352D02*X276540D01*
X276160Y359644D02*X278440D01*
X275780Y359264D02*X276160Y359644D01*
X275780Y360024D01*
Y360784D02*Y360024D01*
Y360784D02*X276160Y361164D01*
X276920D01*
X277300Y360784D02*X276920Y361164D01*
X277300Y360784D02*Y360024D01*
X276920Y359644D02*X277300Y360024D01*
X253270Y329000D02*X256350D01*
Y330540D02*Y329000D01*
Y333004D02*Y331849D01*
X255965Y331464D02*X256350Y331849D01*
X255195Y331464D02*X255965D01*
X255195D02*X254810Y331849D01*
Y332619D02*Y331849D01*
Y332619D02*X255195Y333004D01*
X255580D02*Y331464D01*
X255195Y333004D02*X255580D01*
X254810Y335083D02*X255195Y335468D01*
X254810Y335083D02*Y334313D01*
X255195Y333928D02*X254810Y334313D01*
X255195Y333928D02*X255965D01*
X256350Y334313D01*
Y335083D02*Y334313D01*
Y335083D02*X255965Y335468D01*
X257120Y333928D02*X257505Y334313D01*
Y335083D02*Y334313D01*
Y335083D02*X257120Y335468D01*
X254810D02*X257120D01*
X254810Y337547D02*X255195Y337932D01*
X254810Y337547D02*Y336777D01*
X255195Y336392D02*X254810Y336777D01*
X255195Y336392D02*X255965D01*
X256350Y336777D01*
X254810Y337932D02*X255965D01*
X256350Y338317D01*
Y337547D02*Y336777D01*
Y337547D02*X255965Y337932D01*
X254810Y340781D02*Y339626D01*
X255195Y339241D02*X254810Y339626D01*
X255195Y339241D02*X255965D01*
X256350Y339626D01*
Y340781D02*Y339626D01*
X254810Y341705D02*X255965D01*
X256350Y342090D01*
X254810Y343245D02*X257120D01*
X257505Y342860D02*X257120Y343245D01*
X257505Y342860D02*Y342090D01*
X257120Y341705D02*X257505Y342090D01*
X256350Y342860D02*Y342090D01*
Y342860D02*X255965Y343245D01*
X254810Y345709D02*Y344169D01*
X253270Y346633D02*X256350D01*
Y348173D02*Y346633D01*
X254810Y349097D02*X255965D01*
X256350Y349482D01*
Y350252D02*Y349482D01*
Y350252D02*X255965Y350637D01*
X254810D02*X255965D01*
X253270Y351561D02*X255965D01*
X256350Y351946D01*
X254810Y354256D02*Y352716D01*
X256350D02*X254810Y354256D01*
X256350D02*Y352716D01*
Y356720D02*Y355180D01*
Y356720D02*X255965Y357105D01*
X255041D02*X255965D01*
X254656Y356720D02*X255041Y357105D01*
X254656Y356720D02*Y355565D01*
X253270D02*X256350D01*
X253270Y356720D02*Y355180D01*
Y356720D02*X253655Y357105D01*
X254271D01*
X254656Y356720D02*X254271Y357105D01*
X255195Y358029D02*X255965D01*
X255195D02*X254810Y358414D01*
Y359184D02*Y358414D01*
Y359184D02*X255195Y359569D01*
X255965D01*
X256350Y359184D02*X255965Y359569D01*
X256350Y359184D02*Y358414D01*
X255965Y358029D02*X256350Y358414D01*
X253270Y360878D02*X255965D01*
X256350Y361263D01*
X254425D02*Y360493D01*
X253270Y245000D02*X256350D01*
Y246540D02*Y245000D01*
Y249004D02*Y247849D01*
X255965Y247464D02*X256350Y247849D01*
X255195Y247464D02*X255965D01*
X255195D02*X254810Y247849D01*
Y248619D02*Y247849D01*
Y248619D02*X255195Y249004D01*
X255580D02*Y247464D01*
X255195Y249004D02*X255580D01*
X254810Y251083D02*X255195Y251468D01*
X254810Y251083D02*Y250313D01*
X255195Y249928D02*X254810Y250313D01*
X255195Y249928D02*X255965D01*
X256350Y250313D01*
Y251083D02*Y250313D01*
Y251083D02*X255965Y251468D01*
X257120Y249928D02*X257505Y250313D01*
Y251083D02*Y250313D01*
Y251083D02*X257120Y251468D01*
X254810D02*X257120D01*
X254810Y253547D02*X255195Y253932D01*
X254810Y253547D02*Y252777D01*
X255195Y252392D02*X254810Y252777D01*
X255195Y252392D02*X255965D01*
X256350Y252777D01*
X254810Y253932D02*X255965D01*
X256350Y254317D01*
Y253547D02*Y252777D01*
Y253547D02*X255965Y253932D01*
X254810Y256781D02*Y255626D01*
X255195Y255241D02*X254810Y255626D01*
X255195Y255241D02*X255965D01*
X256350Y255626D01*
Y256781D02*Y255626D01*
X254810Y257705D02*X255965D01*
X256350Y258090D01*
X254810Y259245D02*X257120D01*
X257505Y258860D02*X257120Y259245D01*
X257505Y258860D02*Y258090D01*
X257120Y257705D02*X257505Y258090D01*
X256350Y258860D02*Y258090D01*
Y258860D02*X255965Y259245D01*
X254810Y261709D02*Y260169D01*
X253270Y262633D02*X256350D01*
Y264173D02*Y262633D01*
X254810Y265097D02*X255965D01*
X256350Y265482D01*
Y266252D02*Y265482D01*
Y266252D02*X255965Y266637D01*
X254810D02*X255965D01*
X253270Y267561D02*X255965D01*
X256350Y267946D01*
X254810Y270256D02*Y268716D01*
X256350D02*X254810Y270256D01*
X256350D02*Y268716D01*
Y272720D02*Y271180D01*
Y272720D02*X255965Y273105D01*
X255041D02*X255965D01*
X254656Y272720D02*X255041Y273105D01*
X254656Y272720D02*Y271565D01*
X253270D02*X256350D01*
X253270Y272720D02*Y271180D01*
Y272720D02*X253655Y273105D01*
X254271D01*
X254656Y272720D02*X254271Y273105D01*
X255195Y274029D02*X255965D01*
X255195D02*X254810Y274414D01*
Y275184D02*Y274414D01*
Y275184D02*X255195Y275569D01*
X255965D01*
X256350Y275184D02*X255965Y275569D01*
X256350Y275184D02*Y274414D01*
X255965Y274029D02*X256350Y274414D01*
X253270Y276878D02*X255965D01*
X256350Y277263D01*
X254425D02*Y276493D01*
X201270Y245000D02*X204350D01*
Y246540D02*Y245000D01*
Y249004D02*Y247849D01*
X203965Y247464D02*X204350Y247849D01*
X203195Y247464D02*X203965D01*
X203195D02*X202810Y247849D01*
Y248619D02*Y247849D01*
Y248619D02*X203195Y249004D01*
X203580D02*Y247464D01*
X203195Y249004D02*X203580D01*
X202810Y251083D02*X203195Y251468D01*
X202810Y251083D02*Y250313D01*
X203195Y249928D02*X202810Y250313D01*
X203195Y249928D02*X203965D01*
X204350Y250313D01*
Y251083D02*Y250313D01*
Y251083D02*X203965Y251468D01*
X205120Y249928D02*X205505Y250313D01*
Y251083D02*Y250313D01*
Y251083D02*X205120Y251468D01*
X202810D02*X205120D01*
X202810Y253547D02*X203195Y253932D01*
X202810Y253547D02*Y252777D01*
X203195Y252392D02*X202810Y252777D01*
X203195Y252392D02*X203965D01*
X204350Y252777D01*
X202810Y253932D02*X203965D01*
X204350Y254317D01*
Y253547D02*Y252777D01*
Y253547D02*X203965Y253932D01*
X202810Y256781D02*Y255626D01*
X203195Y255241D02*X202810Y255626D01*
X203195Y255241D02*X203965D01*
X204350Y255626D01*
Y256781D02*Y255626D01*
X202810Y257705D02*X203965D01*
X204350Y258090D01*
X202810Y259245D02*X205120D01*
X205505Y258860D02*X205120Y259245D01*
X205505Y258860D02*Y258090D01*
X205120Y257705D02*X205505Y258090D01*
X204350Y258860D02*Y258090D01*
Y258860D02*X203965Y259245D01*
X202810Y261709D02*Y260169D01*
X201270Y262633D02*X204350D01*
Y264173D02*Y262633D01*
X202810Y265097D02*X203965D01*
X204350Y265482D01*
Y266252D02*Y265482D01*
Y266252D02*X203965Y266637D01*
X202810D02*X203965D01*
X201270Y267561D02*X203965D01*
X204350Y267946D01*
X202810Y270256D02*Y268716D01*
X204350D02*X202810Y270256D01*
X204350D02*Y268716D01*
Y272720D02*Y271180D01*
Y272720D02*X203965Y273105D01*
X203041D02*X203965D01*
X202656Y272720D02*X203041Y273105D01*
X202656Y272720D02*Y271565D01*
X201270D02*X204350D01*
X201270Y272720D02*Y271180D01*
Y272720D02*X201655Y273105D01*
X202271D01*
X202656Y272720D02*X202271Y273105D01*
X203195Y274029D02*X203965D01*
X203195D02*X202810Y274414D01*
Y275184D02*Y274414D01*
Y275184D02*X203195Y275569D01*
X203965D01*
X204350Y275184D02*X203965Y275569D01*
X204350Y275184D02*Y274414D01*
X203965Y274029D02*X204350Y274414D01*
X201270Y276878D02*X203965D01*
X204350Y277263D01*
X202425D02*Y276493D01*
X181270Y257500D02*X184350D01*
X181270D02*X182810Y258655D01*
X181270Y259810D01*
X184350D01*
G54D113*X182040Y260734D02*X182117D01*
G54D112*X183195D02*X184350D01*
X183195Y261889D02*X184350D01*
X183195D02*X182810Y262274D01*
Y262659D02*Y262274D01*
Y262659D02*X183195Y263044D01*
X184350D01*
X182810Y261504D02*X183195Y261889D01*
G54D113*X182040Y263968D02*X182117D01*
G54D112*X183195D02*X184350D01*
Y266278D02*Y264738D01*
X181270Y268742D02*Y267202D01*
Y267972D02*X184350D01*
X182810Y270821D02*X183195Y271206D01*
X182810Y270821D02*Y270051D01*
X183195Y269666D02*X182810Y270051D01*
X183195Y269666D02*X183965D01*
X184350Y270051D01*
X182810Y271206D02*X183965D01*
X184350Y271591D01*
Y270821D02*Y270051D01*
Y270821D02*X183965Y271206D01*
X182810Y274055D02*Y272515D01*
X184350D02*X182810Y274055D01*
X184350D02*Y272515D01*
X181270Y276134D02*X181655Y276519D01*
X181270Y276134D02*Y275364D01*
X181655Y274979D02*X181270Y275364D01*
X181655Y274979D02*X183965D01*
X184350Y275364D01*
X182656Y276134D02*X183041Y276519D01*
X182656Y276134D02*Y274979D01*
X184350Y276134D02*Y275364D01*
Y276134D02*X183965Y276519D01*
X183041D02*X183965D01*
X224270Y257500D02*X227350D01*
X224270D02*X225810Y258655D01*
X224270Y259810D01*
X227350D01*
G54D113*X225040Y260734D02*X225117D01*
G54D112*X226195D02*X227350D01*
X226195Y261889D02*X227350D01*
X226195D02*X225810Y262274D01*
Y262659D02*Y262274D01*
Y262659D02*X226195Y263044D01*
X227350D01*
X225810Y261504D02*X226195Y261889D01*
G54D113*X225040Y263968D02*X225117D01*
G54D112*X226195D02*X227350D01*
Y266278D02*Y264738D01*
X224270Y268742D02*Y267202D01*
Y267972D02*X227350D01*
X225810Y270821D02*X226195Y271206D01*
X225810Y270821D02*Y270051D01*
X226195Y269666D02*X225810Y270051D01*
X226195Y269666D02*X226965D01*
X227350Y270051D01*
X225810Y271206D02*X226965D01*
X227350Y271591D01*
Y270821D02*Y270051D01*
Y270821D02*X226965Y271206D01*
X225810Y274055D02*Y272515D01*
X227350D02*X225810Y274055D01*
X227350D02*Y272515D01*
X224270Y276134D02*X224655Y276519D01*
X224270Y276134D02*Y275364D01*
X224655Y274979D02*X224270Y275364D01*
X224655Y274979D02*X226965D01*
X227350Y275364D01*
X225656Y276134D02*X226041Y276519D01*
X225656Y276134D02*Y274979D01*
X227350Y276134D02*Y275364D01*
Y276134D02*X226965Y276519D01*
X226041D02*X226965D01*
X224270Y341500D02*X227350D01*
X224270D02*X225810Y342655D01*
X224270Y343810D01*
X227350D01*
G54D113*X225040Y344734D02*X225117D01*
G54D112*X226195D02*X227350D01*
X226195Y345889D02*X227350D01*
X226195D02*X225810Y346274D01*
Y346659D02*Y346274D01*
Y346659D02*X226195Y347044D01*
X227350D01*
X225810Y345504D02*X226195Y345889D01*
G54D113*X225040Y347968D02*X225117D01*
G54D112*X226195D02*X227350D01*
Y350278D02*Y348738D01*
X224270Y352742D02*Y351202D01*
Y351972D02*X227350D01*
X225810Y354821D02*X226195Y355206D01*
X225810Y354821D02*Y354051D01*
X226195Y353666D02*X225810Y354051D01*
X226195Y353666D02*X226965D01*
X227350Y354051D01*
X225810Y355206D02*X226965D01*
X227350Y355591D01*
Y354821D02*Y354051D01*
Y354821D02*X226965Y355206D01*
X225810Y358055D02*Y356515D01*
X227350D02*X225810Y358055D01*
X227350D02*Y356515D01*
X224270Y360134D02*X224655Y360519D01*
X224270Y360134D02*Y359364D01*
X224655Y358979D02*X224270Y359364D01*
X224655Y358979D02*X226965D01*
X227350Y359364D01*
X225656Y360134D02*X226041Y360519D01*
X225656Y360134D02*Y358979D01*
X227350Y360134D02*Y359364D01*
Y360134D02*X226965Y360519D01*
X226041D02*X226965D01*
G54D110*X180000Y305000D02*X280000D01*
X180000D02*Y285000D01*
X280000D01*
Y305000D02*Y285000D01*
X270000Y305000D02*Y295000D01*
X280000D01*
X180000Y389000D02*X280000D01*
X180000D02*Y369000D01*
X280000D01*
Y389000D02*Y369000D01*
X270000Y389000D02*Y379000D01*
X280000D01*
G54D125*X134957Y144980D02*Y141043D01*
X138500Y137500D01*
X134957Y145500D02*X139949D01*
X144406Y141437D02*X144012D01*
X139949Y145500D02*X144012Y141437D01*
X149457Y144980D02*Y141043D01*
X153000Y137500D01*
X149457Y145500D02*X154449D01*
X158906Y141437D02*X158512D01*
X154449Y145500D02*X158512Y141437D01*
X163957Y144980D02*Y141043D01*
X167500Y137500D01*
X163957Y145500D02*X168949D01*
X173406Y141437D02*X173012D01*
X168949Y145500D02*X173012Y141437D01*
X178457Y144980D02*Y141043D01*
X182000Y137500D01*
X178457Y145500D02*X183449D01*
X187906Y141437D02*X187512D01*
X183449Y145500D02*X187512Y141437D01*
G54D111*X147000Y70500D02*Y40000D01*
X159500Y41000D02*X162500Y44000D01*
X150000Y40000D02*X158500D01*
X162500Y48000D02*Y44000D01*
X163500Y63500D02*Y60500D01*
X160500Y63500D02*Y60500D01*
X149000D02*Y35000D01*
X144000Y78000D02*Y30000D01*
X149000Y35000D02*X159500D01*
Y35500D02*X165000D01*
X159500D02*Y34000D01*
X163500D02*X165000D01*
X161500D02*X162500Y33000D01*
X159500Y34000D02*X161500D01*
X147000Y40000D02*X147500D01*
X162500D02*X163500Y41000D01*
X162500Y42000D02*X163500Y41000D01*
X161500D02*X162500Y42000D01*
X161500Y41000D02*X162500Y40000D01*
X159500Y41000D02*X162500Y38000D01*
X149000Y60500D02*X164000D01*
X153500Y73500D02*Y70500D01*
X156500Y73500D02*Y70500D01*
X147000D01*
X150500Y73500D02*Y70500D01*
X185500Y74000D02*Y72500D01*
X188500Y74000D02*Y72500D01*
X185500D02*X187000D01*
X188500Y74000D02*Y73500D01*
X185500Y74000D02*Y73500D01*
X186500Y72500D02*X194500D01*
X173000Y62500D02*X192500D01*
X181000Y65000D02*Y62500D01*
X173000Y65000D02*Y62500D01*
X178500Y63000D02*Y62500D01*
X175500Y63000D02*Y62500D01*
X196500Y66000D02*Y36000D01*
X194500Y72500D02*Y40000D01*
X192500Y62500D02*Y48500D01*
X199500Y67500D02*Y67000D01*
X198500Y66000D02*X199500Y67000D01*
X198500Y62500D02*Y60000D01*
Y60500D02*Y33000D01*
Y62500D02*X203500D01*
X204500Y64000D02*Y63500D01*
X203500Y62500D02*X204500Y63500D01*
X201499D02*X202500Y62500D01*
X201499Y64000D02*Y63500D01*
X196500Y66000D02*X198500D01*
X196500Y67000D02*X197500Y66000D01*
X196500Y67500D02*Y67000D01*
X219000Y63500D02*Y60500D01*
X204500D02*X219000D01*
X216000Y63500D02*Y60500D01*
X204500D02*Y41500D01*
X216000D01*
Y45500D02*Y36000D01*
X218500Y45500D02*Y33500D01*
X216000Y45500D02*X218500D01*
X200999Y34000D02*X216000Y36000D01*
X200999Y34000D02*Y33000D01*
X218500Y33500D01*
X179000Y48500D02*X192500D01*
X171000Y33000D02*X198500D01*
X170500Y36000D02*X196500D01*
X178500Y40000D02*X194500D01*
X173000Y39500D02*X178000D01*
X170500Y37500D02*Y34500D01*
X170000Y34000D02*X171000Y33000D01*
X167500Y37500D02*X170500D01*
X167500D02*Y34500D01*
X169000Y33000D02*X170500Y34500D01*
X167500D02*X169000Y33000D01*
Y54500D02*Y50500D01*
Y47000D02*Y46500D01*
Y48500D02*Y48000D01*
X167500Y45000D02*X170500D01*
X171500Y48500D02*X171999Y48000D01*
X173500D01*
X171500Y50500D02*X171999Y51000D01*
X173500D01*
X170500Y50500D02*Y48500D01*
X169500Y49500D02*X171500D01*
X167500Y43500D02*X170500D01*
X167500Y42000D02*X170500D01*
X167500Y40500D02*X170500D01*
X169000Y45500D02*Y37500D01*
X173000Y52500D02*Y46500D01*
X179000D01*
X171999Y45500D02*X178000D01*
X179500Y44000D01*
X171999Y42500D02*X173000D01*
Y39500D01*
Y52500D02*X179000D01*
Y46500D01*
X174500Y49500D02*X176000Y48000D01*
X177500Y49500D01*
X176000Y51000D02*X177500Y49500D01*
X174500D02*X176000Y51000D01*
X178000Y39500D02*X179500Y41000D01*
Y44000D02*Y41000D01*
X176000Y44000D02*X177500Y42500D01*
X174500D02*X176000Y44000D01*
X174500Y42500D02*X176000Y41000D01*
X177500Y42500D01*
X162500Y40000D02*Y35500D01*
X165000D02*Y34000D01*
X144000Y78000D02*X222000D01*
Y30000D01*
X144000D02*X222000D01*
X162500Y38000D02*X165500Y41000D01*
X162500Y44000D02*X165500Y41000D01*
X166500Y63500D02*Y60500D01*
X160000D02*X166500D01*
G54D126*X173700Y57080D02*Y56000D01*
X173430Y57349D02*X173700Y57080D01*
X172782Y57349D02*X173430D01*
X172512Y57080D02*X172782Y57349D01*
X172512Y57080D02*Y56270D01*
X171540D02*X173700D01*
X171540Y57080D02*Y56000D01*
Y57080D02*X171810Y57349D01*
X172242D01*
X172512Y57080D01*
X171540Y57998D02*X173430D01*
X173700Y58268D01*
X172620Y58808D02*X173430D01*
X173700Y59078D01*
Y59618D02*Y59078D01*
X173430Y59888D02*X173700Y59618D01*
X172620Y59888D02*X173430D01*
X173700Y61616D02*Y60806D01*
X173430Y60535D02*X173700Y60806D01*
X172890Y60535D02*X173430D01*
X172620Y60806D02*X172890Y60535D01*
X172620Y61345D02*Y60806D01*
Y61345D02*X172890Y61616D01*
X173159D02*Y60535D01*
X172890Y61616D02*X173159D01*
X165540Y56500D02*X167700D01*
X165540D02*X167700Y57850D01*
X165540D02*X167700D01*
Y59578D02*Y58875D01*
X167322Y58498D02*X167700Y58875D01*
X165918Y58498D02*X167322D01*
X165540Y58875D02*X165918Y58498D01*
X165540Y59578D02*Y58875D01*
G54D127*X161150Y59060D02*Y58370D01*
X160779Y58000D02*X161150Y58370D01*
X159401Y58000D02*X160779D01*
X159030Y58370D02*X159401Y58000D01*
X159030Y59060D02*Y58370D01*
X162530Y56500D02*X164650D01*
X162530D02*X164650Y57825D01*
X162530D02*X164650D01*
X162795Y58461D02*X164385D01*
X162530Y58725D02*X162795Y58461D01*
X162530Y59256D02*Y58725D01*
Y59256D02*X162795Y59521D01*
X164385D01*
X164650Y59256D01*
Y58725D01*
X164385Y58461D02*X164650Y58725D01*
G54D126*X151080Y42960D02*X151350Y42690D01*
X150270Y42960D02*X151080D01*
X150000Y42690D02*X150270Y42960D01*
X150000Y42690D02*Y42150D01*
X150270Y41880D01*
X151080D01*
X151350Y41610D01*
Y41070D01*
X151080Y40800D02*X151350Y41070D01*
X150270Y40800D02*X151080D01*
X150000Y41070D02*X150270Y40800D01*
X152268D02*X153078D01*
X151998Y41070D02*X152268Y40800D01*
X151998Y41610D02*Y41070D01*
Y41610D02*X152268Y41880D01*
X152808D01*
X153078Y41610D01*
X151998Y41339D02*X153078D01*
Y41610D02*Y41339D01*
X153996Y41610D02*Y40800D01*
Y41610D02*X154266Y41880D01*
X154806D01*
X153726D02*X153996Y41610D01*
X155454Y41880D02*X155994Y40800D01*
X156534Y41880D01*
X157182Y41610D02*Y41070D01*
Y41610D02*X157452Y41880D01*
X157992D01*
X158262Y41610D01*
Y41070D01*
X157992Y40800D02*X158262Y41070D01*
X157452Y40800D02*X157992D01*
X157182Y41070D02*X157452Y40800D01*
X180500Y42460D02*Y40300D01*
X181850Y42460D02*Y40300D01*
X180500Y41380D02*X181850D01*
X182768Y40300D02*X183578D01*
X182498Y40570D02*X182768Y40300D01*
X182498Y41109D02*Y40570D01*
Y41109D02*X182768Y41380D01*
X183308D01*
X183578Y41109D01*
X182498Y40840D02*X183578D01*
Y41109D02*Y40840D01*
X185036Y41380D02*X185306Y41109D01*
X184496Y41380D02*X185036D01*
X184226Y41109D02*X184496Y41380D01*
X184226Y41109D02*Y40570D01*
X184496Y40300D01*
X185306Y41380D02*Y40570D01*
X185576Y40300D01*
X184496D02*X185036D01*
X185306Y40570D01*
X186494Y42460D02*Y40570D01*
X186764Y40300D01*
X186224Y41650D02*X186764D01*
X187574Y40300D02*X188384D01*
X188654Y40570D01*
X188384Y40840D02*X188654Y40570D01*
X187574Y40840D02*X188384D01*
X187304Y41109D02*X187574Y40840D01*
X187304Y41109D02*X187574Y41380D01*
X188384D01*
X188654Y41109D01*
X187304Y40570D02*X187574Y40300D01*
G54D120*X189302Y41920D02*Y41866D01*
G54D126*Y41109D02*Y40300D01*
X190112Y41109D02*Y40300D01*
Y41109D02*X190382Y41380D01*
X190652D01*
X190922Y41109D01*
Y40300D01*
X189842Y41380D02*X190112Y41109D01*
X191570Y42460D02*Y40300D01*
Y41109D02*X192380Y40300D01*
X191570Y41109D02*X192110Y41650D01*
X150270Y37960D02*Y35800D01*
X150000Y37960D02*X151080D01*
X151350Y37690D01*
Y37150D01*
X151080Y36880D02*X151350Y37150D01*
X150270Y36880D02*X151080D01*
X152268Y36610D02*Y35800D01*
Y36610D02*X152538Y36880D01*
X153078D01*
X151998D02*X152268Y36610D01*
X153726D02*Y36070D01*
Y36610D02*X153996Y36880D01*
X154536D01*
X154806Y36610D01*
Y36070D01*
X154536Y35800D02*X154806Y36070D01*
X153996Y35800D02*X154536D01*
X153726Y36070D02*X153996Y35800D01*
X155454Y37960D02*Y35800D01*
Y36070D02*X155724Y35800D01*
X156264D01*
X156534Y36070D01*
Y36610D02*Y36070D01*
X156264Y36880D02*X156534Y36610D01*
X155724Y36880D02*X156264D01*
X155454Y36610D02*X155724Y36880D01*
X157452Y35800D02*X158262D01*
X157182Y36070D02*X157452Y35800D01*
X157182Y36610D02*Y36070D01*
Y36610D02*X157452Y36880D01*
X157992D01*
X158262Y36610D01*
X157182Y36340D02*X158262D01*
Y36610D02*Y36340D01*
X171500Y38460D02*X172580D01*
X172040D02*Y36300D01*
X173228Y38460D02*Y36300D01*
Y37110D02*X173498Y37380D01*
X174038D01*
X174308Y37110D01*
Y36300D01*
X175226D02*X176036D01*
X174956Y36569D02*X175226Y36300D01*
X174956Y37110D02*Y36569D01*
Y37110D02*X175226Y37380D01*
X175766D01*
X176036Y37110D01*
X174956Y36840D02*X176036D01*
Y37110D02*Y36840D01*
X176954Y37110D02*Y36300D01*
Y37110D02*X177224Y37380D01*
X177764D01*
X176684D02*X176954Y37110D01*
X178682D02*Y36300D01*
Y37110D02*X178952Y37380D01*
X179222D01*
X179492Y37110D01*
Y36300D01*
Y37110D02*X179762Y37380D01*
X180032D01*
X180302Y37110D01*
Y36300D01*
X178412Y37380D02*X178682Y37110D01*
G54D120*X180950Y37920D02*Y37866D01*
G54D126*Y37110D02*Y36300D01*
X181760D02*X182570D01*
X182840Y36569D01*
X182570Y36840D02*X182840Y36569D01*
X181760Y36840D02*X182570D01*
X181490Y37110D02*X181760Y36840D01*
X181490Y37110D02*X181760Y37380D01*
X182570D01*
X182840Y37110D01*
X181490Y36569D02*X181760Y36300D01*
X183758Y38460D02*Y36569D01*
X184028Y36300D01*
X183488Y37650D02*X184028D01*
X184568Y37110D02*Y36569D01*
Y37110D02*X184838Y37380D01*
X185378D01*
X185648Y37110D01*
Y36569D01*
X185378Y36300D02*X185648Y36569D01*
X184838Y36300D02*X185378D01*
X184568Y36569D02*X184838Y36300D01*
X186566Y37110D02*Y36300D01*
Y37110D02*X186836Y37380D01*
X187376D01*
X186296D02*X186566Y37110D01*
X171999Y35459D02*Y33300D01*
X173350Y35459D02*Y33300D01*
X171999Y34380D02*X173350D01*
X174268Y33300D02*X175078D01*
X173997Y33570D02*X174268Y33300D01*
X173997Y34110D02*Y33570D01*
Y34110D02*X174268Y34380D01*
X174808D01*
X175078Y34110D01*
X173997Y33840D02*X175078D01*
Y34110D02*Y33840D01*
X176536Y34380D02*X176806Y34110D01*
X175996Y34380D02*X176536D01*
X175726Y34110D02*X175996Y34380D01*
X175726Y34110D02*Y33570D01*
X175996Y33300D01*
X176806Y34380D02*Y33570D01*
X177076Y33300D01*
X175996D02*X176536D01*
X176806Y33570D01*
X177994Y35459D02*Y33570D01*
X178264Y33300D01*
X177724Y34650D02*X178264D01*
X179074Y33300D02*X179884D01*
X178804Y33570D02*X179074Y33300D01*
X178804Y34110D02*Y33570D01*
Y34110D02*X179074Y34380D01*
X179614D01*
X179884Y34110D01*
X178804Y33840D02*X179884D01*
Y34110D02*Y33840D01*
X180802Y34110D02*Y33300D01*
Y34110D02*X181072Y34380D01*
X181612D01*
X180532D02*X180802Y34110D01*
X152040Y64580D02*Y63500D01*
Y64580D02*X152310Y64850D01*
X152850D01*
X153120Y64580D01*
Y63770D01*
X152040D02*X154200D01*
X153120Y64202D02*X154200Y64850D01*
Y66578D02*Y65768D01*
X153930Y65498D02*X154200Y65768D01*
X153390Y65498D02*X153930D01*
X153120Y65768D02*X153390Y65498D01*
X153120Y66308D02*Y65768D01*
Y66308D02*X153390Y66578D01*
X153660D02*Y65498D01*
X153390Y66578D02*X153660D01*
X152040Y68306D02*X154200D01*
X153930D02*X154200Y68036D01*
Y67496D01*
X153930Y67226D02*X154200Y67496D01*
X153390Y67226D02*X153930D01*
X153120Y67496D02*X153390Y67226D01*
X153120Y68036D02*Y67496D01*
Y68036D02*X153390Y68306D01*
X153120Y70034D02*Y68954D01*
X152580Y69494D02*X153660D01*
G54D127*X157150Y62060D02*Y61000D01*
X156885Y62325D02*X157150Y62060D01*
X156249Y62325D02*X156885D01*
X155984Y62060D02*X156249Y62325D01*
X155984Y62060D02*Y61265D01*
X155030D02*X157150D01*
X155030Y62060D02*Y61000D01*
Y62060D02*X155295Y62325D01*
X155719D01*
X155984Y62060D01*
X155030Y62961D02*X156885D01*
X157150Y63226D01*
X156090Y64551D02*X156355Y64816D01*
X156090Y64551D02*Y64021D01*
X156355Y63756D01*
X156885D01*
X157150Y64021D01*
X156090Y64816D02*X156885D01*
X157150Y65081D01*
Y64551D02*Y64021D01*
X156885Y64816D02*X157150Y64551D01*
X156090Y66777D02*Y65982D01*
X156355Y65717D01*
X156885D01*
X157150Y65982D01*
Y66777D02*Y65982D01*
X155030Y67413D02*X157150D01*
X156355D02*X157150Y68208D01*
X155825Y67943D02*X156355Y67413D01*
X156090Y69904D02*Y68844D01*
X150885Y62000D02*X151150Y62265D01*
X149030D02*X149295Y62000D01*
X150885D01*
X149030Y63166D02*X151150D01*
X149030Y63961D02*Y62901D01*
Y63961D02*X149295Y64226D01*
X149825D01*
X150090Y63961D01*
Y63166D01*
X149030Y64862D02*X150090D01*
X151150Y65127D01*
X150090Y65657D02*X151150Y65127D01*
X150090Y65657D02*X151150Y66187D01*
X150090Y66452D02*X151150Y66187D01*
X149030Y66452D02*X150090D01*
X149030Y67088D02*X151150D01*
X149030D02*X150090Y67883D01*
X149030Y68678D02*X150090Y67883D01*
X149030Y68678D02*X151150D01*
X149030Y69314D02*X149295Y69579D01*
X150885D01*
X151150Y69314D01*
X189650Y64060D02*Y63000D01*
X189385Y64325D02*X189650Y64060D01*
X188749Y64325D02*X189385D01*
X188484Y64060D02*X188749Y64325D01*
X188484Y64060D02*Y63265D01*
X187530D02*X189650D01*
X187530Y64060D02*Y63000D01*
Y64060D02*X187795Y64325D01*
X188219D01*
X188484Y64060D01*
X187530Y64961D02*X189385D01*
X189650Y65226D01*
X188590Y66551D02*X188855Y66816D01*
X188590Y66551D02*Y66021D01*
X188855Y65756D01*
X189385D01*
X189650Y66021D01*
X188590Y66816D02*X189385D01*
X189650Y67081D01*
Y66551D02*Y66021D01*
X189385Y66816D02*X189650Y66551D01*
X188590Y68777D02*Y67982D01*
X188855Y67717D01*
X189385D01*
X189650Y67982D01*
Y68777D02*Y67982D01*
X187530Y69413D02*X189650D01*
X188855D02*X189650Y70208D01*
X188325Y69943D02*X188855Y69413D01*
X188590Y71904D02*Y70844D01*
G54D126*X184540Y66580D02*Y65500D01*
Y66580D02*X184810Y66850D01*
X185350D01*
X185620Y66580D01*
Y65770D01*
X184540D02*X186700D01*
X185620Y66202D02*X186700Y66850D01*
Y68578D02*Y67768D01*
X186430Y67498D02*X186700Y67768D01*
X185890Y67498D02*X186430D01*
X185620Y67768D02*X185890Y67498D01*
X185620Y68308D02*Y67768D01*
Y68308D02*X185890Y68578D01*
X186160D02*Y67498D01*
X185890Y68578D02*X186160D01*
X184540Y70306D02*X186700D01*
X186430D02*X186700Y70036D01*
Y69496D01*
X186430Y69226D02*X186700Y69496D01*
X185890Y69226D02*X186430D01*
X185620Y69496D02*X185890Y69226D01*
X185620Y70036D02*Y69496D01*
Y70036D02*X185890Y70306D01*
X185620Y72034D02*Y70954D01*
X185080Y71494D02*X186160D01*
X174040Y54579D02*X174310Y54850D01*
X174040Y54579D02*Y53769D01*
X174310Y53500D01*
X175929D01*
X176200Y53769D01*
Y54579D02*Y53769D01*
X175929Y54850D02*X176200Y54579D01*
X175390Y54850D02*X175929D01*
X175119Y54579D02*X175390Y54850D01*
X175119Y54579D02*Y54040D01*
X175390Y55767D02*X176200D01*
X175119Y56038D02*X175390Y55767D01*
X175119Y56577D02*Y56038D01*
Y55498D02*X175390Y55767D01*
X176200Y58306D02*Y57496D01*
X175929Y57226D02*X176200Y57496D01*
X175390Y57226D02*X175929D01*
X175119Y57496D02*X175390Y57226D01*
X175119Y58036D02*Y57496D01*
Y58036D02*X175390Y58306D01*
X175660D02*Y57226D01*
X175390Y58306D02*X175660D01*
X176200Y60034D02*Y59224D01*
X175929Y58953D02*X176200Y59224D01*
X175390Y58953D02*X175929D01*
X175119Y59224D02*X175390Y58953D01*
X175119Y59763D02*Y59224D01*
Y59763D02*X175390Y60034D01*
X175660D02*Y58953D01*
X175390Y60034D02*X175660D01*
X175390Y60951D02*X176200D01*
X175119Y61222D02*X175390Y60951D01*
X175119Y61492D02*Y61222D01*
Y61492D02*X175390Y61762D01*
X176200D01*
X175119Y60682D02*X175390Y60951D01*
X180040Y57580D02*Y56500D01*
Y57580D02*X180310Y57850D01*
X180850D01*
X181120Y57580D01*
Y56770D01*
X180040D02*X182200D01*
X181120Y57202D02*X182200Y57850D01*
Y59578D02*Y58768D01*
X181930Y58498D02*X182200Y58768D01*
X181390Y58498D02*X181930D01*
X181120Y58768D02*X181390Y58498D01*
X181120Y59308D02*Y58768D01*
Y59308D02*X181390Y59578D01*
X181660D02*Y58498D01*
X181390Y59578D02*X181660D01*
X180040Y61306D02*X182200D01*
X181930D02*X182200Y61036D01*
Y60496D01*
X181930Y60226D02*X182200Y60496D01*
X181390Y60226D02*X181930D01*
X181120Y60496D02*X181390Y60226D01*
X181120Y61036D02*Y60496D01*
Y61036D02*X181390Y61306D01*
X179200Y55580D02*Y54500D01*
X178930Y55850D02*X179200Y55580D01*
X178282Y55850D02*X178930D01*
X178012Y55580D02*X178282Y55850D01*
X178012Y55580D02*Y54770D01*
X177040D02*X179200D01*
X177040Y55580D02*Y54500D01*
Y55580D02*X177310Y55850D01*
X177742D01*
X178012Y55580D01*
X177040Y56498D02*X178930D01*
X179200Y56768D01*
X178120Y58118D02*X178390Y58387D01*
X178120Y58118D02*Y57578D01*
X178390Y57308D01*
X178930D01*
X179200Y57578D01*
X178120Y58387D02*X178930D01*
X179200Y58658D01*
Y58118D02*Y57578D01*
X178930Y58387D02*X179200Y58118D01*
X178120Y60385D02*Y59575D01*
X178390Y59306D01*
X178930D01*
X179200Y59575D01*
Y60385D02*Y59575D01*
X177040Y61034D02*X179200D01*
X178390D02*X179200Y61844D01*
X177850Y61574D02*X178390Y61034D01*
X181080Y51460D02*X181350Y51190D01*
X180270Y51460D02*X181080D01*
X180000Y51190D02*X180270Y51460D01*
X180000Y51190D02*Y50650D01*
X180270Y50380D01*
X181080D01*
X181350Y50110D01*
Y49570D01*
X181080Y49300D02*X181350Y49570D01*
X180270Y49300D02*X181080D01*
X180000Y49570D02*X180270Y49300D01*
X182268Y51460D02*Y49570D01*
X182538Y49300D01*
X181998Y50650D02*X182538D01*
X183348Y49300D02*X184158D01*
X183078Y49570D02*X183348Y49300D01*
X183078Y50110D02*Y49570D01*
Y50110D02*X183348Y50380D01*
X183888D01*
X184158Y50110D01*
X183078Y49840D02*X184158D01*
Y50110D02*Y49840D01*
X185076Y50110D02*Y48490D01*
X184806Y50380D02*X185076Y50110D01*
X185346Y50380D01*
X185886D01*
X186156Y50110D01*
Y49570D01*
X185886Y49300D02*X186156Y49570D01*
X185346Y49300D02*X185886D01*
X185076Y49570D02*X185346Y49300D01*
X187074Y50110D02*Y48490D01*
X186804Y50380D02*X187074Y50110D01*
X187344Y50380D01*
X187884D01*
X188154Y50110D01*
Y49570D01*
X187884Y49300D02*X188154Y49570D01*
X187344Y49300D02*X187884D01*
X187074Y49570D02*X187344Y49300D01*
X189072D02*X189882D01*
X188802Y49570D02*X189072Y49300D01*
X188802Y50110D02*Y49570D01*
Y50110D02*X189072Y50380D01*
X189612D01*
X189882Y50110D01*
X188802Y49840D02*X189882D01*
Y50110D02*Y49840D01*
X190800Y50110D02*Y49300D01*
Y50110D02*X191070Y50380D01*
X191610D01*
X190530D02*X190800Y50110D01*
G54D127*X219650Y52060D02*Y51000D01*
X219385Y52325D02*X219650Y52060D01*
X218749Y52325D02*X219385D01*
X218484Y52060D02*X218749Y52325D01*
X218484Y52060D02*Y51265D01*
X217530D02*X219650D01*
X217530Y52060D02*Y51000D01*
Y52060D02*X217795Y52325D01*
X218219D01*
X218484Y52060D01*
X217530Y52961D02*X219385D01*
X219650Y53226D01*
X218590Y54551D02*X218855Y54816D01*
X218590Y54551D02*Y54021D01*
X218855Y53756D01*
X219385D01*
X219650Y54021D01*
X218590Y54816D02*X219385D01*
X219650Y55081D01*
Y54551D02*Y54021D01*
X219385Y54816D02*X219650Y54551D01*
X218590Y56777D02*Y55982D01*
X218855Y55717D01*
X219385D01*
X219650Y55982D01*
Y56777D02*Y55982D01*
X217530Y57413D02*X219650D01*
X218855D02*X219650Y58208D01*
X218325Y57943D02*X218855Y57413D01*
X218590Y59904D02*Y58844D01*
G54D126*X214540Y54579D02*Y53500D01*
Y54579D02*X214810Y54850D01*
X215350D01*
X215620Y54579D01*
Y53769D01*
X214540D02*X216700D01*
X215620Y54202D02*X216700Y54850D01*
Y56577D02*Y55767D01*
X216430Y55498D02*X216700Y55767D01*
X215890Y55498D02*X216430D01*
X215620Y55767D02*X215890Y55498D01*
X215620Y56308D02*Y55767D01*
Y56308D02*X215890Y56577D01*
X216160D02*Y55498D01*
X215890Y56577D02*X216160D01*
X214540Y58306D02*X216700D01*
X216430D02*X216700Y58036D01*
Y57496D01*
X216430Y57226D02*X216700Y57496D01*
X215890Y57226D02*X216430D01*
X215620Y57496D02*X215890Y57226D01*
X215620Y58036D02*Y57496D01*
Y58036D02*X215890Y58306D01*
X215620Y60034D02*Y58953D01*
X215080Y59494D02*X216160D01*
X205878Y43300D02*X206580D01*
X205500Y43678D02*X205878Y43300D01*
X205500Y45082D02*Y43678D01*
Y45082D02*X205878Y45460D01*
X206580D01*
X207227Y44109D02*Y43570D01*
Y44109D02*X207498Y44380D01*
X208037D01*
X208308Y44109D01*
Y43570D01*
X208037Y43300D02*X208308Y43570D01*
X207498Y43300D02*X208037D01*
X207227Y43570D02*X207498Y43300D01*
X208956Y44109D02*Y43570D01*
Y44109D02*X209225Y44380D01*
X209766D01*
X210036Y44109D01*
Y43570D01*
X209766Y43300D02*X210036Y43570D01*
X209225Y43300D02*X209766D01*
X208956Y43570D02*X209225Y43300D01*
X210684Y45460D02*Y43570D01*
X210954Y43300D01*
G54D120*X211494Y44920D02*Y44866D01*
G54D126*Y44109D02*Y43300D01*
X212304Y44109D02*Y43300D01*
Y44109D02*X212574Y44380D01*
X212844D01*
X213114Y44109D01*
Y43300D01*
X212034Y44380D02*X212304Y44109D01*
X214572Y44380D02*X214842Y44109D01*
X214032Y44380D02*X214572D01*
X213762Y44109D02*X214032Y44380D01*
X213762Y44109D02*Y43570D01*
X214032Y43300D01*
X214572D01*
X214842Y43570D01*
X213762Y42760D02*X214032Y42490D01*
X214572D01*
X214842Y42760D01*
Y44380D02*Y42760D01*
G54D125*X221957Y144980D02*Y141043D01*
X225500Y137500D01*
X221957Y145500D02*X226949D01*
X231406Y141437D02*X231012D01*
X226949Y145500D02*X231012Y141437D01*
X236457Y144980D02*Y141043D01*
X240000Y137500D01*
X236457Y145500D02*X241449D01*
X245906Y141437D02*X245512D01*
X241449Y145500D02*X245512Y141437D01*
X192957Y144980D02*Y141043D01*
X196500Y137500D01*
X192957Y145500D02*X197949D01*
X202406Y141437D02*X202012D01*
X197949Y145500D02*X202012Y141437D01*
X207457Y144980D02*Y141043D01*
X211000Y137500D01*
X207457Y145500D02*X212449D01*
X216906Y141437D02*X216512D01*
X212449Y145500D02*X216512Y141437D01*
X250957Y144980D02*Y141043D01*
X254500Y137500D01*
X250957Y145500D02*X255949D01*
X260406Y141437D02*X260012D01*
X255949Y145500D02*X260012Y141437D01*
X265457Y144980D02*Y141043D01*
X269000Y137500D01*
X265457Y145500D02*X270449D01*
X274906Y141437D02*X274512D01*
X270449Y145500D02*X274512Y141437D01*
X279957Y144980D02*Y141043D01*
X283500Y137500D01*
X279957Y145500D02*X284949D01*
X289406Y141437D02*X289012D01*
X284949Y145500D02*X289012Y141437D01*
X76957Y144980D02*Y141043D01*
X80500Y137500D01*
X76957Y145500D02*X81949D01*
X86406Y141437D02*X86012D01*
X81949Y145500D02*X86012Y141437D01*
G54D111*X82300Y54800D02*Y49300D01*
X83800D01*
Y54800D02*Y53300D01*
Y51300D02*X84800Y52300D01*
X83800Y51300D02*Y49300D01*
X77800Y52300D02*X82300D01*
Y54800D02*X83800D01*
G54D126*X80340Y56318D02*X82500D01*
X80340Y57128D02*Y56048D01*
Y57128D02*X80610Y57398D01*
X81150D01*
X81420Y57128D02*X81150Y57398D01*
X81420Y57128D02*Y56318D01*
X81690Y58316D02*X82500D01*
X81690D02*X81420Y58586D01*
Y59126D02*Y58586D01*
Y58046D02*X81690Y58316D01*
Y59774D02*X82230D01*
X81690D02*X81420Y60044D01*
Y60584D02*Y60044D01*
Y60584D02*X81690Y60854D01*
X82230D01*
X82500Y60584D02*X82230Y60854D01*
X82500Y60584D02*Y60044D01*
X82230Y59774D02*X82500Y60044D01*
X80340Y61502D02*X82500D01*
X82230D02*X82500Y61772D01*
Y62312D02*Y61772D01*
Y62312D02*X82230Y62582D01*
X81690D02*X82230D01*
X81420Y62312D02*X81690Y62582D01*
X81420Y62312D02*Y61772D01*
X81690Y61502D02*X81420Y61772D01*
X82500Y64310D02*Y63500D01*
X82230Y63230D02*X82500Y63500D01*
X81690Y63230D02*X82230D01*
X81690D02*X81420Y63500D01*
Y64040D02*Y63500D01*
Y64040D02*X81690Y64310D01*
X81960D02*Y63230D01*
X81690Y64310D02*X81960D01*
G54D111*X83500Y64500D02*Y54800D01*
G54D127*X83885Y68461D02*X84150Y68725D01*
Y69256D02*Y68725D01*
X83885Y69521D02*X84150Y69256D01*
X82295Y69521D02*X83885D01*
X82030Y69256D02*X82295Y69521D01*
X82030Y69256D02*Y68725D01*
X82295Y68461D01*
X83885D01*
X82030Y67825D02*X84150D01*
X82030Y66500D02*X84150Y67825D01*
X82030Y66500D02*X84150D01*
X78530Y69060D02*Y68370D01*
X78901Y68000D01*
X80279D01*
X80650Y68370D01*
Y69060D02*Y68370D01*
G54D126*X85040Y69578D02*Y68875D01*
X85418Y68498D01*
X86822D01*
X87200Y68875D01*
Y69578D02*Y68875D01*
X85040Y67850D02*X87200D01*
X85040Y66500D02*X87200Y67850D01*
X85040Y66500D02*X87200D01*
G54D111*X86000Y73500D02*Y70500D01*
X80000Y73500D02*Y70500D01*
X83000Y73500D02*Y70500D01*
X80000D02*X88500D01*
Y64500D01*
X83500D02*X88500D01*
X76500Y47000D02*X90500D01*
Y78000D02*Y47000D01*
X76500Y78000D02*X90500D01*
X76500D02*Y47000D01*
X96800Y54800D02*Y49300D01*
X98300D01*
Y54800D02*Y53300D01*
Y51300D02*X99300Y52300D01*
X98300Y51300D02*Y49300D01*
X92300Y52300D02*X96800D01*
Y54800D02*X98300D01*
G54D126*X94840Y56318D02*X97000D01*
X94840Y57128D02*Y56048D01*
Y57128D02*X95110Y57398D01*
X95650D01*
X95920Y57128D02*X95650Y57398D01*
X95920Y57128D02*Y56318D01*
X96190Y58316D02*X97000D01*
X96190D02*X95920Y58586D01*
Y59126D02*Y58586D01*
Y58046D02*X96190Y58316D01*
Y59774D02*X96730D01*
X96190D02*X95920Y60044D01*
Y60584D02*Y60044D01*
Y60584D02*X96190Y60854D01*
X96730D01*
X97000Y60584D02*X96730Y60854D01*
X97000Y60584D02*Y60044D01*
X96730Y59774D02*X97000Y60044D01*
X94840Y61502D02*X97000D01*
X96730D02*X97000Y61772D01*
Y62312D02*Y61772D01*
Y62312D02*X96730Y62582D01*
X96190D02*X96730D01*
X95920Y62312D02*X96190Y62582D01*
X95920Y62312D02*Y61772D01*
X96190Y61502D02*X95920Y61772D01*
X97000Y64310D02*Y63500D01*
X96730Y63230D02*X97000Y63500D01*
X96190Y63230D02*X96730D01*
X96190D02*X95920Y63500D01*
Y64040D02*Y63500D01*
Y64040D02*X96190Y64310D01*
X96460D02*Y63230D01*
X96190Y64310D02*X96460D01*
G54D111*X98000Y64500D02*Y54800D01*
G54D127*X98385Y68461D02*X98650Y68725D01*
Y69256D02*Y68725D01*
X98385Y69521D02*X98650Y69256D01*
X96795Y69521D02*X98385D01*
X96530Y69256D02*X96795Y69521D01*
X96530Y69256D02*Y68725D01*
X96795Y68461D01*
X98385D01*
X96530Y67825D02*X98650D01*
X96530Y66500D02*X98650Y67825D01*
X96530Y66500D02*X98650D01*
X93030Y69060D02*Y68370D01*
X93401Y68000D01*
X94779D01*
X95150Y68370D01*
Y69060D02*Y68370D01*
G54D126*X99540Y69578D02*Y68875D01*
X99918Y68498D01*
X101322D01*
X101700Y68875D01*
Y69578D02*Y68875D01*
X99540Y67850D02*X101700D01*
X99540Y66500D02*X101700Y67850D01*
X99540Y66500D02*X101700D01*
G54D111*X100500Y73500D02*Y70500D01*
X94500Y73500D02*Y70500D01*
X97500Y73500D02*Y70500D01*
X94500D02*X103000D01*
Y64500D01*
X98000D02*X103000D01*
X91000Y47000D02*X105000D01*
Y78000D02*Y47000D01*
X91000Y78000D02*X105000D01*
X91000D02*Y47000D01*
X112800Y54800D02*Y49300D01*
X114300D01*
Y54800D02*Y53300D01*
Y51300D02*X115300Y52300D01*
X114300Y51300D02*Y49300D01*
X108300Y52300D02*X112800D01*
Y54800D02*X114300D01*
G54D126*X110840Y56318D02*X113000D01*
X110840Y57128D02*Y56048D01*
Y57128D02*X111110Y57398D01*
X111650D01*
X111920Y57128D02*X111650Y57398D01*
X111920Y57128D02*Y56318D01*
X112190Y58316D02*X113000D01*
X112190D02*X111920Y58586D01*
Y59126D02*Y58586D01*
Y58046D02*X112190Y58316D01*
Y59774D02*X112730D01*
X112190D02*X111920Y60044D01*
Y60584D02*Y60044D01*
Y60584D02*X112190Y60854D01*
X112730D01*
X113000Y60584D02*X112730Y60854D01*
X113000Y60584D02*Y60044D01*
X112730Y59774D02*X113000Y60044D01*
X110840Y61502D02*X113000D01*
X112730D02*X113000Y61772D01*
Y62312D02*Y61772D01*
Y62312D02*X112730Y62582D01*
X112190D02*X112730D01*
X111920Y62312D02*X112190Y62582D01*
X111920Y62312D02*Y61772D01*
X112190Y61502D02*X111920Y61772D01*
X113000Y64310D02*Y63500D01*
X112730Y63230D02*X113000Y63500D01*
X112190Y63230D02*X112730D01*
X112190D02*X111920Y63500D01*
Y64040D02*Y63500D01*
Y64040D02*X112190Y64310D01*
X112460D02*Y63230D01*
X112190Y64310D02*X112460D01*
G54D111*X114000Y64500D02*Y54800D01*
G54D127*X114385Y68461D02*X114650Y68725D01*
Y69256D02*Y68725D01*
X114385Y69521D02*X114650Y69256D01*
X112795Y69521D02*X114385D01*
X112530Y69256D02*X112795Y69521D01*
X112530Y69256D02*Y68725D01*
X112795Y68461D01*
X114385D01*
X112530Y67825D02*X114650D01*
X112530Y66500D02*X114650Y67825D01*
X112530Y66500D02*X114650D01*
X109030Y69060D02*Y68370D01*
X109401Y68000D01*
X110779D01*
X111150Y68370D01*
Y69060D02*Y68370D01*
G54D126*X115540Y69578D02*Y68875D01*
X115918Y68498D01*
X117322D01*
X117700Y68875D01*
Y69578D02*Y68875D01*
X115540Y67850D02*X117700D01*
X115540Y66500D02*X117700Y67850D01*
X115540Y66500D02*X117700D01*
G54D111*X116500Y73500D02*Y70500D01*
X110500Y73500D02*Y70500D01*
X113500Y73500D02*Y70500D01*
X110500D02*X119000D01*
Y64500D01*
X114000D02*X119000D01*
X107000Y47000D02*X121000D01*
Y78000D02*Y47000D01*
X107000Y78000D02*X121000D01*
X107000D02*Y47000D01*
X127300Y54800D02*Y49300D01*
X128800D01*
Y54800D02*Y53300D01*
Y51300D02*X129800Y52300D01*
X128800Y51300D02*Y49300D01*
X122800Y52300D02*X127300D01*
Y54800D02*X128800D01*
G54D126*X125340Y56318D02*X127500D01*
X125340Y57128D02*Y56048D01*
Y57128D02*X125610Y57398D01*
X126150D01*
X126420Y57128D02*X126150Y57398D01*
X126420Y57128D02*Y56318D01*
X126690Y58316D02*X127500D01*
X126690D02*X126420Y58586D01*
Y59126D02*Y58586D01*
Y58046D02*X126690Y58316D01*
Y59774D02*X127230D01*
X126690D02*X126420Y60044D01*
Y60584D02*Y60044D01*
Y60584D02*X126690Y60854D01*
X127230D01*
X127500Y60584D02*X127230Y60854D01*
X127500Y60584D02*Y60044D01*
X127230Y59774D02*X127500Y60044D01*
X125340Y61502D02*X127500D01*
X127230D02*X127500Y61772D01*
Y62312D02*Y61772D01*
Y62312D02*X127230Y62582D01*
X126690D02*X127230D01*
X126420Y62312D02*X126690Y62582D01*
X126420Y62312D02*Y61772D01*
X126690Y61502D02*X126420Y61772D01*
X127500Y64310D02*Y63500D01*
X127230Y63230D02*X127500Y63500D01*
X126690Y63230D02*X127230D01*
X126690D02*X126420Y63500D01*
Y64040D02*Y63500D01*
Y64040D02*X126690Y64310D01*
X126960D02*Y63230D01*
X126690Y64310D02*X126960D01*
G54D111*X128500Y64500D02*Y54800D01*
G54D127*X128885Y68461D02*X129150Y68725D01*
Y69256D02*Y68725D01*
X128885Y69521D02*X129150Y69256D01*
X127295Y69521D02*X128885D01*
X127030Y69256D02*X127295Y69521D01*
X127030Y69256D02*Y68725D01*
X127295Y68461D01*
X128885D01*
X127030Y67825D02*X129150D01*
X127030Y66500D02*X129150Y67825D01*
X127030Y66500D02*X129150D01*
X123530Y69060D02*Y68370D01*
X123901Y68000D01*
X125279D01*
X125650Y68370D01*
Y69060D02*Y68370D01*
G54D126*X130040Y69578D02*Y68875D01*
X130418Y68498D01*
X131822D01*
X132200Y68875D01*
Y69578D02*Y68875D01*
X130040Y67850D02*X132200D01*
X130040Y66500D02*X132200Y67850D01*
X130040Y66500D02*X132200D01*
G54D111*X131000Y73500D02*Y70500D01*
X125000Y73500D02*Y70500D01*
X128000Y73500D02*Y70500D01*
X125000D02*X133500D01*
Y64500D01*
X128500D02*X133500D01*
X121500Y47000D02*X135500D01*
Y78000D02*Y47000D01*
X121500Y78000D02*X135500D01*
X121500D02*Y47000D01*
G54D125*X91457Y144980D02*Y141043D01*
X95000Y137500D01*
X91457Y145500D02*X96449D01*
X100906Y141437D02*X100512D01*
X96449Y145500D02*X100512Y141437D01*
X105957Y144980D02*Y141043D01*
X109500Y137500D01*
X105957Y145500D02*X110949D01*
X115406Y141437D02*X115012D01*
X110949Y145500D02*X115012Y141437D01*
X120457Y144980D02*Y141043D01*
X124000Y137500D01*
X120457Y145500D02*X125449D01*
X129906Y141437D02*X129512D01*
X125449Y145500D02*X129512Y141437D01*
X64543Y145043D02*X68480D01*
X64543D02*X61000Y141500D01*
X69000Y145043D02*Y140051D01*
X64937Y135988D02*Y135594D01*
X69000Y140051D02*X64937Y135988D01*
X64543Y159543D02*X68480D01*
X64543D02*X61000Y156000D01*
X69000Y159543D02*Y154551D01*
X64937Y150488D02*Y150094D01*
X69000Y154551D02*X64937Y150488D01*
X64543Y174043D02*X68480D01*
X64543D02*X61000Y170500D01*
X69000Y174043D02*Y169051D01*
X64937Y164988D02*Y164594D01*
X69000Y169051D02*X64937Y164988D01*
G54D119*X260890Y205160D02*Y204728D01*
Y205160D02*X262780D01*
X263050Y204890D02*X262780Y205160D01*
X263050Y204890D02*Y204620D01*
X262780Y204350D02*X263050Y204620D01*
X262510Y204350D02*X262780D01*
X261322Y205808D02*X260890Y206240D01*
X263050D01*
Y206618D02*Y205808D01*
G54D112*X90570Y176380D02*X91186D01*
Y173685D01*
X90801Y173300D02*X91186Y173685D01*
X90416Y173300D02*X90801D01*
X90031Y173685D02*X90416Y173300D01*
X90031Y174070D02*Y173685D01*
X92110Y175995D02*X92495Y176380D01*
X93650D01*
X94035Y175995D01*
Y175225D01*
X92110Y173300D02*X94035Y175225D01*
X92110Y173300D02*X94035D01*
X100570Y176380D02*X101186D01*
Y173685D01*
X100801Y173300D02*X101186Y173685D01*
X100416Y173300D02*X100801D01*
X100031Y173685D02*X100416Y173300D01*
X100031Y174070D02*Y173685D01*
X102110Y175995D02*X102495Y176380D01*
X103265D01*
X103650Y175995D01*
X103265Y173300D02*X103650Y173685D01*
X102495Y173300D02*X103265D01*
X102110Y173685D02*X102495Y173300D01*
Y174994D02*X103265D01*
X103650Y175995D02*Y175379D01*
Y174609D02*Y173685D01*
Y174609D02*X103265Y174994D01*
X103650Y175379D02*X103265Y174994D01*
X110570Y176380D02*X111186D01*
Y173685D01*
X110801Y173300D02*X111186Y173685D01*
X110416Y173300D02*X110801D01*
X110031Y173685D02*X110416Y173300D01*
X110031Y174070D02*Y173685D01*
X112110Y174455D02*X113650Y176380D01*
X112110Y174455D02*X114035D01*
X113650Y176380D02*Y173300D01*
M02*
