M48
INCH
T91C0.118
T90C0.025
T89C0.038
T88C0.010
T87C0.030
T86C0.049
T85C0.079
T84C0.020
%
T88
X005450Y023450
X005750Y023150
X006050Y022800
X006850Y023450
X007150Y023150
X007650Y023700
X007950Y023900
X007950Y022800
X008000Y007550
X008300Y007550
X008600Y007550
X008700Y016700
X008700Y015700
X008850Y016450
X008900Y015450
X009020Y017100
X009050Y016200
X009250Y023100
X009420Y017100
X009450Y016450
X009450Y015950
X009450Y007550
X009550Y023350
X009750Y007550
X009800Y016200
X009850Y022800
X009900Y016700
X010020Y017100
X010050Y007550
X010420Y017100
X011020Y017100
X011050Y007550
X011300Y015950
X011350Y007550
X011420Y017100
X011450Y015700
X011600Y015450
X011650Y007550
X012500Y007550
X012800Y007550
X013100Y007550
X015050Y007550
X015350Y007550
X015650Y007550
X016050Y006550
X016350Y006550
X016650Y006550
X017300Y006750
X017550Y006550
X017850Y006550
X018100Y006750
X018350Y021850
X018550Y007600
X018600Y022150
X018850Y007600
X018900Y021250
X019100Y022450
X019300Y022750
X019550Y024050
X019650Y006950
X019950Y006950
X020150Y006600
X020450Y006600
X020550Y015100
X021600Y006550
X021900Y006550
X022300Y021250
X022450Y022750
X022550Y016700
X023100Y022450
X023300Y021850
X023450Y024350
X023450Y023300
X023600Y022150
X023650Y024650
X023650Y024050
X023650Y023600
X023650Y023000
X025850Y024900
X026100Y025150
X026250Y023300
X026350Y025400
X026450Y025650
X026500Y025150
X026500Y024350
X026550Y024050
X026550Y023000
X026600Y024900
X026600Y024600
X027900Y025650
X028000Y025400
T84
X006494Y016459
X006494Y015009
X006494Y013559
X008641Y014144
X010091Y014144
X011541Y014144
X012991Y014144
X014441Y014144
X015891Y014144
X017341Y014144
X018791Y014144
X020241Y014144
X021691Y014144
X023141Y014144
X024591Y014144
X026041Y014144
X027491Y014144
X028941Y014144
T90
X018450Y027350
X018650Y027800
X018850Y028250
X018900Y026900
X019800Y017050
X026550Y026000
X027000Y026450
X027500Y026900
X027650Y027350
X027750Y026000
X027800Y027800
X028000Y028250
X028000Y026450
T87
X006809Y016814
X006809Y015364
X006809Y013914
X008286Y014459
X009736Y014459
X011186Y014459
X012636Y014459
X014086Y014459
X015536Y014459
X016986Y014459
X018436Y014459
X019886Y014459
X021336Y014459
X022786Y014459
X024236Y014459
X025686Y014459
X027136Y014459
X028586Y014459
T89
X018500Y038400
X018500Y037400
X018500Y030000
X018500Y029000
X019500Y038400
X019500Y037400
X019500Y030000
X019500Y029000
X020500Y038400
X020500Y037400
X020500Y030000
X020500Y029000
X021500Y038400
X021500Y037400
X021500Y030000
X021500Y029000
X022500Y038400
X022500Y037400
X022500Y030000
X022500Y029000
X023500Y038400
X023500Y037400
X023500Y030000
X023500Y029000
X024500Y038400
X024500Y037400
X024500Y030000
X024500Y029000
X025500Y038400
X025500Y037400
X025500Y030000
X025500Y029000
X026500Y038400
X026500Y037400
X026500Y030000
X026500Y029000
X027500Y038400
X027500Y037400
X027500Y030000
X027500Y029000
T86
X006848Y017404
X006848Y015954
X006848Y014504
X007696Y014498
X009146Y014498
X010596Y014498
X012046Y014498
X013496Y014498
X014946Y014498
X016396Y014498
X017846Y014498
X019296Y014498
X020746Y014498
X022196Y014498
X023646Y014498
X025096Y014498
X026546Y014498
X027996Y014498
T85
X006100Y017050
X006100Y015600
X006100Y014150
X008050Y013750
X009500Y013750
X010950Y013750
X012400Y013750
X013850Y013750
X015300Y013750
X016750Y013750
X018200Y013750
X019650Y013750
X021100Y013750
X022550Y013750
X024000Y013750
X025450Y013750
X026900Y013750
X028350Y013750
T91
X013000Y028500
X013000Y024500
X023500Y019000
M30
