G04 start of page 8 for group -4063 idx -4063 *
G04 Title: (unknown), componentmask *
G04 Creator: pcb 4.2.0 *
G04 CreationDate: Sun Sep  6 18:52:41 2020 UTC *
G04 For: commonadmin *
G04 Format: Gerber/RS-274X *
G04 PCB-Dimensions (mil): 1250.00 1500.00 *
G04 PCB-Coordinate-Origin: lower left *
%MOIN*%
%FSLAX25Y25*%
%LNTOPMASK*%
%ADD86C,0.1162*%
%ADD85C,0.0572*%
%ADD84C,0.0454*%
%ADD83C,0.0532*%
%ADD82C,0.0729*%
%ADD81C,0.1005*%
G54D81*X20000Y20000D03*
G54D82*X16457Y27480D03*
G54D83*X22362Y27087D03*
G54D84*X25906Y23937D03*
G54D81*X108000Y20000D03*
G54D82*X104457Y27480D03*
G54D83*X110362Y27087D03*
G54D84*X113906Y23937D03*
G54D81*X72000Y42500D03*
X88000Y40000D03*
G54D84*X93906Y43937D03*
G54D81*X56000Y42500D03*
X40000Y40000D03*
G54D84*X45906Y43937D03*
G54D83*X74362Y49587D03*
G54D84*X77906Y46437D03*
G54D82*X84457Y47480D03*
G54D83*X90362Y47087D03*
G54D82*X68457Y49980D03*
X52457D03*
G54D83*X58362Y49587D03*
G54D84*X61906Y46437D03*
G54D82*X36457Y47480D03*
G54D83*X42362Y47087D03*
G54D85*X82035Y71020D03*
X92075D03*
G54D82*X89713Y107004D03*
X39319D03*
G54D86*X38531Y93500D03*
G54D85*X36957Y71020D03*
X46996D03*
G54D86*X90500Y93500D03*
G54D85*X74555Y97043D03*
X78571Y89957D03*
X66524Y97043D03*
X58492D03*
X50461D03*
X62508Y89957D03*
X54476D03*
X70539D03*
M02*
