G04 start of page 10 for group -4079 idx -4079 *
G04 Title: (unknown), topsilk *
G04 Creator: pcb 4.2.0 *
G04 CreationDate: Sun Aug 30 21:45:36 2020 UTC *
G04 For: commonadmin *
G04 Format: Gerber/RS-274X *
G04 PCB-Dimensions (mil): 11000.00 7000.00 *
G04 PCB-Coordinate-Origin: lower left *
%MOIN*%
%FSLAX25Y25*%
%LNTOPSILK*%
%ADD98C,0.0100*%
%ADD97C,0.0250*%
%ADD96C,0.0040*%
%ADD95C,0.0030*%
%ADD94C,0.0060*%
G54D94*X32672Y664543D02*X31098Y662969D01*
X32672D02*X31098Y664543D01*
G54D95*X61205Y643500D02*X61580Y643875D01*
X60605Y643500D02*X61205D01*
X60605D02*X60080Y644025D01*
Y644475D02*Y644025D01*
Y644475D02*X60605Y645000D01*
X61205D01*
X61580Y644625D02*X61205Y645000D01*
X61580Y644625D02*Y643875D01*
X59555Y643500D02*X60080Y644025D01*
X58955Y643500D02*X59555D01*
X58955D02*X58580Y643875D01*
Y644625D02*Y643875D01*
Y644625D02*X58955Y645000D01*
X59555D01*
X60080Y644475D02*X59555Y645000D01*
X61205Y645900D02*X58955Y648150D01*
X61580Y650550D02*Y649050D01*
Y650550D02*X61205Y650925D01*
X60305D02*X61205D01*
X59930Y650550D02*X60305Y650925D01*
X59930Y650550D02*Y649425D01*
X58580D02*X61580D01*
X58580Y650550D02*Y649050D01*
Y650550D02*X58955Y650925D01*
X59555D01*
X59930Y650550D02*X59555Y650925D01*
X60455Y652200D02*X61580D01*
X60455D02*X60080Y652575D01*
Y653325D02*Y652575D01*
Y651825D02*X60455Y652200D01*
X56698Y668718D02*X53698Y670218D01*
Y668343D01*
X56323Y671118D02*X54073Y673368D01*
X53698Y674268D02*X55198D01*
X56698Y674643D01*
X55198Y675393D01*
X56698Y676143D01*
X55198Y676518D01*
X53698D02*X55198D01*
X56698Y678918D02*Y677418D01*
Y678918D02*X56323Y679293D01*
X55423D02*X56323D01*
X55048Y678918D02*X55423Y679293D01*
X55048Y678918D02*Y677793D01*
X53698D02*X56698D01*
X53698Y678918D02*Y677418D01*
Y678918D02*X54073Y679293D01*
X54673D01*
X55048Y678918D02*X54673Y679293D01*
X55573Y680568D02*X56698D01*
X55573D02*X55198Y680943D01*
Y681693D02*Y680943D01*
Y680193D02*X55573Y680568D01*
X51316Y644625D02*X51691Y645000D01*
X51316Y644625D02*Y643875D01*
X51691Y643500D02*X51316Y643875D01*
X51691Y643500D02*X53941D01*
X54316Y643875D01*
X52666Y644625D02*X53041Y645000D01*
X52666Y644625D02*Y643500D01*
X54316Y644625D02*Y643875D01*
Y644625D02*X53941Y645000D01*
X53041D02*X53941D01*
Y645900D02*X51691Y648150D01*
Y649050D02*X53941D01*
X51691D02*X51316Y649425D01*
Y650175D02*Y649425D01*
Y650175D02*X51691Y650550D01*
X53941D01*
X54316Y650175D02*X53941Y650550D01*
X54316Y650175D02*Y649425D01*
X53941Y649050D02*X54316Y649425D01*
X45647Y669843D02*Y668343D01*
X47147D01*
X46772Y668718D01*
Y669468D02*Y668718D01*
Y669468D02*X47147Y669843D01*
X48272D01*
X48647Y669468D02*X48272Y669843D01*
X48647Y669468D02*Y668718D01*
X48272Y668343D02*X48647Y668718D01*
X48272Y670743D02*X46022Y672993D01*
X45647Y673893D02*X47147D01*
X48647Y674268D01*
X47147Y675018D01*
X48647Y675768D01*
X47147Y676143D01*
X45647D02*X47147D01*
X48647Y678543D02*Y677043D01*
Y678543D02*X48272Y678918D01*
X47372D02*X48272D01*
X46997Y678543D02*X47372Y678918D01*
X46997Y678543D02*Y677418D01*
X45647D02*X48647D01*
X45647Y678543D02*Y677043D01*
Y678543D02*X46022Y678918D01*
X46622D01*
X46997Y678543D02*X46622Y678918D01*
X45647Y679818D02*X48272D01*
X48647Y680193D01*
X43034Y643106D02*X41159Y644606D01*
X43034Y644981D02*Y643106D01*
X41159Y644606D02*X44159D01*
X43784Y645881D02*X41534Y648131D01*
X44159Y650531D02*Y649031D01*
Y650531D02*X43784Y650906D01*
X42884D02*X43784D01*
X42509Y650531D02*X42884Y650906D01*
X42509Y650531D02*Y649406D01*
X41159D02*X44159D01*
X41159Y650531D02*Y649031D01*
Y650531D02*X41534Y650906D01*
X42134D01*
X42509Y650531D02*X42134Y650906D01*
X41159Y651806D02*X43784D01*
X44159Y652181D01*
X38758Y668343D02*X38383Y668718D01*
Y669468D02*Y668718D01*
Y669468D02*X38758Y669843D01*
X41383Y669468D02*X41008Y669843D01*
X41383Y669468D02*Y668718D01*
X41008Y668343D02*X41383Y668718D01*
X39733Y669468D02*Y668718D01*
X38758Y669843D02*X39358D01*
X40108D02*X41008D01*
X40108D02*X39733Y669468D01*
X39358Y669843D02*X39733Y669468D01*
X41008Y670743D02*X38758Y672993D01*
X38383Y673893D02*X39883D01*
X41383Y674268D01*
X39883Y675018D01*
X41383Y675768D01*
X39883Y676143D01*
X38383D02*X39883D01*
X38758Y677043D02*X41008D01*
X38758D02*X38383Y677418D01*
Y678168D02*Y677418D01*
Y678168D02*X38758Y678543D01*
X41008D01*
X41383Y678168D02*X41008Y678543D01*
X41383Y678168D02*Y677418D01*
X41008Y677043D02*X41383Y677418D01*
X33876Y643106D02*X33501Y643481D01*
Y644606D02*Y643481D01*
Y644606D02*X33876Y644981D01*
X34626D01*
X36501Y643106D02*X34626Y644981D01*
X36501D02*Y643106D01*
X36126Y645881D02*X33876Y648131D01*
X33501Y650531D02*X33876Y650906D01*
X33501Y650531D02*Y649406D01*
X33876Y649031D02*X33501Y649406D01*
X33876Y649031D02*X36126D01*
X36501Y649406D01*
Y650531D02*Y649406D01*
Y650531D02*X36126Y650906D01*
X35376D02*X36126D01*
X35001Y650531D02*X35376Y650906D01*
X35001Y650531D02*Y649781D01*
X31030Y668283D02*X30430Y668883D01*
X33430D01*
Y669408D02*Y668283D01*
X33055Y670308D02*X30805Y672558D01*
X30430Y673458D02*X31930D01*
X33430Y673833D01*
X31930Y674583D01*
X33430Y675333D01*
X31930Y675708D01*
X30430D02*X31930D01*
X30430Y678108D02*X30805Y678483D01*
X30430Y678108D02*Y676983D01*
X30805Y676608D02*X30430Y676983D01*
X30805Y676608D02*X33055D01*
X33430Y676983D01*
Y678108D02*Y676983D01*
Y678108D02*X33055Y678483D01*
X32305D02*X33055D01*
X31930Y678108D02*X32305Y678483D01*
X31930Y678108D02*Y677358D01*
X25011Y643600D02*X26511D01*
X25761Y646600D02*Y643600D01*
X22611D02*X24111D01*
Y645100D02*Y643600D01*
Y645100D02*X23736Y644725D01*
X22986D02*X23736D01*
X22986D02*X22611Y645100D01*
Y646225D02*Y645100D01*
X22986Y646600D02*X22611Y646225D01*
X22986Y646600D02*X23736D01*
X24111Y646225D02*X23736Y646600D01*
X20586Y643600D02*X20211Y643975D01*
X20586Y643600D02*X21336D01*
X21711Y643975D02*X21336Y643600D01*
X21711Y646225D02*Y643975D01*
Y646225D02*X21336Y646600D01*
X20586Y644950D02*X20211Y645325D01*
X20586Y644950D02*X21711D01*
X20586Y646600D02*X21336D01*
X20586D02*X20211Y646225D01*
Y645325D01*
X19311Y646225D02*X18936Y646600D01*
X19311Y646225D02*Y645625D01*
X18786Y645100D01*
X18336D02*X18786D01*
X18336D02*X17811Y645625D01*
Y646225D02*Y645625D01*
X18186Y646600D02*X17811Y646225D01*
X18186Y646600D02*X18936D01*
X19311Y644575D02*X18786Y645100D01*
X19311Y644575D02*Y643975D01*
X18936Y643600D01*
X18186D02*X18936D01*
X18186D02*X17811Y643975D01*
Y644575D02*Y643975D01*
X18336Y645100D02*X17811Y644575D01*
X16911Y646600D02*Y644350D01*
X16386Y643600D01*
X15561D02*X16386D01*
X15561D02*X15036Y644350D01*
Y646600D02*Y644350D01*
Y645100D02*X16911D01*
X17575Y618935D02*X19075Y620810D01*
X17575Y618935D02*X19450D01*
X19075Y620810D02*Y617810D01*
X20350Y618185D02*X22600Y620435D01*
X23500Y617810D02*X25000D01*
X25375Y618185D01*
Y619085D02*Y618185D01*
X25000Y619460D02*X25375Y619085D01*
X23875Y619460D02*X25000D01*
X23875Y620810D02*Y617810D01*
X23500Y620810D02*X25000D01*
X25375Y620435D01*
Y619835D01*
X25000Y619460D02*X25375Y619835D01*
X26275Y620810D02*Y618185D01*
X26650Y617810D01*
G54D96*X15969Y624500D02*X16469Y624000D01*
X14969Y624500D02*X15969D01*
X14469Y624000D02*X14969Y624500D01*
X14469Y624000D02*Y623000D01*
X14969Y622500D01*
X16469Y624500D02*Y623000D01*
X16969Y622500D01*
X14969D02*X15969D01*
X16469Y623000D01*
X18669Y626500D02*Y622500D01*
X18169Y626500D02*X20169D01*
X20669Y626000D01*
Y625000D01*
X20169Y624500D02*X20669Y625000D01*
X18669Y624500D02*X20169D01*
X25969Y626500D02*Y622500D01*
Y623000D02*X26469Y622500D01*
X27469D01*
X27969Y623000D01*
Y624000D02*Y623000D01*
X27469Y624500D02*X27969Y624000D01*
X26469Y624500D02*X27469D01*
X25969Y624000D02*X26469Y624500D01*
X29669Y626500D02*Y622500D01*
X29169Y626500D02*X31169D01*
X31669Y626000D01*
Y625000D01*
X31169Y624500D02*X31669Y625000D01*
X29669Y624500D02*X31169D01*
G54D95*X33811Y623710D02*X34186Y624085D01*
X34936D01*
X35311Y623710D01*
X34936Y621085D02*X35311Y621460D01*
X34186Y621085D02*X34936D01*
X33811Y621460D02*X34186Y621085D01*
Y622735D02*X34936D01*
X35311Y623710D02*Y623110D01*
Y622360D02*Y621460D01*
Y622360D02*X34936Y622735D01*
X35311Y623110D02*X34936Y622735D01*
X36211Y621460D02*X38461Y623710D01*
X39361Y624085D02*Y622585D01*
X39736Y621085D01*
X40486Y622585D01*
X41236Y621085D01*
X41611Y622585D01*
Y624085D02*Y622585D01*
X42511Y623710D02*Y621460D01*
Y623710D02*X42886Y624085D01*
X43636D01*
X44011Y623710D01*
Y621460D01*
X43636Y621085D02*X44011Y621460D01*
X42886Y621085D02*X43636D01*
X42511Y621460D02*X42886Y621085D01*
X65811Y620822D02*X67311D01*
X65811D02*Y619322D01*
X66186Y619697D01*
X66936D01*
X67311Y619322D01*
Y618197D01*
X66936Y617822D02*X67311Y618197D01*
X66186Y617822D02*X66936D01*
X65811Y618197D02*X66186Y617822D01*
X68211Y618197D02*X70461Y620447D01*
X71361Y620822D02*Y619322D01*
X71736Y617822D01*
X72486Y619322D01*
X73236Y617822D01*
X73611Y619322D01*
Y620822D02*Y619322D01*
X74511Y617822D02*X76011D01*
X76386Y618197D01*
Y619097D02*Y618197D01*
X76011Y619472D02*X76386Y619097D01*
X74886Y619472D02*X76011D01*
X74886Y620822D02*Y617822D01*
X74511Y620822D02*X76011D01*
X76386Y620447D01*
Y619847D01*
X76011Y619472D02*X76386Y619847D01*
X77286Y620822D02*Y618197D01*
X77661Y617822D01*
G54D96*X61969Y627000D02*Y623000D01*
Y623500D02*X62469Y623000D01*
X63469D01*
X63969Y623500D01*
Y624500D02*Y623500D01*
X63469Y625000D02*X63969Y624500D01*
X62469Y625000D02*X63469D01*
X61969Y624500D02*X62469Y625000D01*
X65169Y627000D02*Y623000D01*
Y627000D02*X66669Y625000D01*
X68169Y627000D01*
Y623000D01*
X72969Y625000D02*X73469Y624500D01*
X71969Y625000D02*X72969D01*
X71469Y624500D02*X71969Y625000D01*
X71469Y624500D02*Y623500D01*
X71969Y623000D01*
X73469Y625000D02*Y623500D01*
X73969Y623000D01*
X71969D02*X72969D01*
X73469Y623500D01*
X75169Y627000D02*Y623000D01*
Y627000D02*X76669Y625000D01*
X78169Y627000D01*
Y623000D01*
G54D95*X51094Y624152D02*X51469Y623777D01*
X50344Y624152D02*X51094D01*
X49969Y623777D02*X50344Y624152D01*
X49969Y623777D02*Y621527D01*
X50344Y621152D01*
X51094Y622802D02*X51469Y622427D01*
X49969Y622802D02*X51094D01*
X50344Y621152D02*X51094D01*
X51469Y621527D01*
Y622427D02*Y621527D01*
X52369D02*X54619Y623777D01*
X55519D02*Y621527D01*
Y623777D02*X55894Y624152D01*
X56644D01*
X57019Y623777D01*
Y621527D01*
X56644Y621152D02*X57019Y621527D01*
X55894Y621152D02*X56644D01*
X55519Y621527D02*X55894Y621152D01*
X49969Y625264D02*X50344Y624889D01*
X49969Y625864D02*Y625264D01*
Y625864D02*X50494Y626389D01*
X50944D01*
X51469Y625864D01*
Y625264D01*
X51094Y624889D02*X51469Y625264D01*
X50344Y624889D02*X51094D01*
X49969Y626914D02*X50494Y626389D01*
X49969Y627514D02*Y626914D01*
Y627514D02*X50344Y627889D01*
X51094D01*
X51469Y627514D01*
Y626914D01*
X50944Y626389D02*X51469Y626914D01*
X52369Y625264D02*X54619Y627514D01*
X55519Y624889D02*X57019D01*
X57394Y625264D01*
Y626164D02*Y625264D01*
X57019Y626539D02*X57394Y626164D01*
X55894Y626539D02*X57019D01*
X55894Y627889D02*Y624889D01*
X55519Y627889D02*X57019D01*
X57394Y627514D01*
Y626914D01*
X57019Y626539D02*X57394Y626914D01*
X58669Y626014D02*Y624889D01*
Y626014D02*X59044Y626389D01*
X59794D01*
X58294D02*X58669Y626014D01*
X33686Y624770D02*X35186Y627770D01*
X33311D02*X35186D01*
X36086Y625145D02*X38336Y627395D01*
X39236Y627770D02*Y626270D01*
X39611Y624770D01*
X40361Y626270D01*
X41111Y624770D01*
X41486Y626270D01*
Y627770D02*Y626270D01*
X42386Y624770D02*X43886D01*
X44261Y625145D01*
Y626045D02*Y625145D01*
X43886Y626420D02*X44261Y626045D01*
X42761Y626420D02*X43886D01*
X42761Y627770D02*Y624770D01*
X42386Y627770D02*X43886D01*
X44261Y627395D01*
Y626795D01*
X43886Y626420D02*X44261Y626795D01*
X45536Y625895D02*Y624770D01*
Y625895D02*X45911Y626270D01*
X46661D01*
X45161D02*X45536Y625895D01*
G54D97*X49925Y616480D02*Y612543D01*
X53469Y609000D01*
X49925Y617000D02*X54917D01*
X59374Y612937D02*X58980D01*
X54917Y617000D02*X58980Y612937D01*
X65925Y613980D02*Y610043D01*
X69469Y606500D01*
X65925Y614500D02*X70917D01*
X75374Y610437D02*X74980D01*
X70917Y614500D02*X74980Y610437D01*
X33925Y616480D02*Y612543D01*
X37469Y609000D01*
X33925Y617000D02*X38917D01*
X43374Y612937D02*X42980D01*
X38917Y617000D02*X42980Y612937D01*
X17925Y613980D02*Y610043D01*
X21469Y606500D01*
X17925Y614500D02*X22917D01*
X27374Y610437D02*X26980D01*
X22917Y614500D02*X26980Y610437D01*
G54D94*X69213Y637520D02*X70000D01*
X67047D02*X67835D01*
Y638701D02*Y636339D01*
X69213Y638504D02*Y636535D01*
X68228Y637520D02*X69213Y638504D01*
Y636535D02*X68228Y637520D01*
X23917Y636461D02*X22933Y637445D01*
X23917Y638429D01*
Y636461D01*
X22539Y638626D02*Y636264D01*
X21752Y637445D02*X22539D01*
X23917D02*X24705D01*
G54D98*X32008Y663543D02*Y656457D01*
X59961Y663543D02*Y656457D01*
G54D94*X24528Y663543D02*X67638D01*
X24528Y656457D02*X67638D01*
X45197Y660000D02*X46772D01*
X45984Y660787D02*Y659213D01*
X77874Y689528D02*Y687559D01*
X75906Y689528D02*X77874D01*
X14094D02*Y687559D01*
Y689528D02*X16063D01*
X77874Y632441D02*Y630472D01*
X75906D02*X77874D01*
X14094Y632441D02*Y630472D01*
X16063D01*
X28858Y665118D02*X27874Y666102D01*
X28858D02*X27874Y665118D01*
G54D96*X49469Y599500D02*X51469D01*
X51969Y600000D01*
Y601200D02*Y600000D01*
X51469Y601700D02*X51969Y601200D01*
X49969Y601700D02*X51469D01*
X49969Y603500D02*Y599500D01*
X49469Y603500D02*X51469D01*
X51969Y603000D01*
Y602200D01*
X51469Y601700D02*X51969Y602200D01*
X53169Y603500D02*Y599500D01*
X55169D01*
X56369Y602500D02*Y599500D01*
Y602500D02*X57069Y603500D01*
X58169D01*
X58869Y602500D01*
Y599500D01*
X56369Y601500D02*X58869D01*
X60769Y599500D02*X62069D01*
X60069Y600200D02*X60769Y599500D01*
X60069Y602800D02*Y600200D01*
Y602800D02*X60769Y603500D01*
X62069D01*
X63269D02*Y599500D01*
Y601500D02*X65269Y603500D01*
X63269Y601500D02*X65269Y599500D01*
X66469Y601000D02*X68469D01*
X68969Y600500D01*
Y599500D01*
X68469Y599000D02*X68969Y599500D01*
X66969Y599000D02*X68469D01*
X66969Y601000D02*Y597000D01*
X67769Y599000D02*X68969Y597000D01*
X70169Y599200D02*X71669D01*
X70169Y597000D02*X72169D01*
X70169Y601000D02*Y597000D01*
Y601000D02*X72169D01*
X73869D02*Y597000D01*
X75169Y601000D02*X75869Y600300D01*
Y597700D01*
X75169Y597000D02*X75869Y597700D01*
X73369Y597000D02*X75169D01*
X73369Y601000D02*X75169D01*
X29469Y603500D02*X29969Y603000D01*
X27969Y603500D02*X29469D01*
X27469Y603000D02*X27969Y603500D01*
X27469Y603000D02*Y600000D01*
X27969Y599500D01*
X29469D01*
X29969Y600000D01*
Y601000D02*Y600000D01*
X29469Y601500D02*X29969Y601000D01*
X28469Y601500D02*X29469D01*
X31169Y603500D02*X33169D01*
X33669Y603000D01*
Y602000D01*
X33169Y601500D02*X33669Y602000D01*
X31669Y601500D02*X33169D01*
X31669Y603500D02*Y599500D01*
X32469Y601500D02*X33669Y599500D01*
X34869Y601700D02*X36369D01*
X34869Y599500D02*X36869D01*
X34869Y603500D02*Y599500D01*
Y603500D02*X36869D01*
X38069Y601700D02*X39569D01*
X38069Y599500D02*X40069D01*
X38069Y603500D02*Y599500D01*
Y603500D02*X40069D01*
X41269D02*Y599500D01*
Y603500D02*X43769Y599500D01*
Y603500D02*Y599500D01*
X14469Y597000D02*X16469D01*
X16969Y597500D01*
Y598700D02*Y597500D01*
X16469Y599200D02*X16969Y598700D01*
X14969Y599200D02*X16469D01*
X14969Y601000D02*Y597000D01*
X14469Y601000D02*X16469D01*
X16969Y600500D01*
Y599700D01*
X16469Y599200D02*X16969Y599700D01*
X18169Y601000D02*Y597000D01*
X20169D01*
X21369Y601000D02*Y597500D01*
X21869Y597000D01*
X22869D01*
X23369Y597500D01*
Y601000D02*Y597500D01*
X24569Y599200D02*X26069D01*
X24569Y597000D02*X26569D01*
X24569Y601000D02*Y597000D01*
Y601000D02*X26569D01*
X26105Y684261D02*X25605Y684761D01*
X26105Y684261D02*X27605D01*
X28105Y684761D02*X27605Y684261D01*
X28105Y685761D02*Y684761D01*
Y685761D02*X27605Y686261D01*
X26105D02*X27605D01*
X26105D02*X25605Y686761D01*
Y687761D02*Y686761D01*
X26105Y688261D02*X25605Y687761D01*
X26105Y688261D02*X27605D01*
X28105Y687761D02*X27605Y688261D01*
X22405Y684261D02*X24405D01*
X23405Y688261D02*Y684261D01*
X19705Y686061D02*X21205D01*
X19205Y688261D02*X21205D01*
Y684261D01*
X19205D02*X21205D01*
X17505Y688261D02*Y684261D01*
X16005D02*X18005D01*
X16005D02*X15505Y684761D01*
Y685761D02*Y684761D01*
X16005Y686261D02*X15505Y685761D01*
X16005Y686261D02*X17505D01*
M02*
