G04 start of page 14 for group -3984 idx -3984 *
G04 Title: (unknown), fab *
G04 Creator: pcb 4.2.0 *
G04 CreationDate: Sun Sep  6 18:52:41 2020 UTC *
G04 For: commonadmin *
G04 Format: Gerber/RS-274X *
G04 PCB-Dimensions (mil): 1250.00 1500.00 *
G04 PCB-Coordinate-Origin: lower left *
%MOIN*%
%FSLAX25Y25*%
%LNFAB*%
%ADD108C,0.0100*%
%ADD107C,0.0075*%
%ADD106C,0.0060*%
%ADD105C,0.0080*%
G54D105*X36131Y95900D02*X40931Y91100D01*
X36131D02*X40931Y95900D01*
X36931Y95100D02*X40131D01*
X36931D02*Y91900D01*
X40131D01*
Y95100D02*Y91900D01*
X88100Y95900D02*X92900Y91100D01*
X88100D02*X92900Y95900D01*
X88900Y95100D02*X92100D01*
X88900D02*Y91900D01*
X92100D01*
Y95100D02*Y91900D01*
X12600Y163650D02*X17400Y158850D01*
X12600D02*X17400Y163650D01*
X13400Y162850D02*X16600D01*
X13400D02*Y159650D01*
X16600D01*
Y162850D02*Y159650D01*
G54D106*X135000Y163500D02*X136500Y160500D01*
X138000Y163500D01*
X136500Y160500D02*Y157500D01*
X139800Y160800D02*X142050D01*
X139800Y157500D02*X142800D01*
X139800Y163500D02*Y157500D01*
Y163500D02*X142800D01*
X147600D02*X148350Y162750D01*
X145350Y163500D02*X147600D01*
X144600Y162750D02*X145350Y163500D01*
X144600Y162750D02*Y161250D01*
X145350Y160500D01*
X147600D01*
X148350Y159750D01*
Y158250D01*
X147600Y157500D02*X148350Y158250D01*
X145350Y157500D02*X147600D01*
X144600Y158250D02*X145350Y157500D01*
X98000Y162750D02*X98750Y163500D01*
X101000D01*
X101750Y162750D01*
Y161250D01*
X98000Y157500D02*X101750Y161250D01*
X98000Y157500D02*X101750D01*
X45000Y158250D02*X45750Y157500D01*
X45000Y162750D02*Y158250D01*
Y162750D02*X45750Y163500D01*
X47250D01*
X48000Y162750D01*
Y158250D01*
X47250Y157500D02*X48000Y158250D01*
X45750Y157500D02*X47250D01*
X45000Y159000D02*X48000Y162000D01*
X49800Y157500D02*X50550D01*
X52350Y158250D02*X53100Y157500D01*
X52350Y162750D02*Y158250D01*
Y162750D02*X53100Y163500D01*
X54600D01*
X55350Y162750D01*
Y158250D01*
X54600Y157500D02*X55350Y158250D01*
X53100Y157500D02*X54600D01*
X52350Y159000D02*X55350Y162000D01*
X57900Y157500D02*X60150Y160500D01*
Y162750D02*Y160500D01*
X59400Y163500D02*X60150Y162750D01*
X57900Y163500D02*X59400D01*
X57150Y162750D02*X57900Y163500D01*
X57150Y162750D02*Y161250D01*
X57900Y160500D01*
X60150D01*
X61950Y159750D02*X64950Y163500D01*
X61950Y159750D02*X65700D01*
X64950Y163500D02*Y157500D01*
X20000Y23200D02*Y16800D01*
X16800Y20000D02*X23200D01*
X18400Y21600D02*X21600D01*
X18400D02*Y18400D01*
X21600D01*
Y21600D02*Y18400D01*
X108000Y23200D02*Y16800D01*
X104800Y20000D02*X111200D01*
X106400Y21600D02*X109600D01*
X106400D02*Y18400D01*
X109600D01*
Y21600D02*Y18400D01*
X72000Y45700D02*Y39300D01*
X68800Y42500D02*X75200D01*
X70400Y44100D02*X73600D01*
X70400D02*Y40900D01*
X73600D01*
Y44100D02*Y40900D01*
X88000Y43200D02*Y36800D01*
X84800Y40000D02*X91200D01*
X86400Y41600D02*X89600D01*
X86400D02*Y38400D01*
X89600D01*
Y41600D02*Y38400D01*
X56000Y45700D02*Y39300D01*
X52800Y42500D02*X59200D01*
X54400Y44100D02*X57600D01*
X54400D02*Y40900D01*
X57600D01*
Y44100D02*Y40900D01*
X40000Y43200D02*Y36800D01*
X36800Y40000D02*X43200D01*
X38400Y41600D02*X41600D01*
X38400D02*Y38400D01*
X41600D01*
Y41600D02*Y38400D01*
X15000Y179450D02*Y173050D01*
X11800Y176250D02*X18200D01*
X13400Y177850D02*X16600D01*
X13400D02*Y174650D01*
X16600D01*
Y177850D02*Y174650D01*
X135000Y178500D02*X136500Y175500D01*
X138000Y178500D01*
X136500Y175500D02*Y172500D01*
X139800Y175800D02*X142050D01*
X139800Y172500D02*X142800D01*
X139800Y178500D02*Y172500D01*
Y178500D02*X142800D01*
X147600D02*X148350Y177750D01*
X145350Y178500D02*X147600D01*
X144600Y177750D02*X145350Y178500D01*
X144600Y177750D02*Y176250D01*
X145350Y175500D01*
X147600D01*
X148350Y174750D01*
Y173250D01*
X147600Y172500D02*X148350Y173250D01*
X145350Y172500D02*X147600D01*
X144600Y173250D02*X145350Y172500D01*
X100250Y178500D02*X101000Y177750D01*
X98750Y178500D02*X100250D01*
X98000Y177750D02*X98750Y178500D01*
X98000Y177750D02*Y173250D01*
X98750Y172500D01*
X100250Y175800D02*X101000Y175050D01*
X98000Y175800D02*X100250D01*
X98750Y172500D02*X100250D01*
X101000Y173250D01*
Y175050D02*Y173250D01*
X45000D02*X45750Y172500D01*
X45000Y177750D02*Y173250D01*
Y177750D02*X45750Y178500D01*
X47250D01*
X48000Y177750D01*
Y173250D01*
X47250Y172500D02*X48000Y173250D01*
X45750Y172500D02*X47250D01*
X45000Y174000D02*X48000Y177000D01*
X49800Y172500D02*X50550D01*
X52350Y173250D02*X53100Y172500D01*
X52350Y177750D02*Y173250D01*
Y177750D02*X53100Y178500D01*
X54600D01*
X55350Y177750D01*
Y173250D01*
X54600Y172500D02*X55350Y173250D01*
X53100Y172500D02*X54600D01*
X52350Y174000D02*X55350Y177000D01*
X57900Y172500D02*X60900Y178500D01*
X57150D02*X60900D01*
X63450Y172500D02*X65700Y175500D01*
Y177750D02*Y175500D01*
X64950Y178500D02*X65700Y177750D01*
X63450Y178500D02*X64950D01*
X62700Y177750D02*X63450Y178500D01*
X62700Y177750D02*Y176250D01*
X63450Y175500D01*
X65700D01*
X89713Y107004D02*Y103804D01*
Y107004D02*X92486Y108604D01*
X89713Y107004D02*X86939Y108604D01*
X88113Y107004D02*G75*G03X91313Y107004I1600J0D01*G01*
G75*G03X88113Y107004I-1600J0D01*G01*
X39319D02*Y103804D01*
Y107004D02*X42092Y108604D01*
X39319Y107004D02*X36546Y108604D01*
X37719Y107004D02*G75*G03X40919Y107004I1600J0D01*G01*
G75*G03X37719Y107004I-1600J0D01*G01*
X15000Y191250D02*Y188050D01*
Y191250D02*X17773Y192850D01*
X15000Y191250D02*X12227Y192850D01*
X13400Y191250D02*G75*G03X16600Y191250I1600J0D01*G01*
G75*G03X13400Y191250I-1600J0D01*G01*
X135000Y193500D02*X136500Y190500D01*
X138000Y193500D01*
X136500Y190500D02*Y187500D01*
X139800Y190800D02*X142050D01*
X139800Y187500D02*X142800D01*
X139800Y193500D02*Y187500D01*
Y193500D02*X142800D01*
X147600D02*X148350Y192750D01*
X145350Y193500D02*X147600D01*
X144600Y192750D02*X145350Y193500D01*
X144600Y192750D02*Y191250D01*
X145350Y190500D01*
X147600D01*
X148350Y189750D01*
Y188250D01*
X147600Y187500D02*X148350Y188250D01*
X145350Y187500D02*X147600D01*
X144600Y188250D02*X145350Y187500D01*
X98000Y192750D02*X98750Y193500D01*
X101000D01*
X101750Y192750D01*
Y191250D01*
X98000Y187500D02*X101750Y191250D01*
X98000Y187500D02*X101750D01*
X45000Y188250D02*X45750Y187500D01*
X45000Y192750D02*Y188250D01*
Y192750D02*X45750Y193500D01*
X47250D01*
X48000Y192750D01*
Y188250D01*
X47250Y187500D02*X48000Y188250D01*
X45750Y187500D02*X47250D01*
X45000Y189000D02*X48000Y192000D01*
X49800Y187500D02*X50550D01*
X52350Y188250D02*X53100Y187500D01*
X52350Y192750D02*Y188250D01*
Y192750D02*X53100Y193500D01*
X54600D01*
X55350Y192750D01*
Y188250D01*
X54600Y187500D02*X55350Y188250D01*
X53100Y187500D02*X54600D01*
X52350Y189000D02*X55350Y192000D01*
X57150Y193500D02*X60150D01*
X57150D02*Y190500D01*
X57900Y191250D01*
X59400D01*
X60150Y190500D01*
Y188250D01*
X59400Y187500D02*X60150Y188250D01*
X57900Y187500D02*X59400D01*
X57150Y188250D02*X57900Y187500D01*
X61950Y192300D02*X63150Y193500D01*
Y187500D01*
X61950D02*X64200D01*
X14857Y29080D02*X18057D01*
X14857D02*Y25880D01*
X18057D01*
Y29080D02*Y25880D01*
X102857Y29080D02*X106057D01*
X102857D02*Y25880D01*
X106057D01*
Y29080D02*Y25880D01*
X66857Y51580D02*X70057D01*
X66857D02*Y48380D01*
X70057D01*
Y51580D02*Y48380D01*
X82857Y49080D02*X86057D01*
X82857D02*Y45880D01*
X86057D01*
Y49080D02*Y45880D01*
X50857Y51580D02*X54057D01*
X50857D02*Y48380D01*
X54057D01*
Y51580D02*Y48380D01*
X34857Y49080D02*X38057D01*
X34857D02*Y45880D01*
X38057D01*
Y49080D02*Y45880D01*
X13400Y207850D02*X16600D01*
X13400D02*Y204650D01*
X16600D01*
Y207850D02*Y204650D01*
X135000Y208500D02*X136500Y205500D01*
X138000Y208500D01*
X136500Y205500D02*Y202500D01*
X139800Y205800D02*X142050D01*
X139800Y202500D02*X142800D01*
X139800Y208500D02*Y202500D01*
Y208500D02*X142800D01*
X147600D02*X148350Y207750D01*
X145350Y208500D02*X147600D01*
X144600Y207750D02*X145350Y208500D01*
X144600Y207750D02*Y206250D01*
X145350Y205500D01*
X147600D01*
X148350Y204750D01*
Y203250D01*
X147600Y202500D02*X148350Y203250D01*
X145350Y202500D02*X147600D01*
X144600Y203250D02*X145350Y202500D01*
X100250Y208500D02*X101000Y207750D01*
X98750Y208500D02*X100250D01*
X98000Y207750D02*X98750Y208500D01*
X98000Y207750D02*Y203250D01*
X98750Y202500D01*
X100250Y205800D02*X101000Y205050D01*
X98000Y205800D02*X100250D01*
X98750Y202500D02*X100250D01*
X101000Y203250D01*
Y205050D02*Y203250D01*
X45000D02*X45750Y202500D01*
X45000Y207750D02*Y203250D01*
Y207750D02*X45750Y208500D01*
X47250D01*
X48000Y207750D01*
Y203250D01*
X47250Y202500D02*X48000Y203250D01*
X45750Y202500D02*X47250D01*
X45000Y204000D02*X48000Y207000D01*
X49800Y202500D02*X50550D01*
X52350Y203250D02*X53100Y202500D01*
X52350Y207750D02*Y203250D01*
Y207750D02*X53100Y208500D01*
X54600D01*
X55350Y207750D01*
Y203250D01*
X54600Y202500D02*X55350Y203250D01*
X53100Y202500D02*X54600D01*
X52350Y204000D02*X55350Y207000D01*
X57150Y204750D02*X60150Y208500D01*
X57150Y204750D02*X60900D01*
X60150Y208500D02*Y202500D01*
X63450D02*X65700Y205500D01*
Y207750D02*Y205500D01*
X64950Y208500D02*X65700Y207750D01*
X63450Y208500D02*X64950D01*
X62700Y207750D02*X63450Y208500D01*
X62700Y207750D02*Y206250D01*
X63450Y205500D01*
X65700D01*
X81235Y71020D02*G75*G03X82835Y71020I800J0D01*G01*
G75*G03X81235Y71020I-800J0D01*G01*
X91275D02*G75*G03X92875Y71020I800J0D01*G01*
G75*G03X91275Y71020I-800J0D01*G01*
X65724Y97043D02*G75*G03X67324Y97043I800J0D01*G01*
G75*G03X65724Y97043I-800J0D01*G01*
X73755D02*G75*G03X75355Y97043I800J0D01*G01*
G75*G03X73755Y97043I-800J0D01*G01*
X57692D02*G75*G03X59292Y97043I800J0D01*G01*
G75*G03X57692Y97043I-800J0D01*G01*
X49661D02*G75*G03X51261Y97043I800J0D01*G01*
G75*G03X49661Y97043I-800J0D01*G01*
X61708Y89957D02*G75*G03X63308Y89957I800J0D01*G01*
G75*G03X61708Y89957I-800J0D01*G01*
X53676D02*G75*G03X55276Y89957I800J0D01*G01*
G75*G03X53676Y89957I-800J0D01*G01*
X69739D02*G75*G03X71339Y89957I800J0D01*G01*
G75*G03X69739Y89957I-800J0D01*G01*
X77771D02*G75*G03X79371Y89957I800J0D01*G01*
G75*G03X77771Y89957I-800J0D01*G01*
X36157Y71020D02*G75*G03X37757Y71020I800J0D01*G01*
G75*G03X36157Y71020I-800J0D01*G01*
X46196D02*G75*G03X47796Y71020I800J0D01*G01*
G75*G03X46196Y71020I-800J0D01*G01*
X14200Y221250D02*G75*G03X15800Y221250I800J0D01*G01*
G75*G03X14200Y221250I-800J0D01*G01*
X135000Y223500D02*X136500Y220500D01*
X138000Y223500D01*
X136500Y220500D02*Y217500D01*
X139800Y220800D02*X142050D01*
X139800Y217500D02*X142800D01*
X139800Y223500D02*Y217500D01*
Y223500D02*X142800D01*
X147600D02*X148350Y222750D01*
X145350Y223500D02*X147600D01*
X144600Y222750D02*X145350Y223500D01*
X144600Y222750D02*Y221250D01*
X145350Y220500D01*
X147600D01*
X148350Y219750D01*
Y218250D01*
X147600Y217500D02*X148350Y218250D01*
X145350Y217500D02*X147600D01*
X144600Y218250D02*X145350Y217500D01*
X98000Y222300D02*X99200Y223500D01*
Y217500D01*
X98000D02*X100250D01*
X102050Y222750D02*X102800Y223500D01*
X105050D01*
X105800Y222750D01*
Y221250D01*
X102050Y217500D02*X105800Y221250D01*
X102050Y217500D02*X105800D01*
X45000Y218250D02*X45750Y217500D01*
X45000Y222750D02*Y218250D01*
Y222750D02*X45750Y223500D01*
X47250D01*
X48000Y222750D01*
Y218250D01*
X47250Y217500D02*X48000Y218250D01*
X45750Y217500D02*X47250D01*
X45000Y219000D02*X48000Y222000D01*
X49800Y217500D02*X50550D01*
X52350Y218250D02*X53100Y217500D01*
X52350Y222750D02*Y218250D01*
Y222750D02*X53100Y223500D01*
X54600D01*
X55350Y222750D01*
Y218250D01*
X54600Y217500D02*X55350Y218250D01*
X53100Y217500D02*X54600D01*
X52350Y219000D02*X55350Y222000D01*
X57150Y222750D02*X57900Y223500D01*
X59400D01*
X60150Y222750D01*
X59400Y217500D02*X60150Y218250D01*
X57900Y217500D02*X59400D01*
X57150Y218250D02*X57900Y217500D01*
Y220800D02*X59400D01*
X60150Y222750D02*Y221550D01*
Y220050D02*Y218250D01*
Y220050D02*X59400Y220800D01*
X60150Y221550D02*X59400Y220800D01*
X61950Y223500D02*X64950D01*
X61950D02*Y220500D01*
X62700Y221250D01*
X64200D01*
X64950Y220500D01*
Y218250D01*
X64200Y217500D02*X64950Y218250D01*
X62700Y217500D02*X64200D01*
X61950Y218250D02*X62700Y217500D01*
X21162Y28287D02*X23562Y25887D01*
X21162D02*X23562Y28287D01*
X109162D02*X111562Y25887D01*
X109162D02*X111562Y28287D01*
X73162Y50787D02*X75562Y48387D01*
X73162D02*X75562Y50787D01*
X89162Y48287D02*X91562Y45887D01*
X89162D02*X91562Y48287D01*
X57162Y50787D02*X59562Y48387D01*
X57162D02*X59562Y50787D01*
X41162Y48287D02*X43562Y45887D01*
X41162D02*X43562Y48287D01*
X13800Y237450D02*X16200Y235050D01*
X13800D02*X16200Y237450D01*
X135000Y238500D02*X136500Y235500D01*
X138000Y238500D01*
X136500Y235500D02*Y232500D01*
X139800Y235800D02*X142050D01*
X139800Y232500D02*X142800D01*
X139800Y238500D02*Y232500D01*
Y238500D02*X142800D01*
X147600D02*X148350Y237750D01*
X145350Y238500D02*X147600D01*
X144600Y237750D02*X145350Y238500D01*
X144600Y237750D02*Y236250D01*
X145350Y235500D01*
X147600D01*
X148350Y234750D01*
Y233250D01*
X147600Y232500D02*X148350Y233250D01*
X145350Y232500D02*X147600D01*
X144600Y233250D02*X145350Y232500D01*
X100250Y238500D02*X101000Y237750D01*
X98750Y238500D02*X100250D01*
X98000Y237750D02*X98750Y238500D01*
X98000Y237750D02*Y233250D01*
X98750Y232500D01*
X100250Y235800D02*X101000Y235050D01*
X98000Y235800D02*X100250D01*
X98750Y232500D02*X100250D01*
X101000Y233250D01*
Y235050D02*Y233250D01*
X45000D02*X45750Y232500D01*
X45000Y237750D02*Y233250D01*
Y237750D02*X45750Y238500D01*
X47250D01*
X48000Y237750D01*
Y233250D01*
X47250Y232500D02*X48000Y233250D01*
X45750Y232500D02*X47250D01*
X45000Y234000D02*X48000Y237000D01*
X49800Y232500D02*X50550D01*
X52350Y233250D02*X53100Y232500D01*
X52350Y237750D02*Y233250D01*
Y237750D02*X53100Y238500D01*
X54600D01*
X55350Y237750D01*
Y233250D01*
X54600Y232500D02*X55350Y233250D01*
X53100Y232500D02*X54600D01*
X52350Y234000D02*X55350Y237000D01*
X57150Y237750D02*X57900Y238500D01*
X59400D01*
X60150Y237750D01*
X59400Y232500D02*X60150Y233250D01*
X57900Y232500D02*X59400D01*
X57150Y233250D02*X57900Y232500D01*
Y235800D02*X59400D01*
X60150Y237750D02*Y236550D01*
Y235050D02*Y233250D01*
Y235050D02*X59400Y235800D01*
X60150Y236550D02*X59400Y235800D01*
X61950Y233250D02*X62700Y232500D01*
X61950Y237750D02*Y233250D01*
Y237750D02*X62700Y238500D01*
X64200D01*
X64950Y237750D01*
Y233250D01*
X64200Y232500D02*X64950Y233250D01*
X62700Y232500D02*X64200D01*
X61950Y234000D02*X64950Y237000D01*
X25906Y25537D02*Y22337D01*
X24306Y23937D02*X27506D01*
X113906Y25537D02*Y22337D01*
X112306Y23937D02*X115506D01*
X77906Y48037D02*Y44837D01*
X76306Y46437D02*X79506D01*
X93906Y45537D02*Y42337D01*
X92306Y43937D02*X95506D01*
X61906Y48037D02*Y44837D01*
X60306Y46437D02*X63506D01*
X45906Y45537D02*Y42337D01*
X44306Y43937D02*X47506D01*
X15000Y252850D02*Y249650D01*
X13400Y251250D02*X16600D01*
X135000Y253500D02*X136500Y250500D01*
X138000Y253500D01*
X136500Y250500D02*Y247500D01*
X139800Y250800D02*X142050D01*
X139800Y247500D02*X142800D01*
X139800Y253500D02*Y247500D01*
Y253500D02*X142800D01*
X147600D02*X148350Y252750D01*
X145350Y253500D02*X147600D01*
X144600Y252750D02*X145350Y253500D01*
X144600Y252750D02*Y251250D01*
X145350Y250500D01*
X147600D01*
X148350Y249750D01*
Y248250D01*
X147600Y247500D02*X148350Y248250D01*
X145350Y247500D02*X147600D01*
X144600Y248250D02*X145350Y247500D01*
X100250Y253500D02*X101000Y252750D01*
X98750Y253500D02*X100250D01*
X98000Y252750D02*X98750Y253500D01*
X98000Y252750D02*Y248250D01*
X98750Y247500D01*
X100250Y250800D02*X101000Y250050D01*
X98000Y250800D02*X100250D01*
X98750Y247500D02*X100250D01*
X101000Y248250D01*
Y250050D02*Y248250D01*
X45000D02*X45750Y247500D01*
X45000Y252750D02*Y248250D01*
Y252750D02*X45750Y253500D01*
X47250D01*
X48000Y252750D01*
Y248250D01*
X47250Y247500D02*X48000Y248250D01*
X45750Y247500D02*X47250D01*
X45000Y249000D02*X48000Y252000D01*
X49800Y247500D02*X50550D01*
X52350Y248250D02*X53100Y247500D01*
X52350Y252750D02*Y248250D01*
Y252750D02*X53100Y253500D01*
X54600D01*
X55350Y252750D01*
Y248250D01*
X54600Y247500D02*X55350Y248250D01*
X53100Y247500D02*X54600D01*
X52350Y249000D02*X55350Y252000D01*
X57150Y252750D02*X57900Y253500D01*
X60150D01*
X60900Y252750D01*
Y251250D01*
X57150Y247500D02*X60900Y251250D01*
X57150Y247500D02*X60900D01*
X62700Y248250D02*X63450Y247500D01*
X62700Y252750D02*Y248250D01*
Y252750D02*X63450Y253500D01*
X64950D01*
X65700Y252750D01*
Y248250D01*
X64950Y247500D02*X65700Y248250D01*
X63450Y247500D02*X64950D01*
X62700Y249000D02*X65700Y252000D01*
X62000Y100500D02*Y98900D01*
Y100500D02*X63387Y101300D01*
X62000Y100500D02*X60613Y101300D01*
X55000Y104500D02*Y102900D01*
Y104500D02*X56387Y105300D01*
X55000Y104500D02*X53613Y105300D01*
X62500Y109500D02*Y107900D01*
Y109500D02*X63887Y110300D01*
X62500Y109500D02*X61113Y110300D01*
X15000Y266250D02*Y264650D01*
Y266250D02*X16387Y267050D01*
X15000Y266250D02*X13613Y267050D01*
X135000Y268500D02*X136500Y265500D01*
X138000Y268500D01*
X136500Y265500D02*Y262500D01*
X139800Y265800D02*X142050D01*
X139800Y262500D02*X142800D01*
X139800Y268500D02*Y262500D01*
Y268500D02*X142800D01*
X147600D02*X148350Y267750D01*
X145350Y268500D02*X147600D01*
X144600Y267750D02*X145350Y268500D01*
X144600Y267750D02*Y266250D01*
X145350Y265500D01*
X147600D01*
X148350Y264750D01*
Y263250D01*
X147600Y262500D02*X148350Y263250D01*
X145350Y262500D02*X147600D01*
X144600Y263250D02*X145350Y262500D01*
X98000Y267750D02*X98750Y268500D01*
X100250D01*
X101000Y267750D01*
X100250Y262500D02*X101000Y263250D01*
X98750Y262500D02*X100250D01*
X98000Y263250D02*X98750Y262500D01*
Y265800D02*X100250D01*
X101000Y267750D02*Y266550D01*
Y265050D02*Y263250D01*
Y265050D02*X100250Y265800D01*
X101000Y266550D02*X100250Y265800D01*
X45000Y263250D02*X45750Y262500D01*
X45000Y267750D02*Y263250D01*
Y267750D02*X45750Y268500D01*
X47250D01*
X48000Y267750D01*
Y263250D01*
X47250Y262500D02*X48000Y263250D01*
X45750Y262500D02*X47250D01*
X45000Y264000D02*X48000Y267000D01*
X49800Y262500D02*X50550D01*
X52350Y263250D02*X53100Y262500D01*
X52350Y267750D02*Y263250D01*
Y267750D02*X53100Y268500D01*
X54600D01*
X55350Y267750D01*
Y263250D01*
X54600Y262500D02*X55350Y263250D01*
X53100Y262500D02*X54600D01*
X52350Y264000D02*X55350Y267000D01*
X57150Y267300D02*X58350Y268500D01*
Y262500D01*
X57150D02*X59400D01*
X61200Y263250D02*X61950Y262500D01*
X61200Y267750D02*Y263250D01*
Y267750D02*X61950Y268500D01*
X63450D01*
X64200Y267750D01*
Y263250D01*
X63450Y262500D02*X64200Y263250D01*
X61950Y262500D02*X63450D01*
X61200Y264000D02*X64200Y267000D01*
X3000Y283500D02*X3750Y282750D01*
X750Y283500D02*X3000D01*
X0Y282750D02*X750Y283500D01*
X0Y282750D02*Y281250D01*
X750Y280500D01*
X3000D01*
X3750Y279750D01*
Y278250D01*
X3000Y277500D02*X3750Y278250D01*
X750Y277500D02*X3000D01*
X0Y278250D02*X750Y277500D01*
X5550Y280500D02*Y278250D01*
X6300Y277500D01*
X8550Y280500D02*Y276000D01*
X7800Y275250D02*X8550Y276000D01*
X6300Y275250D02*X7800D01*
X5550Y276000D02*X6300Y275250D01*
Y277500D02*X7800D01*
X8550Y278250D01*
X11100Y279750D02*Y277500D01*
Y279750D02*X11850Y280500D01*
X12600D01*
X13350Y279750D01*
Y277500D01*
Y279750D02*X14100Y280500D01*
X14850D01*
X15600Y279750D01*
Y277500D01*
X10350Y280500D02*X11100Y279750D01*
X17400Y283500D02*Y277500D01*
Y278250D02*X18150Y277500D01*
X19650D01*
X20400Y278250D01*
Y279750D02*Y278250D01*
X19650Y280500D02*X20400Y279750D01*
X18150Y280500D02*X19650D01*
X17400Y279750D02*X18150Y280500D01*
X22200Y279750D02*Y278250D01*
Y279750D02*X22950Y280500D01*
X24450D01*
X25200Y279750D01*
Y278250D01*
X24450Y277500D02*X25200Y278250D01*
X22950Y277500D02*X24450D01*
X22200Y278250D02*X22950Y277500D01*
X27000Y283500D02*Y278250D01*
X27750Y277500D01*
X0Y274250D02*X29250D01*
X41750Y283500D02*Y277500D01*
X43700Y283500D02*X44750Y282450D01*
Y278550D01*
X43700Y277500D02*X44750Y278550D01*
X41000Y277500D02*X43700D01*
X41000Y283500D02*X43700D01*
G54D107*X46550Y282000D02*Y281850D01*
G54D106*Y279750D02*Y277500D01*
X50300Y280500D02*X51050Y279750D01*
X48800Y280500D02*X50300D01*
X48050Y279750D02*X48800Y280500D01*
X48050Y279750D02*Y278250D01*
X48800Y277500D01*
X51050Y280500D02*Y278250D01*
X51800Y277500D01*
X48800D02*X50300D01*
X51050Y278250D01*
X54350Y279750D02*Y277500D01*
Y279750D02*X55100Y280500D01*
X55850D01*
X56600Y279750D01*
Y277500D01*
Y279750D02*X57350Y280500D01*
X58100D01*
X58850Y279750D01*
Y277500D01*
X53600Y280500D02*X54350Y279750D01*
X60650Y277500D02*X61400D01*
X65900Y278250D02*X66650Y277500D01*
X65900Y282750D02*X66650Y283500D01*
X65900Y282750D02*Y278250D01*
X68450Y283500D02*X69950D01*
X69200D02*Y277500D01*
X68450D02*X69950D01*
X72500Y279750D02*Y277500D01*
Y279750D02*X73250Y280500D01*
X74000D01*
X74750Y279750D01*
Y277500D01*
X71750Y280500D02*X72500Y279750D01*
X77300Y280500D02*X79550D01*
X76550Y279750D02*X77300Y280500D01*
X76550Y279750D02*Y278250D01*
X77300Y277500D01*
X79550D01*
X81350Y283500D02*Y277500D01*
Y279750D02*X82100Y280500D01*
X83600D01*
X84350Y279750D01*
Y277500D01*
X86150Y283500D02*X86900Y282750D01*
Y278250D01*
X86150Y277500D02*X86900Y278250D01*
X41000Y274250D02*X88700D01*
X96050Y277500D02*X98000D01*
X95000Y278550D02*X96050Y277500D01*
X95000Y282450D02*Y278550D01*
Y282450D02*X96050Y283500D01*
X98000D01*
X99800Y279750D02*Y278250D01*
Y279750D02*X100550Y280500D01*
X102050D01*
X102800Y279750D01*
Y278250D01*
X102050Y277500D02*X102800Y278250D01*
X100550Y277500D02*X102050D01*
X99800Y278250D02*X100550Y277500D01*
X104600Y280500D02*Y278250D01*
X105350Y277500D01*
X106850D01*
X107600Y278250D01*
Y280500D02*Y278250D01*
X110150Y279750D02*Y277500D01*
Y279750D02*X110900Y280500D01*
X111650D01*
X112400Y279750D01*
Y277500D01*
X109400Y280500D02*X110150Y279750D01*
X114950Y283500D02*Y278250D01*
X115700Y277500D01*
X114200Y281250D02*X115700D01*
X95000Y274250D02*X117200D01*
X130750Y283500D02*Y277500D01*
X130000Y283500D02*X133000D01*
X133750Y282750D01*
Y281250D01*
X133000Y280500D02*X133750Y281250D01*
X130750Y280500D02*X133000D01*
X135550Y283500D02*Y278250D01*
X136300Y277500D01*
X140050Y280500D02*X140800Y279750D01*
X138550Y280500D02*X140050D01*
X137800Y279750D02*X138550Y280500D01*
X137800Y279750D02*Y278250D01*
X138550Y277500D01*
X140800Y280500D02*Y278250D01*
X141550Y277500D01*
X138550D02*X140050D01*
X140800Y278250D01*
X144100Y283500D02*Y278250D01*
X144850Y277500D01*
X143350Y281250D02*X144850D01*
X147100Y277500D02*X149350D01*
X146350Y278250D02*X147100Y277500D01*
X146350Y279750D02*Y278250D01*
Y279750D02*X147100Y280500D01*
X148600D01*
X149350Y279750D01*
X146350Y279000D02*X149350D01*
Y279750D02*Y279000D01*
X154150Y283500D02*Y277500D01*
X153400D02*X154150Y278250D01*
X151900Y277500D02*X153400D01*
X151150Y278250D02*X151900Y277500D01*
X151150Y279750D02*Y278250D01*
Y279750D02*X151900Y280500D01*
X153400D01*
X154150Y279750D01*
X157450Y280500D02*Y279750D01*
Y278250D02*Y277500D01*
X155950Y282750D02*Y282000D01*
Y282750D02*X156700Y283500D01*
X158200D01*
X158950Y282750D01*
Y282000D01*
X157450Y280500D02*X158950Y282000D01*
X130000Y274250D02*X160750D01*
X0Y298500D02*X3000D01*
X1500D02*Y292500D01*
X4800Y298500D02*Y292500D01*
Y294750D02*X5550Y295500D01*
X7050D01*
X7800Y294750D01*
Y292500D01*
X10350D02*X12600D01*
X9600Y293250D02*X10350Y292500D01*
X9600Y294750D02*Y293250D01*
Y294750D02*X10350Y295500D01*
X11850D01*
X12600Y294750D01*
X9600Y294000D02*X12600D01*
Y294750D02*Y294000D01*
X15150Y294750D02*Y292500D01*
Y294750D02*X15900Y295500D01*
X17400D01*
X14400D02*X15150Y294750D01*
X19950Y292500D02*X22200D01*
X19200Y293250D02*X19950Y292500D01*
X19200Y294750D02*Y293250D01*
Y294750D02*X19950Y295500D01*
X21450D01*
X22200Y294750D01*
X19200Y294000D02*X22200D01*
Y294750D02*Y294000D01*
X28950Y295500D02*X29700Y294750D01*
X27450Y295500D02*X28950D01*
X26700Y294750D02*X27450Y295500D01*
X26700Y294750D02*Y293250D01*
X27450Y292500D01*
X29700Y295500D02*Y293250D01*
X30450Y292500D01*
X27450D02*X28950D01*
X29700Y293250D01*
X33000Y294750D02*Y292500D01*
Y294750D02*X33750Y295500D01*
X35250D01*
X32250D02*X33000Y294750D01*
X37800Y292500D02*X40050D01*
X37050Y293250D02*X37800Y292500D01*
X37050Y294750D02*Y293250D01*
Y294750D02*X37800Y295500D01*
X39300D01*
X40050Y294750D01*
X37050Y294000D02*X40050D01*
Y294750D02*Y294000D01*
X44550Y293250D02*X45300Y292500D01*
X44550Y294450D02*Y293250D01*
Y294450D02*X45600Y295500D01*
X46500D01*
X47550Y294450D01*
Y293250D01*
X46800Y292500D02*X47550Y293250D01*
X45300Y292500D02*X46800D01*
X44550Y296550D02*X45600Y295500D01*
X44550Y297750D02*Y296550D01*
Y297750D02*X45300Y298500D01*
X46800D01*
X47550Y297750D01*
Y296550D01*
X46500Y295500D02*X47550Y296550D01*
X55050Y298500D02*Y292500D01*
X54300D02*X55050Y293250D01*
X52800Y292500D02*X54300D01*
X52050Y293250D02*X52800Y292500D01*
X52050Y294750D02*Y293250D01*
Y294750D02*X52800Y295500D01*
X54300D01*
X55050Y294750D01*
G54D107*X56850Y297000D02*Y296850D01*
G54D106*Y294750D02*Y292500D01*
X59100Y297750D02*Y292500D01*
Y297750D02*X59850Y298500D01*
X60600D01*
X58350Y295500D02*X59850D01*
X62850Y297750D02*Y292500D01*
Y297750D02*X63600Y298500D01*
X64350D01*
X62100Y295500D02*X63600D01*
X66600Y292500D02*X68850D01*
X65850Y293250D02*X66600Y292500D01*
X65850Y294750D02*Y293250D01*
Y294750D02*X66600Y295500D01*
X68100D01*
X68850Y294750D01*
X65850Y294000D02*X68850D01*
Y294750D02*Y294000D01*
X71400Y294750D02*Y292500D01*
Y294750D02*X72150Y295500D01*
X73650D01*
X70650D02*X71400Y294750D01*
X76200Y292500D02*X78450D01*
X75450Y293250D02*X76200Y292500D01*
X75450Y294750D02*Y293250D01*
Y294750D02*X76200Y295500D01*
X77700D01*
X78450Y294750D01*
X75450Y294000D02*X78450D01*
Y294750D02*Y294000D01*
X81000Y294750D02*Y292500D01*
Y294750D02*X81750Y295500D01*
X82500D01*
X83250Y294750D01*
Y292500D01*
X80250Y295500D02*X81000Y294750D01*
X85800Y298500D02*Y293250D01*
X86550Y292500D01*
X85050Y296250D02*X86550D01*
X93750Y298500D02*Y292500D01*
X93000D02*X93750Y293250D01*
X91500Y292500D02*X93000D01*
X90750Y293250D02*X91500Y292500D01*
X90750Y294750D02*Y293250D01*
Y294750D02*X91500Y295500D01*
X93000D01*
X93750Y294750D01*
X96300D02*Y292500D01*
Y294750D02*X97050Y295500D01*
X98550D01*
X95550D02*X96300Y294750D01*
G54D107*X100350Y297000D02*Y296850D01*
G54D106*Y294750D02*Y292500D01*
X101850Y298500D02*Y293250D01*
X102600Y292500D01*
X104100Y298500D02*Y293250D01*
X104850Y292500D01*
X109800D02*X112050D01*
X112800Y293250D01*
X112050Y294000D02*X112800Y293250D01*
X109800Y294000D02*X112050D01*
X109050Y294750D02*X109800Y294000D01*
X109050Y294750D02*X109800Y295500D01*
X112050D01*
X112800Y294750D01*
X109050Y293250D02*X109800Y292500D01*
G54D107*X114600Y297000D02*Y296850D01*
G54D106*Y294750D02*Y292500D01*
X116100Y295500D02*X119100D01*
X116100Y292500D02*X119100Y295500D01*
X116100Y292500D02*X119100D01*
X121650D02*X123900D01*
X120900Y293250D02*X121650Y292500D01*
X120900Y294750D02*Y293250D01*
Y294750D02*X121650Y295500D01*
X123150D01*
X123900Y294750D01*
X120900Y294000D02*X123900D01*
Y294750D02*Y294000D01*
X126450Y292500D02*X128700D01*
X129450Y293250D01*
X128700Y294000D02*X129450Y293250D01*
X126450Y294000D02*X128700D01*
X125700Y294750D02*X126450Y294000D01*
X125700Y294750D02*X126450Y295500D01*
X128700D01*
X129450Y294750D01*
X125700Y293250D02*X126450Y292500D01*
X133950Y295500D02*Y293250D01*
X134700Y292500D01*
X136200D01*
X136950Y293250D01*
Y295500D02*Y293250D01*
X139500Y292500D02*X141750D01*
X142500Y293250D01*
X141750Y294000D02*X142500Y293250D01*
X139500Y294000D02*X141750D01*
X138750Y294750D02*X139500Y294000D01*
X138750Y294750D02*X139500Y295500D01*
X141750D01*
X142500Y294750D01*
X138750Y293250D02*X139500Y292500D01*
X145050D02*X147300D01*
X144300Y293250D02*X145050Y292500D01*
X144300Y294750D02*Y293250D01*
Y294750D02*X145050Y295500D01*
X146550D01*
X147300Y294750D01*
X144300Y294000D02*X147300D01*
Y294750D02*Y294000D01*
X152100Y298500D02*Y292500D01*
X151350D02*X152100Y293250D01*
X149850Y292500D02*X151350D01*
X149100Y293250D02*X149850Y292500D01*
X149100Y294750D02*Y293250D01*
Y294750D02*X149850Y295500D01*
X151350D01*
X152100Y294750D01*
G54D107*X156600Y297000D02*Y296850D01*
G54D106*Y294750D02*Y292500D01*
X158850Y294750D02*Y292500D01*
Y294750D02*X159600Y295500D01*
X160350D01*
X161100Y294750D01*
Y292500D01*
X158100Y295500D02*X158850Y294750D01*
X166350Y298500D02*Y293250D01*
X167100Y292500D01*
X165600Y296250D02*X167100D01*
X168600Y298500D02*Y292500D01*
Y294750D02*X169350Y295500D01*
X170850D01*
X171600Y294750D01*
Y292500D01*
G54D107*X173400Y297000D02*Y296850D01*
G54D106*Y294750D02*Y292500D01*
X175650D02*X177900D01*
X178650Y293250D01*
X177900Y294000D02*X178650Y293250D01*
X175650Y294000D02*X177900D01*
X174900Y294750D02*X175650Y294000D01*
X174900Y294750D02*X175650Y295500D01*
X177900D01*
X178650Y294750D01*
X174900Y293250D02*X175650Y292500D01*
X183150Y298500D02*Y293250D01*
X183900Y292500D01*
X187650Y295500D02*X188400Y294750D01*
X186150Y295500D02*X187650D01*
X185400Y294750D02*X186150Y295500D01*
X185400Y294750D02*Y293250D01*
X186150Y292500D01*
X188400Y295500D02*Y293250D01*
X189150Y292500D01*
X186150D02*X187650D01*
X188400Y293250D01*
X190950Y295500D02*Y293250D01*
X191700Y292500D01*
X193950Y295500D02*Y291000D01*
X193200Y290250D02*X193950Y291000D01*
X191700Y290250D02*X193200D01*
X190950Y291000D02*X191700Y290250D01*
Y292500D02*X193200D01*
X193950Y293250D01*
X195750Y294750D02*Y293250D01*
Y294750D02*X196500Y295500D01*
X198000D01*
X198750Y294750D01*
Y293250D01*
X198000Y292500D02*X198750Y293250D01*
X196500Y292500D02*X198000D01*
X195750Y293250D02*X196500Y292500D01*
X200550Y295500D02*Y293250D01*
X201300Y292500D01*
X202800D01*
X203550Y293250D01*
Y295500D02*Y293250D01*
X206100Y298500D02*Y293250D01*
X206850Y292500D01*
X205350Y296250D02*X206850D01*
X208350Y291000D02*X209850Y292500D01*
X214350Y294750D02*X217350Y298500D01*
X214350Y294750D02*X218100D01*
X217350Y298500D02*Y292500D01*
X219900Y297750D02*X220650Y298500D01*
X222150D01*
X222900Y297750D01*
X222150Y292500D02*X222900Y293250D01*
X220650Y292500D02*X222150D01*
X219900Y293250D02*X220650Y292500D01*
Y295800D02*X222150D01*
X222900Y297750D02*Y296550D01*
Y295050D02*Y293250D01*
Y295050D02*X222150Y295800D01*
X222900Y296550D02*X222150Y295800D01*
X227400Y298500D02*Y292500D01*
Y294750D02*X228150Y295500D01*
X229650D01*
X230400Y294750D01*
Y292500D01*
X232200Y294750D02*Y293250D01*
Y294750D02*X232950Y295500D01*
X234450D01*
X235200Y294750D01*
Y293250D01*
X234450Y292500D02*X235200Y293250D01*
X232950Y292500D02*X234450D01*
X232200Y293250D02*X232950Y292500D01*
X237000Y298500D02*Y293250D01*
X237750Y292500D01*
X240000D02*X242250D01*
X239250Y293250D02*X240000Y292500D01*
X239250Y294750D02*Y293250D01*
Y294750D02*X240000Y295500D01*
X241500D01*
X242250Y294750D01*
X239250Y294000D02*X242250D01*
Y294750D02*Y294000D01*
X244800Y292500D02*X247050D01*
X247800Y293250D01*
X247050Y294000D02*X247800Y293250D01*
X244800Y294000D02*X247050D01*
X244050Y294750D02*X244800Y294000D01*
X244050Y294750D02*X244800Y295500D01*
X247050D01*
X247800Y294750D01*
X244050Y293250D02*X244800Y292500D01*
X253050Y298500D02*Y293250D01*
X253800Y292500D01*
X252300Y296250D02*X253800D01*
X255300Y294750D02*Y293250D01*
Y294750D02*X256050Y295500D01*
X257550D01*
X258300Y294750D01*
Y293250D01*
X257550Y292500D02*X258300Y293250D01*
X256050Y292500D02*X257550D01*
X255300Y293250D02*X256050Y292500D01*
X260850Y298500D02*Y293250D01*
X261600Y292500D01*
X260100Y296250D02*X261600D01*
X265350Y295500D02*X266100Y294750D01*
X263850Y295500D02*X265350D01*
X263100Y294750D02*X263850Y295500D01*
X263100Y294750D02*Y293250D01*
X263850Y292500D01*
X266100Y295500D02*Y293250D01*
X266850Y292500D01*
X263850D02*X265350D01*
X266100Y293250D01*
X268650Y298500D02*Y293250D01*
X269400Y292500D01*
G54D108*X101500Y126500D02*Y40500D01*
X102000Y40000D01*
X118000D01*
Y13500D01*
X101531Y126500D02*X28500D01*
X28000Y40000D02*X28500Y40500D01*
Y126500D01*
X28000Y40000D02*X11000D01*
Y13500D01*
X30000D01*
Y28000D01*
X118000Y13500D02*X99000D01*
Y28000D01*
X30000D01*
G54D106*X0Y-9500D02*X3000D01*
X3750Y-8750D01*
Y-6950D02*Y-8750D01*
X3000Y-6200D02*X3750Y-6950D01*
X750Y-6200D02*X3000D01*
X750Y-3500D02*Y-9500D01*
X0Y-3500D02*X3000D01*
X3750Y-4250D01*
Y-5450D01*
X3000Y-6200D02*X3750Y-5450D01*
X5550Y-7250D02*Y-8750D01*
Y-7250D02*X6300Y-6500D01*
X7800D01*
X8550Y-7250D01*
Y-8750D01*
X7800Y-9500D02*X8550Y-8750D01*
X6300Y-9500D02*X7800D01*
X5550Y-8750D02*X6300Y-9500D01*
X12600Y-6500D02*X13350Y-7250D01*
X11100Y-6500D02*X12600D01*
X10350Y-7250D02*X11100Y-6500D01*
X10350Y-7250D02*Y-8750D01*
X11100Y-9500D01*
X13350Y-6500D02*Y-8750D01*
X14100Y-9500D01*
X11100D02*X12600D01*
X13350Y-8750D01*
X16650Y-7250D02*Y-9500D01*
Y-7250D02*X17400Y-6500D01*
X18900D01*
X15900D02*X16650Y-7250D01*
X23700Y-3500D02*Y-9500D01*
X22950D02*X23700Y-8750D01*
X21450Y-9500D02*X22950D01*
X20700Y-8750D02*X21450Y-9500D01*
X20700Y-7250D02*Y-8750D01*
Y-7250D02*X21450Y-6500D01*
X22950D01*
X23700Y-7250D01*
X28200D02*Y-8750D01*
Y-7250D02*X28950Y-6500D01*
X30450D01*
X31200Y-7250D01*
Y-8750D01*
X30450Y-9500D02*X31200Y-8750D01*
X28950Y-9500D02*X30450D01*
X28200Y-8750D02*X28950Y-9500D01*
X33000Y-6500D02*Y-8750D01*
X33750Y-9500D01*
X35250D01*
X36000Y-8750D01*
Y-6500D02*Y-8750D01*
X38550Y-3500D02*Y-8750D01*
X39300Y-9500D01*
X37800Y-5750D02*X39300D01*
X40800Y-3500D02*Y-8750D01*
X41550Y-9500D01*
G54D107*X43050Y-5000D02*Y-5150D01*
G54D106*Y-7250D02*Y-9500D01*
X45300Y-7250D02*Y-9500D01*
Y-7250D02*X46050Y-6500D01*
X46800D01*
X47550Y-7250D01*
Y-9500D01*
X44550Y-6500D02*X45300Y-7250D01*
X50100Y-9500D02*X52350D01*
X49350Y-8750D02*X50100Y-9500D01*
X49350Y-7250D02*Y-8750D01*
Y-7250D02*X50100Y-6500D01*
X51600D01*
X52350Y-7250D01*
X49350Y-8000D02*X52350D01*
Y-7250D02*Y-8000D01*
G54D107*X56850Y-5000D02*Y-5150D01*
G54D106*Y-7250D02*Y-9500D01*
X59100D02*X61350D01*
X62100Y-8750D01*
X61350Y-8000D02*X62100Y-8750D01*
X59100Y-8000D02*X61350D01*
X58350Y-7250D02*X59100Y-8000D01*
X58350Y-7250D02*X59100Y-6500D01*
X61350D01*
X62100Y-7250D01*
X58350Y-8750D02*X59100Y-9500D01*
X67350Y-3500D02*Y-8750D01*
X68100Y-9500D01*
X66600Y-5750D02*X68100D01*
X69600Y-3500D02*Y-9500D01*
Y-7250D02*X70350Y-6500D01*
X71850D01*
X72600Y-7250D01*
Y-9500D01*
X75150D02*X77400D01*
X74400Y-8750D02*X75150Y-9500D01*
X74400Y-7250D02*Y-8750D01*
Y-7250D02*X75150Y-6500D01*
X76650D01*
X77400Y-7250D01*
X74400Y-8000D02*X77400D01*
Y-7250D02*Y-8000D01*
X82650Y-6500D02*X84900D01*
X81900Y-7250D02*X82650Y-6500D01*
X81900Y-7250D02*Y-8750D01*
X82650Y-9500D01*
X84900D01*
X87450D02*X89700D01*
X86700Y-8750D02*X87450Y-9500D01*
X86700Y-7250D02*Y-8750D01*
Y-7250D02*X87450Y-6500D01*
X88950D01*
X89700Y-7250D01*
X86700Y-8000D02*X89700D01*
Y-7250D02*Y-8000D01*
X92250Y-7250D02*Y-9500D01*
Y-7250D02*X93000Y-6500D01*
X93750D01*
X94500Y-7250D01*
Y-9500D01*
X91500Y-6500D02*X92250Y-7250D01*
X97050Y-3500D02*Y-8750D01*
X97800Y-9500D01*
X96300Y-5750D02*X97800D01*
X100050Y-9500D02*X102300D01*
X99300Y-8750D02*X100050Y-9500D01*
X99300Y-7250D02*Y-8750D01*
Y-7250D02*X100050Y-6500D01*
X101550D01*
X102300Y-7250D01*
X99300Y-8000D02*X102300D01*
Y-7250D02*Y-8000D01*
X104850Y-7250D02*Y-9500D01*
Y-7250D02*X105600Y-6500D01*
X107100D01*
X104100D02*X104850Y-7250D01*
X108900Y-3500D02*Y-8750D01*
X109650Y-9500D01*
G54D107*X111150Y-5000D02*Y-5150D01*
G54D106*Y-7250D02*Y-9500D01*
X113400Y-7250D02*Y-9500D01*
Y-7250D02*X114150Y-6500D01*
X114900D01*
X115650Y-7250D01*
Y-9500D01*
X112650Y-6500D02*X113400Y-7250D01*
X118200Y-9500D02*X120450D01*
X117450Y-8750D02*X118200Y-9500D01*
X117450Y-7250D02*Y-8750D01*
Y-7250D02*X118200Y-6500D01*
X119700D01*
X120450Y-7250D01*
X117450Y-8000D02*X120450D01*
Y-7250D02*Y-8000D01*
X124950Y-7250D02*Y-8750D01*
Y-7250D02*X125700Y-6500D01*
X127200D01*
X127950Y-7250D01*
Y-8750D01*
X127200Y-9500D02*X127950Y-8750D01*
X125700Y-9500D02*X127200D01*
X124950Y-8750D02*X125700Y-9500D01*
X130500Y-4250D02*Y-9500D01*
Y-4250D02*X131250Y-3500D01*
X132000D01*
X129750Y-6500D02*X131250D01*
X136950Y-3500D02*Y-8750D01*
X137700Y-9500D01*
X136200Y-5750D02*X137700D01*
X139200Y-3500D02*Y-9500D01*
Y-7250D02*X139950Y-6500D01*
X141450D01*
X142200Y-7250D01*
Y-9500D01*
G54D107*X144000Y-5000D02*Y-5150D01*
G54D106*Y-7250D02*Y-9500D01*
X146250D02*X148500D01*
X149250Y-8750D01*
X148500Y-8000D02*X149250Y-8750D01*
X146250Y-8000D02*X148500D01*
X145500Y-7250D02*X146250Y-8000D01*
X145500Y-7250D02*X146250Y-6500D01*
X148500D01*
X149250Y-7250D01*
X145500Y-8750D02*X146250Y-9500D01*
X154500Y-7250D02*Y-11750D01*
X153750Y-6500D02*X154500Y-7250D01*
X155250Y-6500D01*
X156750D01*
X157500Y-7250D01*
Y-8750D01*
X156750Y-9500D02*X157500Y-8750D01*
X155250Y-9500D02*X156750D01*
X154500Y-8750D02*X155250Y-9500D01*
X161550Y-6500D02*X162300Y-7250D01*
X160050Y-6500D02*X161550D01*
X159300Y-7250D02*X160050Y-6500D01*
X159300Y-7250D02*Y-8750D01*
X160050Y-9500D01*
X162300Y-6500D02*Y-8750D01*
X163050Y-9500D01*
X160050D02*X161550D01*
X162300Y-8750D01*
X165600Y-3500D02*Y-8750D01*
X166350Y-9500D01*
X164850Y-5750D02*X166350D01*
X167850Y-3500D02*Y-9500D01*
Y-7250D02*X168600Y-6500D01*
X170100D01*
X170850Y-7250D01*
Y-9500D01*
X200750Y178500D02*Y172500D01*
X202700Y178500D02*X203750Y177450D01*
Y173550D01*
X202700Y172500D02*X203750Y173550D01*
X200000Y172500D02*X202700D01*
X200000Y178500D02*X202700D01*
X207800Y175500D02*X208550Y174750D01*
X206300Y175500D02*X207800D01*
X205550Y174750D02*X206300Y175500D01*
X205550Y174750D02*Y173250D01*
X206300Y172500D01*
X208550Y175500D02*Y173250D01*
X209300Y172500D01*
X206300D02*X207800D01*
X208550Y173250D01*
X211850Y178500D02*Y173250D01*
X212600Y172500D01*
X211100Y176250D02*X212600D01*
X214850Y172500D02*X217100D01*
X214100Y173250D02*X214850Y172500D01*
X214100Y174750D02*Y173250D01*
Y174750D02*X214850Y175500D01*
X216350D01*
X217100Y174750D01*
X214100Y174000D02*X217100D01*
Y174750D02*Y174000D01*
X218900Y176250D02*X219650D01*
X218900Y174750D02*X219650D01*
X227150Y178500D02*X227900Y177750D01*
X224900Y178500D02*X227150D01*
X224150Y177750D02*X224900Y178500D01*
X224150Y177750D02*Y176250D01*
X224900Y175500D01*
X227150D01*
X227900Y174750D01*
Y173250D01*
X227150Y172500D02*X227900Y173250D01*
X224900Y172500D02*X227150D01*
X224150Y173250D02*X224900Y172500D01*
X229700Y175500D02*Y173250D01*
X230450Y172500D01*
X231950D01*
X232700Y173250D01*
Y175500D02*Y173250D01*
X235250Y174750D02*Y172500D01*
Y174750D02*X236000Y175500D01*
X236750D01*
X237500Y174750D01*
Y172500D01*
X234500Y175500D02*X235250Y174750D01*
X245000Y178500D02*X245750Y177750D01*
X242750Y178500D02*X245000D01*
X242000Y177750D02*X242750Y178500D01*
X242000Y177750D02*Y176250D01*
X242750Y175500D01*
X245000D01*
X245750Y174750D01*
Y173250D01*
X245000Y172500D02*X245750Y173250D01*
X242750Y172500D02*X245000D01*
X242000Y173250D02*X242750Y172500D01*
X248300D02*X250550D01*
X247550Y173250D02*X248300Y172500D01*
X247550Y174750D02*Y173250D01*
Y174750D02*X248300Y175500D01*
X249800D01*
X250550Y174750D01*
X247550Y174000D02*X250550D01*
Y174750D02*Y174000D01*
X253100Y174750D02*Y170250D01*
X252350Y175500D02*X253100Y174750D01*
X253850Y175500D01*
X255350D01*
X256100Y174750D01*
Y173250D01*
X255350Y172500D02*X256100Y173250D01*
X253850Y172500D02*X255350D01*
X253100Y173250D02*X253850Y172500D01*
X265550Y178500D02*X266300Y177750D01*
X264050Y178500D02*X265550D01*
X263300Y177750D02*X264050Y178500D01*
X263300Y177750D02*Y173250D01*
X264050Y172500D01*
X265550Y175800D02*X266300Y175050D01*
X263300Y175800D02*X265550D01*
X264050Y172500D02*X265550D01*
X266300Y173250D01*
Y175050D02*Y173250D01*
X270800Y177300D02*X272000Y178500D01*
Y172500D01*
X270800D02*X273050D01*
X274850Y173250D02*X275600Y172500D01*
X274850Y174450D02*Y173250D01*
Y174450D02*X275900Y175500D01*
X276800D01*
X277850Y174450D01*
Y173250D01*
X277100Y172500D02*X277850Y173250D01*
X275600Y172500D02*X277100D01*
X274850Y176550D02*X275900Y175500D01*
X274850Y177750D02*Y176550D01*
Y177750D02*X275600Y178500D01*
X277100D01*
X277850Y177750D01*
Y176550D01*
X276800Y175500D02*X277850Y176550D01*
X279650Y176250D02*X280400D01*
X279650Y174750D02*X280400D01*
X282200Y178500D02*X285200D01*
X282200D02*Y175500D01*
X282950Y176250D01*
X284450D01*
X285200Y175500D01*
Y173250D01*
X284450Y172500D02*X285200Y173250D01*
X282950Y172500D02*X284450D01*
X282200Y173250D02*X282950Y172500D01*
X287000Y177750D02*X287750Y178500D01*
X290000D01*
X290750Y177750D01*
Y176250D01*
X287000Y172500D02*X290750Y176250D01*
X287000Y172500D02*X290750D01*
X292550Y176250D02*X293300D01*
X292550Y174750D02*X293300D01*
X295100D02*X298100Y178500D01*
X295100Y174750D02*X298850D01*
X298100Y178500D02*Y172500D01*
X300650Y177300D02*X301850Y178500D01*
Y172500D01*
X300650D02*X302900D01*
X307400Y177750D02*X308150Y178500D01*
X310400D01*
X311150Y177750D01*
Y176250D01*
X307400Y172500D02*X311150Y176250D01*
X307400Y172500D02*X311150D01*
X312950Y173250D02*X313700Y172500D01*
X312950Y177750D02*Y173250D01*
Y177750D02*X313700Y178500D01*
X315200D01*
X315950Y177750D01*
Y173250D01*
X315200Y172500D02*X315950Y173250D01*
X313700Y172500D02*X315200D01*
X312950Y174000D02*X315950Y177000D01*
X317750Y177750D02*X318500Y178500D01*
X320750D01*
X321500Y177750D01*
Y176250D01*
X317750Y172500D02*X321500Y176250D01*
X317750Y172500D02*X321500D01*
X323300Y173250D02*X324050Y172500D01*
X323300Y177750D02*Y173250D01*
Y177750D02*X324050Y178500D01*
X325550D01*
X326300Y177750D01*
Y173250D01*
X325550Y172500D02*X326300Y173250D01*
X324050Y172500D02*X325550D01*
X323300Y174000D02*X326300Y177000D01*
X330800Y178500D02*Y173250D01*
X331550Y172500D01*
X333050D01*
X333800Y173250D01*
Y178500D02*Y173250D01*
X335600Y178500D02*X338600D01*
X337100D02*Y172500D01*
X341450D02*X343400D01*
X340400Y173550D02*X341450Y172500D01*
X340400Y177450D02*Y173550D01*
Y177450D02*X341450Y178500D01*
X343400D01*
X200000Y192000D02*Y187500D01*
Y192000D02*X201050Y193500D01*
X202700D01*
X203750Y192000D01*
Y187500D01*
X200000Y190500D02*X203750D01*
X205550D02*Y188250D01*
X206300Y187500D01*
X207800D01*
X208550Y188250D01*
Y190500D02*Y188250D01*
X211100Y193500D02*Y188250D01*
X211850Y187500D01*
X210350Y191250D02*X211850D01*
X213350Y193500D02*Y187500D01*
Y189750D02*X214100Y190500D01*
X215600D01*
X216350Y189750D01*
Y187500D01*
X218150Y189750D02*Y188250D01*
Y189750D02*X218900Y190500D01*
X220400D01*
X221150Y189750D01*
Y188250D01*
X220400Y187500D02*X221150Y188250D01*
X218900Y187500D02*X220400D01*
X218150Y188250D02*X218900Y187500D01*
X223700Y189750D02*Y187500D01*
Y189750D02*X224450Y190500D01*
X225950D01*
X222950D02*X223700Y189750D01*
X227750Y191250D02*X228500D01*
X227750Y189750D02*X228500D01*
X233750Y190500D02*X236000D01*
X233000Y189750D02*X233750Y190500D01*
X233000Y189750D02*Y188250D01*
X233750Y187500D01*
X236000D01*
X237800Y189750D02*Y188250D01*
Y189750D02*X238550Y190500D01*
X240050D01*
X240800Y189750D01*
Y188250D01*
X240050Y187500D02*X240800Y188250D01*
X238550Y187500D02*X240050D01*
X237800Y188250D02*X238550Y187500D01*
X243350Y189750D02*Y187500D01*
Y189750D02*X244100Y190500D01*
X244850D01*
X245600Y189750D01*
Y187500D01*
Y189750D02*X246350Y190500D01*
X247100D01*
X247850Y189750D01*
Y187500D01*
X242600Y190500D02*X243350Y189750D01*
X250400D02*Y187500D01*
Y189750D02*X251150Y190500D01*
X251900D01*
X252650Y189750D01*
Y187500D01*
Y189750D02*X253400Y190500D01*
X254150D01*
X254900Y189750D01*
Y187500D01*
X249650Y190500D02*X250400Y189750D01*
X256700D02*Y188250D01*
Y189750D02*X257450Y190500D01*
X258950D01*
X259700Y189750D01*
Y188250D01*
X258950Y187500D02*X259700Y188250D01*
X257450Y187500D02*X258950D01*
X256700Y188250D02*X257450Y187500D01*
X262250Y189750D02*Y187500D01*
Y189750D02*X263000Y190500D01*
X263750D01*
X264500Y189750D01*
Y187500D01*
X261500Y190500D02*X262250Y189750D01*
X268550Y190500D02*X269300Y189750D01*
X267050Y190500D02*X268550D01*
X266300Y189750D02*X267050Y190500D01*
X266300Y189750D02*Y188250D01*
X267050Y187500D01*
X269300Y190500D02*Y188250D01*
X270050Y187500D01*
X267050D02*X268550D01*
X269300Y188250D01*
X274850Y193500D02*Y187500D01*
X274100D02*X274850Y188250D01*
X272600Y187500D02*X274100D01*
X271850Y188250D02*X272600Y187500D01*
X271850Y189750D02*Y188250D01*
Y189750D02*X272600Y190500D01*
X274100D01*
X274850Y189750D01*
X277400D02*Y187500D01*
Y189750D02*X278150Y190500D01*
X278900D01*
X279650Y189750D01*
Y187500D01*
Y189750D02*X280400Y190500D01*
X281150D01*
X281900Y189750D01*
Y187500D01*
X276650Y190500D02*X277400Y189750D01*
G54D107*X283700Y192000D02*Y191850D01*
G54D106*Y189750D02*Y187500D01*
X285950Y189750D02*Y187500D01*
Y189750D02*X286700Y190500D01*
X287450D01*
X288200Y189750D01*
Y187500D01*
X285200Y190500D02*X285950Y189750D01*
X200000Y208500D02*X203000D01*
X201500D02*Y202500D01*
G54D107*X204800Y207000D02*Y206850D01*
G54D106*Y204750D02*Y202500D01*
X207050Y208500D02*Y203250D01*
X207800Y202500D01*
X206300Y206250D02*X207800D01*
X209300Y208500D02*Y203250D01*
X210050Y202500D01*
X212300D02*X214550D01*
X211550Y203250D02*X212300Y202500D01*
X211550Y204750D02*Y203250D01*
Y204750D02*X212300Y205500D01*
X213800D01*
X214550Y204750D01*
X211550Y204000D02*X214550D01*
Y204750D02*Y204000D01*
X216350Y206250D02*X217100D01*
X216350Y204750D02*X217100D01*
X221600Y203250D02*X222350Y202500D01*
X221600Y207750D02*X222350Y208500D01*
X221600Y207750D02*Y203250D01*
X224150Y205500D02*Y203250D01*
X224900Y202500D01*
X226400D01*
X227150Y203250D01*
Y205500D02*Y203250D01*
X229700Y204750D02*Y202500D01*
Y204750D02*X230450Y205500D01*
X231200D01*
X231950Y204750D01*
Y202500D01*
X228950Y205500D02*X229700Y204750D01*
X233750Y208500D02*Y202500D01*
Y204750D02*X236000Y202500D01*
X233750Y204750D02*X235250Y206250D01*
X238550Y204750D02*Y202500D01*
Y204750D02*X239300Y205500D01*
X240050D01*
X240800Y204750D01*
Y202500D01*
X237800Y205500D02*X238550Y204750D01*
X242600D02*Y203250D01*
Y204750D02*X243350Y205500D01*
X244850D01*
X245600Y204750D01*
Y203250D01*
X244850Y202500D02*X245600Y203250D01*
X243350Y202500D02*X244850D01*
X242600Y203250D02*X243350Y202500D01*
X247400Y205500D02*Y203250D01*
X248150Y202500D01*
X248900D01*
X249650Y203250D01*
Y205500D02*Y203250D01*
X250400Y202500D01*
X251150D01*
X251900Y203250D01*
Y205500D02*Y203250D01*
X254450Y204750D02*Y202500D01*
Y204750D02*X255200Y205500D01*
X255950D01*
X256700Y204750D01*
Y202500D01*
X253700Y205500D02*X254450Y204750D01*
X258500Y208500D02*X259250Y207750D01*
Y203250D01*
X258500Y202500D02*X259250Y203250D01*
X263750Y205500D02*X266750D01*
X271250Y208500D02*Y202500D01*
Y208500D02*X274250D01*
X271250Y205800D02*X273500D01*
X278300Y205500D02*X279050Y204750D01*
X276800Y205500D02*X278300D01*
X276050Y204750D02*X276800Y205500D01*
X276050Y204750D02*Y203250D01*
X276800Y202500D01*
X279050Y205500D02*Y203250D01*
X279800Y202500D01*
X276800D02*X278300D01*
X279050Y203250D01*
X281600Y208500D02*Y202500D01*
Y203250D02*X282350Y202500D01*
X283850D01*
X284600Y203250D01*
Y204750D02*Y203250D01*
X283850Y205500D02*X284600Y204750D01*
X282350Y205500D02*X283850D01*
X281600Y204750D02*X282350Y205500D01*
X287150Y204750D02*Y202500D01*
Y204750D02*X287900Y205500D01*
X289400D01*
X286400D02*X287150Y204750D01*
G54D107*X291200Y207000D02*Y206850D01*
G54D106*Y204750D02*Y202500D01*
X293450Y205500D02*X295700D01*
X292700Y204750D02*X293450Y205500D01*
X292700Y204750D02*Y203250D01*
X293450Y202500D01*
X295700D01*
X299750Y205500D02*X300500Y204750D01*
X298250Y205500D02*X299750D01*
X297500Y204750D02*X298250Y205500D01*
X297500Y204750D02*Y203250D01*
X298250Y202500D01*
X300500Y205500D02*Y203250D01*
X301250Y202500D01*
X298250D02*X299750D01*
X300500Y203250D01*
X303800Y208500D02*Y203250D01*
X304550Y202500D01*
X303050Y206250D02*X304550D01*
G54D107*X306050Y207000D02*Y206850D01*
G54D106*Y204750D02*Y202500D01*
X307550Y204750D02*Y203250D01*
Y204750D02*X308300Y205500D01*
X309800D01*
X310550Y204750D01*
Y203250D01*
X309800Y202500D02*X310550Y203250D01*
X308300Y202500D02*X309800D01*
X307550Y203250D02*X308300Y202500D01*
X313100Y204750D02*Y202500D01*
Y204750D02*X313850Y205500D01*
X314600D01*
X315350Y204750D01*
Y202500D01*
X312350Y205500D02*X313100Y204750D01*
X320600Y208500D02*Y202500D01*
X322550Y208500D02*X323600Y207450D01*
Y203550D01*
X322550Y202500D02*X323600Y203550D01*
X319850Y202500D02*X322550D01*
X319850Y208500D02*X322550D01*
X326150Y204750D02*Y202500D01*
Y204750D02*X326900Y205500D01*
X328400D01*
X325400D02*X326150Y204750D01*
X332450Y205500D02*X333200Y204750D01*
X330950Y205500D02*X332450D01*
X330200Y204750D02*X330950Y205500D01*
X330200Y204750D02*Y203250D01*
X330950Y202500D01*
X333200Y205500D02*Y203250D01*
X333950Y202500D01*
X330950D02*X332450D01*
X333200Y203250D01*
X335750Y205500D02*Y203250D01*
X336500Y202500D01*
X337250D01*
X338000Y203250D01*
Y205500D02*Y203250D01*
X338750Y202500D01*
X339500D01*
X340250Y203250D01*
Y205500D02*Y203250D01*
G54D107*X342050Y207000D02*Y206850D01*
G54D106*Y204750D02*Y202500D01*
X344300Y204750D02*Y202500D01*
Y204750D02*X345050Y205500D01*
X345800D01*
X346550Y204750D01*
Y202500D01*
X343550Y205500D02*X344300Y204750D01*
X350600Y205500D02*X351350Y204750D01*
X349100Y205500D02*X350600D01*
X348350Y204750D02*X349100Y205500D01*
X348350Y204750D02*Y203250D01*
X349100Y202500D01*
X350600D01*
X351350Y203250D01*
X348350Y201000D02*X349100Y200250D01*
X350600D01*
X351350Y201000D01*
Y205500D02*Y201000D01*
M02*
