M48
INCH
T87C0.010
T86C0.013
T85C0.035
T84C0.094
T83C0.051
T82C0.020
T81C0.030
T80C0.049
T79C0.079
%
T87
X005500Y010450
X006250Y010950
T86
X003600Y010150
X004250Y010150
X005450Y006650
X005750Y008350
X006200Y010050
X006200Y008000
X006200Y006600
X006750Y008200
X006750Y006600
X007350Y007900
X007350Y006650
X007950Y008300
X009300Y010100
T82
X002591Y011094
X002591Y002394
X004591Y004394
X006191Y004644
X007791Y004644
X009391Y004394
X011391Y011094
X011391Y002394
T81
X002236Y011409
X002236Y002709
X004236Y004709
X005836Y004959
X007436Y004959
X009036Y004709
X011036Y011409
X011036Y002709
T85
X003696Y007102
X004700Y007102
X005046Y009704
X005448Y008996
X005849Y009704
X006251Y008996
X006652Y009704
X007054Y008996
X007456Y009704
X007857Y008996
X008204Y007102
X009207Y007102
T80
X001646Y011448
X001646Y002748
X003646Y004748
X005246Y004998
X006846Y004998
X008446Y004748
X010446Y011448
X010446Y002748
T83
X003932Y010700
X008971Y010700
T79
X002000Y010700
X002000Y002000
X004000Y004000
X005600Y004250
X007200Y004250
X008800Y004000
X010800Y010700
X010800Y002000
T84
X003853Y009350
X009050Y009350
M30
