M48
INCH
T85C0.010
T84C0.013
T83C0.035
T82C0.094
T81C0.051
T80C0.020
T79C0.030
T78C0.049
T77C0.079
%
T85
X003200Y002850
X003550Y003400
X003900Y003900
X003900Y003500
X004550Y003250
X005400Y002850
X005750Y003700
X006100Y002850
T84
X002620Y005690
X002750Y006400
X003330Y006190
X003950Y006250
X004150Y004600
X004210Y007110
X004500Y006300
X005050Y006180
X005650Y005550
X005750Y006150
T80
X001641Y001544
X003091Y001544
X004541Y001544
X005991Y001544
X007441Y001544
X008891Y001544
T79
X001286Y001859
X002736Y001859
X004186Y001859
X005636Y001859
X007086Y001859
X008536Y001859
T83
X001646Y004752
X002650Y004752
X002996Y007354
X003398Y006646
X003799Y007354
X004201Y006646
X004602Y007354
X005004Y006646
X005406Y007354
X005807Y006646
X006154Y004752
X007157Y004752
T78
X000696Y001898
X002146Y001898
X003596Y001898
X005046Y001898
X006496Y001898
X007946Y001898
T81
X001882Y008350
X006921Y008350
T77
X001050Y001150
X002500Y001150
X003950Y001150
X005400Y001150
X006850Y001150
X008300Y001150
T82
X001803Y007000
X007000Y007000
M30
