G04 start of page 2 for group 0 idx 0 *
G04 Title: (unknown), P1_W1 *
G04 Creator: pcb 4.2.0 *
G04 CreationDate: Mon Aug 31 02:34:49 2020 UTC *
G04 For: commonadmin *
G04 Format: Gerber/RS-274X *
G04 PCB-Dimensions (mil): 1000.00 1100.00 *
G04 PCB-Coordinate-Origin: lower left *
%MOIN*%
%FSLAX25Y25*%
%LNTOP*%
%ADD26C,0.0354*%
%ADD25C,0.0197*%
%ADD24C,0.0295*%
%ADD23C,0.0492*%
%ADD22C,0.0787*%
%ADD21C,0.0130*%
%ADD20C,0.0200*%
%ADD19C,0.0270*%
%ADD18C,0.0512*%
%ADD17C,0.1102*%
%ADD16C,0.0394*%
%ADD15C,0.0472*%
%ADD14C,0.0669*%
%ADD13C,0.0945*%
%ADD12C,0.0060*%
%ADD11C,0.0100*%
G54D11*X39500Y62500D02*X44500D01*
X38900Y61900D02*X39500Y62500D01*
X29600Y61900D02*X38900D01*
X21500Y70000D02*X29600Y61900D01*
X18031Y70000D02*X21500D01*
G54D12*X16400Y47576D02*X16457Y47520D01*
X16400Y51300D02*Y47576D01*
X22000Y56900D02*X16400Y51300D01*
X22000Y56900D02*X26200D01*
G54D11*X45000Y63465D02*X42008Y66457D01*
X50800Y61500D02*X61500D01*
G54D12*X50500D02*X56500Y55500D01*
G54D11*X58071Y66457D02*X55957D01*
X54000Y64500D01*
Y62000D01*
X53500Y61500D01*
X61500D02*X70000Y70000D01*
X45000Y63000D02*X46200Y61800D01*
X44500Y62500D02*X45000Y63000D01*
Y63465D01*
X50800Y61500D02*X50500Y61800D01*
G54D12*Y65996D02*X50039Y66457D01*
X50500Y65996D02*Y61500D01*
G54D11*X46200Y61800D02*X50500D01*
G54D12*X41000Y36000D02*X55500D01*
X41000Y41000D02*X39000Y39000D01*
X53500Y41000D02*X41000D01*
X37000Y36000D02*X9000D01*
X8500Y35500D01*
Y28500D01*
X5500Y37000D02*Y28500D01*
X59000Y39000D02*X7500D01*
X5500Y37000D01*
X55500Y45500D02*Y47500D01*
X54400Y48600D01*
X49600D01*
X56750Y48250D02*X54500Y50500D01*
X55500Y36000D02*X56500Y35000D01*
X58500D01*
X59500Y36000D01*
Y38500D02*Y36000D01*
X54000Y44000D02*X55500Y45500D01*
X54000Y44000D02*Y41500D01*
X59000Y39000D02*X59500Y38500D01*
X57500Y39000D02*Y41500D01*
X56750Y42250D01*
Y48250D01*
X54000Y41500D02*X53500Y41000D01*
X64957Y18980D02*Y24543D01*
X58000Y31500D01*
X49600Y48600D02*X47200Y51000D01*
Y55600D01*
X50000Y50500D02*X49000Y51500D01*
X54500Y50500D02*X50000D01*
X47200Y55600D02*X47500Y55900D01*
X49000Y51500D02*Y55500D01*
X49600Y56100D01*
X53700D01*
X39000Y35000D02*X40000D01*
X41000Y36000D01*
X38000Y35000D02*X40000D01*
X38000D02*X37000Y36000D01*
X45500Y32500D02*X54500D01*
X55500Y31500D01*
X58000D01*
X54000Y28500D02*Y28000D01*
X50500Y24500D01*
Y19024D01*
X50457Y18980D01*
X32000Y28500D02*Y28000D01*
X35957Y18980D02*Y24043D01*
X32000Y28000D02*X35957Y24043D01*
X37000Y34000D02*X38000Y33000D01*
X40000D01*
X41500Y34500D01*
X22000Y34000D02*X21500Y33500D01*
Y19024D01*
X21457Y18980D01*
X22000Y34000D02*X37000D01*
X32000Y28500D02*Y28000D01*
X41500Y34500D02*X55000D01*
X56000Y33500D01*
X79000D01*
X79500Y33000D01*
Y19024D01*
X79457Y18980D01*
X6957D02*Y36457D01*
X8000Y37500D01*
X37500D01*
X57500Y37000D02*X57000Y37500D01*
X40500D01*
X40000Y37000D01*
X38000D02*X37500Y37500D01*
X40000Y37000D02*X38000D01*
G54D13*X10500Y11500D03*
G54D14*X6957Y18980D03*
G54D15*X12862Y18587D03*
G54D16*X16406Y15437D03*
G54D13*X25000Y11500D03*
G54D14*X21457Y18980D03*
G54D16*X30906Y15437D03*
G54D14*X18819Y83504D03*
G54D17*X18031Y70000D03*
G54D18*X46024Y73543D03*
X37992D03*
X29961D03*
X61535Y47520D03*
X71575D03*
G54D14*X69213Y83504D03*
G54D17*X70000Y70000D03*
G54D18*X54055Y73543D03*
X42008Y66457D03*
X33976D03*
X16457Y47520D03*
X26496D03*
X50039Y66457D03*
X58071D03*
G54D15*X27362Y18587D03*
G54D14*X35957Y18980D03*
G54D15*X41862Y18587D03*
G54D13*X39500Y11500D03*
G54D16*X45406Y15437D03*
G54D13*X54000Y11500D03*
G54D16*X59906Y15437D03*
G54D13*X68500Y11500D03*
G54D14*X50457Y18980D03*
G54D15*X56362Y18587D03*
G54D14*X64957Y18980D03*
G54D15*X70862Y18587D03*
G54D16*X74406Y15437D03*
G54D13*X83000Y11500D03*
G54D16*X88906Y15437D03*
G54D14*X79457Y18980D03*
G54D15*X85362Y18587D03*
G54D19*X41500Y46000D03*
X56500Y55500D03*
X57500Y61500D03*
X45000Y63000D03*
X50500Y61800D03*
X26200Y56900D03*
X27500Y64000D03*
X33300Y61900D03*
X39500Y62500D03*
X42100Y71100D03*
G54D20*X54000Y28500D03*
X32000D03*
X61000D03*
X57500Y37000D03*
X39000Y35000D03*
Y39000D03*
X35500Y34000D03*
X45500Y32500D03*
G54D21*G54D11*G54D22*G54D23*G54D24*G54D25*G54D22*G54D23*G54D25*G54D18*G54D13*G54D26*G54D18*G54D13*G54D26*G54D24*G54D23*G54D24*G54D22*G54D25*G54D22*G54D25*G54D22*G54D23*G54D24*G54D23*G54D24*G54D25*G54D22*G54D25*G54D23*G54D24*M02*
