G04 start of page 9 for group -4062 idx -4062 *
G04 Title: (unknown), soldermask *
G04 Creator: pcb 4.2.0 *
G04 CreationDate: Sat Aug 29 22:46:39 2020 UTC *
G04 For: commonadmin *
G04 Format: Gerber/RS-274X *
G04 PCB-Dimensions (mil): 3500.00 4250.00 *
G04 PCB-Coordinate-Origin: lower left *
%MOIN*%
%FSLAX25Y25*%
%LNBOTTOMMASK*%
%ADD108C,0.0200*%
%ADD107C,0.2000*%
%ADD106C,0.0660*%
%ADD105C,0.0001*%
%ADD104C,0.0260*%
%ADD103C,0.0532*%
%ADD102C,0.0729*%
%ADD101C,0.1005*%
%ADD100C,0.0454*%
G54D100*X231406Y141437D03*
G54D101*X240000Y137500D03*
G54D102*X236457Y144980D03*
G54D103*X242362Y144587D03*
G54D101*X225500Y137500D03*
G54D102*X221957Y144980D03*
G54D103*X227862Y144587D03*
G54D100*X245906Y141437D03*
X187906D03*
G54D102*X192957Y144980D03*
G54D103*X198862Y144587D03*
G54D101*X196500Y137500D03*
X211000D03*
G54D100*X202406Y141437D03*
G54D102*X207457Y144980D03*
G54D103*X213362Y144587D03*
G54D100*X216906Y141437D03*
G54D101*X254500Y137500D03*
X269000D03*
X283500D03*
G54D102*X250957Y144980D03*
G54D103*X256862Y144587D03*
G54D100*X260406Y141437D03*
G54D102*X265457Y144980D03*
G54D103*X271362Y144587D03*
G54D100*X274906Y141437D03*
G54D102*X279957Y144980D03*
G54D103*X285862Y144587D03*
G54D100*X289406Y141437D03*
G54D104*X201499Y66000D03*
X181000Y67500D03*
X204500Y66000D03*
X216000Y65500D03*
X219000D03*
X196500Y69500D03*
X199500D03*
X185500Y76000D03*
X188500D03*
X173000Y67500D03*
X175500Y65500D03*
X178500D03*
X160500D03*
X163500D03*
X166500D03*
X153500Y75500D03*
X156500D03*
X150500D03*
X100500D03*
X97500D03*
X94500D03*
X86000D03*
X83000D03*
X80000D03*
X116500D03*
X113500D03*
X110500D03*
X131000D03*
X128000D03*
X125000D03*
G54D101*X80500Y137500D03*
X95000D03*
X109500D03*
G54D102*X76957Y144980D03*
G54D103*X82862Y144587D03*
G54D100*X86406Y141437D03*
G54D102*X91457Y144980D03*
G54D103*X97362Y144587D03*
G54D100*X100906Y141437D03*
G54D102*X105957Y144980D03*
G54D103*X111862Y144587D03*
G54D101*X61000Y141500D03*
G54D100*X64937Y135594D03*
G54D101*X61000Y170500D03*
G54D100*X64937Y164594D03*
G54D101*X61000Y156000D03*
G54D100*X64937Y150094D03*
G54D102*X68480Y145043D03*
G54D103*X68087Y139138D03*
G54D102*X68480Y174043D03*
G54D103*X68087Y168138D03*
G54D102*X68480Y159543D03*
G54D103*X68087Y153638D03*
G54D100*X115406Y141437D03*
G54D102*X120457Y144980D03*
G54D103*X126362Y144587D03*
G54D101*X124000Y137500D03*
X138500D03*
G54D100*X129906Y141437D03*
G54D102*X134957Y144980D03*
G54D103*X140862Y144587D03*
G54D100*X144406Y141437D03*
G54D101*X153000Y137500D03*
X167500D03*
X182000D03*
G54D102*X149457Y144980D03*
G54D103*X155362Y144587D03*
G54D100*X158906Y141437D03*
G54D102*X163957Y144980D03*
G54D103*X169862Y144587D03*
G54D100*X173406Y141437D03*
G54D102*X178457Y144980D03*
G54D103*X184362Y144587D03*
G54D105*G36*
X271700Y303300D02*Y296700D01*
X278300D01*
Y303300D01*
X271700D01*
G37*
G54D106*X275000Y290000D03*
X265000Y300000D03*
Y290000D03*
X255000Y300000D03*
Y290000D03*
X245000Y300000D03*
Y290000D03*
X235000Y300000D03*
Y290000D03*
X225000Y300000D03*
X215000D03*
X205000D03*
X195000D03*
X185000D03*
X225000Y290000D03*
X215000D03*
X205000D03*
X195000D03*
X185000D03*
G54D105*G36*
X271700Y387300D02*Y380700D01*
X278300D01*
Y387300D01*
X271700D01*
G37*
G54D106*X275000Y374000D03*
X265000Y384000D03*
Y374000D03*
X255000Y384000D03*
Y374000D03*
X245000Y384000D03*
Y374000D03*
X235000D03*
X225000D03*
X235000Y384000D03*
X225000D03*
X215000D03*
X205000D03*
X195000D03*
X185000D03*
X215000Y374000D03*
X205000D03*
X195000D03*
X185000D03*
G54D107*X130000Y285000D03*
X235000Y190000D03*
X130000Y245000D03*
G54D108*X185500Y153050D02*X186200Y152350D01*
G54D105*G36*
X187200Y153350D02*X185200D01*
Y149850D01*
X187200D01*
Y153350D01*
G37*
G54D108*X185500D02*X186100Y153950D01*
X185500Y154550D02*X186100Y153950D01*
X185500Y156050D02*Y153050D01*
Y156050D02*X186200Y156750D01*
G54D105*G36*
X187200Y158250D02*X185200D01*
Y155750D01*
X187200D01*
Y158250D01*
G37*
G54D108*X185500Y155750D02*X186100Y155150D01*
X185500Y154550D02*X186100Y155150D01*
X188100Y156150D02*Y153050D01*
Y153250D02*Y153050D01*
X187500Y156750D02*X188100Y156150D01*
G54D105*G36*
X188500Y158250D02*X186500D01*
Y155750D01*
X188500D01*
Y158250D01*
G37*
G54D108*X187500Y152450D02*X188100Y153050D01*
X187400Y153950D02*X188100Y153250D01*
X187400Y153950D02*X188100Y154650D01*
X187400Y155150D02*X188100Y154450D01*
X187400Y155150D02*X188100Y155850D01*
G54D105*G36*
X188500Y153450D02*X186500D01*
Y149850D01*
X188500D01*
Y153450D01*
G37*
G54D108*X226500Y155600D02*Y152600D01*
X225800Y151900D02*X226500Y152600D01*
X225900Y154700D02*X226500Y155300D01*
X225900Y154700D02*X226500Y154100D01*
X225900Y153500D02*X226500Y152900D01*
X225900Y153500D02*X226500Y154100D01*
G54D105*G36*
X226800Y152900D02*X224800D01*
Y150400D01*
X226800D01*
Y152900D01*
G37*
G54D108*X223900Y152500D02*X224500Y151900D01*
G54D105*G36*
X225500Y152900D02*X223500D01*
Y150400D01*
X225500D01*
Y152900D01*
G37*
G54D108*X223900Y152800D02*X224600Y153500D01*
X225800Y156300D02*X226500Y155600D01*
G54D105*G36*
X226800Y158800D02*X224800D01*
Y155300D01*
X226800D01*
Y158800D01*
G37*
G54D108*X223900Y155600D02*X224500Y156200D01*
G54D105*G36*
X225500Y158800D02*X223500D01*
Y155200D01*
X225500D01*
Y158800D01*
G37*
G54D108*X223900Y155400D02*X224600Y154700D01*
X223900Y155600D02*Y155400D01*
Y155600D02*Y152500D01*
Y154000D02*X224600Y154700D01*
X223900Y154200D02*X224600Y153500D01*
X279950Y296200D02*X282950D01*
X283650Y295500D01*
G54D105*G36*
X282650Y296500D02*Y294500D01*
X285150D01*
Y296500D01*
X282650D01*
G37*
G54D108*X282050Y295600D02*X282650Y296200D01*
X281450D02*X282050Y295600D01*
X279250Y295500D02*X279950Y296200D01*
G54D105*G36*
X276750Y296500D02*Y294500D01*
X280250D01*
Y296500D01*
X276750D01*
G37*
G54D108*X280250Y296200D02*X280850Y295600D01*
X281450Y296200D01*
X279950Y293600D02*X283050D01*
X279950D02*X280150D01*
X283050D02*X283650Y294200D01*
G54D105*G36*
X282650Y295200D02*Y293200D01*
X285150D01*
Y295200D01*
X282650D01*
G37*
G54D108*X279350Y294200D02*X279950Y293600D01*
X280150D02*X280850Y294300D01*
X281550Y293600D01*
X281350D02*X282050Y294300D01*
X282750Y293600D01*
G54D105*G36*
X276750Y295200D02*Y293200D01*
X280350D01*
Y295200D01*
X276750D01*
G37*
G54D108*X267450Y296200D02*X270450D01*
X266750Y295500D02*X267450Y296200D01*
X267750D02*X268350Y295600D01*
X268950Y296200D01*
G54D105*G36*
X264250Y296500D02*Y294500D01*
X267750D01*
Y296500D01*
X264250D01*
G37*
G54D108*X270450Y296200D02*X271150Y295500D01*
X269550Y295600D02*X270150Y296200D01*
X268950D02*X269550Y295600D01*
G54D105*G36*
X270150Y296500D02*Y294500D01*
X272650D01*
Y296500D01*
X270150D01*
G37*
G54D108*X266850Y294200D02*X267450Y293600D01*
G54D105*G36*
X264250Y295200D02*Y293200D01*
X267850D01*
Y295200D01*
X264250D01*
G37*
G54D108*X267650Y293600D02*X268350Y294300D01*
X267450Y293600D02*X267650D01*
X270550D02*X271150Y294200D01*
G54D105*G36*
X270150Y295200D02*Y293200D01*
X272650D01*
Y295200D01*
X270150D01*
G37*
G54D108*X267450Y293600D02*X270550D01*
X268350Y294300D02*X269050Y293600D01*
X268850D02*X269550Y294300D01*
X270250Y293600D01*
M02*
