G04 start of page 14 for group -3984 idx -3984 *
G04 Title: (unknown), fab *
G04 Creator: pcb 4.2.0 *
G04 CreationDate: Wed Sep 23 11:56:37 2020 UTC *
G04 For: commonadmin *
G04 Format: Gerber/RS-274X *
G04 PCB-Dimensions (mil): 1250.00 1500.00 *
G04 PCB-Coordinate-Origin: lower left *
%MOIN*%
%FSLAX25Y25*%
%LNFAB*%
%ADD117C,0.0100*%
%ADD116C,0.0075*%
%ADD115C,0.0060*%
%ADD114C,0.0080*%
G54D114*X37731Y93500D02*G75*G03X39331Y93500I800J0D01*G01*
G75*G03X37731Y93500I-800J0D01*G01*
X36131D02*G75*G03X40931Y93500I2400J0D01*G01*
G75*G03X36131Y93500I-2400J0D01*G01*
X89700D02*G75*G03X91300Y93500I800J0D01*G01*
G75*G03X89700Y93500I-800J0D01*G01*
X88100D02*G75*G03X92900Y93500I2400J0D01*G01*
G75*G03X88100Y93500I-2400J0D01*G01*
X14200Y161250D02*G75*G03X15800Y161250I800J0D01*G01*
G75*G03X14200Y161250I-800J0D01*G01*
X12600D02*G75*G03X17400Y161250I2400J0D01*G01*
G75*G03X12600Y161250I-2400J0D01*G01*
G54D115*X135000Y163500D02*X136500Y160500D01*
X138000Y163500D01*
X136500Y160500D02*Y157500D01*
X139800Y160800D02*X142050D01*
X139800Y157500D02*X142800D01*
X139800Y163500D02*Y157500D01*
Y163500D02*X142800D01*
X147600D02*X148350Y162750D01*
X145350Y163500D02*X147600D01*
X144600Y162750D02*X145350Y163500D01*
X144600Y162750D02*Y161250D01*
X145350Y160500D01*
X147600D01*
X148350Y159750D01*
Y158250D01*
X147600Y157500D02*X148350Y158250D01*
X145350Y157500D02*X147600D01*
X144600Y158250D02*X145350Y157500D01*
X98000Y162750D02*X98750Y163500D01*
X101000D01*
X101750Y162750D01*
Y161250D01*
X98000Y157500D02*X101750Y161250D01*
X98000Y157500D02*X101750D01*
X45000Y158250D02*X45750Y157500D01*
X45000Y162750D02*Y158250D01*
Y162750D02*X45750Y163500D01*
X47250D01*
X48000Y162750D01*
Y158250D01*
X47250Y157500D02*X48000Y158250D01*
X45750Y157500D02*X47250D01*
X45000Y159000D02*X48000Y162000D01*
X49800Y157500D02*X50550D01*
X52350Y158250D02*X53100Y157500D01*
X52350Y162750D02*Y158250D01*
Y162750D02*X53100Y163500D01*
X54600D01*
X55350Y162750D01*
Y158250D01*
X54600Y157500D02*X55350Y158250D01*
X53100Y157500D02*X54600D01*
X52350Y159000D02*X55350Y162000D01*
X57900Y157500D02*X60150Y160500D01*
Y162750D02*Y160500D01*
X59400Y163500D02*X60150Y162750D01*
X57900Y163500D02*X59400D01*
X57150Y162750D02*X57900Y163500D01*
X57150Y162750D02*Y161250D01*
X57900Y160500D01*
X60150D01*
X61950Y159750D02*X64950Y163500D01*
X61950Y159750D02*X65700D01*
X64950Y163500D02*Y157500D01*
X17600Y22400D02*X22400Y17600D01*
X17600D02*X22400Y22400D01*
X18400Y21600D02*X21600D01*
X18400D02*Y18400D01*
X21600D01*
Y21600D02*Y18400D01*
X105600Y22400D02*X110400Y17600D01*
X105600D02*X110400Y22400D01*
X106400Y21600D02*X109600D01*
X106400D02*Y18400D01*
X109600D01*
Y21600D02*Y18400D01*
X69600Y44900D02*X74400Y40100D01*
X69600D02*X74400Y44900D01*
X70400Y44100D02*X73600D01*
X70400D02*Y40900D01*
X73600D01*
Y44100D02*Y40900D01*
X85600Y42400D02*X90400Y37600D01*
X85600D02*X90400Y42400D01*
X86400Y41600D02*X89600D01*
X86400D02*Y38400D01*
X89600D01*
Y41600D02*Y38400D01*
X53600Y44900D02*X58400Y40100D01*
X53600D02*X58400Y44900D01*
X54400Y44100D02*X57600D01*
X54400D02*Y40900D01*
X57600D01*
Y44100D02*Y40900D01*
X37600Y42400D02*X42400Y37600D01*
X37600D02*X42400Y42400D01*
X38400Y41600D02*X41600D01*
X38400D02*Y38400D01*
X41600D01*
Y41600D02*Y38400D01*
X105600Y109400D02*X110400Y104600D01*
X105600D02*X110400Y109400D01*
X106400Y108600D02*X109600D01*
X106400D02*Y105400D01*
X109600D01*
Y108600D02*Y105400D01*
X17600Y109400D02*X22400Y104600D01*
X17600D02*X22400Y109400D01*
X18400Y108600D02*X21600D01*
X18400D02*Y105400D01*
X21600D01*
Y108600D02*Y105400D01*
X12600Y178650D02*X17400Y173850D01*
X12600D02*X17400Y178650D01*
X13400Y177850D02*X16600D01*
X13400D02*Y174650D01*
X16600D01*
Y177850D02*Y174650D01*
X135000Y178500D02*X136500Y175500D01*
X138000Y178500D01*
X136500Y175500D02*Y172500D01*
X139800Y175800D02*X142050D01*
X139800Y172500D02*X142800D01*
X139800Y178500D02*Y172500D01*
Y178500D02*X142800D01*
X147600D02*X148350Y177750D01*
X145350Y178500D02*X147600D01*
X144600Y177750D02*X145350Y178500D01*
X144600Y177750D02*Y176250D01*
X145350Y175500D01*
X147600D01*
X148350Y174750D01*
Y173250D01*
X147600Y172500D02*X148350Y173250D01*
X145350Y172500D02*X147600D01*
X144600Y173250D02*X145350Y172500D01*
X98000Y173250D02*X98750Y172500D01*
X98000Y174450D02*Y173250D01*
Y174450D02*X99050Y175500D01*
X99950D01*
X101000Y174450D01*
Y173250D01*
X100250Y172500D02*X101000Y173250D01*
X98750Y172500D02*X100250D01*
X98000Y176550D02*X99050Y175500D01*
X98000Y177750D02*Y176550D01*
Y177750D02*X98750Y178500D01*
X100250D01*
X101000Y177750D01*
Y176550D01*
X99950Y175500D02*X101000Y176550D01*
X45000Y173250D02*X45750Y172500D01*
X45000Y177750D02*Y173250D01*
Y177750D02*X45750Y178500D01*
X47250D01*
X48000Y177750D01*
Y173250D01*
X47250Y172500D02*X48000Y173250D01*
X45750Y172500D02*X47250D01*
X45000Y174000D02*X48000Y177000D01*
X49800Y172500D02*X50550D01*
X52350Y173250D02*X53100Y172500D01*
X52350Y177750D02*Y173250D01*
Y177750D02*X53100Y178500D01*
X54600D01*
X55350Y177750D01*
Y173250D01*
X54600Y172500D02*X55350Y173250D01*
X53100Y172500D02*X54600D01*
X52350Y174000D02*X55350Y177000D01*
X57900Y172500D02*X60900Y178500D01*
X57150D02*X60900D01*
X63450Y172500D02*X65700Y175500D01*
Y177750D02*Y175500D01*
X64950Y178500D02*X65700Y177750D01*
X63450Y178500D02*X64950D01*
X62700Y177750D02*X63450Y178500D01*
X62700Y177750D02*Y176250D01*
X63450Y175500D01*
X65700D01*
X89713Y110204D02*Y103804D01*
X86513Y107004D02*X92913D01*
X88113Y108604D02*X91313D01*
X88113D02*Y105404D01*
X91313D01*
Y108604D02*Y105404D01*
X39319Y110204D02*Y103804D01*
X36119Y107004D02*X42519D01*
X37719Y108604D02*X40919D01*
X37719D02*Y105404D01*
X40919D01*
Y108604D02*Y105404D01*
X15000Y194450D02*Y188050D01*
X11800Y191250D02*X18200D01*
X13400Y192850D02*X16600D01*
X13400D02*Y189650D01*
X16600D01*
Y192850D02*Y189650D01*
X135000Y193500D02*X136500Y190500D01*
X138000Y193500D01*
X136500Y190500D02*Y187500D01*
X139800Y190800D02*X142050D01*
X139800Y187500D02*X142800D01*
X139800Y193500D02*Y187500D01*
Y193500D02*X142800D01*
X147600D02*X148350Y192750D01*
X145350Y193500D02*X147600D01*
X144600Y192750D02*X145350Y193500D01*
X144600Y192750D02*Y191250D01*
X145350Y190500D01*
X147600D01*
X148350Y189750D01*
Y188250D01*
X147600Y187500D02*X148350Y188250D01*
X145350Y187500D02*X147600D01*
X144600Y188250D02*X145350Y187500D01*
X98000Y192750D02*X98750Y193500D01*
X101000D01*
X101750Y192750D01*
Y191250D01*
X98000Y187500D02*X101750Y191250D01*
X98000Y187500D02*X101750D01*
X45000Y188250D02*X45750Y187500D01*
X45000Y192750D02*Y188250D01*
Y192750D02*X45750Y193500D01*
X47250D01*
X48000Y192750D01*
Y188250D01*
X47250Y187500D02*X48000Y188250D01*
X45750Y187500D02*X47250D01*
X45000Y189000D02*X48000Y192000D01*
X49800Y187500D02*X50550D01*
X52350Y188250D02*X53100Y187500D01*
X52350Y192750D02*Y188250D01*
Y192750D02*X53100Y193500D01*
X54600D01*
X55350Y192750D01*
Y188250D01*
X54600Y187500D02*X55350Y188250D01*
X53100Y187500D02*X54600D01*
X52350Y189000D02*X55350Y192000D01*
X57150Y193500D02*X60150D01*
X57150D02*Y190500D01*
X57900Y191250D01*
X59400D01*
X60150Y190500D01*
Y188250D01*
X59400Y187500D02*X60150Y188250D01*
X57900Y187500D02*X59400D01*
X57150Y188250D02*X57900Y187500D01*
X61950Y192300D02*X63150Y193500D01*
Y187500D01*
X61950D02*X64200D01*
X16457Y27480D02*Y24280D01*
Y27480D02*X19230Y29080D01*
X16457Y27480D02*X13683Y29080D01*
X14857Y27480D02*G75*G03X18057Y27480I1600J0D01*G01*
G75*G03X14857Y27480I-1600J0D01*G01*
X104457D02*Y24280D01*
Y27480D02*X107230Y29080D01*
X104457Y27480D02*X101683Y29080D01*
X102857Y27480D02*G75*G03X106057Y27480I1600J0D01*G01*
G75*G03X102857Y27480I-1600J0D01*G01*
X68457Y49980D02*Y46780D01*
Y49980D02*X71230Y51580D01*
X68457Y49980D02*X65683Y51580D01*
X66857Y49980D02*G75*G03X70057Y49980I1600J0D01*G01*
G75*G03X66857Y49980I-1600J0D01*G01*
X84457Y47480D02*Y44280D01*
Y47480D02*X87230Y49080D01*
X84457Y47480D02*X81683Y49080D01*
X82857Y47480D02*G75*G03X86057Y47480I1600J0D01*G01*
G75*G03X82857Y47480I-1600J0D01*G01*
X52457Y49980D02*Y46780D01*
Y49980D02*X55230Y51580D01*
X52457Y49980D02*X49683Y51580D01*
X50857Y49980D02*G75*G03X54057Y49980I1600J0D01*G01*
G75*G03X50857Y49980I-1600J0D01*G01*
X36457Y47480D02*Y44280D01*
Y47480D02*X39230Y49080D01*
X36457Y47480D02*X33683Y49080D01*
X34857Y47480D02*G75*G03X38057Y47480I1600J0D01*G01*
G75*G03X34857Y47480I-1600J0D01*G01*
X104457Y114480D02*Y111280D01*
Y114480D02*X107230Y116080D01*
X104457Y114480D02*X101683Y116080D01*
X102857Y114480D02*G75*G03X106057Y114480I1600J0D01*G01*
G75*G03X102857Y114480I-1600J0D01*G01*
X16457D02*Y111280D01*
Y114480D02*X19230Y116080D01*
X16457Y114480D02*X13683Y116080D01*
X14857Y114480D02*G75*G03X18057Y114480I1600J0D01*G01*
G75*G03X14857Y114480I-1600J0D01*G01*
X15000Y206250D02*Y203050D01*
Y206250D02*X17773Y207850D01*
X15000Y206250D02*X12227Y207850D01*
X13400Y206250D02*G75*G03X16600Y206250I1600J0D01*G01*
G75*G03X13400Y206250I-1600J0D01*G01*
X135000Y208500D02*X136500Y205500D01*
X138000Y208500D01*
X136500Y205500D02*Y202500D01*
X139800Y205800D02*X142050D01*
X139800Y202500D02*X142800D01*
X139800Y208500D02*Y202500D01*
Y208500D02*X142800D01*
X147600D02*X148350Y207750D01*
X145350Y208500D02*X147600D01*
X144600Y207750D02*X145350Y208500D01*
X144600Y207750D02*Y206250D01*
X145350Y205500D01*
X147600D01*
X148350Y204750D01*
Y203250D01*
X147600Y202500D02*X148350Y203250D01*
X145350Y202500D02*X147600D01*
X144600Y203250D02*X145350Y202500D01*
X98000Y203250D02*X98750Y202500D01*
X98000Y204450D02*Y203250D01*
Y204450D02*X99050Y205500D01*
X99950D01*
X101000Y204450D01*
Y203250D01*
X100250Y202500D02*X101000Y203250D01*
X98750Y202500D02*X100250D01*
X98000Y206550D02*X99050Y205500D01*
X98000Y207750D02*Y206550D01*
Y207750D02*X98750Y208500D01*
X100250D01*
X101000Y207750D01*
Y206550D01*
X99950Y205500D02*X101000Y206550D01*
X45000Y203250D02*X45750Y202500D01*
X45000Y207750D02*Y203250D01*
Y207750D02*X45750Y208500D01*
X47250D01*
X48000Y207750D01*
Y203250D01*
X47250Y202500D02*X48000Y203250D01*
X45750Y202500D02*X47250D01*
X45000Y204000D02*X48000Y207000D01*
X49800Y202500D02*X50550D01*
X52350Y203250D02*X53100Y202500D01*
X52350Y207750D02*Y203250D01*
Y207750D02*X53100Y208500D01*
X54600D01*
X55350Y207750D01*
Y203250D01*
X54600Y202500D02*X55350Y203250D01*
X53100Y202500D02*X54600D01*
X52350Y204000D02*X55350Y207000D01*
X57150Y204750D02*X60150Y208500D01*
X57150Y204750D02*X60900D01*
X60150Y208500D02*Y202500D01*
X63450D02*X65700Y205500D01*
Y207750D02*Y205500D01*
X64950Y208500D02*X65700Y207750D01*
X63450Y208500D02*X64950D01*
X62700Y207750D02*X63450Y208500D01*
X62700Y207750D02*Y206250D01*
X63450Y205500D01*
X65700D01*
X80435Y72620D02*X83635D01*
X80435D02*Y69420D01*
X83635D01*
Y72620D02*Y69420D01*
X90475Y72620D02*X93675D01*
X90475D02*Y69420D01*
X93675D01*
Y72620D02*Y69420D01*
X64924Y98643D02*X68124D01*
X64924D02*Y95443D01*
X68124D01*
Y98643D02*Y95443D01*
X72955Y98643D02*X76155D01*
X72955D02*Y95443D01*
X76155D01*
Y98643D02*Y95443D01*
X56892Y98643D02*X60092D01*
X56892D02*Y95443D01*
X60092D01*
Y98643D02*Y95443D01*
X48861Y98643D02*X52061D01*
X48861D02*Y95443D01*
X52061D01*
Y98643D02*Y95443D01*
X60908Y91557D02*X64108D01*
X60908D02*Y88357D01*
X64108D01*
Y91557D02*Y88357D01*
X52876Y91557D02*X56076D01*
X52876D02*Y88357D01*
X56076D01*
Y91557D02*Y88357D01*
X68939Y91557D02*X72139D01*
X68939D02*Y88357D01*
X72139D01*
Y91557D02*Y88357D01*
X76971Y91557D02*X80171D01*
X76971D02*Y88357D01*
X80171D01*
Y91557D02*Y88357D01*
X35357Y72620D02*X38557D01*
X35357D02*Y69420D01*
X38557D01*
Y72620D02*Y69420D01*
X45396Y72620D02*X48596D01*
X45396D02*Y69420D01*
X48596D01*
Y72620D02*Y69420D01*
X13400Y222850D02*X16600D01*
X13400D02*Y219650D01*
X16600D01*
Y222850D02*Y219650D01*
X135000Y223500D02*X136500Y220500D01*
X138000Y223500D01*
X136500Y220500D02*Y217500D01*
X139800Y220800D02*X142050D01*
X139800Y217500D02*X142800D01*
X139800Y223500D02*Y217500D01*
Y223500D02*X142800D01*
X147600D02*X148350Y222750D01*
X145350Y223500D02*X147600D01*
X144600Y222750D02*X145350Y223500D01*
X144600Y222750D02*Y221250D01*
X145350Y220500D01*
X147600D01*
X148350Y219750D01*
Y218250D01*
X147600Y217500D02*X148350Y218250D01*
X145350Y217500D02*X147600D01*
X144600Y218250D02*X145350Y217500D01*
X98000Y222300D02*X99200Y223500D01*
Y217500D01*
X98000D02*X100250D01*
X102050Y222750D02*X102800Y223500D01*
X105050D01*
X105800Y222750D01*
Y221250D01*
X102050Y217500D02*X105800Y221250D01*
X102050Y217500D02*X105800D01*
X45000Y218250D02*X45750Y217500D01*
X45000Y222750D02*Y218250D01*
Y222750D02*X45750Y223500D01*
X47250D01*
X48000Y222750D01*
Y218250D01*
X47250Y217500D02*X48000Y218250D01*
X45750Y217500D02*X47250D01*
X45000Y219000D02*X48000Y222000D01*
X49800Y217500D02*X50550D01*
X52350Y218250D02*X53100Y217500D01*
X52350Y222750D02*Y218250D01*
Y222750D02*X53100Y223500D01*
X54600D01*
X55350Y222750D01*
Y218250D01*
X54600Y217500D02*X55350Y218250D01*
X53100Y217500D02*X54600D01*
X52350Y219000D02*X55350Y222000D01*
X57150Y222750D02*X57900Y223500D01*
X59400D01*
X60150Y222750D01*
X59400Y217500D02*X60150Y218250D01*
X57900Y217500D02*X59400D01*
X57150Y218250D02*X57900Y217500D01*
Y220800D02*X59400D01*
X60150Y222750D02*Y221550D01*
Y220050D02*Y218250D01*
Y220050D02*X59400Y220800D01*
X60150Y221550D02*X59400Y220800D01*
X61950Y223500D02*X64950D01*
X61950D02*Y220500D01*
X62700Y221250D01*
X64200D01*
X64950Y220500D01*
Y218250D01*
X64200Y217500D02*X64950Y218250D01*
X62700Y217500D02*X64200D01*
X61950Y218250D02*X62700Y217500D01*
X21562Y27087D02*G75*G03X23162Y27087I800J0D01*G01*
G75*G03X21562Y27087I-800J0D01*G01*
X109562D02*G75*G03X111162Y27087I800J0D01*G01*
G75*G03X109562Y27087I-800J0D01*G01*
X73562Y49587D02*G75*G03X75162Y49587I800J0D01*G01*
G75*G03X73562Y49587I-800J0D01*G01*
X89562Y47087D02*G75*G03X91162Y47087I800J0D01*G01*
G75*G03X89562Y47087I-800J0D01*G01*
X57562Y49587D02*G75*G03X59162Y49587I800J0D01*G01*
G75*G03X57562Y49587I-800J0D01*G01*
X41562Y47087D02*G75*G03X43162Y47087I800J0D01*G01*
G75*G03X41562Y47087I-800J0D01*G01*
X109562Y114087D02*G75*G03X111162Y114087I800J0D01*G01*
G75*G03X109562Y114087I-800J0D01*G01*
X21562D02*G75*G03X23162Y114087I800J0D01*G01*
G75*G03X21562Y114087I-800J0D01*G01*
X14200Y236250D02*G75*G03X15800Y236250I800J0D01*G01*
G75*G03X14200Y236250I-800J0D01*G01*
X135000Y238500D02*X136500Y235500D01*
X138000Y238500D01*
X136500Y235500D02*Y232500D01*
X139800Y235800D02*X142050D01*
X139800Y232500D02*X142800D01*
X139800Y238500D02*Y232500D01*
Y238500D02*X142800D01*
X147600D02*X148350Y237750D01*
X145350Y238500D02*X147600D01*
X144600Y237750D02*X145350Y238500D01*
X144600Y237750D02*Y236250D01*
X145350Y235500D01*
X147600D01*
X148350Y234750D01*
Y233250D01*
X147600Y232500D02*X148350Y233250D01*
X145350Y232500D02*X147600D01*
X144600Y233250D02*X145350Y232500D01*
X98000Y233250D02*X98750Y232500D01*
X98000Y234450D02*Y233250D01*
Y234450D02*X99050Y235500D01*
X99950D01*
X101000Y234450D01*
Y233250D01*
X100250Y232500D02*X101000Y233250D01*
X98750Y232500D02*X100250D01*
X98000Y236550D02*X99050Y235500D01*
X98000Y237750D02*Y236550D01*
Y237750D02*X98750Y238500D01*
X100250D01*
X101000Y237750D01*
Y236550D01*
X99950Y235500D02*X101000Y236550D01*
X45000Y233250D02*X45750Y232500D01*
X45000Y237750D02*Y233250D01*
Y237750D02*X45750Y238500D01*
X47250D01*
X48000Y237750D01*
Y233250D01*
X47250Y232500D02*X48000Y233250D01*
X45750Y232500D02*X47250D01*
X45000Y234000D02*X48000Y237000D01*
X49800Y232500D02*X50550D01*
X52350Y233250D02*X53100Y232500D01*
X52350Y237750D02*Y233250D01*
Y237750D02*X53100Y238500D01*
X54600D01*
X55350Y237750D01*
Y233250D01*
X54600Y232500D02*X55350Y233250D01*
X53100Y232500D02*X54600D01*
X52350Y234000D02*X55350Y237000D01*
X57150Y237750D02*X57900Y238500D01*
X59400D01*
X60150Y237750D01*
X59400Y232500D02*X60150Y233250D01*
X57900Y232500D02*X59400D01*
X57150Y233250D02*X57900Y232500D01*
Y235800D02*X59400D01*
X60150Y237750D02*Y236550D01*
Y235050D02*Y233250D01*
Y235050D02*X59400Y235800D01*
X60150Y236550D02*X59400Y235800D01*
X61950Y233250D02*X62700Y232500D01*
X61950Y237750D02*Y233250D01*
Y237750D02*X62700Y238500D01*
X64200D01*
X64950Y237750D01*
Y233250D01*
X64200Y232500D02*X64950Y233250D01*
X62700Y232500D02*X64200D01*
X61950Y234000D02*X64950Y237000D01*
X24706Y25137D02*X27106Y22737D01*
X24706D02*X27106Y25137D01*
X112706D02*X115106Y22737D01*
X112706D02*X115106Y25137D01*
X76706Y47637D02*X79106Y45237D01*
X76706D02*X79106Y47637D01*
X92706Y45137D02*X95106Y42737D01*
X92706D02*X95106Y45137D01*
X60706Y47637D02*X63106Y45237D01*
X60706D02*X63106Y47637D01*
X44706Y45137D02*X47106Y42737D01*
X44706D02*X47106Y45137D01*
X112706Y112137D02*X115106Y109737D01*
X112706D02*X115106Y112137D01*
X24706D02*X27106Y109737D01*
X24706D02*X27106Y112137D01*
X13800Y252450D02*X16200Y250050D01*
X13800D02*X16200Y252450D01*
X135000Y253500D02*X136500Y250500D01*
X138000Y253500D01*
X136500Y250500D02*Y247500D01*
X139800Y250800D02*X142050D01*
X139800Y247500D02*X142800D01*
X139800Y253500D02*Y247500D01*
Y253500D02*X142800D01*
X147600D02*X148350Y252750D01*
X145350Y253500D02*X147600D01*
X144600Y252750D02*X145350Y253500D01*
X144600Y252750D02*Y251250D01*
X145350Y250500D01*
X147600D01*
X148350Y249750D01*
Y248250D01*
X147600Y247500D02*X148350Y248250D01*
X145350Y247500D02*X147600D01*
X144600Y248250D02*X145350Y247500D01*
X98000Y248250D02*X98750Y247500D01*
X98000Y249450D02*Y248250D01*
Y249450D02*X99050Y250500D01*
X99950D01*
X101000Y249450D01*
Y248250D01*
X100250Y247500D02*X101000Y248250D01*
X98750Y247500D02*X100250D01*
X98000Y251550D02*X99050Y250500D01*
X98000Y252750D02*Y251550D01*
Y252750D02*X98750Y253500D01*
X100250D01*
X101000Y252750D01*
Y251550D01*
X99950Y250500D02*X101000Y251550D01*
X45000Y248250D02*X45750Y247500D01*
X45000Y252750D02*Y248250D01*
Y252750D02*X45750Y253500D01*
X47250D01*
X48000Y252750D01*
Y248250D01*
X47250Y247500D02*X48000Y248250D01*
X45750Y247500D02*X47250D01*
X45000Y249000D02*X48000Y252000D01*
X49800Y247500D02*X50550D01*
X52350Y248250D02*X53100Y247500D01*
X52350Y252750D02*Y248250D01*
Y252750D02*X53100Y253500D01*
X54600D01*
X55350Y252750D01*
Y248250D01*
X54600Y247500D02*X55350Y248250D01*
X53100Y247500D02*X54600D01*
X52350Y249000D02*X55350Y252000D01*
X57150Y252750D02*X57900Y253500D01*
X60150D01*
X60900Y252750D01*
Y251250D01*
X57150Y247500D02*X60900Y251250D01*
X57150Y247500D02*X60900D01*
X62700Y248250D02*X63450Y247500D01*
X62700Y252750D02*Y248250D01*
Y252750D02*X63450Y253500D01*
X64950D01*
X65700Y252750D01*
Y248250D01*
X64950Y247500D02*X65700Y248250D01*
X63450Y247500D02*X64950D01*
X62700Y249000D02*X65700Y252000D01*
X42500Y103100D02*Y99900D01*
X40900Y101500D02*X44100D01*
X36000Y103100D02*Y99900D01*
X34400Y101500D02*X37600D01*
X62000Y102100D02*Y98900D01*
X60400Y100500D02*X63600D01*
X93000Y102600D02*Y99400D01*
X91400Y101000D02*X94600D01*
X15000Y267850D02*Y264650D01*
X13400Y266250D02*X16600D01*
X135000Y268500D02*X136500Y265500D01*
X138000Y268500D01*
X136500Y265500D02*Y262500D01*
X139800Y265800D02*X142050D01*
X139800Y262500D02*X142800D01*
X139800Y268500D02*Y262500D01*
Y268500D02*X142800D01*
X147600D02*X148350Y267750D01*
X145350Y268500D02*X147600D01*
X144600Y267750D02*X145350Y268500D01*
X144600Y267750D02*Y266250D01*
X145350Y265500D01*
X147600D01*
X148350Y264750D01*
Y263250D01*
X147600Y262500D02*X148350Y263250D01*
X145350Y262500D02*X147600D01*
X144600Y263250D02*X145350Y262500D01*
X98000Y264750D02*X101000Y268500D01*
X98000Y264750D02*X101750D01*
X101000Y268500D02*Y262500D01*
X45000Y263250D02*X45750Y262500D01*
X45000Y267750D02*Y263250D01*
Y267750D02*X45750Y268500D01*
X47250D01*
X48000Y267750D01*
Y263250D01*
X47250Y262500D02*X48000Y263250D01*
X45750Y262500D02*X47250D01*
X45000Y264000D02*X48000Y267000D01*
X49800Y262500D02*X50550D01*
X52350Y263250D02*X53100Y262500D01*
X52350Y267750D02*Y263250D01*
Y267750D02*X53100Y268500D01*
X54600D01*
X55350Y267750D01*
Y263250D01*
X54600Y262500D02*X55350Y263250D01*
X53100Y262500D02*X54600D01*
X52350Y264000D02*X55350Y267000D01*
X57150Y267300D02*X58350Y268500D01*
Y262500D01*
X57150D02*X59400D01*
X61200Y267750D02*X61950Y268500D01*
X63450D01*
X64200Y267750D01*
X63450Y262500D02*X64200Y263250D01*
X61950Y262500D02*X63450D01*
X61200Y263250D02*X61950Y262500D01*
Y265800D02*X63450D01*
X64200Y267750D02*Y266550D01*
Y265050D02*Y263250D01*
Y265050D02*X63450Y265800D01*
X64200Y266550D02*X63450Y265800D01*
X55000Y104500D02*Y102900D01*
Y104500D02*X56387Y105300D01*
X55000Y104500D02*X53613Y105300D01*
X62500Y109500D02*Y107900D01*
Y109500D02*X63887Y110300D01*
X62500Y109500D02*X61113Y110300D01*
X15000Y281250D02*Y279650D01*
Y281250D02*X16387Y282050D01*
X15000Y281250D02*X13613Y282050D01*
X135000Y283500D02*X136500Y280500D01*
X138000Y283500D01*
X136500Y280500D02*Y277500D01*
X139800Y280800D02*X142050D01*
X139800Y277500D02*X142800D01*
X139800Y283500D02*Y277500D01*
Y283500D02*X142800D01*
X147600D02*X148350Y282750D01*
X145350Y283500D02*X147600D01*
X144600Y282750D02*X145350Y283500D01*
X144600Y282750D02*Y281250D01*
X145350Y280500D01*
X147600D01*
X148350Y279750D01*
Y278250D01*
X147600Y277500D02*X148350Y278250D01*
X145350Y277500D02*X147600D01*
X144600Y278250D02*X145350Y277500D01*
X98000Y282750D02*X98750Y283500D01*
X101000D01*
X101750Y282750D01*
Y281250D01*
X98000Y277500D02*X101750Y281250D01*
X98000Y277500D02*X101750D01*
X45000Y278250D02*X45750Y277500D01*
X45000Y282750D02*Y278250D01*
Y282750D02*X45750Y283500D01*
X47250D01*
X48000Y282750D01*
Y278250D01*
X47250Y277500D02*X48000Y278250D01*
X45750Y277500D02*X47250D01*
X45000Y279000D02*X48000Y282000D01*
X49800Y277500D02*X50550D01*
X52350Y278250D02*X53100Y277500D01*
X52350Y282750D02*Y278250D01*
Y282750D02*X53100Y283500D01*
X54600D01*
X55350Y282750D01*
Y278250D01*
X54600Y277500D02*X55350Y278250D01*
X53100Y277500D02*X54600D01*
X52350Y279000D02*X55350Y282000D01*
X57150Y282300D02*X58350Y283500D01*
Y277500D01*
X57150D02*X59400D01*
X61200Y278250D02*X61950Y277500D01*
X61200Y282750D02*Y278250D01*
Y282750D02*X61950Y283500D01*
X63450D01*
X64200Y282750D01*
Y278250D01*
X63450Y277500D02*X64200Y278250D01*
X61950Y277500D02*X63450D01*
X61200Y279000D02*X64200Y282000D01*
X3000Y298500D02*X3750Y297750D01*
X750Y298500D02*X3000D01*
X0Y297750D02*X750Y298500D01*
X0Y297750D02*Y296250D01*
X750Y295500D01*
X3000D01*
X3750Y294750D01*
Y293250D01*
X3000Y292500D02*X3750Y293250D01*
X750Y292500D02*X3000D01*
X0Y293250D02*X750Y292500D01*
X5550Y295500D02*Y293250D01*
X6300Y292500D01*
X8550Y295500D02*Y291000D01*
X7800Y290250D02*X8550Y291000D01*
X6300Y290250D02*X7800D01*
X5550Y291000D02*X6300Y290250D01*
Y292500D02*X7800D01*
X8550Y293250D01*
X11100Y294750D02*Y292500D01*
Y294750D02*X11850Y295500D01*
X12600D01*
X13350Y294750D01*
Y292500D01*
Y294750D02*X14100Y295500D01*
X14850D01*
X15600Y294750D01*
Y292500D01*
X10350Y295500D02*X11100Y294750D01*
X17400Y298500D02*Y292500D01*
Y293250D02*X18150Y292500D01*
X19650D01*
X20400Y293250D01*
Y294750D02*Y293250D01*
X19650Y295500D02*X20400Y294750D01*
X18150Y295500D02*X19650D01*
X17400Y294750D02*X18150Y295500D01*
X22200Y294750D02*Y293250D01*
Y294750D02*X22950Y295500D01*
X24450D01*
X25200Y294750D01*
Y293250D01*
X24450Y292500D02*X25200Y293250D01*
X22950Y292500D02*X24450D01*
X22200Y293250D02*X22950Y292500D01*
X27000Y298500D02*Y293250D01*
X27750Y292500D01*
X0Y289250D02*X29250D01*
X41750Y298500D02*Y292500D01*
X43700Y298500D02*X44750Y297450D01*
Y293550D01*
X43700Y292500D02*X44750Y293550D01*
X41000Y292500D02*X43700D01*
X41000Y298500D02*X43700D01*
G54D116*X46550Y297000D02*Y296850D01*
G54D115*Y294750D02*Y292500D01*
X50300Y295500D02*X51050Y294750D01*
X48800Y295500D02*X50300D01*
X48050Y294750D02*X48800Y295500D01*
X48050Y294750D02*Y293250D01*
X48800Y292500D01*
X51050Y295500D02*Y293250D01*
X51800Y292500D01*
X48800D02*X50300D01*
X51050Y293250D01*
X54350Y294750D02*Y292500D01*
Y294750D02*X55100Y295500D01*
X55850D01*
X56600Y294750D01*
Y292500D01*
Y294750D02*X57350Y295500D01*
X58100D01*
X58850Y294750D01*
Y292500D01*
X53600Y295500D02*X54350Y294750D01*
X60650Y292500D02*X61400D01*
X65900Y293250D02*X66650Y292500D01*
X65900Y297750D02*X66650Y298500D01*
X65900Y297750D02*Y293250D01*
X68450Y298500D02*X69950D01*
X69200D02*Y292500D01*
X68450D02*X69950D01*
X72500Y294750D02*Y292500D01*
Y294750D02*X73250Y295500D01*
X74000D01*
X74750Y294750D01*
Y292500D01*
X71750Y295500D02*X72500Y294750D01*
X77300Y295500D02*X79550D01*
X76550Y294750D02*X77300Y295500D01*
X76550Y294750D02*Y293250D01*
X77300Y292500D01*
X79550D01*
X81350Y298500D02*Y292500D01*
Y294750D02*X82100Y295500D01*
X83600D01*
X84350Y294750D01*
Y292500D01*
X86150Y298500D02*X86900Y297750D01*
Y293250D01*
X86150Y292500D02*X86900Y293250D01*
X41000Y289250D02*X88700D01*
X96050Y292500D02*X98000D01*
X95000Y293550D02*X96050Y292500D01*
X95000Y297450D02*Y293550D01*
Y297450D02*X96050Y298500D01*
X98000D01*
X99800Y294750D02*Y293250D01*
Y294750D02*X100550Y295500D01*
X102050D01*
X102800Y294750D01*
Y293250D01*
X102050Y292500D02*X102800Y293250D01*
X100550Y292500D02*X102050D01*
X99800Y293250D02*X100550Y292500D01*
X104600Y295500D02*Y293250D01*
X105350Y292500D01*
X106850D01*
X107600Y293250D01*
Y295500D02*Y293250D01*
X110150Y294750D02*Y292500D01*
Y294750D02*X110900Y295500D01*
X111650D01*
X112400Y294750D01*
Y292500D01*
X109400Y295500D02*X110150Y294750D01*
X114950Y298500D02*Y293250D01*
X115700Y292500D01*
X114200Y296250D02*X115700D01*
X95000Y289250D02*X117200D01*
X130750Y298500D02*Y292500D01*
X130000Y298500D02*X133000D01*
X133750Y297750D01*
Y296250D01*
X133000Y295500D02*X133750Y296250D01*
X130750Y295500D02*X133000D01*
X135550Y298500D02*Y293250D01*
X136300Y292500D01*
X140050Y295500D02*X140800Y294750D01*
X138550Y295500D02*X140050D01*
X137800Y294750D02*X138550Y295500D01*
X137800Y294750D02*Y293250D01*
X138550Y292500D01*
X140800Y295500D02*Y293250D01*
X141550Y292500D01*
X138550D02*X140050D01*
X140800Y293250D01*
X144100Y298500D02*Y293250D01*
X144850Y292500D01*
X143350Y296250D02*X144850D01*
X147100Y292500D02*X149350D01*
X146350Y293250D02*X147100Y292500D01*
X146350Y294750D02*Y293250D01*
Y294750D02*X147100Y295500D01*
X148600D01*
X149350Y294750D01*
X146350Y294000D02*X149350D01*
Y294750D02*Y294000D01*
X154150Y298500D02*Y292500D01*
X153400D02*X154150Y293250D01*
X151900Y292500D02*X153400D01*
X151150Y293250D02*X151900Y292500D01*
X151150Y294750D02*Y293250D01*
Y294750D02*X151900Y295500D01*
X153400D01*
X154150Y294750D01*
X157450Y295500D02*Y294750D01*
Y293250D02*Y292500D01*
X155950Y297750D02*Y297000D01*
Y297750D02*X156700Y298500D01*
X158200D01*
X158950Y297750D01*
Y297000D01*
X157450Y295500D02*X158950Y297000D01*
X130000Y289250D02*X160750D01*
X0Y313500D02*X3000D01*
X1500D02*Y307500D01*
X4800Y313500D02*Y307500D01*
Y309750D02*X5550Y310500D01*
X7050D01*
X7800Y309750D01*
Y307500D01*
X10350D02*X12600D01*
X9600Y308250D02*X10350Y307500D01*
X9600Y309750D02*Y308250D01*
Y309750D02*X10350Y310500D01*
X11850D01*
X12600Y309750D01*
X9600Y309000D02*X12600D01*
Y309750D02*Y309000D01*
X15150Y309750D02*Y307500D01*
Y309750D02*X15900Y310500D01*
X17400D01*
X14400D02*X15150Y309750D01*
X19950Y307500D02*X22200D01*
X19200Y308250D02*X19950Y307500D01*
X19200Y309750D02*Y308250D01*
Y309750D02*X19950Y310500D01*
X21450D01*
X22200Y309750D01*
X19200Y309000D02*X22200D01*
Y309750D02*Y309000D01*
X28950Y310500D02*X29700Y309750D01*
X27450Y310500D02*X28950D01*
X26700Y309750D02*X27450Y310500D01*
X26700Y309750D02*Y308250D01*
X27450Y307500D01*
X29700Y310500D02*Y308250D01*
X30450Y307500D01*
X27450D02*X28950D01*
X29700Y308250D01*
X33000Y309750D02*Y307500D01*
Y309750D02*X33750Y310500D01*
X35250D01*
X32250D02*X33000Y309750D01*
X37800Y307500D02*X40050D01*
X37050Y308250D02*X37800Y307500D01*
X37050Y309750D02*Y308250D01*
Y309750D02*X37800Y310500D01*
X39300D01*
X40050Y309750D01*
X37050Y309000D02*X40050D01*
Y309750D02*Y309000D01*
X45300Y307500D02*X47550Y310500D01*
Y312750D02*Y310500D01*
X46800Y313500D02*X47550Y312750D01*
X45300Y313500D02*X46800D01*
X44550Y312750D02*X45300Y313500D01*
X44550Y312750D02*Y311250D01*
X45300Y310500D01*
X47550D01*
X55050Y313500D02*Y307500D01*
X54300D02*X55050Y308250D01*
X52800Y307500D02*X54300D01*
X52050Y308250D02*X52800Y307500D01*
X52050Y309750D02*Y308250D01*
Y309750D02*X52800Y310500D01*
X54300D01*
X55050Y309750D01*
G54D116*X56850Y312000D02*Y311850D01*
G54D115*Y309750D02*Y307500D01*
X59100Y312750D02*Y307500D01*
Y312750D02*X59850Y313500D01*
X60600D01*
X58350Y310500D02*X59850D01*
X62850Y312750D02*Y307500D01*
Y312750D02*X63600Y313500D01*
X64350D01*
X62100Y310500D02*X63600D01*
X66600Y307500D02*X68850D01*
X65850Y308250D02*X66600Y307500D01*
X65850Y309750D02*Y308250D01*
Y309750D02*X66600Y310500D01*
X68100D01*
X68850Y309750D01*
X65850Y309000D02*X68850D01*
Y309750D02*Y309000D01*
X71400Y309750D02*Y307500D01*
Y309750D02*X72150Y310500D01*
X73650D01*
X70650D02*X71400Y309750D01*
X76200Y307500D02*X78450D01*
X75450Y308250D02*X76200Y307500D01*
X75450Y309750D02*Y308250D01*
Y309750D02*X76200Y310500D01*
X77700D01*
X78450Y309750D01*
X75450Y309000D02*X78450D01*
Y309750D02*Y309000D01*
X81000Y309750D02*Y307500D01*
Y309750D02*X81750Y310500D01*
X82500D01*
X83250Y309750D01*
Y307500D01*
X80250Y310500D02*X81000Y309750D01*
X85800Y313500D02*Y308250D01*
X86550Y307500D01*
X85050Y311250D02*X86550D01*
X93750Y313500D02*Y307500D01*
X93000D02*X93750Y308250D01*
X91500Y307500D02*X93000D01*
X90750Y308250D02*X91500Y307500D01*
X90750Y309750D02*Y308250D01*
Y309750D02*X91500Y310500D01*
X93000D01*
X93750Y309750D01*
X96300D02*Y307500D01*
Y309750D02*X97050Y310500D01*
X98550D01*
X95550D02*X96300Y309750D01*
G54D116*X100350Y312000D02*Y311850D01*
G54D115*Y309750D02*Y307500D01*
X101850Y313500D02*Y308250D01*
X102600Y307500D01*
X104100Y313500D02*Y308250D01*
X104850Y307500D01*
X109800D02*X112050D01*
X112800Y308250D01*
X112050Y309000D02*X112800Y308250D01*
X109800Y309000D02*X112050D01*
X109050Y309750D02*X109800Y309000D01*
X109050Y309750D02*X109800Y310500D01*
X112050D01*
X112800Y309750D01*
X109050Y308250D02*X109800Y307500D01*
G54D116*X114600Y312000D02*Y311850D01*
G54D115*Y309750D02*Y307500D01*
X116100Y310500D02*X119100D01*
X116100Y307500D02*X119100Y310500D01*
X116100Y307500D02*X119100D01*
X121650D02*X123900D01*
X120900Y308250D02*X121650Y307500D01*
X120900Y309750D02*Y308250D01*
Y309750D02*X121650Y310500D01*
X123150D01*
X123900Y309750D01*
X120900Y309000D02*X123900D01*
Y309750D02*Y309000D01*
X126450Y307500D02*X128700D01*
X129450Y308250D01*
X128700Y309000D02*X129450Y308250D01*
X126450Y309000D02*X128700D01*
X125700Y309750D02*X126450Y309000D01*
X125700Y309750D02*X126450Y310500D01*
X128700D01*
X129450Y309750D01*
X125700Y308250D02*X126450Y307500D01*
X133950Y310500D02*Y308250D01*
X134700Y307500D01*
X136200D01*
X136950Y308250D01*
Y310500D02*Y308250D01*
X139500Y307500D02*X141750D01*
X142500Y308250D01*
X141750Y309000D02*X142500Y308250D01*
X139500Y309000D02*X141750D01*
X138750Y309750D02*X139500Y309000D01*
X138750Y309750D02*X139500Y310500D01*
X141750D01*
X142500Y309750D01*
X138750Y308250D02*X139500Y307500D01*
X145050D02*X147300D01*
X144300Y308250D02*X145050Y307500D01*
X144300Y309750D02*Y308250D01*
Y309750D02*X145050Y310500D01*
X146550D01*
X147300Y309750D01*
X144300Y309000D02*X147300D01*
Y309750D02*Y309000D01*
X152100Y313500D02*Y307500D01*
X151350D02*X152100Y308250D01*
X149850Y307500D02*X151350D01*
X149100Y308250D02*X149850Y307500D01*
X149100Y309750D02*Y308250D01*
Y309750D02*X149850Y310500D01*
X151350D01*
X152100Y309750D01*
G54D116*X156600Y312000D02*Y311850D01*
G54D115*Y309750D02*Y307500D01*
X158850Y309750D02*Y307500D01*
Y309750D02*X159600Y310500D01*
X160350D01*
X161100Y309750D01*
Y307500D01*
X158100Y310500D02*X158850Y309750D01*
X166350Y313500D02*Y308250D01*
X167100Y307500D01*
X165600Y311250D02*X167100D01*
X168600Y313500D02*Y307500D01*
Y309750D02*X169350Y310500D01*
X170850D01*
X171600Y309750D01*
Y307500D01*
G54D116*X173400Y312000D02*Y311850D01*
G54D115*Y309750D02*Y307500D01*
X175650D02*X177900D01*
X178650Y308250D01*
X177900Y309000D02*X178650Y308250D01*
X175650Y309000D02*X177900D01*
X174900Y309750D02*X175650Y309000D01*
X174900Y309750D02*X175650Y310500D01*
X177900D01*
X178650Y309750D01*
X174900Y308250D02*X175650Y307500D01*
X183150Y313500D02*Y308250D01*
X183900Y307500D01*
X187650Y310500D02*X188400Y309750D01*
X186150Y310500D02*X187650D01*
X185400Y309750D02*X186150Y310500D01*
X185400Y309750D02*Y308250D01*
X186150Y307500D01*
X188400Y310500D02*Y308250D01*
X189150Y307500D01*
X186150D02*X187650D01*
X188400Y308250D01*
X190950Y310500D02*Y308250D01*
X191700Y307500D01*
X193950Y310500D02*Y306000D01*
X193200Y305250D02*X193950Y306000D01*
X191700Y305250D02*X193200D01*
X190950Y306000D02*X191700Y305250D01*
Y307500D02*X193200D01*
X193950Y308250D01*
X195750Y309750D02*Y308250D01*
Y309750D02*X196500Y310500D01*
X198000D01*
X198750Y309750D01*
Y308250D01*
X198000Y307500D02*X198750Y308250D01*
X196500Y307500D02*X198000D01*
X195750Y308250D02*X196500Y307500D01*
X200550Y310500D02*Y308250D01*
X201300Y307500D01*
X202800D01*
X203550Y308250D01*
Y310500D02*Y308250D01*
X206100Y313500D02*Y308250D01*
X206850Y307500D01*
X205350Y311250D02*X206850D01*
X208350Y306000D02*X209850Y307500D01*
X214350Y313500D02*X217350D01*
X214350D02*Y310500D01*
X215100Y311250D01*
X216600D01*
X217350Y310500D01*
Y308250D01*
X216600Y307500D02*X217350Y308250D01*
X215100Y307500D02*X216600D01*
X214350Y308250D02*X215100Y307500D01*
X219150Y309750D02*X222150Y313500D01*
X219150Y309750D02*X222900D01*
X222150Y313500D02*Y307500D01*
X227400Y313500D02*Y307500D01*
Y309750D02*X228150Y310500D01*
X229650D01*
X230400Y309750D01*
Y307500D01*
X232200Y309750D02*Y308250D01*
Y309750D02*X232950Y310500D01*
X234450D01*
X235200Y309750D01*
Y308250D01*
X234450Y307500D02*X235200Y308250D01*
X232950Y307500D02*X234450D01*
X232200Y308250D02*X232950Y307500D01*
X237000Y313500D02*Y308250D01*
X237750Y307500D01*
X240000D02*X242250D01*
X239250Y308250D02*X240000Y307500D01*
X239250Y309750D02*Y308250D01*
Y309750D02*X240000Y310500D01*
X241500D01*
X242250Y309750D01*
X239250Y309000D02*X242250D01*
Y309750D02*Y309000D01*
X244800Y307500D02*X247050D01*
X247800Y308250D01*
X247050Y309000D02*X247800Y308250D01*
X244800Y309000D02*X247050D01*
X244050Y309750D02*X244800Y309000D01*
X244050Y309750D02*X244800Y310500D01*
X247050D01*
X247800Y309750D01*
X244050Y308250D02*X244800Y307500D01*
X253050Y313500D02*Y308250D01*
X253800Y307500D01*
X252300Y311250D02*X253800D01*
X255300Y309750D02*Y308250D01*
Y309750D02*X256050Y310500D01*
X257550D01*
X258300Y309750D01*
Y308250D01*
X257550Y307500D02*X258300Y308250D01*
X256050Y307500D02*X257550D01*
X255300Y308250D02*X256050Y307500D01*
X260850Y313500D02*Y308250D01*
X261600Y307500D01*
X260100Y311250D02*X261600D01*
X265350Y310500D02*X266100Y309750D01*
X263850Y310500D02*X265350D01*
X263100Y309750D02*X263850Y310500D01*
X263100Y309750D02*Y308250D01*
X263850Y307500D01*
X266100Y310500D02*Y308250D01*
X266850Y307500D01*
X263850D02*X265350D01*
X266100Y308250D01*
X268650Y313500D02*Y308250D01*
X269400Y307500D01*
G54D117*X101500Y40500D02*X102000Y40000D01*
X118000D01*
Y13500D01*
X101531Y126500D02*X28500D01*
X28000Y40000D02*X28500Y40500D01*
X28000Y40000D02*X11000D01*
Y13500D01*
X30000D01*
Y28000D01*
X118000Y13500D02*X99000D01*
Y28000D01*
X30000D01*
X28500Y126500D02*Y120500D01*
X11000D02*Y94000D01*
X28500D01*
Y40500D01*
X11000Y120500D02*X28500D01*
X101500Y40500D02*Y94000D01*
Y126500D02*Y120500D01*
X118000D01*
Y94000D01*
X101500D01*
G54D115*X0Y-9500D02*X3000D01*
X3750Y-8750D01*
Y-6950D02*Y-8750D01*
X3000Y-6200D02*X3750Y-6950D01*
X750Y-6200D02*X3000D01*
X750Y-3500D02*Y-9500D01*
X0Y-3500D02*X3000D01*
X3750Y-4250D01*
Y-5450D01*
X3000Y-6200D02*X3750Y-5450D01*
X5550Y-7250D02*Y-8750D01*
Y-7250D02*X6300Y-6500D01*
X7800D01*
X8550Y-7250D01*
Y-8750D01*
X7800Y-9500D02*X8550Y-8750D01*
X6300Y-9500D02*X7800D01*
X5550Y-8750D02*X6300Y-9500D01*
X12600Y-6500D02*X13350Y-7250D01*
X11100Y-6500D02*X12600D01*
X10350Y-7250D02*X11100Y-6500D01*
X10350Y-7250D02*Y-8750D01*
X11100Y-9500D01*
X13350Y-6500D02*Y-8750D01*
X14100Y-9500D01*
X11100D02*X12600D01*
X13350Y-8750D01*
X16650Y-7250D02*Y-9500D01*
Y-7250D02*X17400Y-6500D01*
X18900D01*
X15900D02*X16650Y-7250D01*
X23700Y-3500D02*Y-9500D01*
X22950D02*X23700Y-8750D01*
X21450Y-9500D02*X22950D01*
X20700Y-8750D02*X21450Y-9500D01*
X20700Y-7250D02*Y-8750D01*
Y-7250D02*X21450Y-6500D01*
X22950D01*
X23700Y-7250D01*
X28200D02*Y-8750D01*
Y-7250D02*X28950Y-6500D01*
X30450D01*
X31200Y-7250D01*
Y-8750D01*
X30450Y-9500D02*X31200Y-8750D01*
X28950Y-9500D02*X30450D01*
X28200Y-8750D02*X28950Y-9500D01*
X33000Y-6500D02*Y-8750D01*
X33750Y-9500D01*
X35250D01*
X36000Y-8750D01*
Y-6500D02*Y-8750D01*
X38550Y-3500D02*Y-8750D01*
X39300Y-9500D01*
X37800Y-5750D02*X39300D01*
X40800Y-3500D02*Y-8750D01*
X41550Y-9500D01*
G54D116*X43050Y-5000D02*Y-5150D01*
G54D115*Y-7250D02*Y-9500D01*
X45300Y-7250D02*Y-9500D01*
Y-7250D02*X46050Y-6500D01*
X46800D01*
X47550Y-7250D01*
Y-9500D01*
X44550Y-6500D02*X45300Y-7250D01*
X50100Y-9500D02*X52350D01*
X49350Y-8750D02*X50100Y-9500D01*
X49350Y-7250D02*Y-8750D01*
Y-7250D02*X50100Y-6500D01*
X51600D01*
X52350Y-7250D01*
X49350Y-8000D02*X52350D01*
Y-7250D02*Y-8000D01*
G54D116*X56850Y-5000D02*Y-5150D01*
G54D115*Y-7250D02*Y-9500D01*
X59100D02*X61350D01*
X62100Y-8750D01*
X61350Y-8000D02*X62100Y-8750D01*
X59100Y-8000D02*X61350D01*
X58350Y-7250D02*X59100Y-8000D01*
X58350Y-7250D02*X59100Y-6500D01*
X61350D01*
X62100Y-7250D01*
X58350Y-8750D02*X59100Y-9500D01*
X67350Y-3500D02*Y-8750D01*
X68100Y-9500D01*
X66600Y-5750D02*X68100D01*
X69600Y-3500D02*Y-9500D01*
Y-7250D02*X70350Y-6500D01*
X71850D01*
X72600Y-7250D01*
Y-9500D01*
X75150D02*X77400D01*
X74400Y-8750D02*X75150Y-9500D01*
X74400Y-7250D02*Y-8750D01*
Y-7250D02*X75150Y-6500D01*
X76650D01*
X77400Y-7250D01*
X74400Y-8000D02*X77400D01*
Y-7250D02*Y-8000D01*
X82650Y-6500D02*X84900D01*
X81900Y-7250D02*X82650Y-6500D01*
X81900Y-7250D02*Y-8750D01*
X82650Y-9500D01*
X84900D01*
X87450D02*X89700D01*
X86700Y-8750D02*X87450Y-9500D01*
X86700Y-7250D02*Y-8750D01*
Y-7250D02*X87450Y-6500D01*
X88950D01*
X89700Y-7250D01*
X86700Y-8000D02*X89700D01*
Y-7250D02*Y-8000D01*
X92250Y-7250D02*Y-9500D01*
Y-7250D02*X93000Y-6500D01*
X93750D01*
X94500Y-7250D01*
Y-9500D01*
X91500Y-6500D02*X92250Y-7250D01*
X97050Y-3500D02*Y-8750D01*
X97800Y-9500D01*
X96300Y-5750D02*X97800D01*
X100050Y-9500D02*X102300D01*
X99300Y-8750D02*X100050Y-9500D01*
X99300Y-7250D02*Y-8750D01*
Y-7250D02*X100050Y-6500D01*
X101550D01*
X102300Y-7250D01*
X99300Y-8000D02*X102300D01*
Y-7250D02*Y-8000D01*
X104850Y-7250D02*Y-9500D01*
Y-7250D02*X105600Y-6500D01*
X107100D01*
X104100D02*X104850Y-7250D01*
X108900Y-3500D02*Y-8750D01*
X109650Y-9500D01*
G54D116*X111150Y-5000D02*Y-5150D01*
G54D115*Y-7250D02*Y-9500D01*
X113400Y-7250D02*Y-9500D01*
Y-7250D02*X114150Y-6500D01*
X114900D01*
X115650Y-7250D01*
Y-9500D01*
X112650Y-6500D02*X113400Y-7250D01*
X118200Y-9500D02*X120450D01*
X117450Y-8750D02*X118200Y-9500D01*
X117450Y-7250D02*Y-8750D01*
Y-7250D02*X118200Y-6500D01*
X119700D01*
X120450Y-7250D01*
X117450Y-8000D02*X120450D01*
Y-7250D02*Y-8000D01*
X124950Y-7250D02*Y-8750D01*
Y-7250D02*X125700Y-6500D01*
X127200D01*
X127950Y-7250D01*
Y-8750D01*
X127200Y-9500D02*X127950Y-8750D01*
X125700Y-9500D02*X127200D01*
X124950Y-8750D02*X125700Y-9500D01*
X130500Y-4250D02*Y-9500D01*
Y-4250D02*X131250Y-3500D01*
X132000D01*
X129750Y-6500D02*X131250D01*
X136950Y-3500D02*Y-8750D01*
X137700Y-9500D01*
X136200Y-5750D02*X137700D01*
X139200Y-3500D02*Y-9500D01*
Y-7250D02*X139950Y-6500D01*
X141450D01*
X142200Y-7250D01*
Y-9500D01*
G54D116*X144000Y-5000D02*Y-5150D01*
G54D115*Y-7250D02*Y-9500D01*
X146250D02*X148500D01*
X149250Y-8750D01*
X148500Y-8000D02*X149250Y-8750D01*
X146250Y-8000D02*X148500D01*
X145500Y-7250D02*X146250Y-8000D01*
X145500Y-7250D02*X146250Y-6500D01*
X148500D01*
X149250Y-7250D01*
X145500Y-8750D02*X146250Y-9500D01*
X154500Y-7250D02*Y-11750D01*
X153750Y-6500D02*X154500Y-7250D01*
X155250Y-6500D01*
X156750D01*
X157500Y-7250D01*
Y-8750D01*
X156750Y-9500D02*X157500Y-8750D01*
X155250Y-9500D02*X156750D01*
X154500Y-8750D02*X155250Y-9500D01*
X161550Y-6500D02*X162300Y-7250D01*
X160050Y-6500D02*X161550D01*
X159300Y-7250D02*X160050Y-6500D01*
X159300Y-7250D02*Y-8750D01*
X160050Y-9500D01*
X162300Y-6500D02*Y-8750D01*
X163050Y-9500D01*
X160050D02*X161550D01*
X162300Y-8750D01*
X165600Y-3500D02*Y-8750D01*
X166350Y-9500D01*
X164850Y-5750D02*X166350D01*
X167850Y-3500D02*Y-9500D01*
Y-7250D02*X168600Y-6500D01*
X170100D01*
X170850Y-7250D01*
Y-9500D01*
X200750Y178500D02*Y172500D01*
X202700Y178500D02*X203750Y177450D01*
Y173550D01*
X202700Y172500D02*X203750Y173550D01*
X200000Y172500D02*X202700D01*
X200000Y178500D02*X202700D01*
X207800Y175500D02*X208550Y174750D01*
X206300Y175500D02*X207800D01*
X205550Y174750D02*X206300Y175500D01*
X205550Y174750D02*Y173250D01*
X206300Y172500D01*
X208550Y175500D02*Y173250D01*
X209300Y172500D01*
X206300D02*X207800D01*
X208550Y173250D01*
X211850Y178500D02*Y173250D01*
X212600Y172500D01*
X211100Y176250D02*X212600D01*
X214850Y172500D02*X217100D01*
X214100Y173250D02*X214850Y172500D01*
X214100Y174750D02*Y173250D01*
Y174750D02*X214850Y175500D01*
X216350D01*
X217100Y174750D01*
X214100Y174000D02*X217100D01*
Y174750D02*Y174000D01*
X218900Y176250D02*X219650D01*
X218900Y174750D02*X219650D01*
X224150Y178500D02*Y175500D01*
X224900Y172500D01*
X226400Y175500D01*
X227900Y172500D01*
X228650Y175500D01*
Y178500D02*Y175500D01*
X231200Y172500D02*X233450D01*
X230450Y173250D02*X231200Y172500D01*
X230450Y174750D02*Y173250D01*
Y174750D02*X231200Y175500D01*
X232700D01*
X233450Y174750D01*
X230450Y174000D02*X233450D01*
Y174750D02*Y174000D01*
X238250Y178500D02*Y172500D01*
X237500D02*X238250Y173250D01*
X236000Y172500D02*X237500D01*
X235250Y173250D02*X236000Y172500D01*
X235250Y174750D02*Y173250D01*
Y174750D02*X236000Y175500D01*
X237500D01*
X238250Y174750D01*
X245750Y178500D02*X246500Y177750D01*
X243500Y178500D02*X245750D01*
X242750Y177750D02*X243500Y178500D01*
X242750Y177750D02*Y176250D01*
X243500Y175500D01*
X245750D01*
X246500Y174750D01*
Y173250D01*
X245750Y172500D02*X246500Y173250D01*
X243500Y172500D02*X245750D01*
X242750Y173250D02*X243500Y172500D01*
X249050D02*X251300D01*
X248300Y173250D02*X249050Y172500D01*
X248300Y174750D02*Y173250D01*
Y174750D02*X249050Y175500D01*
X250550D01*
X251300Y174750D01*
X248300Y174000D02*X251300D01*
Y174750D02*Y174000D01*
X253850Y174750D02*Y170250D01*
X253100Y175500D02*X253850Y174750D01*
X254600Y175500D01*
X256100D01*
X256850Y174750D01*
Y173250D01*
X256100Y172500D02*X256850Y173250D01*
X254600Y172500D02*X256100D01*
X253850Y173250D02*X254600Y172500D01*
X261350Y177750D02*X262100Y178500D01*
X264350D01*
X265100Y177750D01*
Y176250D01*
X261350Y172500D02*X265100Y176250D01*
X261350Y172500D02*X265100D01*
X266900Y177750D02*X267650Y178500D01*
X269150D01*
X269900Y177750D01*
X269150Y172500D02*X269900Y173250D01*
X267650Y172500D02*X269150D01*
X266900Y173250D02*X267650Y172500D01*
Y175800D02*X269150D01*
X269900Y177750D02*Y176550D01*
Y175050D02*Y173250D01*
Y175050D02*X269150Y175800D01*
X269900Y176550D02*X269150Y175800D01*
X274400Y177300D02*X275600Y178500D01*
Y172500D01*
X274400D02*X276650D01*
X278450Y177300D02*X279650Y178500D01*
Y172500D01*
X278450D02*X280700D01*
X282500Y176250D02*X283250D01*
X282500Y174750D02*X283250D01*
X285050Y178500D02*X288050D01*
X285050D02*Y175500D01*
X285800Y176250D01*
X287300D01*
X288050Y175500D01*
Y173250D01*
X287300Y172500D02*X288050Y173250D01*
X285800Y172500D02*X287300D01*
X285050Y173250D02*X285800Y172500D01*
X292100Y178500D02*X292850Y177750D01*
X290600Y178500D02*X292100D01*
X289850Y177750D02*X290600Y178500D01*
X289850Y177750D02*Y173250D01*
X290600Y172500D01*
X292100Y175800D02*X292850Y175050D01*
X289850Y175800D02*X292100D01*
X290600Y172500D02*X292100D01*
X292850Y173250D01*
Y175050D02*Y173250D01*
X294650Y176250D02*X295400D01*
X294650Y174750D02*X295400D01*
X297200Y177750D02*X297950Y178500D01*
X299450D01*
X300200Y177750D01*
X299450Y172500D02*X300200Y173250D01*
X297950Y172500D02*X299450D01*
X297200Y173250D02*X297950Y172500D01*
Y175800D02*X299450D01*
X300200Y177750D02*Y176550D01*
Y175050D02*Y173250D01*
Y175050D02*X299450Y175800D01*
X300200Y176550D02*X299450Y175800D01*
X302750Y172500D02*X305750Y178500D01*
X302000D02*X305750D01*
X310250Y177750D02*X311000Y178500D01*
X313250D01*
X314000Y177750D01*
Y176250D01*
X310250Y172500D02*X314000Y176250D01*
X310250Y172500D02*X314000D01*
X315800Y173250D02*X316550Y172500D01*
X315800Y177750D02*Y173250D01*
Y177750D02*X316550Y178500D01*
X318050D01*
X318800Y177750D01*
Y173250D01*
X318050Y172500D02*X318800Y173250D01*
X316550Y172500D02*X318050D01*
X315800Y174000D02*X318800Y177000D01*
X320600Y177750D02*X321350Y178500D01*
X323600D01*
X324350Y177750D01*
Y176250D01*
X320600Y172500D02*X324350Y176250D01*
X320600Y172500D02*X324350D01*
X326150Y173250D02*X326900Y172500D01*
X326150Y177750D02*Y173250D01*
Y177750D02*X326900Y178500D01*
X328400D01*
X329150Y177750D01*
Y173250D01*
X328400Y172500D02*X329150Y173250D01*
X326900Y172500D02*X328400D01*
X326150Y174000D02*X329150Y177000D01*
X333650Y178500D02*Y173250D01*
X334400Y172500D01*
X335900D01*
X336650Y173250D01*
Y178500D02*Y173250D01*
X338450Y178500D02*X341450D01*
X339950D02*Y172500D01*
X344300D02*X346250D01*
X343250Y173550D02*X344300Y172500D01*
X343250Y177450D02*Y173550D01*
Y177450D02*X344300Y178500D01*
X346250D01*
X200000Y192000D02*Y187500D01*
Y192000D02*X201050Y193500D01*
X202700D01*
X203750Y192000D01*
Y187500D01*
X200000Y190500D02*X203750D01*
X205550D02*Y188250D01*
X206300Y187500D01*
X207800D01*
X208550Y188250D01*
Y190500D02*Y188250D01*
X211100Y193500D02*Y188250D01*
X211850Y187500D01*
X210350Y191250D02*X211850D01*
X213350Y193500D02*Y187500D01*
Y189750D02*X214100Y190500D01*
X215600D01*
X216350Y189750D01*
Y187500D01*
X218150Y189750D02*Y188250D01*
Y189750D02*X218900Y190500D01*
X220400D01*
X221150Y189750D01*
Y188250D01*
X220400Y187500D02*X221150Y188250D01*
X218900Y187500D02*X220400D01*
X218150Y188250D02*X218900Y187500D01*
X223700Y189750D02*Y187500D01*
Y189750D02*X224450Y190500D01*
X225950D01*
X222950D02*X223700Y189750D01*
X227750Y191250D02*X228500D01*
X227750Y189750D02*X228500D01*
X233750Y190500D02*X236000D01*
X233000Y189750D02*X233750Y190500D01*
X233000Y189750D02*Y188250D01*
X233750Y187500D01*
X236000D01*
X237800Y189750D02*Y188250D01*
Y189750D02*X238550Y190500D01*
X240050D01*
X240800Y189750D01*
Y188250D01*
X240050Y187500D02*X240800Y188250D01*
X238550Y187500D02*X240050D01*
X237800Y188250D02*X238550Y187500D01*
X243350Y189750D02*Y187500D01*
Y189750D02*X244100Y190500D01*
X244850D01*
X245600Y189750D01*
Y187500D01*
Y189750D02*X246350Y190500D01*
X247100D01*
X247850Y189750D01*
Y187500D01*
X242600Y190500D02*X243350Y189750D01*
X250400D02*Y187500D01*
Y189750D02*X251150Y190500D01*
X251900D01*
X252650Y189750D01*
Y187500D01*
Y189750D02*X253400Y190500D01*
X254150D01*
X254900Y189750D01*
Y187500D01*
X249650Y190500D02*X250400Y189750D01*
X256700D02*Y188250D01*
Y189750D02*X257450Y190500D01*
X258950D01*
X259700Y189750D01*
Y188250D01*
X258950Y187500D02*X259700Y188250D01*
X257450Y187500D02*X258950D01*
X256700Y188250D02*X257450Y187500D01*
X262250Y189750D02*Y187500D01*
Y189750D02*X263000Y190500D01*
X263750D01*
X264500Y189750D01*
Y187500D01*
X261500Y190500D02*X262250Y189750D01*
X268550Y190500D02*X269300Y189750D01*
X267050Y190500D02*X268550D01*
X266300Y189750D02*X267050Y190500D01*
X266300Y189750D02*Y188250D01*
X267050Y187500D01*
X269300Y190500D02*Y188250D01*
X270050Y187500D01*
X267050D02*X268550D01*
X269300Y188250D01*
X274850Y193500D02*Y187500D01*
X274100D02*X274850Y188250D01*
X272600Y187500D02*X274100D01*
X271850Y188250D02*X272600Y187500D01*
X271850Y189750D02*Y188250D01*
Y189750D02*X272600Y190500D01*
X274100D01*
X274850Y189750D01*
X277400D02*Y187500D01*
Y189750D02*X278150Y190500D01*
X278900D01*
X279650Y189750D01*
Y187500D01*
Y189750D02*X280400Y190500D01*
X281150D01*
X281900Y189750D01*
Y187500D01*
X276650Y190500D02*X277400Y189750D01*
G54D116*X283700Y192000D02*Y191850D01*
G54D115*Y189750D02*Y187500D01*
X285950Y189750D02*Y187500D01*
Y189750D02*X286700Y190500D01*
X287450D01*
X288200Y189750D01*
Y187500D01*
X285200Y190500D02*X285950Y189750D01*
X200000Y208500D02*X203000D01*
X201500D02*Y202500D01*
G54D116*X204800Y207000D02*Y206850D01*
G54D115*Y204750D02*Y202500D01*
X207050Y208500D02*Y203250D01*
X207800Y202500D01*
X206300Y206250D02*X207800D01*
X209300Y208500D02*Y203250D01*
X210050Y202500D01*
X212300D02*X214550D01*
X211550Y203250D02*X212300Y202500D01*
X211550Y204750D02*Y203250D01*
Y204750D02*X212300Y205500D01*
X213800D01*
X214550Y204750D01*
X211550Y204000D02*X214550D01*
Y204750D02*Y204000D01*
X216350Y206250D02*X217100D01*
X216350Y204750D02*X217100D01*
X221600Y203250D02*X222350Y202500D01*
X221600Y207750D02*X222350Y208500D01*
X221600Y207750D02*Y203250D01*
X224150Y205500D02*Y203250D01*
X224900Y202500D01*
X226400D01*
X227150Y203250D01*
Y205500D02*Y203250D01*
X229700Y204750D02*Y202500D01*
Y204750D02*X230450Y205500D01*
X231200D01*
X231950Y204750D01*
Y202500D01*
X228950Y205500D02*X229700Y204750D01*
X233750Y208500D02*Y202500D01*
Y204750D02*X236000Y202500D01*
X233750Y204750D02*X235250Y206250D01*
X238550Y204750D02*Y202500D01*
Y204750D02*X239300Y205500D01*
X240050D01*
X240800Y204750D01*
Y202500D01*
X237800Y205500D02*X238550Y204750D01*
X242600D02*Y203250D01*
Y204750D02*X243350Y205500D01*
X244850D01*
X245600Y204750D01*
Y203250D01*
X244850Y202500D02*X245600Y203250D01*
X243350Y202500D02*X244850D01*
X242600Y203250D02*X243350Y202500D01*
X247400Y205500D02*Y203250D01*
X248150Y202500D01*
X248900D01*
X249650Y203250D01*
Y205500D02*Y203250D01*
X250400Y202500D01*
X251150D01*
X251900Y203250D01*
Y205500D02*Y203250D01*
X254450Y204750D02*Y202500D01*
Y204750D02*X255200Y205500D01*
X255950D01*
X256700Y204750D01*
Y202500D01*
X253700Y205500D02*X254450Y204750D01*
X258500Y208500D02*X259250Y207750D01*
Y203250D01*
X258500Y202500D02*X259250Y203250D01*
X263750Y205500D02*X266750D01*
X271250Y208500D02*Y202500D01*
Y208500D02*X274250D01*
X271250Y205800D02*X273500D01*
X278300Y205500D02*X279050Y204750D01*
X276800Y205500D02*X278300D01*
X276050Y204750D02*X276800Y205500D01*
X276050Y204750D02*Y203250D01*
X276800Y202500D01*
X279050Y205500D02*Y203250D01*
X279800Y202500D01*
X276800D02*X278300D01*
X279050Y203250D01*
X281600Y208500D02*Y202500D01*
Y203250D02*X282350Y202500D01*
X283850D01*
X284600Y203250D01*
Y204750D02*Y203250D01*
X283850Y205500D02*X284600Y204750D01*
X282350Y205500D02*X283850D01*
X281600Y204750D02*X282350Y205500D01*
X287150Y204750D02*Y202500D01*
Y204750D02*X287900Y205500D01*
X289400D01*
X286400D02*X287150Y204750D01*
G54D116*X291200Y207000D02*Y206850D01*
G54D115*Y204750D02*Y202500D01*
X293450Y205500D02*X295700D01*
X292700Y204750D02*X293450Y205500D01*
X292700Y204750D02*Y203250D01*
X293450Y202500D01*
X295700D01*
X299750Y205500D02*X300500Y204750D01*
X298250Y205500D02*X299750D01*
X297500Y204750D02*X298250Y205500D01*
X297500Y204750D02*Y203250D01*
X298250Y202500D01*
X300500Y205500D02*Y203250D01*
X301250Y202500D01*
X298250D02*X299750D01*
X300500Y203250D01*
X303800Y208500D02*Y203250D01*
X304550Y202500D01*
X303050Y206250D02*X304550D01*
G54D116*X306050Y207000D02*Y206850D01*
G54D115*Y204750D02*Y202500D01*
X307550Y204750D02*Y203250D01*
Y204750D02*X308300Y205500D01*
X309800D01*
X310550Y204750D01*
Y203250D01*
X309800Y202500D02*X310550Y203250D01*
X308300Y202500D02*X309800D01*
X307550Y203250D02*X308300Y202500D01*
X313100Y204750D02*Y202500D01*
Y204750D02*X313850Y205500D01*
X314600D01*
X315350Y204750D01*
Y202500D01*
X312350Y205500D02*X313100Y204750D01*
X320600Y208500D02*Y202500D01*
X322550Y208500D02*X323600Y207450D01*
Y203550D01*
X322550Y202500D02*X323600Y203550D01*
X319850Y202500D02*X322550D01*
X319850Y208500D02*X322550D01*
X326150Y204750D02*Y202500D01*
Y204750D02*X326900Y205500D01*
X328400D01*
X325400D02*X326150Y204750D01*
X332450Y205500D02*X333200Y204750D01*
X330950Y205500D02*X332450D01*
X330200Y204750D02*X330950Y205500D01*
X330200Y204750D02*Y203250D01*
X330950Y202500D01*
X333200Y205500D02*Y203250D01*
X333950Y202500D01*
X330950D02*X332450D01*
X333200Y203250D01*
X335750Y205500D02*Y203250D01*
X336500Y202500D01*
X337250D01*
X338000Y203250D01*
Y205500D02*Y203250D01*
X338750Y202500D01*
X339500D01*
X340250Y203250D01*
Y205500D02*Y203250D01*
G54D116*X342050Y207000D02*Y206850D01*
G54D115*Y204750D02*Y202500D01*
X344300Y204750D02*Y202500D01*
Y204750D02*X345050Y205500D01*
X345800D01*
X346550Y204750D01*
Y202500D01*
X343550Y205500D02*X344300Y204750D01*
X350600Y205500D02*X351350Y204750D01*
X349100Y205500D02*X350600D01*
X348350Y204750D02*X349100Y205500D01*
X348350Y204750D02*Y203250D01*
X349100Y202500D01*
X350600D01*
X351350Y203250D01*
X348350Y201000D02*X349100Y200250D01*
X350600D01*
X351350Y201000D01*
Y205500D02*Y201000D01*
M02*
