G04 start of page 8 for group -4063 idx -4063 *
G04 Title: (unknown), componentmask *
G04 Creator: pcb 4.2.0 *
G04 CreationDate: Mon Sep 28 04:20:22 2020 UTC *
G04 For: commonadmin *
G04 Format: Gerber/RS-274X *
G04 PCB-Dimensions (mil): 2150.00 2800.00 *
G04 PCB-Coordinate-Origin: lower left *
%MOIN*%
%FSLAX25Y25*%
%LNTOPMASK*%
%ADD38C,0.0001*%
%ADD37C,0.0660*%
%ADD36C,0.0260*%
G54D36*X182499Y46500D03*
X185500D03*
X177500Y50000D03*
X180500D03*
X197000Y46000D03*
X200000D03*
X166500Y56500D03*
X131500Y56000D03*
X134500D03*
X137500D03*
X169500Y56500D03*
X154000Y48000D03*
X156500Y46000D03*
X141500D03*
X144500D03*
X147500D03*
X159500D03*
X162000Y48000D03*
G54D37*X140000Y250000D03*
Y240000D03*
X130000Y250000D03*
Y240000D03*
G54D38*G36*
X156700Y253300D02*Y246700D01*
X163300D01*
Y253300D01*
X156700D01*
G37*
G54D37*X160000Y240000D03*
X150000Y250000D03*
Y240000D03*
X120000Y250000D03*
Y240000D03*
X110000Y250000D03*
X100000D03*
X90000D03*
X80000D03*
X70000D03*
X110000Y240000D03*
X100000D03*
X90000D03*
X80000D03*
X70000D03*
G54D36*X72000Y56000D03*
X69000D03*
X66000D03*
X86500D03*
X83500D03*
X80500D03*
X103000D03*
X117500D03*
X114500D03*
X111500D03*
X100000D03*
X97000D03*
M02*
