G04 start of page 14 for group -3984 idx -3984 *
G04 Title: (unknown), fab *
G04 Creator: pcb 4.2.0 *
G04 CreationDate: Mon Sep 28 04:20:22 2020 UTC *
G04 For: commonadmin *
G04 Format: Gerber/RS-274X *
G04 PCB-Dimensions (mil): 2150.00 2800.00 *
G04 PCB-Coordinate-Origin: lower left *
%MOIN*%
%FSLAX25Y25*%
%LNFAB*%
%ADD56C,0.0100*%
%ADD55C,0.0075*%
%ADD54C,0.0060*%
%ADD53C,0.0080*%
G54D53*X160000Y251600D02*Y248400D01*
X158400Y250000D02*X161600D01*
X160000Y241600D02*Y238400D01*
X158400Y240000D02*X161600D01*
X150000Y251600D02*Y248400D01*
X148400Y250000D02*X151600D01*
X150000Y241600D02*Y238400D01*
X148400Y240000D02*X151600D01*
X140000Y251600D02*Y248400D01*
X138400Y250000D02*X141600D01*
X140000Y241600D02*Y238400D01*
X138400Y240000D02*X141600D01*
X130000Y251600D02*Y248400D01*
X128400Y250000D02*X131600D01*
X130000Y241600D02*Y238400D01*
X128400Y240000D02*X131600D01*
X120000Y251600D02*Y248400D01*
X118400Y250000D02*X121600D01*
X120000Y241600D02*Y238400D01*
X118400Y240000D02*X121600D01*
X110000Y251600D02*Y248400D01*
X108400Y250000D02*X111600D01*
X110000Y241600D02*Y238400D01*
X108400Y240000D02*X111600D01*
X100000Y251600D02*Y248400D01*
X98400Y250000D02*X101600D01*
X100000Y241600D02*Y238400D01*
X98400Y240000D02*X101600D01*
X90000Y251600D02*Y248400D01*
X88400Y250000D02*X91600D01*
X90000Y241600D02*Y238400D01*
X88400Y240000D02*X91600D01*
X80000Y251600D02*Y248400D01*
X78400Y250000D02*X81600D01*
X80000Y241600D02*Y238400D01*
X78400Y240000D02*X81600D01*
X70000Y251600D02*Y248400D01*
X68400Y250000D02*X71600D01*
X70000Y241600D02*Y238400D01*
X68400Y240000D02*X71600D01*
X15000Y322850D02*Y319650D01*
X13400Y321250D02*X16600D01*
G54D54*X135000Y323500D02*X136500Y320500D01*
X138000Y323500D01*
X136500Y320500D02*Y317500D01*
X139800Y320800D02*X142050D01*
X139800Y317500D02*X142800D01*
X139800Y323500D02*Y317500D01*
Y323500D02*X142800D01*
X147600D02*X148350Y322750D01*
X145350Y323500D02*X147600D01*
X144600Y322750D02*X145350Y323500D01*
X144600Y322750D02*Y321250D01*
X145350Y320500D01*
X147600D01*
X148350Y319750D01*
Y318250D01*
X147600Y317500D02*X148350Y318250D01*
X145350Y317500D02*X147600D01*
X144600Y318250D02*X145350Y317500D01*
X98000Y322750D02*X98750Y323500D01*
X101000D01*
X101750Y322750D01*
Y321250D01*
X98000Y317500D02*X101750Y321250D01*
X98000Y317500D02*X101750D01*
X103550Y318250D02*X104300Y317500D01*
X103550Y322750D02*Y318250D01*
Y322750D02*X104300Y323500D01*
X105800D01*
X106550Y322750D01*
Y318250D01*
X105800Y317500D02*X106550Y318250D01*
X104300Y317500D02*X105800D01*
X103550Y319000D02*X106550Y322000D01*
X45000Y318250D02*X45750Y317500D01*
X45000Y322750D02*Y318250D01*
Y322750D02*X45750Y323500D01*
X47250D01*
X48000Y322750D01*
Y318250D01*
X47250Y317500D02*X48000Y318250D01*
X45750Y317500D02*X47250D01*
X45000Y319000D02*X48000Y322000D01*
X49800Y317500D02*X50550D01*
X52350Y318250D02*X53100Y317500D01*
X52350Y322750D02*Y318250D01*
Y322750D02*X53100Y323500D01*
X54600D01*
X55350Y322750D01*
Y318250D01*
X54600Y317500D02*X55350Y318250D01*
X53100Y317500D02*X54600D01*
X52350Y319000D02*X55350Y322000D01*
X57150Y322750D02*X57900Y323500D01*
X59400D01*
X60150Y322750D01*
X59400Y317500D02*X60150Y318250D01*
X57900Y317500D02*X59400D01*
X57150Y318250D02*X57900Y317500D01*
Y320800D02*X59400D01*
X60150Y322750D02*Y321550D01*
Y320050D02*Y318250D01*
Y320050D02*X59400Y320800D01*
X60150Y321550D02*X59400Y320800D01*
X61950Y318250D02*X62700Y317500D01*
X61950Y319450D02*Y318250D01*
Y319450D02*X63000Y320500D01*
X63900D01*
X64950Y319450D01*
Y318250D01*
X64200Y317500D02*X64950Y318250D01*
X62700Y317500D02*X64200D01*
X61950Y321550D02*X63000Y320500D01*
X61950Y322750D02*Y321550D01*
Y322750D02*X62700Y323500D01*
X64200D01*
X64950Y322750D01*
Y321550D01*
X63900Y320500D02*X64950Y321550D01*
X182499Y46500D02*Y44900D01*
Y46500D02*X183886Y47300D01*
X182499Y46500D02*X181113Y47300D01*
X185500Y46500D02*Y44900D01*
Y46500D02*X186887Y47300D01*
X185500Y46500D02*X184113Y47300D01*
X177500Y50000D02*Y48400D01*
Y50000D02*X178887Y50800D01*
X177500Y50000D02*X176113Y50800D01*
X180500Y50000D02*Y48400D01*
Y50000D02*X181887Y50800D01*
X180500Y50000D02*X179113Y50800D01*
X166500Y56500D02*Y54900D01*
Y56500D02*X167887Y57300D01*
X166500Y56500D02*X165113Y57300D01*
X169500Y56500D02*Y54900D01*
Y56500D02*X170887Y57300D01*
X169500Y56500D02*X168113Y57300D01*
X154000Y48000D02*Y46400D01*
Y48000D02*X155387Y48800D01*
X154000Y48000D02*X152613Y48800D01*
X156500Y46000D02*Y44400D01*
Y46000D02*X157887Y46800D01*
X156500Y46000D02*X155113Y46800D01*
X159500Y46000D02*Y44400D01*
Y46000D02*X160887Y46800D01*
X159500Y46000D02*X158113Y46800D01*
X162000Y48000D02*Y46400D01*
Y48000D02*X163387Y48800D01*
X162000Y48000D02*X160613Y48800D01*
X197000Y46000D02*Y44400D01*
Y46000D02*X198387Y46800D01*
X197000Y46000D02*X195613Y46800D01*
X200000Y46000D02*Y44400D01*
Y46000D02*X201387Y46800D01*
X200000Y46000D02*X198613Y46800D01*
X141500Y46000D02*Y44400D01*
Y46000D02*X142887Y46800D01*
X141500Y46000D02*X140113Y46800D01*
X144500Y46000D02*Y44400D01*
Y46000D02*X145887Y46800D01*
X144500Y46000D02*X143113Y46800D01*
X147500Y46000D02*Y44400D01*
Y46000D02*X148887Y46800D01*
X147500Y46000D02*X146113Y46800D01*
X131500Y56000D02*Y54400D01*
Y56000D02*X132887Y56800D01*
X131500Y56000D02*X130113Y56800D01*
X134500Y56000D02*Y54400D01*
Y56000D02*X135887Y56800D01*
X134500Y56000D02*X133113Y56800D01*
X137500Y56000D02*Y54400D01*
Y56000D02*X138887Y56800D01*
X137500Y56000D02*X136113Y56800D01*
X72000Y56000D02*Y54400D01*
Y56000D02*X73387Y56800D01*
X72000Y56000D02*X70613Y56800D01*
X69000Y56000D02*Y54400D01*
Y56000D02*X70387Y56800D01*
X69000Y56000D02*X67613Y56800D01*
X66000Y56000D02*Y54400D01*
Y56000D02*X67387Y56800D01*
X66000Y56000D02*X64613Y56800D01*
X86500Y56000D02*Y54400D01*
Y56000D02*X87887Y56800D01*
X86500Y56000D02*X85113Y56800D01*
X83500Y56000D02*Y54400D01*
Y56000D02*X84887Y56800D01*
X83500Y56000D02*X82113Y56800D01*
X80500Y56000D02*Y54400D01*
Y56000D02*X81887Y56800D01*
X80500Y56000D02*X79113Y56800D01*
X103000Y56000D02*Y54400D01*
Y56000D02*X104387Y56800D01*
X103000Y56000D02*X101613Y56800D01*
X100000Y56000D02*Y54400D01*
Y56000D02*X101387Y56800D01*
X100000Y56000D02*X98613Y56800D01*
X97000Y56000D02*Y54400D01*
Y56000D02*X98387Y56800D01*
X97000Y56000D02*X95613Y56800D01*
X117500Y56000D02*Y54400D01*
Y56000D02*X118887Y56800D01*
X117500Y56000D02*X116113Y56800D01*
X114500Y56000D02*Y54400D01*
Y56000D02*X115887Y56800D01*
X114500Y56000D02*X113113Y56800D01*
X111500Y56000D02*Y54400D01*
Y56000D02*X112887Y56800D01*
X111500Y56000D02*X110113Y56800D01*
X126000Y139500D02*Y137900D01*
Y139500D02*X127387Y140300D01*
X126000Y139500D02*X124613Y140300D01*
X123000Y137500D02*Y135900D01*
Y137500D02*X124387Y138300D01*
X123000Y137500D02*X121613Y138300D01*
X142000Y134000D02*Y132400D01*
Y134000D02*X143387Y134800D01*
X142000Y134000D02*X140613Y134800D01*
X139000Y131500D02*Y129900D01*
Y131500D02*X140387Y132300D01*
X139000Y131500D02*X137613Y132300D01*
X126000Y128500D02*Y126900D01*
Y128500D02*X127387Y129300D01*
X126000Y128500D02*X124613Y129300D01*
X145000Y128500D02*Y126900D01*
Y128500D02*X146387Y129300D01*
X145000Y128500D02*X143613Y129300D01*
X107000Y128500D02*Y126900D01*
Y128500D02*X108387Y129300D01*
X107000Y128500D02*X105613Y129300D01*
X118000Y132000D02*Y130400D01*
Y132000D02*X119387Y132800D01*
X118000Y132000D02*X116613Y132800D01*
X104000Y132000D02*Y130400D01*
Y132000D02*X105387Y132800D01*
X104000Y132000D02*X102613Y132800D01*
X101000Y135000D02*Y133400D01*
Y135000D02*X102387Y135800D01*
X101000Y135000D02*X99613Y135800D01*
X115000Y135000D02*Y133400D01*
Y135000D02*X116387Y135800D01*
X115000Y135000D02*X113613Y135800D01*
X15000Y336250D02*Y334650D01*
Y336250D02*X16387Y337050D01*
X15000Y336250D02*X13613Y337050D01*
X135000Y338500D02*X136500Y335500D01*
X138000Y338500D01*
X136500Y335500D02*Y332500D01*
X139800Y335800D02*X142050D01*
X139800Y332500D02*X142800D01*
X139800Y338500D02*Y332500D01*
Y338500D02*X142800D01*
X147600D02*X148350Y337750D01*
X145350Y338500D02*X147600D01*
X144600Y337750D02*X145350Y338500D01*
X144600Y337750D02*Y336250D01*
X145350Y335500D01*
X147600D01*
X148350Y334750D01*
Y333250D01*
X147600Y332500D02*X148350Y333250D01*
X145350Y332500D02*X147600D01*
X144600Y333250D02*X145350Y332500D01*
X98000Y334750D02*X101000Y338500D01*
X98000Y334750D02*X101750D01*
X101000Y338500D02*Y332500D01*
X103550Y337300D02*X104750Y338500D01*
Y332500D01*
X103550D02*X105800D01*
X45000Y333250D02*X45750Y332500D01*
X45000Y337750D02*Y333250D01*
Y337750D02*X45750Y338500D01*
X47250D01*
X48000Y337750D01*
Y333250D01*
X47250Y332500D02*X48000Y333250D01*
X45750Y332500D02*X47250D01*
X45000Y334000D02*X48000Y337000D01*
X49800Y332500D02*X50550D01*
X52350Y333250D02*X53100Y332500D01*
X52350Y337750D02*Y333250D01*
Y337750D02*X53100Y338500D01*
X54600D01*
X55350Y337750D01*
Y333250D01*
X54600Y332500D02*X55350Y333250D01*
X53100Y332500D02*X54600D01*
X52350Y334000D02*X55350Y337000D01*
X57150Y337300D02*X58350Y338500D01*
Y332500D01*
X57150D02*X59400D01*
X61200Y333250D02*X61950Y332500D01*
X61200Y337750D02*Y333250D01*
Y337750D02*X61950Y338500D01*
X63450D01*
X64200Y337750D01*
Y333250D01*
X63450Y332500D02*X64200Y333250D01*
X61950Y332500D02*X63450D01*
X61200Y334000D02*X64200Y337000D01*
X3000Y353500D02*X3750Y352750D01*
X750Y353500D02*X3000D01*
X0Y352750D02*X750Y353500D01*
X0Y352750D02*Y351250D01*
X750Y350500D01*
X3000D01*
X3750Y349750D01*
Y348250D01*
X3000Y347500D02*X3750Y348250D01*
X750Y347500D02*X3000D01*
X0Y348250D02*X750Y347500D01*
X5550Y350500D02*Y348250D01*
X6300Y347500D01*
X8550Y350500D02*Y346000D01*
X7800Y345250D02*X8550Y346000D01*
X6300Y345250D02*X7800D01*
X5550Y346000D02*X6300Y345250D01*
Y347500D02*X7800D01*
X8550Y348250D01*
X11100Y349750D02*Y347500D01*
Y349750D02*X11850Y350500D01*
X12600D01*
X13350Y349750D01*
Y347500D01*
Y349750D02*X14100Y350500D01*
X14850D01*
X15600Y349750D01*
Y347500D01*
X10350Y350500D02*X11100Y349750D01*
X17400Y353500D02*Y347500D01*
Y348250D02*X18150Y347500D01*
X19650D01*
X20400Y348250D01*
Y349750D02*Y348250D01*
X19650Y350500D02*X20400Y349750D01*
X18150Y350500D02*X19650D01*
X17400Y349750D02*X18150Y350500D01*
X22200Y349750D02*Y348250D01*
Y349750D02*X22950Y350500D01*
X24450D01*
X25200Y349750D01*
Y348250D01*
X24450Y347500D02*X25200Y348250D01*
X22950Y347500D02*X24450D01*
X22200Y348250D02*X22950Y347500D01*
X27000Y353500D02*Y348250D01*
X27750Y347500D01*
X0Y344250D02*X29250D01*
X41750Y353500D02*Y347500D01*
X43700Y353500D02*X44750Y352450D01*
Y348550D01*
X43700Y347500D02*X44750Y348550D01*
X41000Y347500D02*X43700D01*
X41000Y353500D02*X43700D01*
G54D55*X46550Y352000D02*Y351850D01*
G54D54*Y349750D02*Y347500D01*
X50300Y350500D02*X51050Y349750D01*
X48800Y350500D02*X50300D01*
X48050Y349750D02*X48800Y350500D01*
X48050Y349750D02*Y348250D01*
X48800Y347500D01*
X51050Y350500D02*Y348250D01*
X51800Y347500D01*
X48800D02*X50300D01*
X51050Y348250D01*
X54350Y349750D02*Y347500D01*
Y349750D02*X55100Y350500D01*
X55850D01*
X56600Y349750D01*
Y347500D01*
Y349750D02*X57350Y350500D01*
X58100D01*
X58850Y349750D01*
Y347500D01*
X53600Y350500D02*X54350Y349750D01*
X60650Y347500D02*X61400D01*
X65900Y348250D02*X66650Y347500D01*
X65900Y352750D02*X66650Y353500D01*
X65900Y352750D02*Y348250D01*
X68450Y353500D02*X69950D01*
X69200D02*Y347500D01*
X68450D02*X69950D01*
X72500Y349750D02*Y347500D01*
Y349750D02*X73250Y350500D01*
X74000D01*
X74750Y349750D01*
Y347500D01*
X71750Y350500D02*X72500Y349750D01*
X77300Y350500D02*X79550D01*
X76550Y349750D02*X77300Y350500D01*
X76550Y349750D02*Y348250D01*
X77300Y347500D01*
X79550D01*
X81350Y353500D02*Y347500D01*
Y349750D02*X82100Y350500D01*
X83600D01*
X84350Y349750D01*
Y347500D01*
X86150Y353500D02*X86900Y352750D01*
Y348250D01*
X86150Y347500D02*X86900Y348250D01*
X41000Y344250D02*X88700D01*
X96050Y347500D02*X98000D01*
X95000Y348550D02*X96050Y347500D01*
X95000Y352450D02*Y348550D01*
Y352450D02*X96050Y353500D01*
X98000D01*
X99800Y349750D02*Y348250D01*
Y349750D02*X100550Y350500D01*
X102050D01*
X102800Y349750D01*
Y348250D01*
X102050Y347500D02*X102800Y348250D01*
X100550Y347500D02*X102050D01*
X99800Y348250D02*X100550Y347500D01*
X104600Y350500D02*Y348250D01*
X105350Y347500D01*
X106850D01*
X107600Y348250D01*
Y350500D02*Y348250D01*
X110150Y349750D02*Y347500D01*
Y349750D02*X110900Y350500D01*
X111650D01*
X112400Y349750D01*
Y347500D01*
X109400Y350500D02*X110150Y349750D01*
X114950Y353500D02*Y348250D01*
X115700Y347500D01*
X114200Y351250D02*X115700D01*
X95000Y344250D02*X117200D01*
X130750Y353500D02*Y347500D01*
X130000Y353500D02*X133000D01*
X133750Y352750D01*
Y351250D01*
X133000Y350500D02*X133750Y351250D01*
X130750Y350500D02*X133000D01*
X135550Y353500D02*Y348250D01*
X136300Y347500D01*
X140050Y350500D02*X140800Y349750D01*
X138550Y350500D02*X140050D01*
X137800Y349750D02*X138550Y350500D01*
X137800Y349750D02*Y348250D01*
X138550Y347500D01*
X140800Y350500D02*Y348250D01*
X141550Y347500D01*
X138550D02*X140050D01*
X140800Y348250D01*
X144100Y353500D02*Y348250D01*
X144850Y347500D01*
X143350Y351250D02*X144850D01*
X147100Y347500D02*X149350D01*
X146350Y348250D02*X147100Y347500D01*
X146350Y349750D02*Y348250D01*
Y349750D02*X147100Y350500D01*
X148600D01*
X149350Y349750D01*
X146350Y349000D02*X149350D01*
Y349750D02*Y349000D01*
X154150Y353500D02*Y347500D01*
X153400D02*X154150Y348250D01*
X151900Y347500D02*X153400D01*
X151150Y348250D02*X151900Y347500D01*
X151150Y349750D02*Y348250D01*
Y349750D02*X151900Y350500D01*
X153400D01*
X154150Y349750D01*
X157450Y350500D02*Y349750D01*
Y348250D02*Y347500D01*
X155950Y352750D02*Y352000D01*
Y352750D02*X156700Y353500D01*
X158200D01*
X158950Y352750D01*
Y352000D01*
X157450Y350500D02*X158950Y352000D01*
X130000Y344250D02*X160750D01*
X0Y368500D02*X3000D01*
X1500D02*Y362500D01*
X4800Y368500D02*Y362500D01*
Y364750D02*X5550Y365500D01*
X7050D01*
X7800Y364750D01*
Y362500D01*
X10350D02*X12600D01*
X9600Y363250D02*X10350Y362500D01*
X9600Y364750D02*Y363250D01*
Y364750D02*X10350Y365500D01*
X11850D01*
X12600Y364750D01*
X9600Y364000D02*X12600D01*
Y364750D02*Y364000D01*
X15150Y364750D02*Y362500D01*
Y364750D02*X15900Y365500D01*
X17400D01*
X14400D02*X15150Y364750D01*
X19950Y362500D02*X22200D01*
X19200Y363250D02*X19950Y362500D01*
X19200Y364750D02*Y363250D01*
Y364750D02*X19950Y365500D01*
X21450D01*
X22200Y364750D01*
X19200Y364000D02*X22200D01*
Y364750D02*Y364000D01*
X28950Y365500D02*X29700Y364750D01*
X27450Y365500D02*X28950D01*
X26700Y364750D02*X27450Y365500D01*
X26700Y364750D02*Y363250D01*
X27450Y362500D01*
X29700Y365500D02*Y363250D01*
X30450Y362500D01*
X27450D02*X28950D01*
X29700Y363250D01*
X33000Y364750D02*Y362500D01*
Y364750D02*X33750Y365500D01*
X35250D01*
X32250D02*X33000Y364750D01*
X37800Y362500D02*X40050D01*
X37050Y363250D02*X37800Y362500D01*
X37050Y364750D02*Y363250D01*
Y364750D02*X37800Y365500D01*
X39300D01*
X40050Y364750D01*
X37050Y364000D02*X40050D01*
Y364750D02*Y364000D01*
X44550Y367750D02*X45300Y368500D01*
X47550D01*
X48300Y367750D01*
Y366250D01*
X44550Y362500D02*X48300Y366250D01*
X44550Y362500D02*X48300D01*
X55800Y368500D02*Y362500D01*
X55050D02*X55800Y363250D01*
X53550Y362500D02*X55050D01*
X52800Y363250D02*X53550Y362500D01*
X52800Y364750D02*Y363250D01*
Y364750D02*X53550Y365500D01*
X55050D01*
X55800Y364750D01*
G54D55*X57600Y367000D02*Y366850D01*
G54D54*Y364750D02*Y362500D01*
X59850Y367750D02*Y362500D01*
Y367750D02*X60600Y368500D01*
X61350D01*
X59100Y365500D02*X60600D01*
X63600Y367750D02*Y362500D01*
Y367750D02*X64350Y368500D01*
X65100D01*
X62850Y365500D02*X64350D01*
X67350Y362500D02*X69600D01*
X66600Y363250D02*X67350Y362500D01*
X66600Y364750D02*Y363250D01*
Y364750D02*X67350Y365500D01*
X68850D01*
X69600Y364750D01*
X66600Y364000D02*X69600D01*
Y364750D02*Y364000D01*
X72150Y364750D02*Y362500D01*
Y364750D02*X72900Y365500D01*
X74400D01*
X71400D02*X72150Y364750D01*
X76950Y362500D02*X79200D01*
X76200Y363250D02*X76950Y362500D01*
X76200Y364750D02*Y363250D01*
Y364750D02*X76950Y365500D01*
X78450D01*
X79200Y364750D01*
X76200Y364000D02*X79200D01*
Y364750D02*Y364000D01*
X81750Y364750D02*Y362500D01*
Y364750D02*X82500Y365500D01*
X83250D01*
X84000Y364750D01*
Y362500D01*
X81000Y365500D02*X81750Y364750D01*
X86550Y368500D02*Y363250D01*
X87300Y362500D01*
X85800Y366250D02*X87300D01*
X94500Y368500D02*Y362500D01*
X93750D02*X94500Y363250D01*
X92250Y362500D02*X93750D01*
X91500Y363250D02*X92250Y362500D01*
X91500Y364750D02*Y363250D01*
Y364750D02*X92250Y365500D01*
X93750D01*
X94500Y364750D01*
X97050D02*Y362500D01*
Y364750D02*X97800Y365500D01*
X99300D01*
X96300D02*X97050Y364750D01*
G54D55*X101100Y367000D02*Y366850D01*
G54D54*Y364750D02*Y362500D01*
X102600Y368500D02*Y363250D01*
X103350Y362500D01*
X104850Y368500D02*Y363250D01*
X105600Y362500D01*
X110550D02*X112800D01*
X113550Y363250D01*
X112800Y364000D02*X113550Y363250D01*
X110550Y364000D02*X112800D01*
X109800Y364750D02*X110550Y364000D01*
X109800Y364750D02*X110550Y365500D01*
X112800D01*
X113550Y364750D01*
X109800Y363250D02*X110550Y362500D01*
G54D55*X115350Y367000D02*Y366850D01*
G54D54*Y364750D02*Y362500D01*
X116850Y365500D02*X119850D01*
X116850Y362500D02*X119850Y365500D01*
X116850Y362500D02*X119850D01*
X122400D02*X124650D01*
X121650Y363250D02*X122400Y362500D01*
X121650Y364750D02*Y363250D01*
Y364750D02*X122400Y365500D01*
X123900D01*
X124650Y364750D01*
X121650Y364000D02*X124650D01*
Y364750D02*Y364000D01*
X127200Y362500D02*X129450D01*
X130200Y363250D01*
X129450Y364000D02*X130200Y363250D01*
X127200Y364000D02*X129450D01*
X126450Y364750D02*X127200Y364000D01*
X126450Y364750D02*X127200Y365500D01*
X129450D01*
X130200Y364750D01*
X126450Y363250D02*X127200Y362500D01*
X134700Y365500D02*Y363250D01*
X135450Y362500D01*
X136950D01*
X137700Y363250D01*
Y365500D02*Y363250D01*
X140250Y362500D02*X142500D01*
X143250Y363250D01*
X142500Y364000D02*X143250Y363250D01*
X140250Y364000D02*X142500D01*
X139500Y364750D02*X140250Y364000D01*
X139500Y364750D02*X140250Y365500D01*
X142500D01*
X143250Y364750D01*
X139500Y363250D02*X140250Y362500D01*
X145800D02*X148050D01*
X145050Y363250D02*X145800Y362500D01*
X145050Y364750D02*Y363250D01*
Y364750D02*X145800Y365500D01*
X147300D01*
X148050Y364750D01*
X145050Y364000D02*X148050D01*
Y364750D02*Y364000D01*
X152850Y368500D02*Y362500D01*
X152100D02*X152850Y363250D01*
X150600Y362500D02*X152100D01*
X149850Y363250D02*X150600Y362500D01*
X149850Y364750D02*Y363250D01*
Y364750D02*X150600Y365500D01*
X152100D01*
X152850Y364750D01*
G54D55*X157350Y367000D02*Y366850D01*
G54D54*Y364750D02*Y362500D01*
X159600Y364750D02*Y362500D01*
Y364750D02*X160350Y365500D01*
X161100D01*
X161850Y364750D01*
Y362500D01*
X158850Y365500D02*X159600Y364750D01*
X167100Y368500D02*Y363250D01*
X167850Y362500D01*
X166350Y366250D02*X167850D01*
X169350Y368500D02*Y362500D01*
Y364750D02*X170100Y365500D01*
X171600D01*
X172350Y364750D01*
Y362500D01*
G54D55*X174150Y367000D02*Y366850D01*
G54D54*Y364750D02*Y362500D01*
X176400D02*X178650D01*
X179400Y363250D01*
X178650Y364000D02*X179400Y363250D01*
X176400Y364000D02*X178650D01*
X175650Y364750D02*X176400Y364000D01*
X175650Y364750D02*X176400Y365500D01*
X178650D01*
X179400Y364750D01*
X175650Y363250D02*X176400Y362500D01*
X183900Y368500D02*Y363250D01*
X184650Y362500D01*
X188400Y365500D02*X189150Y364750D01*
X186900Y365500D02*X188400D01*
X186150Y364750D02*X186900Y365500D01*
X186150Y364750D02*Y363250D01*
X186900Y362500D01*
X189150Y365500D02*Y363250D01*
X189900Y362500D01*
X186900D02*X188400D01*
X189150Y363250D01*
X191700Y365500D02*Y363250D01*
X192450Y362500D01*
X194700Y365500D02*Y361000D01*
X193950Y360250D02*X194700Y361000D01*
X192450Y360250D02*X193950D01*
X191700Y361000D02*X192450Y360250D01*
Y362500D02*X193950D01*
X194700Y363250D01*
X196500Y364750D02*Y363250D01*
Y364750D02*X197250Y365500D01*
X198750D01*
X199500Y364750D01*
Y363250D01*
X198750Y362500D02*X199500Y363250D01*
X197250Y362500D02*X198750D01*
X196500Y363250D02*X197250Y362500D01*
X201300Y365500D02*Y363250D01*
X202050Y362500D01*
X203550D01*
X204300Y363250D01*
Y365500D02*Y363250D01*
X206850Y368500D02*Y363250D01*
X207600Y362500D01*
X206100Y366250D02*X207600D01*
X209100Y361000D02*X210600Y362500D01*
X217350Y368500D02*X218100Y367750D01*
X215850Y368500D02*X217350D01*
X215100Y367750D02*X215850Y368500D01*
X215100Y367750D02*Y363250D01*
X215850Y362500D01*
X217350Y365800D02*X218100Y365050D01*
X215100Y365800D02*X217350D01*
X215850Y362500D02*X217350D01*
X218100Y363250D01*
Y365050D02*Y363250D01*
X219900Y367300D02*X221100Y368500D01*
Y362500D01*
X219900D02*X222150D01*
X226650Y368500D02*Y362500D01*
Y364750D02*X227400Y365500D01*
X228900D01*
X229650Y364750D01*
Y362500D01*
X231450Y364750D02*Y363250D01*
Y364750D02*X232200Y365500D01*
X233700D01*
X234450Y364750D01*
Y363250D01*
X233700Y362500D02*X234450Y363250D01*
X232200Y362500D02*X233700D01*
X231450Y363250D02*X232200Y362500D01*
X236250Y368500D02*Y363250D01*
X237000Y362500D01*
X239250D02*X241500D01*
X238500Y363250D02*X239250Y362500D01*
X238500Y364750D02*Y363250D01*
Y364750D02*X239250Y365500D01*
X240750D01*
X241500Y364750D01*
X238500Y364000D02*X241500D01*
Y364750D02*Y364000D01*
X244050Y362500D02*X246300D01*
X247050Y363250D01*
X246300Y364000D02*X247050Y363250D01*
X244050Y364000D02*X246300D01*
X243300Y364750D02*X244050Y364000D01*
X243300Y364750D02*X244050Y365500D01*
X246300D01*
X247050Y364750D01*
X243300Y363250D02*X244050Y362500D01*
X252300Y368500D02*Y363250D01*
X253050Y362500D01*
X251550Y366250D02*X253050D01*
X254550Y364750D02*Y363250D01*
Y364750D02*X255300Y365500D01*
X256800D01*
X257550Y364750D01*
Y363250D01*
X256800Y362500D02*X257550Y363250D01*
X255300Y362500D02*X256800D01*
X254550Y363250D02*X255300Y362500D01*
X260100Y368500D02*Y363250D01*
X260850Y362500D01*
X259350Y366250D02*X260850D01*
X264600Y365500D02*X265350Y364750D01*
X263100Y365500D02*X264600D01*
X262350Y364750D02*X263100Y365500D01*
X262350Y364750D02*Y363250D01*
X263100Y362500D01*
X265350Y365500D02*Y363250D01*
X266100Y362500D01*
X263100D02*X264600D01*
X265350Y363250D01*
X267900Y368500D02*Y363250D01*
X268650Y362500D01*
G54D56*X0Y280000D02*X210000D01*
Y5000D01*
X0D01*
Y280000D02*Y5000D01*
G54D54*X21175Y-9500D02*X24175D01*
X24925Y-8750D01*
Y-6950D02*Y-8750D01*
X24175Y-6200D02*X24925Y-6950D01*
X21925Y-6200D02*X24175D01*
X21925Y-3500D02*Y-9500D01*
X21175Y-3500D02*X24175D01*
X24925Y-4250D01*
Y-5450D01*
X24175Y-6200D02*X24925Y-5450D01*
X26725Y-7250D02*Y-8750D01*
Y-7250D02*X27475Y-6500D01*
X28975D01*
X29725Y-7250D01*
Y-8750D01*
X28975Y-9500D02*X29725Y-8750D01*
X27475Y-9500D02*X28975D01*
X26725Y-8750D02*X27475Y-9500D01*
X33775Y-6500D02*X34525Y-7250D01*
X32275Y-6500D02*X33775D01*
X31525Y-7250D02*X32275Y-6500D01*
X31525Y-7250D02*Y-8750D01*
X32275Y-9500D01*
X34525Y-6500D02*Y-8750D01*
X35275Y-9500D01*
X32275D02*X33775D01*
X34525Y-8750D01*
X37825Y-7250D02*Y-9500D01*
Y-7250D02*X38575Y-6500D01*
X40075D01*
X37075D02*X37825Y-7250D01*
X44875Y-3500D02*Y-9500D01*
X44125D02*X44875Y-8750D01*
X42625Y-9500D02*X44125D01*
X41875Y-8750D02*X42625Y-9500D01*
X41875Y-7250D02*Y-8750D01*
Y-7250D02*X42625Y-6500D01*
X44125D01*
X44875Y-7250D01*
X49375D02*Y-8750D01*
Y-7250D02*X50125Y-6500D01*
X51625D01*
X52375Y-7250D01*
Y-8750D01*
X51625Y-9500D02*X52375Y-8750D01*
X50125Y-9500D02*X51625D01*
X49375Y-8750D02*X50125Y-9500D01*
X54175Y-6500D02*Y-8750D01*
X54925Y-9500D01*
X56425D01*
X57175Y-8750D01*
Y-6500D02*Y-8750D01*
X59725Y-3500D02*Y-8750D01*
X60475Y-9500D01*
X58975Y-5750D02*X60475D01*
X61975Y-3500D02*Y-8750D01*
X62725Y-9500D01*
G54D55*X64225Y-5000D02*Y-5150D01*
G54D54*Y-7250D02*Y-9500D01*
X66475Y-7250D02*Y-9500D01*
Y-7250D02*X67225Y-6500D01*
X67975D01*
X68725Y-7250D01*
Y-9500D01*
X65725Y-6500D02*X66475Y-7250D01*
X71275Y-9500D02*X73525D01*
X70525Y-8750D02*X71275Y-9500D01*
X70525Y-7250D02*Y-8750D01*
Y-7250D02*X71275Y-6500D01*
X72775D01*
X73525Y-7250D01*
X70525Y-8000D02*X73525D01*
Y-7250D02*Y-8000D01*
G54D55*X78025Y-5000D02*Y-5150D01*
G54D54*Y-7250D02*Y-9500D01*
X80275D02*X82525D01*
X83275Y-8750D01*
X82525Y-8000D02*X83275Y-8750D01*
X80275Y-8000D02*X82525D01*
X79525Y-7250D02*X80275Y-8000D01*
X79525Y-7250D02*X80275Y-6500D01*
X82525D01*
X83275Y-7250D01*
X79525Y-8750D02*X80275Y-9500D01*
X88525Y-3500D02*Y-8750D01*
X89275Y-9500D01*
X87775Y-5750D02*X89275D01*
X90775Y-3500D02*Y-9500D01*
Y-7250D02*X91525Y-6500D01*
X93025D01*
X93775Y-7250D01*
Y-9500D01*
X96325D02*X98575D01*
X95575Y-8750D02*X96325Y-9500D01*
X95575Y-7250D02*Y-8750D01*
Y-7250D02*X96325Y-6500D01*
X97825D01*
X98575Y-7250D01*
X95575Y-8000D02*X98575D01*
Y-7250D02*Y-8000D01*
X103825Y-6500D02*X106075D01*
X103075Y-7250D02*X103825Y-6500D01*
X103075Y-7250D02*Y-8750D01*
X103825Y-9500D01*
X106075D01*
X108625D02*X110875D01*
X107875Y-8750D02*X108625Y-9500D01*
X107875Y-7250D02*Y-8750D01*
Y-7250D02*X108625Y-6500D01*
X110125D01*
X110875Y-7250D01*
X107875Y-8000D02*X110875D01*
Y-7250D02*Y-8000D01*
X113425Y-7250D02*Y-9500D01*
Y-7250D02*X114175Y-6500D01*
X114925D01*
X115675Y-7250D01*
Y-9500D01*
X112675Y-6500D02*X113425Y-7250D01*
X118225Y-3500D02*Y-8750D01*
X118975Y-9500D01*
X117475Y-5750D02*X118975D01*
X121225Y-9500D02*X123475D01*
X120475Y-8750D02*X121225Y-9500D01*
X120475Y-7250D02*Y-8750D01*
Y-7250D02*X121225Y-6500D01*
X122725D01*
X123475Y-7250D01*
X120475Y-8000D02*X123475D01*
Y-7250D02*Y-8000D01*
X126025Y-7250D02*Y-9500D01*
Y-7250D02*X126775Y-6500D01*
X128275D01*
X125275D02*X126025Y-7250D01*
X130075Y-3500D02*Y-8750D01*
X130825Y-9500D01*
G54D55*X132325Y-5000D02*Y-5150D01*
G54D54*Y-7250D02*Y-9500D01*
X134575Y-7250D02*Y-9500D01*
Y-7250D02*X135325Y-6500D01*
X136075D01*
X136825Y-7250D01*
Y-9500D01*
X133825Y-6500D02*X134575Y-7250D01*
X139375Y-9500D02*X141625D01*
X138625Y-8750D02*X139375Y-9500D01*
X138625Y-7250D02*Y-8750D01*
Y-7250D02*X139375Y-6500D01*
X140875D01*
X141625Y-7250D01*
X138625Y-8000D02*X141625D01*
Y-7250D02*Y-8000D01*
X146125Y-7250D02*Y-8750D01*
Y-7250D02*X146875Y-6500D01*
X148375D01*
X149125Y-7250D01*
Y-8750D01*
X148375Y-9500D02*X149125Y-8750D01*
X146875Y-9500D02*X148375D01*
X146125Y-8750D02*X146875Y-9500D01*
X151675Y-4250D02*Y-9500D01*
Y-4250D02*X152425Y-3500D01*
X153175D01*
X150925Y-6500D02*X152425D01*
X158125Y-3500D02*Y-8750D01*
X158875Y-9500D01*
X157375Y-5750D02*X158875D01*
X160375Y-3500D02*Y-9500D01*
Y-7250D02*X161125Y-6500D01*
X162625D01*
X163375Y-7250D01*
Y-9500D01*
G54D55*X165175Y-5000D02*Y-5150D01*
G54D54*Y-7250D02*Y-9500D01*
X167425D02*X169675D01*
X170425Y-8750D01*
X169675Y-8000D02*X170425Y-8750D01*
X167425Y-8000D02*X169675D01*
X166675Y-7250D02*X167425Y-8000D01*
X166675Y-7250D02*X167425Y-6500D01*
X169675D01*
X170425Y-7250D01*
X166675Y-8750D02*X167425Y-9500D01*
X175675Y-7250D02*Y-11750D01*
X174925Y-6500D02*X175675Y-7250D01*
X176425Y-6500D01*
X177925D01*
X178675Y-7250D01*
Y-8750D01*
X177925Y-9500D02*X178675Y-8750D01*
X176425Y-9500D02*X177925D01*
X175675Y-8750D02*X176425Y-9500D01*
X182725Y-6500D02*X183475Y-7250D01*
X181225Y-6500D02*X182725D01*
X180475Y-7250D02*X181225Y-6500D01*
X180475Y-7250D02*Y-8750D01*
X181225Y-9500D01*
X183475Y-6500D02*Y-8750D01*
X184225Y-9500D01*
X181225D02*X182725D01*
X183475Y-8750D01*
X186775Y-3500D02*Y-8750D01*
X187525Y-9500D01*
X186025Y-5750D02*X187525D01*
X189025Y-3500D02*Y-9500D01*
Y-7250D02*X189775Y-6500D01*
X191275D01*
X192025Y-7250D01*
Y-9500D01*
X200750Y308500D02*Y302500D01*
X202700Y308500D02*X203750Y307450D01*
Y303550D01*
X202700Y302500D02*X203750Y303550D01*
X200000Y302500D02*X202700D01*
X200000Y308500D02*X202700D01*
X207800Y305500D02*X208550Y304750D01*
X206300Y305500D02*X207800D01*
X205550Y304750D02*X206300Y305500D01*
X205550Y304750D02*Y303250D01*
X206300Y302500D01*
X208550Y305500D02*Y303250D01*
X209300Y302500D01*
X206300D02*X207800D01*
X208550Y303250D01*
X211850Y308500D02*Y303250D01*
X212600Y302500D01*
X211100Y306250D02*X212600D01*
X214850Y302500D02*X217100D01*
X214100Y303250D02*X214850Y302500D01*
X214100Y304750D02*Y303250D01*
Y304750D02*X214850Y305500D01*
X216350D01*
X217100Y304750D01*
X214100Y304000D02*X217100D01*
Y304750D02*Y304000D01*
X218900Y306250D02*X219650D01*
X218900Y304750D02*X219650D01*
X224150Y308500D02*Y302500D01*
Y308500D02*X226400Y305500D01*
X228650Y308500D01*
Y302500D01*
X230450Y304750D02*Y303250D01*
Y304750D02*X231200Y305500D01*
X232700D01*
X233450Y304750D01*
Y303250D01*
X232700Y302500D02*X233450Y303250D01*
X231200Y302500D02*X232700D01*
X230450Y303250D02*X231200Y302500D01*
X236000Y304750D02*Y302500D01*
Y304750D02*X236750Y305500D01*
X237500D01*
X238250Y304750D01*
Y302500D01*
X235250Y305500D02*X236000Y304750D01*
X245750Y308500D02*X246500Y307750D01*
X243500Y308500D02*X245750D01*
X242750Y307750D02*X243500Y308500D01*
X242750Y307750D02*Y306250D01*
X243500Y305500D01*
X245750D01*
X246500Y304750D01*
Y303250D01*
X245750Y302500D02*X246500Y303250D01*
X243500Y302500D02*X245750D01*
X242750Y303250D02*X243500Y302500D01*
X249050D02*X251300D01*
X248300Y303250D02*X249050Y302500D01*
X248300Y304750D02*Y303250D01*
Y304750D02*X249050Y305500D01*
X250550D01*
X251300Y304750D01*
X248300Y304000D02*X251300D01*
Y304750D02*Y304000D01*
X253850Y304750D02*Y300250D01*
X253100Y305500D02*X253850Y304750D01*
X254600Y305500D01*
X256100D01*
X256850Y304750D01*
Y303250D01*
X256100Y302500D02*X256850Y303250D01*
X254600Y302500D02*X256100D01*
X253850Y303250D02*X254600Y302500D01*
X261350Y307750D02*X262100Y308500D01*
X264350D01*
X265100Y307750D01*
Y306250D01*
X261350Y302500D02*X265100Y306250D01*
X261350Y302500D02*X265100D01*
X266900Y303250D02*X267650Y302500D01*
X266900Y304450D02*Y303250D01*
Y304450D02*X267950Y305500D01*
X268850D01*
X269900Y304450D01*
Y303250D01*
X269150Y302500D02*X269900Y303250D01*
X267650Y302500D02*X269150D01*
X266900Y306550D02*X267950Y305500D01*
X266900Y307750D02*Y306550D01*
Y307750D02*X267650Y308500D01*
X269150D01*
X269900Y307750D01*
Y306550D01*
X268850Y305500D02*X269900Y306550D01*
X274400Y303250D02*X275150Y302500D01*
X274400Y307750D02*Y303250D01*
Y307750D02*X275150Y308500D01*
X276650D01*
X277400Y307750D01*
Y303250D01*
X276650Y302500D02*X277400Y303250D01*
X275150Y302500D02*X276650D01*
X274400Y304000D02*X277400Y307000D01*
X279200Y304750D02*X282200Y308500D01*
X279200Y304750D02*X282950D01*
X282200Y308500D02*Y302500D01*
X284750Y306250D02*X285500D01*
X284750Y304750D02*X285500D01*
X287300Y307750D02*X288050Y308500D01*
X290300D01*
X291050Y307750D01*
Y306250D01*
X287300Y302500D02*X291050Y306250D01*
X287300Y302500D02*X291050D01*
X292850Y303250D02*X293600Y302500D01*
X292850Y307750D02*Y303250D01*
Y307750D02*X293600Y308500D01*
X295100D01*
X295850Y307750D01*
Y303250D01*
X295100Y302500D02*X295850Y303250D01*
X293600Y302500D02*X295100D01*
X292850Y304000D02*X295850Y307000D01*
X297650Y306250D02*X298400D01*
X297650Y304750D02*X298400D01*
X300200Y307750D02*X300950Y308500D01*
X303200D01*
X303950Y307750D01*
Y306250D01*
X300200Y302500D02*X303950Y306250D01*
X300200Y302500D02*X303950D01*
X305750Y307750D02*X306500Y308500D01*
X308750D01*
X309500Y307750D01*
Y306250D01*
X305750Y302500D02*X309500Y306250D01*
X305750Y302500D02*X309500D01*
X314000Y307750D02*X314750Y308500D01*
X317000D01*
X317750Y307750D01*
Y306250D01*
X314000Y302500D02*X317750Y306250D01*
X314000Y302500D02*X317750D01*
X319550Y303250D02*X320300Y302500D01*
X319550Y307750D02*Y303250D01*
Y307750D02*X320300Y308500D01*
X321800D01*
X322550Y307750D01*
Y303250D01*
X321800Y302500D02*X322550Y303250D01*
X320300Y302500D02*X321800D01*
X319550Y304000D02*X322550Y307000D01*
X324350Y307750D02*X325100Y308500D01*
X327350D01*
X328100Y307750D01*
Y306250D01*
X324350Y302500D02*X328100Y306250D01*
X324350Y302500D02*X328100D01*
X329900Y303250D02*X330650Y302500D01*
X329900Y307750D02*Y303250D01*
Y307750D02*X330650Y308500D01*
X332150D01*
X332900Y307750D01*
Y303250D01*
X332150Y302500D02*X332900Y303250D01*
X330650Y302500D02*X332150D01*
X329900Y304000D02*X332900Y307000D01*
X337400Y308500D02*Y303250D01*
X338150Y302500D01*
X339650D01*
X340400Y303250D01*
Y308500D02*Y303250D01*
X342200Y308500D02*X345200D01*
X343700D02*Y302500D01*
X348050D02*X350000D01*
X347000Y303550D02*X348050Y302500D01*
X347000Y307450D02*Y303550D01*
Y307450D02*X348050Y308500D01*
X350000D01*
X200000Y322000D02*Y317500D01*
Y322000D02*X201050Y323500D01*
X202700D01*
X203750Y322000D01*
Y317500D01*
X200000Y320500D02*X203750D01*
X205550D02*Y318250D01*
X206300Y317500D01*
X207800D01*
X208550Y318250D01*
Y320500D02*Y318250D01*
X211100Y323500D02*Y318250D01*
X211850Y317500D01*
X210350Y321250D02*X211850D01*
X213350Y323500D02*Y317500D01*
Y319750D02*X214100Y320500D01*
X215600D01*
X216350Y319750D01*
Y317500D01*
X218150Y319750D02*Y318250D01*
Y319750D02*X218900Y320500D01*
X220400D01*
X221150Y319750D01*
Y318250D01*
X220400Y317500D02*X221150Y318250D01*
X218900Y317500D02*X220400D01*
X218150Y318250D02*X218900Y317500D01*
X223700Y319750D02*Y317500D01*
Y319750D02*X224450Y320500D01*
X225950D01*
X222950D02*X223700Y319750D01*
X227750Y321250D02*X228500D01*
X227750Y319750D02*X228500D01*
X233750Y320500D02*X236000D01*
X233000Y319750D02*X233750Y320500D01*
X233000Y319750D02*Y318250D01*
X233750Y317500D01*
X236000D01*
X237800Y319750D02*Y318250D01*
Y319750D02*X238550Y320500D01*
X240050D01*
X240800Y319750D01*
Y318250D01*
X240050Y317500D02*X240800Y318250D01*
X238550Y317500D02*X240050D01*
X237800Y318250D02*X238550Y317500D01*
X243350Y319750D02*Y317500D01*
Y319750D02*X244100Y320500D01*
X244850D01*
X245600Y319750D01*
Y317500D01*
Y319750D02*X246350Y320500D01*
X247100D01*
X247850Y319750D01*
Y317500D01*
X242600Y320500D02*X243350Y319750D01*
X250400D02*Y317500D01*
Y319750D02*X251150Y320500D01*
X251900D01*
X252650Y319750D01*
Y317500D01*
Y319750D02*X253400Y320500D01*
X254150D01*
X254900Y319750D01*
Y317500D01*
X249650Y320500D02*X250400Y319750D01*
X256700D02*Y318250D01*
Y319750D02*X257450Y320500D01*
X258950D01*
X259700Y319750D01*
Y318250D01*
X258950Y317500D02*X259700Y318250D01*
X257450Y317500D02*X258950D01*
X256700Y318250D02*X257450Y317500D01*
X262250Y319750D02*Y317500D01*
Y319750D02*X263000Y320500D01*
X263750D01*
X264500Y319750D01*
Y317500D01*
X261500Y320500D02*X262250Y319750D01*
X268550Y320500D02*X269300Y319750D01*
X267050Y320500D02*X268550D01*
X266300Y319750D02*X267050Y320500D01*
X266300Y319750D02*Y318250D01*
X267050Y317500D01*
X269300Y320500D02*Y318250D01*
X270050Y317500D01*
X267050D02*X268550D01*
X269300Y318250D01*
X274850Y323500D02*Y317500D01*
X274100D02*X274850Y318250D01*
X272600Y317500D02*X274100D01*
X271850Y318250D02*X272600Y317500D01*
X271850Y319750D02*Y318250D01*
Y319750D02*X272600Y320500D01*
X274100D01*
X274850Y319750D01*
X277400D02*Y317500D01*
Y319750D02*X278150Y320500D01*
X278900D01*
X279650Y319750D01*
Y317500D01*
Y319750D02*X280400Y320500D01*
X281150D01*
X281900Y319750D01*
Y317500D01*
X276650Y320500D02*X277400Y319750D01*
G54D55*X283700Y322000D02*Y321850D01*
G54D54*Y319750D02*Y317500D01*
X285950Y319750D02*Y317500D01*
Y319750D02*X286700Y320500D01*
X287450D01*
X288200Y319750D01*
Y317500D01*
X285200Y320500D02*X285950Y319750D01*
X200000Y338500D02*X203000D01*
X201500D02*Y332500D01*
G54D55*X204800Y337000D02*Y336850D01*
G54D54*Y334750D02*Y332500D01*
X207050Y338500D02*Y333250D01*
X207800Y332500D01*
X206300Y336250D02*X207800D01*
X209300Y338500D02*Y333250D01*
X210050Y332500D01*
X212300D02*X214550D01*
X211550Y333250D02*X212300Y332500D01*
X211550Y334750D02*Y333250D01*
Y334750D02*X212300Y335500D01*
X213800D01*
X214550Y334750D01*
X211550Y334000D02*X214550D01*
Y334750D02*Y334000D01*
X216350Y336250D02*X217100D01*
X216350Y334750D02*X217100D01*
X221600Y333250D02*X222350Y332500D01*
X221600Y337750D02*X222350Y338500D01*
X221600Y337750D02*Y333250D01*
X224150Y335500D02*Y333250D01*
X224900Y332500D01*
X226400D01*
X227150Y333250D01*
Y335500D02*Y333250D01*
X229700Y334750D02*Y332500D01*
Y334750D02*X230450Y335500D01*
X231200D01*
X231950Y334750D01*
Y332500D01*
X228950Y335500D02*X229700Y334750D01*
X233750Y338500D02*Y332500D01*
Y334750D02*X236000Y332500D01*
X233750Y334750D02*X235250Y336250D01*
X238550Y334750D02*Y332500D01*
Y334750D02*X239300Y335500D01*
X240050D01*
X240800Y334750D01*
Y332500D01*
X237800Y335500D02*X238550Y334750D01*
X242600D02*Y333250D01*
Y334750D02*X243350Y335500D01*
X244850D01*
X245600Y334750D01*
Y333250D01*
X244850Y332500D02*X245600Y333250D01*
X243350Y332500D02*X244850D01*
X242600Y333250D02*X243350Y332500D01*
X247400Y335500D02*Y333250D01*
X248150Y332500D01*
X248900D01*
X249650Y333250D01*
Y335500D02*Y333250D01*
X250400Y332500D01*
X251150D01*
X251900Y333250D01*
Y335500D02*Y333250D01*
X254450Y334750D02*Y332500D01*
Y334750D02*X255200Y335500D01*
X255950D01*
X256700Y334750D01*
Y332500D01*
X253700Y335500D02*X254450Y334750D01*
X258500Y338500D02*X259250Y337750D01*
Y333250D01*
X258500Y332500D02*X259250Y333250D01*
X263750Y335500D02*X266750D01*
X271250Y338500D02*Y332500D01*
Y338500D02*X274250D01*
X271250Y335800D02*X273500D01*
X278300Y335500D02*X279050Y334750D01*
X276800Y335500D02*X278300D01*
X276050Y334750D02*X276800Y335500D01*
X276050Y334750D02*Y333250D01*
X276800Y332500D01*
X279050Y335500D02*Y333250D01*
X279800Y332500D01*
X276800D02*X278300D01*
X279050Y333250D01*
X281600Y338500D02*Y332500D01*
Y333250D02*X282350Y332500D01*
X283850D01*
X284600Y333250D01*
Y334750D02*Y333250D01*
X283850Y335500D02*X284600Y334750D01*
X282350Y335500D02*X283850D01*
X281600Y334750D02*X282350Y335500D01*
X287150Y334750D02*Y332500D01*
Y334750D02*X287900Y335500D01*
X289400D01*
X286400D02*X287150Y334750D01*
G54D55*X291200Y337000D02*Y336850D01*
G54D54*Y334750D02*Y332500D01*
X293450Y335500D02*X295700D01*
X292700Y334750D02*X293450Y335500D01*
X292700Y334750D02*Y333250D01*
X293450Y332500D01*
X295700D01*
X299750Y335500D02*X300500Y334750D01*
X298250Y335500D02*X299750D01*
X297500Y334750D02*X298250Y335500D01*
X297500Y334750D02*Y333250D01*
X298250Y332500D01*
X300500Y335500D02*Y333250D01*
X301250Y332500D01*
X298250D02*X299750D01*
X300500Y333250D01*
X303800Y338500D02*Y333250D01*
X304550Y332500D01*
X303050Y336250D02*X304550D01*
G54D55*X306050Y337000D02*Y336850D01*
G54D54*Y334750D02*Y332500D01*
X307550Y334750D02*Y333250D01*
Y334750D02*X308300Y335500D01*
X309800D01*
X310550Y334750D01*
Y333250D01*
X309800Y332500D02*X310550Y333250D01*
X308300Y332500D02*X309800D01*
X307550Y333250D02*X308300Y332500D01*
X313100Y334750D02*Y332500D01*
Y334750D02*X313850Y335500D01*
X314600D01*
X315350Y334750D01*
Y332500D01*
X312350Y335500D02*X313100Y334750D01*
X320600Y338500D02*Y332500D01*
X322550Y338500D02*X323600Y337450D01*
Y333550D01*
X322550Y332500D02*X323600Y333550D01*
X319850Y332500D02*X322550D01*
X319850Y338500D02*X322550D01*
X326150Y334750D02*Y332500D01*
Y334750D02*X326900Y335500D01*
X328400D01*
X325400D02*X326150Y334750D01*
X332450Y335500D02*X333200Y334750D01*
X330950Y335500D02*X332450D01*
X330200Y334750D02*X330950Y335500D01*
X330200Y334750D02*Y333250D01*
X330950Y332500D01*
X333200Y335500D02*Y333250D01*
X333950Y332500D01*
X330950D02*X332450D01*
X333200Y333250D01*
X335750Y335500D02*Y333250D01*
X336500Y332500D01*
X337250D01*
X338000Y333250D01*
Y335500D02*Y333250D01*
X338750Y332500D01*
X339500D01*
X340250Y333250D01*
Y335500D02*Y333250D01*
G54D55*X342050Y337000D02*Y336850D01*
G54D54*Y334750D02*Y332500D01*
X344300Y334750D02*Y332500D01*
Y334750D02*X345050Y335500D01*
X345800D01*
X346550Y334750D01*
Y332500D01*
X343550Y335500D02*X344300Y334750D01*
X350600Y335500D02*X351350Y334750D01*
X349100Y335500D02*X350600D01*
X348350Y334750D02*X349100Y335500D01*
X348350Y334750D02*Y333250D01*
X349100Y332500D01*
X350600D01*
X351350Y333250D01*
X348350Y331000D02*X349100Y330250D01*
X350600D01*
X351350Y331000D01*
Y335500D02*Y331000D01*
M02*
