G04 start of page 10 for group -4079 idx -4079 *
G04 Title: (unknown), topsilk *
G04 Creator: pcb 4.2.0 *
G04 CreationDate: Mon Sep 28 04:20:22 2020 UTC *
G04 For: commonadmin *
G04 Format: Gerber/RS-274X *
G04 PCB-Dimensions (mil): 2150.00 2800.00 *
G04 PCB-Coordinate-Origin: lower left *
%MOIN*%
%FSLAX25Y25*%
%LNTOPSILK*%
%ADD52C,0.0021*%
%ADD51C,0.0022*%
%ADD50C,0.0026*%
%ADD49C,0.0021*%
%ADD48C,0.0038*%
%ADD47C,0.0027*%
%ADD46C,0.0022*%
%ADD45C,0.0030*%
%ADD44C,0.0060*%
%ADD43C,0.0100*%
%ADD42C,0.0001*%
G54D42*G36*
X198500Y43500D02*Y47500D01*
X201500D01*
Y43500D01*
X198500D01*
G37*
G36*
X184000Y44000D02*Y48000D01*
X187000D01*
Y44000D01*
X184000D01*
G37*
G36*
X179000Y47500D02*Y51500D01*
X182000D01*
Y47500D01*
X179000D01*
G37*
G36*
X168000Y54000D02*Y58000D01*
X171000D01*
Y54000D01*
X168000D01*
G37*
G36*
X143000Y43500D02*Y47500D01*
X146000D01*
Y43500D01*
X143000D01*
G37*
G36*
X55000Y248000D02*X58500Y251500D01*
X62000Y248000D01*
X55000D01*
G37*
G36*
X168000D02*X171500Y251500D01*
X175000Y248000D01*
X168000D01*
G37*
G36*
X136000Y53500D02*Y57500D01*
X139000D01*
Y53500D01*
X136000D01*
G37*
G36*
X82000D02*Y57500D01*
X85000D01*
Y53500D01*
X82000D01*
G37*
G36*
X67500D02*Y57500D01*
X70500D01*
Y53500D01*
X67500D01*
G37*
G36*
X98500D02*Y57500D01*
X101500D01*
Y53500D01*
X98500D01*
G37*
G36*
X113000D02*Y57500D01*
X116000D01*
Y53500D01*
X113000D01*
G37*
G54D43*X90000Y240000D02*X85750Y244250D01*
X80000Y240000D02*X75750Y244250D01*
X90000Y250000D02*Y275000D01*
X85750Y244250D02*Y270000D01*
X80000Y250000D02*Y275000D01*
X75750Y244250D02*Y270000D01*
X70000Y250000D02*Y275000D01*
G54D44*X64000Y65500D02*Y59500D01*
G54D43*X70000Y240000D02*X65750Y244250D01*
G54D44*X65000Y228000D02*X82500D01*
X64000Y65500D02*X121000D01*
G54D43*X65750Y244250D02*Y270000D01*
X62500Y262500D02*X57500Y257500D01*
G54D44*X62000Y248000D02*X58500Y251500D01*
X63500Y250000D02*X62000D01*
X58500Y251500D02*X55000Y248000D01*
X62000D01*
X141000Y141500D02*X143000Y139500D01*
X143500Y86500D02*Y126500D01*
Y192500D02*Y152500D01*
X137000Y157000D02*X143500D01*
X122500D02*X127500D01*
Y100000D02*Y126500D01*
Y179000D02*Y152500D01*
X121000Y59500D02*Y87500D01*
X143500Y122000D02*X137000D01*
X127500D02*X122500D01*
X164000Y65500D02*X151000D01*
Y59500D01*
X164000D02*Y76000D01*
X201500Y100000D02*Y59500D01*
Y65500D02*X165500D01*
Y59500D01*
G54D43*X130000Y240000D02*X125750Y244250D01*
Y270000D01*
X120000Y250000D02*Y275000D01*
X115750Y244250D02*Y270000D01*
X110000Y250000D02*Y275000D01*
X120000Y240000D02*X115750Y244250D01*
X110000Y240000D02*X105750Y244250D01*
X100000Y240000D02*X95750Y244250D01*
G54D44*X115500Y229500D02*Y228500D01*
X116000Y228000D01*
X143500D01*
X113500D02*X95500D01*
G54D43*X145750Y244250D02*Y270000D01*
X140000Y250000D02*Y275000D01*
X135750Y244250D02*Y270000D01*
X130000Y250000D02*Y275000D01*
G54D44*X145000Y232000D02*Y228000D01*
G54D43*X160000Y250000D02*Y275000D01*
X155750Y244250D02*Y270000D01*
X150000Y250000D02*Y275000D01*
X167500Y262500D02*X162500Y257500D01*
G54D44*X175000Y248000D02*X171500Y251500D01*
X168000Y248000D01*
Y250000D02*X166500D01*
G54D43*X105750Y244250D02*Y270000D01*
X100000Y250000D02*Y275000D01*
X95750Y244250D02*Y270000D01*
X57500Y257500D02*X162500D01*
X167500Y262500D02*X62500D01*
X160000Y240000D02*X155750Y244250D01*
X150000Y240000D02*X145750Y244250D01*
X140000Y240000D02*X135750Y244250D01*
G54D44*X168000Y248000D02*X175000D01*
X145000Y228000D02*X164000D01*
Y232000D01*
Y215000D01*
X143500Y232000D02*Y194500D01*
X85000Y228000D02*X92500D01*
X93000Y228500D01*
Y229500D01*
X85000Y232000D02*Y194500D01*
X82500Y228000D02*X83000Y228500D01*
X65000Y232000D02*Y206500D01*
X95000Y228500D02*X95500Y228000D01*
X113500Y232000D02*Y206500D01*
G54D45*X137770Y158500D02*X140850D01*
Y160040D02*Y158500D01*
Y162504D02*Y161349D01*
X140465Y160964D02*X140850Y161349D01*
X139695Y160964D02*X140465D01*
X139695D02*X139310Y161349D01*
Y162119D02*Y161349D01*
Y162119D02*X139695Y162504D01*
X140080D02*Y160964D01*
X139695Y162504D02*X140080D01*
X139310Y164583D02*X139695Y164968D01*
X139310Y164583D02*Y163813D01*
X139695Y163428D02*X139310Y163813D01*
X139695Y163428D02*X140465D01*
X140850Y163813D01*
Y164583D02*Y163813D01*
Y164583D02*X140465Y164968D01*
X141620Y163428D02*X142005Y163813D01*
Y164583D02*Y163813D01*
Y164583D02*X141620Y164968D01*
X139310D02*X141620D01*
X139310Y167047D02*X139695Y167432D01*
X139310Y167047D02*Y166277D01*
X139695Y165892D02*X139310Y166277D01*
X139695Y165892D02*X140465D01*
X140850Y166277D01*
X139310Y167432D02*X140465D01*
X140850Y167817D01*
Y167047D02*Y166277D01*
Y167047D02*X140465Y167432D01*
X139310Y170281D02*Y169126D01*
X139695Y168741D02*X139310Y169126D01*
X139695Y168741D02*X140465D01*
X140850Y169126D01*
Y170281D02*Y169126D01*
X139310Y171205D02*X140465D01*
X140850Y171590D01*
X139310Y172745D02*X141620D01*
X142005Y172360D02*X141620Y172745D01*
X142005Y172360D02*Y171590D01*
X141620Y171205D02*X142005Y171590D01*
X140850Y172360D02*Y171590D01*
Y172360D02*X140465Y172745D01*
X139310Y175209D02*Y173669D01*
X137770Y176133D02*X140850D01*
Y177673D02*Y176133D01*
X139310Y178597D02*X140465D01*
X140850Y178982D01*
Y179752D02*Y178982D01*
Y179752D02*X140465Y180137D01*
X139310D02*X140465D01*
X137770Y181061D02*X140465D01*
X140850Y181446D01*
X139310Y183756D02*Y182216D01*
X140850D02*X139310Y183756D01*
X140850D02*Y182216D01*
Y186220D02*Y184680D01*
Y186220D02*X140465Y186605D01*
X139541D02*X140465D01*
X139156Y186220D02*X139541Y186605D01*
X139156Y186220D02*Y185065D01*
X137770D02*X140850D01*
X137770Y186220D02*Y184680D01*
Y186220D02*X138155Y186605D01*
X138771D01*
X139156Y186220D02*X138771Y186605D01*
X139695Y187529D02*X140465D01*
X139695D02*X139310Y187914D01*
Y188684D02*Y187914D01*
Y188684D02*X139695Y189069D01*
X140465D01*
X140850Y188684D02*X140465Y189069D01*
X140850Y188684D02*Y187914D01*
X140465Y187529D02*X140850Y187914D01*
X137770Y190378D02*X140465D01*
X140850Y190763D01*
X138925D02*Y189993D01*
X137770Y88000D02*X140850D01*
Y89540D02*Y88000D01*
Y92004D02*Y90849D01*
X140465Y90464D02*X140850Y90849D01*
X139695Y90464D02*X140465D01*
X139695D02*X139310Y90849D01*
Y91619D02*Y90849D01*
Y91619D02*X139695Y92004D01*
X140080D02*Y90464D01*
X139695Y92004D02*X140080D01*
X139310Y94083D02*X139695Y94468D01*
X139310Y94083D02*Y93313D01*
X139695Y92928D02*X139310Y93313D01*
X139695Y92928D02*X140465D01*
X140850Y93313D01*
Y94083D02*Y93313D01*
Y94083D02*X140465Y94468D01*
X141620Y92928D02*X142005Y93313D01*
Y94083D02*Y93313D01*
Y94083D02*X141620Y94468D01*
X139310D02*X141620D01*
X139310Y96547D02*X139695Y96932D01*
X139310Y96547D02*Y95777D01*
X139695Y95392D02*X139310Y95777D01*
X139695Y95392D02*X140465D01*
X140850Y95777D01*
X139310Y96932D02*X140465D01*
X140850Y97317D01*
Y96547D02*Y95777D01*
Y96547D02*X140465Y96932D01*
X139310Y99781D02*Y98626D01*
X139695Y98241D02*X139310Y98626D01*
X139695Y98241D02*X140465D01*
X140850Y98626D01*
Y99781D02*Y98626D01*
X139310Y100705D02*X140465D01*
X140850Y101090D01*
X139310Y102245D02*X141620D01*
X142005Y101860D02*X141620Y102245D01*
X142005Y101860D02*Y101090D01*
X141620Y100705D02*X142005Y101090D01*
X140850Y101860D02*Y101090D01*
Y101860D02*X140465Y102245D01*
X139310Y104709D02*Y103169D01*
X137770Y105633D02*X140850D01*
Y107173D02*Y105633D01*
X139310Y108097D02*X140465D01*
X140850Y108482D01*
Y109252D02*Y108482D01*
Y109252D02*X140465Y109637D01*
X139310D02*X140465D01*
X137770Y110561D02*X140465D01*
X140850Y110946D01*
X139310Y113256D02*Y111716D01*
X140850D02*X139310Y113256D01*
X140850D02*Y111716D01*
Y115720D02*Y114180D01*
Y115720D02*X140465Y116105D01*
X139541D02*X140465D01*
X139156Y115720D02*X139541Y116105D01*
X139156Y115720D02*Y114565D01*
X137770D02*X140850D01*
X137770Y115720D02*Y114180D01*
Y115720D02*X138155Y116105D01*
X138771D01*
X139156Y115720D02*X138771Y116105D01*
X139695Y117029D02*X140465D01*
X139695D02*X139310Y117414D01*
Y118184D02*Y117414D01*
Y118184D02*X139695Y118569D01*
X140465D01*
X140850Y118184D02*X140465Y118569D01*
X140850Y118184D02*Y117414D01*
X140465Y117029D02*X140850Y117414D01*
X137770Y119878D02*X140465D01*
X140850Y120263D01*
X138925D02*Y119493D01*
G54D46*X147540Y131500D02*X149700D01*
X147540D02*X148620Y132310D01*
X147540Y133120D01*
X149700D01*
X148620Y134578D02*X148890Y134848D01*
X148620Y134578D02*Y134038D01*
X148890Y133768D02*X148620Y134038D01*
X148890Y133768D02*X149430D01*
X149700Y134038D01*
X148620Y134848D02*X149430D01*
X149700Y135118D01*
Y134578D02*Y134038D01*
Y134578D02*X149430Y134848D01*
X148620Y135766D02*X149430D01*
X149700Y136036D01*
X148620Y136846D02*X150240D01*
X150510Y136576D02*X150240Y136846D01*
X150510Y136576D02*Y136036D01*
X150240Y135766D02*X150510Y136036D01*
X149700Y136576D02*Y136036D01*
Y136576D02*X149430Y136846D01*
X147540Y138466D02*X149700D01*
X149430D02*X149700Y138736D01*
Y139276D02*Y138736D01*
Y139276D02*X149430Y139546D01*
X148890D02*X149430D01*
X148620Y139276D02*X148890Y139546D01*
X148620Y139276D02*Y138736D01*
X148890Y138466D02*X148620Y138736D01*
X148890Y140464D02*X149700D01*
X148890D02*X148620Y140734D01*
Y141274D02*Y140734D01*
Y140194D02*X148890Y140464D01*
X149700Y143002D02*Y142192D01*
X149430Y141922D02*X149700Y142192D01*
X148890Y141922D02*X149430D01*
X148890D02*X148620Y142192D01*
Y142732D02*Y142192D01*
Y142732D02*X148890Y143002D01*
X149160D02*Y141922D01*
X148890Y143002D02*X149160D01*
X148620Y144460D02*X148890Y144730D01*
X148620Y144460D02*Y143920D01*
X148890Y143650D02*X148620Y143920D01*
X148890Y143650D02*X149430D01*
X149700Y143920D01*
X148620Y144730D02*X149430D01*
X149700Y145000D01*
Y144460D02*Y143920D01*
Y144460D02*X149430Y144730D01*
X147540Y145648D02*X149700D01*
X148890D02*X149700Y146458D01*
X148890Y145648D02*X148350Y146188D01*
X151310Y134270D02*X153200D01*
X151310D02*X151040Y134540D01*
Y134810D02*Y134540D01*
X152120D02*Y134000D01*
X152390Y135350D02*X152930D01*
X152390D02*X152120Y135620D01*
Y136160D02*Y135620D01*
Y136160D02*X152390Y136430D01*
X152930D01*
X153200Y136160D02*X152930Y136430D01*
X153200Y136160D02*Y135620D01*
X152930Y135350D02*X153200Y135620D01*
X152390Y137348D02*X153200D01*
X152390D02*X152120Y137618D01*
Y138158D02*Y137618D01*
Y137078D02*X152390Y137348D01*
X151040Y139778D02*X153200D01*
X151040D02*X152120Y140588D01*
X151040Y141398D01*
X153200D01*
G54D47*X151580Y142046D02*X151634D01*
G54D46*X152390D02*X153200D01*
X152390Y142856D02*X153200D01*
X152390D02*X152120Y143126D01*
Y143396D02*Y143126D01*
Y143396D02*X152390Y143666D01*
X153200D01*
X152120Y142586D02*X152390Y142856D01*
G54D47*X151580Y144314D02*X151634D01*
G54D46*X152390D02*X153200D01*
Y145124D02*Y144854D01*
G54D45*X123270Y101500D02*X126350D01*
X123270D02*X124810Y102655D01*
X123270Y103810D01*
X126350D01*
G54D48*X124040Y104734D02*X124117D01*
G54D45*X125195D02*X126350D01*
X125195Y105889D02*X126350D01*
X125195D02*X124810Y106274D01*
Y106659D02*Y106274D01*
Y106659D02*X125195Y107044D01*
X126350D01*
X124810Y105504D02*X125195Y105889D01*
G54D48*X124040Y107968D02*X124117D01*
G54D45*X125195D02*X126350D01*
Y110278D02*Y108738D01*
X123270Y112742D02*Y111202D01*
Y111972D02*X126350D01*
X124810Y114821D02*X125195Y115206D01*
X124810Y114821D02*Y114051D01*
X125195Y113666D02*X124810Y114051D01*
X125195Y113666D02*X125965D01*
X126350Y114051D01*
X124810Y115206D02*X125965D01*
X126350Y115591D01*
Y114821D02*Y114051D01*
Y114821D02*X125965Y115206D01*
X124810Y118055D02*Y116515D01*
X126350D02*X124810Y118055D01*
X126350D02*Y116515D01*
X123270Y120134D02*X123655Y120519D01*
X123270Y120134D02*Y119364D01*
X123655Y118979D02*X123270Y119364D01*
X123655Y118979D02*X125965D01*
X126350Y119364D01*
X124656Y120134D02*X125041Y120519D01*
X124656Y120134D02*Y118979D01*
X126350Y120134D02*Y119364D01*
Y120134D02*X125965Y120519D01*
X125041D02*X125965D01*
G54D49*X101500Y23970D02*Y21850D01*
Y23970D02*X102295Y22910D01*
X103090Y23970D01*
Y21850D01*
G54D50*X103726Y23440D02*Y23387D01*
G54D49*Y22645D02*Y21850D01*
X104521Y22645D02*Y21850D01*
Y22645D02*X104786Y22910D01*
X105051D01*
X105316Y22645D01*
Y21850D01*
X104256Y22910D02*X104521Y22645D01*
G54D50*X105952Y23440D02*Y23387D01*
G54D49*Y22645D02*Y21850D01*
X107436Y23705D02*Y22115D01*
Y23705D02*X107701Y23970D01*
X108231D01*
X108496Y23705D01*
Y22115D01*
X108231Y21850D02*X108496Y22115D01*
X107701Y21850D02*X108231D01*
X107436Y22115D02*X107701Y21850D01*
X109397Y22645D02*Y21850D01*
Y22645D02*X109662Y22910D01*
X109927D01*
X110192Y22645D01*
Y21850D01*
X109132Y22910D02*X109397Y22645D01*
X110828Y23970D02*Y22115D01*
X111093Y21850D01*
X111623Y22910D02*Y22115D01*
X111888Y21850D01*
X112683Y22910D02*Y21320D01*
X112418Y21055D02*X112683Y21320D01*
X111888Y21055D02*X112418D01*
X111623Y21320D02*X111888Y21055D01*
Y21850D02*X112418D01*
X112683Y22115D01*
G54D46*X111000Y26960D02*Y24800D01*
X112080D01*
G54D47*X112728Y26420D02*Y26366D01*
G54D46*Y25610D02*Y24800D01*
X113538Y25610D02*Y24800D01*
Y25610D02*X113808Y25880D01*
X114078D01*
X114348Y25610D01*
Y24800D01*
Y25610D02*X114618Y25880D01*
X114888D01*
X115158Y25610D01*
Y24800D01*
X113268Y25880D02*X113538Y25610D01*
G54D47*X115806Y26420D02*Y26366D01*
G54D46*Y25610D02*Y24800D01*
X116616Y26960D02*Y25070D01*
X116886Y24800D01*
X116346Y26150D02*X116886D01*
X95500Y26960D02*Y24800D01*
Y26960D02*X96850Y24800D01*
Y26960D02*Y24800D01*
X97498Y25610D02*Y25070D01*
Y25610D02*X97768Y25880D01*
X98308D01*
X98578Y25610D01*
Y25070D01*
X98308Y24800D02*X98578Y25070D01*
X97768Y24800D02*X98308D01*
X97498Y25070D02*X97768Y24800D01*
X99226Y25880D02*X100306D01*
X99226Y24800D02*X100306Y25880D01*
X99226Y24800D02*X100306D01*
X100954Y25880D02*X102034D01*
X100954Y24800D02*X102034Y25880D01*
X100954Y24800D02*X102034D01*
X102682Y26960D02*Y25070D01*
X102952Y24800D01*
X103762D02*X104572D01*
X103492Y25070D02*X103762Y24800D01*
X103492Y25610D02*Y25070D01*
Y25610D02*X103762Y25880D01*
X104302D01*
X104572Y25610D01*
X103492Y25340D02*X104572D01*
Y25610D02*Y25340D01*
G54D49*X70000Y23970D02*X71060D01*
X70530D02*Y21850D01*
X72491Y22910D02*X72756Y22645D01*
X71961Y22910D02*X72491D01*
X71696Y22645D02*X71961Y22910D01*
X71696Y22645D02*Y22115D01*
X71961Y21850D01*
X72756Y22910D02*Y22115D01*
X73021Y21850D01*
X71961D02*X72491D01*
X72756Y22115D01*
X73657Y22910D02*X74717D01*
X73657Y21850D02*X74717Y22910D01*
X73657Y21850D02*X74717D01*
X76148Y23970D02*X76413Y23705D01*
X75618Y23970D02*X76148D01*
X75353Y23705D02*X75618Y23970D01*
X75353Y23705D02*Y22115D01*
X75618Y21850D01*
X76148Y23016D02*X76413Y22751D01*
X75353Y23016D02*X76148D01*
X75618Y21850D02*X76148D01*
X76413Y22115D01*
Y22751D02*Y22115D01*
X78003Y23705D02*Y22115D01*
Y23705D02*X78268Y23970D01*
X78798D01*
X79063Y23705D01*
Y22115D01*
X78798Y21850D02*X79063Y22115D01*
X78268Y21850D02*X78798D01*
X78003Y22115D02*X78268Y21850D01*
X79964Y22645D02*Y21850D01*
Y22645D02*X80229Y22910D01*
X80494D01*
X80759Y22645D01*
Y21850D01*
X79699Y22910D02*X79964Y22645D01*
X81395Y23970D02*Y22115D01*
X81660Y21850D01*
X82190Y22910D02*Y22115D01*
X82455Y21850D01*
X83250Y22910D02*Y21320D01*
X82985Y21055D02*X83250Y21320D01*
X82455Y21055D02*X82985D01*
X82190Y21320D02*X82455Y21055D01*
Y21850D02*X82985D01*
X83250Y22115D01*
G54D46*X66000Y26960D02*Y24800D01*
X67080D01*
G54D47*X67728Y26420D02*Y26366D01*
G54D46*Y25610D02*Y24800D01*
X68538Y25610D02*Y24800D01*
Y25610D02*X68808Y25880D01*
X69078D01*
X69348Y25610D01*
Y24800D01*
Y25610D02*X69618Y25880D01*
X69888D01*
X70158Y25610D01*
Y24800D01*
X68268Y25880D02*X68538Y25610D01*
G54D47*X70806Y26420D02*Y26366D01*
G54D46*Y25610D02*Y24800D01*
X71616Y26960D02*Y25070D01*
X71886Y24800D01*
X71346Y26150D02*X71886D01*
X79500Y26960D02*Y24800D01*
Y26960D02*X80850Y24800D01*
Y26960D02*Y24800D01*
X81498Y25610D02*Y25070D01*
Y25610D02*X81768Y25880D01*
X82308D01*
X82578Y25610D01*
Y25070D01*
X82308Y24800D02*X82578Y25070D01*
X81768Y24800D02*X82308D01*
X81498Y25070D02*X81768Y24800D01*
X83226Y25880D02*X84306D01*
X83226Y24800D02*X84306Y25880D01*
X83226Y24800D02*X84306D01*
X84954Y25880D02*X86034D01*
X84954Y24800D02*X86034Y25880D01*
X84954Y24800D02*X86034D01*
X86682Y26960D02*Y25070D01*
X86952Y24800D01*
X87762D02*X88572D01*
X87492Y25070D02*X87762Y24800D01*
X87492Y25610D02*Y25070D01*
Y25610D02*X87762Y25880D01*
X88302D01*
X88572Y25610D01*
X87492Y25340D02*X88572D01*
Y25610D02*Y25340D01*
G54D45*X116270Y67500D02*X119350D01*
X116270D02*X117810Y68655D01*
X116270Y69810D01*
X119350D01*
G54D48*X117040Y70734D02*X117117D01*
G54D45*X118195D02*X119350D01*
X118195Y71889D02*X119350D01*
X118195D02*X117810Y72274D01*
Y72659D02*Y72274D01*
Y72659D02*X118195Y73044D01*
X119350D01*
X117810Y71504D02*X118195Y71889D01*
G54D48*X117040Y73968D02*X117117D01*
G54D45*X118195D02*X119350D01*
Y76278D02*Y74738D01*
X116270Y78742D02*Y77202D01*
Y77972D02*X119350D01*
X117810Y80821D02*X118195Y81206D01*
X117810Y80821D02*Y80051D01*
X118195Y79666D02*X117810Y80051D01*
X118195Y79666D02*X118965D01*
X119350Y80051D01*
X117810Y81206D02*X118965D01*
X119350Y81591D01*
Y80821D02*Y80051D01*
Y80821D02*X118965Y81206D01*
X117810Y84055D02*Y82515D01*
X119350D02*X117810Y84055D01*
X119350D02*Y82515D01*
X116270Y86134D02*X116655Y86519D01*
X116270Y86134D02*Y85364D01*
X116655Y84979D02*X116270Y85364D01*
X116655Y84979D02*X118965D01*
X119350Y85364D01*
X117656Y86134D02*X118041Y86519D01*
X117656Y86134D02*Y84979D01*
X119350Y86134D02*Y85364D01*
Y86134D02*X118965Y86519D01*
X118041D02*X118965D01*
X162300Y68020D02*Y66880D01*
Y68020D02*X161920Y68400D01*
X161540Y68020D02*X161920Y68400D01*
X161540Y68020D02*Y66880D01*
X161160Y66500D02*X161540Y66880D01*
X161160Y66500D02*X160780Y66880D01*
Y68020D02*Y66880D01*
Y68020D02*X161160Y68400D01*
X161920Y66500D02*X162300Y66880D01*
X159260Y69692D02*X161920D01*
X162300Y70072D01*
X160400D02*Y69312D01*
X162300Y72352D02*Y71212D01*
X161920Y70832D02*X162300Y71212D01*
X161160Y70832D02*X161920D01*
X161160D02*X160780Y71212D01*
Y71972D02*Y71212D01*
Y71972D02*X161160Y72352D01*
X161540D02*Y70832D01*
X161160Y72352D02*X161540D01*
X161160Y73644D02*X163440D01*
X160780Y73264D02*X161160Y73644D01*
X160780Y74024D01*
Y74784D02*Y74024D01*
Y74784D02*X161160Y75164D01*
X161920D01*
X162300Y74784D02*X161920Y75164D01*
X162300Y74784D02*Y74024D01*
X161920Y73644D02*X162300Y74024D01*
X196270Y67500D02*X199350D01*
Y69040D02*Y67500D01*
Y71504D02*Y70349D01*
X198965Y69964D02*X199350Y70349D01*
X198195Y69964D02*X198965D01*
X198195D02*X197810Y70349D01*
Y71119D02*Y70349D01*
Y71119D02*X198195Y71504D01*
X198580D02*Y69964D01*
X198195Y71504D02*X198580D01*
X197810Y73583D02*X198195Y73968D01*
X197810Y73583D02*Y72813D01*
X198195Y72428D02*X197810Y72813D01*
X198195Y72428D02*X198965D01*
X199350Y72813D01*
Y73583D02*Y72813D01*
Y73583D02*X198965Y73968D01*
X200120Y72428D02*X200505Y72813D01*
Y73583D02*Y72813D01*
Y73583D02*X200120Y73968D01*
X197810D02*X200120D01*
X197810Y76047D02*X198195Y76432D01*
X197810Y76047D02*Y75277D01*
X198195Y74892D02*X197810Y75277D01*
X198195Y74892D02*X198965D01*
X199350Y75277D01*
X197810Y76432D02*X198965D01*
X199350Y76817D01*
Y76047D02*Y75277D01*
Y76047D02*X198965Y76432D01*
X197810Y79281D02*Y78126D01*
X198195Y77741D02*X197810Y78126D01*
X198195Y77741D02*X198965D01*
X199350Y78126D01*
Y79281D02*Y78126D01*
X197810Y80205D02*X198965D01*
X199350Y80590D01*
X197810Y81745D02*X200120D01*
X200505Y81360D02*X200120Y81745D01*
X200505Y81360D02*Y80590D01*
X200120Y80205D02*X200505Y80590D01*
X199350Y81360D02*Y80590D01*
Y81360D02*X198965Y81745D01*
X197810Y84209D02*Y82669D01*
X196270Y85133D02*X199350D01*
Y86673D02*Y85133D01*
X197810Y87597D02*X198965D01*
X199350Y87982D01*
Y88752D02*Y87982D01*
Y88752D02*X198965Y89137D01*
X197810D02*X198965D01*
X196270Y90061D02*X198965D01*
X199350Y90446D01*
X197810Y92756D02*Y91216D01*
X199350D02*X197810Y92756D01*
X199350D02*Y91216D01*
Y95220D02*Y93680D01*
Y95220D02*X198965Y95605D01*
X198041D02*X198965D01*
X197656Y95220D02*X198041Y95605D01*
X197656Y95220D02*Y94065D01*
X196270D02*X199350D01*
X196270Y95220D02*Y93680D01*
Y95220D02*X196655Y95605D01*
X197271D01*
X197656Y95220D02*X197271Y95605D01*
X198195Y96529D02*X198965D01*
X198195D02*X197810Y96914D01*
Y97684D02*Y96914D01*
Y97684D02*X198195Y98069D01*
X198965D01*
X199350Y97684D02*X198965Y98069D01*
X199350Y97684D02*Y96914D01*
X198965Y96529D02*X199350Y96914D01*
X196270Y99378D02*X198965D01*
X199350Y99763D01*
X197425D02*Y98993D01*
X86270Y195000D02*X89350D01*
Y196540D02*Y195000D01*
Y199004D02*Y197849D01*
X88965Y197464D02*X89350Y197849D01*
X88195Y197464D02*X88965D01*
X88195D02*X87810Y197849D01*
Y198619D02*Y197849D01*
Y198619D02*X88195Y199004D01*
X88580D02*Y197464D01*
X88195Y199004D02*X88580D01*
X87810Y201083D02*X88195Y201468D01*
X87810Y201083D02*Y200313D01*
X88195Y199928D02*X87810Y200313D01*
X88195Y199928D02*X88965D01*
X89350Y200313D01*
Y201083D02*Y200313D01*
Y201083D02*X88965Y201468D01*
X90120Y199928D02*X90505Y200313D01*
Y201083D02*Y200313D01*
Y201083D02*X90120Y201468D01*
X87810D02*X90120D01*
X87810Y203547D02*X88195Y203932D01*
X87810Y203547D02*Y202777D01*
X88195Y202392D02*X87810Y202777D01*
X88195Y202392D02*X88965D01*
X89350Y202777D01*
X87810Y203932D02*X88965D01*
X89350Y204317D01*
Y203547D02*Y202777D01*
Y203547D02*X88965Y203932D01*
X87810Y206781D02*Y205626D01*
X88195Y205241D02*X87810Y205626D01*
X88195Y205241D02*X88965D01*
X89350Y205626D01*
Y206781D02*Y205626D01*
X87810Y207705D02*X88965D01*
X89350Y208090D01*
X87810Y209245D02*X90120D01*
X90505Y208860D02*X90120Y209245D01*
X90505Y208860D02*Y208090D01*
X90120Y207705D02*X90505Y208090D01*
X89350Y208860D02*Y208090D01*
Y208860D02*X88965Y209245D01*
X87810Y211709D02*Y210169D01*
X86270Y212633D02*X89350D01*
Y214173D02*Y212633D01*
X87810Y215097D02*X88965D01*
X89350Y215482D01*
Y216252D02*Y215482D01*
Y216252D02*X88965Y216637D01*
X87810D02*X88965D01*
X86270Y217561D02*X88965D01*
X89350Y217946D01*
X87810Y220256D02*Y218716D01*
X89350D02*X87810Y220256D01*
X89350D02*Y218716D01*
Y222720D02*Y221180D01*
Y222720D02*X88965Y223105D01*
X88041D02*X88965D01*
X87656Y222720D02*X88041Y223105D01*
X87656Y222720D02*Y221565D01*
X86270D02*X89350D01*
X86270Y222720D02*Y221180D01*
Y222720D02*X86655Y223105D01*
X87271D01*
X87656Y222720D02*X87271Y223105D01*
X88195Y224029D02*X88965D01*
X88195D02*X87810Y224414D01*
Y225184D02*Y224414D01*
Y225184D02*X88195Y225569D01*
X88965D01*
X89350Y225184D02*X88965Y225569D01*
X89350Y225184D02*Y224414D01*
X88965Y224029D02*X89350Y224414D01*
X86270Y226878D02*X88965D01*
X89350Y227263D01*
X87425D02*Y226493D01*
X66270Y207500D02*X69350D01*
X66270D02*X67810Y208655D01*
X66270Y209810D01*
X69350D01*
G54D48*X67040Y210734D02*X67117D01*
G54D45*X68195D02*X69350D01*
X68195Y211889D02*X69350D01*
X68195D02*X67810Y212274D01*
Y212659D02*Y212274D01*
Y212659D02*X68195Y213044D01*
X69350D01*
X67810Y211504D02*X68195Y211889D01*
G54D48*X67040Y213968D02*X67117D01*
G54D45*X68195D02*X69350D01*
Y216278D02*Y214738D01*
X66270Y218742D02*Y217202D01*
Y217972D02*X69350D01*
X67810Y220821D02*X68195Y221206D01*
X67810Y220821D02*Y220051D01*
X68195Y219666D02*X67810Y220051D01*
X68195Y219666D02*X68965D01*
X69350Y220051D01*
X67810Y221206D02*X68965D01*
X69350Y221591D01*
Y220821D02*Y220051D01*
Y220821D02*X68965Y221206D01*
X67810Y224055D02*Y222515D01*
X69350D02*X67810Y224055D01*
X69350D02*Y222515D01*
X66270Y226134D02*X66655Y226519D01*
X66270Y226134D02*Y225364D01*
X66655Y224979D02*X66270Y225364D01*
X66655Y224979D02*X68965D01*
X69350Y225364D01*
X67656Y226134D02*X68041Y226519D01*
X67656Y226134D02*Y224979D01*
X69350Y226134D02*Y225364D01*
Y226134D02*X68965Y226519D01*
X68041D02*X68965D01*
X22380Y234240D02*Y231200D01*
X22000Y234240D02*X23520D01*
X23900Y233860D01*
Y233100D01*
X23520Y232720D02*X23900Y233100D01*
X22380Y232720D02*X23520D01*
G54D48*X24812Y233480D02*Y233404D01*
G54D45*Y232340D02*Y231200D01*
X25952Y232340D02*Y231200D01*
Y232340D02*X26332Y232720D01*
X26712D01*
X27092Y232340D01*
Y231200D01*
X25572Y232720D02*X25952Y232340D01*
X28384Y231200D02*X29524D01*
X29904Y231580D01*
X29524Y231960D02*X29904Y231580D01*
X28384Y231960D02*X29524D01*
X28004Y232340D02*X28384Y231960D01*
X28004Y232340D02*X28384Y232720D01*
X29524D01*
X29904Y232340D01*
X28004Y231580D02*X28384Y231200D01*
X32564D02*X33704D01*
X32184Y231580D02*X32564Y231200D01*
X32184Y232340D02*Y231580D01*
Y232340D02*X32564Y232720D01*
X33324D01*
X33704Y232340D01*
X32184Y231960D02*X33704D01*
Y232340D02*Y231960D01*
X34996Y232340D02*Y231200D01*
Y232340D02*X35376Y232720D01*
X35756D01*
X36136Y232340D01*
Y231200D01*
Y232340D02*X36516Y232720D01*
X36896D01*
X37276Y232340D01*
Y231200D01*
X34616Y232720D02*X34996Y232340D01*
X38568Y231200D02*X39708D01*
X38188Y231580D02*X38568Y231200D01*
X38188Y232340D02*Y231580D01*
Y232340D02*X38568Y232720D01*
X39328D01*
X39708Y232340D01*
X38188Y231960D02*X39708D01*
Y232340D02*Y231960D01*
X41000Y232340D02*Y231200D01*
Y232340D02*X41380Y232720D01*
X42140D01*
X40620D02*X41000Y232340D01*
X44192Y232720D02*X44572Y232340D01*
X43432Y232720D02*X44192D01*
X43052Y232340D02*X43432Y232720D01*
X43052Y232340D02*Y231580D01*
X43432Y231200D01*
X44192D01*
X44572Y231580D01*
X43052Y230440D02*X43432Y230060D01*
X44192D01*
X44572Y230440D01*
Y232720D02*Y230440D01*
X45864Y231200D02*X47004D01*
X45484Y231580D02*X45864Y231200D01*
X45484Y232340D02*Y231580D01*
Y232340D02*X45864Y232720D01*
X46624D01*
X47004Y232340D01*
X45484Y231960D02*X47004D01*
Y232340D02*Y231960D01*
X49664Y233860D02*Y231200D01*
Y233860D02*X50044Y234240D01*
X50424D01*
X49284Y232720D02*X50044D01*
X51564Y232340D02*Y231200D01*
Y232340D02*X51944Y232720D01*
X52704D01*
X51184D02*X51564Y232340D01*
X53616D02*Y231580D01*
Y232340D02*X53996Y232720D01*
X54756D01*
X55136Y232340D01*
Y231580D01*
X54756Y231200D02*X55136Y231580D01*
X53996Y231200D02*X54756D01*
X53616Y231580D02*X53996Y231200D01*
X56428Y232340D02*Y231200D01*
Y232340D02*X56808Y232720D01*
X57188D01*
X57568Y232340D01*
Y231200D01*
Y232340D02*X57948Y232720D01*
X58328D01*
X58708Y232340D01*
Y231200D01*
X56048Y232720D02*X56428Y232340D01*
X26380Y228240D02*Y225580D01*
X26760Y225200D01*
X26000Y227100D02*X26760D01*
X27520Y226340D02*Y225580D01*
Y226340D02*X27900Y226720D01*
X28660D01*
X29040Y226340D01*
Y225580D01*
X28660Y225200D02*X29040Y225580D01*
X27900Y225200D02*X28660D01*
X27520Y225580D02*X27900Y225200D01*
X30332Y226340D02*Y224060D01*
X29952Y226720D02*X30332Y226340D01*
X30712Y226720D01*
X31472D01*
X31852Y226340D01*
Y225580D01*
X31472Y225200D02*X31852Y225580D01*
X30712Y225200D02*X31472D01*
X30332Y225580D02*X30712Y225200D01*
X34132Y225580D02*X34512Y225200D01*
X34132Y227860D02*X34512Y228240D01*
X34132Y227860D02*Y225580D01*
X35804Y228240D02*Y225580D01*
X36184Y225200D01*
X35424Y227100D02*X36184D01*
X36944Y228240D02*Y225200D01*
Y226340D02*X37324Y226720D01*
X38084D01*
X38464Y226340D01*
Y225200D01*
G54D48*X39376Y227480D02*Y227404D01*
G54D45*Y226340D02*Y225200D01*
X40516D02*X41656D01*
X42036Y225580D01*
X41656Y225960D02*X42036Y225580D01*
X40516Y225960D02*X41656D01*
X40136Y226340D02*X40516Y225960D01*
X40136Y226340D02*X40516Y226720D01*
X41656D01*
X42036Y226340D01*
X40136Y225580D02*X40516Y225200D01*
X44696D02*X45836D01*
X46216Y225580D01*
X45836Y225960D02*X46216Y225580D01*
X44696Y225960D02*X45836D01*
X44316Y226340D02*X44696Y225960D01*
X44316Y226340D02*X44696Y226720D01*
X45836D01*
X46216Y226340D01*
X44316Y225580D02*X44696Y225200D01*
G54D48*X47128Y227480D02*Y227404D01*
G54D45*Y226340D02*Y225200D01*
X49408Y228240D02*Y225200D01*
X49028D02*X49408Y225580D01*
X48268Y225200D02*X49028D01*
X47888Y225580D02*X48268Y225200D01*
X47888Y226340D02*Y225580D01*
Y226340D02*X48268Y226720D01*
X49028D01*
X49408Y226340D01*
X50700Y225200D02*X51840D01*
X50320Y225580D02*X50700Y225200D01*
X50320Y226340D02*Y225580D01*
Y226340D02*X50700Y226720D01*
X51460D01*
X51840Y226340D01*
X50320Y225960D02*X51840D01*
Y226340D02*Y225960D01*
X52752Y228240D02*X53132Y227860D01*
Y225580D01*
X52752Y225200D02*X53132Y225580D01*
X55412Y225200D02*X55792D01*
X22385Y215305D02*Y212995D01*
X22000Y215690D02*X22385Y215305D01*
X22770Y215690D01*
X23540D01*
X23925Y215305D01*
Y214535D01*
X23540Y214150D02*X23925Y214535D01*
X22770Y214150D02*X23540D01*
X22385Y214535D02*X22770Y214150D01*
G54D48*X24849Y216460D02*Y216383D01*
G54D45*Y215305D02*Y214150D01*
X26004Y215305D02*Y214150D01*
Y215305D02*X26389Y215690D01*
X26774D01*
X27159Y215305D01*
Y214150D01*
X25619Y215690D02*X26004Y215305D01*
X28468Y214150D02*X29623D01*
X30008Y214535D01*
X29623Y214920D02*X30008Y214535D01*
X28468Y214920D02*X29623D01*
X28083Y215305D02*X28468Y214920D01*
X28083Y215305D02*X28468Y215690D01*
X29623D01*
X30008Y215305D01*
X28083Y214535D02*X28468Y214150D01*
X32318Y217230D02*Y214535D01*
X32703Y214150D01*
X33473Y215305D02*Y214535D01*
Y215305D02*X33858Y215690D01*
X34628D01*
X35013Y215305D01*
Y214535D01*
X34628Y214150D02*X35013Y214535D01*
X33858Y214150D02*X34628D01*
X33473Y214535D02*X33858Y214150D01*
X36322Y215305D02*Y214150D01*
Y215305D02*X36707Y215690D01*
X37092D01*
X37477Y215305D01*
Y214150D01*
X35937Y215690D02*X36322Y215305D01*
X39556Y215690D02*X39941Y215305D01*
X38786Y215690D02*X39556D01*
X38401Y215305D02*X38786Y215690D01*
X38401Y215305D02*Y214535D01*
X38786Y214150D01*
X39556D01*
X39941Y214535D01*
X38401Y213380D02*X38786Y212995D01*
X39556D01*
X39941Y213380D01*
Y215690D02*Y213380D01*
X41250Y214150D02*X42405D01*
X40865Y214535D02*X41250Y214150D01*
X40865Y215305D02*Y214535D01*
Y215305D02*X41250Y215690D01*
X42020D01*
X42405Y215305D01*
X40865Y214920D02*X42405D01*
Y215305D02*Y214920D01*
X43714Y215305D02*Y214150D01*
Y215305D02*X44099Y215690D01*
X44869D01*
X43329D02*X43714Y215305D01*
X45793Y214150D02*X46178D01*
X22500Y221730D02*Y218650D01*
Y221730D02*X24040D01*
X22500Y220344D02*X23655D01*
X26119Y220190D02*X26504Y219805D01*
X25349Y220190D02*X26119D01*
X24964Y219805D02*X25349Y220190D01*
X24964Y219805D02*Y219035D01*
X25349Y218650D01*
X26504Y220190D02*Y219035D01*
X26889Y218650D01*
X25349D02*X26119D01*
X26504Y219035D01*
X28198Y219805D02*Y218650D01*
Y219805D02*X28583Y220190D01*
X29353D01*
X27813D02*X28198Y219805D01*
X32048Y218650D02*X33203D01*
X33588Y219035D01*
X33203Y219420D02*X33588Y219035D01*
X32048Y219420D02*X33203D01*
X31663Y219805D02*X32048Y219420D01*
X31663Y219805D02*X32048Y220190D01*
X33203D01*
X33588Y219805D01*
X31663Y219035D02*X32048Y218650D01*
G54D48*X34512Y220960D02*Y220883D01*
G54D45*Y219805D02*Y218650D01*
X36822Y221730D02*Y218650D01*
X36437D02*X36822Y219035D01*
X35667Y218650D02*X36437D01*
X35282Y219035D02*X35667Y218650D01*
X35282Y219805D02*Y219035D01*
Y219805D02*X35667Y220190D01*
X36437D01*
X36822Y219805D01*
X38131Y218650D02*X39286D01*
X37746Y219035D02*X38131Y218650D01*
X37746Y219805D02*Y219035D01*
Y219805D02*X38131Y220190D01*
X38901D01*
X39286Y219805D01*
X37746Y219420D02*X39286D01*
Y219805D02*Y219420D01*
X41981Y219805D02*Y217495D01*
X41596Y220190D02*X41981Y219805D01*
X42366Y220190D01*
X43136D01*
X43521Y219805D01*
Y219035D01*
X43136Y218650D02*X43521Y219035D01*
X42366Y218650D02*X43136D01*
X41981Y219035D02*X42366Y218650D01*
G54D48*X44445Y220960D02*Y220883D01*
G54D45*Y219805D02*Y218650D01*
X45600Y219805D02*Y218650D01*
Y219805D02*X45985Y220190D01*
X46370D01*
X46755Y219805D01*
Y218650D01*
X45215Y220190D02*X45600Y219805D01*
X47679Y221114D02*X48295Y221730D01*
Y218650D01*
X47679D02*X48834D01*
X51529D02*X52684D01*
X53069Y219035D01*
X52684Y219420D02*X53069Y219035D01*
X51529Y219420D02*X52684D01*
X51144Y219805D02*X51529Y219420D01*
X51144Y219805D02*X51529Y220190D01*
X52684D01*
X53069Y219805D01*
X51144Y219035D02*X51529Y218650D01*
G54D48*X53993Y220960D02*Y220883D01*
G54D45*Y219805D02*Y218650D01*
X56303Y221730D02*Y218650D01*
X55918D02*X56303Y219035D01*
X55148Y218650D02*X55918D01*
X54763Y219035D02*X55148Y218650D01*
X54763Y219805D02*Y219035D01*
Y219805D02*X55148Y220190D01*
X55918D01*
X56303Y219805D01*
X57612Y218650D02*X58767D01*
X57227Y219035D02*X57612Y218650D01*
X57227Y219805D02*Y219035D01*
Y219805D02*X57612Y220190D01*
X58382D01*
X58767Y219805D01*
X57227Y219420D02*X58767D01*
Y219805D02*Y219420D01*
X162300Y220020D02*Y218880D01*
Y220020D02*X161920Y220400D01*
X161540Y220020D02*X161920Y220400D01*
X161540Y220020D02*Y218880D01*
X161160Y218500D02*X161540Y218880D01*
X161160Y218500D02*X160780Y218880D01*
Y220020D02*Y218880D01*
Y220020D02*X161160Y220400D01*
X161920Y218500D02*X162300Y218880D01*
X159260Y221692D02*X161920D01*
X162300Y222072D01*
X160400D02*Y221312D01*
X162300Y224352D02*Y223212D01*
X161920Y222832D02*X162300Y223212D01*
X161160Y222832D02*X161920D01*
X161160D02*X160780Y223212D01*
Y223972D02*Y223212D01*
Y223972D02*X161160Y224352D01*
X161540D02*Y222832D01*
X161160Y224352D02*X161540D01*
X161160Y225644D02*X163440D01*
X160780Y225264D02*X161160Y225644D01*
X160780Y226024D01*
Y226784D02*Y226024D01*
Y226784D02*X161160Y227164D01*
X161920D01*
X162300Y226784D02*X161920Y227164D01*
X162300Y226784D02*Y226024D01*
X161920Y225644D02*X162300Y226024D01*
X138270Y195000D02*X141350D01*
Y196540D02*Y195000D01*
Y199004D02*Y197849D01*
X140965Y197464D02*X141350Y197849D01*
X140195Y197464D02*X140965D01*
X140195D02*X139810Y197849D01*
Y198619D02*Y197849D01*
Y198619D02*X140195Y199004D01*
X140580D02*Y197464D01*
X140195Y199004D02*X140580D01*
X139810Y201083D02*X140195Y201468D01*
X139810Y201083D02*Y200313D01*
X140195Y199928D02*X139810Y200313D01*
X140195Y199928D02*X140965D01*
X141350Y200313D01*
Y201083D02*Y200313D01*
Y201083D02*X140965Y201468D01*
X142120Y199928D02*X142505Y200313D01*
Y201083D02*Y200313D01*
Y201083D02*X142120Y201468D01*
X139810D02*X142120D01*
X139810Y203547D02*X140195Y203932D01*
X139810Y203547D02*Y202777D01*
X140195Y202392D02*X139810Y202777D01*
X140195Y202392D02*X140965D01*
X141350Y202777D01*
X139810Y203932D02*X140965D01*
X141350Y204317D01*
Y203547D02*Y202777D01*
Y203547D02*X140965Y203932D01*
X139810Y206781D02*Y205626D01*
X140195Y205241D02*X139810Y205626D01*
X140195Y205241D02*X140965D01*
X141350Y205626D01*
Y206781D02*Y205626D01*
X139810Y207705D02*X140965D01*
X141350Y208090D01*
X139810Y209245D02*X142120D01*
X142505Y208860D02*X142120Y209245D01*
X142505Y208860D02*Y208090D01*
X142120Y207705D02*X142505Y208090D01*
X141350Y208860D02*Y208090D01*
Y208860D02*X140965Y209245D01*
X139810Y211709D02*Y210169D01*
X138270Y212633D02*X141350D01*
Y214173D02*Y212633D01*
X139810Y215097D02*X140965D01*
X141350Y215482D01*
Y216252D02*Y215482D01*
Y216252D02*X140965Y216637D01*
X139810D02*X140965D01*
X138270Y217561D02*X140965D01*
X141350Y217946D01*
X139810Y220256D02*Y218716D01*
X141350D02*X139810Y220256D01*
X141350D02*Y218716D01*
Y222720D02*Y221180D01*
Y222720D02*X140965Y223105D01*
X140041D02*X140965D01*
X139656Y222720D02*X140041Y223105D01*
X139656Y222720D02*Y221565D01*
X138270D02*X141350D01*
X138270Y222720D02*Y221180D01*
Y222720D02*X138655Y223105D01*
X139271D01*
X139656Y222720D02*X139271Y223105D01*
X140195Y224029D02*X140965D01*
X140195D02*X139810Y224414D01*
Y225184D02*Y224414D01*
Y225184D02*X140195Y225569D01*
X140965D01*
X141350Y225184D02*X140965Y225569D01*
X141350Y225184D02*Y224414D01*
X140965Y224029D02*X141350Y224414D01*
X138270Y226878D02*X140965D01*
X141350Y227263D01*
X139425D02*Y226493D01*
X109270Y207500D02*X112350D01*
X109270D02*X110810Y208655D01*
X109270Y209810D01*
X112350D01*
G54D48*X110040Y210734D02*X110117D01*
G54D45*X111195D02*X112350D01*
X111195Y211889D02*X112350D01*
X111195D02*X110810Y212274D01*
Y212659D02*Y212274D01*
Y212659D02*X111195Y213044D01*
X112350D01*
X110810Y211504D02*X111195Y211889D01*
G54D48*X110040Y213968D02*X110117D01*
G54D45*X111195D02*X112350D01*
Y216278D02*Y214738D01*
X109270Y218742D02*Y217202D01*
Y217972D02*X112350D01*
X110810Y220821D02*X111195Y221206D01*
X110810Y220821D02*Y220051D01*
X111195Y219666D02*X110810Y220051D01*
X111195Y219666D02*X111965D01*
X112350Y220051D01*
X110810Y221206D02*X111965D01*
X112350Y221591D01*
Y220821D02*Y220051D01*
Y220821D02*X111965Y221206D01*
X110810Y224055D02*Y222515D01*
X112350D02*X110810Y224055D01*
X112350D02*Y222515D01*
X109270Y226134D02*X109655Y226519D01*
X109270Y226134D02*Y225364D01*
X109655Y224979D02*X109270Y225364D01*
X109655Y224979D02*X111965D01*
X112350Y225364D01*
X110656Y226134D02*X111041Y226519D01*
X110656Y226134D02*Y224979D01*
X112350Y226134D02*Y225364D01*
Y226134D02*X111965Y226519D01*
X111041D02*X111965D01*
X123270Y158500D02*X126350D01*
X123270D02*X124810Y159655D01*
X123270Y160810D01*
X126350D01*
G54D48*X124040Y161734D02*X124117D01*
G54D45*X125195D02*X126350D01*
X125195Y162889D02*X126350D01*
X125195D02*X124810Y163274D01*
Y163659D02*Y163274D01*
Y163659D02*X125195Y164044D01*
X126350D01*
X124810Y162504D02*X125195Y162889D01*
G54D48*X124040Y164968D02*X124117D01*
G54D45*X125195D02*X126350D01*
Y167278D02*Y165738D01*
X123270Y169742D02*Y168202D01*
Y168972D02*X126350D01*
X124810Y171821D02*X125195Y172206D01*
X124810Y171821D02*Y171051D01*
X125195Y170666D02*X124810Y171051D01*
X125195Y170666D02*X125965D01*
X126350Y171051D01*
X124810Y172206D02*X125965D01*
X126350Y172591D01*
Y171821D02*Y171051D01*
Y171821D02*X125965Y172206D01*
X124810Y175055D02*Y173515D01*
X126350D02*X124810Y175055D01*
X126350D02*Y173515D01*
X123270Y177134D02*X123655Y177519D01*
X123270Y177134D02*Y176364D01*
X123655Y175979D02*X123270Y176364D01*
X123655Y175979D02*X125965D01*
X126350Y176364D01*
X124656Y177134D02*X125041Y177519D01*
X124656Y177134D02*Y175979D01*
X126350Y177134D02*Y176364D01*
Y177134D02*X125965Y177519D01*
X125041D02*X125965D01*
G54D43*X65000Y255000D02*X165000D01*
X65000D02*Y235000D01*
X165000D01*
Y255000D02*Y235000D01*
X155000Y255000D02*Y245000D01*
X165000D01*
G54D44*X128000Y51000D02*Y20500D01*
X140500Y21500D02*X143500Y24500D01*
X131000Y20500D02*X139500D01*
X143500Y28500D02*Y24500D01*
X144500Y44000D02*Y41000D01*
X141500Y44000D02*Y41000D01*
X130000D02*Y15500D01*
X125000Y58500D02*Y10500D01*
X130000Y15500D02*X140500D01*
Y16000D02*X146000D01*
X140500D02*Y14500D01*
X144500D02*X146000D01*
X142500D02*X143500Y13500D01*
X140500Y14500D02*X142500D01*
X128000Y20500D02*X128500D01*
X143500D02*X144500Y21500D01*
X143500Y22500D02*X144500Y21500D01*
X142500D02*X143500Y22500D01*
X142500Y21500D02*X143500Y20500D01*
X140500Y21500D02*X143500Y18500D01*
X130000Y41000D02*X145000D01*
X134500Y54000D02*Y51000D01*
X137500Y54000D02*Y51000D01*
X128000D01*
X131500Y54000D02*Y51000D01*
X166500Y54500D02*Y53000D01*
X169500Y54500D02*Y53000D01*
X166500D02*X168000D01*
X169500Y54500D02*Y54000D01*
X166500Y54500D02*Y54000D01*
X167500Y53000D02*X175500D01*
X154000Y43000D02*X173500D01*
X162000Y45500D02*Y43000D01*
X154000Y45500D02*Y43000D01*
X159500Y43500D02*Y43000D01*
X156500Y43500D02*Y43000D01*
X177500Y46500D02*Y16500D01*
X175500Y53000D02*Y20500D01*
X173500Y43000D02*Y29000D01*
X180500Y48000D02*Y47500D01*
X179500Y46500D02*X180500Y47500D01*
X179500Y43000D02*Y40500D01*
Y41000D02*Y13500D01*
Y43000D02*X184500D01*
X185500Y44500D02*Y44000D01*
X184500Y43000D02*X185500Y44000D01*
X182499D02*X183500Y43000D01*
X182499Y44500D02*Y44000D01*
X177500Y46500D02*X179500D01*
X177500Y47500D02*X178500Y46500D01*
X177500Y48000D02*Y47500D01*
X200000Y44000D02*Y41000D01*
X185500D02*X200000D01*
X197000Y44000D02*Y41000D01*
X185500D02*Y22000D01*
X197000D01*
Y26000D02*Y16500D01*
X199500Y26000D02*Y14000D01*
X197000Y26000D02*X199500D01*
X181999Y14500D02*X197000Y16500D01*
X181999Y14500D02*Y13500D01*
X199500Y14000D01*
X160000Y29000D02*X173500D01*
X152000Y13500D02*X179500D01*
X151500Y16500D02*X177500D01*
X159500Y20500D02*X175500D01*
X154000Y20000D02*X159000D01*
X151500Y18000D02*Y15000D01*
X151000Y14500D02*X152000Y13500D01*
X148500Y18000D02*X151500D01*
X148500D02*Y15000D01*
X150000Y13500D02*X151500Y15000D01*
X148500D02*X150000Y13500D01*
Y35000D02*Y31000D01*
Y27500D02*Y27000D01*
Y29000D02*Y28500D01*
X148500Y25500D02*X151500D01*
X152500Y29000D02*X152999Y28500D01*
X154500D01*
X152500Y31000D02*X152999Y31500D01*
X154500D01*
X151500Y31000D02*Y29000D01*
X150500Y30000D02*X152500D01*
X148500Y24000D02*X151500D01*
X148500Y22500D02*X151500D01*
X148500Y21000D02*X151500D01*
X150000Y26000D02*Y18000D01*
X154000Y33000D02*Y27000D01*
X160000D01*
X152999Y26000D02*X159000D01*
X160500Y24500D01*
X152999Y23000D02*X154000D01*
Y20000D01*
Y33000D02*X160000D01*
Y27000D01*
X155500Y30000D02*X157000Y28500D01*
X158500Y30000D01*
X157000Y31500D02*X158500Y30000D01*
X155500D02*X157000Y31500D01*
X159000Y20000D02*X160500Y21500D01*
Y24500D02*Y21500D01*
X157000Y24500D02*X158500Y23000D01*
X155500D02*X157000Y24500D01*
X155500Y23000D02*X157000Y21500D01*
X158500Y23000D01*
X143500Y20500D02*Y16000D01*
X146000D02*Y14500D01*
X125000Y58500D02*X203000D01*
Y10500D01*
X125000D02*X203000D01*
X143500Y18500D02*X146500Y21500D01*
X143500Y24500D02*X146500Y21500D01*
X147500Y44000D02*Y41000D01*
X141000D02*X147500D01*
G54D51*X154700Y37580D02*Y36500D01*
X154430Y37849D02*X154700Y37580D01*
X153782Y37849D02*X154430D01*
X153512Y37580D02*X153782Y37849D01*
X153512Y37580D02*Y36770D01*
X152540D02*X154700D01*
X152540Y37580D02*Y36500D01*
Y37580D02*X152810Y37849D01*
X153242D01*
X153512Y37580D01*
X152540Y38498D02*X154430D01*
X154700Y38768D01*
X153620Y39308D02*X154430D01*
X154700Y39578D01*
Y40118D02*Y39578D01*
X154430Y40388D02*X154700Y40118D01*
X153620Y40388D02*X154430D01*
X154700Y42116D02*Y41306D01*
X154430Y41035D02*X154700Y41306D01*
X153890Y41035D02*X154430D01*
X153620Y41306D02*X153890Y41035D01*
X153620Y41845D02*Y41306D01*
Y41845D02*X153890Y42116D01*
X154159D02*Y41035D01*
X153890Y42116D02*X154159D01*
X146540Y37000D02*X148700D01*
X146540D02*X148700Y38350D01*
X146540D02*X148700D01*
Y40078D02*Y39375D01*
X148322Y38998D02*X148700Y39375D01*
X146918Y38998D02*X148322D01*
X146540Y39375D02*X146918Y38998D01*
X146540Y40078D02*Y39375D01*
G54D52*X142150Y39560D02*Y38870D01*
X141779Y38500D02*X142150Y38870D01*
X140401Y38500D02*X141779D01*
X140030Y38870D02*X140401Y38500D01*
X140030Y39560D02*Y38870D01*
X143530Y37000D02*X145650D01*
X143530D02*X145650Y38325D01*
X143530D02*X145650D01*
X143795Y38961D02*X145385D01*
X143530Y39225D02*X143795Y38961D01*
X143530Y39756D02*Y39225D01*
Y39756D02*X143795Y40021D01*
X145385D01*
X145650Y39756D01*
Y39225D01*
X145385Y38961D02*X145650Y39225D01*
G54D51*X132080Y23460D02*X132350Y23190D01*
X131270Y23460D02*X132080D01*
X131000Y23190D02*X131270Y23460D01*
X131000Y23190D02*Y22650D01*
X131270Y22380D01*
X132080D01*
X132350Y22110D01*
Y21570D01*
X132080Y21300D02*X132350Y21570D01*
X131270Y21300D02*X132080D01*
X131000Y21570D02*X131270Y21300D01*
X133268D02*X134078D01*
X132998Y21570D02*X133268Y21300D01*
X132998Y22110D02*Y21570D01*
Y22110D02*X133268Y22380D01*
X133808D01*
X134078Y22110D01*
X132998Y21839D02*X134078D01*
Y22110D02*Y21839D01*
X134996Y22110D02*Y21300D01*
Y22110D02*X135266Y22380D01*
X135806D01*
X134726D02*X134996Y22110D01*
X136454Y22380D02*X136994Y21300D01*
X137534Y22380D01*
X138182Y22110D02*Y21570D01*
Y22110D02*X138452Y22380D01*
X138992D01*
X139262Y22110D01*
Y21570D01*
X138992Y21300D02*X139262Y21570D01*
X138452Y21300D02*X138992D01*
X138182Y21570D02*X138452Y21300D01*
X161500Y22960D02*Y20800D01*
X162850Y22960D02*Y20800D01*
X161500Y21880D02*X162850D01*
X163768Y20800D02*X164578D01*
X163498Y21070D02*X163768Y20800D01*
X163498Y21609D02*Y21070D01*
Y21609D02*X163768Y21880D01*
X164308D01*
X164578Y21609D01*
X163498Y21340D02*X164578D01*
Y21609D02*Y21340D01*
X166036Y21880D02*X166306Y21609D01*
X165496Y21880D02*X166036D01*
X165226Y21609D02*X165496Y21880D01*
X165226Y21609D02*Y21070D01*
X165496Y20800D01*
X166306Y21880D02*Y21070D01*
X166576Y20800D01*
X165496D02*X166036D01*
X166306Y21070D01*
X167494Y22960D02*Y21070D01*
X167764Y20800D01*
X167224Y22150D02*X167764D01*
X168574Y20800D02*X169384D01*
X169654Y21070D01*
X169384Y21340D02*X169654Y21070D01*
X168574Y21340D02*X169384D01*
X168304Y21609D02*X168574Y21340D01*
X168304Y21609D02*X168574Y21880D01*
X169384D01*
X169654Y21609D01*
X168304Y21070D02*X168574Y20800D01*
G54D47*X170302Y22420D02*Y22366D01*
G54D51*Y21609D02*Y20800D01*
X171112Y21609D02*Y20800D01*
Y21609D02*X171382Y21880D01*
X171652D01*
X171922Y21609D01*
Y20800D01*
X170842Y21880D02*X171112Y21609D01*
X172570Y22960D02*Y20800D01*
Y21609D02*X173380Y20800D01*
X172570Y21609D02*X173110Y22150D01*
X131270Y18460D02*Y16300D01*
X131000Y18460D02*X132080D01*
X132350Y18190D01*
Y17650D01*
X132080Y17380D02*X132350Y17650D01*
X131270Y17380D02*X132080D01*
X133268Y17110D02*Y16300D01*
Y17110D02*X133538Y17380D01*
X134078D01*
X132998D02*X133268Y17110D01*
X134726D02*Y16570D01*
Y17110D02*X134996Y17380D01*
X135536D01*
X135806Y17110D01*
Y16570D01*
X135536Y16300D02*X135806Y16570D01*
X134996Y16300D02*X135536D01*
X134726Y16570D02*X134996Y16300D01*
X136454Y18460D02*Y16300D01*
Y16570D02*X136724Y16300D01*
X137264D01*
X137534Y16570D01*
Y17110D02*Y16570D01*
X137264Y17380D02*X137534Y17110D01*
X136724Y17380D02*X137264D01*
X136454Y17110D02*X136724Y17380D01*
X138452Y16300D02*X139262D01*
X138182Y16570D02*X138452Y16300D01*
X138182Y17110D02*Y16570D01*
Y17110D02*X138452Y17380D01*
X138992D01*
X139262Y17110D01*
X138182Y16840D02*X139262D01*
Y17110D02*Y16840D01*
X152500Y18960D02*X153580D01*
X153040D02*Y16800D01*
X154228Y18960D02*Y16800D01*
Y17610D02*X154498Y17880D01*
X155038D01*
X155308Y17610D01*
Y16800D01*
X156226D02*X157036D01*
X155956Y17069D02*X156226Y16800D01*
X155956Y17610D02*Y17069D01*
Y17610D02*X156226Y17880D01*
X156766D01*
X157036Y17610D01*
X155956Y17340D02*X157036D01*
Y17610D02*Y17340D01*
X157954Y17610D02*Y16800D01*
Y17610D02*X158224Y17880D01*
X158764D01*
X157684D02*X157954Y17610D01*
X159682D02*Y16800D01*
Y17610D02*X159952Y17880D01*
X160222D01*
X160492Y17610D01*
Y16800D01*
Y17610D02*X160762Y17880D01*
X161032D01*
X161302Y17610D01*
Y16800D01*
X159412Y17880D02*X159682Y17610D01*
G54D47*X161950Y18420D02*Y18366D01*
G54D51*Y17610D02*Y16800D01*
X162760D02*X163570D01*
X163840Y17069D01*
X163570Y17340D02*X163840Y17069D01*
X162760Y17340D02*X163570D01*
X162490Y17610D02*X162760Y17340D01*
X162490Y17610D02*X162760Y17880D01*
X163570D01*
X163840Y17610D01*
X162490Y17069D02*X162760Y16800D01*
X164758Y18960D02*Y17069D01*
X165028Y16800D01*
X164488Y18150D02*X165028D01*
X165568Y17610D02*Y17069D01*
Y17610D02*X165838Y17880D01*
X166378D01*
X166648Y17610D01*
Y17069D01*
X166378Y16800D02*X166648Y17069D01*
X165838Y16800D02*X166378D01*
X165568Y17069D02*X165838Y16800D01*
X167566Y17610D02*Y16800D01*
Y17610D02*X167836Y17880D01*
X168376D01*
X167296D02*X167566Y17610D01*
X152999Y15959D02*Y13800D01*
X154350Y15959D02*Y13800D01*
X152999Y14880D02*X154350D01*
X155268Y13800D02*X156078D01*
X154997Y14070D02*X155268Y13800D01*
X154997Y14610D02*Y14070D01*
Y14610D02*X155268Y14880D01*
X155808D01*
X156078Y14610D01*
X154997Y14340D02*X156078D01*
Y14610D02*Y14340D01*
X157536Y14880D02*X157806Y14610D01*
X156996Y14880D02*X157536D01*
X156726Y14610D02*X156996Y14880D01*
X156726Y14610D02*Y14070D01*
X156996Y13800D01*
X157806Y14880D02*Y14070D01*
X158076Y13800D01*
X156996D02*X157536D01*
X157806Y14070D01*
X158994Y15959D02*Y14070D01*
X159264Y13800D01*
X158724Y15150D02*X159264D01*
X160074Y13800D02*X160884D01*
X159804Y14070D02*X160074Y13800D01*
X159804Y14610D02*Y14070D01*
Y14610D02*X160074Y14880D01*
X160614D01*
X160884Y14610D01*
X159804Y14340D02*X160884D01*
Y14610D02*Y14340D01*
X161802Y14610D02*Y13800D01*
Y14610D02*X162072Y14880D01*
X162612D01*
X161532D02*X161802Y14610D01*
X133040Y45080D02*Y44000D01*
Y45080D02*X133310Y45350D01*
X133850D01*
X134120Y45080D01*
Y44270D01*
X133040D02*X135200D01*
X134120Y44702D02*X135200Y45350D01*
Y47078D02*Y46268D01*
X134930Y45998D02*X135200Y46268D01*
X134390Y45998D02*X134930D01*
X134120Y46268D02*X134390Y45998D01*
X134120Y46808D02*Y46268D01*
Y46808D02*X134390Y47078D01*
X134660D02*Y45998D01*
X134390Y47078D02*X134660D01*
X133040Y48806D02*X135200D01*
X134930D02*X135200Y48536D01*
Y47996D01*
X134930Y47726D02*X135200Y47996D01*
X134390Y47726D02*X134930D01*
X134120Y47996D02*X134390Y47726D01*
X134120Y48536D02*Y47996D01*
Y48536D02*X134390Y48806D01*
X134120Y50534D02*Y49454D01*
X133580Y49994D02*X134660D01*
G54D52*X138150Y42560D02*Y41500D01*
X137885Y42825D02*X138150Y42560D01*
X137249Y42825D02*X137885D01*
X136984Y42560D02*X137249Y42825D01*
X136984Y42560D02*Y41765D01*
X136030D02*X138150D01*
X136030Y42560D02*Y41500D01*
Y42560D02*X136295Y42825D01*
X136719D01*
X136984Y42560D01*
X136030Y43461D02*X137885D01*
X138150Y43726D01*
X137090Y45051D02*X137355Y45316D01*
X137090Y45051D02*Y44521D01*
X137355Y44256D01*
X137885D01*
X138150Y44521D01*
X137090Y45316D02*X137885D01*
X138150Y45581D01*
Y45051D02*Y44521D01*
X137885Y45316D02*X138150Y45051D01*
X137090Y47277D02*Y46482D01*
X137355Y46217D01*
X137885D01*
X138150Y46482D01*
Y47277D02*Y46482D01*
X136030Y47913D02*X138150D01*
X137355D02*X138150Y48708D01*
X136825Y48443D02*X137355Y47913D01*
X137090Y50404D02*Y49344D01*
X131885Y42500D02*X132150Y42765D01*
X130030D02*X130295Y42500D01*
X131885D01*
X130030Y43666D02*X132150D01*
X130030Y44461D02*Y43401D01*
Y44461D02*X130295Y44726D01*
X130825D01*
X131090Y44461D01*
Y43666D01*
X130030Y45362D02*X131090D01*
X132150Y45627D01*
X131090Y46157D02*X132150Y45627D01*
X131090Y46157D02*X132150Y46687D01*
X131090Y46952D02*X132150Y46687D01*
X130030Y46952D02*X131090D01*
X130030Y47588D02*X132150D01*
X130030D02*X131090Y48383D01*
X130030Y49178D02*X131090Y48383D01*
X130030Y49178D02*X132150D01*
X130030Y49814D02*X130295Y50079D01*
X131885D01*
X132150Y49814D01*
X170650Y44560D02*Y43500D01*
X170385Y44825D02*X170650Y44560D01*
X169749Y44825D02*X170385D01*
X169484Y44560D02*X169749Y44825D01*
X169484Y44560D02*Y43765D01*
X168530D02*X170650D01*
X168530Y44560D02*Y43500D01*
Y44560D02*X168795Y44825D01*
X169219D01*
X169484Y44560D01*
X168530Y45461D02*X170385D01*
X170650Y45726D01*
X169590Y47051D02*X169855Y47316D01*
X169590Y47051D02*Y46521D01*
X169855Y46256D01*
X170385D01*
X170650Y46521D01*
X169590Y47316D02*X170385D01*
X170650Y47581D01*
Y47051D02*Y46521D01*
X170385Y47316D02*X170650Y47051D01*
X169590Y49277D02*Y48482D01*
X169855Y48217D01*
X170385D01*
X170650Y48482D01*
Y49277D02*Y48482D01*
X168530Y49913D02*X170650D01*
X169855D02*X170650Y50708D01*
X169325Y50443D02*X169855Y49913D01*
X169590Y52404D02*Y51344D01*
G54D51*X165540Y47080D02*Y46000D01*
Y47080D02*X165810Y47350D01*
X166350D01*
X166620Y47080D01*
Y46270D01*
X165540D02*X167700D01*
X166620Y46702D02*X167700Y47350D01*
Y49078D02*Y48268D01*
X167430Y47998D02*X167700Y48268D01*
X166890Y47998D02*X167430D01*
X166620Y48268D02*X166890Y47998D01*
X166620Y48808D02*Y48268D01*
Y48808D02*X166890Y49078D01*
X167160D02*Y47998D01*
X166890Y49078D02*X167160D01*
X165540Y50806D02*X167700D01*
X167430D02*X167700Y50536D01*
Y49996D01*
X167430Y49726D02*X167700Y49996D01*
X166890Y49726D02*X167430D01*
X166620Y49996D02*X166890Y49726D01*
X166620Y50536D02*Y49996D01*
Y50536D02*X166890Y50806D01*
X166620Y52534D02*Y51454D01*
X166080Y51994D02*X167160D01*
X155040Y35079D02*X155310Y35350D01*
X155040Y35079D02*Y34269D01*
X155310Y34000D01*
X156929D01*
X157200Y34269D01*
Y35079D02*Y34269D01*
X156929Y35350D02*X157200Y35079D01*
X156390Y35350D02*X156929D01*
X156119Y35079D02*X156390Y35350D01*
X156119Y35079D02*Y34540D01*
X156390Y36267D02*X157200D01*
X156119Y36538D02*X156390Y36267D01*
X156119Y37077D02*Y36538D01*
Y35998D02*X156390Y36267D01*
X157200Y38806D02*Y37996D01*
X156929Y37726D02*X157200Y37996D01*
X156390Y37726D02*X156929D01*
X156119Y37996D02*X156390Y37726D01*
X156119Y38536D02*Y37996D01*
Y38536D02*X156390Y38806D01*
X156660D02*Y37726D01*
X156390Y38806D02*X156660D01*
X157200Y40534D02*Y39724D01*
X156929Y39453D02*X157200Y39724D01*
X156390Y39453D02*X156929D01*
X156119Y39724D02*X156390Y39453D01*
X156119Y40263D02*Y39724D01*
Y40263D02*X156390Y40534D01*
X156660D02*Y39453D01*
X156390Y40534D02*X156660D01*
X156390Y41451D02*X157200D01*
X156119Y41722D02*X156390Y41451D01*
X156119Y41992D02*Y41722D01*
Y41992D02*X156390Y42262D01*
X157200D01*
X156119Y41182D02*X156390Y41451D01*
X161040Y38080D02*Y37000D01*
Y38080D02*X161310Y38350D01*
X161850D01*
X162120Y38080D01*
Y37270D01*
X161040D02*X163200D01*
X162120Y37702D02*X163200Y38350D01*
Y40078D02*Y39268D01*
X162930Y38998D02*X163200Y39268D01*
X162390Y38998D02*X162930D01*
X162120Y39268D02*X162390Y38998D01*
X162120Y39808D02*Y39268D01*
Y39808D02*X162390Y40078D01*
X162660D02*Y38998D01*
X162390Y40078D02*X162660D01*
X161040Y41806D02*X163200D01*
X162930D02*X163200Y41536D01*
Y40996D01*
X162930Y40726D02*X163200Y40996D01*
X162390Y40726D02*X162930D01*
X162120Y40996D02*X162390Y40726D01*
X162120Y41536D02*Y40996D01*
Y41536D02*X162390Y41806D01*
X160200Y36080D02*Y35000D01*
X159930Y36350D02*X160200Y36080D01*
X159282Y36350D02*X159930D01*
X159012Y36080D02*X159282Y36350D01*
X159012Y36080D02*Y35270D01*
X158040D02*X160200D01*
X158040Y36080D02*Y35000D01*
Y36080D02*X158310Y36350D01*
X158742D01*
X159012Y36080D01*
X158040Y36998D02*X159930D01*
X160200Y37268D01*
X159120Y38618D02*X159390Y38887D01*
X159120Y38618D02*Y38078D01*
X159390Y37808D01*
X159930D01*
X160200Y38078D01*
X159120Y38887D02*X159930D01*
X160200Y39158D01*
Y38618D02*Y38078D01*
X159930Y38887D02*X160200Y38618D01*
X159120Y40885D02*Y40075D01*
X159390Y39806D01*
X159930D01*
X160200Y40075D01*
Y40885D02*Y40075D01*
X158040Y41534D02*X160200D01*
X159390D02*X160200Y42344D01*
X158850Y42074D02*X159390Y41534D01*
X162080Y31960D02*X162350Y31690D01*
X161270Y31960D02*X162080D01*
X161000Y31690D02*X161270Y31960D01*
X161000Y31690D02*Y31150D01*
X161270Y30880D01*
X162080D01*
X162350Y30610D01*
Y30070D01*
X162080Y29800D02*X162350Y30070D01*
X161270Y29800D02*X162080D01*
X161000Y30070D02*X161270Y29800D01*
X163268Y31960D02*Y30070D01*
X163538Y29800D01*
X162998Y31150D02*X163538D01*
X164348Y29800D02*X165158D01*
X164078Y30070D02*X164348Y29800D01*
X164078Y30610D02*Y30070D01*
Y30610D02*X164348Y30880D01*
X164888D01*
X165158Y30610D01*
X164078Y30340D02*X165158D01*
Y30610D02*Y30340D01*
X166076Y30610D02*Y28990D01*
X165806Y30880D02*X166076Y30610D01*
X166346Y30880D01*
X166886D01*
X167156Y30610D01*
Y30070D01*
X166886Y29800D02*X167156Y30070D01*
X166346Y29800D02*X166886D01*
X166076Y30070D02*X166346Y29800D01*
X168074Y30610D02*Y28990D01*
X167804Y30880D02*X168074Y30610D01*
X168344Y30880D01*
X168884D01*
X169154Y30610D01*
Y30070D01*
X168884Y29800D02*X169154Y30070D01*
X168344Y29800D02*X168884D01*
X168074Y30070D02*X168344Y29800D01*
X170072D02*X170882D01*
X169802Y30070D02*X170072Y29800D01*
X169802Y30610D02*Y30070D01*
Y30610D02*X170072Y30880D01*
X170612D01*
X170882Y30610D01*
X169802Y30340D02*X170882D01*
Y30610D02*Y30340D01*
X171800Y30610D02*Y29800D01*
Y30610D02*X172070Y30880D01*
X172610D01*
X171530D02*X171800Y30610D01*
G54D52*X200650Y32560D02*Y31500D01*
X200385Y32825D02*X200650Y32560D01*
X199749Y32825D02*X200385D01*
X199484Y32560D02*X199749Y32825D01*
X199484Y32560D02*Y31765D01*
X198530D02*X200650D01*
X198530Y32560D02*Y31500D01*
Y32560D02*X198795Y32825D01*
X199219D01*
X199484Y32560D01*
X198530Y33461D02*X200385D01*
X200650Y33726D01*
X199590Y35051D02*X199855Y35316D01*
X199590Y35051D02*Y34521D01*
X199855Y34256D01*
X200385D01*
X200650Y34521D01*
X199590Y35316D02*X200385D01*
X200650Y35581D01*
Y35051D02*Y34521D01*
X200385Y35316D02*X200650Y35051D01*
X199590Y37277D02*Y36482D01*
X199855Y36217D01*
X200385D01*
X200650Y36482D01*
Y37277D02*Y36482D01*
X198530Y37913D02*X200650D01*
X199855D02*X200650Y38708D01*
X199325Y38443D02*X199855Y37913D01*
X199590Y40404D02*Y39344D01*
G54D51*X195540Y35079D02*Y34000D01*
Y35079D02*X195810Y35350D01*
X196350D01*
X196620Y35079D01*
Y34269D01*
X195540D02*X197700D01*
X196620Y34702D02*X197700Y35350D01*
Y37077D02*Y36267D01*
X197430Y35998D02*X197700Y36267D01*
X196890Y35998D02*X197430D01*
X196620Y36267D02*X196890Y35998D01*
X196620Y36808D02*Y36267D01*
Y36808D02*X196890Y37077D01*
X197160D02*Y35998D01*
X196890Y37077D02*X197160D01*
X195540Y38806D02*X197700D01*
X197430D02*X197700Y38536D01*
Y37996D01*
X197430Y37726D02*X197700Y37996D01*
X196890Y37726D02*X197430D01*
X196620Y37996D02*X196890Y37726D01*
X196620Y38536D02*Y37996D01*
Y38536D02*X196890Y38806D01*
X196620Y40534D02*Y39453D01*
X196080Y39994D02*X197160D01*
X186878Y23800D02*X187580D01*
X186500Y24178D02*X186878Y23800D01*
X186500Y25582D02*Y24178D01*
Y25582D02*X186878Y25960D01*
X187580D01*
X188227Y24609D02*Y24070D01*
Y24609D02*X188498Y24880D01*
X189037D01*
X189308Y24609D01*
Y24070D01*
X189037Y23800D02*X189308Y24070D01*
X188498Y23800D02*X189037D01*
X188227Y24070D02*X188498Y23800D01*
X189956Y24609D02*Y24070D01*
Y24609D02*X190225Y24880D01*
X190766D01*
X191036Y24609D01*
Y24070D01*
X190766Y23800D02*X191036Y24070D01*
X190225Y23800D02*X190766D01*
X189956Y24070D02*X190225Y23800D01*
X191684Y25960D02*Y24070D01*
X191954Y23800D01*
G54D47*X192494Y25420D02*Y25366D01*
G54D51*Y24609D02*Y23800D01*
X193304Y24609D02*Y23800D01*
Y24609D02*X193574Y24880D01*
X193844D01*
X194114Y24609D01*
Y23800D01*
X193034Y24880D02*X193304Y24609D01*
X195572Y24880D02*X195842Y24609D01*
X195032Y24880D02*X195572D01*
X194762Y24609D02*X195032Y24880D01*
X194762Y24609D02*Y24070D01*
X195032Y23800D01*
X195572D01*
X195842Y24070D01*
X194762Y23260D02*X195032Y22990D01*
X195572D01*
X195842Y23260D01*
Y24880D02*Y23260D01*
G54D44*X68300Y35300D02*Y29800D01*
X69800D01*
Y35300D02*Y33800D01*
Y31800D02*X70800Y32800D01*
X69800Y31800D02*Y29800D01*
X63800Y32800D02*X68300D01*
Y35300D02*X69800D01*
G54D51*X66340Y36818D02*X68500D01*
X66340Y37628D02*Y36548D01*
Y37628D02*X66610Y37898D01*
X67150D01*
X67420Y37628D02*X67150Y37898D01*
X67420Y37628D02*Y36818D01*
X67690Y38816D02*X68500D01*
X67690D02*X67420Y39086D01*
Y39626D02*Y39086D01*
Y38546D02*X67690Y38816D01*
Y40274D02*X68230D01*
X67690D02*X67420Y40544D01*
Y41084D02*Y40544D01*
Y41084D02*X67690Y41354D01*
X68230D01*
X68500Y41084D02*X68230Y41354D01*
X68500Y41084D02*Y40544D01*
X68230Y40274D02*X68500Y40544D01*
X66340Y42002D02*X68500D01*
X68230D02*X68500Y42272D01*
Y42812D02*Y42272D01*
Y42812D02*X68230Y43082D01*
X67690D02*X68230D01*
X67420Y42812D02*X67690Y43082D01*
X67420Y42812D02*Y42272D01*
X67690Y42002D02*X67420Y42272D01*
X68500Y44810D02*Y44000D01*
X68230Y43730D02*X68500Y44000D01*
X67690Y43730D02*X68230D01*
X67690D02*X67420Y44000D01*
Y44540D02*Y44000D01*
Y44540D02*X67690Y44810D01*
X67960D02*Y43730D01*
X67690Y44810D02*X67960D01*
G54D44*X69500Y45000D02*Y35300D01*
G54D52*X69885Y48961D02*X70150Y49225D01*
Y49756D02*Y49225D01*
X69885Y50021D02*X70150Y49756D01*
X68295Y50021D02*X69885D01*
X68030Y49756D02*X68295Y50021D01*
X68030Y49756D02*Y49225D01*
X68295Y48961D01*
X69885D01*
X68030Y48325D02*X70150D01*
X68030Y47000D02*X70150Y48325D01*
X68030Y47000D02*X70150D01*
X64530Y49560D02*Y48870D01*
X64901Y48500D01*
X66279D01*
X66650Y48870D01*
Y49560D02*Y48870D01*
G54D51*X71040Y50078D02*Y49375D01*
X71418Y48998D01*
X72822D01*
X73200Y49375D01*
Y50078D02*Y49375D01*
X71040Y48350D02*X73200D01*
X71040Y47000D02*X73200Y48350D01*
X71040Y47000D02*X73200D01*
G54D44*X72000Y54000D02*Y51000D01*
X66000Y54000D02*Y51000D01*
X69000Y54000D02*Y51000D01*
X66000D02*X74500D01*
Y45000D01*
X69500D02*X74500D01*
X62500Y27500D02*X76500D01*
Y58500D02*Y27500D01*
X62500Y58500D02*X76500D01*
X62500D02*Y27500D01*
X82800Y35300D02*Y29800D01*
X84300D01*
Y35300D02*Y33800D01*
Y31800D02*X85300Y32800D01*
X84300Y31800D02*Y29800D01*
X78300Y32800D02*X82800D01*
Y35300D02*X84300D01*
G54D51*X80840Y36818D02*X83000D01*
X80840Y37628D02*Y36548D01*
Y37628D02*X81110Y37898D01*
X81650D01*
X81920Y37628D02*X81650Y37898D01*
X81920Y37628D02*Y36818D01*
X82190Y38816D02*X83000D01*
X82190D02*X81920Y39086D01*
Y39626D02*Y39086D01*
Y38546D02*X82190Y38816D01*
Y40274D02*X82730D01*
X82190D02*X81920Y40544D01*
Y41084D02*Y40544D01*
Y41084D02*X82190Y41354D01*
X82730D01*
X83000Y41084D02*X82730Y41354D01*
X83000Y41084D02*Y40544D01*
X82730Y40274D02*X83000Y40544D01*
X80840Y42002D02*X83000D01*
X82730D02*X83000Y42272D01*
Y42812D02*Y42272D01*
Y42812D02*X82730Y43082D01*
X82190D02*X82730D01*
X81920Y42812D02*X82190Y43082D01*
X81920Y42812D02*Y42272D01*
X82190Y42002D02*X81920Y42272D01*
X83000Y44810D02*Y44000D01*
X82730Y43730D02*X83000Y44000D01*
X82190Y43730D02*X82730D01*
X82190D02*X81920Y44000D01*
Y44540D02*Y44000D01*
Y44540D02*X82190Y44810D01*
X82460D02*Y43730D01*
X82190Y44810D02*X82460D01*
G54D44*X84000Y45000D02*Y35300D01*
G54D52*X84385Y48961D02*X84650Y49225D01*
Y49756D02*Y49225D01*
X84385Y50021D02*X84650Y49756D01*
X82795Y50021D02*X84385D01*
X82530Y49756D02*X82795Y50021D01*
X82530Y49756D02*Y49225D01*
X82795Y48961D01*
X84385D01*
X82530Y48325D02*X84650D01*
X82530Y47000D02*X84650Y48325D01*
X82530Y47000D02*X84650D01*
X79030Y49560D02*Y48870D01*
X79401Y48500D01*
X80779D01*
X81150Y48870D01*
Y49560D02*Y48870D01*
G54D51*X85540Y50078D02*Y49375D01*
X85918Y48998D01*
X87322D01*
X87700Y49375D01*
Y50078D02*Y49375D01*
X85540Y48350D02*X87700D01*
X85540Y47000D02*X87700Y48350D01*
X85540Y47000D02*X87700D01*
G54D44*X86500Y54000D02*Y51000D01*
X80500Y54000D02*Y51000D01*
X83500Y54000D02*Y51000D01*
X80500D02*X89000D01*
Y45000D01*
X84000D02*X89000D01*
X77000Y27500D02*X91000D01*
Y58500D02*Y27500D01*
X77000Y58500D02*X91000D01*
X77000D02*Y27500D01*
X99300Y35300D02*Y29800D01*
X100800D01*
Y35300D02*Y33800D01*
Y31800D02*X101800Y32800D01*
X100800Y31800D02*Y29800D01*
X94800Y32800D02*X99300D01*
Y35300D02*X100800D01*
G54D51*X97340Y36818D02*X99500D01*
X97340Y37628D02*Y36548D01*
Y37628D02*X97610Y37898D01*
X98150D01*
X98420Y37628D02*X98150Y37898D01*
X98420Y37628D02*Y36818D01*
X98690Y38816D02*X99500D01*
X98690D02*X98420Y39086D01*
Y39626D02*Y39086D01*
Y38546D02*X98690Y38816D01*
Y40274D02*X99230D01*
X98690D02*X98420Y40544D01*
Y41084D02*Y40544D01*
Y41084D02*X98690Y41354D01*
X99230D01*
X99500Y41084D02*X99230Y41354D01*
X99500Y41084D02*Y40544D01*
X99230Y40274D02*X99500Y40544D01*
X97340Y42002D02*X99500D01*
X99230D02*X99500Y42272D01*
Y42812D02*Y42272D01*
Y42812D02*X99230Y43082D01*
X98690D02*X99230D01*
X98420Y42812D02*X98690Y43082D01*
X98420Y42812D02*Y42272D01*
X98690Y42002D02*X98420Y42272D01*
X99500Y44810D02*Y44000D01*
X99230Y43730D02*X99500Y44000D01*
X98690Y43730D02*X99230D01*
X98690D02*X98420Y44000D01*
Y44540D02*Y44000D01*
Y44540D02*X98690Y44810D01*
X98960D02*Y43730D01*
X98690Y44810D02*X98960D01*
G54D44*X100500Y45000D02*Y35300D01*
G54D52*X100885Y48961D02*X101150Y49225D01*
Y49756D02*Y49225D01*
X100885Y50021D02*X101150Y49756D01*
X99295Y50021D02*X100885D01*
X99030Y49756D02*X99295Y50021D01*
X99030Y49756D02*Y49225D01*
X99295Y48961D01*
X100885D01*
X99030Y48325D02*X101150D01*
X99030Y47000D02*X101150Y48325D01*
X99030Y47000D02*X101150D01*
X95530Y49560D02*Y48870D01*
X95901Y48500D01*
X97279D01*
X97650Y48870D01*
Y49560D02*Y48870D01*
G54D51*X102040Y50078D02*Y49375D01*
X102418Y48998D01*
X103822D01*
X104200Y49375D01*
Y50078D02*Y49375D01*
X102040Y48350D02*X104200D01*
X102040Y47000D02*X104200Y48350D01*
X102040Y47000D02*X104200D01*
G54D44*X103000Y54000D02*Y51000D01*
X97000Y54000D02*Y51000D01*
X100000Y54000D02*Y51000D01*
X97000D02*X105500D01*
Y45000D01*
X100500D02*X105500D01*
X93500Y27500D02*X107500D01*
Y58500D02*Y27500D01*
X93500Y58500D02*X107500D01*
X93500D02*Y27500D01*
X113800Y35300D02*Y29800D01*
X115300D01*
Y35300D02*Y33800D01*
Y31800D02*X116300Y32800D01*
X115300Y31800D02*Y29800D01*
X109300Y32800D02*X113800D01*
Y35300D02*X115300D01*
G54D51*X111840Y36818D02*X114000D01*
X111840Y37628D02*Y36548D01*
Y37628D02*X112110Y37898D01*
X112650D01*
X112920Y37628D02*X112650Y37898D01*
X112920Y37628D02*Y36818D01*
X113190Y38816D02*X114000D01*
X113190D02*X112920Y39086D01*
Y39626D02*Y39086D01*
Y38546D02*X113190Y38816D01*
Y40274D02*X113730D01*
X113190D02*X112920Y40544D01*
Y41084D02*Y40544D01*
Y41084D02*X113190Y41354D01*
X113730D01*
X114000Y41084D02*X113730Y41354D01*
X114000Y41084D02*Y40544D01*
X113730Y40274D02*X114000Y40544D01*
X111840Y42002D02*X114000D01*
X113730D02*X114000Y42272D01*
Y42812D02*Y42272D01*
Y42812D02*X113730Y43082D01*
X113190D02*X113730D01*
X112920Y42812D02*X113190Y43082D01*
X112920Y42812D02*Y42272D01*
X113190Y42002D02*X112920Y42272D01*
X114000Y44810D02*Y44000D01*
X113730Y43730D02*X114000Y44000D01*
X113190Y43730D02*X113730D01*
X113190D02*X112920Y44000D01*
Y44540D02*Y44000D01*
Y44540D02*X113190Y44810D01*
X113460D02*Y43730D01*
X113190Y44810D02*X113460D01*
G54D44*X115000Y45000D02*Y35300D01*
G54D52*X115385Y48961D02*X115650Y49225D01*
Y49756D02*Y49225D01*
X115385Y50021D02*X115650Y49756D01*
X113795Y50021D02*X115385D01*
X113530Y49756D02*X113795Y50021D01*
X113530Y49756D02*Y49225D01*
X113795Y48961D01*
X115385D01*
X113530Y48325D02*X115650D01*
X113530Y47000D02*X115650Y48325D01*
X113530Y47000D02*X115650D01*
X110030Y49560D02*Y48870D01*
X110401Y48500D01*
X111779D01*
X112150Y48870D01*
Y49560D02*Y48870D01*
G54D51*X116540Y50078D02*Y49375D01*
X116918Y48998D01*
X118322D01*
X118700Y49375D01*
Y50078D02*Y49375D01*
X116540Y48350D02*X118700D01*
X116540Y47000D02*X118700Y48350D01*
X116540Y47000D02*X118700D01*
G54D44*X117500Y54000D02*Y51000D01*
X111500Y54000D02*Y51000D01*
X114500Y54000D02*Y51000D01*
X111500D02*X120000D01*
Y45000D01*
X115000D02*X120000D01*
X108000Y27500D02*X122000D01*
Y58500D02*Y27500D01*
X108000Y58500D02*X122000D01*
X108000D02*Y27500D01*
M02*
