M48
INCH
T35C0.038
T34C0.010
%
T34
X006600Y005600
X006900Y005600
X007200Y005600
X008050Y005600
X008350Y005600
X008650Y005600
X009700Y005600
X010000Y005600
X010100Y013500
X010300Y005600
X010400Y013200
X010700Y012850
X011150Y005600
X011450Y005600
X011500Y013500
X011750Y005600
X011800Y013200
X012300Y013750
X012600Y013950
X012600Y012850
X013150Y005600
X013450Y005600
X013750Y005600
X013900Y013150
X014150Y004600
X014200Y013400
X014450Y004600
X014500Y012850
X014750Y004600
X015400Y004800
X015650Y004600
X015950Y004600
X016200Y004800
X016650Y005650
X016950Y005650
X017750Y005000
X018050Y005000
X018250Y004650
X018550Y004650
X019700Y004600
X020000Y004600
T35
X007000Y025000
X007000Y024000
X008000Y025000
X008000Y024000
X009000Y025000
X009000Y024000
X010000Y025000
X010000Y024000
X011000Y025000
X011000Y024000
X012000Y025000
X012000Y024000
X013000Y025000
X013000Y024000
X014000Y025000
X014000Y024000
X015000Y025000
X015000Y024000
X016000Y025000
X016000Y024000
M30
