G04 start of page 5 for group 3 idx 14 *
G04 Title: (unknown), exclude1 *
G04 Creator: pcb 4.2.0 *
G04 CreationDate: Mon Sep 28 04:20:22 2020 UTC *
G04 For: commonadmin *
G04 Format: Gerber/RS-274X *
G04 PCB-Dimensions (mil): 2150.00 2800.00 *
G04 PCB-Coordinate-Origin: lower left *
%MOIN*%
%FSLAX25Y25*%
%LNGROUP3*%
%ADD28C,0.0380*%
%ADD27C,0.0100*%
%ADD26C,0.0001*%
%ADD25C,0.0600*%
%ADD24C,0.0200*%
G54D24*X182499Y46500D03*
X185500D03*
X177500Y50000D03*
X180500D03*
X197000Y46000D03*
X200000D03*
X166500Y56500D03*
X131500Y56000D03*
X134500D03*
X137500D03*
X169500Y56500D03*
X154000Y48000D03*
X156500Y46000D03*
X141500D03*
X144500D03*
X147500D03*
X159500D03*
X162000Y48000D03*
G54D25*X140000Y250000D03*
Y240000D03*
X130000Y250000D03*
Y240000D03*
G54D26*G36*
X157000Y253000D02*Y247000D01*
X163000D01*
Y253000D01*
X157000D01*
G37*
G54D25*X160000Y240000D03*
X150000Y250000D03*
Y240000D03*
X120000Y250000D03*
Y240000D03*
X110000Y250000D03*
X100000D03*
X90000D03*
X80000D03*
X70000D03*
X110000Y240000D03*
X100000D03*
X90000D03*
X80000D03*
X70000D03*
G54D24*X72000Y56000D03*
X69000D03*
X66000D03*
X86500D03*
X83500D03*
X80500D03*
X103000D03*
X117500D03*
X114500D03*
X111500D03*
X100000D03*
X97000D03*
X107000Y128500D03*
X126000Y139500D03*
X123000Y137500D03*
X142000Y134000D03*
X139000Y131500D03*
X126000Y128500D03*
X145000D03*
X118000Y132000D03*
X104000D03*
X101000Y135000D03*
X115000D03*
G54D27*G54D28*G54D27*M02*
