G04 start of page 14 for group -3984 idx -3984 *
G04 Title: (unknown), fab *
G04 Creator: pcb 4.2.0 *
G04 CreationDate: Mon Sep 28 04:23:24 2020 UTC *
G04 For: commonadmin *
G04 Format: Gerber/RS-274X *
G04 PCB-Dimensions (mil): 2000.00 2300.00 *
G04 PCB-Coordinate-Origin: lower left *
%MOIN*%
%FSLAX25Y25*%
%LNFAB*%
%ADD56C,0.0100*%
%ADD55C,0.0075*%
%ADD54C,0.0060*%
%ADD53C,0.0080*%
G54D53*X160000Y201600D02*Y198400D01*
X158400Y200000D02*X161600D01*
X160000Y191600D02*Y188400D01*
X158400Y190000D02*X161600D01*
X150000Y201600D02*Y198400D01*
X148400Y200000D02*X151600D01*
X150000Y191600D02*Y188400D01*
X148400Y190000D02*X151600D01*
X140000Y201600D02*Y198400D01*
X138400Y200000D02*X141600D01*
X140000Y191600D02*Y188400D01*
X138400Y190000D02*X141600D01*
X130000Y201600D02*Y198400D01*
X128400Y200000D02*X131600D01*
X130000Y191600D02*Y188400D01*
X128400Y190000D02*X131600D01*
X120000Y201600D02*Y198400D01*
X118400Y200000D02*X121600D01*
X120000Y191600D02*Y188400D01*
X118400Y190000D02*X121600D01*
X110000Y201600D02*Y198400D01*
X108400Y200000D02*X111600D01*
X110000Y191600D02*Y188400D01*
X108400Y190000D02*X111600D01*
X100000Y201600D02*Y198400D01*
X98400Y200000D02*X101600D01*
X100000Y191600D02*Y188400D01*
X98400Y190000D02*X101600D01*
X90000Y201600D02*Y198400D01*
X88400Y200000D02*X91600D01*
X90000Y191600D02*Y188400D01*
X88400Y190000D02*X91600D01*
X80000Y201600D02*Y198400D01*
X78400Y200000D02*X81600D01*
X80000Y191600D02*Y188400D01*
X78400Y190000D02*X81600D01*
X70000Y201600D02*Y198400D01*
X68400Y200000D02*X71600D01*
X70000Y191600D02*Y188400D01*
X68400Y190000D02*X71600D01*
X15000Y272850D02*Y269650D01*
X13400Y271250D02*X16600D01*
G54D54*X135000Y273500D02*X136500Y270500D01*
X138000Y273500D01*
X136500Y270500D02*Y267500D01*
X139800Y270800D02*X142050D01*
X139800Y267500D02*X142800D01*
X139800Y273500D02*Y267500D01*
Y273500D02*X142800D01*
X147600D02*X148350Y272750D01*
X145350Y273500D02*X147600D01*
X144600Y272750D02*X145350Y273500D01*
X144600Y272750D02*Y271250D01*
X145350Y270500D01*
X147600D01*
X148350Y269750D01*
Y268250D01*
X147600Y267500D02*X148350Y268250D01*
X145350Y267500D02*X147600D01*
X144600Y268250D02*X145350Y267500D01*
X98000Y272750D02*X98750Y273500D01*
X101000D01*
X101750Y272750D01*
Y271250D01*
X98000Y267500D02*X101750Y271250D01*
X98000Y267500D02*X101750D01*
X103550Y268250D02*X104300Y267500D01*
X103550Y272750D02*Y268250D01*
Y272750D02*X104300Y273500D01*
X105800D01*
X106550Y272750D01*
Y268250D01*
X105800Y267500D02*X106550Y268250D01*
X104300Y267500D02*X105800D01*
X103550Y269000D02*X106550Y272000D01*
X45000Y268250D02*X45750Y267500D01*
X45000Y272750D02*Y268250D01*
Y272750D02*X45750Y273500D01*
X47250D01*
X48000Y272750D01*
Y268250D01*
X47250Y267500D02*X48000Y268250D01*
X45750Y267500D02*X47250D01*
X45000Y269000D02*X48000Y272000D01*
X49800Y267500D02*X50550D01*
X52350Y268250D02*X53100Y267500D01*
X52350Y272750D02*Y268250D01*
Y272750D02*X53100Y273500D01*
X54600D01*
X55350Y272750D01*
Y268250D01*
X54600Y267500D02*X55350Y268250D01*
X53100Y267500D02*X54600D01*
X52350Y269000D02*X55350Y272000D01*
X57150Y272750D02*X57900Y273500D01*
X59400D01*
X60150Y272750D01*
X59400Y267500D02*X60150Y268250D01*
X57900Y267500D02*X59400D01*
X57150Y268250D02*X57900Y267500D01*
Y270800D02*X59400D01*
X60150Y272750D02*Y271550D01*
Y270050D02*Y268250D01*
Y270050D02*X59400Y270800D01*
X60150Y271550D02*X59400Y270800D01*
X61950Y268250D02*X62700Y267500D01*
X61950Y269450D02*Y268250D01*
Y269450D02*X63000Y270500D01*
X63900D01*
X64950Y269450D01*
Y268250D01*
X64200Y267500D02*X64950Y268250D01*
X62700Y267500D02*X64200D01*
X61950Y271550D02*X63000Y270500D01*
X61950Y272750D02*Y271550D01*
Y272750D02*X62700Y273500D01*
X64200D01*
X64950Y272750D01*
Y271550D01*
X63900Y270500D02*X64950Y271550D01*
X149999Y53000D02*Y51400D01*
Y53000D02*X151386Y53800D01*
X149999Y53000D02*X148613Y53800D01*
X153000Y53000D02*Y51400D01*
Y53000D02*X154387Y53800D01*
X153000Y53000D02*X151613Y53800D01*
X145000Y56500D02*Y54900D01*
Y56500D02*X146387Y57300D01*
X145000Y56500D02*X143613Y57300D01*
X148000Y56500D02*Y54900D01*
Y56500D02*X149387Y57300D01*
X148000Y56500D02*X146613Y57300D01*
X134000Y63000D02*Y61400D01*
Y63000D02*X135387Y63800D01*
X134000Y63000D02*X132613Y63800D01*
X137000Y63000D02*Y61400D01*
Y63000D02*X138387Y63800D01*
X137000Y63000D02*X135613Y63800D01*
X121500Y54500D02*Y52900D01*
Y54500D02*X122887Y55300D01*
X121500Y54500D02*X120113Y55300D01*
X124000Y52500D02*Y50900D01*
Y52500D02*X125387Y53300D01*
X124000Y52500D02*X122613Y53300D01*
X127000Y52500D02*Y50900D01*
Y52500D02*X128387Y53300D01*
X127000Y52500D02*X125613Y53300D01*
X129500Y54500D02*Y52900D01*
Y54500D02*X130887Y55300D01*
X129500Y54500D02*X128113Y55300D01*
X164500Y52500D02*Y50900D01*
Y52500D02*X165887Y53300D01*
X164500Y52500D02*X163113Y53300D01*
X167500Y52500D02*Y50900D01*
Y52500D02*X168887Y53300D01*
X167500Y52500D02*X166113Y53300D01*
X109000Y52500D02*Y50900D01*
Y52500D02*X110387Y53300D01*
X109000Y52500D02*X107613Y53300D01*
X112000Y52500D02*Y50900D01*
Y52500D02*X113387Y53300D01*
X112000Y52500D02*X110613Y53300D01*
X115000Y52500D02*Y50900D01*
Y52500D02*X116387Y53300D01*
X115000Y52500D02*X113613Y53300D01*
X99000Y62500D02*Y60900D01*
Y62500D02*X100387Y63300D01*
X99000Y62500D02*X97613Y63300D01*
X102000Y62500D02*Y60900D01*
Y62500D02*X103387Y63300D01*
X102000Y62500D02*X100613Y63300D01*
X105000Y62500D02*Y60900D01*
Y62500D02*X106387Y63300D01*
X105000Y62500D02*X103613Y63300D01*
X39500Y62500D02*Y60900D01*
Y62500D02*X40887Y63300D01*
X39500Y62500D02*X38113Y63300D01*
X36500Y62500D02*Y60900D01*
Y62500D02*X37887Y63300D01*
X36500Y62500D02*X35113Y63300D01*
X33500Y62500D02*Y60900D01*
Y62500D02*X34887Y63300D01*
X33500Y62500D02*X32113Y63300D01*
X54000Y62500D02*Y60900D01*
Y62500D02*X55387Y63300D01*
X54000Y62500D02*X52613Y63300D01*
X51000Y62500D02*Y60900D01*
Y62500D02*X52387Y63300D01*
X51000Y62500D02*X49613Y63300D01*
X48000Y62500D02*Y60900D01*
Y62500D02*X49387Y63300D01*
X48000Y62500D02*X46613Y63300D01*
X70500Y62500D02*Y60900D01*
Y62500D02*X71887Y63300D01*
X70500Y62500D02*X69113Y63300D01*
X67500Y62500D02*Y60900D01*
Y62500D02*X68887Y63300D01*
X67500Y62500D02*X66113Y63300D01*
X64500Y62500D02*Y60900D01*
Y62500D02*X65887Y63300D01*
X64500Y62500D02*X63113Y63300D01*
X85000Y62500D02*Y60900D01*
Y62500D02*X86387Y63300D01*
X85000Y62500D02*X83613Y63300D01*
X82000Y62500D02*Y60900D01*
Y62500D02*X83387Y63300D01*
X82000Y62500D02*X80613Y63300D01*
X79000Y62500D02*Y60900D01*
Y62500D02*X80387Y63300D01*
X79000Y62500D02*X77613Y63300D01*
X57000Y117000D02*Y115400D01*
Y117000D02*X58387Y117800D01*
X57000Y117000D02*X55613Y117800D01*
X54000Y115000D02*Y113400D01*
Y115000D02*X55387Y115800D01*
X54000Y115000D02*X52613Y115800D01*
X73000Y111500D02*Y109900D01*
Y111500D02*X74387Y112300D01*
X73000Y111500D02*X71613Y112300D01*
X70000Y109000D02*Y107400D01*
Y109000D02*X71387Y109800D01*
X70000Y109000D02*X68613Y109800D01*
X57000Y106000D02*Y104400D01*
Y106000D02*X58387Y106800D01*
X57000Y106000D02*X55613Y106800D01*
X76000Y106000D02*Y104400D01*
Y106000D02*X77387Y106800D01*
X76000Y106000D02*X74613Y106800D01*
X38000Y106000D02*Y104400D01*
Y106000D02*X39387Y106800D01*
X38000Y106000D02*X36613Y106800D01*
X49000Y109500D02*Y107900D01*
Y109500D02*X50387Y110300D01*
X49000Y109500D02*X47613Y110300D01*
X35000Y109500D02*Y107900D01*
Y109500D02*X36387Y110300D01*
X35000Y109500D02*X33613Y110300D01*
X32000Y112500D02*Y110900D01*
Y112500D02*X33387Y113300D01*
X32000Y112500D02*X30613Y113300D01*
X46000Y112500D02*Y110900D01*
Y112500D02*X47387Y113300D01*
X46000Y112500D02*X44613Y113300D01*
X15000Y286250D02*Y284650D01*
Y286250D02*X16387Y287050D01*
X15000Y286250D02*X13613Y287050D01*
X135000Y288500D02*X136500Y285500D01*
X138000Y288500D01*
X136500Y285500D02*Y282500D01*
X139800Y285800D02*X142050D01*
X139800Y282500D02*X142800D01*
X139800Y288500D02*Y282500D01*
Y288500D02*X142800D01*
X147600D02*X148350Y287750D01*
X145350Y288500D02*X147600D01*
X144600Y287750D02*X145350Y288500D01*
X144600Y287750D02*Y286250D01*
X145350Y285500D01*
X147600D01*
X148350Y284750D01*
Y283250D01*
X147600Y282500D02*X148350Y283250D01*
X145350Y282500D02*X147600D01*
X144600Y283250D02*X145350Y282500D01*
X98000Y284750D02*X101000Y288500D01*
X98000Y284750D02*X101750D01*
X101000Y288500D02*Y282500D01*
X103550Y287300D02*X104750Y288500D01*
Y282500D01*
X103550D02*X105800D01*
X45000Y283250D02*X45750Y282500D01*
X45000Y287750D02*Y283250D01*
Y287750D02*X45750Y288500D01*
X47250D01*
X48000Y287750D01*
Y283250D01*
X47250Y282500D02*X48000Y283250D01*
X45750Y282500D02*X47250D01*
X45000Y284000D02*X48000Y287000D01*
X49800Y282500D02*X50550D01*
X52350Y283250D02*X53100Y282500D01*
X52350Y287750D02*Y283250D01*
Y287750D02*X53100Y288500D01*
X54600D01*
X55350Y287750D01*
Y283250D01*
X54600Y282500D02*X55350Y283250D01*
X53100Y282500D02*X54600D01*
X52350Y284000D02*X55350Y287000D01*
X57150Y287300D02*X58350Y288500D01*
Y282500D01*
X57150D02*X59400D01*
X61200Y283250D02*X61950Y282500D01*
X61200Y287750D02*Y283250D01*
Y287750D02*X61950Y288500D01*
X63450D01*
X64200Y287750D01*
Y283250D01*
X63450Y282500D02*X64200Y283250D01*
X61950Y282500D02*X63450D01*
X61200Y284000D02*X64200Y287000D01*
X3000Y303500D02*X3750Y302750D01*
X750Y303500D02*X3000D01*
X0Y302750D02*X750Y303500D01*
X0Y302750D02*Y301250D01*
X750Y300500D01*
X3000D01*
X3750Y299750D01*
Y298250D01*
X3000Y297500D02*X3750Y298250D01*
X750Y297500D02*X3000D01*
X0Y298250D02*X750Y297500D01*
X5550Y300500D02*Y298250D01*
X6300Y297500D01*
X8550Y300500D02*Y296000D01*
X7800Y295250D02*X8550Y296000D01*
X6300Y295250D02*X7800D01*
X5550Y296000D02*X6300Y295250D01*
Y297500D02*X7800D01*
X8550Y298250D01*
X11100Y299750D02*Y297500D01*
Y299750D02*X11850Y300500D01*
X12600D01*
X13350Y299750D01*
Y297500D01*
Y299750D02*X14100Y300500D01*
X14850D01*
X15600Y299750D01*
Y297500D01*
X10350Y300500D02*X11100Y299750D01*
X17400Y303500D02*Y297500D01*
Y298250D02*X18150Y297500D01*
X19650D01*
X20400Y298250D01*
Y299750D02*Y298250D01*
X19650Y300500D02*X20400Y299750D01*
X18150Y300500D02*X19650D01*
X17400Y299750D02*X18150Y300500D01*
X22200Y299750D02*Y298250D01*
Y299750D02*X22950Y300500D01*
X24450D01*
X25200Y299750D01*
Y298250D01*
X24450Y297500D02*X25200Y298250D01*
X22950Y297500D02*X24450D01*
X22200Y298250D02*X22950Y297500D01*
X27000Y303500D02*Y298250D01*
X27750Y297500D01*
X0Y294250D02*X29250D01*
X41750Y303500D02*Y297500D01*
X43700Y303500D02*X44750Y302450D01*
Y298550D01*
X43700Y297500D02*X44750Y298550D01*
X41000Y297500D02*X43700D01*
X41000Y303500D02*X43700D01*
G54D55*X46550Y302000D02*Y301850D01*
G54D54*Y299750D02*Y297500D01*
X50300Y300500D02*X51050Y299750D01*
X48800Y300500D02*X50300D01*
X48050Y299750D02*X48800Y300500D01*
X48050Y299750D02*Y298250D01*
X48800Y297500D01*
X51050Y300500D02*Y298250D01*
X51800Y297500D01*
X48800D02*X50300D01*
X51050Y298250D01*
X54350Y299750D02*Y297500D01*
Y299750D02*X55100Y300500D01*
X55850D01*
X56600Y299750D01*
Y297500D01*
Y299750D02*X57350Y300500D01*
X58100D01*
X58850Y299750D01*
Y297500D01*
X53600Y300500D02*X54350Y299750D01*
X60650Y297500D02*X61400D01*
X65900Y298250D02*X66650Y297500D01*
X65900Y302750D02*X66650Y303500D01*
X65900Y302750D02*Y298250D01*
X68450Y303500D02*X69950D01*
X69200D02*Y297500D01*
X68450D02*X69950D01*
X72500Y299750D02*Y297500D01*
Y299750D02*X73250Y300500D01*
X74000D01*
X74750Y299750D01*
Y297500D01*
X71750Y300500D02*X72500Y299750D01*
X77300Y300500D02*X79550D01*
X76550Y299750D02*X77300Y300500D01*
X76550Y299750D02*Y298250D01*
X77300Y297500D01*
X79550D01*
X81350Y303500D02*Y297500D01*
Y299750D02*X82100Y300500D01*
X83600D01*
X84350Y299750D01*
Y297500D01*
X86150Y303500D02*X86900Y302750D01*
Y298250D01*
X86150Y297500D02*X86900Y298250D01*
X41000Y294250D02*X88700D01*
X96050Y297500D02*X98000D01*
X95000Y298550D02*X96050Y297500D01*
X95000Y302450D02*Y298550D01*
Y302450D02*X96050Y303500D01*
X98000D01*
X99800Y299750D02*Y298250D01*
Y299750D02*X100550Y300500D01*
X102050D01*
X102800Y299750D01*
Y298250D01*
X102050Y297500D02*X102800Y298250D01*
X100550Y297500D02*X102050D01*
X99800Y298250D02*X100550Y297500D01*
X104600Y300500D02*Y298250D01*
X105350Y297500D01*
X106850D01*
X107600Y298250D01*
Y300500D02*Y298250D01*
X110150Y299750D02*Y297500D01*
Y299750D02*X110900Y300500D01*
X111650D01*
X112400Y299750D01*
Y297500D01*
X109400Y300500D02*X110150Y299750D01*
X114950Y303500D02*Y298250D01*
X115700Y297500D01*
X114200Y301250D02*X115700D01*
X95000Y294250D02*X117200D01*
X130750Y303500D02*Y297500D01*
X130000Y303500D02*X133000D01*
X133750Y302750D01*
Y301250D01*
X133000Y300500D02*X133750Y301250D01*
X130750Y300500D02*X133000D01*
X135550Y303500D02*Y298250D01*
X136300Y297500D01*
X140050Y300500D02*X140800Y299750D01*
X138550Y300500D02*X140050D01*
X137800Y299750D02*X138550Y300500D01*
X137800Y299750D02*Y298250D01*
X138550Y297500D01*
X140800Y300500D02*Y298250D01*
X141550Y297500D01*
X138550D02*X140050D01*
X140800Y298250D01*
X144100Y303500D02*Y298250D01*
X144850Y297500D01*
X143350Y301250D02*X144850D01*
X147100Y297500D02*X149350D01*
X146350Y298250D02*X147100Y297500D01*
X146350Y299750D02*Y298250D01*
Y299750D02*X147100Y300500D01*
X148600D01*
X149350Y299750D01*
X146350Y299000D02*X149350D01*
Y299750D02*Y299000D01*
X154150Y303500D02*Y297500D01*
X153400D02*X154150Y298250D01*
X151900Y297500D02*X153400D01*
X151150Y298250D02*X151900Y297500D01*
X151150Y299750D02*Y298250D01*
Y299750D02*X151900Y300500D01*
X153400D01*
X154150Y299750D01*
X157450Y300500D02*Y299750D01*
Y298250D02*Y297500D01*
X155950Y302750D02*Y302000D01*
Y302750D02*X156700Y303500D01*
X158200D01*
X158950Y302750D01*
Y302000D01*
X157450Y300500D02*X158950Y302000D01*
X130000Y294250D02*X160750D01*
X0Y318500D02*X3000D01*
X1500D02*Y312500D01*
X4800Y318500D02*Y312500D01*
Y314750D02*X5550Y315500D01*
X7050D01*
X7800Y314750D01*
Y312500D01*
X10350D02*X12600D01*
X9600Y313250D02*X10350Y312500D01*
X9600Y314750D02*Y313250D01*
Y314750D02*X10350Y315500D01*
X11850D01*
X12600Y314750D01*
X9600Y314000D02*X12600D01*
Y314750D02*Y314000D01*
X15150Y314750D02*Y312500D01*
Y314750D02*X15900Y315500D01*
X17400D01*
X14400D02*X15150Y314750D01*
X19950Y312500D02*X22200D01*
X19200Y313250D02*X19950Y312500D01*
X19200Y314750D02*Y313250D01*
Y314750D02*X19950Y315500D01*
X21450D01*
X22200Y314750D01*
X19200Y314000D02*X22200D01*
Y314750D02*Y314000D01*
X28950Y315500D02*X29700Y314750D01*
X27450Y315500D02*X28950D01*
X26700Y314750D02*X27450Y315500D01*
X26700Y314750D02*Y313250D01*
X27450Y312500D01*
X29700Y315500D02*Y313250D01*
X30450Y312500D01*
X27450D02*X28950D01*
X29700Y313250D01*
X33000Y314750D02*Y312500D01*
Y314750D02*X33750Y315500D01*
X35250D01*
X32250D02*X33000Y314750D01*
X37800Y312500D02*X40050D01*
X37050Y313250D02*X37800Y312500D01*
X37050Y314750D02*Y313250D01*
Y314750D02*X37800Y315500D01*
X39300D01*
X40050Y314750D01*
X37050Y314000D02*X40050D01*
Y314750D02*Y314000D01*
X44550Y317750D02*X45300Y318500D01*
X47550D01*
X48300Y317750D01*
Y316250D01*
X44550Y312500D02*X48300Y316250D01*
X44550Y312500D02*X48300D01*
X55800Y318500D02*Y312500D01*
X55050D02*X55800Y313250D01*
X53550Y312500D02*X55050D01*
X52800Y313250D02*X53550Y312500D01*
X52800Y314750D02*Y313250D01*
Y314750D02*X53550Y315500D01*
X55050D01*
X55800Y314750D01*
G54D55*X57600Y317000D02*Y316850D01*
G54D54*Y314750D02*Y312500D01*
X59850Y317750D02*Y312500D01*
Y317750D02*X60600Y318500D01*
X61350D01*
X59100Y315500D02*X60600D01*
X63600Y317750D02*Y312500D01*
Y317750D02*X64350Y318500D01*
X65100D01*
X62850Y315500D02*X64350D01*
X67350Y312500D02*X69600D01*
X66600Y313250D02*X67350Y312500D01*
X66600Y314750D02*Y313250D01*
Y314750D02*X67350Y315500D01*
X68850D01*
X69600Y314750D01*
X66600Y314000D02*X69600D01*
Y314750D02*Y314000D01*
X72150Y314750D02*Y312500D01*
Y314750D02*X72900Y315500D01*
X74400D01*
X71400D02*X72150Y314750D01*
X76950Y312500D02*X79200D01*
X76200Y313250D02*X76950Y312500D01*
X76200Y314750D02*Y313250D01*
Y314750D02*X76950Y315500D01*
X78450D01*
X79200Y314750D01*
X76200Y314000D02*X79200D01*
Y314750D02*Y314000D01*
X81750Y314750D02*Y312500D01*
Y314750D02*X82500Y315500D01*
X83250D01*
X84000Y314750D01*
Y312500D01*
X81000Y315500D02*X81750Y314750D01*
X86550Y318500D02*Y313250D01*
X87300Y312500D01*
X85800Y316250D02*X87300D01*
X94500Y318500D02*Y312500D01*
X93750D02*X94500Y313250D01*
X92250Y312500D02*X93750D01*
X91500Y313250D02*X92250Y312500D01*
X91500Y314750D02*Y313250D01*
Y314750D02*X92250Y315500D01*
X93750D01*
X94500Y314750D01*
X97050D02*Y312500D01*
Y314750D02*X97800Y315500D01*
X99300D01*
X96300D02*X97050Y314750D01*
G54D55*X101100Y317000D02*Y316850D01*
G54D54*Y314750D02*Y312500D01*
X102600Y318500D02*Y313250D01*
X103350Y312500D01*
X104850Y318500D02*Y313250D01*
X105600Y312500D01*
X110550D02*X112800D01*
X113550Y313250D01*
X112800Y314000D02*X113550Y313250D01*
X110550Y314000D02*X112800D01*
X109800Y314750D02*X110550Y314000D01*
X109800Y314750D02*X110550Y315500D01*
X112800D01*
X113550Y314750D01*
X109800Y313250D02*X110550Y312500D01*
G54D55*X115350Y317000D02*Y316850D01*
G54D54*Y314750D02*Y312500D01*
X116850Y315500D02*X119850D01*
X116850Y312500D02*X119850Y315500D01*
X116850Y312500D02*X119850D01*
X122400D02*X124650D01*
X121650Y313250D02*X122400Y312500D01*
X121650Y314750D02*Y313250D01*
Y314750D02*X122400Y315500D01*
X123900D01*
X124650Y314750D01*
X121650Y314000D02*X124650D01*
Y314750D02*Y314000D01*
X127200Y312500D02*X129450D01*
X130200Y313250D01*
X129450Y314000D02*X130200Y313250D01*
X127200Y314000D02*X129450D01*
X126450Y314750D02*X127200Y314000D01*
X126450Y314750D02*X127200Y315500D01*
X129450D01*
X130200Y314750D01*
X126450Y313250D02*X127200Y312500D01*
X134700Y315500D02*Y313250D01*
X135450Y312500D01*
X136950D01*
X137700Y313250D01*
Y315500D02*Y313250D01*
X140250Y312500D02*X142500D01*
X143250Y313250D01*
X142500Y314000D02*X143250Y313250D01*
X140250Y314000D02*X142500D01*
X139500Y314750D02*X140250Y314000D01*
X139500Y314750D02*X140250Y315500D01*
X142500D01*
X143250Y314750D01*
X139500Y313250D02*X140250Y312500D01*
X145800D02*X148050D01*
X145050Y313250D02*X145800Y312500D01*
X145050Y314750D02*Y313250D01*
Y314750D02*X145800Y315500D01*
X147300D01*
X148050Y314750D01*
X145050Y314000D02*X148050D01*
Y314750D02*Y314000D01*
X152850Y318500D02*Y312500D01*
X152100D02*X152850Y313250D01*
X150600Y312500D02*X152100D01*
X149850Y313250D02*X150600Y312500D01*
X149850Y314750D02*Y313250D01*
Y314750D02*X150600Y315500D01*
X152100D01*
X152850Y314750D01*
G54D55*X157350Y317000D02*Y316850D01*
G54D54*Y314750D02*Y312500D01*
X159600Y314750D02*Y312500D01*
Y314750D02*X160350Y315500D01*
X161100D01*
X161850Y314750D01*
Y312500D01*
X158850Y315500D02*X159600Y314750D01*
X167100Y318500D02*Y313250D01*
X167850Y312500D01*
X166350Y316250D02*X167850D01*
X169350Y318500D02*Y312500D01*
Y314750D02*X170100Y315500D01*
X171600D01*
X172350Y314750D01*
Y312500D01*
G54D55*X174150Y317000D02*Y316850D01*
G54D54*Y314750D02*Y312500D01*
X176400D02*X178650D01*
X179400Y313250D01*
X178650Y314000D02*X179400Y313250D01*
X176400Y314000D02*X178650D01*
X175650Y314750D02*X176400Y314000D01*
X175650Y314750D02*X176400Y315500D01*
X178650D01*
X179400Y314750D01*
X175650Y313250D02*X176400Y312500D01*
X183900Y318500D02*Y313250D01*
X184650Y312500D01*
X188400Y315500D02*X189150Y314750D01*
X186900Y315500D02*X188400D01*
X186150Y314750D02*X186900Y315500D01*
X186150Y314750D02*Y313250D01*
X186900Y312500D01*
X189150Y315500D02*Y313250D01*
X189900Y312500D01*
X186900D02*X188400D01*
X189150Y313250D01*
X191700Y315500D02*Y313250D01*
X192450Y312500D01*
X194700Y315500D02*Y311000D01*
X193950Y310250D02*X194700Y311000D01*
X192450Y310250D02*X193950D01*
X191700Y311000D02*X192450Y310250D01*
Y312500D02*X193950D01*
X194700Y313250D01*
X196500Y314750D02*Y313250D01*
Y314750D02*X197250Y315500D01*
X198750D01*
X199500Y314750D01*
Y313250D01*
X198750Y312500D02*X199500Y313250D01*
X197250Y312500D02*X198750D01*
X196500Y313250D02*X197250Y312500D01*
X201300Y315500D02*Y313250D01*
X202050Y312500D01*
X203550D01*
X204300Y313250D01*
Y315500D02*Y313250D01*
X206850Y318500D02*Y313250D01*
X207600Y312500D01*
X206100Y316250D02*X207600D01*
X209100Y311000D02*X210600Y312500D01*
X217350Y318500D02*X218100Y317750D01*
X215850Y318500D02*X217350D01*
X215100Y317750D02*X215850Y318500D01*
X215100Y317750D02*Y313250D01*
X215850Y312500D01*
X217350Y315800D02*X218100Y315050D01*
X215100Y315800D02*X217350D01*
X215850Y312500D02*X217350D01*
X218100Y313250D01*
Y315050D02*Y313250D01*
X219900Y317300D02*X221100Y318500D01*
Y312500D01*
X219900D02*X222150D01*
X226650Y318500D02*Y312500D01*
Y314750D02*X227400Y315500D01*
X228900D01*
X229650Y314750D01*
Y312500D01*
X231450Y314750D02*Y313250D01*
Y314750D02*X232200Y315500D01*
X233700D01*
X234450Y314750D01*
Y313250D01*
X233700Y312500D02*X234450Y313250D01*
X232200Y312500D02*X233700D01*
X231450Y313250D02*X232200Y312500D01*
X236250Y318500D02*Y313250D01*
X237000Y312500D01*
X239250D02*X241500D01*
X238500Y313250D02*X239250Y312500D01*
X238500Y314750D02*Y313250D01*
Y314750D02*X239250Y315500D01*
X240750D01*
X241500Y314750D01*
X238500Y314000D02*X241500D01*
Y314750D02*Y314000D01*
X244050Y312500D02*X246300D01*
X247050Y313250D01*
X246300Y314000D02*X247050Y313250D01*
X244050Y314000D02*X246300D01*
X243300Y314750D02*X244050Y314000D01*
X243300Y314750D02*X244050Y315500D01*
X246300D01*
X247050Y314750D01*
X243300Y313250D02*X244050Y312500D01*
X252300Y318500D02*Y313250D01*
X253050Y312500D01*
X251550Y316250D02*X253050D01*
X254550Y314750D02*Y313250D01*
Y314750D02*X255300Y315500D01*
X256800D01*
X257550Y314750D01*
Y313250D01*
X256800Y312500D02*X257550Y313250D01*
X255300Y312500D02*X256800D01*
X254550Y313250D02*X255300Y312500D01*
X260100Y318500D02*Y313250D01*
X260850Y312500D01*
X259350Y316250D02*X260850D01*
X264600Y315500D02*X265350Y314750D01*
X263100Y315500D02*X264600D01*
X262350Y314750D02*X263100Y315500D01*
X262350Y314750D02*Y313250D01*
X263100Y312500D01*
X265350Y315500D02*Y313250D01*
X266100Y312500D01*
X263100D02*X264600D01*
X265350Y313250D01*
X267900Y318500D02*Y313250D01*
X268650Y312500D01*
G54D56*X0Y230000D02*X190000D01*
Y10000D01*
X0D01*
Y230000D01*
G54D54*X13675Y-9500D02*X16675D01*
X17425Y-8750D01*
Y-6950D02*Y-8750D01*
X16675Y-6200D02*X17425Y-6950D01*
X14425Y-6200D02*X16675D01*
X14425Y-3500D02*Y-9500D01*
X13675Y-3500D02*X16675D01*
X17425Y-4250D01*
Y-5450D01*
X16675Y-6200D02*X17425Y-5450D01*
X19225Y-7250D02*Y-8750D01*
Y-7250D02*X19975Y-6500D01*
X21475D01*
X22225Y-7250D01*
Y-8750D01*
X21475Y-9500D02*X22225Y-8750D01*
X19975Y-9500D02*X21475D01*
X19225Y-8750D02*X19975Y-9500D01*
X26275Y-6500D02*X27025Y-7250D01*
X24775Y-6500D02*X26275D01*
X24025Y-7250D02*X24775Y-6500D01*
X24025Y-7250D02*Y-8750D01*
X24775Y-9500D01*
X27025Y-6500D02*Y-8750D01*
X27775Y-9500D01*
X24775D02*X26275D01*
X27025Y-8750D01*
X30325Y-7250D02*Y-9500D01*
Y-7250D02*X31075Y-6500D01*
X32575D01*
X29575D02*X30325Y-7250D01*
X37375Y-3500D02*Y-9500D01*
X36625D02*X37375Y-8750D01*
X35125Y-9500D02*X36625D01*
X34375Y-8750D02*X35125Y-9500D01*
X34375Y-7250D02*Y-8750D01*
Y-7250D02*X35125Y-6500D01*
X36625D01*
X37375Y-7250D01*
X41875D02*Y-8750D01*
Y-7250D02*X42625Y-6500D01*
X44125D01*
X44875Y-7250D01*
Y-8750D01*
X44125Y-9500D02*X44875Y-8750D01*
X42625Y-9500D02*X44125D01*
X41875Y-8750D02*X42625Y-9500D01*
X46675Y-6500D02*Y-8750D01*
X47425Y-9500D01*
X48925D01*
X49675Y-8750D01*
Y-6500D02*Y-8750D01*
X52225Y-3500D02*Y-8750D01*
X52975Y-9500D01*
X51475Y-5750D02*X52975D01*
X54475Y-3500D02*Y-8750D01*
X55225Y-9500D01*
G54D55*X56725Y-5000D02*Y-5150D01*
G54D54*Y-7250D02*Y-9500D01*
X58975Y-7250D02*Y-9500D01*
Y-7250D02*X59725Y-6500D01*
X60475D01*
X61225Y-7250D01*
Y-9500D01*
X58225Y-6500D02*X58975Y-7250D01*
X63775Y-9500D02*X66025D01*
X63025Y-8750D02*X63775Y-9500D01*
X63025Y-7250D02*Y-8750D01*
Y-7250D02*X63775Y-6500D01*
X65275D01*
X66025Y-7250D01*
X63025Y-8000D02*X66025D01*
Y-7250D02*Y-8000D01*
G54D55*X70525Y-5000D02*Y-5150D01*
G54D54*Y-7250D02*Y-9500D01*
X72775D02*X75025D01*
X75775Y-8750D01*
X75025Y-8000D02*X75775Y-8750D01*
X72775Y-8000D02*X75025D01*
X72025Y-7250D02*X72775Y-8000D01*
X72025Y-7250D02*X72775Y-6500D01*
X75025D01*
X75775Y-7250D01*
X72025Y-8750D02*X72775Y-9500D01*
X81025Y-3500D02*Y-8750D01*
X81775Y-9500D01*
X80275Y-5750D02*X81775D01*
X83275Y-3500D02*Y-9500D01*
Y-7250D02*X84025Y-6500D01*
X85525D01*
X86275Y-7250D01*
Y-9500D01*
X88825D02*X91075D01*
X88075Y-8750D02*X88825Y-9500D01*
X88075Y-7250D02*Y-8750D01*
Y-7250D02*X88825Y-6500D01*
X90325D01*
X91075Y-7250D01*
X88075Y-8000D02*X91075D01*
Y-7250D02*Y-8000D01*
X96325Y-6500D02*X98575D01*
X95575Y-7250D02*X96325Y-6500D01*
X95575Y-7250D02*Y-8750D01*
X96325Y-9500D01*
X98575D01*
X101125D02*X103375D01*
X100375Y-8750D02*X101125Y-9500D01*
X100375Y-7250D02*Y-8750D01*
Y-7250D02*X101125Y-6500D01*
X102625D01*
X103375Y-7250D01*
X100375Y-8000D02*X103375D01*
Y-7250D02*Y-8000D01*
X105925Y-7250D02*Y-9500D01*
Y-7250D02*X106675Y-6500D01*
X107425D01*
X108175Y-7250D01*
Y-9500D01*
X105175Y-6500D02*X105925Y-7250D01*
X110725Y-3500D02*Y-8750D01*
X111475Y-9500D01*
X109975Y-5750D02*X111475D01*
X113725Y-9500D02*X115975D01*
X112975Y-8750D02*X113725Y-9500D01*
X112975Y-7250D02*Y-8750D01*
Y-7250D02*X113725Y-6500D01*
X115225D01*
X115975Y-7250D01*
X112975Y-8000D02*X115975D01*
Y-7250D02*Y-8000D01*
X118525Y-7250D02*Y-9500D01*
Y-7250D02*X119275Y-6500D01*
X120775D01*
X117775D02*X118525Y-7250D01*
X122575Y-3500D02*Y-8750D01*
X123325Y-9500D01*
G54D55*X124825Y-5000D02*Y-5150D01*
G54D54*Y-7250D02*Y-9500D01*
X127075Y-7250D02*Y-9500D01*
Y-7250D02*X127825Y-6500D01*
X128575D01*
X129325Y-7250D01*
Y-9500D01*
X126325Y-6500D02*X127075Y-7250D01*
X131875Y-9500D02*X134125D01*
X131125Y-8750D02*X131875Y-9500D01*
X131125Y-7250D02*Y-8750D01*
Y-7250D02*X131875Y-6500D01*
X133375D01*
X134125Y-7250D01*
X131125Y-8000D02*X134125D01*
Y-7250D02*Y-8000D01*
X138625Y-7250D02*Y-8750D01*
Y-7250D02*X139375Y-6500D01*
X140875D01*
X141625Y-7250D01*
Y-8750D01*
X140875Y-9500D02*X141625Y-8750D01*
X139375Y-9500D02*X140875D01*
X138625Y-8750D02*X139375Y-9500D01*
X144175Y-4250D02*Y-9500D01*
Y-4250D02*X144925Y-3500D01*
X145675D01*
X143425Y-6500D02*X144925D01*
X150625Y-3500D02*Y-8750D01*
X151375Y-9500D01*
X149875Y-5750D02*X151375D01*
X152875Y-3500D02*Y-9500D01*
Y-7250D02*X153625Y-6500D01*
X155125D01*
X155875Y-7250D01*
Y-9500D01*
G54D55*X157675Y-5000D02*Y-5150D01*
G54D54*Y-7250D02*Y-9500D01*
X159925D02*X162175D01*
X162925Y-8750D01*
X162175Y-8000D02*X162925Y-8750D01*
X159925Y-8000D02*X162175D01*
X159175Y-7250D02*X159925Y-8000D01*
X159175Y-7250D02*X159925Y-6500D01*
X162175D01*
X162925Y-7250D01*
X159175Y-8750D02*X159925Y-9500D01*
X168175Y-7250D02*Y-11750D01*
X167425Y-6500D02*X168175Y-7250D01*
X168925Y-6500D01*
X170425D01*
X171175Y-7250D01*
Y-8750D01*
X170425Y-9500D02*X171175Y-8750D01*
X168925Y-9500D02*X170425D01*
X168175Y-8750D02*X168925Y-9500D01*
X175225Y-6500D02*X175975Y-7250D01*
X173725Y-6500D02*X175225D01*
X172975Y-7250D02*X173725Y-6500D01*
X172975Y-7250D02*Y-8750D01*
X173725Y-9500D01*
X175975Y-6500D02*Y-8750D01*
X176725Y-9500D01*
X173725D02*X175225D01*
X175975Y-8750D01*
X179275Y-3500D02*Y-8750D01*
X180025Y-9500D01*
X178525Y-5750D02*X180025D01*
X181525Y-3500D02*Y-9500D01*
Y-7250D02*X182275Y-6500D01*
X183775D01*
X184525Y-7250D01*
Y-9500D01*
X200750Y258500D02*Y252500D01*
X202700Y258500D02*X203750Y257450D01*
Y253550D01*
X202700Y252500D02*X203750Y253550D01*
X200000Y252500D02*X202700D01*
X200000Y258500D02*X202700D01*
X207800Y255500D02*X208550Y254750D01*
X206300Y255500D02*X207800D01*
X205550Y254750D02*X206300Y255500D01*
X205550Y254750D02*Y253250D01*
X206300Y252500D01*
X208550Y255500D02*Y253250D01*
X209300Y252500D01*
X206300D02*X207800D01*
X208550Y253250D01*
X211850Y258500D02*Y253250D01*
X212600Y252500D01*
X211100Y256250D02*X212600D01*
X214850Y252500D02*X217100D01*
X214100Y253250D02*X214850Y252500D01*
X214100Y254750D02*Y253250D01*
Y254750D02*X214850Y255500D01*
X216350D01*
X217100Y254750D01*
X214100Y254000D02*X217100D01*
Y254750D02*Y254000D01*
X218900Y256250D02*X219650D01*
X218900Y254750D02*X219650D01*
X224150Y258500D02*Y252500D01*
Y258500D02*X226400Y255500D01*
X228650Y258500D01*
Y252500D01*
X230450Y254750D02*Y253250D01*
Y254750D02*X231200Y255500D01*
X232700D01*
X233450Y254750D01*
Y253250D01*
X232700Y252500D02*X233450Y253250D01*
X231200Y252500D02*X232700D01*
X230450Y253250D02*X231200Y252500D01*
X236000Y254750D02*Y252500D01*
Y254750D02*X236750Y255500D01*
X237500D01*
X238250Y254750D01*
Y252500D01*
X235250Y255500D02*X236000Y254750D01*
X245750Y258500D02*X246500Y257750D01*
X243500Y258500D02*X245750D01*
X242750Y257750D02*X243500Y258500D01*
X242750Y257750D02*Y256250D01*
X243500Y255500D01*
X245750D01*
X246500Y254750D01*
Y253250D01*
X245750Y252500D02*X246500Y253250D01*
X243500Y252500D02*X245750D01*
X242750Y253250D02*X243500Y252500D01*
X249050D02*X251300D01*
X248300Y253250D02*X249050Y252500D01*
X248300Y254750D02*Y253250D01*
Y254750D02*X249050Y255500D01*
X250550D01*
X251300Y254750D01*
X248300Y254000D02*X251300D01*
Y254750D02*Y254000D01*
X253850Y254750D02*Y250250D01*
X253100Y255500D02*X253850Y254750D01*
X254600Y255500D01*
X256100D01*
X256850Y254750D01*
Y253250D01*
X256100Y252500D02*X256850Y253250D01*
X254600Y252500D02*X256100D01*
X253850Y253250D02*X254600Y252500D01*
X261350Y257750D02*X262100Y258500D01*
X264350D01*
X265100Y257750D01*
Y256250D01*
X261350Y252500D02*X265100Y256250D01*
X261350Y252500D02*X265100D01*
X266900Y253250D02*X267650Y252500D01*
X266900Y254450D02*Y253250D01*
Y254450D02*X267950Y255500D01*
X268850D01*
X269900Y254450D01*
Y253250D01*
X269150Y252500D02*X269900Y253250D01*
X267650Y252500D02*X269150D01*
X266900Y256550D02*X267950Y255500D01*
X266900Y257750D02*Y256550D01*
Y257750D02*X267650Y258500D01*
X269150D01*
X269900Y257750D01*
Y256550D01*
X268850Y255500D02*X269900Y256550D01*
X274400Y253250D02*X275150Y252500D01*
X274400Y257750D02*Y253250D01*
Y257750D02*X275150Y258500D01*
X276650D01*
X277400Y257750D01*
Y253250D01*
X276650Y252500D02*X277400Y253250D01*
X275150Y252500D02*X276650D01*
X274400Y254000D02*X277400Y257000D01*
X279200Y254750D02*X282200Y258500D01*
X279200Y254750D02*X282950D01*
X282200Y258500D02*Y252500D01*
X284750Y256250D02*X285500D01*
X284750Y254750D02*X285500D01*
X287300Y257750D02*X288050Y258500D01*
X290300D01*
X291050Y257750D01*
Y256250D01*
X287300Y252500D02*X291050Y256250D01*
X287300Y252500D02*X291050D01*
X292850Y257750D02*X293600Y258500D01*
X295100D01*
X295850Y257750D01*
X295100Y252500D02*X295850Y253250D01*
X293600Y252500D02*X295100D01*
X292850Y253250D02*X293600Y252500D01*
Y255800D02*X295100D01*
X295850Y257750D02*Y256550D01*
Y255050D02*Y253250D01*
Y255050D02*X295100Y255800D01*
X295850Y256550D02*X295100Y255800D01*
X297650Y256250D02*X298400D01*
X297650Y254750D02*X298400D01*
X300200Y257750D02*X300950Y258500D01*
X303200D01*
X303950Y257750D01*
Y256250D01*
X300200Y252500D02*X303950Y256250D01*
X300200Y252500D02*X303950D01*
X305750Y254750D02*X308750Y258500D01*
X305750Y254750D02*X309500D01*
X308750Y258500D02*Y252500D01*
X314000Y257750D02*X314750Y258500D01*
X317000D01*
X317750Y257750D01*
Y256250D01*
X314000Y252500D02*X317750Y256250D01*
X314000Y252500D02*X317750D01*
X319550Y253250D02*X320300Y252500D01*
X319550Y257750D02*Y253250D01*
Y257750D02*X320300Y258500D01*
X321800D01*
X322550Y257750D01*
Y253250D01*
X321800Y252500D02*X322550Y253250D01*
X320300Y252500D02*X321800D01*
X319550Y254000D02*X322550Y257000D01*
X324350Y257750D02*X325100Y258500D01*
X327350D01*
X328100Y257750D01*
Y256250D01*
X324350Y252500D02*X328100Y256250D01*
X324350Y252500D02*X328100D01*
X329900Y253250D02*X330650Y252500D01*
X329900Y257750D02*Y253250D01*
Y257750D02*X330650Y258500D01*
X332150D01*
X332900Y257750D01*
Y253250D01*
X332150Y252500D02*X332900Y253250D01*
X330650Y252500D02*X332150D01*
X329900Y254000D02*X332900Y257000D01*
X337400Y258500D02*Y253250D01*
X338150Y252500D01*
X339650D01*
X340400Y253250D01*
Y258500D02*Y253250D01*
X342200Y258500D02*X345200D01*
X343700D02*Y252500D01*
X348050D02*X350000D01*
X347000Y253550D02*X348050Y252500D01*
X347000Y257450D02*Y253550D01*
Y257450D02*X348050Y258500D01*
X350000D01*
X200000Y272000D02*Y267500D01*
Y272000D02*X201050Y273500D01*
X202700D01*
X203750Y272000D01*
Y267500D01*
X200000Y270500D02*X203750D01*
X205550D02*Y268250D01*
X206300Y267500D01*
X207800D01*
X208550Y268250D01*
Y270500D02*Y268250D01*
X211100Y273500D02*Y268250D01*
X211850Y267500D01*
X210350Y271250D02*X211850D01*
X213350Y273500D02*Y267500D01*
Y269750D02*X214100Y270500D01*
X215600D01*
X216350Y269750D01*
Y267500D01*
X218150Y269750D02*Y268250D01*
Y269750D02*X218900Y270500D01*
X220400D01*
X221150Y269750D01*
Y268250D01*
X220400Y267500D02*X221150Y268250D01*
X218900Y267500D02*X220400D01*
X218150Y268250D02*X218900Y267500D01*
X223700Y269750D02*Y267500D01*
Y269750D02*X224450Y270500D01*
X225950D01*
X222950D02*X223700Y269750D01*
X227750Y271250D02*X228500D01*
X227750Y269750D02*X228500D01*
X233750Y270500D02*X236000D01*
X233000Y269750D02*X233750Y270500D01*
X233000Y269750D02*Y268250D01*
X233750Y267500D01*
X236000D01*
X237800Y269750D02*Y268250D01*
Y269750D02*X238550Y270500D01*
X240050D01*
X240800Y269750D01*
Y268250D01*
X240050Y267500D02*X240800Y268250D01*
X238550Y267500D02*X240050D01*
X237800Y268250D02*X238550Y267500D01*
X243350Y269750D02*Y267500D01*
Y269750D02*X244100Y270500D01*
X244850D01*
X245600Y269750D01*
Y267500D01*
Y269750D02*X246350Y270500D01*
X247100D01*
X247850Y269750D01*
Y267500D01*
X242600Y270500D02*X243350Y269750D01*
X250400D02*Y267500D01*
Y269750D02*X251150Y270500D01*
X251900D01*
X252650Y269750D01*
Y267500D01*
Y269750D02*X253400Y270500D01*
X254150D01*
X254900Y269750D01*
Y267500D01*
X249650Y270500D02*X250400Y269750D01*
X256700D02*Y268250D01*
Y269750D02*X257450Y270500D01*
X258950D01*
X259700Y269750D01*
Y268250D01*
X258950Y267500D02*X259700Y268250D01*
X257450Y267500D02*X258950D01*
X256700Y268250D02*X257450Y267500D01*
X262250Y269750D02*Y267500D01*
Y269750D02*X263000Y270500D01*
X263750D01*
X264500Y269750D01*
Y267500D01*
X261500Y270500D02*X262250Y269750D01*
X268550Y270500D02*X269300Y269750D01*
X267050Y270500D02*X268550D01*
X266300Y269750D02*X267050Y270500D01*
X266300Y269750D02*Y268250D01*
X267050Y267500D01*
X269300Y270500D02*Y268250D01*
X270050Y267500D01*
X267050D02*X268550D01*
X269300Y268250D01*
X274850Y273500D02*Y267500D01*
X274100D02*X274850Y268250D01*
X272600Y267500D02*X274100D01*
X271850Y268250D02*X272600Y267500D01*
X271850Y269750D02*Y268250D01*
Y269750D02*X272600Y270500D01*
X274100D01*
X274850Y269750D01*
X277400D02*Y267500D01*
Y269750D02*X278150Y270500D01*
X278900D01*
X279650Y269750D01*
Y267500D01*
Y269750D02*X280400Y270500D01*
X281150D01*
X281900Y269750D01*
Y267500D01*
X276650Y270500D02*X277400Y269750D01*
G54D55*X283700Y272000D02*Y271850D01*
G54D54*Y269750D02*Y267500D01*
X285950Y269750D02*Y267500D01*
Y269750D02*X286700Y270500D01*
X287450D01*
X288200Y269750D01*
Y267500D01*
X285200Y270500D02*X285950Y269750D01*
X200000Y288500D02*X203000D01*
X201500D02*Y282500D01*
G54D55*X204800Y287000D02*Y286850D01*
G54D54*Y284750D02*Y282500D01*
X207050Y288500D02*Y283250D01*
X207800Y282500D01*
X206300Y286250D02*X207800D01*
X209300Y288500D02*Y283250D01*
X210050Y282500D01*
X212300D02*X214550D01*
X211550Y283250D02*X212300Y282500D01*
X211550Y284750D02*Y283250D01*
Y284750D02*X212300Y285500D01*
X213800D01*
X214550Y284750D01*
X211550Y284000D02*X214550D01*
Y284750D02*Y284000D01*
X216350Y286250D02*X217100D01*
X216350Y284750D02*X217100D01*
X221600Y283250D02*X222350Y282500D01*
X221600Y287750D02*X222350Y288500D01*
X221600Y287750D02*Y283250D01*
X224150Y285500D02*Y283250D01*
X224900Y282500D01*
X226400D01*
X227150Y283250D01*
Y285500D02*Y283250D01*
X229700Y284750D02*Y282500D01*
Y284750D02*X230450Y285500D01*
X231200D01*
X231950Y284750D01*
Y282500D01*
X228950Y285500D02*X229700Y284750D01*
X233750Y288500D02*Y282500D01*
Y284750D02*X236000Y282500D01*
X233750Y284750D02*X235250Y286250D01*
X238550Y284750D02*Y282500D01*
Y284750D02*X239300Y285500D01*
X240050D01*
X240800Y284750D01*
Y282500D01*
X237800Y285500D02*X238550Y284750D01*
X242600D02*Y283250D01*
Y284750D02*X243350Y285500D01*
X244850D01*
X245600Y284750D01*
Y283250D01*
X244850Y282500D02*X245600Y283250D01*
X243350Y282500D02*X244850D01*
X242600Y283250D02*X243350Y282500D01*
X247400Y285500D02*Y283250D01*
X248150Y282500D01*
X248900D01*
X249650Y283250D01*
Y285500D02*Y283250D01*
X250400Y282500D01*
X251150D01*
X251900Y283250D01*
Y285500D02*Y283250D01*
X254450Y284750D02*Y282500D01*
Y284750D02*X255200Y285500D01*
X255950D01*
X256700Y284750D01*
Y282500D01*
X253700Y285500D02*X254450Y284750D01*
X258500Y288500D02*X259250Y287750D01*
Y283250D01*
X258500Y282500D02*X259250Y283250D01*
X263750Y285500D02*X266750D01*
X271250Y288500D02*Y282500D01*
Y288500D02*X274250D01*
X271250Y285800D02*X273500D01*
X278300Y285500D02*X279050Y284750D01*
X276800Y285500D02*X278300D01*
X276050Y284750D02*X276800Y285500D01*
X276050Y284750D02*Y283250D01*
X276800Y282500D01*
X279050Y285500D02*Y283250D01*
X279800Y282500D01*
X276800D02*X278300D01*
X279050Y283250D01*
X281600Y288500D02*Y282500D01*
Y283250D02*X282350Y282500D01*
X283850D01*
X284600Y283250D01*
Y284750D02*Y283250D01*
X283850Y285500D02*X284600Y284750D01*
X282350Y285500D02*X283850D01*
X281600Y284750D02*X282350Y285500D01*
X287150Y284750D02*Y282500D01*
Y284750D02*X287900Y285500D01*
X289400D01*
X286400D02*X287150Y284750D01*
G54D55*X291200Y287000D02*Y286850D01*
G54D54*Y284750D02*Y282500D01*
X293450Y285500D02*X295700D01*
X292700Y284750D02*X293450Y285500D01*
X292700Y284750D02*Y283250D01*
X293450Y282500D01*
X295700D01*
X299750Y285500D02*X300500Y284750D01*
X298250Y285500D02*X299750D01*
X297500Y284750D02*X298250Y285500D01*
X297500Y284750D02*Y283250D01*
X298250Y282500D01*
X300500Y285500D02*Y283250D01*
X301250Y282500D01*
X298250D02*X299750D01*
X300500Y283250D01*
X303800Y288500D02*Y283250D01*
X304550Y282500D01*
X303050Y286250D02*X304550D01*
G54D55*X306050Y287000D02*Y286850D01*
G54D54*Y284750D02*Y282500D01*
X307550Y284750D02*Y283250D01*
Y284750D02*X308300Y285500D01*
X309800D01*
X310550Y284750D01*
Y283250D01*
X309800Y282500D02*X310550Y283250D01*
X308300Y282500D02*X309800D01*
X307550Y283250D02*X308300Y282500D01*
X313100Y284750D02*Y282500D01*
Y284750D02*X313850Y285500D01*
X314600D01*
X315350Y284750D01*
Y282500D01*
X312350Y285500D02*X313100Y284750D01*
X320600Y288500D02*Y282500D01*
X322550Y288500D02*X323600Y287450D01*
Y283550D01*
X322550Y282500D02*X323600Y283550D01*
X319850Y282500D02*X322550D01*
X319850Y288500D02*X322550D01*
X326150Y284750D02*Y282500D01*
Y284750D02*X326900Y285500D01*
X328400D01*
X325400D02*X326150Y284750D01*
X332450Y285500D02*X333200Y284750D01*
X330950Y285500D02*X332450D01*
X330200Y284750D02*X330950Y285500D01*
X330200Y284750D02*Y283250D01*
X330950Y282500D01*
X333200Y285500D02*Y283250D01*
X333950Y282500D01*
X330950D02*X332450D01*
X333200Y283250D01*
X335750Y285500D02*Y283250D01*
X336500Y282500D01*
X337250D01*
X338000Y283250D01*
Y285500D02*Y283250D01*
X338750Y282500D01*
X339500D01*
X340250Y283250D01*
Y285500D02*Y283250D01*
G54D55*X342050Y287000D02*Y286850D01*
G54D54*Y284750D02*Y282500D01*
X344300Y284750D02*Y282500D01*
Y284750D02*X345050Y285500D01*
X345800D01*
X346550Y284750D01*
Y282500D01*
X343550Y285500D02*X344300Y284750D01*
X350600Y285500D02*X351350Y284750D01*
X349100Y285500D02*X350600D01*
X348350Y284750D02*X349100Y285500D01*
X348350Y284750D02*Y283250D01*
X349100Y282500D01*
X350600D01*
X351350Y283250D01*
X348350Y281000D02*X349100Y280250D01*
X350600D01*
X351350Y281000D01*
Y285500D02*Y281000D01*
M02*
