G04 start of page 3 for group 1 idx 12 *
G04 Title: (unknown), outline *
G04 Creator: pcb 4.2.0 *
G04 CreationDate: Mon Sep  7 06:55:59 2020 UTC *
G04 For: commonadmin *
G04 Format: Gerber/RS-274X *
G04 PCB-Dimensions (mil): 18000.00 11000.00 *
G04 PCB-Coordinate-Origin: lower left *
%MOIN*%
%FSLAX25Y25*%
%LNOUTLINE*%
%ADD25C,0.0100*%
G54D25*X772500Y512500D02*X863000D01*
X838000Y413000D02*Y461000D01*
Y413000D02*X863000D01*
Y512500D02*Y413000D01*
X962000Y263500D02*Y668500D01*
X772500D02*X962000D01*
Y721500D02*X772500D01*
X838000Y461000D02*X774500D01*
Y483000D01*
X746500D01*
X793000Y425500D02*Y375500D01*
X772500Y512500D02*Y668500D01*
Y721500D02*Y799000D01*
X962000Y263500D02*X828500D01*
Y287500D01*
X1040000Y584000D02*X1401000D01*
X1446000Y607000D02*X1026000D01*
X1401000Y584000D02*Y563500D01*
X1026000Y607000D02*Y706000D01*
X1401000D01*
Y683000D01*
X1446000Y727000D02*X1012000D01*
Y785000D02*X1093000D01*
X1401000Y563500D02*X1446000D01*
Y607000D01*
X1401000Y683000D02*X1446000D01*
Y727000D01*
X1093000Y785000D02*Y818000D01*
X1401000D01*
Y803000D01*
X1446000D01*
X1075500Y847000D02*X1446000D01*
Y824000D02*X1469500D01*
X1000000Y1032000D02*Y996000D01*
Y851500D02*Y830500D01*
Y996000D02*X1027500D01*
Y851500D01*
X1000000D01*
Y830500D02*X962000D01*
Y721500D01*
X1446000Y923500D02*Y847000D01*
Y923500D02*X1401000D01*
Y962500D01*
X1469500D02*X1401000D01*
X1189500Y1027500D02*X1446000D01*
Y1100000D02*X1047500D01*
X1047000Y1099500D01*
Y1032000D01*
X1000000D01*
X1446000Y1027500D02*Y1100000D01*
Y803000D02*Y824000D01*
X1469500D02*Y962500D01*
X668500Y733000D02*Y809000D01*
X691500D01*
Y733000D01*
X753500Y799000D02*X772500D01*
X743000Y682500D02*Y712000D01*
X691500Y733000D02*X753500D01*
Y799000D01*
X743000Y712000D02*X663500D01*
Y722500D01*
X746500Y604000D02*X536500D01*
X743000Y682500D02*X401000D01*
X536500Y604000D02*Y630000D01*
X401000D01*
X371000Y683000D02*Y584000D01*
X294000D02*X371000D01*
X291000D02*Y563500D01*
X370000D02*X291000D01*
Y584000D02*X294500D01*
X451500Y749000D02*X435000D01*
X451500D02*Y733000D01*
X668500D01*
X663500Y722500D02*X435000D01*
X117500Y719000D02*X379500D01*
X435000Y722500D02*Y749000D01*
X1012000Y727000D02*Y785000D01*
X749000Y659500D02*Y615000D01*
X697000D01*
X749000Y659500D02*X697000D01*
Y615000D02*Y617500D01*
X699500Y620000D01*
Y631500D01*
X697000Y634000D01*
Y659500D01*
X746500Y483000D02*Y604000D01*
X1075500Y847000D02*Y981500D01*
X1189500D01*
Y1027500D01*
X697000Y455500D02*Y396500D01*
X727500D01*
Y425500D01*
X793000D01*
Y375500D02*X625500D01*
X828500Y287500D02*X545500D01*
Y175500D02*X1040000D01*
Y584000D01*
X625500Y375500D02*Y410500D01*
X591000D01*
Y415500D01*
X507000D01*
Y429000D01*
X545500Y287500D02*Y175500D01*
X507000Y429000D02*X370000D01*
X697000Y455500D02*X401000D01*
X370000Y429000D02*Y563500D01*
X401000Y630000D02*Y455500D01*
Y848500D02*X381000D01*
X379500Y719000D02*Y829500D01*
X304000D01*
X104500Y695000D02*X279500D01*
Y683000D01*
X371000D01*
X304000Y829500D02*Y803500D01*
X279500D01*
Y813000D01*
X123500D01*
Y794500D02*X117500D01*
X401000Y848500D02*Y682500D01*
X104500Y947000D02*Y695000D01*
X117500Y794500D02*Y719000D01*
X123500Y813000D02*Y794500D01*
X408000Y1073000D02*X100500D01*
Y1047500D01*
X71500D01*
X408000Y1027500D02*X354000D01*
Y947000D02*X104500D01*
X71500Y1047500D02*Y1100000D01*
X442000D01*
Y1001500D01*
X381000Y848500D02*Y1001500D01*
X442000D02*X381000D01*
X408000Y1073000D02*Y1027500D01*
X354000D02*Y947000D01*
M02*
