<?xml version="1.0" encoding="UTF-8"?>
<svg xmlns="http://www.w3.org/2000/svg" xmlns:xlink="http://www.w3.org/1999/xlink" width="70pt" height="75pt" viewBox="0 0 70 75" version="1.1">
<g id="surface1">
<path style="fill:none;stroke-width:0.006;stroke-linecap:round;stroke-linejoin:miter;stroke:rgb(100%,49.803922%,45.098039%);stroke-opacity:1;stroke-miterlimit:10;" d="M 0.0900203 0.429989 L 0.00999644 0.429989 " transform="matrix(72,0,0,-72,1.1826,75.8694)"/>
<path style="fill:none;stroke-width:0.006;stroke-linecap:round;stroke-linejoin:miter;stroke:rgb(100%,49.803922%,45.098039%);stroke-opacity:1;stroke-miterlimit:10;" d="M 0.00999644 0.429989 L 0.00999644 0.0400155 " transform="matrix(72,0,0,-72,1.1826,75.8694)"/>
<path style="fill:none;stroke-width:0.006;stroke-linecap:round;stroke-linejoin:miter;stroke:rgb(100%,49.803922%,45.098039%);stroke-opacity:1;stroke-miterlimit:10;" d="M 0.00999644 0.0400155 L 0.940009 0.0400155 " transform="matrix(72,0,0,-72,1.1826,75.8694)"/>
<path style="fill:none;stroke-width:0.006;stroke-linecap:round;stroke-linejoin:miter;stroke:rgb(100%,49.803922%,45.098039%);stroke-opacity:1;stroke-miterlimit:10;" d="M 0.940009 0.429989 L 0.940009 0.0400155 " transform="matrix(72,0,0,-72,1.1826,75.8694)"/>
<path style="fill:none;stroke-width:0.006;stroke-linecap:round;stroke-linejoin:miter;stroke:rgb(100%,49.803922%,45.098039%);stroke-opacity:1;stroke-miterlimit:10;" d="M 0.0900203 1.029979 L 0.0900203 0.429989 " transform="matrix(72,0,0,-72,1.1826,75.8694)"/>
<path style="fill:none;stroke-width:0.006;stroke-linecap:round;stroke-linejoin:miter;stroke:rgb(100%,49.803922%,45.098039%);stroke-opacity:1;stroke-miterlimit:10;" d="M 0.0900203 1.029979 L 0.910007 1.029979 " transform="matrix(72,0,0,-72,1.1826,75.8694)"/>
<path style="fill:none;stroke-width:0.006;stroke-linecap:round;stroke-linejoin:miter;stroke:rgb(100%,49.803922%,45.098039%);stroke-opacity:1;stroke-miterlimit:10;" d="M 0.910007 1.029979 L 0.910007 0.429989 " transform="matrix(72,0,0,-72,1.1826,75.8694)"/>
<path style="fill:none;stroke-width:0.006;stroke-linecap:round;stroke-linejoin:miter;stroke:rgb(100%,49.803922%,45.098039%);stroke-opacity:1;stroke-miterlimit:10;" d="M 0.910007 0.429989 L 0.940009 0.429989 " transform="matrix(72,0,0,-72,1.1826,75.8694)"/>
<path style=" stroke:none;fill-rule:evenodd;fill:rgb(45.098039%,45.098039%,87.058824%);fill-opacity:1;" d="M 24.582031 55.347656 C 24.582031 54.871094 23.863281 54.871094 23.863281 55.347656 C 23.863281 55.828125 24.582031 55.828125 24.582031 55.347656 "/>
<path style=" stroke:none;fill-rule:evenodd;fill:rgb(45.098039%,45.098039%,87.058824%);fill-opacity:1;" d="M 27.101562 51.390625 C 27.101562 50.910156 26.382812 50.910156 26.382812 51.390625 C 26.382812 51.871094 27.101562 51.871094 27.101562 51.390625 "/>
<path style=" stroke:none;fill-rule:evenodd;fill:rgb(45.098039%,45.098039%,87.058824%);fill-opacity:1;" d="M 29.621094 47.789062 C 29.621094 47.308594 28.902344 47.308594 28.902344 47.789062 C 28.902344 48.269531 29.621094 48.269531 29.621094 47.789062 "/>
<path style=" stroke:none;fill-rule:evenodd;fill:rgb(45.098039%,45.098039%,87.058824%);fill-opacity:1;" d="M 29.621094 50.667969 C 29.621094 50.1875 28.902344 50.1875 28.902344 50.667969 C 28.902344 51.148438 29.621094 51.148438 29.621094 50.667969 "/>
<path style=" stroke:none;fill-rule:evenodd;fill:rgb(45.098039%,45.098039%,87.058824%);fill-opacity:1;" d="M 34.300781 52.46875 C 34.300781 51.988281 33.582031 51.988281 33.582031 52.46875 C 33.582031 52.949219 34.300781 52.949219 34.300781 52.46875 "/>
<path style=" stroke:none;fill-rule:evenodd;fill:rgb(45.098039%,45.098039%,87.058824%);fill-opacity:1;" d="M 40.421875 55.347656 C 40.421875 54.871094 39.703125 54.871094 39.703125 55.347656 C 39.703125 55.828125 40.421875 55.828125 40.421875 55.347656 "/>
<path style=" stroke:none;fill-rule:evenodd;fill:rgb(45.098039%,45.098039%,87.058824%);fill-opacity:1;" d="M 42.941406 49.230469 C 42.941406 48.75 42.222656 48.75 42.222656 49.230469 C 42.222656 49.710938 42.941406 49.710938 42.941406 49.230469 "/>
<path style=" stroke:none;fill-rule:evenodd;fill:rgb(45.098039%,45.098039%,87.058824%);fill-opacity:1;" d="M 45.460938 55.347656 C 45.460938 54.871094 44.742188 54.871094 44.742188 55.347656 C 44.742188 55.828125 45.460938 55.828125 45.460938 55.347656 "/>
<path style=" stroke:none;fill-rule:evenodd;fill:rgb(45.098039%,45.098039%,87.058824%);fill-opacity:1;" d="M 20.515625 34.902344 C 20.515625 34.277344 19.578125 34.277344 19.578125 34.902344 C 19.578125 35.527344 20.515625 35.527344 20.515625 34.902344 "/>
<path style=" stroke:none;fill-rule:evenodd;fill:rgb(45.098039%,45.098039%,87.058824%);fill-opacity:1;" d="M 21.449219 29.789062 C 21.449219 29.164062 20.515625 29.164062 20.515625 29.789062 C 20.515625 30.414062 21.449219 30.414062 21.449219 29.789062 "/>
<path style=" stroke:none;fill-rule:evenodd;fill:rgb(45.098039%,45.098039%,87.058824%);fill-opacity:1;" d="M 25.625 31.300781 C 25.625 30.675781 24.691406 30.675781 24.691406 31.300781 C 24.691406 31.925781 25.625 31.925781 25.625 31.300781 "/>
<path style=" stroke:none;fill-rule:evenodd;fill:rgb(45.098039%,45.098039%,87.058824%);fill-opacity:1;" d="M 30.089844 30.871094 C 30.089844 30.246094 29.15625 30.246094 29.15625 30.871094 C 29.15625 31.492188 30.089844 31.492188 30.089844 30.871094 "/>
<path style=" stroke:none;fill-rule:evenodd;fill:rgb(45.098039%,45.098039%,87.058824%);fill-opacity:1;" d="M 31.53125 42.75 C 31.53125 42.125 30.59375 42.125 30.59375 42.75 C 30.59375 43.375 31.53125 43.375 31.53125 42.75 "/>
<path style=" stroke:none;fill-rule:evenodd;fill:rgb(45.098039%,45.098039%,87.058824%);fill-opacity:1;" d="M 31.960938 24.675781 C 31.960938 24.054688 31.027344 24.054688 31.027344 24.675781 C 31.027344 25.300781 31.960938 25.300781 31.960938 24.675781 "/>
<path style=" stroke:none;fill-rule:evenodd;fill:rgb(45.098039%,45.098039%,87.058824%);fill-opacity:1;" d="M 34.050781 30.507812 C 34.050781 29.886719 33.113281 29.886719 33.113281 30.507812 C 33.113281 31.132812 34.050781 31.132812 34.050781 30.507812 "/>
<path style=" stroke:none;fill-rule:evenodd;fill:rgb(45.098039%,45.098039%,87.058824%);fill-opacity:1;" d="M 38.011719 31.375 C 38.011719 30.75 37.074219 30.75 37.074219 31.375 C 37.074219 31.996094 38.011719 31.996094 38.011719 31.375 "/>
<path style=" stroke:none;fill-rule:evenodd;fill:rgb(45.098039%,45.098039%,87.058824%);fill-opacity:1;" d="M 42.332031 35.910156 C 42.332031 35.285156 41.394531 35.285156 41.394531 35.910156 C 41.394531 36.535156 42.332031 36.535156 42.332031 35.910156 "/>
<path style=" stroke:none;fill-rule:evenodd;fill:rgb(45.098039%,45.098039%,87.058824%);fill-opacity:1;" d="M 43.050781 31.589844 C 43.050781 30.964844 42.113281 30.964844 42.113281 31.589844 C 42.113281 32.214844 43.050781 32.214844 43.050781 31.589844 "/>
<path style=" stroke:none;fill-rule:evenodd;fill:rgb(45.098039%,45.098039%,87.058824%);fill-opacity:1;" d="M 13.71875 64.753906 C 13.71875 63.792969 12.277344 63.792969 12.277344 64.753906 C 12.277344 65.710938 13.71875 65.710938 13.71875 64.753906 "/>
<path style=" stroke:none;fill-rule:evenodd;fill:rgb(45.098039%,45.098039%,87.058824%);fill-opacity:1;" d="M 24.15625 64.753906 C 24.15625 63.792969 22.71875 63.792969 22.71875 64.753906 C 22.71875 65.710938 24.15625 65.710938 24.15625 64.753906 "/>
<path style=" stroke:none;fill-rule:evenodd;fill:rgb(45.098039%,45.098039%,87.058824%);fill-opacity:1;" d="M 34.597656 64.753906 C 34.597656 63.792969 33.15625 63.792969 33.15625 64.753906 C 33.15625 65.710938 34.597656 65.710938 34.597656 64.753906 "/>
<path style=" stroke:none;fill-rule:evenodd;fill:rgb(45.098039%,45.098039%,87.058824%);fill-opacity:1;" d="M 45.039062 64.753906 C 45.039062 63.792969 43.597656 63.792969 43.597656 64.753906 C 43.597656 65.710938 45.039062 65.710938 45.039062 64.753906 "/>
<path style=" stroke:none;fill-rule:evenodd;fill:rgb(45.098039%,45.098039%,87.058824%);fill-opacity:1;" d="M 55.476562 64.753906 C 55.476562 63.792969 54.039062 63.792969 54.039062 64.753906 C 54.039062 65.710938 55.476562 65.710938 55.476562 64.753906 "/>
<path style=" stroke:none;fill-rule:evenodd;fill:rgb(45.098039%,45.098039%,87.058824%);fill-opacity:1;" d="M 65.917969 64.753906 C 65.917969 63.792969 64.476562 63.792969 64.476562 64.753906 C 64.476562 65.710938 65.917969 65.710938 65.917969 64.753906 "/>
<path style=" stroke:none;fill-rule:evenodd;fill:rgb(45.098039%,45.098039%,87.058824%);fill-opacity:1;" d="M 11.523438 62.484375 C 11.523438 61.042969 9.363281 61.042969 9.363281 62.484375 C 9.363281 63.925781 11.523438 63.925781 11.523438 62.484375 "/>
<path style=" stroke:none;fill-rule:evenodd;fill:rgb(45.098039%,45.098039%,87.058824%);fill-opacity:1;" d="M 21.960938 62.484375 C 21.960938 61.042969 19.800781 61.042969 19.800781 62.484375 C 19.800781 63.925781 21.960938 63.925781 21.960938 62.484375 "/>
<path style=" stroke:none;fill-rule:evenodd;fill:rgb(45.098039%,45.098039%,87.058824%);fill-opacity:1;" d="M 32.402344 62.484375 C 32.402344 61.042969 30.242188 61.042969 30.242188 62.484375 C 30.242188 63.925781 32.402344 63.925781 32.402344 62.484375 "/>
<path style=" stroke:none;fill-rule:evenodd;fill:rgb(45.098039%,45.098039%,87.058824%);fill-opacity:1;" d="M 42.84375 62.484375 C 42.84375 61.042969 40.683594 61.042969 40.683594 62.484375 C 40.683594 63.925781 42.84375 63.925781 42.84375 62.484375 "/>
<path style=" stroke:none;fill-rule:evenodd;fill:rgb(45.098039%,45.098039%,87.058824%);fill-opacity:1;" d="M 53.28125 62.484375 C 53.28125 61.042969 51.121094 61.042969 51.121094 62.484375 C 51.121094 63.925781 53.28125 63.925781 53.28125 62.484375 "/>
<path style=" stroke:none;fill-rule:evenodd;fill:rgb(45.098039%,45.098039%,87.058824%);fill-opacity:1;" d="M 63.722656 62.484375 C 63.722656 61.042969 61.5625 61.042969 61.5625 62.484375 C 61.5625 63.925781 63.722656 63.925781 63.722656 62.484375 "/>
<path style=" stroke:none;fill-rule:evenodd;fill:rgb(45.098039%,45.098039%,87.058824%);fill-opacity:1;" d="M 14.292969 41.65625 C 14.292969 39.976562 11.773438 39.976562 11.773438 41.65625 C 11.773438 43.335938 14.292969 43.335938 14.292969 41.65625 "/>
<path style=" stroke:none;fill-rule:evenodd;fill:rgb(45.098039%,45.098039%,87.058824%);fill-opacity:1;" d="M 21.523438 41.65625 C 21.523438 39.976562 19.003906 39.976562 19.003906 41.65625 C 19.003906 43.335938 21.523438 43.335938 21.523438 41.65625 "/>
<path style=" stroke:none;fill-rule:evenodd;fill:rgb(45.098039%,45.098039%,87.058824%);fill-opacity:1;" d="M 24.015625 22.921875 C 24.015625 21.242188 21.492188 21.242188 21.492188 22.921875 C 21.492188 24.601562 24.015625 24.601562 24.015625 22.921875 "/>
<path style=" stroke:none;fill-rule:evenodd;fill:rgb(45.098039%,45.098039%,87.058824%);fill-opacity:1;" d="M 26.90625 28.019531 C 26.90625 26.339844 24.386719 26.339844 24.386719 28.019531 C 24.386719 29.699219 26.90625 29.699219 26.90625 28.019531 "/>
<path style=" stroke:none;fill-rule:evenodd;fill:rgb(45.098039%,45.098039%,87.058824%);fill-opacity:1;" d="M 29.796875 22.921875 C 29.796875 21.242188 27.277344 21.242188 27.277344 22.921875 C 27.277344 24.601562 29.796875 24.601562 29.796875 22.921875 "/>
<path style=" stroke:none;fill-rule:evenodd;fill:rgb(45.098039%,45.098039%,87.058824%);fill-opacity:1;" d="M 32.691406 28.019531 C 32.691406 26.339844 30.167969 26.339844 30.167969 28.019531 C 30.167969 29.699219 32.691406 29.699219 32.691406 28.019531 "/>
<path style=" stroke:none;fill-rule:evenodd;fill:rgb(45.098039%,45.098039%,87.058824%);fill-opacity:1;" d="M 35.578125 22.921875 C 35.578125 21.242188 33.058594 21.242188 33.058594 22.921875 C 33.058594 24.601562 35.578125 24.601562 35.578125 22.921875 "/>
<path style=" stroke:none;fill-rule:evenodd;fill:rgb(45.098039%,45.098039%,87.058824%);fill-opacity:1;" d="M 38.472656 28.019531 C 38.472656 26.339844 35.953125 26.339844 35.953125 28.019531 C 35.953125 29.699219 38.472656 29.699219 38.472656 28.019531 "/>
<path style=" stroke:none;fill-rule:evenodd;fill:rgb(45.098039%,45.098039%,87.058824%);fill-opacity:1;" d="M 41.367188 22.921875 C 41.367188 21.242188 38.847656 21.242188 38.847656 22.921875 C 38.847656 24.601562 41.367188 24.601562 41.367188 22.921875 "/>
<path style=" stroke:none;fill-rule:evenodd;fill:rgb(45.098039%,45.098039%,87.058824%);fill-opacity:1;" d="M 44.253906 28.019531 C 44.253906 26.339844 41.734375 26.339844 41.734375 28.019531 C 41.734375 29.699219 44.253906 29.699219 44.253906 28.019531 "/>
<path style=" stroke:none;fill-rule:evenodd;fill:rgb(45.098039%,45.098039%,87.058824%);fill-opacity:1;" d="M 46.75 41.65625 C 46.75 39.976562 44.230469 39.976562 44.230469 41.65625 C 44.230469 43.335938 46.75 43.335938 46.75 41.65625 "/>
<path style=" stroke:none;fill-rule:evenodd;fill:rgb(45.098039%,45.098039%,87.058824%);fill-opacity:1;" d="M 53.972656 41.65625 C 53.972656 39.976562 51.453125 39.976562 51.453125 41.65625 C 51.453125 43.335938 53.972656 43.335938 53.972656 41.65625 "/>
<path style=" stroke:none;fill-rule:evenodd;fill:rgb(45.098039%,45.098039%,87.058824%);fill-opacity:1;" d="M 7.957031 62.203125 C 7.957031 59.851562 4.429688 59.851562 4.429688 62.203125 C 4.429688 64.554688 7.957031 64.554688 7.957031 62.203125 "/>
<path style=" stroke:none;fill-rule:evenodd;fill:rgb(45.098039%,45.098039%,87.058824%);fill-opacity:1;" d="M 18.398438 62.203125 C 18.398438 59.851562 14.871094 59.851562 14.871094 62.203125 C 14.871094 64.554688 18.398438 64.554688 18.398438 62.203125 "/>
<path style=" stroke:none;fill-rule:evenodd;fill:rgb(45.098039%,45.098039%,87.058824%);fill-opacity:1;" d="M 28.835938 62.203125 C 28.835938 59.851562 25.308594 59.851562 25.308594 62.203125 C 25.308594 64.554688 28.835938 64.554688 28.835938 62.203125 "/>
<path style=" stroke:none;fill-rule:evenodd;fill:rgb(45.098039%,45.098039%,87.058824%);fill-opacity:1;" d="M 39.277344 62.203125 C 39.277344 59.851562 35.75 59.851562 35.75 62.203125 C 35.75 64.554688 39.277344 64.554688 39.277344 62.203125 "/>
<path style=" stroke:none;fill-rule:evenodd;fill:rgb(45.098039%,45.098039%,87.058824%);fill-opacity:1;" d="M 49.71875 62.203125 C 49.71875 59.851562 46.191406 59.851562 46.191406 62.203125 C 46.191406 64.554688 49.71875 64.554688 49.71875 62.203125 "/>
<path style=" stroke:none;fill-rule:evenodd;fill:rgb(45.098039%,45.098039%,87.058824%);fill-opacity:1;" d="M 60.15625 62.203125 C 60.15625 59.851562 56.628906 59.851562 56.628906 62.203125 C 56.628906 64.554688 60.15625 64.554688 60.15625 62.203125 "/>
<path style=" stroke:none;fill-rule:evenodd;fill:rgb(45.098039%,45.098039%,87.058824%);fill-opacity:1;" d="M 16.570312 15.75 C 16.570312 13.300781 12.898438 13.300781 12.898438 15.75 C 12.898438 18.199219 16.570312 18.199219 16.570312 15.75 "/>
<path style=" stroke:none;fill-rule:evenodd;fill:rgb(45.098039%,45.098039%,87.058824%);fill-opacity:1;" d="M 52.851562 15.75 C 52.851562 13.300781 49.179688 13.300781 49.179688 15.75 C 49.179688 18.199219 52.851562 18.199219 52.851562 15.75 "/>
<path style=" stroke:none;fill-rule:evenodd;fill:rgb(45.098039%,45.098039%,87.058824%);fill-opacity:1;" d="M 11.585938 67.589844 C 11.585938 63.796875 5.898438 63.796875 5.898438 67.589844 C 5.898438 71.382812 11.585938 71.382812 11.585938 67.589844 "/>
<path style=" stroke:none;fill-rule:evenodd;fill:rgb(45.098039%,45.098039%,87.058824%);fill-opacity:1;" d="M 22.027344 67.589844 C 22.027344 63.796875 16.339844 63.796875 16.339844 67.589844 C 16.339844 71.382812 22.027344 71.382812 22.027344 67.589844 "/>
<path style=" stroke:none;fill-rule:evenodd;fill:rgb(45.098039%,45.098039%,87.058824%);fill-opacity:1;" d="M 32.464844 67.589844 C 32.464844 63.796875 26.777344 63.796875 26.777344 67.589844 C 26.777344 71.382812 32.464844 71.382812 32.464844 67.589844 "/>
<path style=" stroke:none;fill-rule:evenodd;fill:rgb(45.098039%,45.098039%,87.058824%);fill-opacity:1;" d="M 42.90625 67.589844 C 42.90625 63.796875 37.21875 63.796875 37.21875 67.589844 C 37.21875 71.382812 42.90625 71.382812 42.90625 67.589844 "/>
<path style=" stroke:none;fill-rule:evenodd;fill:rgb(45.098039%,45.098039%,87.058824%);fill-opacity:1;" d="M 53.347656 67.589844 C 53.347656 63.796875 47.660156 63.796875 47.660156 67.589844 C 47.660156 71.382812 53.347656 71.382812 53.347656 67.589844 "/>
<path style=" stroke:none;fill-rule:evenodd;fill:rgb(45.098039%,45.098039%,87.058824%);fill-opacity:1;" d="M 63.785156 67.589844 C 63.785156 63.796875 58.097656 63.796875 58.097656 67.589844 C 58.097656 71.382812 63.785156 71.382812 63.785156 67.589844 "/>
<path style=" stroke:none;fill-rule:evenodd;fill:rgb(45.098039%,45.098039%,87.058824%);fill-opacity:1;" d="M 17.546875 25.46875 C 17.546875 20.957031 10.78125 20.957031 10.78125 25.46875 C 10.78125 29.980469 17.546875 29.980469 17.546875 25.46875 "/>
<path style=" stroke:none;fill-rule:evenodd;fill:rgb(45.098039%,45.098039%,87.058824%);fill-opacity:1;" d="M 54.964844 25.46875 C 54.964844 20.957031 48.199219 20.957031 48.199219 25.46875 C 48.199219 29.980469 54.964844 29.980469 54.964844 25.46875 "/>
</g>
</svg>
