G04 This is an RS-274x file exported by *
G04 gerbv version 2.7.0 *
G04 More information is available about gerbv at *
G04 http://gerbv.geda-project.org/ *
G04 --End of header info--*
%MOIN*%
%FSLAX36Y36*%
%IPPOS*%
G04 --Define apertures--*
%ADD10C,0.0080*%
%ADD11C,0.0060*%
%ADD12C,0.0100*%
%ADD13C,0.1005*%
%ADD14C,0.0729*%
%ADD15C,0.0532*%
%ADD16C,0.0454*%
%ADD17C,0.1162*%
%ADD18C,0.0572*%
%ADD19C,0.0001*%
%ADD20C,0.0200*%
%ADD21C,0.0180*%
%ADD22C,0.0790*%
%ADD23C,0.0490*%
%ADD24C,0.0300*%
%ADD25C,0.0510*%
%ADD26C,0.0940*%
%ADD27C,0.0350*%
%ADD28C,0.0130*%
G04 --Start main section--*
G54D10*
G01X0142450Y0578500D02*
G01X0142450Y0570640D01*
G01X0197550Y0578500D02*
G01X0197550Y0570640D01*
G54D11*
G01X0513000Y0627500D02*
G01X0521000Y0635500D01*
G01X0513000Y0627500D02*
G01X0513000Y0592500D01*
G01X0520000Y0585500D02*
G01X0513000Y0592500D01*
G01X0553000Y0593500D02*
G01X0546000Y0586500D01*
G01X0553000Y0628500D02*
G01X0553000Y0593500D01*
G01X0546000Y0635500D02*
G01X0553000Y0628500D01*
G01X0576000Y0607500D02*
G01X0584000Y0615500D01*
G01X0576000Y0607500D02*
G01X0576000Y0572500D01*
G01X0583000Y0565500D02*
G01X0576000Y0572500D01*
G01X0616000Y0573500D02*
G01X0609000Y0566500D01*
G01X0616000Y0608500D02*
G01X0616000Y0573500D01*
G01X0609000Y0615500D02*
G01X0616000Y0608500D01*
G54D10*
G01X0627450Y0578500D02*
G01X0627450Y0570640D01*
G01X0682550Y0578500D02*
G01X0682550Y0570640D01*
G54D11*
G01X0336000Y0616500D02*
G01X0344000Y0624500D01*
G01X0336000Y0616500D02*
G01X0336000Y0581500D01*
G01X0343000Y0574500D02*
G01X0336000Y0581500D01*
G01X0376000Y0582500D02*
G01X0369000Y0575500D01*
G01X0376000Y0617500D02*
G01X0376000Y0582500D01*
G01X0369000Y0624500D02*
G01X0376000Y0617500D01*
G54D12*
G01X0331000Y0446000D02*
G01X0423000Y0446000D01*
G01X0461000Y0446000D02*
G01X0554000Y0446000D01*
G01X0554000Y0564000D02*
G01X0554000Y0446000D01*
G01X0331000Y0564000D02*
G01X0554000Y0564000D01*
G01X0331000Y0564000D02*
G01X0331000Y0446000D01*
G01X0461000Y0446000D02*
G75*
G03X0423000Y0446000I-019000J0000000D01*
G54D11*
G01X0393000Y0617500D02*
G01X0401000Y0625500D01*
G01X0393000Y0617500D02*
G01X0393000Y0582500D01*
G01X0400000Y0575500D02*
G01X0393000Y0582500D01*
G01X0433000Y0583500D02*
G01X0426000Y0576500D01*
G01X0433000Y0618500D02*
G01X0433000Y0583500D01*
G01X0426000Y0625500D02*
G01X0433000Y0618500D01*
G01X0448000Y0621000D02*
G01X0456000Y0629000D01*
G01X0448000Y0621000D02*
G01X0448000Y0586000D01*
G01X0455000Y0579000D02*
G01X0448000Y0586000D01*
G01X0488000Y0587000D02*
G01X0481000Y0580000D01*
G01X0488000Y0622000D02*
G01X0488000Y0587000D01*
G01X0481000Y0629000D02*
G01X0488000Y0622000D01*
G01X0209000Y0641000D02*
G01X0217000Y0649000D01*
G01X0209000Y0641000D02*
G01X0209000Y0606000D01*
G01X0216000Y0599000D02*
G01X0209000Y0606000D01*
G01X0249000Y0607000D02*
G01X0242000Y0600000D01*
G01X0249000Y0642000D02*
G01X0249000Y0607000D01*
G01X0242000Y0649000D02*
G01X0249000Y0642000D01*
G01X0273000Y0626000D02*
G01X0281000Y0634000D01*
G01X0273000Y0626000D02*
G01X0273000Y0591000D01*
G01X0280000Y0584000D02*
G01X0273000Y0591000D01*
G01X0313000Y0592000D02*
G01X0306000Y0585000D01*
G01X0313000Y0627000D02*
G01X0313000Y0592000D01*
G01X0306000Y0634000D02*
G01X0313000Y0627000D01*
G01X0000000Y0000000D02*
G01X0090000Y0430000D02*
G01X0010000Y0430000D01*
G01X0010000Y0430000D02*
G01X0010000Y0040000D01*
G01X0010000Y0040000D02*
G01X0940000Y0040000D01*
G01X0940000Y0430000D02*
G01X0940000Y0040000D01*
G01X0090000Y1030000D02*
G01X0090000Y0430000D01*
G01X0090000Y1030000D02*
G01X0910000Y1030000D01*
G01X0910000Y1030000D02*
G01X0910000Y0430000D01*
G01X0910000Y0430000D02*
G01X0940000Y0430000D01*
G01X0000000Y0000000D02*
G54D13*
G01X0105000Y0115000D03*
G54D14*
G01X0069570Y0189800D03*
G54D15*
G01X0128620Y0185870D03*
G54D16*
G01X0164060Y0154370D03*
G54D13*
G01X0250000Y0115000D03*
G54D14*
G01X0214570Y0189800D03*
G54D16*
G01X0309060Y0154370D03*
G54D14*
G01X0188190Y0835040D03*
G54D17*
G01X0180310Y0700000D03*
G54D18*
G01X0460240Y0735430D03*
G01X0379920Y0735430D03*
G01X0299610Y0735430D03*
G01X0615350Y0475200D03*
G01X0715750Y0475200D03*
G54D14*
G01X0692130Y0835040D03*
G54D17*
G01X0700000Y0700000D03*
G54D18*
G01X0540550Y0735430D03*
G01X0420080Y0664570D03*
G01X0339760Y0664570D03*
G01X0164570Y0475200D03*
G01X0264960Y0475200D03*
G01X0500390Y0664570D03*
G01X0580710Y0664570D03*
G54D15*
G01X0273620Y0185870D03*
G54D14*
G01X0359570Y0189800D03*
G54D15*
G01X0418620Y0185870D03*
G54D13*
G01X0395000Y0115000D03*
G54D16*
G01X0454060Y0154370D03*
G54D13*
G01X0540000Y0115000D03*
G54D16*
G01X0599060Y0154370D03*
G54D13*
G01X0685000Y0115000D03*
G54D14*
G01X0504570Y0189800D03*
G54D15*
G01X0563620Y0185870D03*
G54D14*
G01X0649570Y0189800D03*
G54D15*
G01X0708620Y0185870D03*
G54D16*
G01X0744060Y0154370D03*
G54D13*
G01X0830000Y0115000D03*
G54D16*
G01X0889060Y0154370D03*
G54D14*
G01X0794570Y0189800D03*
G54D15*
G01X0853620Y0185870D03*
G54D19*
G36*
G01X0622480Y0638590D02*
G01X0622480Y0581410D01*
G01X0687520Y0581410D01*
G01X0687520Y0638590D01*
G01X0622480Y0638590D01*
G37*
G36*
G01X0622480Y0567730D02*
G01X0622480Y0510550D01*
G01X0687520Y0510550D01*
G01X0687520Y0567730D01*
G01X0622480Y0567730D01*
G37*
G36*
G01X0503000Y0554000D02*
G01X0503000Y0536000D01*
G01X0547000Y0536000D01*
G01X0547000Y0554000D01*
G01X0503000Y0554000D01*
G37*
G36*
G01X0503000Y0534000D02*
G01X0503000Y0516000D01*
G01X0547000Y0516000D01*
G01X0547000Y0534000D01*
G01X0503000Y0534000D01*
G37*
G36*
G01X0503000Y0514000D02*
G01X0503000Y0496000D01*
G01X0547000Y0496000D01*
G01X0547000Y0514000D01*
G01X0503000Y0514000D01*
G37*
G36*
G01X0503000Y0495000D02*
G01X0503000Y0477000D01*
G01X0547000Y0477000D01*
G01X0547000Y0495000D01*
G01X0503000Y0495000D01*
G37*
G36*
G01X0503000Y0475000D02*
G01X0503000Y0457000D01*
G01X0547000Y0457000D01*
G01X0547000Y0475000D01*
G01X0503000Y0475000D01*
G37*
G54D20*
G01X0520000Y0625500D02*
G01X0520000Y0595500D01*
G01X0520000Y0625500D02*
G01X0527000Y0632500D01*
G54D19*
G36*
G01X0537000Y0647500D02*
G01X0517000Y0647500D01*
G01X0517000Y0622500D01*
G01X0537000Y0622500D01*
G01X0537000Y0647500D01*
G37*
G54D20*
G01X0520000Y0622500D02*
G01X0526000Y0616500D01*
G01X0520000Y0610500D02*
G01X0526000Y0616500D01*
G01X0520000Y0595500D02*
G01X0527000Y0588500D01*
G54D19*
G36*
G01X0537000Y0598500D02*
G01X0517000Y0598500D01*
G01X0517000Y0563500D01*
G01X0537000Y0563500D01*
G01X0537000Y0598500D01*
G37*
G54D20*
G01X0520000Y0598500D02*
G01X0526000Y0604500D01*
G01X0520000Y0610500D02*
G01X0526000Y0604500D01*
G01X0546000Y0626500D02*
G01X0546000Y0595500D01*
G01X0546000Y0597500D02*
G01X0546000Y0595500D01*
G01X0540000Y0632500D02*
G01X0546000Y0626500D01*
G54D19*
G36*
G01X0550000Y0647500D02*
G01X0530000Y0647500D01*
G01X0530000Y0622500D01*
G01X0550000Y0622500D01*
G01X0550000Y0647500D01*
G37*
G54D20*
G01X0540000Y0589500D02*
G01X0546000Y0595500D01*
G01X0539000Y0604500D02*
G01X0546000Y0597500D01*
G01X0539000Y0604500D02*
G01X0546000Y0611500D01*
G01X0539000Y0616500D02*
G01X0546000Y0609500D01*
G01X0539000Y0616500D02*
G01X0546000Y0623500D01*
G54D19*
G36*
G01X0550000Y0599500D02*
G01X0530000Y0599500D01*
G01X0530000Y0563500D01*
G01X0550000Y0563500D01*
G01X0550000Y0599500D01*
G37*
G54D20*
G01X0583000Y0605500D02*
G01X0583000Y0575500D01*
G01X0583000Y0605500D02*
G01X0590000Y0612500D01*
G54D19*
G36*
G01X0600000Y0627500D02*
G01X0580000Y0627500D01*
G01X0580000Y0602500D01*
G01X0600000Y0602500D01*
G01X0600000Y0627500D01*
G37*
G54D20*
G01X0583000Y0602500D02*
G01X0589000Y0596500D01*
G01X0583000Y0590500D02*
G01X0589000Y0596500D01*
G01X0583000Y0575500D02*
G01X0590000Y0568500D01*
G54D19*
G36*
G01X0600000Y0578500D02*
G01X0580000Y0578500D01*
G01X0580000Y0543500D01*
G01X0600000Y0543500D01*
G01X0600000Y0578500D01*
G37*
G54D20*
G01X0583000Y0578500D02*
G01X0589000Y0584500D01*
G01X0583000Y0590500D02*
G01X0589000Y0584500D01*
G01X0609000Y0606500D02*
G01X0609000Y0575500D01*
G01X0609000Y0577500D02*
G01X0609000Y0575500D01*
G01X0603000Y0612500D02*
G01X0609000Y0606500D01*
G54D19*
G36*
G01X0613000Y0627500D02*
G01X0593000Y0627500D01*
G01X0593000Y0602500D01*
G01X0613000Y0602500D01*
G01X0613000Y0627500D01*
G37*
G54D20*
G01X0603000Y0569500D02*
G01X0609000Y0575500D01*
G54D19*
G36*
G01X0613000Y0579500D02*
G01X0593000Y0579500D01*
G01X0593000Y0543500D01*
G01X0613000Y0543500D01*
G01X0613000Y0579500D01*
G37*
G54D20*
G01X0602000Y0584500D02*
G01X0609000Y0577500D01*
G01X0602000Y0584500D02*
G01X0609000Y0591500D01*
G01X0602000Y0596500D02*
G01X0609000Y0589500D01*
G01X0602000Y0596500D02*
G01X0609000Y0603500D01*
G54D19*
G36*
G01X0137480Y0638590D02*
G01X0137480Y0581410D01*
G01X0202520Y0581410D01*
G01X0202520Y0638590D01*
G01X0137480Y0638590D01*
G37*
G54D20*
G01X0216000Y0639000D02*
G01X0223000Y0646000D01*
G54D19*
G36*
G01X0233000Y0661000D02*
G01X0213000Y0661000D01*
G01X0213000Y0636000D01*
G01X0233000Y0636000D01*
G01X0233000Y0661000D01*
G37*
G54D20*
G01X0216000Y0609000D02*
G01X0223000Y0602000D01*
G54D19*
G36*
G01X0233000Y0612000D02*
G01X0213000Y0612000D01*
G01X0213000Y0577000D01*
G01X0233000Y0577000D01*
G01X0233000Y0612000D01*
G37*
G54D20*
G01X0216000Y0639000D02*
G01X0216000Y0609000D01*
G01X0216000Y0612000D02*
G01X0222000Y0618000D01*
G01X0216000Y0624000D02*
G01X0222000Y0618000D01*
G01X0216000Y0636000D02*
G01X0222000Y0630000D01*
G01X0216000Y0624000D02*
G01X0222000Y0630000D01*
G01X0242000Y0640000D02*
G01X0242000Y0609000D01*
G01X0236000Y0646000D02*
G01X0242000Y0640000D01*
G54D19*
G36*
G01X0246000Y0661000D02*
G01X0226000Y0661000D01*
G01X0226000Y0636000D01*
G01X0246000Y0636000D01*
G01X0246000Y0661000D01*
G37*
G54D20*
G01X0235000Y0618000D02*
G01X0242000Y0625000D01*
G01X0235000Y0630000D02*
G01X0242000Y0623000D01*
G01X0235000Y0630000D02*
G01X0242000Y0637000D01*
G01X0236000Y0603000D02*
G01X0242000Y0609000D01*
G54D19*
G36*
G01X0246000Y0613000D02*
G01X0226000Y0613000D01*
G01X0226000Y0577000D01*
G01X0246000Y0577000D01*
G01X0246000Y0613000D01*
G37*
G54D20*
G01X0235000Y0618000D02*
G01X0242000Y0611000D01*
G01X0242000Y0611000D02*
G01X0242000Y0609000D01*
G54D19*
G36*
G01X0137480Y0567730D02*
G01X0137480Y0510550D01*
G01X0202520Y0510550D01*
G01X0202520Y0567730D01*
G01X0137480Y0567730D01*
G37*
G36*
G01X0319130Y0515870D02*
G01X0319130Y0494130D01*
G01X0340870Y0494130D01*
G01X0340870Y0515870D01*
G01X0319130Y0515870D01*
G37*
G36*
G01X0295510Y0515870D02*
G01X0295510Y0494130D01*
G01X0317250Y0494130D01*
G01X0317250Y0515870D01*
G01X0295510Y0515870D01*
G37*
G36*
G01X0283230Y0522840D02*
G01X0283230Y0497160D01*
G01X0316770Y0497160D01*
G01X0316770Y0522840D01*
G01X0283230Y0522840D01*
G37*
G36*
G01X0283230Y0554320D02*
G01X0283230Y0528640D01*
G01X0316770Y0528640D01*
G01X0316770Y0554320D01*
G01X0283230Y0554320D01*
G37*
G36*
G01X0319130Y0575870D02*
G01X0319130Y0554130D01*
G01X0340870Y0554130D01*
G01X0340870Y0575870D01*
G01X0319130Y0575870D01*
G37*
G54D20*
G01X0280000Y0624000D02*
G01X0280000Y0594000D01*
G01X0280000Y0594000D02*
G01X0287000Y0587000D01*
G01X0280000Y0597000D02*
G01X0286000Y0603000D01*
G01X0280000Y0609000D02*
G01X0286000Y0603000D01*
G54D19*
G36*
G01X0297000Y0597000D02*
G01X0277000Y0597000D01*
G01X0277000Y0562000D01*
G01X0297000Y0562000D01*
G01X0297000Y0597000D01*
G37*
G36*
G01X0297000Y0646000D02*
G01X0277000Y0646000D01*
G01X0277000Y0621000D01*
G01X0297000Y0621000D01*
G01X0297000Y0646000D01*
G37*
G54D20*
G01X0280000Y0624000D02*
G01X0287000Y0631000D01*
G01X0280000Y0621000D02*
G01X0286000Y0615000D01*
G01X0280000Y0609000D02*
G01X0286000Y0615000D01*
G01X0306000Y0625000D02*
G01X0306000Y0594000D01*
G01X0300000Y0631000D02*
G01X0306000Y0625000D01*
G54D19*
G36*
G01X0310000Y0646000D02*
G01X0290000Y0646000D01*
G01X0290000Y0621000D01*
G01X0310000Y0621000D01*
G01X0310000Y0646000D01*
G37*
G54D20*
G01X0299000Y0603000D02*
G01X0306000Y0610000D01*
G01X0299000Y0615000D02*
G01X0306000Y0608000D01*
G01X0299000Y0615000D02*
G01X0306000Y0622000D01*
G01X0300000Y0588000D02*
G01X0306000Y0594000D01*
G54D19*
G36*
G01X0310000Y0598000D02*
G01X0290000Y0598000D01*
G01X0290000Y0562000D01*
G01X0310000Y0562000D01*
G01X0310000Y0598000D01*
G37*
G54D20*
G01X0299000Y0603000D02*
G01X0306000Y0596000D01*
G01X0306000Y0596000D02*
G01X0306000Y0594000D01*
G54D19*
G36*
G01X0319130Y0599490D02*
G01X0319130Y0577750D01*
G01X0340870Y0577750D01*
G01X0340870Y0599490D01*
G01X0319130Y0599490D01*
G37*
G54D20*
G01X0343000Y0614500D02*
G01X0343000Y0584500D01*
G01X0343000Y0584500D02*
G01X0350000Y0577500D01*
G01X0343000Y0587500D02*
G01X0349000Y0593500D01*
G01X0343000Y0599500D02*
G01X0349000Y0593500D01*
G54D19*
G36*
G01X0360000Y0587500D02*
G01X0340000Y0587500D01*
G01X0340000Y0552500D01*
G01X0360000Y0552500D01*
G01X0360000Y0587500D01*
G37*
G54D20*
G01X0343000Y0614500D02*
G01X0350000Y0621500D01*
G01X0343000Y0611500D02*
G01X0349000Y0605500D01*
G01X0343000Y0599500D02*
G01X0349000Y0605500D01*
G54D19*
G36*
G01X0329130Y0805870D02*
G01X0329130Y0784130D01*
G01X0350870Y0784130D01*
G01X0350870Y0805870D01*
G01X0329130Y0805870D01*
G37*
G36*
G01X0305510Y0805870D02*
G01X0305510Y0784130D01*
G01X0327250Y0784130D01*
G01X0327250Y0805870D01*
G01X0305510Y0805870D01*
G37*
G36*
G01X0360000Y0636500D02*
G01X0340000Y0636500D01*
G01X0340000Y0611500D01*
G01X0360000Y0611500D01*
G01X0360000Y0636500D01*
G37*
G54D20*
G01X0363000Y0621500D02*
G01X0369000Y0615500D01*
G54D19*
G36*
G01X0373000Y0636500D02*
G01X0353000Y0636500D01*
G01X0353000Y0611500D01*
G01X0373000Y0611500D01*
G01X0373000Y0636500D01*
G37*
G54D20*
G01X0369000Y0615500D02*
G01X0369000Y0584500D01*
G01X0362000Y0593500D02*
G01X0369000Y0600500D01*
G01X0362000Y0605500D02*
G01X0369000Y0598500D01*
G01X0362000Y0605500D02*
G01X0369000Y0612500D01*
G54D21*
G01X0347000Y0465000D02*
G01X0373000Y0465000D01*
G54D19*
G36*
G01X0338000Y0494000D02*
G01X0338000Y0476000D01*
G01X0382000Y0476000D01*
G01X0382000Y0494000D01*
G01X0338000Y0494000D01*
G37*
G36*
G01X0338000Y0514000D02*
G01X0338000Y0496000D01*
G01X0382000Y0496000D01*
G01X0382000Y0514000D01*
G01X0338000Y0514000D01*
G37*
G36*
G01X0338000Y0533000D02*
G01X0338000Y0515000D01*
G01X0382000Y0515000D01*
G01X0382000Y0533000D01*
G01X0338000Y0533000D01*
G37*
G36*
G01X0338000Y0553000D02*
G01X0338000Y0535000D01*
G01X0382000Y0535000D01*
G01X0382000Y0553000D01*
G01X0338000Y0553000D01*
G37*
G36*
G01X0367840Y0441770D02*
G01X0342160Y0441770D01*
G01X0342160Y0408230D01*
G01X0367840Y0408230D01*
G01X0367840Y0441770D01*
G37*
G36*
G01X0399320Y0441770D02*
G01X0373640Y0441770D01*
G01X0373640Y0408230D01*
G01X0399320Y0408230D01*
G01X0399320Y0441770D01*
G37*
G54D20*
G01X0363000Y0578500D02*
G01X0369000Y0584500D01*
G54D19*
G36*
G01X0373000Y0588500D02*
G01X0353000Y0588500D01*
G01X0353000Y0552500D01*
G01X0373000Y0552500D01*
G01X0373000Y0588500D01*
G37*
G54D20*
G01X0362000Y0593500D02*
G01X0369000Y0586500D01*
G01X0369000Y0586500D02*
G01X0369000Y0584500D01*
G01X0400000Y0615500D02*
G01X0400000Y0585500D01*
G01X0400000Y0585500D02*
G01X0407000Y0578500D01*
G01X0400000Y0588500D02*
G01X0406000Y0594500D01*
G01X0400000Y0600500D02*
G01X0406000Y0594500D01*
G01X0400000Y0600500D02*
G01X0406000Y0606500D01*
G54D19*
G36*
G01X0417000Y0588500D02*
G01X0397000Y0588500D01*
G01X0397000Y0553500D01*
G01X0417000Y0553500D01*
G01X0417000Y0588500D01*
G37*
G54D20*
G01X0400000Y0615500D02*
G01X0407000Y0622500D01*
G54D19*
G36*
G01X0417000Y0637500D02*
G01X0397000Y0637500D01*
G01X0397000Y0612500D01*
G01X0417000Y0612500D01*
G01X0417000Y0637500D01*
G37*
G54D20*
G01X0400000Y0612500D02*
G01X0406000Y0606500D01*
G01X0420000Y0579500D02*
G01X0426000Y0585500D01*
G54D19*
G36*
G01X0430000Y0589500D02*
G01X0410000Y0589500D01*
G01X0410000Y0553500D01*
G01X0430000Y0553500D01*
G01X0430000Y0589500D01*
G37*
G54D20*
G01X0419000Y0594500D02*
G01X0426000Y0587500D01*
G01X0426000Y0587500D02*
G01X0426000Y0585500D01*
G01X0426000Y0616500D02*
G01X0426000Y0585500D01*
G01X0419000Y0594500D02*
G01X0426000Y0601500D01*
G01X0419000Y0606500D02*
G01X0426000Y0599500D01*
G01X0419000Y0606500D02*
G01X0426000Y0613500D01*
G01X0420000Y0622500D02*
G01X0426000Y0616500D01*
G54D19*
G36*
G01X0430000Y0637500D02*
G01X0410000Y0637500D01*
G01X0410000Y0612500D01*
G01X0430000Y0612500D01*
G01X0430000Y0637500D01*
G37*
G36*
G01X0472000Y0641000D02*
G01X0452000Y0641000D01*
G01X0452000Y0616000D01*
G01X0472000Y0616000D01*
G01X0472000Y0641000D01*
G37*
G54D20*
G01X0455000Y0619000D02*
G01X0462000Y0626000D01*
G01X0455000Y0616000D02*
G01X0461000Y0610000D01*
G01X0455000Y0604000D02*
G01X0461000Y0610000D01*
G01X0455000Y0619000D02*
G01X0455000Y0589000D01*
G01X0455000Y0589000D02*
G01X0462000Y0582000D01*
G01X0455000Y0592000D02*
G01X0461000Y0598000D01*
G01X0455000Y0604000D02*
G01X0461000Y0598000D01*
G54D19*
G36*
G01X0472000Y0592000D02*
G01X0452000Y0592000D01*
G01X0452000Y0557000D01*
G01X0472000Y0557000D01*
G01X0472000Y0592000D01*
G37*
G54D20*
G01X0481000Y0620000D02*
G01X0481000Y0589000D01*
G01X0475000Y0626000D02*
G01X0481000Y0620000D01*
G54D19*
G36*
G01X0485000Y0641000D02*
G01X0465000Y0641000D01*
G01X0465000Y0616000D01*
G01X0485000Y0616000D01*
G01X0485000Y0641000D01*
G37*
G54D20*
G01X0474000Y0610000D02*
G01X0481000Y0617000D01*
G01X0475000Y0583000D02*
G01X0481000Y0589000D01*
G54D19*
G36*
G01X0485000Y0593000D02*
G01X0465000Y0593000D01*
G01X0465000Y0557000D01*
G01X0485000Y0557000D01*
G01X0485000Y0593000D01*
G37*
G54D20*
G01X0474000Y0598000D02*
G01X0481000Y0591000D01*
G01X0481000Y0591000D02*
G01X0481000Y0589000D01*
G01X0474000Y0598000D02*
G01X0481000Y0605000D01*
G01X0474000Y0610000D02*
G01X0481000Y0603000D01*
G01X0000000Y0000000D02*
G54D12*
G01X0320000Y0285000D03*
G01X0355000Y0340000D03*
G01X0390000Y0390000D03*
G01X0390000Y0350000D03*
G01X0455000Y0325000D03*
G01X0540000Y0285000D03*
G01X0575000Y0370000D03*
G01X0610000Y0285000D03*
G54D28*
G01X0262000Y0569000D03*
G01X0275000Y0640000D03*
G01X0333000Y0619000D03*
G01X0395000Y0625000D03*
G01X0415000Y0460000D03*
G01X0421000Y0711000D03*
G01X0450000Y0630000D03*
G01X0505000Y0618000D03*
G01X0565000Y0555000D03*
G01X0575000Y0615000D03*
G54D20*
G01X0164100Y0154400D03*
G01X0309100Y0154400D03*
G01X0454100Y0154400D03*
G01X0599100Y0154400D03*
G01X0744100Y0154400D03*
G01X0889100Y0154400D03*
G54D24*
G01X0128600Y0185900D03*
G01X0273600Y0185900D03*
G01X0418600Y0185900D03*
G01X0563600Y0185900D03*
G01X0708600Y0185900D03*
G01X0853600Y0185900D03*
G54D27*
G01X0164600Y0475200D03*
G01X0265000Y0475200D03*
G01X0299600Y0735400D03*
G01X0339800Y0664600D03*
G01X0379900Y0735400D03*
G01X0420100Y0664600D03*
G01X0460200Y0735400D03*
G01X0500400Y0664600D03*
G01X0540600Y0735400D03*
G01X0580700Y0664600D03*
G01X0615400Y0475200D03*
G01X0715700Y0475200D03*
G54D23*
G01X0069600Y0189800D03*
G01X0214600Y0189800D03*
G01X0359600Y0189800D03*
G01X0504600Y0189800D03*
G01X0649600Y0189800D03*
G01X0794600Y0189800D03*
G54D25*
G01X0188200Y0835000D03*
G01X0692100Y0835000D03*
G54D22*
G01X0105000Y0115000D03*
G01X0250000Y0115000D03*
G01X0395000Y0115000D03*
G01X0540000Y0115000D03*
G01X0685000Y0115000D03*
G01X0830000Y0115000D03*
G54D26*
G01X0180300Y0700000D03*
G01X0700000Y0700000D03*
M02*
