<?xml version="1.0" encoding="UTF-8"?>
<svg xmlns="http://www.w3.org/2000/svg" xmlns:xlink="http://www.w3.org/1999/xlink" width="70pt" height="75pt" viewBox="0 0 70 75" version="1.1">
<g id="surface1">
<path style="fill:none;stroke-width:0.006;stroke-linecap:round;stroke-linejoin:miter;stroke:rgb(45.882353%,94.901961%,40.392157%);stroke-opacity:1;stroke-miterlimit:10;" d="M 0.0900203 0.429989 L 0.00999644 0.429989 " transform="matrix(72,0,0,-72,1.1826,75.8694)"/>
<path style="fill:none;stroke-width:0.006;stroke-linecap:round;stroke-linejoin:miter;stroke:rgb(45.882353%,94.901961%,40.392157%);stroke-opacity:1;stroke-miterlimit:10;" d="M 0.00999644 0.429989 L 0.00999644 0.0400155 " transform="matrix(72,0,0,-72,1.1826,75.8694)"/>
<path style="fill:none;stroke-width:0.006;stroke-linecap:round;stroke-linejoin:miter;stroke:rgb(45.882353%,94.901961%,40.392157%);stroke-opacity:1;stroke-miterlimit:10;" d="M 0.00999644 0.0400155 L 0.940009 0.0400155 " transform="matrix(72,0,0,-72,1.1826,75.8694)"/>
<path style="fill:none;stroke-width:0.006;stroke-linecap:round;stroke-linejoin:miter;stroke:rgb(45.882353%,94.901961%,40.392157%);stroke-opacity:1;stroke-miterlimit:10;" d="M 0.940009 0.429989 L 0.940009 0.0400155 " transform="matrix(72,0,0,-72,1.1826,75.8694)"/>
<path style="fill:none;stroke-width:0.006;stroke-linecap:round;stroke-linejoin:miter;stroke:rgb(45.882353%,94.901961%,40.392157%);stroke-opacity:1;stroke-miterlimit:10;" d="M 0.0900203 1.029979 L 0.0900203 0.429989 " transform="matrix(72,0,0,-72,1.1826,75.8694)"/>
<path style="fill:none;stroke-width:0.006;stroke-linecap:round;stroke-linejoin:miter;stroke:rgb(45.882353%,94.901961%,40.392157%);stroke-opacity:1;stroke-miterlimit:10;" d="M 0.0900203 1.029979 L 0.910007 1.029979 " transform="matrix(72,0,0,-72,1.1826,75.8694)"/>
<path style="fill:none;stroke-width:0.006;stroke-linecap:round;stroke-linejoin:miter;stroke:rgb(45.882353%,94.901961%,40.392157%);stroke-opacity:1;stroke-miterlimit:10;" d="M 0.910007 1.029979 L 0.910007 0.429989 " transform="matrix(72,0,0,-72,1.1826,75.8694)"/>
<path style="fill:none;stroke-width:0.006;stroke-linecap:round;stroke-linejoin:miter;stroke:rgb(45.882353%,94.901961%,40.392157%);stroke-opacity:1;stroke-miterlimit:10;" d="M 0.910007 0.429989 L 0.940009 0.429989 " transform="matrix(72,0,0,-72,1.1826,75.8694)"/>
<path style=" stroke:none;fill-rule:evenodd;fill:rgb(75.686275%,0%,87.843137%);fill-opacity:1;" d="M 12.359375 67.589844 C 12.359375 62.765625 5.125 62.765625 5.125 67.589844 C 5.125 72.414062 12.359375 72.414062 12.359375 67.589844 "/>
<path style=" stroke:none;fill-rule:evenodd;fill:rgb(75.686275%,0%,87.843137%);fill-opacity:1;" d="M 8.816406 62.203125 C 8.816406 58.703125 3.566406 58.703125 3.566406 62.203125 C 3.566406 65.703125 8.816406 65.703125 8.816406 62.203125 "/>
<path style=" stroke:none;fill-rule:evenodd;fill:rgb(75.686275%,0%,87.843137%);fill-opacity:1;" d="M 12.359375 62.488281 C 12.359375 59.933594 8.527344 59.933594 8.527344 62.488281 C 8.527344 65.039062 12.359375 65.039062 12.359375 62.488281 "/>
<path style=" stroke:none;fill-rule:evenodd;fill:rgb(75.686275%,0%,87.843137%);fill-opacity:1;" d="M 14.628906 64.753906 C 14.628906 62.574219 11.359375 62.574219 11.359375 64.753906 C 11.359375 66.933594 14.628906 66.933594 14.628906 64.753906 "/>
<path style=" stroke:none;fill-rule:evenodd;fill:rgb(75.686275%,0%,87.843137%);fill-opacity:1;" d="M 22.800781 67.589844 C 22.800781 62.765625 15.566406 62.765625 15.566406 67.589844 C 15.566406 72.414062 22.800781 72.414062 22.800781 67.589844 "/>
<path style=" stroke:none;fill-rule:evenodd;fill:rgb(75.686275%,0%,87.843137%);fill-opacity:1;" d="M 19.257812 62.203125 C 19.257812 58.703125 14.007812 58.703125 14.007812 62.203125 C 14.007812 65.703125 19.257812 65.703125 19.257812 62.203125 "/>
<path style=" stroke:none;fill-rule:evenodd;fill:rgb(75.686275%,0%,87.843137%);fill-opacity:1;" d="M 25.070312 64.753906 C 25.070312 62.574219 21.800781 62.574219 21.800781 64.753906 C 21.800781 66.933594 25.070312 66.933594 25.070312 64.753906 "/>
<path style=" stroke:none;fill-rule:evenodd;fill:rgb(75.686275%,0%,87.843137%);fill-opacity:1;" d="M 17.355469 15.746094 C 17.355469 12.246094 12.109375 12.246094 12.109375 15.746094 C 12.109375 19.246094 17.355469 19.246094 17.355469 15.746094 "/>
<path style=" stroke:none;fill-rule:evenodd;fill:rgb(75.686275%,0%,87.843137%);fill-opacity:1;" d="M 18.347656 25.46875 C 18.347656 19.890625 9.980469 19.890625 9.980469 25.46875 C 9.980469 31.046875 18.347656 31.046875 18.347656 25.46875 "/>
<path style=" stroke:none;fill-rule:evenodd;fill:rgb(75.686275%,0%,87.843137%);fill-opacity:1;" d="M 36.378906 22.917969 C 36.378906 20.171875 32.261719 20.171875 32.261719 22.917969 C 32.261719 25.664062 36.378906 25.664062 36.378906 22.917969 "/>
<path style=" stroke:none;fill-rule:evenodd;fill:rgb(75.686275%,0%,87.843137%);fill-opacity:1;" d="M 30.597656 22.917969 C 30.597656 20.171875 26.476562 20.171875 26.476562 22.917969 C 26.476562 25.664062 30.597656 25.664062 30.597656 22.917969 "/>
<path style=" stroke:none;fill-rule:evenodd;fill:rgb(75.686275%,0%,87.843137%);fill-opacity:1;" d="M 24.8125 22.917969 C 24.8125 20.171875 20.695312 20.171875 20.695312 22.917969 C 20.695312 25.664062 24.8125 25.664062 24.8125 22.917969 "/>
<path style=" stroke:none;fill-rule:evenodd;fill:rgb(75.686275%,0%,87.843137%);fill-opacity:1;" d="M 47.546875 41.65625 C 47.546875 38.910156 43.429688 38.910156 43.429688 41.65625 C 43.429688 44.402344 47.546875 44.402344 47.546875 41.65625 "/>
<path style=" stroke:none;fill-rule:evenodd;fill:rgb(75.686275%,0%,87.843137%);fill-opacity:1;" d="M 54.777344 41.65625 C 54.777344 38.910156 50.65625 38.910156 50.65625 41.65625 C 50.65625 44.402344 54.777344 44.402344 54.777344 41.65625 "/>
<path style=" stroke:none;fill-rule:evenodd;fill:rgb(75.686275%,0%,87.843137%);fill-opacity:1;" d="M 53.640625 15.746094 C 53.640625 12.246094 48.390625 12.246094 48.390625 15.746094 C 48.390625 19.246094 53.640625 19.246094 53.640625 15.746094 "/>
<path style=" stroke:none;fill-rule:evenodd;fill:rgb(75.686275%,0%,87.843137%);fill-opacity:1;" d="M 55.765625 25.46875 C 55.765625 19.890625 47.398438 19.890625 47.398438 25.46875 C 47.398438 31.046875 55.765625 31.046875 55.765625 25.46875 "/>
<path style=" stroke:none;fill-rule:evenodd;fill:rgb(75.686275%,0%,87.843137%);fill-opacity:1;" d="M 42.160156 22.917969 C 42.160156 20.171875 38.042969 20.171875 38.042969 22.917969 C 38.042969 25.664062 42.160156 25.664062 42.160156 22.917969 "/>
<path style=" stroke:none;fill-rule:evenodd;fill:rgb(75.686275%,0%,87.843137%);fill-opacity:1;" d="M 33.488281 28.019531 C 33.488281 25.273438 29.371094 25.273438 29.371094 28.019531 C 29.371094 30.765625 33.488281 30.765625 33.488281 28.019531 "/>
<path style=" stroke:none;fill-rule:evenodd;fill:rgb(75.686275%,0%,87.843137%);fill-opacity:1;" d="M 27.703125 28.019531 C 27.703125 25.273438 23.585938 25.273438 23.585938 28.019531 C 23.585938 30.765625 27.703125 30.765625 27.703125 28.019531 "/>
<path style=" stroke:none;fill-rule:evenodd;fill:rgb(75.686275%,0%,87.843137%);fill-opacity:1;" d="M 15.089844 41.65625 C 15.089844 38.910156 10.972656 38.910156 10.972656 41.65625 C 10.972656 44.402344 15.089844 44.402344 15.089844 41.65625 "/>
<path style=" stroke:none;fill-rule:evenodd;fill:rgb(75.686275%,0%,87.843137%);fill-opacity:1;" d="M 22.320312 41.65625 C 22.320312 38.910156 18.199219 38.910156 18.199219 41.65625 C 18.199219 44.402344 22.320312 44.402344 22.320312 41.65625 "/>
<path style=" stroke:none;fill-rule:evenodd;fill:rgb(75.686275%,0%,87.843137%);fill-opacity:1;" d="M 39.269531 28.019531 C 39.269531 25.273438 35.152344 25.273438 35.152344 28.019531 C 35.152344 30.765625 39.269531 30.765625 39.269531 28.019531 "/>
<path style=" stroke:none;fill-rule:evenodd;fill:rgb(75.686275%,0%,87.843137%);fill-opacity:1;" d="M 45.054688 28.019531 C 45.054688 25.273438 40.933594 25.273438 40.933594 28.019531 C 40.933594 30.765625 45.054688 30.765625 45.054688 28.019531 "/>
<path style=" stroke:none;fill-rule:evenodd;fill:rgb(75.686275%,0%,87.843137%);fill-opacity:1;" d="M 22.796875 62.488281 C 22.796875 59.933594 18.96875 59.933594 18.96875 62.488281 C 18.96875 65.039062 22.796875 65.039062 22.796875 62.488281 "/>
<path style=" stroke:none;fill-rule:evenodd;fill:rgb(75.686275%,0%,87.843137%);fill-opacity:1;" d="M 29.695312 62.203125 C 29.695312 58.703125 24.445312 58.703125 24.445312 62.203125 C 24.445312 65.703125 29.695312 65.703125 29.695312 62.203125 "/>
<path style=" stroke:none;fill-rule:evenodd;fill:rgb(75.686275%,0%,87.843137%);fill-opacity:1;" d="M 33.238281 62.488281 C 33.238281 59.933594 29.40625 59.933594 29.40625 62.488281 C 29.40625 65.039062 33.238281 65.039062 33.238281 62.488281 "/>
<path style=" stroke:none;fill-rule:evenodd;fill:rgb(75.686275%,0%,87.843137%);fill-opacity:1;" d="M 33.242188 67.589844 C 33.242188 62.765625 26.003906 62.765625 26.003906 67.589844 C 26.003906 72.414062 33.242188 72.414062 33.242188 67.589844 "/>
<path style=" stroke:none;fill-rule:evenodd;fill:rgb(75.686275%,0%,87.843137%);fill-opacity:1;" d="M 35.507812 64.753906 C 35.507812 62.574219 32.242188 62.574219 32.242188 64.753906 C 32.242188 66.933594 35.507812 66.933594 35.507812 64.753906 "/>
<path style=" stroke:none;fill-rule:evenodd;fill:rgb(75.686275%,0%,87.843137%);fill-opacity:1;" d="M 43.679688 67.589844 C 43.679688 62.765625 36.445312 62.765625 36.445312 67.589844 C 36.445312 72.414062 43.679688 72.414062 43.679688 67.589844 "/>
<path style=" stroke:none;fill-rule:evenodd;fill:rgb(75.686275%,0%,87.843137%);fill-opacity:1;" d="M 45.949219 64.753906 C 45.949219 62.574219 42.679688 62.574219 42.679688 64.753906 C 42.679688 66.933594 45.949219 66.933594 45.949219 64.753906 "/>
<path style=" stroke:none;fill-rule:evenodd;fill:rgb(75.686275%,0%,87.843137%);fill-opacity:1;" d="M 54.121094 67.589844 C 54.121094 62.765625 46.882812 62.765625 46.882812 67.589844 C 46.882812 72.414062 54.121094 72.414062 54.121094 67.589844 "/>
<path style=" stroke:none;fill-rule:evenodd;fill:rgb(75.686275%,0%,87.843137%);fill-opacity:1;" d="M 40.136719 62.203125 C 40.136719 58.703125 34.886719 58.703125 34.886719 62.203125 C 34.886719 65.703125 40.136719 65.703125 40.136719 62.203125 "/>
<path style=" stroke:none;fill-rule:evenodd;fill:rgb(75.686275%,0%,87.843137%);fill-opacity:1;" d="M 43.679688 62.488281 C 43.679688 59.933594 39.847656 59.933594 39.847656 62.488281 C 39.847656 65.039062 43.679688 65.039062 43.679688 62.488281 "/>
<path style=" stroke:none;fill-rule:evenodd;fill:rgb(75.686275%,0%,87.843137%);fill-opacity:1;" d="M 50.574219 62.203125 C 50.574219 58.703125 45.328125 58.703125 45.328125 62.203125 C 45.328125 65.703125 50.574219 65.703125 50.574219 62.203125 "/>
<path style=" stroke:none;fill-rule:evenodd;fill:rgb(75.686275%,0%,87.843137%);fill-opacity:1;" d="M 54.117188 62.488281 C 54.117188 59.933594 50.289062 59.933594 50.289062 62.488281 C 50.289062 65.039062 54.117188 65.039062 54.117188 62.488281 "/>
<path style=" stroke:none;fill-rule:evenodd;fill:rgb(75.686275%,0%,87.843137%);fill-opacity:1;" d="M 56.390625 64.753906 C 56.390625 62.574219 53.121094 62.574219 53.121094 64.753906 C 53.121094 66.933594 56.390625 66.933594 56.390625 64.753906 "/>
<path style=" stroke:none;fill-rule:evenodd;fill:rgb(75.686275%,0%,87.843137%);fill-opacity:1;" d="M 64.5625 67.589844 C 64.5625 62.765625 57.324219 62.765625 57.324219 67.589844 C 57.324219 72.414062 64.5625 72.414062 64.5625 67.589844 "/>
<path style=" stroke:none;fill-rule:evenodd;fill:rgb(75.686275%,0%,87.843137%);fill-opacity:1;" d="M 66.828125 64.753906 C 66.828125 62.574219 63.558594 62.574219 63.558594 64.753906 C 63.558594 66.933594 66.828125 66.933594 66.828125 64.753906 "/>
<path style=" stroke:none;fill-rule:evenodd;fill:rgb(75.686275%,0%,87.843137%);fill-opacity:1;" d="M 61.015625 62.203125 C 61.015625 58.703125 55.765625 58.703125 55.765625 62.203125 C 55.765625 65.703125 61.015625 65.703125 61.015625 62.203125 "/>
<path style=" stroke:none;fill-rule:evenodd;fill:rgb(75.686275%,0%,87.843137%);fill-opacity:1;" d="M 64.558594 62.488281 C 64.558594 59.933594 60.726562 59.933594 60.726562 62.488281 C 60.726562 65.039062 64.558594 65.039062 64.558594 62.488281 "/>
<path style=" stroke:none;fill-rule:evenodd;fill:rgb(75.686275%,0%,87.843137%);fill-opacity:1;" d="M 46 29.890625 L 46 34.007812 L 50.683594 34.007812 L 50.683594 29.890625 Z M 46 29.890625 "/>
<path style=" stroke:none;fill-rule:evenodd;fill:rgb(75.686275%,0%,87.843137%);fill-opacity:1;" d="M 46 34.992188 L 46 39.109375 L 50.683594 39.109375 L 50.683594 34.992188 Z M 46 34.992188 "/>
<path style=" stroke:none;fill-rule:evenodd;fill:rgb(75.686275%,0%,87.843137%);fill-opacity:1;" d="M 37.398438 35.980469 L 37.398438 37.277344 L 40.566406 37.277344 L 40.566406 35.980469 Z M 37.398438 35.980469 "/>
<path style=" stroke:none;fill-rule:evenodd;fill:rgb(75.686275%,0%,87.843137%);fill-opacity:1;" d="M 37.398438 37.421875 L 37.398438 38.71875 L 40.566406 38.71875 L 40.566406 37.421875 Z M 37.398438 37.421875 "/>
<path style=" stroke:none;fill-rule:evenodd;fill:rgb(75.686275%,0%,87.843137%);fill-opacity:1;" d="M 37.398438 38.863281 L 37.398438 40.15625 L 40.566406 40.15625 L 40.566406 38.863281 Z M 37.398438 38.863281 "/>
<path style=" stroke:none;fill-rule:evenodd;fill:rgb(75.686275%,0%,87.843137%);fill-opacity:1;" d="M 37.398438 40.230469 L 37.398438 41.527344 L 40.566406 41.527344 L 40.566406 40.230469 Z M 37.398438 40.230469 "/>
<path style=" stroke:none;fill-rule:evenodd;fill:rgb(75.686275%,0%,87.843137%);fill-opacity:1;" d="M 37.398438 41.667969 L 37.398438 42.964844 L 40.566406 42.964844 L 40.566406 41.667969 Z M 37.398438 41.667969 "/>
<path style="fill:none;stroke-width:0.02;stroke-linecap:round;stroke-linejoin:miter;stroke:rgb(75.686275%,0%,87.843137%);stroke-opacity:1;stroke-miterlimit:10;" d="M 0.519979 0.625519 L 0.519979 0.595517 " transform="matrix(72,0,0,-72,1.1826,75.8694)"/>
<path style="fill:none;stroke-width:0.02;stroke-linecap:round;stroke-linejoin:miter;stroke:rgb(75.686275%,0%,87.843137%);stroke-opacity:1;stroke-miterlimit:10;" d="M 0.519979 0.625519 L 0.526978 0.632518 " transform="matrix(72,0,0,-72,1.1826,75.8694)"/>
<path style=" stroke:none;fill-rule:evenodd;fill:rgb(75.686275%,0%,87.843137%);fill-opacity:1;" d="M 39.847656 29.25 L 38.40625 29.25 L 38.40625 31.050781 L 39.847656 31.050781 Z M 39.847656 29.25 "/>
<path style="fill:none;stroke-width:0.02;stroke-linecap:round;stroke-linejoin:miter;stroke:rgb(75.686275%,0%,87.843137%);stroke-opacity:1;stroke-miterlimit:10;" d="M 0.519979 0.622481 L 0.526001 0.616513 " transform="matrix(72,0,0,-72,1.1826,75.8694)"/>
<path style="fill:none;stroke-width:0.02;stroke-linecap:round;stroke-linejoin:miter;stroke:rgb(75.686275%,0%,87.843137%);stroke-opacity:1;stroke-miterlimit:10;" d="M 0.519979 0.610491 L 0.526001 0.616513 " transform="matrix(72,0,0,-72,1.1826,75.8694)"/>
<path style="fill:none;stroke-width:0.02;stroke-linecap:round;stroke-linejoin:miter;stroke:rgb(75.686275%,0%,87.843137%);stroke-opacity:1;stroke-miterlimit:10;" d="M 0.519979 0.595517 L 0.526978 0.588518 " transform="matrix(72,0,0,-72,1.1826,75.8694)"/>
<path style=" stroke:none;fill-rule:evenodd;fill:rgb(75.686275%,0%,87.843137%);fill-opacity:1;" d="M 39.847656 32.777344 L 38.40625 32.777344 L 38.40625 35.296875 L 39.847656 35.296875 Z M 39.847656 32.777344 "/>
<path style="fill:none;stroke-width:0.02;stroke-linecap:round;stroke-linejoin:miter;stroke:rgb(75.686275%,0%,87.843137%);stroke-opacity:1;stroke-miterlimit:10;" d="M 0.519979 0.598501 L 0.526001 0.604523 " transform="matrix(72,0,0,-72,1.1826,75.8694)"/>
<path style="fill:none;stroke-width:0.02;stroke-linecap:round;stroke-linejoin:miter;stroke:rgb(75.686275%,0%,87.843137%);stroke-opacity:1;stroke-miterlimit:10;" d="M 0.519979 0.610491 L 0.526001 0.604523 " transform="matrix(72,0,0,-72,1.1826,75.8694)"/>
<path style="fill:none;stroke-width:0.02;stroke-linecap:round;stroke-linejoin:miter;stroke:rgb(75.686275%,0%,87.843137%);stroke-opacity:1;stroke-miterlimit:10;" d="M 0.546021 0.626496 L 0.546021 0.595517 " transform="matrix(72,0,0,-72,1.1826,75.8694)"/>
<path style="fill:none;stroke-width:0.02;stroke-linecap:round;stroke-linejoin:miter;stroke:rgb(75.686275%,0%,87.843137%);stroke-opacity:1;stroke-miterlimit:10;" d="M 0.546021 0.597524 L 0.546021 0.595517 " transform="matrix(72,0,0,-72,1.1826,75.8694)"/>
<path style="fill:none;stroke-width:0.02;stroke-linecap:round;stroke-linejoin:miter;stroke:rgb(75.686275%,0%,87.843137%);stroke-opacity:1;stroke-miterlimit:10;" d="M 0.539999 0.632518 L 0.546021 0.626496 " transform="matrix(72,0,0,-72,1.1826,75.8694)"/>
<path style=" stroke:none;fill-rule:evenodd;fill:rgb(75.686275%,0%,87.843137%);fill-opacity:1;" d="M 40.78125 29.25 L 39.34375 29.25 L 39.34375 31.050781 L 40.78125 31.050781 Z M 40.78125 29.25 "/>
<path style="fill:none;stroke-width:0.02;stroke-linecap:round;stroke-linejoin:miter;stroke:rgb(75.686275%,0%,87.843137%);stroke-opacity:1;stroke-miterlimit:10;" d="M 0.539999 0.589495 L 0.546021 0.595517 " transform="matrix(72,0,0,-72,1.1826,75.8694)"/>
<path style="fill:none;stroke-width:0.02;stroke-linecap:round;stroke-linejoin:miter;stroke:rgb(75.686275%,0%,87.843137%);stroke-opacity:1;stroke-miterlimit:10;" d="M 0.539022 0.604523 L 0.546021 0.597524 " transform="matrix(72,0,0,-72,1.1826,75.8694)"/>
<path style="fill:none;stroke-width:0.02;stroke-linecap:round;stroke-linejoin:miter;stroke:rgb(75.686275%,0%,87.843137%);stroke-opacity:1;stroke-miterlimit:10;" d="M 0.539022 0.604523 L 0.546021 0.611522 " transform="matrix(72,0,0,-72,1.1826,75.8694)"/>
<path style="fill:none;stroke-width:0.02;stroke-linecap:round;stroke-linejoin:miter;stroke:rgb(75.686275%,0%,87.843137%);stroke-opacity:1;stroke-miterlimit:10;" d="M 0.539022 0.616513 L 0.546021 0.609514 " transform="matrix(72,0,0,-72,1.1826,75.8694)"/>
<path style="fill:none;stroke-width:0.02;stroke-linecap:round;stroke-linejoin:miter;stroke:rgb(75.686275%,0%,87.843137%);stroke-opacity:1;stroke-miterlimit:10;" d="M 0.539022 0.616513 L 0.546021 0.623512 " transform="matrix(72,0,0,-72,1.1826,75.8694)"/>
<path style=" stroke:none;fill-rule:evenodd;fill:rgb(75.686275%,0%,87.843137%);fill-opacity:1;" d="M 40.78125 32.707031 L 39.34375 32.707031 L 39.34375 35.296875 L 40.78125 35.296875 Z M 40.78125 32.707031 "/>
<path style="fill:none;stroke-width:0.02;stroke-linecap:round;stroke-linejoin:miter;stroke:rgb(75.686275%,0%,87.843137%);stroke-opacity:1;stroke-miterlimit:10;" d="M 0.583022 0.605499 L 0.583022 0.575497 " transform="matrix(72,0,0,-72,1.1826,75.8694)"/>
<path style="fill:none;stroke-width:0.02;stroke-linecap:round;stroke-linejoin:miter;stroke:rgb(75.686275%,0%,87.843137%);stroke-opacity:1;stroke-miterlimit:10;" d="M 0.583022 0.605499 L 0.59002 0.612498 " transform="matrix(72,0,0,-72,1.1826,75.8694)"/>
<path style=" stroke:none;fill-rule:evenodd;fill:rgb(75.686275%,0%,87.843137%);fill-opacity:1;" d="M 44.382812 30.6875 L 42.941406 30.6875 L 42.941406 32.488281 L 44.382812 32.488281 Z M 44.382812 30.6875 "/>
<path style="fill:none;stroke-width:0.02;stroke-linecap:round;stroke-linejoin:miter;stroke:rgb(75.686275%,0%,87.843137%);stroke-opacity:1;stroke-miterlimit:10;" d="M 0.583022 0.602516 L 0.588989 0.596493 " transform="matrix(72,0,0,-72,1.1826,75.8694)"/>
<path style="fill:none;stroke-width:0.02;stroke-linecap:round;stroke-linejoin:miter;stroke:rgb(75.686275%,0%,87.843137%);stroke-opacity:1;stroke-miterlimit:10;" d="M 0.583022 0.590526 L 0.588989 0.596493 " transform="matrix(72,0,0,-72,1.1826,75.8694)"/>
<path style="fill:none;stroke-width:0.02;stroke-linecap:round;stroke-linejoin:miter;stroke:rgb(75.686275%,0%,87.843137%);stroke-opacity:1;stroke-miterlimit:10;" d="M 0.583022 0.575497 L 0.59002 0.568499 " transform="matrix(72,0,0,-72,1.1826,75.8694)"/>
<path style=" stroke:none;fill-rule:evenodd;fill:rgb(75.686275%,0%,87.843137%);fill-opacity:1;" d="M 44.382812 34.21875 L 42.941406 34.21875 L 42.941406 36.738281 L 44.382812 36.738281 Z M 44.382812 34.21875 "/>
<path style="fill:none;stroke-width:0.02;stroke-linecap:round;stroke-linejoin:miter;stroke:rgb(75.686275%,0%,87.843137%);stroke-opacity:1;stroke-miterlimit:10;" d="M 0.583022 0.578481 L 0.588989 0.584503 " transform="matrix(72,0,0,-72,1.1826,75.8694)"/>
<path style="fill:none;stroke-width:0.02;stroke-linecap:round;stroke-linejoin:miter;stroke:rgb(75.686275%,0%,87.843137%);stroke-opacity:1;stroke-miterlimit:10;" d="M 0.583022 0.590526 L 0.588989 0.584503 " transform="matrix(72,0,0,-72,1.1826,75.8694)"/>
<path style="fill:none;stroke-width:0.02;stroke-linecap:round;stroke-linejoin:miter;stroke:rgb(75.686275%,0%,87.843137%);stroke-opacity:1;stroke-miterlimit:10;" d="M 0.609009 0.606476 L 0.609009 0.575497 " transform="matrix(72,0,0,-72,1.1826,75.8694)"/>
<path style="fill:none;stroke-width:0.02;stroke-linecap:round;stroke-linejoin:miter;stroke:rgb(75.686275%,0%,87.843137%);stroke-opacity:1;stroke-miterlimit:10;" d="M 0.609009 0.577505 L 0.609009 0.575497 " transform="matrix(72,0,0,-72,1.1826,75.8694)"/>
<path style="fill:none;stroke-width:0.02;stroke-linecap:round;stroke-linejoin:miter;stroke:rgb(75.686275%,0%,87.843137%);stroke-opacity:1;stroke-miterlimit:10;" d="M 0.602987 0.612498 L 0.609009 0.606476 " transform="matrix(72,0,0,-72,1.1826,75.8694)"/>
<path style=" stroke:none;fill-rule:evenodd;fill:rgb(75.686275%,0%,87.843137%);fill-opacity:1;" d="M 45.320312 30.6875 L 43.878906 30.6875 L 43.878906 32.488281 L 45.320312 32.488281 Z M 45.320312 30.6875 "/>
<path style="fill:none;stroke-width:0.02;stroke-linecap:round;stroke-linejoin:miter;stroke:rgb(75.686275%,0%,87.843137%);stroke-opacity:1;stroke-miterlimit:10;" d="M 0.602987 0.569475 L 0.609009 0.575497 " transform="matrix(72,0,0,-72,1.1826,75.8694)"/>
<path style=" stroke:none;fill-rule:evenodd;fill:rgb(75.686275%,0%,87.843137%);fill-opacity:1;" d="M 45.320312 34.144531 L 43.878906 34.144531 L 43.878906 36.738281 L 45.320312 36.738281 Z M 45.320312 34.144531 "/>
<path style="fill:none;stroke-width:0.02;stroke-linecap:round;stroke-linejoin:miter;stroke:rgb(75.686275%,0%,87.843137%);stroke-opacity:1;stroke-miterlimit:10;" d="M 0.60201 0.584503 L 0.609009 0.577505 " transform="matrix(72,0,0,-72,1.1826,75.8694)"/>
<path style="fill:none;stroke-width:0.02;stroke-linecap:round;stroke-linejoin:miter;stroke:rgb(75.686275%,0%,87.843137%);stroke-opacity:1;stroke-miterlimit:10;" d="M 0.60201 0.584503 L 0.609009 0.591502 " transform="matrix(72,0,0,-72,1.1826,75.8694)"/>
<path style="fill:none;stroke-width:0.02;stroke-linecap:round;stroke-linejoin:miter;stroke:rgb(75.686275%,0%,87.843137%);stroke-opacity:1;stroke-miterlimit:10;" d="M 0.60201 0.596493 L 0.609009 0.589495 " transform="matrix(72,0,0,-72,1.1826,75.8694)"/>
<path style="fill:none;stroke-width:0.02;stroke-linecap:round;stroke-linejoin:miter;stroke:rgb(75.686275%,0%,87.843137%);stroke-opacity:1;stroke-miterlimit:10;" d="M 0.60201 0.596493 L 0.609009 0.603492 " transform="matrix(72,0,0,-72,1.1826,75.8694)"/>
<path style=" stroke:none;fill-rule:evenodd;fill:rgb(75.686275%,0%,87.843137%);fill-opacity:1;" d="M 11.082031 29.890625 L 11.082031 34.007812 L 15.765625 34.007812 L 15.765625 29.890625 Z M 11.082031 29.890625 "/>
<path style="fill:none;stroke-width:0.02;stroke-linecap:round;stroke-linejoin:miter;stroke:rgb(75.686275%,0%,87.843137%);stroke-opacity:1;stroke-miterlimit:10;" d="M 0.215997 0.638974 L 0.222996 0.646027 " transform="matrix(72,0,0,-72,1.1826,75.8694)"/>
<path style=" stroke:none;fill-rule:evenodd;fill:rgb(75.686275%,0%,87.843137%);fill-opacity:1;" d="M 17.957031 28.277344 L 16.519531 28.277344 L 16.519531 30.078125 L 17.957031 30.078125 Z M 17.957031 28.277344 "/>
<path style="fill:none;stroke-width:0.02;stroke-linecap:round;stroke-linejoin:miter;stroke:rgb(75.686275%,0%,87.843137%);stroke-opacity:1;stroke-miterlimit:10;" d="M 0.215997 0.609026 L 0.222996 0.601973 " transform="matrix(72,0,0,-72,1.1826,75.8694)"/>
<path style=" stroke:none;fill-rule:evenodd;fill:rgb(75.686275%,0%,87.843137%);fill-opacity:1;" d="M 17.957031 31.804688 L 16.519531 31.804688 L 16.519531 34.324219 L 17.957031 34.324219 Z M 17.957031 31.804688 "/>
<path style="fill:none;stroke-width:0.02;stroke-linecap:round;stroke-linejoin:miter;stroke:rgb(75.686275%,0%,87.843137%);stroke-opacity:1;stroke-miterlimit:10;" d="M 0.215997 0.638974 L 0.215997 0.609026 " transform="matrix(72,0,0,-72,1.1826,75.8694)"/>
<path style="fill:none;stroke-width:0.02;stroke-linecap:round;stroke-linejoin:miter;stroke:rgb(75.686275%,0%,87.843137%);stroke-opacity:1;stroke-miterlimit:10;" d="M 0.215997 0.61201 L 0.222019 0.617978 " transform="matrix(72,0,0,-72,1.1826,75.8694)"/>
<path style="fill:none;stroke-width:0.02;stroke-linecap:round;stroke-linejoin:miter;stroke:rgb(75.686275%,0%,87.843137%);stroke-opacity:1;stroke-miterlimit:10;" d="M 0.215997 0.624 L 0.222019 0.617978 " transform="matrix(72,0,0,-72,1.1826,75.8694)"/>
<path style="fill:none;stroke-width:0.02;stroke-linecap:round;stroke-linejoin:miter;stroke:rgb(75.686275%,0%,87.843137%);stroke-opacity:1;stroke-miterlimit:10;" d="M 0.215997 0.63599 L 0.222019 0.630022 " transform="matrix(72,0,0,-72,1.1826,75.8694)"/>
<path style="fill:none;stroke-width:0.02;stroke-linecap:round;stroke-linejoin:miter;stroke:rgb(75.686275%,0%,87.843137%);stroke-opacity:1;stroke-miterlimit:10;" d="M 0.215997 0.624 L 0.222019 0.630022 " transform="matrix(72,0,0,-72,1.1826,75.8694)"/>
<path style="fill:none;stroke-width:0.02;stroke-linecap:round;stroke-linejoin:miter;stroke:rgb(75.686275%,0%,87.843137%);stroke-opacity:1;stroke-miterlimit:10;" d="M 0.241984 0.640005 L 0.241984 0.609026 " transform="matrix(72,0,0,-72,1.1826,75.8694)"/>
<path style="fill:none;stroke-width:0.02;stroke-linecap:round;stroke-linejoin:miter;stroke:rgb(75.686275%,0%,87.843137%);stroke-opacity:1;stroke-miterlimit:10;" d="M 0.236016 0.646027 L 0.241984 0.640005 " transform="matrix(72,0,0,-72,1.1826,75.8694)"/>
<path style=" stroke:none;fill-rule:evenodd;fill:rgb(75.686275%,0%,87.843137%);fill-opacity:1;" d="M 18.894531 28.277344 L 17.453125 28.277344 L 17.453125 30.078125 L 18.894531 30.078125 Z M 18.894531 28.277344 "/>
<path style="fill:none;stroke-width:0.02;stroke-linecap:round;stroke-linejoin:miter;stroke:rgb(75.686275%,0%,87.843137%);stroke-opacity:1;stroke-miterlimit:10;" d="M 0.234986 0.617978 L 0.241984 0.624976 " transform="matrix(72,0,0,-72,1.1826,75.8694)"/>
<path style="fill:none;stroke-width:0.02;stroke-linecap:round;stroke-linejoin:miter;stroke:rgb(75.686275%,0%,87.843137%);stroke-opacity:1;stroke-miterlimit:10;" d="M 0.234986 0.630022 L 0.241984 0.623023 " transform="matrix(72,0,0,-72,1.1826,75.8694)"/>
<path style="fill:none;stroke-width:0.02;stroke-linecap:round;stroke-linejoin:miter;stroke:rgb(75.686275%,0%,87.843137%);stroke-opacity:1;stroke-miterlimit:10;" d="M 0.234986 0.630022 L 0.241984 0.637021 " transform="matrix(72,0,0,-72,1.1826,75.8694)"/>
<path style="fill:none;stroke-width:0.02;stroke-linecap:round;stroke-linejoin:miter;stroke:rgb(75.686275%,0%,87.843137%);stroke-opacity:1;stroke-miterlimit:10;" d="M 0.236016 0.603004 L 0.241984 0.609026 " transform="matrix(72,0,0,-72,1.1826,75.8694)"/>
<path style=" stroke:none;fill-rule:evenodd;fill:rgb(75.686275%,0%,87.843137%);fill-opacity:1;" d="M 18.894531 31.734375 L 17.453125 31.734375 L 17.453125 34.324219 L 18.894531 34.324219 Z M 18.894531 31.734375 "/>
<path style="fill:none;stroke-width:0.02;stroke-linecap:round;stroke-linejoin:miter;stroke:rgb(75.686275%,0%,87.843137%);stroke-opacity:1;stroke-miterlimit:10;" d="M 0.234986 0.617978 L 0.241984 0.610979 " transform="matrix(72,0,0,-72,1.1826,75.8694)"/>
<path style="fill:none;stroke-width:0.02;stroke-linecap:round;stroke-linejoin:miter;stroke:rgb(75.686275%,0%,87.843137%);stroke-opacity:1;stroke-miterlimit:10;" d="M 0.241984 0.610979 L 0.241984 0.609026 " transform="matrix(72,0,0,-72,1.1826,75.8694)"/>
<path style=" stroke:none;fill-rule:evenodd;fill:rgb(75.686275%,0%,87.843137%);fill-opacity:1;" d="M 11.082031 34.992188 L 11.082031 39.109375 L 15.765625 39.109375 L 15.765625 34.992188 Z M 11.082031 34.992188 "/>
<path style=" stroke:none;fill-rule:evenodd;fill:rgb(75.686275%,0%,87.843137%);fill-opacity:1;" d="M 24.160156 38.726562 L 24.160156 40.292969 L 25.726562 40.292969 L 25.726562 38.726562 Z M 24.160156 38.726562 "/>
<path style=" stroke:none;fill-rule:evenodd;fill:rgb(75.686275%,0%,87.843137%);fill-opacity:1;" d="M 22.460938 38.726562 L 22.460938 40.292969 L 24.023438 40.292969 L 24.023438 38.726562 Z M 22.460938 38.726562 "/>
<path style=" stroke:none;fill-rule:evenodd;fill:rgb(75.686275%,0%,87.843137%);fill-opacity:1;" d="M 21.574219 38.226562 L 21.574219 40.074219 L 23.988281 40.074219 L 23.988281 38.226562 Z M 21.574219 38.226562 "/>
<path style=" stroke:none;fill-rule:evenodd;fill:rgb(75.686275%,0%,87.843137%);fill-opacity:1;" d="M 21.574219 35.957031 L 21.574219 37.808594 L 23.988281 37.808594 L 23.988281 35.957031 Z M 21.574219 35.957031 "/>
<path style=" stroke:none;fill-rule:evenodd;fill:rgb(75.686275%,0%,87.843137%);fill-opacity:1;" d="M 24.160156 34.40625 L 24.160156 35.972656 L 25.726562 35.972656 L 25.726562 34.40625 Z M 24.160156 34.40625 "/>
<path style="fill:none;stroke-width:0.02;stroke-linecap:round;stroke-linejoin:miter;stroke:rgb(75.686275%,0%,87.843137%);stroke-opacity:1;stroke-miterlimit:10;" d="M 0.280016 0.624 L 0.280016 0.593998 " transform="matrix(72,0,0,-72,1.1826,75.8694)"/>
<path style="fill:none;stroke-width:0.02;stroke-linecap:round;stroke-linejoin:miter;stroke:rgb(75.686275%,0%,87.843137%);stroke-opacity:1;stroke-miterlimit:10;" d="M 0.280016 0.593998 L 0.287015 0.586999 " transform="matrix(72,0,0,-72,1.1826,75.8694)"/>
<path style="fill:none;stroke-width:0.02;stroke-linecap:round;stroke-linejoin:miter;stroke:rgb(75.686275%,0%,87.843137%);stroke-opacity:1;stroke-miterlimit:10;" d="M 0.280016 0.596982 L 0.285984 0.603004 " transform="matrix(72,0,0,-72,1.1826,75.8694)"/>
<path style="fill:none;stroke-width:0.02;stroke-linecap:round;stroke-linejoin:miter;stroke:rgb(75.686275%,0%,87.843137%);stroke-opacity:1;stroke-miterlimit:10;" d="M 0.280016 0.609026 L 0.285984 0.603004 " transform="matrix(72,0,0,-72,1.1826,75.8694)"/>
<path style=" stroke:none;fill-rule:evenodd;fill:rgb(75.686275%,0%,87.843137%);fill-opacity:1;" d="M 22.566406 32.886719 L 21.125 32.886719 L 21.125 35.40625 L 22.566406 35.40625 Z M 22.566406 32.886719 "/>
<path style=" stroke:none;fill-rule:evenodd;fill:rgb(75.686275%,0%,87.843137%);fill-opacity:1;" d="M 22.566406 29.355469 L 21.125 29.355469 L 21.125 31.15625 L 22.566406 31.15625 Z M 22.566406 29.355469 "/>
<path style="fill:none;stroke-width:0.02;stroke-linecap:round;stroke-linejoin:miter;stroke:rgb(75.686275%,0%,87.843137%);stroke-opacity:1;stroke-miterlimit:10;" d="M 0.280016 0.624 L 0.287015 0.630999 " transform="matrix(72,0,0,-72,1.1826,75.8694)"/>
<path style="fill:none;stroke-width:0.02;stroke-linecap:round;stroke-linejoin:miter;stroke:rgb(75.686275%,0%,87.843137%);stroke-opacity:1;stroke-miterlimit:10;" d="M 0.280016 0.621016 L 0.285984 0.614994 " transform="matrix(72,0,0,-72,1.1826,75.8694)"/>
<path style="fill:none;stroke-width:0.02;stroke-linecap:round;stroke-linejoin:miter;stroke:rgb(75.686275%,0%,87.843137%);stroke-opacity:1;stroke-miterlimit:10;" d="M 0.280016 0.609026 L 0.285984 0.614994 " transform="matrix(72,0,0,-72,1.1826,75.8694)"/>
<path style="fill:none;stroke-width:0.02;stroke-linecap:round;stroke-linejoin:miter;stroke:rgb(75.686275%,0%,87.843137%);stroke-opacity:1;stroke-miterlimit:10;" d="M 0.306003 0.624976 L 0.306003 0.593998 " transform="matrix(72,0,0,-72,1.1826,75.8694)"/>
<path style="fill:none;stroke-width:0.02;stroke-linecap:round;stroke-linejoin:miter;stroke:rgb(75.686275%,0%,87.843137%);stroke-opacity:1;stroke-miterlimit:10;" d="M 0.299981 0.630999 L 0.306003 0.624976 " transform="matrix(72,0,0,-72,1.1826,75.8694)"/>
<path style=" stroke:none;fill-rule:evenodd;fill:rgb(75.686275%,0%,87.843137%);fill-opacity:1;" d="M 23.503906 29.355469 L 22.0625 29.355469 L 22.0625 31.15625 L 23.503906 31.15625 Z M 23.503906 29.355469 "/>
<path style="fill:none;stroke-width:0.02;stroke-linecap:round;stroke-linejoin:miter;stroke:rgb(75.686275%,0%,87.843137%);stroke-opacity:1;stroke-miterlimit:10;" d="M 0.299005 0.603004 L 0.306003 0.610003 " transform="matrix(72,0,0,-72,1.1826,75.8694)"/>
<path style="fill:none;stroke-width:0.02;stroke-linecap:round;stroke-linejoin:miter;stroke:rgb(75.686275%,0%,87.843137%);stroke-opacity:1;stroke-miterlimit:10;" d="M 0.299005 0.614994 L 0.306003 0.607995 " transform="matrix(72,0,0,-72,1.1826,75.8694)"/>
<path style="fill:none;stroke-width:0.02;stroke-linecap:round;stroke-linejoin:miter;stroke:rgb(75.686275%,0%,87.843137%);stroke-opacity:1;stroke-miterlimit:10;" d="M 0.299005 0.614994 L 0.306003 0.621993 " transform="matrix(72,0,0,-72,1.1826,75.8694)"/>
<path style="fill:none;stroke-width:0.02;stroke-linecap:round;stroke-linejoin:miter;stroke:rgb(75.686275%,0%,87.843137%);stroke-opacity:1;stroke-miterlimit:10;" d="M 0.299981 0.587976 L 0.306003 0.593998 " transform="matrix(72,0,0,-72,1.1826,75.8694)"/>
<path style=" stroke:none;fill-rule:evenodd;fill:rgb(75.686275%,0%,87.843137%);fill-opacity:1;" d="M 23.503906 32.8125 L 22.0625 32.8125 L 22.0625 35.40625 L 23.503906 35.40625 Z M 23.503906 32.8125 "/>
<path style="fill:none;stroke-width:0.02;stroke-linecap:round;stroke-linejoin:miter;stroke:rgb(75.686275%,0%,87.843137%);stroke-opacity:1;stroke-miterlimit:10;" d="M 0.299005 0.603004 L 0.306003 0.596005 " transform="matrix(72,0,0,-72,1.1826,75.8694)"/>
<path style="fill:none;stroke-width:0.02;stroke-linecap:round;stroke-linejoin:miter;stroke:rgb(75.686275%,0%,87.843137%);stroke-opacity:1;stroke-miterlimit:10;" d="M 0.306003 0.596005 L 0.306003 0.593998 " transform="matrix(72,0,0,-72,1.1826,75.8694)"/>
<path style=" stroke:none;fill-rule:evenodd;fill:rgb(75.686275%,0%,87.843137%);fill-opacity:1;" d="M 24.160156 32.707031 L 24.160156 34.269531 L 25.726562 34.269531 L 25.726562 32.707031 Z M 24.160156 32.707031 "/>
<path style="fill:none;stroke-width:0.02;stroke-linecap:round;stroke-linejoin:miter;stroke:rgb(75.686275%,0%,87.843137%);stroke-opacity:1;stroke-miterlimit:10;" d="M 0.343004 0.614506 L 0.343004 0.584503 " transform="matrix(72,0,0,-72,1.1826,75.8694)"/>
<path style="fill:none;stroke-width:0.02;stroke-linecap:round;stroke-linejoin:miter;stroke:rgb(75.686275%,0%,87.843137%);stroke-opacity:1;stroke-miterlimit:10;" d="M 0.343004 0.584503 L 0.350003 0.577505 " transform="matrix(72,0,0,-72,1.1826,75.8694)"/>
<path style="fill:none;stroke-width:0.02;stroke-linecap:round;stroke-linejoin:miter;stroke:rgb(75.686275%,0%,87.843137%);stroke-opacity:1;stroke-miterlimit:10;" d="M 0.343004 0.587487 L 0.349026 0.593509 " transform="matrix(72,0,0,-72,1.1826,75.8694)"/>
<path style="fill:none;stroke-width:0.02;stroke-linecap:round;stroke-linejoin:miter;stroke:rgb(75.686275%,0%,87.843137%);stroke-opacity:1;stroke-miterlimit:10;" d="M 0.343004 0.599477 L 0.349026 0.593509 " transform="matrix(72,0,0,-72,1.1826,75.8694)"/>
<path style=" stroke:none;fill-rule:evenodd;fill:rgb(75.686275%,0%,87.843137%);fill-opacity:1;" d="M 27.101562 33.570312 L 25.664062 33.570312 L 25.664062 36.089844 L 27.101562 36.089844 Z M 27.101562 33.570312 "/>
<path style="fill:none;stroke-width:0.02;stroke-linecap:round;stroke-linejoin:miter;stroke:rgb(75.686275%,0%,87.843137%);stroke-opacity:1;stroke-miterlimit:10;" d="M 0.343004 0.614506 L 0.350003 0.621504 " transform="matrix(72,0,0,-72,1.1826,75.8694)"/>
<path style="fill:none;stroke-width:0.02;stroke-linecap:round;stroke-linejoin:miter;stroke:rgb(75.686275%,0%,87.843137%);stroke-opacity:1;stroke-miterlimit:10;" d="M 0.343004 0.611522 L 0.349026 0.605499 " transform="matrix(72,0,0,-72,1.1826,75.8694)"/>
<path style="fill:none;stroke-width:0.02;stroke-linecap:round;stroke-linejoin:miter;stroke:rgb(75.686275%,0%,87.843137%);stroke-opacity:1;stroke-miterlimit:10;" d="M 0.343004 0.599477 L 0.349026 0.605499 " transform="matrix(72,0,0,-72,1.1826,75.8694)"/>
<path style=" stroke:none;fill-rule:evenodd;fill:rgb(75.686275%,0%,87.843137%);fill-opacity:1;" d="M 24.878906 17.847656 L 24.878906 19.410156 L 26.445312 19.410156 L 26.445312 17.847656 Z M 24.878906 17.847656 "/>
<path style=" stroke:none;fill-rule:evenodd;fill:rgb(75.686275%,0%,87.843137%);fill-opacity:1;" d="M 23.179688 17.847656 L 23.179688 19.410156 L 24.746094 19.410156 L 24.746094 17.847656 Z M 23.179688 17.847656 "/>
<path style=" stroke:none;fill-rule:evenodd;fill:rgb(75.686275%,0%,87.843137%);fill-opacity:1;" d="M 27.101562 30.042969 L 25.664062 30.042969 L 25.664062 31.839844 L 27.101562 31.839844 Z M 27.101562 30.042969 "/>
<path style="fill:none;stroke-width:0.02;stroke-linecap:round;stroke-linejoin:miter;stroke:rgb(75.686275%,0%,87.843137%);stroke-opacity:1;stroke-miterlimit:10;" d="M 0.363024 0.621504 L 0.368992 0.615482 " transform="matrix(72,0,0,-72,1.1826,75.8694)"/>
<path style=" stroke:none;fill-rule:evenodd;fill:rgb(75.686275%,0%,87.843137%);fill-opacity:1;" d="M 28.039062 30.042969 L 26.597656 30.042969 L 26.597656 31.839844 L 28.039062 31.839844 Z M 28.039062 30.042969 "/>
<path style="fill:none;stroke-width:0.02;stroke-linecap:round;stroke-linejoin:miter;stroke:rgb(75.686275%,0%,87.843137%);stroke-opacity:1;stroke-miterlimit:10;" d="M 0.368992 0.615482 L 0.368992 0.584503 " transform="matrix(72,0,0,-72,1.1826,75.8694)"/>
<path style="fill:none;stroke-width:0.02;stroke-linecap:round;stroke-linejoin:miter;stroke:rgb(75.686275%,0%,87.843137%);stroke-opacity:1;stroke-miterlimit:10;" d="M 0.361993 0.593509 L 0.368992 0.600508 " transform="matrix(72,0,0,-72,1.1826,75.8694)"/>
<path style="fill:none;stroke-width:0.02;stroke-linecap:round;stroke-linejoin:miter;stroke:rgb(75.686275%,0%,87.843137%);stroke-opacity:1;stroke-miterlimit:10;" d="M 0.361993 0.605499 L 0.368992 0.598501 " transform="matrix(72,0,0,-72,1.1826,75.8694)"/>
<path style="fill:none;stroke-width:0.02;stroke-linecap:round;stroke-linejoin:miter;stroke:rgb(75.686275%,0%,87.843137%);stroke-opacity:1;stroke-miterlimit:10;" d="M 0.361993 0.605499 L 0.368992 0.612498 " transform="matrix(72,0,0,-72,1.1826,75.8694)"/>
<path style="fill:none;stroke-width:0.018;stroke-linecap:round;stroke-linejoin:miter;stroke:rgb(75.686275%,0%,87.843137%);stroke-opacity:1;stroke-miterlimit:10;" d="M 0.347019 0.464983 L 0.373006 0.464983 " transform="matrix(72,0,0,-72,1.1826,75.8694)"/>
<path style=" stroke:none;fill-rule:evenodd;fill:rgb(75.686275%,0%,87.843137%);fill-opacity:1;" d="M 25.519531 40.300781 L 25.519531 41.597656 L 28.6875 41.597656 L 28.6875 40.300781 Z M 25.519531 40.300781 "/>
<path style=" stroke:none;fill-rule:evenodd;fill:rgb(75.686275%,0%,87.843137%);fill-opacity:1;" d="M 25.519531 38.863281 L 25.519531 40.15625 L 28.6875 40.15625 L 28.6875 38.863281 Z M 25.519531 38.863281 "/>
<path style=" stroke:none;fill-rule:evenodd;fill:rgb(75.686275%,0%,87.843137%);fill-opacity:1;" d="M 25.519531 37.492188 L 25.519531 38.789062 L 28.6875 38.789062 L 28.6875 37.492188 Z M 25.519531 37.492188 "/>
<path style=" stroke:none;fill-rule:evenodd;fill:rgb(75.686275%,0%,87.843137%);fill-opacity:1;" d="M 25.519531 36.054688 L 25.519531 37.347656 L 28.6875 37.347656 L 28.6875 36.054688 Z M 25.519531 36.054688 "/>
<path style=" stroke:none;fill-rule:evenodd;fill:rgb(75.686275%,0%,87.843137%);fill-opacity:1;" d="M 27.667969 44.0625 L 25.816406 44.0625 L 25.816406 46.476562 L 27.667969 46.476562 Z M 27.667969 44.0625 "/>
<path style=" stroke:none;fill-rule:evenodd;fill:rgb(75.686275%,0%,87.843137%);fill-opacity:1;" d="M 29.933594 44.0625 L 28.085938 44.0625 L 28.085938 46.476562 L 29.933594 46.476562 Z M 29.933594 44.0625 "/>
<path style="fill:none;stroke-width:0.02;stroke-linecap:round;stroke-linejoin:miter;stroke:rgb(75.686275%,0%,87.843137%);stroke-opacity:1;stroke-miterlimit:10;" d="M 0.363024 0.578481 L 0.368992 0.584503 " transform="matrix(72,0,0,-72,1.1826,75.8694)"/>
<path style=" stroke:none;fill-rule:evenodd;fill:rgb(75.686275%,0%,87.843137%);fill-opacity:1;" d="M 28.039062 33.496094 L 26.597656 33.496094 L 26.597656 36.089844 L 28.039062 36.089844 Z M 28.039062 33.496094 "/>
<path style="fill:none;stroke-width:0.02;stroke-linecap:round;stroke-linejoin:miter;stroke:rgb(75.686275%,0%,87.843137%);stroke-opacity:1;stroke-miterlimit:10;" d="M 0.361993 0.593509 L 0.368992 0.586511 " transform="matrix(72,0,0,-72,1.1826,75.8694)"/>
<path style="fill:none;stroke-width:0.02;stroke-linecap:round;stroke-linejoin:miter;stroke:rgb(75.686275%,0%,87.843137%);stroke-opacity:1;stroke-miterlimit:10;" d="M 0.368992 0.586511 L 0.368992 0.584503 " transform="matrix(72,0,0,-72,1.1826,75.8694)"/>
<path style="fill:none;stroke-width:0.02;stroke-linecap:round;stroke-linejoin:miter;stroke:rgb(75.686275%,0%,87.843137%);stroke-opacity:1;stroke-miterlimit:10;" d="M 0.400025 0.615482 L 0.400025 0.58548 " transform="matrix(72,0,0,-72,1.1826,75.8694)"/>
<path style="fill:none;stroke-width:0.02;stroke-linecap:round;stroke-linejoin:miter;stroke:rgb(75.686275%,0%,87.843137%);stroke-opacity:1;stroke-miterlimit:10;" d="M 0.400025 0.58548 L 0.407023 0.578481 " transform="matrix(72,0,0,-72,1.1826,75.8694)"/>
<path style="fill:none;stroke-width:0.02;stroke-linecap:round;stroke-linejoin:miter;stroke:rgb(75.686275%,0%,87.843137%);stroke-opacity:1;stroke-miterlimit:10;" d="M 0.400025 0.588518 L 0.405993 0.594486 " transform="matrix(72,0,0,-72,1.1826,75.8694)"/>
<path style="fill:none;stroke-width:0.02;stroke-linecap:round;stroke-linejoin:miter;stroke:rgb(75.686275%,0%,87.843137%);stroke-opacity:1;stroke-miterlimit:10;" d="M 0.400025 0.600508 L 0.405993 0.594486 " transform="matrix(72,0,0,-72,1.1826,75.8694)"/>
<path style="fill:none;stroke-width:0.02;stroke-linecap:round;stroke-linejoin:miter;stroke:rgb(75.686275%,0%,87.843137%);stroke-opacity:1;stroke-miterlimit:10;" d="M 0.400025 0.600508 L 0.405993 0.606476 " transform="matrix(72,0,0,-72,1.1826,75.8694)"/>
<path style=" stroke:none;fill-rule:evenodd;fill:rgb(75.686275%,0%,87.843137%);fill-opacity:1;" d="M 31.207031 33.496094 L 29.765625 33.496094 L 29.765625 36.015625 L 31.207031 36.015625 Z M 31.207031 33.496094 "/>
<path style="fill:none;stroke-width:0.02;stroke-linecap:round;stroke-linejoin:miter;stroke:rgb(75.686275%,0%,87.843137%);stroke-opacity:1;stroke-miterlimit:10;" d="M 0.400025 0.615482 L 0.407023 0.622481 " transform="matrix(72,0,0,-72,1.1826,75.8694)"/>
<path style=" stroke:none;fill-rule:evenodd;fill:rgb(75.686275%,0%,87.843137%);fill-opacity:1;" d="M 31.207031 29.96875 L 29.765625 29.96875 L 29.765625 31.769531 L 31.207031 31.769531 Z M 31.207031 29.96875 "/>
<path style="fill:none;stroke-width:0.02;stroke-linecap:round;stroke-linejoin:miter;stroke:rgb(75.686275%,0%,87.843137%);stroke-opacity:1;stroke-miterlimit:10;" d="M 0.400025 0.612498 L 0.405993 0.606476 " transform="matrix(72,0,0,-72,1.1826,75.8694)"/>
<path style="fill:none;stroke-width:0.02;stroke-linecap:round;stroke-linejoin:miter;stroke:rgb(75.686275%,0%,87.843137%);stroke-opacity:1;stroke-miterlimit:10;" d="M 0.41999 0.579512 L 0.426012 0.58548 " transform="matrix(72,0,0,-72,1.1826,75.8694)"/>
<path style=" stroke:none;fill-rule:evenodd;fill:rgb(75.686275%,0%,87.843137%);fill-opacity:1;" d="M 32.144531 33.425781 L 30.703125 33.425781 L 30.703125 36.015625 L 32.144531 36.015625 Z M 32.144531 33.425781 "/>
<path style="fill:none;stroke-width:0.02;stroke-linecap:round;stroke-linejoin:miter;stroke:rgb(75.686275%,0%,87.843137%);stroke-opacity:1;stroke-miterlimit:10;" d="M 0.419013 0.594486 L 0.426012 0.587487 " transform="matrix(72,0,0,-72,1.1826,75.8694)"/>
<path style="fill:none;stroke-width:0.02;stroke-linecap:round;stroke-linejoin:miter;stroke:rgb(75.686275%,0%,87.843137%);stroke-opacity:1;stroke-miterlimit:10;" d="M 0.426012 0.587487 L 0.426012 0.58548 " transform="matrix(72,0,0,-72,1.1826,75.8694)"/>
<path style="fill:none;stroke-width:0.02;stroke-linecap:round;stroke-linejoin:miter;stroke:rgb(75.686275%,0%,87.843137%);stroke-opacity:1;stroke-miterlimit:10;" d="M 0.426012 0.616513 L 0.426012 0.58548 " transform="matrix(72,0,0,-72,1.1826,75.8694)"/>
<path style="fill:none;stroke-width:0.02;stroke-linecap:round;stroke-linejoin:miter;stroke:rgb(75.686275%,0%,87.843137%);stroke-opacity:1;stroke-miterlimit:10;" d="M 0.419013 0.594486 L 0.426012 0.601485 " transform="matrix(72,0,0,-72,1.1826,75.8694)"/>
<path style="fill:none;stroke-width:0.02;stroke-linecap:round;stroke-linejoin:miter;stroke:rgb(75.686275%,0%,87.843137%);stroke-opacity:1;stroke-miterlimit:10;" d="M 0.419013 0.606476 L 0.426012 0.599477 " transform="matrix(72,0,0,-72,1.1826,75.8694)"/>
<path style="fill:none;stroke-width:0.02;stroke-linecap:round;stroke-linejoin:miter;stroke:rgb(75.686275%,0%,87.843137%);stroke-opacity:1;stroke-miterlimit:10;" d="M 0.419013 0.606476 L 0.426012 0.613475 " transform="matrix(72,0,0,-72,1.1826,75.8694)"/>
<path style="fill:none;stroke-width:0.02;stroke-linecap:round;stroke-linejoin:miter;stroke:rgb(75.686275%,0%,87.843137%);stroke-opacity:1;stroke-miterlimit:10;" d="M 0.41999 0.622481 L 0.426012 0.616513 " transform="matrix(72,0,0,-72,1.1826,75.8694)"/>
<path style=" stroke:none;fill-rule:evenodd;fill:rgb(75.686275%,0%,87.843137%);fill-opacity:1;" d="M 32.144531 29.96875 L 30.703125 29.96875 L 30.703125 31.769531 L 32.144531 31.769531 Z M 32.144531 29.96875 "/>
<path style=" stroke:none;fill-rule:evenodd;fill:rgb(75.686275%,0%,87.843137%);fill-opacity:1;" d="M 35.167969 29.71875 L 33.726562 29.71875 L 33.726562 31.515625 L 35.167969 31.515625 Z M 35.167969 29.71875 "/>
<path style="fill:none;stroke-width:0.02;stroke-linecap:round;stroke-linejoin:miter;stroke:rgb(75.686275%,0%,87.843137%);stroke-opacity:1;stroke-miterlimit:10;" d="M 0.454983 0.619009 L 0.461982 0.626007 " transform="matrix(72,0,0,-72,1.1826,75.8694)"/>
<path style="fill:none;stroke-width:0.02;stroke-linecap:round;stroke-linejoin:miter;stroke:rgb(75.686275%,0%,87.843137%);stroke-opacity:1;stroke-miterlimit:10;" d="M 0.454983 0.616025 L 0.461006 0.610003 " transform="matrix(72,0,0,-72,1.1826,75.8694)"/>
<path style="fill:none;stroke-width:0.02;stroke-linecap:round;stroke-linejoin:miter;stroke:rgb(75.686275%,0%,87.843137%);stroke-opacity:1;stroke-miterlimit:10;" d="M 0.454983 0.60398 L 0.461006 0.610003 " transform="matrix(72,0,0,-72,1.1826,75.8694)"/>
<path style="fill:none;stroke-width:0.02;stroke-linecap:round;stroke-linejoin:miter;stroke:rgb(75.686275%,0%,87.843137%);stroke-opacity:1;stroke-miterlimit:10;" d="M 0.454983 0.619009 L 0.454983 0.589006 " transform="matrix(72,0,0,-72,1.1826,75.8694)"/>
<path style="fill:none;stroke-width:0.02;stroke-linecap:round;stroke-linejoin:miter;stroke:rgb(75.686275%,0%,87.843137%);stroke-opacity:1;stroke-miterlimit:10;" d="M 0.454983 0.589006 L 0.461982 0.582008 " transform="matrix(72,0,0,-72,1.1826,75.8694)"/>
<path style="fill:none;stroke-width:0.02;stroke-linecap:round;stroke-linejoin:miter;stroke:rgb(75.686275%,0%,87.843137%);stroke-opacity:1;stroke-miterlimit:10;" d="M 0.454983 0.59199 L 0.461006 0.598013 " transform="matrix(72,0,0,-72,1.1826,75.8694)"/>
<path style="fill:none;stroke-width:0.02;stroke-linecap:round;stroke-linejoin:miter;stroke:rgb(75.686275%,0%,87.843137%);stroke-opacity:1;stroke-miterlimit:10;" d="M 0.454983 0.60398 L 0.461006 0.598013 " transform="matrix(72,0,0,-72,1.1826,75.8694)"/>
<path style=" stroke:none;fill-rule:evenodd;fill:rgb(75.686275%,0%,87.843137%);fill-opacity:1;" d="M 35.167969 33.246094 L 33.726562 33.246094 L 33.726562 35.765625 L 35.167969 35.765625 Z M 35.167969 33.246094 "/>
<path style="fill:none;stroke-width:0.02;stroke-linecap:round;stroke-linejoin:miter;stroke:rgb(75.686275%,0%,87.843137%);stroke-opacity:1;stroke-miterlimit:10;" d="M 0.481025 0.619985 L 0.481025 0.589006 " transform="matrix(72,0,0,-72,1.1826,75.8694)"/>
<path style="fill:none;stroke-width:0.02;stroke-linecap:round;stroke-linejoin:miter;stroke:rgb(75.686275%,0%,87.843137%);stroke-opacity:1;stroke-miterlimit:10;" d="M 0.475003 0.626007 L 0.481025 0.619985 " transform="matrix(72,0,0,-72,1.1826,75.8694)"/>
<path style=" stroke:none;fill-rule:evenodd;fill:rgb(75.686275%,0%,87.843137%);fill-opacity:1;" d="M 36.101562 29.71875 L 34.664062 29.71875 L 34.664062 31.515625 L 36.101562 31.515625 Z M 36.101562 29.71875 "/>
<path style="fill:none;stroke-width:0.02;stroke-linecap:round;stroke-linejoin:miter;stroke:rgb(75.686275%,0%,87.843137%);stroke-opacity:1;stroke-miterlimit:10;" d="M 0.474026 0.610003 L 0.481025 0.617001 " transform="matrix(72,0,0,-72,1.1826,75.8694)"/>
<path style="fill:none;stroke-width:0.02;stroke-linecap:round;stroke-linejoin:miter;stroke:rgb(75.686275%,0%,87.843137%);stroke-opacity:1;stroke-miterlimit:10;" d="M 0.475003 0.582984 L 0.481025 0.589006 " transform="matrix(72,0,0,-72,1.1826,75.8694)"/>
<path style=" stroke:none;fill-rule:evenodd;fill:rgb(75.686275%,0%,87.843137%);fill-opacity:1;" d="M 36.101562 33.171875 L 34.664062 33.171875 L 34.664062 35.765625 L 36.101562 35.765625 Z M 36.101562 33.171875 "/>
<path style="fill:none;stroke-width:0.02;stroke-linecap:round;stroke-linejoin:miter;stroke:rgb(75.686275%,0%,87.843137%);stroke-opacity:1;stroke-miterlimit:10;" d="M 0.474026 0.598013 L 0.481025 0.591014 " transform="matrix(72,0,0,-72,1.1826,75.8694)"/>
<path style="fill:none;stroke-width:0.02;stroke-linecap:round;stroke-linejoin:miter;stroke:rgb(75.686275%,0%,87.843137%);stroke-opacity:1;stroke-miterlimit:10;" d="M 0.481025 0.591014 L 0.481025 0.589006 " transform="matrix(72,0,0,-72,1.1826,75.8694)"/>
<path style="fill:none;stroke-width:0.02;stroke-linecap:round;stroke-linejoin:miter;stroke:rgb(75.686275%,0%,87.843137%);stroke-opacity:1;stroke-miterlimit:10;" d="M 0.474026 0.598013 L 0.481025 0.605011 " transform="matrix(72,0,0,-72,1.1826,75.8694)"/>
<path style="fill:none;stroke-width:0.02;stroke-linecap:round;stroke-linejoin:miter;stroke:rgb(75.686275%,0%,87.843137%);stroke-opacity:1;stroke-miterlimit:10;" d="M 0.474026 0.610003 L 0.481025 0.603004 " transform="matrix(72,0,0,-72,1.1826,75.8694)"/>
<path style=" stroke:none;fill-rule:evenodd;fill:rgb(100%,49.803922%,45.098039%);fill-opacity:1;" d="M 24.582031 55.347656 C 24.582031 54.871094 23.863281 54.871094 23.863281 55.347656 C 23.863281 55.828125 24.582031 55.828125 24.582031 55.347656 "/>
<path style=" stroke:none;fill-rule:evenodd;fill:rgb(100%,49.803922%,45.098039%);fill-opacity:1;" d="M 27.101562 51.390625 C 27.101562 50.910156 26.382812 50.910156 26.382812 51.390625 C 26.382812 51.871094 27.101562 51.871094 27.101562 51.390625 "/>
<path style=" stroke:none;fill-rule:evenodd;fill:rgb(100%,49.803922%,45.098039%);fill-opacity:1;" d="M 29.621094 47.789062 C 29.621094 47.308594 28.902344 47.308594 28.902344 47.789062 C 28.902344 48.269531 29.621094 48.269531 29.621094 47.789062 "/>
<path style=" stroke:none;fill-rule:evenodd;fill:rgb(100%,49.803922%,45.098039%);fill-opacity:1;" d="M 29.621094 50.667969 C 29.621094 50.1875 28.902344 50.1875 28.902344 50.667969 C 28.902344 51.148438 29.621094 51.148438 29.621094 50.667969 "/>
<path style=" stroke:none;fill-rule:evenodd;fill:rgb(100%,49.803922%,45.098039%);fill-opacity:1;" d="M 34.300781 52.46875 C 34.300781 51.988281 33.582031 51.988281 33.582031 52.46875 C 33.582031 52.949219 34.300781 52.949219 34.300781 52.46875 "/>
<path style=" stroke:none;fill-rule:evenodd;fill:rgb(100%,49.803922%,45.098039%);fill-opacity:1;" d="M 40.421875 55.347656 C 40.421875 54.871094 39.703125 54.871094 39.703125 55.347656 C 39.703125 55.828125 40.421875 55.828125 40.421875 55.347656 "/>
<path style=" stroke:none;fill-rule:evenodd;fill:rgb(100%,49.803922%,45.098039%);fill-opacity:1;" d="M 42.941406 49.230469 C 42.941406 48.75 42.222656 48.75 42.222656 49.230469 C 42.222656 49.710938 42.941406 49.710938 42.941406 49.230469 "/>
<path style=" stroke:none;fill-rule:evenodd;fill:rgb(100%,49.803922%,45.098039%);fill-opacity:1;" d="M 45.460938 55.347656 C 45.460938 54.871094 44.742188 54.871094 44.742188 55.347656 C 44.742188 55.828125 45.460938 55.828125 45.460938 55.347656 "/>
<path style=" stroke:none;fill-rule:evenodd;fill:rgb(100%,49.803922%,45.098039%);fill-opacity:1;" d="M 20.515625 34.902344 C 20.515625 34.277344 19.578125 34.277344 19.578125 34.902344 C 19.578125 35.527344 20.515625 35.527344 20.515625 34.902344 "/>
<path style=" stroke:none;fill-rule:evenodd;fill:rgb(100%,49.803922%,45.098039%);fill-opacity:1;" d="M 21.449219 29.789062 C 21.449219 29.164062 20.515625 29.164062 20.515625 29.789062 C 20.515625 30.414062 21.449219 30.414062 21.449219 29.789062 "/>
<path style=" stroke:none;fill-rule:evenodd;fill:rgb(100%,49.803922%,45.098039%);fill-opacity:1;" d="M 25.625 31.300781 C 25.625 30.675781 24.691406 30.675781 24.691406 31.300781 C 24.691406 31.925781 25.625 31.925781 25.625 31.300781 "/>
<path style=" stroke:none;fill-rule:evenodd;fill:rgb(100%,49.803922%,45.098039%);fill-opacity:1;" d="M 30.089844 30.871094 C 30.089844 30.246094 29.15625 30.246094 29.15625 30.871094 C 29.15625 31.492188 30.089844 31.492188 30.089844 30.871094 "/>
<path style=" stroke:none;fill-rule:evenodd;fill:rgb(100%,49.803922%,45.098039%);fill-opacity:1;" d="M 31.53125 42.75 C 31.53125 42.125 30.59375 42.125 30.59375 42.75 C 30.59375 43.375 31.53125 43.375 31.53125 42.75 "/>
<path style=" stroke:none;fill-rule:evenodd;fill:rgb(100%,49.803922%,45.098039%);fill-opacity:1;" d="M 31.960938 24.675781 C 31.960938 24.054688 31.027344 24.054688 31.027344 24.675781 C 31.027344 25.300781 31.960938 25.300781 31.960938 24.675781 "/>
<path style=" stroke:none;fill-rule:evenodd;fill:rgb(100%,49.803922%,45.098039%);fill-opacity:1;" d="M 34.050781 30.507812 C 34.050781 29.886719 33.113281 29.886719 33.113281 30.507812 C 33.113281 31.132812 34.050781 31.132812 34.050781 30.507812 "/>
<path style=" stroke:none;fill-rule:evenodd;fill:rgb(100%,49.803922%,45.098039%);fill-opacity:1;" d="M 38.011719 31.375 C 38.011719 30.75 37.074219 30.75 37.074219 31.375 C 37.074219 31.996094 38.011719 31.996094 38.011719 31.375 "/>
<path style=" stroke:none;fill-rule:evenodd;fill:rgb(100%,49.803922%,45.098039%);fill-opacity:1;" d="M 42.332031 35.910156 C 42.332031 35.285156 41.394531 35.285156 41.394531 35.910156 C 41.394531 36.535156 42.332031 36.535156 42.332031 35.910156 "/>
<path style=" stroke:none;fill-rule:evenodd;fill:rgb(100%,49.803922%,45.098039%);fill-opacity:1;" d="M 43.050781 31.589844 C 43.050781 30.964844 42.113281 30.964844 42.113281 31.589844 C 42.113281 32.214844 43.050781 32.214844 43.050781 31.589844 "/>
<path style=" stroke:none;fill-rule:evenodd;fill:rgb(100%,49.803922%,45.098039%);fill-opacity:1;" d="M 13.71875 64.753906 C 13.71875 63.792969 12.277344 63.792969 12.277344 64.753906 C 12.277344 65.710938 13.71875 65.710938 13.71875 64.753906 "/>
<path style=" stroke:none;fill-rule:evenodd;fill:rgb(100%,49.803922%,45.098039%);fill-opacity:1;" d="M 24.15625 64.753906 C 24.15625 63.792969 22.71875 63.792969 22.71875 64.753906 C 22.71875 65.710938 24.15625 65.710938 24.15625 64.753906 "/>
<path style=" stroke:none;fill-rule:evenodd;fill:rgb(100%,49.803922%,45.098039%);fill-opacity:1;" d="M 34.597656 64.753906 C 34.597656 63.792969 33.15625 63.792969 33.15625 64.753906 C 33.15625 65.710938 34.597656 65.710938 34.597656 64.753906 "/>
<path style=" stroke:none;fill-rule:evenodd;fill:rgb(100%,49.803922%,45.098039%);fill-opacity:1;" d="M 45.039062 64.753906 C 45.039062 63.792969 43.597656 63.792969 43.597656 64.753906 C 43.597656 65.710938 45.039062 65.710938 45.039062 64.753906 "/>
<path style=" stroke:none;fill-rule:evenodd;fill:rgb(100%,49.803922%,45.098039%);fill-opacity:1;" d="M 55.476562 64.753906 C 55.476562 63.792969 54.039062 63.792969 54.039062 64.753906 C 54.039062 65.710938 55.476562 65.710938 55.476562 64.753906 "/>
<path style=" stroke:none;fill-rule:evenodd;fill:rgb(100%,49.803922%,45.098039%);fill-opacity:1;" d="M 65.917969 64.753906 C 65.917969 63.792969 64.476562 63.792969 64.476562 64.753906 C 64.476562 65.710938 65.917969 65.710938 65.917969 64.753906 "/>
<path style=" stroke:none;fill-rule:evenodd;fill:rgb(100%,49.803922%,45.098039%);fill-opacity:1;" d="M 11.523438 62.484375 C 11.523438 61.042969 9.363281 61.042969 9.363281 62.484375 C 9.363281 63.925781 11.523438 63.925781 11.523438 62.484375 "/>
<path style=" stroke:none;fill-rule:evenodd;fill:rgb(100%,49.803922%,45.098039%);fill-opacity:1;" d="M 21.960938 62.484375 C 21.960938 61.042969 19.800781 61.042969 19.800781 62.484375 C 19.800781 63.925781 21.960938 63.925781 21.960938 62.484375 "/>
<path style=" stroke:none;fill-rule:evenodd;fill:rgb(100%,49.803922%,45.098039%);fill-opacity:1;" d="M 32.402344 62.484375 C 32.402344 61.042969 30.242188 61.042969 30.242188 62.484375 C 30.242188 63.925781 32.402344 63.925781 32.402344 62.484375 "/>
<path style=" stroke:none;fill-rule:evenodd;fill:rgb(100%,49.803922%,45.098039%);fill-opacity:1;" d="M 42.84375 62.484375 C 42.84375 61.042969 40.683594 61.042969 40.683594 62.484375 C 40.683594 63.925781 42.84375 63.925781 42.84375 62.484375 "/>
<path style=" stroke:none;fill-rule:evenodd;fill:rgb(100%,49.803922%,45.098039%);fill-opacity:1;" d="M 53.28125 62.484375 C 53.28125 61.042969 51.121094 61.042969 51.121094 62.484375 C 51.121094 63.925781 53.28125 63.925781 53.28125 62.484375 "/>
<path style=" stroke:none;fill-rule:evenodd;fill:rgb(100%,49.803922%,45.098039%);fill-opacity:1;" d="M 63.722656 62.484375 C 63.722656 61.042969 61.5625 61.042969 61.5625 62.484375 C 61.5625 63.925781 63.722656 63.925781 63.722656 62.484375 "/>
<path style=" stroke:none;fill-rule:evenodd;fill:rgb(100%,49.803922%,45.098039%);fill-opacity:1;" d="M 14.292969 41.65625 C 14.292969 39.976562 11.773438 39.976562 11.773438 41.65625 C 11.773438 43.335938 14.292969 43.335938 14.292969 41.65625 "/>
<path style=" stroke:none;fill-rule:evenodd;fill:rgb(100%,49.803922%,45.098039%);fill-opacity:1;" d="M 21.523438 41.65625 C 21.523438 39.976562 19.003906 39.976562 19.003906 41.65625 C 19.003906 43.335938 21.523438 43.335938 21.523438 41.65625 "/>
<path style=" stroke:none;fill-rule:evenodd;fill:rgb(100%,49.803922%,45.098039%);fill-opacity:1;" d="M 24.015625 22.921875 C 24.015625 21.242188 21.492188 21.242188 21.492188 22.921875 C 21.492188 24.601562 24.015625 24.601562 24.015625 22.921875 "/>
<path style=" stroke:none;fill-rule:evenodd;fill:rgb(100%,49.803922%,45.098039%);fill-opacity:1;" d="M 26.90625 28.019531 C 26.90625 26.339844 24.386719 26.339844 24.386719 28.019531 C 24.386719 29.699219 26.90625 29.699219 26.90625 28.019531 "/>
<path style=" stroke:none;fill-rule:evenodd;fill:rgb(100%,49.803922%,45.098039%);fill-opacity:1;" d="M 29.796875 22.921875 C 29.796875 21.242188 27.277344 21.242188 27.277344 22.921875 C 27.277344 24.601562 29.796875 24.601562 29.796875 22.921875 "/>
<path style=" stroke:none;fill-rule:evenodd;fill:rgb(100%,49.803922%,45.098039%);fill-opacity:1;" d="M 32.691406 28.019531 C 32.691406 26.339844 30.167969 26.339844 30.167969 28.019531 C 30.167969 29.699219 32.691406 29.699219 32.691406 28.019531 "/>
<path style=" stroke:none;fill-rule:evenodd;fill:rgb(100%,49.803922%,45.098039%);fill-opacity:1;" d="M 35.578125 22.921875 C 35.578125 21.242188 33.058594 21.242188 33.058594 22.921875 C 33.058594 24.601562 35.578125 24.601562 35.578125 22.921875 "/>
<path style=" stroke:none;fill-rule:evenodd;fill:rgb(100%,49.803922%,45.098039%);fill-opacity:1;" d="M 38.472656 28.019531 C 38.472656 26.339844 35.953125 26.339844 35.953125 28.019531 C 35.953125 29.699219 38.472656 29.699219 38.472656 28.019531 "/>
<path style=" stroke:none;fill-rule:evenodd;fill:rgb(100%,49.803922%,45.098039%);fill-opacity:1;" d="M 41.367188 22.921875 C 41.367188 21.242188 38.847656 21.242188 38.847656 22.921875 C 38.847656 24.601562 41.367188 24.601562 41.367188 22.921875 "/>
<path style=" stroke:none;fill-rule:evenodd;fill:rgb(100%,49.803922%,45.098039%);fill-opacity:1;" d="M 44.253906 28.019531 C 44.253906 26.339844 41.734375 26.339844 41.734375 28.019531 C 41.734375 29.699219 44.253906 29.699219 44.253906 28.019531 "/>
<path style=" stroke:none;fill-rule:evenodd;fill:rgb(100%,49.803922%,45.098039%);fill-opacity:1;" d="M 46.75 41.65625 C 46.75 39.976562 44.230469 39.976562 44.230469 41.65625 C 44.230469 43.335938 46.75 43.335938 46.75 41.65625 "/>
<path style=" stroke:none;fill-rule:evenodd;fill:rgb(100%,49.803922%,45.098039%);fill-opacity:1;" d="M 53.972656 41.65625 C 53.972656 39.976562 51.453125 39.976562 51.453125 41.65625 C 51.453125 43.335938 53.972656 43.335938 53.972656 41.65625 "/>
<path style=" stroke:none;fill-rule:evenodd;fill:rgb(100%,49.803922%,45.098039%);fill-opacity:1;" d="M 7.957031 62.203125 C 7.957031 59.851562 4.429688 59.851562 4.429688 62.203125 C 4.429688 64.554688 7.957031 64.554688 7.957031 62.203125 "/>
<path style=" stroke:none;fill-rule:evenodd;fill:rgb(100%,49.803922%,45.098039%);fill-opacity:1;" d="M 18.398438 62.203125 C 18.398438 59.851562 14.871094 59.851562 14.871094 62.203125 C 14.871094 64.554688 18.398438 64.554688 18.398438 62.203125 "/>
<path style=" stroke:none;fill-rule:evenodd;fill:rgb(100%,49.803922%,45.098039%);fill-opacity:1;" d="M 28.835938 62.203125 C 28.835938 59.851562 25.308594 59.851562 25.308594 62.203125 C 25.308594 64.554688 28.835938 64.554688 28.835938 62.203125 "/>
<path style=" stroke:none;fill-rule:evenodd;fill:rgb(100%,49.803922%,45.098039%);fill-opacity:1;" d="M 39.277344 62.203125 C 39.277344 59.851562 35.75 59.851562 35.75 62.203125 C 35.75 64.554688 39.277344 64.554688 39.277344 62.203125 "/>
<path style=" stroke:none;fill-rule:evenodd;fill:rgb(100%,49.803922%,45.098039%);fill-opacity:1;" d="M 49.71875 62.203125 C 49.71875 59.851562 46.191406 59.851562 46.191406 62.203125 C 46.191406 64.554688 49.71875 64.554688 49.71875 62.203125 "/>
<path style=" stroke:none;fill-rule:evenodd;fill:rgb(100%,49.803922%,45.098039%);fill-opacity:1;" d="M 60.15625 62.203125 C 60.15625 59.851562 56.628906 59.851562 56.628906 62.203125 C 56.628906 64.554688 60.15625 64.554688 60.15625 62.203125 "/>
<path style=" stroke:none;fill-rule:evenodd;fill:rgb(100%,49.803922%,45.098039%);fill-opacity:1;" d="M 16.570312 15.75 C 16.570312 13.300781 12.898438 13.300781 12.898438 15.75 C 12.898438 18.199219 16.570312 18.199219 16.570312 15.75 "/>
<path style=" stroke:none;fill-rule:evenodd;fill:rgb(100%,49.803922%,45.098039%);fill-opacity:1;" d="M 52.851562 15.75 C 52.851562 13.300781 49.179688 13.300781 49.179688 15.75 C 49.179688 18.199219 52.851562 18.199219 52.851562 15.75 "/>
<path style=" stroke:none;fill-rule:evenodd;fill:rgb(100%,49.803922%,45.098039%);fill-opacity:1;" d="M 11.585938 67.589844 C 11.585938 63.796875 5.898438 63.796875 5.898438 67.589844 C 5.898438 71.382812 11.585938 71.382812 11.585938 67.589844 "/>
<path style=" stroke:none;fill-rule:evenodd;fill:rgb(100%,49.803922%,45.098039%);fill-opacity:1;" d="M 22.027344 67.589844 C 22.027344 63.796875 16.339844 63.796875 16.339844 67.589844 C 16.339844 71.382812 22.027344 71.382812 22.027344 67.589844 "/>
<path style=" stroke:none;fill-rule:evenodd;fill:rgb(100%,49.803922%,45.098039%);fill-opacity:1;" d="M 32.464844 67.589844 C 32.464844 63.796875 26.777344 63.796875 26.777344 67.589844 C 26.777344 71.382812 32.464844 71.382812 32.464844 67.589844 "/>
<path style=" stroke:none;fill-rule:evenodd;fill:rgb(100%,49.803922%,45.098039%);fill-opacity:1;" d="M 42.90625 67.589844 C 42.90625 63.796875 37.21875 63.796875 37.21875 67.589844 C 37.21875 71.382812 42.90625 71.382812 42.90625 67.589844 "/>
<path style=" stroke:none;fill-rule:evenodd;fill:rgb(100%,49.803922%,45.098039%);fill-opacity:1;" d="M 53.347656 67.589844 C 53.347656 63.796875 47.660156 63.796875 47.660156 67.589844 C 47.660156 71.382812 53.347656 71.382812 53.347656 67.589844 "/>
<path style=" stroke:none;fill-rule:evenodd;fill:rgb(100%,49.803922%,45.098039%);fill-opacity:1;" d="M 63.785156 67.589844 C 63.785156 63.796875 58.097656 63.796875 58.097656 67.589844 C 58.097656 71.382812 63.785156 71.382812 63.785156 67.589844 "/>
<path style=" stroke:none;fill-rule:evenodd;fill:rgb(100%,49.803922%,45.098039%);fill-opacity:1;" d="M 17.546875 25.46875 C 17.546875 20.957031 10.78125 20.957031 10.78125 25.46875 C 10.78125 29.980469 17.546875 29.980469 17.546875 25.46875 "/>
<path style=" stroke:none;fill-rule:evenodd;fill:rgb(100%,49.803922%,45.098039%);fill-opacity:1;" d="M 54.964844 25.46875 C 54.964844 20.957031 48.199219 20.957031 48.199219 25.46875 C 48.199219 29.980469 54.964844 29.980469 54.964844 25.46875 "/>
<path style="fill:none;stroke-width:0.008;stroke-linecap:round;stroke-linejoin:miter;stroke:rgb(45.098039%,45.098039%,87.058824%);stroke-opacity:1;stroke-miterlimit:10;" d="M 0.142429 0.578481 L 0.142429 0.570614 " transform="matrix(72,0,0,-72,1.1826,75.8694)"/>
<path style="fill:none;stroke-width:0.008;stroke-linecap:round;stroke-linejoin:miter;stroke:rgb(45.098039%,45.098039%,87.058824%);stroke-opacity:1;stroke-miterlimit:10;" d="M 0.197551 0.578481 L 0.197551 0.570614 " transform="matrix(72,0,0,-72,1.1826,75.8694)"/>
<path style="fill:none;stroke-width:0.006;stroke-linecap:round;stroke-linejoin:miter;stroke:rgb(45.098039%,45.098039%,87.058824%);stroke-opacity:1;stroke-miterlimit:10;" d="M 0.51298 0.627526 L 0.52101 0.635502 " transform="matrix(72,0,0,-72,1.1826,75.8694)"/>
<path style="fill:none;stroke-width:0.006;stroke-linecap:round;stroke-linejoin:miter;stroke:rgb(45.098039%,45.098039%,87.058824%);stroke-opacity:1;stroke-miterlimit:10;" d="M 0.51298 0.627526 L 0.51298 0.592479 " transform="matrix(72,0,0,-72,1.1826,75.8694)"/>
<path style="fill:none;stroke-width:0.006;stroke-linecap:round;stroke-linejoin:miter;stroke:rgb(45.098039%,45.098039%,87.058824%);stroke-opacity:1;stroke-miterlimit:10;" d="M 0.519979 0.58548 L 0.51298 0.592479 " transform="matrix(72,0,0,-72,1.1826,75.8694)"/>
<path style="fill:none;stroke-width:0.006;stroke-linecap:round;stroke-linejoin:miter;stroke:rgb(45.098039%,45.098039%,87.058824%);stroke-opacity:1;stroke-miterlimit:10;" d="M 0.553019 0.593509 L 0.546021 0.586511 " transform="matrix(72,0,0,-72,1.1826,75.8694)"/>
<path style="fill:none;stroke-width:0.006;stroke-linecap:round;stroke-linejoin:miter;stroke:rgb(45.098039%,45.098039%,87.058824%);stroke-opacity:1;stroke-miterlimit:10;" d="M 0.553019 0.628503 L 0.553019 0.593509 " transform="matrix(72,0,0,-72,1.1826,75.8694)"/>
<path style="fill:none;stroke-width:0.006;stroke-linecap:round;stroke-linejoin:miter;stroke:rgb(45.098039%,45.098039%,87.058824%);stroke-opacity:1;stroke-miterlimit:10;" d="M 0.546021 0.635502 L 0.553019 0.628503 " transform="matrix(72,0,0,-72,1.1826,75.8694)"/>
<path style="fill:none;stroke-width:0.006;stroke-linecap:round;stroke-linejoin:miter;stroke:rgb(45.098039%,45.098039%,87.058824%);stroke-opacity:1;stroke-miterlimit:10;" d="M 0.576023 0.607507 L 0.583998 0.615482 " transform="matrix(72,0,0,-72,1.1826,75.8694)"/>
<path style="fill:none;stroke-width:0.006;stroke-linecap:round;stroke-linejoin:miter;stroke:rgb(45.098039%,45.098039%,87.058824%);stroke-opacity:1;stroke-miterlimit:10;" d="M 0.576023 0.607507 L 0.576023 0.572513 " transform="matrix(72,0,0,-72,1.1826,75.8694)"/>
<path style="fill:none;stroke-width:0.006;stroke-linecap:round;stroke-linejoin:miter;stroke:rgb(45.098039%,45.098039%,87.058824%);stroke-opacity:1;stroke-miterlimit:10;" d="M 0.583022 0.565515 L 0.576023 0.572513 " transform="matrix(72,0,0,-72,1.1826,75.8694)"/>
<path style="fill:none;stroke-width:0.006;stroke-linecap:round;stroke-linejoin:miter;stroke:rgb(45.098039%,45.098039%,87.058824%);stroke-opacity:1;stroke-miterlimit:10;" d="M 0.616008 0.57349 L 0.609009 0.566491 " transform="matrix(72,0,0,-72,1.1826,75.8694)"/>
<path style="fill:none;stroke-width:0.006;stroke-linecap:round;stroke-linejoin:miter;stroke:rgb(45.098039%,45.098039%,87.058824%);stroke-opacity:1;stroke-miterlimit:10;" d="M 0.616008 0.608483 L 0.616008 0.57349 " transform="matrix(72,0,0,-72,1.1826,75.8694)"/>
<path style="fill:none;stroke-width:0.006;stroke-linecap:round;stroke-linejoin:miter;stroke:rgb(45.098039%,45.098039%,87.058824%);stroke-opacity:1;stroke-miterlimit:10;" d="M 0.609009 0.615482 L 0.616008 0.608483 " transform="matrix(72,0,0,-72,1.1826,75.8694)"/>
<path style="fill:none;stroke-width:0.008;stroke-linecap:round;stroke-linejoin:miter;stroke:rgb(45.098039%,45.098039%,87.058824%);stroke-opacity:1;stroke-miterlimit:10;" d="M 0.627455 0.578481 L 0.627455 0.570614 " transform="matrix(72,0,0,-72,1.1826,75.8694)"/>
<path style="fill:none;stroke-width:0.008;stroke-linecap:round;stroke-linejoin:miter;stroke:rgb(45.098039%,45.098039%,87.058824%);stroke-opacity:1;stroke-miterlimit:10;" d="M 0.682577 0.578481 L 0.682577 0.570614 " transform="matrix(72,0,0,-72,1.1826,75.8694)"/>
<path style="fill:none;stroke-width:0.006;stroke-linecap:round;stroke-linejoin:miter;stroke:rgb(45.098039%,45.098039%,87.058824%);stroke-opacity:1;stroke-miterlimit:10;" d="M 0.336006 0.616513 L 0.343981 0.624488 " transform="matrix(72,0,0,-72,1.1826,75.8694)"/>
<path style="fill:none;stroke-width:0.006;stroke-linecap:round;stroke-linejoin:miter;stroke:rgb(45.098039%,45.098039%,87.058824%);stroke-opacity:1;stroke-miterlimit:10;" d="M 0.336006 0.616513 L 0.336006 0.581519 " transform="matrix(72,0,0,-72,1.1826,75.8694)"/>
<path style="fill:none;stroke-width:0.006;stroke-linecap:round;stroke-linejoin:miter;stroke:rgb(45.098039%,45.098039%,87.058824%);stroke-opacity:1;stroke-miterlimit:10;" d="M 0.343004 0.574521 L 0.336006 0.581519 " transform="matrix(72,0,0,-72,1.1826,75.8694)"/>
<path style="fill:none;stroke-width:0.006;stroke-linecap:round;stroke-linejoin:miter;stroke:rgb(45.098039%,45.098039%,87.058824%);stroke-opacity:1;stroke-miterlimit:10;" d="M 0.37599 0.582496 L 0.368992 0.575497 " transform="matrix(72,0,0,-72,1.1826,75.8694)"/>
<path style="fill:none;stroke-width:0.006;stroke-linecap:round;stroke-linejoin:miter;stroke:rgb(45.098039%,45.098039%,87.058824%);stroke-opacity:1;stroke-miterlimit:10;" d="M 0.37599 0.617489 L 0.37599 0.582496 " transform="matrix(72,0,0,-72,1.1826,75.8694)"/>
<path style="fill:none;stroke-width:0.006;stroke-linecap:round;stroke-linejoin:miter;stroke:rgb(45.098039%,45.098039%,87.058824%);stroke-opacity:1;stroke-miterlimit:10;" d="M 0.368992 0.624488 L 0.37599 0.617489 " transform="matrix(72,0,0,-72,1.1826,75.8694)"/>
<path style="fill:none;stroke-width:0.01;stroke-linecap:round;stroke-linejoin:miter;stroke:rgb(45.098039%,45.098039%,87.058824%);stroke-opacity:1;stroke-miterlimit:10;" d="M 0.331014 0.445994 L 0.422974 0.445994 " transform="matrix(72,0,0,-72,1.1826,75.8694)"/>
<path style="fill:none;stroke-width:0.01;stroke-linecap:round;stroke-linejoin:miter;stroke:rgb(45.098039%,45.098039%,87.058824%);stroke-opacity:1;stroke-miterlimit:10;" d="M 0.461006 0.445994 L 0.553996 0.445994 " transform="matrix(72,0,0,-72,1.1826,75.8694)"/>
<path style="fill:none;stroke-width:0.01;stroke-linecap:round;stroke-linejoin:miter;stroke:rgb(45.098039%,45.098039%,87.058824%);stroke-opacity:1;stroke-miterlimit:10;" d="M 0.553996 0.563996 L 0.553996 0.445994 " transform="matrix(72,0,0,-72,1.1826,75.8694)"/>
<path style="fill:none;stroke-width:0.01;stroke-linecap:round;stroke-linejoin:miter;stroke:rgb(45.098039%,45.098039%,87.058824%);stroke-opacity:1;stroke-miterlimit:10;" d="M 0.331014 0.563996 L 0.553996 0.563996 " transform="matrix(72,0,0,-72,1.1826,75.8694)"/>
<path style="fill:none;stroke-width:0.01;stroke-linecap:round;stroke-linejoin:miter;stroke:rgb(45.098039%,45.098039%,87.058824%);stroke-opacity:1;stroke-miterlimit:10;" d="M 0.331014 0.563996 L 0.331014 0.445994 " transform="matrix(72,0,0,-72,1.1826,75.8694)"/>
<path style="fill:none;stroke-width:0.01;stroke-linecap:round;stroke-linejoin:miter;stroke:rgb(45.098039%,45.098039%,87.058824%);stroke-opacity:1;stroke-miterlimit:10;" d="M 0.461006 0.445994 C 0.461006 0.471331 0.422974 0.471331 0.422974 0.445994 " transform="matrix(72,0,0,-72,1.1826,75.8694)"/>
<path style="fill:none;stroke-width:0.006;stroke-linecap:round;stroke-linejoin:miter;stroke:rgb(45.098039%,45.098039%,87.058824%);stroke-opacity:1;stroke-miterlimit:10;" d="M 0.393026 0.617489 L 0.401001 0.625519 " transform="matrix(72,0,0,-72,1.1826,75.8694)"/>
<path style="fill:none;stroke-width:0.006;stroke-linecap:round;stroke-linejoin:miter;stroke:rgb(45.098039%,45.098039%,87.058824%);stroke-opacity:1;stroke-miterlimit:10;" d="M 0.393026 0.617489 L 0.393026 0.582496 " transform="matrix(72,0,0,-72,1.1826,75.8694)"/>
<path style="fill:none;stroke-width:0.006;stroke-linecap:round;stroke-linejoin:miter;stroke:rgb(45.098039%,45.098039%,87.058824%);stroke-opacity:1;stroke-miterlimit:10;" d="M 0.400025 0.575497 L 0.393026 0.582496 " transform="matrix(72,0,0,-72,1.1826,75.8694)"/>
<path style="fill:none;stroke-width:0.006;stroke-linecap:round;stroke-linejoin:miter;stroke:rgb(45.098039%,45.098039%,87.058824%);stroke-opacity:1;stroke-miterlimit:10;" d="M 0.433011 0.583527 L 0.426012 0.576474 " transform="matrix(72,0,0,-72,1.1826,75.8694)"/>
<path style="fill:none;stroke-width:0.006;stroke-linecap:round;stroke-linejoin:miter;stroke:rgb(45.098039%,45.098039%,87.058824%);stroke-opacity:1;stroke-miterlimit:10;" d="M 0.433011 0.61852 L 0.433011 0.583527 " transform="matrix(72,0,0,-72,1.1826,75.8694)"/>
<path style="fill:none;stroke-width:0.006;stroke-linecap:round;stroke-linejoin:miter;stroke:rgb(45.098039%,45.098039%,87.058824%);stroke-opacity:1;stroke-miterlimit:10;" d="M 0.426012 0.625519 L 0.433011 0.61852 " transform="matrix(72,0,0,-72,1.1826,75.8694)"/>
<path style="fill:none;stroke-width:0.006;stroke-linecap:round;stroke-linejoin:miter;stroke:rgb(45.098039%,45.098039%,87.058824%);stroke-opacity:1;stroke-miterlimit:10;" d="M 0.447985 0.621016 L 0.456014 0.628991 " transform="matrix(72,0,0,-72,1.1826,75.8694)"/>
<path style="fill:none;stroke-width:0.006;stroke-linecap:round;stroke-linejoin:miter;stroke:rgb(45.098039%,45.098039%,87.058824%);stroke-opacity:1;stroke-miterlimit:10;" d="M 0.447985 0.621016 L 0.447985 0.586022 " transform="matrix(72,0,0,-72,1.1826,75.8694)"/>
<path style="fill:none;stroke-width:0.006;stroke-linecap:round;stroke-linejoin:miter;stroke:rgb(45.098039%,45.098039%,87.058824%);stroke-opacity:1;stroke-miterlimit:10;" d="M 0.454983 0.579024 L 0.447985 0.586022 " transform="matrix(72,0,0,-72,1.1826,75.8694)"/>
<path style="fill:none;stroke-width:0.006;stroke-linecap:round;stroke-linejoin:miter;stroke:rgb(45.098039%,45.098039%,87.058824%);stroke-opacity:1;stroke-miterlimit:10;" d="M 0.488024 0.586999 L 0.481025 0.58 " transform="matrix(72,0,0,-72,1.1826,75.8694)"/>
<path style="fill:none;stroke-width:0.006;stroke-linecap:round;stroke-linejoin:miter;stroke:rgb(45.098039%,45.098039%,87.058824%);stroke-opacity:1;stroke-miterlimit:10;" d="M 0.488024 0.621993 L 0.488024 0.586999 " transform="matrix(72,0,0,-72,1.1826,75.8694)"/>
<path style="fill:none;stroke-width:0.006;stroke-linecap:round;stroke-linejoin:miter;stroke:rgb(45.098039%,45.098039%,87.058824%);stroke-opacity:1;stroke-miterlimit:10;" d="M 0.481025 0.628991 L 0.488024 0.621993 " transform="matrix(72,0,0,-72,1.1826,75.8694)"/>
<path style="fill:none;stroke-width:0.006;stroke-linecap:round;stroke-linejoin:miter;stroke:rgb(45.098039%,45.098039%,87.058824%);stroke-opacity:1;stroke-miterlimit:10;" d="M 0.208998 0.640981 L 0.216973 0.649011 " transform="matrix(72,0,0,-72,1.1826,75.8694)"/>
<path style="fill:none;stroke-width:0.006;stroke-linecap:round;stroke-linejoin:miter;stroke:rgb(45.098039%,45.098039%,87.058824%);stroke-opacity:1;stroke-miterlimit:10;" d="M 0.208998 0.640981 L 0.208998 0.605988 " transform="matrix(72,0,0,-72,1.1826,75.8694)"/>
<path style="fill:none;stroke-width:0.006;stroke-linecap:round;stroke-linejoin:miter;stroke:rgb(45.098039%,45.098039%,87.058824%);stroke-opacity:1;stroke-miterlimit:10;" d="M 0.215997 0.598989 L 0.208998 0.605988 " transform="matrix(72,0,0,-72,1.1826,75.8694)"/>
<path style="fill:none;stroke-width:0.006;stroke-linecap:round;stroke-linejoin:miter;stroke:rgb(45.098039%,45.098039%,87.058824%);stroke-opacity:1;stroke-miterlimit:10;" d="M 0.248983 0.607019 L 0.241984 0.60002 " transform="matrix(72,0,0,-72,1.1826,75.8694)"/>
<path style="fill:none;stroke-width:0.006;stroke-linecap:round;stroke-linejoin:miter;stroke:rgb(45.098039%,45.098039%,87.058824%);stroke-opacity:1;stroke-miterlimit:10;" d="M 0.248983 0.642012 L 0.248983 0.607019 " transform="matrix(72,0,0,-72,1.1826,75.8694)"/>
<path style="fill:none;stroke-width:0.006;stroke-linecap:round;stroke-linejoin:miter;stroke:rgb(45.098039%,45.098039%,87.058824%);stroke-opacity:1;stroke-miterlimit:10;" d="M 0.241984 0.649011 L 0.248983 0.642012 " transform="matrix(72,0,0,-72,1.1826,75.8694)"/>
<path style="fill:none;stroke-width:0.006;stroke-linecap:round;stroke-linejoin:miter;stroke:rgb(45.098039%,45.098039%,87.058824%);stroke-opacity:1;stroke-miterlimit:10;" d="M 0.273017 0.626007 L 0.280993 0.633983 " transform="matrix(72,0,0,-72,1.1826,75.8694)"/>
<path style="fill:none;stroke-width:0.006;stroke-linecap:round;stroke-linejoin:miter;stroke:rgb(45.098039%,45.098039%,87.058824%);stroke-opacity:1;stroke-miterlimit:10;" d="M 0.273017 0.626007 L 0.273017 0.591014 " transform="matrix(72,0,0,-72,1.1826,75.8694)"/>
<path style="fill:none;stroke-width:0.006;stroke-linecap:round;stroke-linejoin:miter;stroke:rgb(45.098039%,45.098039%,87.058824%);stroke-opacity:1;stroke-miterlimit:10;" d="M 0.280016 0.584015 L 0.273017 0.591014 " transform="matrix(72,0,0,-72,1.1826,75.8694)"/>
<path style="fill:none;stroke-width:0.006;stroke-linecap:round;stroke-linejoin:miter;stroke:rgb(45.098039%,45.098039%,87.058824%);stroke-opacity:1;stroke-miterlimit:10;" d="M 0.313002 0.59199 L 0.306003 0.584992 " transform="matrix(72,0,0,-72,1.1826,75.8694)"/>
<path style="fill:none;stroke-width:0.006;stroke-linecap:round;stroke-linejoin:miter;stroke:rgb(45.098039%,45.098039%,87.058824%);stroke-opacity:1;stroke-miterlimit:10;" d="M 0.313002 0.626984 L 0.313002 0.59199 " transform="matrix(72,0,0,-72,1.1826,75.8694)"/>
<path style="fill:none;stroke-width:0.006;stroke-linecap:round;stroke-linejoin:miter;stroke:rgb(45.098039%,45.098039%,87.058824%);stroke-opacity:1;stroke-miterlimit:10;" d="M 0.306003 0.633983 L 0.313002 0.626984 " transform="matrix(72,0,0,-72,1.1826,75.8694)"/>
</g>
</svg>
