G04 This is an RS-274x file exported by *
G04 gerbv version 2.7.0 *
G04 More information is available about gerbv at *
G04 http://gerbv.geda-project.org/ *
G04 --End of header info--*
%MOIN*%
%FSLAX36Y36*%
%IPPOS*%
G04 --Define apertures--*
%ADD10C,0.0060*%
%ADD11C,0.0030*%
%ADD12C,0.0040*%
%ADD13C,0.0050*%
%ADD14C,0.0100*%
%ADD15C,0.0250*%
%ADD16C,0.1005*%
%ADD17C,0.0729*%
%ADD18C,0.0532*%
%ADD19C,0.0454*%
%ADD20C,0.1162*%
%ADD21C,0.0572*%
%ADD22C,0.0790*%
%ADD23C,0.0490*%
%ADD24C,0.0300*%
%ADD25C,0.0200*%
%ADD26C,0.0510*%
%ADD27C,0.0940*%
%ADD28C,0.0350*%
%ADD29C,0.0130*%
G04 --Start main section--*
G54D10*
G01X0307530Y0727620D02*
G01X0291780Y0743370D01*
G01X0307530Y0743370D02*
G01X0291780Y0727620D01*
G54D11*
G01X0230920Y0533940D02*
G01X0245920Y0533940D01*
G01X0238420Y0563940D02*
G01X0238420Y0533940D01*
G01X0206920Y0533940D02*
G01X0221920Y0533940D01*
G01X0221920Y0548940D02*
G01X0221920Y0533940D01*
G01X0221920Y0548940D02*
G01X0218170Y0545190D01*
G01X0210670Y0545190D02*
G01X0218170Y0545190D01*
G01X0210670Y0545190D02*
G01X0206920Y0548940D01*
G01X0206920Y0560190D02*
G01X0206920Y0548940D01*
G01X0210670Y0563940D02*
G01X0206920Y0560190D01*
G01X0210670Y0563940D02*
G01X0218170Y0563940D01*
G01X0221920Y0560190D02*
G01X0218170Y0563940D01*
G01X0186670Y0533940D02*
G01X0182920Y0537690D01*
G01X0186670Y0533940D02*
G01X0194170Y0533940D01*
G01X0197920Y0537690D02*
G01X0194170Y0533940D01*
G01X0197920Y0560190D02*
G01X0197920Y0537690D01*
G01X0197920Y0560190D02*
G01X0194170Y0563940D01*
G01X0186670Y0547440D02*
G01X0182920Y0551190D01*
G01X0186670Y0547440D02*
G01X0197920Y0547440D01*
G01X0186670Y0563940D02*
G01X0194170Y0563940D01*
G01X0186670Y0563940D02*
G01X0182920Y0560190D01*
G01X0182920Y0560190D02*
G01X0182920Y0551190D01*
G01X0173920Y0560190D02*
G01X0170170Y0563940D01*
G01X0173920Y0560190D02*
G01X0173920Y0554190D01*
G01X0173920Y0554190D02*
G01X0168670Y0548940D01*
G01X0164170Y0548940D02*
G01X0168670Y0548940D01*
G01X0164170Y0548940D02*
G01X0158920Y0554190D01*
G01X0158920Y0560190D02*
G01X0158920Y0554190D01*
G01X0162670Y0563940D02*
G01X0158920Y0560190D01*
G01X0162670Y0563940D02*
G01X0170170Y0563940D01*
G01X0173920Y0543690D02*
G01X0168670Y0548940D01*
G01X0173920Y0543690D02*
G01X0173920Y0537690D01*
G01X0173920Y0537690D02*
G01X0170170Y0533940D01*
G01X0162670Y0533940D02*
G01X0170170Y0533940D01*
G01X0162670Y0533940D02*
G01X0158920Y0537690D01*
G01X0158920Y0543690D02*
G01X0158920Y0537690D01*
G01X0164170Y0548940D02*
G01X0158920Y0543690D01*
G01X0149920Y0563940D02*
G01X0149920Y0541440D01*
G01X0149920Y0541440D02*
G01X0144670Y0533940D01*
G01X0136420Y0533940D02*
G01X0144670Y0533940D01*
G01X0136420Y0533940D02*
G01X0131170Y0541440D01*
G01X0131170Y0563940D02*
G01X0131170Y0541440D01*
G01X0131170Y0548940D02*
G01X0149920Y0548940D01*
G01X0319570Y0529000D02*
G01X0315820Y0532750D01*
G01X0315820Y0544000D02*
G01X0315820Y0532750D01*
G01X0315820Y0544000D02*
G01X0319570Y0547750D01*
G01X0319570Y0547750D02*
G01X0327070Y0547750D01*
G01X0345820Y0529000D02*
G01X0327070Y0547750D01*
G01X0345820Y0547750D02*
G01X0345820Y0529000D01*
G01X0342070Y0556750D02*
G01X0319570Y0579250D01*
G01X0315820Y0603250D02*
G01X0319570Y0607000D01*
G01X0315820Y0603250D02*
G01X0315820Y0592000D01*
G01X0319570Y0588250D02*
G01X0315820Y0592000D01*
G01X0319570Y0588250D02*
G01X0342070Y0588250D01*
G01X0342070Y0588250D02*
G01X0345820Y0592000D01*
G01X0345820Y0603250D02*
G01X0345820Y0592000D01*
G01X0345820Y0603250D02*
G01X0342070Y0607000D01*
G01X0334570Y0607000D02*
G01X0342070Y0607000D01*
G01X0330820Y0603250D02*
G01X0334570Y0607000D01*
G01X0330820Y0603250D02*
G01X0330820Y0595750D01*
G01X0411140Y0529000D02*
G01X0392390Y0544000D01*
G01X0411140Y0547750D02*
G01X0411140Y0529000D01*
G01X0392390Y0544000D02*
G01X0422390Y0544000D01*
G01X0418640Y0556750D02*
G01X0396140Y0579250D01*
G01X0422390Y0603250D02*
G01X0422390Y0588250D01*
G01X0422390Y0603250D02*
G01X0418640Y0607000D01*
G01X0409640Y0607000D02*
G01X0418640Y0607000D01*
G01X0405890Y0603250D02*
G01X0409640Y0607000D01*
G01X0405890Y0603250D02*
G01X0405890Y0592000D01*
G01X0392390Y0592000D02*
G01X0422390Y0592000D01*
G01X0392390Y0603250D02*
G01X0392390Y0588250D01*
G01X0392390Y0603250D02*
G01X0396140Y0607000D01*
G01X0396140Y0607000D02*
G01X0402140Y0607000D01*
G01X0405890Y0603250D02*
G01X0402140Y0607000D01*
G01X0392390Y0616000D02*
G01X0418640Y0616000D01*
G01X0418640Y0616000D02*
G01X0422390Y0619750D01*
G01X0493970Y0544180D02*
G01X0497720Y0547930D01*
G01X0493970Y0544180D02*
G01X0493970Y0536680D01*
G01X0497720Y0532930D02*
G01X0493970Y0536680D01*
G01X0497720Y0532930D02*
G01X0520220Y0532930D01*
G01X0520220Y0532930D02*
G01X0523970Y0536680D01*
G01X0507470Y0544180D02*
G01X0511220Y0547930D01*
G01X0507470Y0544180D02*
G01X0507470Y0532930D01*
G01X0523970Y0544180D02*
G01X0523970Y0536680D01*
G01X0523970Y0544180D02*
G01X0520220Y0547930D01*
G01X0511220Y0547930D02*
G01X0520220Y0547930D01*
G01X0520220Y0556930D02*
G01X0497720Y0579430D01*
G01X0497720Y0588430D02*
G01X0520220Y0588430D01*
G01X0497720Y0588430D02*
G01X0493970Y0592180D01*
G01X0493970Y0599680D02*
G01X0493970Y0592180D01*
G01X0493970Y0599680D02*
G01X0497720Y0603430D01*
G01X0497720Y0603430D02*
G01X0520220Y0603430D01*
G01X0523970Y0599680D02*
G01X0520220Y0603430D01*
G01X0523970Y0599680D02*
G01X0523970Y0592180D01*
G01X0520220Y0588430D02*
G01X0523970Y0592180D01*
G01X0592860Y0532930D02*
G01X0596610Y0536680D01*
G01X0586860Y0532930D02*
G01X0592860Y0532930D01*
G01X0586860Y0532930D02*
G01X0581610Y0538180D01*
G01X0581610Y0542680D02*
G01X0581610Y0538180D01*
G01X0581610Y0542680D02*
G01X0586860Y0547930D01*
G01X0586860Y0547930D02*
G01X0592860Y0547930D01*
G01X0596610Y0544180D02*
G01X0592860Y0547930D01*
G01X0596610Y0544180D02*
G01X0596610Y0536680D01*
G01X0576360Y0532930D02*
G01X0581610Y0538180D01*
G01X0570360Y0532930D02*
G01X0576360Y0532930D01*
G01X0570360Y0532930D02*
G01X0566610Y0536680D01*
G01X0566610Y0544180D02*
G01X0566610Y0536680D01*
G01X0566610Y0544180D02*
G01X0570360Y0547930D01*
G01X0570360Y0547930D02*
G01X0576360Y0547930D01*
G01X0581610Y0542680D02*
G01X0576360Y0547930D01*
G01X0592860Y0556930D02*
G01X0570360Y0579430D01*
G01X0596610Y0603430D02*
G01X0596610Y0588430D01*
G01X0596610Y0603430D02*
G01X0592860Y0607180D01*
G01X0583860Y0607180D02*
G01X0592860Y0607180D01*
G01X0580110Y0603430D02*
G01X0583860Y0607180D01*
G01X0580110Y0603430D02*
G01X0580110Y0592180D01*
G01X0566610Y0592180D02*
G01X0596610Y0592180D01*
G01X0566610Y0603430D02*
G01X0566610Y0588430D01*
G01X0566610Y0603430D02*
G01X0570360Y0607180D01*
G01X0570360Y0607180D02*
G01X0576360Y0607180D01*
G01X0580110Y0603430D02*
G01X0576360Y0607180D01*
G01X0585360Y0619930D02*
G01X0596610Y0619930D01*
G01X0585360Y0619930D02*
G01X0581610Y0623680D01*
G01X0581610Y0631180D02*
G01X0581610Y0623680D01*
G01X0581610Y0616180D02*
G01X0585360Y0619930D01*
G54D12*
G01X0800000Y0280000D02*
G01X0800000Y0240000D01*
G01X0800000Y0280000D02*
G01X0825000Y0240000D01*
G01X0825000Y0280000D02*
G01X0825000Y0240000D01*
G01X0844000Y0240000D02*
G01X0857000Y0240000D01*
G01X0837000Y0247000D02*
G01X0844000Y0240000D01*
G01X0837000Y0273000D02*
G01X0837000Y0247000D01*
G01X0837000Y0273000D02*
G01X0844000Y0280000D01*
G01X0844000Y0280000D02*
G01X0857000Y0280000D01*
G54D11*
G01X0792930Y0297140D02*
G01X0796680Y0293390D01*
G01X0792930Y0303140D02*
G01X0792930Y0297140D01*
G01X0792930Y0303140D02*
G01X0798180Y0308390D01*
G01X0798180Y0308390D02*
G01X0802680Y0308390D01*
G01X0802680Y0308390D02*
G01X0807930Y0303140D01*
G01X0807930Y0303140D02*
G01X0807930Y0297140D01*
G01X0804180Y0293390D02*
G01X0807930Y0297140D01*
G01X0796680Y0293390D02*
G01X0804180Y0293390D01*
G01X0792930Y0313640D02*
G01X0798180Y0308390D01*
G01X0792930Y0319640D02*
G01X0792930Y0313640D01*
G01X0792930Y0319640D02*
G01X0796680Y0323390D01*
G01X0796680Y0323390D02*
G01X0804180Y0323390D01*
G01X0804180Y0323390D02*
G01X0807930Y0319640D01*
G01X0807930Y0319640D02*
G01X0807930Y0313640D01*
G01X0802680Y0308390D02*
G01X0807930Y0313640D01*
G01X0816930Y0297140D02*
G01X0839430Y0319640D01*
G01X0848430Y0293390D02*
G01X0863430Y0293390D01*
G01X0863430Y0293390D02*
G01X0867180Y0297140D01*
G01X0867180Y0306140D02*
G01X0867180Y0297140D01*
G01X0863430Y0309890D02*
G01X0867180Y0306140D01*
G01X0852180Y0309890D02*
G01X0863430Y0309890D01*
G01X0852180Y0323390D02*
G01X0852180Y0293390D01*
G01X0848430Y0323390D02*
G01X0863430Y0323390D01*
G01X0863430Y0323390D02*
G01X0867180Y0319640D01*
G01X0867180Y0319640D02*
G01X0867180Y0313640D01*
G01X0863430Y0309890D02*
G01X0867180Y0313640D01*
G01X0879930Y0304640D02*
G01X0879930Y0293390D01*
G01X0879930Y0304640D02*
G01X0883680Y0308390D01*
G01X0883680Y0308390D02*
G01X0891180Y0308390D01*
G01X0876180Y0308390D02*
G01X0879930Y0304640D01*
G54D12*
G01X0800000Y0380000D02*
G01X0820000Y0380000D01*
G01X0820000Y0380000D02*
G01X0840000Y0385000D01*
G01X0840000Y0385000D02*
G01X0820000Y0395000D01*
G01X0820000Y0395000D02*
G01X0840000Y0405000D01*
G01X0840000Y0405000D02*
G01X0820000Y0410000D01*
G01X0800000Y0410000D02*
G01X0820000Y0410000D01*
G01X0810000Y0422000D02*
G01X0840000Y0422000D01*
G01X0810000Y0422000D02*
G01X0800000Y0429000D01*
G01X0800000Y0440000D02*
G01X0800000Y0429000D01*
G01X0800000Y0440000D02*
G01X0810000Y0447000D01*
G01X0810000Y0447000D02*
G01X0840000Y0447000D01*
G01X0820000Y0447000D02*
G01X0820000Y0422000D01*
G01X0800000Y0479000D02*
G01X0800000Y0459000D01*
G01X0800000Y0479000D02*
G01X0805000Y0484000D01*
G01X0805000Y0484000D02*
G01X0815000Y0484000D01*
G01X0820000Y0479000D02*
G01X0815000Y0484000D01*
G01X0820000Y0479000D02*
G01X0820000Y0464000D01*
G01X0800000Y0464000D02*
G01X0840000Y0464000D01*
G01X0820000Y0472000D02*
G01X0840000Y0484000D01*
G01X0800000Y0496000D02*
G01X0840000Y0496000D01*
G01X0800000Y0496000D02*
G01X0840000Y0521000D01*
G01X0800000Y0521000D02*
G01X0840000Y0521000D01*
G01X0800000Y0543000D02*
G01X0800000Y0533000D01*
G01X0800000Y0538000D02*
G01X0840000Y0538000D01*
G01X0840000Y0543000D02*
G01X0840000Y0533000D01*
G01X0800000Y0555000D02*
G01X0840000Y0555000D01*
G01X0800000Y0555000D02*
G01X0840000Y0580000D01*
G01X0800000Y0580000D02*
G01X0840000Y0580000D01*
G01X0800000Y0612000D02*
G01X0805000Y0617000D01*
G01X0800000Y0612000D02*
G01X0800000Y0597000D01*
G01X0805000Y0592000D02*
G01X0800000Y0597000D01*
G01X0805000Y0592000D02*
G01X0835000Y0592000D01*
G01X0835000Y0592000D02*
G01X0840000Y0597000D01*
G01X0840000Y0612000D02*
G01X0840000Y0597000D01*
G01X0840000Y0612000D02*
G01X0835000Y0617000D01*
G01X0825000Y0617000D02*
G01X0835000Y0617000D01*
G01X0820000Y0612000D02*
G01X0825000Y0617000D01*
G01X0820000Y0612000D02*
G01X0820000Y0602000D01*
G01X0835000Y0629000D02*
G01X0840000Y0629000D01*
G01X0800000Y0629000D02*
G01X0825000Y0629000D01*
G01X0655000Y0280000D02*
G01X0655000Y0240000D01*
G01X0655000Y0280000D02*
G01X0680000Y0240000D01*
G01X0680000Y0280000D02*
G01X0680000Y0240000D01*
G01X0692000Y0275000D02*
G01X0692000Y0245000D01*
G01X0692000Y0275000D02*
G01X0697000Y0280000D01*
G01X0697000Y0280000D02*
G01X0707000Y0280000D01*
G01X0707000Y0280000D02*
G01X0712000Y0275000D01*
G01X0712000Y0275000D02*
G01X0712000Y0245000D01*
G01X0707000Y0240000D02*
G01X0712000Y0245000D01*
G01X0697000Y0240000D02*
G01X0707000Y0240000D01*
G01X0692000Y0245000D02*
G01X0697000Y0240000D01*
G01X0532000Y0240000D02*
G01X0545000Y0240000D01*
G01X0525000Y0247000D02*
G01X0532000Y0240000D01*
G01X0525000Y0273000D02*
G01X0525000Y0247000D01*
G01X0525000Y0273000D02*
G01X0532000Y0280000D01*
G01X0532000Y0280000D02*
G01X0545000Y0280000D01*
G01X0360000Y0240000D02*
G01X0380000Y0240000D01*
G01X0380000Y0240000D02*
G01X0385000Y0245000D01*
G01X0385000Y0257000D02*
G01X0385000Y0245000D01*
G01X0380000Y0262000D02*
G01X0385000Y0257000D01*
G01X0365000Y0262000D02*
G01X0380000Y0262000D01*
G01X0365000Y0280000D02*
G01X0365000Y0240000D01*
G01X0360000Y0280000D02*
G01X0380000Y0280000D01*
G01X0380000Y0280000D02*
G01X0385000Y0275000D01*
G01X0385000Y0275000D02*
G01X0385000Y0267000D01*
G01X0380000Y0262000D02*
G01X0385000Y0267000D01*
G01X0397000Y0260000D02*
G01X0417000Y0260000D01*
G01X0220000Y0280000D02*
G01X0240000Y0280000D01*
G01X0240000Y0280000D02*
G01X0245000Y0275000D01*
G01X0245000Y0275000D02*
G01X0245000Y0265000D01*
G01X0240000Y0260000D02*
G01X0245000Y0265000D01*
G01X0225000Y0260000D02*
G01X0240000Y0260000D01*
G01X0225000Y0280000D02*
G01X0225000Y0240000D01*
G01X0233000Y0260000D02*
G01X0245000Y0240000D01*
G01X0257000Y0260000D02*
G01X0277000Y0260000D01*
G01X0267000Y0270000D02*
G01X0267000Y0250000D01*
G01X0055000Y0280000D02*
G01X0055000Y0240000D01*
G01X0050000Y0280000D02*
G01X0070000Y0280000D01*
G01X0070000Y0280000D02*
G01X0075000Y0275000D01*
G01X0075000Y0275000D02*
G01X0075000Y0265000D01*
G01X0070000Y0260000D02*
G01X0075000Y0265000D01*
G01X0055000Y0260000D02*
G01X0070000Y0260000D01*
G01X0087000Y0280000D02*
G01X0087000Y0260000D01*
G01X0087000Y0260000D02*
G01X0092000Y0240000D01*
G01X0092000Y0240000D02*
G01X0102000Y0260000D01*
G01X0102000Y0260000D02*
G01X0112000Y0240000D01*
G01X0112000Y0240000D02*
G01X0117000Y0260000D01*
G01X0117000Y0280000D02*
G01X0117000Y0260000D01*
G01X0129000Y0280000D02*
G01X0129000Y0240000D01*
G01X0129000Y0280000D02*
G01X0144000Y0260000D01*
G01X0144000Y0260000D02*
G01X0159000Y0280000D01*
G01X0159000Y0280000D02*
G01X0159000Y0240000D01*
G54D11*
G01X0211360Y0321610D02*
G01X0215110Y0325360D01*
G01X0215110Y0325360D02*
G01X0222610Y0325360D01*
G01X0222610Y0325360D02*
G01X0226360Y0321610D01*
G01X0222610Y0295360D02*
G01X0226360Y0299110D01*
G01X0215110Y0295360D02*
G01X0222610Y0295360D01*
G01X0211360Y0299110D02*
G01X0215110Y0295360D01*
G01X0215110Y0311860D02*
G01X0222610Y0311860D01*
G01X0226360Y0321610D02*
G01X0226360Y0315610D01*
G01X0226360Y0308110D02*
G01X0226360Y0299110D01*
G01X0226360Y0308110D02*
G01X0222610Y0311860D01*
G01X0226360Y0315610D02*
G01X0222610Y0311860D01*
G01X0235360Y0299110D02*
G01X0257860Y0321610D01*
G01X0266860Y0325360D02*
G01X0266860Y0310360D01*
G01X0266860Y0310360D02*
G01X0270610Y0295360D01*
G01X0270610Y0295360D02*
G01X0278110Y0310360D01*
G01X0278110Y0310360D02*
G01X0285610Y0295360D01*
G01X0285610Y0295360D02*
G01X0289360Y0310360D01*
G01X0289360Y0325360D02*
G01X0289360Y0310360D01*
G01X0298360Y0321610D02*
G01X0298360Y0299110D01*
G01X0298360Y0321610D02*
G01X0302110Y0325360D01*
G01X0302110Y0325360D02*
G01X0309610Y0325360D01*
G01X0309610Y0325360D02*
G01X0313360Y0321610D01*
G01X0313360Y0321610D02*
G01X0313360Y0299110D01*
G01X0309610Y0295360D02*
G01X0313360Y0299110D01*
G01X0302110Y0295360D02*
G01X0309610Y0295360D01*
G01X0298360Y0299110D02*
G01X0302110Y0295360D01*
G01X0066360Y0322720D02*
G01X0081360Y0322720D01*
G01X0066360Y0322720D02*
G01X0066360Y0307720D01*
G01X0066360Y0307720D02*
G01X0070110Y0311470D01*
G01X0070110Y0311470D02*
G01X0077610Y0311470D01*
G01X0077610Y0311470D02*
G01X0081360Y0307720D01*
G01X0081360Y0307720D02*
G01X0081360Y0296470D01*
G01X0077610Y0292720D02*
G01X0081360Y0296470D01*
G01X0070110Y0292720D02*
G01X0077610Y0292720D01*
G01X0066360Y0296470D02*
G01X0070110Y0292720D01*
G01X0090360Y0296470D02*
G01X0112860Y0318970D01*
G01X0121860Y0322720D02*
G01X0121860Y0307720D01*
G01X0121860Y0307720D02*
G01X0125610Y0292720D01*
G01X0125610Y0292720D02*
G01X0133110Y0307720D01*
G01X0133110Y0307720D02*
G01X0140610Y0292720D01*
G01X0140610Y0292720D02*
G01X0144360Y0307720D01*
G01X0144360Y0322720D02*
G01X0144360Y0307720D01*
G01X0153360Y0292720D02*
G01X0168360Y0292720D01*
G01X0168360Y0292720D02*
G01X0172110Y0296470D01*
G01X0172110Y0305470D02*
G01X0172110Y0296470D01*
G01X0168360Y0309220D02*
G01X0172110Y0305470D01*
G01X0157110Y0309220D02*
G01X0168360Y0309220D01*
G01X0157110Y0322720D02*
G01X0157110Y0292720D01*
G01X0153360Y0322720D02*
G01X0168360Y0322720D01*
G01X0168360Y0322720D02*
G01X0172110Y0318970D01*
G01X0172110Y0318970D02*
G01X0172110Y0312970D01*
G01X0168360Y0309220D02*
G01X0172110Y0312970D01*
G01X0181110Y0322720D02*
G01X0181110Y0296470D01*
G01X0181110Y0296470D02*
G01X0184860Y0292720D01*
G01X0369180Y0326030D02*
G01X0372930Y0322280D01*
G01X0361680Y0326030D02*
G01X0369180Y0326030D01*
G01X0357930Y0322280D02*
G01X0361680Y0326030D01*
G01X0357930Y0322280D02*
G01X0357930Y0299780D01*
G01X0357930Y0299780D02*
G01X0361680Y0296030D01*
G01X0369180Y0312530D02*
G01X0372930Y0308780D01*
G01X0357930Y0312530D02*
G01X0369180Y0312530D01*
G01X0361680Y0296030D02*
G01X0369180Y0296030D01*
G01X0369180Y0296030D02*
G01X0372930Y0299780D01*
G01X0372930Y0308780D02*
G01X0372930Y0299780D01*
G01X0381930Y0299780D02*
G01X0404430Y0322280D01*
G01X0413430Y0322280D02*
G01X0413430Y0299780D01*
G01X0413430Y0322280D02*
G01X0417180Y0326030D01*
G01X0417180Y0326030D02*
G01X0424680Y0326030D01*
G01X0424680Y0326030D02*
G01X0428430Y0322280D01*
G01X0428430Y0322280D02*
G01X0428430Y0299780D01*
G01X0424680Y0296030D02*
G01X0428430Y0299780D01*
G01X0417180Y0296030D02*
G01X0424680Y0296030D01*
G01X0413430Y0299780D02*
G01X0417180Y0296030D01*
G01X0505770Y0318890D02*
G01X0511770Y0324890D01*
G01X0511770Y0324890D02*
G01X0511770Y0294890D01*
G01X0505770Y0294890D02*
G01X0517020Y0294890D01*
G01X0526020Y0298640D02*
G01X0548520Y0321140D01*
G01X0557520Y0324890D02*
G01X0557520Y0309890D01*
G01X0557520Y0309890D02*
G01X0561270Y0294890D01*
G01X0561270Y0294890D02*
G01X0568770Y0309890D01*
G01X0568770Y0309890D02*
G01X0576270Y0294890D01*
G01X0576270Y0294890D02*
G01X0580020Y0309890D01*
G01X0580020Y0324890D02*
G01X0580020Y0309890D01*
G01X0604020Y0324890D02*
G01X0607770Y0321140D01*
G01X0592770Y0324890D02*
G01X0604020Y0324890D01*
G01X0589020Y0321140D02*
G01X0592770Y0324890D01*
G01X0589020Y0321140D02*
G01X0589020Y0298640D01*
G01X0589020Y0298640D02*
G01X0592770Y0294890D01*
G01X0592770Y0294890D02*
G01X0604020Y0294890D01*
G01X0604020Y0294890D02*
G01X0607770Y0298640D01*
G01X0607770Y0306140D02*
G01X0607770Y0298640D01*
G01X0604020Y0309890D02*
G01X0607770Y0306140D01*
G01X0596520Y0309890D02*
G01X0604020Y0309890D01*
G01X0644000Y0320430D02*
G01X0647750Y0324180D01*
G01X0647750Y0324180D02*
G01X0659000Y0324180D01*
G01X0659000Y0324180D02*
G01X0662750Y0320430D01*
G01X0662750Y0320430D02*
G01X0662750Y0312930D01*
G01X0644000Y0294180D02*
G01X0662750Y0312930D01*
G01X0644000Y0294180D02*
G01X0662750Y0294180D01*
G01X0671750Y0297930D02*
G01X0694250Y0320430D01*
G01X0718250Y0324180D02*
G01X0722000Y0320430D01*
G01X0707000Y0324180D02*
G01X0718250Y0324180D01*
G01X0703250Y0320430D02*
G01X0707000Y0324180D01*
G01X0703250Y0320430D02*
G01X0703250Y0297930D01*
G01X0703250Y0297930D02*
G01X0707000Y0294180D01*
G01X0707000Y0294180D02*
G01X0718250Y0294180D01*
G01X0718250Y0294180D02*
G01X0722000Y0297930D01*
G01X0722000Y0305430D02*
G01X0722000Y0297930D01*
G01X0718250Y0309180D02*
G01X0722000Y0305430D01*
G01X0710750Y0309180D02*
G01X0718250Y0309180D01*
G01X0291110Y0780770D02*
G01X0285110Y0786770D01*
G01X0285110Y0786770D02*
G01X0315110Y0786770D01*
G01X0315110Y0792020D02*
G01X0315110Y0780770D01*
G01X0311360Y0801020D02*
G01X0288860Y0823520D01*
G01X0285110Y0832520D02*
G01X0300110Y0832520D01*
G01X0300110Y0832520D02*
G01X0315110Y0836270D01*
G01X0315110Y0836270D02*
G01X0300110Y0843770D01*
G01X0300110Y0843770D02*
G01X0315110Y0851270D01*
G01X0315110Y0851270D02*
G01X0300110Y0855020D01*
G01X0285110Y0855020D02*
G01X0300110Y0855020D01*
G01X0285110Y0879020D02*
G01X0288860Y0882770D01*
G01X0285110Y0879020D02*
G01X0285110Y0867770D01*
G01X0288860Y0864020D02*
G01X0285110Y0867770D01*
G01X0288860Y0864020D02*
G01X0311360Y0864020D01*
G01X0311360Y0864020D02*
G01X0315110Y0867770D01*
G01X0315110Y0879020D02*
G01X0315110Y0867770D01*
G01X0315110Y0879020D02*
G01X0311360Y0882770D01*
G01X0303860Y0882770D02*
G01X0311360Y0882770D01*
G01X0300110Y0879020D02*
G01X0303860Y0882770D01*
G01X0300110Y0879020D02*
G01X0300110Y0871520D01*
G01X0368390Y0781360D02*
G01X0364640Y0785110D01*
G01X0364640Y0792610D02*
G01X0364640Y0785110D01*
G01X0364640Y0792610D02*
G01X0368390Y0796360D01*
G01X0394640Y0792610D02*
G01X0390890Y0796360D01*
G01X0394640Y0792610D02*
G01X0394640Y0785110D01*
G01X0390890Y0781360D02*
G01X0394640Y0785110D01*
G01X0378140Y0792610D02*
G01X0378140Y0785110D01*
G01X0368390Y0796360D02*
G01X0374390Y0796360D01*
G01X0381890Y0796360D02*
G01X0390890Y0796360D01*
G01X0381890Y0796360D02*
G01X0378140Y0792610D01*
G01X0374390Y0796360D02*
G01X0378140Y0792610D01*
G01X0390890Y0805360D02*
G01X0368390Y0827860D01*
G01X0364640Y0836860D02*
G01X0379640Y0836860D01*
G01X0379640Y0836860D02*
G01X0394640Y0840610D01*
G01X0394640Y0840610D02*
G01X0379640Y0848110D01*
G01X0379640Y0848110D02*
G01X0394640Y0855610D01*
G01X0394640Y0855610D02*
G01X0379640Y0859360D01*
G01X0364640Y0859360D02*
G01X0379640Y0859360D01*
G01X0368390Y0868360D02*
G01X0390890Y0868360D01*
G01X0368390Y0868360D02*
G01X0364640Y0872110D01*
G01X0364640Y0879610D02*
G01X0364640Y0872110D01*
G01X0364640Y0879610D02*
G01X0368390Y0883360D01*
G01X0368390Y0883360D02*
G01X0390890Y0883360D01*
G01X0394640Y0879610D02*
G01X0390890Y0883360D01*
G01X0394640Y0879610D02*
G01X0394640Y0872110D01*
G01X0390890Y0868360D02*
G01X0394640Y0872110D01*
G01X0437280Y0796360D02*
G01X0437280Y0781360D01*
G01X0437280Y0781360D02*
G01X0452280Y0781360D01*
G01X0452280Y0781360D02*
G01X0448530Y0785110D01*
G01X0448530Y0792610D02*
G01X0448530Y0785110D01*
G01X0448530Y0792610D02*
G01X0452280Y0796360D01*
G01X0452280Y0796360D02*
G01X0463530Y0796360D01*
G01X0467280Y0792610D02*
G01X0463530Y0796360D01*
G01X0467280Y0792610D02*
G01X0467280Y0785110D01*
G01X0463530Y0781360D02*
G01X0467280Y0785110D01*
G01X0463530Y0805360D02*
G01X0441030Y0827860D01*
G01X0437280Y0836860D02*
G01X0452280Y0836860D01*
G01X0452280Y0836860D02*
G01X0467280Y0840610D01*
G01X0467280Y0840610D02*
G01X0452280Y0848110D01*
G01X0452280Y0848110D02*
G01X0467280Y0855610D01*
G01X0467280Y0855610D02*
G01X0452280Y0859360D01*
G01X0437280Y0859360D02*
G01X0452280Y0859360D01*
G01X0467280Y0883360D02*
G01X0467280Y0868360D01*
G01X0467280Y0883360D02*
G01X0463530Y0887110D01*
G01X0454530Y0887110D02*
G01X0463530Y0887110D01*
G01X0450780Y0883360D02*
G01X0454530Y0887110D01*
G01X0450780Y0883360D02*
G01X0450780Y0872110D01*
G01X0437280Y0872110D02*
G01X0467280Y0872110D01*
G01X0437280Y0883360D02*
G01X0437280Y0868360D01*
G01X0437280Y0883360D02*
G01X0441030Y0887110D01*
G01X0441030Y0887110D02*
G01X0447030Y0887110D01*
G01X0450780Y0883360D02*
G01X0447030Y0887110D01*
G01X0437280Y0896110D02*
G01X0463530Y0896110D01*
G01X0463530Y0896110D02*
G01X0467280Y0899860D01*
G01X0547790Y0785110D02*
G01X0517790Y0800110D01*
G01X0517790Y0800110D02*
G01X0517790Y0781360D01*
G01X0544040Y0809110D02*
G01X0521540Y0831610D01*
G01X0517790Y0840610D02*
G01X0532790Y0840610D01*
G01X0532790Y0840610D02*
G01X0547790Y0844360D01*
G01X0547790Y0844360D02*
G01X0532790Y0851860D01*
G01X0532790Y0851860D02*
G01X0547790Y0859360D01*
G01X0547790Y0859360D02*
G01X0532790Y0863110D01*
G01X0517790Y0863110D02*
G01X0532790Y0863110D01*
G01X0547790Y0887110D02*
G01X0547790Y0872110D01*
G01X0547790Y0887110D02*
G01X0544040Y0890860D01*
G01X0535040Y0890860D02*
G01X0544040Y0890860D01*
G01X0531290Y0887110D02*
G01X0535040Y0890860D01*
G01X0531290Y0887110D02*
G01X0531290Y0875860D01*
G01X0517790Y0875860D02*
G01X0547790Y0875860D01*
G01X0517790Y0887110D02*
G01X0517790Y0872110D01*
G01X0517790Y0887110D02*
G01X0521540Y0890860D01*
G01X0521540Y0890860D02*
G01X0527540Y0890860D01*
G01X0531290Y0887110D02*
G01X0527540Y0890860D01*
G01X0536540Y0903610D02*
G01X0547790Y0903610D01*
G01X0536540Y0903610D02*
G01X0532790Y0907360D01*
G01X0532790Y0914860D02*
G01X0532790Y0907360D01*
G01X0532790Y0899860D02*
G01X0536540Y0903610D01*
G54D12*
G01X0840000Y0675000D02*
G01X0840000Y0660000D01*
G01X0845000Y0655000D02*
G01X0840000Y0660000D01*
G01X0845000Y0655000D02*
G01X0855000Y0655000D01*
G01X0855000Y0655000D02*
G01X0860000Y0660000D01*
G01X0860000Y0675000D02*
G01X0860000Y0660000D01*
G01X0845000Y0687000D02*
G01X0855000Y0687000D01*
G01X0845000Y0687000D02*
G01X0840000Y0692000D01*
G01X0840000Y0702000D02*
G01X0840000Y0692000D01*
G01X0840000Y0702000D02*
G01X0845000Y0707000D01*
G01X0845000Y0707000D02*
G01X0855000Y0707000D01*
G01X0860000Y0702000D02*
G01X0855000Y0707000D01*
G01X0860000Y0702000D02*
G01X0860000Y0692000D01*
G01X0855000Y0687000D02*
G01X0860000Y0692000D01*
G01X0820000Y0719000D02*
G01X0855000Y0719000D01*
G01X0855000Y0719000D02*
G01X0860000Y0724000D01*
G01X0845000Y0734000D02*
G01X0855000Y0734000D01*
G01X0845000Y0734000D02*
G01X0840000Y0739000D01*
G01X0840000Y0749000D02*
G01X0840000Y0739000D01*
G01X0840000Y0749000D02*
G01X0845000Y0754000D01*
G01X0845000Y0754000D02*
G01X0855000Y0754000D01*
G01X0860000Y0749000D02*
G01X0855000Y0754000D01*
G01X0860000Y0749000D02*
G01X0860000Y0739000D01*
G01X0855000Y0734000D02*
G01X0860000Y0739000D01*
G01X0845000Y0771000D02*
G01X0860000Y0771000D01*
G01X0845000Y0771000D02*
G01X0840000Y0776000D01*
G01X0840000Y0786000D02*
G01X0840000Y0776000D01*
G01X0840000Y0766000D02*
G01X0845000Y0771000D01*
G01X0840000Y0836000D02*
G01X0840000Y0821000D01*
G01X0845000Y0816000D02*
G01X0840000Y0821000D01*
G01X0845000Y0816000D02*
G01X0855000Y0816000D01*
G01X0855000Y0816000D02*
G01X0860000Y0821000D01*
G01X0860000Y0836000D02*
G01X0860000Y0821000D01*
G01X0845000Y0848000D02*
G01X0855000Y0848000D01*
G01X0845000Y0848000D02*
G01X0840000Y0853000D01*
G01X0840000Y0863000D02*
G01X0840000Y0853000D01*
G01X0840000Y0863000D02*
G01X0845000Y0868000D01*
G01X0845000Y0868000D02*
G01X0855000Y0868000D01*
G01X0860000Y0863000D02*
G01X0855000Y0868000D01*
G01X0860000Y0863000D02*
G01X0860000Y0853000D01*
G01X0855000Y0848000D02*
G01X0860000Y0853000D01*
G01X0820000Y0900000D02*
G01X0860000Y0900000D01*
G01X0860000Y0895000D02*
G01X0855000Y0900000D01*
G01X0860000Y0895000D02*
G01X0860000Y0885000D01*
G01X0855000Y0880000D02*
G01X0860000Y0885000D01*
G01X0845000Y0880000D02*
G01X0855000Y0880000D01*
G01X0845000Y0880000D02*
G01X0840000Y0885000D01*
G01X0840000Y0895000D02*
G01X0840000Y0885000D01*
G01X0840000Y0895000D02*
G01X0845000Y0900000D01*
G54D13*
G01X0830000Y0912000D02*
G01X0831000Y0912000D01*
G54D12*
G01X0845000Y0912000D02*
G01X0860000Y0912000D01*
G01X0845000Y0927000D02*
G01X0860000Y0927000D01*
G01X0845000Y0927000D02*
G01X0840000Y0932000D01*
G01X0840000Y0937000D02*
G01X0840000Y0932000D01*
G01X0840000Y0937000D02*
G01X0845000Y0942000D01*
G01X0845000Y0942000D02*
G01X0860000Y0942000D01*
G01X0840000Y0922000D02*
G01X0845000Y0927000D01*
G01X0840000Y0969000D02*
G01X0845000Y0974000D01*
G01X0840000Y0969000D02*
G01X0840000Y0959000D01*
G01X0845000Y0954000D02*
G01X0840000Y0959000D01*
G01X0845000Y0954000D02*
G01X0855000Y0954000D01*
G01X0855000Y0954000D02*
G01X0860000Y0959000D01*
G01X0860000Y0969000D02*
G01X0860000Y0959000D01*
G01X0860000Y0969000D02*
G01X0855000Y0974000D01*
G01X0870000Y0954000D02*
G01X0875000Y0959000D01*
G01X0875000Y0969000D02*
G01X0875000Y0959000D01*
G01X0875000Y0969000D02*
G01X0870000Y0974000D01*
G01X0840000Y0974000D02*
G01X0870000Y0974000D01*
G01X0855000Y0986000D02*
G01X0860000Y0986000D01*
G01X0820000Y0986000D02*
G01X0845000Y0986000D01*
G01X0770000Y0660000D02*
G01X0770000Y0650000D01*
G01X0770000Y0655000D02*
G01X0810000Y0655000D01*
G01X0810000Y0660000D02*
G01X0810000Y0650000D01*
G01X0795000Y0677000D02*
G01X0810000Y0677000D01*
G01X0795000Y0677000D02*
G01X0790000Y0682000D01*
G01X0790000Y0687000D02*
G01X0790000Y0682000D01*
G01X0790000Y0687000D02*
G01X0795000Y0692000D01*
G01X0795000Y0692000D02*
G01X0810000Y0692000D01*
G01X0790000Y0672000D02*
G01X0795000Y0677000D01*
G01X0790000Y0724000D02*
G01X0790000Y0709000D01*
G01X0795000Y0704000D02*
G01X0790000Y0709000D01*
G01X0795000Y0704000D02*
G01X0805000Y0704000D01*
G01X0805000Y0704000D02*
G01X0810000Y0709000D01*
G01X0810000Y0724000D02*
G01X0810000Y0709000D01*
G01X0795000Y0736000D02*
G01X0805000Y0736000D01*
G01X0795000Y0736000D02*
G01X0790000Y0741000D01*
G01X0790000Y0751000D02*
G01X0790000Y0741000D01*
G01X0790000Y0751000D02*
G01X0795000Y0756000D01*
G01X0795000Y0756000D02*
G01X0805000Y0756000D01*
G01X0810000Y0751000D02*
G01X0805000Y0756000D01*
G01X0810000Y0751000D02*
G01X0810000Y0741000D01*
G01X0805000Y0736000D02*
G01X0810000Y0741000D01*
G01X0795000Y0773000D02*
G01X0810000Y0773000D01*
G01X0795000Y0773000D02*
G01X0790000Y0778000D01*
G01X0790000Y0783000D02*
G01X0790000Y0778000D01*
G01X0790000Y0783000D02*
G01X0795000Y0788000D01*
G01X0795000Y0788000D02*
G01X0810000Y0788000D01*
G01X0795000Y0788000D02*
G01X0790000Y0793000D01*
G01X0790000Y0798000D02*
G01X0790000Y0793000D01*
G01X0790000Y0798000D02*
G01X0795000Y0803000D01*
G01X0795000Y0803000D02*
G01X0810000Y0803000D01*
G01X0790000Y0768000D02*
G01X0795000Y0773000D01*
G01X0795000Y0820000D02*
G01X0825000Y0820000D01*
G01X0790000Y0815000D02*
G01X0795000Y0820000D01*
G01X0795000Y0820000D02*
G01X0790000Y0825000D01*
G01X0790000Y0835000D02*
G01X0790000Y0825000D01*
G01X0790000Y0835000D02*
G01X0795000Y0840000D01*
G01X0795000Y0840000D02*
G01X0805000Y0840000D01*
G01X0810000Y0835000D02*
G01X0805000Y0840000D01*
G01X0810000Y0835000D02*
G01X0810000Y0825000D01*
G01X0805000Y0820000D02*
G01X0810000Y0825000D01*
G01X0790000Y0867000D02*
G01X0795000Y0872000D01*
G01X0790000Y0867000D02*
G01X0790000Y0857000D01*
G01X0795000Y0852000D02*
G01X0790000Y0857000D01*
G01X0795000Y0852000D02*
G01X0805000Y0852000D01*
G01X0805000Y0852000D02*
G01X0810000Y0857000D01*
G01X0790000Y0872000D02*
G01X0805000Y0872000D01*
G01X0805000Y0872000D02*
G01X0810000Y0877000D01*
G01X0810000Y0867000D02*
G01X0810000Y0857000D01*
G01X0810000Y0867000D02*
G01X0805000Y0872000D01*
G01X0770000Y0894000D02*
G01X0805000Y0894000D01*
G01X0805000Y0894000D02*
G01X0810000Y0899000D01*
G01X0785000Y0899000D02*
G01X0785000Y0889000D01*
G54D13*
G01X0780000Y0909000D02*
G01X0781000Y0909000D01*
G54D12*
G01X0795000Y0909000D02*
G01X0810000Y0909000D01*
G01X0770000Y0919000D02*
G01X0810000Y0919000D01*
G01X0805000Y0919000D02*
G01X0810000Y0924000D01*
G01X0810000Y0934000D02*
G01X0810000Y0924000D01*
G01X0810000Y0934000D02*
G01X0805000Y0939000D01*
G01X0795000Y0939000D02*
G01X0805000Y0939000D01*
G01X0790000Y0934000D02*
G01X0795000Y0939000D01*
G01X0790000Y0934000D02*
G01X0790000Y0924000D01*
G01X0795000Y0919000D02*
G01X0790000Y0924000D01*
G01X0770000Y0951000D02*
G01X0805000Y0951000D01*
G01X0805000Y0951000D02*
G01X0810000Y0956000D01*
G01X0810000Y0986000D02*
G01X0810000Y0971000D01*
G01X0805000Y0966000D02*
G01X0810000Y0971000D01*
G01X0795000Y0966000D02*
G01X0805000Y0966000D01*
G01X0795000Y0966000D02*
G01X0790000Y0971000D01*
G01X0790000Y0981000D02*
G01X0790000Y0971000D01*
G01X0790000Y0981000D02*
G01X0795000Y0986000D01*
G01X0800000Y0986000D02*
G01X0800000Y0966000D01*
G01X0795000Y0986000D02*
G01X0800000Y0986000D01*
G54D10*
G01X0672440Y0475200D02*
G01X0680310Y0475200D01*
G01X0650790Y0475200D02*
G01X0658660Y0475200D01*
G01X0658660Y0487010D02*
G01X0658660Y0463390D01*
G01X0672440Y0485040D02*
G01X0672440Y0465350D01*
G01X0662600Y0475200D02*
G01X0672440Y0485040D01*
G01X0672440Y0465350D02*
G01X0662600Y0475200D01*
G01X0219490Y0464610D02*
G01X0209650Y0474450D01*
G01X0209650Y0474450D02*
G01X0219490Y0484290D01*
G01X0219490Y0484290D02*
G01X0219490Y0464610D01*
G01X0205710Y0486260D02*
G01X0205710Y0462640D01*
G01X0197830Y0474450D02*
G01X0205710Y0474450D01*
G01X0219490Y0474450D02*
G01X0227360Y0474450D01*
G54D14*
G01X0300390Y0735430D02*
G01X0300390Y0664570D01*
G01X0579920Y0735430D02*
G01X0579920Y0664570D01*
G54D10*
G01X0225590Y0735430D02*
G01X0656690Y0735430D01*
G01X0225590Y0664570D02*
G01X0656690Y0664570D01*
G01X0432280Y0700000D02*
G01X0448030Y0700000D01*
G01X0440160Y0707870D02*
G01X0440160Y0692130D01*
G01X0759060Y0995280D02*
G01X0759060Y0975590D01*
G01X0739370Y0995280D02*
G01X0759060Y0995280D01*
G01X0121260Y0995280D02*
G01X0121260Y0975590D01*
G01X0121260Y0995280D02*
G01X0140940Y0995280D01*
G01X0759060Y0424410D02*
G01X0759060Y0404720D01*
G01X0739370Y0404720D02*
G01X0759060Y0404720D01*
G01X0121260Y0424410D02*
G01X0121260Y0404720D01*
G01X0121260Y0404720D02*
G01X0140940Y0404720D01*
G01X0268900Y0751180D02*
G01X0259060Y0761020D01*
G01X0268900Y0761020D02*
G01X0259060Y0751180D01*
G54D15*
G01X0069570Y0189800D02*
G01X0069570Y0150430D01*
G01X0069570Y0150430D02*
G01X0105000Y0115000D01*
G01X0069570Y0195000D02*
G01X0119490Y0195000D01*
G01X0164060Y0154370D02*
G01X0160120Y0154370D01*
G01X0119490Y0195000D02*
G01X0160120Y0154370D01*
G01X0214570Y0189800D02*
G01X0214570Y0150430D01*
G01X0214570Y0150430D02*
G01X0250000Y0115000D01*
G01X0214570Y0195000D02*
G01X0264490Y0195000D01*
G01X0309060Y0154370D02*
G01X0305120Y0154370D01*
G01X0264490Y0195000D02*
G01X0305120Y0154370D01*
G01X0359570Y0189800D02*
G01X0359570Y0150430D01*
G01X0359570Y0150430D02*
G01X0395000Y0115000D01*
G01X0359570Y0195000D02*
G01X0409490Y0195000D01*
G01X0454060Y0154370D02*
G01X0450120Y0154370D01*
G01X0409490Y0195000D02*
G01X0450120Y0154370D01*
G01X0504570Y0189800D02*
G01X0504570Y0150430D01*
G01X0504570Y0150430D02*
G01X0540000Y0115000D01*
G01X0504570Y0195000D02*
G01X0554490Y0195000D01*
G01X0599060Y0154370D02*
G01X0595120Y0154370D01*
G01X0554490Y0195000D02*
G01X0595120Y0154370D01*
G01X0649570Y0189800D02*
G01X0649570Y0150430D01*
G01X0649570Y0150430D02*
G01X0685000Y0115000D01*
G01X0649570Y0195000D02*
G01X0699490Y0195000D01*
G01X0744060Y0154370D02*
G01X0740120Y0154370D01*
G01X0699490Y0195000D02*
G01X0740120Y0154370D01*
G01X0794570Y0189800D02*
G01X0794570Y0150430D01*
G01X0794570Y0150430D02*
G01X0830000Y0115000D01*
G01X0794570Y0195000D02*
G01X0844490Y0195000D01*
G01X0889060Y0154370D02*
G01X0885120Y0154370D01*
G01X0844490Y0195000D02*
G01X0885120Y0154370D01*
G54D12*
G01X0342860Y0975400D02*
G01X0317860Y0935400D01*
G01X0342860Y0935400D02*
G01X0317860Y0975400D01*
G01X0305860Y0943400D02*
G01X0297860Y0935400D01*
G01X0297860Y0975400D02*
G01X0297860Y0935400D01*
G01X0290860Y0975400D02*
G01X0305860Y0975400D01*
G01X0278860Y0970400D02*
G01X0248860Y0940400D01*
G01X0216860Y0935400D02*
G01X0211860Y0940400D01*
G01X0216860Y0935400D02*
G01X0231860Y0935400D01*
G01X0236860Y0940400D02*
G01X0231860Y0935400D01*
G01X0236860Y0970400D02*
G01X0236860Y0940400D01*
G01X0236860Y0970400D02*
G01X0231860Y0975400D01*
G01X0216860Y0975400D02*
G01X0231860Y0975400D01*
G01X0216860Y0975400D02*
G01X0211860Y0970400D01*
G01X0211860Y0970400D02*
G01X0211860Y0960400D01*
G01X0216860Y0955400D02*
G01X0211860Y0960400D01*
G01X0216860Y0955400D02*
G01X0226860Y0955400D01*
G01X0184860Y0953400D02*
G01X0199860Y0953400D01*
G01X0179860Y0975400D02*
G01X0199860Y0975400D01*
G01X0199860Y0975400D02*
G01X0199860Y0935400D01*
G01X0179860Y0935400D02*
G01X0199860Y0935400D01*
G01X0167860Y0975400D02*
G01X0167860Y0935400D01*
G01X0167860Y0935400D02*
G01X0142860Y0975400D01*
G01X0142860Y0975400D02*
G01X0142860Y0935400D01*
G01X0000000Y0000000D02*
G54D10*
G01X0090000Y0430000D02*
G01X0010000Y0430000D01*
G01X0010000Y0430000D02*
G01X0010000Y0040000D01*
G01X0010000Y0040000D02*
G01X0940000Y0040000D01*
G01X0940000Y0430000D02*
G01X0940000Y0040000D01*
G01X0090000Y1030000D02*
G01X0090000Y0430000D01*
G01X0090000Y1030000D02*
G01X0910000Y1030000D01*
G01X0910000Y1030000D02*
G01X0910000Y0430000D01*
G01X0910000Y0430000D02*
G01X0940000Y0430000D01*
G01X0000000Y0000000D02*
G54D16*
G01X0105000Y0115000D03*
G54D17*
G01X0069570Y0189800D03*
G54D18*
G01X0128620Y0185870D03*
G54D19*
G01X0164060Y0154370D03*
G54D16*
G01X0250000Y0115000D03*
G54D17*
G01X0214570Y0189800D03*
G54D19*
G01X0309060Y0154370D03*
G54D17*
G01X0188190Y0835040D03*
G54D20*
G01X0180310Y0700000D03*
G54D21*
G01X0460240Y0735430D03*
G01X0379920Y0735430D03*
G01X0299610Y0735430D03*
G01X0615350Y0475200D03*
G01X0715750Y0475200D03*
G54D17*
G01X0692130Y0835040D03*
G54D20*
G01X0700000Y0700000D03*
G54D21*
G01X0540550Y0735430D03*
G01X0420080Y0664570D03*
G01X0339760Y0664570D03*
G01X0164570Y0475200D03*
G01X0264960Y0475200D03*
G01X0500390Y0664570D03*
G01X0580710Y0664570D03*
G54D18*
G01X0273620Y0185870D03*
G54D17*
G01X0359570Y0189800D03*
G54D18*
G01X0418620Y0185870D03*
G54D16*
G01X0395000Y0115000D03*
G54D19*
G01X0454060Y0154370D03*
G54D16*
G01X0540000Y0115000D03*
G54D19*
G01X0599060Y0154370D03*
G54D16*
G01X0685000Y0115000D03*
G54D17*
G01X0504570Y0189800D03*
G54D18*
G01X0563620Y0185870D03*
G54D17*
G01X0649570Y0189800D03*
G54D18*
G01X0708620Y0185870D03*
G54D19*
G01X0744060Y0154370D03*
G54D16*
G01X0830000Y0115000D03*
G54D19*
G01X0889060Y0154370D03*
G54D17*
G01X0794570Y0189800D03*
G54D18*
G01X0853620Y0185870D03*
G01X0000000Y0000000D02*
G54D14*
G01X0320000Y0285000D03*
G01X0355000Y0340000D03*
G01X0390000Y0390000D03*
G01X0390000Y0350000D03*
G01X0455000Y0325000D03*
G01X0540000Y0285000D03*
G01X0575000Y0370000D03*
G01X0610000Y0285000D03*
G54D29*
G01X0262000Y0569000D03*
G01X0275000Y0640000D03*
G01X0333000Y0619000D03*
G01X0395000Y0625000D03*
G01X0415000Y0460000D03*
G01X0421000Y0711000D03*
G01X0450000Y0630000D03*
G01X0505000Y0618000D03*
G01X0565000Y0555000D03*
G01X0575000Y0615000D03*
G54D25*
G01X0164100Y0154400D03*
G01X0309100Y0154400D03*
G01X0454100Y0154400D03*
G01X0599100Y0154400D03*
G01X0744100Y0154400D03*
G01X0889100Y0154400D03*
G54D24*
G01X0128600Y0185900D03*
G01X0273600Y0185900D03*
G01X0418600Y0185900D03*
G01X0563600Y0185900D03*
G01X0708600Y0185900D03*
G01X0853600Y0185900D03*
G54D28*
G01X0164600Y0475200D03*
G01X0265000Y0475200D03*
G01X0299600Y0735400D03*
G01X0339800Y0664600D03*
G01X0379900Y0735400D03*
G01X0420100Y0664600D03*
G01X0460200Y0735400D03*
G01X0500400Y0664600D03*
G01X0540600Y0735400D03*
G01X0580700Y0664600D03*
G01X0615400Y0475200D03*
G01X0715700Y0475200D03*
G54D23*
G01X0069600Y0189800D03*
G01X0214600Y0189800D03*
G01X0359600Y0189800D03*
G01X0504600Y0189800D03*
G01X0649600Y0189800D03*
G01X0794600Y0189800D03*
G54D26*
G01X0188200Y0835000D03*
G01X0692100Y0835000D03*
G54D22*
G01X0105000Y0115000D03*
G01X0250000Y0115000D03*
G01X0395000Y0115000D03*
G01X0540000Y0115000D03*
G01X0685000Y0115000D03*
G01X0830000Y0115000D03*
G54D27*
G01X0180300Y0700000D03*
G01X0700000Y0700000D03*
M02*
