G04 start of page 14 for group -3984 idx -3984 *
G04 Title: (unknown), fab *
G04 Creator: pcb 4.2.0 *
G04 CreationDate: Mon Aug 31 02:34:49 2020 UTC *
G04 For: commonadmin *
G04 Format: Gerber/RS-274X *
G04 PCB-Dimensions (mil): 1000.00 1100.00 *
G04 PCB-Coordinate-Origin: lower left *
%MOIN*%
%FSLAX25Y25*%
%LNFAB*%
%ADD116C,0.0100*%
%ADD115C,0.0075*%
%ADD114C,0.0060*%
%ADD113R,0.0080X0.0080*%
G54D113*X17231Y70000D02*G75*G03X18831Y70000I800J0D01*G01*
G75*G03X17231Y70000I-800J0D01*G01*
X15631D02*G75*G03X20431Y70000I2400J0D01*G01*
G75*G03X15631Y70000I-2400J0D01*G01*
X69200D02*G75*G03X70800Y70000I800J0D01*G01*
G75*G03X69200Y70000I-800J0D01*G01*
X67600D02*G75*G03X72400Y70000I2400J0D01*G01*
G75*G03X67600Y70000I-2400J0D01*G01*
X14200Y121250D02*G75*G03X15800Y121250I800J0D01*G01*
G75*G03X14200Y121250I-800J0D01*G01*
X12600D02*G75*G03X17400Y121250I2400J0D01*G01*
G75*G03X12600Y121250I-2400J0D01*G01*
G54D114*X135000Y123500D02*X136500Y120500D01*
X138000Y123500D01*
X136500Y120500D02*Y117500D01*
X139800Y120800D02*X142050D01*
X139800Y117500D02*X142800D01*
X139800Y123500D02*Y117500D01*
Y123500D02*X142800D01*
X147600D02*X148350Y122750D01*
X145350Y123500D02*X147600D01*
X144600Y122750D02*X145350Y123500D01*
X144600Y122750D02*Y121250D01*
X145350Y120500D01*
X147600D01*
X148350Y119750D01*
Y118250D01*
X147600Y117500D02*X148350Y118250D01*
X145350Y117500D02*X147600D01*
X144600Y118250D02*X145350Y117500D01*
X98000Y122750D02*X98750Y123500D01*
X101000D01*
X101750Y122750D01*
Y121250D01*
X98000Y117500D02*X101750Y121250D01*
X98000Y117500D02*X101750D01*
X45000Y118250D02*X45750Y117500D01*
X45000Y122750D02*Y118250D01*
Y122750D02*X45750Y123500D01*
X47250D01*
X48000Y122750D01*
Y118250D01*
X47250Y117500D02*X48000Y118250D01*
X45750Y117500D02*X47250D01*
X45000Y119000D02*X48000Y122000D01*
X49800Y117500D02*X50550D01*
X52350Y118250D02*X53100Y117500D01*
X52350Y122750D02*Y118250D01*
Y122750D02*X53100Y123500D01*
X54600D01*
X55350Y122750D01*
Y118250D01*
X54600Y117500D02*X55350Y118250D01*
X53100Y117500D02*X54600D01*
X52350Y119000D02*X55350Y122000D01*
X57900Y117500D02*X60150Y120500D01*
Y122750D02*Y120500D01*
X59400Y123500D02*X60150Y122750D01*
X57900Y123500D02*X59400D01*
X57150Y122750D02*X57900Y123500D01*
X57150Y122750D02*Y121250D01*
X57900Y120500D01*
X60150D01*
X61950Y119750D02*X64950Y123500D01*
X61950Y119750D02*X65700D01*
X64950Y123500D02*Y117500D01*
X8100Y13900D02*X12900Y9100D01*
X8100D02*X12900Y13900D01*
X8900Y13100D02*X12100D01*
X8900D02*Y9900D01*
X12100D01*
Y13100D02*Y9900D01*
X22600Y13900D02*X27400Y9100D01*
X22600D02*X27400Y13900D01*
X23400Y13100D02*X26600D01*
X23400D02*Y9900D01*
X26600D01*
Y13100D02*Y9900D01*
X37100Y13900D02*X41900Y9100D01*
X37100D02*X41900Y13900D01*
X37900Y13100D02*X41100D01*
X37900D02*Y9900D01*
X41100D01*
Y13100D02*Y9900D01*
X51600Y13900D02*X56400Y9100D01*
X51600D02*X56400Y13900D01*
X52400Y13100D02*X55600D01*
X52400D02*Y9900D01*
X55600D01*
Y13100D02*Y9900D01*
X66100Y13900D02*X70900Y9100D01*
X66100D02*X70900Y13900D01*
X66900Y13100D02*X70100D01*
X66900D02*Y9900D01*
X70100D01*
Y13100D02*Y9900D01*
X80600Y13900D02*X85400Y9100D01*
X80600D02*X85400Y13900D01*
X81400Y13100D02*X84600D01*
X81400D02*Y9900D01*
X84600D01*
Y13100D02*Y9900D01*
X12600Y138650D02*X17400Y133850D01*
X12600D02*X17400Y138650D01*
X13400Y137850D02*X16600D01*
X13400D02*Y134650D01*
X16600D01*
Y137850D02*Y134650D01*
X135000Y138500D02*X136500Y135500D01*
X138000Y138500D01*
X136500Y135500D02*Y132500D01*
X139800Y135800D02*X142050D01*
X139800Y132500D02*X142800D01*
X139800Y138500D02*Y132500D01*
Y138500D02*X142800D01*
X147600D02*X148350Y137750D01*
X145350Y138500D02*X147600D01*
X144600Y137750D02*X145350Y138500D01*
X144600Y137750D02*Y136250D01*
X145350Y135500D01*
X147600D01*
X148350Y134750D01*
Y133250D01*
X147600Y132500D02*X148350Y133250D01*
X145350Y132500D02*X147600D01*
X144600Y133250D02*X145350Y132500D01*
X100250Y138500D02*X101000Y137750D01*
X98750Y138500D02*X100250D01*
X98000Y137750D02*X98750Y138500D01*
X98000Y137750D02*Y133250D01*
X98750Y132500D01*
X100250Y135800D02*X101000Y135050D01*
X98000Y135800D02*X100250D01*
X98750Y132500D02*X100250D01*
X101000Y133250D01*
Y135050D02*Y133250D01*
X45000D02*X45750Y132500D01*
X45000Y137750D02*Y133250D01*
Y137750D02*X45750Y138500D01*
X47250D01*
X48000Y137750D01*
Y133250D01*
X47250Y132500D02*X48000Y133250D01*
X45750Y132500D02*X47250D01*
X45000Y134000D02*X48000Y137000D01*
X49800Y132500D02*X50550D01*
X52350Y133250D02*X53100Y132500D01*
X52350Y137750D02*Y133250D01*
Y137750D02*X53100Y138500D01*
X54600D01*
X55350Y137750D01*
Y133250D01*
X54600Y132500D02*X55350Y133250D01*
X53100Y132500D02*X54600D01*
X52350Y134000D02*X55350Y137000D01*
X57900Y132500D02*X60900Y138500D01*
X57150D02*X60900D01*
X63450Y132500D02*X65700Y135500D01*
Y137750D02*Y135500D01*
X64950Y138500D02*X65700Y137750D01*
X63450Y138500D02*X64950D01*
X62700Y137750D02*X63450Y138500D01*
X62700Y137750D02*Y136250D01*
X63450Y135500D01*
X65700D01*
X69213Y86704D02*Y80304D01*
X66013Y83504D02*X72413D01*
X67613Y85104D02*X70813D01*
X67613D02*Y81904D01*
X70813D01*
Y85104D02*Y81904D01*
X18819Y86704D02*Y80304D01*
X15619Y83504D02*X22019D01*
X17219Y85104D02*X20419D01*
X17219D02*Y81904D01*
X20419D01*
Y85104D02*Y81904D01*
X15000Y154450D02*Y148050D01*
X11800Y151250D02*X18200D01*
X13400Y152850D02*X16600D01*
X13400D02*Y149650D01*
X16600D01*
Y152850D02*Y149650D01*
X135000Y153500D02*X136500Y150500D01*
X138000Y153500D01*
X136500Y150500D02*Y147500D01*
X139800Y150800D02*X142050D01*
X139800Y147500D02*X142800D01*
X139800Y153500D02*Y147500D01*
Y153500D02*X142800D01*
X147600D02*X148350Y152750D01*
X145350Y153500D02*X147600D01*
X144600Y152750D02*X145350Y153500D01*
X144600Y152750D02*Y151250D01*
X145350Y150500D01*
X147600D01*
X148350Y149750D01*
Y148250D01*
X147600Y147500D02*X148350Y148250D01*
X145350Y147500D02*X147600D01*
X144600Y148250D02*X145350Y147500D01*
X98000Y152750D02*X98750Y153500D01*
X101000D01*
X101750Y152750D01*
Y151250D01*
X98000Y147500D02*X101750Y151250D01*
X98000Y147500D02*X101750D01*
X45000Y148250D02*X45750Y147500D01*
X45000Y152750D02*Y148250D01*
Y152750D02*X45750Y153500D01*
X47250D01*
X48000Y152750D01*
Y148250D01*
X47250Y147500D02*X48000Y148250D01*
X45750Y147500D02*X47250D01*
X45000Y149000D02*X48000Y152000D01*
X49800Y147500D02*X50550D01*
X52350Y148250D02*X53100Y147500D01*
X52350Y152750D02*Y148250D01*
Y152750D02*X53100Y153500D01*
X54600D01*
X55350Y152750D01*
Y148250D01*
X54600Y147500D02*X55350Y148250D01*
X53100Y147500D02*X54600D01*
X52350Y149000D02*X55350Y152000D01*
X57150Y153500D02*X60150D01*
X57150D02*Y150500D01*
X57900Y151250D01*
X59400D01*
X60150Y150500D01*
Y148250D01*
X59400Y147500D02*X60150Y148250D01*
X57900Y147500D02*X59400D01*
X57150Y148250D02*X57900Y147500D01*
X61950Y152300D02*X63150Y153500D01*
Y147500D01*
X61950D02*X64200D01*
X6957Y18980D02*Y15780D01*
Y18980D02*X9730Y20580D01*
X6957Y18980D02*X4183Y20580D01*
X5357Y18980D02*G75*G03X8557Y18980I1600J0D01*G01*
G75*G03X5357Y18980I-1600J0D01*G01*
X21457D02*Y15780D01*
Y18980D02*X24230Y20580D01*
X21457Y18980D02*X18683Y20580D01*
X19857Y18980D02*G75*G03X23057Y18980I1600J0D01*G01*
G75*G03X19857Y18980I-1600J0D01*G01*
X35957D02*Y15780D01*
Y18980D02*X38730Y20580D01*
X35957Y18980D02*X33183Y20580D01*
X34357Y18980D02*G75*G03X37557Y18980I1600J0D01*G01*
G75*G03X34357Y18980I-1600J0D01*G01*
X50457D02*Y15780D01*
Y18980D02*X53230Y20580D01*
X50457Y18980D02*X47683Y20580D01*
X48857Y18980D02*G75*G03X52057Y18980I1600J0D01*G01*
G75*G03X48857Y18980I-1600J0D01*G01*
X64957D02*Y15780D01*
Y18980D02*X67730Y20580D01*
X64957Y18980D02*X62183Y20580D01*
X63357Y18980D02*G75*G03X66557Y18980I1600J0D01*G01*
G75*G03X63357Y18980I-1600J0D01*G01*
X79457D02*Y15780D01*
Y18980D02*X82230Y20580D01*
X79457Y18980D02*X76683Y20580D01*
X77857Y18980D02*G75*G03X81057Y18980I1600J0D01*G01*
G75*G03X77857Y18980I-1600J0D01*G01*
X15000Y166250D02*Y163050D01*
Y166250D02*X17773Y167850D01*
X15000Y166250D02*X12227Y167850D01*
X13400Y166250D02*G75*G03X16600Y166250I1600J0D01*G01*
G75*G03X13400Y166250I-1600J0D01*G01*
X135000Y168500D02*X136500Y165500D01*
X138000Y168500D01*
X136500Y165500D02*Y162500D01*
X139800Y165800D02*X142050D01*
X139800Y162500D02*X142800D01*
X139800Y168500D02*Y162500D01*
Y168500D02*X142800D01*
X147600D02*X148350Y167750D01*
X145350Y168500D02*X147600D01*
X144600Y167750D02*X145350Y168500D01*
X144600Y167750D02*Y166250D01*
X145350Y165500D01*
X147600D01*
X148350Y164750D01*
Y163250D01*
X147600Y162500D02*X148350Y163250D01*
X145350Y162500D02*X147600D01*
X144600Y163250D02*X145350Y162500D01*
X100250Y168500D02*X101000Y167750D01*
X98750Y168500D02*X100250D01*
X98000Y167750D02*X98750Y168500D01*
X98000Y167750D02*Y163250D01*
X98750Y162500D01*
X100250Y165800D02*X101000Y165050D01*
X98000Y165800D02*X100250D01*
X98750Y162500D02*X100250D01*
X101000Y163250D01*
Y165050D02*Y163250D01*
X45000D02*X45750Y162500D01*
X45000Y167750D02*Y163250D01*
Y167750D02*X45750Y168500D01*
X47250D01*
X48000Y167750D01*
Y163250D01*
X47250Y162500D02*X48000Y163250D01*
X45750Y162500D02*X47250D01*
X45000Y164000D02*X48000Y167000D01*
X49800Y162500D02*X50550D01*
X52350Y163250D02*X53100Y162500D01*
X52350Y167750D02*Y163250D01*
Y167750D02*X53100Y168500D01*
X54600D01*
X55350Y167750D01*
Y163250D01*
X54600Y162500D02*X55350Y163250D01*
X53100Y162500D02*X54600D01*
X52350Y164000D02*X55350Y167000D01*
X57150Y164750D02*X60150Y168500D01*
X57150Y164750D02*X60900D01*
X60150Y168500D02*Y162500D01*
X63450D02*X65700Y165500D01*
Y167750D02*Y165500D01*
X64950Y168500D02*X65700Y167750D01*
X63450Y168500D02*X64950D01*
X62700Y167750D02*X63450Y168500D01*
X62700Y167750D02*Y166250D01*
X63450Y165500D01*
X65700D01*
X59935Y49120D02*X63135D01*
X59935D02*Y45920D01*
X63135D01*
Y49120D02*Y45920D01*
X69975Y49120D02*X73175D01*
X69975D02*Y45920D01*
X73175D01*
Y49120D02*Y45920D01*
X44424Y75143D02*X47624D01*
X44424D02*Y71943D01*
X47624D01*
Y75143D02*Y71943D01*
X52455Y75143D02*X55655D01*
X52455D02*Y71943D01*
X55655D01*
Y75143D02*Y71943D01*
X36392Y75143D02*X39592D01*
X36392D02*Y71943D01*
X39592D01*
Y75143D02*Y71943D01*
X28361Y75143D02*X31561D01*
X28361D02*Y71943D01*
X31561D01*
Y75143D02*Y71943D01*
X40408Y68057D02*X43608D01*
X40408D02*Y64857D01*
X43608D01*
Y68057D02*Y64857D01*
X32376Y68057D02*X35576D01*
X32376D02*Y64857D01*
X35576D01*
Y68057D02*Y64857D01*
X48439Y68057D02*X51639D01*
X48439D02*Y64857D01*
X51639D01*
Y68057D02*Y64857D01*
X56471Y68057D02*X59671D01*
X56471D02*Y64857D01*
X59671D01*
Y68057D02*Y64857D01*
X14857Y49120D02*X18057D01*
X14857D02*Y45920D01*
X18057D01*
Y49120D02*Y45920D01*
X24896Y49120D02*X28096D01*
X24896D02*Y45920D01*
X28096D01*
Y49120D02*Y45920D01*
X13400Y182850D02*X16600D01*
X13400D02*Y179650D01*
X16600D01*
Y182850D02*Y179650D01*
X135000Y183500D02*X136500Y180500D01*
X138000Y183500D01*
X136500Y180500D02*Y177500D01*
X139800Y180800D02*X142050D01*
X139800Y177500D02*X142800D01*
X139800Y183500D02*Y177500D01*
Y183500D02*X142800D01*
X147600D02*X148350Y182750D01*
X145350Y183500D02*X147600D01*
X144600Y182750D02*X145350Y183500D01*
X144600Y182750D02*Y181250D01*
X145350Y180500D01*
X147600D01*
X148350Y179750D01*
Y178250D01*
X147600Y177500D02*X148350Y178250D01*
X145350Y177500D02*X147600D01*
X144600Y178250D02*X145350Y177500D01*
X98000Y182300D02*X99200Y183500D01*
Y177500D01*
X98000D02*X100250D01*
X102050Y182750D02*X102800Y183500D01*
X105050D01*
X105800Y182750D01*
Y181250D01*
X102050Y177500D02*X105800Y181250D01*
X102050Y177500D02*X105800D01*
X45000Y178250D02*X45750Y177500D01*
X45000Y182750D02*Y178250D01*
Y182750D02*X45750Y183500D01*
X47250D01*
X48000Y182750D01*
Y178250D01*
X47250Y177500D02*X48000Y178250D01*
X45750Y177500D02*X47250D01*
X45000Y179000D02*X48000Y182000D01*
X49800Y177500D02*X50550D01*
X52350Y178250D02*X53100Y177500D01*
X52350Y182750D02*Y178250D01*
Y182750D02*X53100Y183500D01*
X54600D01*
X55350Y182750D01*
Y178250D01*
X54600Y177500D02*X55350Y178250D01*
X53100Y177500D02*X54600D01*
X52350Y179000D02*X55350Y182000D01*
X57150Y182750D02*X57900Y183500D01*
X59400D01*
X60150Y182750D01*
X59400Y177500D02*X60150Y178250D01*
X57900Y177500D02*X59400D01*
X57150Y178250D02*X57900Y177500D01*
Y180800D02*X59400D01*
X60150Y182750D02*Y181550D01*
Y180050D02*Y178250D01*
Y180050D02*X59400Y180800D01*
X60150Y181550D02*X59400Y180800D01*
X61950Y183500D02*X64950D01*
X61950D02*Y180500D01*
X62700Y181250D01*
X64200D01*
X64950Y180500D01*
Y178250D01*
X64200Y177500D02*X64950Y178250D01*
X62700Y177500D02*X64200D01*
X61950Y178250D02*X62700Y177500D01*
X12062Y18587D02*G75*G03X13662Y18587I800J0D01*G01*
G75*G03X12062Y18587I-800J0D01*G01*
X26562D02*G75*G03X28162Y18587I800J0D01*G01*
G75*G03X26562Y18587I-800J0D01*G01*
X41062D02*G75*G03X42662Y18587I800J0D01*G01*
G75*G03X41062Y18587I-800J0D01*G01*
X55562D02*G75*G03X57162Y18587I800J0D01*G01*
G75*G03X55562Y18587I-800J0D01*G01*
X70062D02*G75*G03X71662Y18587I800J0D01*G01*
G75*G03X70062Y18587I-800J0D01*G01*
X84562D02*G75*G03X86162Y18587I800J0D01*G01*
G75*G03X84562Y18587I-800J0D01*G01*
X14200Y196250D02*G75*G03X15800Y196250I800J0D01*G01*
G75*G03X14200Y196250I-800J0D01*G01*
X135000Y198500D02*X136500Y195500D01*
X138000Y198500D01*
X136500Y195500D02*Y192500D01*
X139800Y195800D02*X142050D01*
X139800Y192500D02*X142800D01*
X139800Y198500D02*Y192500D01*
Y198500D02*X142800D01*
X147600D02*X148350Y197750D01*
X145350Y198500D02*X147600D01*
X144600Y197750D02*X145350Y198500D01*
X144600Y197750D02*Y196250D01*
X145350Y195500D01*
X147600D01*
X148350Y194750D01*
Y193250D01*
X147600Y192500D02*X148350Y193250D01*
X145350Y192500D02*X147600D01*
X144600Y193250D02*X145350Y192500D01*
X100250Y198500D02*X101000Y197750D01*
X98750Y198500D02*X100250D01*
X98000Y197750D02*X98750Y198500D01*
X98000Y197750D02*Y193250D01*
X98750Y192500D01*
X100250Y195800D02*X101000Y195050D01*
X98000Y195800D02*X100250D01*
X98750Y192500D02*X100250D01*
X101000Y193250D01*
Y195050D02*Y193250D01*
X45000D02*X45750Y192500D01*
X45000Y197750D02*Y193250D01*
Y197750D02*X45750Y198500D01*
X47250D01*
X48000Y197750D01*
Y193250D01*
X47250Y192500D02*X48000Y193250D01*
X45750Y192500D02*X47250D01*
X45000Y194000D02*X48000Y197000D01*
X49800Y192500D02*X50550D01*
X52350Y193250D02*X53100Y192500D01*
X52350Y197750D02*Y193250D01*
Y197750D02*X53100Y198500D01*
X54600D01*
X55350Y197750D01*
Y193250D01*
X54600Y192500D02*X55350Y193250D01*
X53100Y192500D02*X54600D01*
X52350Y194000D02*X55350Y197000D01*
X57150Y197750D02*X57900Y198500D01*
X59400D01*
X60150Y197750D01*
X59400Y192500D02*X60150Y193250D01*
X57900Y192500D02*X59400D01*
X57150Y193250D02*X57900Y192500D01*
Y195800D02*X59400D01*
X60150Y197750D02*Y196550D01*
Y195050D02*Y193250D01*
Y195050D02*X59400Y195800D01*
X60150Y196550D02*X59400Y195800D01*
X61950Y193250D02*X62700Y192500D01*
X61950Y197750D02*Y193250D01*
Y197750D02*X62700Y198500D01*
X64200D01*
X64950Y197750D01*
Y193250D01*
X64200Y192500D02*X64950Y193250D01*
X62700Y192500D02*X64200D01*
X61950Y194000D02*X64950Y197000D01*
X15206Y16637D02*X17606Y14237D01*
X15206D02*X17606Y16637D01*
X29706D02*X32106Y14237D01*
X29706D02*X32106Y16637D01*
X44206D02*X46606Y14237D01*
X44206D02*X46606Y16637D01*
X58706D02*X61106Y14237D01*
X58706D02*X61106Y16637D01*
X73206D02*X75606Y14237D01*
X73206D02*X75606Y16637D01*
X87706D02*X90106Y14237D01*
X87706D02*X90106Y16637D01*
X13800Y212450D02*X16200Y210050D01*
X13800D02*X16200Y212450D01*
X135000Y213500D02*X136500Y210500D01*
X138000Y213500D01*
X136500Y210500D02*Y207500D01*
X139800Y210800D02*X142050D01*
X139800Y207500D02*X142800D01*
X139800Y213500D02*Y207500D01*
Y213500D02*X142800D01*
X147600D02*X148350Y212750D01*
X145350Y213500D02*X147600D01*
X144600Y212750D02*X145350Y213500D01*
X144600Y212750D02*Y211250D01*
X145350Y210500D01*
X147600D01*
X148350Y209750D01*
Y208250D01*
X147600Y207500D02*X148350Y208250D01*
X145350Y207500D02*X147600D01*
X144600Y208250D02*X145350Y207500D01*
X100250Y213500D02*X101000Y212750D01*
X98750Y213500D02*X100250D01*
X98000Y212750D02*X98750Y213500D01*
X98000Y212750D02*Y208250D01*
X98750Y207500D01*
X100250Y210800D02*X101000Y210050D01*
X98000Y210800D02*X100250D01*
X98750Y207500D02*X100250D01*
X101000Y208250D01*
Y210050D02*Y208250D01*
X45000D02*X45750Y207500D01*
X45000Y212750D02*Y208250D01*
Y212750D02*X45750Y213500D01*
X47250D01*
X48000Y212750D01*
Y208250D01*
X47250Y207500D02*X48000Y208250D01*
X45750Y207500D02*X47250D01*
X45000Y209000D02*X48000Y212000D01*
X49800Y207500D02*X50550D01*
X52350Y208250D02*X53100Y207500D01*
X52350Y212750D02*Y208250D01*
Y212750D02*X53100Y213500D01*
X54600D01*
X55350Y212750D01*
Y208250D01*
X54600Y207500D02*X55350Y208250D01*
X53100Y207500D02*X54600D01*
X52350Y209000D02*X55350Y212000D01*
X57150Y212750D02*X57900Y213500D01*
X60150D01*
X60900Y212750D01*
Y211250D01*
X57150Y207500D02*X60900Y211250D01*
X57150Y207500D02*X60900D01*
X62700Y208250D02*X63450Y207500D01*
X62700Y212750D02*Y208250D01*
Y212750D02*X63450Y213500D01*
X64950D01*
X65700Y212750D01*
Y208250D01*
X64950Y207500D02*X65700Y208250D01*
X63450Y207500D02*X64950D01*
X62700Y209000D02*X65700Y212000D01*
X26200Y58500D02*Y55300D01*
X24600Y56900D02*X27800D01*
X41500Y47600D02*Y44400D01*
X39900Y46000D02*X43100D01*
X56500Y57100D02*Y53900D01*
X54900Y55500D02*X58100D01*
X57500Y63100D02*Y59900D01*
X55900Y61500D02*X59100D01*
X27500Y65600D02*Y62400D01*
X25900Y64000D02*X29100D01*
X45000Y64600D02*Y61400D01*
X43400Y63000D02*X46600D01*
X33300Y63500D02*Y60300D01*
X31700Y61900D02*X34900D01*
X39500Y64100D02*Y60900D01*
X37900Y62500D02*X41100D01*
X42100Y72700D02*Y69500D01*
X40500Y71100D02*X43700D01*
X50500Y63400D02*Y60200D01*
X48900Y61800D02*X52100D01*
X15000Y227850D02*Y224650D01*
X13400Y226250D02*X16600D01*
X135000Y228500D02*X136500Y225500D01*
X138000Y228500D01*
X136500Y225500D02*Y222500D01*
X139800Y225800D02*X142050D01*
X139800Y222500D02*X142800D01*
X139800Y228500D02*Y222500D01*
Y228500D02*X142800D01*
X147600D02*X148350Y227750D01*
X145350Y228500D02*X147600D01*
X144600Y227750D02*X145350Y228500D01*
X144600Y227750D02*Y226250D01*
X145350Y225500D01*
X147600D01*
X148350Y224750D01*
Y223250D01*
X147600Y222500D02*X148350Y223250D01*
X145350Y222500D02*X147600D01*
X144600Y223250D02*X145350Y222500D01*
X98000Y227300D02*X99200Y228500D01*
Y222500D01*
X98000D02*X100250D01*
X102050Y223250D02*X102800Y222500D01*
X102050Y227750D02*Y223250D01*
Y227750D02*X102800Y228500D01*
X104300D01*
X105050Y227750D01*
Y223250D01*
X104300Y222500D02*X105050Y223250D01*
X102800Y222500D02*X104300D01*
X102050Y224000D02*X105050Y227000D01*
X45000Y223250D02*X45750Y222500D01*
X45000Y227750D02*Y223250D01*
Y227750D02*X45750Y228500D01*
X47250D01*
X48000Y227750D01*
Y223250D01*
X47250Y222500D02*X48000Y223250D01*
X45750Y222500D02*X47250D01*
X45000Y224000D02*X48000Y227000D01*
X49800Y222500D02*X50550D01*
X52350Y223250D02*X53100Y222500D01*
X52350Y227750D02*Y223250D01*
Y227750D02*X53100Y228500D01*
X54600D01*
X55350Y227750D01*
Y223250D01*
X54600Y222500D02*X55350Y223250D01*
X53100Y222500D02*X54600D01*
X52350Y224000D02*X55350Y227000D01*
X57150Y227300D02*X58350Y228500D01*
Y222500D01*
X57150D02*X59400D01*
X61200Y227750D02*X61950Y228500D01*
X63450D01*
X64200Y227750D01*
X63450Y222500D02*X64200Y223250D01*
X61950Y222500D02*X63450D01*
X61200Y223250D02*X61950Y222500D01*
Y225800D02*X63450D01*
X64200Y227750D02*Y226550D01*
Y225050D02*Y223250D01*
Y225050D02*X63450Y225800D01*
X64200Y226550D02*X63450Y225800D01*
X54000Y28500D02*Y26900D01*
Y28500D02*X55387Y29300D01*
X54000Y28500D02*X52613Y29300D01*
X57500Y37000D02*Y35400D01*
Y37000D02*X58887Y37800D01*
X57500Y37000D02*X56113Y37800D01*
X39000Y35000D02*Y33400D01*
Y35000D02*X40387Y35800D01*
X39000Y35000D02*X37613Y35800D01*
X39000Y39000D02*Y37400D01*
Y39000D02*X40387Y39800D01*
X39000Y39000D02*X37613Y39800D01*
X35500Y34000D02*Y32400D01*
Y34000D02*X36887Y34800D01*
X35500Y34000D02*X34113Y34800D01*
X32000Y28500D02*Y26900D01*
Y28500D02*X33387Y29300D01*
X32000Y28500D02*X30613Y29300D01*
X45500Y32500D02*Y30900D01*
Y32500D02*X46887Y33300D01*
X45500Y32500D02*X44113Y33300D01*
X61000Y28500D02*Y26900D01*
Y28500D02*X62387Y29300D01*
X61000Y28500D02*X59613Y29300D01*
X15000Y241250D02*Y239650D01*
Y241250D02*X16387Y242050D01*
X15000Y241250D02*X13613Y242050D01*
X135000Y243500D02*X136500Y240500D01*
X138000Y243500D01*
X136500Y240500D02*Y237500D01*
X139800Y240800D02*X142050D01*
X139800Y237500D02*X142800D01*
X139800Y243500D02*Y237500D01*
Y243500D02*X142800D01*
X147600D02*X148350Y242750D01*
X145350Y243500D02*X147600D01*
X144600Y242750D02*X145350Y243500D01*
X144600Y242750D02*Y241250D01*
X145350Y240500D01*
X147600D01*
X148350Y239750D01*
Y238250D01*
X147600Y237500D02*X148350Y238250D01*
X145350Y237500D02*X147600D01*
X144600Y238250D02*X145350Y237500D01*
X98000Y238250D02*X98750Y237500D01*
X98000Y239450D02*Y238250D01*
Y239450D02*X99050Y240500D01*
X99950D01*
X101000Y239450D01*
Y238250D01*
X100250Y237500D02*X101000Y238250D01*
X98750Y237500D02*X100250D01*
X98000Y241550D02*X99050Y240500D01*
X98000Y242750D02*Y241550D01*
Y242750D02*X98750Y243500D01*
X100250D01*
X101000Y242750D01*
Y241550D01*
X99950Y240500D02*X101000Y241550D01*
X45000Y238250D02*X45750Y237500D01*
X45000Y242750D02*Y238250D01*
Y242750D02*X45750Y243500D01*
X47250D01*
X48000Y242750D01*
Y238250D01*
X47250Y237500D02*X48000Y238250D01*
X45750Y237500D02*X47250D01*
X45000Y239000D02*X48000Y242000D01*
X49800Y237500D02*X50550D01*
X52350Y238250D02*X53100Y237500D01*
X52350Y242750D02*Y238250D01*
Y242750D02*X53100Y243500D01*
X54600D01*
X55350Y242750D01*
Y238250D01*
X54600Y237500D02*X55350Y238250D01*
X53100Y237500D02*X54600D01*
X52350Y239000D02*X55350Y242000D01*
X57150Y242300D02*X58350Y243500D01*
Y237500D01*
X57150D02*X59400D01*
X61200Y238250D02*X61950Y237500D01*
X61200Y242750D02*Y238250D01*
Y242750D02*X61950Y243500D01*
X63450D01*
X64200Y242750D01*
Y238250D01*
X63450Y237500D02*X64200Y238250D01*
X61950Y237500D02*X63450D01*
X61200Y239000D02*X64200Y242000D01*
X3000Y258500D02*X3750Y257750D01*
X750Y258500D02*X3000D01*
X0Y257750D02*X750Y258500D01*
X0Y257750D02*Y256250D01*
X750Y255500D01*
X3000D01*
X3750Y254750D01*
Y253250D01*
X3000Y252500D02*X3750Y253250D01*
X750Y252500D02*X3000D01*
X0Y253250D02*X750Y252500D01*
X5550Y255500D02*Y253250D01*
X6300Y252500D01*
X8550Y255500D02*Y251000D01*
X7800Y250250D02*X8550Y251000D01*
X6300Y250250D02*X7800D01*
X5550Y251000D02*X6300Y250250D01*
Y252500D02*X7800D01*
X8550Y253250D01*
X11100Y254750D02*Y252500D01*
Y254750D02*X11850Y255500D01*
X12600D01*
X13350Y254750D01*
Y252500D01*
Y254750D02*X14100Y255500D01*
X14850D01*
X15600Y254750D01*
Y252500D01*
X10350Y255500D02*X11100Y254750D01*
X17400Y258500D02*Y252500D01*
Y253250D02*X18150Y252500D01*
X19650D01*
X20400Y253250D01*
Y254750D02*Y253250D01*
X19650Y255500D02*X20400Y254750D01*
X18150Y255500D02*X19650D01*
X17400Y254750D02*X18150Y255500D01*
X22200Y254750D02*Y253250D01*
Y254750D02*X22950Y255500D01*
X24450D01*
X25200Y254750D01*
Y253250D01*
X24450Y252500D02*X25200Y253250D01*
X22950Y252500D02*X24450D01*
X22200Y253250D02*X22950Y252500D01*
X27000Y258500D02*Y253250D01*
X27750Y252500D01*
X0Y249250D02*X29250D01*
X41750Y258500D02*Y252500D01*
X43700Y258500D02*X44750Y257450D01*
Y253550D01*
X43700Y252500D02*X44750Y253550D01*
X41000Y252500D02*X43700D01*
X41000Y258500D02*X43700D01*
G54D115*X46550Y257000D02*Y256850D01*
G54D114*Y254750D02*Y252500D01*
X50300Y255500D02*X51050Y254750D01*
X48800Y255500D02*X50300D01*
X48050Y254750D02*X48800Y255500D01*
X48050Y254750D02*Y253250D01*
X48800Y252500D01*
X51050Y255500D02*Y253250D01*
X51800Y252500D01*
X48800D02*X50300D01*
X51050Y253250D01*
X54350Y254750D02*Y252500D01*
Y254750D02*X55100Y255500D01*
X55850D01*
X56600Y254750D01*
Y252500D01*
Y254750D02*X57350Y255500D01*
X58100D01*
X58850Y254750D01*
Y252500D01*
X53600Y255500D02*X54350Y254750D01*
X60650Y252500D02*X61400D01*
X65900Y253250D02*X66650Y252500D01*
X65900Y257750D02*X66650Y258500D01*
X65900Y257750D02*Y253250D01*
X68450Y258500D02*X69950D01*
X69200D02*Y252500D01*
X68450D02*X69950D01*
X72500Y254750D02*Y252500D01*
Y254750D02*X73250Y255500D01*
X74000D01*
X74750Y254750D01*
Y252500D01*
X71750Y255500D02*X72500Y254750D01*
X77300Y255500D02*X79550D01*
X76550Y254750D02*X77300Y255500D01*
X76550Y254750D02*Y253250D01*
X77300Y252500D01*
X79550D01*
X81350Y258500D02*Y252500D01*
Y254750D02*X82100Y255500D01*
X83600D01*
X84350Y254750D01*
Y252500D01*
X86150Y258500D02*X86900Y257750D01*
Y253250D01*
X86150Y252500D02*X86900Y253250D01*
X41000Y249250D02*X88700D01*
X96050Y252500D02*X98000D01*
X95000Y253550D02*X96050Y252500D01*
X95000Y257450D02*Y253550D01*
Y257450D02*X96050Y258500D01*
X98000D01*
X99800Y254750D02*Y253250D01*
Y254750D02*X100550Y255500D01*
X102050D01*
X102800Y254750D01*
Y253250D01*
X102050Y252500D02*X102800Y253250D01*
X100550Y252500D02*X102050D01*
X99800Y253250D02*X100550Y252500D01*
X104600Y255500D02*Y253250D01*
X105350Y252500D01*
X106850D01*
X107600Y253250D01*
Y255500D02*Y253250D01*
X110150Y254750D02*Y252500D01*
Y254750D02*X110900Y255500D01*
X111650D01*
X112400Y254750D01*
Y252500D01*
X109400Y255500D02*X110150Y254750D01*
X114950Y258500D02*Y253250D01*
X115700Y252500D01*
X114200Y256250D02*X115700D01*
X95000Y249250D02*X117200D01*
X130750Y258500D02*Y252500D01*
X130000Y258500D02*X133000D01*
X133750Y257750D01*
Y256250D01*
X133000Y255500D02*X133750Y256250D01*
X130750Y255500D02*X133000D01*
X135550Y258500D02*Y253250D01*
X136300Y252500D01*
X140050Y255500D02*X140800Y254750D01*
X138550Y255500D02*X140050D01*
X137800Y254750D02*X138550Y255500D01*
X137800Y254750D02*Y253250D01*
X138550Y252500D01*
X140800Y255500D02*Y253250D01*
X141550Y252500D01*
X138550D02*X140050D01*
X140800Y253250D01*
X144100Y258500D02*Y253250D01*
X144850Y252500D01*
X143350Y256250D02*X144850D01*
X147100Y252500D02*X149350D01*
X146350Y253250D02*X147100Y252500D01*
X146350Y254750D02*Y253250D01*
Y254750D02*X147100Y255500D01*
X148600D01*
X149350Y254750D01*
X146350Y254000D02*X149350D01*
Y254750D02*Y254000D01*
X154150Y258500D02*Y252500D01*
X153400D02*X154150Y253250D01*
X151900Y252500D02*X153400D01*
X151150Y253250D02*X151900Y252500D01*
X151150Y254750D02*Y253250D01*
Y254750D02*X151900Y255500D01*
X153400D01*
X154150Y254750D01*
X157450Y255500D02*Y254750D01*
Y253250D02*Y252500D01*
X155950Y257750D02*Y257000D01*
Y257750D02*X156700Y258500D01*
X158200D01*
X158950Y257750D01*
Y257000D01*
X157450Y255500D02*X158950Y257000D01*
X130000Y249250D02*X160750D01*
X0Y273500D02*X3000D01*
X1500D02*Y267500D01*
X4800Y273500D02*Y267500D01*
Y269750D02*X5550Y270500D01*
X7050D01*
X7800Y269750D01*
Y267500D01*
X10350D02*X12600D01*
X9600Y268250D02*X10350Y267500D01*
X9600Y269750D02*Y268250D01*
Y269750D02*X10350Y270500D01*
X11850D01*
X12600Y269750D01*
X9600Y269000D02*X12600D01*
Y269750D02*Y269000D01*
X15150Y269750D02*Y267500D01*
Y269750D02*X15900Y270500D01*
X17400D01*
X14400D02*X15150Y269750D01*
X19950Y267500D02*X22200D01*
X19200Y268250D02*X19950Y267500D01*
X19200Y269750D02*Y268250D01*
Y269750D02*X19950Y270500D01*
X21450D01*
X22200Y269750D01*
X19200Y269000D02*X22200D01*
Y269750D02*Y269000D01*
X28950Y270500D02*X29700Y269750D01*
X27450Y270500D02*X28950D01*
X26700Y269750D02*X27450Y270500D01*
X26700Y269750D02*Y268250D01*
X27450Y267500D01*
X29700Y270500D02*Y268250D01*
X30450Y267500D01*
X27450D02*X28950D01*
X29700Y268250D01*
X33000Y269750D02*Y267500D01*
Y269750D02*X33750Y270500D01*
X35250D01*
X32250D02*X33000Y269750D01*
X37800Y267500D02*X40050D01*
X37050Y268250D02*X37800Y267500D01*
X37050Y269750D02*Y268250D01*
Y269750D02*X37800Y270500D01*
X39300D01*
X40050Y269750D01*
X37050Y269000D02*X40050D01*
Y269750D02*Y269000D01*
X45300Y267500D02*X47550Y270500D01*
Y272750D02*Y270500D01*
X46800Y273500D02*X47550Y272750D01*
X45300Y273500D02*X46800D01*
X44550Y272750D02*X45300Y273500D01*
X44550Y272750D02*Y271250D01*
X45300Y270500D01*
X47550D01*
X55050Y273500D02*Y267500D01*
X54300D02*X55050Y268250D01*
X52800Y267500D02*X54300D01*
X52050Y268250D02*X52800Y267500D01*
X52050Y269750D02*Y268250D01*
Y269750D02*X52800Y270500D01*
X54300D01*
X55050Y269750D01*
G54D115*X56850Y272000D02*Y271850D01*
G54D114*Y269750D02*Y267500D01*
X59100Y272750D02*Y267500D01*
Y272750D02*X59850Y273500D01*
X60600D01*
X58350Y270500D02*X59850D01*
X62850Y272750D02*Y267500D01*
Y272750D02*X63600Y273500D01*
X64350D01*
X62100Y270500D02*X63600D01*
X66600Y267500D02*X68850D01*
X65850Y268250D02*X66600Y267500D01*
X65850Y269750D02*Y268250D01*
Y269750D02*X66600Y270500D01*
X68100D01*
X68850Y269750D01*
X65850Y269000D02*X68850D01*
Y269750D02*Y269000D01*
X71400Y269750D02*Y267500D01*
Y269750D02*X72150Y270500D01*
X73650D01*
X70650D02*X71400Y269750D01*
X76200Y267500D02*X78450D01*
X75450Y268250D02*X76200Y267500D01*
X75450Y269750D02*Y268250D01*
Y269750D02*X76200Y270500D01*
X77700D01*
X78450Y269750D01*
X75450Y269000D02*X78450D01*
Y269750D02*Y269000D01*
X81000Y269750D02*Y267500D01*
Y269750D02*X81750Y270500D01*
X82500D01*
X83250Y269750D01*
Y267500D01*
X80250Y270500D02*X81000Y269750D01*
X85800Y273500D02*Y268250D01*
X86550Y267500D01*
X85050Y271250D02*X86550D01*
X93750Y273500D02*Y267500D01*
X93000D02*X93750Y268250D01*
X91500Y267500D02*X93000D01*
X90750Y268250D02*X91500Y267500D01*
X90750Y269750D02*Y268250D01*
Y269750D02*X91500Y270500D01*
X93000D01*
X93750Y269750D01*
X96300D02*Y267500D01*
Y269750D02*X97050Y270500D01*
X98550D01*
X95550D02*X96300Y269750D01*
G54D115*X100350Y272000D02*Y271850D01*
G54D114*Y269750D02*Y267500D01*
X101850Y273500D02*Y268250D01*
X102600Y267500D01*
X104100Y273500D02*Y268250D01*
X104850Y267500D01*
X109800D02*X112050D01*
X112800Y268250D01*
X112050Y269000D02*X112800Y268250D01*
X109800Y269000D02*X112050D01*
X109050Y269750D02*X109800Y269000D01*
X109050Y269750D02*X109800Y270500D01*
X112050D01*
X112800Y269750D01*
X109050Y268250D02*X109800Y267500D01*
G54D115*X114600Y272000D02*Y271850D01*
G54D114*Y269750D02*Y267500D01*
X116100Y270500D02*X119100D01*
X116100Y267500D02*X119100Y270500D01*
X116100Y267500D02*X119100D01*
X121650D02*X123900D01*
X120900Y268250D02*X121650Y267500D01*
X120900Y269750D02*Y268250D01*
Y269750D02*X121650Y270500D01*
X123150D01*
X123900Y269750D01*
X120900Y269000D02*X123900D01*
Y269750D02*Y269000D01*
X126450Y267500D02*X128700D01*
X129450Y268250D01*
X128700Y269000D02*X129450Y268250D01*
X126450Y269000D02*X128700D01*
X125700Y269750D02*X126450Y269000D01*
X125700Y269750D02*X126450Y270500D01*
X128700D01*
X129450Y269750D01*
X125700Y268250D02*X126450Y267500D01*
X133950Y270500D02*Y268250D01*
X134700Y267500D01*
X136200D01*
X136950Y268250D01*
Y270500D02*Y268250D01*
X139500Y267500D02*X141750D01*
X142500Y268250D01*
X141750Y269000D02*X142500Y268250D01*
X139500Y269000D02*X141750D01*
X138750Y269750D02*X139500Y269000D01*
X138750Y269750D02*X139500Y270500D01*
X141750D01*
X142500Y269750D01*
X138750Y268250D02*X139500Y267500D01*
X145050D02*X147300D01*
X144300Y268250D02*X145050Y267500D01*
X144300Y269750D02*Y268250D01*
Y269750D02*X145050Y270500D01*
X146550D01*
X147300Y269750D01*
X144300Y269000D02*X147300D01*
Y269750D02*Y269000D01*
X152100Y273500D02*Y267500D01*
X151350D02*X152100Y268250D01*
X149850Y267500D02*X151350D01*
X149100Y268250D02*X149850Y267500D01*
X149100Y269750D02*Y268250D01*
Y269750D02*X149850Y270500D01*
X151350D01*
X152100Y269750D01*
G54D115*X156600Y272000D02*Y271850D01*
G54D114*Y269750D02*Y267500D01*
X158850Y269750D02*Y267500D01*
Y269750D02*X159600Y270500D01*
X160350D01*
X161100Y269750D01*
Y267500D01*
X158100Y270500D02*X158850Y269750D01*
X166350Y273500D02*Y268250D01*
X167100Y267500D01*
X165600Y271250D02*X167100D01*
X168600Y273500D02*Y267500D01*
Y269750D02*X169350Y270500D01*
X170850D01*
X171600Y269750D01*
Y267500D01*
G54D115*X173400Y272000D02*Y271850D01*
G54D114*Y269750D02*Y267500D01*
X175650D02*X177900D01*
X178650Y268250D01*
X177900Y269000D02*X178650Y268250D01*
X175650Y269000D02*X177900D01*
X174900Y269750D02*X175650Y269000D01*
X174900Y269750D02*X175650Y270500D01*
X177900D01*
X178650Y269750D01*
X174900Y268250D02*X175650Y267500D01*
X183150Y273500D02*Y268250D01*
X183900Y267500D01*
X187650Y270500D02*X188400Y269750D01*
X186150Y270500D02*X187650D01*
X185400Y269750D02*X186150Y270500D01*
X185400Y269750D02*Y268250D01*
X186150Y267500D01*
X188400Y270500D02*Y268250D01*
X189150Y267500D01*
X186150D02*X187650D01*
X188400Y268250D01*
X190950Y270500D02*Y268250D01*
X191700Y267500D01*
X193950Y270500D02*Y266000D01*
X193200Y265250D02*X193950Y266000D01*
X191700Y265250D02*X193200D01*
X190950Y266000D02*X191700Y265250D01*
Y267500D02*X193200D01*
X193950Y268250D01*
X195750Y269750D02*Y268250D01*
Y269750D02*X196500Y270500D01*
X198000D01*
X198750Y269750D01*
Y268250D01*
X198000Y267500D02*X198750Y268250D01*
X196500Y267500D02*X198000D01*
X195750Y268250D02*X196500Y267500D01*
X200550Y270500D02*Y268250D01*
X201300Y267500D01*
X202800D01*
X203550Y268250D01*
Y270500D02*Y268250D01*
X206100Y273500D02*Y268250D01*
X206850Y267500D01*
X205350Y271250D02*X206850D01*
X208350Y266000D02*X209850Y267500D01*
X214350Y273500D02*X217350D01*
X214350D02*Y270500D01*
X215100Y271250D01*
X216600D01*
X217350Y270500D01*
Y268250D01*
X216600Y267500D02*X217350Y268250D01*
X215100Y267500D02*X216600D01*
X214350Y268250D02*X215100Y267500D01*
X219150Y268250D02*X219900Y267500D01*
X219150Y269450D02*Y268250D01*
Y269450D02*X220200Y270500D01*
X221100D01*
X222150Y269450D01*
Y268250D01*
X221400Y267500D02*X222150Y268250D01*
X219900Y267500D02*X221400D01*
X219150Y271550D02*X220200Y270500D01*
X219150Y272750D02*Y271550D01*
Y272750D02*X219900Y273500D01*
X221400D01*
X222150Y272750D01*
Y271550D01*
X221100Y270500D02*X222150Y271550D01*
X226650Y273500D02*Y267500D01*
Y269750D02*X227400Y270500D01*
X228900D01*
X229650Y269750D01*
Y267500D01*
X231450Y269750D02*Y268250D01*
Y269750D02*X232200Y270500D01*
X233700D01*
X234450Y269750D01*
Y268250D01*
X233700Y267500D02*X234450Y268250D01*
X232200Y267500D02*X233700D01*
X231450Y268250D02*X232200Y267500D01*
X236250Y273500D02*Y268250D01*
X237000Y267500D01*
X239250D02*X241500D01*
X238500Y268250D02*X239250Y267500D01*
X238500Y269750D02*Y268250D01*
Y269750D02*X239250Y270500D01*
X240750D01*
X241500Y269750D01*
X238500Y269000D02*X241500D01*
Y269750D02*Y269000D01*
X244050Y267500D02*X246300D01*
X247050Y268250D01*
X246300Y269000D02*X247050Y268250D01*
X244050Y269000D02*X246300D01*
X243300Y269750D02*X244050Y269000D01*
X243300Y269750D02*X244050Y270500D01*
X246300D01*
X247050Y269750D01*
X243300Y268250D02*X244050Y267500D01*
X252300Y273500D02*Y268250D01*
X253050Y267500D01*
X251550Y271250D02*X253050D01*
X254550Y269750D02*Y268250D01*
Y269750D02*X255300Y270500D01*
X256800D01*
X257550Y269750D01*
Y268250D01*
X256800Y267500D02*X257550Y268250D01*
X255300Y267500D02*X256800D01*
X254550Y268250D02*X255300Y267500D01*
X260100Y273500D02*Y268250D01*
X260850Y267500D01*
X259350Y271250D02*X260850D01*
X264600Y270500D02*X265350Y269750D01*
X263100Y270500D02*X264600D01*
X262350Y269750D02*X263100Y270500D01*
X262350Y269750D02*Y268250D01*
X263100Y267500D01*
X265350Y270500D02*Y268250D01*
X266100Y267500D01*
X263100D02*X264600D01*
X265350Y268250D01*
X267900Y273500D02*Y268250D01*
X268650Y267500D01*
G54D116*X9000Y103000D02*Y43000D01*
X1000D01*
Y4000D01*
X94000D01*
X9000Y103000D02*X91000D01*
Y43000D01*
X94000D01*
Y4000D01*
G54D114*X0Y-9500D02*X3000D01*
X3750Y-8750D01*
Y-6950D02*Y-8750D01*
X3000Y-6200D02*X3750Y-6950D01*
X750Y-6200D02*X3000D01*
X750Y-3500D02*Y-9500D01*
X0Y-3500D02*X3000D01*
X3750Y-4250D01*
Y-5450D01*
X3000Y-6200D02*X3750Y-5450D01*
X5550Y-7250D02*Y-8750D01*
Y-7250D02*X6300Y-6500D01*
X7800D01*
X8550Y-7250D01*
Y-8750D01*
X7800Y-9500D02*X8550Y-8750D01*
X6300Y-9500D02*X7800D01*
X5550Y-8750D02*X6300Y-9500D01*
X12600Y-6500D02*X13350Y-7250D01*
X11100Y-6500D02*X12600D01*
X10350Y-7250D02*X11100Y-6500D01*
X10350Y-7250D02*Y-8750D01*
X11100Y-9500D01*
X13350Y-6500D02*Y-8750D01*
X14100Y-9500D01*
X11100D02*X12600D01*
X13350Y-8750D01*
X16650Y-7250D02*Y-9500D01*
Y-7250D02*X17400Y-6500D01*
X18900D01*
X15900D02*X16650Y-7250D01*
X23700Y-3500D02*Y-9500D01*
X22950D02*X23700Y-8750D01*
X21450Y-9500D02*X22950D01*
X20700Y-8750D02*X21450Y-9500D01*
X20700Y-7250D02*Y-8750D01*
Y-7250D02*X21450Y-6500D01*
X22950D01*
X23700Y-7250D01*
X28200D02*Y-8750D01*
Y-7250D02*X28950Y-6500D01*
X30450D01*
X31200Y-7250D01*
Y-8750D01*
X30450Y-9500D02*X31200Y-8750D01*
X28950Y-9500D02*X30450D01*
X28200Y-8750D02*X28950Y-9500D01*
X33000Y-6500D02*Y-8750D01*
X33750Y-9500D01*
X35250D01*
X36000Y-8750D01*
Y-6500D02*Y-8750D01*
X38550Y-3500D02*Y-8750D01*
X39300Y-9500D01*
X37800Y-5750D02*X39300D01*
X40800Y-3500D02*Y-8750D01*
X41550Y-9500D01*
G54D115*X43050Y-5000D02*Y-5150D01*
G54D114*Y-7250D02*Y-9500D01*
X45300Y-7250D02*Y-9500D01*
Y-7250D02*X46050Y-6500D01*
X46800D01*
X47550Y-7250D01*
Y-9500D01*
X44550Y-6500D02*X45300Y-7250D01*
X50100Y-9500D02*X52350D01*
X49350Y-8750D02*X50100Y-9500D01*
X49350Y-7250D02*Y-8750D01*
Y-7250D02*X50100Y-6500D01*
X51600D01*
X52350Y-7250D01*
X49350Y-8000D02*X52350D01*
Y-7250D02*Y-8000D01*
G54D115*X56850Y-5000D02*Y-5150D01*
G54D114*Y-7250D02*Y-9500D01*
X59100D02*X61350D01*
X62100Y-8750D01*
X61350Y-8000D02*X62100Y-8750D01*
X59100Y-8000D02*X61350D01*
X58350Y-7250D02*X59100Y-8000D01*
X58350Y-7250D02*X59100Y-6500D01*
X61350D01*
X62100Y-7250D01*
X58350Y-8750D02*X59100Y-9500D01*
X67350Y-3500D02*Y-8750D01*
X68100Y-9500D01*
X66600Y-5750D02*X68100D01*
X69600Y-3500D02*Y-9500D01*
Y-7250D02*X70350Y-6500D01*
X71850D01*
X72600Y-7250D01*
Y-9500D01*
X75150D02*X77400D01*
X74400Y-8750D02*X75150Y-9500D01*
X74400Y-7250D02*Y-8750D01*
Y-7250D02*X75150Y-6500D01*
X76650D01*
X77400Y-7250D01*
X74400Y-8000D02*X77400D01*
Y-7250D02*Y-8000D01*
X82650Y-6500D02*X84900D01*
X81900Y-7250D02*X82650Y-6500D01*
X81900Y-7250D02*Y-8750D01*
X82650Y-9500D01*
X84900D01*
X87450D02*X89700D01*
X86700Y-8750D02*X87450Y-9500D01*
X86700Y-7250D02*Y-8750D01*
Y-7250D02*X87450Y-6500D01*
X88950D01*
X89700Y-7250D01*
X86700Y-8000D02*X89700D01*
Y-7250D02*Y-8000D01*
X92250Y-7250D02*Y-9500D01*
Y-7250D02*X93000Y-6500D01*
X93750D01*
X94500Y-7250D01*
Y-9500D01*
X91500Y-6500D02*X92250Y-7250D01*
X97050Y-3500D02*Y-8750D01*
X97800Y-9500D01*
X96300Y-5750D02*X97800D01*
X100050Y-9500D02*X102300D01*
X99300Y-8750D02*X100050Y-9500D01*
X99300Y-7250D02*Y-8750D01*
Y-7250D02*X100050Y-6500D01*
X101550D01*
X102300Y-7250D01*
X99300Y-8000D02*X102300D01*
Y-7250D02*Y-8000D01*
X104850Y-7250D02*Y-9500D01*
Y-7250D02*X105600Y-6500D01*
X107100D01*
X104100D02*X104850Y-7250D01*
X108900Y-3500D02*Y-8750D01*
X109650Y-9500D01*
G54D115*X111150Y-5000D02*Y-5150D01*
G54D114*Y-7250D02*Y-9500D01*
X113400Y-7250D02*Y-9500D01*
Y-7250D02*X114150Y-6500D01*
X114900D01*
X115650Y-7250D01*
Y-9500D01*
X112650Y-6500D02*X113400Y-7250D01*
X118200Y-9500D02*X120450D01*
X117450Y-8750D02*X118200Y-9500D01*
X117450Y-7250D02*Y-8750D01*
Y-7250D02*X118200Y-6500D01*
X119700D01*
X120450Y-7250D01*
X117450Y-8000D02*X120450D01*
Y-7250D02*Y-8000D01*
X124950Y-7250D02*Y-8750D01*
Y-7250D02*X125700Y-6500D01*
X127200D01*
X127950Y-7250D01*
Y-8750D01*
X127200Y-9500D02*X127950Y-8750D01*
X125700Y-9500D02*X127200D01*
X124950Y-8750D02*X125700Y-9500D01*
X130500Y-4250D02*Y-9500D01*
Y-4250D02*X131250Y-3500D01*
X132000D01*
X129750Y-6500D02*X131250D01*
X136950Y-3500D02*Y-8750D01*
X137700Y-9500D01*
X136200Y-5750D02*X137700D01*
X139200Y-3500D02*Y-9500D01*
Y-7250D02*X139950Y-6500D01*
X141450D01*
X142200Y-7250D01*
Y-9500D01*
G54D115*X144000Y-5000D02*Y-5150D01*
G54D114*Y-7250D02*Y-9500D01*
X146250D02*X148500D01*
X149250Y-8750D01*
X148500Y-8000D02*X149250Y-8750D01*
X146250Y-8000D02*X148500D01*
X145500Y-7250D02*X146250Y-8000D01*
X145500Y-7250D02*X146250Y-6500D01*
X148500D01*
X149250Y-7250D01*
X145500Y-8750D02*X146250Y-9500D01*
X154500Y-7250D02*Y-11750D01*
X153750Y-6500D02*X154500Y-7250D01*
X155250Y-6500D01*
X156750D01*
X157500Y-7250D01*
Y-8750D01*
X156750Y-9500D02*X157500Y-8750D01*
X155250Y-9500D02*X156750D01*
X154500Y-8750D02*X155250Y-9500D01*
X161550Y-6500D02*X162300Y-7250D01*
X160050Y-6500D02*X161550D01*
X159300Y-7250D02*X160050Y-6500D01*
X159300Y-7250D02*Y-8750D01*
X160050Y-9500D01*
X162300Y-6500D02*Y-8750D01*
X163050Y-9500D01*
X160050D02*X161550D01*
X162300Y-8750D01*
X165600Y-3500D02*Y-8750D01*
X166350Y-9500D01*
X164850Y-5750D02*X166350D01*
X167850Y-3500D02*Y-9500D01*
Y-7250D02*X168600Y-6500D01*
X170100D01*
X170850Y-7250D01*
Y-9500D01*
X200750Y138500D02*Y132500D01*
X202700Y138500D02*X203750Y137450D01*
Y133550D01*
X202700Y132500D02*X203750Y133550D01*
X200000Y132500D02*X202700D01*
X200000Y138500D02*X202700D01*
X207800Y135500D02*X208550Y134750D01*
X206300Y135500D02*X207800D01*
X205550Y134750D02*X206300Y135500D01*
X205550Y134750D02*Y133250D01*
X206300Y132500D01*
X208550Y135500D02*Y133250D01*
X209300Y132500D01*
X206300D02*X207800D01*
X208550Y133250D01*
X211850Y138500D02*Y133250D01*
X212600Y132500D01*
X211100Y136250D02*X212600D01*
X214850Y132500D02*X217100D01*
X214100Y133250D02*X214850Y132500D01*
X214100Y134750D02*Y133250D01*
Y134750D02*X214850Y135500D01*
X216350D01*
X217100Y134750D01*
X214100Y134000D02*X217100D01*
Y134750D02*Y134000D01*
X218900Y136250D02*X219650D01*
X218900Y134750D02*X219650D01*
X224150Y138500D02*Y132500D01*
Y138500D02*X226400Y135500D01*
X228650Y138500D01*
Y132500D01*
X230450Y134750D02*Y133250D01*
Y134750D02*X231200Y135500D01*
X232700D01*
X233450Y134750D01*
Y133250D01*
X232700Y132500D02*X233450Y133250D01*
X231200Y132500D02*X232700D01*
X230450Y133250D02*X231200Y132500D01*
X236000Y134750D02*Y132500D01*
Y134750D02*X236750Y135500D01*
X237500D01*
X238250Y134750D01*
Y132500D01*
X235250Y135500D02*X236000Y134750D01*
X242750Y137000D02*Y132500D01*
Y137000D02*X243800Y138500D01*
X245450D01*
X246500Y137000D01*
Y132500D01*
X242750Y135500D02*X246500D01*
X248300D02*Y133250D01*
X249050Y132500D01*
X250550D01*
X251300Y133250D01*
Y135500D02*Y133250D01*
X255350Y135500D02*X256100Y134750D01*
X253850Y135500D02*X255350D01*
X253100Y134750D02*X253850Y135500D01*
X253100Y134750D02*Y133250D01*
X253850Y132500D01*
X255350D01*
X256100Y133250D01*
X253100Y131000D02*X253850Y130250D01*
X255350D01*
X256100Y131000D01*
Y135500D02*Y131000D01*
X260600Y137750D02*X261350Y138500D01*
X262850D01*
X263600Y137750D01*
X262850Y132500D02*X263600Y133250D01*
X261350Y132500D02*X262850D01*
X260600Y133250D02*X261350Y132500D01*
Y135800D02*X262850D01*
X263600Y137750D02*Y136550D01*
Y135050D02*Y133250D01*
Y135050D02*X262850Y135800D01*
X263600Y136550D02*X262850Y135800D01*
X265400Y137300D02*X266600Y138500D01*
Y132500D01*
X265400D02*X267650D01*
X272150Y133250D02*X272900Y132500D01*
X272150Y137750D02*Y133250D01*
Y137750D02*X272900Y138500D01*
X274400D01*
X275150Y137750D01*
Y133250D01*
X274400Y132500D02*X275150Y133250D01*
X272900Y132500D02*X274400D01*
X272150Y134000D02*X275150Y137000D01*
X276950Y137750D02*X277700Y138500D01*
X279950D01*
X280700Y137750D01*
Y136250D01*
X276950Y132500D02*X280700Y136250D01*
X276950Y132500D02*X280700D01*
X282500Y136250D02*X283250D01*
X282500Y134750D02*X283250D01*
X285050Y137750D02*X285800Y138500D01*
X287300D01*
X288050Y137750D01*
X287300Y132500D02*X288050Y133250D01*
X285800Y132500D02*X287300D01*
X285050Y133250D02*X285800Y132500D01*
Y135800D02*X287300D01*
X288050Y137750D02*Y136550D01*
Y135050D02*Y133250D01*
Y135050D02*X287300Y135800D01*
X288050Y136550D02*X287300Y135800D01*
X289850Y134750D02*X292850Y138500D01*
X289850Y134750D02*X293600D01*
X292850Y138500D02*Y132500D01*
X295400Y136250D02*X296150D01*
X295400Y134750D02*X296150D01*
X297950D02*X300950Y138500D01*
X297950Y134750D02*X301700D01*
X300950Y138500D02*Y132500D01*
X304250D02*X306500Y135500D01*
Y137750D02*Y135500D01*
X305750Y138500D02*X306500Y137750D01*
X304250Y138500D02*X305750D01*
X303500Y137750D02*X304250Y138500D01*
X303500Y137750D02*Y136250D01*
X304250Y135500D01*
X306500D01*
X311000Y137750D02*X311750Y138500D01*
X314000D01*
X314750Y137750D01*
Y136250D01*
X311000Y132500D02*X314750Y136250D01*
X311000Y132500D02*X314750D01*
X316550Y133250D02*X317300Y132500D01*
X316550Y137750D02*Y133250D01*
Y137750D02*X317300Y138500D01*
X318800D01*
X319550Y137750D01*
Y133250D01*
X318800Y132500D02*X319550Y133250D01*
X317300Y132500D02*X318800D01*
X316550Y134000D02*X319550Y137000D01*
X321350Y137750D02*X322100Y138500D01*
X324350D01*
X325100Y137750D01*
Y136250D01*
X321350Y132500D02*X325100Y136250D01*
X321350Y132500D02*X325100D01*
X326900Y133250D02*X327650Y132500D01*
X326900Y137750D02*Y133250D01*
Y137750D02*X327650Y138500D01*
X329150D01*
X329900Y137750D01*
Y133250D01*
X329150Y132500D02*X329900Y133250D01*
X327650Y132500D02*X329150D01*
X326900Y134000D02*X329900Y137000D01*
X334400Y138500D02*Y133250D01*
X335150Y132500D01*
X336650D01*
X337400Y133250D01*
Y138500D02*Y133250D01*
X339200Y138500D02*X342200D01*
X340700D02*Y132500D01*
X345050D02*X347000D01*
X344000Y133550D02*X345050Y132500D01*
X344000Y137450D02*Y133550D01*
Y137450D02*X345050Y138500D01*
X347000D01*
X200000Y152000D02*Y147500D01*
Y152000D02*X201050Y153500D01*
X202700D01*
X203750Y152000D01*
Y147500D01*
X200000Y150500D02*X203750D01*
X205550D02*Y148250D01*
X206300Y147500D01*
X207800D01*
X208550Y148250D01*
Y150500D02*Y148250D01*
X211100Y153500D02*Y148250D01*
X211850Y147500D01*
X210350Y151250D02*X211850D01*
X213350Y153500D02*Y147500D01*
Y149750D02*X214100Y150500D01*
X215600D01*
X216350Y149750D01*
Y147500D01*
X218150Y149750D02*Y148250D01*
Y149750D02*X218900Y150500D01*
X220400D01*
X221150Y149750D01*
Y148250D01*
X220400Y147500D02*X221150Y148250D01*
X218900Y147500D02*X220400D01*
X218150Y148250D02*X218900Y147500D01*
X223700Y149750D02*Y147500D01*
Y149750D02*X224450Y150500D01*
X225950D01*
X222950D02*X223700Y149750D01*
X227750Y151250D02*X228500D01*
X227750Y149750D02*X228500D01*
X233750Y150500D02*X236000D01*
X233000Y149750D02*X233750Y150500D01*
X233000Y149750D02*Y148250D01*
X233750Y147500D01*
X236000D01*
X237800Y149750D02*Y148250D01*
Y149750D02*X238550Y150500D01*
X240050D01*
X240800Y149750D01*
Y148250D01*
X240050Y147500D02*X240800Y148250D01*
X238550Y147500D02*X240050D01*
X237800Y148250D02*X238550Y147500D01*
X243350Y149750D02*Y147500D01*
Y149750D02*X244100Y150500D01*
X244850D01*
X245600Y149750D01*
Y147500D01*
Y149750D02*X246350Y150500D01*
X247100D01*
X247850Y149750D01*
Y147500D01*
X242600Y150500D02*X243350Y149750D01*
X250400D02*Y147500D01*
Y149750D02*X251150Y150500D01*
X251900D01*
X252650Y149750D01*
Y147500D01*
Y149750D02*X253400Y150500D01*
X254150D01*
X254900Y149750D01*
Y147500D01*
X249650Y150500D02*X250400Y149750D01*
X256700D02*Y148250D01*
Y149750D02*X257450Y150500D01*
X258950D01*
X259700Y149750D01*
Y148250D01*
X258950Y147500D02*X259700Y148250D01*
X257450Y147500D02*X258950D01*
X256700Y148250D02*X257450Y147500D01*
X262250Y149750D02*Y147500D01*
Y149750D02*X263000Y150500D01*
X263750D01*
X264500Y149750D01*
Y147500D01*
X261500Y150500D02*X262250Y149750D01*
X268550Y150500D02*X269300Y149750D01*
X267050Y150500D02*X268550D01*
X266300Y149750D02*X267050Y150500D01*
X266300Y149750D02*Y148250D01*
X267050Y147500D01*
X269300Y150500D02*Y148250D01*
X270050Y147500D01*
X267050D02*X268550D01*
X269300Y148250D01*
X274850Y153500D02*Y147500D01*
X274100D02*X274850Y148250D01*
X272600Y147500D02*X274100D01*
X271850Y148250D02*X272600Y147500D01*
X271850Y149750D02*Y148250D01*
Y149750D02*X272600Y150500D01*
X274100D01*
X274850Y149750D01*
X277400D02*Y147500D01*
Y149750D02*X278150Y150500D01*
X278900D01*
X279650Y149750D01*
Y147500D01*
Y149750D02*X280400Y150500D01*
X281150D01*
X281900Y149750D01*
Y147500D01*
X276650Y150500D02*X277400Y149750D01*
G54D115*X283700Y152000D02*Y151850D01*
G54D114*Y149750D02*Y147500D01*
X285950Y149750D02*Y147500D01*
Y149750D02*X286700Y150500D01*
X287450D01*
X288200Y149750D01*
Y147500D01*
X285200Y150500D02*X285950Y149750D01*
X200000Y168500D02*X203000D01*
X201500D02*Y162500D01*
G54D115*X204800Y167000D02*Y166850D01*
G54D114*Y164750D02*Y162500D01*
X207050Y168500D02*Y163250D01*
X207800Y162500D01*
X206300Y166250D02*X207800D01*
X209300Y168500D02*Y163250D01*
X210050Y162500D01*
X212300D02*X214550D01*
X211550Y163250D02*X212300Y162500D01*
X211550Y164750D02*Y163250D01*
Y164750D02*X212300Y165500D01*
X213800D01*
X214550Y164750D01*
X211550Y164000D02*X214550D01*
Y164750D02*Y164000D01*
X216350Y166250D02*X217100D01*
X216350Y164750D02*X217100D01*
X221600Y163250D02*X222350Y162500D01*
X221600Y167750D02*X222350Y168500D01*
X221600Y167750D02*Y163250D01*
X224150Y165500D02*Y163250D01*
X224900Y162500D01*
X226400D01*
X227150Y163250D01*
Y165500D02*Y163250D01*
X229700Y164750D02*Y162500D01*
Y164750D02*X230450Y165500D01*
X231200D01*
X231950Y164750D01*
Y162500D01*
X228950Y165500D02*X229700Y164750D01*
X233750Y168500D02*Y162500D01*
Y164750D02*X236000Y162500D01*
X233750Y164750D02*X235250Y166250D01*
X238550Y164750D02*Y162500D01*
Y164750D02*X239300Y165500D01*
X240050D01*
X240800Y164750D01*
Y162500D01*
X237800Y165500D02*X238550Y164750D01*
X242600D02*Y163250D01*
Y164750D02*X243350Y165500D01*
X244850D01*
X245600Y164750D01*
Y163250D01*
X244850Y162500D02*X245600Y163250D01*
X243350Y162500D02*X244850D01*
X242600Y163250D02*X243350Y162500D01*
X247400Y165500D02*Y163250D01*
X248150Y162500D01*
X248900D01*
X249650Y163250D01*
Y165500D02*Y163250D01*
X250400Y162500D01*
X251150D01*
X251900Y163250D01*
Y165500D02*Y163250D01*
X254450Y164750D02*Y162500D01*
Y164750D02*X255200Y165500D01*
X255950D01*
X256700Y164750D01*
Y162500D01*
X253700Y165500D02*X254450Y164750D01*
X258500Y168500D02*X259250Y167750D01*
Y163250D01*
X258500Y162500D02*X259250Y163250D01*
X263750Y165500D02*X266750D01*
X271250Y168500D02*Y162500D01*
Y168500D02*X274250D01*
X271250Y165800D02*X273500D01*
X278300Y165500D02*X279050Y164750D01*
X276800Y165500D02*X278300D01*
X276050Y164750D02*X276800Y165500D01*
X276050Y164750D02*Y163250D01*
X276800Y162500D01*
X279050Y165500D02*Y163250D01*
X279800Y162500D01*
X276800D02*X278300D01*
X279050Y163250D01*
X281600Y168500D02*Y162500D01*
Y163250D02*X282350Y162500D01*
X283850D01*
X284600Y163250D01*
Y164750D02*Y163250D01*
X283850Y165500D02*X284600Y164750D01*
X282350Y165500D02*X283850D01*
X281600Y164750D02*X282350Y165500D01*
X287150Y164750D02*Y162500D01*
Y164750D02*X287900Y165500D01*
X289400D01*
X286400D02*X287150Y164750D01*
G54D115*X291200Y167000D02*Y166850D01*
G54D114*Y164750D02*Y162500D01*
X293450Y165500D02*X295700D01*
X292700Y164750D02*X293450Y165500D01*
X292700Y164750D02*Y163250D01*
X293450Y162500D01*
X295700D01*
X299750Y165500D02*X300500Y164750D01*
X298250Y165500D02*X299750D01*
X297500Y164750D02*X298250Y165500D01*
X297500Y164750D02*Y163250D01*
X298250Y162500D01*
X300500Y165500D02*Y163250D01*
X301250Y162500D01*
X298250D02*X299750D01*
X300500Y163250D01*
X303800Y168500D02*Y163250D01*
X304550Y162500D01*
X303050Y166250D02*X304550D01*
G54D115*X306050Y167000D02*Y166850D01*
G54D114*Y164750D02*Y162500D01*
X307550Y164750D02*Y163250D01*
Y164750D02*X308300Y165500D01*
X309800D01*
X310550Y164750D01*
Y163250D01*
X309800Y162500D02*X310550Y163250D01*
X308300Y162500D02*X309800D01*
X307550Y163250D02*X308300Y162500D01*
X313100Y164750D02*Y162500D01*
Y164750D02*X313850Y165500D01*
X314600D01*
X315350Y164750D01*
Y162500D01*
X312350Y165500D02*X313100Y164750D01*
X320600Y168500D02*Y162500D01*
X322550Y168500D02*X323600Y167450D01*
Y163550D01*
X322550Y162500D02*X323600Y163550D01*
X319850Y162500D02*X322550D01*
X319850Y168500D02*X322550D01*
X326150Y164750D02*Y162500D01*
Y164750D02*X326900Y165500D01*
X328400D01*
X325400D02*X326150Y164750D01*
X332450Y165500D02*X333200Y164750D01*
X330950Y165500D02*X332450D01*
X330200Y164750D02*X330950Y165500D01*
X330200Y164750D02*Y163250D01*
X330950Y162500D01*
X333200Y165500D02*Y163250D01*
X333950Y162500D01*
X330950D02*X332450D01*
X333200Y163250D01*
X335750Y165500D02*Y163250D01*
X336500Y162500D01*
X337250D01*
X338000Y163250D01*
Y165500D02*Y163250D01*
X338750Y162500D01*
X339500D01*
X340250Y163250D01*
Y165500D02*Y163250D01*
G54D115*X342050Y167000D02*Y166850D01*
G54D114*Y164750D02*Y162500D01*
X344300Y164750D02*Y162500D01*
Y164750D02*X345050Y165500D01*
X345800D01*
X346550Y164750D01*
Y162500D01*
X343550Y165500D02*X344300Y164750D01*
X350600Y165500D02*X351350Y164750D01*
X349100Y165500D02*X350600D01*
X348350Y164750D02*X349100Y165500D01*
X348350Y164750D02*Y163250D01*
X349100Y162500D01*
X350600D01*
X351350Y163250D01*
X348350Y161000D02*X349100Y160250D01*
X350600D01*
X351350Y161000D01*
Y165500D02*Y161000D01*
M02*
