G04 start of page 6 for group 4 idx 15 *
G04 Title: (unknown), exclude2 *
G04 Creator: pcb 4.2.0 *
G04 CreationDate: Mon Aug 31 02:34:49 2020 UTC *
G04 For: commonadmin *
G04 Format: Gerber/RS-274X *
G04 PCB-Dimensions (mil): 1000.00 1100.00 *
G04 PCB-Coordinate-Origin: lower left *
%MOIN*%
%FSLAX25Y25*%
%LNGROUP4*%
%ADD76C,0.0354*%
%ADD75C,0.0197*%
%ADD74C,0.0295*%
%ADD73C,0.0492*%
%ADD72C,0.0787*%
%ADD71C,0.0100*%
%ADD70C,0.0130*%
%ADD69C,0.0200*%
%ADD68C,0.0270*%
%ADD67C,0.0512*%
%ADD66C,0.1102*%
%ADD65C,0.0394*%
%ADD64C,0.0472*%
%ADD63C,0.0669*%
%ADD62C,0.0945*%
G54D62*X10500Y11500D03*
G54D63*X6957Y18980D03*
G54D64*X12862Y18587D03*
G54D65*X16406Y15437D03*
G54D62*X25000Y11500D03*
G54D63*X21457Y18980D03*
G54D65*X30906Y15437D03*
G54D63*X18819Y83504D03*
G54D66*X18031Y70000D03*
G54D67*X46024Y73543D03*
X37992D03*
X29961D03*
X61535Y47520D03*
X71575D03*
G54D63*X69213Y83504D03*
G54D66*X70000Y70000D03*
G54D67*X54055Y73543D03*
X42008Y66457D03*
X33976D03*
X16457Y47520D03*
X26496D03*
X50039Y66457D03*
X58071D03*
G54D64*X27362Y18587D03*
G54D63*X35957Y18980D03*
G54D64*X41862Y18587D03*
G54D62*X39500Y11500D03*
G54D65*X45406Y15437D03*
G54D62*X54000Y11500D03*
G54D65*X59906Y15437D03*
G54D62*X68500Y11500D03*
G54D63*X50457Y18980D03*
G54D64*X56362Y18587D03*
G54D63*X64957Y18980D03*
G54D64*X70862Y18587D03*
G54D65*X74406Y15437D03*
G54D62*X83000Y11500D03*
G54D65*X88906Y15437D03*
G54D63*X79457Y18980D03*
G54D64*X85362Y18587D03*
G54D68*X41500Y46000D03*
X56500Y55500D03*
X57500Y61500D03*
X45000Y63000D03*
X50500Y61800D03*
X26200Y56900D03*
X27500Y64000D03*
X33300Y61900D03*
X39500Y62500D03*
X42100Y71100D03*
G54D69*X54000Y28500D03*
X32000D03*
X61000D03*
X57500Y37000D03*
X39000Y35000D03*
Y39000D03*
X35500Y34000D03*
X45500Y32500D03*
G54D70*G54D71*G54D72*G54D73*G54D74*G54D75*G54D72*G54D73*G54D75*G54D67*G54D62*G54D76*G54D67*G54D62*G54D76*G54D74*G54D73*G54D74*G54D72*G54D75*G54D72*G54D75*G54D72*G54D73*G54D74*G54D73*G54D74*G54D75*G54D72*G54D75*G54D73*G54D74*M02*
