G04 start of page 13 for group -4014 idx -4014 *
G04 Title: (unknown), bottompaste *
G04 Creator: pcb 4.2.0 *
G04 CreationDate: Mon Aug 31 02:34:49 2020 UTC *
G04 For: commonadmin *
G04 Format: Gerber/RS-274X *
G04 PCB-Dimensions (mil): 1000.00 1100.00 *
G04 PCB-Coordinate-Origin: lower left *
%MOIN*%
%FSLAX25Y25*%
%LNBOTTOMPASTE*%
%ADD112C,0.0120*%
%ADD111C,0.0060*%
%ADD110C,0.0001*%
G54D110*G36*
X14048Y63559D02*Y58441D01*
X19952D01*
Y63559D01*
X14048D01*
G37*
G36*
Y56473D02*Y51355D01*
X19952D01*
Y56473D01*
X14048D01*
G37*
G36*
X62548Y63559D02*Y58441D01*
X68452D01*
Y63559D01*
X62548D01*
G37*
G36*
Y56473D02*Y51355D01*
X68452D01*
Y56473D01*
X62548D01*
G37*
G36*
X32213Y51287D02*Y49713D01*
X33787D01*
Y51287D01*
X32213D01*
G37*
G36*
X29851D02*Y49713D01*
X31425D01*
Y51287D01*
X29851D01*
G37*
G54D111*X21600Y63900D02*Y60900D01*
Y63900D02*X22300Y64600D01*
X21600Y60900D02*X22300Y60200D01*
G54D110*G36*
X22600Y60500D02*X22000D01*
Y58400D01*
X22600D01*
Y60500D01*
G37*
G36*
Y65400D02*X22000D01*
Y64300D01*
X22600D01*
Y65400D01*
G37*
G54D111*X21600Y61200D02*X22200Y61800D01*
X21600Y62400D02*X22200Y61800D01*
X21600Y63600D02*X22200Y63000D01*
X21600Y62400D02*X22200Y63000D01*
X24200Y64000D02*Y60900D01*
X23600Y64600D02*X24200Y64000D01*
X23600Y60300D02*X24200Y60900D01*
G54D110*G36*
X23900Y60600D02*X23300D01*
Y58400D01*
X23900D01*
Y60600D01*
G37*
G36*
Y65400D02*X23300D01*
Y64300D01*
X23900D01*
Y65400D01*
G37*
G54D111*X23500Y61800D02*X24200Y61100D01*
Y60900D01*
X23500Y61800D02*X24200Y62500D01*
X23500Y63000D02*X24200Y62300D01*
X23500Y63000D02*X24200Y63700D01*
X34300Y61450D02*Y58450D01*
Y61450D02*X35000Y62150D01*
X34300Y58450D02*X35000Y57750D01*
G54D110*G36*
X35300Y58050D02*X34700D01*
Y55950D01*
X35300D01*
Y58050D01*
G37*
G36*
Y62950D02*X34700D01*
Y61850D01*
X35300D01*
Y62950D01*
G37*
G54D111*X34300Y58750D02*X34900Y59350D01*
X34300Y59950D02*X34900Y59350D01*
X34300Y61150D02*X34900Y60550D01*
X34300Y59950D02*X34900Y60550D01*
X36900Y61550D02*Y58450D01*
X36300Y62150D02*X36900Y61550D01*
X36300Y57850D02*X36900Y58450D01*
G54D110*G36*
X36600Y58150D02*X36000D01*
Y55950D01*
X36600D01*
Y58150D01*
G37*
G36*
Y62950D02*X36000D01*
Y61850D01*
X36600D01*
Y62950D01*
G37*
G54D111*X36200Y59350D02*X36900Y58650D01*
Y58450D01*
X36200Y59350D02*X36900Y60050D01*
X36200Y60550D02*X36900Y59850D01*
X36200Y60550D02*X36900Y61250D01*
G54D112*X34700Y46500D02*X37300D01*
G54D110*G36*
X34100Y49100D02*Y47900D01*
X37900D01*
Y49100D01*
X34100D01*
G37*
G36*
Y51100D02*Y49900D01*
X37900D01*
Y51100D01*
X34100D01*
G37*
G36*
Y53000D02*Y51800D01*
X37900D01*
Y53000D01*
X34100D01*
G37*
G36*
Y55000D02*Y53800D01*
X37900D01*
Y55000D01*
X34100D01*
G37*
G36*
X50600Y55100D02*Y53900D01*
X54400D01*
Y55100D01*
X50600D01*
G37*
G36*
Y53100D02*Y51900D01*
X54400D01*
Y53100D01*
X50600D01*
G37*
G36*
Y51100D02*Y49900D01*
X54400D01*
Y51100D01*
X50600D01*
G37*
G36*
Y49200D02*Y48000D01*
X54400D01*
Y49200D01*
X50600D01*
G37*
G36*
Y47200D02*Y46000D01*
X54400D01*
Y47200D01*
X50600D01*
G37*
G54D111*X28000Y62400D02*Y59400D01*
Y62400D02*X28700Y63100D01*
X28000Y59400D02*X28700Y58700D01*
G54D110*G36*
X29000Y59000D02*X28400D01*
Y56900D01*
X29000D01*
Y59000D01*
G37*
G36*
Y63900D02*X28400D01*
Y62800D01*
X29000D01*
Y63900D01*
G37*
G54D111*X28000Y59700D02*X28600Y60300D01*
X28000Y60900D02*X28600Y60300D01*
X28000Y62100D02*X28600Y61500D01*
X28000Y60900D02*X28600Y61500D01*
X30600Y62500D02*Y59400D01*
X30000Y63100D02*X30600Y62500D01*
X30000Y58800D02*X30600Y59400D01*
G54D110*G36*
X30300Y59100D02*X29700D01*
Y56900D01*
X30300D01*
Y59100D01*
G37*
G36*
Y63900D02*X29700D01*
Y62800D01*
X30300D01*
Y63900D01*
G37*
G54D111*X29900Y60300D02*X30600Y59600D01*
Y59400D01*
X29900Y60300D02*X30600Y61000D01*
X29900Y61500D02*X30600Y60800D01*
X29900Y61500D02*X30600Y62200D01*
X40000Y61550D02*Y58550D01*
Y61550D02*X40700Y62250D01*
X40000Y58550D02*X40700Y57850D01*
G54D110*G36*
X41000Y58150D02*X40400D01*
Y56050D01*
X41000D01*
Y58150D01*
G37*
G36*
Y63050D02*X40400D01*
Y61950D01*
X41000D01*
Y63050D01*
G37*
G54D111*X40000Y58850D02*X40600Y59450D01*
X40000Y60050D02*X40600Y59450D01*
X40000Y61250D02*X40600Y60650D01*
X40000Y60050D02*X40600Y60650D01*
X42600Y61650D02*Y58550D01*
X42000Y62250D02*X42600Y61650D01*
X42000Y57950D02*X42600Y58550D01*
G54D110*G36*
X42300Y58250D02*X41700D01*
Y56050D01*
X42300D01*
Y58250D01*
G37*
G36*
Y63050D02*X41700D01*
Y61950D01*
X42300D01*
Y63050D01*
G37*
G54D111*X41900Y59450D02*X42600Y58750D01*
Y58550D01*
X41900Y59450D02*X42600Y60150D01*
X41900Y60650D02*X42600Y59950D01*
X41900Y60650D02*X42600Y61350D01*
X45500Y61900D02*Y58900D01*
Y61900D02*X46200Y62600D01*
X45500Y58900D02*X46200Y58200D01*
G54D110*G36*
X46500Y58500D02*X45900D01*
Y56400D01*
X46500D01*
Y58500D01*
G37*
G36*
Y63400D02*X45900D01*
Y62300D01*
X46500D01*
Y63400D01*
G37*
G54D111*X45500Y59200D02*X46100Y59800D01*
X45500Y60400D02*X46100Y59800D01*
X45500Y61600D02*X46100Y61000D01*
X45500Y60400D02*X46100Y61000D01*
X48100Y62000D02*Y58900D01*
X47500Y62600D02*X48100Y62000D01*
X47500Y58300D02*X48100Y58900D01*
G54D110*G36*
X47800Y58600D02*X47200D01*
Y56400D01*
X47800D01*
Y58600D01*
G37*
G36*
Y63400D02*X47200D01*
Y62300D01*
X47800D01*
Y63400D01*
G37*
G54D111*X47400Y59800D02*X48100Y59100D01*
Y58900D01*
X47400Y59800D02*X48100Y60500D01*
X47400Y61000D02*X48100Y60300D01*
X47400Y61000D02*X48100Y61700D01*
X52000Y62550D02*Y59550D01*
Y62550D02*X52700Y63250D01*
X52000Y59550D02*X52700Y58850D01*
G54D110*G36*
X53000Y59150D02*X52400D01*
Y57050D01*
X53000D01*
Y59150D01*
G37*
G36*
Y64050D02*X52400D01*
Y62950D01*
X53000D01*
Y64050D01*
G37*
G54D111*X52000Y59850D02*X52600Y60450D01*
X52000Y61050D02*X52600Y60450D01*
X52000Y62250D02*X52600Y61650D01*
X52000Y61050D02*X52600Y61650D01*
X54600Y62650D02*Y59550D01*
X54000Y63250D02*X54600Y62650D01*
X54000Y58950D02*X54600Y59550D01*
G54D110*G36*
X54300Y59250D02*X53700D01*
Y57050D01*
X54300D01*
Y59250D01*
G37*
G36*
Y64050D02*X53700D01*
Y62950D01*
X54300D01*
Y64050D01*
G37*
G54D111*X53900Y60450D02*X54600Y59750D01*
Y59550D01*
X53900Y60450D02*X54600Y61150D01*
X53900Y61650D02*X54600Y60950D01*
X53900Y61650D02*X54600Y62350D01*
X58300Y60550D02*Y57550D01*
Y60550D02*X59000Y61250D01*
X58300Y57550D02*X59000Y56850D01*
G54D110*G36*
X59300Y57150D02*X58700D01*
Y55050D01*
X59300D01*
Y57150D01*
G37*
G36*
Y62050D02*X58700D01*
Y60950D01*
X59300D01*
Y62050D01*
G37*
G54D111*X58300Y57850D02*X58900Y58450D01*
X58300Y59050D02*X58900Y58450D01*
X58300Y60250D02*X58900Y59650D01*
X58300Y59050D02*X58900Y59650D01*
X60900Y60650D02*Y57550D01*
X60300Y61250D02*X60900Y60650D01*
X60300Y56950D02*X60900Y57550D01*
G54D110*G36*
X60600Y57250D02*X60000D01*
Y55050D01*
X60600D01*
Y57250D01*
G37*
G36*
Y62050D02*X60000D01*
Y60950D01*
X60600D01*
Y62050D01*
G37*
G54D111*X60200Y58450D02*X60900Y57750D01*
Y57550D01*
X60200Y58450D02*X60900Y59150D01*
X60200Y59650D02*X60900Y58950D01*
X60200Y59650D02*X60900Y60350D01*
G54D110*G36*
X28623Y51984D02*Y50016D01*
X31377D01*
Y51984D01*
X28623D01*
G37*
G36*
Y55132D02*Y53164D01*
X31377D01*
Y55132D01*
X28623D01*
G37*
G36*
X32213Y57287D02*Y55713D01*
X33787D01*
Y57287D01*
X32213D01*
G37*
G36*
Y59649D02*Y58075D01*
X33787D01*
Y59649D01*
X32213D01*
G37*
G36*
X36484Y43877D02*X34516D01*
Y41123D01*
X36484D01*
Y43877D01*
G37*
G36*
X39632D02*X37664D01*
Y41123D01*
X39632D01*
Y43877D01*
G37*
G36*
X33213Y80287D02*Y78713D01*
X34787D01*
Y80287D01*
X33213D01*
G37*
G36*
X30851D02*Y78713D01*
X32425D01*
Y80287D01*
X30851D01*
G37*
M02*
