G04 start of page 10 for group -4079 idx -4079 *
G04 Title: (unknown), topsilk *
G04 Creator: pcb 4.2.0 *
G04 CreationDate: Mon Aug 31 02:34:49 2020 UTC *
G04 For: commonadmin *
G04 Format: Gerber/RS-274X *
G04 PCB-Dimensions (mil): 1000.00 1100.00 *
G04 PCB-Coordinate-Origin: lower left *
%MOIN*%
%FSLAX25Y25*%
%LNTOPSILK*%
%ADD106C,0.0250*%
%ADD105C,0.0100*%
%ADD104C,0.0050*%
%ADD103C,0.0040*%
%ADD102C,0.0030*%
%ADD101C,0.0060*%
G54D101*X30753Y72762D02*X29178Y74337D01*
X30753D02*X29178Y72762D01*
G54D102*X23092Y53394D02*X24592D01*
X23842Y56394D02*Y53394D01*
X20692D02*X22192D01*
Y54894D02*Y53394D01*
Y54894D02*X21817Y54519D01*
X21067D02*X21817D01*
X21067D02*X20692Y54894D01*
Y56019D02*Y54894D01*
X21067Y56394D02*X20692Y56019D01*
X21067Y56394D02*X21817D01*
X22192Y56019D02*X21817Y56394D01*
X18667Y53394D02*X18292Y53769D01*
X18667Y53394D02*X19417D01*
X19792Y53769D02*X19417Y53394D01*
X19792Y56019D02*Y53769D01*
Y56019D02*X19417Y56394D01*
X18667Y54744D02*X18292Y55119D01*
X18667Y54744D02*X19792D01*
X18667Y56394D02*X19417D01*
X18667D02*X18292Y56019D01*
Y55119D01*
X17392Y56019D02*X17017Y56394D01*
X17392Y56019D02*Y55419D01*
X16867Y54894D01*
X16417D02*X16867D01*
X16417D02*X15892Y55419D01*
Y56019D02*Y55419D01*
X16267Y56394D02*X15892Y56019D01*
X16267Y56394D02*X17017D01*
X17392Y54369D02*X16867Y54894D01*
X17392Y54369D02*Y53769D01*
X17017Y53394D01*
X16267D02*X17017D01*
X16267D02*X15892Y53769D01*
Y54369D02*Y53769D01*
X16417Y54894D02*X15892Y54369D01*
X14992Y56394D02*Y54144D01*
X14467Y53394D01*
X13642D02*X14467D01*
X13642D02*X13117Y54144D01*
Y56394D02*Y54144D01*
Y54894D02*X14992D01*
X31957Y52900D02*X31582Y53275D01*
Y54400D02*Y53275D01*
Y54400D02*X31957Y54775D01*
X32707D01*
X34582Y52900D02*X32707Y54775D01*
X34582D02*Y52900D01*
X34207Y55675D02*X31957Y57925D01*
X31582Y60325D02*X31957Y60700D01*
X31582Y60325D02*Y59200D01*
X31957Y58825D02*X31582Y59200D01*
X31957Y58825D02*X34207D01*
X34582Y59200D01*
Y60325D02*Y59200D01*
Y60325D02*X34207Y60700D01*
X33457D02*X34207D01*
X33082Y60325D02*X33457Y60700D01*
X33082Y60325D02*Y59575D01*
X41114Y52900D02*X39239Y54400D01*
X41114Y54775D02*Y52900D01*
X39239Y54400D02*X42239D01*
X41864Y55675D02*X39614Y57925D01*
X42239Y60325D02*Y58825D01*
Y60325D02*X41864Y60700D01*
X40964D02*X41864D01*
X40589Y60325D02*X40964Y60700D01*
X40589Y60325D02*Y59200D01*
X39239D02*X42239D01*
X39239Y60325D02*Y58825D01*
Y60325D02*X39614Y60700D01*
X40214D01*
X40589Y60325D02*X40214Y60700D01*
X39239Y61600D02*X41864D01*
X42239Y61975D01*
X49397Y54418D02*X49772Y54793D01*
X49397Y54418D02*Y53668D01*
X49772Y53293D02*X49397Y53668D01*
X49772Y53293D02*X52022D01*
X52397Y53668D01*
X50747Y54418D02*X51122Y54793D01*
X50747Y54418D02*Y53293D01*
X52397Y54418D02*Y53668D01*
Y54418D02*X52022Y54793D01*
X51122D02*X52022D01*
Y55693D02*X49772Y57943D01*
Y58843D02*X52022D01*
X49772D02*X49397Y59218D01*
Y59968D02*Y59218D01*
Y59968D02*X49772Y60343D01*
X52022D01*
X52397Y59968D02*X52022Y60343D01*
X52397Y59968D02*Y59218D01*
X52022Y58843D02*X52397Y59218D01*
X59286Y53293D02*X59661Y53668D01*
X58686Y53293D02*X59286D01*
X58686D02*X58161Y53818D01*
Y54268D02*Y53818D01*
Y54268D02*X58686Y54793D01*
X59286D01*
X59661Y54418D02*X59286Y54793D01*
X59661Y54418D02*Y53668D01*
X57636Y53293D02*X58161Y53818D01*
X57036Y53293D02*X57636D01*
X57036D02*X56661Y53668D01*
Y54418D02*Y53668D01*
Y54418D02*X57036Y54793D01*
X57636D01*
X58161Y54268D02*X57636Y54793D01*
X59286Y55693D02*X57036Y57943D01*
X59661Y60343D02*Y58843D01*
Y60343D02*X59286Y60718D01*
X58386D02*X59286D01*
X58011Y60343D02*X58386Y60718D01*
X58011Y60343D02*Y59218D01*
X56661D02*X59661D01*
X56661Y60343D02*Y58843D01*
Y60343D02*X57036Y60718D01*
X57636D01*
X58011Y60343D02*X57636Y60718D01*
X58536Y61993D02*X59661D01*
X58536D02*X58161Y62368D01*
Y63118D02*Y62368D01*
Y61618D02*X58536Y61993D01*
G54D103*X80000Y28000D02*Y24000D01*
Y28000D02*X82500Y24000D01*
Y28000D02*Y24000D01*
X84400D02*X85700D01*
X83700Y24700D02*X84400Y24000D01*
X83700Y27300D02*Y24700D01*
Y27300D02*X84400Y28000D01*
X85700D01*
G54D102*X79293Y29714D02*X79668Y29339D01*
X79293Y30314D02*Y29714D01*
Y30314D02*X79818Y30839D01*
X80268D01*
X80793Y30314D01*
Y29714D01*
X80418Y29339D02*X80793Y29714D01*
X79668Y29339D02*X80418D01*
X79293Y31364D02*X79818Y30839D01*
X79293Y31964D02*Y31364D01*
Y31964D02*X79668Y32339D01*
X80418D01*
X80793Y31964D01*
Y31364D01*
X80268Y30839D02*X80793Y31364D01*
X81693Y29714D02*X83943Y31964D01*
X84843Y29339D02*X86343D01*
X86718Y29714D01*
Y30614D02*Y29714D01*
X86343Y30989D02*X86718Y30614D01*
X85218Y30989D02*X86343D01*
X85218Y32339D02*Y29339D01*
X84843Y32339D02*X86343D01*
X86718Y31964D01*
Y31364D01*
X86343Y30989D02*X86718Y31364D01*
X87993Y30464D02*Y29339D01*
Y30464D02*X88368Y30839D01*
X89118D01*
X87618D02*X87993Y30464D01*
G54D103*X80000Y38000D02*X82000D01*
X84000Y38500D01*
X82000Y39500D01*
X84000Y40500D01*
X82000Y41000D01*
X80000D02*X82000D01*
X81000Y42200D02*X84000D01*
X81000D02*X80000Y42900D01*
Y44000D02*Y42900D01*
Y44000D02*X81000Y44700D01*
X84000D01*
X82000D02*Y42200D01*
X80000Y47900D02*Y45900D01*
Y47900D02*X80500Y48400D01*
X81500D01*
X82000Y47900D02*X81500Y48400D01*
X82000Y47900D02*Y46400D01*
X80000D02*X84000D01*
X82000Y47200D02*X84000Y48400D01*
X80000Y49600D02*X84000D01*
X80000D02*X84000Y52100D01*
X80000D02*X84000D01*
X80000Y54300D02*Y53300D01*
Y53800D02*X84000D01*
Y54300D02*Y53300D01*
X80000Y55500D02*X84000D01*
X80000D02*X84000Y58000D01*
X80000D02*X84000D01*
X80000Y61200D02*X80500Y61700D01*
X80000Y61200D02*Y59700D01*
X80500Y59200D02*X80000Y59700D01*
X80500Y59200D02*X83500D01*
X84000Y59700D01*
Y61200D02*Y59700D01*
Y61200D02*X83500Y61700D01*
X82500D02*X83500D01*
X82000Y61200D02*X82500Y61700D01*
X82000Y61200D02*Y60200D01*
X83500Y62900D02*X84000D01*
X80000D02*X82500D01*
X65500Y28000D02*Y24000D01*
Y28000D02*X68000Y24000D01*
Y28000D02*Y24000D01*
X69200Y27500D02*Y24500D01*
Y27500D02*X69700Y28000D01*
X70700D01*
X71200Y27500D01*
Y24500D01*
X70700Y24000D02*X71200Y24500D01*
X69700Y24000D02*X70700D01*
X69200Y24500D02*X69700Y24000D01*
X53200D02*X54500D01*
X52500Y24700D02*X53200Y24000D01*
X52500Y27300D02*Y24700D01*
Y27300D02*X53200Y28000D01*
X54500D01*
X36000Y24000D02*X38000D01*
X38500Y24500D01*
Y25700D02*Y24500D01*
X38000Y26200D02*X38500Y25700D01*
X36500Y26200D02*X38000D01*
X36500Y28000D02*Y24000D01*
X36000Y28000D02*X38000D01*
X38500Y27500D01*
Y26700D01*
X38000Y26200D02*X38500Y26700D01*
X39700Y26000D02*X41700D01*
X22000Y28000D02*X24000D01*
X24500Y27500D01*
Y26500D01*
X24000Y26000D02*X24500Y26500D01*
X22500Y26000D02*X24000D01*
X22500Y28000D02*Y24000D01*
X23300Y26000D02*X24500Y24000D01*
X25700Y26000D02*X27700D01*
X26700Y27000D02*Y25000D01*
X5500Y28000D02*Y24000D01*
X5000Y28000D02*X7000D01*
X7500Y27500D01*
Y26500D01*
X7000Y26000D02*X7500Y26500D01*
X5500Y26000D02*X7000D01*
X8700Y28000D02*Y26000D01*
X9200Y24000D01*
X10200Y26000D01*
X11200Y24000D01*
X11700Y26000D01*
Y28000D02*Y26000D01*
X12900Y28000D02*Y24000D01*
Y28000D02*X14400Y26000D01*
X15900Y28000D01*
Y24000D01*
G54D102*X21136Y32161D02*X21511Y32536D01*
X22261D01*
X22636Y32161D01*
X22261Y29536D02*X22636Y29911D01*
X21511Y29536D02*X22261D01*
X21136Y29911D02*X21511Y29536D01*
Y31186D02*X22261D01*
X22636Y32161D02*Y31561D01*
Y30811D02*Y29911D01*
Y30811D02*X22261Y31186D01*
X22636Y31561D02*X22261Y31186D01*
X23536Y29911D02*X25786Y32161D01*
X26686Y32536D02*Y31036D01*
X27061Y29536D01*
X27811Y31036D01*
X28561Y29536D01*
X28936Y31036D01*
Y32536D02*Y31036D01*
X29836Y32161D02*Y29911D01*
Y32161D02*X30211Y32536D01*
X30961D01*
X31336Y32161D01*
Y29911D01*
X30961Y29536D02*X31336Y29911D01*
X30211Y29536D02*X30961D01*
X29836Y29911D02*X30211Y29536D01*
X6636Y32272D02*X8136D01*
X6636D02*Y30772D01*
X7011Y31147D01*
X7761D01*
X8136Y30772D01*
Y29647D01*
X7761Y29272D02*X8136Y29647D01*
X7011Y29272D02*X7761D01*
X6636Y29647D02*X7011Y29272D01*
X9036Y29647D02*X11286Y31897D01*
X12186Y32272D02*Y30772D01*
X12561Y29272D01*
X13311Y30772D01*
X14061Y29272D01*
X14436Y30772D01*
Y32272D02*Y30772D01*
X15336Y29272D02*X16836D01*
X17211Y29647D01*
Y30547D02*Y29647D01*
X16836Y30922D02*X17211Y30547D01*
X15711Y30922D02*X16836D01*
X15711Y32272D02*Y29272D01*
X15336Y32272D02*X16836D01*
X17211Y31897D01*
Y31297D01*
X16836Y30922D02*X17211Y31297D01*
X18111Y32272D02*Y29647D01*
X18486Y29272D01*
X36918Y32603D02*X37293Y32228D01*
X36168Y32603D02*X36918D01*
X35793Y32228D02*X36168Y32603D01*
X35793Y32228D02*Y29978D01*
X36168Y29603D01*
X36918Y31253D02*X37293Y30878D01*
X35793Y31253D02*X36918D01*
X36168Y29603D02*X36918D01*
X37293Y29978D01*
Y30878D02*Y29978D01*
X38193D02*X40443Y32228D01*
X41343D02*Y29978D01*
Y32228D02*X41718Y32603D01*
X42468D01*
X42843Y32228D01*
Y29978D01*
X42468Y29603D02*X42843Y29978D01*
X41718Y29603D02*X42468D01*
X41343Y29978D02*X41718Y29603D01*
X50577Y31889D02*X51177Y32489D01*
Y29489D01*
X50577D02*X51702D01*
X52602Y29864D02*X54852Y32114D01*
X55752Y32489D02*Y30989D01*
X56127Y29489D01*
X56877Y30989D01*
X57627Y29489D01*
X58002Y30989D01*
Y32489D02*Y30989D01*
X60402Y32489D02*X60777Y32114D01*
X59277Y32489D02*X60402D01*
X58902Y32114D02*X59277Y32489D01*
X58902Y32114D02*Y29864D01*
X59277Y29489D01*
X60402D01*
X60777Y29864D01*
Y30614D02*Y29864D01*
X60402Y30989D02*X60777Y30614D01*
X59652Y30989D02*X60402D01*
X64400Y32043D02*X64775Y32418D01*
X65900D01*
X66275Y32043D01*
Y31293D01*
X64400Y29418D02*X66275Y31293D01*
X64400Y29418D02*X66275D01*
X67175Y29793D02*X69425Y32043D01*
X71825Y32418D02*X72200Y32043D01*
X70700Y32418D02*X71825D01*
X70325Y32043D02*X70700Y32418D01*
X70325Y32043D02*Y29793D01*
X70700Y29418D01*
X71825D01*
X72200Y29793D01*
Y30543D02*Y29793D01*
X71825Y30918D02*X72200Y30543D01*
X71075Y30918D02*X71825D01*
X29111Y78077D02*X28511Y78677D01*
X31511D01*
Y79202D02*Y78077D01*
X31136Y80102D02*X28886Y82352D01*
X28511Y83252D02*X30011D01*
X31511Y83627D01*
X30011Y84377D01*
X31511Y85127D01*
X30011Y85502D01*
X28511D02*X30011D01*
X28511Y87902D02*X28886Y88277D01*
X28511Y87902D02*Y86777D01*
X28886Y86402D02*X28511Y86777D01*
X28886Y86402D02*X31136D01*
X31511Y86777D01*
Y87902D02*Y86777D01*
Y87902D02*X31136Y88277D01*
X30386D02*X31136D01*
X30011Y87902D02*X30386Y88277D01*
X30011Y87902D02*Y87152D01*
X36839Y78136D02*X36464Y78511D01*
Y79261D02*Y78511D01*
Y79261D02*X36839Y79636D01*
X39464Y79261D02*X39089Y79636D01*
X39464Y79261D02*Y78511D01*
X39089Y78136D02*X39464Y78511D01*
X37814Y79261D02*Y78511D01*
X36839Y79636D02*X37439D01*
X38189D02*X39089D01*
X38189D02*X37814Y79261D01*
X37439Y79636D02*X37814Y79261D01*
X39089Y80536D02*X36839Y82786D01*
X36464Y83686D02*X37964D01*
X39464Y84061D01*
X37964Y84811D01*
X39464Y85561D01*
X37964Y85936D01*
X36464D02*X37964D01*
X36839Y86836D02*X39089D01*
X36839D02*X36464Y87211D01*
Y87961D02*Y87211D01*
Y87961D02*X36839Y88336D01*
X39089D01*
X39464Y87961D02*X39089Y88336D01*
X39464Y87961D02*Y87211D01*
X39089Y86836D02*X39464Y87211D01*
X43728Y79636D02*Y78136D01*
X45228D01*
X44853Y78511D01*
Y79261D02*Y78511D01*
Y79261D02*X45228Y79636D01*
X46353D01*
X46728Y79261D02*X46353Y79636D01*
X46728Y79261D02*Y78511D01*
X46353Y78136D02*X46728Y78511D01*
X46353Y80536D02*X44103Y82786D01*
X43728Y83686D02*X45228D01*
X46728Y84061D01*
X45228Y84811D01*
X46728Y85561D01*
X45228Y85936D01*
X43728D02*X45228D01*
X46728Y88336D02*Y86836D01*
Y88336D02*X46353Y88711D01*
X45453D02*X46353D01*
X45078Y88336D02*X45453Y88711D01*
X45078Y88336D02*Y87211D01*
X43728D02*X46728D01*
X43728Y88336D02*Y86836D01*
Y88336D02*X44103Y88711D01*
X44703D01*
X45078Y88336D02*X44703Y88711D01*
X43728Y89611D02*X46353D01*
X46728Y89986D01*
X54779Y78511D02*X51779Y80011D01*
Y78136D01*
X54404Y80911D02*X52154Y83161D01*
X51779Y84061D02*X53279D01*
X54779Y84436D01*
X53279Y85186D01*
X54779Y85936D01*
X53279Y86311D01*
X51779D02*X53279D01*
X54779Y88711D02*Y87211D01*
Y88711D02*X54404Y89086D01*
X53504D02*X54404D01*
X53129Y88711D02*X53504Y89086D01*
X53129Y88711D02*Y87586D01*
X51779D02*X54779D01*
X51779Y88711D02*Y87211D01*
Y88711D02*X52154Y89086D01*
X52754D01*
X53129Y88711D02*X52754Y89086D01*
X53654Y90361D02*X54779D01*
X53654D02*X53279Y90736D01*
Y91486D02*Y90736D01*
Y89986D02*X53654Y90361D01*
G54D103*X84000Y67500D02*Y66000D01*
X84500Y65500D02*X84000Y66000D01*
X84500Y65500D02*X85500D01*
X86000Y66000D01*
Y67500D02*Y66000D01*
X84500Y68700D02*X85500D01*
X84500D02*X84000Y69200D01*
Y70200D02*Y69200D01*
Y70200D02*X84500Y70700D01*
X85500D01*
X86000Y70200D02*X85500Y70700D01*
X86000Y70200D02*Y69200D01*
X85500Y68700D02*X86000Y69200D01*
X82000Y71900D02*X85500D01*
X86000Y72400D01*
X84500Y73400D02*X85500D01*
X84500D02*X84000Y73900D01*
Y74900D02*Y73900D01*
Y74900D02*X84500Y75400D01*
X85500D01*
X86000Y74900D02*X85500Y75400D01*
X86000Y74900D02*Y73900D01*
X85500Y73400D02*X86000Y73900D01*
X84500Y77100D02*X86000D01*
X84500D02*X84000Y77600D01*
Y78600D02*Y77600D01*
Y76600D02*X84500Y77100D01*
X84000Y83600D02*Y82100D01*
X84500Y81600D02*X84000Y82100D01*
X84500Y81600D02*X85500D01*
X86000Y82100D01*
Y83600D02*Y82100D01*
X84500Y84800D02*X85500D01*
X84500D02*X84000Y85300D01*
Y86300D02*Y85300D01*
Y86300D02*X84500Y86800D01*
X85500D01*
X86000Y86300D02*X85500Y86800D01*
X86000Y86300D02*Y85300D01*
X85500Y84800D02*X86000Y85300D01*
X82000Y90000D02*X86000D01*
Y89500D02*X85500Y90000D01*
X86000Y89500D02*Y88500D01*
X85500Y88000D02*X86000Y88500D01*
X84500Y88000D02*X85500D01*
X84500D02*X84000Y88500D01*
Y89500D02*Y88500D01*
Y89500D02*X84500Y90000D01*
G54D104*X83000Y91200D02*X83100D01*
G54D103*X84500D02*X86000D01*
X84500Y92700D02*X86000D01*
X84500D02*X84000Y93200D01*
Y93700D02*Y93200D01*
Y93700D02*X84500Y94200D01*
X86000D01*
X84000Y92200D02*X84500Y92700D01*
X84000Y96900D02*X84500Y97400D01*
X84000Y96900D02*Y95900D01*
X84500Y95400D02*X84000Y95900D01*
X84500Y95400D02*X85500D01*
X86000Y95900D01*
Y96900D02*Y95900D01*
Y96900D02*X85500Y97400D01*
X87000Y95400D02*X87500Y95900D01*
Y96900D02*Y95900D01*
Y96900D02*X87000Y97400D01*
X84000D02*X87000D01*
X85500Y98600D02*X86000D01*
X82000D02*X84500D01*
X77000Y66000D02*Y65000D01*
Y65500D02*X81000D01*
Y66000D02*Y65000D01*
X79500Y67700D02*X81000D01*
X79500D02*X79000Y68200D01*
Y68700D02*Y68200D01*
Y68700D02*X79500Y69200D01*
X81000D01*
X79000Y67200D02*X79500Y67700D01*
X79000Y72400D02*Y70900D01*
X79500Y70400D02*X79000Y70900D01*
X79500Y70400D02*X80500D01*
X81000Y70900D01*
Y72400D02*Y70900D01*
X79500Y73600D02*X80500D01*
X79500D02*X79000Y74100D01*
Y75100D02*Y74100D01*
Y75100D02*X79500Y75600D01*
X80500D01*
X81000Y75100D02*X80500Y75600D01*
X81000Y75100D02*Y74100D01*
X80500Y73600D02*X81000Y74100D01*
X79500Y77300D02*X81000D01*
X79500D02*X79000Y77800D01*
Y78300D02*Y77800D01*
Y78300D02*X79500Y78800D01*
X81000D01*
X79500D02*X79000Y79300D01*
Y79800D02*Y79300D01*
Y79800D02*X79500Y80300D01*
X81000D01*
X79000Y76800D02*X79500Y77300D01*
Y82000D02*X82500D01*
X79000Y81500D02*X79500Y82000D01*
X79000Y82500D01*
Y83500D02*Y82500D01*
Y83500D02*X79500Y84000D01*
X80500D01*
X81000Y83500D02*X80500Y84000D01*
X81000Y83500D02*Y82500D01*
X80500Y82000D02*X81000Y82500D01*
X79000Y86700D02*X79500Y87200D01*
X79000Y86700D02*Y85700D01*
X79500Y85200D02*X79000Y85700D01*
X79500Y85200D02*X80500D01*
X81000Y85700D01*
X79000Y87200D02*X80500D01*
X81000Y87700D01*
Y86700D02*Y85700D01*
Y86700D02*X80500Y87200D01*
X77000Y89400D02*X80500D01*
X81000Y89900D01*
X78500D02*Y88900D01*
G54D104*X78000Y90900D02*X78100D01*
G54D103*X79500D02*X81000D01*
X77000Y91900D02*X81000D01*
X80500D02*X81000Y92400D01*
Y93400D02*Y92400D01*
Y93400D02*X80500Y93900D01*
X79500D02*X80500D01*
X79000Y93400D02*X79500Y93900D01*
X79000Y93400D02*Y92400D01*
X79500Y91900D02*X79000Y92400D01*
X77000Y95100D02*X80500D01*
X81000Y95600D01*
Y98600D02*Y97100D01*
X80500Y96600D02*X81000Y97100D01*
X79500Y96600D02*X80500D01*
X79500D02*X79000Y97100D01*
Y98100D02*Y97100D01*
Y98100D02*X79500Y98600D01*
X80000D02*Y96600D01*
X79500Y98600D02*X80000D01*
G54D101*X67244Y47520D02*X68031D01*
X65079D02*X65866D01*
Y48701D02*Y46339D01*
X67244Y48504D02*Y46535D01*
X66260Y47520D02*X67244Y48504D01*
Y46535D02*X66260Y47520D01*
X21949Y46461D02*X20965Y47445D01*
X21949Y48429D01*
Y46461D01*
X20571Y48626D02*Y46264D01*
X19783Y47445D02*X20571D01*
X21949D02*X22736D01*
G54D105*X30039Y73543D02*Y66457D01*
X57992Y73543D02*Y66457D01*
G54D101*X22559Y73543D02*X65669D01*
X22559Y66457D02*X65669D01*
X43228Y70000D02*X44803D01*
X44016Y70787D02*Y69213D01*
X75906Y99528D02*Y97559D01*
X73937Y99528D02*X75906D01*
X12126D02*Y97559D01*
Y99528D02*X14094D01*
X75906Y42441D02*Y40472D01*
X73937D02*X75906D01*
X12126Y42441D02*Y40472D01*
X14094D01*
X26890Y75118D02*X25906Y76102D01*
X26890D02*X25906Y75118D01*
G54D106*X6957Y18980D02*Y15043D01*
X10500Y11500D01*
X6957Y19500D02*X11949D01*
X16406Y15437D02*X16012D01*
X11949Y19500D02*X16012Y15437D01*
X21457Y18980D02*Y15043D01*
X25000Y11500D01*
X21457Y19500D02*X26449D01*
X30906Y15437D02*X30512D01*
X26449Y19500D02*X30512Y15437D01*
X35957Y18980D02*Y15043D01*
X39500Y11500D01*
X35957Y19500D02*X40949D01*
X45406Y15437D02*X45012D01*
X40949Y19500D02*X45012Y15437D01*
X50457Y18980D02*Y15043D01*
X54000Y11500D01*
X50457Y19500D02*X55449D01*
X59906Y15437D02*X59512D01*
X55449Y19500D02*X59512Y15437D01*
X64957Y18980D02*Y15043D01*
X68500Y11500D01*
X64957Y19500D02*X69949D01*
X74406Y15437D02*X74012D01*
X69949Y19500D02*X74012Y15437D01*
X79457Y18980D02*Y15043D01*
X83000Y11500D01*
X79457Y19500D02*X84449D01*
X88906Y15437D02*X88512D01*
X84449Y19500D02*X88512Y15437D01*
G54D103*X34286Y97540D02*X31786Y93540D01*
X34286D02*X31786Y97540D01*
X30586Y94340D02*X29786Y93540D01*
Y97540D02*Y93540D01*
X29086Y97540D02*X30586D01*
X27886Y97040D02*X24886Y94040D01*
X21686Y93540D02*X21186Y94040D01*
X21686Y93540D02*X23186D01*
X23686Y94040D02*X23186Y93540D01*
X23686Y97040D02*Y94040D01*
Y97040D02*X23186Y97540D01*
X21686D02*X23186D01*
X21686D02*X21186Y97040D01*
Y96040D01*
X21686Y95540D02*X21186Y96040D01*
X21686Y95540D02*X22686D01*
X18486Y95340D02*X19986D01*
X17986Y97540D02*X19986D01*
Y93540D01*
X17986D02*X19986D01*
X16786Y97540D02*Y93540D01*
X14286Y97540D01*
Y93540D01*
M02*
