<?xml version="1.0" encoding="UTF-8"?>
<svg xmlns="http://www.w3.org/2000/svg" xmlns:xlink="http://www.w3.org/1999/xlink" width="81pt" height="85pt" viewBox="0 0 81 85" version="1.1">
<g id="surface1">
<path style="fill:none;stroke-width:0.006;stroke-linecap:round;stroke-linejoin:miter;stroke:rgb(100%,49.803922%,45.098039%);stroke-opacity:1;stroke-miterlimit:10;" d="M 1.015296 1.264979 L 0.28499 1.264979 " transform="matrix(72,0,0,-72,-5.7654,92.4574)"/>
<path style="fill:none;stroke-width:0.006;stroke-linecap:round;stroke-linejoin:miter;stroke:rgb(100%,49.803922%,45.098039%);stroke-opacity:1;stroke-miterlimit:10;" d="M 1.015025 1.264979 L 1.015025 1.204975 " transform="matrix(72,0,0,-72,-5.7654,92.4574)"/>
<path style="fill:none;stroke-width:0.006;stroke-linecap:round;stroke-linejoin:miter;stroke:rgb(100%,49.803922%,45.098039%);stroke-opacity:1;stroke-miterlimit:10;" d="M 1.015025 1.204975 L 1.18001 1.204975 " transform="matrix(72,0,0,-72,-5.7654,92.4574)"/>
<path style="fill:none;stroke-width:0.006;stroke-linecap:round;stroke-linejoin:miter;stroke:rgb(100%,49.803922%,45.098039%);stroke-opacity:1;stroke-miterlimit:10;" d="M 1.015025 0.405007 L 1.020016 0.400016 " transform="matrix(72,0,0,-72,-5.7654,92.4574)"/>
<path style="fill:none;stroke-width:0.006;stroke-linecap:round;stroke-linejoin:miter;stroke:rgb(100%,49.803922%,45.098039%);stroke-opacity:1;stroke-miterlimit:10;" d="M 1.020016 0.400016 L 1.18001 0.400016 " transform="matrix(72,0,0,-72,-5.7654,92.4574)"/>
<path style="fill:none;stroke-width:0.006;stroke-linecap:round;stroke-linejoin:miter;stroke:rgb(100%,49.803922%,45.098039%);stroke-opacity:1;stroke-miterlimit:10;" d="M 1.18001 0.400016 L 1.18001 0.134988 " transform="matrix(72,0,0,-72,-5.7654,92.4574)"/>
<path style="fill:none;stroke-width:0.006;stroke-linecap:round;stroke-linejoin:miter;stroke:rgb(100%,49.803922%,45.098039%);stroke-opacity:1;stroke-miterlimit:10;" d="M 1.015025 0.405007 L 1.015025 0.940001 " transform="matrix(72,0,0,-72,-5.7654,92.4574)"/>
<path style="fill:none;stroke-width:0.006;stroke-linecap:round;stroke-linejoin:miter;stroke:rgb(100%,49.803922%,45.098039%);stroke-opacity:1;stroke-miterlimit:10;" d="M 1.18001 1.204975 L 1.18001 0.940001 " transform="matrix(72,0,0,-72,-5.7654,92.4574)"/>
<path style="fill:none;stroke-width:0.006;stroke-linecap:round;stroke-linejoin:miter;stroke:rgb(100%,49.803922%,45.098039%);stroke-opacity:1;stroke-miterlimit:10;" d="M 1.18001 0.940001 L 1.015025 0.940001 " transform="matrix(72,0,0,-72,-5.7654,92.4574)"/>
<path style="fill:none;stroke-width:0.006;stroke-linecap:round;stroke-linejoin:miter;stroke:rgb(100%,49.803922%,45.098039%);stroke-opacity:1;stroke-miterlimit:10;" d="M 1.18001 0.134988 L 0.990014 0.134988 " transform="matrix(72,0,0,-72,-5.7654,92.4574)"/>
<path style="fill:none;stroke-width:0.006;stroke-linecap:round;stroke-linejoin:miter;stroke:rgb(100%,49.803922%,45.098039%);stroke-opacity:1;stroke-miterlimit:10;" d="M 0.279999 0.400016 L 0.28499 0.405007 " transform="matrix(72,0,0,-72,-5.7654,92.4574)"/>
<path style="fill:none;stroke-width:0.006;stroke-linecap:round;stroke-linejoin:miter;stroke:rgb(100%,49.803922%,45.098039%);stroke-opacity:1;stroke-miterlimit:10;" d="M 0.279999 0.400016 L 0.110023 0.400016 " transform="matrix(72,0,0,-72,-5.7654,92.4574)"/>
<path style="fill:none;stroke-width:0.006;stroke-linecap:round;stroke-linejoin:miter;stroke:rgb(100%,49.803922%,45.098039%);stroke-opacity:1;stroke-miterlimit:10;" d="M 0.110023 0.400016 L 0.110023 0.134988 " transform="matrix(72,0,0,-72,-5.7654,92.4574)"/>
<path style="fill:none;stroke-width:0.006;stroke-linecap:round;stroke-linejoin:miter;stroke:rgb(100%,49.803922%,45.098039%);stroke-opacity:1;stroke-miterlimit:10;" d="M 0.110023 0.134988 L 0.300019 0.134988 " transform="matrix(72,0,0,-72,-5.7654,92.4574)"/>
<path style="fill:none;stroke-width:0.006;stroke-linecap:round;stroke-linejoin:miter;stroke:rgb(100%,49.803922%,45.098039%);stroke-opacity:1;stroke-miterlimit:10;" d="M 0.300019 0.134988 L 0.300019 0.280007 " transform="matrix(72,0,0,-72,-5.7654,92.4574)"/>
<path style="fill:none;stroke-width:0.006;stroke-linecap:round;stroke-linejoin:miter;stroke:rgb(100%,49.803922%,45.098039%);stroke-opacity:1;stroke-miterlimit:10;" d="M 0.990014 0.134988 L 0.990014 0.280007 " transform="matrix(72,0,0,-72,-5.7654,92.4574)"/>
<path style="fill:none;stroke-width:0.006;stroke-linecap:round;stroke-linejoin:miter;stroke:rgb(100%,49.803922%,45.098039%);stroke-opacity:1;stroke-miterlimit:10;" d="M 0.990014 0.280007 L 0.300019 0.280007 " transform="matrix(72,0,0,-72,-5.7654,92.4574)"/>
<path style="fill:none;stroke-width:0.006;stroke-linecap:round;stroke-linejoin:miter;stroke:rgb(100%,49.803922%,45.098039%);stroke-opacity:1;stroke-miterlimit:10;" d="M 0.28499 1.264979 L 0.28499 1.204975 " transform="matrix(72,0,0,-72,-5.7654,92.4574)"/>
<path style="fill:none;stroke-width:0.006;stroke-linecap:round;stroke-linejoin:miter;stroke:rgb(100%,49.803922%,45.098039%);stroke-opacity:1;stroke-miterlimit:10;" d="M 0.110023 1.204975 L 0.110023 0.940001 " transform="matrix(72,0,0,-72,-5.7654,92.4574)"/>
<path style="fill:none;stroke-width:0.006;stroke-linecap:round;stroke-linejoin:miter;stroke:rgb(100%,49.803922%,45.098039%);stroke-opacity:1;stroke-miterlimit:10;" d="M 0.110023 0.940001 L 0.28499 0.940001 " transform="matrix(72,0,0,-72,-5.7654,92.4574)"/>
<path style="fill:none;stroke-width:0.006;stroke-linecap:round;stroke-linejoin:miter;stroke:rgb(100%,49.803922%,45.098039%);stroke-opacity:1;stroke-miterlimit:10;" d="M 0.28499 0.940001 L 0.28499 0.405007 " transform="matrix(72,0,0,-72,-5.7654,92.4574)"/>
<path style="fill:none;stroke-width:0.006;stroke-linecap:round;stroke-linejoin:miter;stroke:rgb(100%,49.803922%,45.098039%);stroke-opacity:1;stroke-miterlimit:10;" d="M 0.110023 1.204975 L 0.28499 1.204975 " transform="matrix(72,0,0,-72,-5.7654,92.4574)"/>
<path style=" stroke:none;fill-rule:evenodd;fill:rgb(45.098039%,45.098039%,87.058824%);fill-opacity:1;" d="M 34.195312 17.21875 C 34.195312 16.738281 33.472656 16.738281 33.472656 17.21875 C 33.472656 17.699219 34.195312 17.699219 34.195312 17.21875 "/>
<path style=" stroke:none;fill-rule:evenodd;fill:rgb(45.098039%,45.098039%,87.058824%);fill-opacity:1;" d="M 39.59375 13.617188 C 39.59375 13.136719 38.875 13.136719 38.875 13.617188 C 38.875 14.097656 39.59375 14.097656 39.59375 13.617188 "/>
<path style=" stroke:none;fill-rule:evenodd;fill:rgb(45.098039%,45.098039%,87.058824%);fill-opacity:1;" d="M 20.621094 19.378906 C 20.621094 18.753906 19.6875 18.753906 19.6875 19.378906 C 19.6875 20 20.621094 20 20.621094 19.378906 "/>
<path style=" stroke:none;fill-rule:evenodd;fill:rgb(45.098039%,45.098039%,87.058824%);fill-opacity:1;" d="M 25.300781 19.378906 C 25.300781 18.753906 24.367188 18.753906 24.367188 19.378906 C 24.367188 20 25.300781 20 25.300781 19.378906 "/>
<path style=" stroke:none;fill-rule:evenodd;fill:rgb(45.098039%,45.098039%,87.058824%);fill-opacity:1;" d="M 33.941406 44.578125 C 33.941406 43.953125 33.007812 43.953125 33.007812 44.578125 C 33.007812 45.203125 33.941406 45.203125 33.941406 44.578125 "/>
<path style=" stroke:none;fill-rule:evenodd;fill:rgb(45.098039%,45.098039%,87.058824%);fill-opacity:1;" d="M 36.101562 32.335938 C 36.101562 31.714844 35.167969 31.714844 35.167969 32.335938 C 35.167969 32.960938 36.101562 32.960938 36.101562 32.335938 "/>
<path style=" stroke:none;fill-rule:evenodd;fill:rgb(45.098039%,45.098039%,87.058824%);fill-opacity:1;" d="M 39.34375 20.097656 C 39.34375 19.472656 38.40625 19.472656 38.40625 20.097656 C 38.40625 20.722656 39.34375 20.722656 39.34375 20.097656 "/>
<path style=" stroke:none;fill-rule:evenodd;fill:rgb(45.098039%,45.098039%,87.058824%);fill-opacity:1;" d="M 39.34375 34.855469 C 39.34375 34.234375 38.40625 34.234375 38.40625 34.855469 C 38.40625 35.480469 39.34375 35.480469 39.34375 34.855469 "/>
<path style=" stroke:none;fill-rule:evenodd;fill:rgb(45.098039%,45.098039%,87.058824%);fill-opacity:1;" d="M 39.34375 44.9375 C 39.34375 44.3125 38.40625 44.3125 38.40625 44.9375 C 38.40625 45.5625 39.34375 45.5625 39.34375 44.9375 "/>
<path style=" stroke:none;fill-rule:evenodd;fill:rgb(45.098039%,45.098039%,87.058824%);fill-opacity:1;" d="M 43.300781 33.417969 C 43.300781 32.792969 42.367188 32.792969 42.367188 33.417969 C 42.367188 34.042969 43.300781 34.042969 43.300781 33.417969 "/>
<path style=" stroke:none;fill-rule:evenodd;fill:rgb(45.098039%,45.098039%,87.058824%);fill-opacity:1;" d="M 43.300781 44.9375 C 43.300781 44.3125 42.367188 44.3125 42.367188 44.9375 C 42.367188 45.5625 43.300781 45.5625 43.300781 44.9375 "/>
<path style=" stroke:none;fill-rule:evenodd;fill:rgb(45.098039%,45.098039%,87.058824%);fill-opacity:1;" d="M 47.621094 35.578125 C 47.621094 34.953125 46.6875 34.953125 46.6875 35.578125 C 46.6875 36.203125 47.621094 36.203125 47.621094 35.578125 "/>
<path style=" stroke:none;fill-rule:evenodd;fill:rgb(45.098039%,45.098039%,87.058824%);fill-opacity:1;" d="M 47.621094 44.578125 C 47.621094 43.953125 46.6875 43.953125 46.6875 44.578125 C 46.6875 45.203125 47.621094 45.203125 47.621094 44.578125 "/>
<path style=" stroke:none;fill-rule:evenodd;fill:rgb(45.098039%,45.098039%,87.058824%);fill-opacity:1;" d="M 51.941406 32.699219 C 51.941406 32.074219 51.007812 32.074219 51.007812 32.699219 C 51.007812 33.320312 51.941406 33.320312 51.941406 32.699219 "/>
<path style=" stroke:none;fill-rule:evenodd;fill:rgb(45.098039%,45.098039%,87.058824%);fill-opacity:1;" d="M 61.664062 19.738281 C 61.664062 19.113281 60.726562 19.113281 60.726562 19.738281 C 60.726562 20.363281 61.664062 20.363281 61.664062 19.738281 "/>
<path style=" stroke:none;fill-rule:evenodd;fill:rgb(45.098039%,45.098039%,87.058824%);fill-opacity:1;" d="M 13.609375 12.582031 C 13.609375 11.621094 12.167969 11.621094 12.167969 12.582031 C 12.167969 13.539062 13.609375 13.539062 13.609375 12.582031 "/>
<path style=" stroke:none;fill-rule:evenodd;fill:rgb(45.098039%,45.098039%,87.058824%);fill-opacity:1;" d="M 13.609375 75.21875 C 13.609375 74.261719 12.167969 74.261719 12.167969 75.21875 C 12.167969 76.179688 13.609375 76.179688 13.609375 75.21875 "/>
<path style=" stroke:none;fill-rule:evenodd;fill:rgb(45.098039%,45.098039%,87.058824%);fill-opacity:1;" d="M 28.011719 60.820312 C 28.011719 59.859375 26.570312 59.859375 26.570312 60.820312 C 26.570312 61.78125 28.011719 61.78125 28.011719 60.820312 "/>
<path style=" stroke:none;fill-rule:evenodd;fill:rgb(45.098039%,45.098039%,87.058824%);fill-opacity:1;" d="M 39.53125 59.019531 C 39.53125 58.0625 38.089844 58.0625 38.089844 59.019531 C 38.089844 59.980469 39.53125 59.980469 39.53125 59.019531 "/>
<path style=" stroke:none;fill-rule:evenodd;fill:rgb(45.098039%,45.098039%,87.058824%);fill-opacity:1;" d="M 51.050781 59.019531 C 51.050781 58.0625 49.609375 58.0625 49.609375 59.019531 C 49.609375 59.980469 51.050781 59.980469 51.050781 59.019531 "/>
<path style=" stroke:none;fill-rule:evenodd;fill:rgb(45.098039%,45.098039%,87.058824%);fill-opacity:1;" d="M 62.570312 60.820312 C 62.570312 59.859375 61.128906 59.859375 61.128906 60.820312 C 61.128906 61.78125 62.570312 61.78125 62.570312 60.820312 "/>
<path style=" stroke:none;fill-rule:evenodd;fill:rgb(45.098039%,45.098039%,87.058824%);fill-opacity:1;" d="M 76.96875 12.582031 C 76.96875 11.621094 75.53125 11.621094 75.53125 12.582031 C 75.53125 13.539062 76.96875 13.539062 76.96875 12.582031 "/>
<path style=" stroke:none;fill-rule:evenodd;fill:rgb(45.098039%,45.098039%,87.058824%);fill-opacity:1;" d="M 76.96875 75.21875 C 76.96875 74.261719 75.53125 74.261719 75.53125 75.21875 C 75.53125 76.179688 76.96875 76.179688 76.96875 75.21875 "/>
<path style=" stroke:none;fill-rule:evenodd;fill:rgb(45.098039%,45.098039%,87.058824%);fill-opacity:1;" d="M 11.414062 10.3125 C 11.414062 8.871094 9.253906 8.871094 9.253906 10.3125 C 9.253906 11.753906 11.414062 11.753906 11.414062 10.3125 "/>
<path style=" stroke:none;fill-rule:evenodd;fill:rgb(45.098039%,45.098039%,87.058824%);fill-opacity:1;" d="M 11.414062 72.953125 C 11.414062 71.511719 9.253906 71.511719 9.253906 72.953125 C 9.253906 74.394531 11.414062 74.394531 11.414062 72.953125 "/>
<path style=" stroke:none;fill-rule:evenodd;fill:rgb(45.098039%,45.098039%,87.058824%);fill-opacity:1;" d="M 25.8125 58.550781 C 25.8125 57.113281 23.652344 57.113281 23.652344 58.550781 C 23.652344 59.992188 25.8125 59.992188 25.8125 58.550781 "/>
<path style=" stroke:none;fill-rule:evenodd;fill:rgb(45.098039%,45.098039%,87.058824%);fill-opacity:1;" d="M 37.332031 56.753906 C 37.332031 55.3125 35.171875 55.3125 35.171875 56.753906 C 35.171875 58.191406 37.332031 58.191406 37.332031 56.753906 "/>
<path style=" stroke:none;fill-rule:evenodd;fill:rgb(45.098039%,45.098039%,87.058824%);fill-opacity:1;" d="M 48.855469 56.753906 C 48.855469 55.3125 46.695312 55.3125 46.695312 56.753906 C 46.695312 58.191406 48.855469 58.191406 48.855469 56.753906 "/>
<path style=" stroke:none;fill-rule:evenodd;fill:rgb(45.098039%,45.098039%,87.058824%);fill-opacity:1;" d="M 60.375 58.550781 C 60.375 57.113281 58.214844 57.113281 58.214844 58.550781 C 58.214844 59.992188 60.375 59.992188 60.375 58.550781 "/>
<path style=" stroke:none;fill-rule:evenodd;fill:rgb(45.098039%,45.098039%,87.058824%);fill-opacity:1;" d="M 74.773438 10.3125 C 74.773438 8.871094 72.613281 8.871094 72.613281 10.3125 C 72.613281 11.753906 74.773438 11.753906 74.773438 10.3125 "/>
<path style=" stroke:none;fill-rule:evenodd;fill:rgb(45.098039%,45.098039%,87.058824%);fill-opacity:1;" d="M 74.773438 72.953125 C 74.773438 71.511719 72.613281 71.511719 72.613281 72.953125 C 72.613281 74.394531 74.773438 74.394531 74.773438 72.953125 "/>
<path style=" stroke:none;fill-rule:evenodd;fill:rgb(45.098039%,45.098039%,87.058824%);fill-opacity:1;" d="M 22.105469 41.324219 C 22.105469 39.644531 19.585938 39.644531 19.585938 41.324219 C 19.585938 43.003906 22.105469 43.003906 22.105469 41.324219 "/>
<path style=" stroke:none;fill-rule:evenodd;fill:rgb(45.098039%,45.098039%,87.058824%);fill-opacity:1;" d="M 29.335938 41.324219 C 29.335938 39.644531 26.816406 39.644531 26.816406 41.324219 C 26.816406 43.003906 29.335938 43.003906 29.335938 41.324219 "/>
<path style=" stroke:none;fill-rule:evenodd;fill:rgb(45.098039%,45.098039%,87.058824%);fill-opacity:1;" d="M 31.824219 22.589844 C 31.824219 20.910156 29.304688 20.910156 29.304688 22.589844 C 29.304688 24.269531 31.824219 24.269531 31.824219 22.589844 "/>
<path style=" stroke:none;fill-rule:evenodd;fill:rgb(45.098039%,45.098039%,87.058824%);fill-opacity:1;" d="M 34.71875 27.6875 C 34.71875 26.007812 32.199219 26.007812 32.199219 27.6875 C 32.199219 29.367188 34.71875 29.367188 34.71875 27.6875 "/>
<path style=" stroke:none;fill-rule:evenodd;fill:rgb(45.098039%,45.098039%,87.058824%);fill-opacity:1;" d="M 37.605469 22.589844 C 37.605469 20.910156 35.085938 20.910156 35.085938 22.589844 C 35.085938 24.269531 37.605469 24.269531 37.605469 22.589844 "/>
<path style=" stroke:none;fill-rule:evenodd;fill:rgb(45.098039%,45.098039%,87.058824%);fill-opacity:1;" d="M 40.5 27.6875 C 40.5 26.007812 37.980469 26.007812 37.980469 27.6875 C 37.980469 29.367188 40.5 29.367188 40.5 27.6875 "/>
<path style=" stroke:none;fill-rule:evenodd;fill:rgb(45.098039%,45.098039%,87.058824%);fill-opacity:1;" d="M 43.390625 22.589844 C 43.390625 20.910156 40.867188 20.910156 40.867188 22.589844 C 40.867188 24.269531 43.390625 24.269531 43.390625 22.589844 "/>
<path style=" stroke:none;fill-rule:evenodd;fill:rgb(45.098039%,45.098039%,87.058824%);fill-opacity:1;" d="M 46.285156 27.6875 C 46.285156 26.007812 43.761719 26.007812 43.761719 27.6875 C 43.761719 29.367188 46.285156 29.367188 46.285156 27.6875 "/>
<path style=" stroke:none;fill-rule:evenodd;fill:rgb(45.098039%,45.098039%,87.058824%);fill-opacity:1;" d="M 49.179688 22.589844 C 49.179688 20.910156 46.65625 20.910156 46.65625 22.589844 C 46.65625 24.269531 49.179688 24.269531 49.179688 22.589844 "/>
<path style=" stroke:none;fill-rule:evenodd;fill:rgb(45.098039%,45.098039%,87.058824%);fill-opacity:1;" d="M 52.066406 27.6875 C 52.066406 26.007812 49.546875 26.007812 49.546875 27.6875 C 49.546875 29.367188 52.066406 29.367188 52.066406 27.6875 "/>
<path style=" stroke:none;fill-rule:evenodd;fill:rgb(45.098039%,45.098039%,87.058824%);fill-opacity:1;" d="M 54.5625 41.324219 C 54.5625 39.644531 52.042969 39.644531 52.042969 41.324219 C 52.042969 43.003906 54.5625 43.003906 54.5625 41.324219 "/>
<path style=" stroke:none;fill-rule:evenodd;fill:rgb(45.098039%,45.098039%,87.058824%);fill-opacity:1;" d="M 61.785156 41.324219 C 61.785156 39.644531 59.265625 39.644531 59.265625 41.324219 C 59.265625 43.003906 61.785156 43.003906 61.785156 41.324219 "/>
<path style=" stroke:none;fill-rule:evenodd;fill:rgb(45.098039%,45.098039%,87.058824%);fill-opacity:1;" d="M 7.851562 10.03125 C 7.851562 7.679688 4.320312 7.679688 4.320312 10.03125 C 4.320312 12.382812 7.851562 12.382812 7.851562 10.03125 "/>
<path style=" stroke:none;fill-rule:evenodd;fill:rgb(45.098039%,45.098039%,87.058824%);fill-opacity:1;" d="M 7.851562 72.671875 C 7.851562 70.320312 4.320312 70.320312 4.320312 72.671875 C 4.320312 75.023438 7.851562 75.023438 7.851562 72.671875 "/>
<path style=" stroke:none;fill-rule:evenodd;fill:rgb(45.098039%,45.098039%,87.058824%);fill-opacity:1;" d="M 22.25 58.273438 C 22.25 55.917969 18.722656 55.917969 18.722656 58.273438 C 18.722656 60.625 22.25 60.625 22.25 58.273438 "/>
<path style=" stroke:none;fill-rule:evenodd;fill:rgb(45.098039%,45.098039%,87.058824%);fill-opacity:1;" d="M 33.769531 56.472656 C 33.769531 54.121094 30.242188 54.121094 30.242188 56.472656 C 30.242188 58.824219 33.769531 58.824219 33.769531 56.472656 "/>
<path style=" stroke:none;fill-rule:evenodd;fill:rgb(45.098039%,45.098039%,87.058824%);fill-opacity:1;" d="M 45.289062 56.472656 C 45.289062 54.121094 41.761719 54.121094 41.761719 56.472656 C 41.761719 58.824219 45.289062 58.824219 45.289062 56.472656 "/>
<path style=" stroke:none;fill-rule:evenodd;fill:rgb(45.098039%,45.098039%,87.058824%);fill-opacity:1;" d="M 56.808594 58.273438 C 56.808594 55.917969 53.28125 55.917969 53.28125 58.273438 C 53.28125 60.625 56.808594 60.625 56.808594 58.273438 "/>
<path style=" stroke:none;fill-rule:evenodd;fill:rgb(45.098039%,45.098039%,87.058824%);fill-opacity:1;" d="M 71.210938 10.03125 C 71.210938 7.679688 67.683594 7.679688 67.683594 10.03125 C 67.683594 12.382812 71.210938 12.382812 71.210938 10.03125 "/>
<path style=" stroke:none;fill-rule:evenodd;fill:rgb(45.098039%,45.098039%,87.058824%);fill-opacity:1;" d="M 71.210938 72.671875 C 71.210938 70.320312 67.683594 70.320312 67.683594 72.671875 C 67.683594 75.023438 71.210938 75.023438 71.210938 72.671875 "/>
<path style=" stroke:none;fill-rule:evenodd;fill:rgb(45.098039%,45.098039%,87.058824%);fill-opacity:1;" d="M 24.382812 15.417969 C 24.382812 12.96875 20.710938 12.96875 20.710938 15.417969 C 20.710938 17.867188 24.382812 17.867188 24.382812 15.417969 "/>
<path style=" stroke:none;fill-rule:evenodd;fill:rgb(45.098039%,45.098039%,87.058824%);fill-opacity:1;" d="M 60.660156 15.417969 C 60.660156 12.96875 56.988281 12.96875 56.988281 15.417969 C 56.988281 17.867188 60.660156 17.867188 60.660156 15.417969 "/>
<path style=" stroke:none;fill-rule:evenodd;fill:rgb(45.098039%,45.098039%,87.058824%);fill-opacity:1;" d="M 11.480469 15.417969 C 11.480469 11.625 5.789062 11.625 5.789062 15.417969 C 5.789062 19.210938 11.480469 19.210938 11.480469 15.417969 "/>
<path style=" stroke:none;fill-rule:evenodd;fill:rgb(45.098039%,45.098039%,87.058824%);fill-opacity:1;" d="M 11.480469 78.058594 C 11.480469 74.265625 5.789062 74.265625 5.789062 78.058594 C 5.789062 81.847656 11.480469 81.847656 11.480469 78.058594 "/>
<path style=" stroke:none;fill-rule:evenodd;fill:rgb(45.098039%,45.098039%,87.058824%);fill-opacity:1;" d="M 25.878906 63.65625 C 25.878906 59.867188 20.191406 59.867188 20.191406 63.65625 C 20.191406 67.449219 25.878906 67.449219 25.878906 63.65625 "/>
<path style=" stroke:none;fill-rule:evenodd;fill:rgb(45.098039%,45.098039%,87.058824%);fill-opacity:1;" d="M 37.398438 61.855469 C 37.398438 58.066406 31.710938 58.066406 31.710938 61.855469 C 31.710938 65.648438 37.398438 65.648438 37.398438 61.855469 "/>
<path style=" stroke:none;fill-rule:evenodd;fill:rgb(45.098039%,45.098039%,87.058824%);fill-opacity:1;" d="M 48.917969 61.855469 C 48.917969 58.066406 43.230469 58.066406 43.230469 61.855469 C 43.230469 65.648438 48.917969 65.648438 48.917969 61.855469 "/>
<path style=" stroke:none;fill-rule:evenodd;fill:rgb(45.098039%,45.098039%,87.058824%);fill-opacity:1;" d="M 60.4375 63.65625 C 60.4375 59.867188 54.75 59.867188 54.75 63.65625 C 54.75 67.449219 60.4375 67.449219 60.4375 63.65625 "/>
<path style=" stroke:none;fill-rule:evenodd;fill:rgb(45.098039%,45.098039%,87.058824%);fill-opacity:1;" d="M 74.839844 15.417969 C 74.839844 11.625 69.152344 11.625 69.152344 15.417969 C 69.152344 19.210938 74.839844 19.210938 74.839844 15.417969 "/>
<path style=" stroke:none;fill-rule:evenodd;fill:rgb(45.098039%,45.098039%,87.058824%);fill-opacity:1;" d="M 74.839844 78.058594 C 74.839844 74.265625 69.152344 74.265625 69.152344 78.058594 C 69.152344 81.847656 74.839844 81.847656 74.839844 78.058594 "/>
<path style=" stroke:none;fill-rule:evenodd;fill:rgb(45.098039%,45.098039%,87.058824%);fill-opacity:1;" d="M 25.359375 25.136719 C 25.359375 20.625 18.59375 20.625 18.59375 25.136719 C 18.59375 29.648438 25.359375 29.648438 25.359375 25.136719 "/>
<path style=" stroke:none;fill-rule:evenodd;fill:rgb(45.098039%,45.098039%,87.058824%);fill-opacity:1;" d="M 62.777344 25.136719 C 62.777344 20.625 56.011719 20.625 56.011719 25.136719 C 56.011719 29.648438 62.777344 29.648438 62.777344 25.136719 "/>
</g>
</svg>
