<?xml version="1.0" encoding="UTF-8"?>
<svg xmlns="http://www.w3.org/2000/svg" xmlns:xlink="http://www.w3.org/1999/xlink" width="54pt" height="74pt" viewBox="0 0 54 74" version="1.1">
<g id="surface1">
<path style="fill:none;stroke-width:0.006;stroke-linecap:round;stroke-linejoin:miter;stroke:rgb(100%,49.803922%,45.098039%);stroke-opacity:1;stroke-miterlimit:10;" d="M 0.109984 1.179975 L 0.109984 0.199994 " transform="matrix(72,0,0,-72,-6.3954,86.4074)"/>
<path style="fill:none;stroke-width:0.006;stroke-linecap:round;stroke-linejoin:miter;stroke:rgb(100%,49.803922%,45.098039%);stroke-opacity:1;stroke-miterlimit:10;" d="M 0.109984 0.199994 L 0.829982 0.199994 " transform="matrix(72,0,0,-72,-6.3954,86.4074)"/>
<path style="fill:none;stroke-width:0.006;stroke-linecap:round;stroke-linejoin:miter;stroke:rgb(100%,49.803922%,45.098039%);stroke-opacity:1;stroke-miterlimit:10;" d="M 0.829982 0.199994 L 0.829982 1.179975 " transform="matrix(72,0,0,-72,-6.3954,86.4074)"/>
<path style="fill:none;stroke-width:0.006;stroke-linecap:round;stroke-linejoin:miter;stroke:rgb(100%,49.803922%,45.098039%);stroke-opacity:1;stroke-miterlimit:10;" d="M 0.829982 1.179975 L 0.109984 1.179975 " transform="matrix(72,0,0,-72,-6.3954,86.4074)"/>
<path style=" stroke:none;fill-rule:evenodd;fill:rgb(45.098039%,45.098039%,87.058824%);fill-opacity:1;" d="M 20.222656 17.289062 C 20.222656 16.808594 19.503906 16.808594 19.503906 17.289062 C 19.503906 17.765625 20.222656 17.765625 20.222656 17.289062 "/>
<path style=" stroke:none;fill-rule:evenodd;fill:rgb(45.098039%,45.098039%,87.058824%);fill-opacity:1;" d="M 25.261719 20.167969 C 25.261719 19.6875 24.542969 19.6875 24.542969 20.167969 C 24.542969 20.648438 25.261719 20.648438 25.261719 20.167969 "/>
<path style=" stroke:none;fill-rule:evenodd;fill:rgb(45.098039%,45.098039%,87.058824%);fill-opacity:1;" d="M 25.621094 13.6875 C 25.621094 13.207031 24.902344 13.207031 24.902344 13.6875 C 24.902344 14.167969 25.621094 14.167969 25.621094 13.6875 "/>
<path style=" stroke:none;fill-rule:evenodd;fill:rgb(45.098039%,45.098039%,87.058824%);fill-opacity:1;" d="M 14.03125 60.890625 C 14.03125 59.929688 12.589844 59.929688 12.589844 60.890625 C 12.589844 61.851562 14.03125 61.851562 14.03125 60.890625 "/>
<path style=" stroke:none;fill-rule:evenodd;fill:rgb(45.098039%,45.098039%,87.058824%);fill-opacity:1;" d="M 25.550781 59.089844 C 25.550781 58.128906 24.109375 58.128906 24.109375 59.089844 C 24.109375 60.050781 25.550781 60.050781 25.550781 59.089844 "/>
<path style=" stroke:none;fill-rule:evenodd;fill:rgb(45.098039%,45.098039%,87.058824%);fill-opacity:1;" d="M 37.070312 59.089844 C 37.070312 58.128906 35.632812 58.128906 35.632812 59.089844 C 35.632812 60.050781 37.070312 60.050781 37.070312 59.089844 "/>
<path style=" stroke:none;fill-rule:evenodd;fill:rgb(45.098039%,45.098039%,87.058824%);fill-opacity:1;" d="M 48.589844 60.890625 C 48.589844 59.929688 47.152344 59.929688 47.152344 60.890625 C 47.152344 61.851562 48.589844 61.851562 48.589844 60.890625 "/>
<path style=" stroke:none;fill-rule:evenodd;fill:rgb(45.098039%,45.098039%,87.058824%);fill-opacity:1;" d="M 11.84375 58.621094 C 11.84375 57.183594 9.683594 57.183594 9.683594 58.621094 C 9.683594 60.0625 11.84375 60.0625 11.84375 58.621094 "/>
<path style=" stroke:none;fill-rule:evenodd;fill:rgb(45.098039%,45.098039%,87.058824%);fill-opacity:1;" d="M 23.363281 56.824219 C 23.363281 55.382812 21.203125 55.382812 21.203125 56.824219 C 21.203125 58.261719 23.363281 58.261719 23.363281 56.824219 "/>
<path style=" stroke:none;fill-rule:evenodd;fill:rgb(45.098039%,45.098039%,87.058824%);fill-opacity:1;" d="M 34.882812 56.824219 C 34.882812 55.382812 32.722656 55.382812 32.722656 56.824219 C 32.722656 58.261719 34.882812 58.261719 34.882812 56.824219 "/>
<path style=" stroke:none;fill-rule:evenodd;fill:rgb(45.098039%,45.098039%,87.058824%);fill-opacity:1;" d="M 46.402344 58.621094 C 46.402344 57.183594 44.242188 57.183594 44.242188 58.621094 C 44.242188 60.0625 46.402344 60.0625 46.402344 58.621094 "/>
<path style=" stroke:none;fill-rule:evenodd;fill:rgb(45.098039%,45.098039%,87.058824%);fill-opacity:1;" d="M 8.132812 41.394531 C 8.132812 39.714844 5.613281 39.714844 5.613281 41.394531 C 5.613281 43.074219 8.132812 43.074219 8.132812 41.394531 "/>
<path style=" stroke:none;fill-rule:evenodd;fill:rgb(45.098039%,45.098039%,87.058824%);fill-opacity:1;" d="M 15.355469 41.394531 C 15.355469 39.714844 12.835938 39.714844 12.835938 41.394531 C 12.835938 43.074219 15.355469 43.074219 15.355469 41.394531 "/>
<path style=" stroke:none;fill-rule:evenodd;fill:rgb(45.098039%,45.098039%,87.058824%);fill-opacity:1;" d="M 17.855469 22.660156 C 17.855469 20.980469 15.335938 20.980469 15.335938 22.660156 C 15.335938 24.339844 17.855469 24.339844 17.855469 22.660156 "/>
<path style=" stroke:none;fill-rule:evenodd;fill:rgb(45.098039%,45.098039%,87.058824%);fill-opacity:1;" d="M 20.742188 27.757812 C 20.742188 26.078125 18.222656 26.078125 18.222656 27.757812 C 18.222656 29.4375 20.742188 29.4375 20.742188 27.757812 "/>
<path style=" stroke:none;fill-rule:evenodd;fill:rgb(45.098039%,45.098039%,87.058824%);fill-opacity:1;" d="M 23.636719 22.660156 C 23.636719 20.980469 21.117188 20.980469 21.117188 22.660156 C 21.117188 24.339844 23.636719 24.339844 23.636719 22.660156 "/>
<path style=" stroke:none;fill-rule:evenodd;fill:rgb(45.098039%,45.098039%,87.058824%);fill-opacity:1;" d="M 26.53125 27.757812 C 26.53125 26.078125 24.011719 26.078125 24.011719 27.757812 C 24.011719 29.4375 26.53125 29.4375 26.53125 27.757812 "/>
<path style=" stroke:none;fill-rule:evenodd;fill:rgb(45.098039%,45.098039%,87.058824%);fill-opacity:1;" d="M 29.417969 22.660156 C 29.417969 20.980469 26.898438 20.980469 26.898438 22.660156 C 26.898438 24.339844 29.417969 24.339844 29.417969 22.660156 "/>
<path style=" stroke:none;fill-rule:evenodd;fill:rgb(45.098039%,45.098039%,87.058824%);fill-opacity:1;" d="M 32.3125 27.757812 C 32.3125 26.078125 29.792969 26.078125 29.792969 27.757812 C 29.792969 29.4375 32.3125 29.4375 32.3125 27.757812 "/>
<path style=" stroke:none;fill-rule:evenodd;fill:rgb(45.098039%,45.098039%,87.058824%);fill-opacity:1;" d="M 35.199219 22.660156 C 35.199219 20.980469 32.679688 20.980469 32.679688 22.660156 C 32.679688 24.339844 35.199219 24.339844 35.199219 22.660156 "/>
<path style=" stroke:none;fill-rule:evenodd;fill:rgb(45.098039%,45.098039%,87.058824%);fill-opacity:1;" d="M 38.09375 27.757812 C 38.09375 26.078125 35.574219 26.078125 35.574219 27.757812 C 35.574219 29.4375 38.09375 29.4375 38.09375 27.757812 "/>
<path style=" stroke:none;fill-rule:evenodd;fill:rgb(45.098039%,45.098039%,87.058824%);fill-opacity:1;" d="M 40.585938 41.394531 C 40.585938 39.714844 38.066406 39.714844 38.066406 41.394531 C 38.066406 43.074219 40.585938 43.074219 40.585938 41.394531 "/>
<path style=" stroke:none;fill-rule:evenodd;fill:rgb(45.098039%,45.098039%,87.058824%);fill-opacity:1;" d="M 47.8125 41.394531 C 47.8125 39.714844 45.292969 39.714844 45.292969 41.394531 C 45.292969 43.074219 47.8125 43.074219 47.8125 41.394531 "/>
<path style=" stroke:none;fill-rule:evenodd;fill:rgb(45.098039%,45.098039%,87.058824%);fill-opacity:1;" d="M 8.277344 58.34375 C 8.277344 55.988281 4.75 55.988281 4.75 58.34375 C 4.75 60.695312 8.277344 60.695312 8.277344 58.34375 "/>
<path style=" stroke:none;fill-rule:evenodd;fill:rgb(45.098039%,45.098039%,87.058824%);fill-opacity:1;" d="M 19.796875 56.542969 C 19.796875 54.191406 16.269531 54.191406 16.269531 56.542969 C 16.269531 58.894531 19.796875 58.894531 19.796875 56.542969 "/>
<path style=" stroke:none;fill-rule:evenodd;fill:rgb(45.098039%,45.098039%,87.058824%);fill-opacity:1;" d="M 31.316406 56.542969 C 31.316406 54.191406 27.789062 54.191406 27.789062 56.542969 C 27.789062 58.894531 31.316406 58.894531 31.316406 56.542969 "/>
<path style=" stroke:none;fill-rule:evenodd;fill:rgb(45.098039%,45.098039%,87.058824%);fill-opacity:1;" d="M 42.839844 58.34375 C 42.839844 55.988281 39.308594 55.988281 39.308594 58.34375 C 39.308594 60.695312 42.839844 60.695312 42.839844 58.34375 "/>
<path style=" stroke:none;fill-rule:evenodd;fill:rgb(45.098039%,45.098039%,87.058824%);fill-opacity:1;" d="M 10.410156 15.488281 C 10.410156 13.039062 6.738281 13.039062 6.738281 15.488281 C 6.738281 17.933594 10.410156 17.933594 10.410156 15.488281 "/>
<path style=" stroke:none;fill-rule:evenodd;fill:rgb(45.098039%,45.098039%,87.058824%);fill-opacity:1;" d="M 46.691406 15.488281 C 46.691406 13.039062 43.019531 13.039062 43.019531 15.488281 C 43.019531 17.933594 46.691406 17.933594 46.691406 15.488281 "/>
<path style=" stroke:none;fill-rule:evenodd;fill:rgb(45.098039%,45.098039%,87.058824%);fill-opacity:1;" d="M 11.90625 63.726562 C 11.90625 59.933594 6.21875 59.933594 6.21875 63.726562 C 6.21875 67.519531 11.90625 67.519531 11.90625 63.726562 "/>
<path style=" stroke:none;fill-rule:evenodd;fill:rgb(45.098039%,45.098039%,87.058824%);fill-opacity:1;" d="M 23.425781 61.925781 C 23.425781 58.136719 17.738281 58.136719 17.738281 61.925781 C 17.738281 65.71875 23.425781 65.71875 23.425781 61.925781 "/>
<path style=" stroke:none;fill-rule:evenodd;fill:rgb(45.098039%,45.098039%,87.058824%);fill-opacity:1;" d="M 34.945312 61.925781 C 34.945312 58.136719 29.257812 58.136719 29.257812 61.925781 C 29.257812 65.71875 34.945312 65.71875 34.945312 61.925781 "/>
<path style=" stroke:none;fill-rule:evenodd;fill:rgb(45.098039%,45.098039%,87.058824%);fill-opacity:1;" d="M 46.46875 63.726562 C 46.46875 59.933594 40.777344 59.933594 40.777344 63.726562 C 40.777344 67.519531 46.46875 67.519531 46.46875 63.726562 "/>
<path style=" stroke:none;fill-rule:evenodd;fill:rgb(45.098039%,45.098039%,87.058824%);fill-opacity:1;" d="M 11.386719 25.207031 C 11.386719 20.695312 4.621094 20.695312 4.621094 25.207031 C 4.621094 29.71875 11.386719 29.71875 11.386719 25.207031 "/>
<path style=" stroke:none;fill-rule:evenodd;fill:rgb(45.098039%,45.098039%,87.058824%);fill-opacity:1;" d="M 48.808594 25.207031 C 48.808594 20.695312 42.039062 20.695312 42.039062 25.207031 C 42.039062 29.71875 48.808594 29.71875 48.808594 25.207031 "/>
</g>
</svg>
