G04 This is an RS-274x file exported by *
G04 gerbv version 2.7.0 *
G04 More information is available about gerbv at *
G04 http://gerbv.geda-project.org/ *
G04 --End of header info--*
%MOIN*%
%FSLAX36Y36*%
%IPPOS*%
G04 --Define apertures--*
%ADD10C,0.0080*%
%ADD11C,0.0060*%
%ADD12C,0.0040*%
%ADD13C,0.0001*%
%ADD14C,0.0250*%
%ADD15C,0.0140*%
%ADD16C,0.0945*%
%ADD17C,0.0669*%
%ADD18C,0.0472*%
%ADD19C,0.0394*%
%ADD20C,0.1102*%
%ADD21C,0.0512*%
%ADD22C,0.0230*%
%ADD23C,0.0200*%
%ADD24C,0.0130*%
%ADD25C,0.0100*%
%ADD26C,0.0787*%
%ADD27C,0.0492*%
%ADD28C,0.0295*%
%ADD29C,0.0197*%
%ADD30C,0.0354*%
%ADD31C,0.1005*%
%ADD32C,0.0729*%
%ADD33C,0.0532*%
%ADD34C,0.0454*%
%ADD35C,0.1162*%
%ADD36C,0.0572*%
%ADD37C,0.0790*%
%ADD38C,0.0490*%
%ADD39C,0.0300*%
%ADD40C,0.0510*%
%ADD41C,0.0940*%
%ADD42C,0.0350*%
G04 --Start main section--*
G54D10*
G01X0585640Y1092450D02*
G01X0593500Y1092450D01*
G01X0585640Y1147550D02*
G01X0593500Y1147550D01*
G54D11*
G01X0783000Y1006000D02*
G01X0791000Y1014000D01*
G01X0783000Y1006000D02*
G01X0783000Y0971000D01*
G01X0790000Y0964000D02*
G01X0783000Y0971000D01*
G01X0823000Y0972000D02*
G01X0816000Y0965000D01*
G01X0823000Y1007000D02*
G01X0823000Y0972000D01*
G01X0816000Y1014000D02*
G01X0823000Y1007000D01*
G01X0696310Y1072000D02*
G01X0704310Y1064000D01*
G01X0661310Y1072000D02*
G01X0696310Y1072000D01*
G01X0654310Y1065000D02*
G01X0661310Y1072000D01*
G01X0662310Y1032000D02*
G01X0655310Y1039000D01*
G01X0662310Y1032000D02*
G01X0697310Y1032000D01*
G01X0704310Y1039000D02*
G01X0697310Y1032000D01*
G54D12*
G01X0558070Y1098500D02*
G01X0578070Y1098500D01*
G01X0578070Y1098500D02*
G01X0583070Y1103500D01*
G01X0583070Y1103500D02*
G01X0583070Y1113500D01*
G01X0578070Y1118500D02*
G01X0583070Y1113500D01*
G01X0563070Y1118500D02*
G01X0578070Y1118500D01*
G01X0563070Y1098500D02*
G01X0563070Y1138500D01*
G01X0571070Y1118500D02*
G01X0583070Y1138500D01*
G01X0595070Y1106500D02*
G01X0603070Y1098500D01*
G01X0603070Y1098500D02*
G01X0603070Y1138500D01*
G01X0595070Y1138500D02*
G01X0610070Y1138500D01*
G01X0000000Y0000000D02*
G54D13*
G36*
G01X0850460Y1072000D02*
G01X0857710Y1072000D01*
G01X0857620Y1070040D01*
G01X0857780Y1066540D01*
G01X0858240Y1063070D01*
G01X0859010Y1059650D01*
G01X0860080Y1056320D01*
G01X0861440Y1053090D01*
G01X0863090Y1050000D01*
G01X0864990Y1047060D01*
G01X0865300Y1046690D01*
G01X0865660Y1046380D01*
G01X0866070Y1046130D01*
G01X0866500Y1045940D01*
G01X0866970Y1045830D01*
G01X0867440Y1045780D01*
G01X0867920Y1045820D01*
G01X0868380Y1045930D01*
G01X0868830Y1046110D01*
G01X0869240Y1046350D01*
G01X0869600Y1046660D01*
G01X0869910Y1047020D01*
G01X0870170Y1047430D01*
G01X0870350Y1047870D01*
G01X0870470Y1048330D01*
G01X0870510Y1048800D01*
G01X0870470Y1049280D01*
G01X0870370Y1049750D01*
G01X0870190Y1050190D01*
G01X0869930Y1050590D01*
G01X0868290Y1053060D01*
G01X0866900Y1055680D01*
G01X0865750Y1058410D01*
G01X0864840Y1061240D01*
G01X0864190Y1064130D01*
G01X0863790Y1067080D01*
G01X0863660Y1070040D01*
G01X0863750Y1072000D01*
G01X0876780Y1072000D01*
G01X0884130Y1064650D01*
G01X0884130Y1039240D01*
G01X0882770Y1039810D01*
G01X0880150Y1041200D01*
G01X0877660Y1042820D01*
G01X0877260Y1043070D01*
G01X0876820Y1043250D01*
G01X0876360Y1043360D01*
G01X0875890Y1043390D01*
G01X0875420Y1043350D01*
G01X0874960Y1043230D01*
G01X0874530Y1043050D01*
G01X0874130Y1042800D01*
G01X0873770Y1042490D01*
G01X0873470Y1042130D01*
G01X0873220Y1041730D01*
G01X0873040Y1041290D01*
G01X0872940Y1040830D01*
G01X0872900Y1040360D01*
G01X0872940Y1039890D01*
G01X0873060Y1039430D01*
G01X0873240Y1038990D01*
G01X0873490Y1038590D01*
G01X0873800Y1038240D01*
G01X0874170Y1037940D01*
G01X0877080Y1036000D01*
G01X0880180Y1034360D01*
G01X0883400Y1033000D01*
G01X0884130Y1032760D01*
G01X0884130Y0996690D01*
G01X0882420Y0996150D01*
G01X0877110Y0993910D01*
G01X0872010Y0991220D01*
G01X0867180Y0988090D01*
G01X0866560Y0987580D01*
G01X0866040Y0986980D01*
G01X0865620Y0986300D01*
G01X0865310Y0985570D01*
G01X0865120Y0984800D01*
G01X0865050Y0984010D01*
G01X0865100Y0983220D01*
G01X0865280Y0982440D01*
G01X0865580Y0981700D01*
G01X0865990Y0981020D01*
G01X0866500Y0980410D01*
G01X0867100Y0979890D01*
G01X0867770Y0979470D01*
G01X0868500Y0979160D01*
G01X0869280Y0978960D01*
G01X0870070Y0978890D01*
G01X0870860Y0978950D01*
G01X0871640Y0979130D01*
G01X0872370Y0979420D01*
G01X0873050Y0979850D01*
G01X0877110Y0982540D01*
G01X0881410Y0984820D01*
G01X0884130Y0985960D01*
G01X0884130Y0943380D01*
G01X0884090Y0942870D01*
G01X0884210Y0941350D01*
G01X0884130Y0940000D01*
G01X0884130Y0884040D01*
G01X0881410Y0885180D01*
G01X0877110Y0887460D01*
G01X0873020Y0890110D01*
G01X0872350Y0890530D01*
G01X0871620Y0890820D01*
G01X0870850Y0891000D01*
G01X0870070Y0891050D01*
G01X0869280Y0890980D01*
G01X0868520Y0890790D01*
G01X0867800Y0890490D01*
G01X0867130Y0890070D01*
G01X0866540Y0889550D01*
G01X0866030Y0888950D01*
G01X0865630Y0888270D01*
G01X0865330Y0887540D01*
G01X0865150Y0886780D01*
G01X0865100Y0885990D01*
G01X0865170Y0885210D01*
G01X0865360Y0884440D01*
G01X0865670Y0883720D01*
G01X0866090Y0883050D01*
G01X0866600Y0882460D01*
G01X0867210Y0881970D01*
G01X0872010Y0878780D01*
G01X0877110Y0876090D01*
G01X0882420Y0873850D01*
G01X0884130Y0873310D01*
G01X0884130Y0793380D01*
G01X0884090Y0792870D01*
G01X0884250Y0790840D01*
G01X0884250Y0790830D01*
G01X0884720Y0788840D01*
G01X0885510Y0786950D01*
G01X0885910Y0786290D01*
G01X0886580Y0785210D01*
G01X0886580Y0785210D01*
G01X0887910Y0783650D01*
G01X0888290Y0783320D01*
G01X0926140Y0745470D01*
G01X0920750Y0745900D01*
G01X0915160Y0745460D01*
G01X0909720Y0744150D01*
G01X0904540Y0742010D01*
G01X0899760Y0739080D01*
G01X0895500Y0735440D01*
G01X0891870Y0731180D01*
G01X0888940Y0726400D01*
G01X0886800Y0721230D01*
G01X0885490Y0715780D01*
G01X0885050Y0710200D01*
G01X0885490Y0704610D01*
G01X0886800Y0699160D01*
G01X0888940Y0693990D01*
G01X0891870Y0689210D01*
G01X0895500Y0684950D01*
G01X0899760Y0681310D01*
G01X0904540Y0678390D01*
G01X0909720Y0676240D01*
G01X0915160Y0674940D01*
G01X0920750Y0674500D01*
G01X0926330Y0674940D01*
G01X0931780Y0676240D01*
G01X0936960Y0678390D01*
G01X0941730Y0681310D01*
G01X0945990Y0684950D01*
G01X0947000Y0686130D01*
G01X0947000Y0560000D01*
G01X0850460Y0560000D01*
G01X0850460Y0691210D01*
G01X0852160Y0693990D01*
G01X0854310Y0699160D01*
G01X0855620Y0704610D01*
G01X0855940Y0710200D01*
G01X0855620Y0715780D01*
G01X0854310Y0721230D01*
G01X0852160Y0726400D01*
G01X0850460Y0729180D01*
G01X0850460Y0899420D01*
G01X0851910Y0897180D01*
G01X0852420Y0896560D01*
G01X0853020Y0896040D01*
G01X0853700Y0895620D01*
G01X0854430Y0895310D01*
G01X0855200Y0895120D01*
G01X0855990Y0895050D01*
G01X0856780Y0895100D01*
G01X0857560Y0895280D01*
G01X0858300Y0895580D01*
G01X0858980Y0895990D01*
G01X0859590Y0896500D01*
G01X0860110Y0897100D01*
G01X0860530Y0897770D01*
G01X0860840Y0898500D01*
G01X0861040Y0899280D01*
G01X0861110Y0900070D01*
G01X0861050Y0900860D01*
G01X0860870Y0901640D01*
G01X0860580Y0902370D01*
G01X0860150Y0903050D01*
G01X0857460Y0907110D01*
G01X0855180Y0911410D01*
G01X0853290Y0915910D01*
G01X0851810Y0920550D01*
G01X0850740Y0925300D01*
G01X0850460Y0927390D01*
G01X0850460Y0942610D01*
G01X0850740Y0944700D01*
G01X0851810Y0949450D01*
G01X0853290Y0954090D01*
G01X0855180Y0958590D01*
G01X0857460Y0962890D01*
G01X0860110Y0966980D01*
G01X0860530Y0967650D01*
G01X0860820Y0968380D01*
G01X0861000Y0969150D01*
G01X0861050Y0969930D01*
G01X0860980Y0970720D01*
G01X0860790Y0971480D01*
G01X0860490Y0972200D01*
G01X0860070Y0972870D01*
G01X0859550Y0973460D01*
G01X0858950Y0973970D01*
G01X0858270Y0974370D01*
G01X0857540Y0974670D01*
G01X0856780Y0974850D01*
G01X0855990Y0974900D01*
G01X0855210Y0974830D01*
G01X0854440Y0974640D01*
G01X0853720Y0974330D01*
G01X0853050Y0973910D01*
G01X0852460Y0973400D01*
G01X0851970Y0972790D01*
G01X0850460Y0970520D01*
G01X0850460Y1072000D01*
G37*
G36*
G01X0850460Y0927390D02*
G01X0850100Y0930130D01*
G01X0849880Y0935000D01*
G01X0850100Y0939870D01*
G01X0850460Y0942610D01*
G01X0850460Y0927390D01*
G37*
G36*
G01X0439850Y0942610D02*
G01X0440220Y0939870D01*
G01X0440430Y0935000D01*
G01X0440220Y0930130D01*
G01X0439850Y0927390D01*
G01X0439850Y0942610D01*
G37*
G36*
G01X0539710Y0856530D02*
G01X0539040Y0855960D01*
G01X0536740Y0853270D01*
G01X0534890Y0850250D01*
G01X0533540Y0846970D01*
G01X0532710Y0843530D01*
G01X0532710Y0843530D01*
G01X0532430Y0840000D01*
G01X0532500Y0839120D01*
G01X0532500Y0724320D01*
G01X0519710Y0711530D01*
G01X0519040Y0710960D01*
G01X0516740Y0708270D01*
G01X0514890Y0705250D01*
G01X0513540Y0701970D01*
G01X0512710Y0698530D01*
G01X0512710Y0698530D01*
G01X0512430Y0695000D01*
G01X0512500Y0694120D01*
G01X0512500Y0675880D01*
G01X0512430Y0675000D01*
G01X0512710Y0671470D01*
G01X0512710Y0671470D01*
G01X0513540Y0668030D01*
G01X0514890Y0664750D01*
G01X0515590Y0663610D01*
G01X0516740Y0661730D01*
G01X0516740Y0661730D01*
G01X0519040Y0659040D01*
G01X0519710Y0658470D01*
G01X0528470Y0649710D01*
G01X0529040Y0649040D01*
G01X0531730Y0646740D01*
G01X0531730Y0646740D01*
G01X0533610Y0645590D01*
G01X0534750Y0644890D01*
G01X0538030Y0643540D01*
G01X0541470Y0642710D01*
G01X0545000Y0642430D01*
G01X0545000Y0642430D01*
G01X0548530Y0642710D01*
G01X0551970Y0643540D01*
G01X0552930Y0643930D01*
G01X0555250Y0644890D01*
G01X0557120Y0646040D01*
G01X0558270Y0646740D01*
G01X0559510Y0647800D01*
G01X0560960Y0649040D01*
G01X0562020Y0650280D01*
G01X0563260Y0651730D01*
G01X0564410Y0653610D01*
G01X0565110Y0654750D01*
G01X0566460Y0658030D01*
G01X0567290Y0661470D01*
G01X0567290Y0661470D01*
G01X0567570Y0665000D01*
G01X0567500Y0665880D01*
G01X0567500Y0670680D01*
G01X0590290Y0693470D01*
G01X0590960Y0694040D01*
G01X0593260Y0696730D01*
G01X0593260Y0696730D01*
G01X0595110Y0699750D01*
G01X0596460Y0703030D01*
G01X0597290Y0706470D01*
G01X0597500Y0709120D01*
G01X0597500Y0660000D01*
G01X0597710Y0656470D01*
G01X0598540Y0653030D01*
G01X0599890Y0649750D01*
G01X0601740Y0646730D01*
G01X0604040Y0644040D01*
G01X0606730Y0641740D01*
G01X0609750Y0639890D01*
G01X0613030Y0638540D01*
G01X0616470Y0637710D01*
G01X0620000Y0637430D01*
G01X0623530Y0637710D01*
G01X0626970Y0638540D01*
G01X0630250Y0639890D01*
G01X0633270Y0641740D01*
G01X0635960Y0644040D01*
G01X0638260Y0646730D01*
G01X0640110Y0649750D01*
G01X0641460Y0653030D01*
G01X0642290Y0656470D01*
G01X0642500Y0660000D01*
G01X0642500Y0800000D01*
G01X0642290Y0803530D01*
G01X0641460Y0806970D01*
G01X0640110Y0810250D01*
G01X0638260Y0813270D01*
G01X0635960Y0815960D01*
G01X0633270Y0818260D01*
G01X0632870Y0818500D01*
G01X0644120Y0818500D01*
G01X0645000Y0818430D01*
G01X0648530Y0818710D01*
G01X0648530Y0818710D01*
G01X0651970Y0819540D01*
G01X0652450Y0819730D01*
G01X0652500Y0819120D01*
G01X0652500Y0660000D01*
G01X0652710Y0656470D01*
G01X0653540Y0653030D01*
G01X0654890Y0649750D01*
G01X0656740Y0646730D01*
G01X0659040Y0644040D01*
G01X0661730Y0641740D01*
G01X0664750Y0639890D01*
G01X0668030Y0638540D01*
G01X0671470Y0637710D01*
G01X0675000Y0637430D01*
G01X0678530Y0637710D01*
G01X0681970Y0638540D01*
G01X0685250Y0639890D01*
G01X0688270Y0641740D01*
G01X0690960Y0644040D01*
G01X0693260Y0646730D01*
G01X0695110Y0649750D01*
G01X0696460Y0653030D01*
G01X0697290Y0656470D01*
G01X0697500Y0660000D01*
G01X0697500Y0807500D01*
G01X0720850Y0807500D01*
G01X0719040Y0805960D01*
G01X0716740Y0803270D01*
G01X0714890Y0800250D01*
G01X0713540Y0796970D01*
G01X0712710Y0793530D01*
G01X0712500Y0790000D01*
G01X0712500Y0665000D01*
G01X0712710Y0661470D01*
G01X0713540Y0658030D01*
G01X0714890Y0654750D01*
G01X0716740Y0651730D01*
G01X0719040Y0649040D01*
G01X0721730Y0646740D01*
G01X0724750Y0644890D01*
G01X0728030Y0643540D01*
G01X0731470Y0642710D01*
G01X0735000Y0642430D01*
G01X0738530Y0642710D01*
G01X0741970Y0643540D01*
G01X0745250Y0644890D01*
G01X0748270Y0646740D01*
G01X0750960Y0649040D01*
G01X0753260Y0651730D01*
G01X0755110Y0654750D01*
G01X0756460Y0658030D01*
G01X0757290Y0661470D01*
G01X0757500Y0665000D01*
G01X0757500Y0790000D01*
G01X0757290Y0793530D01*
G01X0756460Y0796970D01*
G01X0755110Y0800250D01*
G01X0753260Y0803270D01*
G01X0750960Y0805960D01*
G01X0749150Y0807500D01*
G01X0795000Y0807500D01*
G01X0798530Y0807710D01*
G01X0801970Y0808540D01*
G01X0805250Y0809890D01*
G01X0808270Y0811740D01*
G01X0810960Y0814040D01*
G01X0813260Y0816730D01*
G01X0815110Y0819750D01*
G01X0816460Y0823030D01*
G01X0817290Y0826470D01*
G01X0817570Y0830000D01*
G01X0817290Y0833530D01*
G01X0816460Y0836970D01*
G01X0815110Y0840250D01*
G01X0813260Y0843270D01*
G01X0810960Y0845960D01*
G01X0808270Y0848260D01*
G01X0805250Y0850110D01*
G01X0801970Y0851460D01*
G01X0798530Y0852290D01*
G01X0795000Y0852500D01*
G01X0685880Y0852500D01*
G01X0685830Y0852500D01*
G01X0686460Y0854030D01*
G01X0687290Y0857470D01*
G01X0687570Y0861000D01*
G01X0687500Y0861880D01*
G01X0687500Y0868790D01*
G01X0689190Y0867760D01*
G01X0694360Y0865610D01*
G01X0699810Y0864310D01*
G01X0705390Y0863870D01*
G01X0710980Y0864310D01*
G01X0716430Y0865610D01*
G01X0721600Y0867760D01*
G01X0726380Y0870680D01*
G01X0730640Y0874320D01*
G01X0732980Y0877070D01*
G01X0758120Y0877070D01*
G01X0760460Y0874320D01*
G01X0764720Y0870680D01*
G01X0769500Y0867760D01*
G01X0774680Y0865610D01*
G01X0780120Y0864310D01*
G01X0785710Y0863870D01*
G01X0791290Y0864310D01*
G01X0796740Y0865610D01*
G01X0801920Y0867760D01*
G01X0806690Y0870680D01*
G01X0810950Y0874320D01*
G01X0814590Y0878580D01*
G01X0817520Y0883360D01*
G01X0819320Y0887720D01*
G01X0820920Y0888380D01*
G01X0822660Y0889450D01*
G01X0824220Y0890780D01*
G01X0824550Y0891170D01*
G01X0833830Y0900450D01*
G01X0834220Y0900780D01*
G01X0835550Y0902330D01*
G01X0835550Y0902340D01*
G01X0836620Y0904080D01*
G01X0837400Y0905970D01*
G01X0837880Y0907960D01*
G01X0838040Y0910000D01*
G01X0838000Y0910510D01*
G01X0838000Y0954490D01*
G01X0838040Y0955000D01*
G01X0837880Y0957040D01*
G01X0837880Y0957040D01*
G01X0837520Y0958550D01*
G01X0837400Y0959030D01*
G01X0837080Y0959810D01*
G01X0836620Y0960920D01*
G01X0836200Y0961600D01*
G01X0835550Y0962660D01*
G01X0835550Y0962670D01*
G01X0834220Y0964220D01*
G01X0833830Y0964550D01*
G01X0829550Y0968830D01*
G01X0829220Y0969220D01*
G01X0827670Y0970550D01*
G01X0827660Y0970550D01*
G01X0826600Y0971200D01*
G01X0825920Y0971620D01*
G01X0825730Y0971700D01*
G01X0825910Y0972430D01*
G01X0826030Y0974000D01*
G01X0826000Y0974390D01*
G01X0826000Y0975610D01*
G01X0826030Y0976000D01*
G01X0826000Y0976390D01*
G01X0826000Y0987610D01*
G01X0826030Y0988000D01*
G01X0826000Y0988390D01*
G01X0826000Y0989610D01*
G01X0826030Y0990000D01*
G01X0826000Y0990390D01*
G01X0826000Y1001610D01*
G01X0826030Y1002000D01*
G01X0826000Y1002390D01*
G01X0826000Y1004610D01*
G01X0826030Y1005000D01*
G01X0825910Y1006570D01*
G01X0825540Y1008100D01*
G01X0824940Y1009550D01*
G01X0824120Y1010900D01*
G01X0824110Y1010900D01*
G01X0823090Y1012090D01*
G01X0822790Y1012350D01*
G01X0819960Y1015180D01*
G01X0819940Y1020100D01*
G01X0819680Y1021170D01*
G01X0819260Y1022190D01*
G01X0818680Y1023130D01*
G01X0817960Y1023960D01*
G01X0817130Y1024680D01*
G01X0816190Y1025260D01*
G01X0815170Y1025680D01*
G01X0814100Y1025940D01*
G01X0813000Y1026000D01*
G01X0805900Y1025940D01*
G01X0804830Y1025680D01*
G01X0803810Y1025260D01*
G01X0803500Y1025060D01*
G01X0803190Y1025260D01*
G01X0802170Y1025680D01*
G01X0801100Y1025940D01*
G01X0800000Y1026000D01*
G01X0792900Y1025940D01*
G01X0791830Y1025680D01*
G01X0790810Y1025260D01*
G01X0789870Y1024680D01*
G01X0789040Y1023960D01*
G01X0788320Y1023130D01*
G01X0787740Y1022190D01*
G01X0787320Y1021170D01*
G01X0787060Y1020100D01*
G01X0787000Y1019000D01*
G01X0787020Y1015160D01*
G01X0783210Y1011350D01*
G01X0782910Y1011090D01*
G01X0781880Y1009900D01*
G01X0781060Y1008550D01*
G01X0780460Y1007100D01*
G01X0780090Y1005570D01*
G01X0780090Y1005570D01*
G01X0779970Y1004000D01*
G01X0780000Y1003610D01*
G01X0780000Y1001390D01*
G01X0779970Y1001000D01*
G01X0780000Y1000610D01*
G01X0780000Y0989390D01*
G01X0779970Y0989000D01*
G01X0780000Y0988610D01*
G01X0780000Y0979400D01*
G01X0779500Y0981470D01*
G01X0777360Y0986640D01*
G01X0774430Y0991420D01*
G01X0770800Y0995680D01*
G01X0766540Y0999320D01*
G01X0761760Y1002240D01*
G01X0756580Y1004390D01*
G01X0751140Y1005690D01*
G01X0745550Y1006130D01*
G01X0739970Y1005690D01*
G01X0734520Y1004390D01*
G01X0729340Y1002240D01*
G01X0724570Y0999320D01*
G01X0720310Y0995680D01*
G01X0716670Y0991420D01*
G01X0716450Y0991070D01*
G01X0715190Y0990540D01*
G01X0712170Y0988690D01*
G01X0709470Y0986390D01*
G01X0707170Y0983700D01*
G01X0705320Y0980680D01*
G01X0703970Y0977410D01*
G01X0703460Y0975280D01*
G01X0700700Y0972520D01*
G01X0700500Y0976020D01*
G01X0699190Y0981470D01*
G01X0697050Y0986640D01*
G01X0694120Y0991420D01*
G01X0690480Y0995680D01*
G01X0686220Y0999320D01*
G01X0681440Y1002240D01*
G01X0676270Y1004390D01*
G01X0670820Y1005690D01*
G01X0665240Y1006130D01*
G01X0663310Y1005980D01*
G01X0663310Y1029050D01*
G01X0664320Y1028970D01*
G01X0664710Y1029000D01*
G01X0665920Y1029000D01*
G01X0666310Y1028970D01*
G01X0666710Y1029000D01*
G01X0677920Y1029000D01*
G01X0678310Y1028970D01*
G01X0678710Y1029000D01*
G01X0679920Y1029000D01*
G01X0680320Y1028970D01*
G01X0680710Y1029000D01*
G01X0691920Y1029000D01*
G01X0692320Y1028970D01*
G01X0692710Y1029000D01*
G01X0694920Y1029000D01*
G01X0695310Y1028970D01*
G01X0696880Y1029090D01*
G01X0696880Y1029090D01*
G01X0698410Y1029460D01*
G01X0699870Y1030060D01*
G01X0701210Y1030880D01*
G01X0702410Y1031910D01*
G01X0702660Y1032210D01*
G01X0705500Y1035040D01*
G01X0710410Y1035060D01*
G01X0711480Y1035320D01*
G01X0712500Y1035740D01*
G01X0713440Y1036320D01*
G01X0714280Y1037040D01*
G01X0715000Y1037870D01*
G01X0715570Y1038810D01*
G01X0715990Y1039830D01*
G01X0716250Y1040900D01*
G01X0716310Y1042000D01*
G01X0716250Y1049100D01*
G01X0715990Y1050170D01*
G01X0715570Y1051190D01*
G01X0715380Y1051500D01*
G01X0715570Y1051810D01*
G01X0715990Y1052830D01*
G01X0716250Y1053900D01*
G01X0716310Y1055000D01*
G01X0716250Y1062100D01*
G01X0715990Y1063170D01*
G01X0715570Y1064190D01*
G01X0715000Y1065130D01*
G01X0714280Y1065960D01*
G01X0713440Y1066680D01*
G01X0712500Y1067260D01*
G01X0711480Y1067680D01*
G01X0710410Y1067940D01*
G01X0709310Y1068000D01*
G01X0705480Y1067980D01*
G01X0701660Y1071790D01*
G01X0701490Y1072000D01*
G01X0850460Y1072000D01*
G01X0850460Y0970520D01*
G01X0848780Y0967990D01*
G01X0846090Y0962890D01*
G01X0843850Y0957580D01*
G01X0842100Y0952090D01*
G01X0840840Y0946470D01*
G01X0840070Y0940760D01*
G01X0839820Y0935000D01*
G01X0840070Y0929240D01*
G01X0840840Y0923530D01*
G01X0842100Y0917910D01*
G01X0843850Y0912420D01*
G01X0846090Y0907110D01*
G01X0848780Y0902010D01*
G01X0850460Y0899420D01*
G01X0850460Y0729180D01*
G01X0849240Y0731180D01*
G01X0845600Y0735440D01*
G01X0841340Y0739080D01*
G01X0836560Y0742010D01*
G01X0831390Y0744150D01*
G01X0825940Y0745460D01*
G01X0820350Y0745900D01*
G01X0814770Y0745460D01*
G01X0809320Y0744150D01*
G01X0804150Y0742010D01*
G01X0799370Y0739080D01*
G01X0795110Y0735440D01*
G01X0791470Y0731180D01*
G01X0788550Y0726400D01*
G01X0786400Y0721230D01*
G01X0785090Y0715780D01*
G01X0784650Y0710200D01*
G01X0785090Y0704610D01*
G01X0786400Y0699160D01*
G01X0788550Y0693990D01*
G01X0791470Y0689210D01*
G01X0795110Y0684950D01*
G01X0799370Y0681310D01*
G01X0804150Y0678390D01*
G01X0809320Y0676240D01*
G01X0814770Y0674940D01*
G01X0820350Y0674500D01*
G01X0825940Y0674940D01*
G01X0831390Y0676240D01*
G01X0836560Y0678390D01*
G01X0841340Y0681310D01*
G01X0845600Y0684950D01*
G01X0849240Y0689210D01*
G01X0850460Y0691210D01*
G01X0850460Y0560000D01*
G01X0439850Y0560000D01*
G01X0439850Y0691210D01*
G01X0441080Y0689210D01*
G01X0444720Y0684950D01*
G01X0448980Y0681310D01*
G01X0453750Y0678390D01*
G01X0458930Y0676240D01*
G01X0464380Y0674940D01*
G01X0469960Y0674500D01*
G01X0475550Y0674940D01*
G01X0480990Y0676240D01*
G01X0486170Y0678390D01*
G01X0490940Y0681310D01*
G01X0495200Y0684950D01*
G01X0498840Y0689210D01*
G01X0501770Y0693990D01*
G01X0503910Y0699160D01*
G01X0505220Y0704610D01*
G01X0505550Y0710200D01*
G01X0505220Y0715780D01*
G01X0503910Y0721230D01*
G01X0501770Y0726400D01*
G01X0498840Y0731180D01*
G01X0495200Y0735440D01*
G01X0490940Y0739080D01*
G01X0486170Y0742010D01*
G01X0480990Y0744150D01*
G01X0475550Y0745460D01*
G01X0469960Y0745900D01*
G01X0464380Y0745460D01*
G01X0458930Y0744150D01*
G01X0453750Y0742010D01*
G01X0448980Y0739080D01*
G01X0444720Y0735440D01*
G01X0441080Y0731180D01*
G01X0439850Y0729180D01*
G01X0439850Y0899480D01*
G01X0441530Y0902010D01*
G01X0444230Y0907110D01*
G01X0446460Y0912420D01*
G01X0448220Y0917910D01*
G01X0449480Y0923530D01*
G01X0450240Y0929240D01*
G01X0450500Y0935000D01*
G01X0450240Y0940760D01*
G01X0449480Y0946470D01*
G01X0448220Y0952090D01*
G01X0446460Y0957580D01*
G01X0444230Y0962890D01*
G01X0441530Y0967990D01*
G01X0439850Y0970580D01*
G01X0439850Y0992500D01*
G01X0450720Y0992500D01*
G01X0469190Y0974030D01*
G01X0468910Y0970430D01*
G01X0469350Y0964850D01*
G01X0470650Y0959400D01*
G01X0472800Y0954230D01*
G01X0475720Y0949450D01*
G01X0479360Y0945190D01*
G01X0483620Y0941550D01*
G01X0488400Y0938620D01*
G01X0493570Y0936480D01*
G01X0499020Y0935170D01*
G01X0504610Y0934730D01*
G01X0510190Y0935170D01*
G01X0515640Y0936480D01*
G01X0520810Y0938620D01*
G01X0522500Y0939660D01*
G01X0522500Y0927360D01*
G01X0519520Y0924810D01*
G01X0515880Y0920550D01*
G01X0512950Y0915770D01*
G01X0510810Y0910600D01*
G01X0509500Y0905150D01*
G01X0509060Y0899570D01*
G01X0509500Y0893980D01*
G01X0510810Y0888530D01*
G01X0512950Y0883360D01*
G01X0515880Y0878580D01*
G01X0519520Y0874320D01*
G01X0523780Y0870680D01*
G01X0528560Y0867760D01*
G01X0533730Y0865610D01*
G01X0539180Y0864310D01*
G01X0544760Y0863870D01*
G01X0547240Y0864060D01*
G01X0539710Y0856530D01*
G37*
G36*
G01X0439850Y0560000D02*
G01X0343000Y0560000D01*
G01X0343000Y0686500D01*
G01X0344320Y0684950D01*
G01X0348580Y0681310D01*
G01X0353360Y0678390D01*
G01X0358530Y0676240D01*
G01X0363980Y0674940D01*
G01X0369570Y0674500D01*
G01X0375150Y0674940D01*
G01X0380600Y0676240D01*
G01X0385770Y0678390D01*
G01X0390550Y0681310D01*
G01X0394810Y0684950D01*
G01X0398450Y0689210D01*
G01X0401380Y0693990D01*
G01X0403520Y0699160D01*
G01X0404830Y0704610D01*
G01X0405160Y0710200D01*
G01X0404830Y0715780D01*
G01X0403520Y0721230D01*
G01X0401380Y0726400D01*
G01X0398450Y0731180D01*
G01X0394810Y0735440D01*
G01X0390550Y0739080D01*
G01X0385770Y0742010D01*
G01X0380600Y0744150D01*
G01X0375150Y0745460D01*
G01X0369570Y0745900D01*
G01X0363980Y0745460D01*
G01X0363800Y0745410D01*
G01X0394150Y0775760D01*
G01X0394540Y0776090D01*
G01X0395860Y0777650D01*
G01X0395860Y0777650D01*
G01X0396930Y0779390D01*
G01X0397720Y0781290D01*
G01X0398190Y0783280D01*
G01X0398360Y0785310D01*
G01X0398310Y0785820D01*
G01X0398310Y0871180D01*
G01X0402410Y0872100D01*
G01X0407890Y0873850D01*
G01X0413210Y0876090D01*
G01X0418300Y0878780D01*
G01X0423140Y0881910D01*
G01X0423750Y0882420D01*
G01X0424270Y0883020D01*
G01X0424700Y0883700D01*
G01X0425010Y0884430D01*
G01X0425200Y0885200D01*
G01X0425270Y0885990D01*
G01X0425210Y0886780D01*
G01X0425040Y0887560D01*
G01X0424740Y0888300D01*
G01X0424330Y0888980D01*
G01X0423820Y0889590D01*
G01X0423220Y0890110D01*
G01X0422540Y0890530D01*
G01X0421810Y0890840D01*
G01X0421040Y0891040D01*
G01X0420250Y0891110D01*
G01X0419450Y0891050D01*
G01X0418680Y0890870D01*
G01X0417940Y0890580D01*
G01X0417270Y0890150D01*
G01X0413210Y0887460D01*
G01X0408900Y0885180D01*
G01X0404410Y0883290D01*
G01X0399770Y0881810D01*
G01X0398310Y0881480D01*
G01X0398310Y0929620D01*
G01X0402020Y0933320D01*
G01X0402410Y0933650D01*
G01X0403740Y0935210D01*
G01X0403740Y0935210D01*
G01X0404810Y0936950D01*
G01X0405590Y0938840D01*
G01X0406070Y0940830D01*
G01X0406230Y0942870D01*
G01X0406190Y0943380D01*
G01X0406190Y0985960D01*
G01X0408900Y0984820D01*
G01X0413210Y0982540D01*
G01X0417300Y0979890D01*
G01X0417960Y0979470D01*
G01X0418690Y0979180D01*
G01X0419460Y0979000D01*
G01X0420250Y0978950D01*
G01X0421030Y0979020D01*
G01X0421790Y0979210D01*
G01X0422520Y0979510D01*
G01X0423180Y0979930D01*
G01X0423780Y0980450D01*
G01X0424280Y0981050D01*
G01X0424690Y0981730D01*
G01X0424980Y0982460D01*
G01X0425160Y0983220D01*
G01X0425210Y0984010D01*
G01X0425150Y0984790D01*
G01X0424950Y0985560D01*
G01X0424650Y0986280D01*
G01X0424230Y0986950D01*
G01X0423710Y0987540D01*
G01X0423100Y0988030D01*
G01X0418300Y0991220D01*
G01X0413210Y0993910D01*
G01X0407890Y0996150D01*
G01X0406190Y0996690D01*
G01X0406190Y1002630D01*
G01X0406740Y1001730D01*
G01X0409040Y0999040D01*
G01X0411730Y0996740D01*
G01X0414750Y0994890D01*
G01X0418030Y0993540D01*
G01X0421470Y0992710D01*
G01X0425000Y0992500D01*
G01X0439850Y0992500D01*
G01X0439850Y0970580D01*
G01X0438400Y0972820D01*
G01X0437890Y0973440D01*
G01X0437290Y0973960D01*
G01X0436620Y0974380D01*
G01X0435890Y0974690D01*
G01X0435120Y0974880D01*
G01X0434320Y0974950D01*
G01X0433530Y0974900D01*
G01X0432750Y0974720D01*
G01X0432020Y0974420D01*
G01X0431330Y0974010D01*
G01X0430730Y0973500D01*
G01X0430200Y0972900D01*
G01X0429780Y0972230D01*
G01X0429470Y0971500D01*
G01X0429280Y0970720D01*
G01X0429210Y0969930D01*
G01X0429260Y0969140D01*
G01X0429440Y0968360D01*
G01X0429740Y0967630D01*
G01X0430160Y0966950D01*
G01X0432850Y0962890D01*
G01X0435130Y0958590D01*
G01X0437020Y0954090D01*
G01X0438500Y0949450D01*
G01X0439570Y0944700D01*
G01X0439850Y0942610D01*
G01X0439850Y0927390D01*
G01X0439570Y0925300D01*
G01X0438500Y0920550D01*
G01X0437020Y0915910D01*
G01X0435130Y0911410D01*
G01X0432850Y0907110D01*
G01X0430200Y0903020D01*
G01X0429790Y0902350D01*
G01X0429490Y0901620D01*
G01X0429320Y0900850D01*
G01X0429260Y0900070D01*
G01X0429330Y0899280D01*
G01X0429520Y0898520D01*
G01X0429830Y0897800D01*
G01X0430250Y0897130D01*
G01X0430760Y0896540D01*
G01X0431370Y0896030D01*
G01X0432040Y0895630D01*
G01X0432770Y0895330D01*
G01X0433540Y0895150D01*
G01X0434320Y0895100D01*
G01X0435110Y0895170D01*
G01X0435870Y0895360D01*
G01X0436590Y0895670D01*
G01X0437260Y0896090D01*
G01X0437860Y0896600D01*
G01X0438350Y0897210D01*
G01X0439850Y0899480D01*
G01X0439850Y0729180D01*
G01X0438150Y0726400D01*
G01X0436010Y0721230D01*
G01X0434700Y0715780D01*
G01X0434260Y0710200D01*
G01X0434700Y0704610D01*
G01X0436010Y0699160D01*
G01X0438150Y0693990D01*
G01X0439850Y0691210D01*
G01X0439850Y0560000D01*
G37*
G36*
G01X0592770Y1157000D02*
G01X0592320Y1156610D01*
G01X0591300Y1155420D01*
G01X0590470Y1154070D01*
G01X0589870Y1152620D01*
G01X0589570Y1151370D01*
G01X0589270Y1152620D01*
G01X0588670Y1154070D01*
G01X0587850Y1155420D01*
G01X0586820Y1156610D01*
G01X0586370Y1157000D01*
G01X0592770Y1157000D01*
G37*
G36*
G01X0570000Y1045000D02*
G01X0632340Y1045000D01*
G01X0632380Y1040900D01*
G01X0632640Y1039830D01*
G01X0633060Y1038810D01*
G01X0633630Y1037870D01*
G01X0634350Y1037040D01*
G01X0635190Y1036320D01*
G01X0636130Y1035740D01*
G01X0637150Y1035320D01*
G01X0637310Y1035280D01*
G01X0637310Y1019330D01*
G01X0635910Y1020910D01*
G01X0626530Y1030290D01*
G01X0625960Y1030960D01*
G01X0623270Y1033260D01*
G01X0623270Y1033260D01*
G01X0622120Y1033960D01*
G01X0620250Y1035110D01*
G01X0617930Y1036070D01*
G01X0616970Y1036460D01*
G01X0613530Y1037290D01*
G01X0610000Y1037570D01*
G01X0609120Y1037500D01*
G01X0568540Y1037500D01*
G01X0569080Y1038800D01*
G01X0569810Y1041860D01*
G01X0570000Y1045000D01*
G37*
G36*
G01X0965310Y0987500D02*
G01X0965310Y0959560D01*
G01X0963910Y0962890D01*
G01X0961220Y0967990D01*
G01X0958090Y0972820D01*
G01X0957580Y0973440D01*
G01X0956980Y0973960D01*
G01X0956300Y0974380D01*
G01X0955570Y0974690D01*
G01X0954800Y0974880D01*
G01X0954010Y0974950D01*
G01X0953220Y0974900D01*
G01X0952440Y0974720D01*
G01X0951700Y0974420D01*
G01X0951020Y0974010D01*
G01X0950410Y0973500D01*
G01X0949890Y0972900D01*
G01X0949470Y0972230D01*
G01X0949160Y0971500D01*
G01X0948960Y0970720D01*
G01X0948890Y0969930D01*
G01X0948950Y0969140D01*
G01X0949130Y0968360D01*
G01X0949420Y0967630D01*
G01X0949850Y0966950D01*
G01X0952540Y0962890D01*
G01X0954820Y0958590D01*
G01X0956710Y0954090D01*
G01X0958190Y0949450D01*
G01X0959260Y0944700D01*
G01X0959900Y0939870D01*
G01X0960120Y0935000D01*
G01X0959900Y0930130D01*
G01X0959260Y0925300D01*
G01X0958190Y0920550D01*
G01X0956710Y0915910D01*
G01X0954820Y0911410D01*
G01X0952540Y0907110D01*
G01X0949890Y0903020D01*
G01X0949470Y0902350D01*
G01X0949180Y0901620D01*
G01X0949000Y0900850D01*
G01X0948950Y0900070D01*
G01X0949020Y0899280D01*
G01X0949210Y0898520D01*
G01X0949510Y0897800D01*
G01X0949930Y0897130D01*
G01X0950450Y0896540D01*
G01X0951050Y0896030D01*
G01X0951730Y0895630D01*
G01X0952460Y0895330D01*
G01X0953220Y0895150D01*
G01X0954010Y0895100D01*
G01X0954790Y0895170D01*
G01X0955560Y0895360D01*
G01X0956280Y0895670D01*
G01X0956950Y0896090D01*
G01X0957540Y0896600D01*
G01X0958030Y0897210D01*
G01X0961220Y0902010D01*
G01X0963910Y0907110D01*
G01X0965310Y0910440D01*
G01X0965310Y0743070D01*
G01X0910130Y0798260D01*
G01X0910130Y0870050D01*
G01X0910760Y0870070D01*
G01X0916470Y0870840D01*
G01X0922090Y0872100D01*
G01X0927580Y0873850D01*
G01X0932890Y0876090D01*
G01X0937990Y0878780D01*
G01X0942820Y0881910D01*
G01X0943440Y0882420D01*
G01X0943960Y0883020D01*
G01X0944380Y0883700D01*
G01X0944690Y0884430D01*
G01X0944880Y0885200D01*
G01X0944950Y0885990D01*
G01X0944900Y0886780D01*
G01X0944720Y0887560D01*
G01X0944420Y0888300D01*
G01X0944010Y0888980D01*
G01X0943500Y0889590D01*
G01X0942900Y0890110D01*
G01X0942230Y0890530D01*
G01X0941500Y0890840D01*
G01X0940720Y0891040D01*
G01X0939930Y0891110D01*
G01X0939140Y0891050D01*
G01X0938360Y0890870D01*
G01X0937630Y0890580D01*
G01X0936950Y0890150D01*
G01X0932890Y0887460D01*
G01X0928590Y0885180D01*
G01X0924090Y0883290D01*
G01X0919450Y0881810D01*
G01X0914700Y0880740D01*
G01X0910130Y0880130D01*
G01X0910130Y0923050D01*
G01X0910920Y0923380D01*
G01X0912660Y0924450D01*
G01X0914220Y0925780D01*
G01X0915550Y0927340D01*
G01X0916620Y0929080D01*
G01X0917400Y0930970D01*
G01X0917880Y0932960D01*
G01X0918040Y0935000D01*
G01X0917880Y0937040D01*
G01X0917400Y0939030D01*
G01X0916620Y0940920D01*
G01X0915550Y0942660D01*
G01X0914190Y0944190D01*
G01X0910130Y0948260D01*
G01X0910130Y0989870D01*
G01X0914700Y0989260D01*
G01X0919450Y0988190D01*
G01X0924090Y0986710D01*
G01X0928590Y0984820D01*
G01X0932890Y0982540D01*
G01X0936980Y0979890D01*
G01X0937650Y0979470D01*
G01X0938380Y0979180D01*
G01X0939150Y0979000D01*
G01X0939930Y0978950D01*
G01X0940720Y0979020D01*
G01X0941480Y0979210D01*
G01X0942200Y0979510D01*
G01X0942870Y0979930D01*
G01X0943460Y0980450D01*
G01X0943970Y0981050D01*
G01X0944370Y0981730D01*
G01X0944670Y0982460D01*
G01X0944850Y0983220D01*
G01X0944900Y0984010D01*
G01X0944830Y0984790D01*
G01X0944640Y0985560D01*
G01X0944330Y0986280D01*
G01X0943910Y0986950D01*
G01X0943430Y0987500D01*
G01X0965310Y0987500D01*
G37*
G36*
G01X0638980Y0866800D02*
G01X0635680Y0863500D01*
G01X0607500Y0863500D01*
G01X0607500Y0864120D01*
G01X0607570Y0865000D01*
G01X0607500Y0865880D01*
G01X0607500Y0868600D01*
G01X0608870Y0867760D01*
G01X0614050Y0865610D01*
G01X0619490Y0864310D01*
G01X0625080Y0863870D01*
G01X0630660Y0864310D01*
G01X0636110Y0865610D01*
G01X0638980Y0866800D01*
G37*
G36*
G01X0325310Y1037500D02*
G01X0325310Y1230000D01*
G01X0360130Y1230000D01*
G01X0360130Y1091550D01*
G01X0359150Y1090080D01*
G01X0357510Y1086990D01*
G01X0356150Y1083760D01*
G01X0355080Y1080430D01*
G01X0354310Y1077010D01*
G01X0353840Y1073540D01*
G01X0353690Y1070040D01*
G01X0353840Y1066540D01*
G01X0354310Y1063070D01*
G01X0355080Y1059650D01*
G01X0356150Y1056320D01*
G01X0357510Y1053090D01*
G01X0359150Y1050000D01*
G01X0360130Y1048490D01*
G01X0360130Y1037490D01*
G01X0360000Y1037500D01*
G01X0325310Y1037500D01*
G37*
G36*
G01X0360130Y1065040D02*
G01X0359860Y1067080D01*
G01X0359720Y1070040D01*
G01X0359860Y1073000D01*
G01X0360130Y1075040D01*
G01X0360130Y1065040D01*
G37*
G36*
G01X0360130Y1230000D02*
G01X0393170Y1230000D01*
G01X0393170Y1109540D01*
G01X0389690Y1109390D01*
G01X0386220Y1108920D01*
G01X0382800Y1108150D01*
G01X0379470Y1107080D01*
G01X0376240Y1105720D01*
G01X0373150Y1104080D01*
G01X0370210Y1102170D01*
G01X0369840Y1101870D01*
G01X0369530Y1101510D01*
G01X0369280Y1101100D01*
G01X0369090Y1100660D01*
G01X0368980Y1100200D01*
G01X0368930Y1099720D01*
G01X0368970Y1099250D01*
G01X0369080Y1098780D01*
G01X0369260Y1098340D01*
G01X0369500Y1097930D01*
G01X0369810Y1097560D01*
G01X0370170Y1097250D01*
G01X0370580Y1097000D01*
G01X0371010Y1096810D01*
G01X0371480Y1096700D01*
G01X0371950Y1096660D01*
G01X0372430Y1096690D01*
G01X0372890Y1096800D01*
G01X0373340Y1096980D01*
G01X0373740Y1097230D01*
G01X0376210Y1098880D01*
G01X0378830Y1100270D01*
G01X0381560Y1101420D01*
G01X0384390Y1102330D01*
G01X0387280Y1102980D01*
G01X0390220Y1103370D01*
G01X0393170Y1103500D01*
G01X0393170Y1083080D01*
G01X0391150Y1082920D01*
G01X0389160Y1082440D01*
G01X0387270Y1081660D01*
G01X0385520Y1080590D01*
G01X0383970Y1079260D01*
G01X0382640Y1077700D01*
G01X0381570Y1075960D01*
G01X0380790Y1074070D01*
G01X0380310Y1072080D01*
G01X0380150Y1070040D01*
G01X0380190Y1069530D01*
G01X0380190Y1039240D01*
G01X0378830Y1039810D01*
G01X0376210Y1041200D01*
G01X0373720Y1042820D01*
G01X0373320Y1043070D01*
G01X0372880Y1043250D01*
G01X0372420Y1043360D01*
G01X0371950Y1043390D01*
G01X0371480Y1043350D01*
G01X0371030Y1043230D01*
G01X0370590Y1043050D01*
G01X0370190Y1042800D01*
G01X0369830Y1042490D01*
G01X0369530Y1042130D01*
G01X0369290Y1041730D01*
G01X0369110Y1041290D01*
G01X0369000Y1040830D01*
G01X0368970Y1040360D01*
G01X0369010Y1039890D01*
G01X0369120Y1039430D01*
G01X0369310Y1038990D01*
G01X0369560Y1038590D01*
G01X0369860Y1038240D01*
G01X0370230Y1037940D01*
G01X0373150Y1036000D01*
G01X0376240Y1034360D01*
G01X0379470Y1033000D01*
G01X0380190Y1032760D01*
G01X0380190Y1025050D01*
G01X0380110Y1025250D01*
G01X0378260Y1028270D01*
G01X0375960Y1030960D01*
G01X0373270Y1033260D01*
G01X0370250Y1035110D01*
G01X0366970Y1036460D01*
G01X0363530Y1037290D01*
G01X0360130Y1037490D01*
G01X0360130Y1048490D01*
G01X0361060Y1047060D01*
G01X0361360Y1046690D01*
G01X0361720Y1046380D01*
G01X0362130Y1046130D01*
G01X0362570Y1045940D01*
G01X0363030Y1045830D01*
G01X0363510Y1045780D01*
G01X0363980Y1045820D01*
G01X0364450Y1045930D01*
G01X0364890Y1046110D01*
G01X0365300Y1046350D01*
G01X0365660Y1046660D01*
G01X0365980Y1047020D01*
G01X0366230Y1047430D01*
G01X0366420Y1047870D01*
G01X0366530Y1048330D01*
G01X0366570Y1048800D01*
G01X0366540Y1049280D01*
G01X0366430Y1049750D01*
G01X0366250Y1050190D01*
G01X0366000Y1050590D01*
G01X0364350Y1053060D01*
G01X0362960Y1055680D01*
G01X0361810Y1058410D01*
G01X0360900Y1061240D01*
G01X0360250Y1064130D01*
G01X0360130Y1065040D01*
G01X0360130Y1075040D01*
G01X0360250Y1075940D01*
G01X0360900Y1078840D01*
G01X0361810Y1081660D01*
G01X0362960Y1084400D01*
G01X0364350Y1087020D01*
G01X0365970Y1089510D01*
G01X0366220Y1089910D01*
G01X0366400Y1090340D01*
G01X0366500Y1090800D01*
G01X0366540Y1091270D01*
G01X0366500Y1091740D01*
G01X0366380Y1092200D01*
G01X0366200Y1092640D01*
G01X0365950Y1093040D01*
G01X0365640Y1093400D01*
G01X0365280Y1093700D01*
G01X0364880Y1093940D01*
G01X0364440Y1094120D01*
G01X0363980Y1094230D01*
G01X0363510Y1094260D01*
G01X0363040Y1094220D01*
G01X0362580Y1094110D01*
G01X0362140Y1093920D01*
G01X0361740Y1093670D01*
G01X0361390Y1093360D01*
G01X0361090Y1093000D01*
G01X0360130Y1091550D01*
G01X0360130Y1230000D01*
G37*
G36*
G01X0393170Y1230000D02*
G01X0930190Y1230000D01*
G01X0930190Y1091590D01*
G01X0929260Y1093020D01*
G01X0928950Y1093390D01*
G01X0928590Y1093700D01*
G01X0928190Y1093950D01*
G01X0927750Y1094140D01*
G01X0927280Y1094250D01*
G01X0926810Y1094290D01*
G01X0926330Y1094260D01*
G01X0925870Y1094150D01*
G01X0925420Y1093970D01*
G01X0925020Y1093730D01*
G01X0924650Y1093420D01*
G01X0924340Y1093060D01*
G01X0924090Y1092650D01*
G01X0923900Y1092210D01*
G01X0923780Y1091750D01*
G01X0923740Y1091270D01*
G01X0923780Y1090800D01*
G01X0923890Y1090330D01*
G01X0924060Y1089890D01*
G01X0924320Y1089490D01*
G01X0925960Y1087020D01*
G01X0927350Y1084400D01*
G01X0928510Y1081660D01*
G01X0929410Y1078840D01*
G01X0930070Y1075940D01*
G01X0930190Y1075040D01*
G01X0930190Y1065040D01*
G01X0930070Y1064130D01*
G01X0929410Y1061240D01*
G01X0928510Y1058410D01*
G01X0927350Y1055680D01*
G01X0925960Y1053060D01*
G01X0924350Y1050570D01*
G01X0924090Y1050170D01*
G01X0923920Y1049740D01*
G01X0923810Y1049280D01*
G01X0923780Y1048800D01*
G01X0923820Y1048330D01*
G01X0923930Y1047880D01*
G01X0924110Y1047440D01*
G01X0924360Y1047040D01*
G01X0924670Y1046680D01*
G01X0925030Y1046380D01*
G01X0925440Y1046140D01*
G01X0925880Y1045960D01*
G01X0926340Y1045850D01*
G01X0926810Y1045820D01*
G01X0927280Y1045860D01*
G01X0927740Y1045970D01*
G01X0928170Y1046160D01*
G01X0928570Y1046410D01*
G01X0928930Y1046710D01*
G01X0929230Y1047080D01*
G01X0930190Y1048520D01*
G01X0930190Y1032500D01*
G01X0930000Y1032500D01*
G01X0926470Y1032290D01*
G01X0923030Y1031460D01*
G01X0919750Y1030110D01*
G01X0916730Y1028260D01*
G01X0914040Y1025960D01*
G01X0911740Y1023270D01*
G01X0910130Y1020630D01*
G01X0910130Y1032760D01*
G01X0910850Y1033000D01*
G01X0914080Y1034360D01*
G01X0917170Y1036000D01*
G01X0920110Y1037910D01*
G01X0920470Y1038210D01*
G01X0920790Y1038570D01*
G01X0921040Y1038980D01*
G01X0921220Y1039420D01*
G01X0921340Y1039880D01*
G01X0921380Y1040360D01*
G01X0921350Y1040830D01*
G01X0921240Y1041300D01*
G01X0921060Y1041740D01*
G01X0920810Y1042150D01*
G01X0920510Y1042510D01*
G01X0920140Y1042830D01*
G01X0919740Y1043080D01*
G01X0919300Y1043270D01*
G01X0918840Y1043380D01*
G01X0918360Y1043420D01*
G01X0917890Y1043390D01*
G01X0917420Y1043280D01*
G01X0916980Y1043100D01*
G01X0916570Y1042850D01*
G01X0914110Y1041200D01*
G01X0911480Y1039810D01*
G01X0910130Y1039240D01*
G01X0910130Y1069530D01*
G01X0910170Y1070040D01*
G01X0910010Y1072080D01*
G01X0910010Y1072080D01*
G01X0909640Y1073590D01*
G01X0909530Y1074070D01*
G01X0909200Y1074850D01*
G01X0908740Y1075960D01*
G01X0908330Y1076640D01*
G01X0907680Y1077700D01*
G01X0907670Y1077710D01*
G01X0906350Y1079260D01*
G01X0905960Y1079590D01*
G01X0891720Y1093830D01*
G01X0891390Y1094220D01*
G01X0889830Y1095550D01*
G01X0889830Y1095550D01*
G01X0888760Y1096200D01*
G01X0888090Y1096620D01*
G01X0886980Y1097080D01*
G01X0886200Y1097400D01*
G01X0885720Y1097520D01*
G01X0884210Y1097880D01*
G01X0884200Y1097880D01*
G01X0882170Y1098040D01*
G01X0881660Y1098000D01*
G01X0878830Y1098000D01*
G01X0880150Y1098880D01*
G01X0882770Y1100270D01*
G01X0885500Y1101420D01*
G01X0888330Y1102330D01*
G01X0891220Y1102980D01*
G01X0894160Y1103370D01*
G01X0897130Y1103500D01*
G01X0900090Y1103370D01*
G01X0903030Y1102980D01*
G01X0905930Y1102330D01*
G01X0908750Y1101420D01*
G01X0911480Y1100270D01*
G01X0914110Y1098880D01*
G01X0916590Y1097260D01*
G01X0916990Y1097010D01*
G01X0917430Y1096830D01*
G01X0917890Y1096720D01*
G01X0918360Y1096690D01*
G01X0918830Y1096730D01*
G01X0919290Y1096840D01*
G01X0919720Y1097030D01*
G01X0920130Y1097280D01*
G01X0920480Y1097590D01*
G01X0920790Y1097950D01*
G01X0921030Y1098350D01*
G01X0921210Y1098790D01*
G01X0921310Y1099250D01*
G01X0921350Y1099720D01*
G01X0921310Y1100190D01*
G01X0921190Y1100650D01*
G01X0921010Y1101090D01*
G01X0920760Y1101490D01*
G01X0920450Y1101840D01*
G01X0920080Y1102140D01*
G01X0917170Y1104080D01*
G01X0914080Y1105720D01*
G01X0910850Y1107080D01*
G01X0907510Y1108150D01*
G01X0904100Y1108920D01*
G01X0900630Y1109390D01*
G01X0897130Y1109540D01*
G01X0893630Y1109390D01*
G01X0890160Y1108920D01*
G01X0886740Y1108150D01*
G01X0883400Y1107080D01*
G01X0880180Y1105720D01*
G01X0877080Y1104080D01*
G01X0874150Y1102170D01*
G01X0873780Y1101870D01*
G01X0873470Y1101510D01*
G01X0873210Y1101100D01*
G01X0873030Y1100660D01*
G01X0872910Y1100200D01*
G01X0872870Y1099720D01*
G01X0872910Y1099250D01*
G01X0873010Y1098780D01*
G01X0873190Y1098340D01*
G01X0873400Y1098000D01*
G01X0705380Y1098000D01*
G01X0693000Y1110380D01*
G01X0693000Y1159490D01*
G01X0693040Y1160000D01*
G01X0692880Y1162040D01*
G01X0692880Y1162040D01*
G01X0692520Y1163550D01*
G01X0692400Y1164030D01*
G01X0692080Y1164810D01*
G01X0691620Y1165920D01*
G01X0691200Y1166600D01*
G01X0690550Y1167660D01*
G01X0690550Y1167670D01*
G01X0689220Y1169220D01*
G01X0688830Y1169550D01*
G01X0679550Y1178830D01*
G01X0679220Y1179220D01*
G01X0677670Y1180550D01*
G01X0677660Y1180550D01*
G01X0676600Y1181200D01*
G01X0675920Y1181620D01*
G01X0674810Y1182080D01*
G01X0674030Y1182400D01*
G01X0673550Y1182520D01*
G01X0672040Y1182880D01*
G01X0672040Y1182880D01*
G01X0670000Y1183040D01*
G01X0669490Y1183000D01*
G01X0515510Y1183000D01*
G01X0515000Y1183040D01*
G01X0512960Y1182880D01*
G01X0510970Y1182400D01*
G01X0509080Y1181620D01*
G01X0507340Y1180550D01*
G01X0507330Y1180550D01*
G01X0505780Y1179220D01*
G01X0505450Y1178830D01*
G01X0496170Y1169550D01*
G01X0495780Y1169220D01*
G01X0494450Y1167660D01*
G01X0493380Y1165920D01*
G01X0492600Y1164030D01*
G01X0492120Y1162040D01*
G01X0492120Y1162040D01*
G01X0491960Y1160000D01*
G01X0492000Y1159490D01*
G01X0492000Y1110380D01*
G01X0464650Y1083040D01*
G01X0430460Y1083040D01*
G01X0430230Y1083760D01*
G01X0428870Y1086990D01*
G01X0427230Y1090080D01*
G01X0425320Y1093020D01*
G01X0425020Y1093390D01*
G01X0424660Y1093700D01*
G01X0424250Y1093950D01*
G01X0423810Y1094140D01*
G01X0423350Y1094250D01*
G01X0422870Y1094290D01*
G01X0422400Y1094260D01*
G01X0421930Y1094150D01*
G01X0421490Y1093970D01*
G01X0421080Y1093730D01*
G01X0420710Y1093420D01*
G01X0420400Y1093060D01*
G01X0420150Y1092650D01*
G01X0419960Y1092210D01*
G01X0419850Y1091750D01*
G01X0419810Y1091270D01*
G01X0419840Y1090800D01*
G01X0419950Y1090330D01*
G01X0420130Y1089890D01*
G01X0420380Y1089490D01*
G01X0422030Y1087020D01*
G01X0423420Y1084400D01*
G01X0423990Y1083040D01*
G01X0393700Y1083040D01*
G01X0393190Y1083080D01*
G01X0393170Y1083080D01*
G01X0393170Y1103500D01*
G01X0393190Y1103500D01*
G01X0396150Y1103370D01*
G01X0399090Y1102980D01*
G01X0401990Y1102330D01*
G01X0404810Y1101420D01*
G01X0407550Y1100270D01*
G01X0410170Y1098880D01*
G01X0412660Y1097260D01*
G01X0413060Y1097010D01*
G01X0413490Y1096830D01*
G01X0413950Y1096720D01*
G01X0414420Y1096690D01*
G01X0414890Y1096730D01*
G01X0415350Y1096840D01*
G01X0415790Y1097030D01*
G01X0416190Y1097280D01*
G01X0416550Y1097590D01*
G01X0416850Y1097950D01*
G01X0417090Y1098350D01*
G01X0417270Y1098790D01*
G01X0417380Y1099250D01*
G01X0417410Y1099720D01*
G01X0417370Y1100190D01*
G01X0417260Y1100650D01*
G01X0417070Y1101090D01*
G01X0416820Y1101490D01*
G01X0416510Y1101840D01*
G01X0416150Y1102140D01*
G01X0413230Y1104080D01*
G01X0410140Y1105720D01*
G01X0406910Y1107080D01*
G01X0403580Y1108150D01*
G01X0400160Y1108920D01*
G01X0396690Y1109390D01*
G01X0393190Y1109540D01*
G01X0393170Y1109540D01*
G01X0393170Y1230000D01*
G37*
G36*
G01X0930190Y1230000D02*
G01X0965310Y1230000D01*
G01X0965310Y1032500D01*
G01X0930190Y1032500D01*
G01X0930190Y1048520D01*
G01X0931170Y1050000D01*
G01X0932810Y1053090D01*
G01X0934170Y1056320D01*
G01X0935240Y1059650D01*
G01X0936010Y1063070D01*
G01X0936470Y1066540D01*
G01X0936630Y1070040D01*
G01X0936470Y1073540D01*
G01X0936010Y1077010D01*
G01X0935240Y1080430D01*
G01X0934170Y1083760D01*
G01X0932810Y1086990D01*
G01X0931170Y1090080D01*
G01X0930190Y1091590D01*
G01X0930190Y1230000D01*
G37*
G36*
G01X0930190Y1075040D02*
G01X0930460Y1073000D01*
G01X0930590Y1070040D01*
G01X0930460Y1067080D01*
G01X0930190Y1065040D01*
G01X0930190Y1075040D01*
G37*
G36*
G01X0325310Y0743700D02*
G01X0325310Y0909690D01*
G01X0326400Y0907110D01*
G01X0329100Y0902010D01*
G01X0332230Y0897180D01*
G01X0332740Y0896560D01*
G01X0333340Y0896040D01*
G01X0334010Y0895620D01*
G01X0334740Y0895310D01*
G01X0335510Y0895120D01*
G01X0336310Y0895050D01*
G01X0337100Y0895100D01*
G01X0337880Y0895280D01*
G01X0338610Y0895580D01*
G01X0339290Y0895990D01*
G01X0339900Y0896500D01*
G01X0340430Y0897100D01*
G01X0340850Y0897770D01*
G01X0341160Y0898500D01*
G01X0341350Y0899280D01*
G01X0341420Y0900070D01*
G01X0341370Y0900860D01*
G01X0341190Y0901640D01*
G01X0340890Y0902370D01*
G01X0340470Y0903050D01*
G01X0337780Y0907110D01*
G01X0335500Y0911410D01*
G01X0333610Y0915910D01*
G01X0332130Y0920550D01*
G01X0331060Y0925300D01*
G01X0330410Y0930130D01*
G01X0330200Y0935000D01*
G01X0330410Y0939870D01*
G01X0331060Y0944700D01*
G01X0332130Y0949450D01*
G01X0333610Y0954090D01*
G01X0335500Y0958590D01*
G01X0337780Y0962890D01*
G01X0340430Y0966980D01*
G01X0340840Y0967650D01*
G01X0341140Y0968380D01*
G01X0341310Y0969150D01*
G01X0341370Y0969930D01*
G01X0341300Y0970720D01*
G01X0341110Y0971480D01*
G01X0340800Y0972200D01*
G01X0340380Y0972870D01*
G01X0339870Y0973460D01*
G01X0339260Y0973970D01*
G01X0338590Y0974370D01*
G01X0337860Y0974670D01*
G01X0337090Y0974850D01*
G01X0336310Y0974900D01*
G01X0335520Y0974830D01*
G01X0334760Y0974640D01*
G01X0334040Y0974330D01*
G01X0333370Y0973910D01*
G01X0332770Y0973400D01*
G01X0332280Y0972790D01*
G01X0329100Y0967990D01*
G01X0326400Y0962890D01*
G01X0325310Y0960310D01*
G01X0325310Y0992500D01*
G01X0354750Y0992500D01*
G01X0352330Y0991220D01*
G01X0347490Y0988090D01*
G01X0346880Y0987580D01*
G01X0346360Y0986980D01*
G01X0345930Y0986300D01*
G01X0345620Y0985570D01*
G01X0345430Y0984800D01*
G01X0345360Y0984010D01*
G01X0345420Y0983220D01*
G01X0345590Y0982440D01*
G01X0345890Y0981700D01*
G01X0346300Y0981020D01*
G01X0346810Y0980410D01*
G01X0347410Y0979890D01*
G01X0348090Y0979470D01*
G01X0348820Y0979160D01*
G01X0349590Y0978960D01*
G01X0350380Y0978890D01*
G01X0351180Y0978950D01*
G01X0351950Y0979130D01*
G01X0352690Y0979420D01*
G01X0353360Y0979850D01*
G01X0357420Y0982540D01*
G01X0361730Y0984820D01*
G01X0366220Y0986710D01*
G01X0370860Y0988190D01*
G01X0375620Y0989260D01*
G01X0380190Y0989870D01*
G01X0380190Y0948260D01*
G01X0376480Y0944550D01*
G01X0376090Y0944220D01*
G01X0374770Y0942660D01*
G01X0373700Y0940920D01*
G01X0372910Y0939030D01*
G01X0372440Y0937040D01*
G01X0372440Y0937040D01*
G01X0372270Y0935000D01*
G01X0372310Y0934490D01*
G01X0372310Y0881480D01*
G01X0370860Y0881810D01*
G01X0366220Y0883290D01*
G01X0361730Y0885180D01*
G01X0357420Y0887460D01*
G01X0353330Y0890110D01*
G01X0352670Y0890530D01*
G01X0351940Y0890820D01*
G01X0351170Y0891000D01*
G01X0350380Y0891050D01*
G01X0349600Y0890980D01*
G01X0348840Y0890790D01*
G01X0348110Y0890490D01*
G01X0347440Y0890070D01*
G01X0346850Y0889550D01*
G01X0346350Y0888950D01*
G01X0345940Y0888270D01*
G01X0345650Y0887540D01*
G01X0345470Y0886780D01*
G01X0345420Y0885990D01*
G01X0345480Y0885210D01*
G01X0345670Y0884440D01*
G01X0345980Y0883720D01*
G01X0346400Y0883050D01*
G01X0346920Y0882460D01*
G01X0347530Y0881970D01*
G01X0352330Y0878780D01*
G01X0357420Y0876090D01*
G01X0362730Y0873850D01*
G01X0368220Y0872100D01*
G01X0372310Y0871180D01*
G01X0372310Y0790700D01*
G01X0325310Y0743700D01*
G37*
G36*
G01X0376350Y0999500D02*
G01X0378260Y1001730D01*
G01X0380110Y1004750D01*
G01X0380190Y1004950D01*
G01X0380190Y0999950D01*
G01X0379560Y0999930D01*
G01X0376350Y0999500D01*
G37*
G36*
G01X0567140Y1080550D02*
G01X0581300Y1080570D01*
G01X0582830Y1080940D01*
G01X0584280Y1081540D01*
G01X0585630Y1082360D01*
G01X0586820Y1083390D01*
G01X0587850Y1084580D01*
G01X0588670Y1085930D01*
G01X0589270Y1087380D01*
G01X0589570Y1088630D01*
G01X0589870Y1087380D01*
G01X0590470Y1085930D01*
G01X0591300Y1084580D01*
G01X0592320Y1083390D01*
G01X0593510Y1082360D01*
G01X0594860Y1081540D01*
G01X0596310Y1080940D01*
G01X0597840Y1080570D01*
G01X0599410Y1080480D01*
G01X0611180Y1080500D01*
G01X0613210Y1078770D01*
G01X0615890Y1077120D01*
G01X0618800Y1075920D01*
G01X0621860Y1075190D01*
G01X0625000Y1074940D01*
G01X0628140Y1075190D01*
G01X0631200Y1075920D01*
G01X0634110Y1077120D01*
G01X0636790Y1078770D01*
G01X0638880Y1080550D01*
G01X0652160Y1080570D01*
G01X0653690Y1080940D01*
G01X0655140Y1081540D01*
G01X0656490Y1082360D01*
G01X0657680Y1083390D01*
G01X0658710Y1084580D01*
G01X0659530Y1085930D01*
G01X0660130Y1087380D01*
G01X0660500Y1088910D01*
G01X0660590Y1090480D01*
G01X0660500Y1151090D01*
G01X0660130Y1152620D01*
G01X0659530Y1154070D01*
G01X0658710Y1155420D01*
G01X0657680Y1156610D01*
G01X0657230Y1157000D01*
G01X0664620Y1157000D01*
G01X0667000Y1154620D01*
G01X0667000Y1105510D01*
G01X0666960Y1105000D01*
G01X0667120Y1102960D01*
G01X0667120Y1102960D01*
G01X0667600Y1100970D01*
G01X0668380Y1099080D01*
G01X0668790Y1098420D01*
G01X0669450Y1097340D01*
G01X0669450Y1097330D01*
G01X0670780Y1095780D01*
G01X0671170Y1095450D01*
G01X0690450Y1076170D01*
G01X0690780Y1075780D01*
G01X0691690Y1075000D01*
G01X0691310Y1075030D01*
G01X0690920Y1075000D01*
G01X0679710Y1075000D01*
G01X0679310Y1075030D01*
G01X0678920Y1075000D01*
G01X0667710Y1075000D01*
G01X0667320Y1075030D01*
G01X0666920Y1075000D01*
G01X0664710Y1075000D01*
G01X0664310Y1075030D01*
G01X0662750Y1074910D01*
G01X0661220Y1074540D01*
G01X0659760Y1073940D01*
G01X0658420Y1073120D01*
G01X0658420Y1073110D01*
G01X0657220Y1072090D01*
G01X0656970Y1071790D01*
G01X0655070Y1069900D01*
G01X0653840Y1070400D01*
G01X0651850Y1070880D01*
G01X0649810Y1071000D01*
G01X0567140Y1071000D01*
G01X0567140Y1080550D01*
G37*
G36*
G01X0771910Y0946500D02*
G01X0787460Y0946500D01*
G01X0787740Y0945810D01*
G01X0788320Y0944870D01*
G01X0789040Y0944040D01*
G01X0789870Y0943320D01*
G01X0790810Y0942740D01*
G01X0791830Y0942320D01*
G01X0792900Y0942060D01*
G01X0794000Y0942000D01*
G01X0801100Y0942060D01*
G01X0802170Y0942320D01*
G01X0803190Y0942740D01*
G01X0803500Y0942940D01*
G01X0803810Y0942740D01*
G01X0804830Y0942320D01*
G01X0805900Y0942060D01*
G01X0807000Y0942000D01*
G01X0812000Y0942050D01*
G01X0812000Y0923580D01*
G01X0810950Y0924810D01*
G01X0806690Y0928450D01*
G01X0801920Y0931380D01*
G01X0796740Y0933520D01*
G01X0791290Y0934830D01*
G01X0785710Y0935270D01*
G01X0780120Y0934830D01*
G01X0774680Y0933520D01*
G01X0769500Y0931380D01*
G01X0764720Y0928450D01*
G01X0760460Y0924810D01*
G01X0758120Y0922070D01*
G01X0732980Y0922070D01*
G01X0730640Y0924810D01*
G01X0726380Y0928450D01*
G01X0722140Y0931050D01*
G01X0723270Y0931740D01*
G01X0725910Y0934090D01*
G01X0730120Y0938300D01*
G01X0734520Y0936480D01*
G01X0739970Y0935170D01*
G01X0745550Y0934730D01*
G01X0751140Y0935170D01*
G01X0756580Y0936480D01*
G01X0761760Y0938620D01*
G01X0766540Y0941550D01*
G01X0770800Y0945190D01*
G01X0771910Y0946500D01*
G37*
G36*
G01X0597500Y0800000D02*
G01X0597500Y0818500D01*
G01X0607130Y0818500D01*
G01X0606730Y0818260D01*
G01X0604040Y0815960D01*
G01X0601740Y0813270D01*
G01X0599890Y0810250D01*
G01X0598540Y0806970D01*
G01X0597710Y0803530D01*
G01X0597500Y0800000D01*
G37*
G36*
G01X0629540Y0970400D02*
G01X0626970Y0971460D01*
G01X0623530Y0972290D01*
G01X0620390Y0972480D01*
G01X0620180Y0976020D01*
G01X0618870Y0981470D01*
G01X0618420Y0982550D01*
G01X0620000Y0982430D01*
G01X0623530Y0982710D01*
G01X0626970Y0983540D01*
G01X0630250Y0984890D01*
G01X0633270Y0986740D01*
G01X0633730Y0987140D01*
G01X0633430Y0986640D01*
G01X0631280Y0981470D01*
G01X0629980Y0976020D01*
G01X0629540Y0970430D01*
G01X0629540Y0970400D01*
G37*
G36*
G01X0501010Y1005850D02*
G01X0476570Y1030290D01*
G01X0476000Y1030960D01*
G01X0473310Y1033260D01*
G01X0473310Y1033260D01*
G01X0472160Y1033960D01*
G01X0470290Y1035110D01*
G01X0467970Y1036070D01*
G01X0467010Y1036460D01*
G01X0463570Y1037290D01*
G01X0460040Y1037570D01*
G01X0459160Y1037500D01*
G01X0425000Y1037500D01*
G01X0421470Y1037290D01*
G01X0418030Y1036460D01*
G01X0414750Y1035110D01*
G01X0411730Y1033260D01*
G01X0409040Y1030960D01*
G01X0406740Y1028270D01*
G01X0406190Y1027370D01*
G01X0406190Y1032760D01*
G01X0406910Y1033000D01*
G01X0410140Y1034360D01*
G01X0413230Y1036000D01*
G01X0416170Y1037910D01*
G01X0416540Y1038210D01*
G01X0416850Y1038570D01*
G01X0417100Y1038980D01*
G01X0417290Y1039420D01*
G01X0417400Y1039880D01*
G01X0417440Y1040360D01*
G01X0417410Y1040830D01*
G01X0417300Y1041300D01*
G01X0417120Y1041740D01*
G01X0416880Y1042150D01*
G01X0416570Y1042510D01*
G01X0416210Y1042830D01*
G01X0415800Y1043080D01*
G01X0415360Y1043270D01*
G01X0414900Y1043380D01*
G01X0414420Y1043420D01*
G01X0413950Y1043390D01*
G01X0413480Y1043280D01*
G01X0413040Y1043100D01*
G01X0412640Y1042850D01*
G01X0410170Y1041200D01*
G01X0407550Y1039810D01*
G01X0406190Y1039240D01*
G01X0406190Y1057040D01*
G01X0423990Y1057040D01*
G01X0423420Y1055680D01*
G01X0422030Y1053060D01*
G01X0420410Y1050570D01*
G01X0420160Y1050170D01*
G01X0419980Y1049740D01*
G01X0419870Y1049280D01*
G01X0419840Y1048800D01*
G01X0419880Y1048330D01*
G01X0419990Y1047880D01*
G01X0420180Y1047440D01*
G01X0420430Y1047040D01*
G01X0420740Y1046680D01*
G01X0421100Y1046380D01*
G01X0421500Y1046140D01*
G01X0421940Y1045960D01*
G01X0422400Y1045850D01*
G01X0422870Y1045820D01*
G01X0423340Y1045860D01*
G01X0423800Y1045970D01*
G01X0424230Y1046160D01*
G01X0424640Y1046410D01*
G01X0424990Y1046710D01*
G01X0425290Y1047080D01*
G01X0427230Y1050000D01*
G01X0428870Y1053090D01*
G01X0430230Y1056320D01*
G01X0430460Y1057040D01*
G01X0469530Y1057040D01*
G01X0470040Y1057000D01*
G01X0472080Y1057160D01*
G01X0472080Y1057160D01*
G01X0474070Y1057640D01*
G01X0475960Y1058420D01*
G01X0477700Y1059490D01*
G01X0479260Y1060820D01*
G01X0479590Y1061210D01*
G01X0513830Y1095450D01*
G01X0514220Y1095780D01*
G01X0515550Y1097330D01*
G01X0515550Y1097340D01*
G01X0516620Y1099080D01*
G01X0517400Y1100970D01*
G01X0517880Y1102960D01*
G01X0518040Y1105000D01*
G01X0518000Y1105510D01*
G01X0518000Y1154620D01*
G01X0520380Y1157000D01*
G01X0521910Y1157000D01*
G01X0521460Y1156610D01*
G01X0520440Y1155420D01*
G01X0519610Y1154070D01*
G01X0519010Y1152620D01*
G01X0518640Y1151090D01*
G01X0518550Y1149520D01*
G01X0518640Y1088910D01*
G01X0519010Y1087380D01*
G01X0519610Y1085930D01*
G01X0520440Y1084580D01*
G01X0521460Y1083390D01*
G01X0522650Y1082360D01*
G01X0524000Y1081540D01*
G01X0525450Y1080940D01*
G01X0526980Y1080570D01*
G01X0528550Y1080480D01*
G01X0541140Y1080500D01*
G01X0541140Y1062980D01*
G01X0540890Y1062880D01*
G01X0538210Y1061230D01*
G01X0535810Y1059190D01*
G01X0533770Y1056790D01*
G01X0532120Y1054110D01*
G01X0530920Y1051200D01*
G01X0530190Y1048140D01*
G01X0529940Y1045000D01*
G01X0530190Y1041860D01*
G01X0530920Y1038800D01*
G01X0532120Y1035890D01*
G01X0533770Y1033210D01*
G01X0535810Y1030810D01*
G01X0538210Y1028770D01*
G01X0540890Y1027120D01*
G01X0543800Y1025920D01*
G01X0544040Y1025860D01*
G01X0529090Y1010910D01*
G01X0526740Y1008270D01*
G01X0524890Y1005250D01*
G01X0523540Y1001970D01*
G01X0523240Y1000750D01*
G01X0520810Y1002240D01*
G01X0515640Y1004390D01*
G01X0510190Y1005690D01*
G01X0504610Y1006130D01*
G01X0501010Y1005850D01*
G37*
G54D14*
G01X0583620Y0495870D02*
G01X0587560Y0495870D01*
G01X0587560Y0495870D02*
G01X0619060Y0464370D01*
G01X0524570Y0499800D02*
G01X0580200Y0499800D01*
G01X0525000Y0499800D02*
G01X0525000Y0460000D01*
G01X0525000Y0460000D02*
G01X0560000Y0425000D01*
G01X0423620Y0470870D02*
G01X0427560Y0470870D01*
G01X0427560Y0470870D02*
G01X0459060Y0439370D01*
G01X0420200Y0474800D02*
G01X0424130Y0470870D01*
G01X0364570Y0474800D02*
G01X0420200Y0474800D01*
G01X0365000Y0474800D02*
G01X0365000Y0435000D01*
G01X0365000Y0435000D02*
G01X0400000Y0400000D01*
G01X0365000Y0475240D02*
G01X0364570Y0474800D01*
G54D11*
G01X0330000Y0730000D02*
G01X0330000Y0510000D01*
G01X0330000Y0510000D02*
G01X0315000Y0495000D01*
G01X0315000Y0495000D02*
G01X0315000Y0365000D01*
G01X0315000Y0365000D02*
G01X0295000Y0345000D01*
G01X0295000Y0345000D02*
G01X0185000Y0345000D01*
G01X0185000Y0345000D02*
G01X0165000Y0325000D01*
G01X0165000Y0325000D02*
G01X0165000Y0275240D01*
G01X0165000Y0275240D02*
G01X0164570Y0274800D01*
G54D14*
G01X0200000Y0200000D02*
G01X0165000Y0235000D01*
G01X0165000Y0235000D02*
G01X0165000Y0280000D01*
G01X0165000Y0280000D02*
G01X0214490Y0280000D01*
G01X0259060Y0239370D02*
G01X0255120Y0239370D01*
G01X0214490Y0280000D02*
G01X0255120Y0239370D01*
G01X0575000Y0841000D02*
G01X0575000Y0710000D01*
G01X0555000Y0840000D02*
G01X0555000Y0715000D01*
G01X0575000Y0710000D02*
G01X0555000Y0690000D01*
G01X0545000Y0665000D02*
G01X0545000Y0680000D01*
G01X0545000Y0680000D02*
G01X0560000Y0695000D01*
G01X0555000Y0715000D02*
G01X0535000Y0695000D01*
G01X0535000Y0695000D02*
G01X0535000Y0675000D01*
G01X0535000Y0675000D02*
G01X0545000Y0665000D01*
G01X0747560Y0495870D02*
G01X0779060Y0464370D01*
G01X0903620Y0470870D02*
G01X0907560Y0470870D01*
G01X0907560Y0470870D02*
G01X0939060Y0439370D01*
G01X0844570Y0474800D02*
G01X0900200Y0474800D01*
G01X0845000Y0474800D02*
G01X0845000Y0435000D01*
G01X0845000Y0435000D02*
G01X0880000Y0400000D01*
G01X0845000Y0475240D02*
G01X0844570Y0474800D01*
G54D11*
G01X0960000Y0510000D02*
G01X0975000Y0495000D01*
G54D14*
G01X0684570Y0499800D02*
G01X0684570Y0460430D01*
G01X0720000Y0425000D02*
G01X0684570Y0460430D01*
G01X0684570Y0499800D02*
G01X0743620Y0499800D01*
G01X0743620Y0499800D02*
G01X0746710Y0496710D01*
G54D11*
G01X0975000Y0495000D02*
G01X0975000Y0365000D01*
G01X0975000Y0365000D02*
G01X0995000Y0345000D01*
G01X0995000Y0345000D02*
G01X1025000Y0345000D01*
G01X1025000Y0345000D02*
G01X1045000Y0325000D01*
G01X1045000Y0325000D02*
G01X1045000Y0275240D01*
G01X1045000Y0275240D02*
G01X1044570Y0274800D01*
G54D14*
G01X1044570Y0274800D02*
G01X1044570Y0235430D01*
G01X1044570Y0235430D02*
G01X1080000Y0200000D01*
G01X1044570Y0274800D02*
G01X1099690Y0274800D01*
G01X1139060Y0239370D02*
G01X1135120Y0239370D01*
G01X1099690Y0274800D02*
G01X1135120Y0239370D01*
G54D11*
G01X0897130Y1070040D02*
G01X0897130Y0942870D01*
G01X0882170Y1085000D02*
G01X0897130Y1070040D01*
G01X0897130Y0942870D02*
G01X0905000Y0935000D01*
G01X0897130Y0940000D02*
G01X0897130Y0792870D01*
G01X0897130Y0792870D02*
G01X0960000Y0730000D01*
G01X0960000Y0730000D02*
G01X0960000Y0510000D01*
G01X0625000Y1095000D02*
G01X0625000Y1120000D01*
G01X0515000Y1170000D02*
G01X0670000Y1170000D01*
G01X0670000Y1170000D02*
G01X0680000Y1160000D01*
G01X0680000Y1160000D02*
G01X0680000Y1105000D01*
G01X0680000Y1105000D02*
G01X0700000Y1085000D01*
G01X0700000Y1085000D02*
G01X0882170Y1085000D01*
G54D14*
G01X1044570Y1144800D02*
G01X1044570Y1105430D01*
G01X1044570Y1105430D02*
G01X1080000Y1070000D01*
G01X1044570Y1144800D02*
G01X1099690Y1144800D01*
G01X1139060Y1109370D02*
G01X1135120Y1109370D01*
G01X1099690Y1144800D02*
G01X1135120Y1109370D01*
G01X0930000Y1010000D02*
G01X0985000Y1010000D01*
G01X0985000Y1010000D02*
G01X0990000Y1015000D01*
G01X0990000Y1015000D02*
G01X0990000Y1150000D01*
G01X0990000Y1150000D02*
G01X0995000Y1155000D01*
G01X0995000Y1155000D02*
G01X1034370Y1155000D01*
G01X1034370Y1155000D02*
G01X1044570Y1144800D01*
G54D11*
G01X0544760Y0899570D02*
G01X0544760Y0984760D01*
G01X0544760Y0984760D02*
G01X0570000Y1010000D01*
G01X0570000Y1010000D02*
G01X0615000Y1010000D01*
G01X0649810Y1058000D02*
G01X0563000Y1058000D01*
G01X0563000Y1058000D02*
G01X0550000Y1045000D01*
G01X0615000Y1010000D02*
G01X0620000Y1005000D01*
G01X0664880Y0970430D02*
G01X0650310Y0985000D01*
G01X0650310Y0985000D02*
G01X0650310Y1045000D01*
G54D14*
G01X0610000Y1015000D02*
G01X0620000Y1005000D01*
G01X0645000Y0841000D02*
G01X0575000Y0841000D01*
G01X0605350Y0950000D02*
G01X0620000Y0950000D01*
G54D15*
G01X0640000Y0940000D02*
G01X0615350Y0940000D01*
G01X0655000Y0925000D02*
G01X0640000Y0940000D01*
G54D11*
G01X0756480Y0959500D02*
G01X0745550Y0970430D01*
G54D14*
G01X0745550Y0970430D02*
G01X0725430Y0970430D01*
G01X0725430Y0970430D02*
G01X0725430Y0965430D01*
G54D11*
G01X0797000Y0959500D02*
G01X0756480Y0959500D01*
G01X0810000Y0960000D02*
G01X0820000Y0960000D01*
G01X0820000Y0960000D02*
G01X0825000Y0955000D01*
G01X0825000Y0955000D02*
G01X0825000Y0910000D01*
G01X0825000Y0910000D02*
G01X0815000Y0900000D01*
G01X0815000Y0900000D02*
G01X0786140Y0900000D01*
G01X0786140Y0900000D02*
G01X0785710Y0899570D01*
G54D14*
G01X0725430Y0965430D02*
G01X0710000Y0950000D01*
G01X0785710Y0899570D02*
G01X0705390Y0899570D01*
G01X0795000Y0830000D02*
G01X0685000Y0830000D01*
G01X0710310Y0899570D02*
G01X0710750Y0899570D01*
G01X0665000Y0876000D02*
G01X0665000Y0880000D01*
G01X0665000Y0873000D02*
G01X0665000Y0861000D01*
G01X0665000Y0861000D02*
G01X0645000Y0841000D01*
G54D15*
G01X0665000Y0919000D02*
G01X0665000Y0876000D01*
G54D14*
G01X0665000Y0925000D02*
G01X0665000Y0919000D01*
G54D15*
G01X0675000Y0925000D02*
G01X0655000Y0925000D01*
G54D14*
G01X0665000Y0925000D02*
G01X0666000Y0925000D01*
G54D15*
G01X0687000Y0937000D02*
G01X0675000Y0925000D01*
G01X0692000Y0937000D02*
G01X0687000Y0937000D01*
G01X0705000Y0950000D02*
G01X0692000Y0937000D01*
G01X0710000Y0950000D02*
G01X0705000Y0950000D01*
G54D14*
G01X0685000Y0830000D02*
G01X0675000Y0820000D01*
G01X0735000Y0790000D02*
G01X0735000Y0665000D01*
G01X0675000Y0820000D02*
G01X0675000Y0660000D01*
G01X0620000Y0800000D02*
G01X0620000Y0660000D01*
G54D11*
G01X0393190Y0942870D02*
G01X0385310Y0935000D01*
G01X0385310Y0935000D02*
G01X0385310Y0785310D01*
G01X0385310Y0785310D02*
G01X0330000Y0730000D01*
G01X0393190Y1070040D02*
G01X0393190Y0942870D01*
G01X0393190Y1070040D02*
G01X0470040Y1070040D01*
G01X0470040Y1070040D02*
G01X0505000Y1105000D01*
G01X0505000Y1105000D02*
G01X0505000Y1160000D01*
G01X0505000Y1160000D02*
G01X0515000Y1170000D01*
G01X0554140Y1120000D02*
G01X0554140Y1049140D01*
G01X0554140Y1049140D02*
G01X0550000Y1045000D01*
G54D14*
G01X0425000Y1015000D02*
G01X0460040Y1015000D01*
G01X0164570Y1144800D02*
G01X0164570Y1105430D01*
G01X0164570Y1105430D02*
G01X0200000Y1070000D01*
G01X0164570Y1145000D02*
G01X0180000Y1145000D01*
G54D15*
G01X0164570Y1145430D02*
G01X0164570Y1154570D01*
G54D14*
G01X0164570Y1144800D02*
G01X0219690Y1144800D01*
G01X0259060Y1109370D02*
G01X0255120Y1109370D01*
G01X0219690Y1144800D02*
G01X0255120Y1109370D01*
G01X0180000Y1145000D02*
G01X0205000Y1170000D01*
G01X0205000Y1170000D02*
G01X0280000Y1170000D01*
G01X0280000Y1170000D02*
G01X0295000Y1155000D01*
G01X0295000Y1155000D02*
G01X0295000Y1020000D01*
G01X0295000Y1020000D02*
G01X0300000Y1015000D01*
G01X0300000Y1015000D02*
G01X0360000Y1015000D01*
G01X0460040Y1015000D02*
G01X0504610Y0970430D01*
G01X0545000Y0900000D02*
G01X0545000Y0940000D01*
G54D15*
G01X0585000Y0920000D02*
G01X0585000Y0880000D01*
G54D14*
G01X0585000Y0920000D02*
G01X0585000Y0970350D01*
G54D15*
G01X0545000Y0940000D02*
G01X0545000Y0995000D01*
G54D14*
G01X0545000Y0995000D02*
G01X0565000Y1015000D01*
G01X0565000Y1015000D02*
G01X0610000Y1015000D01*
G01X0584920Y0970430D02*
G01X0605350Y0950000D01*
G01X0585000Y0970350D02*
G01X0584920Y0970430D01*
G54D15*
G01X0615350Y0940000D02*
G01X0584920Y0970430D01*
G54D14*
G01X0585000Y0851000D02*
G01X0575000Y0841000D01*
G01X0585000Y0880000D02*
G01X0585000Y0851000D01*
G01X0585000Y0865000D02*
G01X0580000Y0865000D01*
G01X0580000Y0865000D02*
G01X0555000Y0840000D01*
G54D16*
G01X1080000Y1070000D03*
G54D17*
G01X1044570Y1144800D03*
G54D18*
G01X1103620Y1140870D03*
G54D19*
G01X1139060Y1109370D03*
G54D17*
G01X0897130Y1070040D03*
G54D20*
G01X0905000Y0935000D03*
G54D16*
G01X1080000Y0200000D03*
G54D17*
G01X1044570Y0274800D03*
G54D18*
G01X1103620Y0270870D03*
G54D19*
G01X1139060Y0239370D03*
G54D18*
G01X0743620Y0495870D03*
G54D19*
G01X0779060Y0464370D03*
G54D17*
G01X0844570Y0474800D03*
G54D18*
G01X0903620Y0470870D03*
G54D21*
G01X0820350Y0710200D03*
G01X0920750Y0710200D03*
G54D16*
G01X0200000Y1070000D03*
G54D17*
G01X0164570Y1144800D03*
G54D18*
G01X0223620Y1140870D03*
G54D19*
G01X0259060Y1109370D03*
G54D17*
G01X0393190Y1070040D03*
G54D20*
G01X0385310Y0935000D03*
G54D21*
G01X0584920Y0970430D03*
G01X0504610Y0970430D03*
G01X0544760Y0899570D03*
G01X0665240Y0970430D03*
G01X0745550Y0970430D03*
G01X0625080Y0899570D03*
G01X0705390Y0899570D03*
G01X0785710Y0899570D03*
G54D16*
G01X0200000Y0200000D03*
G54D17*
G01X0164570Y0274800D03*
G54D18*
G01X0223620Y0270870D03*
G54D19*
G01X0259060Y0239370D03*
G54D16*
G01X0720000Y0425000D03*
G01X0880000Y0400000D03*
G54D19*
G01X0939060Y0439370D03*
G54D16*
G01X0560000Y0425000D03*
G01X0400000Y0400000D03*
G54D19*
G01X0459060Y0439370D03*
G54D17*
G01X0684570Y0499800D03*
G01X0524570Y0499800D03*
G54D18*
G01X0583620Y0495870D03*
G54D19*
G01X0619060Y0464370D03*
G54D17*
G01X0364570Y0474800D03*
G54D18*
G01X0423620Y0470870D03*
G54D21*
G01X0369570Y0710200D03*
G01X0469960Y0710200D03*
G54D13*
G36*
G01X0579730Y1149520D02*
G01X0528550Y1149520D01*
G01X0528550Y1090480D01*
G01X0579730Y1090480D01*
G01X0579730Y1149520D01*
G37*
G36*
G01X0650590Y1149520D02*
G01X0599410Y1149520D01*
G01X0599410Y1090480D01*
G01X0650590Y1090480D01*
G01X0650590Y1149520D01*
G37*
G54D11*
G01X0664310Y1065000D02*
G01X0694310Y1065000D01*
G01X0694310Y1065000D02*
G01X0701310Y1058000D01*
G54D13*
G36*
G01X0698310Y1061000D02*
G01X0698310Y1055000D01*
G01X0709310Y1055000D01*
G01X0709310Y1061000D01*
G01X0698310Y1061000D01*
G37*
G54D11*
G01X0685310Y1059000D02*
G01X0691310Y1065000D01*
G01X0679310Y1065000D02*
G01X0685310Y1059000D01*
G01X0657310Y1058000D02*
G01X0664310Y1065000D01*
G54D13*
G36*
G01X0639310Y1061000D02*
G01X0639310Y1055000D01*
G01X0660310Y1055000D01*
G01X0660310Y1061000D01*
G01X0639310Y1061000D01*
G37*
G54D11*
G01X0667310Y1065000D02*
G01X0673310Y1059000D01*
G01X0673310Y1059000D02*
G01X0679310Y1065000D01*
G01X0664310Y1039000D02*
G01X0695310Y1039000D01*
G01X0664310Y1039000D02*
G01X0666310Y1039000D01*
G01X0695310Y1039000D02*
G01X0701310Y1045000D01*
G54D13*
G36*
G01X0698310Y1048000D02*
G01X0698310Y1042000D01*
G01X0709310Y1042000D01*
G01X0709310Y1048000D01*
G01X0698310Y1048000D01*
G37*
G54D11*
G01X0658310Y1045000D02*
G01X0664310Y1039000D01*
G54D13*
G36*
G01X0639310Y1048000D02*
G01X0639310Y1042000D01*
G01X0661310Y1042000D01*
G01X0661310Y1048000D01*
G01X0639310Y1048000D01*
G37*
G54D11*
G01X0666310Y1039000D02*
G01X0673310Y1046000D01*
G01X0673310Y1046000D02*
G01X0680310Y1039000D01*
G01X0678310Y1039000D02*
G01X0685310Y1046000D01*
G01X0685310Y1046000D02*
G01X0692310Y1039000D01*
G01X0790000Y1004000D02*
G01X0790000Y0974000D01*
G01X0790000Y1004000D02*
G01X0797000Y1011000D01*
G54D13*
G36*
G01X0800000Y1019000D02*
G01X0794000Y1019000D01*
G01X0794000Y1008000D01*
G01X0800000Y1008000D01*
G01X0800000Y1019000D01*
G37*
G54D11*
G01X0790000Y1001000D02*
G01X0796000Y0995000D01*
G01X0790000Y0989000D02*
G01X0796000Y0995000D01*
G01X0790000Y0974000D02*
G01X0797000Y0967000D01*
G54D13*
G36*
G01X0800000Y0970000D02*
G01X0794000Y0970000D01*
G01X0794000Y0949000D01*
G01X0800000Y0949000D01*
G01X0800000Y0970000D01*
G37*
G54D11*
G01X0790000Y0977000D02*
G01X0796000Y0983000D01*
G01X0790000Y0989000D02*
G01X0796000Y0983000D01*
G01X0816000Y1005000D02*
G01X0816000Y0974000D01*
G01X0816000Y0976000D02*
G01X0816000Y0974000D01*
G01X0810000Y1011000D02*
G01X0816000Y1005000D01*
G54D13*
G36*
G01X0813000Y1019000D02*
G01X0807000Y1019000D01*
G01X0807000Y1008000D01*
G01X0813000Y1008000D01*
G01X0813000Y1019000D01*
G37*
G54D11*
G01X0810000Y0968000D02*
G01X0816000Y0974000D01*
G54D13*
G36*
G01X0813000Y0971000D02*
G01X0807000Y0971000D01*
G01X0807000Y0949000D01*
G01X0813000Y0949000D01*
G01X0813000Y0971000D01*
G37*
G54D11*
G01X0809000Y0983000D02*
G01X0816000Y0976000D01*
G01X0809000Y0983000D02*
G01X0816000Y0990000D01*
G01X0809000Y0995000D02*
G01X0816000Y0988000D01*
G01X0809000Y0995000D02*
G01X0816000Y1002000D01*
G54D22*
G01X0930000Y1010000D03*
G01X0795000Y0830000D03*
G54D23*
G01X0550000Y1045000D03*
G01X0625000Y1095000D03*
G54D22*
G01X0425000Y1015000D03*
G01X0360000Y1015000D03*
G01X0620000Y1005000D03*
G01X0575000Y0835000D03*
G01X0545000Y0665000D03*
G01X0675000Y0820000D03*
G01X0675000Y0660000D03*
G01X0735000Y0790000D03*
G01X0735000Y0665000D03*
G01X0620000Y0800000D03*
G01X0620000Y0660000D03*
G01X0000000Y0000000D02*
G54D11*
G01X1015310Y1265000D02*
G01X0285000Y1265000D01*
G01X1015000Y1265000D02*
G01X1015000Y1205000D01*
G01X1015000Y1205000D02*
G01X1180000Y1205000D01*
G01X1015000Y0405000D02*
G01X1020000Y0400000D01*
G01X1020000Y0400000D02*
G01X1180000Y0400000D01*
G01X1180000Y0400000D02*
G01X1180000Y0135000D01*
G01X1015000Y0405000D02*
G01X1015000Y0940000D01*
G01X1180000Y1205000D02*
G01X1180000Y0940000D01*
G01X1180000Y0940000D02*
G01X1015000Y0940000D01*
G01X1180000Y0135000D02*
G01X0990000Y0135000D01*
G01X0280000Y0400000D02*
G01X0285000Y0405000D01*
G01X0280000Y0400000D02*
G01X0110000Y0400000D01*
G01X0110000Y0400000D02*
G01X0110000Y0135000D01*
G01X0110000Y0135000D02*
G01X0300000Y0135000D01*
G01X0300000Y0135000D02*
G01X0300000Y0280000D01*
G01X0990000Y0135000D02*
G01X0990000Y0280000D01*
G01X0990000Y0280000D02*
G01X0300000Y0280000D01*
G01X0285000Y1265000D02*
G01X0285000Y1205000D01*
G01X0110000Y1205000D02*
G01X0110000Y0940000D01*
G01X0110000Y0940000D02*
G01X0285000Y0940000D01*
G01X0285000Y0940000D02*
G01X0285000Y0405000D01*
G01X0110000Y1205000D02*
G01X0285000Y1205000D01*
G01X0000000Y0000000D02*
G54D31*
G01X1080000Y1070000D03*
G54D32*
G01X1044570Y1144800D03*
G54D33*
G01X1103620Y1140870D03*
G54D34*
G01X1139060Y1109370D03*
G54D32*
G01X0897130Y1070040D03*
G54D35*
G01X0905000Y0935000D03*
G54D31*
G01X1080000Y0200000D03*
G54D32*
G01X1044570Y0274800D03*
G54D33*
G01X1103620Y0270870D03*
G54D34*
G01X1139060Y0239370D03*
G54D33*
G01X0743620Y0495870D03*
G54D34*
G01X0779060Y0464370D03*
G54D32*
G01X0844570Y0474800D03*
G54D33*
G01X0903620Y0470870D03*
G54D36*
G01X0820350Y0710200D03*
G01X0920750Y0710200D03*
G54D31*
G01X0200000Y1070000D03*
G54D32*
G01X0164570Y1144800D03*
G54D33*
G01X0223620Y1140870D03*
G54D34*
G01X0259060Y1109370D03*
G54D32*
G01X0393190Y1070040D03*
G54D35*
G01X0385310Y0935000D03*
G54D36*
G01X0584920Y0970430D03*
G01X0504610Y0970430D03*
G01X0544760Y0899570D03*
G01X0665240Y0970430D03*
G01X0745550Y0970430D03*
G01X0625080Y0899570D03*
G01X0705390Y0899570D03*
G01X0785710Y0899570D03*
G54D31*
G01X0200000Y0200000D03*
G54D32*
G01X0164570Y0274800D03*
G54D33*
G01X0223620Y0270870D03*
G54D34*
G01X0259060Y0239370D03*
G54D31*
G01X0720000Y0425000D03*
G01X0880000Y0400000D03*
G54D34*
G01X0939060Y0439370D03*
G54D31*
G01X0560000Y0425000D03*
G01X0400000Y0400000D03*
G54D34*
G01X0459060Y0439370D03*
G54D32*
G01X0684570Y0499800D03*
G01X0524570Y0499800D03*
G54D33*
G01X0583620Y0495870D03*
G54D34*
G01X0619060Y0464370D03*
G54D32*
G01X0364570Y0474800D03*
G54D33*
G01X0423620Y0470870D03*
G54D36*
G01X0369570Y0710200D03*
G01X0469960Y0710200D03*
G54D13*
G36*
G01X0582730Y1152520D02*
G01X0525550Y1152520D01*
G01X0525550Y1087480D01*
G01X0582730Y1087480D01*
G01X0582730Y1152520D01*
G37*
G36*
G01X0653590Y1152520D02*
G01X0596410Y1152520D01*
G01X0596410Y1087480D01*
G01X0653590Y1087480D01*
G01X0653590Y1152520D01*
G37*
G54D23*
G01X0664310Y1065000D02*
G01X0694310Y1065000D01*
G01X0694310Y1065000D02*
G01X0701310Y1058000D01*
G54D13*
G36*
G01X0691310Y1068000D02*
G01X0691310Y1048000D01*
G01X0716310Y1048000D01*
G01X0716310Y1068000D01*
G01X0691310Y1068000D01*
G37*
G54D23*
G01X0685310Y1059000D02*
G01X0691310Y1065000D01*
G01X0679310Y1065000D02*
G01X0685310Y1059000D01*
G01X0657310Y1058000D02*
G01X0664310Y1065000D01*
G54D13*
G36*
G01X0632310Y1068000D02*
G01X0632310Y1048000D01*
G01X0667310Y1048000D01*
G01X0667310Y1068000D01*
G01X0632310Y1068000D01*
G37*
G54D23*
G01X0667310Y1065000D02*
G01X0673310Y1059000D01*
G01X0673310Y1059000D02*
G01X0679310Y1065000D01*
G01X0664310Y1039000D02*
G01X0695310Y1039000D01*
G01X0664310Y1039000D02*
G01X0666310Y1039000D01*
G01X0695310Y1039000D02*
G01X0701310Y1045000D01*
G54D13*
G36*
G01X0691310Y1055000D02*
G01X0691310Y1035000D01*
G01X0716310Y1035000D01*
G01X0716310Y1055000D01*
G01X0691310Y1055000D01*
G37*
G54D23*
G01X0658310Y1045000D02*
G01X0664310Y1039000D01*
G54D13*
G36*
G01X0632310Y1055000D02*
G01X0632310Y1035000D01*
G01X0668310Y1035000D01*
G01X0668310Y1055000D01*
G01X0632310Y1055000D01*
G37*
G54D23*
G01X0666310Y1039000D02*
G01X0673310Y1046000D01*
G01X0673310Y1046000D02*
G01X0680310Y1039000D01*
G01X0678310Y1039000D02*
G01X0685310Y1046000D01*
G01X0685310Y1046000D02*
G01X0692310Y1039000D01*
G01X0790000Y1004000D02*
G01X0790000Y0974000D01*
G01X0790000Y1004000D02*
G01X0797000Y1011000D01*
G54D13*
G36*
G01X0807000Y1026000D02*
G01X0787000Y1026000D01*
G01X0787000Y1001000D01*
G01X0807000Y1001000D01*
G01X0807000Y1026000D01*
G37*
G54D23*
G01X0790000Y1001000D02*
G01X0796000Y0995000D01*
G01X0790000Y0989000D02*
G01X0796000Y0995000D01*
G01X0790000Y0974000D02*
G01X0797000Y0967000D01*
G54D13*
G36*
G01X0807000Y0977000D02*
G01X0787000Y0977000D01*
G01X0787000Y0942000D01*
G01X0807000Y0942000D01*
G01X0807000Y0977000D01*
G37*
G54D23*
G01X0790000Y0977000D02*
G01X0796000Y0983000D01*
G01X0790000Y0989000D02*
G01X0796000Y0983000D01*
G01X0816000Y1005000D02*
G01X0816000Y0974000D01*
G01X0816000Y0976000D02*
G01X0816000Y0974000D01*
G01X0810000Y1011000D02*
G01X0816000Y1005000D01*
G54D13*
G36*
G01X0820000Y1026000D02*
G01X0800000Y1026000D01*
G01X0800000Y1001000D01*
G01X0820000Y1001000D01*
G01X0820000Y1026000D01*
G37*
G54D23*
G01X0810000Y0968000D02*
G01X0816000Y0974000D01*
G54D13*
G36*
G01X0820000Y0978000D02*
G01X0800000Y0978000D01*
G01X0800000Y0942000D01*
G01X0820000Y0942000D01*
G01X0820000Y0978000D01*
G37*
G54D23*
G01X0809000Y0983000D02*
G01X0816000Y0976000D01*
G01X0809000Y0983000D02*
G01X0816000Y0990000D01*
G01X0809000Y0995000D02*
G01X0816000Y0988000D01*
G01X0809000Y0995000D02*
G01X0816000Y1002000D01*
G01X0000000Y0000000D02*
G54D25*
G01X0550000Y1045000D03*
G01X0625000Y1095000D03*
G54D24*
G01X0360000Y1015000D03*
G01X0425000Y1015000D03*
G01X0545000Y0665000D03*
G01X0575000Y0835000D03*
G01X0620000Y1005000D03*
G01X0620000Y0800000D03*
G01X0620000Y0660000D03*
G01X0675000Y0820000D03*
G01X0675000Y0660000D03*
G01X0735000Y0790000D03*
G01X0735000Y0665000D03*
G01X0795000Y0830000D03*
G01X0930000Y1010000D03*
G54D23*
G01X0259100Y1109400D03*
G01X0259100Y0239400D03*
G01X0459100Y0439400D03*
G01X0619100Y0464400D03*
G01X0779100Y0464400D03*
G01X0939100Y0439400D03*
G01X1139100Y1109400D03*
G01X1139100Y0239400D03*
G54D39*
G01X0223600Y1140900D03*
G01X0223600Y0270900D03*
G01X0423600Y0470900D03*
G01X0583600Y0495900D03*
G01X0743600Y0495900D03*
G01X0903600Y0470900D03*
G01X1103600Y1140900D03*
G01X1103600Y0270900D03*
G54D42*
G01X0369600Y0710200D03*
G01X0470000Y0710200D03*
G01X0504600Y0970400D03*
G01X0544800Y0899600D03*
G01X0584900Y0970400D03*
G01X0625100Y0899600D03*
G01X0665200Y0970400D03*
G01X0705400Y0899600D03*
G01X0745600Y0970400D03*
G01X0785700Y0899600D03*
G01X0820400Y0710200D03*
G01X0920700Y0710200D03*
G54D38*
G01X0164600Y1144800D03*
G01X0164600Y0274800D03*
G01X0364600Y0474800D03*
G01X0524600Y0499800D03*
G01X0684600Y0499800D03*
G01X0844600Y0474800D03*
G01X1044600Y1144800D03*
G01X1044600Y0274800D03*
G54D40*
G01X0393200Y1070000D03*
G01X0897100Y1070000D03*
G54D37*
G01X0200000Y1070000D03*
G01X0200000Y0200000D03*
G01X0400000Y0400000D03*
G01X0560000Y0425000D03*
G01X0720000Y0425000D03*
G01X0880000Y0400000D03*
G01X1080000Y1070000D03*
G01X1080000Y0200000D03*
G54D41*
G01X0385300Y0935000D03*
G01X0905000Y0935000D03*
M02*
