G04 This is an RS-274x file exported by *
G04 gerbv version 2.7.0 *
G04 More information is available about gerbv at *
G04 http://gerbv.geda-project.org/ *
G04 --End of header info--*
%MOIN*%
%FSLAX36Y36*%
%IPPOS*%
G04 --Define apertures--*
%ADD10C,0.0060*%
%ADD11C,0.0030*%
%ADD12C,0.0040*%
%ADD13C,0.0250*%
%ADD14C,0.0100*%
%ADD15C,0.0729*%
%ADD16C,0.1162*%
%ADD17C,0.0572*%
%ADD18C,0.1005*%
%ADD19C,0.0532*%
%ADD20C,0.0454*%
%ADD21C,0.0490*%
%ADD22C,0.0510*%
%ADD23C,0.0940*%
%ADD24C,0.0350*%
%ADD25C,0.0790*%
%ADD26C,0.0300*%
%ADD27C,0.0200*%
G04 --Start main section--*
G54D10*
G01X0326720Y6645430D02*
G01X0310980Y6629690D01*
G01X0326720Y6629690D02*
G01X0310980Y6645430D01*
G54D11*
G01X0612050Y6435000D02*
G01X0615800Y6438750D01*
G01X0606050Y6435000D02*
G01X0612050Y6435000D01*
G01X0606050Y6435000D02*
G01X0600800Y6440250D01*
G01X0600800Y6444750D02*
G01X0600800Y6440250D01*
G01X0600800Y6444750D02*
G01X0606050Y6450000D01*
G01X0606050Y6450000D02*
G01X0612050Y6450000D01*
G01X0615800Y6446250D02*
G01X0612050Y6450000D01*
G01X0615800Y6446250D02*
G01X0615800Y6438750D01*
G01X0595550Y6435000D02*
G01X0600800Y6440250D01*
G01X0589550Y6435000D02*
G01X0595550Y6435000D01*
G01X0589550Y6435000D02*
G01X0585800Y6438750D01*
G01X0585800Y6446250D02*
G01X0585800Y6438750D01*
G01X0585800Y6446250D02*
G01X0589550Y6450000D01*
G01X0589550Y6450000D02*
G01X0595550Y6450000D01*
G01X0600800Y6444750D02*
G01X0595550Y6450000D01*
G01X0612050Y6459000D02*
G01X0589550Y6481500D01*
G01X0615800Y6505500D02*
G01X0615800Y6490500D01*
G01X0615800Y6505500D02*
G01X0612050Y6509250D01*
G01X0603050Y6509250D02*
G01X0612050Y6509250D01*
G01X0599300Y6505500D02*
G01X0603050Y6509250D01*
G01X0599300Y6505500D02*
G01X0599300Y6494250D01*
G01X0585800Y6494250D02*
G01X0615800Y6494250D01*
G01X0585800Y6505500D02*
G01X0585800Y6490500D01*
G01X0585800Y6505500D02*
G01X0589550Y6509250D01*
G01X0589550Y6509250D02*
G01X0595550Y6509250D01*
G01X0599300Y6505500D02*
G01X0595550Y6509250D01*
G01X0604550Y6522000D02*
G01X0615800Y6522000D01*
G01X0604550Y6522000D02*
G01X0600800Y6525750D01*
G01X0600800Y6533250D02*
G01X0600800Y6525750D01*
G01X0600800Y6518250D02*
G01X0604550Y6522000D01*
G01X0566980Y6687180D02*
G01X0536980Y6702180D01*
G01X0536980Y6702180D02*
G01X0536980Y6683430D01*
G01X0563230Y6711180D02*
G01X0540730Y6733680D01*
G01X0536980Y6742680D02*
G01X0551980Y6742680D01*
G01X0551980Y6742680D02*
G01X0566980Y6746430D01*
G01X0566980Y6746430D02*
G01X0551980Y6753930D01*
G01X0551980Y6753930D02*
G01X0566980Y6761430D01*
G01X0566980Y6761430D02*
G01X0551980Y6765180D01*
G01X0536980Y6765180D02*
G01X0551980Y6765180D01*
G01X0566980Y6789180D02*
G01X0566980Y6774180D01*
G01X0566980Y6789180D02*
G01X0563230Y6792930D01*
G01X0554230Y6792930D02*
G01X0563230Y6792930D01*
G01X0550480Y6789180D02*
G01X0554230Y6792930D01*
G01X0550480Y6789180D02*
G01X0550480Y6777930D01*
G01X0536980Y6777930D02*
G01X0566980Y6777930D01*
G01X0536980Y6789180D02*
G01X0536980Y6774180D01*
G01X0536980Y6789180D02*
G01X0540730Y6792930D01*
G01X0540730Y6792930D02*
G01X0546730Y6792930D01*
G01X0550480Y6789180D02*
G01X0546730Y6792930D01*
G01X0555730Y6805680D02*
G01X0566980Y6805680D01*
G01X0555730Y6805680D02*
G01X0551980Y6809430D01*
G01X0551980Y6816930D02*
G01X0551980Y6809430D01*
G01X0551980Y6801930D02*
G01X0555730Y6805680D01*
G01X0513160Y6446250D02*
G01X0516910Y6450000D01*
G01X0513160Y6446250D02*
G01X0513160Y6438750D01*
G01X0516910Y6435000D02*
G01X0513160Y6438750D01*
G01X0516910Y6435000D02*
G01X0539410Y6435000D01*
G01X0539410Y6435000D02*
G01X0543160Y6438750D01*
G01X0526660Y6446250D02*
G01X0530410Y6450000D01*
G01X0526660Y6446250D02*
G01X0526660Y6435000D01*
G01X0543160Y6446250D02*
G01X0543160Y6438750D01*
G01X0543160Y6446250D02*
G01X0539410Y6450000D01*
G01X0530410Y6450000D02*
G01X0539410Y6450000D01*
G01X0539410Y6459000D02*
G01X0516910Y6481500D01*
G01X0516910Y6490500D02*
G01X0539410Y6490500D01*
G01X0516910Y6490500D02*
G01X0513160Y6494250D01*
G01X0513160Y6501750D02*
G01X0513160Y6494250D01*
G01X0513160Y6501750D02*
G01X0516910Y6505500D01*
G01X0516910Y6505500D02*
G01X0539410Y6505500D01*
G01X0543160Y6501750D02*
G01X0539410Y6505500D01*
G01X0543160Y6501750D02*
G01X0543160Y6494250D01*
G01X0539410Y6490500D02*
G01X0543160Y6494250D01*
G01X0456470Y6698430D02*
G01X0456470Y6683430D01*
G01X0456470Y6683430D02*
G01X0471470Y6683430D01*
G01X0471470Y6683430D02*
G01X0467720Y6687180D01*
G01X0467720Y6694680D02*
G01X0467720Y6687180D01*
G01X0467720Y6694680D02*
G01X0471470Y6698430D01*
G01X0471470Y6698430D02*
G01X0482720Y6698430D01*
G01X0486470Y6694680D02*
G01X0482720Y6698430D01*
G01X0486470Y6694680D02*
G01X0486470Y6687180D01*
G01X0482720Y6683430D02*
G01X0486470Y6687180D01*
G01X0482720Y6707430D02*
G01X0460220Y6729930D01*
G01X0456470Y6738930D02*
G01X0471470Y6738930D01*
G01X0471470Y6738930D02*
G01X0486470Y6742680D01*
G01X0486470Y6742680D02*
G01X0471470Y6750180D01*
G01X0471470Y6750180D02*
G01X0486470Y6757680D01*
G01X0486470Y6757680D02*
G01X0471470Y6761430D01*
G01X0456470Y6761430D02*
G01X0471470Y6761430D01*
G01X0486470Y6785430D02*
G01X0486470Y6770430D01*
G01X0486470Y6785430D02*
G01X0482720Y6789180D01*
G01X0473720Y6789180D02*
G01X0482720Y6789180D01*
G01X0469970Y6785430D02*
G01X0473720Y6789180D01*
G01X0469970Y6785430D02*
G01X0469970Y6774180D01*
G01X0456470Y6774180D02*
G01X0486470Y6774180D01*
G01X0456470Y6785430D02*
G01X0456470Y6770430D01*
G01X0456470Y6785430D02*
G01X0460220Y6789180D01*
G01X0460220Y6789180D02*
G01X0466220Y6789180D01*
G01X0469970Y6785430D02*
G01X0466220Y6789180D01*
G01X0456470Y6798180D02*
G01X0482720Y6798180D01*
G01X0482720Y6798180D02*
G01X0486470Y6801930D01*
G01X0430340Y6431060D02*
G01X0411590Y6446060D01*
G01X0430340Y6449810D02*
G01X0430340Y6431060D01*
G01X0411590Y6446060D02*
G01X0441590Y6446060D01*
G01X0437840Y6458810D02*
G01X0415340Y6481310D01*
G01X0441590Y6505310D02*
G01X0441590Y6490310D01*
G01X0441590Y6505310D02*
G01X0437840Y6509060D01*
G01X0428840Y6509060D02*
G01X0437840Y6509060D01*
G01X0425090Y6505310D02*
G01X0428840Y6509060D01*
G01X0425090Y6505310D02*
G01X0425090Y6494060D01*
G01X0411590Y6494060D02*
G01X0441590Y6494060D01*
G01X0411590Y6505310D02*
G01X0411590Y6490310D01*
G01X0411590Y6505310D02*
G01X0415340Y6509060D01*
G01X0415340Y6509060D02*
G01X0421340Y6509060D01*
G01X0425090Y6505310D02*
G01X0421340Y6509060D01*
G01X0411590Y6518060D02*
G01X0437840Y6518060D01*
G01X0437840Y6518060D02*
G01X0441590Y6521810D01*
G01X0387580Y6683430D02*
G01X0383830Y6687180D01*
G01X0383830Y6694680D02*
G01X0383830Y6687180D01*
G01X0383830Y6694680D02*
G01X0387580Y6698430D01*
G01X0413830Y6694680D02*
G01X0410080Y6698430D01*
G01X0413830Y6694680D02*
G01X0413830Y6687180D01*
G01X0410080Y6683430D02*
G01X0413830Y6687180D01*
G01X0397330Y6694680D02*
G01X0397330Y6687180D01*
G01X0387580Y6698430D02*
G01X0393580Y6698430D01*
G01X0401080Y6698430D02*
G01X0410080Y6698430D01*
G01X0401080Y6698430D02*
G01X0397330Y6694680D01*
G01X0393580Y6698430D02*
G01X0397330Y6694680D01*
G01X0410080Y6707430D02*
G01X0387580Y6729930D01*
G01X0383830Y6738930D02*
G01X0398830Y6738930D01*
G01X0398830Y6738930D02*
G01X0413830Y6742680D01*
G01X0413830Y6742680D02*
G01X0398830Y6750180D01*
G01X0398830Y6750180D02*
G01X0413830Y6757680D01*
G01X0413830Y6757680D02*
G01X0398830Y6761430D01*
G01X0383830Y6761430D02*
G01X0398830Y6761430D01*
G01X0387580Y6770430D02*
G01X0410080Y6770430D01*
G01X0387580Y6770430D02*
G01X0383830Y6774180D01*
G01X0383830Y6781680D02*
G01X0383830Y6774180D01*
G01X0383830Y6781680D02*
G01X0387580Y6785430D01*
G01X0387580Y6785430D02*
G01X0410080Y6785430D01*
G01X0413830Y6781680D02*
G01X0410080Y6785430D01*
G01X0413830Y6781680D02*
G01X0413830Y6774180D01*
G01X0410080Y6770430D02*
G01X0413830Y6774180D01*
G01X0338760Y6431060D02*
G01X0335010Y6434810D01*
G01X0335010Y6446060D02*
G01X0335010Y6434810D01*
G01X0335010Y6446060D02*
G01X0338760Y6449810D01*
G01X0338760Y6449810D02*
G01X0346260Y6449810D01*
G01X0365010Y6431060D02*
G01X0346260Y6449810D01*
G01X0365010Y6449810D02*
G01X0365010Y6431060D01*
G01X0361260Y6458810D02*
G01X0338760Y6481310D01*
G01X0335010Y6505310D02*
G01X0338760Y6509060D01*
G01X0335010Y6505310D02*
G01X0335010Y6494060D01*
G01X0338760Y6490310D02*
G01X0335010Y6494060D01*
G01X0338760Y6490310D02*
G01X0361260Y6490310D01*
G01X0361260Y6490310D02*
G01X0365010Y6494060D01*
G01X0365010Y6505310D02*
G01X0365010Y6494060D01*
G01X0365010Y6505310D02*
G01X0361260Y6509060D01*
G01X0353760Y6509060D02*
G01X0361260Y6509060D01*
G01X0350010Y6505310D02*
G01X0353760Y6509060D01*
G01X0350010Y6505310D02*
G01X0350010Y6497810D01*
G01X0310300Y6682830D02*
G01X0304300Y6688830D01*
G01X0304300Y6688830D02*
G01X0334300Y6688830D01*
G01X0334300Y6694080D02*
G01X0334300Y6682830D01*
G01X0330550Y6703080D02*
G01X0308050Y6725580D01*
G01X0304300Y6734580D02*
G01X0319300Y6734580D01*
G01X0319300Y6734580D02*
G01X0334300Y6738330D01*
G01X0334300Y6738330D02*
G01X0319300Y6745830D01*
G01X0319300Y6745830D02*
G01X0334300Y6753330D01*
G01X0334300Y6753330D02*
G01X0319300Y6757080D01*
G01X0304300Y6757080D02*
G01X0319300Y6757080D01*
G01X0304300Y6781080D02*
G01X0308050Y6784830D01*
G01X0304300Y6781080D02*
G01X0304300Y6769830D01*
G01X0308050Y6766080D02*
G01X0304300Y6769830D01*
G01X0308050Y6766080D02*
G01X0330550Y6766080D01*
G01X0330550Y6766080D02*
G01X0334300Y6769830D01*
G01X0334300Y6781080D02*
G01X0334300Y6769830D01*
G01X0334300Y6781080D02*
G01X0330550Y6784830D01*
G01X0323050Y6784830D02*
G01X0330550Y6784830D01*
G01X0319300Y6781080D02*
G01X0323050Y6784830D01*
G01X0319300Y6781080D02*
G01X0319300Y6773580D01*
G01X0250110Y6436000D02*
G01X0265110Y6436000D01*
G01X0257610Y6466000D02*
G01X0257610Y6436000D01*
G01X0226110Y6436000D02*
G01X0241110Y6436000D01*
G01X0241110Y6451000D02*
G01X0241110Y6436000D01*
G01X0241110Y6451000D02*
G01X0237360Y6447250D01*
G01X0229860Y6447250D02*
G01X0237360Y6447250D01*
G01X0229860Y6447250D02*
G01X0226110Y6451000D01*
G01X0226110Y6462250D02*
G01X0226110Y6451000D01*
G01X0229860Y6466000D02*
G01X0226110Y6462250D01*
G01X0229860Y6466000D02*
G01X0237360Y6466000D01*
G01X0241110Y6462250D02*
G01X0237360Y6466000D01*
G01X0205860Y6436000D02*
G01X0202110Y6439750D01*
G01X0205860Y6436000D02*
G01X0213360Y6436000D01*
G01X0217110Y6439750D02*
G01X0213360Y6436000D01*
G01X0217110Y6462250D02*
G01X0217110Y6439750D01*
G01X0217110Y6462250D02*
G01X0213360Y6466000D01*
G01X0205860Y6449500D02*
G01X0202110Y6453250D01*
G01X0205860Y6449500D02*
G01X0217110Y6449500D01*
G01X0205860Y6466000D02*
G01X0213360Y6466000D01*
G01X0205860Y6466000D02*
G01X0202110Y6462250D01*
G01X0202110Y6462250D02*
G01X0202110Y6453250D01*
G01X0193110Y6462250D02*
G01X0189360Y6466000D01*
G01X0193110Y6462250D02*
G01X0193110Y6456250D01*
G01X0193110Y6456250D02*
G01X0187860Y6451000D01*
G01X0183360Y6451000D02*
G01X0187860Y6451000D01*
G01X0183360Y6451000D02*
G01X0178110Y6456250D01*
G01X0178110Y6462250D02*
G01X0178110Y6456250D01*
G01X0181860Y6466000D02*
G01X0178110Y6462250D01*
G01X0181860Y6466000D02*
G01X0189360Y6466000D01*
G01X0193110Y6445750D02*
G01X0187860Y6451000D01*
G01X0193110Y6445750D02*
G01X0193110Y6439750D01*
G01X0193110Y6439750D02*
G01X0189360Y6436000D01*
G01X0181860Y6436000D02*
G01X0189360Y6436000D01*
G01X0181860Y6436000D02*
G01X0178110Y6439750D01*
G01X0178110Y6445750D02*
G01X0178110Y6439750D01*
G01X0183360Y6451000D02*
G01X0178110Y6445750D01*
G01X0169110Y6466000D02*
G01X0169110Y6443500D01*
G01X0169110Y6443500D02*
G01X0163860Y6436000D01*
G01X0155610Y6436000D02*
G01X0163860Y6436000D01*
G01X0155610Y6436000D02*
G01X0150360Y6443500D01*
G01X0150360Y6466000D02*
G01X0150360Y6443500D01*
G01X0150360Y6451000D02*
G01X0169110Y6451000D01*
G01X0175750Y6189350D02*
G01X0190750Y6208100D01*
G01X0175750Y6189350D02*
G01X0194500Y6189350D01*
G01X0190750Y6208100D02*
G01X0190750Y6178100D01*
G01X0203500Y6181850D02*
G01X0226000Y6204350D01*
G01X0235000Y6178100D02*
G01X0250000Y6178100D01*
G01X0250000Y6178100D02*
G01X0253750Y6181850D01*
G01X0253750Y6190850D02*
G01X0253750Y6181850D01*
G01X0250000Y6194600D02*
G01X0253750Y6190850D01*
G01X0238750Y6194600D02*
G01X0250000Y6194600D01*
G01X0238750Y6208100D02*
G01X0238750Y6178100D01*
G01X0235000Y6208100D02*
G01X0250000Y6208100D01*
G01X0250000Y6208100D02*
G01X0253750Y6204350D01*
G01X0253750Y6204350D02*
G01X0253750Y6198350D01*
G01X0250000Y6194600D02*
G01X0253750Y6198350D01*
G01X0262750Y6208100D02*
G01X0262750Y6181850D01*
G01X0262750Y6181850D02*
G01X0266500Y6178100D01*
G54D12*
G01X0159690Y6245000D02*
G01X0164690Y6240000D01*
G01X0149690Y6245000D02*
G01X0159690Y6245000D01*
G01X0144690Y6240000D02*
G01X0149690Y6245000D01*
G01X0144690Y6240000D02*
G01X0144690Y6230000D01*
G01X0144690Y6230000D02*
G01X0149690Y6225000D01*
G01X0164690Y6245000D02*
G01X0164690Y6230000D01*
G01X0164690Y6230000D02*
G01X0169690Y6225000D01*
G01X0149690Y6225000D02*
G01X0159690Y6225000D01*
G01X0159690Y6225000D02*
G01X0164690Y6230000D01*
G01X0186690Y6265000D02*
G01X0186690Y6225000D01*
G01X0181690Y6265000D02*
G01X0201690Y6265000D01*
G01X0201690Y6265000D02*
G01X0206690Y6260000D01*
G01X0206690Y6260000D02*
G01X0206690Y6250000D01*
G01X0201690Y6245000D02*
G01X0206690Y6250000D01*
G01X0186690Y6245000D02*
G01X0201690Y6245000D01*
G01X0259690Y6265000D02*
G01X0259690Y6225000D01*
G01X0259690Y6230000D02*
G01X0264690Y6225000D01*
G01X0264690Y6225000D02*
G01X0274690Y6225000D01*
G01X0274690Y6225000D02*
G01X0279690Y6230000D01*
G01X0279690Y6240000D02*
G01X0279690Y6230000D01*
G01X0274690Y6245000D02*
G01X0279690Y6240000D01*
G01X0264690Y6245000D02*
G01X0274690Y6245000D01*
G01X0259690Y6240000D02*
G01X0264690Y6245000D01*
G01X0296690Y6265000D02*
G01X0296690Y6225000D01*
G01X0291690Y6265000D02*
G01X0311690Y6265000D01*
G01X0311690Y6265000D02*
G01X0316690Y6260000D01*
G01X0316690Y6260000D02*
G01X0316690Y6250000D01*
G01X0311690Y6245000D02*
G01X0316690Y6250000D01*
G01X0296690Y6245000D02*
G01X0311690Y6245000D01*
G54D11*
G01X0338110Y6237100D02*
G01X0341860Y6240850D01*
G01X0341860Y6240850D02*
G01X0349360Y6240850D01*
G01X0349360Y6240850D02*
G01X0353110Y6237100D01*
G01X0349360Y6210850D02*
G01X0353110Y6214600D01*
G01X0341860Y6210850D02*
G01X0349360Y6210850D01*
G01X0338110Y6214600D02*
G01X0341860Y6210850D01*
G01X0341860Y6227350D02*
G01X0349360Y6227350D01*
G01X0353110Y6237100D02*
G01X0353110Y6231100D01*
G01X0353110Y6223600D02*
G01X0353110Y6214600D01*
G01X0353110Y6223600D02*
G01X0349360Y6227350D01*
G01X0353110Y6231100D02*
G01X0349360Y6227350D01*
G01X0362110Y6214600D02*
G01X0384610Y6237100D01*
G01X0393610Y6240850D02*
G01X0393610Y6225850D01*
G01X0393610Y6225850D02*
G01X0397360Y6210850D01*
G01X0397360Y6210850D02*
G01X0404860Y6225850D01*
G01X0404860Y6225850D02*
G01X0412360Y6210850D01*
G01X0412360Y6210850D02*
G01X0416110Y6225850D01*
G01X0416110Y6240850D02*
G01X0416110Y6225850D01*
G01X0425110Y6237100D02*
G01X0425110Y6214600D01*
G01X0425110Y6237100D02*
G01X0428860Y6240850D01*
G01X0428860Y6240850D02*
G01X0436360Y6240850D01*
G01X0436360Y6240850D02*
G01X0440110Y6237100D01*
G01X0440110Y6237100D02*
G01X0440110Y6214600D01*
G01X0436360Y6210850D02*
G01X0440110Y6214600D01*
G01X0428860Y6210850D02*
G01X0436360Y6210850D01*
G01X0425110Y6214600D02*
G01X0428860Y6210850D01*
G01X0658110Y6208220D02*
G01X0673110Y6208220D01*
G01X0658110Y6208220D02*
G01X0658110Y6193220D01*
G01X0658110Y6193220D02*
G01X0661860Y6196970D01*
G01X0661860Y6196970D02*
G01X0669360Y6196970D01*
G01X0669360Y6196970D02*
G01X0673110Y6193220D01*
G01X0673110Y6193220D02*
G01X0673110Y6181970D01*
G01X0669360Y6178220D02*
G01X0673110Y6181970D01*
G01X0661860Y6178220D02*
G01X0669360Y6178220D01*
G01X0658110Y6181970D02*
G01X0661860Y6178220D01*
G01X0682110Y6181970D02*
G01X0704610Y6204470D01*
G01X0713610Y6208220D02*
G01X0713610Y6193220D01*
G01X0713610Y6193220D02*
G01X0717360Y6178220D01*
G01X0717360Y6178220D02*
G01X0724860Y6193220D01*
G01X0724860Y6193220D02*
G01X0732360Y6178220D01*
G01X0732360Y6178220D02*
G01X0736110Y6193220D01*
G01X0736110Y6208220D02*
G01X0736110Y6193220D01*
G01X0745110Y6178220D02*
G01X0760110Y6178220D01*
G01X0760110Y6178220D02*
G01X0763860Y6181970D01*
G01X0763860Y6190970D02*
G01X0763860Y6181970D01*
G01X0760110Y6194720D02*
G01X0763860Y6190970D01*
G01X0748860Y6194720D02*
G01X0760110Y6194720D01*
G01X0748860Y6208220D02*
G01X0748860Y6178220D01*
G01X0745110Y6208220D02*
G01X0760110Y6208220D01*
G01X0760110Y6208220D02*
G01X0763860Y6204470D01*
G01X0763860Y6204470D02*
G01X0763860Y6198470D01*
G01X0760110Y6194720D02*
G01X0763860Y6198470D01*
G01X0772860Y6208220D02*
G01X0772860Y6181970D01*
G01X0772860Y6181970D02*
G01X0776610Y6178220D01*
G54D12*
G01X0619690Y6270000D02*
G01X0619690Y6230000D01*
G01X0619690Y6235000D02*
G01X0624690Y6230000D01*
G01X0624690Y6230000D02*
G01X0634690Y6230000D01*
G01X0634690Y6230000D02*
G01X0639690Y6235000D01*
G01X0639690Y6245000D02*
G01X0639690Y6235000D01*
G01X0634690Y6250000D02*
G01X0639690Y6245000D01*
G01X0624690Y6250000D02*
G01X0634690Y6250000D01*
G01X0619690Y6245000D02*
G01X0624690Y6250000D01*
G01X0651690Y6270000D02*
G01X0651690Y6230000D01*
G01X0651690Y6270000D02*
G01X0666690Y6250000D01*
G01X0666690Y6250000D02*
G01X0681690Y6270000D01*
G01X0681690Y6270000D02*
G01X0681690Y6230000D01*
G01X0729690Y6250000D02*
G01X0734690Y6245000D01*
G01X0719690Y6250000D02*
G01X0729690Y6250000D01*
G01X0714690Y6245000D02*
G01X0719690Y6250000D01*
G01X0714690Y6245000D02*
G01X0714690Y6235000D01*
G01X0714690Y6235000D02*
G01X0719690Y6230000D01*
G01X0734690Y6250000D02*
G01X0734690Y6235000D01*
G01X0734690Y6235000D02*
G01X0739690Y6230000D01*
G01X0719690Y6230000D02*
G01X0729690Y6230000D01*
G01X0729690Y6230000D02*
G01X0734690Y6235000D01*
G01X0751690Y6270000D02*
G01X0751690Y6230000D01*
G01X0751690Y6270000D02*
G01X0766690Y6250000D01*
G01X0766690Y6250000D02*
G01X0781690Y6270000D01*
G01X0781690Y6270000D02*
G01X0781690Y6230000D01*
G54D11*
G01X0510940Y6241520D02*
G01X0514690Y6237770D01*
G01X0503440Y6241520D02*
G01X0510940Y6241520D01*
G01X0499690Y6237770D02*
G01X0503440Y6241520D01*
G01X0499690Y6237770D02*
G01X0499690Y6215270D01*
G01X0499690Y6215270D02*
G01X0503440Y6211520D01*
G01X0510940Y6228020D02*
G01X0514690Y6224270D01*
G01X0499690Y6228020D02*
G01X0510940Y6228020D01*
G01X0503440Y6211520D02*
G01X0510940Y6211520D01*
G01X0510940Y6211520D02*
G01X0514690Y6215270D01*
G01X0514690Y6224270D02*
G01X0514690Y6215270D01*
G01X0523690Y6215270D02*
G01X0546190Y6237770D01*
G01X0555190Y6237770D02*
G01X0555190Y6215270D01*
G01X0555190Y6237770D02*
G01X0558940Y6241520D01*
G01X0558940Y6241520D02*
G01X0566440Y6241520D01*
G01X0566440Y6241520D02*
G01X0570190Y6237770D01*
G01X0570190Y6237770D02*
G01X0570190Y6215270D01*
G01X0566440Y6211520D02*
G01X0570190Y6215270D01*
G01X0558940Y6211520D02*
G01X0566440Y6211520D01*
G01X0555190Y6215270D02*
G01X0558940Y6211520D01*
G01X0499690Y6252640D02*
G01X0503440Y6248890D01*
G01X0499690Y6258640D02*
G01X0499690Y6252640D01*
G01X0499690Y6258640D02*
G01X0504940Y6263890D01*
G01X0504940Y6263890D02*
G01X0509440Y6263890D01*
G01X0509440Y6263890D02*
G01X0514690Y6258640D01*
G01X0514690Y6258640D02*
G01X0514690Y6252640D01*
G01X0510940Y6248890D02*
G01X0514690Y6252640D01*
G01X0503440Y6248890D02*
G01X0510940Y6248890D01*
G01X0499690Y6269140D02*
G01X0504940Y6263890D01*
G01X0499690Y6275140D02*
G01X0499690Y6269140D01*
G01X0499690Y6275140D02*
G01X0503440Y6278890D01*
G01X0503440Y6278890D02*
G01X0510940Y6278890D01*
G01X0510940Y6278890D02*
G01X0514690Y6275140D01*
G01X0514690Y6275140D02*
G01X0514690Y6269140D01*
G01X0509440Y6263890D02*
G01X0514690Y6269140D01*
G01X0523690Y6252640D02*
G01X0546190Y6275140D01*
G01X0555190Y6248890D02*
G01X0570190Y6248890D01*
G01X0570190Y6248890D02*
G01X0573940Y6252640D01*
G01X0573940Y6261640D02*
G01X0573940Y6252640D01*
G01X0570190Y6265390D02*
G01X0573940Y6261640D01*
G01X0558940Y6265390D02*
G01X0570190Y6265390D01*
G01X0558940Y6278890D02*
G01X0558940Y6248890D01*
G01X0555190Y6278890D02*
G01X0570190Y6278890D01*
G01X0570190Y6278890D02*
G01X0573940Y6275140D01*
G01X0573940Y6275140D02*
G01X0573940Y6269140D01*
G01X0570190Y6265390D02*
G01X0573940Y6269140D01*
G01X0586690Y6260140D02*
G01X0586690Y6248890D01*
G01X0586690Y6260140D02*
G01X0590440Y6263890D01*
G01X0590440Y6263890D02*
G01X0597940Y6263890D01*
G01X0582940Y6263890D02*
G01X0586690Y6260140D01*
G01X0336860Y6247700D02*
G01X0351860Y6277700D01*
G01X0333110Y6277700D02*
G01X0351860Y6277700D01*
G01X0360860Y6251450D02*
G01X0383360Y6273950D01*
G01X0392360Y6277700D02*
G01X0392360Y6262700D01*
G01X0392360Y6262700D02*
G01X0396110Y6247700D01*
G01X0396110Y6247700D02*
G01X0403610Y6262700D01*
G01X0403610Y6262700D02*
G01X0411110Y6247700D01*
G01X0411110Y6247700D02*
G01X0414860Y6262700D01*
G01X0414860Y6277700D02*
G01X0414860Y6262700D01*
G01X0423860Y6247700D02*
G01X0438860Y6247700D01*
G01X0438860Y6247700D02*
G01X0442610Y6251450D01*
G01X0442610Y6260450D02*
G01X0442610Y6251450D01*
G01X0438860Y6264200D02*
G01X0442610Y6260450D01*
G01X0427610Y6264200D02*
G01X0438860Y6264200D01*
G01X0427610Y6277700D02*
G01X0427610Y6247700D01*
G01X0423860Y6277700D02*
G01X0438860Y6277700D01*
G01X0438860Y6277700D02*
G01X0442610Y6273950D01*
G01X0442610Y6273950D02*
G01X0442610Y6267950D01*
G01X0438860Y6264200D02*
G01X0442610Y6267950D01*
G01X0455360Y6258950D02*
G01X0455360Y6247700D01*
G01X0455360Y6258950D02*
G01X0459110Y6262700D01*
G01X0459110Y6262700D02*
G01X0466610Y6262700D01*
G01X0451610Y6262700D02*
G01X0455360Y6258950D01*
G54D13*
G01X0499250Y6164800D02*
G01X0499250Y6125430D01*
G01X0499250Y6125430D02*
G01X0534690Y6090000D01*
G01X0499250Y6170000D02*
G01X0549170Y6170000D01*
G01X0593740Y6129370D02*
G01X0589800Y6129370D01*
G01X0549170Y6170000D02*
G01X0589800Y6129370D01*
G01X0659250Y6139800D02*
G01X0659250Y6100430D01*
G01X0659250Y6100430D02*
G01X0694690Y6065000D01*
G01X0659250Y6145000D02*
G01X0709170Y6145000D01*
G01X0753740Y6104370D02*
G01X0749800Y6104370D01*
G01X0709170Y6145000D02*
G01X0749800Y6104370D01*
G01X0339250Y6164800D02*
G01X0339250Y6125430D01*
G01X0339250Y6125430D02*
G01X0374690Y6090000D01*
G01X0339250Y6170000D02*
G01X0389170Y6170000D01*
G01X0433740Y6129370D02*
G01X0429800Y6129370D01*
G01X0389170Y6170000D02*
G01X0429800Y6129370D01*
G01X0179250Y6139800D02*
G01X0179250Y6100430D01*
G01X0179250Y6100430D02*
G01X0214690Y6065000D01*
G01X0179250Y6145000D02*
G01X0229170Y6145000D01*
G01X0273740Y6104370D02*
G01X0269800Y6104370D01*
G01X0229170Y6145000D02*
G01X0269800Y6104370D01*
G54D10*
G01X0692130Y6375200D02*
G01X0700000Y6375200D01*
G01X0670470Y6375200D02*
G01X0678350Y6375200D01*
G01X0678350Y6387010D02*
G01X0678350Y6363390D01*
G01X0692130Y6385040D02*
G01X0692130Y6365350D01*
G01X0682280Y6375200D02*
G01X0692130Y6385040D01*
G01X0692130Y6365350D02*
G01X0682280Y6375200D01*
G01X0239170Y6364610D02*
G01X0229330Y6374450D01*
G01X0229330Y6374450D02*
G01X0239170Y6384290D01*
G01X0239170Y6384290D02*
G01X0239170Y6364610D01*
G01X0225390Y6386260D02*
G01X0225390Y6362640D01*
G01X0217520Y6374450D02*
G01X0225390Y6374450D01*
G01X0239170Y6374450D02*
G01X0247050Y6374450D01*
G54D14*
G01X0320080Y6635430D02*
G01X0320080Y6564570D01*
G01X0599610Y6635430D02*
G01X0599610Y6564570D01*
G54D10*
G01X0245280Y6635430D02*
G01X0676380Y6635430D01*
G01X0245280Y6564570D02*
G01X0676380Y6564570D01*
G01X0451970Y6600000D02*
G01X0467720Y6600000D01*
G01X0459840Y6607870D02*
G01X0459840Y6592130D01*
G01X0778740Y6895280D02*
G01X0778740Y6875590D01*
G01X0759060Y6895280D02*
G01X0778740Y6895280D01*
G01X0140940Y6895280D02*
G01X0140940Y6875590D01*
G01X0140940Y6895280D02*
G01X0160630Y6895280D01*
G01X0778740Y6324410D02*
G01X0778740Y6304720D01*
G01X0759060Y6304720D02*
G01X0778740Y6304720D01*
G01X0140940Y6324410D02*
G01X0140940Y6304720D01*
G01X0140940Y6304720D02*
G01X0160630Y6304720D01*
G01X0288580Y6651180D02*
G01X0278740Y6661020D01*
G01X0288580Y6661020D02*
G01X0278740Y6651180D01*
G54D12*
G01X0494690Y5995000D02*
G01X0514690Y5995000D01*
G01X0514690Y5995000D02*
G01X0519690Y6000000D01*
G01X0519690Y6012000D02*
G01X0519690Y6000000D01*
G01X0514690Y6017000D02*
G01X0519690Y6012000D01*
G01X0499690Y6017000D02*
G01X0514690Y6017000D01*
G01X0499690Y6035000D02*
G01X0499690Y5995000D01*
G01X0494690Y6035000D02*
G01X0514690Y6035000D01*
G01X0514690Y6035000D02*
G01X0519690Y6030000D01*
G01X0519690Y6030000D02*
G01X0519690Y6022000D01*
G01X0514690Y6017000D02*
G01X0519690Y6022000D01*
G01X0531690Y6035000D02*
G01X0531690Y5995000D01*
G01X0531690Y5995000D02*
G01X0551690Y5995000D01*
G01X0563690Y6025000D02*
G01X0563690Y5995000D01*
G01X0563690Y6025000D02*
G01X0570690Y6035000D01*
G01X0570690Y6035000D02*
G01X0581690Y6035000D01*
G01X0581690Y6035000D02*
G01X0588690Y6025000D01*
G01X0588690Y6025000D02*
G01X0588690Y5995000D01*
G01X0563690Y6015000D02*
G01X0588690Y6015000D01*
G01X0607690Y5995000D02*
G01X0620690Y5995000D01*
G01X0600690Y6002000D02*
G01X0607690Y5995000D01*
G01X0600690Y6028000D02*
G01X0600690Y6002000D01*
G01X0600690Y6028000D02*
G01X0607690Y6035000D01*
G01X0607690Y6035000D02*
G01X0620690Y6035000D01*
G01X0632690Y6035000D02*
G01X0632690Y5995000D01*
G01X0632690Y6015000D02*
G01X0652690Y6035000D01*
G01X0632690Y6015000D02*
G01X0652690Y5995000D01*
G01X0664690Y6010000D02*
G01X0684690Y6010000D01*
G01X0684690Y6010000D02*
G01X0689690Y6005000D01*
G01X0689690Y6005000D02*
G01X0689690Y5995000D01*
G01X0684690Y5990000D02*
G01X0689690Y5995000D01*
G01X0669690Y5990000D02*
G01X0684690Y5990000D01*
G01X0669690Y6010000D02*
G01X0669690Y5970000D01*
G01X0677690Y5990000D02*
G01X0689690Y5970000D01*
G01X0701690Y5992000D02*
G01X0716690Y5992000D01*
G01X0701690Y5970000D02*
G01X0721690Y5970000D01*
G01X0701690Y6010000D02*
G01X0701690Y5970000D01*
G01X0701690Y6010000D02*
G01X0721690Y6010000D01*
G01X0738690Y6010000D02*
G01X0738690Y5970000D01*
G01X0751690Y6010000D02*
G01X0758690Y6003000D01*
G01X0758690Y6003000D02*
G01X0758690Y5977000D01*
G01X0751690Y5970000D02*
G01X0758690Y5977000D01*
G01X0733690Y5970000D02*
G01X0751690Y5970000D01*
G01X0733690Y6010000D02*
G01X0751690Y6010000D01*
G01X0294690Y6035000D02*
G01X0299690Y6030000D01*
G01X0279690Y6035000D02*
G01X0294690Y6035000D01*
G01X0274690Y6030000D02*
G01X0279690Y6035000D01*
G01X0274690Y6030000D02*
G01X0274690Y6000000D01*
G01X0274690Y6000000D02*
G01X0279690Y5995000D01*
G01X0279690Y5995000D02*
G01X0294690Y5995000D01*
G01X0294690Y5995000D02*
G01X0299690Y6000000D01*
G01X0299690Y6010000D02*
G01X0299690Y6000000D01*
G01X0294690Y6015000D02*
G01X0299690Y6010000D01*
G01X0284690Y6015000D02*
G01X0294690Y6015000D01*
G01X0311690Y6035000D02*
G01X0331690Y6035000D01*
G01X0331690Y6035000D02*
G01X0336690Y6030000D01*
G01X0336690Y6030000D02*
G01X0336690Y6020000D01*
G01X0331690Y6015000D02*
G01X0336690Y6020000D01*
G01X0316690Y6015000D02*
G01X0331690Y6015000D01*
G01X0316690Y6035000D02*
G01X0316690Y5995000D01*
G01X0324690Y6015000D02*
G01X0336690Y5995000D01*
G01X0348690Y6017000D02*
G01X0363690Y6017000D01*
G01X0348690Y5995000D02*
G01X0368690Y5995000D01*
G01X0348690Y6035000D02*
G01X0348690Y5995000D01*
G01X0348690Y6035000D02*
G01X0368690Y6035000D01*
G01X0380690Y6017000D02*
G01X0395690Y6017000D01*
G01X0380690Y5995000D02*
G01X0400690Y5995000D01*
G01X0380690Y6035000D02*
G01X0380690Y5995000D01*
G01X0380690Y6035000D02*
G01X0400690Y6035000D01*
G01X0412690Y6035000D02*
G01X0412690Y5995000D01*
G01X0412690Y6035000D02*
G01X0437690Y5995000D01*
G01X0437690Y6035000D02*
G01X0437690Y5995000D01*
G01X0144690Y5970000D02*
G01X0164690Y5970000D01*
G01X0164690Y5970000D02*
G01X0169690Y5975000D01*
G01X0169690Y5987000D02*
G01X0169690Y5975000D01*
G01X0164690Y5992000D02*
G01X0169690Y5987000D01*
G01X0149690Y5992000D02*
G01X0164690Y5992000D01*
G01X0149690Y6010000D02*
G01X0149690Y5970000D01*
G01X0144690Y6010000D02*
G01X0164690Y6010000D01*
G01X0164690Y6010000D02*
G01X0169690Y6005000D01*
G01X0169690Y6005000D02*
G01X0169690Y5997000D01*
G01X0164690Y5992000D02*
G01X0169690Y5997000D01*
G01X0181690Y6010000D02*
G01X0181690Y5970000D01*
G01X0181690Y5970000D02*
G01X0201690Y5970000D01*
G01X0213690Y6010000D02*
G01X0213690Y5975000D01*
G01X0213690Y5975000D02*
G01X0218690Y5970000D01*
G01X0218690Y5970000D02*
G01X0228690Y5970000D01*
G01X0228690Y5970000D02*
G01X0233690Y5975000D01*
G01X0233690Y6010000D02*
G01X0233690Y5975000D01*
G01X0245690Y5992000D02*
G01X0260690Y5992000D01*
G01X0245690Y5970000D02*
G01X0265690Y5970000D01*
G01X0245690Y6010000D02*
G01X0245690Y5970000D01*
G01X0245690Y6010000D02*
G01X0265690Y6010000D01*
G01X0261050Y6842610D02*
G01X0256050Y6847610D01*
G01X0261050Y6842610D02*
G01X0276050Y6842610D01*
G01X0281050Y6847610D02*
G01X0276050Y6842610D01*
G01X0281050Y6857610D02*
G01X0281050Y6847610D01*
G01X0281050Y6857610D02*
G01X0276050Y6862610D01*
G01X0261050Y6862610D02*
G01X0276050Y6862610D01*
G01X0261050Y6862610D02*
G01X0256050Y6867610D01*
G01X0256050Y6877610D02*
G01X0256050Y6867610D01*
G01X0261050Y6882610D02*
G01X0256050Y6877610D01*
G01X0261050Y6882610D02*
G01X0276050Y6882610D01*
G01X0281050Y6877610D02*
G01X0276050Y6882610D01*
G01X0224050Y6842610D02*
G01X0244050Y6842610D01*
G01X0234050Y6882610D02*
G01X0234050Y6842610D01*
G01X0197050Y6860610D02*
G01X0212050Y6860610D01*
G01X0192050Y6882610D02*
G01X0212050Y6882610D01*
G01X0212050Y6882610D02*
G01X0212050Y6842610D01*
G01X0192050Y6842610D02*
G01X0212050Y6842610D01*
G01X0175050Y6882610D02*
G01X0175050Y6842610D01*
G01X0160050Y6842610D02*
G01X0180050Y6842610D01*
G01X0160050Y6842610D02*
G01X0155050Y6847610D01*
G01X0155050Y6857610D02*
G01X0155050Y6847610D01*
G01X0160050Y6862610D02*
G01X0155050Y6857610D01*
G01X0160050Y6862610D02*
G01X0175050Y6862610D01*
G01X0000000Y0000000D02*
G54D10*
G01X0110000Y6930000D02*
G01X0110000Y5950000D01*
G01X0110000Y5950000D02*
G01X0830000Y5950000D01*
G01X0830000Y5950000D02*
G01X0830000Y6930000D01*
G01X0830000Y6930000D02*
G01X0110000Y6930000D01*
G01X0000000Y0000000D02*
G54D15*
G01X0339250Y6164800D03*
G01X0207870Y6735040D03*
G54D16*
G01X0200000Y6600000D03*
G54D17*
G01X0319290Y6635430D03*
G01X0184250Y6375200D03*
G01X0284650Y6375200D03*
G01X0635040Y6375200D03*
G01X0735430Y6375200D03*
G54D15*
G01X0711810Y6735040D03*
G54D16*
G01X0719690Y6600000D03*
G54D17*
G01X0479920Y6635430D03*
G01X0560240Y6635430D03*
G01X0399610Y6635430D03*
G01X0439760Y6564570D03*
G01X0359450Y6564570D03*
G01X0520080Y6564570D03*
G01X0600390Y6564570D03*
G54D18*
G01X0694690Y6065000D03*
G54D15*
G01X0659250Y6139800D03*
G54D19*
G01X0718310Y6135870D03*
G54D18*
G01X0534690Y6090000D03*
G54D15*
G01X0499250Y6164800D03*
G54D19*
G01X0558310Y6160870D03*
G54D20*
G01X0593740Y6129370D03*
G01X0753740Y6104370D03*
G54D18*
G01X0374690Y6090000D03*
G01X0214690Y6065000D03*
G54D15*
G01X0179250Y6139800D03*
G54D19*
G01X0238310Y6135870D03*
G54D20*
G01X0273740Y6104370D03*
G54D19*
G01X0398310Y6160870D03*
G54D20*
G01X0433740Y6129370D03*
G01X0000000Y0000000D02*
G54D14*
G01X0364700Y6710000D03*
G01X0434700Y6670000D03*
G01X0439700Y6760000D03*
G54D27*
G01X0273700Y6104400D03*
G01X0433700Y6129400D03*
G01X0593700Y6129400D03*
G01X0753700Y6104400D03*
G54D26*
G01X0238300Y6135900D03*
G01X0398300Y6160900D03*
G01X0558300Y6160900D03*
G01X0718300Y6135900D03*
G54D24*
G01X0184300Y6375200D03*
G01X0284600Y6375200D03*
G01X0319300Y6635400D03*
G01X0359400Y6564600D03*
G01X0399600Y6635400D03*
G01X0439800Y6564600D03*
G01X0479900Y6635400D03*
G01X0520100Y6564600D03*
G01X0560200Y6635400D03*
G01X0600400Y6564600D03*
G01X0635000Y6375200D03*
G01X0735400Y6375200D03*
G54D21*
G01X0179300Y6139800D03*
G01X0339300Y6164800D03*
G01X0499300Y6164800D03*
G01X0659300Y6139800D03*
G54D22*
G01X0207900Y6735000D03*
G01X0711800Y6735000D03*
G54D25*
G01X0214700Y6065000D03*
G01X0374700Y6090000D03*
G01X0534700Y6090000D03*
G01X0694700Y6065000D03*
G54D23*
G01X0200000Y6600000D03*
G01X0719700Y6600000D03*
M02*
