<?xml version="1.0" encoding="UTF-8"?>
<svg xmlns="http://www.w3.org/2000/svg" xmlns:xlink="http://www.w3.org/1999/xlink" width="54pt" height="74pt" viewBox="0 0 54 74" version="1.1">
<g id="surface1">
<path style=" stroke:none;fill-rule:evenodd;fill:rgb(0%,76.470588%,76.470588%);fill-opacity:1;" d="M 47.234375 15.125 L 47.253906 15.269531 L 47.265625 15.484375 L 47.253906 15.699219 L 47.234375 15.84375 Z M 47.234375 15.125 "/>
<path style=" stroke:none;fill-rule:evenodd;fill:rgb(0%,76.470588%,76.470588%);fill-opacity:1;" d="M 47.234375 3.96875 L 49.765625 3.96875 L 49.765625 23.4375 L 49.664062 23.199219 L 49.46875 22.832031 L 49.242188 22.484375 L 49.207031 22.441406 L 49.164062 22.402344 L 49.117188 22.371094 L 49.0625 22.351562 L 49.007812 22.335938 L 48.949219 22.332031 L 48.894531 22.335938 L 48.835938 22.347656 L 48.785156 22.371094 L 48.734375 22.398438 L 48.691406 22.433594 L 48.652344 22.480469 L 48.625 22.527344 L 48.601562 22.578125 L 48.585938 22.636719 L 48.582031 22.691406 L 48.585938 22.75 L 48.597656 22.804688 L 48.621094 22.859375 L 48.652344 22.90625 L 48.84375 23.199219 L 49.007812 23.507812 L 49.144531 23.832031 L 49.25 24.167969 L 49.328125 24.507812 L 49.375 24.855469 L 49.390625 25.207031 L 49.375 25.558594 L 49.328125 25.90625 L 49.25 26.246094 L 49.144531 26.582031 L 49.007812 26.90625 L 48.84375 27.214844 L 48.652344 27.511719 L 48.625 27.558594 L 48.601562 27.609375 L 48.589844 27.667969 L 48.585938 27.722656 L 48.589844 27.777344 L 48.605469 27.832031 L 48.628906 27.886719 L 48.65625 27.933594 L 48.695312 27.976562 L 48.738281 28.011719 L 48.785156 28.042969 L 48.839844 28.0625 L 48.894531 28.078125 L 48.949219 28.082031 L 49.007812 28.074219 L 49.0625 28.0625 L 49.113281 28.039062 L 49.160156 28.007812 L 49.207031 27.972656 L 49.242188 27.929688 L 49.46875 27.582031 L 49.664062 27.214844 L 49.765625 26.976562 L 49.765625 52.207031 L 47.234375 52.207031 L 47.234375 43.867188 L 47.351562 43.839844 L 47.722656 43.683594 L 48.066406 43.472656 L 48.375 43.210938 L 48.636719 42.902344 L 48.847656 42.558594 L 49 42.1875 L 49.09375 41.796875 L 49.117188 41.394531 L 49.09375 40.992188 L 49 40.597656 L 48.847656 40.226562 L 48.636719 39.882812 L 48.375 39.574219 L 48.066406 39.3125 L 47.722656 39.101562 L 47.351562 38.949219 L 47.234375 38.921875 L 47.234375 29.53125 L 47.429688 29.449219 L 47.796875 29.253906 L 48.144531 29.03125 L 48.1875 28.992188 L 48.226562 28.949219 L 48.257812 28.902344 L 48.28125 28.847656 L 48.292969 28.792969 L 48.296875 28.734375 L 48.292969 28.679688 L 48.28125 28.625 L 48.261719 28.570312 L 48.230469 28.519531 L 48.195312 28.476562 L 48.152344 28.441406 L 48.101562 28.410156 L 48.050781 28.386719 L 47.992188 28.371094 L 47.9375 28.367188 L 47.878906 28.371094 L 47.824219 28.386719 L 47.769531 28.40625 L 47.722656 28.4375 L 47.429688 28.628906 L 47.234375 28.734375 L 47.234375 21.679688 L 47.429688 21.785156 L 47.726562 21.976562 L 47.773438 22.003906 L 47.824219 22.027344 L 47.878906 22.039062 L 47.9375 22.042969 L 47.992188 22.039062 L 48.046875 22.023438 L 48.101562 22.003906 L 48.148438 21.972656 L 48.191406 21.933594 L 48.226562 21.890625 L 48.257812 21.84375 L 48.277344 21.789062 L 48.289062 21.734375 L 48.292969 21.679688 L 48.289062 21.621094 L 48.277344 21.566406 L 48.253906 21.515625 L 48.222656 21.46875 L 48.1875 21.425781 L 48.140625 21.390625 L 47.796875 21.160156 L 47.429688 20.964844 L 47.234375 20.882812 L 47.234375 17.035156 L 47.304688 16.925781 L 47.425781 16.703125 L 47.523438 16.472656 L 47.597656 16.234375 L 47.652344 15.988281 L 47.6875 15.738281 L 47.699219 15.484375 L 47.6875 15.234375 L 47.652344 14.984375 L 47.597656 14.738281 L 47.523438 14.496094 L 47.425781 14.265625 L 47.304688 14.042969 L 47.234375 13.933594 Z M 47.234375 3.96875 "/>
<path style=" stroke:none;fill-rule:evenodd;fill:rgb(0%,76.470588%,76.470588%);fill-opacity:1;" d="M 47.234375 28.734375 L 47.121094 28.792969 L 46.796875 28.929688 L 46.550781 29.007812 L 46.550781 21.40625 L 46.796875 21.484375 L 47.121094 21.621094 L 47.234375 21.679688 Z M 47.234375 28.734375 "/>
<path style=" stroke:none;fill-rule:evenodd;fill:rgb(0%,76.470588%,76.470588%);fill-opacity:1;" d="M 47.234375 38.921875 L 46.957031 38.855469 L 46.554688 38.824219 L 46.550781 38.824219 L 46.550781 29.757812 L 46.652344 29.734375 L 47.046875 29.609375 L 47.234375 29.53125 Z M 47.234375 38.921875 "/>
<path style=" stroke:none;fill-rule:evenodd;fill:rgb(0%,76.470588%,76.470588%);fill-opacity:1;" d="M 47.234375 52.207031 L 46.550781 52.207031 L 46.550781 43.964844 L 46.554688 43.964844 L 46.957031 43.933594 L 47.234375 43.867188 Z M 47.234375 52.207031 "/>
<path style=" stroke:none;fill-rule:evenodd;fill:rgb(0%,76.470588%,76.470588%);fill-opacity:1;" d="M 46.550781 3.96875 L 47.234375 3.96875 L 47.234375 13.933594 L 47.167969 13.828125 L 47.148438 13.804688 L 47.121094 13.78125 L 47.089844 13.761719 L 47.058594 13.75 L 47.027344 13.742188 L 46.992188 13.738281 L 46.957031 13.742188 L 46.925781 13.75 L 46.890625 13.761719 L 46.863281 13.777344 L 46.835938 13.800781 L 46.8125 13.828125 L 46.796875 13.855469 L 46.78125 13.886719 L 46.773438 13.921875 L 46.773438 13.988281 L 46.78125 14.023438 L 46.792969 14.054688 L 46.8125 14.085938 L 46.929688 14.261719 L 47.03125 14.449219 L 47.113281 14.648438 L 47.179688 14.851562 L 47.226562 15.058594 L 47.234375 15.125 L 47.234375 15.84375 L 47.226562 15.910156 L 47.179688 16.117188 L 47.113281 16.320312 L 47.03125 16.519531 L 46.929688 16.707031 L 46.816406 16.886719 L 46.796875 16.914062 L 46.785156 16.945312 L 46.777344 16.980469 L 46.773438 17.015625 L 46.777344 17.046875 L 46.785156 17.078125 L 46.796875 17.113281 L 46.816406 17.140625 L 46.839844 17.167969 L 46.863281 17.1875 L 46.894531 17.207031 L 46.925781 17.21875 L 46.957031 17.226562 L 47.027344 17.226562 L 47.058594 17.21875 L 47.121094 17.1875 L 47.144531 17.164062 L 47.167969 17.136719 L 47.234375 17.035156 L 47.234375 20.882812 L 47.046875 20.804688 L 46.652344 20.679688 L 46.550781 20.65625 L 46.550781 17.757812 L 46.558594 17.75 L 46.578125 17.722656 L 46.589844 17.6875 L 46.597656 17.65625 L 46.601562 17.621094 L 46.597656 17.585938 L 46.589844 17.554688 L 46.578125 17.523438 L 46.5625 17.492188 L 46.550781 17.484375 L 46.550781 13.484375 L 46.558594 13.476562 L 46.589844 13.414062 L 46.597656 13.382812 L 46.597656 13.3125 L 46.589844 13.28125 L 46.574219 13.25 L 46.554688 13.21875 L 46.550781 13.214844 Z M 46.550781 3.96875 "/>
<path style=" stroke:none;fill-rule:evenodd;fill:rgb(0%,76.470588%,76.470588%);fill-opacity:1;" d="M 46.550781 17.484375 L 46.539062 17.464844 L 46.484375 17.425781 L 46.453125 17.410156 L 46.417969 17.402344 L 46.351562 17.402344 L 46.316406 17.410156 L 46.253906 17.441406 L 46.078125 17.5625 L 45.890625 17.660156 L 45.789062 17.703125 L 45.789062 15.519531 L 45.792969 15.484375 L 45.78125 15.335938 L 45.757812 15.230469 L 45.726562 15.136719 L 45.691406 15.058594 L 45.660156 15.007812 L 45.613281 14.933594 L 45.519531 14.820312 L 45.492188 14.796875 L 44.464844 13.773438 L 44.441406 13.742188 L 44.328125 13.648438 L 44.253906 13.601562 L 44.203125 13.570312 L 44.066406 13.515625 L 43.925781 13.480469 L 43.777344 13.46875 L 43.742188 13.472656 L 43.539062 13.472656 L 43.632812 13.40625 L 43.820312 13.308594 L 44.019531 13.226562 L 44.222656 13.160156 L 44.429688 13.113281 L 44.640625 13.085938 L 44.855469 13.074219 L 45.070312 13.085938 L 45.28125 13.113281 L 45.488281 13.160156 L 45.691406 13.226562 L 45.890625 13.308594 L 46.078125 13.40625 L 46.257812 13.523438 L 46.285156 13.542969 L 46.316406 13.554688 L 46.351562 13.5625 L 46.382812 13.566406 L 46.417969 13.5625 L 46.449219 13.554688 L 46.480469 13.542969 L 46.511719 13.523438 L 46.550781 13.484375 Z M 46.550781 17.484375 "/>
<path style=" stroke:none;fill-rule:evenodd;fill:rgb(0%,76.470588%,76.470588%);fill-opacity:1;" d="M 46.550781 20.65625 L 46.246094 20.585938 L 45.835938 20.53125 L 45.789062 20.53125 L 45.789062 18.167969 L 45.84375 18.152344 L 46.074219 18.054688 L 46.296875 17.933594 L 46.507812 17.796875 L 46.535156 17.777344 L 46.550781 17.757812 Z M 46.550781 20.65625 "/>
<path style=" stroke:none;fill-rule:evenodd;fill:rgb(0%,76.470588%,76.470588%);fill-opacity:1;" d="M 46.550781 52.207031 L 42.722656 52.207031 L 42.722656 50.832031 L 42.726562 50.765625 L 42.707031 50.511719 L 42.648438 50.265625 L 42.617188 50.195312 L 42.550781 50.03125 L 42.46875 49.894531 L 42.417969 49.8125 L 42.25 49.617188 L 42.203125 49.578125 L 41.210938 48.585938 L 41.171875 48.539062 L 40.976562 48.371094 L 40.894531 48.324219 L 40.757812 48.238281 L 40.59375 48.171875 L 40.523438 48.140625 L 40.277344 48.082031 L 40.023438 48.0625 L 39.957031 48.066406 L 39.324219 48.066406 L 39.324219 43.964844 L 39.328125 43.964844 L 39.730469 43.933594 L 40.121094 43.839844 L 40.496094 43.683594 L 40.839844 43.472656 L 41.144531 43.210938 L 41.40625 42.902344 L 41.617188 42.558594 L 41.773438 42.1875 L 41.867188 41.796875 L 41.890625 41.394531 L 41.867188 40.992188 L 41.773438 40.597656 L 41.617188 40.226562 L 41.40625 39.882812 L 41.144531 39.574219 L 40.839844 39.3125 L 40.496094 39.101562 L 40.121094 38.949219 L 39.730469 38.855469 L 39.328125 38.824219 L 39.324219 38.824219 L 39.324219 32.542969 L 39.445312 32.511719 L 39.679688 32.414062 L 39.898438 32.28125 L 40.089844 32.117188 L 40.132812 32.066406 L 41.121094 31.078125 L 41.171875 31.035156 L 41.335938 30.84375 L 41.46875 30.625 L 41.566406 30.390625 L 41.628906 30.140625 L 41.648438 29.886719 L 41.640625 29.824219 L 41.640625 27.980469 L 41.679688 28.011719 L 41.726562 28.042969 L 41.78125 28.066406 L 41.835938 28.078125 L 41.894531 28.082031 L 41.949219 28.082031 L 42.007812 28.066406 L 42.058594 28.046875 L 42.109375 28.015625 L 42.152344 27.980469 L 42.191406 27.9375 L 42.21875 27.886719 L 42.242188 27.835938 L 42.257812 27.777344 L 42.261719 27.722656 L 42.257812 27.664062 L 42.246094 27.609375 L 42.222656 27.558594 L 42.191406 27.507812 L 42 27.214844 L 41.835938 26.90625 L 41.699219 26.582031 L 41.640625 26.402344 L 41.640625 24.011719 L 41.699219 23.832031 L 41.835938 23.507812 L 42 23.199219 L 42.191406 22.90625 L 42.21875 22.855469 L 42.242188 22.804688 L 42.253906 22.75 L 42.257812 22.691406 L 42.253906 22.636719 L 42.238281 22.582031 L 42.21875 22.527344 L 42.1875 22.480469 L 42.148438 22.4375 L 42.105469 22.402344 L 42.058594 22.371094 L 42.003906 22.351562 L 41.949219 22.339844 L 41.894531 22.335938 L 41.835938 22.339844 L 41.78125 22.351562 L 41.730469 22.375 L 41.683594 22.40625 L 41.640625 22.441406 L 41.640625 21.671875 L 41.648438 21.605469 L 41.628906 21.351562 L 41.566406 21.105469 L 41.539062 21.035156 L 41.46875 20.871094 L 41.386719 20.734375 L 41.335938 20.652344 L 41.171875 20.457031 L 41.121094 20.417969 L 39.324219 18.617188 L 39.324219 15.34375 L 42.015625 15.34375 L 42.011719 15.484375 L 42.023438 15.738281 L 42.054688 15.988281 L 42.109375 16.234375 L 42.1875 16.472656 L 42.285156 16.703125 L 42.402344 16.925781 L 42.542969 17.140625 L 42.5625 17.164062 L 42.589844 17.1875 L 42.617188 17.207031 L 42.648438 17.21875 L 42.683594 17.226562 L 42.71875 17.230469 L 42.75 17.226562 L 42.785156 17.21875 L 42.816406 17.207031 L 42.847656 17.191406 L 42.875 17.167969 L 42.914062 17.113281 L 42.925781 17.082031 L 42.933594 17.046875 L 42.9375 17.015625 L 42.9375 16.980469 L 42.929688 16.945312 L 42.914062 16.914062 L 42.898438 16.886719 L 42.777344 16.707031 L 42.679688 16.519531 L 42.59375 16.320312 L 42.53125 16.117188 L 42.484375 15.910156 L 42.457031 15.699219 L 42.445312 15.484375 L 42.453125 15.34375 L 43.390625 15.34375 L 43.917969 15.871094 L 43.917969 17.703125 L 43.820312 17.660156 L 43.632812 17.5625 L 43.453125 17.445312 L 43.425781 17.425781 L 43.394531 17.414062 L 43.359375 17.40625 L 43.328125 17.402344 L 43.292969 17.40625 L 43.257812 17.414062 L 43.226562 17.429688 L 43.199219 17.445312 L 43.171875 17.46875 L 43.152344 17.492188 L 43.132812 17.523438 L 43.121094 17.554688 L 43.113281 17.585938 L 43.109375 17.621094 L 43.113281 17.65625 L 43.121094 17.6875 L 43.152344 17.75 L 43.175781 17.773438 L 43.203125 17.796875 L 43.410156 17.933594 L 43.632812 18.054688 L 43.867188 18.152344 L 43.917969 18.167969 L 43.917969 20.765625 L 43.796875 20.804688 L 43.414062 20.964844 L 43.046875 21.160156 L 42.699219 21.386719 L 42.65625 21.421875 L 42.617188 21.464844 L 42.585938 21.515625 L 42.5625 21.566406 L 42.550781 21.621094 L 42.546875 21.679688 L 42.550781 21.734375 L 42.5625 21.792969 L 42.582031 21.84375 L 42.613281 21.894531 L 42.648438 21.9375 L 42.691406 21.976562 L 42.742188 22.003906 L 42.792969 22.027344 L 42.851562 22.042969 L 42.90625 22.046875 L 42.964844 22.042969 L 43.019531 22.03125 L 43.074219 22.007812 L 43.121094 21.976562 L 43.414062 21.785156 L 43.722656 21.621094 L 43.917969 21.539062 L 43.917969 24.640625 L 43.925781 24.785156 L 43.925781 24.789062 L 43.960938 24.929688 L 44.019531 25.066406 L 44.046875 25.113281 L 44.09375 25.191406 L 44.191406 25.304688 L 44.21875 25.328125 L 44.761719 25.867188 L 44.871094 25.96875 L 44.996094 26.042969 L 45.132812 26.101562 L 45.277344 26.136719 L 45.421875 26.144531 L 45.570312 26.136719 L 45.710938 26.101562 L 45.847656 26.042969 L 45.972656 25.96875 L 46.085938 25.871094 L 46.179688 25.757812 L 46.257812 25.632812 L 46.316406 25.496094 L 46.347656 25.355469 L 46.359375 25.207031 L 46.347656 25.058594 L 46.316406 24.917969 L 46.257812 24.78125 L 46.179688 24.65625 L 46.082031 24.546875 L 45.789062 24.253906 L 45.789062 21.257812 L 46.121094 21.300781 L 46.460938 21.378906 L 46.550781 21.40625 L 46.550781 29.007812 L 46.460938 29.035156 L 46.121094 29.113281 L 45.773438 29.160156 L 45.421875 29.175781 L 45.070312 29.160156 L 44.722656 29.113281 L 44.382812 29.035156 L 44.046875 28.929688 L 43.722656 28.792969 L 43.414062 28.628906 L 43.117188 28.441406 L 43.070312 28.410156 L 43.019531 28.386719 L 42.964844 28.375 L 42.90625 28.371094 L 42.851562 28.375 L 42.796875 28.390625 L 42.742188 28.414062 L 42.695312 28.441406 L 42.652344 28.480469 L 42.617188 28.523438 L 42.585938 28.570312 L 42.566406 28.625 L 42.554688 28.679688 L 42.550781 28.734375 L 42.554688 28.792969 L 42.566406 28.847656 L 42.589844 28.898438 L 42.621094 28.949219 L 42.65625 28.992188 L 42.703125 29.027344 L 43.046875 29.253906 L 43.414062 29.449219 L 43.796875 29.609375 L 44.191406 29.734375 L 44.597656 29.828125 L 45.007812 29.882812 L 45.421875 29.898438 L 45.835938 29.882812 L 46.246094 29.828125 L 46.550781 29.757812 L 46.550781 38.824219 L 46.152344 38.855469 L 45.761719 38.949219 L 45.390625 39.101562 L 45.046875 39.3125 L 44.738281 39.574219 L 44.476562 39.882812 L 44.265625 40.226562 L 44.109375 40.597656 L 44.015625 40.992188 L 43.984375 41.394531 L 44.015625 41.796875 L 44.109375 42.1875 L 44.265625 42.558594 L 44.476562 42.902344 L 44.738281 43.210938 L 45.046875 43.472656 L 45.390625 43.683594 L 45.761719 43.839844 L 46.152344 43.933594 L 46.550781 43.964844 Z M 46.550781 52.207031 "/>
<path style=" stroke:none;fill-rule:evenodd;fill:rgb(0%,76.470588%,76.470588%);fill-opacity:1;" d="M 39.324219 3.96875 L 46.550781 3.96875 L 46.550781 13.214844 L 46.535156 13.195312 L 46.507812 13.171875 L 46.296875 13.035156 L 46.074219 12.914062 L 45.84375 12.816406 L 45.601562 12.742188 L 45.355469 12.683594 L 45.105469 12.652344 L 44.855469 12.640625 L 44.601562 12.652344 L 44.351562 12.683594 L 44.105469 12.742188 L 43.867188 12.816406 L 43.632812 12.914062 L 43.410156 13.035156 L 43.199219 13.171875 L 43.171875 13.191406 L 43.152344 13.21875 L 43.132812 13.25 L 43.121094 13.28125 L 43.113281 13.3125 L 43.109375 13.347656 L 43.109375 13.382812 L 43.117188 13.414062 L 43.132812 13.445312 L 43.144531 13.472656 L 39.324219 13.472656 Z M 39.324219 3.96875 "/>
<path style=" stroke:none;fill-rule:evenodd;fill:rgb(0%,76.470588%,76.470588%);fill-opacity:1;" d="M 39.324219 18.617188 L 38.691406 17.988281 L 38.652344 17.9375 L 38.457031 17.773438 L 38.375 17.722656 L 38.238281 17.640625 L 38.074219 17.570312 L 38.003906 17.542969 L 37.757812 17.484375 L 37.503906 17.460938 L 37.4375 17.46875 L 32.886719 17.46875 L 32.824219 17.460938 L 32.566406 17.484375 L 32.320312 17.542969 L 32.085938 17.640625 L 31.867188 17.773438 L 31.671875 17.9375 L 31.632812 17.988281 L 29.273438 20.34375 L 28.953125 20.210938 L 28.5625 20.117188 L 28.160156 20.085938 L 27.757812 20.117188 L 27.363281 20.210938 L 26.992188 20.367188 L 26.710938 20.539062 L 26.710938 14.726562 L 27.21875 14.726562 L 27.328125 14.699219 L 27.433594 14.65625 L 27.527344 14.597656 L 27.617188 14.523438 L 27.6875 14.4375 L 27.746094 14.339844 L 27.792969 14.234375 L 27.816406 14.125 L 27.824219 14.011719 L 27.816406 9.648438 L 27.792969 9.539062 L 27.746094 9.433594 L 27.6875 9.335938 L 27.617188 9.25 L 27.582031 9.222656 L 28.113281 9.222656 L 28.285156 9.394531 L 28.285156 12.929688 L 28.28125 12.96875 L 28.292969 13.113281 L 28.328125 13.257812 L 28.386719 13.394531 L 28.414062 13.441406 L 28.460938 13.519531 L 28.558594 13.632812 L 28.585938 13.65625 L 29.972656 15.042969 L 29.996094 15.070312 L 30.109375 15.167969 L 30.1875 15.214844 L 30.234375 15.242188 L 30.371094 15.300781 L 30.515625 15.335938 L 30.664062 15.347656 L 30.699219 15.34375 L 39.324219 15.34375 Z M 39.324219 18.617188 "/>
<path style=" stroke:none;fill-rule:evenodd;fill:rgb(0%,76.470588%,76.470588%);fill-opacity:1;" d="M 39.324219 48.066406 L 35.292969 48.066406 L 35.164062 47.9375 L 35.164062 32.585938 L 38.878906 32.585938 L 38.941406 32.59375 L 39.195312 32.574219 L 39.324219 32.542969 L 39.324219 38.824219 L 38.925781 38.855469 L 38.535156 38.949219 L 38.160156 39.101562 L 37.816406 39.3125 L 37.511719 39.574219 L 37.25 39.882812 L 37.039062 40.226562 L 36.882812 40.597656 L 36.789062 40.992188 L 36.757812 41.394531 L 36.789062 41.796875 L 36.882812 42.1875 L 37.039062 42.558594 L 37.25 42.902344 L 37.511719 43.210938 L 37.816406 43.472656 L 38.160156 43.683594 L 38.535156 43.839844 L 38.925781 43.933594 L 39.324219 43.964844 Z M 39.324219 48.066406 "/>
<path style=" stroke:none;fill-rule:evenodd;fill:rgb(0%,76.470588%,76.470588%);fill-opacity:1;" d="M 26.710938 3.96875 L 39.324219 3.96875 L 39.324219 13.472656 L 31.050781 13.472656 L 30.160156 12.578125 L 30.160156 9.007812 L 30.148438 8.859375 L 30.113281 8.71875 L 30.058594 8.582031 L 30.027344 8.53125 L 29.980469 8.457031 L 29.886719 8.34375 L 29.859375 8.320312 L 29.191406 7.652344 L 29.167969 7.625 L 29.054688 7.527344 L 28.976562 7.480469 L 28.929688 7.449219 L 28.847656 7.417969 L 28.792969 7.394531 L 28.757812 7.386719 L 28.648438 7.359375 L 28.503906 7.347656 L 28.464844 7.351562 L 26.710938 7.351562 Z M 26.710938 3.96875 "/>
<path style=" stroke:none;fill-rule:evenodd;fill:rgb(0%,76.470588%,76.470588%);fill-opacity:1;" d="M 8.570312 3.96875 L 26.710938 3.96875 L 26.710938 7.351562 L 17.378906 7.351562 L 17.34375 7.347656 L 17.195312 7.359375 L 17.050781 7.394531 L 16.914062 7.449219 L 16.789062 7.527344 L 16.675781 7.625 L 16.652344 7.652344 L 15.984375 8.320312 L 15.957031 8.34375 L 15.863281 8.457031 L 15.785156 8.582031 L 15.730469 8.71875 L 15.695312 8.859375 L 15.683594 9.007812 L 15.6875 9.042969 L 15.6875 12.578125 L 13.71875 14.546875 L 11.253906 14.546875 L 11.238281 14.496094 L 11.140625 14.265625 L 11.023438 14.042969 L 10.886719 13.828125 L 10.863281 13.804688 L 10.835938 13.78125 L 10.808594 13.761719 L 10.777344 13.75 L 10.742188 13.742188 L 10.707031 13.738281 L 10.675781 13.742188 L 10.640625 13.75 L 10.609375 13.761719 L 10.578125 13.777344 L 10.554688 13.800781 L 10.53125 13.828125 L 10.511719 13.855469 L 10.5 13.886719 L 10.492188 13.921875 L 10.488281 13.957031 L 10.492188 13.988281 L 10.496094 14.023438 L 10.511719 14.054688 L 10.53125 14.085938 L 10.648438 14.261719 L 10.746094 14.449219 L 10.789062 14.546875 L 8.570312 14.546875 L 8.570312 13.074219 L 8.785156 13.085938 L 8.996094 13.113281 L 9.203125 13.160156 L 9.410156 13.226562 L 9.605469 13.308594 L 9.792969 13.40625 L 9.972656 13.523438 L 10 13.542969 L 10.035156 13.554688 L 10.066406 13.5625 L 10.101562 13.566406 L 10.132812 13.5625 L 10.167969 13.554688 L 10.199219 13.542969 L 10.226562 13.523438 L 10.253906 13.5 L 10.273438 13.476562 L 10.292969 13.445312 L 10.304688 13.414062 L 10.3125 13.382812 L 10.316406 13.347656 L 10.3125 13.3125 L 10.304688 13.28125 L 10.292969 13.25 L 10.273438 13.21875 L 10.25 13.195312 L 10.222656 13.171875 L 10.015625 13.035156 L 9.792969 12.914062 L 9.558594 12.816406 L 9.320312 12.742188 L 9.074219 12.683594 L 8.824219 12.652344 L 8.570312 12.640625 Z M 8.570312 3.96875 "/>
<path style=" stroke:none;fill-rule:evenodd;fill:rgb(0%,76.470588%,76.470588%);fill-opacity:1;" d="M 11.929688 24.660156 L 11.957031 24.855469 L 11.972656 25.207031 L 11.957031 25.558594 L 11.929688 25.753906 Z M 11.929688 24.660156 "/>
<path style=" stroke:none;fill-rule:evenodd;fill:rgb(0%,76.470588%,76.470588%);fill-opacity:1;" d="M 20.421875 25.371094 L 20.421875 24.3125 L 20.558594 24.472656 L 20.867188 24.734375 L 21.210938 24.945312 L 21.582031 25.101562 L 21.972656 25.195312 L 22.375 25.226562 L 22.777344 25.195312 L 23.171875 25.101562 L 23.464844 24.980469 L 24.007812 25.523438 L 23.757812 25.679688 L 23.449219 25.941406 L 23.1875 26.246094 L 22.976562 26.59375 L 22.824219 26.964844 L 22.730469 27.355469 L 22.695312 27.757812 L 22.730469 28.160156 L 22.824219 28.554688 L 22.976562 28.925781 L 23.1875 29.269531 L 23.449219 29.578125 L 23.648438 29.746094 L 23.648438 45.1875 L 17.765625 45.1875 L 17.703125 45.183594 L 17.449219 45.203125 L 17.199219 45.261719 L 16.964844 45.359375 L 16.746094 45.492188 L 16.554688 45.660156 L 16.511719 45.707031 L 13.070312 49.148438 L 11.929688 49.148438 L 11.929688 42.761719 L 12.019531 42.902344 L 12.28125 43.210938 L 12.589844 43.472656 L 12.933594 43.683594 L 13.304688 43.839844 L 13.695312 43.933594 L 14.097656 43.964844 L 14.5 43.933594 L 14.894531 43.839844 L 15.265625 43.683594 L 15.609375 43.472656 L 15.917969 43.210938 L 16.179688 42.902344 L 16.390625 42.558594 L 16.542969 42.1875 L 16.636719 41.796875 L 16.660156 41.394531 L 16.636719 40.992188 L 16.542969 40.597656 L 16.390625 40.226562 L 16.179688 39.882812 L 15.917969 39.574219 L 15.609375 39.3125 L 15.265625 39.101562 L 14.894531 38.949219 L 14.5 38.855469 L 14.097656 38.824219 L 13.695312 38.855469 L 13.304688 38.949219 L 12.933594 39.101562 L 12.589844 39.3125 L 12.28125 39.574219 L 12.019531 39.882812 L 11.929688 40.027344 L 11.929688 27.765625 L 12.050781 27.582031 L 12.246094 27.214844 L 12.40625 26.832031 L 12.535156 26.4375 L 12.625 26.035156 L 12.679688 25.621094 L 12.699219 25.207031 L 12.679688 24.792969 L 12.625 24.382812 L 12.535156 23.976562 L 12.40625 23.582031 L 12.246094 23.199219 L 12.050781 22.832031 L 11.929688 22.644531 L 11.929688 16.421875 L 14.105469 16.421875 L 14.25 16.410156 L 14.394531 16.378906 L 14.53125 16.320312 L 14.65625 16.242188 L 14.769531 16.148438 L 14.792969 16.121094 L 17.257812 13.65625 L 17.285156 13.632812 L 17.382812 13.519531 L 17.457031 13.394531 L 17.515625 13.257812 L 17.550781 13.113281 L 17.5625 12.96875 L 17.558594 12.929688 L 17.558594 9.394531 L 17.730469 9.222656 L 17.839844 9.222656 L 17.808594 9.25 L 17.734375 9.335938 L 17.675781 9.433594 L 17.632812 9.539062 L 17.605469 9.648438 L 17.597656 9.761719 L 17.605469 14.125 L 17.632812 14.234375 L 17.675781 14.339844 L 17.734375 14.4375 L 17.808594 14.523438 L 17.894531 14.597656 L 17.988281 14.65625 L 18.09375 14.699219 L 18.203125 14.726562 L 18.316406 14.734375 L 19.222656 14.730469 L 19.222656 15.992188 L 19.207031 16 L 19.011719 16.117188 L 18.839844 16.265625 L 18.691406 16.4375 L 18.574219 16.632812 L 18.488281 16.839844 L 18.433594 17.0625 L 18.417969 17.289062 L 18.433594 17.511719 L 18.488281 17.734375 L 18.574219 17.941406 L 18.691406 18.136719 L 18.839844 18.308594 L 19.011719 18.457031 L 19.207031 18.574219 L 19.414062 18.660156 L 19.636719 18.714844 L 19.863281 18.730469 L 20.085938 18.714844 L 20.308594 18.660156 L 20.515625 18.574219 L 20.710938 18.457031 L 20.882812 18.308594 L 21.03125 18.136719 L 21.148438 17.941406 L 21.234375 17.734375 L 21.289062 17.511719 L 21.300781 17.289062 L 21.289062 17.0625 L 21.234375 16.839844 L 21.148438 16.632812 L 21.097656 16.546875 L 21.097656 14.726562 L 22.117188 14.726562 L 22.226562 14.699219 L 22.332031 14.65625 L 22.425781 14.597656 L 22.511719 14.523438 L 22.585938 14.4375 L 22.644531 14.339844 L 22.691406 14.234375 L 22.710938 14.144531 L 22.734375 14.234375 L 22.777344 14.339844 L 22.835938 14.4375 L 22.910156 14.523438 L 22.996094 14.597656 L 23.089844 14.65625 L 23.195312 14.699219 L 23.308594 14.726562 L 23.417969 14.734375 L 24.265625 14.730469 L 24.414062 14.855469 L 24.605469 14.976562 L 24.816406 15.0625 L 25.035156 15.113281 L 25.261719 15.132812 L 25.488281 15.113281 L 25.707031 15.0625 L 25.917969 14.976562 L 26.109375 14.855469 L 26.261719 14.726562 L 26.710938 14.726562 L 26.710938 20.539062 L 26.648438 20.578125 L 26.339844 20.839844 L 26.078125 21.144531 L 25.867188 21.488281 L 25.714844 21.863281 L 25.621094 22.253906 L 25.597656 22.53125 L 24.746094 21.679688 L 24.710938 21.597656 L 24.902344 21.613281 L 25.128906 21.59375 L 25.347656 21.542969 L 25.558594 21.453125 L 25.75 21.335938 L 25.921875 21.1875 L 26.070312 21.015625 L 26.1875 20.824219 L 26.273438 20.613281 L 26.328125 20.394531 L 26.34375 20.167969 L 26.328125 19.941406 L 26.273438 19.722656 L 26.1875 19.511719 L 26.070312 19.320312 L 25.921875 19.144531 L 25.75 19 L 25.558594 18.878906 L 25.347656 18.792969 L 25.128906 18.742188 L 24.902344 18.722656 L 24.675781 18.742188 L 24.457031 18.792969 L 24.269531 18.871094 L 21.339844 18.871094 L 21.300781 18.867188 L 21.15625 18.878906 L 21.011719 18.914062 L 20.875 18.972656 L 20.75 19.046875 L 20.636719 19.144531 L 20.613281 19.171875 L 18.847656 20.9375 L 18.820312 20.960938 L 18.726562 21.074219 L 18.675781 21.152344 L 18.671875 21.144531 L 18.410156 20.839844 L 18.105469 20.578125 L 17.761719 20.367188 L 17.386719 20.210938 L 16.996094 20.117188 L 16.59375 20.085938 L 16.191406 20.117188 L 15.800781 20.210938 L 15.425781 20.367188 L 15.082031 20.578125 L 14.777344 20.839844 L 14.515625 21.144531 L 14.304688 21.488281 L 14.148438 21.863281 L 14.054688 22.253906 L 14.023438 22.65625 L 14.054688 23.058594 L 14.148438 23.449219 L 14.304688 23.824219 L 14.515625 24.167969 L 14.777344 24.472656 L 15.082031 24.734375 L 15.425781 24.945312 L 15.800781 25.101562 L 16.191406 25.195312 L 16.59375 25.226562 L 16.996094 25.195312 L 17.386719 25.101562 L 17.761719 24.945312 L 18.105469 24.734375 L 18.410156 24.472656 L 18.550781 24.3125 L 18.550781 25.371094 L 18.316406 25.46875 L 17.972656 25.679688 L 17.667969 25.941406 L 17.40625 26.246094 L 17.195312 26.59375 L 17.039062 26.964844 L 16.945312 27.355469 L 16.914062 27.757812 L 16.945312 28.160156 L 17.039062 28.554688 L 17.195312 28.925781 L 17.40625 29.269531 L 17.667969 29.578125 L 17.972656 29.839844 L 18.316406 30.046875 L 18.691406 30.203125 L 19.082031 30.296875 L 19.484375 30.328125 L 19.886719 30.296875 L 20.277344 30.203125 L 20.652344 30.046875 L 20.996094 29.839844 L 21.300781 29.578125 L 21.5625 29.269531 L 21.773438 28.925781 L 21.929688 28.554688 L 22.023438 28.160156 L 22.046875 27.757812 L 22.023438 27.355469 L 21.929688 26.964844 L 21.773438 26.59375 L 21.5625 26.246094 L 21.300781 25.941406 L 20.996094 25.679688 L 20.652344 25.46875 Z M 20.421875 25.371094 "/>
<path style=" stroke:none;fill-rule:evenodd;fill:rgb(0%,76.470588%,76.470588%);fill-opacity:1;" d="M 11.929688 49.148438 L 8.570312 49.148438 L 8.570312 43.3125 L 8.6875 43.210938 L 8.949219 42.902344 L 9.160156 42.558594 L 9.316406 42.1875 L 9.410156 41.796875 L 9.433594 41.394531 L 9.410156 40.992188 L 9.316406 40.597656 L 9.160156 40.226562 L 8.949219 39.882812 L 8.6875 39.574219 L 8.570312 39.476562 L 8.570312 29.863281 L 8.832031 29.828125 L 9.234375 29.734375 L 9.628906 29.609375 L 10.011719 29.449219 L 10.378906 29.253906 L 10.726562 29.03125 L 10.773438 28.992188 L 10.808594 28.949219 L 10.839844 28.902344 L 10.863281 28.847656 L 10.875 28.792969 L 10.882812 28.734375 L 10.878906 28.679688 L 10.863281 28.625 L 10.84375 28.570312 L 10.8125 28.519531 L 10.777344 28.476562 L 10.734375 28.441406 L 10.683594 28.410156 L 10.632812 28.386719 L 10.578125 28.371094 L 10.519531 28.367188 L 10.460938 28.371094 L 10.40625 28.386719 L 10.355469 28.40625 L 10.304688 28.4375 L 10.011719 28.628906 L 9.703125 28.792969 L 9.378906 28.929688 L 9.046875 29.035156 L 8.703125 29.113281 L 8.570312 29.132812 L 8.570312 25.953125 L 8.667969 25.867188 L 9.207031 25.328125 L 9.234375 25.304688 L 9.332031 25.191406 L 9.40625 25.066406 L 9.464844 24.929688 L 9.5 24.789062 L 9.511719 24.640625 L 9.507812 24.605469 L 9.507812 21.539062 L 9.703125 21.621094 L 10.011719 21.785156 L 10.308594 21.976562 L 10.355469 22.003906 L 10.40625 22.027344 L 10.464844 22.039062 L 10.519531 22.042969 L 10.578125 22.039062 L 10.632812 22.023438 L 10.683594 22.003906 L 10.730469 21.972656 L 10.773438 21.933594 L 10.808594 21.890625 L 10.839844 21.84375 L 10.859375 21.789062 L 10.875 21.734375 L 10.878906 21.679688 L 10.871094 21.621094 L 10.859375 21.566406 L 10.835938 21.515625 L 10.804688 21.46875 L 10.769531 21.425781 L 10.726562 21.390625 L 10.378906 21.160156 L 10.011719 20.964844 L 9.628906 20.804688 L 9.507812 20.765625 L 9.507812 18.167969 L 9.558594 18.152344 L 9.792969 18.054688 L 10.015625 17.933594 L 10.226562 17.796875 L 10.253906 17.777344 L 10.292969 17.722656 L 10.304688 17.6875 L 10.316406 17.65625 L 10.316406 17.585938 L 10.308594 17.554688 L 10.277344 17.492188 L 10.253906 17.464844 L 10.230469 17.445312 L 10.199219 17.425781 L 10.167969 17.410156 L 10.132812 17.402344 L 10.066406 17.402344 L 10.03125 17.410156 L 10 17.425781 L 9.972656 17.441406 L 9.792969 17.5625 L 9.605469 17.660156 L 9.507812 17.703125 L 9.507812 16.421875 L 10.789062 16.421875 L 10.746094 16.519531 L 10.648438 16.707031 L 10.53125 16.886719 L 10.511719 16.914062 L 10.5 16.945312 L 10.492188 16.980469 L 10.488281 17.015625 L 10.492188 17.046875 L 10.5 17.078125 L 10.515625 17.113281 L 10.53125 17.140625 L 10.554688 17.167969 L 10.609375 17.207031 L 10.640625 17.21875 L 10.675781 17.226562 L 10.742188 17.226562 L 10.773438 17.21875 L 10.808594 17.203125 L 10.835938 17.1875 L 10.863281 17.164062 L 10.882812 17.136719 L 11.023438 16.925781 L 11.140625 16.703125 L 11.238281 16.472656 L 11.253906 16.421875 L 11.929688 16.421875 L 11.929688 22.644531 L 11.828125 22.484375 L 11.789062 22.441406 L 11.746094 22.402344 L 11.699219 22.371094 L 11.644531 22.351562 L 11.589844 22.335938 L 11.535156 22.332031 L 11.476562 22.335938 L 11.421875 22.347656 L 11.367188 22.371094 L 11.316406 22.398438 L 11.273438 22.433594 L 11.238281 22.480469 L 11.207031 22.527344 L 11.183594 22.578125 L 11.167969 22.636719 L 11.164062 22.691406 L 11.167969 22.75 L 11.183594 22.804688 L 11.203125 22.859375 L 11.234375 22.90625 L 11.425781 23.199219 L 11.589844 23.507812 L 11.726562 23.832031 L 11.835938 24.167969 L 11.910156 24.507812 L 11.929688 24.660156 L 11.929688 25.753906 L 11.910156 25.90625 L 11.835938 26.246094 L 11.726562 26.582031 L 11.589844 26.90625 L 11.425781 27.214844 L 11.238281 27.511719 L 11.207031 27.558594 L 11.1875 27.609375 L 11.171875 27.667969 L 11.167969 27.722656 L 11.175781 27.777344 L 11.1875 27.832031 L 11.210938 27.886719 L 11.238281 27.933594 L 11.277344 27.976562 L 11.320312 28.011719 L 11.371094 28.042969 L 11.421875 28.0625 L 11.476562 28.078125 L 11.535156 28.082031 L 11.589844 28.074219 L 11.644531 28.0625 L 11.695312 28.039062 L 11.746094 28.007812 L 11.789062 27.972656 L 11.824219 27.929688 L 11.929688 27.765625 L 11.929688 40.027344 L 11.808594 40.226562 L 11.652344 40.597656 L 11.558594 40.992188 L 11.527344 41.394531 L 11.558594 41.796875 L 11.652344 42.1875 L 11.808594 42.558594 L 11.929688 42.761719 Z M 11.929688 49.148438 "/>
<path style=" stroke:none;fill-rule:evenodd;fill:rgb(0%,76.470588%,76.470588%);fill-opacity:1;" d="M 6.191406 29.53125 L 6.378906 29.609375 L 6.773438 29.734375 L 7.179688 29.828125 L 7.589844 29.882812 L 8.003906 29.898438 L 8.417969 29.882812 L 8.570312 29.863281 L 8.570312 39.476562 L 8.382812 39.3125 L 8.039062 39.101562 L 7.664062 38.949219 L 7.273438 38.855469 L 6.871094 38.824219 L 6.46875 38.855469 L 6.191406 38.921875 Z M 6.191406 29.53125 "/>
<path style=" stroke:none;fill-rule:evenodd;fill:rgb(0%,76.470588%,76.470588%);fill-opacity:1;" d="M 6.191406 21.679688 L 6.304688 21.621094 L 6.628906 21.484375 L 6.964844 21.378906 L 7.304688 21.300781 L 7.636719 21.257812 L 7.636719 24.253906 L 7.34375 24.546875 L 7.246094 24.65625 L 7.167969 24.78125 L 7.113281 24.917969 L 7.078125 25.058594 L 7.066406 25.207031 L 7.078125 25.355469 L 7.113281 25.496094 L 7.167969 25.632812 L 7.246094 25.757812 L 7.339844 25.871094 L 7.453125 25.96875 L 7.578125 26.042969 L 7.714844 26.101562 L 7.859375 26.136719 L 8.003906 26.144531 L 8.152344 26.136719 L 8.292969 26.101562 L 8.429688 26.042969 L 8.554688 25.96875 L 8.570312 25.953125 L 8.570312 29.132812 L 8.355469 29.160156 L 8.003906 29.175781 L 7.652344 29.160156 L 7.304688 29.113281 L 6.964844 29.035156 L 6.628906 28.929688 L 6.304688 28.792969 L 6.191406 28.734375 Z M 6.191406 21.679688 "/>
<path style=" stroke:none;fill-rule:evenodd;fill:rgb(0%,76.470588%,76.470588%);fill-opacity:1;" d="M 6.191406 3.96875 L 8.570312 3.96875 L 8.570312 12.640625 L 8.320312 12.652344 L 8.070312 12.683594 L 7.824219 12.742188 L 7.582031 12.816406 L 7.351562 12.914062 L 7.128906 13.035156 L 6.917969 13.171875 L 6.890625 13.191406 L 6.867188 13.21875 L 6.835938 13.28125 L 6.828125 13.3125 L 6.824219 13.347656 L 6.828125 13.382812 L 6.835938 13.414062 L 6.847656 13.445312 L 6.867188 13.476562 L 6.886719 13.503906 L 6.914062 13.527344 L 6.941406 13.542969 L 6.976562 13.558594 L 7.007812 13.566406 L 7.078125 13.566406 L 7.109375 13.558594 L 7.171875 13.527344 L 7.347656 13.40625 L 7.539062 13.308594 L 7.734375 13.226562 L 7.9375 13.160156 L 8.144531 13.113281 L 8.359375 13.085938 L 8.570312 13.074219 L 8.570312 14.546875 L 8.425781 14.558594 L 8.28125 14.589844 L 8.144531 14.648438 L 8.019531 14.726562 L 7.90625 14.820312 L 7.8125 14.933594 L 7.734375 15.058594 L 7.679688 15.195312 L 7.644531 15.335938 L 7.632812 15.484375 L 7.636719 15.519531 L 7.636719 17.703125 L 7.539062 17.660156 L 7.347656 17.5625 L 7.171875 17.445312 L 7.140625 17.425781 L 7.109375 17.414062 L 7.078125 17.40625 L 7.042969 17.402344 L 7.007812 17.40625 L 6.976562 17.414062 L 6.914062 17.445312 L 6.867188 17.492188 L 6.835938 17.554688 L 6.832031 17.585938 L 6.828125 17.621094 L 6.832031 17.65625 L 6.839844 17.6875 L 6.851562 17.71875 L 6.871094 17.75 L 6.890625 17.773438 L 6.917969 17.796875 L 7.128906 17.933594 L 7.351562 18.054688 L 7.582031 18.152344 L 7.636719 18.167969 L 7.636719 20.53125 L 7.589844 20.53125 L 7.179688 20.585938 L 6.773438 20.679688 L 6.378906 20.804688 L 6.191406 20.882812 L 6.191406 17.035156 L 6.257812 17.140625 L 6.304688 17.1875 L 6.335938 17.207031 L 6.367188 17.21875 L 6.402344 17.226562 L 6.433594 17.230469 L 6.46875 17.226562 L 6.503906 17.21875 L 6.535156 17.207031 L 6.5625 17.191406 L 6.589844 17.167969 L 6.613281 17.140625 L 6.628906 17.113281 L 6.644531 17.082031 L 6.652344 17.046875 L 6.65625 17.015625 L 6.652344 16.980469 L 6.644531 16.945312 L 6.632812 16.914062 L 6.613281 16.886719 L 6.496094 16.707031 L 6.394531 16.519531 L 6.3125 16.320312 L 6.246094 16.117188 L 6.199219 15.910156 L 6.191406 15.84375 L 6.191406 15.125 L 6.199219 15.058594 L 6.246094 14.851562 L 6.3125 14.648438 L 6.394531 14.449219 L 6.496094 14.261719 L 6.613281 14.082031 L 6.628906 14.054688 L 6.640625 14.023438 L 6.648438 13.988281 L 6.652344 13.957031 L 6.648438 13.921875 L 6.640625 13.890625 L 6.628906 13.855469 L 6.589844 13.800781 L 6.5625 13.78125 L 6.5 13.75 L 6.46875 13.742188 L 6.402344 13.742188 L 6.367188 13.75 L 6.335938 13.765625 L 6.308594 13.78125 L 6.28125 13.804688 L 6.261719 13.832031 L 6.191406 13.9375 Z M 6.191406 3.96875 "/>
<path style=" stroke:none;fill-rule:evenodd;fill:rgb(0%,76.470588%,76.470588%);fill-opacity:1;" d="M 8.570312 49.148438 L 8.40625 49.148438 L 8.34375 49.140625 L 8.085938 49.164062 L 7.839844 49.222656 L 7.605469 49.320312 L 7.386719 49.453125 L 7.191406 49.617188 L 7.152344 49.667969 L 6.191406 50.628906 L 6.191406 43.867188 L 6.46875 43.933594 L 6.871094 43.964844 L 7.273438 43.933594 L 7.664062 43.839844 L 8.039062 43.683594 L 8.382812 43.472656 L 8.570312 43.3125 Z M 8.570312 49.148438 "/>
<path style=" stroke:none;fill-rule:evenodd;fill:rgb(0%,76.470588%,76.470588%);fill-opacity:1;" d="M 6.191406 15.84375 L 6.171875 15.699219 L 6.164062 15.484375 L 6.171875 15.269531 L 6.191406 15.125 Z M 6.191406 15.84375 "/>
<path style=" stroke:none;fill-rule:evenodd;fill:rgb(0%,76.470588%,76.470588%);fill-opacity:1;" d="M 6.191406 50.628906 L 5.441406 51.378906 L 5.394531 51.417969 L 5.226562 51.613281 L 5.09375 51.828125 L 4.996094 52.066406 L 4.960938 52.207031 L 3.683594 52.207031 L 3.683594 27.03125 L 3.761719 27.214844 L 3.957031 27.582031 L 4.183594 27.929688 L 4.21875 27.976562 L 4.261719 28.011719 L 4.3125 28.042969 L 4.363281 28.066406 L 4.417969 28.078125 L 4.476562 28.082031 L 4.53125 28.082031 L 4.589844 28.066406 L 4.640625 28.046875 L 4.691406 28.015625 L 4.734375 27.980469 L 4.773438 27.9375 L 4.804688 27.886719 L 4.824219 27.835938 L 4.839844 27.777344 L 4.84375 27.722656 L 4.839844 27.664062 L 4.828125 27.609375 L 4.804688 27.558594 L 4.777344 27.507812 L 4.582031 27.214844 L 4.417969 26.90625 L 4.28125 26.582031 L 4.175781 26.246094 L 4.097656 25.90625 L 4.050781 25.558594 L 4.035156 25.207031 L 4.050781 24.855469 L 4.097656 24.507812 L 4.175781 24.167969 L 4.28125 23.832031 L 4.417969 23.507812 L 4.582031 23.199219 L 4.773438 22.90625 L 4.804688 22.855469 L 4.824219 22.804688 L 4.835938 22.75 L 4.839844 22.691406 L 4.835938 22.636719 L 4.820312 22.582031 L 4.800781 22.527344 L 4.769531 22.480469 L 4.730469 22.4375 L 4.6875 22.402344 L 4.640625 22.371094 L 4.585938 22.351562 L 4.53125 22.339844 L 4.476562 22.335938 L 4.417969 22.339844 L 4.363281 22.351562 L 4.3125 22.375 L 4.265625 22.40625 L 4.222656 22.441406 L 4.1875 22.488281 L 3.957031 22.832031 L 3.761719 23.199219 L 3.683594 23.386719 L 3.683594 3.96875 L 6.191406 3.96875 L 6.191406 13.9375 L 6.121094 14.042969 L 6.003906 14.265625 L 5.90625 14.496094 L 5.828125 14.738281 L 5.773438 14.984375 L 5.738281 15.234375 L 5.726562 15.484375 L 5.738281 15.738281 L 5.773438 15.988281 L 5.828125 16.234375 L 5.90625 16.472656 L 6.003906 16.703125 L 6.121094 16.925781 L 6.191406 17.035156 L 6.191406 20.882812 L 5.996094 20.964844 L 5.628906 21.160156 L 5.28125 21.386719 L 5.238281 21.421875 L 5.199219 21.464844 L 5.167969 21.515625 L 5.148438 21.566406 L 5.132812 21.621094 L 5.128906 21.679688 L 5.132812 21.734375 L 5.144531 21.792969 L 5.167969 21.84375 L 5.195312 21.894531 L 5.234375 21.9375 L 5.277344 21.976562 L 5.324219 22.003906 L 5.375 22.027344 L 5.433594 22.042969 L 5.488281 22.046875 L 5.546875 22.042969 L 5.601562 22.03125 L 5.65625 22.007812 L 5.703125 21.976562 L 5.996094 21.785156 L 6.191406 21.679688 L 6.191406 28.734375 L 5.996094 28.628906 L 5.703125 28.441406 L 5.652344 28.410156 L 5.601562 28.386719 L 5.546875 28.375 L 5.488281 28.371094 L 5.433594 28.375 L 5.378906 28.390625 L 5.328125 28.414062 L 5.277344 28.441406 L 5.234375 28.480469 L 5.199219 28.523438 L 5.171875 28.570312 L 5.148438 28.625 L 5.136719 28.679688 L 5.132812 28.734375 L 5.136719 28.792969 L 5.152344 28.847656 L 5.171875 28.898438 L 5.203125 28.949219 L 5.238281 28.992188 L 5.285156 29.027344 L 5.628906 29.253906 L 5.996094 29.449219 L 6.191406 29.53125 L 6.191406 38.921875 L 6.078125 38.949219 L 5.703125 39.101562 L 5.359375 39.3125 L 5.054688 39.574219 L 4.792969 39.882812 L 4.582031 40.226562 L 4.425781 40.597656 L 4.332031 40.992188 L 4.300781 41.394531 L 4.332031 41.796875 L 4.425781 42.1875 L 4.582031 42.558594 L 4.792969 42.902344 L 5.054688 43.210938 L 5.359375 43.472656 L 5.703125 43.683594 L 6.078125 43.839844 L 6.191406 43.867188 Z M 6.191406 50.628906 "/>
<path style=" stroke:none;fill-rule:evenodd;fill:rgb(0%,76.470588%,76.470588%);fill-opacity:1;" d="M 26.523438 47.214844 L 26.03125 47.707031 L 25.933594 47.707031 L 26.367188 47.273438 L 26.417969 47.230469 L 26.523438 47.109375 Z M 26.523438 47.214844 "/>
<path style=" stroke:none;fill-rule:evenodd;fill:rgb(0%,76.470588%,76.470588%);fill-opacity:1;" d="M 27.960938 52.207031 L 19.652344 52.207031 L 19.652344 51.109375 L 19.8125 50.949219 L 26.636719 50.949219 L 26.703125 50.953125 L 26.957031 50.933594 L 27.203125 50.871094 L 27.441406 50.773438 L 27.65625 50.640625 L 27.851562 50.476562 L 27.890625 50.429688 L 28.03125 50.289062 L 27.976562 50.511719 L 27.957031 50.765625 L 27.960938 50.832031 Z M 27.960938 52.207031 "/>
<path style=" stroke:none;fill-rule:evenodd;fill:rgb(0%,76.470588%,76.470588%);fill-opacity:1;" d="M 39.480469 52.207031 L 31.203125 52.207031 L 31.203125 51.4375 L 32.152344 50.488281 L 32.199219 50.449219 L 32.363281 50.253906 L 32.5 50.035156 L 32.550781 49.90625 L 33.429688 50.789062 L 33.472656 50.835938 L 33.667969 51.003906 L 33.800781 51.085938 L 33.882812 51.136719 L 34.121094 51.234375 L 34.367188 51.292969 L 34.621094 51.3125 L 34.6875 51.308594 L 39.351562 51.308594 L 39.480469 51.4375 Z M 39.480469 52.207031 "/>
<path style=" stroke:none;fill-rule:evenodd;fill:rgb(0%,76.470588%,76.470588%);fill-opacity:1;" d="M 16.410156 52.207031 L 14.492188 52.207031 L 14.695312 52.082031 L 14.890625 51.917969 L 14.933594 51.867188 L 16.410156 50.390625 L 16.40625 50.4375 L 16.410156 50.5 Z M 16.410156 52.207031 "/>
<path style=" stroke:none;fill-rule:evenodd;fill:rgb(0%,76.470588%,76.470588%);fill-opacity:1;" d="M 33.035156 29.378906 L 33.941406 29.378906 L 33.757812 29.421875 L 33.523438 29.519531 L 33.308594 29.652344 L 33.113281 29.816406 L 33.070312 29.867188 L 32.671875 30.269531 L 32.671875 29.746094 L 32.867188 29.578125 Z M 33.035156 29.378906 "/>
<path style=" stroke:none;fill-rule:evenodd;fill:rgb(0%,76.470588%,76.470588%);fill-opacity:1;" d="M 38.402344 22.277344 L 38.402344 25.730469 L 38.34375 25.679688 L 38 25.46875 L 37.628906 25.3125 L 37.234375 25.21875 L 36.832031 25.1875 L 36.429688 25.21875 L 36.039062 25.3125 L 35.667969 25.46875 L 35.320312 25.679688 L 35.015625 25.941406 L 34.847656 26.136719 L 33.035156 26.136719 L 32.867188 25.941406 L 32.5625 25.679688 L 32.289062 25.511719 L 32.832031 24.96875 L 33.148438 25.101562 L 33.539062 25.195312 L 33.941406 25.226562 L 34.34375 25.195312 L 34.734375 25.101562 L 35.109375 24.945312 L 35.453125 24.734375 L 35.757812 24.472656 L 36.019531 24.167969 L 36.230469 23.824219 L 36.386719 23.449219 L 36.480469 23.058594 L 36.503906 22.65625 L 36.480469 22.253906 L 36.386719 21.863281 L 36.230469 21.488281 L 36.019531 21.144531 L 35.757812 20.839844 L 35.605469 20.707031 L 36.832031 20.707031 Z M 38.402344 22.277344 "/>
<path style=" stroke:none;fill-rule:evenodd;fill:rgb(0%,76.470588%,76.470588%);fill-opacity:1;" d="M 22.941406 9.222656 L 22.910156 9.25 L 22.835938 9.335938 L 22.777344 9.433594 L 22.734375 9.539062 L 22.710938 9.628906 L 22.691406 9.539062 L 22.644531 9.433594 L 22.585938 9.335938 L 22.511719 9.25 L 22.480469 9.222656 Z M 22.941406 9.222656 "/>
<path style="fill:none;stroke-width:0.006;stroke-linecap:round;stroke-linejoin:miter;stroke:rgb(0%,76.470588%,76.470588%);stroke-opacity:1;stroke-miterlimit:10;" d="M 0.207857 6.735042 L 0.207857 6.607872 " transform="matrix(72,0,0,-72,-6.3954,500.40741)"/>
<path style="fill:none;stroke-width:0.006;stroke-linecap:round;stroke-linejoin:miter;stroke:rgb(0%,76.470588%,76.470588%);stroke-opacity:1;stroke-miterlimit:10;" d="M 0.207857 6.607872 L 0.19999 6.600005 " transform="matrix(72,0,0,-72,-6.3954,500.40741)"/>
<path style="fill:none;stroke-width:0.006;stroke-linecap:round;stroke-linejoin:miter;stroke:rgb(0%,76.470588%,76.470588%);stroke-opacity:1;stroke-miterlimit:10;" d="M 0.359441 6.564578 L 0.359441 6.649756 " transform="matrix(72,0,0,-72,-6.3954,500.40741)"/>
<path style="fill:none;stroke-width:0.006;stroke-linecap:round;stroke-linejoin:miter;stroke:rgb(0%,76.470588%,76.470588%);stroke-opacity:1;stroke-miterlimit:10;" d="M 0.359441 6.649756 L 0.384669 6.674984 " transform="matrix(72,0,0,-72,-6.3954,500.40741)"/>
<path style="fill:none;stroke-width:0.006;stroke-linecap:round;stroke-linejoin:miter;stroke:rgb(0%,76.470588%,76.470588%);stroke-opacity:1;stroke-miterlimit:10;" d="M 0.384669 6.674984 L 0.4297 6.674984 " transform="matrix(72,0,0,-72,-6.3954,500.40741)"/>
<path style="fill:none;stroke-width:0.006;stroke-linecap:round;stroke-linejoin:miter;stroke:rgb(0%,76.470588%,76.470588%);stroke-opacity:1;stroke-miterlimit:10;" d="M 0.4297 6.674984 L 0.434691 6.669992 " transform="matrix(72,0,0,-72,-6.3954,500.40741)"/>
<path style="fill:none;stroke-width:0.025;stroke-linecap:round;stroke-linejoin:miter;stroke:rgb(0%,76.470588%,76.470588%);stroke-opacity:1;stroke-miterlimit:10;" d="M 0.399589 6.635433 L 0.414237 6.635433 " transform="matrix(72,0,0,-72,-6.3954,500.40741)"/>
<path style="fill:none;stroke-width:0.006;stroke-linecap:round;stroke-linejoin:miter;stroke:rgb(0%,76.470588%,76.470588%);stroke-opacity:1;stroke-miterlimit:10;" d="M 0.207857 6.735042 L 0.284734 6.735042 " transform="matrix(72,0,0,-72,-6.3954,500.40741)"/>
<path style="fill:none;stroke-width:0.006;stroke-linecap:round;stroke-linejoin:miter;stroke:rgb(0%,76.470588%,76.470588%);stroke-opacity:1;stroke-miterlimit:10;" d="M 0.284734 6.735042 L 0.319674 6.769981 " transform="matrix(72,0,0,-72,-6.3954,500.40741)"/>
<path style="fill:none;stroke-width:0.006;stroke-linecap:round;stroke-linejoin:miter;stroke:rgb(0%,76.470588%,76.470588%);stroke-opacity:1;stroke-miterlimit:10;" d="M 0.319674 6.769981 L 0.319674 6.824994 " transform="matrix(72,0,0,-72,-6.3954,500.40741)"/>
<path style="fill:none;stroke-width:0.006;stroke-linecap:round;stroke-linejoin:miter;stroke:rgb(0%,76.470588%,76.470588%);stroke-opacity:1;stroke-miterlimit:10;" d="M 0.319674 6.824994 L 0.32971 6.834977 " transform="matrix(72,0,0,-72,-6.3954,500.40741)"/>
<path style="fill:none;stroke-width:0.006;stroke-linecap:round;stroke-linejoin:miter;stroke:rgb(0%,76.470588%,76.470588%);stroke-opacity:1;stroke-miterlimit:10;" d="M 0.368827 6.78501 L 0.368827 6.714155 " transform="matrix(72,0,0,-72,-6.3954,500.40741)"/>
<path style="fill:none;stroke-width:0.006;stroke-linecap:round;stroke-linejoin:miter;stroke:rgb(0%,76.470588%,76.470588%);stroke-opacity:1;stroke-miterlimit:10;" d="M 0.368827 6.714155 L 0.364704 6.709977 " transform="matrix(72,0,0,-72,-6.3954,500.40741)"/>
<path style="fill:none;stroke-width:0.006;stroke-linecap:round;stroke-linejoin:miter;stroke:rgb(0%,76.470588%,76.470588%);stroke-opacity:1;stroke-miterlimit:10;" d="M 0.711818 6.735042 L 0.711818 6.607872 " transform="matrix(72,0,0,-72,-6.3954,500.40741)"/>
<path style="fill:none;stroke-width:0.006;stroke-linecap:round;stroke-linejoin:miter;stroke:rgb(0%,76.470588%,76.470588%);stroke-opacity:1;stroke-miterlimit:10;" d="M 0.696844 6.750016 L 0.711818 6.735042 " transform="matrix(72,0,0,-72,-6.3954,500.40741)"/>
<path style="fill:none;stroke-width:0.006;stroke-linecap:round;stroke-linejoin:miter;stroke:rgb(0%,76.470588%,76.470588%);stroke-opacity:1;stroke-miterlimit:10;" d="M 0.711818 6.607872 L 0.719684 6.600005 " transform="matrix(72,0,0,-72,-6.3954,500.40741)"/>
<path style="fill:none;stroke-width:0.025;stroke-linecap:round;stroke-linejoin:miter;stroke:rgb(0%,76.470588%,76.470588%);stroke-opacity:1;stroke-miterlimit:10;" d="M 0.644706 6.650027 L 0.644706 6.53501 " transform="matrix(72,0,0,-72,-6.3954,500.40741)"/>
<path style="fill:none;stroke-width:0.025;stroke-linecap:round;stroke-linejoin:miter;stroke:rgb(0%,76.470588%,76.470588%);stroke-opacity:1;stroke-miterlimit:10;" d="M 0.644706 6.53501 L 0.629678 6.519981 " transform="matrix(72,0,0,-72,-6.3954,500.40741)"/>
<path style="fill:none;stroke-width:0.025;stroke-linecap:round;stroke-linejoin:miter;stroke:rgb(0%,76.470588%,76.470588%);stroke-opacity:1;stroke-miterlimit:10;" d="M 0.600381 6.564578 L 0.520086 6.564578 " transform="matrix(72,0,0,-72,-6.3954,500.40741)"/>
<path style="fill:none;stroke-width:0.025;stroke-linecap:round;stroke-linejoin:miter;stroke:rgb(0%,76.470588%,76.470588%);stroke-opacity:1;stroke-miterlimit:10;" d="M 0.629678 6.519981 L 0.564682 6.519981 " transform="matrix(72,0,0,-72,-6.3954,500.40741)"/>
<path style="fill:none;stroke-width:0.025;stroke-linecap:round;stroke-linejoin:miter;stroke:rgb(0%,76.470588%,76.470588%);stroke-opacity:1;stroke-miterlimit:10;" d="M 0.564682 6.519981 L 0.5547 6.509999 " transform="matrix(72,0,0,-72,-6.3954,500.40741)"/>
<path style="fill:none;stroke-width:0.025;stroke-linecap:round;stroke-linejoin:miter;stroke:rgb(0%,76.470588%,76.470588%);stroke-opacity:1;stroke-miterlimit:10;" d="M 0.439736 6.564578 L 0.439736 6.310075 " transform="matrix(72,0,0,-72,-6.3954,500.40741)"/>
<path style="fill:none;stroke-width:0.025;stroke-linecap:round;stroke-linejoin:miter;stroke:rgb(0%,76.470588%,76.470588%);stroke-opacity:1;stroke-miterlimit:10;" d="M 0.439736 6.310075 L 0.4297 6.299984 " transform="matrix(72,0,0,-72,-6.3954,500.40741)"/>
<path style="fill:none;stroke-width:0.025;stroke-linecap:round;stroke-linejoin:miter;stroke:rgb(0%,76.470588%,76.470588%);stroke-opacity:1;stroke-miterlimit:10;" d="M 0.479667 6.28501 L 0.479667 6.544992 " transform="matrix(72,0,0,-72,-6.3954,500.40741)"/>
<path style="fill:none;stroke-width:0.016;stroke-linecap:round;stroke-linejoin:miter;stroke:rgb(0%,76.470588%,76.470588%);stroke-opacity:1;stroke-miterlimit:10;" d="M 0.479613 6.58042 L 0.479613 6.525407 " transform="matrix(72,0,0,-72,-6.3954,500.40741)"/>
<path style="fill:none;stroke-width:0.025;stroke-linecap:round;stroke-linejoin:miter;stroke:rgb(0%,76.470588%,76.470588%);stroke-opacity:1;stroke-miterlimit:10;" d="M 0.4297 6.299984 L 0.334702 6.299984 " transform="matrix(72,0,0,-72,-6.3954,500.40741)"/>
<path style="fill:none;stroke-width:0.025;stroke-linecap:round;stroke-linejoin:miter;stroke:rgb(0%,76.470588%,76.470588%);stroke-opacity:1;stroke-miterlimit:10;" d="M 0.354667 6.26499 L 0.459702 6.26499 " transform="matrix(72,0,0,-72,-6.3954,500.40741)"/>
<path style="fill:none;stroke-width:0.025;stroke-linecap:round;stroke-linejoin:miter;stroke:rgb(0%,76.470588%,76.470588%);stroke-opacity:1;stroke-miterlimit:10;" d="M 0.459702 6.26499 L 0.479667 6.28501 " transform="matrix(72,0,0,-72,-6.3954,500.40741)"/>
<path style="fill:none;stroke-width:0.025;stroke-linecap:round;stroke-linejoin:miter;stroke:rgb(0%,76.470588%,76.470588%);stroke-opacity:1;stroke-miterlimit:10;" d="M 0.334702 6.299984 L 0.279689 6.245025 " transform="matrix(72,0,0,-72,-6.3954,500.40741)"/>
<path style="fill:none;stroke-width:0.025;stroke-linecap:round;stroke-linejoin:miter;stroke:rgb(0%,76.470588%,76.470588%);stroke-opacity:1;stroke-miterlimit:10;" d="M 0.339259 6.249582 L 0.354667 6.26499 " transform="matrix(72,0,0,-72,-6.3954,500.40741)"/>
<path style="fill:none;stroke-width:0.025;stroke-linecap:round;stroke-linejoin:miter;stroke:rgb(0%,76.470588%,76.470588%);stroke-opacity:1;stroke-miterlimit:10;" d="M 0.5547 6.509999 L 0.5547 6.275027 " transform="matrix(72,0,0,-72,-6.3954,500.40741)"/>
<path style="fill:none;stroke-width:0.025;stroke-linecap:round;stroke-linejoin:miter;stroke:rgb(0%,76.470588%,76.470588%);stroke-opacity:1;stroke-miterlimit:10;" d="M 0.5547 6.275027 L 0.569674 6.259999 " transform="matrix(72,0,0,-72,-6.3954,500.40741)"/>
<path style="fill:none;stroke-width:0.025;stroke-linecap:round;stroke-linejoin:miter;stroke:rgb(0%,76.470588%,76.470588%);stroke-opacity:1;stroke-miterlimit:10;" d="M 0.569674 6.259999 L 0.644706 6.259999 " transform="matrix(72,0,0,-72,-6.3954,500.40741)"/>
<path style="fill:none;stroke-width:0.025;stroke-linecap:round;stroke-linejoin:miter;stroke:rgb(0%,76.470588%,76.470588%);stroke-opacity:1;stroke-miterlimit:10;" d="M 0.644706 6.259999 L 0.65968 6.245025 " transform="matrix(72,0,0,-72,-6.3954,500.40741)"/>
<path style="fill:none;stroke-width:0.025;stroke-linecap:round;stroke-linejoin:miter;stroke:rgb(0%,76.470588%,76.470588%);stroke-opacity:1;stroke-miterlimit:10;" d="M 0.520086 6.564578 L 0.520086 6.26537 " transform="matrix(72,0,0,-72,-6.3954,500.40741)"/>
<path style="fill:none;stroke-width:0.025;stroke-linecap:round;stroke-linejoin:miter;stroke:rgb(0%,76.470588%,76.470588%);stroke-opacity:1;stroke-miterlimit:10;" d="M 0.520086 6.26537 L 0.499687 6.245025 " transform="matrix(72,0,0,-72,-6.3954,500.40741)"/>
<path style="fill:none;stroke-width:0.006;stroke-linecap:round;stroke-linejoin:miter;stroke:rgb(0%,76.470588%,76.470588%);stroke-opacity:1;stroke-miterlimit:10;" d="M 0.439682 6.759999 L 0.439682 6.78501 " transform="matrix(72,0,0,-72,-6.3954,500.40741)"/>
<path style="fill:none;stroke-width:0.006;stroke-linecap:round;stroke-linejoin:miter;stroke:rgb(0%,76.470588%,76.470588%);stroke-opacity:1;stroke-miterlimit:10;" d="M 0.32971 6.834977 L 0.484713 6.834977 " transform="matrix(72,0,0,-72,-6.3954,500.40741)"/>
<path style="fill:none;stroke-width:0.006;stroke-linecap:round;stroke-linejoin:miter;stroke:rgb(0%,76.470588%,76.470588%);stroke-opacity:1;stroke-miterlimit:10;" d="M 0.484713 6.834977 L 0.494695 6.824994 " transform="matrix(72,0,0,-72,-6.3954,500.40741)"/>
<path style="fill:none;stroke-width:0.006;stroke-linecap:round;stroke-linejoin:miter;stroke:rgb(0%,76.470588%,76.470588%);stroke-opacity:1;stroke-miterlimit:10;" d="M 0.494695 6.824994 L 0.494695 6.769981 " transform="matrix(72,0,0,-72,-6.3954,500.40741)"/>
<path style="fill:none;stroke-width:0.006;stroke-linecap:round;stroke-linejoin:miter;stroke:rgb(0%,76.470588%,76.470588%);stroke-opacity:1;stroke-miterlimit:10;" d="M 0.494695 6.769981 L 0.514715 6.750016 " transform="matrix(72,0,0,-72,-6.3954,500.40741)"/>
<path style="fill:none;stroke-width:0.006;stroke-linecap:round;stroke-linejoin:miter;stroke:rgb(0%,76.470588%,76.470588%);stroke-opacity:1;stroke-miterlimit:10;" d="M 0.514715 6.750016 L 0.696844 6.750016 " transform="matrix(72,0,0,-72,-6.3954,500.40741)"/>
<path style="fill:none;stroke-width:0.025;stroke-linecap:round;stroke-linejoin:miter;stroke:rgb(0%,76.470588%,76.470588%);stroke-opacity:1;stroke-miterlimit:10;" d="M 0.414237 6.635433 L 0.439682 6.609988 " transform="matrix(72,0,0,-72,-6.3954,500.40741)"/>
<path style="fill:none;stroke-width:0.016;stroke-linecap:round;stroke-linejoin:miter;stroke:rgb(0%,76.470588%,76.470588%);stroke-opacity:1;stroke-miterlimit:10;" d="M 0.439628 6.605431 L 0.444619 6.605431 " transform="matrix(72,0,0,-72,-6.3954,500.40741)"/>
<path style="fill:none;stroke-width:0.025;stroke-linecap:round;stroke-linejoin:miter;stroke:rgb(0%,76.470588%,76.470588%);stroke-opacity:1;stroke-miterlimit:10;" d="M 0.560233 6.635433 L 0.545097 6.635433 " transform="matrix(72,0,0,-72,-6.3954,500.40741)"/>
<path style="fill:none;stroke-width:0.025;stroke-linecap:round;stroke-linejoin:miter;stroke:rgb(0%,76.470588%,76.470588%);stroke-opacity:1;stroke-miterlimit:10;" d="M 0.495129 6.635433 L 0.544717 6.68502 " transform="matrix(72,0,0,-72,-6.3954,500.40741)"/>
<path style="fill:none;stroke-width:0.025;stroke-linecap:round;stroke-linejoin:miter;stroke:rgb(0%,76.470588%,76.470588%);stroke-opacity:1;stroke-miterlimit:10;" d="M 0.544717 6.68502 L 0.609713 6.68502 " transform="matrix(72,0,0,-72,-6.3954,500.40741)"/>
<path style="fill:none;stroke-width:0.025;stroke-linecap:round;stroke-linejoin:miter;stroke:rgb(0%,76.470588%,76.470588%);stroke-opacity:1;stroke-miterlimit:10;" d="M 0.609713 6.68502 L 0.644706 6.650027 " transform="matrix(72,0,0,-72,-6.3954,500.40741)"/>
<path style="fill:none;stroke-width:0.025;stroke-linecap:round;stroke-linejoin:miter;stroke:rgb(0%,76.470588%,76.470588%);stroke-opacity:1;stroke-miterlimit:10;" d="M 0.545097 6.635433 L 0.519706 6.609988 " transform="matrix(72,0,0,-72,-6.3954,500.40741)"/>
<path style="fill:none;stroke-width:0.025;stroke-linecap:round;stroke-linejoin:miter;stroke:rgb(0%,76.470588%,76.470588%);stroke-opacity:1;stroke-miterlimit:10;" d="M 0.479938 6.635433 L 0.495129 6.635433 " transform="matrix(72,0,0,-72,-6.3954,500.40741)"/>
<path style="fill:none;stroke-width:0.025;stroke-linecap:round;stroke-linejoin:miter;stroke:rgb(0%,76.470588%,76.470588%);stroke-opacity:1;stroke-miterlimit:10;" d="M 0.479667 6.584977 L 0.479667 6.590023 " transform="matrix(72,0,0,-72,-6.3954,500.40741)"/>
<path style="fill:none;stroke-width:0.014;stroke-linecap:round;stroke-linejoin:miter;stroke:rgb(0%,76.470588%,76.470588%);stroke-opacity:1;stroke-miterlimit:10;" d="M 0.479613 6.595448 L 0.494587 6.595448 " transform="matrix(72,0,0,-72,-6.3954,500.40741)"/>
<path style="fill:none;stroke-width:0.014;stroke-linecap:round;stroke-linejoin:miter;stroke:rgb(0%,76.470588%,76.470588%);stroke-opacity:1;stroke-miterlimit:10;" d="M 0.494587 6.595448 L 0.514606 6.615413 " transform="matrix(72,0,0,-72,-6.3954,500.40741)"/>
<path style="fill:none;stroke-width:0.014;stroke-linecap:round;stroke-linejoin:miter;stroke:rgb(0%,76.470588%,76.470588%);stroke-opacity:1;stroke-miterlimit:10;" d="M 0.519598 6.605431 L 0.504624 6.605431 " transform="matrix(72,0,0,-72,-6.3954,500.40741)"/>
<path style="fill:none;stroke-width:0.014;stroke-linecap:round;stroke-linejoin:miter;stroke:rgb(0%,76.470588%,76.470588%);stroke-opacity:1;stroke-miterlimit:10;" d="M 0.449773 6.610422 L 0.459756 6.600439 " transform="matrix(72,0,0,-72,-6.3954,500.40741)"/>
<path style="fill:none;stroke-width:0.014;stroke-linecap:round;stroke-linejoin:miter;stroke:rgb(0%,76.470588%,76.470588%);stroke-opacity:1;stroke-miterlimit:10;" d="M 0.459756 6.600277 L 0.479613 6.58042 " transform="matrix(72,0,0,-72,-6.3954,500.40741)"/>
<path style="fill:none;stroke-width:0.016;stroke-linecap:round;stroke-linejoin:miter;stroke:rgb(0%,76.470588%,76.470588%);stroke-opacity:1;stroke-miterlimit:10;" d="M 0.479613 6.595448 L 0.46963 6.595448 " transform="matrix(72,0,0,-72,-6.3954,500.40741)"/>
<path style="fill:none;stroke-width:0.025;stroke-linecap:round;stroke-linejoin:miter;stroke:rgb(0%,76.470588%,76.470588%);stroke-opacity:1;stroke-miterlimit:10;" d="M 0.718328 6.135867 L 0.722234 6.135867 " transform="matrix(72,0,0,-72,-6.3954,500.40741)"/>
<path style="fill:none;stroke-width:0.025;stroke-linecap:round;stroke-linejoin:miter;stroke:rgb(0%,76.470588%,76.470588%);stroke-opacity:1;stroke-miterlimit:10;" d="M 0.722234 6.135867 L 0.753756 6.104346 " transform="matrix(72,0,0,-72,-6.3954,500.40741)"/>
<path style="fill:none;stroke-width:0.025;stroke-linecap:round;stroke-linejoin:miter;stroke:rgb(0%,76.470588%,76.470588%);stroke-opacity:1;stroke-miterlimit:10;" d="M 0.659246 6.139773 L 0.714856 6.139773 " transform="matrix(72,0,0,-72,-6.3954,500.40741)"/>
<path style="fill:none;stroke-width:0.025;stroke-linecap:round;stroke-linejoin:miter;stroke:rgb(0%,76.470588%,76.470588%);stroke-opacity:1;stroke-miterlimit:10;" d="M 0.65968 6.139773 L 0.65968 6.100005 " transform="matrix(72,0,0,-72,-6.3954,500.40741)"/>
<path style="fill:none;stroke-width:0.025;stroke-linecap:round;stroke-linejoin:miter;stroke:rgb(0%,76.470588%,76.470588%);stroke-opacity:1;stroke-miterlimit:10;" d="M 0.65968 6.100005 L 0.694674 6.065012 " transform="matrix(72,0,0,-72,-6.3954,500.40741)"/>
<path style="fill:none;stroke-width:0.025;stroke-linecap:round;stroke-linejoin:miter;stroke:rgb(0%,76.470588%,76.470588%);stroke-opacity:1;stroke-miterlimit:10;" d="M 0.65968 6.245025 L 0.65968 6.140261 " transform="matrix(72,0,0,-72,-6.3954,500.40741)"/>
<path style="fill:none;stroke-width:0.025;stroke-linecap:round;stroke-linejoin:miter;stroke:rgb(0%,76.470588%,76.470588%);stroke-opacity:1;stroke-miterlimit:10;" d="M 0.65968 6.140261 L 0.659246 6.139773 " transform="matrix(72,0,0,-72,-6.3954,500.40741)"/>
<path style="fill:none;stroke-width:0.025;stroke-linecap:round;stroke-linejoin:miter;stroke:rgb(0%,76.470588%,76.470588%);stroke-opacity:1;stroke-miterlimit:10;" d="M 0.398287 6.160878 L 0.402247 6.160878 " transform="matrix(72,0,0,-72,-6.3954,500.40741)"/>
<path style="fill:none;stroke-width:0.025;stroke-linecap:round;stroke-linejoin:miter;stroke:rgb(0%,76.470588%,76.470588%);stroke-opacity:1;stroke-miterlimit:10;" d="M 0.558335 6.160878 L 0.562241 6.160878 " transform="matrix(72,0,0,-72,-6.3954,500.40741)"/>
<path style="fill:none;stroke-width:0.025;stroke-linecap:round;stroke-linejoin:miter;stroke:rgb(0%,76.470588%,76.470588%);stroke-opacity:1;stroke-miterlimit:10;" d="M 0.562241 6.160878 L 0.593762 6.129356 " transform="matrix(72,0,0,-72,-6.3954,500.40741)"/>
<path style="fill:none;stroke-width:0.025;stroke-linecap:round;stroke-linejoin:miter;stroke:rgb(0%,76.470588%,76.470588%);stroke-opacity:1;stroke-miterlimit:10;" d="M 0.499253 6.164784 L 0.554862 6.164784 " transform="matrix(72,0,0,-72,-6.3954,500.40741)"/>
<path style="fill:none;stroke-width:0.025;stroke-linecap:round;stroke-linejoin:miter;stroke:rgb(0%,76.470588%,76.470588%);stroke-opacity:1;stroke-miterlimit:10;" d="M 0.499687 6.125016 L 0.53468 6.090023 " transform="matrix(72,0,0,-72,-6.3954,500.40741)"/>
<path style="fill:none;stroke-width:0.025;stroke-linecap:round;stroke-linejoin:miter;stroke:rgb(0%,76.470588%,76.470588%);stroke-opacity:1;stroke-miterlimit:10;" d="M 0.402247 6.160878 L 0.433714 6.129356 " transform="matrix(72,0,0,-72,-6.3954,500.40741)"/>
<path style="fill:none;stroke-width:0.025;stroke-linecap:round;stroke-linejoin:miter;stroke:rgb(0%,76.470588%,76.470588%);stroke-opacity:1;stroke-miterlimit:10;" d="M 0.339693 6.125016 L 0.374687 6.090023 " transform="matrix(72,0,0,-72,-6.3954,500.40741)"/>
<path style="fill:none;stroke-width:0.025;stroke-linecap:round;stroke-linejoin:miter;stroke:rgb(0%,76.470588%,76.470588%);stroke-opacity:1;stroke-miterlimit:10;" d="M 0.499687 6.125016 L 0.499687 6.245025 " transform="matrix(72,0,0,-72,-6.3954,500.40741)"/>
<path style="fill:none;stroke-width:0.025;stroke-linecap:round;stroke-linejoin:miter;stroke:rgb(0%,76.470588%,76.470588%);stroke-opacity:1;stroke-miterlimit:10;" d="M 0.339259 6.164784 L 0.339259 6.249582 " transform="matrix(72,0,0,-72,-6.3954,500.40741)"/>
<path style="fill:none;stroke-width:0.025;stroke-linecap:round;stroke-linejoin:miter;stroke:rgb(0%,76.470588%,76.470588%);stroke-opacity:1;stroke-miterlimit:10;" d="M 0.238293 6.135867 L 0.242254 6.135867 " transform="matrix(72,0,0,-72,-6.3954,500.40741)"/>
<path style="fill:none;stroke-width:0.025;stroke-linecap:round;stroke-linejoin:miter;stroke:rgb(0%,76.470588%,76.470588%);stroke-opacity:1;stroke-miterlimit:10;" d="M 0.242254 6.135867 L 0.273721 6.104346 " transform="matrix(72,0,0,-72,-6.3954,500.40741)"/>
<path style="fill:none;stroke-width:0.025;stroke-linecap:round;stroke-linejoin:miter;stroke:rgb(0%,76.470588%,76.470588%);stroke-opacity:1;stroke-miterlimit:10;" d="M 0.234875 6.139773 L 0.238836 6.135867 " transform="matrix(72,0,0,-72,-6.3954,500.40741)"/>
<path style="fill:none;stroke-width:0.025;stroke-linecap:round;stroke-linejoin:miter;stroke:rgb(0%,76.470588%,76.470588%);stroke-opacity:1;stroke-miterlimit:10;" d="M 0.339259 6.164784 L 0.394869 6.164784 " transform="matrix(72,0,0,-72,-6.3954,500.40741)"/>
<path style="fill:none;stroke-width:0.025;stroke-linecap:round;stroke-linejoin:miter;stroke:rgb(0%,76.470588%,76.470588%);stroke-opacity:1;stroke-miterlimit:10;" d="M 0.339693 6.164784 L 0.339693 6.125016 " transform="matrix(72,0,0,-72,-6.3954,500.40741)"/>
<path style="fill:none;stroke-width:0.025;stroke-linecap:round;stroke-linejoin:miter;stroke:rgb(0%,76.470588%,76.470588%);stroke-opacity:1;stroke-miterlimit:10;" d="M 0.279689 6.245025 L 0.20471 6.245025 " transform="matrix(72,0,0,-72,-6.3954,500.40741)"/>
<path style="fill:none;stroke-width:0.025;stroke-linecap:round;stroke-linejoin:miter;stroke:rgb(0%,76.470588%,76.470588%);stroke-opacity:1;stroke-miterlimit:10;" d="M 0.20471 6.245025 L 0.1797 6.220014 " transform="matrix(72,0,0,-72,-6.3954,500.40741)"/>
<path style="fill:none;stroke-width:0.025;stroke-linecap:round;stroke-linejoin:miter;stroke:rgb(0%,76.470588%,76.470588%);stroke-opacity:1;stroke-miterlimit:10;" d="M 0.1797 6.220014 L 0.1797 6.140261 " transform="matrix(72,0,0,-72,-6.3954,500.40741)"/>
<path style="fill:none;stroke-width:0.025;stroke-linecap:round;stroke-linejoin:miter;stroke:rgb(0%,76.470588%,76.470588%);stroke-opacity:1;stroke-miterlimit:10;" d="M 0.179266 6.139773 L 0.234875 6.139773 " transform="matrix(72,0,0,-72,-6.3954,500.40741)"/>
<path style="fill:none;stroke-width:0.025;stroke-linecap:round;stroke-linejoin:miter;stroke:rgb(0%,76.470588%,76.470588%);stroke-opacity:1;stroke-miterlimit:10;" d="M 0.1797 6.139773 L 0.1797 6.100005 " transform="matrix(72,0,0,-72,-6.3954,500.40741)"/>
<path style="fill:none;stroke-width:0.025;stroke-linecap:round;stroke-linejoin:miter;stroke:rgb(0%,76.470588%,76.470588%);stroke-opacity:1;stroke-miterlimit:10;" d="M 0.1797 6.100005 L 0.214693 6.065012 " transform="matrix(72,0,0,-72,-6.3954,500.40741)"/>
<path style="fill:none;stroke-width:0.025;stroke-linecap:round;stroke-linejoin:miter;stroke:rgb(0%,76.470588%,76.470588%);stroke-opacity:1;stroke-miterlimit:10;" d="M 0.1797 6.140261 L 0.179266 6.139773 " transform="matrix(72,0,0,-72,-6.3954,500.40741)"/>
<path style=" stroke:none;fill-rule:evenodd;fill:rgb(0%,76.470588%,76.470588%);fill-opacity:1;" d="M 20.4375 56.542969 C 20.4375 53.332031 15.621094 53.332031 15.621094 56.542969 C 15.621094 59.753906 20.4375 59.753906 20.4375 56.542969 "/>
<path style=" stroke:none;fill-rule:evenodd;fill:rgb(0%,76.470588%,76.470588%);fill-opacity:1;" d="M 10.980469 15.484375 C 10.980469 12.273438 6.164062 12.273438 6.164062 15.484375 C 6.164062 18.695312 10.980469 18.695312 10.980469 15.484375 "/>
<path style=" stroke:none;fill-rule:evenodd;fill:rgb(0%,76.470588%,76.470588%);fill-opacity:1;" d="M 11.972656 25.207031 C 11.972656 19.917969 4.039062 19.917969 4.039062 25.207031 C 4.039062 30.496094 11.972656 30.496094 11.972656 25.207031 "/>
<path style=" stroke:none;fill-rule:evenodd;fill:rgb(0%,76.470588%,76.470588%);fill-opacity:1;" d="M 18.4375 22.65625 C 18.4375 20.199219 14.75 20.199219 14.75 22.65625 C 14.75 25.113281 18.4375 25.113281 18.4375 22.65625 "/>
<path style=" stroke:none;fill-rule:evenodd;fill:rgb(0%,76.470588%,76.470588%);fill-opacity:1;" d="M 8.714844 41.394531 C 8.714844 38.933594 5.027344 38.933594 5.027344 41.394531 C 5.027344 43.851562 8.714844 43.851562 8.714844 41.394531 "/>
<path style=" stroke:none;fill-rule:evenodd;fill:rgb(0%,76.470588%,76.470588%);fill-opacity:1;" d="M 15.941406 41.394531 C 15.941406 38.933594 12.257812 38.933594 12.257812 41.394531 C 12.257812 43.851562 15.941406 43.851562 15.941406 41.394531 "/>
<path style=" stroke:none;fill-rule:evenodd;fill:rgb(0%,76.470588%,76.470588%);fill-opacity:1;" d="M 41.171875 41.394531 C 41.171875 38.933594 37.484375 38.933594 37.484375 41.394531 C 37.484375 43.851562 41.171875 43.851562 41.171875 41.394531 "/>
<path style=" stroke:none;fill-rule:evenodd;fill:rgb(0%,76.470588%,76.470588%);fill-opacity:1;" d="M 48.398438 41.394531 C 48.398438 38.933594 44.710938 38.933594 44.710938 41.394531 C 44.710938 43.851562 48.398438 43.851562 48.398438 41.394531 "/>
<path style=" stroke:none;fill-rule:evenodd;fill:rgb(0%,76.470588%,76.470588%);fill-opacity:1;" d="M 47.261719 15.484375 C 47.261719 12.273438 42.445312 12.273438 42.445312 15.484375 C 42.445312 18.695312 47.261719 18.695312 47.261719 15.484375 "/>
<path style=" stroke:none;fill-rule:evenodd;fill:rgb(0%,76.470588%,76.470588%);fill-opacity:1;" d="M 49.390625 25.207031 C 49.390625 19.917969 41.457031 19.917969 41.457031 25.207031 C 41.457031 30.496094 49.390625 30.496094 49.390625 25.207031 "/>
<path style=" stroke:none;fill-rule:evenodd;fill:rgb(0%,76.470588%,76.470588%);fill-opacity:1;" d="M 30.003906 22.65625 C 30.003906 20.199219 26.316406 20.199219 26.316406 22.65625 C 26.316406 25.113281 30.003906 25.113281 30.003906 22.65625 "/>
<path style=" stroke:none;fill-rule:evenodd;fill:rgb(0%,76.470588%,76.470588%);fill-opacity:1;" d="M 35.785156 22.65625 C 35.785156 20.199219 32.097656 20.199219 32.097656 22.65625 C 32.097656 25.113281 35.785156 25.113281 35.785156 22.65625 "/>
<path style=" stroke:none;fill-rule:evenodd;fill:rgb(0%,76.470588%,76.470588%);fill-opacity:1;" d="M 24.21875 22.65625 C 24.21875 20.199219 20.535156 20.199219 20.535156 22.65625 C 20.535156 25.113281 24.21875 25.113281 24.21875 22.65625 "/>
<path style=" stroke:none;fill-rule:evenodd;fill:rgb(0%,76.470588%,76.470588%);fill-opacity:1;" d="M 27.109375 27.757812 C 27.109375 25.300781 23.425781 25.300781 23.425781 27.757812 C 23.425781 30.214844 27.109375 30.214844 27.109375 27.757812 "/>
<path style=" stroke:none;fill-rule:evenodd;fill:rgb(0%,76.470588%,76.470588%);fill-opacity:1;" d="M 21.328125 27.757812 C 21.328125 25.300781 17.640625 25.300781 17.640625 27.757812 C 17.640625 30.214844 21.328125 30.214844 21.328125 27.757812 "/>
<path style=" stroke:none;fill-rule:evenodd;fill:rgb(0%,76.470588%,76.470588%);fill-opacity:1;" d="M 32.894531 27.757812 C 32.894531 25.300781 29.207031 25.300781 29.207031 27.757812 C 29.207031 30.214844 32.894531 30.214844 32.894531 27.757812 "/>
<path style=" stroke:none;fill-rule:evenodd;fill:rgb(0%,76.470588%,76.470588%);fill-opacity:1;" d="M 38.675781 27.757812 C 38.675781 25.300781 34.988281 25.300781 34.988281 27.757812 C 34.988281 30.214844 38.675781 30.214844 38.675781 27.757812 "/>
<path style=" stroke:none;fill-rule:evenodd;fill:rgb(0%,76.470588%,76.470588%);fill-opacity:1;" d="M 47.023438 63.726562 C 47.023438 59.191406 40.21875 59.191406 40.21875 63.726562 C 40.21875 68.261719 47.023438 68.261719 47.023438 63.726562 "/>
<path style=" stroke:none;fill-rule:evenodd;fill:rgb(0%,76.470588%,76.470588%);fill-opacity:1;" d="M 43.480469 58.34375 C 43.480469 55.128906 38.664062 55.128906 38.664062 58.34375 C 38.664062 61.554688 43.480469 61.554688 43.480469 58.34375 "/>
<path style=" stroke:none;fill-rule:evenodd;fill:rgb(0%,76.470588%,76.470588%);fill-opacity:1;" d="M 47.023438 58.625 C 47.023438 56.359375 43.625 56.359375 43.625 58.625 C 43.625 60.890625 47.023438 60.890625 47.023438 58.625 "/>
<path style=" stroke:none;fill-rule:evenodd;fill:rgb(0%,76.470588%,76.470588%);fill-opacity:1;" d="M 35.503906 61.925781 C 35.503906 57.390625 28.699219 57.390625 28.699219 61.925781 C 28.699219 66.464844 35.503906 66.464844 35.503906 61.925781 "/>
<path style=" stroke:none;fill-rule:evenodd;fill:rgb(0%,76.470588%,76.470588%);fill-opacity:1;" d="M 31.960938 56.542969 C 31.960938 53.332031 27.140625 53.332031 27.140625 56.542969 C 27.140625 59.753906 31.960938 59.753906 31.960938 56.542969 "/>
<path style=" stroke:none;fill-rule:evenodd;fill:rgb(0%,76.470588%,76.470588%);fill-opacity:1;" d="M 35.503906 56.824219 C 35.503906 54.558594 32.105469 54.558594 32.105469 56.824219 C 32.105469 59.089844 35.503906 59.089844 35.503906 56.824219 "/>
<path style=" stroke:none;fill-rule:evenodd;fill:rgb(0%,76.470588%,76.470588%);fill-opacity:1;" d="M 37.773438 59.09375 C 37.773438 57.203125 34.933594 57.203125 34.933594 59.09375 C 34.933594 60.984375 37.773438 60.984375 37.773438 59.09375 "/>
<path style=" stroke:none;fill-rule:evenodd;fill:rgb(0%,76.470588%,76.470588%);fill-opacity:1;" d="M 49.292969 60.894531 C 49.292969 59 46.457031 59 46.457031 60.894531 C 46.457031 62.785156 49.292969 62.785156 49.292969 60.894531 "/>
<path style=" stroke:none;fill-rule:evenodd;fill:rgb(0%,76.470588%,76.470588%);fill-opacity:1;" d="M 23.984375 61.925781 C 23.984375 57.390625 17.179688 57.390625 17.179688 61.925781 C 17.179688 66.464844 23.984375 66.464844 23.984375 61.925781 "/>
<path style=" stroke:none;fill-rule:evenodd;fill:rgb(0%,76.470588%,76.470588%);fill-opacity:1;" d="M 12.464844 63.726562 C 12.464844 59.191406 5.660156 59.191406 5.660156 63.726562 C 5.660156 68.261719 12.464844 68.261719 12.464844 63.726562 "/>
<path style=" stroke:none;fill-rule:evenodd;fill:rgb(0%,76.470588%,76.470588%);fill-opacity:1;" d="M 8.917969 58.34375 C 8.917969 55.128906 4.101562 55.128906 4.101562 58.34375 C 4.101562 61.554688 8.917969 61.554688 8.917969 58.34375 "/>
<path style=" stroke:none;fill-rule:evenodd;fill:rgb(0%,76.470588%,76.470588%);fill-opacity:1;" d="M 12.460938 58.625 C 12.460938 56.359375 9.0625 56.359375 9.0625 58.625 C 9.0625 60.890625 12.460938 60.890625 12.460938 58.625 "/>
<path style=" stroke:none;fill-rule:evenodd;fill:rgb(0%,76.470588%,76.470588%);fill-opacity:1;" d="M 14.730469 60.894531 C 14.730469 59 11.894531 59 11.894531 60.894531 C 11.894531 62.785156 14.730469 62.785156 14.730469 60.894531 "/>
<path style=" stroke:none;fill-rule:evenodd;fill:rgb(0%,76.470588%,76.470588%);fill-opacity:1;" d="M 23.980469 56.824219 C 23.980469 54.558594 20.582031 54.558594 20.582031 56.824219 C 20.582031 59.089844 23.980469 59.089844 23.980469 56.824219 "/>
<path style=" stroke:none;fill-rule:evenodd;fill:rgb(0%,76.470588%,76.470588%);fill-opacity:1;" d="M 26.253906 59.09375 C 26.253906 57.203125 23.414062 57.203125 23.414062 59.09375 C 23.414062 60.984375 26.253906 60.984375 26.253906 59.09375 "/>
<path style=" stroke:none;fill-rule:evenodd;fill:rgb(0%,76.470588%,76.470588%);fill-opacity:1;" d="M 22.003906 9.761719 L 18.316406 9.761719 L 18.316406 14.011719 L 22.003906 14.011719 Z M 22.003906 9.761719 "/>
<path style=" stroke:none;fill-rule:evenodd;fill:rgb(0%,76.470588%,76.470588%);fill-opacity:1;" d="M 27.105469 9.761719 L 23.417969 9.761719 L 23.417969 14.011719 L 27.105469 14.011719 Z M 27.105469 9.761719 "/>
<path style=" stroke:none;fill-rule:evenodd;fill:rgb(0%,76.470588%,76.470588%);fill-opacity:1;" d="M 25.621094 20.167969 C 25.621094 19.207031 24.183594 19.207031 24.183594 20.167969 C 24.183594 21.128906 25.621094 21.128906 25.621094 20.167969 "/>
<path style=" stroke:none;fill-rule:evenodd;fill:rgb(0%,76.470588%,76.470588%);fill-opacity:1;" d="M 20.582031 17.289062 C 20.582031 16.328125 19.140625 16.328125 19.140625 17.289062 C 19.140625 18.246094 20.582031 18.246094 20.582031 17.289062 "/>
<path style=" stroke:none;fill-rule:evenodd;fill:rgb(0%,76.470588%,76.470588%);fill-opacity:1;" d="M 25.980469 13.6875 C 25.980469 12.726562 24.542969 12.726562 24.542969 13.6875 C 24.542969 14.648438 25.980469 14.648438 25.980469 13.6875 "/>
<path style="fill:none;stroke-width:0.006;stroke-linecap:round;stroke-linejoin:miter;stroke:rgb(45.882353%,94.901961%,40.392157%);stroke-opacity:1;stroke-miterlimit:10;" d="M 0.109984 6.929975 L 0.109984 5.949994 " transform="matrix(72,0,0,-72,-6.3954,500.40741)"/>
<path style="fill:none;stroke-width:0.006;stroke-linecap:round;stroke-linejoin:miter;stroke:rgb(45.882353%,94.901961%,40.392157%);stroke-opacity:1;stroke-miterlimit:10;" d="M 0.109984 5.949994 L 0.829982 5.949994 " transform="matrix(72,0,0,-72,-6.3954,500.40741)"/>
<path style="fill:none;stroke-width:0.006;stroke-linecap:round;stroke-linejoin:miter;stroke:rgb(45.882353%,94.901961%,40.392157%);stroke-opacity:1;stroke-miterlimit:10;" d="M 0.829982 5.949994 L 0.829982 6.929975 " transform="matrix(72,0,0,-72,-6.3954,500.40741)"/>
<path style="fill:none;stroke-width:0.006;stroke-linecap:round;stroke-linejoin:miter;stroke:rgb(45.882353%,94.901961%,40.392157%);stroke-opacity:1;stroke-miterlimit:10;" d="M 0.829982 6.929975 L 0.109984 6.929975 " transform="matrix(72,0,0,-72,-6.3954,500.40741)"/>
<path style=" stroke:none;fill-rule:evenodd;fill:rgb(75.686275%,0%,87.843137%);fill-opacity:1;" d="M 20.65625 56.542969 C 20.65625 53.042969 15.40625 53.042969 15.40625 56.542969 C 15.40625 60.039062 20.65625 60.039062 20.65625 56.542969 "/>
<path style=" stroke:none;fill-rule:evenodd;fill:rgb(75.686275%,0%,87.843137%);fill-opacity:1;" d="M 11.195312 15.484375 C 11.195312 11.984375 5.945312 11.984375 5.945312 15.484375 C 5.945312 18.984375 11.195312 18.984375 11.195312 15.484375 "/>
<path style=" stroke:none;fill-rule:evenodd;fill:rgb(75.686275%,0%,87.843137%);fill-opacity:1;" d="M 12.1875 25.207031 C 12.1875 19.628906 3.820312 19.628906 3.820312 25.207031 C 3.820312 30.785156 12.1875 30.785156 12.1875 25.207031 "/>
<path style=" stroke:none;fill-rule:evenodd;fill:rgb(75.686275%,0%,87.843137%);fill-opacity:1;" d="M 18.652344 22.65625 C 18.652344 19.910156 14.535156 19.910156 14.535156 22.65625 C 14.535156 25.402344 18.652344 25.402344 18.652344 22.65625 "/>
<path style=" stroke:none;fill-rule:evenodd;fill:rgb(75.686275%,0%,87.843137%);fill-opacity:1;" d="M 8.929688 41.394531 C 8.929688 38.648438 4.8125 38.648438 4.8125 41.394531 C 4.8125 44.136719 8.929688 44.136719 8.929688 41.394531 "/>
<path style=" stroke:none;fill-rule:evenodd;fill:rgb(75.686275%,0%,87.843137%);fill-opacity:1;" d="M 16.160156 41.394531 C 16.160156 38.648438 12.039062 38.648438 12.039062 41.394531 C 12.039062 44.136719 16.160156 44.136719 16.160156 41.394531 "/>
<path style=" stroke:none;fill-rule:evenodd;fill:rgb(75.686275%,0%,87.843137%);fill-opacity:1;" d="M 41.386719 41.394531 C 41.386719 38.648438 37.269531 38.648438 37.269531 41.394531 C 37.269531 44.136719 41.386719 44.136719 41.386719 41.394531 "/>
<path style=" stroke:none;fill-rule:evenodd;fill:rgb(75.686275%,0%,87.843137%);fill-opacity:1;" d="M 48.613281 41.394531 C 48.613281 38.648438 44.496094 38.648438 44.496094 41.394531 C 44.496094 44.136719 48.613281 44.136719 48.613281 41.394531 "/>
<path style=" stroke:none;fill-rule:evenodd;fill:rgb(75.686275%,0%,87.843137%);fill-opacity:1;" d="M 47.480469 15.484375 C 47.480469 11.984375 42.230469 11.984375 42.230469 15.484375 C 42.230469 18.984375 47.480469 18.984375 47.480469 15.484375 "/>
<path style=" stroke:none;fill-rule:evenodd;fill:rgb(75.686275%,0%,87.843137%);fill-opacity:1;" d="M 49.605469 25.207031 C 49.605469 19.628906 41.238281 19.628906 41.238281 25.207031 C 41.238281 30.785156 49.605469 30.785156 49.605469 25.207031 "/>
<path style=" stroke:none;fill-rule:evenodd;fill:rgb(75.686275%,0%,87.843137%);fill-opacity:1;" d="M 30.21875 22.65625 C 30.21875 19.910156 26.101562 19.910156 26.101562 22.65625 C 26.101562 25.402344 30.21875 25.402344 30.21875 22.65625 "/>
<path style=" stroke:none;fill-rule:evenodd;fill:rgb(75.686275%,0%,87.843137%);fill-opacity:1;" d="M 36 22.65625 C 36 19.910156 31.882812 19.910156 31.882812 22.65625 C 31.882812 25.402344 36 25.402344 36 22.65625 "/>
<path style=" stroke:none;fill-rule:evenodd;fill:rgb(75.686275%,0%,87.843137%);fill-opacity:1;" d="M 24.4375 22.65625 C 24.4375 19.910156 20.316406 19.910156 20.316406 22.65625 C 20.316406 25.402344 24.4375 25.402344 24.4375 22.65625 "/>
<path style=" stroke:none;fill-rule:evenodd;fill:rgb(75.686275%,0%,87.843137%);fill-opacity:1;" d="M 27.328125 27.757812 C 27.328125 25.011719 23.207031 25.011719 23.207031 27.757812 C 23.207031 30.503906 27.328125 30.503906 27.328125 27.757812 "/>
<path style=" stroke:none;fill-rule:evenodd;fill:rgb(75.686275%,0%,87.843137%);fill-opacity:1;" d="M 21.542969 27.757812 C 21.542969 25.011719 17.425781 25.011719 17.425781 27.757812 C 17.425781 30.503906 21.542969 30.503906 21.542969 27.757812 "/>
<path style=" stroke:none;fill-rule:evenodd;fill:rgb(75.686275%,0%,87.843137%);fill-opacity:1;" d="M 33.109375 27.757812 C 33.109375 25.011719 28.992188 25.011719 28.992188 27.757812 C 28.992188 30.503906 33.109375 30.503906 33.109375 27.757812 "/>
<path style=" stroke:none;fill-rule:evenodd;fill:rgb(75.686275%,0%,87.843137%);fill-opacity:1;" d="M 38.890625 27.757812 C 38.890625 25.011719 34.773438 25.011719 34.773438 27.757812 C 34.773438 30.503906 38.890625 30.503906 38.890625 27.757812 "/>
<path style=" stroke:none;fill-rule:evenodd;fill:rgb(75.686275%,0%,87.843137%);fill-opacity:1;" d="M 47.242188 63.726562 C 47.242188 58.902344 40.003906 58.902344 40.003906 63.726562 C 40.003906 68.550781 47.242188 68.550781 47.242188 63.726562 "/>
<path style=" stroke:none;fill-rule:evenodd;fill:rgb(75.686275%,0%,87.843137%);fill-opacity:1;" d="M 43.695312 58.34375 C 43.695312 54.84375 38.445312 54.84375 38.445312 58.34375 C 38.445312 61.839844 43.695312 61.839844 43.695312 58.34375 "/>
<path style=" stroke:none;fill-rule:evenodd;fill:rgb(75.686275%,0%,87.843137%);fill-opacity:1;" d="M 47.238281 58.625 C 47.238281 56.070312 43.40625 56.070312 43.40625 58.625 C 43.40625 61.179688 47.238281 61.179688 47.238281 58.625 "/>
<path style=" stroke:none;fill-rule:evenodd;fill:rgb(75.686275%,0%,87.843137%);fill-opacity:1;" d="M 35.71875 61.925781 C 35.71875 57.101562 28.484375 57.101562 28.484375 61.925781 C 28.484375 66.75 35.71875 66.75 35.71875 61.925781 "/>
<path style=" stroke:none;fill-rule:evenodd;fill:rgb(75.686275%,0%,87.843137%);fill-opacity:1;" d="M 32.175781 56.542969 C 32.175781 53.042969 26.925781 53.042969 26.925781 56.542969 C 26.925781 60.039062 32.175781 60.039062 32.175781 56.542969 "/>
<path style=" stroke:none;fill-rule:evenodd;fill:rgb(75.686275%,0%,87.843137%);fill-opacity:1;" d="M 35.71875 56.824219 C 35.71875 54.269531 31.886719 54.269531 31.886719 56.824219 C 31.886719 59.378906 35.71875 59.378906 35.71875 56.824219 "/>
<path style=" stroke:none;fill-rule:evenodd;fill:rgb(75.686275%,0%,87.843137%);fill-opacity:1;" d="M 37.988281 59.09375 C 37.988281 56.914062 34.71875 56.914062 34.71875 59.09375 C 34.71875 61.273438 37.988281 61.273438 37.988281 59.09375 "/>
<path style=" stroke:none;fill-rule:evenodd;fill:rgb(75.686275%,0%,87.843137%);fill-opacity:1;" d="M 49.507812 60.894531 C 49.507812 58.714844 46.238281 58.714844 46.238281 60.894531 C 46.238281 63.070312 49.507812 63.070312 49.507812 60.894531 "/>
<path style=" stroke:none;fill-rule:evenodd;fill:rgb(75.686275%,0%,87.843137%);fill-opacity:1;" d="M 24.199219 61.925781 C 24.199219 57.101562 16.964844 57.101562 16.964844 61.925781 C 16.964844 66.75 24.199219 66.75 24.199219 61.925781 "/>
<path style=" stroke:none;fill-rule:evenodd;fill:rgb(75.686275%,0%,87.843137%);fill-opacity:1;" d="M 12.679688 63.726562 C 12.679688 58.902344 5.445312 58.902344 5.445312 63.726562 C 5.445312 68.550781 12.679688 68.550781 12.679688 63.726562 "/>
<path style=" stroke:none;fill-rule:evenodd;fill:rgb(75.686275%,0%,87.843137%);fill-opacity:1;" d="M 9.136719 58.34375 C 9.136719 54.84375 3.886719 54.84375 3.886719 58.34375 C 3.886719 61.839844 9.136719 61.839844 9.136719 58.34375 "/>
<path style=" stroke:none;fill-rule:evenodd;fill:rgb(75.686275%,0%,87.843137%);fill-opacity:1;" d="M 12.679688 58.625 C 12.679688 56.070312 8.847656 56.070312 8.847656 58.625 C 8.847656 61.179688 12.679688 61.179688 12.679688 58.625 "/>
<path style=" stroke:none;fill-rule:evenodd;fill:rgb(75.686275%,0%,87.843137%);fill-opacity:1;" d="M 14.949219 60.894531 C 14.949219 58.714844 11.679688 58.714844 11.679688 60.894531 C 11.679688 63.070312 14.949219 63.070312 14.949219 60.894531 "/>
<path style=" stroke:none;fill-rule:evenodd;fill:rgb(75.686275%,0%,87.843137%);fill-opacity:1;" d="M 24.199219 56.824219 C 24.199219 54.269531 20.367188 54.269531 20.367188 56.824219 C 20.367188 59.378906 24.199219 59.378906 24.199219 56.824219 "/>
<path style=" stroke:none;fill-rule:evenodd;fill:rgb(75.686275%,0%,87.843137%);fill-opacity:1;" d="M 26.46875 59.09375 C 26.46875 56.914062 23.199219 56.914062 23.199219 59.09375 C 23.199219 61.273438 26.46875 61.273438 26.46875 59.09375 "/>
<path style=" stroke:none;fill-rule:evenodd;fill:rgb(75.686275%,0%,87.843137%);fill-opacity:1;" d="M 22.21875 9.546875 L 18.101562 9.546875 L 18.101562 14.230469 L 22.21875 14.230469 Z M 22.21875 9.546875 "/>
<path style=" stroke:none;fill-rule:evenodd;fill:rgb(75.686275%,0%,87.843137%);fill-opacity:1;" d="M 27.320312 9.546875 L 23.203125 9.546875 L 23.203125 14.230469 L 27.320312 14.230469 Z M 27.320312 9.546875 "/>
<path style=" stroke:none;fill-rule:evenodd;fill:rgb(100%,49.803922%,45.098039%);fill-opacity:1;" d="M 20.222656 17.289062 C 20.222656 16.808594 19.503906 16.808594 19.503906 17.289062 C 19.503906 17.765625 20.222656 17.765625 20.222656 17.289062 "/>
<path style=" stroke:none;fill-rule:evenodd;fill:rgb(100%,49.803922%,45.098039%);fill-opacity:1;" d="M 25.261719 20.167969 C 25.261719 19.6875 24.542969 19.6875 24.542969 20.167969 C 24.542969 20.648438 25.261719 20.648438 25.261719 20.167969 "/>
<path style=" stroke:none;fill-rule:evenodd;fill:rgb(100%,49.803922%,45.098039%);fill-opacity:1;" d="M 25.621094 13.6875 C 25.621094 13.207031 24.902344 13.207031 24.902344 13.6875 C 24.902344 14.167969 25.621094 14.167969 25.621094 13.6875 "/>
<path style=" stroke:none;fill-rule:evenodd;fill:rgb(100%,49.803922%,45.098039%);fill-opacity:1;" d="M 14.03125 60.890625 C 14.03125 59.929688 12.589844 59.929688 12.589844 60.890625 C 12.589844 61.851562 14.03125 61.851562 14.03125 60.890625 "/>
<path style=" stroke:none;fill-rule:evenodd;fill:rgb(100%,49.803922%,45.098039%);fill-opacity:1;" d="M 25.550781 59.089844 C 25.550781 58.128906 24.109375 58.128906 24.109375 59.089844 C 24.109375 60.050781 25.550781 60.050781 25.550781 59.089844 "/>
<path style=" stroke:none;fill-rule:evenodd;fill:rgb(100%,49.803922%,45.098039%);fill-opacity:1;" d="M 37.070312 59.089844 C 37.070312 58.128906 35.632812 58.128906 35.632812 59.089844 C 35.632812 60.050781 37.070312 60.050781 37.070312 59.089844 "/>
<path style=" stroke:none;fill-rule:evenodd;fill:rgb(100%,49.803922%,45.098039%);fill-opacity:1;" d="M 48.589844 60.890625 C 48.589844 59.929688 47.152344 59.929688 47.152344 60.890625 C 47.152344 61.851562 48.589844 61.851562 48.589844 60.890625 "/>
<path style=" stroke:none;fill-rule:evenodd;fill:rgb(100%,49.803922%,45.098039%);fill-opacity:1;" d="M 11.84375 58.621094 C 11.84375 57.183594 9.683594 57.183594 9.683594 58.621094 C 9.683594 60.0625 11.84375 60.0625 11.84375 58.621094 "/>
<path style=" stroke:none;fill-rule:evenodd;fill:rgb(100%,49.803922%,45.098039%);fill-opacity:1;" d="M 23.363281 56.824219 C 23.363281 55.382812 21.203125 55.382812 21.203125 56.824219 C 21.203125 58.261719 23.363281 58.261719 23.363281 56.824219 "/>
<path style=" stroke:none;fill-rule:evenodd;fill:rgb(100%,49.803922%,45.098039%);fill-opacity:1;" d="M 34.882812 56.824219 C 34.882812 55.382812 32.722656 55.382812 32.722656 56.824219 C 32.722656 58.261719 34.882812 58.261719 34.882812 56.824219 "/>
<path style=" stroke:none;fill-rule:evenodd;fill:rgb(100%,49.803922%,45.098039%);fill-opacity:1;" d="M 46.402344 58.621094 C 46.402344 57.183594 44.242188 57.183594 44.242188 58.621094 C 44.242188 60.0625 46.402344 60.0625 46.402344 58.621094 "/>
<path style=" stroke:none;fill-rule:evenodd;fill:rgb(100%,49.803922%,45.098039%);fill-opacity:1;" d="M 8.132812 41.394531 C 8.132812 39.714844 5.613281 39.714844 5.613281 41.394531 C 5.613281 43.074219 8.132812 43.074219 8.132812 41.394531 "/>
<path style=" stroke:none;fill-rule:evenodd;fill:rgb(100%,49.803922%,45.098039%);fill-opacity:1;" d="M 15.355469 41.394531 C 15.355469 39.714844 12.835938 39.714844 12.835938 41.394531 C 12.835938 43.074219 15.355469 43.074219 15.355469 41.394531 "/>
<path style=" stroke:none;fill-rule:evenodd;fill:rgb(100%,49.803922%,45.098039%);fill-opacity:1;" d="M 17.855469 22.660156 C 17.855469 20.980469 15.335938 20.980469 15.335938 22.660156 C 15.335938 24.339844 17.855469 24.339844 17.855469 22.660156 "/>
<path style=" stroke:none;fill-rule:evenodd;fill:rgb(100%,49.803922%,45.098039%);fill-opacity:1;" d="M 20.742188 27.757812 C 20.742188 26.078125 18.222656 26.078125 18.222656 27.757812 C 18.222656 29.4375 20.742188 29.4375 20.742188 27.757812 "/>
<path style=" stroke:none;fill-rule:evenodd;fill:rgb(100%,49.803922%,45.098039%);fill-opacity:1;" d="M 23.636719 22.660156 C 23.636719 20.980469 21.117188 20.980469 21.117188 22.660156 C 21.117188 24.339844 23.636719 24.339844 23.636719 22.660156 "/>
<path style=" stroke:none;fill-rule:evenodd;fill:rgb(100%,49.803922%,45.098039%);fill-opacity:1;" d="M 26.53125 27.757812 C 26.53125 26.078125 24.011719 26.078125 24.011719 27.757812 C 24.011719 29.4375 26.53125 29.4375 26.53125 27.757812 "/>
<path style=" stroke:none;fill-rule:evenodd;fill:rgb(100%,49.803922%,45.098039%);fill-opacity:1;" d="M 29.417969 22.660156 C 29.417969 20.980469 26.898438 20.980469 26.898438 22.660156 C 26.898438 24.339844 29.417969 24.339844 29.417969 22.660156 "/>
<path style=" stroke:none;fill-rule:evenodd;fill:rgb(100%,49.803922%,45.098039%);fill-opacity:1;" d="M 32.3125 27.757812 C 32.3125 26.078125 29.792969 26.078125 29.792969 27.757812 C 29.792969 29.4375 32.3125 29.4375 32.3125 27.757812 "/>
<path style=" stroke:none;fill-rule:evenodd;fill:rgb(100%,49.803922%,45.098039%);fill-opacity:1;" d="M 35.199219 22.660156 C 35.199219 20.980469 32.679688 20.980469 32.679688 22.660156 C 32.679688 24.339844 35.199219 24.339844 35.199219 22.660156 "/>
<path style=" stroke:none;fill-rule:evenodd;fill:rgb(100%,49.803922%,45.098039%);fill-opacity:1;" d="M 38.09375 27.757812 C 38.09375 26.078125 35.574219 26.078125 35.574219 27.757812 C 35.574219 29.4375 38.09375 29.4375 38.09375 27.757812 "/>
<path style=" stroke:none;fill-rule:evenodd;fill:rgb(100%,49.803922%,45.098039%);fill-opacity:1;" d="M 40.585938 41.394531 C 40.585938 39.714844 38.066406 39.714844 38.066406 41.394531 C 38.066406 43.074219 40.585938 43.074219 40.585938 41.394531 "/>
<path style=" stroke:none;fill-rule:evenodd;fill:rgb(100%,49.803922%,45.098039%);fill-opacity:1;" d="M 47.8125 41.394531 C 47.8125 39.714844 45.292969 39.714844 45.292969 41.394531 C 45.292969 43.074219 47.8125 43.074219 47.8125 41.394531 "/>
<path style=" stroke:none;fill-rule:evenodd;fill:rgb(100%,49.803922%,45.098039%);fill-opacity:1;" d="M 8.277344 58.34375 C 8.277344 55.988281 4.75 55.988281 4.75 58.34375 C 4.75 60.695312 8.277344 60.695312 8.277344 58.34375 "/>
<path style=" stroke:none;fill-rule:evenodd;fill:rgb(100%,49.803922%,45.098039%);fill-opacity:1;" d="M 19.796875 56.542969 C 19.796875 54.191406 16.269531 54.191406 16.269531 56.542969 C 16.269531 58.894531 19.796875 58.894531 19.796875 56.542969 "/>
<path style=" stroke:none;fill-rule:evenodd;fill:rgb(100%,49.803922%,45.098039%);fill-opacity:1;" d="M 31.316406 56.542969 C 31.316406 54.191406 27.789062 54.191406 27.789062 56.542969 C 27.789062 58.894531 31.316406 58.894531 31.316406 56.542969 "/>
<path style=" stroke:none;fill-rule:evenodd;fill:rgb(100%,49.803922%,45.098039%);fill-opacity:1;" d="M 42.839844 58.34375 C 42.839844 55.988281 39.308594 55.988281 39.308594 58.34375 C 39.308594 60.695312 42.839844 60.695312 42.839844 58.34375 "/>
<path style=" stroke:none;fill-rule:evenodd;fill:rgb(100%,49.803922%,45.098039%);fill-opacity:1;" d="M 10.410156 15.488281 C 10.410156 13.039062 6.738281 13.039062 6.738281 15.488281 C 6.738281 17.933594 10.410156 17.933594 10.410156 15.488281 "/>
<path style=" stroke:none;fill-rule:evenodd;fill:rgb(100%,49.803922%,45.098039%);fill-opacity:1;" d="M 46.691406 15.488281 C 46.691406 13.039062 43.019531 13.039062 43.019531 15.488281 C 43.019531 17.933594 46.691406 17.933594 46.691406 15.488281 "/>
<path style=" stroke:none;fill-rule:evenodd;fill:rgb(100%,49.803922%,45.098039%);fill-opacity:1;" d="M 11.90625 63.726562 C 11.90625 59.933594 6.21875 59.933594 6.21875 63.726562 C 6.21875 67.519531 11.90625 67.519531 11.90625 63.726562 "/>
<path style=" stroke:none;fill-rule:evenodd;fill:rgb(100%,49.803922%,45.098039%);fill-opacity:1;" d="M 23.425781 61.925781 C 23.425781 58.136719 17.738281 58.136719 17.738281 61.925781 C 17.738281 65.71875 23.425781 65.71875 23.425781 61.925781 "/>
<path style=" stroke:none;fill-rule:evenodd;fill:rgb(100%,49.803922%,45.098039%);fill-opacity:1;" d="M 34.945312 61.925781 C 34.945312 58.136719 29.257812 58.136719 29.257812 61.925781 C 29.257812 65.71875 34.945312 65.71875 34.945312 61.925781 "/>
<path style=" stroke:none;fill-rule:evenodd;fill:rgb(100%,49.803922%,45.098039%);fill-opacity:1;" d="M 46.46875 63.726562 C 46.46875 59.933594 40.777344 59.933594 40.777344 63.726562 C 40.777344 67.519531 46.46875 67.519531 46.46875 63.726562 "/>
<path style=" stroke:none;fill-rule:evenodd;fill:rgb(100%,49.803922%,45.098039%);fill-opacity:1;" d="M 11.386719 25.207031 C 11.386719 20.695312 4.621094 20.695312 4.621094 25.207031 C 4.621094 29.71875 11.386719 29.71875 11.386719 25.207031 "/>
<path style=" stroke:none;fill-rule:evenodd;fill:rgb(100%,49.803922%,45.098039%);fill-opacity:1;" d="M 48.808594 25.207031 C 48.808594 20.695312 42.039062 20.695312 42.039062 25.207031 C 42.039062 29.71875 48.808594 29.71875 48.808594 25.207031 "/>
<path style="fill:none;stroke-width:0.008;stroke-linecap:round;stroke-linejoin:miter;stroke:rgb(45.098039%,45.098039%,87.058824%);stroke-opacity:1;stroke-miterlimit:10;" d="M 0.400348 6.757449 L 0.408215 6.757449 " transform="matrix(72,0,0,-72,-6.3954,500.40741)"/>
<path style="fill:none;stroke-width:0.008;stroke-linecap:round;stroke-linejoin:miter;stroke:rgb(45.098039%,45.098039%,87.058824%);stroke-opacity:1;stroke-miterlimit:10;" d="M 0.400348 6.81257 L 0.408215 6.81257 " transform="matrix(72,0,0,-72,-6.3954,500.40741)"/>
<path style="fill:none;stroke-width:0.004;stroke-linecap:round;stroke-linejoin:miter;stroke:rgb(45.098039%,45.098039%,87.058824%);stroke-opacity:1;stroke-miterlimit:10;" d="M 0.372733 6.763525 L 0.392753 6.763525 " transform="matrix(72,0,0,-72,-6.3954,500.40741)"/>
<path style="fill:none;stroke-width:0.004;stroke-linecap:round;stroke-linejoin:miter;stroke:rgb(45.098039%,45.098039%,87.058824%);stroke-opacity:1;stroke-miterlimit:10;" d="M 0.392753 6.763525 L 0.397744 6.768517 " transform="matrix(72,0,0,-72,-6.3954,500.40741)"/>
<path style="fill:none;stroke-width:0.004;stroke-linecap:round;stroke-linejoin:miter;stroke:rgb(45.098039%,45.098039%,87.058824%);stroke-opacity:1;stroke-miterlimit:10;" d="M 0.397744 6.768517 L 0.397744 6.778499 " transform="matrix(72,0,0,-72,-6.3954,500.40741)"/>
<path style="fill:none;stroke-width:0.004;stroke-linecap:round;stroke-linejoin:miter;stroke:rgb(45.098039%,45.098039%,87.058824%);stroke-opacity:1;stroke-miterlimit:10;" d="M 0.392753 6.78349 L 0.397744 6.778499 " transform="matrix(72,0,0,-72,-6.3954,500.40741)"/>
<path style="fill:none;stroke-width:0.004;stroke-linecap:round;stroke-linejoin:miter;stroke:rgb(45.098039%,45.098039%,87.058824%);stroke-opacity:1;stroke-miterlimit:10;" d="M 0.377779 6.78349 L 0.392753 6.78349 " transform="matrix(72,0,0,-72,-6.3954,500.40741)"/>
<path style="fill:none;stroke-width:0.004;stroke-linecap:round;stroke-linejoin:miter;stroke:rgb(45.098039%,45.098039%,87.058824%);stroke-opacity:1;stroke-miterlimit:10;" d="M 0.377779 6.763525 L 0.377779 6.80351 " transform="matrix(72,0,0,-72,-6.3954,500.40741)"/>
<path style="fill:none;stroke-width:0.004;stroke-linecap:round;stroke-linejoin:miter;stroke:rgb(45.098039%,45.098039%,87.058824%);stroke-opacity:1;stroke-miterlimit:10;" d="M 0.385754 6.78349 L 0.397744 6.80351 " transform="matrix(72,0,0,-72,-6.3954,500.40741)"/>
<path style="fill:none;stroke-width:0.004;stroke-linecap:round;stroke-linejoin:miter;stroke:rgb(45.098039%,45.098039%,87.058824%);stroke-opacity:1;stroke-miterlimit:10;" d="M 0.409734 6.7715 L 0.417764 6.763525 " transform="matrix(72,0,0,-72,-6.3954,500.40741)"/>
<path style="fill:none;stroke-width:0.004;stroke-linecap:round;stroke-linejoin:miter;stroke:rgb(45.098039%,45.098039%,87.058824%);stroke-opacity:1;stroke-miterlimit:10;" d="M 0.417764 6.763525 L 0.417764 6.80351 " transform="matrix(72,0,0,-72,-6.3954,500.40741)"/>
<path style="fill:none;stroke-width:0.004;stroke-linecap:round;stroke-linejoin:miter;stroke:rgb(45.098039%,45.098039%,87.058824%);stroke-opacity:1;stroke-miterlimit:10;" d="M 0.409734 6.80351 L 0.424763 6.80351 " transform="matrix(72,0,0,-72,-6.3954,500.40741)"/>
</g>
</svg>
