G04 This is an RS-274x file exported by *
G04 gerbv version 2.7.0 *
G04 More information is available about gerbv at *
G04 http://gerbv.geda-project.org/ *
G04 --End of header info--*
%MOIN*%
%FSLAX36Y36*%
%IPPOS*%
G04 --Define apertures--*
%ADD10C,0.0080*%
%ADD11C,0.0060*%
%ADD12C,0.0040*%
%ADD13C,0.0001*%
%ADD14C,0.0250*%
%ADD15C,0.0140*%
%ADD16C,0.0160*%
%ADD17C,0.0669*%
%ADD18C,0.1102*%
%ADD19C,0.0512*%
%ADD20C,0.0945*%
%ADD21C,0.0472*%
%ADD22C,0.0394*%
%ADD23C,0.0200*%
%ADD24C,0.0100*%
%ADD25C,0.0492*%
%ADD26C,0.0354*%
%ADD27C,0.0787*%
%ADD28C,0.0295*%
%ADD29C,0.0197*%
%ADD30C,0.0729*%
%ADD31C,0.1162*%
%ADD32C,0.0572*%
%ADD33C,0.1005*%
%ADD34C,0.0532*%
%ADD35C,0.0454*%
%ADD36C,0.0490*%
%ADD37C,0.0510*%
%ADD38C,0.0940*%
%ADD39C,0.0350*%
%ADD40C,0.0790*%
%ADD41C,0.0300*%
G04 --Start main section--*
G54D10*
G01X0400330Y1007450D02*
G01X0408190Y1007450D01*
G01X0400330Y1062550D02*
G01X0408190Y1062550D01*
G54D11*
G01X0503000Y0746000D02*
G01X0511000Y0754000D01*
G01X0503000Y0746000D02*
G01X0503000Y0711000D01*
G01X0510000Y0704000D02*
G01X0503000Y0711000D01*
G01X0543000Y0712000D02*
G01X0536000Y0705000D01*
G01X0543000Y0747000D02*
G01X0543000Y0712000D01*
G01X0536000Y0754000D02*
G01X0543000Y0747000D01*
G01X0511000Y0987000D02*
G01X0519000Y0979000D01*
G01X0476000Y0987000D02*
G01X0511000Y0987000D01*
G01X0469000Y0980000D02*
G01X0476000Y0987000D01*
G01X0477000Y0947000D02*
G01X0470000Y0954000D01*
G01X0477000Y0947000D02*
G01X0512000Y0947000D01*
G01X0519000Y0954000D02*
G01X0512000Y0947000D01*
G54D12*
G01X0372760Y1013500D02*
G01X0392760Y1013500D01*
G01X0392760Y1013500D02*
G01X0397760Y1018500D01*
G01X0397760Y1018500D02*
G01X0397760Y1028500D01*
G01X0392760Y1033500D02*
G01X0397760Y1028500D01*
G01X0377760Y1033500D02*
G01X0392760Y1033500D01*
G01X0377760Y1013500D02*
G01X0377760Y1053500D01*
G01X0385760Y1033500D02*
G01X0397760Y1053500D01*
G01X0409760Y1021500D02*
G01X0417760Y1013500D01*
G01X0417760Y1013500D02*
G01X0417760Y1053500D01*
G01X0409760Y1053500D02*
G01X0424760Y1053500D01*
G01X0000000Y0000000D02*
G54D13*
G36*
G01X0744870Y0990040D02*
G01X0745140Y0988000D01*
G01X0745280Y0985040D01*
G01X0745140Y0982080D01*
G01X0744870Y0980040D01*
G01X0744870Y0990040D01*
G37*
G36*
G01X0744870Y1145000D02*
G01X0780000Y1145000D01*
G01X0780000Y0874560D01*
G01X0778600Y0877890D01*
G01X0775900Y0882990D01*
G01X0772770Y0887820D01*
G01X0772260Y0888440D01*
G01X0771660Y0888960D01*
G01X0770990Y0889380D01*
G01X0770260Y0889690D01*
G01X0769490Y0889880D01*
G01X0768690Y0889950D01*
G01X0767900Y0889900D01*
G01X0767120Y0889720D01*
G01X0766390Y0889420D01*
G01X0765710Y0889010D01*
G01X0765100Y0888500D01*
G01X0764570Y0887900D01*
G01X0764150Y0887230D01*
G01X0763840Y0886500D01*
G01X0763650Y0885720D01*
G01X0763580Y0884930D01*
G01X0763630Y0884140D01*
G01X0763810Y0883360D01*
G01X0764110Y0882630D01*
G01X0764530Y0881950D01*
G01X0767220Y0877890D01*
G01X0769500Y0873590D01*
G01X0771390Y0869090D01*
G01X0772870Y0864450D01*
G01X0773940Y0859700D01*
G01X0774590Y0854870D01*
G01X0774800Y0850000D01*
G01X0774590Y0845130D01*
G01X0773940Y0840300D01*
G01X0772870Y0835550D01*
G01X0771390Y0830910D01*
G01X0769500Y0826410D01*
G01X0767220Y0822110D01*
G01X0764570Y0818020D01*
G01X0764160Y0817350D01*
G01X0763860Y0816620D01*
G01X0763690Y0815850D01*
G01X0763630Y0815070D01*
G01X0763700Y0814280D01*
G01X0763890Y0813520D01*
G01X0764200Y0812800D01*
G01X0764620Y0812130D01*
G01X0765130Y0811540D01*
G01X0765740Y0811030D01*
G01X0766410Y0810630D01*
G01X0767140Y0810330D01*
G01X0767910Y0810150D01*
G01X0768690Y0810100D01*
G01X0769480Y0810170D01*
G01X0770240Y0810360D01*
G01X0770960Y0810670D01*
G01X0771630Y0811090D01*
G01X0772230Y0811600D01*
G01X0772720Y0812210D01*
G01X0775900Y0817010D01*
G01X0778600Y0822110D01*
G01X0780000Y0825440D01*
G01X0780000Y0475000D01*
G01X0744870Y0475000D01*
G01X0744870Y0590860D01*
G01X0746470Y0591240D01*
G01X0751640Y0593390D01*
G01X0756420Y0596310D01*
G01X0760680Y0599950D01*
G01X0764320Y0604210D01*
G01X0767240Y0608990D01*
G01X0769390Y0614160D01*
G01X0770690Y0619610D01*
G01X0771020Y0625200D01*
G01X0770690Y0630780D01*
G01X0769390Y0636230D01*
G01X0767240Y0641400D01*
G01X0764320Y0646180D01*
G01X0760680Y0650440D01*
G01X0756420Y0654080D01*
G01X0751640Y0657010D01*
G01X0746470Y0659150D01*
G01X0744870Y0659530D01*
G01X0744870Y0789950D01*
G01X0747580Y0791090D01*
G01X0752670Y0793780D01*
G01X0757510Y0796910D01*
G01X0758120Y0797420D01*
G01X0758640Y0798020D01*
G01X0759070Y0798700D01*
G01X0759380Y0799430D01*
G01X0759570Y0800200D01*
G01X0759640Y0800990D01*
G01X0759580Y0801780D01*
G01X0759410Y0802560D01*
G01X0759110Y0803300D01*
G01X0758700Y0803980D01*
G01X0758190Y0804590D01*
G01X0757590Y0805110D01*
G01X0756910Y0805530D01*
G01X0756180Y0805840D01*
G01X0755410Y0806040D01*
G01X0754620Y0806110D01*
G01X0753820Y0806050D01*
G01X0753050Y0805870D01*
G01X0752310Y0805580D01*
G01X0751640Y0805150D01*
G01X0747580Y0802460D01*
G01X0744870Y0801030D01*
G01X0744870Y0898970D01*
G01X0747580Y0897540D01*
G01X0751670Y0894890D01*
G01X0752330Y0894470D01*
G01X0753060Y0894180D01*
G01X0753830Y0894000D01*
G01X0754620Y0893950D01*
G01X0755400Y0894020D01*
G01X0756160Y0894210D01*
G01X0756890Y0894510D01*
G01X0757560Y0894930D01*
G01X0758150Y0895450D01*
G01X0758650Y0896050D01*
G01X0759060Y0896730D01*
G01X0759350Y0897460D01*
G01X0759530Y0898220D01*
G01X0759580Y0899010D01*
G01X0759520Y0899790D01*
G01X0759320Y0900560D01*
G01X0759020Y0901280D01*
G01X0758600Y0901950D01*
G01X0758080Y0902540D01*
G01X0757470Y0903030D01*
G01X0752670Y0906220D01*
G01X0747580Y0908910D01*
G01X0744870Y0910050D01*
G01X0744870Y0963520D01*
G01X0745850Y0965000D01*
G01X0747490Y0968090D01*
G01X0748850Y0971320D01*
G01X0749920Y0974650D01*
G01X0750690Y0978070D01*
G01X0751160Y0981540D01*
G01X0751310Y0985040D01*
G01X0751160Y0988540D01*
G01X0750690Y0992010D01*
G01X0749920Y0995430D01*
G01X0748850Y0998760D01*
G01X0747490Y1001990D01*
G01X0745850Y1005080D01*
G01X0744870Y1006590D01*
G01X0744870Y1145000D01*
G37*
G36*
G01X0744870Y0801030D02*
G01X0743270Y0800180D01*
G01X0738780Y0798290D01*
G01X0735380Y0797210D01*
G01X0735380Y0902790D01*
G01X0738780Y0901710D01*
G01X0743270Y0899820D01*
G01X0744870Y0898970D01*
G01X0744870Y0801030D01*
G37*
G36*
G01X0744870Y0659530D02*
G01X0741020Y0660460D01*
G01X0735430Y0660900D01*
G01X0735380Y0660890D01*
G01X0735380Y0786780D01*
G01X0736780Y0787100D01*
G01X0742270Y0788850D01*
G01X0744870Y0789950D01*
G01X0744870Y0659530D01*
G37*
G36*
G01X0744870Y0475000D02*
G01X0735380Y0475000D01*
G01X0735380Y0589500D01*
G01X0735430Y0589500D01*
G01X0741020Y0589940D01*
G01X0744870Y0590860D01*
G01X0744870Y0475000D01*
G37*
G36*
G01X0735380Y1145000D02*
G01X0744870Y1145000D01*
G01X0744870Y1006590D01*
G01X0743940Y1008020D01*
G01X0743640Y1008390D01*
G01X0743280Y1008700D01*
G01X0742870Y1008950D01*
G01X0742430Y1009140D01*
G01X0741970Y1009250D01*
G01X0741490Y1009290D01*
G01X0741020Y1009260D01*
G01X0740550Y1009150D01*
G01X0740110Y1008970D01*
G01X0739700Y1008730D01*
G01X0739340Y1008420D01*
G01X0739020Y1008060D01*
G01X0738770Y1007650D01*
G01X0738580Y1007210D01*
G01X0738470Y1006750D01*
G01X0738430Y1006270D01*
G01X0738460Y1005800D01*
G01X0738570Y1005330D01*
G01X0738750Y1004890D01*
G01X0739000Y1004490D01*
G01X0740650Y1002020D01*
G01X0742040Y0999400D01*
G01X0743190Y0996660D01*
G01X0744100Y0993840D01*
G01X0744750Y0990940D01*
G01X0744870Y0990040D01*
G01X0744870Y0980040D01*
G01X0744750Y0979130D01*
G01X0744100Y0976240D01*
G01X0743190Y0973410D01*
G01X0742040Y0970680D01*
G01X0740650Y0968060D01*
G01X0739030Y0965570D01*
G01X0738780Y0965170D01*
G01X0738600Y0964740D01*
G01X0738490Y0964280D01*
G01X0738460Y0963800D01*
G01X0738500Y0963330D01*
G01X0738620Y0962880D01*
G01X0738800Y0962440D01*
G01X0739050Y0962040D01*
G01X0739360Y0961680D01*
G01X0739720Y0961380D01*
G01X0740120Y0961140D01*
G01X0740560Y0960960D01*
G01X0741020Y0960850D01*
G01X0741490Y0960820D01*
G01X0741960Y0960860D01*
G01X0742420Y0960970D01*
G01X0742860Y0961160D01*
G01X0743260Y0961410D01*
G01X0743610Y0961710D01*
G01X0743910Y0962080D01*
G01X0744870Y0963520D01*
G01X0744870Y0910050D01*
G01X0742270Y0911150D01*
G01X0736780Y0912900D01*
G01X0735380Y0913220D01*
G01X0735380Y0953470D01*
G01X0735470Y0953570D01*
G01X0735720Y0953980D01*
G01X0735910Y0954420D01*
G01X0736020Y0954880D01*
G01X0736070Y0955360D01*
G01X0736030Y0955830D01*
G01X0735920Y0956300D01*
G01X0735740Y0956740D01*
G01X0735500Y0957150D01*
G01X0735380Y0957290D01*
G01X0735380Y1012840D01*
G01X0735470Y1012950D01*
G01X0735710Y1013350D01*
G01X0735890Y1013790D01*
G01X0736000Y1014250D01*
G01X0736030Y1014720D01*
G01X0735990Y1015190D01*
G01X0735880Y1015650D01*
G01X0735690Y1016090D01*
G01X0735440Y1016490D01*
G01X0735380Y1016560D01*
G01X0735380Y1145000D01*
G37*
G36*
G01X0735380Y0957290D02*
G01X0735190Y0957510D01*
G01X0734830Y0957830D01*
G01X0734420Y0958080D01*
G01X0733990Y0958270D01*
G01X0733520Y0958380D01*
G01X0733050Y0958420D01*
G01X0732570Y0958390D01*
G01X0732110Y0958280D01*
G01X0731660Y0958100D01*
G01X0731260Y0957850D01*
G01X0728790Y0956200D01*
G01X0726170Y0954810D01*
G01X0724810Y0954240D01*
G01X0724810Y0984530D01*
G01X0724850Y0985040D01*
G01X0724690Y0987080D01*
G01X0724690Y0987080D01*
G01X0724330Y0988590D01*
G01X0724210Y0989070D01*
G01X0723890Y0989850D01*
G01X0723430Y0990960D01*
G01X0723020Y0991640D01*
G01X0722360Y0992700D01*
G01X0722360Y0992710D01*
G01X0721030Y0994260D01*
G01X0720640Y0994590D01*
G01X0706400Y1008830D01*
G01X0706070Y1009220D01*
G01X0704520Y1010550D01*
G01X0704520Y1010550D01*
G01X0703450Y1011200D01*
G01X0702770Y1011620D01*
G01X0701660Y1012080D01*
G01X0700880Y1012400D01*
G01X0700400Y1012520D01*
G01X0698890Y1012880D01*
G01X0698890Y1012880D01*
G01X0696850Y1013040D01*
G01X0696340Y1013000D01*
G01X0693520Y1013000D01*
G01X0694830Y1013880D01*
G01X0697450Y1015270D01*
G01X0700190Y1016420D01*
G01X0703010Y1017330D01*
G01X0705910Y1017980D01*
G01X0708850Y1018370D01*
G01X0711810Y1018500D01*
G01X0714780Y1018370D01*
G01X0717720Y1017980D01*
G01X0720610Y1017330D01*
G01X0723440Y1016420D01*
G01X0726170Y1015270D01*
G01X0728790Y1013880D01*
G01X0731280Y1012260D01*
G01X0731680Y1012010D01*
G01X0732120Y1011830D01*
G01X0732570Y1011720D01*
G01X0733050Y1011690D01*
G01X0733520Y1011730D01*
G01X0733970Y1011840D01*
G01X0734410Y1012030D01*
G01X0734810Y1012280D01*
G01X0735170Y1012590D01*
G01X0735380Y1012840D01*
G01X0735380Y0957290D01*
G37*
G36*
G01X0735380Y0913220D02*
G01X0731150Y0914160D01*
G01X0725440Y0914930D01*
G01X0724810Y0914950D01*
G01X0724810Y0947760D01*
G01X0725530Y0948000D01*
G01X0728760Y0949360D01*
G01X0731850Y0951000D01*
G01X0734790Y0952910D01*
G01X0735160Y0953210D01*
G01X0735380Y0953470D01*
G01X0735380Y0913220D01*
G37*
G36*
G01X0735380Y0475000D02*
G01X0682190Y0475000D01*
G01X0682190Y0494120D01*
G01X0682250Y0495000D01*
G01X0681980Y0498530D01*
G01X0681150Y0501970D01*
G01X0680750Y0502930D01*
G01X0679790Y0505250D01*
G01X0678650Y0507120D01*
G01X0677940Y0508270D01*
G01X0677940Y0508270D01*
G01X0675640Y0510960D01*
G01X0674970Y0511530D01*
G01X0661220Y0525290D01*
G01X0660640Y0525960D01*
G01X0657950Y0528260D01*
G01X0657950Y0528260D01*
G01X0656800Y0528960D01*
G01X0654930Y0530110D01*
G01X0652620Y0531070D01*
G01X0651660Y0531460D01*
G01X0648220Y0532290D01*
G01X0644690Y0532570D01*
G01X0643800Y0532500D01*
G01X0579000Y0532500D01*
G01X0577190Y0534320D01*
G01X0577190Y0615370D01*
G01X0603240Y0641420D01*
G01X0603230Y0641400D01*
G01X0601090Y0636230D01*
G01X0599780Y0630780D01*
G01X0599340Y0625200D01*
G01X0599780Y0619610D01*
G01X0601090Y0614160D01*
G01X0603230Y0608990D01*
G01X0606160Y0604210D01*
G01X0609800Y0599950D01*
G01X0614060Y0596310D01*
G01X0618830Y0593390D01*
G01X0624010Y0591240D01*
G01X0629450Y0589940D01*
G01X0635040Y0589500D01*
G01X0640620Y0589940D01*
G01X0646070Y0591240D01*
G01X0651250Y0593390D01*
G01X0656020Y0596310D01*
G01X0660280Y0599950D01*
G01X0663920Y0604210D01*
G01X0666850Y0608990D01*
G01X0668990Y0614160D01*
G01X0670300Y0619610D01*
G01X0670630Y0625200D01*
G01X0670300Y0630780D01*
G01X0668990Y0636230D01*
G01X0666850Y0641400D01*
G01X0663920Y0646180D01*
G01X0660280Y0650440D01*
G01X0656020Y0654080D01*
G01X0651250Y0657010D01*
G01X0646070Y0659150D01*
G01X0640620Y0660460D01*
G01X0635040Y0660900D01*
G01X0629450Y0660460D01*
G01X0624010Y0659150D01*
G01X0618830Y0657010D01*
G01X0618120Y0656570D01*
G01X0618260Y0656730D01*
G01X0618260Y0656730D01*
G01X0620110Y0659750D01*
G01X0621460Y0663030D01*
G01X0622290Y0666470D01*
G01X0622570Y0670000D01*
G01X0622500Y0670880D01*
G01X0622500Y0730680D01*
G01X0644970Y0753150D01*
G01X0645640Y0753730D01*
G01X0647940Y0756420D01*
G01X0647940Y0756420D01*
G01X0647980Y0756470D01*
G01X0659970Y0768470D01*
G01X0660640Y0769040D01*
G01X0662940Y0771730D01*
G01X0662940Y0771730D01*
G01X0664790Y0774750D01*
G01X0666150Y0778030D01*
G01X0666980Y0781470D01*
G01X0667250Y0785000D01*
G01X0667190Y0785880D01*
G01X0667190Y0811500D01*
G01X0667710Y0811040D01*
G01X0668380Y0810620D01*
G01X0669110Y0810310D01*
G01X0669880Y0810120D01*
G01X0670680Y0810050D01*
G01X0671470Y0810100D01*
G01X0672250Y0810280D01*
G01X0672980Y0810580D01*
G01X0673660Y0810990D01*
G01X0674270Y0811500D01*
G01X0674800Y0812100D01*
G01X0675220Y0812770D01*
G01X0675530Y0813500D01*
G01X0675720Y0814280D01*
G01X0675790Y0815070D01*
G01X0675740Y0815860D01*
G01X0675560Y0816640D01*
G01X0675260Y0817370D01*
G01X0674840Y0818050D01*
G01X0672150Y0822110D01*
G01X0669870Y0826410D01*
G01X0667980Y0830910D01*
G01X0667190Y0833390D01*
G01X0667190Y0866610D01*
G01X0667980Y0869090D01*
G01X0669870Y0873590D01*
G01X0672150Y0877890D01*
G01X0674800Y0881980D01*
G01X0675210Y0882650D01*
G01X0675510Y0883380D01*
G01X0675680Y0884150D01*
G01X0675740Y0884930D01*
G01X0675670Y0885720D01*
G01X0675480Y0886480D01*
G01X0675170Y0887200D01*
G01X0674750Y0887870D01*
G01X0674240Y0888460D01*
G01X0673630Y0888970D01*
G01X0672960Y0889370D01*
G01X0672230Y0889670D01*
G01X0671460Y0889850D01*
G01X0670680Y0889900D01*
G01X0669890Y0889830D01*
G01X0669130Y0889640D01*
G01X0668410Y0889330D01*
G01X0667740Y0888910D01*
G01X0667190Y0888430D01*
G01X0667190Y0899120D01*
G01X0667250Y0900000D01*
G01X0666980Y0903530D01*
G01X0666150Y0906970D01*
G01X0665750Y0907930D01*
G01X0664790Y0910250D01*
G01X0663650Y0912120D01*
G01X0662940Y0913270D01*
G01X0662940Y0913270D01*
G01X0660640Y0915960D01*
G01X0659970Y0916530D01*
G01X0626220Y0950290D01*
G01X0625640Y0950960D01*
G01X0622950Y0953260D01*
G01X0622950Y0953260D01*
G01X0621800Y0953960D01*
G01X0619930Y0955110D01*
G01X0617620Y0956070D01*
G01X0616660Y0956460D01*
G01X0613220Y0957290D01*
G01X0609690Y0957570D01*
G01X0608800Y0957500D01*
G01X0545570Y0957500D01*
G01X0544690Y0957570D01*
G01X0541150Y0957290D01*
G01X0537710Y0956460D01*
G01X0534440Y0955110D01*
G01X0531420Y0953260D01*
G01X0531420Y0953260D01*
G01X0528730Y0950960D01*
G01X0528150Y0950290D01*
G01X0495410Y0917540D01*
G01X0490950Y0919390D01*
G01X0485510Y0920690D01*
G01X0479920Y0921130D01*
G01X0478000Y0920980D01*
G01X0478000Y0944050D01*
G01X0479000Y0943970D01*
G01X0479390Y0944000D01*
G01X0480610Y0944000D01*
G01X0481000Y0943970D01*
G01X0481390Y0944000D01*
G01X0492610Y0944000D01*
G01X0493000Y0943970D01*
G01X0493390Y0944000D01*
G01X0494610Y0944000D01*
G01X0495000Y0943970D01*
G01X0495390Y0944000D01*
G01X0506610Y0944000D01*
G01X0507000Y0943970D01*
G01X0507390Y0944000D01*
G01X0509610Y0944000D01*
G01X0510000Y0943970D01*
G01X0511570Y0944090D01*
G01X0511570Y0944090D01*
G01X0513100Y0944460D01*
G01X0514550Y0945060D01*
G01X0515900Y0945880D01*
G01X0517090Y0946910D01*
G01X0517350Y0947210D01*
G01X0520180Y0950040D01*
G01X0525100Y0950060D01*
G01X0526170Y0950320D01*
G01X0527190Y0950740D01*
G01X0528130Y0951320D01*
G01X0528960Y0952040D01*
G01X0529680Y0952870D01*
G01X0530260Y0953810D01*
G01X0530680Y0954830D01*
G01X0530940Y0955900D01*
G01X0531000Y0957000D01*
G01X0530940Y0964100D01*
G01X0530680Y0965170D01*
G01X0530260Y0966190D01*
G01X0530060Y0966500D01*
G01X0530260Y0966810D01*
G01X0530680Y0967830D01*
G01X0530940Y0968900D01*
G01X0531000Y0970000D01*
G01X0530940Y0977100D01*
G01X0530680Y0978170D01*
G01X0530260Y0979190D01*
G01X0529680Y0980130D01*
G01X0528960Y0980960D01*
G01X0528130Y0981680D01*
G01X0527190Y0982260D01*
G01X0526170Y0982680D01*
G01X0525100Y0982940D01*
G01X0524000Y0983000D01*
G01X0520160Y0982980D01*
G01X0516350Y0986790D01*
G01X0516170Y0987000D01*
G01X0672390Y0987000D01*
G01X0672310Y0985040D01*
G01X0672460Y0981540D01*
G01X0672930Y0978070D01*
G01X0673700Y0974650D01*
G01X0674770Y0971320D01*
G01X0676130Y0968090D01*
G01X0677770Y0965000D01*
G01X0679680Y0962060D01*
G01X0679980Y0961690D01*
G01X0680340Y0961380D01*
G01X0680750Y0961130D01*
G01X0681190Y0960940D01*
G01X0681650Y0960830D01*
G01X0682130Y0960780D01*
G01X0682600Y0960820D01*
G01X0683070Y0960930D01*
G01X0683510Y0961110D01*
G01X0683920Y0961350D01*
G01X0684290Y0961660D01*
G01X0684600Y0962020D01*
G01X0684850Y0962430D01*
G01X0685040Y0962870D01*
G01X0685150Y0963330D01*
G01X0685190Y0963800D01*
G01X0685160Y0964280D01*
G01X0685050Y0964750D01*
G01X0684870Y0965190D01*
G01X0684620Y0965590D01*
G01X0682970Y0968060D01*
G01X0681580Y0970680D01*
G01X0680430Y0973410D01*
G01X0679520Y0976240D01*
G01X0678870Y0979130D01*
G01X0678480Y0982080D01*
G01X0678350Y0985040D01*
G01X0678430Y0987000D01*
G01X0691470Y0987000D01*
G01X0698810Y0979650D01*
G01X0698810Y0954240D01*
G01X0697450Y0954810D01*
G01X0694830Y0956200D01*
G01X0692340Y0957820D01*
G01X0691940Y0958070D01*
G01X0691510Y0958250D01*
G01X0691050Y0958360D01*
G01X0690580Y0958390D01*
G01X0690110Y0958350D01*
G01X0689650Y0958230D01*
G01X0689210Y0958050D01*
G01X0688810Y0957800D01*
G01X0688450Y0957490D01*
G01X0688150Y0957130D01*
G01X0687910Y0956730D01*
G01X0687730Y0956290D01*
G01X0687620Y0955830D01*
G01X0687590Y0955360D01*
G01X0687630Y0954890D01*
G01X0687740Y0954430D01*
G01X0687930Y0953990D01*
G01X0688180Y0953590D01*
G01X0688490Y0953240D01*
G01X0688850Y0952940D01*
G01X0691770Y0951000D01*
G01X0694860Y0949360D01*
G01X0698090Y0948000D01*
G01X0698810Y0947760D01*
G01X0698810Y0911690D01*
G01X0697100Y0911150D01*
G01X0691790Y0908910D01*
G01X0686700Y0906220D01*
G01X0681860Y0903090D01*
G01X0681250Y0902580D01*
G01X0680730Y0901980D01*
G01X0680300Y0901300D01*
G01X0679990Y0900570D01*
G01X0679800Y0899800D01*
G01X0679730Y0899010D01*
G01X0679790Y0898220D01*
G01X0679960Y0897440D01*
G01X0680260Y0896700D01*
G01X0680670Y0896020D01*
G01X0681180Y0895410D01*
G01X0681780Y0894890D01*
G01X0682460Y0894470D01*
G01X0683190Y0894160D01*
G01X0683960Y0893960D01*
G01X0684750Y0893890D01*
G01X0685550Y0893950D01*
G01X0686320Y0894130D01*
G01X0687060Y0894420D01*
G01X0687730Y0894850D01*
G01X0691790Y0897540D01*
G01X0696100Y0899820D01*
G01X0698810Y0900960D01*
G01X0698810Y0858380D01*
G01X0698770Y0857870D01*
G01X0698930Y0855840D01*
G01X0698930Y0855830D01*
G01X0699410Y0853840D01*
G01X0700190Y0851950D01*
G01X0700600Y0851290D01*
G01X0701260Y0850210D01*
G01X0701260Y0850210D01*
G01X0702590Y0848650D01*
G01X0702980Y0848320D01*
G01X0710490Y0840810D01*
G01X0712020Y0839450D01*
G01X0713760Y0838380D01*
G01X0715660Y0837600D01*
G01X0717650Y0837120D01*
G01X0719690Y0836960D01*
G01X0721720Y0837120D01*
G01X0723710Y0837600D01*
G01X0725610Y0838380D01*
G01X0727350Y0839450D01*
G01X0728910Y0840780D01*
G01X0730230Y0842340D01*
G01X0731300Y0844080D01*
G01X0732090Y0845970D01*
G01X0732560Y0847960D01*
G01X0732730Y0850000D01*
G01X0732560Y0852040D01*
G01X0732090Y0854030D01*
G01X0731300Y0855920D01*
G01X0730230Y0857660D01*
G01X0728880Y0859190D01*
G01X0724810Y0863260D01*
G01X0724810Y0904870D01*
G01X0729380Y0904260D01*
G01X0734140Y0903190D01*
G01X0735380Y0902790D01*
G01X0735380Y0797210D01*
G01X0734140Y0796810D01*
G01X0729380Y0795740D01*
G01X0724550Y0795100D01*
G01X0719690Y0794880D01*
G01X0714820Y0795100D01*
G01X0709990Y0795740D01*
G01X0705230Y0796810D01*
G01X0700590Y0798290D01*
G01X0696100Y0800180D01*
G01X0691790Y0802460D01*
G01X0687700Y0805110D01*
G01X0687040Y0805530D01*
G01X0686310Y0805820D01*
G01X0685540Y0806000D01*
G01X0684750Y0806050D01*
G01X0683970Y0805980D01*
G01X0683210Y0805790D01*
G01X0682480Y0805490D01*
G01X0681810Y0805070D01*
G01X0681220Y0804550D01*
G01X0680720Y0803950D01*
G01X0680310Y0803270D01*
G01X0680020Y0802540D01*
G01X0679840Y0801780D01*
G01X0679790Y0800990D01*
G01X0679850Y0800210D01*
G01X0680050Y0799440D01*
G01X0680350Y0798720D01*
G01X0680770Y0798050D01*
G01X0681290Y0797460D01*
G01X0681900Y0796970D01*
G01X0686700Y0793780D01*
G01X0691790Y0791090D01*
G01X0697100Y0788850D01*
G01X0702590Y0787100D01*
G01X0708220Y0785840D01*
G01X0713930Y0785070D01*
G01X0719690Y0784820D01*
G01X0725440Y0785070D01*
G01X0731150Y0785840D01*
G01X0735380Y0786780D01*
G01X0735380Y0660890D01*
G01X0729850Y0660460D01*
G01X0724400Y0659150D01*
G01X0719230Y0657010D01*
G01X0714450Y0654080D01*
G01X0710190Y0650440D01*
G01X0706550Y0646180D01*
G01X0703620Y0641400D01*
G01X0701480Y0636230D01*
G01X0700170Y0630780D01*
G01X0699730Y0625200D01*
G01X0700170Y0619610D01*
G01X0701480Y0614160D01*
G01X0703620Y0608990D01*
G01X0706550Y0604210D01*
G01X0710190Y0599950D01*
G01X0714450Y0596310D01*
G01X0719230Y0593390D01*
G01X0724400Y0591240D01*
G01X0729850Y0589940D01*
G01X0735380Y0589500D01*
G01X0735380Y0475000D01*
G37*
G36*
G01X0207860Y1145000D02*
G01X0735380Y1145000D01*
G01X0735380Y1016560D01*
G01X0735140Y1016840D01*
G01X0734770Y1017140D01*
G01X0731850Y1019080D01*
G01X0728760Y1020720D01*
G01X0725530Y1022080D01*
G01X0722200Y1023150D01*
G01X0718780Y1023920D01*
G01X0715310Y1024390D01*
G01X0711810Y1024540D01*
G01X0708310Y1024390D01*
G01X0704840Y1023920D01*
G01X0701420Y1023150D01*
G01X0698090Y1022080D01*
G01X0694860Y1020720D01*
G01X0691770Y1019080D01*
G01X0688830Y1017170D01*
G01X0688460Y1016870D01*
G01X0688150Y1016510D01*
G01X0687900Y1016100D01*
G01X0687710Y1015660D01*
G01X0687600Y1015200D01*
G01X0687560Y1014720D01*
G01X0687590Y1014250D01*
G01X0687700Y1013780D01*
G01X0687880Y1013340D01*
G01X0688080Y1013000D01*
G01X0520070Y1013000D01*
G01X0507690Y1025380D01*
G01X0507690Y1074490D01*
G01X0507730Y1075000D01*
G01X0507560Y1077040D01*
G01X0507560Y1077040D01*
G01X0507200Y1078550D01*
G01X0507090Y1079030D01*
G01X0506760Y1079810D01*
G01X0506300Y1080920D01*
G01X0505890Y1081600D01*
G01X0505230Y1082660D01*
G01X0505230Y1082670D01*
G01X0503910Y1084220D01*
G01X0503520Y1084550D01*
G01X0494240Y1093830D01*
G01X0493910Y1094220D01*
G01X0492350Y1095550D01*
G01X0492350Y1095550D01*
G01X0491280Y1096200D01*
G01X0490610Y1096620D01*
G01X0489500Y1097080D01*
G01X0488710Y1097400D01*
G01X0488240Y1097520D01*
G01X0486720Y1097880D01*
G01X0486720Y1097880D01*
G01X0484690Y1098040D01*
G01X0484180Y1098000D01*
G01X0330190Y1098000D01*
G01X0329690Y1098040D01*
G01X0327650Y1097880D01*
G01X0325660Y1097400D01*
G01X0323760Y1096620D01*
G01X0322020Y1095550D01*
G01X0322020Y1095550D01*
G01X0320460Y1094220D01*
G01X0320130Y1093830D01*
G01X0310850Y1084550D01*
G01X0310460Y1084220D01*
G01X0309140Y1082660D01*
G01X0308070Y1080920D01*
G01X0307280Y1079030D01*
G01X0306810Y1077040D01*
G01X0306810Y1077040D01*
G01X0306640Y1075000D01*
G01X0306690Y1074490D01*
G01X0306690Y1025380D01*
G01X0279340Y0998040D01*
G01X0245150Y0998040D01*
G01X0244920Y0998760D01*
G01X0243560Y1001990D01*
G01X0241910Y1005080D01*
G01X0240010Y1008020D01*
G01X0239700Y1008390D01*
G01X0239340Y1008700D01*
G01X0238930Y1008950D01*
G01X0238500Y1009140D01*
G01X0238030Y1009250D01*
G01X0237560Y1009290D01*
G01X0237080Y1009260D01*
G01X0236620Y1009150D01*
G01X0236170Y1008970D01*
G01X0235760Y1008730D01*
G01X0235400Y1008420D01*
G01X0235090Y1008060D01*
G01X0234830Y1007650D01*
G01X0234650Y1007210D01*
G01X0234530Y1006750D01*
G01X0234490Y1006270D01*
G01X0234530Y1005800D01*
G01X0234630Y1005330D01*
G01X0234810Y1004890D01*
G01X0235070Y1004490D01*
G01X0236710Y1002020D01*
G01X0238100Y0999400D01*
G01X0238670Y0998040D01*
G01X0208380Y0998040D01*
G01X0207870Y0998080D01*
G01X0207860Y0998080D01*
G01X0207860Y1018500D01*
G01X0207870Y1018500D01*
G01X0210840Y1018370D01*
G01X0213780Y1017980D01*
G01X0216670Y1017330D01*
G01X0219500Y1016420D01*
G01X0222230Y1015270D01*
G01X0224850Y1013880D01*
G01X0227340Y1012260D01*
G01X0227740Y1012010D01*
G01X0228180Y1011830D01*
G01X0228640Y1011720D01*
G01X0229110Y1011690D01*
G01X0229580Y1011730D01*
G01X0230040Y1011840D01*
G01X0230470Y1012030D01*
G01X0230870Y1012280D01*
G01X0231230Y1012590D01*
G01X0231530Y1012950D01*
G01X0231780Y1013350D01*
G01X0231960Y1013790D01*
G01X0232060Y1014250D01*
G01X0232100Y1014720D01*
G01X0232060Y1015190D01*
G01X0231940Y1015650D01*
G01X0231760Y1016090D01*
G01X0231510Y1016490D01*
G01X0231200Y1016840D01*
G01X0230830Y1017140D01*
G01X0227920Y1019080D01*
G01X0224820Y1020720D01*
G01X0221600Y1022080D01*
G01X0218260Y1023150D01*
G01X0214840Y1023920D01*
G01X0211370Y1024390D01*
G01X0207870Y1024540D01*
G01X0207860Y1024540D01*
G01X0207860Y1145000D01*
G37*
G36*
G01X0254540Y0857610D02*
G01X0254900Y0854870D01*
G01X0255120Y0850000D01*
G01X0254900Y0845130D01*
G01X0254540Y0842390D01*
G01X0254540Y0857610D01*
G37*
G36*
G01X0372450Y0847700D02*
G01X0372450Y0862430D01*
G01X0374360Y0860190D01*
G01X0378620Y0856550D01*
G01X0383400Y0853620D01*
G01X0388570Y0851480D01*
G01X0394020Y0850170D01*
G01X0399610Y0849730D01*
G01X0405190Y0850170D01*
G01X0410640Y0851480D01*
G01X0414700Y0853160D01*
G01X0422270Y0845590D01*
G01X0418780Y0843450D01*
G01X0414520Y0839810D01*
G01X0410880Y0835550D01*
G01X0407950Y0830770D01*
G01X0405810Y0825600D01*
G01X0404500Y0820150D01*
G01X0404060Y0814570D01*
G01X0404500Y0808980D01*
G01X0405810Y0803530D01*
G01X0407950Y0798360D01*
G01X0410880Y0793580D01*
G01X0414520Y0789320D01*
G01X0417260Y0786980D01*
G01X0417260Y0572500D01*
G01X0335570Y0572500D01*
G01X0334690Y0572570D01*
G01X0331150Y0572290D01*
G01X0327710Y0571460D01*
G01X0324440Y0570110D01*
G01X0321420Y0568260D01*
G01X0321420Y0568260D01*
G01X0318730Y0565960D01*
G01X0318150Y0565290D01*
G01X0270370Y0517500D01*
G01X0254540Y0517500D01*
G01X0254540Y0606210D01*
G01X0255760Y0604210D01*
G01X0259400Y0599950D01*
G01X0263660Y0596310D01*
G01X0268440Y0593390D01*
G01X0273610Y0591240D01*
G01X0279060Y0589940D01*
G01X0284650Y0589500D01*
G01X0290230Y0589940D01*
G01X0295680Y0591240D01*
G01X0300850Y0593390D01*
G01X0305630Y0596310D01*
G01X0309890Y0599950D01*
G01X0313530Y0604210D01*
G01X0316450Y0608990D01*
G01X0318600Y0614160D01*
G01X0319910Y0619610D01*
G01X0320240Y0625200D01*
G01X0319910Y0630780D01*
G01X0318600Y0636230D01*
G01X0316450Y0641400D01*
G01X0313530Y0646180D01*
G01X0309890Y0650440D01*
G01X0305630Y0654080D01*
G01X0300850Y0657010D01*
G01X0295680Y0659150D01*
G01X0290230Y0660460D01*
G01X0284650Y0660900D01*
G01X0279060Y0660460D01*
G01X0273610Y0659150D01*
G01X0268440Y0657010D01*
G01X0263660Y0654080D01*
G01X0259400Y0650440D01*
G01X0255760Y0646180D01*
G01X0254540Y0644180D01*
G01X0254540Y0814480D01*
G01X0256220Y0817010D01*
G01X0258910Y0822110D01*
G01X0261150Y0827420D01*
G01X0262900Y0832910D01*
G01X0264160Y0838530D01*
G01X0264930Y0844240D01*
G01X0265180Y0850000D01*
G01X0264930Y0855760D01*
G01X0264160Y0861470D01*
G01X0262900Y0867090D01*
G01X0261150Y0872580D01*
G01X0258910Y0877890D01*
G01X0256220Y0882990D01*
G01X0254540Y0885580D01*
G01X0254540Y0972040D01*
G01X0284220Y0972040D01*
G01X0284720Y0972000D01*
G01X0286760Y0972160D01*
G01X0286760Y0972160D01*
G01X0288750Y0972640D01*
G01X0290640Y0973420D01*
G01X0292390Y0974490D01*
G01X0293950Y0975820D01*
G01X0294280Y0976210D01*
G01X0328520Y1010450D01*
G01X0328910Y1010780D01*
G01X0330230Y1012330D01*
G01X0330230Y1012340D01*
G01X0331300Y1014080D01*
G01X0332090Y1015970D01*
G01X0332560Y1017960D01*
G01X0332730Y1020000D01*
G01X0332690Y1020510D01*
G01X0332690Y1069620D01*
G01X0335070Y1072000D01*
G01X0336600Y1072000D01*
G01X0336140Y1071610D01*
G01X0335120Y1070420D01*
G01X0334300Y1069070D01*
G01X0333700Y1067620D01*
G01X0333330Y1066090D01*
G01X0333240Y1064520D01*
G01X0333330Y1003910D01*
G01X0333700Y1002380D01*
G01X0334300Y1000930D01*
G01X0335120Y0999580D01*
G01X0336140Y0998390D01*
G01X0337340Y0997360D01*
G01X0338680Y0996540D01*
G01X0340140Y0995940D01*
G01X0341670Y0995570D01*
G01X0343240Y0995480D01*
G01X0355830Y0995500D01*
G01X0355830Y0977980D01*
G01X0355580Y0977880D01*
G01X0352890Y0976230D01*
G01X0350500Y0974190D01*
G01X0348450Y0971790D01*
G01X0346810Y0969110D01*
G01X0345610Y0966200D01*
G01X0344870Y0963140D01*
G01X0344620Y0960000D01*
G01X0344870Y0956860D01*
G01X0345610Y0953800D01*
G01X0346810Y0950890D01*
G01X0348450Y0948210D01*
G01X0350500Y0945810D01*
G01X0352890Y0943770D01*
G01X0355580Y0942120D01*
G01X0358490Y0940920D01*
G01X0361550Y0940190D01*
G01X0364690Y0939940D01*
G01X0367820Y0940190D01*
G01X0370880Y0940920D01*
G01X0373790Y0942120D01*
G01X0376480Y0943770D01*
G01X0378870Y0945810D01*
G01X0380920Y0948210D01*
G01X0382560Y0950890D01*
G01X0383760Y0953800D01*
G01X0384500Y0956860D01*
G01X0384690Y0960000D01*
G01X0447030Y0960000D01*
G01X0447060Y0955900D01*
G01X0447320Y0954830D01*
G01X0447740Y0953810D01*
G01X0448320Y0952870D01*
G01X0449040Y0952040D01*
G01X0449870Y0951320D01*
G01X0450810Y0950740D01*
G01X0451830Y0950320D01*
G01X0452000Y0950280D01*
G01X0452000Y0930020D01*
G01X0450920Y0931790D01*
G01X0448870Y0934190D01*
G01X0446480Y0936230D01*
G01X0443790Y0937880D01*
G01X0440880Y0939080D01*
G01X0437820Y0939810D01*
G01X0434690Y0940060D01*
G01X0431550Y0939810D01*
G01X0428490Y0939080D01*
G01X0425880Y0938000D01*
G01X0385190Y0938000D01*
G01X0384690Y0938040D01*
G01X0382650Y0937880D01*
G01X0380660Y0937400D01*
G01X0378760Y0936620D01*
G01X0377020Y0935550D01*
G01X0377020Y0935550D01*
G01X0375460Y0934220D01*
G01X0375130Y0933830D01*
G01X0350620Y0909320D01*
G01X0350230Y0908980D01*
G01X0348900Y0907430D01*
G01X0348230Y0906330D01*
G01X0348170Y0906420D01*
G01X0344540Y0910680D01*
G01X0340280Y0914320D01*
G01X0335500Y0917240D01*
G01X0330320Y0919390D01*
G01X0324880Y0920690D01*
G01X0319290Y0921130D01*
G01X0313710Y0920690D01*
G01X0308260Y0919390D01*
G01X0303080Y0917240D01*
G01X0298310Y0914320D01*
G01X0294050Y0910680D01*
G01X0290410Y0906420D01*
G01X0287480Y0901640D01*
G01X0285340Y0896470D01*
G01X0284030Y0891020D01*
G01X0283590Y0885430D01*
G01X0284030Y0879850D01*
G01X0285340Y0874400D01*
G01X0287480Y0869230D01*
G01X0290410Y0864450D01*
G01X0294050Y0860190D01*
G01X0298310Y0856550D01*
G01X0303080Y0853620D01*
G01X0308260Y0851480D01*
G01X0313710Y0850170D01*
G01X0319290Y0849730D01*
G01X0324880Y0850170D01*
G01X0330320Y0851480D01*
G01X0335500Y0853620D01*
G01X0340280Y0856550D01*
G01X0344540Y0860190D01*
G01X0346450Y0862430D01*
G01X0346450Y0847700D01*
G01X0343240Y0846380D01*
G01X0338460Y0843450D01*
G01X0334200Y0839810D01*
G01X0330570Y0835550D01*
G01X0327640Y0830770D01*
G01X0325500Y0825600D01*
G01X0324190Y0820150D01*
G01X0323750Y0814570D01*
G01X0324190Y0808980D01*
G01X0325500Y0803530D01*
G01X0327640Y0798360D01*
G01X0330570Y0793580D01*
G01X0334200Y0789320D01*
G01X0338460Y0785680D01*
G01X0343240Y0782760D01*
G01X0348420Y0780610D01*
G01X0353860Y0779310D01*
G01X0359450Y0778870D01*
G01X0365030Y0779310D01*
G01X0370480Y0780610D01*
G01X0375660Y0782760D01*
G01X0380430Y0785680D01*
G01X0384690Y0789320D01*
G01X0388330Y0793580D01*
G01X0391260Y0798360D01*
G01X0393400Y0803530D01*
G01X0394710Y0808980D01*
G01X0395040Y0814570D01*
G01X0394710Y0820150D01*
G01X0393400Y0825600D01*
G01X0391260Y0830770D01*
G01X0388330Y0835550D01*
G01X0384690Y0839810D01*
G01X0380430Y0843450D01*
G01X0375660Y0846380D01*
G01X0372450Y0847700D01*
G37*
G36*
G01X0254540Y0517500D02*
G01X0207860Y0517500D01*
G01X0207860Y0598550D01*
G01X0209500Y0599950D01*
G01X0213130Y0604210D01*
G01X0216060Y0608990D01*
G01X0218200Y0614160D01*
G01X0219510Y0619610D01*
G01X0219840Y0625200D01*
G01X0219510Y0630780D01*
G01X0218200Y0636230D01*
G01X0216060Y0641400D01*
G01X0213130Y0646180D01*
G01X0209500Y0650440D01*
G01X0207860Y0651840D01*
G01X0207860Y0785350D01*
G01X0211470Y0785840D01*
G01X0217090Y0787100D01*
G01X0222580Y0788850D01*
G01X0227890Y0791090D01*
G01X0232990Y0793780D01*
G01X0237820Y0796910D01*
G01X0238440Y0797420D01*
G01X0238960Y0798020D01*
G01X0239380Y0798700D01*
G01X0239690Y0799430D01*
G01X0239880Y0800200D01*
G01X0239950Y0800990D01*
G01X0239900Y0801780D01*
G01X0239720Y0802560D01*
G01X0239420Y0803300D01*
G01X0239010Y0803980D01*
G01X0238500Y0804590D01*
G01X0237900Y0805110D01*
G01X0237230Y0805530D01*
G01X0236500Y0805840D01*
G01X0235720Y0806040D01*
G01X0234930Y0806110D01*
G01X0234140Y0806050D01*
G01X0233360Y0805870D01*
G01X0232630Y0805580D01*
G01X0231950Y0805150D01*
G01X0227890Y0802460D01*
G01X0223590Y0800180D01*
G01X0219090Y0798290D01*
G01X0214450Y0796810D01*
G01X0209700Y0795740D01*
G01X0207860Y0795500D01*
G01X0207860Y0839620D01*
G01X0209190Y0840810D01*
G01X0216710Y0848320D01*
G01X0217090Y0848650D01*
G01X0218420Y0850210D01*
G01X0218420Y0850210D01*
G01X0219490Y0851950D01*
G01X0220280Y0853840D01*
G01X0220750Y0855830D01*
G01X0220910Y0857870D01*
G01X0220870Y0858380D01*
G01X0220870Y0900960D01*
G01X0223590Y0899820D01*
G01X0227890Y0897540D01*
G01X0231980Y0894890D01*
G01X0232650Y0894470D01*
G01X0233380Y0894180D01*
G01X0234150Y0894000D01*
G01X0234930Y0893950D01*
G01X0235720Y0894020D01*
G01X0236480Y0894210D01*
G01X0237200Y0894510D01*
G01X0237870Y0894930D01*
G01X0238460Y0895450D01*
G01X0238970Y0896050D01*
G01X0239370Y0896730D01*
G01X0239670Y0897460D01*
G01X0239850Y0898220D01*
G01X0239900Y0899010D01*
G01X0239830Y0899790D01*
G01X0239640Y0900560D01*
G01X0239330Y0901280D01*
G01X0238910Y0901950D01*
G01X0238400Y0902540D01*
G01X0237790Y0903030D01*
G01X0232990Y0906220D01*
G01X0227890Y0908910D01*
G01X0222580Y0911150D01*
G01X0220870Y0911690D01*
G01X0220870Y0947760D01*
G01X0221600Y0948000D01*
G01X0224820Y0949360D01*
G01X0227920Y0951000D01*
G01X0230850Y0952910D01*
G01X0231220Y0953210D01*
G01X0231530Y0953570D01*
G01X0231790Y0953980D01*
G01X0231970Y0954420D01*
G01X0232090Y0954880D01*
G01X0232130Y0955360D01*
G01X0232090Y0955830D01*
G01X0231990Y0956300D01*
G01X0231810Y0956740D01*
G01X0231560Y0957150D01*
G01X0231250Y0957510D01*
G01X0230890Y0957830D01*
G01X0230490Y0958080D01*
G01X0230050Y0958270D01*
G01X0229580Y0958380D01*
G01X0229110Y0958420D01*
G01X0228630Y0958390D01*
G01X0228170Y0958280D01*
G01X0227730Y0958100D01*
G01X0227320Y0957850D01*
G01X0224850Y0956200D01*
G01X0222230Y0954810D01*
G01X0220870Y0954240D01*
G01X0220870Y0972040D01*
G01X0238670Y0972040D01*
G01X0238100Y0970680D01*
G01X0236710Y0968060D01*
G01X0235090Y0965570D01*
G01X0234840Y0965170D01*
G01X0234660Y0964740D01*
G01X0234560Y0964280D01*
G01X0234520Y0963800D01*
G01X0234560Y0963330D01*
G01X0234680Y0962880D01*
G01X0234860Y0962440D01*
G01X0235110Y0962040D01*
G01X0235420Y0961680D01*
G01X0235780Y0961380D01*
G01X0236190Y0961140D01*
G01X0236630Y0960960D01*
G01X0237080Y0960850D01*
G01X0237560Y0960820D01*
G01X0238030Y0960860D01*
G01X0238480Y0960970D01*
G01X0238920Y0961160D01*
G01X0239320Y0961410D01*
G01X0239680Y0961710D01*
G01X0239970Y0962080D01*
G01X0241910Y0965000D01*
G01X0243560Y0968090D01*
G01X0244920Y0971320D01*
G01X0245150Y0972040D01*
G01X0254540Y0972040D01*
G01X0254540Y0885580D01*
G01X0253090Y0887820D01*
G01X0252580Y0888440D01*
G01X0251980Y0888960D01*
G01X0251300Y0889380D01*
G01X0250570Y0889690D01*
G01X0249800Y0889880D01*
G01X0249010Y0889950D01*
G01X0248220Y0889900D01*
G01X0247440Y0889720D01*
G01X0246700Y0889420D01*
G01X0246020Y0889010D01*
G01X0245410Y0888500D01*
G01X0244890Y0887900D01*
G01X0244470Y0887230D01*
G01X0244160Y0886500D01*
G01X0243960Y0885720D01*
G01X0243890Y0884930D01*
G01X0243950Y0884140D01*
G01X0244130Y0883360D01*
G01X0244420Y0882630D01*
G01X0244850Y0881950D01*
G01X0247540Y0877890D01*
G01X0249820Y0873590D01*
G01X0251710Y0869090D01*
G01X0253190Y0864450D01*
G01X0254260Y0859700D01*
G01X0254540Y0857610D01*
G01X0254540Y0842390D01*
G01X0254260Y0840300D01*
G01X0253190Y0835550D01*
G01X0251710Y0830910D01*
G01X0249820Y0826410D01*
G01X0247540Y0822110D01*
G01X0244890Y0818020D01*
G01X0244470Y0817350D01*
G01X0244180Y0816620D01*
G01X0244000Y0815850D01*
G01X0243950Y0815070D01*
G01X0244020Y0814280D01*
G01X0244210Y0813520D01*
G01X0244510Y0812800D01*
G01X0244930Y0812130D01*
G01X0245450Y0811540D01*
G01X0246050Y0811030D01*
G01X0246730Y0810630D01*
G01X0247460Y0810330D01*
G01X0248220Y0810150D01*
G01X0249010Y0810100D01*
G01X0249790Y0810170D01*
G01X0250560Y0810360D01*
G01X0251280Y0810670D01*
G01X0251950Y0811090D01*
G01X0252540Y0811600D01*
G01X0253030Y0812210D01*
G01X0254540Y0814480D01*
G01X0254540Y0644180D01*
G01X0252840Y0641400D01*
G01X0250690Y0636230D01*
G01X0249380Y0630780D01*
G01X0248950Y0625200D01*
G01X0249380Y0619610D01*
G01X0250690Y0614160D01*
G01X0252840Y0608990D01*
G01X0254540Y0606210D01*
G01X0254540Y0517500D01*
G37*
G36*
G01X0174810Y0789950D02*
G01X0177420Y0788850D01*
G01X0182910Y0787100D01*
G01X0188530Y0785840D01*
G01X0194240Y0785070D01*
G01X0200000Y0784820D01*
G01X0205760Y0785070D01*
G01X0207860Y0785350D01*
G01X0207860Y0651840D01*
G01X0205240Y0654080D01*
G01X0200460Y0657010D01*
G01X0195280Y0659150D01*
G01X0189840Y0660460D01*
G01X0184250Y0660900D01*
G01X0178670Y0660460D01*
G01X0174810Y0659530D01*
G01X0174810Y0789950D01*
G37*
G36*
G01X0174810Y0898970D02*
G01X0176410Y0899820D01*
G01X0180910Y0901710D01*
G01X0185550Y0903190D01*
G01X0190300Y0904260D01*
G01X0194870Y0904870D01*
G01X0194870Y0863260D01*
G01X0190810Y0859190D01*
G01X0189450Y0857660D01*
G01X0188380Y0855920D01*
G01X0187600Y0854030D01*
G01X0187120Y0852040D01*
G01X0186960Y0850000D01*
G01X0187120Y0847960D01*
G01X0187600Y0845970D01*
G01X0188380Y0844080D01*
G01X0189450Y0842340D01*
G01X0190780Y0840780D01*
G01X0192340Y0839450D01*
G01X0194080Y0838380D01*
G01X0195970Y0837600D01*
G01X0197960Y0837120D01*
G01X0200000Y0836960D01*
G01X0202040Y0837120D01*
G01X0204030Y0837600D01*
G01X0205920Y0838380D01*
G01X0207660Y0839450D01*
G01X0207860Y0839620D01*
G01X0207860Y0795500D01*
G01X0204870Y0795100D01*
G01X0200000Y0794880D01*
G01X0195130Y0795100D01*
G01X0190300Y0795740D01*
G01X0185550Y0796810D01*
G01X0180910Y0798290D01*
G01X0176410Y0800180D01*
G01X0174810Y0801030D01*
G01X0174810Y0898970D01*
G37*
G36*
G01X0174810Y1145000D02*
G01X0207860Y1145000D01*
G01X0207860Y1024540D01*
G01X0204370Y1024390D01*
G01X0200900Y1023920D01*
G01X0197490Y1023150D01*
G01X0194150Y1022080D01*
G01X0190920Y1020720D01*
G01X0187830Y1019080D01*
G01X0184890Y1017170D01*
G01X0184530Y1016870D01*
G01X0184210Y1016510D01*
G01X0183960Y1016100D01*
G01X0183780Y1015660D01*
G01X0183660Y1015200D01*
G01X0183620Y1014720D01*
G01X0183650Y1014250D01*
G01X0183760Y1013780D01*
G01X0183940Y1013340D01*
G01X0184190Y1012930D01*
G01X0184490Y1012560D01*
G01X0184850Y1012250D01*
G01X0185260Y1012000D01*
G01X0185700Y1011810D01*
G01X0186160Y1011700D01*
G01X0186640Y1011660D01*
G01X0187110Y1011690D01*
G01X0187580Y1011800D01*
G01X0188020Y1011980D01*
G01X0188430Y1012230D01*
G01X0190890Y1013880D01*
G01X0193520Y1015270D01*
G01X0196250Y1016420D01*
G01X0199070Y1017330D01*
G01X0201970Y1017980D01*
G01X0204910Y1018370D01*
G01X0207860Y1018500D01*
G01X0207860Y0998080D01*
G01X0205830Y0997920D01*
G01X0203840Y0997440D01*
G01X0201950Y0996660D01*
G01X0200210Y0995590D01*
G01X0198650Y0994260D01*
G01X0197320Y0992700D01*
G01X0196260Y0990960D01*
G01X0195470Y0989070D01*
G01X0194990Y0987080D01*
G01X0194830Y0985040D01*
G01X0194870Y0984530D01*
G01X0194870Y0954240D01*
G01X0193520Y0954810D01*
G01X0190890Y0956200D01*
G01X0188410Y0957820D01*
G01X0188010Y0958070D01*
G01X0187570Y0958250D01*
G01X0187110Y0958360D01*
G01X0186640Y0958390D01*
G01X0186170Y0958350D01*
G01X0185710Y0958230D01*
G01X0185280Y0958050D01*
G01X0184870Y0957800D01*
G01X0184520Y0957490D01*
G01X0184210Y0957130D01*
G01X0183970Y0956730D01*
G01X0183790Y0956290D01*
G01X0183690Y0955830D01*
G01X0183650Y0955360D01*
G01X0183690Y0954890D01*
G01X0183810Y0954430D01*
G01X0183990Y0953990D01*
G01X0184240Y0953590D01*
G01X0184550Y0953240D01*
G01X0184920Y0952940D01*
G01X0187830Y0951000D01*
G01X0190920Y0949360D01*
G01X0194150Y0948000D01*
G01X0194870Y0947760D01*
G01X0194870Y0914950D01*
G01X0194240Y0914930D01*
G01X0188530Y0914160D01*
G01X0182910Y0912900D01*
G01X0177420Y0911150D01*
G01X0174810Y0910050D01*
G01X0174810Y0963490D01*
G01X0175740Y0962060D01*
G01X0176050Y0961690D01*
G01X0176410Y0961380D01*
G01X0176810Y0961130D01*
G01X0177250Y0960940D01*
G01X0177720Y0960830D01*
G01X0178190Y0960780D01*
G01X0178670Y0960820D01*
G01X0179130Y0960930D01*
G01X0179580Y0961110D01*
G01X0179980Y0961350D01*
G01X0180350Y0961660D01*
G01X0180660Y0962020D01*
G01X0180910Y0962430D01*
G01X0181100Y0962870D01*
G01X0181220Y0963330D01*
G01X0181260Y0963800D01*
G01X0181220Y0964280D01*
G01X0181110Y0964750D01*
G01X0180940Y0965190D01*
G01X0180680Y0965590D01*
G01X0179040Y0968060D01*
G01X0177650Y0970680D01*
G01X0176490Y0973410D01*
G01X0175590Y0976240D01*
G01X0174930Y0979130D01*
G01X0174810Y0980040D01*
G01X0174810Y0990040D01*
G01X0174930Y0990940D01*
G01X0175590Y0993840D01*
G01X0176490Y0996660D01*
G01X0177650Y0999400D01*
G01X0179040Y1002020D01*
G01X0180650Y1004510D01*
G01X0180910Y1004910D01*
G01X0181080Y1005340D01*
G01X0181190Y1005800D01*
G01X0181220Y1006270D01*
G01X0181180Y1006740D01*
G01X0181070Y1007200D01*
G01X0180890Y1007640D01*
G01X0180640Y1008040D01*
G01X0180330Y1008400D01*
G01X0179960Y1008700D01*
G01X0179560Y1008940D01*
G01X0179120Y1009120D01*
G01X0178660Y1009230D01*
G01X0178190Y1009260D01*
G01X0177720Y1009220D01*
G01X0177260Y1009110D01*
G01X0176830Y1008920D01*
G01X0176430Y1008670D01*
G01X0176070Y1008360D01*
G01X0175770Y1008000D01*
G01X0174810Y1006550D01*
G01X0174810Y1145000D01*
G37*
G36*
G01X0207860Y0517500D02*
G01X0205570Y0517500D01*
G01X0204690Y0517570D01*
G01X0201150Y0517290D01*
G01X0197710Y0516460D01*
G01X0194440Y0515110D01*
G01X0191420Y0513260D01*
G01X0191420Y0513260D01*
G01X0188730Y0510960D01*
G01X0188150Y0510290D01*
G01X0174810Y0496950D01*
G01X0174810Y0590860D01*
G01X0178670Y0589940D01*
G01X0184250Y0589500D01*
G01X0189840Y0589940D01*
G01X0195280Y0591240D01*
G01X0200460Y0593390D01*
G01X0205240Y0596310D01*
G01X0207860Y0598550D01*
G01X0207860Y0517500D01*
G37*
G36*
G01X0174810Y0980040D02*
G01X0174540Y0982080D01*
G01X0174410Y0985040D01*
G01X0174540Y0988000D01*
G01X0174810Y0990040D01*
G01X0174810Y0980040D01*
G37*
G36*
G01X0174810Y0496950D02*
G01X0164400Y0486530D01*
G01X0163730Y0485960D01*
G01X0161430Y0483270D01*
G01X0159580Y0480250D01*
G01X0158220Y0476970D01*
G01X0157750Y0475000D01*
G01X0140000Y0475000D01*
G01X0140000Y0824690D01*
G01X0141090Y0822110D01*
G01X0143780Y0817010D01*
G01X0146910Y0812180D01*
G01X0147420Y0811560D01*
G01X0148020Y0811040D01*
G01X0148700Y0810620D01*
G01X0149430Y0810310D01*
G01X0150200Y0810120D01*
G01X0150990Y0810050D01*
G01X0151780Y0810100D01*
G01X0152560Y0810280D01*
G01X0153300Y0810580D01*
G01X0153980Y0810990D01*
G01X0154590Y0811500D01*
G01X0155110Y0812100D01*
G01X0155530Y0812770D01*
G01X0155840Y0813500D01*
G01X0156040Y0814280D01*
G01X0156110Y0815070D01*
G01X0156050Y0815860D01*
G01X0155870Y0816640D01*
G01X0155580Y0817370D01*
G01X0155150Y0818050D01*
G01X0152460Y0822110D01*
G01X0150180Y0826410D01*
G01X0148290Y0830910D01*
G01X0146810Y0835550D01*
G01X0145740Y0840300D01*
G01X0145100Y0845130D01*
G01X0144880Y0850000D01*
G01X0145100Y0854870D01*
G01X0145740Y0859700D01*
G01X0146810Y0864450D01*
G01X0148290Y0869090D01*
G01X0150180Y0873590D01*
G01X0152460Y0877890D01*
G01X0155110Y0881980D01*
G01X0155530Y0882650D01*
G01X0155820Y0883380D01*
G01X0156000Y0884150D01*
G01X0156050Y0884930D01*
G01X0155980Y0885720D01*
G01X0155790Y0886480D01*
G01X0155490Y0887200D01*
G01X0155070Y0887870D01*
G01X0154550Y0888460D01*
G01X0153950Y0888970D01*
G01X0153270Y0889370D01*
G01X0152540Y0889670D01*
G01X0151780Y0889850D01*
G01X0150990Y0889900D01*
G01X0150210Y0889830D01*
G01X0149440Y0889640D01*
G01X0148720Y0889330D01*
G01X0148050Y0888910D01*
G01X0147460Y0888400D01*
G01X0146970Y0887790D01*
G01X0143780Y0882990D01*
G01X0141090Y0877890D01*
G01X0140000Y0875310D01*
G01X0140000Y1145000D01*
G01X0174810Y1145000D01*
G01X0174810Y1006550D01*
G01X0173830Y1005080D01*
G01X0172190Y1001990D01*
G01X0170830Y0998760D01*
G01X0169760Y0995430D01*
G01X0168990Y0992010D01*
G01X0168530Y0988540D01*
G01X0168370Y0985040D01*
G01X0168530Y0981540D01*
G01X0168990Y0978070D01*
G01X0169760Y0974650D01*
G01X0170830Y0971320D01*
G01X0172190Y0968090D01*
G01X0173830Y0965000D01*
G01X0174810Y0963490D01*
G01X0174810Y0910050D01*
G01X0172110Y0908910D01*
G01X0167010Y0906220D01*
G01X0162180Y0903090D01*
G01X0161560Y0902580D01*
G01X0161040Y0901980D01*
G01X0160620Y0901300D01*
G01X0160310Y0900570D01*
G01X0160120Y0899800D01*
G01X0160050Y0899010D01*
G01X0160100Y0898220D01*
G01X0160280Y0897440D01*
G01X0160580Y0896700D01*
G01X0160990Y0896020D01*
G01X0161500Y0895410D01*
G01X0162100Y0894890D01*
G01X0162770Y0894470D01*
G01X0163500Y0894160D01*
G01X0164280Y0893960D01*
G01X0165070Y0893890D01*
G01X0165860Y0893950D01*
G01X0166640Y0894130D01*
G01X0167370Y0894420D01*
G01X0168050Y0894850D01*
G01X0172110Y0897540D01*
G01X0174810Y0898970D01*
G01X0174810Y0801030D01*
G01X0172110Y0802460D01*
G01X0168020Y0805110D01*
G01X0167350Y0805530D01*
G01X0166620Y0805820D01*
G01X0165850Y0806000D01*
G01X0165070Y0806050D01*
G01X0164280Y0805980D01*
G01X0163520Y0805790D01*
G01X0162800Y0805490D01*
G01X0162130Y0805070D01*
G01X0161540Y0804550D01*
G01X0161030Y0803950D01*
G01X0160630Y0803270D01*
G01X0160330Y0802540D01*
G01X0160150Y0801780D01*
G01X0160100Y0800990D01*
G01X0160170Y0800210D01*
G01X0160360Y0799440D01*
G01X0160670Y0798720D01*
G01X0161090Y0798050D01*
G01X0161600Y0797460D01*
G01X0162210Y0796970D01*
G01X0167010Y0793780D01*
G01X0172110Y0791090D01*
G01X0174810Y0789950D01*
G01X0174810Y0659530D01*
G01X0173220Y0659150D01*
G01X0168040Y0657010D01*
G01X0163270Y0654080D01*
G01X0159010Y0650440D01*
G01X0155370Y0646180D01*
G01X0152440Y0641400D01*
G01X0150300Y0636230D01*
G01X0148990Y0630780D01*
G01X0148550Y0625200D01*
G01X0148990Y0619610D01*
G01X0150300Y0614160D01*
G01X0152440Y0608990D01*
G01X0155370Y0604210D01*
G01X0159010Y0599950D01*
G01X0163270Y0596310D01*
G01X0168040Y0593390D01*
G01X0173220Y0591240D01*
G01X0174810Y0590860D01*
G01X0174810Y0496950D01*
G37*
G36*
G01X0407460Y1072000D02*
G01X0407000Y1071610D01*
G01X0405980Y1070420D01*
G01X0405160Y1069070D01*
G01X0404560Y1067620D01*
G01X0404260Y1066370D01*
G01X0403960Y1067620D01*
G01X0403350Y1069070D01*
G01X0402530Y1070420D01*
G01X0401510Y1071610D01*
G01X0401060Y1072000D01*
G01X0407460Y1072000D01*
G37*
G36*
G01X0637190Y0475000D02*
G01X0522190Y0475000D01*
G01X0522190Y0485680D01*
G01X0535130Y0498620D01*
G01X0535800Y0499200D01*
G01X0537450Y0501130D01*
G01X0538340Y0502130D01*
G01X0540190Y0505150D01*
G01X0540930Y0506940D01*
G01X0553150Y0494710D01*
G01X0553730Y0494040D01*
G01X0556420Y0491740D01*
G01X0556420Y0491740D01*
G01X0558290Y0490590D01*
G01X0559440Y0489890D01*
G01X0562710Y0488540D01*
G01X0566150Y0487710D01*
G01X0566150Y0487710D01*
G01X0569690Y0487430D01*
G01X0570570Y0487500D01*
G01X0635370Y0487500D01*
G01X0637190Y0485680D01*
G01X0637190Y0475000D01*
G37*
G36*
G01X0502190Y0707750D02*
G01X0502910Y0706910D01*
G01X0503210Y0706650D01*
G01X0505100Y0704750D01*
G01X0504600Y0703530D01*
G01X0504120Y0701540D01*
G01X0504000Y0699500D01*
G01X0504000Y0693000D01*
G01X0502190Y0693000D01*
G01X0502190Y0707750D01*
G37*
G36*
G01X0541750Y0705610D02*
G01X0542500Y0706360D01*
G01X0542500Y0703620D01*
G01X0542400Y0704030D01*
G01X0541750Y0705610D01*
G37*
G36*
G01X0477190Y0475000D02*
G01X0361750Y0475000D01*
G01X0361750Y0490250D01*
G01X0364000Y0492500D01*
G01X0458800Y0492500D01*
G01X0459690Y0492430D01*
G01X0463210Y0492710D01*
G01X0463220Y0492710D01*
G01X0466660Y0493540D01*
G01X0469930Y0494890D01*
G01X0472950Y0496740D01*
G01X0475640Y0499040D01*
G01X0476220Y0499710D01*
G01X0478140Y0501630D01*
G01X0477390Y0498530D01*
G01X0477390Y0498530D01*
G01X0477120Y0495000D01*
G01X0477190Y0494120D01*
G01X0477190Y0475000D01*
G37*
G36*
G01X0457190Y0544320D02*
G01X0450370Y0537500D01*
G01X0449000Y0537500D01*
G01X0455050Y0543550D01*
G01X0455720Y0544120D01*
G01X0457190Y0545830D01*
G01X0457190Y0544320D01*
G37*
G36*
G01X0517580Y0669400D02*
G01X0504560Y0656380D01*
G01X0503880Y0655800D01*
G01X0502190Y0653810D01*
G01X0502190Y0667000D01*
G01X0509490Y0667000D01*
G01X0510000Y0666960D01*
G01X0512040Y0667120D01*
G01X0512040Y0667120D01*
G01X0514030Y0667600D01*
G01X0515920Y0668380D01*
G01X0517580Y0669400D01*
G37*
G36*
G01X0572810Y0837070D02*
G01X0547670Y0837070D01*
G01X0545320Y0839810D01*
G01X0541060Y0843450D01*
G01X0537280Y0845770D01*
G01X0544810Y0853300D01*
G01X0549200Y0851480D01*
G01X0554650Y0850170D01*
G01X0560240Y0849730D01*
G01X0565820Y0850170D01*
G01X0571270Y0851480D01*
G01X0576440Y0853620D01*
G01X0581220Y0856550D01*
G01X0585480Y0860190D01*
G01X0589120Y0864450D01*
G01X0592050Y0869230D01*
G01X0594190Y0874400D01*
G01X0595500Y0879850D01*
G01X0595830Y0885430D01*
G01X0595500Y0891020D01*
G01X0594190Y0896470D01*
G01X0592050Y0901640D01*
G01X0589120Y0906420D01*
G01X0585480Y0910680D01*
G01X0583350Y0912500D01*
G01X0600370Y0912500D01*
G01X0622190Y0890680D01*
G01X0622190Y0842760D01*
G01X0621380Y0843450D01*
G01X0616600Y0846380D01*
G01X0611430Y0848520D01*
G01X0605980Y0849830D01*
G01X0600390Y0850270D01*
G01X0594810Y0849830D01*
G01X0589360Y0848520D01*
G01X0584190Y0846380D01*
G01X0579410Y0843450D01*
G01X0575150Y0839810D01*
G01X0572810Y0837070D01*
G37*
G36*
G01X0607960Y0779780D02*
G01X0587500Y0759320D01*
G01X0587500Y0768760D01*
G01X0587570Y0769650D01*
G01X0587290Y0773180D01*
G01X0586460Y0776620D01*
G01X0586070Y0777580D01*
G01X0585110Y0779890D01*
G01X0583960Y0781760D01*
G01X0583260Y0782910D01*
G01X0583260Y0782910D01*
G01X0582520Y0783780D01*
G01X0584190Y0782760D01*
G01X0589360Y0780610D01*
G01X0594810Y0779310D01*
G01X0600390Y0778870D01*
G01X0605980Y0779310D01*
G01X0607960Y0779780D01*
G37*
G36*
G01X0503210Y0751350D02*
G01X0502910Y0751090D01*
G01X0502190Y0750250D01*
G01X0502190Y0783790D01*
G01X0503870Y0782760D01*
G01X0509050Y0780610D01*
G01X0514490Y0779310D01*
G01X0520080Y0778870D01*
G01X0523680Y0779150D01*
G01X0542500Y0760330D01*
G01X0542500Y0752640D01*
G01X0539960Y0755180D01*
G01X0539940Y0760100D01*
G01X0539680Y0761170D01*
G01X0539260Y0762190D01*
G01X0538680Y0763130D01*
G01X0537960Y0763960D01*
G01X0537130Y0764680D01*
G01X0536190Y0765260D01*
G01X0535170Y0765680D01*
G01X0534100Y0765940D01*
G01X0533000Y0766000D01*
G01X0525900Y0765940D01*
G01X0524830Y0765680D01*
G01X0523810Y0765260D01*
G01X0523500Y0765060D01*
G01X0523190Y0765260D01*
G01X0522170Y0765680D01*
G01X0521100Y0765940D01*
G01X0520000Y0766000D01*
G01X0512900Y0765940D01*
G01X0511830Y0765680D01*
G01X0510810Y0765260D01*
G01X0509870Y0764680D01*
G01X0509040Y0763960D01*
G01X0508320Y0763130D01*
G01X0507740Y0762190D01*
G01X0507320Y0761170D01*
G01X0507060Y0760100D01*
G01X0507000Y0759000D01*
G01X0507020Y0755160D01*
G01X0503210Y0751350D01*
G37*
G36*
G01X0381830Y0995550D02*
G01X0395990Y0995570D01*
G01X0397520Y0995940D01*
G01X0398970Y0996540D01*
G01X0400310Y0997360D01*
G01X0401510Y0998390D01*
G01X0402530Y0999580D01*
G01X0403350Y1000930D01*
G01X0403960Y1002380D01*
G01X0404260Y1003630D01*
G01X0404560Y1002380D01*
G01X0405160Y1000930D01*
G01X0405980Y0999580D01*
G01X0407000Y0998390D01*
G01X0408200Y0997360D01*
G01X0409540Y0996540D01*
G01X0411000Y0995940D01*
G01X0412530Y0995570D01*
G01X0414100Y0995480D01*
G01X0425870Y0995500D01*
G01X0427890Y0993770D01*
G01X0430580Y0992120D01*
G01X0433490Y0990920D01*
G01X0436550Y0990190D01*
G01X0439690Y0989940D01*
G01X0442820Y0990190D01*
G01X0445880Y0990920D01*
G01X0448790Y0992120D01*
G01X0451480Y0993770D01*
G01X0453560Y0995550D01*
G01X0466850Y0995570D01*
G01X0468380Y0995940D01*
G01X0469830Y0996540D01*
G01X0471170Y0997360D01*
G01X0472370Y0998390D01*
G01X0473390Y0999580D01*
G01X0474210Y1000930D01*
G01X0474820Y1002380D01*
G01X0475180Y1003910D01*
G01X0475280Y1005480D01*
G01X0475180Y1066090D01*
G01X0474820Y1067620D01*
G01X0474210Y1069070D01*
G01X0473390Y1070420D01*
G01X0472370Y1071610D01*
G01X0471920Y1072000D01*
G01X0479300Y1072000D01*
G01X0481690Y1069620D01*
G01X0481690Y1020510D01*
G01X0481640Y1020000D01*
G01X0481810Y1017960D01*
G01X0481810Y1017960D01*
G01X0482280Y1015970D01*
G01X0483070Y1014080D01*
G01X0483470Y1013420D01*
G01X0484140Y1012340D01*
G01X0484140Y1012330D01*
G01X0485460Y1010780D01*
G01X0485850Y1010450D01*
G01X0505130Y0991170D01*
G01X0505460Y0990780D01*
G01X0506380Y0990000D01*
G01X0506000Y0990030D01*
G01X0505610Y0990000D01*
G01X0494390Y0990000D01*
G01X0494000Y0990030D01*
G01X0493610Y0990000D01*
G01X0482390Y0990000D01*
G01X0482000Y0990030D01*
G01X0481610Y0990000D01*
G01X0479390Y0990000D01*
G01X0479000Y0990030D01*
G01X0477430Y0989910D01*
G01X0475900Y0989540D01*
G01X0474450Y0988940D01*
G01X0473100Y0988120D01*
G01X0473100Y0988110D01*
G01X0471910Y0987090D01*
G01X0471650Y0986790D01*
G01X0469750Y0984900D01*
G01X0468530Y0985400D01*
G01X0466540Y0985880D01*
G01X0464500Y0986000D01*
G01X0381830Y0986000D01*
G01X0381830Y0995550D01*
G37*
G36*
G01X0316750Y0475000D02*
G01X0290110Y0475000D01*
G01X0292950Y0476740D01*
G01X0295640Y0479040D01*
G01X0296220Y0479710D01*
G01X0316730Y0500230D01*
G01X0316680Y0499570D01*
G01X0316750Y0498690D01*
G01X0316750Y0475000D01*
G37*
G36*
G01X0452000Y0909980D02*
G01X0452000Y0907540D01*
G01X0451040Y0906420D01*
G01X0448110Y0901640D01*
G01X0445970Y0896470D01*
G01X0444660Y0891020D01*
G01X0444360Y0887150D01*
G01X0432510Y0898990D01*
G01X0432030Y0900150D01*
G01X0434690Y0899940D01*
G01X0437820Y0900190D01*
G01X0440880Y0900920D01*
G01X0443790Y0902120D01*
G01X0446480Y0903770D01*
G01X0448870Y0905810D01*
G01X0450920Y0908210D01*
G01X0452000Y0909980D01*
G37*
G54D14*
G01X0718310Y0385870D02*
G01X0722240Y0385870D01*
G01X0722240Y0385870D02*
G01X0753740Y0354370D01*
G01X0659250Y0389800D02*
G01X0714880Y0389800D01*
G01X0659690Y0389800D02*
G01X0659690Y0350000D01*
G01X0659690Y0350000D02*
G01X0694690Y0315000D01*
G01X0398310Y0410870D02*
G01X0402240Y0410870D01*
G01X0558310Y0410870D02*
G01X0562240Y0410870D01*
G01X0562240Y0410870D02*
G01X0593740Y0379370D01*
G01X0499250Y0414800D02*
G01X0554880Y0414800D01*
G01X0499690Y0375000D02*
G01X0534690Y0340000D01*
G01X0339690Y0375000D02*
G01X0374690Y0340000D01*
G01X0402240Y0410870D02*
G01X0433740Y0379370D01*
G01X0339250Y0414800D02*
G01X0339250Y0499570D01*
G01X0339250Y0414800D02*
G01X0394880Y0414800D01*
G01X0339690Y0414800D02*
G01X0339690Y0375000D01*
G01X0439760Y0560080D02*
G01X0429690Y0550000D01*
G01X0429690Y0550000D02*
G01X0334690Y0550000D01*
G01X0334690Y0550000D02*
G01X0279690Y0495000D01*
G01X0339250Y0499570D02*
G01X0354690Y0515000D01*
G01X0354690Y0515000D02*
G01X0459690Y0515000D01*
G01X0459690Y0515000D02*
G01X0479690Y0535000D01*
G01X0238310Y0385870D02*
G01X0242240Y0385870D01*
G01X0242240Y0385870D02*
G01X0273740Y0354370D01*
G01X0234880Y0389800D02*
G01X0238820Y0385870D01*
G01X0279690Y0495000D02*
G01X0204690Y0495000D01*
G01X0204690Y0495000D02*
G01X0179690Y0470000D01*
G01X0179690Y0470000D02*
G01X0179690Y0390240D01*
G01X0179250Y0389800D02*
G01X0234880Y0389800D01*
G01X0179690Y0389800D02*
G01X0179690Y0350000D01*
G01X0179690Y0350000D02*
G01X0214690Y0315000D01*
G01X0179690Y0390240D02*
G01X0179250Y0389800D01*
G01X0554690Y0525000D02*
G01X0569690Y0510000D01*
G01X0520080Y0515390D02*
G01X0499690Y0495000D01*
G01X0499690Y0375000D02*
G01X0499690Y0495000D01*
G01X0569690Y0510000D02*
G01X0644690Y0510000D01*
G01X0644690Y0510000D02*
G01X0659690Y0495000D01*
G01X0659690Y0495000D02*
G01X0659690Y0390240D01*
G01X0659690Y0390240D02*
G01X0659250Y0389800D01*
G54D11*
G01X0207870Y0985040D02*
G01X0207870Y0857870D01*
G01X0207870Y0857870D02*
G01X0200000Y0850000D01*
G01X0207870Y0985040D02*
G01X0284720Y0985040D01*
G01X0284720Y0985040D02*
G01X0319690Y1020000D01*
G01X0319690Y1020000D02*
G01X0319690Y1075000D01*
G01X0319690Y1075000D02*
G01X0329690Y1085000D01*
G01X0368830Y1035000D02*
G01X0368830Y0964140D01*
G01X0368830Y0964140D02*
G01X0364690Y0960000D01*
G01X0439690Y1010000D02*
G01X0439690Y1035000D01*
G01X0329690Y1085000D02*
G01X0484690Y1085000D01*
G01X0484690Y1085000D02*
G01X0494690Y1075000D01*
G01X0494690Y1075000D02*
G01X0494690Y1020000D01*
G01X0494690Y1020000D02*
G01X0514690Y1000000D01*
G01X0514690Y1000000D02*
G01X0696850Y1000000D01*
G01X0359450Y0814570D02*
G01X0359450Y0899760D01*
G01X0359450Y0899760D02*
G01X0384690Y0925000D01*
G01X0384690Y0925000D02*
G01X0429690Y0925000D01*
G54D14*
G01X0399610Y0885430D02*
G01X0414250Y0885430D01*
G54D11*
G01X0429690Y0925000D02*
G01X0434690Y0920000D01*
G01X0464500Y0973000D02*
G01X0377690Y0973000D01*
G01X0377690Y0973000D02*
G01X0364690Y0960000D01*
G54D14*
G01X0414250Y0885430D02*
G01X0439690Y0860000D01*
G54D15*
G01X0449760Y0860430D02*
G01X0459760Y0850430D01*
G54D16*
G01X0439610Y0855430D02*
G01X0444610Y0855430D01*
G54D14*
G01X0479690Y0835000D02*
G01X0479690Y0840000D01*
G54D15*
G01X0459760Y0850280D02*
G01X0479610Y0830430D01*
G54D16*
G01X0479610Y0845430D02*
G01X0469610Y0845430D01*
G54D15*
G01X0479610Y0845430D02*
G01X0494610Y0845430D01*
G54D11*
G01X0479570Y0885430D02*
G01X0465000Y0900000D01*
G01X0711810Y0985040D02*
G01X0711810Y0857870D01*
G01X0696850Y1000000D02*
G01X0711810Y0985040D01*
G01X0711810Y0857870D02*
G01X0719690Y0850000D01*
G54D14*
G01X0560240Y0885430D02*
G01X0545120Y0885430D01*
G01X0479920Y0885430D02*
G01X0495120Y0885430D01*
G01X0495120Y0885430D02*
G01X0544690Y0935000D01*
G01X0544690Y0935000D02*
G01X0609690Y0935000D01*
G01X0609690Y0935000D02*
G01X0644690Y0900000D01*
G01X0545120Y0885430D02*
G01X0519690Y0860000D01*
G01X0600390Y0814570D02*
G01X0520080Y0814570D01*
G01X0644690Y0785000D02*
G01X0629690Y0770000D01*
G01X0525000Y0814570D02*
G01X0525430Y0814570D01*
G01X0629690Y0770000D02*
G01X0629690Y0769690D01*
G01X0629690Y0769690D02*
G01X0600000Y0740000D01*
G54D15*
G01X0494610Y0845430D02*
G01X0514610Y0865430D01*
G01X0519610Y0855430D02*
G01X0504610Y0855430D01*
G54D11*
G01X0465000Y0900000D02*
G01X0465000Y0960000D01*
G54D14*
G01X0644690Y0900000D02*
G01X0644690Y0785000D01*
G54D16*
G01X0479610Y0830430D02*
G01X0479610Y0775430D01*
G54D14*
G01X0565000Y0769650D02*
G01X0520080Y0814570D01*
G01X0600000Y0740000D02*
G01X0600000Y0670000D01*
G54D11*
G01X0530000Y0685000D02*
G01X0535000Y0680000D01*
G01X0535000Y0680000D02*
G01X0560000Y0680000D01*
G54D14*
G01X0439760Y0814570D02*
G01X0439760Y0560080D01*
G01X0479690Y0535000D02*
G01X0479690Y0795000D01*
G54D11*
G01X0517000Y0699500D02*
G01X0517000Y0687000D01*
G01X0517000Y0687000D02*
G01X0510000Y0680000D01*
G01X0510000Y0680000D02*
G01X0479690Y0680000D01*
G01X0530000Y0700000D02*
G01X0530000Y0685000D01*
G54D14*
G01X0519840Y0639840D02*
G01X0565000Y0685000D01*
G01X0600000Y0670000D02*
G01X0554690Y0624690D01*
G01X0565000Y0685000D02*
G01X0565000Y0769650D01*
G01X0554690Y0525000D02*
G01X0554690Y0624690D01*
G01X0519840Y0515160D02*
G01X0519840Y0639840D01*
G54D17*
G01X0339250Y0414800D03*
G01X0207870Y0985040D03*
G54D18*
G01X0200000Y0850000D03*
G54D19*
G01X0319290Y0885430D03*
G01X0184250Y0625200D03*
G01X0284650Y0625200D03*
G01X0635040Y0625200D03*
G01X0735430Y0625200D03*
G54D17*
G01X0711810Y0985040D03*
G54D18*
G01X0719690Y0850000D03*
G54D19*
G01X0479920Y0885430D03*
G01X0560240Y0885430D03*
G01X0399610Y0885430D03*
G01X0439760Y0814570D03*
G01X0359450Y0814570D03*
G01X0520080Y0814570D03*
G01X0600390Y0814570D03*
G54D20*
G01X0694690Y0315000D03*
G54D17*
G01X0659250Y0389800D03*
G54D21*
G01X0718310Y0385870D03*
G54D20*
G01X0534690Y0340000D03*
G54D17*
G01X0499250Y0414800D03*
G54D21*
G01X0558310Y0410870D03*
G54D22*
G01X0593740Y0379370D03*
G01X0753740Y0354370D03*
G54D20*
G01X0374690Y0340000D03*
G01X0214690Y0315000D03*
G54D17*
G01X0179250Y0389800D03*
G54D21*
G01X0238310Y0385870D03*
G54D22*
G01X0273740Y0354370D03*
G54D21*
G01X0398310Y0410870D03*
G54D22*
G01X0433740Y0379370D03*
G54D13*
G36*
G01X0394420Y1064520D02*
G01X0343240Y1064520D01*
G01X0343240Y1005480D01*
G01X0394420Y1005480D01*
G01X0394420Y1064520D01*
G37*
G36*
G01X0465280Y1064520D02*
G01X0414100Y1064520D01*
G01X0414100Y1005480D01*
G01X0465280Y1005480D01*
G01X0465280Y1064520D01*
G37*
G54D11*
G01X0479000Y0980000D02*
G01X0509000Y0980000D01*
G01X0509000Y0980000D02*
G01X0516000Y0973000D01*
G54D13*
G36*
G01X0513000Y0976000D02*
G01X0513000Y0970000D01*
G01X0524000Y0970000D01*
G01X0524000Y0976000D01*
G01X0513000Y0976000D01*
G37*
G54D11*
G01X0500000Y0974000D02*
G01X0506000Y0980000D01*
G01X0494000Y0980000D02*
G01X0500000Y0974000D01*
G01X0472000Y0973000D02*
G01X0479000Y0980000D01*
G54D13*
G36*
G01X0454000Y0976000D02*
G01X0454000Y0970000D01*
G01X0475000Y0970000D01*
G01X0475000Y0976000D01*
G01X0454000Y0976000D01*
G37*
G54D11*
G01X0482000Y0980000D02*
G01X0488000Y0974000D01*
G01X0488000Y0974000D02*
G01X0494000Y0980000D01*
G01X0479000Y0954000D02*
G01X0510000Y0954000D01*
G01X0479000Y0954000D02*
G01X0481000Y0954000D01*
G01X0510000Y0954000D02*
G01X0516000Y0960000D01*
G54D13*
G36*
G01X0513000Y0963000D02*
G01X0513000Y0957000D01*
G01X0524000Y0957000D01*
G01X0524000Y0963000D01*
G01X0513000Y0963000D01*
G37*
G54D11*
G01X0473000Y0960000D02*
G01X0479000Y0954000D01*
G54D13*
G36*
G01X0454000Y0963000D02*
G01X0454000Y0957000D01*
G01X0476000Y0957000D01*
G01X0476000Y0963000D01*
G01X0454000Y0963000D01*
G37*
G54D11*
G01X0481000Y0954000D02*
G01X0488000Y0961000D01*
G01X0488000Y0961000D02*
G01X0495000Y0954000D01*
G01X0493000Y0954000D02*
G01X0500000Y0961000D01*
G01X0500000Y0961000D02*
G01X0507000Y0954000D01*
G01X0510000Y0744000D02*
G01X0510000Y0714000D01*
G01X0510000Y0744000D02*
G01X0517000Y0751000D01*
G54D13*
G36*
G01X0520000Y0759000D02*
G01X0514000Y0759000D01*
G01X0514000Y0748000D01*
G01X0520000Y0748000D01*
G01X0520000Y0759000D01*
G37*
G54D11*
G01X0510000Y0741000D02*
G01X0516000Y0735000D01*
G01X0510000Y0729000D02*
G01X0516000Y0735000D01*
G01X0510000Y0714000D02*
G01X0517000Y0707000D01*
G54D13*
G36*
G01X0520000Y0710000D02*
G01X0514000Y0710000D01*
G01X0514000Y0689000D01*
G01X0520000Y0689000D01*
G01X0520000Y0710000D01*
G37*
G54D11*
G01X0510000Y0717000D02*
G01X0516000Y0723000D01*
G01X0510000Y0729000D02*
G01X0516000Y0723000D01*
G01X0536000Y0745000D02*
G01X0536000Y0714000D01*
G01X0536000Y0716000D02*
G01X0536000Y0714000D01*
G01X0530000Y0751000D02*
G01X0536000Y0745000D01*
G54D13*
G36*
G01X0533000Y0759000D02*
G01X0527000Y0759000D01*
G01X0527000Y0748000D01*
G01X0533000Y0748000D01*
G01X0533000Y0759000D01*
G37*
G54D11*
G01X0530000Y0708000D02*
G01X0536000Y0714000D01*
G54D13*
G36*
G01X0533000Y0711000D02*
G01X0527000Y0711000D01*
G01X0527000Y0689000D01*
G01X0533000Y0689000D01*
G01X0533000Y0711000D01*
G37*
G54D11*
G01X0529000Y0723000D02*
G01X0536000Y0716000D01*
G01X0529000Y0723000D02*
G01X0536000Y0730000D01*
G01X0529000Y0735000D02*
G01X0536000Y0728000D01*
G01X0529000Y0735000D02*
G01X0536000Y0742000D01*
G54D23*
G01X0434690Y0920000D03*
G01X0364690Y0960000D03*
G01X0439690Y1010000D03*
G01X0000000Y0000000D02*
G54D11*
G01X0110000Y1180000D02*
G01X0110000Y0200000D01*
G01X0110000Y0200000D02*
G01X0830000Y0200000D01*
G01X0830000Y0200000D02*
G01X0830000Y1180000D01*
G01X0830000Y1180000D02*
G01X0110000Y1180000D01*
G01X0000000Y0000000D02*
G54D30*
G01X0339250Y0414800D03*
G01X0207870Y0985040D03*
G54D31*
G01X0200000Y0850000D03*
G54D32*
G01X0319290Y0885430D03*
G01X0184250Y0625200D03*
G01X0284650Y0625200D03*
G01X0635040Y0625200D03*
G01X0735430Y0625200D03*
G54D30*
G01X0711810Y0985040D03*
G54D31*
G01X0719690Y0850000D03*
G54D32*
G01X0479920Y0885430D03*
G01X0560240Y0885430D03*
G01X0399610Y0885430D03*
G01X0439760Y0814570D03*
G01X0359450Y0814570D03*
G01X0520080Y0814570D03*
G01X0600390Y0814570D03*
G54D33*
G01X0694690Y0315000D03*
G54D30*
G01X0659250Y0389800D03*
G54D34*
G01X0718310Y0385870D03*
G54D33*
G01X0534690Y0340000D03*
G54D30*
G01X0499250Y0414800D03*
G54D34*
G01X0558310Y0410870D03*
G54D35*
G01X0593740Y0379370D03*
G01X0753740Y0354370D03*
G54D33*
G01X0374690Y0340000D03*
G01X0214690Y0315000D03*
G54D30*
G01X0179250Y0389800D03*
G54D34*
G01X0238310Y0385870D03*
G54D35*
G01X0273740Y0354370D03*
G54D34*
G01X0398310Y0410870D03*
G54D35*
G01X0433740Y0379370D03*
G54D13*
G36*
G01X0397420Y1067520D02*
G01X0340240Y1067520D01*
G01X0340240Y1002480D01*
G01X0397420Y1002480D01*
G01X0397420Y1067520D01*
G37*
G36*
G01X0468280Y1067520D02*
G01X0411100Y1067520D01*
G01X0411100Y1002480D01*
G01X0468280Y1002480D01*
G01X0468280Y1067520D01*
G37*
G54D23*
G01X0479000Y0980000D02*
G01X0509000Y0980000D01*
G01X0509000Y0980000D02*
G01X0516000Y0973000D01*
G54D13*
G36*
G01X0506000Y0983000D02*
G01X0506000Y0963000D01*
G01X0531000Y0963000D01*
G01X0531000Y0983000D01*
G01X0506000Y0983000D01*
G37*
G54D23*
G01X0500000Y0974000D02*
G01X0506000Y0980000D01*
G01X0494000Y0980000D02*
G01X0500000Y0974000D01*
G01X0472000Y0973000D02*
G01X0479000Y0980000D01*
G54D13*
G36*
G01X0447000Y0983000D02*
G01X0447000Y0963000D01*
G01X0482000Y0963000D01*
G01X0482000Y0983000D01*
G01X0447000Y0983000D01*
G37*
G54D23*
G01X0482000Y0980000D02*
G01X0488000Y0974000D01*
G01X0488000Y0974000D02*
G01X0494000Y0980000D01*
G01X0479000Y0954000D02*
G01X0510000Y0954000D01*
G01X0479000Y0954000D02*
G01X0481000Y0954000D01*
G01X0510000Y0954000D02*
G01X0516000Y0960000D01*
G54D13*
G36*
G01X0506000Y0970000D02*
G01X0506000Y0950000D01*
G01X0531000Y0950000D01*
G01X0531000Y0970000D01*
G01X0506000Y0970000D01*
G37*
G54D23*
G01X0473000Y0960000D02*
G01X0479000Y0954000D01*
G54D13*
G36*
G01X0447000Y0970000D02*
G01X0447000Y0950000D01*
G01X0483000Y0950000D01*
G01X0483000Y0970000D01*
G01X0447000Y0970000D01*
G37*
G54D23*
G01X0481000Y0954000D02*
G01X0488000Y0961000D01*
G01X0488000Y0961000D02*
G01X0495000Y0954000D01*
G01X0493000Y0954000D02*
G01X0500000Y0961000D01*
G01X0500000Y0961000D02*
G01X0507000Y0954000D01*
G01X0510000Y0744000D02*
G01X0510000Y0714000D01*
G01X0510000Y0744000D02*
G01X0517000Y0751000D01*
G54D13*
G36*
G01X0527000Y0766000D02*
G01X0507000Y0766000D01*
G01X0507000Y0741000D01*
G01X0527000Y0741000D01*
G01X0527000Y0766000D01*
G37*
G54D23*
G01X0510000Y0741000D02*
G01X0516000Y0735000D01*
G01X0510000Y0729000D02*
G01X0516000Y0735000D01*
G01X0510000Y0714000D02*
G01X0517000Y0707000D01*
G54D13*
G36*
G01X0527000Y0717000D02*
G01X0507000Y0717000D01*
G01X0507000Y0682000D01*
G01X0527000Y0682000D01*
G01X0527000Y0717000D01*
G37*
G54D23*
G01X0510000Y0717000D02*
G01X0516000Y0723000D01*
G01X0510000Y0729000D02*
G01X0516000Y0723000D01*
G01X0536000Y0745000D02*
G01X0536000Y0714000D01*
G01X0536000Y0716000D02*
G01X0536000Y0714000D01*
G01X0530000Y0751000D02*
G01X0536000Y0745000D01*
G54D13*
G36*
G01X0540000Y0766000D02*
G01X0520000Y0766000D01*
G01X0520000Y0741000D01*
G01X0540000Y0741000D01*
G01X0540000Y0766000D01*
G37*
G54D23*
G01X0530000Y0708000D02*
G01X0536000Y0714000D01*
G54D13*
G36*
G01X0540000Y0718000D02*
G01X0520000Y0718000D01*
G01X0520000Y0682000D01*
G01X0540000Y0682000D01*
G01X0540000Y0718000D01*
G37*
G54D23*
G01X0529000Y0723000D02*
G01X0536000Y0716000D01*
G01X0529000Y0723000D02*
G01X0536000Y0730000D01*
G01X0529000Y0735000D02*
G01X0536000Y0728000D01*
G01X0529000Y0735000D02*
G01X0536000Y0742000D01*
G01X0000000Y0000000D02*
G54D24*
G01X0364700Y0960000D03*
G01X0434700Y0920000D03*
G01X0439700Y1010000D03*
G54D23*
G01X0273700Y0354400D03*
G01X0433700Y0379400D03*
G01X0593700Y0379400D03*
G01X0753700Y0354400D03*
G54D41*
G01X0238300Y0385900D03*
G01X0398300Y0410900D03*
G01X0558300Y0410900D03*
G01X0718300Y0385900D03*
G54D39*
G01X0184300Y0625200D03*
G01X0284600Y0625200D03*
G01X0319300Y0885400D03*
G01X0359400Y0814600D03*
G01X0399600Y0885400D03*
G01X0439800Y0814600D03*
G01X0479900Y0885400D03*
G01X0520100Y0814600D03*
G01X0560200Y0885400D03*
G01X0600400Y0814600D03*
G01X0635000Y0625200D03*
G01X0735400Y0625200D03*
G54D36*
G01X0179300Y0389800D03*
G01X0339300Y0414800D03*
G01X0499300Y0414800D03*
G01X0659300Y0389800D03*
G54D37*
G01X0207900Y0985000D03*
G01X0711800Y0985000D03*
G54D40*
G01X0214700Y0315000D03*
G01X0374700Y0340000D03*
G01X0534700Y0340000D03*
G01X0694700Y0315000D03*
G54D38*
G01X0200000Y0850000D03*
G01X0719700Y0850000D03*
M02*
