G04 This is an RS-274x file exported by *
G04 gerbv version 2.7.0 *
G04 More information is available about gerbv at *
G04 http://gerbv.geda-project.org/ *
G04 --End of header info--*
%MOIN*%
%FSLAX36Y36*%
%IPPOS*%
G04 --Define apertures--*
%ADD10C,0.0060*%
%ADD11C,0.0030*%
%ADD12C,0.0040*%
%ADD13C,0.0250*%
%ADD14C,0.0100*%
%ADD15C,0.1005*%
%ADD16C,0.0729*%
%ADD17C,0.0532*%
%ADD18C,0.0454*%
%ADD19C,0.1162*%
%ADD20C,0.0572*%
%ADD21C,0.0790*%
%ADD22C,0.0490*%
%ADD23C,0.0300*%
%ADD24C,0.0200*%
%ADD25C,0.0510*%
%ADD26C,0.0940*%
%ADD27C,0.0350*%
%ADD28C,0.0130*%
G04 --Start main section--*
G54D10*
G01X0512040Y0980430D02*
G01X0496290Y0964690D01*
G01X0512040Y0964690D02*
G01X0496290Y0980430D01*
G54D11*
G01X0653430Y0578220D02*
G01X0668430Y0578220D01*
G01X0653430Y0578220D02*
G01X0653430Y0563220D01*
G01X0653430Y0563220D02*
G01X0657180Y0566970D01*
G01X0657180Y0566970D02*
G01X0664680Y0566970D01*
G01X0664680Y0566970D02*
G01X0668430Y0563220D01*
G01X0668430Y0563220D02*
G01X0668430Y0551970D01*
G01X0664680Y0548220D02*
G01X0668430Y0551970D01*
G01X0657180Y0548220D02*
G01X0664680Y0548220D01*
G01X0653430Y0551970D02*
G01X0657180Y0548220D01*
G01X0677430Y0551970D02*
G01X0699930Y0574470D01*
G01X0708930Y0578220D02*
G01X0708930Y0563220D01*
G01X0708930Y0563220D02*
G01X0712680Y0548220D01*
G01X0712680Y0548220D02*
G01X0720180Y0563220D01*
G01X0720180Y0563220D02*
G01X0727680Y0548220D01*
G01X0727680Y0548220D02*
G01X0731430Y0563220D01*
G01X0731430Y0578220D02*
G01X0731430Y0563220D01*
G01X0740430Y0548220D02*
G01X0755430Y0548220D01*
G01X0755430Y0548220D02*
G01X0759180Y0551970D01*
G01X0759180Y0560970D02*
G01X0759180Y0551970D01*
G01X0755430Y0564720D02*
G01X0759180Y0560970D01*
G01X0744180Y0564720D02*
G01X0755430Y0564720D01*
G01X0744180Y0578220D02*
G01X0744180Y0548220D01*
G01X0740430Y0578220D02*
G01X0755430Y0578220D01*
G01X0755430Y0578220D02*
G01X0759180Y0574470D01*
G01X0759180Y0574470D02*
G01X0759180Y0568470D01*
G01X0755430Y0564720D02*
G01X0759180Y0568470D01*
G01X0768180Y0578220D02*
G01X0768180Y0551970D01*
G01X0768180Y0551970D02*
G01X0771930Y0548220D01*
G54D12*
G01X0680000Y0605000D02*
G01X0685000Y0600000D01*
G01X0670000Y0605000D02*
G01X0680000Y0605000D01*
G01X0665000Y0600000D02*
G01X0670000Y0605000D01*
G01X0665000Y0600000D02*
G01X0665000Y0590000D01*
G01X0665000Y0590000D02*
G01X0670000Y0585000D01*
G01X0685000Y0605000D02*
G01X0685000Y0590000D01*
G01X0685000Y0590000D02*
G01X0690000Y0585000D01*
G01X0670000Y0585000D02*
G01X0680000Y0585000D01*
G01X0680000Y0585000D02*
G01X0685000Y0590000D01*
G01X0702000Y0625000D02*
G01X0702000Y0585000D01*
G01X0702000Y0625000D02*
G01X0717000Y0605000D01*
G01X0717000Y0605000D02*
G01X0732000Y0625000D01*
G01X0732000Y0625000D02*
G01X0732000Y0585000D01*
G54D11*
G01X0524080Y0766060D02*
G01X0520330Y0769810D01*
G01X0520330Y0781060D02*
G01X0520330Y0769810D01*
G01X0520330Y0781060D02*
G01X0524080Y0784810D01*
G01X0524080Y0784810D02*
G01X0531580Y0784810D01*
G01X0550330Y0766060D02*
G01X0531580Y0784810D01*
G01X0550330Y0784810D02*
G01X0550330Y0766060D01*
G01X0546580Y0793810D02*
G01X0524080Y0816310D01*
G01X0520330Y0840310D02*
G01X0524080Y0844060D01*
G01X0520330Y0840310D02*
G01X0520330Y0829060D01*
G01X0524080Y0825310D02*
G01X0520330Y0829060D01*
G01X0524080Y0825310D02*
G01X0546580Y0825310D01*
G01X0546580Y0825310D02*
G01X0550330Y0829060D01*
G01X0550330Y0840310D02*
G01X0550330Y0829060D01*
G01X0550330Y0840310D02*
G01X0546580Y0844060D01*
G01X0539080Y0844060D02*
G01X0546580Y0844060D01*
G01X0535330Y0840310D02*
G01X0539080Y0844060D01*
G01X0535330Y0840310D02*
G01X0535330Y0832810D01*
G01X0435430Y0771000D02*
G01X0450430Y0771000D01*
G01X0442930Y0801000D02*
G01X0442930Y0771000D01*
G01X0411430Y0771000D02*
G01X0426430Y0771000D01*
G01X0426430Y0786000D02*
G01X0426430Y0771000D01*
G01X0426430Y0786000D02*
G01X0422680Y0782250D01*
G01X0415180Y0782250D02*
G01X0422680Y0782250D01*
G01X0415180Y0782250D02*
G01X0411430Y0786000D01*
G01X0411430Y0797250D02*
G01X0411430Y0786000D01*
G01X0415180Y0801000D02*
G01X0411430Y0797250D01*
G01X0415180Y0801000D02*
G01X0422680Y0801000D01*
G01X0426430Y0797250D02*
G01X0422680Y0801000D01*
G01X0391180Y0771000D02*
G01X0387430Y0774750D01*
G01X0391180Y0771000D02*
G01X0398680Y0771000D01*
G01X0402430Y0774750D02*
G01X0398680Y0771000D01*
G01X0402430Y0797250D02*
G01X0402430Y0774750D01*
G01X0402430Y0797250D02*
G01X0398680Y0801000D01*
G01X0391180Y0784500D02*
G01X0387430Y0788250D01*
G01X0391180Y0784500D02*
G01X0402430Y0784500D01*
G01X0391180Y0801000D02*
G01X0398680Y0801000D01*
G01X0391180Y0801000D02*
G01X0387430Y0797250D01*
G01X0387430Y0797250D02*
G01X0387430Y0788250D01*
G01X0378430Y0797250D02*
G01X0374680Y0801000D01*
G01X0378430Y0797250D02*
G01X0378430Y0791250D01*
G01X0378430Y0791250D02*
G01X0373180Y0786000D01*
G01X0368680Y0786000D02*
G01X0373180Y0786000D01*
G01X0368680Y0786000D02*
G01X0363430Y0791250D01*
G01X0363430Y0797250D02*
G01X0363430Y0791250D01*
G01X0367180Y0801000D02*
G01X0363430Y0797250D01*
G01X0367180Y0801000D02*
G01X0374680Y0801000D01*
G01X0378430Y0780750D02*
G01X0373180Y0786000D01*
G01X0378430Y0780750D02*
G01X0378430Y0774750D01*
G01X0378430Y0774750D02*
G01X0374680Y0771000D01*
G01X0367180Y0771000D02*
G01X0374680Y0771000D01*
G01X0367180Y0771000D02*
G01X0363430Y0774750D01*
G01X0363430Y0780750D02*
G01X0363430Y0774750D01*
G01X0368680Y0786000D02*
G01X0363430Y0780750D01*
G01X0354430Y0801000D02*
G01X0354430Y0778500D01*
G01X0354430Y0778500D02*
G01X0349180Y0771000D01*
G01X0340930Y0771000D02*
G01X0349180Y0771000D01*
G01X0340930Y0771000D02*
G01X0335680Y0778500D01*
G01X0335680Y0801000D02*
G01X0335680Y0778500D01*
G01X0335680Y0786000D02*
G01X0354430Y0786000D01*
G01X0536060Y0559350D02*
G01X0551060Y0578100D01*
G01X0536060Y0559350D02*
G01X0554810Y0559350D01*
G01X0551060Y0578100D02*
G01X0551060Y0548100D01*
G01X0563810Y0551850D02*
G01X0586310Y0574350D01*
G01X0595310Y0548100D02*
G01X0610310Y0548100D01*
G01X0610310Y0548100D02*
G01X0614060Y0551850D01*
G01X0614060Y0560850D02*
G01X0614060Y0551850D01*
G01X0610310Y0564600D02*
G01X0614060Y0560850D01*
G01X0599060Y0564600D02*
G01X0610310Y0564600D01*
G01X0599060Y0578100D02*
G01X0599060Y0548100D01*
G01X0595310Y0578100D02*
G01X0610310Y0578100D01*
G01X0610310Y0578100D02*
G01X0614060Y0574350D01*
G01X0614060Y0574350D02*
G01X0614060Y0568350D01*
G01X0610310Y0564600D02*
G01X0614060Y0568350D01*
G01X0623060Y0578100D02*
G01X0623060Y0551850D01*
G01X0623060Y0551850D02*
G01X0626810Y0548100D01*
G54D12*
G01X0570000Y0605000D02*
G01X0575000Y0600000D01*
G01X0560000Y0605000D02*
G01X0570000Y0605000D01*
G01X0555000Y0600000D02*
G01X0560000Y0605000D01*
G01X0555000Y0600000D02*
G01X0555000Y0590000D01*
G01X0555000Y0590000D02*
G01X0560000Y0585000D01*
G01X0575000Y0605000D02*
G01X0575000Y0590000D01*
G01X0575000Y0590000D02*
G01X0580000Y0585000D01*
G01X0560000Y0585000D02*
G01X0570000Y0585000D01*
G01X0570000Y0585000D02*
G01X0575000Y0590000D01*
G01X0597000Y0625000D02*
G01X0597000Y0585000D01*
G01X0592000Y0625000D02*
G01X0612000Y0625000D01*
G01X0612000Y0625000D02*
G01X0617000Y0620000D01*
G01X0617000Y0620000D02*
G01X0617000Y0610000D01*
G01X0612000Y0605000D02*
G01X0617000Y0610000D01*
G01X0597000Y0605000D02*
G01X0612000Y0605000D01*
G01X0325000Y0590000D02*
G01X0325000Y0550000D01*
G01X0325000Y0555000D02*
G01X0330000Y0550000D01*
G01X0330000Y0550000D02*
G01X0340000Y0550000D01*
G01X0340000Y0550000D02*
G01X0345000Y0555000D01*
G01X0345000Y0565000D02*
G01X0345000Y0555000D01*
G01X0340000Y0570000D02*
G01X0345000Y0565000D01*
G01X0330000Y0570000D02*
G01X0340000Y0570000D01*
G01X0325000Y0565000D02*
G01X0330000Y0570000D01*
G01X0362000Y0590000D02*
G01X0362000Y0550000D01*
G01X0357000Y0590000D02*
G01X0377000Y0590000D01*
G01X0377000Y0590000D02*
G01X0382000Y0585000D01*
G01X0382000Y0585000D02*
G01X0382000Y0575000D01*
G01X0377000Y0570000D02*
G01X0382000Y0575000D01*
G01X0362000Y0570000D02*
G01X0377000Y0570000D01*
G54D11*
G01X0388430Y0572100D02*
G01X0392180Y0575850D01*
G01X0392180Y0575850D02*
G01X0399680Y0575850D01*
G01X0399680Y0575850D02*
G01X0403430Y0572100D01*
G01X0399680Y0545850D02*
G01X0403430Y0549600D01*
G01X0392180Y0545850D02*
G01X0399680Y0545850D01*
G01X0388430Y0549600D02*
G01X0392180Y0545850D01*
G01X0392180Y0562350D02*
G01X0399680Y0562350D01*
G01X0403430Y0572100D02*
G01X0403430Y0566100D01*
G01X0403430Y0558600D02*
G01X0403430Y0549600D01*
G01X0403430Y0558600D02*
G01X0399680Y0562350D01*
G01X0403430Y0566100D02*
G01X0399680Y0562350D01*
G01X0412430Y0549600D02*
G01X0434930Y0572100D01*
G01X0443930Y0575850D02*
G01X0443930Y0560850D01*
G01X0443930Y0560850D02*
G01X0447680Y0545850D01*
G01X0447680Y0545850D02*
G01X0455180Y0560850D01*
G01X0455180Y0560850D02*
G01X0462680Y0545850D01*
G01X0462680Y0545850D02*
G01X0466430Y0560850D01*
G01X0466430Y0575850D02*
G01X0466430Y0560850D01*
G01X0475430Y0572100D02*
G01X0475430Y0549600D01*
G01X0475430Y0572100D02*
G01X0479180Y0575850D01*
G01X0479180Y0575850D02*
G01X0486680Y0575850D01*
G01X0486680Y0575850D02*
G01X0490430Y0572100D01*
G01X0490430Y0572100D02*
G01X0490430Y0549600D01*
G01X0486680Y0545850D02*
G01X0490430Y0549600D01*
G01X0479180Y0545850D02*
G01X0486680Y0545850D01*
G01X0475430Y0549600D02*
G01X0479180Y0545850D01*
G01X0392180Y0582700D02*
G01X0407180Y0612700D01*
G01X0388430Y0612700D02*
G01X0407180Y0612700D01*
G01X0416180Y0586450D02*
G01X0438680Y0608950D01*
G01X0447680Y0612700D02*
G01X0447680Y0597700D01*
G01X0447680Y0597700D02*
G01X0451430Y0582700D01*
G01X0451430Y0582700D02*
G01X0458930Y0597700D01*
G01X0458930Y0597700D02*
G01X0466430Y0582700D01*
G01X0466430Y0582700D02*
G01X0470180Y0597700D01*
G01X0470180Y0612700D02*
G01X0470180Y0597700D01*
G01X0479180Y0582700D02*
G01X0494180Y0582700D01*
G01X0494180Y0582700D02*
G01X0497930Y0586450D01*
G01X0497930Y0595450D02*
G01X0497930Y0586450D01*
G01X0494180Y0599200D02*
G01X0497930Y0595450D01*
G01X0482930Y0599200D02*
G01X0494180Y0599200D01*
G01X0482930Y0612700D02*
G01X0482930Y0582700D01*
G01X0479180Y0612700D02*
G01X0494180Y0612700D01*
G01X0494180Y0612700D02*
G01X0497930Y0608950D01*
G01X0497930Y0608950D02*
G01X0497930Y0602950D01*
G01X0494180Y0599200D02*
G01X0497930Y0602950D01*
G01X0510680Y0593950D02*
G01X0510680Y0582700D01*
G01X0510680Y0593950D02*
G01X0514430Y0597700D01*
G01X0514430Y0597700D02*
G01X0521930Y0597700D01*
G01X0506930Y0597700D02*
G01X0510680Y0593950D01*
G54D12*
G01X0900000Y0590000D02*
G01X0900000Y0550000D01*
G01X0900000Y0555000D02*
G01X0905000Y0550000D01*
G01X0905000Y0550000D02*
G01X0915000Y0550000D01*
G01X0915000Y0550000D02*
G01X0920000Y0555000D01*
G01X0920000Y0565000D02*
G01X0920000Y0555000D01*
G01X0915000Y0570000D02*
G01X0920000Y0565000D01*
G01X0905000Y0570000D02*
G01X0915000Y0570000D01*
G01X0900000Y0565000D02*
G01X0905000Y0570000D01*
G01X0932000Y0590000D02*
G01X0932000Y0550000D01*
G01X0932000Y0590000D02*
G01X0947000Y0570000D01*
G01X0947000Y0570000D02*
G01X0962000Y0590000D01*
G01X0962000Y0590000D02*
G01X0962000Y0550000D01*
G54D11*
G01X0811250Y0576520D02*
G01X0815000Y0572770D01*
G01X0803750Y0576520D02*
G01X0811250Y0576520D01*
G01X0800000Y0572770D02*
G01X0803750Y0576520D01*
G01X0800000Y0572770D02*
G01X0800000Y0550270D01*
G01X0800000Y0550270D02*
G01X0803750Y0546520D01*
G01X0811250Y0563020D02*
G01X0815000Y0559270D01*
G01X0800000Y0563020D02*
G01X0811250Y0563020D01*
G01X0803750Y0546520D02*
G01X0811250Y0546520D01*
G01X0811250Y0546520D02*
G01X0815000Y0550270D01*
G01X0815000Y0559270D02*
G01X0815000Y0550270D01*
G01X0824000Y0550270D02*
G01X0846500Y0572770D01*
G01X0855500Y0572770D02*
G01X0855500Y0550270D01*
G01X0855500Y0572770D02*
G01X0859250Y0576520D01*
G01X0859250Y0576520D02*
G01X0866750Y0576520D01*
G01X0866750Y0576520D02*
G01X0870500Y0572770D01*
G01X0870500Y0572770D02*
G01X0870500Y0550270D01*
G01X0866750Y0546520D02*
G01X0870500Y0550270D01*
G01X0859250Y0546520D02*
G01X0866750Y0546520D01*
G01X0855500Y0550270D02*
G01X0859250Y0546520D01*
G01X0800000Y0587640D02*
G01X0803750Y0583890D01*
G01X0800000Y0593640D02*
G01X0800000Y0587640D01*
G01X0800000Y0593640D02*
G01X0805250Y0598890D01*
G01X0805250Y0598890D02*
G01X0809750Y0598890D01*
G01X0809750Y0598890D02*
G01X0815000Y0593640D01*
G01X0815000Y0593640D02*
G01X0815000Y0587640D01*
G01X0811250Y0583890D02*
G01X0815000Y0587640D01*
G01X0803750Y0583890D02*
G01X0811250Y0583890D01*
G01X0800000Y0604140D02*
G01X0805250Y0598890D01*
G01X0800000Y0610140D02*
G01X0800000Y0604140D01*
G01X0800000Y0610140D02*
G01X0803750Y0613890D01*
G01X0803750Y0613890D02*
G01X0811250Y0613890D01*
G01X0811250Y0613890D02*
G01X0815000Y0610140D01*
G01X0815000Y0610140D02*
G01X0815000Y0604140D01*
G01X0809750Y0598890D02*
G01X0815000Y0604140D01*
G01X0824000Y0587640D02*
G01X0846500Y0610140D01*
G01X0855500Y0583890D02*
G01X0870500Y0583890D01*
G01X0870500Y0583890D02*
G01X0874250Y0587640D01*
G01X0874250Y0596640D02*
G01X0874250Y0587640D01*
G01X0870500Y0600390D02*
G01X0874250Y0596640D01*
G01X0859250Y0600390D02*
G01X0870500Y0600390D01*
G01X0859250Y0613890D02*
G01X0859250Y0583890D01*
G01X0855500Y0613890D02*
G01X0870500Y0613890D01*
G01X0870500Y0613890D02*
G01X0874250Y0610140D01*
G01X0874250Y0610140D02*
G01X0874250Y0604140D01*
G01X0870500Y0600390D02*
G01X0874250Y0604140D01*
G01X0887000Y0595140D02*
G01X0887000Y0583890D01*
G01X0887000Y0595140D02*
G01X0890750Y0598890D01*
G01X0890750Y0598890D02*
G01X0898250Y0598890D01*
G01X0883250Y0598890D02*
G01X0887000Y0595140D01*
G01X0797360Y0770000D02*
G01X0801110Y0773750D01*
G01X0791360Y0770000D02*
G01X0797360Y0770000D01*
G01X0791360Y0770000D02*
G01X0786110Y0775250D01*
G01X0786110Y0779750D02*
G01X0786110Y0775250D01*
G01X0786110Y0779750D02*
G01X0791360Y0785000D01*
G01X0791360Y0785000D02*
G01X0797360Y0785000D01*
G01X0801110Y0781250D02*
G01X0797360Y0785000D01*
G01X0801110Y0781250D02*
G01X0801110Y0773750D01*
G01X0780860Y0770000D02*
G01X0786110Y0775250D01*
G01X0774860Y0770000D02*
G01X0780860Y0770000D01*
G01X0774860Y0770000D02*
G01X0771110Y0773750D01*
G01X0771110Y0781250D02*
G01X0771110Y0773750D01*
G01X0771110Y0781250D02*
G01X0774860Y0785000D01*
G01X0774860Y0785000D02*
G01X0780860Y0785000D01*
G01X0786110Y0779750D02*
G01X0780860Y0785000D01*
G01X0797360Y0794000D02*
G01X0774860Y0816500D01*
G01X0801110Y0840500D02*
G01X0801110Y0825500D01*
G01X0801110Y0840500D02*
G01X0797360Y0844250D01*
G01X0788360Y0844250D02*
G01X0797360Y0844250D01*
G01X0784610Y0840500D02*
G01X0788360Y0844250D01*
G01X0784610Y0840500D02*
G01X0784610Y0829250D01*
G01X0771110Y0829250D02*
G01X0801110Y0829250D01*
G01X0771110Y0840500D02*
G01X0771110Y0825500D01*
G01X0771110Y0840500D02*
G01X0774860Y0844250D01*
G01X0774860Y0844250D02*
G01X0780860Y0844250D01*
G01X0784610Y0840500D02*
G01X0780860Y0844250D01*
G01X0789860Y0857000D02*
G01X0801110Y0857000D01*
G01X0789860Y0857000D02*
G01X0786110Y0860750D01*
G01X0786110Y0868250D02*
G01X0786110Y0860750D01*
G01X0786110Y0853250D02*
G01X0789860Y0857000D01*
G01X0752300Y1022180D02*
G01X0722300Y1037180D01*
G01X0722300Y1037180D02*
G01X0722300Y1018430D01*
G01X0748550Y1046180D02*
G01X0726050Y1068680D01*
G01X0722300Y1077680D02*
G01X0737300Y1077680D01*
G01X0737300Y1077680D02*
G01X0752300Y1081430D01*
G01X0752300Y1081430D02*
G01X0737300Y1088930D01*
G01X0737300Y1088930D02*
G01X0752300Y1096430D01*
G01X0752300Y1096430D02*
G01X0737300Y1100180D01*
G01X0722300Y1100180D02*
G01X0737300Y1100180D01*
G01X0752300Y1124180D02*
G01X0752300Y1109180D01*
G01X0752300Y1124180D02*
G01X0748550Y1127930D01*
G01X0739550Y1127930D02*
G01X0748550Y1127930D01*
G01X0735800Y1124180D02*
G01X0739550Y1127930D01*
G01X0735800Y1124180D02*
G01X0735800Y1112930D01*
G01X0722300Y1112930D02*
G01X0752300Y1112930D01*
G01X0722300Y1124180D02*
G01X0722300Y1109180D01*
G01X0722300Y1124180D02*
G01X0726050Y1127930D01*
G01X0726050Y1127930D02*
G01X0732050Y1127930D01*
G01X0735800Y1124180D02*
G01X0732050Y1127930D01*
G01X0741050Y1140680D02*
G01X0752300Y1140680D01*
G01X0741050Y1140680D02*
G01X0737300Y1144430D01*
G01X0737300Y1151930D02*
G01X0737300Y1144430D01*
G01X0737300Y1136930D02*
G01X0741050Y1140680D01*
G01X0698480Y0781250D02*
G01X0702230Y0785000D01*
G01X0698480Y0781250D02*
G01X0698480Y0773750D01*
G01X0702230Y0770000D02*
G01X0698480Y0773750D01*
G01X0702230Y0770000D02*
G01X0724730Y0770000D01*
G01X0724730Y0770000D02*
G01X0728480Y0773750D01*
G01X0711980Y0781250D02*
G01X0715730Y0785000D01*
G01X0711980Y0781250D02*
G01X0711980Y0770000D01*
G01X0728480Y0781250D02*
G01X0728480Y0773750D01*
G01X0728480Y0781250D02*
G01X0724730Y0785000D01*
G01X0715730Y0785000D02*
G01X0724730Y0785000D01*
G01X0724730Y0794000D02*
G01X0702230Y0816500D01*
G01X0702230Y0825500D02*
G01X0724730Y0825500D01*
G01X0702230Y0825500D02*
G01X0698480Y0829250D01*
G01X0698480Y0836750D02*
G01X0698480Y0829250D01*
G01X0698480Y0836750D02*
G01X0702230Y0840500D01*
G01X0702230Y0840500D02*
G01X0724730Y0840500D01*
G01X0728480Y0836750D02*
G01X0724730Y0840500D01*
G01X0728480Y0836750D02*
G01X0728480Y0829250D01*
G01X0724730Y0825500D02*
G01X0728480Y0829250D01*
G01X0641780Y1033430D02*
G01X0641780Y1018430D01*
G01X0641780Y1018430D02*
G01X0656780Y1018430D01*
G01X0656780Y1018430D02*
G01X0653030Y1022180D01*
G01X0653030Y1029680D02*
G01X0653030Y1022180D01*
G01X0653030Y1029680D02*
G01X0656780Y1033430D01*
G01X0656780Y1033430D02*
G01X0668030Y1033430D01*
G01X0671780Y1029680D02*
G01X0668030Y1033430D01*
G01X0671780Y1029680D02*
G01X0671780Y1022180D01*
G01X0668030Y1018430D02*
G01X0671780Y1022180D01*
G01X0668030Y1042430D02*
G01X0645530Y1064930D01*
G01X0641780Y1073930D02*
G01X0656780Y1073930D01*
G01X0656780Y1073930D02*
G01X0671780Y1077680D01*
G01X0671780Y1077680D02*
G01X0656780Y1085180D01*
G01X0656780Y1085180D02*
G01X0671780Y1092680D01*
G01X0671780Y1092680D02*
G01X0656780Y1096430D01*
G01X0641780Y1096430D02*
G01X0656780Y1096430D01*
G01X0671780Y1120430D02*
G01X0671780Y1105430D01*
G01X0671780Y1120430D02*
G01X0668030Y1124180D01*
G01X0659030Y1124180D02*
G01X0668030Y1124180D01*
G01X0655280Y1120430D02*
G01X0659030Y1124180D01*
G01X0655280Y1120430D02*
G01X0655280Y1109180D01*
G01X0641780Y1109180D02*
G01X0671780Y1109180D01*
G01X0641780Y1120430D02*
G01X0641780Y1105430D01*
G01X0641780Y1120430D02*
G01X0645530Y1124180D01*
G01X0645530Y1124180D02*
G01X0651530Y1124180D01*
G01X0655280Y1120430D02*
G01X0651530Y1124180D01*
G01X0641780Y1133180D02*
G01X0668030Y1133180D01*
G01X0668030Y1133180D02*
G01X0671780Y1136930D01*
G01X0615650Y0766060D02*
G01X0596900Y0781060D01*
G01X0615650Y0784810D02*
G01X0615650Y0766060D01*
G01X0596900Y0781060D02*
G01X0626900Y0781060D01*
G01X0623150Y0793810D02*
G01X0600650Y0816310D01*
G01X0626900Y0840310D02*
G01X0626900Y0825310D01*
G01X0626900Y0840310D02*
G01X0623150Y0844060D01*
G01X0614150Y0844060D02*
G01X0623150Y0844060D01*
G01X0610400Y0840310D02*
G01X0614150Y0844060D01*
G01X0610400Y0840310D02*
G01X0610400Y0829060D01*
G01X0596900Y0829060D02*
G01X0626900Y0829060D01*
G01X0596900Y0840310D02*
G01X0596900Y0825310D01*
G01X0596900Y0840310D02*
G01X0600650Y0844060D01*
G01X0600650Y0844060D02*
G01X0606650Y0844060D01*
G01X0610400Y0840310D02*
G01X0606650Y0844060D01*
G01X0596900Y0853060D02*
G01X0623150Y0853060D01*
G01X0623150Y0853060D02*
G01X0626900Y0856810D01*
G01X0572900Y1018430D02*
G01X0569150Y1022180D01*
G01X0569150Y1029680D02*
G01X0569150Y1022180D01*
G01X0569150Y1029680D02*
G01X0572900Y1033430D01*
G01X0599150Y1029680D02*
G01X0595400Y1033430D01*
G01X0599150Y1029680D02*
G01X0599150Y1022180D01*
G01X0595400Y1018430D02*
G01X0599150Y1022180D01*
G01X0582650Y1029680D02*
G01X0582650Y1022180D01*
G01X0572900Y1033430D02*
G01X0578900Y1033430D01*
G01X0586400Y1033430D02*
G01X0595400Y1033430D01*
G01X0586400Y1033430D02*
G01X0582650Y1029680D01*
G01X0578900Y1033430D02*
G01X0582650Y1029680D01*
G01X0595400Y1042430D02*
G01X0572900Y1064930D01*
G01X0569150Y1073930D02*
G01X0584150Y1073930D01*
G01X0584150Y1073930D02*
G01X0599150Y1077680D01*
G01X0599150Y1077680D02*
G01X0584150Y1085180D01*
G01X0584150Y1085180D02*
G01X0599150Y1092680D01*
G01X0599150Y1092680D02*
G01X0584150Y1096430D01*
G01X0569150Y1096430D02*
G01X0584150Y1096430D01*
G01X0572900Y1105430D02*
G01X0595400Y1105430D01*
G01X0572900Y1105430D02*
G01X0569150Y1109180D01*
G01X0569150Y1116680D02*
G01X0569150Y1109180D01*
G01X0569150Y1116680D02*
G01X0572900Y1120430D01*
G01X0572900Y1120430D02*
G01X0595400Y1120430D01*
G01X0599150Y1116680D02*
G01X0595400Y1120430D01*
G01X0599150Y1116680D02*
G01X0599150Y1109180D01*
G01X0595400Y1105430D02*
G01X0599150Y1109180D01*
G01X0989080Y1021060D02*
G01X0985330Y1024810D01*
G01X0985330Y1036060D02*
G01X0985330Y1024810D01*
G01X0985330Y1036060D02*
G01X0989080Y1039810D01*
G01X0989080Y1039810D02*
G01X0996580Y1039810D01*
G01X1015330Y1021060D02*
G01X0996580Y1039810D01*
G01X1015330Y1039810D02*
G01X1015330Y1021060D01*
G01X1011580Y1048810D02*
G01X0989080Y1071310D01*
G01X0985330Y1095310D02*
G01X0989080Y1099060D01*
G01X0985330Y1095310D02*
G01X0985330Y1084060D01*
G01X0989080Y1080310D02*
G01X0985330Y1084060D01*
G01X0989080Y1080310D02*
G01X1011580Y1080310D01*
G01X1011580Y1080310D02*
G01X1015330Y1084060D01*
G01X1015330Y1095310D02*
G01X1015330Y1084060D01*
G01X1015330Y1095310D02*
G01X1011580Y1099060D01*
G01X1004080Y1099060D02*
G01X1011580Y1099060D01*
G01X1000330Y1095310D02*
G01X1004080Y1099060D01*
G01X1000330Y1095310D02*
G01X1000330Y1087810D01*
G01X0495620Y1017830D02*
G01X0489620Y1023830D01*
G01X0489620Y1023830D02*
G01X0519620Y1023830D01*
G01X0519620Y1029080D02*
G01X0519620Y1017830D01*
G01X0515870Y1038080D02*
G01X0493370Y1060580D01*
G01X0489620Y1069580D02*
G01X0504620Y1069580D01*
G01X0504620Y1069580D02*
G01X0519620Y1073330D01*
G01X0519620Y1073330D02*
G01X0504620Y1080830D01*
G01X0504620Y1080830D02*
G01X0519620Y1088330D01*
G01X0519620Y1088330D02*
G01X0504620Y1092080D01*
G01X0489620Y1092080D02*
G01X0504620Y1092080D01*
G01X0489620Y1116080D02*
G01X0493370Y1119830D01*
G01X0489620Y1116080D02*
G01X0489620Y1104830D01*
G01X0493370Y1101080D02*
G01X0489620Y1104830D01*
G01X0493370Y1101080D02*
G01X0515870Y1101080D01*
G01X0515870Y1101080D02*
G01X0519620Y1104830D01*
G01X0519620Y1116080D02*
G01X0519620Y1104830D01*
G01X0519620Y1116080D02*
G01X0515870Y1119830D01*
G01X0508370Y1119830D02*
G01X0515870Y1119830D01*
G01X0504620Y1116080D02*
G01X0508370Y1119830D01*
G01X0504620Y1116080D02*
G01X0504620Y1108580D01*
G01X0290620Y1077830D02*
G01X0284620Y1083830D01*
G01X0284620Y1083830D02*
G01X0314620Y1083830D01*
G01X0314620Y1089080D02*
G01X0314620Y1077830D01*
G01X0310870Y1098080D02*
G01X0288370Y1120580D01*
G01X0284620Y1129580D02*
G01X0299620Y1129580D01*
G01X0299620Y1129580D02*
G01X0314620Y1133330D01*
G01X0314620Y1133330D02*
G01X0299620Y1140830D01*
G01X0299620Y1140830D02*
G01X0314620Y1148330D01*
G01X0314620Y1148330D02*
G01X0299620Y1152080D01*
G01X0284620Y1152080D02*
G01X0299620Y1152080D01*
G01X0284620Y1176080D02*
G01X0288370Y1179830D01*
G01X0284620Y1176080D02*
G01X0284620Y1164830D01*
G01X0288370Y1161080D02*
G01X0284620Y1164830D01*
G01X0288370Y1161080D02*
G01X0310870Y1161080D01*
G01X0310870Y1161080D02*
G01X0314620Y1164830D01*
G01X0314620Y1176080D02*
G01X0314620Y1164830D01*
G01X0314620Y1176080D02*
G01X0310870Y1179830D01*
G01X0303370Y1179830D02*
G01X0310870Y1179830D01*
G01X0299620Y1176080D02*
G01X0303370Y1179830D01*
G01X0299620Y1176080D02*
G01X0299620Y1168580D01*
G54D13*
G01X1044570Y0274800D02*
G01X1044570Y0235430D01*
G01X1044570Y0235430D02*
G01X1080000Y0200000D01*
G01X1044570Y0280000D02*
G01X1094490Y0280000D01*
G01X1139060Y0239370D02*
G01X1135120Y0239370D01*
G01X1094490Y0280000D02*
G01X1135120Y0239370D01*
G01X0684570Y0499800D02*
G01X0684570Y0460430D01*
G01X0684570Y0460430D02*
G01X0720000Y0425000D01*
G01X0684570Y0505000D02*
G01X0734490Y0505000D01*
G01X0779060Y0464370D02*
G01X0775120Y0464370D01*
G01X0734490Y0505000D02*
G01X0775120Y0464370D01*
G01X0844570Y0474800D02*
G01X0844570Y0435430D01*
G01X0844570Y0435430D02*
G01X0880000Y0400000D01*
G01X0844570Y0480000D02*
G01X0894490Y0480000D01*
G01X0939060Y0439370D02*
G01X0935120Y0439370D01*
G01X0894490Y0480000D02*
G01X0935120Y0439370D01*
G01X0164570Y0274800D02*
G01X0164570Y0235430D01*
G01X0164570Y0235430D02*
G01X0200000Y0200000D01*
G01X0164570Y0280000D02*
G01X0214490Y0280000D01*
G01X0259060Y0239370D02*
G01X0255120Y0239370D01*
G01X0214490Y0280000D02*
G01X0255120Y0239370D01*
G01X0524570Y0499800D02*
G01X0524570Y0460430D01*
G01X0524570Y0460430D02*
G01X0560000Y0425000D01*
G01X0524570Y0505000D02*
G01X0574490Y0505000D01*
G01X0619060Y0464370D02*
G01X0615120Y0464370D01*
G01X0574490Y0505000D02*
G01X0615120Y0464370D01*
G01X0364570Y0474800D02*
G01X0364570Y0435430D01*
G01X0364570Y0435430D02*
G01X0400000Y0400000D01*
G01X0364570Y0480000D02*
G01X0414490Y0480000D01*
G01X0459060Y0439370D02*
G01X0455120Y0439370D01*
G01X0414490Y0480000D02*
G01X0455120Y0439370D01*
G01X1044570Y1144800D02*
G01X1044570Y1105430D01*
G01X1044570Y1105430D02*
G01X1080000Y1070000D01*
G01X1044570Y1150000D02*
G01X1094490Y1150000D01*
G01X1139060Y1109370D02*
G01X1135120Y1109370D01*
G01X1094490Y1150000D02*
G01X1135120Y1109370D01*
G01X0164570Y1144800D02*
G01X0164570Y1105430D01*
G01X0164570Y1105430D02*
G01X0200000Y1070000D01*
G01X0164570Y1150000D02*
G01X0214490Y1150000D01*
G01X0259060Y1109370D02*
G01X0255120Y1109370D01*
G01X0214490Y1150000D02*
G01X0255120Y1109370D01*
G54D10*
G01X0877440Y0710200D02*
G01X0885310Y0710200D01*
G01X0855790Y0710200D02*
G01X0863660Y0710200D01*
G01X0863660Y0722010D02*
G01X0863660Y0698390D01*
G01X0877440Y0720040D02*
G01X0877440Y0700350D01*
G01X0867600Y0710200D02*
G01X0877440Y0720040D01*
G01X0877440Y0700350D02*
G01X0867600Y0710200D01*
G01X0424490Y0699610D02*
G01X0414650Y0709450D01*
G01X0414650Y0709450D02*
G01X0424490Y0719290D01*
G01X0424490Y0719290D02*
G01X0424490Y0699610D01*
G01X0410710Y0721260D02*
G01X0410710Y0697640D01*
G01X0402830Y0709450D02*
G01X0410710Y0709450D01*
G01X0424490Y0709450D02*
G01X0432360Y0709450D01*
G54D14*
G01X0505390Y0970430D02*
G01X0505390Y0899570D01*
G01X0784920Y0970430D02*
G01X0784920Y0899570D01*
G54D10*
G01X0430590Y0970430D02*
G01X0861690Y0970430D01*
G01X0430590Y0899570D02*
G01X0861690Y0899570D01*
G01X0637280Y0935000D02*
G01X0653030Y0935000D01*
G01X0645160Y0942870D02*
G01X0645160Y0927130D01*
G01X0964060Y1230280D02*
G01X0964060Y1210590D01*
G01X0944370Y1230280D02*
G01X0964060Y1230280D01*
G01X0326260Y1230280D02*
G01X0326260Y1210590D01*
G01X0326260Y1230280D02*
G01X0345940Y1230280D01*
G01X0964060Y0659410D02*
G01X0964060Y0639720D01*
G01X0944370Y0639720D02*
G01X0964060Y0639720D01*
G01X0326260Y0659410D02*
G01X0326260Y0639720D01*
G01X0326260Y0639720D02*
G01X0345940Y0639720D01*
G01X0473900Y0986180D02*
G01X0464060Y0996020D01*
G01X0473900Y0996020D02*
G01X0464060Y0986180D01*
G54D12*
G01X0680000Y0330000D02*
G01X0700000Y0330000D01*
G01X0700000Y0330000D02*
G01X0705000Y0335000D01*
G01X0705000Y0347000D02*
G01X0705000Y0335000D01*
G01X0700000Y0352000D02*
G01X0705000Y0347000D01*
G01X0685000Y0352000D02*
G01X0700000Y0352000D01*
G01X0685000Y0370000D02*
G01X0685000Y0330000D01*
G01X0680000Y0370000D02*
G01X0700000Y0370000D01*
G01X0700000Y0370000D02*
G01X0705000Y0365000D01*
G01X0705000Y0365000D02*
G01X0705000Y0357000D01*
G01X0700000Y0352000D02*
G01X0705000Y0357000D01*
G01X0717000Y0370000D02*
G01X0717000Y0330000D01*
G01X0717000Y0330000D02*
G01X0737000Y0330000D01*
G01X0749000Y0360000D02*
G01X0749000Y0330000D01*
G01X0749000Y0360000D02*
G01X0756000Y0370000D01*
G01X0756000Y0370000D02*
G01X0767000Y0370000D01*
G01X0767000Y0370000D02*
G01X0774000Y0360000D01*
G01X0774000Y0360000D02*
G01X0774000Y0330000D01*
G01X0749000Y0350000D02*
G01X0774000Y0350000D01*
G01X0793000Y0330000D02*
G01X0806000Y0330000D01*
G01X0786000Y0337000D02*
G01X0793000Y0330000D01*
G01X0786000Y0363000D02*
G01X0786000Y0337000D01*
G01X0786000Y0363000D02*
G01X0793000Y0370000D01*
G01X0793000Y0370000D02*
G01X0806000Y0370000D01*
G01X0818000Y0370000D02*
G01X0818000Y0330000D01*
G01X0818000Y0350000D02*
G01X0838000Y0370000D01*
G01X0818000Y0350000D02*
G01X0838000Y0330000D01*
G01X0850000Y0345000D02*
G01X0870000Y0345000D01*
G01X0870000Y0345000D02*
G01X0875000Y0340000D01*
G01X0875000Y0340000D02*
G01X0875000Y0330000D01*
G01X0870000Y0325000D02*
G01X0875000Y0330000D01*
G01X0855000Y0325000D02*
G01X0870000Y0325000D01*
G01X0855000Y0345000D02*
G01X0855000Y0305000D01*
G01X0863000Y0325000D02*
G01X0875000Y0305000D01*
G01X0887000Y0327000D02*
G01X0902000Y0327000D01*
G01X0887000Y0305000D02*
G01X0907000Y0305000D01*
G01X0887000Y0345000D02*
G01X0887000Y0305000D01*
G01X0887000Y0345000D02*
G01X0907000Y0345000D01*
G01X0924000Y0345000D02*
G01X0924000Y0305000D01*
G01X0937000Y0345000D02*
G01X0944000Y0338000D01*
G01X0944000Y0338000D02*
G01X0944000Y0312000D01*
G01X0937000Y0305000D02*
G01X0944000Y0312000D01*
G01X0919000Y0305000D02*
G01X0937000Y0305000D01*
G01X0919000Y0345000D02*
G01X0937000Y0345000D01*
G01X0480000Y0370000D02*
G01X0485000Y0365000D01*
G01X0465000Y0370000D02*
G01X0480000Y0370000D01*
G01X0460000Y0365000D02*
G01X0465000Y0370000D01*
G01X0460000Y0365000D02*
G01X0460000Y0335000D01*
G01X0460000Y0335000D02*
G01X0465000Y0330000D01*
G01X0465000Y0330000D02*
G01X0480000Y0330000D01*
G01X0480000Y0330000D02*
G01X0485000Y0335000D01*
G01X0485000Y0345000D02*
G01X0485000Y0335000D01*
G01X0480000Y0350000D02*
G01X0485000Y0345000D01*
G01X0470000Y0350000D02*
G01X0480000Y0350000D01*
G01X0497000Y0370000D02*
G01X0517000Y0370000D01*
G01X0517000Y0370000D02*
G01X0522000Y0365000D01*
G01X0522000Y0365000D02*
G01X0522000Y0355000D01*
G01X0517000Y0350000D02*
G01X0522000Y0355000D01*
G01X0502000Y0350000D02*
G01X0517000Y0350000D01*
G01X0502000Y0370000D02*
G01X0502000Y0330000D01*
G01X0510000Y0350000D02*
G01X0522000Y0330000D01*
G01X0534000Y0352000D02*
G01X0549000Y0352000D01*
G01X0534000Y0330000D02*
G01X0554000Y0330000D01*
G01X0534000Y0370000D02*
G01X0534000Y0330000D01*
G01X0534000Y0370000D02*
G01X0554000Y0370000D01*
G01X0566000Y0352000D02*
G01X0581000Y0352000D01*
G01X0566000Y0330000D02*
G01X0586000Y0330000D01*
G01X0566000Y0370000D02*
G01X0566000Y0330000D01*
G01X0566000Y0370000D02*
G01X0586000Y0370000D01*
G01X0598000Y0370000D02*
G01X0598000Y0330000D01*
G01X0598000Y0370000D02*
G01X0623000Y0330000D01*
G01X0623000Y0370000D02*
G01X0623000Y0330000D01*
G01X0330000Y0305000D02*
G01X0350000Y0305000D01*
G01X0350000Y0305000D02*
G01X0355000Y0310000D01*
G01X0355000Y0322000D02*
G01X0355000Y0310000D01*
G01X0350000Y0327000D02*
G01X0355000Y0322000D01*
G01X0335000Y0327000D02*
G01X0350000Y0327000D01*
G01X0335000Y0345000D02*
G01X0335000Y0305000D01*
G01X0330000Y0345000D02*
G01X0350000Y0345000D01*
G01X0350000Y0345000D02*
G01X0355000Y0340000D01*
G01X0355000Y0340000D02*
G01X0355000Y0332000D01*
G01X0350000Y0327000D02*
G01X0355000Y0332000D01*
G01X0367000Y0345000D02*
G01X0367000Y0305000D01*
G01X0367000Y0305000D02*
G01X0387000Y0305000D01*
G01X0399000Y0345000D02*
G01X0399000Y0310000D01*
G01X0399000Y0310000D02*
G01X0404000Y0305000D01*
G01X0404000Y0305000D02*
G01X0414000Y0305000D01*
G01X0414000Y0305000D02*
G01X0419000Y0310000D01*
G01X0419000Y0345000D02*
G01X0419000Y0310000D01*
G01X0431000Y0327000D02*
G01X0446000Y0327000D01*
G01X0431000Y0305000D02*
G01X0451000Y0305000D01*
G01X0431000Y0345000D02*
G01X0431000Y0305000D01*
G01X0431000Y0345000D02*
G01X0451000Y0345000D01*
G01X0446360Y1177610D02*
G01X0441360Y1182610D01*
G01X0446360Y1177610D02*
G01X0461360Y1177610D01*
G01X0466360Y1182610D02*
G01X0461360Y1177610D01*
G01X0466360Y1192610D02*
G01X0466360Y1182610D01*
G01X0466360Y1192610D02*
G01X0461360Y1197610D01*
G01X0446360Y1197610D02*
G01X0461360Y1197610D01*
G01X0446360Y1197610D02*
G01X0441360Y1202610D01*
G01X0441360Y1212610D02*
G01X0441360Y1202610D01*
G01X0446360Y1217610D02*
G01X0441360Y1212610D01*
G01X0446360Y1217610D02*
G01X0461360Y1217610D01*
G01X0466360Y1212610D02*
G01X0461360Y1217610D01*
G01X0409360Y1177610D02*
G01X0429360Y1177610D01*
G01X0419360Y1217610D02*
G01X0419360Y1177610D01*
G01X0382360Y1195610D02*
G01X0397360Y1195610D01*
G01X0377360Y1217610D02*
G01X0397360Y1217610D01*
G01X0397360Y1217610D02*
G01X0397360Y1177610D01*
G01X0377360Y1177610D02*
G01X0397360Y1177610D01*
G01X0360360Y1217610D02*
G01X0360360Y1177610D01*
G01X0345360Y1177610D02*
G01X0365360Y1177610D01*
G01X0345360Y1177610D02*
G01X0340360Y1182610D01*
G01X0340360Y1192610D02*
G01X0340360Y1182610D01*
G01X0345360Y1197610D02*
G01X0340360Y1192610D01*
G01X0345360Y1197610D02*
G01X0360360Y1197610D01*
G01X1010000Y1005000D02*
G01X1010000Y0965000D01*
G01X1005000Y1005000D02*
G01X1025000Y1005000D01*
G01X1025000Y1005000D02*
G01X1030000Y1000000D01*
G01X1030000Y1000000D02*
G01X1030000Y0990000D01*
G01X1025000Y0985000D02*
G01X1030000Y0990000D01*
G01X1010000Y0985000D02*
G01X1025000Y0985000D01*
G01X1062000Y1005000D02*
G01X1067000Y1000000D01*
G01X1047000Y1005000D02*
G01X1062000Y1005000D01*
G01X1042000Y1000000D02*
G01X1047000Y1005000D01*
G01X1042000Y1000000D02*
G01X1042000Y0970000D01*
G01X1042000Y0970000D02*
G01X1047000Y0965000D01*
G01X1047000Y0965000D02*
G01X1062000Y0965000D01*
G01X1062000Y0965000D02*
G01X1067000Y0970000D01*
G01X1067000Y0980000D02*
G01X1067000Y0970000D01*
G01X1062000Y0985000D02*
G01X1067000Y0980000D01*
G01X1052000Y0985000D02*
G01X1062000Y0985000D01*
G01X1079000Y1005000D02*
G01X1079000Y0965000D01*
G01X1079000Y1005000D02*
G01X1104000Y0965000D01*
G01X1104000Y1005000D02*
G01X1104000Y0965000D01*
G01X1121000Y1005000D02*
G01X1121000Y0965000D01*
G01X1134000Y1005000D02*
G01X1141000Y0998000D01*
G01X1141000Y0998000D02*
G01X1141000Y0972000D01*
G01X1134000Y0965000D02*
G01X1141000Y0972000D01*
G01X1116000Y0965000D02*
G01X1134000Y0965000D01*
G01X1116000Y1005000D02*
G01X1134000Y1005000D01*
G01X0165000Y1005000D02*
G01X0175000Y0965000D01*
G01X0175000Y0965000D02*
G01X0185000Y1005000D01*
G01X0217000Y1005000D02*
G01X0222000Y1000000D01*
G01X0202000Y1005000D02*
G01X0217000Y1005000D01*
G01X0197000Y1000000D02*
G01X0202000Y1005000D01*
G01X0197000Y1000000D02*
G01X0197000Y0990000D01*
G01X0197000Y0990000D02*
G01X0202000Y0985000D01*
G01X0202000Y0985000D02*
G01X0217000Y0985000D01*
G01X0217000Y0985000D02*
G01X0222000Y0980000D01*
G01X0222000Y0980000D02*
G01X0222000Y0970000D01*
G01X0217000Y0965000D02*
G01X0222000Y0970000D01*
G01X0202000Y0965000D02*
G01X0217000Y0965000D01*
G01X0197000Y0970000D02*
G01X0202000Y0965000D01*
G01X0234000Y1005000D02*
G01X0244000Y0985000D01*
G01X0244000Y0985000D02*
G01X0254000Y1005000D01*
G01X0244000Y0985000D02*
G01X0244000Y0965000D01*
G01X0286000Y1005000D02*
G01X0291000Y1000000D01*
G01X0271000Y1005000D02*
G01X0286000Y1005000D01*
G01X0266000Y1000000D02*
G01X0271000Y1005000D01*
G01X0266000Y1000000D02*
G01X0266000Y0990000D01*
G01X0266000Y0990000D02*
G01X0271000Y0985000D01*
G01X0271000Y0985000D02*
G01X0286000Y0985000D01*
G01X0286000Y0985000D02*
G01X0291000Y0980000D01*
G01X0291000Y0980000D02*
G01X0291000Y0970000D01*
G01X0286000Y0965000D02*
G01X0291000Y0970000D01*
G01X0271000Y0965000D02*
G01X0286000Y0965000D01*
G01X0266000Y0970000D02*
G01X0271000Y0965000D01*
G01X0000000Y0000000D02*
G54D10*
G01X1015310Y1265000D02*
G01X0285000Y1265000D01*
G01X1015000Y1265000D02*
G01X1015000Y1205000D01*
G01X1015000Y1205000D02*
G01X1180000Y1205000D01*
G01X1015000Y0405000D02*
G01X1020000Y0400000D01*
G01X1020000Y0400000D02*
G01X1180000Y0400000D01*
G01X1180000Y0400000D02*
G01X1180000Y0135000D01*
G01X1015000Y0405000D02*
G01X1015000Y0940000D01*
G01X1180000Y1205000D02*
G01X1180000Y0940000D01*
G01X1180000Y0940000D02*
G01X1015000Y0940000D01*
G01X1180000Y0135000D02*
G01X0990000Y0135000D01*
G01X0280000Y0400000D02*
G01X0285000Y0405000D01*
G01X0280000Y0400000D02*
G01X0110000Y0400000D01*
G01X0110000Y0400000D02*
G01X0110000Y0135000D01*
G01X0110000Y0135000D02*
G01X0300000Y0135000D01*
G01X0300000Y0135000D02*
G01X0300000Y0280000D01*
G01X0990000Y0135000D02*
G01X0990000Y0280000D01*
G01X0990000Y0280000D02*
G01X0300000Y0280000D01*
G01X0285000Y1265000D02*
G01X0285000Y1205000D01*
G01X0110000Y1205000D02*
G01X0110000Y0940000D01*
G01X0110000Y0940000D02*
G01X0285000Y0940000D01*
G01X0285000Y0940000D02*
G01X0285000Y0405000D01*
G01X0110000Y1205000D02*
G01X0285000Y1205000D01*
G01X0000000Y0000000D02*
G54D15*
G01X1080000Y1070000D03*
G54D16*
G01X1044570Y1144800D03*
G54D17*
G01X1103620Y1140870D03*
G54D18*
G01X1139060Y1109370D03*
G54D16*
G01X0897130Y1070040D03*
G54D19*
G01X0905000Y0935000D03*
G54D15*
G01X1080000Y0200000D03*
G54D16*
G01X1044570Y0274800D03*
G54D17*
G01X1103620Y0270870D03*
G54D18*
G01X1139060Y0239370D03*
G54D17*
G01X0743620Y0495870D03*
G54D18*
G01X0779060Y0464370D03*
G54D16*
G01X0844570Y0474800D03*
G54D17*
G01X0903620Y0470870D03*
G54D20*
G01X0820350Y0710200D03*
G01X0920750Y0710200D03*
G54D15*
G01X0200000Y1070000D03*
G54D16*
G01X0164570Y1144800D03*
G54D17*
G01X0223620Y1140870D03*
G54D18*
G01X0259060Y1109370D03*
G54D16*
G01X0393190Y1070040D03*
G54D19*
G01X0385310Y0935000D03*
G54D20*
G01X0584920Y0970430D03*
G01X0504610Y0970430D03*
G01X0544760Y0899570D03*
G01X0665240Y0970430D03*
G01X0745550Y0970430D03*
G01X0625080Y0899570D03*
G01X0705390Y0899570D03*
G01X0785710Y0899570D03*
G54D15*
G01X0200000Y0200000D03*
G54D16*
G01X0164570Y0274800D03*
G54D17*
G01X0223620Y0270870D03*
G54D18*
G01X0259060Y0239370D03*
G54D15*
G01X0720000Y0425000D03*
G01X0880000Y0400000D03*
G54D18*
G01X0939060Y0439370D03*
G54D15*
G01X0560000Y0425000D03*
G01X0400000Y0400000D03*
G54D18*
G01X0459060Y0439370D03*
G54D16*
G01X0684570Y0499800D03*
G01X0524570Y0499800D03*
G54D17*
G01X0583620Y0495870D03*
G54D18*
G01X0619060Y0464370D03*
G54D16*
G01X0364570Y0474800D03*
G54D17*
G01X0423620Y0470870D03*
G54D20*
G01X0369570Y0710200D03*
G01X0469960Y0710200D03*
G01X0000000Y0000000D02*
G54D14*
G01X0550000Y1045000D03*
G01X0625000Y1095000D03*
G54D28*
G01X0360000Y1015000D03*
G01X0425000Y1015000D03*
G01X0545000Y0665000D03*
G01X0575000Y0835000D03*
G01X0620000Y1005000D03*
G01X0620000Y0800000D03*
G01X0620000Y0660000D03*
G01X0675000Y0820000D03*
G01X0675000Y0660000D03*
G01X0735000Y0790000D03*
G01X0735000Y0665000D03*
G01X0795000Y0830000D03*
G01X0930000Y1010000D03*
G54D24*
G01X0259100Y1109400D03*
G01X0259100Y0239400D03*
G01X0459100Y0439400D03*
G01X0619100Y0464400D03*
G01X0779100Y0464400D03*
G01X0939100Y0439400D03*
G01X1139100Y1109400D03*
G01X1139100Y0239400D03*
G54D23*
G01X0223600Y1140900D03*
G01X0223600Y0270900D03*
G01X0423600Y0470900D03*
G01X0583600Y0495900D03*
G01X0743600Y0495900D03*
G01X0903600Y0470900D03*
G01X1103600Y1140900D03*
G01X1103600Y0270900D03*
G54D27*
G01X0369600Y0710200D03*
G01X0470000Y0710200D03*
G01X0504600Y0970400D03*
G01X0544800Y0899600D03*
G01X0584900Y0970400D03*
G01X0625100Y0899600D03*
G01X0665200Y0970400D03*
G01X0705400Y0899600D03*
G01X0745600Y0970400D03*
G01X0785700Y0899600D03*
G01X0820400Y0710200D03*
G01X0920700Y0710200D03*
G54D22*
G01X0164600Y1144800D03*
G01X0164600Y0274800D03*
G01X0364600Y0474800D03*
G01X0524600Y0499800D03*
G01X0684600Y0499800D03*
G01X0844600Y0474800D03*
G01X1044600Y1144800D03*
G01X1044600Y0274800D03*
G54D25*
G01X0393200Y1070000D03*
G01X0897100Y1070000D03*
G54D21*
G01X0200000Y1070000D03*
G01X0200000Y0200000D03*
G01X0400000Y0400000D03*
G01X0560000Y0425000D03*
G01X0720000Y0425000D03*
G01X0880000Y0400000D03*
G01X1080000Y1070000D03*
G01X1080000Y0200000D03*
G54D26*
G01X0385300Y0935000D03*
G01X0905000Y0935000D03*
M02*
