<?xml version="1.0" encoding="UTF-8"?>
<svg xmlns="http://www.w3.org/2000/svg" xmlns:xlink="http://www.w3.org/1999/xlink" width="54pt" height="74pt" viewBox="0 0 54 74" version="1.1">
<g id="surface1">
<path style="fill:none;stroke-width:0.006;stroke-linecap:round;stroke-linejoin:miter;stroke:rgb(45.882353%,94.901961%,40.392157%);stroke-opacity:1;stroke-miterlimit:10;" d="M 0.109984 6.929975 L 0.109984 5.949994 " transform="matrix(72,0,0,-72,-6.3954,500.40741)"/>
<path style="fill:none;stroke-width:0.006;stroke-linecap:round;stroke-linejoin:miter;stroke:rgb(45.882353%,94.901961%,40.392157%);stroke-opacity:1;stroke-miterlimit:10;" d="M 0.109984 5.949994 L 0.829982 5.949994 " transform="matrix(72,0,0,-72,-6.3954,500.40741)"/>
<path style="fill:none;stroke-width:0.006;stroke-linecap:round;stroke-linejoin:miter;stroke:rgb(45.882353%,94.901961%,40.392157%);stroke-opacity:1;stroke-miterlimit:10;" d="M 0.829982 5.949994 L 0.829982 6.929975 " transform="matrix(72,0,0,-72,-6.3954,500.40741)"/>
<path style="fill:none;stroke-width:0.006;stroke-linecap:round;stroke-linejoin:miter;stroke:rgb(45.882353%,94.901961%,40.392157%);stroke-opacity:1;stroke-miterlimit:10;" d="M 0.829982 6.929975 L 0.109984 6.929975 " transform="matrix(72,0,0,-72,-6.3954,500.40741)"/>
<path style=" stroke:none;fill-rule:evenodd;fill:rgb(75.686275%,0%,87.843137%);fill-opacity:1;" d="M 20.65625 56.542969 C 20.65625 53.042969 15.40625 53.042969 15.40625 56.542969 C 15.40625 60.039062 20.65625 60.039062 20.65625 56.542969 "/>
<path style=" stroke:none;fill-rule:evenodd;fill:rgb(75.686275%,0%,87.843137%);fill-opacity:1;" d="M 11.195312 15.484375 C 11.195312 11.984375 5.945312 11.984375 5.945312 15.484375 C 5.945312 18.984375 11.195312 18.984375 11.195312 15.484375 "/>
<path style=" stroke:none;fill-rule:evenodd;fill:rgb(75.686275%,0%,87.843137%);fill-opacity:1;" d="M 12.1875 25.207031 C 12.1875 19.628906 3.820312 19.628906 3.820312 25.207031 C 3.820312 30.785156 12.1875 30.785156 12.1875 25.207031 "/>
<path style=" stroke:none;fill-rule:evenodd;fill:rgb(75.686275%,0%,87.843137%);fill-opacity:1;" d="M 18.652344 22.65625 C 18.652344 19.910156 14.535156 19.910156 14.535156 22.65625 C 14.535156 25.402344 18.652344 25.402344 18.652344 22.65625 "/>
<path style=" stroke:none;fill-rule:evenodd;fill:rgb(75.686275%,0%,87.843137%);fill-opacity:1;" d="M 8.929688 41.394531 C 8.929688 38.648438 4.8125 38.648438 4.8125 41.394531 C 4.8125 44.136719 8.929688 44.136719 8.929688 41.394531 "/>
<path style=" stroke:none;fill-rule:evenodd;fill:rgb(75.686275%,0%,87.843137%);fill-opacity:1;" d="M 16.160156 41.394531 C 16.160156 38.648438 12.039062 38.648438 12.039062 41.394531 C 12.039062 44.136719 16.160156 44.136719 16.160156 41.394531 "/>
<path style=" stroke:none;fill-rule:evenodd;fill:rgb(75.686275%,0%,87.843137%);fill-opacity:1;" d="M 41.386719 41.394531 C 41.386719 38.648438 37.269531 38.648438 37.269531 41.394531 C 37.269531 44.136719 41.386719 44.136719 41.386719 41.394531 "/>
<path style=" stroke:none;fill-rule:evenodd;fill:rgb(75.686275%,0%,87.843137%);fill-opacity:1;" d="M 48.613281 41.394531 C 48.613281 38.648438 44.496094 38.648438 44.496094 41.394531 C 44.496094 44.136719 48.613281 44.136719 48.613281 41.394531 "/>
<path style=" stroke:none;fill-rule:evenodd;fill:rgb(75.686275%,0%,87.843137%);fill-opacity:1;" d="M 47.480469 15.484375 C 47.480469 11.984375 42.230469 11.984375 42.230469 15.484375 C 42.230469 18.984375 47.480469 18.984375 47.480469 15.484375 "/>
<path style=" stroke:none;fill-rule:evenodd;fill:rgb(75.686275%,0%,87.843137%);fill-opacity:1;" d="M 49.605469 25.207031 C 49.605469 19.628906 41.238281 19.628906 41.238281 25.207031 C 41.238281 30.785156 49.605469 30.785156 49.605469 25.207031 "/>
<path style=" stroke:none;fill-rule:evenodd;fill:rgb(75.686275%,0%,87.843137%);fill-opacity:1;" d="M 30.21875 22.65625 C 30.21875 19.910156 26.101562 19.910156 26.101562 22.65625 C 26.101562 25.402344 30.21875 25.402344 30.21875 22.65625 "/>
<path style=" stroke:none;fill-rule:evenodd;fill:rgb(75.686275%,0%,87.843137%);fill-opacity:1;" d="M 36 22.65625 C 36 19.910156 31.882812 19.910156 31.882812 22.65625 C 31.882812 25.402344 36 25.402344 36 22.65625 "/>
<path style=" stroke:none;fill-rule:evenodd;fill:rgb(75.686275%,0%,87.843137%);fill-opacity:1;" d="M 24.4375 22.65625 C 24.4375 19.910156 20.316406 19.910156 20.316406 22.65625 C 20.316406 25.402344 24.4375 25.402344 24.4375 22.65625 "/>
<path style=" stroke:none;fill-rule:evenodd;fill:rgb(75.686275%,0%,87.843137%);fill-opacity:1;" d="M 27.328125 27.757812 C 27.328125 25.011719 23.207031 25.011719 23.207031 27.757812 C 23.207031 30.503906 27.328125 30.503906 27.328125 27.757812 "/>
<path style=" stroke:none;fill-rule:evenodd;fill:rgb(75.686275%,0%,87.843137%);fill-opacity:1;" d="M 21.542969 27.757812 C 21.542969 25.011719 17.425781 25.011719 17.425781 27.757812 C 17.425781 30.503906 21.542969 30.503906 21.542969 27.757812 "/>
<path style=" stroke:none;fill-rule:evenodd;fill:rgb(75.686275%,0%,87.843137%);fill-opacity:1;" d="M 33.109375 27.757812 C 33.109375 25.011719 28.992188 25.011719 28.992188 27.757812 C 28.992188 30.503906 33.109375 30.503906 33.109375 27.757812 "/>
<path style=" stroke:none;fill-rule:evenodd;fill:rgb(75.686275%,0%,87.843137%);fill-opacity:1;" d="M 38.890625 27.757812 C 38.890625 25.011719 34.773438 25.011719 34.773438 27.757812 C 34.773438 30.503906 38.890625 30.503906 38.890625 27.757812 "/>
<path style=" stroke:none;fill-rule:evenodd;fill:rgb(75.686275%,0%,87.843137%);fill-opacity:1;" d="M 47.242188 63.726562 C 47.242188 58.902344 40.003906 58.902344 40.003906 63.726562 C 40.003906 68.550781 47.242188 68.550781 47.242188 63.726562 "/>
<path style=" stroke:none;fill-rule:evenodd;fill:rgb(75.686275%,0%,87.843137%);fill-opacity:1;" d="M 43.695312 58.34375 C 43.695312 54.84375 38.445312 54.84375 38.445312 58.34375 C 38.445312 61.839844 43.695312 61.839844 43.695312 58.34375 "/>
<path style=" stroke:none;fill-rule:evenodd;fill:rgb(75.686275%,0%,87.843137%);fill-opacity:1;" d="M 47.238281 58.625 C 47.238281 56.070312 43.40625 56.070312 43.40625 58.625 C 43.40625 61.179688 47.238281 61.179688 47.238281 58.625 "/>
<path style=" stroke:none;fill-rule:evenodd;fill:rgb(75.686275%,0%,87.843137%);fill-opacity:1;" d="M 35.71875 61.925781 C 35.71875 57.101562 28.484375 57.101562 28.484375 61.925781 C 28.484375 66.75 35.71875 66.75 35.71875 61.925781 "/>
<path style=" stroke:none;fill-rule:evenodd;fill:rgb(75.686275%,0%,87.843137%);fill-opacity:1;" d="M 32.175781 56.542969 C 32.175781 53.042969 26.925781 53.042969 26.925781 56.542969 C 26.925781 60.039062 32.175781 60.039062 32.175781 56.542969 "/>
<path style=" stroke:none;fill-rule:evenodd;fill:rgb(75.686275%,0%,87.843137%);fill-opacity:1;" d="M 35.71875 56.824219 C 35.71875 54.269531 31.886719 54.269531 31.886719 56.824219 C 31.886719 59.378906 35.71875 59.378906 35.71875 56.824219 "/>
<path style=" stroke:none;fill-rule:evenodd;fill:rgb(75.686275%,0%,87.843137%);fill-opacity:1;" d="M 37.988281 59.09375 C 37.988281 56.914062 34.71875 56.914062 34.71875 59.09375 C 34.71875 61.273438 37.988281 61.273438 37.988281 59.09375 "/>
<path style=" stroke:none;fill-rule:evenodd;fill:rgb(75.686275%,0%,87.843137%);fill-opacity:1;" d="M 49.507812 60.894531 C 49.507812 58.714844 46.238281 58.714844 46.238281 60.894531 C 46.238281 63.070312 49.507812 63.070312 49.507812 60.894531 "/>
<path style=" stroke:none;fill-rule:evenodd;fill:rgb(75.686275%,0%,87.843137%);fill-opacity:1;" d="M 24.199219 61.925781 C 24.199219 57.101562 16.964844 57.101562 16.964844 61.925781 C 16.964844 66.75 24.199219 66.75 24.199219 61.925781 "/>
<path style=" stroke:none;fill-rule:evenodd;fill:rgb(75.686275%,0%,87.843137%);fill-opacity:1;" d="M 12.679688 63.726562 C 12.679688 58.902344 5.445312 58.902344 5.445312 63.726562 C 5.445312 68.550781 12.679688 68.550781 12.679688 63.726562 "/>
<path style=" stroke:none;fill-rule:evenodd;fill:rgb(75.686275%,0%,87.843137%);fill-opacity:1;" d="M 9.136719 58.34375 C 9.136719 54.84375 3.886719 54.84375 3.886719 58.34375 C 3.886719 61.839844 9.136719 61.839844 9.136719 58.34375 "/>
<path style=" stroke:none;fill-rule:evenodd;fill:rgb(75.686275%,0%,87.843137%);fill-opacity:1;" d="M 12.679688 58.625 C 12.679688 56.070312 8.847656 56.070312 8.847656 58.625 C 8.847656 61.179688 12.679688 61.179688 12.679688 58.625 "/>
<path style=" stroke:none;fill-rule:evenodd;fill:rgb(75.686275%,0%,87.843137%);fill-opacity:1;" d="M 14.949219 60.894531 C 14.949219 58.714844 11.679688 58.714844 11.679688 60.894531 C 11.679688 63.070312 14.949219 63.070312 14.949219 60.894531 "/>
<path style=" stroke:none;fill-rule:evenodd;fill:rgb(75.686275%,0%,87.843137%);fill-opacity:1;" d="M 24.199219 56.824219 C 24.199219 54.269531 20.367188 54.269531 20.367188 56.824219 C 20.367188 59.378906 24.199219 59.378906 24.199219 56.824219 "/>
<path style=" stroke:none;fill-rule:evenodd;fill:rgb(75.686275%,0%,87.843137%);fill-opacity:1;" d="M 26.46875 59.09375 C 26.46875 56.914062 23.199219 56.914062 23.199219 59.09375 C 23.199219 61.273438 26.46875 61.273438 26.46875 59.09375 "/>
<path style=" stroke:none;fill-rule:evenodd;fill:rgb(75.686275%,0%,87.843137%);fill-opacity:1;" d="M 22.21875 9.546875 L 18.101562 9.546875 L 18.101562 14.230469 L 22.21875 14.230469 Z M 22.21875 9.546875 "/>
<path style=" stroke:none;fill-rule:evenodd;fill:rgb(75.686275%,0%,87.843137%);fill-opacity:1;" d="M 27.320312 9.546875 L 23.203125 9.546875 L 23.203125 14.230469 L 27.320312 14.230469 Z M 27.320312 9.546875 "/>
<path style=" stroke:none;fill-rule:evenodd;fill:rgb(100%,49.803922%,45.098039%);fill-opacity:1;" d="M 20.222656 17.289062 C 20.222656 16.808594 19.503906 16.808594 19.503906 17.289062 C 19.503906 17.765625 20.222656 17.765625 20.222656 17.289062 "/>
<path style=" stroke:none;fill-rule:evenodd;fill:rgb(100%,49.803922%,45.098039%);fill-opacity:1;" d="M 25.261719 20.167969 C 25.261719 19.6875 24.542969 19.6875 24.542969 20.167969 C 24.542969 20.648438 25.261719 20.648438 25.261719 20.167969 "/>
<path style=" stroke:none;fill-rule:evenodd;fill:rgb(100%,49.803922%,45.098039%);fill-opacity:1;" d="M 25.621094 13.6875 C 25.621094 13.207031 24.902344 13.207031 24.902344 13.6875 C 24.902344 14.167969 25.621094 14.167969 25.621094 13.6875 "/>
<path style=" stroke:none;fill-rule:evenodd;fill:rgb(100%,49.803922%,45.098039%);fill-opacity:1;" d="M 14.03125 60.890625 C 14.03125 59.929688 12.589844 59.929688 12.589844 60.890625 C 12.589844 61.851562 14.03125 61.851562 14.03125 60.890625 "/>
<path style=" stroke:none;fill-rule:evenodd;fill:rgb(100%,49.803922%,45.098039%);fill-opacity:1;" d="M 25.550781 59.089844 C 25.550781 58.128906 24.109375 58.128906 24.109375 59.089844 C 24.109375 60.050781 25.550781 60.050781 25.550781 59.089844 "/>
<path style=" stroke:none;fill-rule:evenodd;fill:rgb(100%,49.803922%,45.098039%);fill-opacity:1;" d="M 37.070312 59.089844 C 37.070312 58.128906 35.632812 58.128906 35.632812 59.089844 C 35.632812 60.050781 37.070312 60.050781 37.070312 59.089844 "/>
<path style=" stroke:none;fill-rule:evenodd;fill:rgb(100%,49.803922%,45.098039%);fill-opacity:1;" d="M 48.589844 60.890625 C 48.589844 59.929688 47.152344 59.929688 47.152344 60.890625 C 47.152344 61.851562 48.589844 61.851562 48.589844 60.890625 "/>
<path style=" stroke:none;fill-rule:evenodd;fill:rgb(100%,49.803922%,45.098039%);fill-opacity:1;" d="M 11.84375 58.621094 C 11.84375 57.183594 9.683594 57.183594 9.683594 58.621094 C 9.683594 60.0625 11.84375 60.0625 11.84375 58.621094 "/>
<path style=" stroke:none;fill-rule:evenodd;fill:rgb(100%,49.803922%,45.098039%);fill-opacity:1;" d="M 23.363281 56.824219 C 23.363281 55.382812 21.203125 55.382812 21.203125 56.824219 C 21.203125 58.261719 23.363281 58.261719 23.363281 56.824219 "/>
<path style=" stroke:none;fill-rule:evenodd;fill:rgb(100%,49.803922%,45.098039%);fill-opacity:1;" d="M 34.882812 56.824219 C 34.882812 55.382812 32.722656 55.382812 32.722656 56.824219 C 32.722656 58.261719 34.882812 58.261719 34.882812 56.824219 "/>
<path style=" stroke:none;fill-rule:evenodd;fill:rgb(100%,49.803922%,45.098039%);fill-opacity:1;" d="M 46.402344 58.621094 C 46.402344 57.183594 44.242188 57.183594 44.242188 58.621094 C 44.242188 60.0625 46.402344 60.0625 46.402344 58.621094 "/>
<path style=" stroke:none;fill-rule:evenodd;fill:rgb(100%,49.803922%,45.098039%);fill-opacity:1;" d="M 8.132812 41.394531 C 8.132812 39.714844 5.613281 39.714844 5.613281 41.394531 C 5.613281 43.074219 8.132812 43.074219 8.132812 41.394531 "/>
<path style=" stroke:none;fill-rule:evenodd;fill:rgb(100%,49.803922%,45.098039%);fill-opacity:1;" d="M 15.355469 41.394531 C 15.355469 39.714844 12.835938 39.714844 12.835938 41.394531 C 12.835938 43.074219 15.355469 43.074219 15.355469 41.394531 "/>
<path style=" stroke:none;fill-rule:evenodd;fill:rgb(100%,49.803922%,45.098039%);fill-opacity:1;" d="M 17.855469 22.660156 C 17.855469 20.980469 15.335938 20.980469 15.335938 22.660156 C 15.335938 24.339844 17.855469 24.339844 17.855469 22.660156 "/>
<path style=" stroke:none;fill-rule:evenodd;fill:rgb(100%,49.803922%,45.098039%);fill-opacity:1;" d="M 20.742188 27.757812 C 20.742188 26.078125 18.222656 26.078125 18.222656 27.757812 C 18.222656 29.4375 20.742188 29.4375 20.742188 27.757812 "/>
<path style=" stroke:none;fill-rule:evenodd;fill:rgb(100%,49.803922%,45.098039%);fill-opacity:1;" d="M 23.636719 22.660156 C 23.636719 20.980469 21.117188 20.980469 21.117188 22.660156 C 21.117188 24.339844 23.636719 24.339844 23.636719 22.660156 "/>
<path style=" stroke:none;fill-rule:evenodd;fill:rgb(100%,49.803922%,45.098039%);fill-opacity:1;" d="M 26.53125 27.757812 C 26.53125 26.078125 24.011719 26.078125 24.011719 27.757812 C 24.011719 29.4375 26.53125 29.4375 26.53125 27.757812 "/>
<path style=" stroke:none;fill-rule:evenodd;fill:rgb(100%,49.803922%,45.098039%);fill-opacity:1;" d="M 29.417969 22.660156 C 29.417969 20.980469 26.898438 20.980469 26.898438 22.660156 C 26.898438 24.339844 29.417969 24.339844 29.417969 22.660156 "/>
<path style=" stroke:none;fill-rule:evenodd;fill:rgb(100%,49.803922%,45.098039%);fill-opacity:1;" d="M 32.3125 27.757812 C 32.3125 26.078125 29.792969 26.078125 29.792969 27.757812 C 29.792969 29.4375 32.3125 29.4375 32.3125 27.757812 "/>
<path style=" stroke:none;fill-rule:evenodd;fill:rgb(100%,49.803922%,45.098039%);fill-opacity:1;" d="M 35.199219 22.660156 C 35.199219 20.980469 32.679688 20.980469 32.679688 22.660156 C 32.679688 24.339844 35.199219 24.339844 35.199219 22.660156 "/>
<path style=" stroke:none;fill-rule:evenodd;fill:rgb(100%,49.803922%,45.098039%);fill-opacity:1;" d="M 38.09375 27.757812 C 38.09375 26.078125 35.574219 26.078125 35.574219 27.757812 C 35.574219 29.4375 38.09375 29.4375 38.09375 27.757812 "/>
<path style=" stroke:none;fill-rule:evenodd;fill:rgb(100%,49.803922%,45.098039%);fill-opacity:1;" d="M 40.585938 41.394531 C 40.585938 39.714844 38.066406 39.714844 38.066406 41.394531 C 38.066406 43.074219 40.585938 43.074219 40.585938 41.394531 "/>
<path style=" stroke:none;fill-rule:evenodd;fill:rgb(100%,49.803922%,45.098039%);fill-opacity:1;" d="M 47.8125 41.394531 C 47.8125 39.714844 45.292969 39.714844 45.292969 41.394531 C 45.292969 43.074219 47.8125 43.074219 47.8125 41.394531 "/>
<path style=" stroke:none;fill-rule:evenodd;fill:rgb(100%,49.803922%,45.098039%);fill-opacity:1;" d="M 8.277344 58.34375 C 8.277344 55.988281 4.75 55.988281 4.75 58.34375 C 4.75 60.695312 8.277344 60.695312 8.277344 58.34375 "/>
<path style=" stroke:none;fill-rule:evenodd;fill:rgb(100%,49.803922%,45.098039%);fill-opacity:1;" d="M 19.796875 56.542969 C 19.796875 54.191406 16.269531 54.191406 16.269531 56.542969 C 16.269531 58.894531 19.796875 58.894531 19.796875 56.542969 "/>
<path style=" stroke:none;fill-rule:evenodd;fill:rgb(100%,49.803922%,45.098039%);fill-opacity:1;" d="M 31.316406 56.542969 C 31.316406 54.191406 27.789062 54.191406 27.789062 56.542969 C 27.789062 58.894531 31.316406 58.894531 31.316406 56.542969 "/>
<path style=" stroke:none;fill-rule:evenodd;fill:rgb(100%,49.803922%,45.098039%);fill-opacity:1;" d="M 42.839844 58.34375 C 42.839844 55.988281 39.308594 55.988281 39.308594 58.34375 C 39.308594 60.695312 42.839844 60.695312 42.839844 58.34375 "/>
<path style=" stroke:none;fill-rule:evenodd;fill:rgb(100%,49.803922%,45.098039%);fill-opacity:1;" d="M 10.410156 15.488281 C 10.410156 13.039062 6.738281 13.039062 6.738281 15.488281 C 6.738281 17.933594 10.410156 17.933594 10.410156 15.488281 "/>
<path style=" stroke:none;fill-rule:evenodd;fill:rgb(100%,49.803922%,45.098039%);fill-opacity:1;" d="M 46.691406 15.488281 C 46.691406 13.039062 43.019531 13.039062 43.019531 15.488281 C 43.019531 17.933594 46.691406 17.933594 46.691406 15.488281 "/>
<path style=" stroke:none;fill-rule:evenodd;fill:rgb(100%,49.803922%,45.098039%);fill-opacity:1;" d="M 11.90625 63.726562 C 11.90625 59.933594 6.21875 59.933594 6.21875 63.726562 C 6.21875 67.519531 11.90625 67.519531 11.90625 63.726562 "/>
<path style=" stroke:none;fill-rule:evenodd;fill:rgb(100%,49.803922%,45.098039%);fill-opacity:1;" d="M 23.425781 61.925781 C 23.425781 58.136719 17.738281 58.136719 17.738281 61.925781 C 17.738281 65.71875 23.425781 65.71875 23.425781 61.925781 "/>
<path style=" stroke:none;fill-rule:evenodd;fill:rgb(100%,49.803922%,45.098039%);fill-opacity:1;" d="M 34.945312 61.925781 C 34.945312 58.136719 29.257812 58.136719 29.257812 61.925781 C 29.257812 65.71875 34.945312 65.71875 34.945312 61.925781 "/>
<path style=" stroke:none;fill-rule:evenodd;fill:rgb(100%,49.803922%,45.098039%);fill-opacity:1;" d="M 46.46875 63.726562 C 46.46875 59.933594 40.777344 59.933594 40.777344 63.726562 C 40.777344 67.519531 46.46875 67.519531 46.46875 63.726562 "/>
<path style=" stroke:none;fill-rule:evenodd;fill:rgb(100%,49.803922%,45.098039%);fill-opacity:1;" d="M 11.386719 25.207031 C 11.386719 20.695312 4.621094 20.695312 4.621094 25.207031 C 4.621094 29.71875 11.386719 29.71875 11.386719 25.207031 "/>
<path style=" stroke:none;fill-rule:evenodd;fill:rgb(100%,49.803922%,45.098039%);fill-opacity:1;" d="M 48.808594 25.207031 C 48.808594 20.695312 42.039062 20.695312 42.039062 25.207031 C 42.039062 29.71875 48.808594 29.71875 48.808594 25.207031 "/>
<path style="fill:none;stroke-width:0.008;stroke-linecap:round;stroke-linejoin:miter;stroke:rgb(45.098039%,45.098039%,87.058824%);stroke-opacity:1;stroke-miterlimit:10;" d="M 0.400348 6.757449 L 0.408215 6.757449 " transform="matrix(72,0,0,-72,-6.3954,500.40741)"/>
<path style="fill:none;stroke-width:0.008;stroke-linecap:round;stroke-linejoin:miter;stroke:rgb(45.098039%,45.098039%,87.058824%);stroke-opacity:1;stroke-miterlimit:10;" d="M 0.400348 6.81257 L 0.408215 6.81257 " transform="matrix(72,0,0,-72,-6.3954,500.40741)"/>
<path style="fill:none;stroke-width:0.004;stroke-linecap:round;stroke-linejoin:miter;stroke:rgb(45.098039%,45.098039%,87.058824%);stroke-opacity:1;stroke-miterlimit:10;" d="M 0.372733 6.763525 L 0.392753 6.763525 " transform="matrix(72,0,0,-72,-6.3954,500.40741)"/>
<path style="fill:none;stroke-width:0.004;stroke-linecap:round;stroke-linejoin:miter;stroke:rgb(45.098039%,45.098039%,87.058824%);stroke-opacity:1;stroke-miterlimit:10;" d="M 0.392753 6.763525 L 0.397744 6.768517 " transform="matrix(72,0,0,-72,-6.3954,500.40741)"/>
<path style="fill:none;stroke-width:0.004;stroke-linecap:round;stroke-linejoin:miter;stroke:rgb(45.098039%,45.098039%,87.058824%);stroke-opacity:1;stroke-miterlimit:10;" d="M 0.397744 6.768517 L 0.397744 6.778499 " transform="matrix(72,0,0,-72,-6.3954,500.40741)"/>
<path style="fill:none;stroke-width:0.004;stroke-linecap:round;stroke-linejoin:miter;stroke:rgb(45.098039%,45.098039%,87.058824%);stroke-opacity:1;stroke-miterlimit:10;" d="M 0.392753 6.78349 L 0.397744 6.778499 " transform="matrix(72,0,0,-72,-6.3954,500.40741)"/>
<path style="fill:none;stroke-width:0.004;stroke-linecap:round;stroke-linejoin:miter;stroke:rgb(45.098039%,45.098039%,87.058824%);stroke-opacity:1;stroke-miterlimit:10;" d="M 0.377779 6.78349 L 0.392753 6.78349 " transform="matrix(72,0,0,-72,-6.3954,500.40741)"/>
<path style="fill:none;stroke-width:0.004;stroke-linecap:round;stroke-linejoin:miter;stroke:rgb(45.098039%,45.098039%,87.058824%);stroke-opacity:1;stroke-miterlimit:10;" d="M 0.377779 6.763525 L 0.377779 6.80351 " transform="matrix(72,0,0,-72,-6.3954,500.40741)"/>
<path style="fill:none;stroke-width:0.004;stroke-linecap:round;stroke-linejoin:miter;stroke:rgb(45.098039%,45.098039%,87.058824%);stroke-opacity:1;stroke-miterlimit:10;" d="M 0.385754 6.78349 L 0.397744 6.80351 " transform="matrix(72,0,0,-72,-6.3954,500.40741)"/>
<path style="fill:none;stroke-width:0.004;stroke-linecap:round;stroke-linejoin:miter;stroke:rgb(45.098039%,45.098039%,87.058824%);stroke-opacity:1;stroke-miterlimit:10;" d="M 0.409734 6.7715 L 0.417764 6.763525 " transform="matrix(72,0,0,-72,-6.3954,500.40741)"/>
<path style="fill:none;stroke-width:0.004;stroke-linecap:round;stroke-linejoin:miter;stroke:rgb(45.098039%,45.098039%,87.058824%);stroke-opacity:1;stroke-miterlimit:10;" d="M 0.417764 6.763525 L 0.417764 6.80351 " transform="matrix(72,0,0,-72,-6.3954,500.40741)"/>
<path style="fill:none;stroke-width:0.004;stroke-linecap:round;stroke-linejoin:miter;stroke:rgb(45.098039%,45.098039%,87.058824%);stroke-opacity:1;stroke-miterlimit:10;" d="M 0.409734 6.80351 L 0.424763 6.80351 " transform="matrix(72,0,0,-72,-6.3954,500.40741)"/>
</g>
</svg>
