G04 This is an RS-274x file exported by *
G04 gerbv version 2.7.0 *
G04 More information is available about gerbv at *
G04 http://gerbv.geda-project.org/ *
G04 --End of header info--*
%MOIN*%
%FSLAX36Y36*%
%IPPOS*%
G04 --Define apertures--*
%ADD10C,0.0080*%
%ADD11C,0.0060*%
%ADD12C,0.0040*%
%ADD13C,0.0729*%
%ADD14C,0.1162*%
%ADD15C,0.0572*%
%ADD16C,0.1005*%
%ADD17C,0.0532*%
%ADD18C,0.0454*%
%ADD19C,0.0001*%
%ADD20C,0.0200*%
%ADD21C,0.0490*%
%ADD22C,0.0510*%
%ADD23C,0.0940*%
%ADD24C,0.0350*%
%ADD25C,0.0790*%
%ADD26C,0.0300*%
%ADD27C,0.0100*%
G04 --Start main section--*
G54D10*
G01X0400330Y1007450D02*
G01X0408190Y1007450D01*
G01X0400330Y1062550D02*
G01X0408190Y1062550D01*
G54D11*
G01X0503000Y0746000D02*
G01X0511000Y0754000D01*
G01X0503000Y0746000D02*
G01X0503000Y0711000D01*
G01X0510000Y0704000D02*
G01X0503000Y0711000D01*
G01X0543000Y0712000D02*
G01X0536000Y0705000D01*
G01X0543000Y0747000D02*
G01X0543000Y0712000D01*
G01X0536000Y0754000D02*
G01X0543000Y0747000D01*
G01X0511000Y0987000D02*
G01X0519000Y0979000D01*
G01X0476000Y0987000D02*
G01X0511000Y0987000D01*
G01X0469000Y0980000D02*
G01X0476000Y0987000D01*
G01X0477000Y0947000D02*
G01X0470000Y0954000D01*
G01X0477000Y0947000D02*
G01X0512000Y0947000D01*
G01X0519000Y0954000D02*
G01X0512000Y0947000D01*
G54D12*
G01X0372760Y1013500D02*
G01X0392760Y1013500D01*
G01X0392760Y1013500D02*
G01X0397760Y1018500D01*
G01X0397760Y1018500D02*
G01X0397760Y1028500D01*
G01X0392760Y1033500D02*
G01X0397760Y1028500D01*
G01X0377760Y1033500D02*
G01X0392760Y1033500D01*
G01X0377760Y1013500D02*
G01X0377760Y1053500D01*
G01X0385760Y1033500D02*
G01X0397760Y1053500D01*
G01X0409760Y1021500D02*
G01X0417760Y1013500D01*
G01X0417760Y1013500D02*
G01X0417760Y1053500D01*
G01X0409760Y1053500D02*
G01X0424760Y1053500D01*
G01X0000000Y0000000D02*
G54D11*
G01X0110000Y1180000D02*
G01X0110000Y0200000D01*
G01X0110000Y0200000D02*
G01X0830000Y0200000D01*
G01X0830000Y0200000D02*
G01X0830000Y1180000D01*
G01X0830000Y1180000D02*
G01X0110000Y1180000D01*
G01X0000000Y0000000D02*
G54D13*
G01X0339250Y0414800D03*
G01X0207870Y0985040D03*
G54D14*
G01X0200000Y0850000D03*
G54D15*
G01X0319290Y0885430D03*
G01X0184250Y0625200D03*
G01X0284650Y0625200D03*
G01X0635040Y0625200D03*
G01X0735430Y0625200D03*
G54D13*
G01X0711810Y0985040D03*
G54D14*
G01X0719690Y0850000D03*
G54D15*
G01X0479920Y0885430D03*
G01X0560240Y0885430D03*
G01X0399610Y0885430D03*
G01X0439760Y0814570D03*
G01X0359450Y0814570D03*
G01X0520080Y0814570D03*
G01X0600390Y0814570D03*
G54D16*
G01X0694690Y0315000D03*
G54D13*
G01X0659250Y0389800D03*
G54D17*
G01X0718310Y0385870D03*
G54D16*
G01X0534690Y0340000D03*
G54D13*
G01X0499250Y0414800D03*
G54D17*
G01X0558310Y0410870D03*
G54D18*
G01X0593740Y0379370D03*
G01X0753740Y0354370D03*
G54D16*
G01X0374690Y0340000D03*
G01X0214690Y0315000D03*
G54D13*
G01X0179250Y0389800D03*
G54D17*
G01X0238310Y0385870D03*
G54D18*
G01X0273740Y0354370D03*
G54D17*
G01X0398310Y0410870D03*
G54D18*
G01X0433740Y0379370D03*
G54D19*
G36*
G01X0397420Y1067520D02*
G01X0340240Y1067520D01*
G01X0340240Y1002480D01*
G01X0397420Y1002480D01*
G01X0397420Y1067520D01*
G37*
G36*
G01X0468280Y1067520D02*
G01X0411100Y1067520D01*
G01X0411100Y1002480D01*
G01X0468280Y1002480D01*
G01X0468280Y1067520D01*
G37*
G54D20*
G01X0479000Y0980000D02*
G01X0509000Y0980000D01*
G01X0509000Y0980000D02*
G01X0516000Y0973000D01*
G54D19*
G36*
G01X0506000Y0983000D02*
G01X0506000Y0963000D01*
G01X0531000Y0963000D01*
G01X0531000Y0983000D01*
G01X0506000Y0983000D01*
G37*
G54D20*
G01X0500000Y0974000D02*
G01X0506000Y0980000D01*
G01X0494000Y0980000D02*
G01X0500000Y0974000D01*
G01X0472000Y0973000D02*
G01X0479000Y0980000D01*
G54D19*
G36*
G01X0447000Y0983000D02*
G01X0447000Y0963000D01*
G01X0482000Y0963000D01*
G01X0482000Y0983000D01*
G01X0447000Y0983000D01*
G37*
G54D20*
G01X0482000Y0980000D02*
G01X0488000Y0974000D01*
G01X0488000Y0974000D02*
G01X0494000Y0980000D01*
G01X0479000Y0954000D02*
G01X0510000Y0954000D01*
G01X0479000Y0954000D02*
G01X0481000Y0954000D01*
G01X0510000Y0954000D02*
G01X0516000Y0960000D01*
G54D19*
G36*
G01X0506000Y0970000D02*
G01X0506000Y0950000D01*
G01X0531000Y0950000D01*
G01X0531000Y0970000D01*
G01X0506000Y0970000D01*
G37*
G54D20*
G01X0473000Y0960000D02*
G01X0479000Y0954000D01*
G54D19*
G36*
G01X0447000Y0970000D02*
G01X0447000Y0950000D01*
G01X0483000Y0950000D01*
G01X0483000Y0970000D01*
G01X0447000Y0970000D01*
G37*
G54D20*
G01X0481000Y0954000D02*
G01X0488000Y0961000D01*
G01X0488000Y0961000D02*
G01X0495000Y0954000D01*
G01X0493000Y0954000D02*
G01X0500000Y0961000D01*
G01X0500000Y0961000D02*
G01X0507000Y0954000D01*
G01X0510000Y0744000D02*
G01X0510000Y0714000D01*
G01X0510000Y0744000D02*
G01X0517000Y0751000D01*
G54D19*
G36*
G01X0527000Y0766000D02*
G01X0507000Y0766000D01*
G01X0507000Y0741000D01*
G01X0527000Y0741000D01*
G01X0527000Y0766000D01*
G37*
G54D20*
G01X0510000Y0741000D02*
G01X0516000Y0735000D01*
G01X0510000Y0729000D02*
G01X0516000Y0735000D01*
G01X0510000Y0714000D02*
G01X0517000Y0707000D01*
G54D19*
G36*
G01X0527000Y0717000D02*
G01X0507000Y0717000D01*
G01X0507000Y0682000D01*
G01X0527000Y0682000D01*
G01X0527000Y0717000D01*
G37*
G54D20*
G01X0510000Y0717000D02*
G01X0516000Y0723000D01*
G01X0510000Y0729000D02*
G01X0516000Y0723000D01*
G01X0536000Y0745000D02*
G01X0536000Y0714000D01*
G01X0536000Y0716000D02*
G01X0536000Y0714000D01*
G01X0530000Y0751000D02*
G01X0536000Y0745000D01*
G54D19*
G36*
G01X0540000Y0766000D02*
G01X0520000Y0766000D01*
G01X0520000Y0741000D01*
G01X0540000Y0741000D01*
G01X0540000Y0766000D01*
G37*
G54D20*
G01X0530000Y0708000D02*
G01X0536000Y0714000D01*
G54D19*
G36*
G01X0540000Y0718000D02*
G01X0520000Y0718000D01*
G01X0520000Y0682000D01*
G01X0540000Y0682000D01*
G01X0540000Y0718000D01*
G37*
G54D20*
G01X0529000Y0723000D02*
G01X0536000Y0716000D01*
G01X0529000Y0723000D02*
G01X0536000Y0730000D01*
G01X0529000Y0735000D02*
G01X0536000Y0728000D01*
G01X0529000Y0735000D02*
G01X0536000Y0742000D01*
G01X0000000Y0000000D02*
G54D27*
G01X0364700Y0960000D03*
G01X0434700Y0920000D03*
G01X0439700Y1010000D03*
G54D20*
G01X0273700Y0354400D03*
G01X0433700Y0379400D03*
G01X0593700Y0379400D03*
G01X0753700Y0354400D03*
G54D26*
G01X0238300Y0385900D03*
G01X0398300Y0410900D03*
G01X0558300Y0410900D03*
G01X0718300Y0385900D03*
G54D24*
G01X0184300Y0625200D03*
G01X0284600Y0625200D03*
G01X0319300Y0885400D03*
G01X0359400Y0814600D03*
G01X0399600Y0885400D03*
G01X0439800Y0814600D03*
G01X0479900Y0885400D03*
G01X0520100Y0814600D03*
G01X0560200Y0885400D03*
G01X0600400Y0814600D03*
G01X0635000Y0625200D03*
G01X0735400Y0625200D03*
G54D21*
G01X0179300Y0389800D03*
G01X0339300Y0414800D03*
G01X0499300Y0414800D03*
G01X0659300Y0389800D03*
G54D22*
G01X0207900Y0985000D03*
G01X0711800Y0985000D03*
G54D25*
G01X0214700Y0315000D03*
G01X0374700Y0340000D03*
G01X0534700Y0340000D03*
G01X0694700Y0315000D03*
G54D23*
G01X0200000Y0850000D03*
G01X0719700Y0850000D03*
M02*
