<?xml version="1.0" encoding="UTF-8"?>
<svg xmlns="http://www.w3.org/2000/svg" xmlns:xlink="http://www.w3.org/1999/xlink" width="81pt" height="85pt" viewBox="0 0 81 85" version="1.1">
<g id="surface1">
<path style="fill:none;stroke-width:0.006;stroke-linecap:round;stroke-linejoin:miter;stroke:rgb(45.882353%,94.901961%,40.392157%);stroke-opacity:1;stroke-miterlimit:10;" d="M 1.015296 1.264979 L 0.28499 1.264979 " transform="matrix(72,0,0,-72,-5.7654,92.4574)"/>
<path style="fill:none;stroke-width:0.006;stroke-linecap:round;stroke-linejoin:miter;stroke:rgb(45.882353%,94.901961%,40.392157%);stroke-opacity:1;stroke-miterlimit:10;" d="M 1.015025 1.264979 L 1.015025 1.204975 " transform="matrix(72,0,0,-72,-5.7654,92.4574)"/>
<path style="fill:none;stroke-width:0.006;stroke-linecap:round;stroke-linejoin:miter;stroke:rgb(45.882353%,94.901961%,40.392157%);stroke-opacity:1;stroke-miterlimit:10;" d="M 1.015025 1.204975 L 1.18001 1.204975 " transform="matrix(72,0,0,-72,-5.7654,92.4574)"/>
<path style="fill:none;stroke-width:0.006;stroke-linecap:round;stroke-linejoin:miter;stroke:rgb(45.882353%,94.901961%,40.392157%);stroke-opacity:1;stroke-miterlimit:10;" d="M 1.015025 0.405007 L 1.020016 0.400016 " transform="matrix(72,0,0,-72,-5.7654,92.4574)"/>
<path style="fill:none;stroke-width:0.006;stroke-linecap:round;stroke-linejoin:miter;stroke:rgb(45.882353%,94.901961%,40.392157%);stroke-opacity:1;stroke-miterlimit:10;" d="M 1.020016 0.400016 L 1.18001 0.400016 " transform="matrix(72,0,0,-72,-5.7654,92.4574)"/>
<path style="fill:none;stroke-width:0.006;stroke-linecap:round;stroke-linejoin:miter;stroke:rgb(45.882353%,94.901961%,40.392157%);stroke-opacity:1;stroke-miterlimit:10;" d="M 1.18001 0.400016 L 1.18001 0.134988 " transform="matrix(72,0,0,-72,-5.7654,92.4574)"/>
<path style="fill:none;stroke-width:0.006;stroke-linecap:round;stroke-linejoin:miter;stroke:rgb(45.882353%,94.901961%,40.392157%);stroke-opacity:1;stroke-miterlimit:10;" d="M 1.015025 0.405007 L 1.015025 0.940001 " transform="matrix(72,0,0,-72,-5.7654,92.4574)"/>
<path style="fill:none;stroke-width:0.006;stroke-linecap:round;stroke-linejoin:miter;stroke:rgb(45.882353%,94.901961%,40.392157%);stroke-opacity:1;stroke-miterlimit:10;" d="M 1.18001 1.204975 L 1.18001 0.940001 " transform="matrix(72,0,0,-72,-5.7654,92.4574)"/>
<path style="fill:none;stroke-width:0.006;stroke-linecap:round;stroke-linejoin:miter;stroke:rgb(45.882353%,94.901961%,40.392157%);stroke-opacity:1;stroke-miterlimit:10;" d="M 1.18001 0.940001 L 1.015025 0.940001 " transform="matrix(72,0,0,-72,-5.7654,92.4574)"/>
<path style="fill:none;stroke-width:0.006;stroke-linecap:round;stroke-linejoin:miter;stroke:rgb(45.882353%,94.901961%,40.392157%);stroke-opacity:1;stroke-miterlimit:10;" d="M 1.18001 0.134988 L 0.990014 0.134988 " transform="matrix(72,0,0,-72,-5.7654,92.4574)"/>
<path style="fill:none;stroke-width:0.006;stroke-linecap:round;stroke-linejoin:miter;stroke:rgb(45.882353%,94.901961%,40.392157%);stroke-opacity:1;stroke-miterlimit:10;" d="M 0.279999 0.400016 L 0.28499 0.405007 " transform="matrix(72,0,0,-72,-5.7654,92.4574)"/>
<path style="fill:none;stroke-width:0.006;stroke-linecap:round;stroke-linejoin:miter;stroke:rgb(45.882353%,94.901961%,40.392157%);stroke-opacity:1;stroke-miterlimit:10;" d="M 0.279999 0.400016 L 0.110023 0.400016 " transform="matrix(72,0,0,-72,-5.7654,92.4574)"/>
<path style="fill:none;stroke-width:0.006;stroke-linecap:round;stroke-linejoin:miter;stroke:rgb(45.882353%,94.901961%,40.392157%);stroke-opacity:1;stroke-miterlimit:10;" d="M 0.110023 0.400016 L 0.110023 0.134988 " transform="matrix(72,0,0,-72,-5.7654,92.4574)"/>
<path style="fill:none;stroke-width:0.006;stroke-linecap:round;stroke-linejoin:miter;stroke:rgb(45.882353%,94.901961%,40.392157%);stroke-opacity:1;stroke-miterlimit:10;" d="M 0.110023 0.134988 L 0.300019 0.134988 " transform="matrix(72,0,0,-72,-5.7654,92.4574)"/>
<path style="fill:none;stroke-width:0.006;stroke-linecap:round;stroke-linejoin:miter;stroke:rgb(45.882353%,94.901961%,40.392157%);stroke-opacity:1;stroke-miterlimit:10;" d="M 0.300019 0.134988 L 0.300019 0.280007 " transform="matrix(72,0,0,-72,-5.7654,92.4574)"/>
<path style="fill:none;stroke-width:0.006;stroke-linecap:round;stroke-linejoin:miter;stroke:rgb(45.882353%,94.901961%,40.392157%);stroke-opacity:1;stroke-miterlimit:10;" d="M 0.990014 0.134988 L 0.990014 0.280007 " transform="matrix(72,0,0,-72,-5.7654,92.4574)"/>
<path style="fill:none;stroke-width:0.006;stroke-linecap:round;stroke-linejoin:miter;stroke:rgb(45.882353%,94.901961%,40.392157%);stroke-opacity:1;stroke-miterlimit:10;" d="M 0.990014 0.280007 L 0.300019 0.280007 " transform="matrix(72,0,0,-72,-5.7654,92.4574)"/>
<path style="fill:none;stroke-width:0.006;stroke-linecap:round;stroke-linejoin:miter;stroke:rgb(45.882353%,94.901961%,40.392157%);stroke-opacity:1;stroke-miterlimit:10;" d="M 0.28499 1.264979 L 0.28499 1.204975 " transform="matrix(72,0,0,-72,-5.7654,92.4574)"/>
<path style="fill:none;stroke-width:0.006;stroke-linecap:round;stroke-linejoin:miter;stroke:rgb(45.882353%,94.901961%,40.392157%);stroke-opacity:1;stroke-miterlimit:10;" d="M 0.110023 1.204975 L 0.110023 0.940001 " transform="matrix(72,0,0,-72,-5.7654,92.4574)"/>
<path style="fill:none;stroke-width:0.006;stroke-linecap:round;stroke-linejoin:miter;stroke:rgb(45.882353%,94.901961%,40.392157%);stroke-opacity:1;stroke-miterlimit:10;" d="M 0.110023 0.940001 L 0.28499 0.940001 " transform="matrix(72,0,0,-72,-5.7654,92.4574)"/>
<path style="fill:none;stroke-width:0.006;stroke-linecap:round;stroke-linejoin:miter;stroke:rgb(45.882353%,94.901961%,40.392157%);stroke-opacity:1;stroke-miterlimit:10;" d="M 0.28499 0.940001 L 0.28499 0.405007 " transform="matrix(72,0,0,-72,-5.7654,92.4574)"/>
<path style="fill:none;stroke-width:0.006;stroke-linecap:round;stroke-linejoin:miter;stroke:rgb(45.882353%,94.901961%,40.392157%);stroke-opacity:1;stroke-miterlimit:10;" d="M 0.110023 1.204975 L 0.28499 1.204975 " transform="matrix(72,0,0,-72,-5.7654,92.4574)"/>
<path style=" stroke:none;fill-rule:evenodd;fill:rgb(75.686275%,0%,87.843137%);fill-opacity:1;" d="M 12.253906 78.058594 C 12.253906 73.234375 5.015625 73.234375 5.015625 78.058594 C 5.015625 82.882812 12.253906 82.882812 12.253906 78.058594 "/>
<path style=" stroke:none;fill-rule:evenodd;fill:rgb(75.686275%,0%,87.843137%);fill-opacity:1;" d="M 8.707031 72.671875 C 8.707031 69.171875 3.460938 69.171875 3.460938 72.671875 C 3.460938 76.171875 8.707031 76.171875 8.707031 72.671875 "/>
<path style=" stroke:none;fill-rule:evenodd;fill:rgb(75.686275%,0%,87.843137%);fill-opacity:1;" d="M 12.25 72.953125 C 12.25 70.402344 8.421875 70.402344 8.421875 72.953125 C 8.421875 75.507812 12.25 75.507812 12.25 72.953125 "/>
<path style=" stroke:none;fill-rule:evenodd;fill:rgb(75.686275%,0%,87.843137%);fill-opacity:1;" d="M 14.519531 75.222656 C 14.519531 73.042969 11.253906 73.042969 11.253906 75.222656 C 11.253906 77.402344 14.519531 77.402344 14.519531 75.222656 "/>
<path style=" stroke:none;fill-rule:evenodd;fill:rgb(75.686275%,0%,87.843137%);fill-opacity:1;" d="M 75.613281 78.058594 C 75.613281 73.234375 68.375 73.234375 68.375 78.058594 C 68.375 82.882812 75.613281 82.882812 75.613281 78.058594 "/>
<path style=" stroke:none;fill-rule:evenodd;fill:rgb(75.686275%,0%,87.843137%);fill-opacity:1;" d="M 72.066406 72.671875 C 72.066406 69.171875 66.820312 69.171875 66.820312 72.671875 C 66.820312 76.171875 72.066406 76.171875 72.066406 72.671875 "/>
<path style=" stroke:none;fill-rule:evenodd;fill:rgb(75.686275%,0%,87.843137%);fill-opacity:1;" d="M 75.609375 72.953125 C 75.609375 70.402344 71.78125 70.402344 71.78125 72.953125 C 71.78125 75.507812 75.609375 75.507812 75.609375 72.953125 "/>
<path style=" stroke:none;fill-rule:evenodd;fill:rgb(75.686275%,0%,87.843137%);fill-opacity:1;" d="M 77.882812 75.222656 C 77.882812 73.042969 74.613281 73.042969 74.613281 75.222656 C 74.613281 77.402344 77.882812 77.402344 77.882812 75.222656 "/>
<path style=" stroke:none;fill-rule:evenodd;fill:rgb(75.686275%,0%,87.843137%);fill-opacity:1;" d="M 49.691406 61.855469 C 49.691406 57.035156 42.457031 57.035156 42.457031 61.855469 C 42.457031 66.679688 49.691406 66.679688 49.691406 61.855469 "/>
<path style=" stroke:none;fill-rule:evenodd;fill:rgb(75.686275%,0%,87.843137%);fill-opacity:1;" d="M 61.210938 63.65625 C 61.210938 58.832031 53.976562 58.832031 53.976562 63.65625 C 53.976562 68.480469 61.210938 68.480469 61.210938 63.65625 "/>
<path style=" stroke:none;fill-rule:evenodd;fill:rgb(75.686275%,0%,87.843137%);fill-opacity:1;" d="M 63.480469 60.824219 C 63.480469 58.644531 60.210938 58.644531 60.210938 60.824219 C 60.210938 63.003906 63.480469 63.003906 63.480469 60.824219 "/>
<path style=" stroke:none;fill-rule:evenodd;fill:rgb(75.686275%,0%,87.843137%);fill-opacity:1;" d="M 38.171875 61.855469 C 38.171875 57.035156 30.9375 57.035156 30.9375 61.855469 C 30.9375 66.679688 38.171875 66.679688 38.171875 61.855469 "/>
<path style=" stroke:none;fill-rule:evenodd;fill:rgb(75.686275%,0%,87.843137%);fill-opacity:1;" d="M 26.652344 63.65625 C 26.652344 58.832031 19.417969 58.832031 19.417969 63.65625 C 19.417969 68.480469 26.652344 68.480469 26.652344 63.65625 "/>
<path style=" stroke:none;fill-rule:evenodd;fill:rgb(75.686275%,0%,87.843137%);fill-opacity:1;" d="M 28.921875 60.824219 C 28.921875 58.644531 25.652344 58.644531 25.652344 60.824219 C 25.652344 63.003906 28.921875 63.003906 28.921875 60.824219 "/>
<path style=" stroke:none;fill-rule:evenodd;fill:rgb(75.686275%,0%,87.843137%);fill-opacity:1;" d="M 49.691406 56.753906 C 49.691406 54.199219 45.859375 54.199219 45.859375 56.753906 C 45.859375 59.308594 49.691406 59.308594 49.691406 56.753906 "/>
<path style=" stroke:none;fill-rule:evenodd;fill:rgb(75.686275%,0%,87.843137%);fill-opacity:1;" d="M 51.960938 59.023438 C 51.960938 56.84375 48.691406 56.84375 48.691406 59.023438 C 48.691406 61.203125 51.960938 61.203125 51.960938 59.023438 "/>
<path style=" stroke:none;fill-rule:evenodd;fill:rgb(75.686275%,0%,87.843137%);fill-opacity:1;" d="M 57.667969 58.273438 C 57.667969 54.773438 52.417969 54.773438 52.417969 58.273438 C 52.417969 61.769531 57.667969 61.769531 57.667969 58.273438 "/>
<path style=" stroke:none;fill-rule:evenodd;fill:rgb(75.686275%,0%,87.843137%);fill-opacity:1;" d="M 61.210938 58.554688 C 61.210938 56 57.378906 56 57.378906 58.554688 C 57.378906 61.109375 61.210938 61.109375 61.210938 58.554688 "/>
<path style=" stroke:none;fill-rule:evenodd;fill:rgb(75.686275%,0%,87.843137%);fill-opacity:1;" d="M 46.148438 56.472656 C 46.148438 52.972656 40.898438 52.972656 40.898438 56.472656 C 40.898438 59.972656 46.148438 59.972656 46.148438 56.472656 "/>
<path style=" stroke:none;fill-rule:evenodd;fill:rgb(75.686275%,0%,87.843137%);fill-opacity:1;" d="M 34.628906 56.472656 C 34.628906 52.972656 29.378906 52.972656 29.378906 56.472656 C 29.378906 59.972656 34.628906 59.972656 34.628906 56.472656 "/>
<path style=" stroke:none;fill-rule:evenodd;fill:rgb(75.686275%,0%,87.843137%);fill-opacity:1;" d="M 38.171875 56.753906 C 38.171875 54.199219 34.339844 54.199219 34.339844 56.753906 C 34.339844 59.308594 38.171875 59.308594 38.171875 56.753906 "/>
<path style=" stroke:none;fill-rule:evenodd;fill:rgb(75.686275%,0%,87.843137%);fill-opacity:1;" d="M 40.441406 59.023438 C 40.441406 56.84375 37.171875 56.84375 37.171875 59.023438 C 37.171875 61.203125 40.441406 61.203125 40.441406 59.023438 "/>
<path style=" stroke:none;fill-rule:evenodd;fill:rgb(75.686275%,0%,87.843137%);fill-opacity:1;" d="M 23.109375 58.273438 C 23.109375 54.773438 17.859375 54.773438 17.859375 58.273438 C 17.859375 61.769531 23.109375 61.769531 23.109375 58.273438 "/>
<path style=" stroke:none;fill-rule:evenodd;fill:rgb(75.686275%,0%,87.843137%);fill-opacity:1;" d="M 26.652344 58.554688 C 26.652344 56 22.820312 56 22.820312 58.554688 C 22.820312 61.109375 26.652344 61.109375 26.652344 58.554688 "/>
<path style=" stroke:none;fill-rule:evenodd;fill:rgb(75.686275%,0%,87.843137%);fill-opacity:1;" d="M 25.167969 15.414062 C 25.167969 11.914062 19.917969 11.914062 19.917969 15.414062 C 19.917969 18.914062 25.167969 18.914062 25.167969 15.414062 "/>
<path style=" stroke:none;fill-rule:evenodd;fill:rgb(75.686275%,0%,87.843137%);fill-opacity:1;" d="M 26.160156 25.136719 C 26.160156 19.558594 17.792969 19.558594 17.792969 25.136719 C 17.792969 30.714844 26.160156 30.714844 26.160156 25.136719 "/>
<path style=" stroke:none;fill-rule:evenodd;fill:rgb(75.686275%,0%,87.843137%);fill-opacity:1;" d="M 22.902344 41.324219 C 22.902344 38.578125 18.785156 38.578125 18.785156 41.324219 C 18.785156 44.070312 22.902344 44.070312 22.902344 41.324219 "/>
<path style=" stroke:none;fill-rule:evenodd;fill:rgb(75.686275%,0%,87.843137%);fill-opacity:1;" d="M 30.132812 41.324219 C 30.132812 38.578125 26.011719 38.578125 26.011719 41.324219 C 26.011719 44.070312 30.132812 44.070312 30.132812 41.324219 "/>
<path style=" stroke:none;fill-rule:evenodd;fill:rgb(75.686275%,0%,87.843137%);fill-opacity:1;" d="M 44.191406 22.585938 C 44.191406 19.839844 40.074219 19.839844 40.074219 22.585938 C 40.074219 25.332031 44.191406 25.332031 44.191406 22.585938 "/>
<path style=" stroke:none;fill-rule:evenodd;fill:rgb(75.686275%,0%,87.843137%);fill-opacity:1;" d="M 38.40625 22.585938 C 38.40625 19.839844 34.289062 19.839844 34.289062 22.585938 C 34.289062 25.332031 38.40625 25.332031 38.40625 22.585938 "/>
<path style=" stroke:none;fill-rule:evenodd;fill:rgb(75.686275%,0%,87.843137%);fill-opacity:1;" d="M 32.625 22.585938 C 32.625 19.839844 28.507812 19.839844 28.507812 22.585938 C 28.507812 25.332031 32.625 25.332031 32.625 22.585938 "/>
<path style=" stroke:none;fill-rule:evenodd;fill:rgb(75.686275%,0%,87.843137%);fill-opacity:1;" d="M 41.300781 27.6875 C 41.300781 24.941406 37.179688 24.941406 37.179688 27.6875 C 37.179688 30.433594 41.300781 30.433594 41.300781 27.6875 "/>
<path style=" stroke:none;fill-rule:evenodd;fill:rgb(75.686275%,0%,87.843137%);fill-opacity:1;" d="M 35.515625 27.6875 C 35.515625 24.941406 31.398438 24.941406 31.398438 27.6875 C 31.398438 30.433594 35.515625 30.433594 35.515625 27.6875 "/>
<path style=" stroke:none;fill-rule:evenodd;fill:rgb(75.686275%,0%,87.843137%);fill-opacity:1;" d="M 47.082031 27.6875 C 47.082031 24.941406 42.964844 24.941406 42.964844 27.6875 C 42.964844 30.433594 47.082031 30.433594 47.082031 27.6875 "/>
<path style=" stroke:none;fill-rule:evenodd;fill:rgb(75.686275%,0%,87.843137%);fill-opacity:1;" d="M 12.253906 15.417969 C 12.253906 10.59375 5.015625 10.59375 5.015625 15.417969 C 5.015625 20.242188 12.253906 20.242188 12.253906 15.417969 "/>
<path style=" stroke:none;fill-rule:evenodd;fill:rgb(75.686275%,0%,87.843137%);fill-opacity:1;" d="M 14.519531 12.582031 C 14.519531 10.402344 11.253906 10.402344 11.253906 12.582031 C 11.253906 14.761719 14.519531 14.761719 14.519531 12.582031 "/>
<path style=" stroke:none;fill-rule:evenodd;fill:rgb(75.686275%,0%,87.843137%);fill-opacity:1;" d="M 8.707031 10.03125 C 8.707031 6.53125 3.460938 6.53125 3.460938 10.03125 C 3.460938 13.53125 8.707031 13.53125 8.707031 10.03125 "/>
<path style=" stroke:none;fill-rule:evenodd;fill:rgb(75.686275%,0%,87.843137%);fill-opacity:1;" d="M 12.25 10.316406 C 12.25 7.761719 8.421875 7.761719 8.421875 10.316406 C 8.421875 12.867188 12.25 12.867188 12.25 10.316406 "/>
<path style=" stroke:none;fill-rule:evenodd;fill:rgb(75.686275%,0%,87.843137%);fill-opacity:1;" d="M 55.359375 41.324219 C 55.359375 38.578125 51.242188 38.578125 51.242188 41.324219 C 51.242188 44.070312 55.359375 44.070312 55.359375 41.324219 "/>
<path style=" stroke:none;fill-rule:evenodd;fill:rgb(75.686275%,0%,87.843137%);fill-opacity:1;" d="M 62.585938 41.324219 C 62.585938 38.578125 58.46875 38.578125 58.46875 41.324219 C 58.46875 44.070312 62.585938 44.070312 62.585938 41.324219 "/>
<path style=" stroke:none;fill-rule:evenodd;fill:rgb(75.686275%,0%,87.843137%);fill-opacity:1;" d="M 61.453125 15.414062 C 61.453125 11.914062 56.203125 11.914062 56.203125 15.414062 C 56.203125 18.914062 61.453125 18.914062 61.453125 15.414062 "/>
<path style=" stroke:none;fill-rule:evenodd;fill:rgb(75.686275%,0%,87.843137%);fill-opacity:1;" d="M 63.578125 25.136719 C 63.578125 19.558594 55.210938 19.558594 55.210938 25.136719 C 55.210938 30.714844 63.578125 30.714844 63.578125 25.136719 "/>
<path style=" stroke:none;fill-rule:evenodd;fill:rgb(75.686275%,0%,87.843137%);fill-opacity:1;" d="M 49.972656 22.585938 C 49.972656 19.839844 45.855469 19.839844 45.855469 22.585938 C 45.855469 25.332031 49.972656 25.332031 49.972656 22.585938 "/>
<path style=" stroke:none;fill-rule:evenodd;fill:rgb(75.686275%,0%,87.843137%);fill-opacity:1;" d="M 52.863281 27.6875 C 52.863281 24.941406 48.746094 24.941406 48.746094 27.6875 C 48.746094 30.433594 52.863281 30.433594 52.863281 27.6875 "/>
<path style=" stroke:none;fill-rule:evenodd;fill:rgb(75.686275%,0%,87.843137%);fill-opacity:1;" d="M 75.613281 15.417969 C 75.613281 10.59375 68.375 10.59375 68.375 15.417969 C 68.375 20.242188 75.613281 20.242188 75.613281 15.417969 "/>
<path style=" stroke:none;fill-rule:evenodd;fill:rgb(75.686275%,0%,87.843137%);fill-opacity:1;" d="M 72.066406 10.03125 C 72.066406 6.53125 66.820312 6.53125 66.820312 10.03125 C 66.820312 13.53125 72.066406 13.53125 72.066406 10.03125 "/>
<path style=" stroke:none;fill-rule:evenodd;fill:rgb(75.686275%,0%,87.843137%);fill-opacity:1;" d="M 75.609375 10.316406 C 75.609375 7.761719 71.78125 7.761719 71.78125 10.316406 C 71.78125 12.867188 75.609375 12.867188 75.609375 10.316406 "/>
<path style=" stroke:none;fill-rule:evenodd;fill:rgb(75.686275%,0%,87.843137%);fill-opacity:1;" d="M 77.882812 12.582031 C 77.882812 10.402344 74.613281 10.402344 74.613281 12.582031 C 74.613281 14.761719 77.882812 14.761719 77.882812 12.582031 "/>
<path style=" stroke:none;fill-rule:evenodd;fill:rgb(75.686275%,0%,87.843137%);fill-opacity:1;" d="M 36.191406 9.476562 L 32.074219 9.476562 L 32.074219 14.160156 L 36.191406 14.160156 Z M 36.191406 9.476562 "/>
<path style=" stroke:none;fill-rule:evenodd;fill:rgb(75.686275%,0%,87.843137%);fill-opacity:1;" d="M 41.292969 9.476562 L 37.175781 9.476562 L 37.175781 14.160156 L 41.292969 14.160156 Z M 41.292969 9.476562 "/>
<path style="fill:none;stroke-width:0.02;stroke-linecap:round;stroke-linejoin:miter;stroke:rgb(75.686275%,0%,87.843137%);stroke-opacity:1;stroke-miterlimit:10;" d="M 0.664331 1.065001 L 0.694333 1.065001 " transform="matrix(72,0,0,-72,-5.7654,92.4574)"/>
<path style="fill:none;stroke-width:0.02;stroke-linecap:round;stroke-linejoin:miter;stroke:rgb(75.686275%,0%,87.843137%);stroke-opacity:1;stroke-miterlimit:10;" d="M 0.694333 1.065001 L 0.701332 1.058002 " transform="matrix(72,0,0,-72,-5.7654,92.4574)"/>
<path style=" stroke:none;fill-rule:evenodd;fill:rgb(75.686275%,0%,87.843137%);fill-opacity:1;" d="M 44.007812 15.5625 L 44.007812 17 L 45.808594 17 L 45.808594 15.5625 Z M 44.007812 15.5625 "/>
<path style="fill:none;stroke-width:0.02;stroke-linecap:round;stroke-linejoin:miter;stroke:rgb(75.686275%,0%,87.843137%);stroke-opacity:1;stroke-miterlimit:10;" d="M 0.685327 1.058979 L 0.691295 1.065001 " transform="matrix(72,0,0,-72,-5.7654,92.4574)"/>
<path style="fill:none;stroke-width:0.02;stroke-linecap:round;stroke-linejoin:miter;stroke:rgb(75.686275%,0%,87.843137%);stroke-opacity:1;stroke-miterlimit:10;" d="M 0.679305 1.065001 L 0.685327 1.058979 " transform="matrix(72,0,0,-72,-5.7654,92.4574)"/>
<path style="fill:none;stroke-width:0.02;stroke-linecap:round;stroke-linejoin:miter;stroke:rgb(75.686275%,0%,87.843137%);stroke-opacity:1;stroke-miterlimit:10;" d="M 0.657332 1.058002 L 0.664331 1.065001 " transform="matrix(72,0,0,-72,-5.7654,92.4574)"/>
<path style=" stroke:none;fill-rule:evenodd;fill:rgb(75.686275%,0%,87.843137%);fill-opacity:1;" d="M 39.761719 15.5625 L 39.761719 17 L 42.28125 17 L 42.28125 15.5625 Z M 39.761719 15.5625 "/>
<path style="fill:none;stroke-width:0.02;stroke-linecap:round;stroke-linejoin:miter;stroke:rgb(75.686275%,0%,87.843137%);stroke-opacity:1;stroke-miterlimit:10;" d="M 0.667315 1.065001 L 0.673337 1.058979 " transform="matrix(72,0,0,-72,-5.7654,92.4574)"/>
<path style="fill:none;stroke-width:0.02;stroke-linecap:round;stroke-linejoin:miter;stroke:rgb(75.686275%,0%,87.843137%);stroke-opacity:1;stroke-miterlimit:10;" d="M 0.673337 1.058979 L 0.679305 1.065001 " transform="matrix(72,0,0,-72,-5.7654,92.4574)"/>
<path style="fill:none;stroke-width:0.02;stroke-linecap:round;stroke-linejoin:miter;stroke:rgb(75.686275%,0%,87.843137%);stroke-opacity:1;stroke-miterlimit:10;" d="M 0.664331 1.039013 L 0.695309 1.039013 " transform="matrix(72,0,0,-72,-5.7654,92.4574)"/>
<path style="fill:none;stroke-width:0.02;stroke-linecap:round;stroke-linejoin:miter;stroke:rgb(75.686275%,0%,87.843137%);stroke-opacity:1;stroke-miterlimit:10;" d="M 0.664331 1.039013 L 0.666284 1.039013 " transform="matrix(72,0,0,-72,-5.7654,92.4574)"/>
<path style="fill:none;stroke-width:0.02;stroke-linecap:round;stroke-linejoin:miter;stroke:rgb(75.686275%,0%,87.843137%);stroke-opacity:1;stroke-miterlimit:10;" d="M 0.695309 1.039013 L 0.701332 1.044981 " transform="matrix(72,0,0,-72,-5.7654,92.4574)"/>
<path style=" stroke:none;fill-rule:evenodd;fill:rgb(75.686275%,0%,87.843137%);fill-opacity:1;" d="M 44.007812 16.496094 L 44.007812 17.9375 L 45.808594 17.9375 L 45.808594 16.496094 Z M 44.007812 16.496094 "/>
<path style="fill:none;stroke-width:0.02;stroke-linecap:round;stroke-linejoin:miter;stroke:rgb(75.686275%,0%,87.843137%);stroke-opacity:1;stroke-miterlimit:10;" d="M 0.658309 1.044981 L 0.664331 1.039013 " transform="matrix(72,0,0,-72,-5.7654,92.4574)"/>
<path style=" stroke:none;fill-rule:evenodd;fill:rgb(75.686275%,0%,87.843137%);fill-opacity:1;" d="M 39.761719 16.496094 L 39.761719 17.9375 L 42.351562 17.9375 L 42.351562 16.496094 Z M 39.761719 16.496094 "/>
<path style="fill:none;stroke-width:0.02;stroke-linecap:round;stroke-linejoin:miter;stroke:rgb(75.686275%,0%,87.843137%);stroke-opacity:1;stroke-miterlimit:10;" d="M 0.666284 1.039013 L 0.673337 1.046012 " transform="matrix(72,0,0,-72,-5.7654,92.4574)"/>
<path style="fill:none;stroke-width:0.02;stroke-linecap:round;stroke-linejoin:miter;stroke:rgb(75.686275%,0%,87.843137%);stroke-opacity:1;stroke-miterlimit:10;" d="M 0.673337 1.046012 L 0.680335 1.039013 " transform="matrix(72,0,0,-72,-5.7654,92.4574)"/>
<path style="fill:none;stroke-width:0.02;stroke-linecap:round;stroke-linejoin:miter;stroke:rgb(75.686275%,0%,87.843137%);stroke-opacity:1;stroke-miterlimit:10;" d="M 0.678328 1.039013 L 0.685327 1.046012 " transform="matrix(72,0,0,-72,-5.7654,92.4574)"/>
<path style="fill:none;stroke-width:0.02;stroke-linecap:round;stroke-linejoin:miter;stroke:rgb(75.686275%,0%,87.843137%);stroke-opacity:1;stroke-miterlimit:10;" d="M 0.685327 1.046012 L 0.692325 1.039013 " transform="matrix(72,0,0,-72,-5.7654,92.4574)"/>
<path style="fill:none;stroke-width:0.02;stroke-linecap:round;stroke-linejoin:miter;stroke:rgb(75.686275%,0%,87.843137%);stroke-opacity:1;stroke-miterlimit:10;" d="M 0.695309 0.828998 L 0.695309 0.798996 " transform="matrix(72,0,0,-72,-5.7654,92.4574)"/>
<path style="fill:none;stroke-width:0.02;stroke-linecap:round;stroke-linejoin:miter;stroke:rgb(75.686275%,0%,87.843137%);stroke-opacity:1;stroke-miterlimit:10;" d="M 0.695309 0.828998 L 0.702308 0.835997 " transform="matrix(72,0,0,-72,-5.7654,92.4574)"/>
<path style=" stroke:none;fill-rule:evenodd;fill:rgb(75.686275%,0%,87.843137%);fill-opacity:1;" d="M 45.519531 31.183594 L 44.082031 31.183594 L 44.082031 32.984375 L 45.519531 32.984375 Z M 45.519531 31.183594 "/>
<path style="fill:none;stroke-width:0.02;stroke-linecap:round;stroke-linejoin:miter;stroke:rgb(75.686275%,0%,87.843137%);stroke-opacity:1;stroke-miterlimit:10;" d="M 0.695309 0.826014 L 0.701332 0.819992 " transform="matrix(72,0,0,-72,-5.7654,92.4574)"/>
<path style="fill:none;stroke-width:0.02;stroke-linecap:round;stroke-linejoin:miter;stroke:rgb(75.686275%,0%,87.843137%);stroke-opacity:1;stroke-miterlimit:10;" d="M 0.695309 0.814024 L 0.701332 0.819992 " transform="matrix(72,0,0,-72,-5.7654,92.4574)"/>
<path style="fill:none;stroke-width:0.02;stroke-linecap:round;stroke-linejoin:miter;stroke:rgb(75.686275%,0%,87.843137%);stroke-opacity:1;stroke-miterlimit:10;" d="M 0.695309 0.798996 L 0.702308 0.791997 " transform="matrix(72,0,0,-72,-5.7654,92.4574)"/>
<path style=" stroke:none;fill-rule:evenodd;fill:rgb(75.686275%,0%,87.843137%);fill-opacity:1;" d="M 45.519531 34.714844 L 44.082031 34.714844 L 44.082031 37.234375 L 45.519531 37.234375 Z M 45.519531 34.714844 "/>
<path style="fill:none;stroke-width:0.02;stroke-linecap:round;stroke-linejoin:miter;stroke:rgb(75.686275%,0%,87.843137%);stroke-opacity:1;stroke-miterlimit:10;" d="M 0.695309 0.80198 L 0.701332 0.808002 " transform="matrix(72,0,0,-72,-5.7654,92.4574)"/>
<path style="fill:none;stroke-width:0.02;stroke-linecap:round;stroke-linejoin:miter;stroke:rgb(75.686275%,0%,87.843137%);stroke-opacity:1;stroke-miterlimit:10;" d="M 0.695309 0.814024 L 0.701332 0.808002 " transform="matrix(72,0,0,-72,-5.7654,92.4574)"/>
<path style="fill:none;stroke-width:0.02;stroke-linecap:round;stroke-linejoin:miter;stroke:rgb(75.686275%,0%,87.843137%);stroke-opacity:1;stroke-miterlimit:10;" d="M 0.721297 0.829975 L 0.721297 0.798996 " transform="matrix(72,0,0,-72,-5.7654,92.4574)"/>
<path style="fill:none;stroke-width:0.02;stroke-linecap:round;stroke-linejoin:miter;stroke:rgb(75.686275%,0%,87.843137%);stroke-opacity:1;stroke-miterlimit:10;" d="M 0.721297 0.801003 L 0.721297 0.798996 " transform="matrix(72,0,0,-72,-5.7654,92.4574)"/>
<path style="fill:none;stroke-width:0.02;stroke-linecap:round;stroke-linejoin:miter;stroke:rgb(75.686275%,0%,87.843137%);stroke-opacity:1;stroke-miterlimit:10;" d="M 0.715329 0.835997 L 0.721297 0.829975 " transform="matrix(72,0,0,-72,-5.7654,92.4574)"/>
<path style=" stroke:none;fill-rule:evenodd;fill:rgb(75.686275%,0%,87.843137%);fill-opacity:1;" d="M 46.457031 31.183594 L 45.015625 31.183594 L 45.015625 32.984375 L 46.457031 32.984375 Z M 46.457031 31.183594 "/>
<path style="fill:none;stroke-width:0.02;stroke-linecap:round;stroke-linejoin:miter;stroke:rgb(75.686275%,0%,87.843137%);stroke-opacity:1;stroke-miterlimit:10;" d="M 0.715329 0.792974 L 0.721297 0.798996 " transform="matrix(72,0,0,-72,-5.7654,92.4574)"/>
<path style=" stroke:none;fill-rule:evenodd;fill:rgb(75.686275%,0%,87.843137%);fill-opacity:1;" d="M 46.457031 34.640625 L 45.015625 34.640625 L 45.015625 37.234375 L 46.457031 37.234375 Z M 46.457031 34.640625 "/>
<path style="fill:none;stroke-width:0.02;stroke-linecap:round;stroke-linejoin:miter;stroke:rgb(75.686275%,0%,87.843137%);stroke-opacity:1;stroke-miterlimit:10;" d="M 0.714298 0.808002 L 0.721297 0.801003 " transform="matrix(72,0,0,-72,-5.7654,92.4574)"/>
<path style="fill:none;stroke-width:0.02;stroke-linecap:round;stroke-linejoin:miter;stroke:rgb(75.686275%,0%,87.843137%);stroke-opacity:1;stroke-miterlimit:10;" d="M 0.714298 0.808002 L 0.721297 0.815001 " transform="matrix(72,0,0,-72,-5.7654,92.4574)"/>
<path style="fill:none;stroke-width:0.02;stroke-linecap:round;stroke-linejoin:miter;stroke:rgb(75.686275%,0%,87.843137%);stroke-opacity:1;stroke-miterlimit:10;" d="M 0.714298 0.819992 L 0.721297 0.812993 " transform="matrix(72,0,0,-72,-5.7654,92.4574)"/>
<path style="fill:none;stroke-width:0.02;stroke-linecap:round;stroke-linejoin:miter;stroke:rgb(75.686275%,0%,87.843137%);stroke-opacity:1;stroke-miterlimit:10;" d="M 0.714298 0.819992 L 0.721297 0.826991 " transform="matrix(72,0,0,-72,-5.7654,92.4574)"/>
<path style=" stroke:none;fill-rule:evenodd;fill:rgb(100%,49.803922%,45.098039%);fill-opacity:1;" d="M 34.195312 17.21875 C 34.195312 16.738281 33.472656 16.738281 33.472656 17.21875 C 33.472656 17.699219 34.195312 17.699219 34.195312 17.21875 "/>
<path style=" stroke:none;fill-rule:evenodd;fill:rgb(100%,49.803922%,45.098039%);fill-opacity:1;" d="M 39.59375 13.617188 C 39.59375 13.136719 38.875 13.136719 38.875 13.617188 C 38.875 14.097656 39.59375 14.097656 39.59375 13.617188 "/>
<path style=" stroke:none;fill-rule:evenodd;fill:rgb(100%,49.803922%,45.098039%);fill-opacity:1;" d="M 20.621094 19.378906 C 20.621094 18.753906 19.6875 18.753906 19.6875 19.378906 C 19.6875 20 20.621094 20 20.621094 19.378906 "/>
<path style=" stroke:none;fill-rule:evenodd;fill:rgb(100%,49.803922%,45.098039%);fill-opacity:1;" d="M 25.300781 19.378906 C 25.300781 18.753906 24.367188 18.753906 24.367188 19.378906 C 24.367188 20 25.300781 20 25.300781 19.378906 "/>
<path style=" stroke:none;fill-rule:evenodd;fill:rgb(100%,49.803922%,45.098039%);fill-opacity:1;" d="M 39.34375 20.097656 C 39.34375 19.472656 38.40625 19.472656 38.40625 20.097656 C 38.40625 20.722656 39.34375 20.722656 39.34375 20.097656 "/>
<path style=" stroke:none;fill-rule:evenodd;fill:rgb(100%,49.803922%,45.098039%);fill-opacity:1;" d="M 61.664062 19.738281 C 61.664062 19.113281 60.726562 19.113281 60.726562 19.738281 C 60.726562 20.363281 61.664062 20.363281 61.664062 19.738281 "/>
<path style=" stroke:none;fill-rule:evenodd;fill:rgb(100%,49.803922%,45.098039%);fill-opacity:1;" d="M 13.609375 12.582031 C 13.609375 11.621094 12.167969 11.621094 12.167969 12.582031 C 12.167969 13.539062 13.609375 13.539062 13.609375 12.582031 "/>
<path style=" stroke:none;fill-rule:evenodd;fill:rgb(100%,49.803922%,45.098039%);fill-opacity:1;" d="M 13.609375 75.21875 C 13.609375 74.261719 12.167969 74.261719 12.167969 75.21875 C 12.167969 76.179688 13.609375 76.179688 13.609375 75.21875 "/>
<path style=" stroke:none;fill-rule:evenodd;fill:rgb(100%,49.803922%,45.098039%);fill-opacity:1;" d="M 28.011719 60.820312 C 28.011719 59.859375 26.570312 59.859375 26.570312 60.820312 C 26.570312 61.78125 28.011719 61.78125 28.011719 60.820312 "/>
<path style=" stroke:none;fill-rule:evenodd;fill:rgb(100%,49.803922%,45.098039%);fill-opacity:1;" d="M 39.53125 59.019531 C 39.53125 58.0625 38.089844 58.0625 38.089844 59.019531 C 38.089844 59.980469 39.53125 59.980469 39.53125 59.019531 "/>
<path style=" stroke:none;fill-rule:evenodd;fill:rgb(100%,49.803922%,45.098039%);fill-opacity:1;" d="M 51.050781 59.019531 C 51.050781 58.0625 49.609375 58.0625 49.609375 59.019531 C 49.609375 59.980469 51.050781 59.980469 51.050781 59.019531 "/>
<path style=" stroke:none;fill-rule:evenodd;fill:rgb(100%,49.803922%,45.098039%);fill-opacity:1;" d="M 62.570312 60.820312 C 62.570312 59.859375 61.128906 59.859375 61.128906 60.820312 C 61.128906 61.78125 62.570312 61.78125 62.570312 60.820312 "/>
<path style=" stroke:none;fill-rule:evenodd;fill:rgb(100%,49.803922%,45.098039%);fill-opacity:1;" d="M 76.96875 12.582031 C 76.96875 11.621094 75.53125 11.621094 75.53125 12.582031 C 75.53125 13.539062 76.96875 13.539062 76.96875 12.582031 "/>
<path style=" stroke:none;fill-rule:evenodd;fill:rgb(100%,49.803922%,45.098039%);fill-opacity:1;" d="M 76.96875 75.21875 C 76.96875 74.261719 75.53125 74.261719 75.53125 75.21875 C 75.53125 76.179688 76.96875 76.179688 76.96875 75.21875 "/>
<path style=" stroke:none;fill-rule:evenodd;fill:rgb(100%,49.803922%,45.098039%);fill-opacity:1;" d="M 11.414062 10.3125 C 11.414062 8.871094 9.253906 8.871094 9.253906 10.3125 C 9.253906 11.753906 11.414062 11.753906 11.414062 10.3125 "/>
<path style=" stroke:none;fill-rule:evenodd;fill:rgb(100%,49.803922%,45.098039%);fill-opacity:1;" d="M 11.414062 72.953125 C 11.414062 71.511719 9.253906 71.511719 9.253906 72.953125 C 9.253906 74.394531 11.414062 74.394531 11.414062 72.953125 "/>
<path style=" stroke:none;fill-rule:evenodd;fill:rgb(100%,49.803922%,45.098039%);fill-opacity:1;" d="M 25.8125 58.550781 C 25.8125 57.113281 23.652344 57.113281 23.652344 58.550781 C 23.652344 59.992188 25.8125 59.992188 25.8125 58.550781 "/>
<path style=" stroke:none;fill-rule:evenodd;fill:rgb(100%,49.803922%,45.098039%);fill-opacity:1;" d="M 37.332031 56.753906 C 37.332031 55.3125 35.171875 55.3125 35.171875 56.753906 C 35.171875 58.191406 37.332031 58.191406 37.332031 56.753906 "/>
<path style=" stroke:none;fill-rule:evenodd;fill:rgb(100%,49.803922%,45.098039%);fill-opacity:1;" d="M 48.855469 56.753906 C 48.855469 55.3125 46.695312 55.3125 46.695312 56.753906 C 46.695312 58.191406 48.855469 58.191406 48.855469 56.753906 "/>
<path style=" stroke:none;fill-rule:evenodd;fill:rgb(100%,49.803922%,45.098039%);fill-opacity:1;" d="M 60.375 58.550781 C 60.375 57.113281 58.214844 57.113281 58.214844 58.550781 C 58.214844 59.992188 60.375 59.992188 60.375 58.550781 "/>
<path style=" stroke:none;fill-rule:evenodd;fill:rgb(100%,49.803922%,45.098039%);fill-opacity:1;" d="M 74.773438 10.3125 C 74.773438 8.871094 72.613281 8.871094 72.613281 10.3125 C 72.613281 11.753906 74.773438 11.753906 74.773438 10.3125 "/>
<path style=" stroke:none;fill-rule:evenodd;fill:rgb(100%,49.803922%,45.098039%);fill-opacity:1;" d="M 74.773438 72.953125 C 74.773438 71.511719 72.613281 71.511719 72.613281 72.953125 C 72.613281 74.394531 74.773438 74.394531 74.773438 72.953125 "/>
<path style=" stroke:none;fill-rule:evenodd;fill:rgb(100%,49.803922%,45.098039%);fill-opacity:1;" d="M 22.105469 41.324219 C 22.105469 39.644531 19.585938 39.644531 19.585938 41.324219 C 19.585938 43.003906 22.105469 43.003906 22.105469 41.324219 "/>
<path style=" stroke:none;fill-rule:evenodd;fill:rgb(100%,49.803922%,45.098039%);fill-opacity:1;" d="M 29.335938 41.324219 C 29.335938 39.644531 26.816406 39.644531 26.816406 41.324219 C 26.816406 43.003906 29.335938 43.003906 29.335938 41.324219 "/>
<path style=" stroke:none;fill-rule:evenodd;fill:rgb(100%,49.803922%,45.098039%);fill-opacity:1;" d="M 31.824219 22.589844 C 31.824219 20.910156 29.304688 20.910156 29.304688 22.589844 C 29.304688 24.269531 31.824219 24.269531 31.824219 22.589844 "/>
<path style=" stroke:none;fill-rule:evenodd;fill:rgb(100%,49.803922%,45.098039%);fill-opacity:1;" d="M 34.71875 27.6875 C 34.71875 26.007812 32.199219 26.007812 32.199219 27.6875 C 32.199219 29.367188 34.71875 29.367188 34.71875 27.6875 "/>
<path style=" stroke:none;fill-rule:evenodd;fill:rgb(100%,49.803922%,45.098039%);fill-opacity:1;" d="M 37.605469 22.589844 C 37.605469 20.910156 35.085938 20.910156 35.085938 22.589844 C 35.085938 24.269531 37.605469 24.269531 37.605469 22.589844 "/>
<path style=" stroke:none;fill-rule:evenodd;fill:rgb(100%,49.803922%,45.098039%);fill-opacity:1;" d="M 40.5 27.6875 C 40.5 26.007812 37.980469 26.007812 37.980469 27.6875 C 37.980469 29.367188 40.5 29.367188 40.5 27.6875 "/>
<path style=" stroke:none;fill-rule:evenodd;fill:rgb(100%,49.803922%,45.098039%);fill-opacity:1;" d="M 43.390625 22.589844 C 43.390625 20.910156 40.867188 20.910156 40.867188 22.589844 C 40.867188 24.269531 43.390625 24.269531 43.390625 22.589844 "/>
<path style=" stroke:none;fill-rule:evenodd;fill:rgb(100%,49.803922%,45.098039%);fill-opacity:1;" d="M 46.285156 27.6875 C 46.285156 26.007812 43.761719 26.007812 43.761719 27.6875 C 43.761719 29.367188 46.285156 29.367188 46.285156 27.6875 "/>
<path style=" stroke:none;fill-rule:evenodd;fill:rgb(100%,49.803922%,45.098039%);fill-opacity:1;" d="M 49.179688 22.589844 C 49.179688 20.910156 46.65625 20.910156 46.65625 22.589844 C 46.65625 24.269531 49.179688 24.269531 49.179688 22.589844 "/>
<path style=" stroke:none;fill-rule:evenodd;fill:rgb(100%,49.803922%,45.098039%);fill-opacity:1;" d="M 52.066406 27.6875 C 52.066406 26.007812 49.546875 26.007812 49.546875 27.6875 C 49.546875 29.367188 52.066406 29.367188 52.066406 27.6875 "/>
<path style=" stroke:none;fill-rule:evenodd;fill:rgb(100%,49.803922%,45.098039%);fill-opacity:1;" d="M 54.5625 41.324219 C 54.5625 39.644531 52.042969 39.644531 52.042969 41.324219 C 52.042969 43.003906 54.5625 43.003906 54.5625 41.324219 "/>
<path style=" stroke:none;fill-rule:evenodd;fill:rgb(100%,49.803922%,45.098039%);fill-opacity:1;" d="M 61.785156 41.324219 C 61.785156 39.644531 59.265625 39.644531 59.265625 41.324219 C 59.265625 43.003906 61.785156 43.003906 61.785156 41.324219 "/>
<path style=" stroke:none;fill-rule:evenodd;fill:rgb(100%,49.803922%,45.098039%);fill-opacity:1;" d="M 7.851562 10.03125 C 7.851562 7.679688 4.320312 7.679688 4.320312 10.03125 C 4.320312 12.382812 7.851562 12.382812 7.851562 10.03125 "/>
<path style=" stroke:none;fill-rule:evenodd;fill:rgb(100%,49.803922%,45.098039%);fill-opacity:1;" d="M 7.851562 72.671875 C 7.851562 70.320312 4.320312 70.320312 4.320312 72.671875 C 4.320312 75.023438 7.851562 75.023438 7.851562 72.671875 "/>
<path style=" stroke:none;fill-rule:evenodd;fill:rgb(100%,49.803922%,45.098039%);fill-opacity:1;" d="M 22.25 58.273438 C 22.25 55.917969 18.722656 55.917969 18.722656 58.273438 C 18.722656 60.625 22.25 60.625 22.25 58.273438 "/>
<path style=" stroke:none;fill-rule:evenodd;fill:rgb(100%,49.803922%,45.098039%);fill-opacity:1;" d="M 33.769531 56.472656 C 33.769531 54.121094 30.242188 54.121094 30.242188 56.472656 C 30.242188 58.824219 33.769531 58.824219 33.769531 56.472656 "/>
<path style=" stroke:none;fill-rule:evenodd;fill:rgb(100%,49.803922%,45.098039%);fill-opacity:1;" d="M 45.289062 56.472656 C 45.289062 54.121094 41.761719 54.121094 41.761719 56.472656 C 41.761719 58.824219 45.289062 58.824219 45.289062 56.472656 "/>
<path style=" stroke:none;fill-rule:evenodd;fill:rgb(100%,49.803922%,45.098039%);fill-opacity:1;" d="M 56.808594 58.273438 C 56.808594 55.917969 53.28125 55.917969 53.28125 58.273438 C 53.28125 60.625 56.808594 60.625 56.808594 58.273438 "/>
<path style=" stroke:none;fill-rule:evenodd;fill:rgb(100%,49.803922%,45.098039%);fill-opacity:1;" d="M 71.210938 10.03125 C 71.210938 7.679688 67.683594 7.679688 67.683594 10.03125 C 67.683594 12.382812 71.210938 12.382812 71.210938 10.03125 "/>
<path style=" stroke:none;fill-rule:evenodd;fill:rgb(100%,49.803922%,45.098039%);fill-opacity:1;" d="M 71.210938 72.671875 C 71.210938 70.320312 67.683594 70.320312 67.683594 72.671875 C 67.683594 75.023438 71.210938 75.023438 71.210938 72.671875 "/>
<path style=" stroke:none;fill-rule:evenodd;fill:rgb(100%,49.803922%,45.098039%);fill-opacity:1;" d="M 24.382812 15.417969 C 24.382812 12.96875 20.710938 12.96875 20.710938 15.417969 C 20.710938 17.867188 24.382812 17.867188 24.382812 15.417969 "/>
<path style=" stroke:none;fill-rule:evenodd;fill:rgb(100%,49.803922%,45.098039%);fill-opacity:1;" d="M 60.660156 15.417969 C 60.660156 12.96875 56.988281 12.96875 56.988281 15.417969 C 56.988281 17.867188 60.660156 17.867188 60.660156 15.417969 "/>
<path style=" stroke:none;fill-rule:evenodd;fill:rgb(100%,49.803922%,45.098039%);fill-opacity:1;" d="M 11.480469 15.417969 C 11.480469 11.625 5.789062 11.625 5.789062 15.417969 C 5.789062 19.210938 11.480469 19.210938 11.480469 15.417969 "/>
<path style=" stroke:none;fill-rule:evenodd;fill:rgb(100%,49.803922%,45.098039%);fill-opacity:1;" d="M 11.480469 78.058594 C 11.480469 74.265625 5.789062 74.265625 5.789062 78.058594 C 5.789062 81.847656 11.480469 81.847656 11.480469 78.058594 "/>
<path style=" stroke:none;fill-rule:evenodd;fill:rgb(100%,49.803922%,45.098039%);fill-opacity:1;" d="M 25.878906 63.65625 C 25.878906 59.867188 20.191406 59.867188 20.191406 63.65625 C 20.191406 67.449219 25.878906 67.449219 25.878906 63.65625 "/>
<path style=" stroke:none;fill-rule:evenodd;fill:rgb(100%,49.803922%,45.098039%);fill-opacity:1;" d="M 37.398438 61.855469 C 37.398438 58.066406 31.710938 58.066406 31.710938 61.855469 C 31.710938 65.648438 37.398438 65.648438 37.398438 61.855469 "/>
<path style=" stroke:none;fill-rule:evenodd;fill:rgb(100%,49.803922%,45.098039%);fill-opacity:1;" d="M 48.917969 61.855469 C 48.917969 58.066406 43.230469 58.066406 43.230469 61.855469 C 43.230469 65.648438 48.917969 65.648438 48.917969 61.855469 "/>
<path style=" stroke:none;fill-rule:evenodd;fill:rgb(100%,49.803922%,45.098039%);fill-opacity:1;" d="M 60.4375 63.65625 C 60.4375 59.867188 54.75 59.867188 54.75 63.65625 C 54.75 67.449219 60.4375 67.449219 60.4375 63.65625 "/>
<path style=" stroke:none;fill-rule:evenodd;fill:rgb(100%,49.803922%,45.098039%);fill-opacity:1;" d="M 74.839844 15.417969 C 74.839844 11.625 69.152344 11.625 69.152344 15.417969 C 69.152344 19.210938 74.839844 19.210938 74.839844 15.417969 "/>
<path style=" stroke:none;fill-rule:evenodd;fill:rgb(100%,49.803922%,45.098039%);fill-opacity:1;" d="M 74.839844 78.058594 C 74.839844 74.265625 69.152344 74.265625 69.152344 78.058594 C 69.152344 81.847656 74.839844 81.847656 74.839844 78.058594 "/>
<path style=" stroke:none;fill-rule:evenodd;fill:rgb(100%,49.803922%,45.098039%);fill-opacity:1;" d="M 25.359375 25.136719 C 25.359375 20.625 18.59375 20.625 18.59375 25.136719 C 18.59375 29.648438 25.359375 29.648438 25.359375 25.136719 "/>
<path style=" stroke:none;fill-rule:evenodd;fill:rgb(100%,49.803922%,45.098039%);fill-opacity:1;" d="M 62.777344 25.136719 C 62.777344 20.625 56.011719 20.625 56.011719 25.136719 C 56.011719 29.648438 62.777344 29.648438 62.777344 25.136719 "/>
<path style="fill:none;stroke-width:0.008;stroke-linecap:round;stroke-linejoin:miter;stroke:rgb(45.098039%,45.098039%,87.058824%);stroke-opacity:1;stroke-miterlimit:10;" d="M 0.585663 1.092453 L 0.593476 1.092453 " transform="matrix(72,0,0,-72,-5.7654,92.4574)"/>
<path style="fill:none;stroke-width:0.008;stroke-linecap:round;stroke-linejoin:miter;stroke:rgb(45.098039%,45.098039%,87.058824%);stroke-opacity:1;stroke-miterlimit:10;" d="M 0.585663 1.147575 L 0.593476 1.147575 " transform="matrix(72,0,0,-72,-5.7654,92.4574)"/>
<path style="fill:none;stroke-width:0.006;stroke-linecap:round;stroke-linejoin:miter;stroke:rgb(45.098039%,45.098039%,87.058824%);stroke-opacity:1;stroke-miterlimit:10;" d="M 0.688311 0.831006 L 0.696286 0.838981 " transform="matrix(72,0,0,-72,-5.7654,92.4574)"/>
<path style="fill:none;stroke-width:0.006;stroke-linecap:round;stroke-linejoin:miter;stroke:rgb(45.098039%,45.098039%,87.058824%);stroke-opacity:1;stroke-miterlimit:10;" d="M 0.688311 0.831006 L 0.688311 0.796012 " transform="matrix(72,0,0,-72,-5.7654,92.4574)"/>
<path style="fill:none;stroke-width:0.006;stroke-linecap:round;stroke-linejoin:miter;stroke:rgb(45.098039%,45.098039%,87.058824%);stroke-opacity:1;stroke-miterlimit:10;" d="M 0.695309 0.789013 L 0.688311 0.796012 " transform="matrix(72,0,0,-72,-5.7654,92.4574)"/>
<path style="fill:none;stroke-width:0.006;stroke-linecap:round;stroke-linejoin:miter;stroke:rgb(45.098039%,45.098039%,87.058824%);stroke-opacity:1;stroke-miterlimit:10;" d="M 0.728295 0.796989 L 0.721297 0.78999 " transform="matrix(72,0,0,-72,-5.7654,92.4574)"/>
<path style="fill:none;stroke-width:0.006;stroke-linecap:round;stroke-linejoin:miter;stroke:rgb(45.098039%,45.098039%,87.058824%);stroke-opacity:1;stroke-miterlimit:10;" d="M 0.728295 0.831982 L 0.728295 0.796989 " transform="matrix(72,0,0,-72,-5.7654,92.4574)"/>
<path style="fill:none;stroke-width:0.006;stroke-linecap:round;stroke-linejoin:miter;stroke:rgb(45.098039%,45.098039%,87.058824%);stroke-opacity:1;stroke-miterlimit:10;" d="M 0.721297 0.838981 L 0.728295 0.831982 " transform="matrix(72,0,0,-72,-5.7654,92.4574)"/>
<path style="fill:none;stroke-width:0.006;stroke-linecap:round;stroke-linejoin:miter;stroke:rgb(45.098039%,45.098039%,87.058824%);stroke-opacity:1;stroke-miterlimit:10;" d="M 0.696286 1.071999 L 0.704315 1.064024 " transform="matrix(72,0,0,-72,-5.7654,92.4574)"/>
<path style="fill:none;stroke-width:0.006;stroke-linecap:round;stroke-linejoin:miter;stroke:rgb(45.098039%,45.098039%,87.058824%);stroke-opacity:1;stroke-miterlimit:10;" d="M 0.661292 1.071999 L 0.696286 1.071999 " transform="matrix(72,0,0,-72,-5.7654,92.4574)"/>
<path style="fill:none;stroke-width:0.006;stroke-linecap:round;stroke-linejoin:miter;stroke:rgb(45.098039%,45.098039%,87.058824%);stroke-opacity:1;stroke-miterlimit:10;" d="M 0.654294 1.065001 L 0.661292 1.071999 " transform="matrix(72,0,0,-72,-5.7654,92.4574)"/>
<path style="fill:none;stroke-width:0.006;stroke-linecap:round;stroke-linejoin:miter;stroke:rgb(45.098039%,45.098039%,87.058824%);stroke-opacity:1;stroke-miterlimit:10;" d="M 0.662323 1.032015 L 0.655325 1.039013 " transform="matrix(72,0,0,-72,-5.7654,92.4574)"/>
<path style="fill:none;stroke-width:0.006;stroke-linecap:round;stroke-linejoin:miter;stroke:rgb(45.098039%,45.098039%,87.058824%);stroke-opacity:1;stroke-miterlimit:10;" d="M 0.662323 1.032015 L 0.697317 1.032015 " transform="matrix(72,0,0,-72,-5.7654,92.4574)"/>
<path style="fill:none;stroke-width:0.006;stroke-linecap:round;stroke-linejoin:miter;stroke:rgb(45.098039%,45.098039%,87.058824%);stroke-opacity:1;stroke-miterlimit:10;" d="M 0.704315 1.039013 L 0.697317 1.032015 " transform="matrix(72,0,0,-72,-5.7654,92.4574)"/>
<path style="fill:none;stroke-width:0.004;stroke-linecap:round;stroke-linejoin:miter;stroke:rgb(45.098039%,45.098039%,87.058824%);stroke-opacity:1;stroke-miterlimit:10;" d="M 0.558048 1.098475 L 0.578068 1.098475 " transform="matrix(72,0,0,-72,-5.7654,92.4574)"/>
<path style="fill:none;stroke-width:0.004;stroke-linecap:round;stroke-linejoin:miter;stroke:rgb(45.098039%,45.098039%,87.058824%);stroke-opacity:1;stroke-miterlimit:10;" d="M 0.578068 1.098475 L 0.583059 1.103521 " transform="matrix(72,0,0,-72,-5.7654,92.4574)"/>
<path style="fill:none;stroke-width:0.004;stroke-linecap:round;stroke-linejoin:miter;stroke:rgb(45.098039%,45.098039%,87.058824%);stroke-opacity:1;stroke-miterlimit:10;" d="M 0.583059 1.103521 L 0.583059 1.113503 " transform="matrix(72,0,0,-72,-5.7654,92.4574)"/>
<path style="fill:none;stroke-width:0.004;stroke-linecap:round;stroke-linejoin:miter;stroke:rgb(45.098039%,45.098039%,87.058824%);stroke-opacity:1;stroke-miterlimit:10;" d="M 0.578068 1.118495 L 0.583059 1.113503 " transform="matrix(72,0,0,-72,-5.7654,92.4574)"/>
<path style="fill:none;stroke-width:0.004;stroke-linecap:round;stroke-linejoin:miter;stroke:rgb(45.098039%,45.098039%,87.058824%);stroke-opacity:1;stroke-miterlimit:10;" d="M 0.563094 1.118495 L 0.578068 1.118495 " transform="matrix(72,0,0,-72,-5.7654,92.4574)"/>
<path style="fill:none;stroke-width:0.004;stroke-linecap:round;stroke-linejoin:miter;stroke:rgb(45.098039%,45.098039%,87.058824%);stroke-opacity:1;stroke-miterlimit:10;" d="M 0.563094 1.098475 L 0.563094 1.138514 " transform="matrix(72,0,0,-72,-5.7654,92.4574)"/>
<path style="fill:none;stroke-width:0.004;stroke-linecap:round;stroke-linejoin:miter;stroke:rgb(45.098039%,45.098039%,87.058824%);stroke-opacity:1;stroke-miterlimit:10;" d="M 0.571069 1.118495 L 0.583059 1.138514 " transform="matrix(72,0,0,-72,-5.7654,92.4574)"/>
<path style="fill:none;stroke-width:0.004;stroke-linecap:round;stroke-linejoin:miter;stroke:rgb(45.098039%,45.098039%,87.058824%);stroke-opacity:1;stroke-miterlimit:10;" d="M 0.595049 1.106505 L 0.603078 1.098475 " transform="matrix(72,0,0,-72,-5.7654,92.4574)"/>
<path style="fill:none;stroke-width:0.004;stroke-linecap:round;stroke-linejoin:miter;stroke:rgb(45.098039%,45.098039%,87.058824%);stroke-opacity:1;stroke-miterlimit:10;" d="M 0.603078 1.098475 L 0.603078 1.138514 " transform="matrix(72,0,0,-72,-5.7654,92.4574)"/>
<path style="fill:none;stroke-width:0.004;stroke-linecap:round;stroke-linejoin:miter;stroke:rgb(45.098039%,45.098039%,87.058824%);stroke-opacity:1;stroke-miterlimit:10;" d="M 0.595049 1.138514 L 0.610077 1.138514 " transform="matrix(72,0,0,-72,-5.7654,92.4574)"/>
</g>
</svg>
