G04 This is an RS-274x file exported by *
G04 gerbv version 2.7.0 *
G04 More information is available about gerbv at *
G04 http://gerbv.geda-project.org/ *
G04 --End of header info--*
%MOIN*%
%FSLAX36Y36*%
%IPPOS*%
G04 --Define apertures--*
%ADD10C,0.0080*%
%ADD11C,0.0040*%
%ADD12C,0.0060*%
%ADD13C,0.0729*%
%ADD14C,0.1162*%
%ADD15C,0.0572*%
%ADD16C,0.1005*%
%ADD17C,0.0532*%
%ADD18C,0.0454*%
%ADD19C,0.0001*%
%ADD20C,0.0490*%
%ADD21C,0.0510*%
%ADD22C,0.0940*%
%ADD23C,0.0350*%
%ADD24C,0.0790*%
%ADD25C,0.0300*%
%ADD26C,0.0200*%
%ADD27C,0.0100*%
G04 --Start main section--*
G54D10*
G01X0400330Y6757450D02*
G01X0408190Y6757450D01*
G01X0400330Y6812550D02*
G01X0408190Y6812550D01*
G54D11*
G01X0372760Y6763500D02*
G01X0392760Y6763500D01*
G01X0392760Y6763500D02*
G01X0397760Y6768500D01*
G01X0397760Y6768500D02*
G01X0397760Y6778500D01*
G01X0392760Y6783500D02*
G01X0397760Y6778500D01*
G01X0377760Y6783500D02*
G01X0392760Y6783500D01*
G01X0377760Y6763500D02*
G01X0377760Y6803500D01*
G01X0385760Y6783500D02*
G01X0397760Y6803500D01*
G01X0409760Y6771500D02*
G01X0417760Y6763500D01*
G01X0417760Y6763500D02*
G01X0417760Y6803500D01*
G01X0409760Y6803500D02*
G01X0424760Y6803500D01*
G01X0000000Y0000000D02*
G54D12*
G01X0110000Y6930000D02*
G01X0110000Y5950000D01*
G01X0110000Y5950000D02*
G01X0830000Y5950000D01*
G01X0830000Y5950000D02*
G01X0830000Y6930000D01*
G01X0830000Y6930000D02*
G01X0110000Y6930000D01*
G01X0000000Y0000000D02*
G54D13*
G01X0339250Y6164800D03*
G01X0207870Y6735040D03*
G54D14*
G01X0200000Y6600000D03*
G54D15*
G01X0319290Y6635430D03*
G01X0184250Y6375200D03*
G01X0284650Y6375200D03*
G01X0635040Y6375200D03*
G01X0735430Y6375200D03*
G54D13*
G01X0711810Y6735040D03*
G54D14*
G01X0719690Y6600000D03*
G54D15*
G01X0479920Y6635430D03*
G01X0560240Y6635430D03*
G01X0399610Y6635430D03*
G01X0439760Y6564570D03*
G01X0359450Y6564570D03*
G01X0520080Y6564570D03*
G01X0600390Y6564570D03*
G54D16*
G01X0694690Y6065000D03*
G54D13*
G01X0659250Y6139800D03*
G54D17*
G01X0718310Y6135870D03*
G54D16*
G01X0534690Y6090000D03*
G54D13*
G01X0499250Y6164800D03*
G54D17*
G01X0558310Y6160870D03*
G54D18*
G01X0593740Y6129370D03*
G01X0753740Y6104370D03*
G54D16*
G01X0374690Y6090000D03*
G01X0214690Y6065000D03*
G54D13*
G01X0179250Y6139800D03*
G54D17*
G01X0238310Y6135870D03*
G54D18*
G01X0273740Y6104370D03*
G54D17*
G01X0398310Y6160870D03*
G54D18*
G01X0433740Y6129370D03*
G54D19*
G36*
G01X0397420Y6817520D02*
G01X0340240Y6817520D01*
G01X0340240Y6752480D01*
G01X0397420Y6752480D01*
G01X0397420Y6817520D01*
G37*
G36*
G01X0468280Y6817520D02*
G01X0411100Y6817520D01*
G01X0411100Y6752480D01*
G01X0468280Y6752480D01*
G01X0468280Y6817520D01*
G37*
G01X0000000Y0000000D02*
G54D27*
G01X0364700Y6710000D03*
G01X0434700Y6670000D03*
G01X0439700Y6760000D03*
G54D26*
G01X0273700Y6104400D03*
G01X0433700Y6129400D03*
G01X0593700Y6129400D03*
G01X0753700Y6104400D03*
G54D25*
G01X0238300Y6135900D03*
G01X0398300Y6160900D03*
G01X0558300Y6160900D03*
G01X0718300Y6135900D03*
G54D23*
G01X0184300Y6375200D03*
G01X0284600Y6375200D03*
G01X0319300Y6635400D03*
G01X0359400Y6564600D03*
G01X0399600Y6635400D03*
G01X0439800Y6564600D03*
G01X0479900Y6635400D03*
G01X0520100Y6564600D03*
G01X0560200Y6635400D03*
G01X0600400Y6564600D03*
G01X0635000Y6375200D03*
G01X0735400Y6375200D03*
G54D20*
G01X0179300Y6139800D03*
G01X0339300Y6164800D03*
G01X0499300Y6164800D03*
G01X0659300Y6139800D03*
G54D21*
G01X0207900Y6735000D03*
G01X0711800Y6735000D03*
G54D24*
G01X0214700Y6065000D03*
G01X0374700Y6090000D03*
G01X0534700Y6090000D03*
G01X0694700Y6065000D03*
G54D22*
G01X0200000Y6600000D03*
G01X0719700Y6600000D03*
M02*
