G04 This is an RS-274x file exported by *
G04 gerbv version 2.7.0 *
G04 More information is available about gerbv at *
G04 http://gerbv.geda-project.org/ *
G04 --End of header info--*
%MOIN*%
%FSLAX36Y36*%
%IPPOS*%
G04 --Define apertures--*
%ADD10C,0.0080*%
%ADD11C,0.0060*%
%ADD12C,0.0040*%
%ADD13C,0.1005*%
%ADD14C,0.0729*%
%ADD15C,0.0532*%
%ADD16C,0.0454*%
%ADD17C,0.1162*%
%ADD18C,0.0572*%
%ADD19C,0.0001*%
%ADD20C,0.0200*%
%ADD21C,0.0790*%
%ADD22C,0.0490*%
%ADD23C,0.0300*%
%ADD24C,0.0510*%
%ADD25C,0.0940*%
%ADD26C,0.0350*%
%ADD27C,0.0130*%
%ADD28C,0.0100*%
G04 --Start main section--*
G54D10*
G01X0585640Y1092450D02*
G01X0593500Y1092450D01*
G01X0585640Y1147550D02*
G01X0593500Y1147550D01*
G54D11*
G01X0783000Y1006000D02*
G01X0791000Y1014000D01*
G01X0783000Y1006000D02*
G01X0783000Y0971000D01*
G01X0790000Y0964000D02*
G01X0783000Y0971000D01*
G01X0823000Y0972000D02*
G01X0816000Y0965000D01*
G01X0823000Y1007000D02*
G01X0823000Y0972000D01*
G01X0816000Y1014000D02*
G01X0823000Y1007000D01*
G01X0696310Y1072000D02*
G01X0704310Y1064000D01*
G01X0661310Y1072000D02*
G01X0696310Y1072000D01*
G01X0654310Y1065000D02*
G01X0661310Y1072000D01*
G01X0662310Y1032000D02*
G01X0655310Y1039000D01*
G01X0662310Y1032000D02*
G01X0697310Y1032000D01*
G01X0704310Y1039000D02*
G01X0697310Y1032000D01*
G54D12*
G01X0558070Y1098500D02*
G01X0578070Y1098500D01*
G01X0578070Y1098500D02*
G01X0583070Y1103500D01*
G01X0583070Y1103500D02*
G01X0583070Y1113500D01*
G01X0578070Y1118500D02*
G01X0583070Y1113500D01*
G01X0563070Y1118500D02*
G01X0578070Y1118500D01*
G01X0563070Y1098500D02*
G01X0563070Y1138500D01*
G01X0571070Y1118500D02*
G01X0583070Y1138500D01*
G01X0595070Y1106500D02*
G01X0603070Y1098500D01*
G01X0603070Y1098500D02*
G01X0603070Y1138500D01*
G01X0595070Y1138500D02*
G01X0610070Y1138500D01*
G01X0000000Y0000000D02*
G54D11*
G01X1015310Y1265000D02*
G01X0285000Y1265000D01*
G01X1015000Y1265000D02*
G01X1015000Y1205000D01*
G01X1015000Y1205000D02*
G01X1180000Y1205000D01*
G01X1015000Y0405000D02*
G01X1020000Y0400000D01*
G01X1020000Y0400000D02*
G01X1180000Y0400000D01*
G01X1180000Y0400000D02*
G01X1180000Y0135000D01*
G01X1015000Y0405000D02*
G01X1015000Y0940000D01*
G01X1180000Y1205000D02*
G01X1180000Y0940000D01*
G01X1180000Y0940000D02*
G01X1015000Y0940000D01*
G01X1180000Y0135000D02*
G01X0990000Y0135000D01*
G01X0280000Y0400000D02*
G01X0285000Y0405000D01*
G01X0280000Y0400000D02*
G01X0110000Y0400000D01*
G01X0110000Y0400000D02*
G01X0110000Y0135000D01*
G01X0110000Y0135000D02*
G01X0300000Y0135000D01*
G01X0300000Y0135000D02*
G01X0300000Y0280000D01*
G01X0990000Y0135000D02*
G01X0990000Y0280000D01*
G01X0990000Y0280000D02*
G01X0300000Y0280000D01*
G01X0285000Y1265000D02*
G01X0285000Y1205000D01*
G01X0110000Y1205000D02*
G01X0110000Y0940000D01*
G01X0110000Y0940000D02*
G01X0285000Y0940000D01*
G01X0285000Y0940000D02*
G01X0285000Y0405000D01*
G01X0110000Y1205000D02*
G01X0285000Y1205000D01*
G01X0000000Y0000000D02*
G54D13*
G01X1080000Y1070000D03*
G54D14*
G01X1044570Y1144800D03*
G54D15*
G01X1103620Y1140870D03*
G54D16*
G01X1139060Y1109370D03*
G54D14*
G01X0897130Y1070040D03*
G54D17*
G01X0905000Y0935000D03*
G54D13*
G01X1080000Y0200000D03*
G54D14*
G01X1044570Y0274800D03*
G54D15*
G01X1103620Y0270870D03*
G54D16*
G01X1139060Y0239370D03*
G54D15*
G01X0743620Y0495870D03*
G54D16*
G01X0779060Y0464370D03*
G54D14*
G01X0844570Y0474800D03*
G54D15*
G01X0903620Y0470870D03*
G54D18*
G01X0820350Y0710200D03*
G01X0920750Y0710200D03*
G54D13*
G01X0200000Y1070000D03*
G54D14*
G01X0164570Y1144800D03*
G54D15*
G01X0223620Y1140870D03*
G54D16*
G01X0259060Y1109370D03*
G54D14*
G01X0393190Y1070040D03*
G54D17*
G01X0385310Y0935000D03*
G54D18*
G01X0584920Y0970430D03*
G01X0504610Y0970430D03*
G01X0544760Y0899570D03*
G01X0665240Y0970430D03*
G01X0745550Y0970430D03*
G01X0625080Y0899570D03*
G01X0705390Y0899570D03*
G01X0785710Y0899570D03*
G54D13*
G01X0200000Y0200000D03*
G54D14*
G01X0164570Y0274800D03*
G54D15*
G01X0223620Y0270870D03*
G54D16*
G01X0259060Y0239370D03*
G54D13*
G01X0720000Y0425000D03*
G01X0880000Y0400000D03*
G54D16*
G01X0939060Y0439370D03*
G54D13*
G01X0560000Y0425000D03*
G01X0400000Y0400000D03*
G54D16*
G01X0459060Y0439370D03*
G54D14*
G01X0684570Y0499800D03*
G01X0524570Y0499800D03*
G54D15*
G01X0583620Y0495870D03*
G54D16*
G01X0619060Y0464370D03*
G54D14*
G01X0364570Y0474800D03*
G54D15*
G01X0423620Y0470870D03*
G54D18*
G01X0369570Y0710200D03*
G01X0469960Y0710200D03*
G54D19*
G36*
G01X0582730Y1152520D02*
G01X0525550Y1152520D01*
G01X0525550Y1087480D01*
G01X0582730Y1087480D01*
G01X0582730Y1152520D01*
G37*
G36*
G01X0653590Y1152520D02*
G01X0596410Y1152520D01*
G01X0596410Y1087480D01*
G01X0653590Y1087480D01*
G01X0653590Y1152520D01*
G37*
G54D20*
G01X0664310Y1065000D02*
G01X0694310Y1065000D01*
G01X0694310Y1065000D02*
G01X0701310Y1058000D01*
G54D19*
G36*
G01X0691310Y1068000D02*
G01X0691310Y1048000D01*
G01X0716310Y1048000D01*
G01X0716310Y1068000D01*
G01X0691310Y1068000D01*
G37*
G54D20*
G01X0685310Y1059000D02*
G01X0691310Y1065000D01*
G01X0679310Y1065000D02*
G01X0685310Y1059000D01*
G01X0657310Y1058000D02*
G01X0664310Y1065000D01*
G54D19*
G36*
G01X0632310Y1068000D02*
G01X0632310Y1048000D01*
G01X0667310Y1048000D01*
G01X0667310Y1068000D01*
G01X0632310Y1068000D01*
G37*
G54D20*
G01X0667310Y1065000D02*
G01X0673310Y1059000D01*
G01X0673310Y1059000D02*
G01X0679310Y1065000D01*
G01X0664310Y1039000D02*
G01X0695310Y1039000D01*
G01X0664310Y1039000D02*
G01X0666310Y1039000D01*
G01X0695310Y1039000D02*
G01X0701310Y1045000D01*
G54D19*
G36*
G01X0691310Y1055000D02*
G01X0691310Y1035000D01*
G01X0716310Y1035000D01*
G01X0716310Y1055000D01*
G01X0691310Y1055000D01*
G37*
G54D20*
G01X0658310Y1045000D02*
G01X0664310Y1039000D01*
G54D19*
G36*
G01X0632310Y1055000D02*
G01X0632310Y1035000D01*
G01X0668310Y1035000D01*
G01X0668310Y1055000D01*
G01X0632310Y1055000D01*
G37*
G54D20*
G01X0666310Y1039000D02*
G01X0673310Y1046000D01*
G01X0673310Y1046000D02*
G01X0680310Y1039000D01*
G01X0678310Y1039000D02*
G01X0685310Y1046000D01*
G01X0685310Y1046000D02*
G01X0692310Y1039000D01*
G01X0790000Y1004000D02*
G01X0790000Y0974000D01*
G01X0790000Y1004000D02*
G01X0797000Y1011000D01*
G54D19*
G36*
G01X0807000Y1026000D02*
G01X0787000Y1026000D01*
G01X0787000Y1001000D01*
G01X0807000Y1001000D01*
G01X0807000Y1026000D01*
G37*
G54D20*
G01X0790000Y1001000D02*
G01X0796000Y0995000D01*
G01X0790000Y0989000D02*
G01X0796000Y0995000D01*
G01X0790000Y0974000D02*
G01X0797000Y0967000D01*
G54D19*
G36*
G01X0807000Y0977000D02*
G01X0787000Y0977000D01*
G01X0787000Y0942000D01*
G01X0807000Y0942000D01*
G01X0807000Y0977000D01*
G37*
G54D20*
G01X0790000Y0977000D02*
G01X0796000Y0983000D01*
G01X0790000Y0989000D02*
G01X0796000Y0983000D01*
G01X0816000Y1005000D02*
G01X0816000Y0974000D01*
G01X0816000Y0976000D02*
G01X0816000Y0974000D01*
G01X0810000Y1011000D02*
G01X0816000Y1005000D01*
G54D19*
G36*
G01X0820000Y1026000D02*
G01X0800000Y1026000D01*
G01X0800000Y1001000D01*
G01X0820000Y1001000D01*
G01X0820000Y1026000D01*
G37*
G54D20*
G01X0810000Y0968000D02*
G01X0816000Y0974000D01*
G54D19*
G36*
G01X0820000Y0978000D02*
G01X0800000Y0978000D01*
G01X0800000Y0942000D01*
G01X0820000Y0942000D01*
G01X0820000Y0978000D01*
G37*
G54D20*
G01X0809000Y0983000D02*
G01X0816000Y0976000D01*
G01X0809000Y0983000D02*
G01X0816000Y0990000D01*
G01X0809000Y0995000D02*
G01X0816000Y0988000D01*
G01X0809000Y0995000D02*
G01X0816000Y1002000D01*
G01X0000000Y0000000D02*
G54D28*
G01X0550000Y1045000D03*
G01X0625000Y1095000D03*
G54D27*
G01X0360000Y1015000D03*
G01X0425000Y1015000D03*
G01X0545000Y0665000D03*
G01X0575000Y0835000D03*
G01X0620000Y1005000D03*
G01X0620000Y0800000D03*
G01X0620000Y0660000D03*
G01X0675000Y0820000D03*
G01X0675000Y0660000D03*
G01X0735000Y0790000D03*
G01X0735000Y0665000D03*
G01X0795000Y0830000D03*
G01X0930000Y1010000D03*
G54D20*
G01X0259100Y1109400D03*
G01X0259100Y0239400D03*
G01X0459100Y0439400D03*
G01X0619100Y0464400D03*
G01X0779100Y0464400D03*
G01X0939100Y0439400D03*
G01X1139100Y1109400D03*
G01X1139100Y0239400D03*
G54D23*
G01X0223600Y1140900D03*
G01X0223600Y0270900D03*
G01X0423600Y0470900D03*
G01X0583600Y0495900D03*
G01X0743600Y0495900D03*
G01X0903600Y0470900D03*
G01X1103600Y1140900D03*
G01X1103600Y0270900D03*
G54D26*
G01X0369600Y0710200D03*
G01X0470000Y0710200D03*
G01X0504600Y0970400D03*
G01X0544800Y0899600D03*
G01X0584900Y0970400D03*
G01X0625100Y0899600D03*
G01X0665200Y0970400D03*
G01X0705400Y0899600D03*
G01X0745600Y0970400D03*
G01X0785700Y0899600D03*
G01X0820400Y0710200D03*
G01X0920700Y0710200D03*
G54D22*
G01X0164600Y1144800D03*
G01X0164600Y0274800D03*
G01X0364600Y0474800D03*
G01X0524600Y0499800D03*
G01X0684600Y0499800D03*
G01X0844600Y0474800D03*
G01X1044600Y1144800D03*
G01X1044600Y0274800D03*
G54D24*
G01X0393200Y1070000D03*
G01X0897100Y1070000D03*
G54D21*
G01X0200000Y1070000D03*
G01X0200000Y0200000D03*
G01X0400000Y0400000D03*
G01X0560000Y0425000D03*
G01X0720000Y0425000D03*
G01X0880000Y0400000D03*
G01X1080000Y1070000D03*
G01X1080000Y0200000D03*
G54D25*
G01X0385300Y0935000D03*
G01X0905000Y0935000D03*
M02*
