G04 This is an RS-274x file exported by *
G04 gerbv version 2.7.0 *
G04 More information is available about gerbv at *
G04 http://gerbv.geda-project.org/ *
G04 --End of header info--*
%MOIN*%
%FSLAX36Y36*%
%IPPOS*%
G04 --Define apertures--*
%ADD10C,0.0060*%
%ADD11C,0.0030*%
%ADD12C,0.0040*%
%ADD13C,0.0100*%
%ADD14C,0.0250*%
%ADD15C,0.0729*%
%ADD16C,0.1162*%
%ADD17C,0.0572*%
%ADD18C,0.1005*%
%ADD19C,0.0532*%
%ADD20C,0.0454*%
%ADD21C,0.0490*%
%ADD22C,0.0510*%
%ADD23C,0.0940*%
%ADD24C,0.0350*%
%ADD25C,0.0790*%
%ADD26C,0.0300*%
%ADD27C,0.0200*%
G04 --Start main section--*
G54D10*
G01X0326720Y0895430D02*
G01X0310980Y0879690D01*
G01X0326720Y0879690D02*
G01X0310980Y0895430D01*
G54D11*
G01X0612050Y0685000D02*
G01X0615800Y0688750D01*
G01X0606050Y0685000D02*
G01X0612050Y0685000D01*
G01X0606050Y0685000D02*
G01X0600800Y0690250D01*
G01X0600800Y0694750D02*
G01X0600800Y0690250D01*
G01X0600800Y0694750D02*
G01X0606050Y0700000D01*
G01X0606050Y0700000D02*
G01X0612050Y0700000D01*
G01X0615800Y0696250D02*
G01X0612050Y0700000D01*
G01X0615800Y0696250D02*
G01X0615800Y0688750D01*
G01X0595550Y0685000D02*
G01X0600800Y0690250D01*
G01X0589550Y0685000D02*
G01X0595550Y0685000D01*
G01X0589550Y0685000D02*
G01X0585800Y0688750D01*
G01X0585800Y0696250D02*
G01X0585800Y0688750D01*
G01X0585800Y0696250D02*
G01X0589550Y0700000D01*
G01X0589550Y0700000D02*
G01X0595550Y0700000D01*
G01X0600800Y0694750D02*
G01X0595550Y0700000D01*
G01X0612050Y0709000D02*
G01X0589550Y0731500D01*
G01X0615800Y0755500D02*
G01X0615800Y0740500D01*
G01X0615800Y0755500D02*
G01X0612050Y0759250D01*
G01X0603050Y0759250D02*
G01X0612050Y0759250D01*
G01X0599300Y0755500D02*
G01X0603050Y0759250D01*
G01X0599300Y0755500D02*
G01X0599300Y0744250D01*
G01X0585800Y0744250D02*
G01X0615800Y0744250D01*
G01X0585800Y0755500D02*
G01X0585800Y0740500D01*
G01X0585800Y0755500D02*
G01X0589550Y0759250D01*
G01X0589550Y0759250D02*
G01X0595550Y0759250D01*
G01X0599300Y0755500D02*
G01X0595550Y0759250D01*
G01X0604550Y0772000D02*
G01X0615800Y0772000D01*
G01X0604550Y0772000D02*
G01X0600800Y0775750D01*
G01X0600800Y0783250D02*
G01X0600800Y0775750D01*
G01X0600800Y0768250D02*
G01X0604550Y0772000D01*
G01X0566980Y0937180D02*
G01X0536980Y0952180D01*
G01X0536980Y0952180D02*
G01X0536980Y0933430D01*
G01X0563230Y0961180D02*
G01X0540730Y0983680D01*
G01X0536980Y0992680D02*
G01X0551980Y0992680D01*
G01X0551980Y0992680D02*
G01X0566980Y0996430D01*
G01X0566980Y0996430D02*
G01X0551980Y1003930D01*
G01X0551980Y1003930D02*
G01X0566980Y1011430D01*
G01X0566980Y1011430D02*
G01X0551980Y1015180D01*
G01X0536980Y1015180D02*
G01X0551980Y1015180D01*
G01X0566980Y1039180D02*
G01X0566980Y1024180D01*
G01X0566980Y1039180D02*
G01X0563230Y1042930D01*
G01X0554230Y1042930D02*
G01X0563230Y1042930D01*
G01X0550480Y1039180D02*
G01X0554230Y1042930D01*
G01X0550480Y1039180D02*
G01X0550480Y1027930D01*
G01X0536980Y1027930D02*
G01X0566980Y1027930D01*
G01X0536980Y1039180D02*
G01X0536980Y1024180D01*
G01X0536980Y1039180D02*
G01X0540730Y1042930D01*
G01X0540730Y1042930D02*
G01X0546730Y1042930D01*
G01X0550480Y1039180D02*
G01X0546730Y1042930D01*
G01X0555730Y1055680D02*
G01X0566980Y1055680D01*
G01X0555730Y1055680D02*
G01X0551980Y1059430D01*
G01X0551980Y1066930D02*
G01X0551980Y1059430D01*
G01X0551980Y1051930D02*
G01X0555730Y1055680D01*
G01X0513160Y0696250D02*
G01X0516910Y0700000D01*
G01X0513160Y0696250D02*
G01X0513160Y0688750D01*
G01X0516910Y0685000D02*
G01X0513160Y0688750D01*
G01X0516910Y0685000D02*
G01X0539410Y0685000D01*
G01X0539410Y0685000D02*
G01X0543160Y0688750D01*
G01X0526660Y0696250D02*
G01X0530410Y0700000D01*
G01X0526660Y0696250D02*
G01X0526660Y0685000D01*
G01X0543160Y0696250D02*
G01X0543160Y0688750D01*
G01X0543160Y0696250D02*
G01X0539410Y0700000D01*
G01X0530410Y0700000D02*
G01X0539410Y0700000D01*
G01X0539410Y0709000D02*
G01X0516910Y0731500D01*
G01X0516910Y0740500D02*
G01X0539410Y0740500D01*
G01X0516910Y0740500D02*
G01X0513160Y0744250D01*
G01X0513160Y0751750D02*
G01X0513160Y0744250D01*
G01X0513160Y0751750D02*
G01X0516910Y0755500D01*
G01X0516910Y0755500D02*
G01X0539410Y0755500D01*
G01X0543160Y0751750D02*
G01X0539410Y0755500D01*
G01X0543160Y0751750D02*
G01X0543160Y0744250D01*
G01X0539410Y0740500D02*
G01X0543160Y0744250D01*
G01X0456470Y0948430D02*
G01X0456470Y0933430D01*
G01X0456470Y0933430D02*
G01X0471470Y0933430D01*
G01X0471470Y0933430D02*
G01X0467720Y0937180D01*
G01X0467720Y0944680D02*
G01X0467720Y0937180D01*
G01X0467720Y0944680D02*
G01X0471470Y0948430D01*
G01X0471470Y0948430D02*
G01X0482720Y0948430D01*
G01X0486470Y0944680D02*
G01X0482720Y0948430D01*
G01X0486470Y0944680D02*
G01X0486470Y0937180D01*
G01X0482720Y0933430D02*
G01X0486470Y0937180D01*
G01X0482720Y0957430D02*
G01X0460220Y0979930D01*
G01X0456470Y0988930D02*
G01X0471470Y0988930D01*
G01X0471470Y0988930D02*
G01X0486470Y0992680D01*
G01X0486470Y0992680D02*
G01X0471470Y1000180D01*
G01X0471470Y1000180D02*
G01X0486470Y1007680D01*
G01X0486470Y1007680D02*
G01X0471470Y1011430D01*
G01X0456470Y1011430D02*
G01X0471470Y1011430D01*
G01X0486470Y1035430D02*
G01X0486470Y1020430D01*
G01X0486470Y1035430D02*
G01X0482720Y1039180D01*
G01X0473720Y1039180D02*
G01X0482720Y1039180D01*
G01X0469970Y1035430D02*
G01X0473720Y1039180D01*
G01X0469970Y1035430D02*
G01X0469970Y1024180D01*
G01X0456470Y1024180D02*
G01X0486470Y1024180D01*
G01X0456470Y1035430D02*
G01X0456470Y1020430D01*
G01X0456470Y1035430D02*
G01X0460220Y1039180D01*
G01X0460220Y1039180D02*
G01X0466220Y1039180D01*
G01X0469970Y1035430D02*
G01X0466220Y1039180D01*
G01X0456470Y1048180D02*
G01X0482720Y1048180D01*
G01X0482720Y1048180D02*
G01X0486470Y1051930D01*
G01X0430340Y0681060D02*
G01X0411590Y0696060D01*
G01X0430340Y0699810D02*
G01X0430340Y0681060D01*
G01X0411590Y0696060D02*
G01X0441590Y0696060D01*
G01X0437840Y0708810D02*
G01X0415340Y0731310D01*
G01X0441590Y0755310D02*
G01X0441590Y0740310D01*
G01X0441590Y0755310D02*
G01X0437840Y0759060D01*
G01X0428840Y0759060D02*
G01X0437840Y0759060D01*
G01X0425090Y0755310D02*
G01X0428840Y0759060D01*
G01X0425090Y0755310D02*
G01X0425090Y0744060D01*
G01X0411590Y0744060D02*
G01X0441590Y0744060D01*
G01X0411590Y0755310D02*
G01X0411590Y0740310D01*
G01X0411590Y0755310D02*
G01X0415340Y0759060D01*
G01X0415340Y0759060D02*
G01X0421340Y0759060D01*
G01X0425090Y0755310D02*
G01X0421340Y0759060D01*
G01X0411590Y0768060D02*
G01X0437840Y0768060D01*
G01X0437840Y0768060D02*
G01X0441590Y0771810D01*
G01X0387580Y0933430D02*
G01X0383830Y0937180D01*
G01X0383830Y0944680D02*
G01X0383830Y0937180D01*
G01X0383830Y0944680D02*
G01X0387580Y0948430D01*
G01X0413830Y0944680D02*
G01X0410080Y0948430D01*
G01X0413830Y0944680D02*
G01X0413830Y0937180D01*
G01X0410080Y0933430D02*
G01X0413830Y0937180D01*
G01X0397330Y0944680D02*
G01X0397330Y0937180D01*
G01X0387580Y0948430D02*
G01X0393580Y0948430D01*
G01X0401080Y0948430D02*
G01X0410080Y0948430D01*
G01X0401080Y0948430D02*
G01X0397330Y0944680D01*
G01X0393580Y0948430D02*
G01X0397330Y0944680D01*
G01X0410080Y0957430D02*
G01X0387580Y0979930D01*
G01X0383830Y0988930D02*
G01X0398830Y0988930D01*
G01X0398830Y0988930D02*
G01X0413830Y0992680D01*
G01X0413830Y0992680D02*
G01X0398830Y1000180D01*
G01X0398830Y1000180D02*
G01X0413830Y1007680D01*
G01X0413830Y1007680D02*
G01X0398830Y1011430D01*
G01X0383830Y1011430D02*
G01X0398830Y1011430D01*
G01X0387580Y1020430D02*
G01X0410080Y1020430D01*
G01X0387580Y1020430D02*
G01X0383830Y1024180D01*
G01X0383830Y1031680D02*
G01X0383830Y1024180D01*
G01X0383830Y1031680D02*
G01X0387580Y1035430D01*
G01X0387580Y1035430D02*
G01X0410080Y1035430D01*
G01X0413830Y1031680D02*
G01X0410080Y1035430D01*
G01X0413830Y1031680D02*
G01X0413830Y1024180D01*
G01X0410080Y1020430D02*
G01X0413830Y1024180D01*
G01X0338760Y0681060D02*
G01X0335010Y0684810D01*
G01X0335010Y0696060D02*
G01X0335010Y0684810D01*
G01X0335010Y0696060D02*
G01X0338760Y0699810D01*
G01X0338760Y0699810D02*
G01X0346260Y0699810D01*
G01X0365010Y0681060D02*
G01X0346260Y0699810D01*
G01X0365010Y0699810D02*
G01X0365010Y0681060D01*
G01X0361260Y0708810D02*
G01X0338760Y0731310D01*
G01X0335010Y0755310D02*
G01X0338760Y0759060D01*
G01X0335010Y0755310D02*
G01X0335010Y0744060D01*
G01X0338760Y0740310D02*
G01X0335010Y0744060D01*
G01X0338760Y0740310D02*
G01X0361260Y0740310D01*
G01X0361260Y0740310D02*
G01X0365010Y0744060D01*
G01X0365010Y0755310D02*
G01X0365010Y0744060D01*
G01X0365010Y0755310D02*
G01X0361260Y0759060D01*
G01X0353760Y0759060D02*
G01X0361260Y0759060D01*
G01X0350010Y0755310D02*
G01X0353760Y0759060D01*
G01X0350010Y0755310D02*
G01X0350010Y0747810D01*
G01X0310300Y0932830D02*
G01X0304300Y0938830D01*
G01X0304300Y0938830D02*
G01X0334300Y0938830D01*
G01X0334300Y0944080D02*
G01X0334300Y0932830D01*
G01X0330550Y0953080D02*
G01X0308050Y0975580D01*
G01X0304300Y0984580D02*
G01X0319300Y0984580D01*
G01X0319300Y0984580D02*
G01X0334300Y0988330D01*
G01X0334300Y0988330D02*
G01X0319300Y0995830D01*
G01X0319300Y0995830D02*
G01X0334300Y1003330D01*
G01X0334300Y1003330D02*
G01X0319300Y1007080D01*
G01X0304300Y1007080D02*
G01X0319300Y1007080D01*
G01X0304300Y1031080D02*
G01X0308050Y1034830D01*
G01X0304300Y1031080D02*
G01X0304300Y1019830D01*
G01X0308050Y1016080D02*
G01X0304300Y1019830D01*
G01X0308050Y1016080D02*
G01X0330550Y1016080D01*
G01X0330550Y1016080D02*
G01X0334300Y1019830D01*
G01X0334300Y1031080D02*
G01X0334300Y1019830D01*
G01X0334300Y1031080D02*
G01X0330550Y1034830D01*
G01X0323050Y1034830D02*
G01X0330550Y1034830D01*
G01X0319300Y1031080D02*
G01X0323050Y1034830D01*
G01X0319300Y1031080D02*
G01X0319300Y1023580D01*
G01X0250110Y0686000D02*
G01X0265110Y0686000D01*
G01X0257610Y0716000D02*
G01X0257610Y0686000D01*
G01X0226110Y0686000D02*
G01X0241110Y0686000D01*
G01X0241110Y0701000D02*
G01X0241110Y0686000D01*
G01X0241110Y0701000D02*
G01X0237360Y0697250D01*
G01X0229860Y0697250D02*
G01X0237360Y0697250D01*
G01X0229860Y0697250D02*
G01X0226110Y0701000D01*
G01X0226110Y0712250D02*
G01X0226110Y0701000D01*
G01X0229860Y0716000D02*
G01X0226110Y0712250D01*
G01X0229860Y0716000D02*
G01X0237360Y0716000D01*
G01X0241110Y0712250D02*
G01X0237360Y0716000D01*
G01X0205860Y0686000D02*
G01X0202110Y0689750D01*
G01X0205860Y0686000D02*
G01X0213360Y0686000D01*
G01X0217110Y0689750D02*
G01X0213360Y0686000D01*
G01X0217110Y0712250D02*
G01X0217110Y0689750D01*
G01X0217110Y0712250D02*
G01X0213360Y0716000D01*
G01X0205860Y0699500D02*
G01X0202110Y0703250D01*
G01X0205860Y0699500D02*
G01X0217110Y0699500D01*
G01X0205860Y0716000D02*
G01X0213360Y0716000D01*
G01X0205860Y0716000D02*
G01X0202110Y0712250D01*
G01X0202110Y0712250D02*
G01X0202110Y0703250D01*
G01X0193110Y0712250D02*
G01X0189360Y0716000D01*
G01X0193110Y0712250D02*
G01X0193110Y0706250D01*
G01X0193110Y0706250D02*
G01X0187860Y0701000D01*
G01X0183360Y0701000D02*
G01X0187860Y0701000D01*
G01X0183360Y0701000D02*
G01X0178110Y0706250D01*
G01X0178110Y0712250D02*
G01X0178110Y0706250D01*
G01X0181860Y0716000D02*
G01X0178110Y0712250D01*
G01X0181860Y0716000D02*
G01X0189360Y0716000D01*
G01X0193110Y0695750D02*
G01X0187860Y0701000D01*
G01X0193110Y0695750D02*
G01X0193110Y0689750D01*
G01X0193110Y0689750D02*
G01X0189360Y0686000D01*
G01X0181860Y0686000D02*
G01X0189360Y0686000D01*
G01X0181860Y0686000D02*
G01X0178110Y0689750D01*
G01X0178110Y0695750D02*
G01X0178110Y0689750D01*
G01X0183360Y0701000D02*
G01X0178110Y0695750D01*
G01X0169110Y0716000D02*
G01X0169110Y0693500D01*
G01X0169110Y0693500D02*
G01X0163860Y0686000D01*
G01X0155610Y0686000D02*
G01X0163860Y0686000D01*
G01X0155610Y0686000D02*
G01X0150360Y0693500D01*
G01X0150360Y0716000D02*
G01X0150360Y0693500D01*
G01X0150360Y0701000D02*
G01X0169110Y0701000D01*
G01X0175750Y0439350D02*
G01X0190750Y0458100D01*
G01X0175750Y0439350D02*
G01X0194500Y0439350D01*
G01X0190750Y0458100D02*
G01X0190750Y0428100D01*
G01X0203500Y0431850D02*
G01X0226000Y0454350D01*
G01X0235000Y0428100D02*
G01X0250000Y0428100D01*
G01X0250000Y0428100D02*
G01X0253750Y0431850D01*
G01X0253750Y0440850D02*
G01X0253750Y0431850D01*
G01X0250000Y0444600D02*
G01X0253750Y0440850D01*
G01X0238750Y0444600D02*
G01X0250000Y0444600D01*
G01X0238750Y0458100D02*
G01X0238750Y0428100D01*
G01X0235000Y0458100D02*
G01X0250000Y0458100D01*
G01X0250000Y0458100D02*
G01X0253750Y0454350D01*
G01X0253750Y0454350D02*
G01X0253750Y0448350D01*
G01X0250000Y0444600D02*
G01X0253750Y0448350D01*
G01X0262750Y0458100D02*
G01X0262750Y0431850D01*
G01X0262750Y0431850D02*
G01X0266500Y0428100D01*
G54D12*
G01X0159690Y0495000D02*
G01X0164690Y0490000D01*
G01X0149690Y0495000D02*
G01X0159690Y0495000D01*
G01X0144690Y0490000D02*
G01X0149690Y0495000D01*
G01X0144690Y0490000D02*
G01X0144690Y0480000D01*
G01X0144690Y0480000D02*
G01X0149690Y0475000D01*
G01X0164690Y0495000D02*
G01X0164690Y0480000D01*
G01X0164690Y0480000D02*
G01X0169690Y0475000D01*
G01X0149690Y0475000D02*
G01X0159690Y0475000D01*
G01X0159690Y0475000D02*
G01X0164690Y0480000D01*
G01X0186690Y0515000D02*
G01X0186690Y0475000D01*
G01X0181690Y0515000D02*
G01X0201690Y0515000D01*
G01X0201690Y0515000D02*
G01X0206690Y0510000D01*
G01X0206690Y0510000D02*
G01X0206690Y0500000D01*
G01X0201690Y0495000D02*
G01X0206690Y0500000D01*
G01X0186690Y0495000D02*
G01X0201690Y0495000D01*
G01X0259690Y0515000D02*
G01X0259690Y0475000D01*
G01X0259690Y0480000D02*
G01X0264690Y0475000D01*
G01X0264690Y0475000D02*
G01X0274690Y0475000D01*
G01X0274690Y0475000D02*
G01X0279690Y0480000D01*
G01X0279690Y0490000D02*
G01X0279690Y0480000D01*
G01X0274690Y0495000D02*
G01X0279690Y0490000D01*
G01X0264690Y0495000D02*
G01X0274690Y0495000D01*
G01X0259690Y0490000D02*
G01X0264690Y0495000D01*
G01X0296690Y0515000D02*
G01X0296690Y0475000D01*
G01X0291690Y0515000D02*
G01X0311690Y0515000D01*
G01X0311690Y0515000D02*
G01X0316690Y0510000D01*
G01X0316690Y0510000D02*
G01X0316690Y0500000D01*
G01X0311690Y0495000D02*
G01X0316690Y0500000D01*
G01X0296690Y0495000D02*
G01X0311690Y0495000D01*
G54D11*
G01X0338110Y0487100D02*
G01X0341860Y0490850D01*
G01X0341860Y0490850D02*
G01X0349360Y0490850D01*
G01X0349360Y0490850D02*
G01X0353110Y0487100D01*
G01X0349360Y0460850D02*
G01X0353110Y0464600D01*
G01X0341860Y0460850D02*
G01X0349360Y0460850D01*
G01X0338110Y0464600D02*
G01X0341860Y0460850D01*
G01X0341860Y0477350D02*
G01X0349360Y0477350D01*
G01X0353110Y0487100D02*
G01X0353110Y0481100D01*
G01X0353110Y0473600D02*
G01X0353110Y0464600D01*
G01X0353110Y0473600D02*
G01X0349360Y0477350D01*
G01X0353110Y0481100D02*
G01X0349360Y0477350D01*
G01X0362110Y0464600D02*
G01X0384610Y0487100D01*
G01X0393610Y0490850D02*
G01X0393610Y0475850D01*
G01X0393610Y0475850D02*
G01X0397360Y0460850D01*
G01X0397360Y0460850D02*
G01X0404860Y0475850D01*
G01X0404860Y0475850D02*
G01X0412360Y0460850D01*
G01X0412360Y0460850D02*
G01X0416110Y0475850D01*
G01X0416110Y0490850D02*
G01X0416110Y0475850D01*
G01X0425110Y0487100D02*
G01X0425110Y0464600D01*
G01X0425110Y0487100D02*
G01X0428860Y0490850D01*
G01X0428860Y0490850D02*
G01X0436360Y0490850D01*
G01X0436360Y0490850D02*
G01X0440110Y0487100D01*
G01X0440110Y0487100D02*
G01X0440110Y0464600D01*
G01X0436360Y0460850D02*
G01X0440110Y0464600D01*
G01X0428860Y0460850D02*
G01X0436360Y0460850D01*
G01X0425110Y0464600D02*
G01X0428860Y0460850D01*
G01X0658110Y0458220D02*
G01X0673110Y0458220D01*
G01X0658110Y0458220D02*
G01X0658110Y0443220D01*
G01X0658110Y0443220D02*
G01X0661860Y0446970D01*
G01X0661860Y0446970D02*
G01X0669360Y0446970D01*
G01X0669360Y0446970D02*
G01X0673110Y0443220D01*
G01X0673110Y0443220D02*
G01X0673110Y0431970D01*
G01X0669360Y0428220D02*
G01X0673110Y0431970D01*
G01X0661860Y0428220D02*
G01X0669360Y0428220D01*
G01X0658110Y0431970D02*
G01X0661860Y0428220D01*
G01X0682110Y0431970D02*
G01X0704610Y0454470D01*
G01X0713610Y0458220D02*
G01X0713610Y0443220D01*
G01X0713610Y0443220D02*
G01X0717360Y0428220D01*
G01X0717360Y0428220D02*
G01X0724860Y0443220D01*
G01X0724860Y0443220D02*
G01X0732360Y0428220D01*
G01X0732360Y0428220D02*
G01X0736110Y0443220D01*
G01X0736110Y0458220D02*
G01X0736110Y0443220D01*
G01X0745110Y0428220D02*
G01X0760110Y0428220D01*
G01X0760110Y0428220D02*
G01X0763860Y0431970D01*
G01X0763860Y0440970D02*
G01X0763860Y0431970D01*
G01X0760110Y0444720D02*
G01X0763860Y0440970D01*
G01X0748860Y0444720D02*
G01X0760110Y0444720D01*
G01X0748860Y0458220D02*
G01X0748860Y0428220D01*
G01X0745110Y0458220D02*
G01X0760110Y0458220D01*
G01X0760110Y0458220D02*
G01X0763860Y0454470D01*
G01X0763860Y0454470D02*
G01X0763860Y0448470D01*
G01X0760110Y0444720D02*
G01X0763860Y0448470D01*
G01X0772860Y0458220D02*
G01X0772860Y0431970D01*
G01X0772860Y0431970D02*
G01X0776610Y0428220D01*
G54D12*
G01X0619690Y0520000D02*
G01X0619690Y0480000D01*
G01X0619690Y0485000D02*
G01X0624690Y0480000D01*
G01X0624690Y0480000D02*
G01X0634690Y0480000D01*
G01X0634690Y0480000D02*
G01X0639690Y0485000D01*
G01X0639690Y0495000D02*
G01X0639690Y0485000D01*
G01X0634690Y0500000D02*
G01X0639690Y0495000D01*
G01X0624690Y0500000D02*
G01X0634690Y0500000D01*
G01X0619690Y0495000D02*
G01X0624690Y0500000D01*
G01X0651690Y0520000D02*
G01X0651690Y0480000D01*
G01X0651690Y0520000D02*
G01X0666690Y0500000D01*
G01X0666690Y0500000D02*
G01X0681690Y0520000D01*
G01X0681690Y0520000D02*
G01X0681690Y0480000D01*
G01X0729690Y0500000D02*
G01X0734690Y0495000D01*
G01X0719690Y0500000D02*
G01X0729690Y0500000D01*
G01X0714690Y0495000D02*
G01X0719690Y0500000D01*
G01X0714690Y0495000D02*
G01X0714690Y0485000D01*
G01X0714690Y0485000D02*
G01X0719690Y0480000D01*
G01X0734690Y0500000D02*
G01X0734690Y0485000D01*
G01X0734690Y0485000D02*
G01X0739690Y0480000D01*
G01X0719690Y0480000D02*
G01X0729690Y0480000D01*
G01X0729690Y0480000D02*
G01X0734690Y0485000D01*
G01X0751690Y0520000D02*
G01X0751690Y0480000D01*
G01X0751690Y0520000D02*
G01X0766690Y0500000D01*
G01X0766690Y0500000D02*
G01X0781690Y0520000D01*
G01X0781690Y0520000D02*
G01X0781690Y0480000D01*
G54D11*
G01X0510940Y0491520D02*
G01X0514690Y0487770D01*
G01X0503440Y0491520D02*
G01X0510940Y0491520D01*
G01X0499690Y0487770D02*
G01X0503440Y0491520D01*
G01X0499690Y0487770D02*
G01X0499690Y0465270D01*
G01X0499690Y0465270D02*
G01X0503440Y0461520D01*
G01X0510940Y0478020D02*
G01X0514690Y0474270D01*
G01X0499690Y0478020D02*
G01X0510940Y0478020D01*
G01X0503440Y0461520D02*
G01X0510940Y0461520D01*
G01X0510940Y0461520D02*
G01X0514690Y0465270D01*
G01X0514690Y0474270D02*
G01X0514690Y0465270D01*
G01X0523690Y0465270D02*
G01X0546190Y0487770D01*
G01X0555190Y0487770D02*
G01X0555190Y0465270D01*
G01X0555190Y0487770D02*
G01X0558940Y0491520D01*
G01X0558940Y0491520D02*
G01X0566440Y0491520D01*
G01X0566440Y0491520D02*
G01X0570190Y0487770D01*
G01X0570190Y0487770D02*
G01X0570190Y0465270D01*
G01X0566440Y0461520D02*
G01X0570190Y0465270D01*
G01X0558940Y0461520D02*
G01X0566440Y0461520D01*
G01X0555190Y0465270D02*
G01X0558940Y0461520D01*
G01X0499690Y0502640D02*
G01X0503440Y0498890D01*
G01X0499690Y0508640D02*
G01X0499690Y0502640D01*
G01X0499690Y0508640D02*
G01X0504940Y0513890D01*
G01X0504940Y0513890D02*
G01X0509440Y0513890D01*
G01X0509440Y0513890D02*
G01X0514690Y0508640D01*
G01X0514690Y0508640D02*
G01X0514690Y0502640D01*
G01X0510940Y0498890D02*
G01X0514690Y0502640D01*
G01X0503440Y0498890D02*
G01X0510940Y0498890D01*
G01X0499690Y0519140D02*
G01X0504940Y0513890D01*
G01X0499690Y0525140D02*
G01X0499690Y0519140D01*
G01X0499690Y0525140D02*
G01X0503440Y0528890D01*
G01X0503440Y0528890D02*
G01X0510940Y0528890D01*
G01X0510940Y0528890D02*
G01X0514690Y0525140D01*
G01X0514690Y0525140D02*
G01X0514690Y0519140D01*
G01X0509440Y0513890D02*
G01X0514690Y0519140D01*
G01X0523690Y0502640D02*
G01X0546190Y0525140D01*
G01X0555190Y0498890D02*
G01X0570190Y0498890D01*
G01X0570190Y0498890D02*
G01X0573940Y0502640D01*
G01X0573940Y0511640D02*
G01X0573940Y0502640D01*
G01X0570190Y0515390D02*
G01X0573940Y0511640D01*
G01X0558940Y0515390D02*
G01X0570190Y0515390D01*
G01X0558940Y0528890D02*
G01X0558940Y0498890D01*
G01X0555190Y0528890D02*
G01X0570190Y0528890D01*
G01X0570190Y0528890D02*
G01X0573940Y0525140D01*
G01X0573940Y0525140D02*
G01X0573940Y0519140D01*
G01X0570190Y0515390D02*
G01X0573940Y0519140D01*
G01X0586690Y0510140D02*
G01X0586690Y0498890D01*
G01X0586690Y0510140D02*
G01X0590440Y0513890D01*
G01X0590440Y0513890D02*
G01X0597940Y0513890D01*
G01X0582940Y0513890D02*
G01X0586690Y0510140D01*
G01X0336860Y0497700D02*
G01X0351860Y0527700D01*
G01X0333110Y0527700D02*
G01X0351860Y0527700D01*
G01X0360860Y0501450D02*
G01X0383360Y0523950D01*
G01X0392360Y0527700D02*
G01X0392360Y0512700D01*
G01X0392360Y0512700D02*
G01X0396110Y0497700D01*
G01X0396110Y0497700D02*
G01X0403610Y0512700D01*
G01X0403610Y0512700D02*
G01X0411110Y0497700D01*
G01X0411110Y0497700D02*
G01X0414860Y0512700D01*
G01X0414860Y0527700D02*
G01X0414860Y0512700D01*
G01X0423860Y0497700D02*
G01X0438860Y0497700D01*
G01X0438860Y0497700D02*
G01X0442610Y0501450D01*
G01X0442610Y0510450D02*
G01X0442610Y0501450D01*
G01X0438860Y0514200D02*
G01X0442610Y0510450D01*
G01X0427610Y0514200D02*
G01X0438860Y0514200D01*
G01X0427610Y0527700D02*
G01X0427610Y0497700D01*
G01X0423860Y0527700D02*
G01X0438860Y0527700D01*
G01X0438860Y0527700D02*
G01X0442610Y0523950D01*
G01X0442610Y0523950D02*
G01X0442610Y0517950D01*
G01X0438860Y0514200D02*
G01X0442610Y0517950D01*
G01X0455360Y0508950D02*
G01X0455360Y0497700D01*
G01X0455360Y0508950D02*
G01X0459110Y0512700D01*
G01X0459110Y0512700D02*
G01X0466610Y0512700D01*
G01X0451610Y0512700D02*
G01X0455360Y0508950D01*
G54D10*
G01X0692130Y0625200D02*
G01X0700000Y0625200D01*
G01X0670470Y0625200D02*
G01X0678350Y0625200D01*
G01X0678350Y0637010D02*
G01X0678350Y0613390D01*
G01X0692130Y0635040D02*
G01X0692130Y0615350D01*
G01X0682280Y0625200D02*
G01X0692130Y0635040D01*
G01X0692130Y0615350D02*
G01X0682280Y0625200D01*
G01X0239170Y0614610D02*
G01X0229330Y0624450D01*
G01X0229330Y0624450D02*
G01X0239170Y0634290D01*
G01X0239170Y0634290D02*
G01X0239170Y0614610D01*
G01X0225390Y0636260D02*
G01X0225390Y0612640D01*
G01X0217520Y0624450D02*
G01X0225390Y0624450D01*
G01X0239170Y0624450D02*
G01X0247050Y0624450D01*
G54D13*
G01X0320080Y0885430D02*
G01X0320080Y0814570D01*
G01X0599610Y0885430D02*
G01X0599610Y0814570D01*
G54D10*
G01X0245280Y0885430D02*
G01X0676380Y0885430D01*
G01X0245280Y0814570D02*
G01X0676380Y0814570D01*
G01X0451970Y0850000D02*
G01X0467720Y0850000D01*
G01X0459840Y0857870D02*
G01X0459840Y0842130D01*
G01X0778740Y1145280D02*
G01X0778740Y1125590D01*
G01X0759060Y1145280D02*
G01X0778740Y1145280D01*
G01X0140940Y1145280D02*
G01X0140940Y1125590D01*
G01X0140940Y1145280D02*
G01X0160630Y1145280D01*
G01X0778740Y0574410D02*
G01X0778740Y0554720D01*
G01X0759060Y0554720D02*
G01X0778740Y0554720D01*
G01X0140940Y0574410D02*
G01X0140940Y0554720D01*
G01X0140940Y0554720D02*
G01X0160630Y0554720D01*
G01X0288580Y0901180D02*
G01X0278740Y0911020D01*
G01X0288580Y0911020D02*
G01X0278740Y0901180D01*
G54D14*
G01X0499250Y0414800D02*
G01X0499250Y0375430D01*
G01X0499250Y0375430D02*
G01X0534690Y0340000D01*
G01X0499250Y0420000D02*
G01X0549170Y0420000D01*
G01X0593740Y0379370D02*
G01X0589800Y0379370D01*
G01X0549170Y0420000D02*
G01X0589800Y0379370D01*
G01X0659250Y0389800D02*
G01X0659250Y0350430D01*
G01X0659250Y0350430D02*
G01X0694690Y0315000D01*
G01X0659250Y0395000D02*
G01X0709170Y0395000D01*
G01X0753740Y0354370D02*
G01X0749800Y0354370D01*
G01X0709170Y0395000D02*
G01X0749800Y0354370D01*
G01X0339250Y0414800D02*
G01X0339250Y0375430D01*
G01X0339250Y0375430D02*
G01X0374690Y0340000D01*
G01X0339250Y0420000D02*
G01X0389170Y0420000D01*
G01X0433740Y0379370D02*
G01X0429800Y0379370D01*
G01X0389170Y0420000D02*
G01X0429800Y0379370D01*
G01X0179250Y0389800D02*
G01X0179250Y0350430D01*
G01X0179250Y0350430D02*
G01X0214690Y0315000D01*
G01X0179250Y0395000D02*
G01X0229170Y0395000D01*
G01X0273740Y0354370D02*
G01X0269800Y0354370D01*
G01X0229170Y0395000D02*
G01X0269800Y0354370D01*
G54D12*
G01X0261050Y1092610D02*
G01X0256050Y1097610D01*
G01X0261050Y1092610D02*
G01X0276050Y1092610D01*
G01X0281050Y1097610D02*
G01X0276050Y1092610D01*
G01X0281050Y1107610D02*
G01X0281050Y1097610D01*
G01X0281050Y1107610D02*
G01X0276050Y1112610D01*
G01X0261050Y1112610D02*
G01X0276050Y1112610D01*
G01X0261050Y1112610D02*
G01X0256050Y1117610D01*
G01X0256050Y1127610D02*
G01X0256050Y1117610D01*
G01X0261050Y1132610D02*
G01X0256050Y1127610D01*
G01X0261050Y1132610D02*
G01X0276050Y1132610D01*
G01X0281050Y1127610D02*
G01X0276050Y1132610D01*
G01X0224050Y1092610D02*
G01X0244050Y1092610D01*
G01X0234050Y1132610D02*
G01X0234050Y1092610D01*
G01X0197050Y1110610D02*
G01X0212050Y1110610D01*
G01X0192050Y1132610D02*
G01X0212050Y1132610D01*
G01X0212050Y1132610D02*
G01X0212050Y1092610D01*
G01X0192050Y1092610D02*
G01X0212050Y1092610D01*
G01X0175050Y1132610D02*
G01X0175050Y1092610D01*
G01X0160050Y1092610D02*
G01X0180050Y1092610D01*
G01X0160050Y1092610D02*
G01X0155050Y1097610D01*
G01X0155050Y1107610D02*
G01X0155050Y1097610D01*
G01X0160050Y1112610D02*
G01X0155050Y1107610D01*
G01X0160050Y1112610D02*
G01X0175050Y1112610D01*
G01X0494690Y0245000D02*
G01X0514690Y0245000D01*
G01X0514690Y0245000D02*
G01X0519690Y0250000D01*
G01X0519690Y0262000D02*
G01X0519690Y0250000D01*
G01X0514690Y0267000D02*
G01X0519690Y0262000D01*
G01X0499690Y0267000D02*
G01X0514690Y0267000D01*
G01X0499690Y0285000D02*
G01X0499690Y0245000D01*
G01X0494690Y0285000D02*
G01X0514690Y0285000D01*
G01X0514690Y0285000D02*
G01X0519690Y0280000D01*
G01X0519690Y0280000D02*
G01X0519690Y0272000D01*
G01X0514690Y0267000D02*
G01X0519690Y0272000D01*
G01X0531690Y0285000D02*
G01X0531690Y0245000D01*
G01X0531690Y0245000D02*
G01X0551690Y0245000D01*
G01X0563690Y0275000D02*
G01X0563690Y0245000D01*
G01X0563690Y0275000D02*
G01X0570690Y0285000D01*
G01X0570690Y0285000D02*
G01X0581690Y0285000D01*
G01X0581690Y0285000D02*
G01X0588690Y0275000D01*
G01X0588690Y0275000D02*
G01X0588690Y0245000D01*
G01X0563690Y0265000D02*
G01X0588690Y0265000D01*
G01X0607690Y0245000D02*
G01X0620690Y0245000D01*
G01X0600690Y0252000D02*
G01X0607690Y0245000D01*
G01X0600690Y0278000D02*
G01X0600690Y0252000D01*
G01X0600690Y0278000D02*
G01X0607690Y0285000D01*
G01X0607690Y0285000D02*
G01X0620690Y0285000D01*
G01X0632690Y0285000D02*
G01X0632690Y0245000D01*
G01X0632690Y0265000D02*
G01X0652690Y0285000D01*
G01X0632690Y0265000D02*
G01X0652690Y0245000D01*
G01X0664690Y0260000D02*
G01X0684690Y0260000D01*
G01X0684690Y0260000D02*
G01X0689690Y0255000D01*
G01X0689690Y0255000D02*
G01X0689690Y0245000D01*
G01X0684690Y0240000D02*
G01X0689690Y0245000D01*
G01X0669690Y0240000D02*
G01X0684690Y0240000D01*
G01X0669690Y0260000D02*
G01X0669690Y0220000D01*
G01X0677690Y0240000D02*
G01X0689690Y0220000D01*
G01X0701690Y0242000D02*
G01X0716690Y0242000D01*
G01X0701690Y0220000D02*
G01X0721690Y0220000D01*
G01X0701690Y0260000D02*
G01X0701690Y0220000D01*
G01X0701690Y0260000D02*
G01X0721690Y0260000D01*
G01X0738690Y0260000D02*
G01X0738690Y0220000D01*
G01X0751690Y0260000D02*
G01X0758690Y0253000D01*
G01X0758690Y0253000D02*
G01X0758690Y0227000D01*
G01X0751690Y0220000D02*
G01X0758690Y0227000D01*
G01X0733690Y0220000D02*
G01X0751690Y0220000D01*
G01X0733690Y0260000D02*
G01X0751690Y0260000D01*
G01X0294690Y0285000D02*
G01X0299690Y0280000D01*
G01X0279690Y0285000D02*
G01X0294690Y0285000D01*
G01X0274690Y0280000D02*
G01X0279690Y0285000D01*
G01X0274690Y0280000D02*
G01X0274690Y0250000D01*
G01X0274690Y0250000D02*
G01X0279690Y0245000D01*
G01X0279690Y0245000D02*
G01X0294690Y0245000D01*
G01X0294690Y0245000D02*
G01X0299690Y0250000D01*
G01X0299690Y0260000D02*
G01X0299690Y0250000D01*
G01X0294690Y0265000D02*
G01X0299690Y0260000D01*
G01X0284690Y0265000D02*
G01X0294690Y0265000D01*
G01X0311690Y0285000D02*
G01X0331690Y0285000D01*
G01X0331690Y0285000D02*
G01X0336690Y0280000D01*
G01X0336690Y0280000D02*
G01X0336690Y0270000D01*
G01X0331690Y0265000D02*
G01X0336690Y0270000D01*
G01X0316690Y0265000D02*
G01X0331690Y0265000D01*
G01X0316690Y0285000D02*
G01X0316690Y0245000D01*
G01X0324690Y0265000D02*
G01X0336690Y0245000D01*
G01X0348690Y0267000D02*
G01X0363690Y0267000D01*
G01X0348690Y0245000D02*
G01X0368690Y0245000D01*
G01X0348690Y0285000D02*
G01X0348690Y0245000D01*
G01X0348690Y0285000D02*
G01X0368690Y0285000D01*
G01X0380690Y0267000D02*
G01X0395690Y0267000D01*
G01X0380690Y0245000D02*
G01X0400690Y0245000D01*
G01X0380690Y0285000D02*
G01X0380690Y0245000D01*
G01X0380690Y0285000D02*
G01X0400690Y0285000D01*
G01X0412690Y0285000D02*
G01X0412690Y0245000D01*
G01X0412690Y0285000D02*
G01X0437690Y0245000D01*
G01X0437690Y0285000D02*
G01X0437690Y0245000D01*
G01X0144690Y0220000D02*
G01X0164690Y0220000D01*
G01X0164690Y0220000D02*
G01X0169690Y0225000D01*
G01X0169690Y0237000D02*
G01X0169690Y0225000D01*
G01X0164690Y0242000D02*
G01X0169690Y0237000D01*
G01X0149690Y0242000D02*
G01X0164690Y0242000D01*
G01X0149690Y0260000D02*
G01X0149690Y0220000D01*
G01X0144690Y0260000D02*
G01X0164690Y0260000D01*
G01X0164690Y0260000D02*
G01X0169690Y0255000D01*
G01X0169690Y0255000D02*
G01X0169690Y0247000D01*
G01X0164690Y0242000D02*
G01X0169690Y0247000D01*
G01X0181690Y0260000D02*
G01X0181690Y0220000D01*
G01X0181690Y0220000D02*
G01X0201690Y0220000D01*
G01X0213690Y0260000D02*
G01X0213690Y0225000D01*
G01X0213690Y0225000D02*
G01X0218690Y0220000D01*
G01X0218690Y0220000D02*
G01X0228690Y0220000D01*
G01X0228690Y0220000D02*
G01X0233690Y0225000D01*
G01X0233690Y0260000D02*
G01X0233690Y0225000D01*
G01X0245690Y0242000D02*
G01X0260690Y0242000D01*
G01X0245690Y0220000D02*
G01X0265690Y0220000D01*
G01X0245690Y0260000D02*
G01X0245690Y0220000D01*
G01X0245690Y0260000D02*
G01X0265690Y0260000D01*
G01X0000000Y0000000D02*
G54D10*
G01X0110000Y1180000D02*
G01X0110000Y0200000D01*
G01X0110000Y0200000D02*
G01X0830000Y0200000D01*
G01X0830000Y0200000D02*
G01X0830000Y1180000D01*
G01X0830000Y1180000D02*
G01X0110000Y1180000D01*
G01X0000000Y0000000D02*
G54D15*
G01X0339250Y0414800D03*
G01X0207870Y0985040D03*
G54D16*
G01X0200000Y0850000D03*
G54D17*
G01X0319290Y0885430D03*
G01X0184250Y0625200D03*
G01X0284650Y0625200D03*
G01X0635040Y0625200D03*
G01X0735430Y0625200D03*
G54D15*
G01X0711810Y0985040D03*
G54D16*
G01X0719690Y0850000D03*
G54D17*
G01X0479920Y0885430D03*
G01X0560240Y0885430D03*
G01X0399610Y0885430D03*
G01X0439760Y0814570D03*
G01X0359450Y0814570D03*
G01X0520080Y0814570D03*
G01X0600390Y0814570D03*
G54D18*
G01X0694690Y0315000D03*
G54D15*
G01X0659250Y0389800D03*
G54D19*
G01X0718310Y0385870D03*
G54D18*
G01X0534690Y0340000D03*
G54D15*
G01X0499250Y0414800D03*
G54D19*
G01X0558310Y0410870D03*
G54D20*
G01X0593740Y0379370D03*
G01X0753740Y0354370D03*
G54D18*
G01X0374690Y0340000D03*
G01X0214690Y0315000D03*
G54D15*
G01X0179250Y0389800D03*
G54D19*
G01X0238310Y0385870D03*
G54D20*
G01X0273740Y0354370D03*
G54D19*
G01X0398310Y0410870D03*
G54D20*
G01X0433740Y0379370D03*
G01X0000000Y0000000D02*
G54D13*
G01X0364700Y0960000D03*
G01X0434700Y0920000D03*
G01X0439700Y1010000D03*
G54D27*
G01X0273700Y0354400D03*
G01X0433700Y0379400D03*
G01X0593700Y0379400D03*
G01X0753700Y0354400D03*
G54D26*
G01X0238300Y0385900D03*
G01X0398300Y0410900D03*
G01X0558300Y0410900D03*
G01X0718300Y0385900D03*
G54D24*
G01X0184300Y0625200D03*
G01X0284600Y0625200D03*
G01X0319300Y0885400D03*
G01X0359400Y0814600D03*
G01X0399600Y0885400D03*
G01X0439800Y0814600D03*
G01X0479900Y0885400D03*
G01X0520100Y0814600D03*
G01X0560200Y0885400D03*
G01X0600400Y0814600D03*
G01X0635000Y0625200D03*
G01X0735400Y0625200D03*
G54D21*
G01X0179300Y0389800D03*
G01X0339300Y0414800D03*
G01X0499300Y0414800D03*
G01X0659300Y0389800D03*
G54D22*
G01X0207900Y0985000D03*
G01X0711800Y0985000D03*
G54D25*
G01X0214700Y0315000D03*
G01X0374700Y0340000D03*
G01X0534700Y0340000D03*
G01X0694700Y0315000D03*
G54D23*
G01X0200000Y0850000D03*
G01X0719700Y0850000D03*
M02*
