<?xml version="1.0" encoding="UTF-8"?>
<svg xmlns="http://www.w3.org/2000/svg" xmlns:xlink="http://www.w3.org/1999/xlink" width="159pt" height="208pt" viewBox="0 0 159 208" version="1.1">
<g id="surface1">
<path style="fill:none;stroke-width:0.006;stroke-linecap:round;stroke-linejoin:miter;stroke:rgb(100%,49.803922%,45.098039%);stroke-opacity:1;stroke-miterlimit:10;" d="M -0.0000109412 2.800015 L 2.099978 2.800015 " transform="matrix(72,0,0,-72,4.0086,206.4214)"/>
<path style="fill:none;stroke-width:0.006;stroke-linecap:round;stroke-linejoin:miter;stroke:rgb(100%,49.803922%,45.098039%);stroke-opacity:1;stroke-miterlimit:10;" d="M 2.099978 2.800015 L 2.099978 0.0500151 " transform="matrix(72,0,0,-72,4.0086,206.4214)"/>
<path style="fill:none;stroke-width:0.006;stroke-linecap:round;stroke-linejoin:miter;stroke:rgb(100%,49.803922%,45.098039%);stroke-opacity:1;stroke-miterlimit:10;" d="M 2.099978 0.0500151 L -0.0000109412 0.0500151 " transform="matrix(72,0,0,-72,4.0086,206.4214)"/>
<path style="fill:none;stroke-width:0.006;stroke-linecap:round;stroke-linejoin:miter;stroke:rgb(100%,49.803922%,45.098039%);stroke-opacity:1;stroke-miterlimit:10;" d="M -0.0000109412 2.800015 L -0.0000109412 0.0500151 " transform="matrix(72,0,0,-72,4.0086,206.4214)"/>
<path style=" stroke:none;fill-rule:evenodd;fill:rgb(45.098039%,45.098039%,87.058824%);fill-opacity:1;" d="M 51.886719 166.101562 C 51.886719 165.621094 51.167969 165.621094 51.167969 166.101562 C 51.167969 166.582031 51.886719 166.582031 51.886719 166.101562 "/>
<path style=" stroke:none;fill-rule:evenodd;fill:rgb(45.098039%,45.098039%,87.058824%);fill-opacity:1;" d="M 54.046875 166.101562 C 54.046875 165.621094 53.328125 165.621094 53.328125 166.101562 C 53.328125 166.582031 54.046875 166.582031 54.046875 166.101562 "/>
<path style=" stroke:none;fill-rule:evenodd;fill:rgb(45.098039%,45.098039%,87.058824%);fill-opacity:1;" d="M 56.207031 166.101562 C 56.207031 165.621094 55.488281 165.621094 55.488281 166.101562 C 55.488281 166.582031 56.207031 166.582031 56.207031 166.101562 "/>
<path style=" stroke:none;fill-rule:evenodd;fill:rgb(45.098039%,45.098039%,87.058824%);fill-opacity:1;" d="M 62.328125 166.101562 C 62.328125 165.621094 61.609375 165.621094 61.609375 166.101562 C 61.609375 166.582031 62.328125 166.582031 62.328125 166.101562 "/>
<path style=" stroke:none;fill-rule:evenodd;fill:rgb(45.098039%,45.098039%,87.058824%);fill-opacity:1;" d="M 64.488281 166.101562 C 64.488281 165.621094 63.769531 165.621094 63.769531 166.101562 C 63.769531 166.582031 64.488281 166.582031 64.488281 166.101562 "/>
<path style=" stroke:none;fill-rule:evenodd;fill:rgb(45.098039%,45.098039%,87.058824%);fill-opacity:1;" d="M 66.648438 166.101562 C 66.648438 165.621094 65.929688 165.621094 65.929688 166.101562 C 65.929688 166.582031 66.648438 166.582031 66.648438 166.101562 "/>
<path style=" stroke:none;fill-rule:evenodd;fill:rgb(45.098039%,45.098039%,87.058824%);fill-opacity:1;" d="M 74.207031 166.101562 C 74.207031 165.621094 73.488281 165.621094 73.488281 166.101562 C 73.488281 166.582031 74.207031 166.582031 74.207031 166.101562 "/>
<path style=" stroke:none;fill-rule:evenodd;fill:rgb(45.098039%,45.098039%,87.058824%);fill-opacity:1;" d="M 76.367188 166.101562 C 76.367188 165.621094 75.648438 165.621094 75.648438 166.101562 C 75.648438 166.582031 76.367188 166.582031 76.367188 166.101562 "/>
<path style=" stroke:none;fill-rule:evenodd;fill:rgb(45.098039%,45.098039%,87.058824%);fill-opacity:1;" d="M 77.089844 109.222656 C 77.089844 108.742188 76.367188 108.742188 76.367188 109.222656 C 76.367188 109.703125 77.089844 109.703125 77.089844 109.222656 "/>
<path style=" stroke:none;fill-rule:evenodd;fill:rgb(45.098039%,45.098039%,87.058824%);fill-opacity:1;" d="M 78.527344 166.101562 C 78.527344 165.621094 77.808594 165.621094 77.808594 166.101562 C 77.808594 166.582031 78.527344 166.582031 78.527344 166.101562 "/>
<path style=" stroke:none;fill-rule:evenodd;fill:rgb(45.098039%,45.098039%,87.058824%);fill-opacity:1;" d="M 79.25 111.382812 C 79.25 110.902344 78.527344 110.902344 78.527344 111.382812 C 78.527344 111.863281 79.25 111.863281 79.25 111.382812 "/>
<path style=" stroke:none;fill-rule:evenodd;fill:rgb(45.098039%,45.098039%,87.058824%);fill-opacity:1;" d="M 81.410156 113.902344 C 81.410156 113.421875 80.6875 113.421875 80.6875 113.902344 C 80.6875 114.382812 81.410156 114.382812 81.410156 113.902344 "/>
<path style=" stroke:none;fill-rule:evenodd;fill:rgb(45.098039%,45.098039%,87.058824%);fill-opacity:1;" d="M 84.648438 166.101562 C 84.648438 165.621094 83.929688 165.621094 83.929688 166.101562 C 83.929688 166.582031 84.648438 166.582031 84.648438 166.101562 "/>
<path style=" stroke:none;fill-rule:evenodd;fill:rgb(45.098039%,45.098039%,87.058824%);fill-opacity:1;" d="M 86.808594 166.101562 C 86.808594 165.621094 86.089844 165.621094 86.089844 166.101562 C 86.089844 166.582031 86.808594 166.582031 86.808594 166.101562 "/>
<path style=" stroke:none;fill-rule:evenodd;fill:rgb(45.098039%,45.098039%,87.058824%);fill-opacity:1;" d="M 87.167969 109.222656 C 87.167969 108.742188 86.449219 108.742188 86.449219 109.222656 C 86.449219 109.703125 87.167969 109.703125 87.167969 109.222656 "/>
<path style=" stroke:none;fill-rule:evenodd;fill:rgb(45.098039%,45.098039%,87.058824%);fill-opacity:1;" d="M 88.96875 166.101562 C 88.96875 165.621094 88.25 165.621094 88.25 166.101562 C 88.25 166.582031 88.96875 166.582031 88.96875 166.101562 "/>
<path style=" stroke:none;fill-rule:evenodd;fill:rgb(45.098039%,45.098039%,87.058824%);fill-opacity:1;" d="M 89.328125 111.382812 C 89.328125 110.902344 88.609375 110.902344 88.609375 111.382812 C 88.609375 111.863281 89.328125 111.863281 89.328125 111.382812 "/>
<path style=" stroke:none;fill-rule:evenodd;fill:rgb(45.098039%,45.098039%,87.058824%);fill-opacity:1;" d="M 92.929688 107.421875 C 92.929688 106.941406 92.207031 106.941406 92.207031 107.421875 C 92.207031 107.902344 92.929688 107.902344 92.929688 107.421875 "/>
<path style=" stroke:none;fill-rule:evenodd;fill:rgb(45.098039%,45.098039%,87.058824%);fill-opacity:1;" d="M 95.089844 105.980469 C 95.089844 105.5 94.367188 105.5 94.367188 105.980469 C 94.367188 106.460938 95.089844 106.460938 95.089844 105.980469 "/>
<path style=" stroke:none;fill-rule:evenodd;fill:rgb(45.098039%,45.098039%,87.058824%);fill-opacity:1;" d="M 95.089844 113.902344 C 95.089844 113.421875 94.367188 113.421875 94.367188 113.902344 C 94.367188 114.382812 95.089844 114.382812 95.089844 113.902344 "/>
<path style=" stroke:none;fill-rule:evenodd;fill:rgb(45.098039%,45.098039%,87.058824%);fill-opacity:1;" d="M 99.046875 166.101562 C 99.046875 165.621094 98.328125 165.621094 98.328125 166.101562 C 98.328125 166.582031 99.046875 166.582031 99.046875 166.101562 "/>
<path style=" stroke:none;fill-rule:evenodd;fill:rgb(45.098039%,45.098039%,87.058824%);fill-opacity:1;" d="M 101.207031 166.101562 C 101.207031 165.621094 100.488281 165.621094 100.488281 166.101562 C 100.488281 166.582031 101.207031 166.582031 101.207031 166.101562 "/>
<path style=" stroke:none;fill-rule:evenodd;fill:rgb(45.098039%,45.098039%,87.058824%);fill-opacity:1;" d="M 103.367188 166.101562 C 103.367188 165.621094 102.648438 165.621094 102.648438 166.101562 C 102.648438 166.582031 103.367188 166.582031 103.367188 166.101562 "/>
<path style=" stroke:none;fill-rule:evenodd;fill:rgb(45.098039%,45.098039%,87.058824%);fill-opacity:1;" d="M 104.449219 111.742188 C 104.449219 111.261719 103.730469 111.261719 103.730469 111.742188 C 103.730469 112.222656 104.449219 112.222656 104.449219 111.742188 "/>
<path style=" stroke:none;fill-rule:evenodd;fill:rgb(45.098039%,45.098039%,87.058824%);fill-opacity:1;" d="M 106.25 173.300781 C 106.25 172.820312 105.527344 172.820312 105.527344 173.300781 C 105.527344 173.78125 106.25 173.78125 106.25 173.300781 "/>
<path style=" stroke:none;fill-rule:evenodd;fill:rgb(45.098039%,45.098039%,87.058824%);fill-opacity:1;" d="M 106.609375 109.941406 C 106.609375 109.460938 105.886719 109.460938 105.886719 109.941406 C 105.886719 110.421875 106.609375 110.421875 106.609375 109.941406 "/>
<path style=" stroke:none;fill-rule:evenodd;fill:rgb(45.098039%,45.098039%,87.058824%);fill-opacity:1;" d="M 108.410156 173.300781 C 108.410156 172.820312 107.6875 172.820312 107.6875 173.300781 C 107.6875 173.78125 108.410156 173.78125 108.410156 173.300781 "/>
<path style=" stroke:none;fill-rule:evenodd;fill:rgb(45.098039%,45.098039%,87.058824%);fill-opacity:1;" d="M 108.769531 113.902344 C 108.769531 113.421875 108.046875 113.421875 108.046875 113.902344 C 108.046875 114.382812 108.769531 114.382812 108.769531 113.902344 "/>
<path style=" stroke:none;fill-rule:evenodd;fill:rgb(45.098039%,45.098039%,87.058824%);fill-opacity:1;" d="M 110.570312 173.300781 C 110.570312 172.820312 109.847656 172.820312 109.847656 173.300781 C 109.847656 173.78125 110.570312 173.78125 110.570312 173.300781 "/>
<path style=" stroke:none;fill-rule:evenodd;fill:rgb(45.098039%,45.098039%,87.058824%);fill-opacity:1;" d="M 115.25 171.863281 C 115.25 171.382812 114.527344 171.382812 114.527344 171.863281 C 114.527344 172.339844 115.25 172.339844 115.25 171.863281 "/>
<path style=" stroke:none;fill-rule:evenodd;fill:rgb(45.098039%,45.098039%,87.058824%);fill-opacity:1;" d="M 117.046875 173.300781 C 117.046875 172.820312 116.328125 172.820312 116.328125 173.300781 C 116.328125 173.78125 117.046875 173.78125 117.046875 173.300781 "/>
<path style=" stroke:none;fill-rule:evenodd;fill:rgb(45.098039%,45.098039%,87.058824%);fill-opacity:1;" d="M 119.207031 173.300781 C 119.207031 172.820312 118.488281 172.820312 118.488281 173.300781 C 118.488281 173.78125 119.207031 173.78125 119.207031 173.300781 "/>
<path style=" stroke:none;fill-rule:evenodd;fill:rgb(45.098039%,45.098039%,87.058824%);fill-opacity:1;" d="M 121.007812 171.863281 C 121.007812 171.382812 120.289062 171.382812 120.289062 171.863281 C 120.289062 172.339844 121.007812 172.339844 121.007812 171.863281 "/>
<path style=" stroke:none;fill-rule:evenodd;fill:rgb(45.098039%,45.098039%,87.058824%);fill-opacity:1;" d="M 124.25 165.742188 C 124.25 165.261719 123.527344 165.261719 123.527344 165.742188 C 123.527344 166.222656 124.25 166.222656 124.25 165.742188 "/>
<path style=" stroke:none;fill-rule:evenodd;fill:rgb(45.098039%,45.098039%,87.058824%);fill-opacity:1;" d="M 126.410156 165.742188 C 126.410156 165.261719 125.6875 165.261719 125.6875 165.742188 C 125.6875 166.222656 126.410156 166.222656 126.410156 165.742188 "/>
<path style=" stroke:none;fill-rule:evenodd;fill:rgb(45.098039%,45.098039%,87.058824%);fill-opacity:1;" d="M 132.167969 170.421875 C 132.167969 169.941406 131.449219 169.941406 131.449219 170.421875 C 131.449219 170.902344 132.167969 170.902344 132.167969 170.421875 "/>
<path style=" stroke:none;fill-rule:evenodd;fill:rgb(45.098039%,45.098039%,87.058824%);fill-opacity:1;" d="M 134.328125 170.421875 C 134.328125 169.941406 133.609375 169.941406 133.609375 170.421875 C 133.609375 170.902344 134.328125 170.902344 134.328125 170.421875 "/>
<path style=" stroke:none;fill-rule:evenodd;fill:rgb(45.098039%,45.098039%,87.058824%);fill-opacity:1;" d="M 135.769531 172.941406 C 135.769531 172.460938 135.046875 172.460938 135.046875 172.941406 C 135.046875 173.421875 135.769531 173.421875 135.769531 172.941406 "/>
<path style=" stroke:none;fill-rule:evenodd;fill:rgb(45.098039%,45.098039%,87.058824%);fill-opacity:1;" d="M 137.929688 172.941406 C 137.929688 172.460938 137.207031 172.460938 137.207031 172.941406 C 137.207031 173.421875 137.929688 173.421875 137.929688 172.941406 "/>
<path style=" stroke:none;fill-rule:evenodd;fill:rgb(45.098039%,45.098039%,87.058824%);fill-opacity:1;" d="M 146.207031 173.300781 C 146.207031 172.820312 145.488281 172.820312 145.488281 173.300781 C 145.488281 173.78125 146.207031 173.78125 146.207031 173.300781 "/>
<path style=" stroke:none;fill-rule:evenodd;fill:rgb(45.098039%,45.098039%,87.058824%);fill-opacity:1;" d="M 148.367188 173.300781 C 148.367188 172.820312 147.648438 172.820312 147.648438 173.300781 C 147.648438 173.78125 148.367188 173.78125 148.367188 173.300781 "/>
<path style=" stroke:none;fill-rule:evenodd;fill:rgb(45.098039%,45.098039%,87.058824%);fill-opacity:1;" d="M 55.777344 26.421875 C 55.777344 24.597656 53.039062 24.597656 53.039062 26.421875 C 53.039062 28.246094 55.777344 28.246094 55.777344 26.421875 "/>
<path style=" stroke:none;fill-rule:evenodd;fill:rgb(45.098039%,45.098039%,87.058824%);fill-opacity:1;" d="M 55.777344 33.621094 C 55.777344 31.796875 53.039062 31.796875 53.039062 33.621094 C 53.039062 35.445312 55.777344 35.445312 55.777344 33.621094 "/>
<path style=" stroke:none;fill-rule:evenodd;fill:rgb(45.098039%,45.098039%,87.058824%);fill-opacity:1;" d="M 62.976562 26.421875 C 62.976562 24.597656 60.242188 24.597656 60.242188 26.421875 C 60.242188 28.246094 62.976562 28.246094 62.976562 26.421875 "/>
<path style=" stroke:none;fill-rule:evenodd;fill:rgb(45.098039%,45.098039%,87.058824%);fill-opacity:1;" d="M 62.976562 33.621094 C 62.976562 31.796875 60.242188 31.796875 60.242188 33.621094 C 60.242188 35.445312 62.976562 35.445312 62.976562 33.621094 "/>
<path style=" stroke:none;fill-rule:evenodd;fill:rgb(45.098039%,45.098039%,87.058824%);fill-opacity:1;" d="M 70.175781 26.421875 C 70.175781 24.597656 67.441406 24.597656 67.441406 26.421875 C 67.441406 28.246094 70.175781 28.246094 70.175781 26.421875 "/>
<path style=" stroke:none;fill-rule:evenodd;fill:rgb(45.098039%,45.098039%,87.058824%);fill-opacity:1;" d="M 70.175781 33.621094 C 70.175781 31.796875 67.441406 31.796875 67.441406 33.621094 C 67.441406 35.445312 70.175781 35.445312 70.175781 33.621094 "/>
<path style=" stroke:none;fill-rule:evenodd;fill:rgb(45.098039%,45.098039%,87.058824%);fill-opacity:1;" d="M 77.375 26.421875 C 77.375 24.597656 74.640625 24.597656 74.640625 26.421875 C 74.640625 28.246094 77.375 28.246094 77.375 26.421875 "/>
<path style=" stroke:none;fill-rule:evenodd;fill:rgb(45.098039%,45.098039%,87.058824%);fill-opacity:1;" d="M 77.375 33.621094 C 77.375 31.796875 74.640625 31.796875 74.640625 33.621094 C 74.640625 35.445312 77.375 35.445312 77.375 33.621094 "/>
<path style=" stroke:none;fill-rule:evenodd;fill:rgb(45.098039%,45.098039%,87.058824%);fill-opacity:1;" d="M 84.578125 26.421875 C 84.578125 24.597656 81.839844 24.597656 81.839844 26.421875 C 81.839844 28.246094 84.578125 28.246094 84.578125 26.421875 "/>
<path style=" stroke:none;fill-rule:evenodd;fill:rgb(45.098039%,45.098039%,87.058824%);fill-opacity:1;" d="M 84.578125 33.621094 C 84.578125 31.796875 81.839844 31.796875 81.839844 33.621094 C 81.839844 35.445312 84.578125 35.445312 84.578125 33.621094 "/>
<path style=" stroke:none;fill-rule:evenodd;fill:rgb(45.098039%,45.098039%,87.058824%);fill-opacity:1;" d="M 91.777344 26.421875 C 91.777344 24.597656 89.039062 24.597656 89.039062 26.421875 C 89.039062 28.246094 91.777344 28.246094 91.777344 26.421875 "/>
<path style=" stroke:none;fill-rule:evenodd;fill:rgb(45.098039%,45.098039%,87.058824%);fill-opacity:1;" d="M 91.777344 33.621094 C 91.777344 31.796875 89.039062 31.796875 89.039062 33.621094 C 89.039062 35.445312 91.777344 35.445312 91.777344 33.621094 "/>
<path style=" stroke:none;fill-rule:evenodd;fill:rgb(45.098039%,45.098039%,87.058824%);fill-opacity:1;" d="M 98.976562 26.421875 C 98.976562 24.597656 96.242188 24.597656 96.242188 26.421875 C 96.242188 28.246094 98.976562 28.246094 98.976562 26.421875 "/>
<path style=" stroke:none;fill-rule:evenodd;fill:rgb(45.098039%,45.098039%,87.058824%);fill-opacity:1;" d="M 98.976562 33.621094 C 98.976562 31.796875 96.242188 31.796875 96.242188 33.621094 C 96.242188 35.445312 98.976562 35.445312 98.976562 33.621094 "/>
<path style=" stroke:none;fill-rule:evenodd;fill:rgb(45.098039%,45.098039%,87.058824%);fill-opacity:1;" d="M 106.175781 26.421875 C 106.175781 24.597656 103.441406 24.597656 103.441406 26.421875 C 103.441406 28.246094 106.175781 28.246094 106.175781 26.421875 "/>
<path style=" stroke:none;fill-rule:evenodd;fill:rgb(45.098039%,45.098039%,87.058824%);fill-opacity:1;" d="M 106.175781 33.621094 C 106.175781 31.796875 103.441406 31.796875 103.441406 33.621094 C 103.441406 35.445312 106.175781 35.445312 106.175781 33.621094 "/>
<path style=" stroke:none;fill-rule:evenodd;fill:rgb(45.098039%,45.098039%,87.058824%);fill-opacity:1;" d="M 113.375 26.421875 C 113.375 24.597656 110.640625 24.597656 110.640625 26.421875 C 110.640625 28.246094 113.375 28.246094 113.375 26.421875 "/>
<path style=" stroke:none;fill-rule:evenodd;fill:rgb(45.098039%,45.098039%,87.058824%);fill-opacity:1;" d="M 113.375 33.621094 C 113.375 31.796875 110.640625 31.796875 110.640625 33.621094 C 110.640625 35.445312 113.375 35.445312 113.375 33.621094 "/>
<path style=" stroke:none;fill-rule:evenodd;fill:rgb(45.098039%,45.098039%,87.058824%);fill-opacity:1;" d="M 120.578125 26.421875 C 120.578125 24.597656 117.839844 24.597656 117.839844 26.421875 C 117.839844 28.246094 120.578125 28.246094 120.578125 26.421875 "/>
<path style=" stroke:none;fill-rule:evenodd;fill:rgb(45.098039%,45.098039%,87.058824%);fill-opacity:1;" d="M 120.578125 33.621094 C 120.578125 31.796875 117.839844 31.796875 117.839844 33.621094 C 117.839844 35.445312 120.578125 35.445312 120.578125 33.621094 "/>
</g>
</svg>
