G04 This is an RS-274x file exported by *
G04 gerbv version 2.7.0 *
G04 More information is available about gerbv at *
G04 http://gerbv.geda-project.org/ *
G04 --End of header info--*
%MOIN*%
%FSLAX36Y36*%
%IPPOS*%
G04 --Define apertures--*
%ADD10C,0.0001*%
%ADD11C,0.0100*%
%ADD12C,0.0060*%
%ADD13C,0.0030*%
%ADD14C,0.0022*%
%ADD15C,0.0027*%
%ADD16C,0.0038*%
%ADD17C,0.0021*%
%ADD18C,0.0026*%
%ADD19C,0.0022*%
%ADD20C,0.0021*%
%ADD21C,0.0200*%
%ADD22C,0.0600*%
%ADD23C,0.0380*%
%ADD24C,0.0260*%
%ADD25C,0.0660*%
G04 --Start main section--*
G54D10*
G36*
G01X1985000Y0435000D02*
G01X1985000Y0475000D01*
G01X2015000Y0475000D01*
G01X2015000Y0435000D01*
G01X1985000Y0435000D01*
G37*
G36*
G01X1840000Y0440000D02*
G01X1840000Y0480000D01*
G01X1870000Y0480000D01*
G01X1870000Y0440000D01*
G01X1840000Y0440000D01*
G37*
G36*
G01X1790000Y0475000D02*
G01X1790000Y0515000D01*
G01X1820000Y0515000D01*
G01X1820000Y0475000D01*
G01X1790000Y0475000D01*
G37*
G36*
G01X1680000Y0540000D02*
G01X1680000Y0580000D01*
G01X1710000Y0580000D01*
G01X1710000Y0540000D01*
G01X1680000Y0540000D01*
G37*
G36*
G01X1430000Y0435000D02*
G01X1430000Y0475000D01*
G01X1460000Y0475000D01*
G01X1460000Y0435000D01*
G01X1430000Y0435000D01*
G37*
G36*
G01X0550000Y2480000D02*
G01X0585000Y2515000D01*
G01X0620000Y2480000D01*
G01X0550000Y2480000D01*
G37*
G36*
G01X1680000Y2480000D02*
G01X1715000Y2515000D01*
G01X1750000Y2480000D01*
G01X1680000Y2480000D01*
G37*
G36*
G01X1360000Y0535000D02*
G01X1360000Y0575000D01*
G01X1390000Y0575000D01*
G01X1390000Y0535000D01*
G01X1360000Y0535000D01*
G37*
G36*
G01X0820000Y0535000D02*
G01X0820000Y0575000D01*
G01X0850000Y0575000D01*
G01X0850000Y0535000D01*
G01X0820000Y0535000D01*
G37*
G36*
G01X0675000Y0535000D02*
G01X0675000Y0575000D01*
G01X0705000Y0575000D01*
G01X0705000Y0535000D01*
G01X0675000Y0535000D01*
G37*
G36*
G01X0985000Y0535000D02*
G01X0985000Y0575000D01*
G01X1015000Y0575000D01*
G01X1015000Y0535000D01*
G01X0985000Y0535000D01*
G37*
G36*
G01X1130000Y0535000D02*
G01X1130000Y0575000D01*
G01X1160000Y0575000D01*
G01X1160000Y0535000D01*
G01X1130000Y0535000D01*
G37*
G54D11*
G01X0900000Y2400000D02*
G01X0857500Y2442500D01*
G01X0800000Y2400000D02*
G01X0757500Y2442500D01*
G01X0900000Y2500000D02*
G01X0900000Y2750000D01*
G01X0857500Y2442500D02*
G01X0857500Y2700000D01*
G01X0800000Y2500000D02*
G01X0800000Y2750000D01*
G01X0757500Y2442500D02*
G01X0757500Y2700000D01*
G01X0700000Y2500000D02*
G01X0700000Y2750000D01*
G54D12*
G01X0640000Y0655000D02*
G01X0640000Y0595000D01*
G54D11*
G01X0700000Y2400000D02*
G01X0657500Y2442500D01*
G54D12*
G01X0650000Y2280000D02*
G01X0825000Y2280000D01*
G01X0640000Y0655000D02*
G01X1210000Y0655000D01*
G54D11*
G01X0657500Y2442500D02*
G01X0657500Y2700000D01*
G01X0625000Y2625000D02*
G01X0575000Y2575000D01*
G54D12*
G01X0620000Y2480000D02*
G01X0585000Y2515000D01*
G01X0635000Y2500000D02*
G01X0620000Y2500000D01*
G01X0585000Y2515000D02*
G01X0550000Y2480000D01*
G01X0550000Y2480000D02*
G01X0620000Y2480000D01*
G01X1410000Y1415000D02*
G01X1430000Y1395000D01*
G01X1435000Y0865000D02*
G01X1435000Y1265000D01*
G01X1435000Y1925000D02*
G01X1435000Y1525000D01*
G01X1370000Y1570000D02*
G01X1435000Y1570000D01*
G01X1225000Y1570000D02*
G01X1275000Y1570000D01*
G01X1275000Y1000000D02*
G01X1275000Y1265000D01*
G01X1275000Y1790000D02*
G01X1275000Y1525000D01*
G01X1210000Y0595000D02*
G01X1210000Y0875000D01*
G01X1435000Y1220000D02*
G01X1370000Y1220000D01*
G01X1275000Y1220000D02*
G01X1225000Y1220000D01*
G01X1640000Y0655000D02*
G01X1510000Y0655000D01*
G01X1510000Y0655000D02*
G01X1510000Y0595000D01*
G01X1640000Y0595000D02*
G01X1640000Y0760000D01*
G01X2015000Y1000000D02*
G01X2015000Y0595000D01*
G01X2015000Y0655000D02*
G01X1655000Y0655000D01*
G01X1655000Y0655000D02*
G01X1655000Y0595000D01*
G54D11*
G01X1300000Y2400000D02*
G01X1257500Y2442500D01*
G01X1257500Y2442500D02*
G01X1257500Y2700000D01*
G01X1200000Y2500000D02*
G01X1200000Y2750000D01*
G01X1157500Y2442500D02*
G01X1157500Y2700000D01*
G01X1100000Y2500000D02*
G01X1100000Y2750000D01*
G01X1200000Y2400000D02*
G01X1157500Y2442500D01*
G01X1100000Y2400000D02*
G01X1057500Y2442500D01*
G01X1000000Y2400000D02*
G01X0957500Y2442500D01*
G54D12*
G01X1155000Y2295000D02*
G01X1155000Y2285000D01*
G01X1155000Y2285000D02*
G01X1160000Y2280000D01*
G01X1160000Y2280000D02*
G01X1435000Y2280000D01*
G01X1135000Y2280000D02*
G01X0955000Y2280000D01*
G54D11*
G01X1457500Y2442500D02*
G01X1457500Y2700000D01*
G01X1400000Y2500000D02*
G01X1400000Y2750000D01*
G01X1357500Y2442500D02*
G01X1357500Y2700000D01*
G01X1300000Y2500000D02*
G01X1300000Y2750000D01*
G54D12*
G01X1450000Y2320000D02*
G01X1450000Y2280000D01*
G54D11*
G01X1600000Y2500000D02*
G01X1600000Y2750000D01*
G01X1557500Y2442500D02*
G01X1557500Y2700000D01*
G01X1500000Y2500000D02*
G01X1500000Y2750000D01*
G01X1675000Y2625000D02*
G01X1625000Y2575000D01*
G54D12*
G01X1750000Y2480000D02*
G01X1715000Y2515000D01*
G01X1715000Y2515000D02*
G01X1680000Y2480000D01*
G01X1680000Y2500000D02*
G01X1665000Y2500000D01*
G54D11*
G01X1057500Y2442500D02*
G01X1057500Y2700000D01*
G01X1000000Y2500000D02*
G01X1000000Y2750000D01*
G01X0957500Y2442500D02*
G01X0957500Y2700000D01*
G01X0575000Y2575000D02*
G01X1625000Y2575000D01*
G01X1675000Y2625000D02*
G01X0625000Y2625000D01*
G01X1600000Y2400000D02*
G01X1557500Y2442500D01*
G01X1500000Y2400000D02*
G01X1457500Y2442500D01*
G01X1400000Y2400000D02*
G01X1357500Y2442500D01*
G54D12*
G01X1680000Y2480000D02*
G01X1750000Y2480000D01*
G01X1450000Y2280000D02*
G01X1640000Y2280000D01*
G01X1640000Y2280000D02*
G01X1640000Y2320000D01*
G01X1640000Y2320000D02*
G01X1640000Y2150000D01*
G01X1435000Y2320000D02*
G01X1435000Y1945000D01*
G01X0850000Y2280000D02*
G01X0925000Y2280000D01*
G01X0925000Y2280000D02*
G01X0930000Y2285000D01*
G01X0930000Y2285000D02*
G01X0930000Y2295000D01*
G01X0850000Y2320000D02*
G01X0850000Y1945000D01*
G01X0825000Y2280000D02*
G01X0830000Y2285000D01*
G01X0650000Y2320000D02*
G01X0650000Y2065000D01*
G01X0950000Y2285000D02*
G01X0955000Y2280000D01*
G01X1135000Y2320000D02*
G01X1135000Y2065000D01*
G54D13*
G01X1377700Y1585000D02*
G01X1408500Y1585000D01*
G01X1408500Y1600400D02*
G01X1408500Y1585000D01*
G01X1408500Y1625040D02*
G01X1408500Y1613490D01*
G01X1404650Y1609640D02*
G01X1408500Y1613490D01*
G01X1396950Y1609640D02*
G01X1404650Y1609640D01*
G01X1396950Y1609640D02*
G01X1393100Y1613490D01*
G01X1393100Y1621190D02*
G01X1393100Y1613490D01*
G01X1393100Y1621190D02*
G01X1396950Y1625040D01*
G01X1400800Y1625040D02*
G01X1400800Y1609640D01*
G01X1396950Y1625040D02*
G01X1400800Y1625040D01*
G01X1393100Y1645830D02*
G01X1396950Y1649680D01*
G01X1393100Y1645830D02*
G01X1393100Y1638130D01*
G01X1396950Y1634280D02*
G01X1393100Y1638130D01*
G01X1396950Y1634280D02*
G01X1404650Y1634280D01*
G01X1404650Y1634280D02*
G01X1408500Y1638130D01*
G01X1408500Y1645830D02*
G01X1408500Y1638130D01*
G01X1408500Y1645830D02*
G01X1404650Y1649680D01*
G01X1416200Y1634280D02*
G01X1420050Y1638130D01*
G01X1420050Y1645830D02*
G01X1420050Y1638130D01*
G01X1420050Y1645830D02*
G01X1416200Y1649680D01*
G01X1393100Y1649680D02*
G01X1416200Y1649680D01*
G01X1393100Y1670470D02*
G01X1396950Y1674320D01*
G01X1393100Y1670470D02*
G01X1393100Y1662770D01*
G01X1396950Y1658920D02*
G01X1393100Y1662770D01*
G01X1396950Y1658920D02*
G01X1404650Y1658920D01*
G01X1404650Y1658920D02*
G01X1408500Y1662770D01*
G01X1393100Y1674320D02*
G01X1404650Y1674320D01*
G01X1404650Y1674320D02*
G01X1408500Y1678170D01*
G01X1408500Y1670470D02*
G01X1408500Y1662770D01*
G01X1408500Y1670470D02*
G01X1404650Y1674320D01*
G01X1393100Y1702810D02*
G01X1393100Y1691260D01*
G01X1396950Y1687410D02*
G01X1393100Y1691260D01*
G01X1396950Y1687410D02*
G01X1404650Y1687410D01*
G01X1404650Y1687410D02*
G01X1408500Y1691260D01*
G01X1408500Y1702810D02*
G01X1408500Y1691260D01*
G01X1393100Y1712050D02*
G01X1404650Y1712050D01*
G01X1404650Y1712050D02*
G01X1408500Y1715900D01*
G01X1393100Y1727450D02*
G01X1416200Y1727450D01*
G01X1420050Y1723600D02*
G01X1416200Y1727450D01*
G01X1420050Y1723600D02*
G01X1420050Y1715900D01*
G01X1416200Y1712050D02*
G01X1420050Y1715900D01*
G01X1408500Y1723600D02*
G01X1408500Y1715900D01*
G01X1408500Y1723600D02*
G01X1404650Y1727450D01*
G01X1393100Y1752090D02*
G01X1393100Y1736690D01*
G01X1377700Y1761330D02*
G01X1408500Y1761330D01*
G01X1408500Y1776730D02*
G01X1408500Y1761330D01*
G01X1393100Y1785970D02*
G01X1404650Y1785970D01*
G01X1404650Y1785970D02*
G01X1408500Y1789820D01*
G01X1408500Y1797520D02*
G01X1408500Y1789820D01*
G01X1408500Y1797520D02*
G01X1404650Y1801370D01*
G01X1393100Y1801370D02*
G01X1404650Y1801370D01*
G01X1377700Y1810610D02*
G01X1404650Y1810610D01*
G01X1404650Y1810610D02*
G01X1408500Y1814460D01*
G01X1393100Y1837560D02*
G01X1393100Y1822160D01*
G01X1408500Y1822160D02*
G01X1393100Y1837560D01*
G01X1408500Y1837560D02*
G01X1408500Y1822160D01*
G01X1408500Y1862200D02*
G01X1408500Y1846800D01*
G01X1408500Y1862200D02*
G01X1404650Y1866050D01*
G01X1395410Y1866050D02*
G01X1404650Y1866050D01*
G01X1391560Y1862200D02*
G01X1395410Y1866050D01*
G01X1391560Y1862200D02*
G01X1391560Y1850650D01*
G01X1377700Y1850650D02*
G01X1408500Y1850650D01*
G01X1377700Y1862200D02*
G01X1377700Y1846800D01*
G01X1377700Y1862200D02*
G01X1381550Y1866050D01*
G01X1381550Y1866050D02*
G01X1387710Y1866050D01*
G01X1391560Y1862200D02*
G01X1387710Y1866050D01*
G01X1396950Y1875290D02*
G01X1404650Y1875290D01*
G01X1396950Y1875290D02*
G01X1393100Y1879140D01*
G01X1393100Y1886840D02*
G01X1393100Y1879140D01*
G01X1393100Y1886840D02*
G01X1396950Y1890690D01*
G01X1396950Y1890690D02*
G01X1404650Y1890690D01*
G01X1408500Y1886840D02*
G01X1404650Y1890690D01*
G01X1408500Y1886840D02*
G01X1408500Y1879140D01*
G01X1404650Y1875290D02*
G01X1408500Y1879140D01*
G01X1377700Y1903780D02*
G01X1404650Y1903780D01*
G01X1404650Y1903780D02*
G01X1408500Y1907630D01*
G01X1389250Y1907630D02*
G01X1389250Y1899930D01*
G01X1377700Y0880000D02*
G01X1408500Y0880000D01*
G01X1408500Y0895400D02*
G01X1408500Y0880000D01*
G01X1408500Y0920040D02*
G01X1408500Y0908490D01*
G01X1404650Y0904640D02*
G01X1408500Y0908490D01*
G01X1396950Y0904640D02*
G01X1404650Y0904640D01*
G01X1396950Y0904640D02*
G01X1393100Y0908490D01*
G01X1393100Y0916190D02*
G01X1393100Y0908490D01*
G01X1393100Y0916190D02*
G01X1396950Y0920040D01*
G01X1400800Y0920040D02*
G01X1400800Y0904640D01*
G01X1396950Y0920040D02*
G01X1400800Y0920040D01*
G01X1393100Y0940830D02*
G01X1396950Y0944680D01*
G01X1393100Y0940830D02*
G01X1393100Y0933130D01*
G01X1396950Y0929280D02*
G01X1393100Y0933130D01*
G01X1396950Y0929280D02*
G01X1404650Y0929280D01*
G01X1404650Y0929280D02*
G01X1408500Y0933130D01*
G01X1408500Y0940830D02*
G01X1408500Y0933130D01*
G01X1408500Y0940830D02*
G01X1404650Y0944680D01*
G01X1416200Y0929280D02*
G01X1420050Y0933130D01*
G01X1420050Y0940830D02*
G01X1420050Y0933130D01*
G01X1420050Y0940830D02*
G01X1416200Y0944680D01*
G01X1393100Y0944680D02*
G01X1416200Y0944680D01*
G01X1393100Y0965470D02*
G01X1396950Y0969320D01*
G01X1393100Y0965470D02*
G01X1393100Y0957770D01*
G01X1396950Y0953920D02*
G01X1393100Y0957770D01*
G01X1396950Y0953920D02*
G01X1404650Y0953920D01*
G01X1404650Y0953920D02*
G01X1408500Y0957770D01*
G01X1393100Y0969320D02*
G01X1404650Y0969320D01*
G01X1404650Y0969320D02*
G01X1408500Y0973170D01*
G01X1408500Y0965470D02*
G01X1408500Y0957770D01*
G01X1408500Y0965470D02*
G01X1404650Y0969320D01*
G01X1393100Y0997810D02*
G01X1393100Y0986260D01*
G01X1396950Y0982410D02*
G01X1393100Y0986260D01*
G01X1396950Y0982410D02*
G01X1404650Y0982410D01*
G01X1404650Y0982410D02*
G01X1408500Y0986260D01*
G01X1408500Y0997810D02*
G01X1408500Y0986260D01*
G01X1393100Y1007050D02*
G01X1404650Y1007050D01*
G01X1404650Y1007050D02*
G01X1408500Y1010900D01*
G01X1393100Y1022450D02*
G01X1416200Y1022450D01*
G01X1420050Y1018600D02*
G01X1416200Y1022450D01*
G01X1420050Y1018600D02*
G01X1420050Y1010900D01*
G01X1416200Y1007050D02*
G01X1420050Y1010900D01*
G01X1408500Y1018600D02*
G01X1408500Y1010900D01*
G01X1408500Y1018600D02*
G01X1404650Y1022450D01*
G01X1393100Y1047090D02*
G01X1393100Y1031690D01*
G01X1377700Y1056330D02*
G01X1408500Y1056330D01*
G01X1408500Y1071730D02*
G01X1408500Y1056330D01*
G01X1393100Y1080970D02*
G01X1404650Y1080970D01*
G01X1404650Y1080970D02*
G01X1408500Y1084820D01*
G01X1408500Y1092520D02*
G01X1408500Y1084820D01*
G01X1408500Y1092520D02*
G01X1404650Y1096370D01*
G01X1393100Y1096370D02*
G01X1404650Y1096370D01*
G01X1377700Y1105610D02*
G01X1404650Y1105610D01*
G01X1404650Y1105610D02*
G01X1408500Y1109460D01*
G01X1393100Y1132560D02*
G01X1393100Y1117160D01*
G01X1408500Y1117160D02*
G01X1393100Y1132560D01*
G01X1408500Y1132560D02*
G01X1408500Y1117160D01*
G01X1408500Y1157200D02*
G01X1408500Y1141800D01*
G01X1408500Y1157200D02*
G01X1404650Y1161050D01*
G01X1395410Y1161050D02*
G01X1404650Y1161050D01*
G01X1391560Y1157200D02*
G01X1395410Y1161050D01*
G01X1391560Y1157200D02*
G01X1391560Y1145650D01*
G01X1377700Y1145650D02*
G01X1408500Y1145650D01*
G01X1377700Y1157200D02*
G01X1377700Y1141800D01*
G01X1377700Y1157200D02*
G01X1381550Y1161050D01*
G01X1381550Y1161050D02*
G01X1387710Y1161050D01*
G01X1391560Y1157200D02*
G01X1387710Y1161050D01*
G01X1396950Y1170290D02*
G01X1404650Y1170290D01*
G01X1396950Y1170290D02*
G01X1393100Y1174140D01*
G01X1393100Y1181840D02*
G01X1393100Y1174140D01*
G01X1393100Y1181840D02*
G01X1396950Y1185690D01*
G01X1396950Y1185690D02*
G01X1404650Y1185690D01*
G01X1408500Y1181840D02*
G01X1404650Y1185690D01*
G01X1408500Y1181840D02*
G01X1408500Y1174140D01*
G01X1404650Y1170290D02*
G01X1408500Y1174140D01*
G01X1377700Y1198780D02*
G01X1404650Y1198780D01*
G01X1404650Y1198780D02*
G01X1408500Y1202630D01*
G01X1389250Y1202630D02*
G01X1389250Y1194930D01*
G54D14*
G01X1475400Y1315000D02*
G01X1497000Y1315000D01*
G01X1475400Y1315000D02*
G01X1486200Y1323100D01*
G01X1486200Y1323100D02*
G01X1475400Y1331200D01*
G01X1475400Y1331200D02*
G01X1497000Y1331200D01*
G01X1486200Y1345780D02*
G01X1488900Y1348480D01*
G01X1486200Y1345780D02*
G01X1486200Y1340380D01*
G01X1488900Y1337680D02*
G01X1486200Y1340380D01*
G01X1488900Y1337680D02*
G01X1494300Y1337680D01*
G01X1494300Y1337680D02*
G01X1497000Y1340380D01*
G01X1486200Y1348480D02*
G01X1494300Y1348480D01*
G01X1494300Y1348480D02*
G01X1497000Y1351180D01*
G01X1497000Y1345780D02*
G01X1497000Y1340380D01*
G01X1497000Y1345780D02*
G01X1494300Y1348480D01*
G01X1486200Y1357660D02*
G01X1494300Y1357660D01*
G01X1494300Y1357660D02*
G01X1497000Y1360360D01*
G01X1486200Y1368460D02*
G01X1502400Y1368460D01*
G01X1505100Y1365760D02*
G01X1502400Y1368460D01*
G01X1505100Y1365760D02*
G01X1505100Y1360360D01*
G01X1502400Y1357660D02*
G01X1505100Y1360360D01*
G01X1497000Y1365760D02*
G01X1497000Y1360360D01*
G01X1497000Y1365760D02*
G01X1494300Y1368460D01*
G01X1475400Y1384660D02*
G01X1497000Y1384660D01*
G01X1494300Y1384660D02*
G01X1497000Y1387360D01*
G01X1497000Y1392760D02*
G01X1497000Y1387360D01*
G01X1497000Y1392760D02*
G01X1494300Y1395460D01*
G01X1488900Y1395460D02*
G01X1494300Y1395460D01*
G01X1486200Y1392760D02*
G01X1488900Y1395460D01*
G01X1486200Y1392760D02*
G01X1486200Y1387360D01*
G01X1488900Y1384660D02*
G01X1486200Y1387360D01*
G01X1488900Y1404640D02*
G01X1497000Y1404640D01*
G01X1488900Y1404640D02*
G01X1486200Y1407340D01*
G01X1486200Y1412740D02*
G01X1486200Y1407340D01*
G01X1486200Y1401940D02*
G01X1488900Y1404640D01*
G01X1497000Y1430020D02*
G01X1497000Y1421920D01*
G01X1494300Y1419220D02*
G01X1497000Y1421920D01*
G01X1488900Y1419220D02*
G01X1494300Y1419220D01*
G01X1488900Y1419220D02*
G01X1486200Y1421920D01*
G01X1486200Y1427320D02*
G01X1486200Y1421920D01*
G01X1486200Y1427320D02*
G01X1488900Y1430020D01*
G01X1491600Y1430020D02*
G01X1491600Y1419220D01*
G01X1488900Y1430020D02*
G01X1491600Y1430020D01*
G01X1486200Y1444600D02*
G01X1488900Y1447300D01*
G01X1486200Y1444600D02*
G01X1486200Y1439200D01*
G01X1488900Y1436500D02*
G01X1486200Y1439200D01*
G01X1488900Y1436500D02*
G01X1494300Y1436500D01*
G01X1494300Y1436500D02*
G01X1497000Y1439200D01*
G01X1486200Y1447300D02*
G01X1494300Y1447300D01*
G01X1494300Y1447300D02*
G01X1497000Y1450000D01*
G01X1497000Y1444600D02*
G01X1497000Y1439200D01*
G01X1497000Y1444600D02*
G01X1494300Y1447300D01*
G01X1475400Y1456480D02*
G01X1497000Y1456480D01*
G01X1488900Y1456480D02*
G01X1497000Y1464580D01*
G01X1488900Y1456480D02*
G01X1483500Y1461880D01*
G01X1513100Y1342700D02*
G01X1532000Y1342700D01*
G01X1513100Y1342700D02*
G01X1510400Y1345400D01*
G01X1510400Y1348100D02*
G01X1510400Y1345400D01*
G01X1521200Y1345400D02*
G01X1521200Y1340000D01*
G01X1523900Y1353500D02*
G01X1529300Y1353500D01*
G01X1523900Y1353500D02*
G01X1521200Y1356200D01*
G01X1521200Y1361600D02*
G01X1521200Y1356200D01*
G01X1521200Y1361600D02*
G01X1523900Y1364300D01*
G01X1523900Y1364300D02*
G01X1529300Y1364300D01*
G01X1532000Y1361600D02*
G01X1529300Y1364300D01*
G01X1532000Y1361600D02*
G01X1532000Y1356200D01*
G01X1529300Y1353500D02*
G01X1532000Y1356200D01*
G01X1523900Y1373480D02*
G01X1532000Y1373480D01*
G01X1523900Y1373480D02*
G01X1521200Y1376180D01*
G01X1521200Y1381580D02*
G01X1521200Y1376180D01*
G01X1521200Y1370780D02*
G01X1523900Y1373480D01*
G01X1510400Y1397780D02*
G01X1532000Y1397780D01*
G01X1510400Y1397780D02*
G01X1521200Y1405880D01*
G01X1521200Y1405880D02*
G01X1510400Y1413980D01*
G01X1510400Y1413980D02*
G01X1532000Y1413980D01*
G54D15*
G01X1515800Y1420460D02*
G01X1516340Y1420460D01*
G54D14*
G01X1523900Y1420460D02*
G01X1532000Y1420460D01*
G01X1523900Y1428560D02*
G01X1532000Y1428560D01*
G01X1523900Y1428560D02*
G01X1521200Y1431260D01*
G01X1521200Y1433960D02*
G01X1521200Y1431260D01*
G01X1521200Y1433960D02*
G01X1523900Y1436660D01*
G01X1523900Y1436660D02*
G01X1532000Y1436660D01*
G01X1521200Y1425860D02*
G01X1523900Y1428560D01*
G54D15*
G01X1515800Y1443140D02*
G01X1516340Y1443140D01*
G54D14*
G01X1523900Y1443140D02*
G01X1532000Y1443140D01*
G01X1532000Y1451240D02*
G01X1532000Y1448540D01*
G54D13*
G01X1232700Y1015000D02*
G01X1263500Y1015000D01*
G01X1232700Y1015000D02*
G01X1248100Y1026550D01*
G01X1248100Y1026550D02*
G01X1232700Y1038100D01*
G01X1232700Y1038100D02*
G01X1263500Y1038100D01*
G54D16*
G01X1240400Y1047340D02*
G01X1241170Y1047340D01*
G54D13*
G01X1251950Y1047340D02*
G01X1263500Y1047340D01*
G01X1251950Y1058890D02*
G01X1263500Y1058890D01*
G01X1251950Y1058890D02*
G01X1248100Y1062740D01*
G01X1248100Y1066590D02*
G01X1248100Y1062740D01*
G01X1248100Y1066590D02*
G01X1251950Y1070440D01*
G01X1251950Y1070440D02*
G01X1263500Y1070440D01*
G01X1248100Y1055040D02*
G01X1251950Y1058890D01*
G54D16*
G01X1240400Y1079680D02*
G01X1241170Y1079680D01*
G54D13*
G01X1251950Y1079680D02*
G01X1263500Y1079680D01*
G01X1263500Y1102780D02*
G01X1263500Y1087380D01*
G01X1232700Y1127420D02*
G01X1232700Y1112020D01*
G01X1232700Y1119720D02*
G01X1263500Y1119720D01*
G01X1248100Y1148210D02*
G01X1251950Y1152060D01*
G01X1248100Y1148210D02*
G01X1248100Y1140510D01*
G01X1251950Y1136660D02*
G01X1248100Y1140510D01*
G01X1251950Y1136660D02*
G01X1259650Y1136660D01*
G01X1259650Y1136660D02*
G01X1263500Y1140510D01*
G01X1248100Y1152060D02*
G01X1259650Y1152060D01*
G01X1259650Y1152060D02*
G01X1263500Y1155910D01*
G01X1263500Y1148210D02*
G01X1263500Y1140510D01*
G01X1263500Y1148210D02*
G01X1259650Y1152060D01*
G01X1248100Y1180550D02*
G01X1248100Y1165150D01*
G01X1263500Y1165150D02*
G01X1248100Y1180550D01*
G01X1263500Y1180550D02*
G01X1263500Y1165150D01*
G01X1232700Y1201340D02*
G01X1236550Y1205190D01*
G01X1232700Y1201340D02*
G01X1232700Y1193640D01*
G01X1236550Y1189790D02*
G01X1232700Y1193640D01*
G01X1236550Y1189790D02*
G01X1259650Y1189790D01*
G01X1259650Y1189790D02*
G01X1263500Y1193640D01*
G01X1246560Y1201340D02*
G01X1250410Y1205190D01*
G01X1246560Y1201340D02*
G01X1246560Y1189790D01*
G01X1263500Y1201340D02*
G01X1263500Y1193640D01*
G01X1263500Y1201340D02*
G01X1259650Y1205190D01*
G01X1250410Y1205190D02*
G01X1259650Y1205190D01*
G54D17*
G01X1015000Y0239700D02*
G01X1015000Y0218500D01*
G01X1015000Y0239700D02*
G01X1022950Y0229100D01*
G01X1022950Y0229100D02*
G01X1030900Y0239700D01*
G01X1030900Y0239700D02*
G01X1030900Y0218500D01*
G54D18*
G01X1037260Y0234400D02*
G01X1037260Y0233870D01*
G54D17*
G01X1037260Y0226450D02*
G01X1037260Y0218500D01*
G01X1045210Y0226450D02*
G01X1045210Y0218500D01*
G01X1045210Y0226450D02*
G01X1047860Y0229100D01*
G01X1047860Y0229100D02*
G01X1050510Y0229100D01*
G01X1050510Y0229100D02*
G01X1053160Y0226450D01*
G01X1053160Y0226450D02*
G01X1053160Y0218500D01*
G01X1042560Y0229100D02*
G01X1045210Y0226450D01*
G54D18*
G01X1059520Y0234400D02*
G01X1059520Y0233870D01*
G54D17*
G01X1059520Y0226450D02*
G01X1059520Y0218500D01*
G01X1074360Y0237050D02*
G01X1074360Y0221150D01*
G01X1074360Y0237050D02*
G01X1077010Y0239700D01*
G01X1077010Y0239700D02*
G01X1082310Y0239700D01*
G01X1082310Y0239700D02*
G01X1084960Y0237050D01*
G01X1084960Y0237050D02*
G01X1084960Y0221150D01*
G01X1082310Y0218500D02*
G01X1084960Y0221150D01*
G01X1077010Y0218500D02*
G01X1082310Y0218500D01*
G01X1074360Y0221150D02*
G01X1077010Y0218500D01*
G01X1093970Y0226450D02*
G01X1093970Y0218500D01*
G01X1093970Y0226450D02*
G01X1096620Y0229100D01*
G01X1096620Y0229100D02*
G01X1099270Y0229100D01*
G01X1099270Y0229100D02*
G01X1101920Y0226450D01*
G01X1101920Y0226450D02*
G01X1101920Y0218500D01*
G01X1091320Y0229100D02*
G01X1093970Y0226450D01*
G01X1108280Y0239700D02*
G01X1108280Y0221150D01*
G01X1108280Y0221150D02*
G01X1110930Y0218500D01*
G01X1116230Y0229100D02*
G01X1116230Y0221150D01*
G01X1116230Y0221150D02*
G01X1118880Y0218500D01*
G01X1126830Y0229100D02*
G01X1126830Y0213200D01*
G01X1124180Y0210550D02*
G01X1126830Y0213200D01*
G01X1118880Y0210550D02*
G01X1124180Y0210550D01*
G01X1116230Y0213200D02*
G01X1118880Y0210550D01*
G01X1118880Y0218500D02*
G01X1124180Y0218500D01*
G01X1124180Y0218500D02*
G01X1126830Y0221150D01*
G54D14*
G01X1110000Y0269600D02*
G01X1110000Y0248000D01*
G01X1110000Y0248000D02*
G01X1120800Y0248000D01*
G54D15*
G01X1127280Y0264200D02*
G01X1127280Y0263660D01*
G54D14*
G01X1127280Y0256100D02*
G01X1127280Y0248000D01*
G01X1135380Y0256100D02*
G01X1135380Y0248000D01*
G01X1135380Y0256100D02*
G01X1138080Y0258800D01*
G01X1138080Y0258800D02*
G01X1140780Y0258800D01*
G01X1140780Y0258800D02*
G01X1143480Y0256100D01*
G01X1143480Y0256100D02*
G01X1143480Y0248000D01*
G01X1143480Y0256100D02*
G01X1146180Y0258800D01*
G01X1146180Y0258800D02*
G01X1148880Y0258800D01*
G01X1148880Y0258800D02*
G01X1151580Y0256100D01*
G01X1151580Y0256100D02*
G01X1151580Y0248000D01*
G01X1132680Y0258800D02*
G01X1135380Y0256100D01*
G54D15*
G01X1158060Y0264200D02*
G01X1158060Y0263660D01*
G54D14*
G01X1158060Y0256100D02*
G01X1158060Y0248000D01*
G01X1166160Y0269600D02*
G01X1166160Y0250700D01*
G01X1166160Y0250700D02*
G01X1168860Y0248000D01*
G01X1163460Y0261500D02*
G01X1168860Y0261500D01*
G01X0955000Y0269600D02*
G01X0955000Y0248000D01*
G01X0955000Y0269600D02*
G01X0968500Y0248000D01*
G01X0968500Y0269600D02*
G01X0968500Y0248000D01*
G01X0974980Y0256100D02*
G01X0974980Y0250700D01*
G01X0974980Y0256100D02*
G01X0977680Y0258800D01*
G01X0977680Y0258800D02*
G01X0983080Y0258800D01*
G01X0983080Y0258800D02*
G01X0985780Y0256100D01*
G01X0985780Y0256100D02*
G01X0985780Y0250700D01*
G01X0983080Y0248000D02*
G01X0985780Y0250700D01*
G01X0977680Y0248000D02*
G01X0983080Y0248000D01*
G01X0974980Y0250700D02*
G01X0977680Y0248000D01*
G01X0992260Y0258800D02*
G01X1003060Y0258800D01*
G01X0992260Y0248000D02*
G01X1003060Y0258800D01*
G01X0992260Y0248000D02*
G01X1003060Y0248000D01*
G01X1009540Y0258800D02*
G01X1020340Y0258800D01*
G01X1009540Y0248000D02*
G01X1020340Y0258800D01*
G01X1009540Y0248000D02*
G01X1020340Y0248000D01*
G01X1026820Y0269600D02*
G01X1026820Y0250700D01*
G01X1026820Y0250700D02*
G01X1029520Y0248000D01*
G01X1037620Y0248000D02*
G01X1045720Y0248000D01*
G01X1034920Y0250700D02*
G01X1037620Y0248000D01*
G01X1034920Y0256100D02*
G01X1034920Y0250700D01*
G01X1034920Y0256100D02*
G01X1037620Y0258800D01*
G01X1037620Y0258800D02*
G01X1043020Y0258800D01*
G01X1043020Y0258800D02*
G01X1045720Y0256100D01*
G01X1034920Y0253400D02*
G01X1045720Y0253400D01*
G01X1045720Y0256100D02*
G01X1045720Y0253400D01*
G54D17*
G01X0700000Y0239700D02*
G01X0710600Y0239700D01*
G01X0705300Y0239700D02*
G01X0705300Y0218500D01*
G01X0724910Y0229100D02*
G01X0727560Y0226450D01*
G01X0719610Y0229100D02*
G01X0724910Y0229100D01*
G01X0716960Y0226450D02*
G01X0719610Y0229100D01*
G01X0716960Y0226450D02*
G01X0716960Y0221150D01*
G01X0716960Y0221150D02*
G01X0719610Y0218500D01*
G01X0727560Y0229100D02*
G01X0727560Y0221150D01*
G01X0727560Y0221150D02*
G01X0730210Y0218500D01*
G01X0719610Y0218500D02*
G01X0724910Y0218500D01*
G01X0724910Y0218500D02*
G01X0727560Y0221150D01*
G01X0736570Y0229100D02*
G01X0747170Y0229100D01*
G01X0736570Y0218500D02*
G01X0747170Y0229100D01*
G01X0736570Y0218500D02*
G01X0747170Y0218500D01*
G01X0761480Y0239700D02*
G01X0764130Y0237050D01*
G01X0756180Y0239700D02*
G01X0761480Y0239700D01*
G01X0753530Y0237050D02*
G01X0756180Y0239700D01*
G01X0753530Y0237050D02*
G01X0753530Y0221150D01*
G01X0753530Y0221150D02*
G01X0756180Y0218500D01*
G01X0761480Y0230160D02*
G01X0764130Y0227510D01*
G01X0753530Y0230160D02*
G01X0761480Y0230160D01*
G01X0756180Y0218500D02*
G01X0761480Y0218500D01*
G01X0761480Y0218500D02*
G01X0764130Y0221150D01*
G01X0764130Y0227510D02*
G01X0764130Y0221150D01*
G01X0780030Y0237050D02*
G01X0780030Y0221150D01*
G01X0780030Y0237050D02*
G01X0782680Y0239700D01*
G01X0782680Y0239700D02*
G01X0787980Y0239700D01*
G01X0787980Y0239700D02*
G01X0790630Y0237050D01*
G01X0790630Y0237050D02*
G01X0790630Y0221150D01*
G01X0787980Y0218500D02*
G01X0790630Y0221150D01*
G01X0782680Y0218500D02*
G01X0787980Y0218500D01*
G01X0780030Y0221150D02*
G01X0782680Y0218500D01*
G01X0799640Y0226450D02*
G01X0799640Y0218500D01*
G01X0799640Y0226450D02*
G01X0802290Y0229100D01*
G01X0802290Y0229100D02*
G01X0804940Y0229100D01*
G01X0804940Y0229100D02*
G01X0807590Y0226450D01*
G01X0807590Y0226450D02*
G01X0807590Y0218500D01*
G01X0796990Y0229100D02*
G01X0799640Y0226450D01*
G01X0813950Y0239700D02*
G01X0813950Y0221150D01*
G01X0813950Y0221150D02*
G01X0816600Y0218500D01*
G01X0821900Y0229100D02*
G01X0821900Y0221150D01*
G01X0821900Y0221150D02*
G01X0824550Y0218500D01*
G01X0832500Y0229100D02*
G01X0832500Y0213200D01*
G01X0829850Y0210550D02*
G01X0832500Y0213200D01*
G01X0824550Y0210550D02*
G01X0829850Y0210550D01*
G01X0821900Y0213200D02*
G01X0824550Y0210550D01*
G01X0824550Y0218500D02*
G01X0829850Y0218500D01*
G01X0829850Y0218500D02*
G01X0832500Y0221150D01*
G54D14*
G01X0660000Y0269600D02*
G01X0660000Y0248000D01*
G01X0660000Y0248000D02*
G01X0670800Y0248000D01*
G54D15*
G01X0677280Y0264200D02*
G01X0677280Y0263660D01*
G54D14*
G01X0677280Y0256100D02*
G01X0677280Y0248000D01*
G01X0685380Y0256100D02*
G01X0685380Y0248000D01*
G01X0685380Y0256100D02*
G01X0688080Y0258800D01*
G01X0688080Y0258800D02*
G01X0690780Y0258800D01*
G01X0690780Y0258800D02*
G01X0693480Y0256100D01*
G01X0693480Y0256100D02*
G01X0693480Y0248000D01*
G01X0693480Y0256100D02*
G01X0696180Y0258800D01*
G01X0696180Y0258800D02*
G01X0698880Y0258800D01*
G01X0698880Y0258800D02*
G01X0701580Y0256100D01*
G01X0701580Y0256100D02*
G01X0701580Y0248000D01*
G01X0682680Y0258800D02*
G01X0685380Y0256100D01*
G54D15*
G01X0708060Y0264200D02*
G01X0708060Y0263660D01*
G54D14*
G01X0708060Y0256100D02*
G01X0708060Y0248000D01*
G01X0716160Y0269600D02*
G01X0716160Y0250700D01*
G01X0716160Y0250700D02*
G01X0718860Y0248000D01*
G01X0713460Y0261500D02*
G01X0718860Y0261500D01*
G01X0795000Y0269600D02*
G01X0795000Y0248000D01*
G01X0795000Y0269600D02*
G01X0808500Y0248000D01*
G01X0808500Y0269600D02*
G01X0808500Y0248000D01*
G01X0814980Y0256100D02*
G01X0814980Y0250700D01*
G01X0814980Y0256100D02*
G01X0817680Y0258800D01*
G01X0817680Y0258800D02*
G01X0823080Y0258800D01*
G01X0823080Y0258800D02*
G01X0825780Y0256100D01*
G01X0825780Y0256100D02*
G01X0825780Y0250700D01*
G01X0823080Y0248000D02*
G01X0825780Y0250700D01*
G01X0817680Y0248000D02*
G01X0823080Y0248000D01*
G01X0814980Y0250700D02*
G01X0817680Y0248000D01*
G01X0832260Y0258800D02*
G01X0843060Y0258800D01*
G01X0832260Y0248000D02*
G01X0843060Y0258800D01*
G01X0832260Y0248000D02*
G01X0843060Y0248000D01*
G01X0849540Y0258800D02*
G01X0860340Y0258800D01*
G01X0849540Y0248000D02*
G01X0860340Y0258800D01*
G01X0849540Y0248000D02*
G01X0860340Y0248000D01*
G01X0866820Y0269600D02*
G01X0866820Y0250700D01*
G01X0866820Y0250700D02*
G01X0869520Y0248000D01*
G01X0877620Y0248000D02*
G01X0885720Y0248000D01*
G01X0874920Y0250700D02*
G01X0877620Y0248000D01*
G01X0874920Y0256100D02*
G01X0874920Y0250700D01*
G01X0874920Y0256100D02*
G01X0877620Y0258800D01*
G01X0877620Y0258800D02*
G01X0883020Y0258800D01*
G01X0883020Y0258800D02*
G01X0885720Y0256100D01*
G01X0874920Y0253400D02*
G01X0885720Y0253400D01*
G01X0885720Y0256100D02*
G01X0885720Y0253400D01*
G54D13*
G01X1162700Y0675000D02*
G01X1193500Y0675000D01*
G01X1162700Y0675000D02*
G01X1178100Y0686550D01*
G01X1178100Y0686550D02*
G01X1162700Y0698100D01*
G01X1162700Y0698100D02*
G01X1193500Y0698100D01*
G54D16*
G01X1170400Y0707340D02*
G01X1171170Y0707340D01*
G54D13*
G01X1181950Y0707340D02*
G01X1193500Y0707340D01*
G01X1181950Y0718890D02*
G01X1193500Y0718890D01*
G01X1181950Y0718890D02*
G01X1178100Y0722740D01*
G01X1178100Y0726590D02*
G01X1178100Y0722740D01*
G01X1178100Y0726590D02*
G01X1181950Y0730440D01*
G01X1181950Y0730440D02*
G01X1193500Y0730440D01*
G01X1178100Y0715040D02*
G01X1181950Y0718890D01*
G54D16*
G01X1170400Y0739680D02*
G01X1171170Y0739680D01*
G54D13*
G01X1181950Y0739680D02*
G01X1193500Y0739680D01*
G01X1193500Y0762780D02*
G01X1193500Y0747380D01*
G01X1162700Y0787420D02*
G01X1162700Y0772020D01*
G01X1162700Y0779720D02*
G01X1193500Y0779720D01*
G01X1178100Y0808210D02*
G01X1181950Y0812060D01*
G01X1178100Y0808210D02*
G01X1178100Y0800510D01*
G01X1181950Y0796660D02*
G01X1178100Y0800510D01*
G01X1181950Y0796660D02*
G01X1189650Y0796660D01*
G01X1189650Y0796660D02*
G01X1193500Y0800510D01*
G01X1178100Y0812060D02*
G01X1189650Y0812060D01*
G01X1189650Y0812060D02*
G01X1193500Y0815910D01*
G01X1193500Y0808210D02*
G01X1193500Y0800510D01*
G01X1193500Y0808210D02*
G01X1189650Y0812060D01*
G01X1178100Y0840550D02*
G01X1178100Y0825150D01*
G01X1193500Y0825150D02*
G01X1178100Y0840550D01*
G01X1193500Y0840550D02*
G01X1193500Y0825150D01*
G01X1162700Y0861340D02*
G01X1166550Y0865190D01*
G01X1162700Y0861340D02*
G01X1162700Y0853640D01*
G01X1166550Y0849790D02*
G01X1162700Y0853640D01*
G01X1166550Y0849790D02*
G01X1189650Y0849790D01*
G01X1189650Y0849790D02*
G01X1193500Y0853640D01*
G01X1176560Y0861340D02*
G01X1180410Y0865190D01*
G01X1176560Y0861340D02*
G01X1176560Y0849790D01*
G01X1193500Y0861340D02*
G01X1193500Y0853640D01*
G01X1193500Y0861340D02*
G01X1189650Y0865190D01*
G01X1180410Y0865190D02*
G01X1189650Y0865190D01*
G01X1623000Y0680200D02*
G01X1623000Y0668800D01*
G01X1623000Y0680200D02*
G01X1619200Y0684000D01*
G01X1615400Y0680200D02*
G01X1619200Y0684000D01*
G01X1615400Y0680200D02*
G01X1615400Y0668800D01*
G01X1611600Y0665000D02*
G01X1615400Y0668800D01*
G01X1611600Y0665000D02*
G01X1607800Y0668800D01*
G01X1607800Y0680200D02*
G01X1607800Y0668800D01*
G01X1607800Y0680200D02*
G01X1611600Y0684000D01*
G01X1619200Y0665000D02*
G01X1623000Y0668800D01*
G01X1592600Y0696920D02*
G01X1619200Y0696920D01*
G01X1619200Y0696920D02*
G01X1623000Y0700720D01*
G01X1604000Y0700720D02*
G01X1604000Y0693120D01*
G01X1623000Y0723520D02*
G01X1623000Y0712120D01*
G01X1619200Y0708320D02*
G01X1623000Y0712120D01*
G01X1611600Y0708320D02*
G01X1619200Y0708320D01*
G01X1611600Y0708320D02*
G01X1607800Y0712120D01*
G01X1607800Y0719720D02*
G01X1607800Y0712120D01*
G01X1607800Y0719720D02*
G01X1611600Y0723520D01*
G01X1615400Y0723520D02*
G01X1615400Y0708320D01*
G01X1611600Y0723520D02*
G01X1615400Y0723520D01*
G01X1611600Y0736440D02*
G01X1634400Y0736440D01*
G01X1607800Y0732640D02*
G01X1611600Y0736440D01*
G01X1611600Y0736440D02*
G01X1607800Y0740240D01*
G01X1607800Y0747840D02*
G01X1607800Y0740240D01*
G01X1607800Y0747840D02*
G01X1611600Y0751640D01*
G01X1611600Y0751640D02*
G01X1619200Y0751640D01*
G01X1623000Y0747840D02*
G01X1619200Y0751640D01*
G01X1623000Y0747840D02*
G01X1623000Y0740240D01*
G01X1619200Y0736440D02*
G01X1623000Y0740240D01*
G01X1962700Y0675000D02*
G01X1993500Y0675000D01*
G01X1993500Y0690400D02*
G01X1993500Y0675000D01*
G01X1993500Y0715040D02*
G01X1993500Y0703490D01*
G01X1989650Y0699640D02*
G01X1993500Y0703490D01*
G01X1981950Y0699640D02*
G01X1989650Y0699640D01*
G01X1981950Y0699640D02*
G01X1978100Y0703490D01*
G01X1978100Y0711190D02*
G01X1978100Y0703490D01*
G01X1978100Y0711190D02*
G01X1981950Y0715040D01*
G01X1985800Y0715040D02*
G01X1985800Y0699640D01*
G01X1981950Y0715040D02*
G01X1985800Y0715040D01*
G01X1978100Y0735830D02*
G01X1981950Y0739680D01*
G01X1978100Y0735830D02*
G01X1978100Y0728130D01*
G01X1981950Y0724280D02*
G01X1978100Y0728130D01*
G01X1981950Y0724280D02*
G01X1989650Y0724280D01*
G01X1989650Y0724280D02*
G01X1993500Y0728130D01*
G01X1993500Y0735830D02*
G01X1993500Y0728130D01*
G01X1993500Y0735830D02*
G01X1989650Y0739680D01*
G01X2001200Y0724280D02*
G01X2005050Y0728130D01*
G01X2005050Y0735830D02*
G01X2005050Y0728130D01*
G01X2005050Y0735830D02*
G01X2001200Y0739680D01*
G01X1978100Y0739680D02*
G01X2001200Y0739680D01*
G01X1978100Y0760470D02*
G01X1981950Y0764320D01*
G01X1978100Y0760470D02*
G01X1978100Y0752770D01*
G01X1981950Y0748920D02*
G01X1978100Y0752770D01*
G01X1981950Y0748920D02*
G01X1989650Y0748920D01*
G01X1989650Y0748920D02*
G01X1993500Y0752770D01*
G01X1978100Y0764320D02*
G01X1989650Y0764320D01*
G01X1989650Y0764320D02*
G01X1993500Y0768170D01*
G01X1993500Y0760470D02*
G01X1993500Y0752770D01*
G01X1993500Y0760470D02*
G01X1989650Y0764320D01*
G01X1978100Y0792810D02*
G01X1978100Y0781260D01*
G01X1981950Y0777410D02*
G01X1978100Y0781260D01*
G01X1981950Y0777410D02*
G01X1989650Y0777410D01*
G01X1989650Y0777410D02*
G01X1993500Y0781260D01*
G01X1993500Y0792810D02*
G01X1993500Y0781260D01*
G01X1978100Y0802050D02*
G01X1989650Y0802050D01*
G01X1989650Y0802050D02*
G01X1993500Y0805900D01*
G01X1978100Y0817450D02*
G01X2001200Y0817450D01*
G01X2005050Y0813600D02*
G01X2001200Y0817450D01*
G01X2005050Y0813600D02*
G01X2005050Y0805900D01*
G01X2001200Y0802050D02*
G01X2005050Y0805900D01*
G01X1993500Y0813600D02*
G01X1993500Y0805900D01*
G01X1993500Y0813600D02*
G01X1989650Y0817450D01*
G01X1978100Y0842090D02*
G01X1978100Y0826690D01*
G01X1962700Y0851330D02*
G01X1993500Y0851330D01*
G01X1993500Y0866730D02*
G01X1993500Y0851330D01*
G01X1978100Y0875970D02*
G01X1989650Y0875970D01*
G01X1989650Y0875970D02*
G01X1993500Y0879820D01*
G01X1993500Y0887520D02*
G01X1993500Y0879820D01*
G01X1993500Y0887520D02*
G01X1989650Y0891370D01*
G01X1978100Y0891370D02*
G01X1989650Y0891370D01*
G01X1962700Y0900610D02*
G01X1989650Y0900610D01*
G01X1989650Y0900610D02*
G01X1993500Y0904460D01*
G01X1978100Y0927560D02*
G01X1978100Y0912160D01*
G01X1993500Y0912160D02*
G01X1978100Y0927560D01*
G01X1993500Y0927560D02*
G01X1993500Y0912160D01*
G01X1993500Y0952200D02*
G01X1993500Y0936800D01*
G01X1993500Y0952200D02*
G01X1989650Y0956050D01*
G01X1980410Y0956050D02*
G01X1989650Y0956050D01*
G01X1976560Y0952200D02*
G01X1980410Y0956050D01*
G01X1976560Y0952200D02*
G01X1976560Y0940650D01*
G01X1962700Y0940650D02*
G01X1993500Y0940650D01*
G01X1962700Y0952200D02*
G01X1962700Y0936800D01*
G01X1962700Y0952200D02*
G01X1966550Y0956050D01*
G01X1966550Y0956050D02*
G01X1972710Y0956050D01*
G01X1976560Y0952200D02*
G01X1972710Y0956050D01*
G01X1981950Y0965290D02*
G01X1989650Y0965290D01*
G01X1981950Y0965290D02*
G01X1978100Y0969140D01*
G01X1978100Y0976840D02*
G01X1978100Y0969140D01*
G01X1978100Y0976840D02*
G01X1981950Y0980690D01*
G01X1981950Y0980690D02*
G01X1989650Y0980690D01*
G01X1993500Y0976840D02*
G01X1989650Y0980690D01*
G01X1993500Y0976840D02*
G01X1993500Y0969140D01*
G01X1989650Y0965290D02*
G01X1993500Y0969140D01*
G01X1962700Y0993780D02*
G01X1989650Y0993780D01*
G01X1989650Y0993780D02*
G01X1993500Y0997630D01*
G01X1974250Y0997630D02*
G01X1974250Y0989930D01*
G01X0862700Y1950000D02*
G01X0893500Y1950000D01*
G01X0893500Y1965400D02*
G01X0893500Y1950000D01*
G01X0893500Y1990040D02*
G01X0893500Y1978490D01*
G01X0889650Y1974640D02*
G01X0893500Y1978490D01*
G01X0881950Y1974640D02*
G01X0889650Y1974640D01*
G01X0881950Y1974640D02*
G01X0878100Y1978490D01*
G01X0878100Y1986190D02*
G01X0878100Y1978490D01*
G01X0878100Y1986190D02*
G01X0881950Y1990040D01*
G01X0885800Y1990040D02*
G01X0885800Y1974640D01*
G01X0881950Y1990040D02*
G01X0885800Y1990040D01*
G01X0878100Y2010830D02*
G01X0881950Y2014680D01*
G01X0878100Y2010830D02*
G01X0878100Y2003130D01*
G01X0881950Y1999280D02*
G01X0878100Y2003130D01*
G01X0881950Y1999280D02*
G01X0889650Y1999280D01*
G01X0889650Y1999280D02*
G01X0893500Y2003130D01*
G01X0893500Y2010830D02*
G01X0893500Y2003130D01*
G01X0893500Y2010830D02*
G01X0889650Y2014680D01*
G01X0901200Y1999280D02*
G01X0905050Y2003130D01*
G01X0905050Y2010830D02*
G01X0905050Y2003130D01*
G01X0905050Y2010830D02*
G01X0901200Y2014680D01*
G01X0878100Y2014680D02*
G01X0901200Y2014680D01*
G01X0878100Y2035470D02*
G01X0881950Y2039320D01*
G01X0878100Y2035470D02*
G01X0878100Y2027770D01*
G01X0881950Y2023920D02*
G01X0878100Y2027770D01*
G01X0881950Y2023920D02*
G01X0889650Y2023920D01*
G01X0889650Y2023920D02*
G01X0893500Y2027770D01*
G01X0878100Y2039320D02*
G01X0889650Y2039320D01*
G01X0889650Y2039320D02*
G01X0893500Y2043170D01*
G01X0893500Y2035470D02*
G01X0893500Y2027770D01*
G01X0893500Y2035470D02*
G01X0889650Y2039320D01*
G01X0878100Y2067810D02*
G01X0878100Y2056260D01*
G01X0881950Y2052410D02*
G01X0878100Y2056260D01*
G01X0881950Y2052410D02*
G01X0889650Y2052410D01*
G01X0889650Y2052410D02*
G01X0893500Y2056260D01*
G01X0893500Y2067810D02*
G01X0893500Y2056260D01*
G01X0878100Y2077050D02*
G01X0889650Y2077050D01*
G01X0889650Y2077050D02*
G01X0893500Y2080900D01*
G01X0878100Y2092450D02*
G01X0901200Y2092450D01*
G01X0905050Y2088600D02*
G01X0901200Y2092450D01*
G01X0905050Y2088600D02*
G01X0905050Y2080900D01*
G01X0901200Y2077050D02*
G01X0905050Y2080900D01*
G01X0893500Y2088600D02*
G01X0893500Y2080900D01*
G01X0893500Y2088600D02*
G01X0889650Y2092450D01*
G01X0878100Y2117090D02*
G01X0878100Y2101690D01*
G01X0862700Y2126330D02*
G01X0893500Y2126330D01*
G01X0893500Y2141730D02*
G01X0893500Y2126330D01*
G01X0878100Y2150970D02*
G01X0889650Y2150970D01*
G01X0889650Y2150970D02*
G01X0893500Y2154820D01*
G01X0893500Y2162520D02*
G01X0893500Y2154820D01*
G01X0893500Y2162520D02*
G01X0889650Y2166370D01*
G01X0878100Y2166370D02*
G01X0889650Y2166370D01*
G01X0862700Y2175610D02*
G01X0889650Y2175610D01*
G01X0889650Y2175610D02*
G01X0893500Y2179460D01*
G01X0878100Y2202560D02*
G01X0878100Y2187160D01*
G01X0893500Y2187160D02*
G01X0878100Y2202560D01*
G01X0893500Y2202560D02*
G01X0893500Y2187160D01*
G01X0893500Y2227200D02*
G01X0893500Y2211800D01*
G01X0893500Y2227200D02*
G01X0889650Y2231050D01*
G01X0880410Y2231050D02*
G01X0889650Y2231050D01*
G01X0876560Y2227200D02*
G01X0880410Y2231050D01*
G01X0876560Y2227200D02*
G01X0876560Y2215650D01*
G01X0862700Y2215650D02*
G01X0893500Y2215650D01*
G01X0862700Y2227200D02*
G01X0862700Y2211800D01*
G01X0862700Y2227200D02*
G01X0866550Y2231050D01*
G01X0866550Y2231050D02*
G01X0872710Y2231050D01*
G01X0876560Y2227200D02*
G01X0872710Y2231050D01*
G01X0881950Y2240290D02*
G01X0889650Y2240290D01*
G01X0881950Y2240290D02*
G01X0878100Y2244140D01*
G01X0878100Y2251840D02*
G01X0878100Y2244140D01*
G01X0878100Y2251840D02*
G01X0881950Y2255690D01*
G01X0881950Y2255690D02*
G01X0889650Y2255690D01*
G01X0893500Y2251840D02*
G01X0889650Y2255690D01*
G01X0893500Y2251840D02*
G01X0893500Y2244140D01*
G01X0889650Y2240290D02*
G01X0893500Y2244140D01*
G01X0862700Y2268780D02*
G01X0889650Y2268780D01*
G01X0889650Y2268780D02*
G01X0893500Y2272630D01*
G01X0874250Y2272630D02*
G01X0874250Y2264930D01*
G01X0662700Y2075000D02*
G01X0693500Y2075000D01*
G01X0662700Y2075000D02*
G01X0678100Y2086550D01*
G01X0678100Y2086550D02*
G01X0662700Y2098100D01*
G01X0662700Y2098100D02*
G01X0693500Y2098100D01*
G54D16*
G01X0670400Y2107340D02*
G01X0671170Y2107340D01*
G54D13*
G01X0681950Y2107340D02*
G01X0693500Y2107340D01*
G01X0681950Y2118890D02*
G01X0693500Y2118890D01*
G01X0681950Y2118890D02*
G01X0678100Y2122740D01*
G01X0678100Y2126590D02*
G01X0678100Y2122740D01*
G01X0678100Y2126590D02*
G01X0681950Y2130440D01*
G01X0681950Y2130440D02*
G01X0693500Y2130440D01*
G01X0678100Y2115040D02*
G01X0681950Y2118890D01*
G54D16*
G01X0670400Y2139680D02*
G01X0671170Y2139680D01*
G54D13*
G01X0681950Y2139680D02*
G01X0693500Y2139680D01*
G01X0693500Y2162780D02*
G01X0693500Y2147380D01*
G01X0662700Y2187420D02*
G01X0662700Y2172020D01*
G01X0662700Y2179720D02*
G01X0693500Y2179720D01*
G01X0678100Y2208210D02*
G01X0681950Y2212060D01*
G01X0678100Y2208210D02*
G01X0678100Y2200510D01*
G01X0681950Y2196660D02*
G01X0678100Y2200510D01*
G01X0681950Y2196660D02*
G01X0689650Y2196660D01*
G01X0689650Y2196660D02*
G01X0693500Y2200510D01*
G01X0678100Y2212060D02*
G01X0689650Y2212060D01*
G01X0689650Y2212060D02*
G01X0693500Y2215910D01*
G01X0693500Y2208210D02*
G01X0693500Y2200510D01*
G01X0693500Y2208210D02*
G01X0689650Y2212060D01*
G01X0678100Y2240550D02*
G01X0678100Y2225150D01*
G01X0693500Y2225150D02*
G01X0678100Y2240550D01*
G01X0693500Y2240550D02*
G01X0693500Y2225150D01*
G01X0662700Y2261340D02*
G01X0666550Y2265190D01*
G01X0662700Y2261340D02*
G01X0662700Y2253640D01*
G01X0666550Y2249790D02*
G01X0662700Y2253640D01*
G01X0666550Y2249790D02*
G01X0689650Y2249790D01*
G01X0689650Y2249790D02*
G01X0693500Y2253640D01*
G01X0676560Y2261340D02*
G01X0680410Y2265190D01*
G01X0676560Y2261340D02*
G01X0676560Y2249790D01*
G01X0693500Y2261340D02*
G01X0693500Y2253640D01*
G01X0693500Y2261340D02*
G01X0689650Y2265190D01*
G01X0680410Y2265190D02*
G01X0689650Y2265190D01*
G01X0223800Y2342400D02*
G01X0223800Y2312000D01*
G01X0220000Y2342400D02*
G01X0235200Y2342400D01*
G01X0235200Y2342400D02*
G01X0239000Y2338600D01*
G01X0239000Y2338600D02*
G01X0239000Y2331000D01*
G01X0235200Y2327200D02*
G01X0239000Y2331000D01*
G01X0223800Y2327200D02*
G01X0235200Y2327200D01*
G54D16*
G01X0248120Y2334800D02*
G01X0248120Y2334040D01*
G54D13*
G01X0248120Y2323400D02*
G01X0248120Y2312000D01*
G01X0259520Y2323400D02*
G01X0259520Y2312000D01*
G01X0259520Y2323400D02*
G01X0263320Y2327200D01*
G01X0263320Y2327200D02*
G01X0267120Y2327200D01*
G01X0267120Y2327200D02*
G01X0270920Y2323400D01*
G01X0270920Y2323400D02*
G01X0270920Y2312000D01*
G01X0255720Y2327200D02*
G01X0259520Y2323400D01*
G01X0283840Y2312000D02*
G01X0295240Y2312000D01*
G01X0295240Y2312000D02*
G01X0299040Y2315800D01*
G01X0295240Y2319600D02*
G01X0299040Y2315800D01*
G01X0283840Y2319600D02*
G01X0295240Y2319600D01*
G01X0280040Y2323400D02*
G01X0283840Y2319600D01*
G01X0280040Y2323400D02*
G01X0283840Y2327200D01*
G01X0283840Y2327200D02*
G01X0295240Y2327200D01*
G01X0295240Y2327200D02*
G01X0299040Y2323400D01*
G01X0280040Y2315800D02*
G01X0283840Y2312000D01*
G01X0325640Y2312000D02*
G01X0337040Y2312000D01*
G01X0321840Y2315800D02*
G01X0325640Y2312000D01*
G01X0321840Y2323400D02*
G01X0321840Y2315800D01*
G01X0321840Y2323400D02*
G01X0325640Y2327200D01*
G01X0325640Y2327200D02*
G01X0333240Y2327200D01*
G01X0333240Y2327200D02*
G01X0337040Y2323400D01*
G01X0321840Y2319600D02*
G01X0337040Y2319600D01*
G01X0337040Y2323400D02*
G01X0337040Y2319600D01*
G01X0349960Y2323400D02*
G01X0349960Y2312000D01*
G01X0349960Y2323400D02*
G01X0353760Y2327200D01*
G01X0353760Y2327200D02*
G01X0357560Y2327200D01*
G01X0357560Y2327200D02*
G01X0361360Y2323400D01*
G01X0361360Y2323400D02*
G01X0361360Y2312000D01*
G01X0361360Y2323400D02*
G01X0365160Y2327200D01*
G01X0365160Y2327200D02*
G01X0368960Y2327200D01*
G01X0368960Y2327200D02*
G01X0372760Y2323400D01*
G01X0372760Y2323400D02*
G01X0372760Y2312000D01*
G01X0346160Y2327200D02*
G01X0349960Y2323400D01*
G01X0385680Y2312000D02*
G01X0397080Y2312000D01*
G01X0381880Y2315800D02*
G01X0385680Y2312000D01*
G01X0381880Y2323400D02*
G01X0381880Y2315800D01*
G01X0381880Y2323400D02*
G01X0385680Y2327200D01*
G01X0385680Y2327200D02*
G01X0393280Y2327200D01*
G01X0393280Y2327200D02*
G01X0397080Y2323400D01*
G01X0381880Y2319600D02*
G01X0397080Y2319600D01*
G01X0397080Y2323400D02*
G01X0397080Y2319600D01*
G01X0410000Y2323400D02*
G01X0410000Y2312000D01*
G01X0410000Y2323400D02*
G01X0413800Y2327200D01*
G01X0413800Y2327200D02*
G01X0421400Y2327200D01*
G01X0406200Y2327200D02*
G01X0410000Y2323400D01*
G01X0441920Y2327200D02*
G01X0445720Y2323400D01*
G01X0434320Y2327200D02*
G01X0441920Y2327200D01*
G01X0430520Y2323400D02*
G01X0434320Y2327200D01*
G01X0430520Y2323400D02*
G01X0430520Y2315800D01*
G01X0430520Y2315800D02*
G01X0434320Y2312000D01*
G01X0434320Y2312000D02*
G01X0441920Y2312000D01*
G01X0441920Y2312000D02*
G01X0445720Y2315800D01*
G01X0430520Y2304400D02*
G01X0434320Y2300600D01*
G01X0434320Y2300600D02*
G01X0441920Y2300600D01*
G01X0441920Y2300600D02*
G01X0445720Y2304400D01*
G01X0445720Y2327200D02*
G01X0445720Y2304400D01*
G01X0458640Y2312000D02*
G01X0470040Y2312000D01*
G01X0454840Y2315800D02*
G01X0458640Y2312000D01*
G01X0454840Y2323400D02*
G01X0454840Y2315800D01*
G01X0454840Y2323400D02*
G01X0458640Y2327200D01*
G01X0458640Y2327200D02*
G01X0466240Y2327200D01*
G01X0466240Y2327200D02*
G01X0470040Y2323400D01*
G01X0454840Y2319600D02*
G01X0470040Y2319600D01*
G01X0470040Y2323400D02*
G01X0470040Y2319600D01*
G01X0496640Y2338600D02*
G01X0496640Y2312000D01*
G01X0496640Y2338600D02*
G01X0500440Y2342400D01*
G01X0500440Y2342400D02*
G01X0504240Y2342400D01*
G01X0492840Y2327200D02*
G01X0500440Y2327200D01*
G01X0515640Y2323400D02*
G01X0515640Y2312000D01*
G01X0515640Y2323400D02*
G01X0519440Y2327200D01*
G01X0519440Y2327200D02*
G01X0527040Y2327200D01*
G01X0511840Y2327200D02*
G01X0515640Y2323400D01*
G01X0536160Y2323400D02*
G01X0536160Y2315800D01*
G01X0536160Y2323400D02*
G01X0539960Y2327200D01*
G01X0539960Y2327200D02*
G01X0547560Y2327200D01*
G01X0547560Y2327200D02*
G01X0551360Y2323400D01*
G01X0551360Y2323400D02*
G01X0551360Y2315800D01*
G01X0547560Y2312000D02*
G01X0551360Y2315800D01*
G01X0539960Y2312000D02*
G01X0547560Y2312000D01*
G01X0536160Y2315800D02*
G01X0539960Y2312000D01*
G01X0564280Y2323400D02*
G01X0564280Y2312000D01*
G01X0564280Y2323400D02*
G01X0568080Y2327200D01*
G01X0568080Y2327200D02*
G01X0571880Y2327200D01*
G01X0571880Y2327200D02*
G01X0575680Y2323400D01*
G01X0575680Y2323400D02*
G01X0575680Y2312000D01*
G01X0575680Y2323400D02*
G01X0579480Y2327200D01*
G01X0579480Y2327200D02*
G01X0583280Y2327200D01*
G01X0583280Y2327200D02*
G01X0587080Y2323400D01*
G01X0587080Y2323400D02*
G01X0587080Y2312000D01*
G01X0560480Y2327200D02*
G01X0564280Y2323400D01*
G01X0263800Y2282400D02*
G01X0263800Y2255800D01*
G01X0263800Y2255800D02*
G01X0267600Y2252000D01*
G01X0260000Y2271000D02*
G01X0267600Y2271000D01*
G01X0275200Y2263400D02*
G01X0275200Y2255800D01*
G01X0275200Y2263400D02*
G01X0279000Y2267200D01*
G01X0279000Y2267200D02*
G01X0286600Y2267200D01*
G01X0286600Y2267200D02*
G01X0290400Y2263400D01*
G01X0290400Y2263400D02*
G01X0290400Y2255800D01*
G01X0286600Y2252000D02*
G01X0290400Y2255800D01*
G01X0279000Y2252000D02*
G01X0286600Y2252000D01*
G01X0275200Y2255800D02*
G01X0279000Y2252000D01*
G01X0303320Y2263400D02*
G01X0303320Y2240600D01*
G01X0299520Y2267200D02*
G01X0303320Y2263400D01*
G01X0303320Y2263400D02*
G01X0307120Y2267200D01*
G01X0307120Y2267200D02*
G01X0314720Y2267200D01*
G01X0314720Y2267200D02*
G01X0318520Y2263400D01*
G01X0318520Y2263400D02*
G01X0318520Y2255800D01*
G01X0314720Y2252000D02*
G01X0318520Y2255800D01*
G01X0307120Y2252000D02*
G01X0314720Y2252000D01*
G01X0303320Y2255800D02*
G01X0307120Y2252000D01*
G01X0341320Y2255800D02*
G01X0345120Y2252000D01*
G01X0341320Y2278600D02*
G01X0345120Y2282400D01*
G01X0341320Y2278600D02*
G01X0341320Y2255800D01*
G01X0358040Y2282400D02*
G01X0358040Y2255800D01*
G01X0358040Y2255800D02*
G01X0361840Y2252000D01*
G01X0354240Y2271000D02*
G01X0361840Y2271000D01*
G01X0369440Y2282400D02*
G01X0369440Y2252000D01*
G01X0369440Y2263400D02*
G01X0373240Y2267200D01*
G01X0373240Y2267200D02*
G01X0380840Y2267200D01*
G01X0380840Y2267200D02*
G01X0384640Y2263400D01*
G01X0384640Y2263400D02*
G01X0384640Y2252000D01*
G54D16*
G01X0393760Y2274800D02*
G01X0393760Y2274040D01*
G54D13*
G01X0393760Y2263400D02*
G01X0393760Y2252000D01*
G01X0405160Y2252000D02*
G01X0416560Y2252000D01*
G01X0416560Y2252000D02*
G01X0420360Y2255800D01*
G01X0416560Y2259600D02*
G01X0420360Y2255800D01*
G01X0405160Y2259600D02*
G01X0416560Y2259600D01*
G01X0401360Y2263400D02*
G01X0405160Y2259600D01*
G01X0401360Y2263400D02*
G01X0405160Y2267200D01*
G01X0405160Y2267200D02*
G01X0416560Y2267200D01*
G01X0416560Y2267200D02*
G01X0420360Y2263400D01*
G01X0401360Y2255800D02*
G01X0405160Y2252000D01*
G01X0446960Y2252000D02*
G01X0458360Y2252000D01*
G01X0458360Y2252000D02*
G01X0462160Y2255800D01*
G01X0458360Y2259600D02*
G01X0462160Y2255800D01*
G01X0446960Y2259600D02*
G01X0458360Y2259600D01*
G01X0443160Y2263400D02*
G01X0446960Y2259600D01*
G01X0443160Y2263400D02*
G01X0446960Y2267200D01*
G01X0446960Y2267200D02*
G01X0458360Y2267200D01*
G01X0458360Y2267200D02*
G01X0462160Y2263400D01*
G01X0443160Y2255800D02*
G01X0446960Y2252000D01*
G54D16*
G01X0471280Y2274800D02*
G01X0471280Y2274040D01*
G54D13*
G01X0471280Y2263400D02*
G01X0471280Y2252000D01*
G01X0494080Y2282400D02*
G01X0494080Y2252000D01*
G01X0490280Y2252000D02*
G01X0494080Y2255800D01*
G01X0482680Y2252000D02*
G01X0490280Y2252000D01*
G01X0478880Y2255800D02*
G01X0482680Y2252000D01*
G01X0478880Y2263400D02*
G01X0478880Y2255800D01*
G01X0478880Y2263400D02*
G01X0482680Y2267200D01*
G01X0482680Y2267200D02*
G01X0490280Y2267200D01*
G01X0490280Y2267200D02*
G01X0494080Y2263400D01*
G01X0507000Y2252000D02*
G01X0518400Y2252000D01*
G01X0503200Y2255800D02*
G01X0507000Y2252000D01*
G01X0503200Y2263400D02*
G01X0503200Y2255800D01*
G01X0503200Y2263400D02*
G01X0507000Y2267200D01*
G01X0507000Y2267200D02*
G01X0514600Y2267200D01*
G01X0514600Y2267200D02*
G01X0518400Y2263400D01*
G01X0503200Y2259600D02*
G01X0518400Y2259600D01*
G01X0518400Y2263400D02*
G01X0518400Y2259600D01*
G01X0527520Y2282400D02*
G01X0531320Y2278600D01*
G01X0531320Y2278600D02*
G01X0531320Y2255800D01*
G01X0527520Y2252000D02*
G01X0531320Y2255800D01*
G01X0554120Y2252000D02*
G01X0557920Y2252000D01*
G01X0223850Y2153050D02*
G01X0223850Y2129950D01*
G01X0220000Y2156900D02*
G01X0223850Y2153050D01*
G01X0223850Y2153050D02*
G01X0227700Y2156900D01*
G01X0227700Y2156900D02*
G01X0235400Y2156900D01*
G01X0235400Y2156900D02*
G01X0239250Y2153050D01*
G01X0239250Y2153050D02*
G01X0239250Y2145350D01*
G01X0235400Y2141500D02*
G01X0239250Y2145350D01*
G01X0227700Y2141500D02*
G01X0235400Y2141500D01*
G01X0223850Y2145350D02*
G01X0227700Y2141500D01*
G54D16*
G01X0248490Y2164600D02*
G01X0248490Y2163830D01*
G54D13*
G01X0248490Y2153050D02*
G01X0248490Y2141500D01*
G01X0260040Y2153050D02*
G01X0260040Y2141500D01*
G01X0260040Y2153050D02*
G01X0263890Y2156900D01*
G01X0263890Y2156900D02*
G01X0267740Y2156900D01*
G01X0267740Y2156900D02*
G01X0271590Y2153050D01*
G01X0271590Y2153050D02*
G01X0271590Y2141500D01*
G01X0256190Y2156900D02*
G01X0260040Y2153050D01*
G01X0284680Y2141500D02*
G01X0296230Y2141500D01*
G01X0296230Y2141500D02*
G01X0300080Y2145350D01*
G01X0296230Y2149200D02*
G01X0300080Y2145350D01*
G01X0284680Y2149200D02*
G01X0296230Y2149200D01*
G01X0280830Y2153050D02*
G01X0284680Y2149200D01*
G01X0280830Y2153050D02*
G01X0284680Y2156900D01*
G01X0284680Y2156900D02*
G01X0296230Y2156900D01*
G01X0296230Y2156900D02*
G01X0300080Y2153050D01*
G01X0280830Y2145350D02*
G01X0284680Y2141500D01*
G01X0323180Y2172300D02*
G01X0323180Y2145350D01*
G01X0323180Y2145350D02*
G01X0327030Y2141500D01*
G01X0334730Y2153050D02*
G01X0334730Y2145350D01*
G01X0334730Y2153050D02*
G01X0338580Y2156900D01*
G01X0338580Y2156900D02*
G01X0346280Y2156900D01*
G01X0346280Y2156900D02*
G01X0350130Y2153050D01*
G01X0350130Y2153050D02*
G01X0350130Y2145350D01*
G01X0346280Y2141500D02*
G01X0350130Y2145350D01*
G01X0338580Y2141500D02*
G01X0346280Y2141500D01*
G01X0334730Y2145350D02*
G01X0338580Y2141500D01*
G01X0363220Y2153050D02*
G01X0363220Y2141500D01*
G01X0363220Y2153050D02*
G01X0367070Y2156900D01*
G01X0367070Y2156900D02*
G01X0370920Y2156900D01*
G01X0370920Y2156900D02*
G01X0374770Y2153050D01*
G01X0374770Y2153050D02*
G01X0374770Y2141500D01*
G01X0359370Y2156900D02*
G01X0363220Y2153050D01*
G01X0395560Y2156900D02*
G01X0399410Y2153050D01*
G01X0387860Y2156900D02*
G01X0395560Y2156900D01*
G01X0384010Y2153050D02*
G01X0387860Y2156900D01*
G01X0384010Y2153050D02*
G01X0384010Y2145350D01*
G01X0384010Y2145350D02*
G01X0387860Y2141500D01*
G01X0387860Y2141500D02*
G01X0395560Y2141500D01*
G01X0395560Y2141500D02*
G01X0399410Y2145350D01*
G01X0384010Y2133800D02*
G01X0387860Y2129950D01*
G01X0387860Y2129950D02*
G01X0395560Y2129950D01*
G01X0395560Y2129950D02*
G01X0399410Y2133800D01*
G01X0399410Y2156900D02*
G01X0399410Y2133800D01*
G01X0412500Y2141500D02*
G01X0424050Y2141500D01*
G01X0408650Y2145350D02*
G01X0412500Y2141500D01*
G01X0408650Y2153050D02*
G01X0408650Y2145350D01*
G01X0408650Y2153050D02*
G01X0412500Y2156900D01*
G01X0412500Y2156900D02*
G01X0420200Y2156900D01*
G01X0420200Y2156900D02*
G01X0424050Y2153050D01*
G01X0408650Y2149200D02*
G01X0424050Y2149200D01*
G01X0424050Y2153050D02*
G01X0424050Y2149200D01*
G01X0437140Y2153050D02*
G01X0437140Y2141500D01*
G01X0437140Y2153050D02*
G01X0440990Y2156900D01*
G01X0440990Y2156900D02*
G01X0448690Y2156900D01*
G01X0433290Y2156900D02*
G01X0437140Y2153050D01*
G01X0457930Y2141500D02*
G01X0461780Y2141500D01*
G01X0225000Y2217300D02*
G01X0225000Y2186500D01*
G01X0225000Y2217300D02*
G01X0240400Y2217300D01*
G01X0225000Y2203440D02*
G01X0236550Y2203440D01*
G01X0261190Y2201900D02*
G01X0265040Y2198050D01*
G01X0253490Y2201900D02*
G01X0261190Y2201900D01*
G01X0249640Y2198050D02*
G01X0253490Y2201900D01*
G01X0249640Y2198050D02*
G01X0249640Y2190350D01*
G01X0249640Y2190350D02*
G01X0253490Y2186500D01*
G01X0265040Y2201900D02*
G01X0265040Y2190350D01*
G01X0265040Y2190350D02*
G01X0268890Y2186500D01*
G01X0253490Y2186500D02*
G01X0261190Y2186500D01*
G01X0261190Y2186500D02*
G01X0265040Y2190350D01*
G01X0281980Y2198050D02*
G01X0281980Y2186500D01*
G01X0281980Y2198050D02*
G01X0285830Y2201900D01*
G01X0285830Y2201900D02*
G01X0293530Y2201900D01*
G01X0278130Y2201900D02*
G01X0281980Y2198050D01*
G01X0320480Y2186500D02*
G01X0332030Y2186500D01*
G01X0332030Y2186500D02*
G01X0335880Y2190350D01*
G01X0332030Y2194200D02*
G01X0335880Y2190350D01*
G01X0320480Y2194200D02*
G01X0332030Y2194200D01*
G01X0316630Y2198050D02*
G01X0320480Y2194200D01*
G01X0316630Y2198050D02*
G01X0320480Y2201900D01*
G01X0320480Y2201900D02*
G01X0332030Y2201900D01*
G01X0332030Y2201900D02*
G01X0335880Y2198050D01*
G01X0316630Y2190350D02*
G01X0320480Y2186500D01*
G54D16*
G01X0345120Y2209600D02*
G01X0345120Y2208830D01*
G54D13*
G01X0345120Y2198050D02*
G01X0345120Y2186500D01*
G01X0368220Y2217300D02*
G01X0368220Y2186500D01*
G01X0364370Y2186500D02*
G01X0368220Y2190350D01*
G01X0356670Y2186500D02*
G01X0364370Y2186500D01*
G01X0352820Y2190350D02*
G01X0356670Y2186500D01*
G01X0352820Y2198050D02*
G01X0352820Y2190350D01*
G01X0352820Y2198050D02*
G01X0356670Y2201900D01*
G01X0356670Y2201900D02*
G01X0364370Y2201900D01*
G01X0364370Y2201900D02*
G01X0368220Y2198050D01*
G01X0381310Y2186500D02*
G01X0392860Y2186500D01*
G01X0377460Y2190350D02*
G01X0381310Y2186500D01*
G01X0377460Y2198050D02*
G01X0377460Y2190350D01*
G01X0377460Y2198050D02*
G01X0381310Y2201900D01*
G01X0381310Y2201900D02*
G01X0389010Y2201900D01*
G01X0389010Y2201900D02*
G01X0392860Y2198050D01*
G01X0377460Y2194200D02*
G01X0392860Y2194200D01*
G01X0392860Y2198050D02*
G01X0392860Y2194200D01*
G01X0419810Y2198050D02*
G01X0419810Y2174950D01*
G01X0415960Y2201900D02*
G01X0419810Y2198050D01*
G01X0419810Y2198050D02*
G01X0423660Y2201900D01*
G01X0423660Y2201900D02*
G01X0431360Y2201900D01*
G01X0431360Y2201900D02*
G01X0435210Y2198050D01*
G01X0435210Y2198050D02*
G01X0435210Y2190350D01*
G01X0431360Y2186500D02*
G01X0435210Y2190350D01*
G01X0423660Y2186500D02*
G01X0431360Y2186500D01*
G01X0419810Y2190350D02*
G01X0423660Y2186500D01*
G54D16*
G01X0444450Y2209600D02*
G01X0444450Y2208830D01*
G54D13*
G01X0444450Y2198050D02*
G01X0444450Y2186500D01*
G01X0456000Y2198050D02*
G01X0456000Y2186500D01*
G01X0456000Y2198050D02*
G01X0459850Y2201900D01*
G01X0459850Y2201900D02*
G01X0463700Y2201900D01*
G01X0463700Y2201900D02*
G01X0467550Y2198050D01*
G01X0467550Y2198050D02*
G01X0467550Y2186500D01*
G01X0452150Y2201900D02*
G01X0456000Y2198050D01*
G01X0476790Y2211140D02*
G01X0482950Y2217300D01*
G01X0482950Y2217300D02*
G01X0482950Y2186500D01*
G01X0476790Y2186500D02*
G01X0488340Y2186500D01*
G01X0515290Y2186500D02*
G01X0526840Y2186500D01*
G01X0526840Y2186500D02*
G01X0530690Y2190350D01*
G01X0526840Y2194200D02*
G01X0530690Y2190350D01*
G01X0515290Y2194200D02*
G01X0526840Y2194200D01*
G01X0511440Y2198050D02*
G01X0515290Y2194200D01*
G01X0511440Y2198050D02*
G01X0515290Y2201900D01*
G01X0515290Y2201900D02*
G01X0526840Y2201900D01*
G01X0526840Y2201900D02*
G01X0530690Y2198050D01*
G01X0511440Y2190350D02*
G01X0515290Y2186500D01*
G54D16*
G01X0539930Y2209600D02*
G01X0539930Y2208830D01*
G54D13*
G01X0539930Y2198050D02*
G01X0539930Y2186500D01*
G01X0563030Y2217300D02*
G01X0563030Y2186500D01*
G01X0559180Y2186500D02*
G01X0563030Y2190350D01*
G01X0551480Y2186500D02*
G01X0559180Y2186500D01*
G01X0547630Y2190350D02*
G01X0551480Y2186500D01*
G01X0547630Y2198050D02*
G01X0547630Y2190350D01*
G01X0547630Y2198050D02*
G01X0551480Y2201900D01*
G01X0551480Y2201900D02*
G01X0559180Y2201900D01*
G01X0559180Y2201900D02*
G01X0563030Y2198050D01*
G01X0576120Y2186500D02*
G01X0587670Y2186500D01*
G01X0572270Y2190350D02*
G01X0576120Y2186500D01*
G01X0572270Y2198050D02*
G01X0572270Y2190350D01*
G01X0572270Y2198050D02*
G01X0576120Y2201900D01*
G01X0576120Y2201900D02*
G01X0583820Y2201900D01*
G01X0583820Y2201900D02*
G01X0587670Y2198050D01*
G01X0572270Y2194200D02*
G01X0587670Y2194200D01*
G01X0587670Y2198050D02*
G01X0587670Y2194200D01*
G01X1623000Y2200200D02*
G01X1623000Y2188800D01*
G01X1623000Y2200200D02*
G01X1619200Y2204000D01*
G01X1615400Y2200200D02*
G01X1619200Y2204000D01*
G01X1615400Y2200200D02*
G01X1615400Y2188800D01*
G01X1611600Y2185000D02*
G01X1615400Y2188800D01*
G01X1611600Y2185000D02*
G01X1607800Y2188800D01*
G01X1607800Y2200200D02*
G01X1607800Y2188800D01*
G01X1607800Y2200200D02*
G01X1611600Y2204000D01*
G01X1619200Y2185000D02*
G01X1623000Y2188800D01*
G01X1592600Y2216920D02*
G01X1619200Y2216920D01*
G01X1619200Y2216920D02*
G01X1623000Y2220720D01*
G01X1604000Y2220720D02*
G01X1604000Y2213120D01*
G01X1623000Y2243520D02*
G01X1623000Y2232120D01*
G01X1619200Y2228320D02*
G01X1623000Y2232120D01*
G01X1611600Y2228320D02*
G01X1619200Y2228320D01*
G01X1611600Y2228320D02*
G01X1607800Y2232120D01*
G01X1607800Y2239720D02*
G01X1607800Y2232120D01*
G01X1607800Y2239720D02*
G01X1611600Y2243520D01*
G01X1615400Y2243520D02*
G01X1615400Y2228320D01*
G01X1611600Y2243520D02*
G01X1615400Y2243520D01*
G01X1611600Y2256440D02*
G01X1634400Y2256440D01*
G01X1607800Y2252640D02*
G01X1611600Y2256440D01*
G01X1611600Y2256440D02*
G01X1607800Y2260240D01*
G01X1607800Y2267840D02*
G01X1607800Y2260240D01*
G01X1607800Y2267840D02*
G01X1611600Y2271640D01*
G01X1611600Y2271640D02*
G01X1619200Y2271640D01*
G01X1623000Y2267840D02*
G01X1619200Y2271640D01*
G01X1623000Y2267840D02*
G01X1623000Y2260240D01*
G01X1619200Y2256440D02*
G01X1623000Y2260240D01*
G01X1382700Y1950000D02*
G01X1413500Y1950000D01*
G01X1413500Y1965400D02*
G01X1413500Y1950000D01*
G01X1413500Y1990040D02*
G01X1413500Y1978490D01*
G01X1409650Y1974640D02*
G01X1413500Y1978490D01*
G01X1401950Y1974640D02*
G01X1409650Y1974640D01*
G01X1401950Y1974640D02*
G01X1398100Y1978490D01*
G01X1398100Y1986190D02*
G01X1398100Y1978490D01*
G01X1398100Y1986190D02*
G01X1401950Y1990040D01*
G01X1405800Y1990040D02*
G01X1405800Y1974640D01*
G01X1401950Y1990040D02*
G01X1405800Y1990040D01*
G01X1398100Y2010830D02*
G01X1401950Y2014680D01*
G01X1398100Y2010830D02*
G01X1398100Y2003130D01*
G01X1401950Y1999280D02*
G01X1398100Y2003130D01*
G01X1401950Y1999280D02*
G01X1409650Y1999280D01*
G01X1409650Y1999280D02*
G01X1413500Y2003130D01*
G01X1413500Y2010830D02*
G01X1413500Y2003130D01*
G01X1413500Y2010830D02*
G01X1409650Y2014680D01*
G01X1421200Y1999280D02*
G01X1425050Y2003130D01*
G01X1425050Y2010830D02*
G01X1425050Y2003130D01*
G01X1425050Y2010830D02*
G01X1421200Y2014680D01*
G01X1398100Y2014680D02*
G01X1421200Y2014680D01*
G01X1398100Y2035470D02*
G01X1401950Y2039320D01*
G01X1398100Y2035470D02*
G01X1398100Y2027770D01*
G01X1401950Y2023920D02*
G01X1398100Y2027770D01*
G01X1401950Y2023920D02*
G01X1409650Y2023920D01*
G01X1409650Y2023920D02*
G01X1413500Y2027770D01*
G01X1398100Y2039320D02*
G01X1409650Y2039320D01*
G01X1409650Y2039320D02*
G01X1413500Y2043170D01*
G01X1413500Y2035470D02*
G01X1413500Y2027770D01*
G01X1413500Y2035470D02*
G01X1409650Y2039320D01*
G01X1398100Y2067810D02*
G01X1398100Y2056260D01*
G01X1401950Y2052410D02*
G01X1398100Y2056260D01*
G01X1401950Y2052410D02*
G01X1409650Y2052410D01*
G01X1409650Y2052410D02*
G01X1413500Y2056260D01*
G01X1413500Y2067810D02*
G01X1413500Y2056260D01*
G01X1398100Y2077050D02*
G01X1409650Y2077050D01*
G01X1409650Y2077050D02*
G01X1413500Y2080900D01*
G01X1398100Y2092450D02*
G01X1421200Y2092450D01*
G01X1425050Y2088600D02*
G01X1421200Y2092450D01*
G01X1425050Y2088600D02*
G01X1425050Y2080900D01*
G01X1421200Y2077050D02*
G01X1425050Y2080900D01*
G01X1413500Y2088600D02*
G01X1413500Y2080900D01*
G01X1413500Y2088600D02*
G01X1409650Y2092450D01*
G01X1398100Y2117090D02*
G01X1398100Y2101690D01*
G01X1382700Y2126330D02*
G01X1413500Y2126330D01*
G01X1413500Y2141730D02*
G01X1413500Y2126330D01*
G01X1398100Y2150970D02*
G01X1409650Y2150970D01*
G01X1409650Y2150970D02*
G01X1413500Y2154820D01*
G01X1413500Y2162520D02*
G01X1413500Y2154820D01*
G01X1413500Y2162520D02*
G01X1409650Y2166370D01*
G01X1398100Y2166370D02*
G01X1409650Y2166370D01*
G01X1382700Y2175610D02*
G01X1409650Y2175610D01*
G01X1409650Y2175610D02*
G01X1413500Y2179460D01*
G01X1398100Y2202560D02*
G01X1398100Y2187160D01*
G01X1413500Y2187160D02*
G01X1398100Y2202560D01*
G01X1413500Y2202560D02*
G01X1413500Y2187160D01*
G01X1413500Y2227200D02*
G01X1413500Y2211800D01*
G01X1413500Y2227200D02*
G01X1409650Y2231050D01*
G01X1400410Y2231050D02*
G01X1409650Y2231050D01*
G01X1396560Y2227200D02*
G01X1400410Y2231050D01*
G01X1396560Y2227200D02*
G01X1396560Y2215650D01*
G01X1382700Y2215650D02*
G01X1413500Y2215650D01*
G01X1382700Y2227200D02*
G01X1382700Y2211800D01*
G01X1382700Y2227200D02*
G01X1386550Y2231050D01*
G01X1386550Y2231050D02*
G01X1392710Y2231050D01*
G01X1396560Y2227200D02*
G01X1392710Y2231050D01*
G01X1401950Y2240290D02*
G01X1409650Y2240290D01*
G01X1401950Y2240290D02*
G01X1398100Y2244140D01*
G01X1398100Y2251840D02*
G01X1398100Y2244140D01*
G01X1398100Y2251840D02*
G01X1401950Y2255690D01*
G01X1401950Y2255690D02*
G01X1409650Y2255690D01*
G01X1413500Y2251840D02*
G01X1409650Y2255690D01*
G01X1413500Y2251840D02*
G01X1413500Y2244140D01*
G01X1409650Y2240290D02*
G01X1413500Y2244140D01*
G01X1382700Y2268780D02*
G01X1409650Y2268780D01*
G01X1409650Y2268780D02*
G01X1413500Y2272630D01*
G01X1394250Y2272630D02*
G01X1394250Y2264930D01*
G01X1092700Y2075000D02*
G01X1123500Y2075000D01*
G01X1092700Y2075000D02*
G01X1108100Y2086550D01*
G01X1108100Y2086550D02*
G01X1092700Y2098100D01*
G01X1092700Y2098100D02*
G01X1123500Y2098100D01*
G54D16*
G01X1100400Y2107340D02*
G01X1101170Y2107340D01*
G54D13*
G01X1111950Y2107340D02*
G01X1123500Y2107340D01*
G01X1111950Y2118890D02*
G01X1123500Y2118890D01*
G01X1111950Y2118890D02*
G01X1108100Y2122740D01*
G01X1108100Y2126590D02*
G01X1108100Y2122740D01*
G01X1108100Y2126590D02*
G01X1111950Y2130440D01*
G01X1111950Y2130440D02*
G01X1123500Y2130440D01*
G01X1108100Y2115040D02*
G01X1111950Y2118890D01*
G54D16*
G01X1100400Y2139680D02*
G01X1101170Y2139680D01*
G54D13*
G01X1111950Y2139680D02*
G01X1123500Y2139680D01*
G01X1123500Y2162780D02*
G01X1123500Y2147380D01*
G01X1092700Y2187420D02*
G01X1092700Y2172020D01*
G01X1092700Y2179720D02*
G01X1123500Y2179720D01*
G01X1108100Y2208210D02*
G01X1111950Y2212060D01*
G01X1108100Y2208210D02*
G01X1108100Y2200510D01*
G01X1111950Y2196660D02*
G01X1108100Y2200510D01*
G01X1111950Y2196660D02*
G01X1119650Y2196660D01*
G01X1119650Y2196660D02*
G01X1123500Y2200510D01*
G01X1108100Y2212060D02*
G01X1119650Y2212060D01*
G01X1119650Y2212060D02*
G01X1123500Y2215910D01*
G01X1123500Y2208210D02*
G01X1123500Y2200510D01*
G01X1123500Y2208210D02*
G01X1119650Y2212060D01*
G01X1108100Y2240550D02*
G01X1108100Y2225150D01*
G01X1123500Y2225150D02*
G01X1108100Y2240550D01*
G01X1123500Y2240550D02*
G01X1123500Y2225150D01*
G01X1092700Y2261340D02*
G01X1096550Y2265190D01*
G01X1092700Y2261340D02*
G01X1092700Y2253640D01*
G01X1096550Y2249790D02*
G01X1092700Y2253640D01*
G01X1096550Y2249790D02*
G01X1119650Y2249790D01*
G01X1119650Y2249790D02*
G01X1123500Y2253640D01*
G01X1106560Y2261340D02*
G01X1110410Y2265190D01*
G01X1106560Y2261340D02*
G01X1106560Y2249790D01*
G01X1123500Y2261340D02*
G01X1123500Y2253640D01*
G01X1123500Y2261340D02*
G01X1119650Y2265190D01*
G01X1110410Y2265190D02*
G01X1119650Y2265190D01*
G01X1232700Y1585000D02*
G01X1263500Y1585000D01*
G01X1232700Y1585000D02*
G01X1248100Y1596550D01*
G01X1248100Y1596550D02*
G01X1232700Y1608100D01*
G01X1232700Y1608100D02*
G01X1263500Y1608100D01*
G54D16*
G01X1240400Y1617340D02*
G01X1241170Y1617340D01*
G54D13*
G01X1251950Y1617340D02*
G01X1263500Y1617340D01*
G01X1251950Y1628890D02*
G01X1263500Y1628890D01*
G01X1251950Y1628890D02*
G01X1248100Y1632740D01*
G01X1248100Y1636590D02*
G01X1248100Y1632740D01*
G01X1248100Y1636590D02*
G01X1251950Y1640440D01*
G01X1251950Y1640440D02*
G01X1263500Y1640440D01*
G01X1248100Y1625040D02*
G01X1251950Y1628890D01*
G54D16*
G01X1240400Y1649680D02*
G01X1241170Y1649680D01*
G54D13*
G01X1251950Y1649680D02*
G01X1263500Y1649680D01*
G01X1263500Y1672780D02*
G01X1263500Y1657380D01*
G01X1232700Y1697420D02*
G01X1232700Y1682020D01*
G01X1232700Y1689720D02*
G01X1263500Y1689720D01*
G01X1248100Y1718210D02*
G01X1251950Y1722060D01*
G01X1248100Y1718210D02*
G01X1248100Y1710510D01*
G01X1251950Y1706660D02*
G01X1248100Y1710510D01*
G01X1251950Y1706660D02*
G01X1259650Y1706660D01*
G01X1259650Y1706660D02*
G01X1263500Y1710510D01*
G01X1248100Y1722060D02*
G01X1259650Y1722060D01*
G01X1259650Y1722060D02*
G01X1263500Y1725910D01*
G01X1263500Y1718210D02*
G01X1263500Y1710510D01*
G01X1263500Y1718210D02*
G01X1259650Y1722060D01*
G01X1248100Y1750550D02*
G01X1248100Y1735150D01*
G01X1263500Y1735150D02*
G01X1248100Y1750550D01*
G01X1263500Y1750550D02*
G01X1263500Y1735150D01*
G01X1232700Y1771340D02*
G01X1236550Y1775190D01*
G01X1232700Y1771340D02*
G01X1232700Y1763640D01*
G01X1236550Y1759790D02*
G01X1232700Y1763640D01*
G01X1236550Y1759790D02*
G01X1259650Y1759790D01*
G01X1259650Y1759790D02*
G01X1263500Y1763640D01*
G01X1246560Y1771340D02*
G01X1250410Y1775190D01*
G01X1246560Y1771340D02*
G01X1246560Y1759790D01*
G01X1263500Y1771340D02*
G01X1263500Y1763640D01*
G01X1263500Y1771340D02*
G01X1259650Y1775190D01*
G01X1250410Y1775190D02*
G01X1259650Y1775190D01*
G54D11*
G01X0650000Y2550000D02*
G01X1650000Y2550000D01*
G01X0650000Y2550000D02*
G01X0650000Y2350000D01*
G01X0650000Y2350000D02*
G01X1650000Y2350000D01*
G01X1650000Y2550000D02*
G01X1650000Y2350000D01*
G01X1550000Y2550000D02*
G01X1550000Y2450000D01*
G01X1550000Y2450000D02*
G01X1650000Y2450000D01*
G54D12*
G01X1280000Y0510000D02*
G01X1280000Y0205000D01*
G01X1405000Y0215000D02*
G01X1435000Y0245000D01*
G01X1310000Y0205000D02*
G01X1395000Y0205000D01*
G01X1435000Y0285000D02*
G01X1435000Y0245000D01*
G01X1445000Y0440000D02*
G01X1445000Y0410000D01*
G01X1415000Y0440000D02*
G01X1415000Y0410000D01*
G01X1300000Y0410000D02*
G01X1300000Y0155000D01*
G01X1250000Y0585000D02*
G01X1250000Y0105000D01*
G01X1300000Y0155000D02*
G01X1405000Y0155000D01*
G01X1405000Y0160000D02*
G01X1460000Y0160000D01*
G01X1405000Y0160000D02*
G01X1405000Y0145000D01*
G01X1445000Y0145000D02*
G01X1460000Y0145000D01*
G01X1425000Y0145000D02*
G01X1435000Y0135000D01*
G01X1405000Y0145000D02*
G01X1425000Y0145000D01*
G01X1280000Y0205000D02*
G01X1285000Y0205000D01*
G01X1435000Y0205000D02*
G01X1445000Y0215000D01*
G01X1435000Y0225000D02*
G01X1445000Y0215000D01*
G01X1425000Y0215000D02*
G01X1435000Y0225000D01*
G01X1425000Y0215000D02*
G01X1435000Y0205000D01*
G01X1405000Y0215000D02*
G01X1435000Y0185000D01*
G01X1300000Y0410000D02*
G01X1450000Y0410000D01*
G01X1345000Y0540000D02*
G01X1345000Y0510000D01*
G01X1375000Y0540000D02*
G01X1375000Y0510000D01*
G01X1375000Y0510000D02*
G01X1280000Y0510000D01*
G01X1315000Y0540000D02*
G01X1315000Y0510000D01*
G01X1665000Y0545000D02*
G01X1665000Y0530000D01*
G01X1695000Y0545000D02*
G01X1695000Y0530000D01*
G01X1665000Y0530000D02*
G01X1680000Y0530000D01*
G01X1695000Y0545000D02*
G01X1695000Y0540000D01*
G01X1665000Y0545000D02*
G01X1665000Y0540000D01*
G01X1675000Y0530000D02*
G01X1755000Y0530000D01*
G01X1540000Y0430000D02*
G01X1735000Y0430000D01*
G01X1620000Y0455000D02*
G01X1620000Y0430000D01*
G01X1540000Y0455000D02*
G01X1540000Y0430000D01*
G01X1595000Y0435000D02*
G01X1595000Y0430000D01*
G01X1565000Y0435000D02*
G01X1565000Y0430000D01*
G01X1775000Y0465000D02*
G01X1775000Y0165000D01*
G01X1755000Y0530000D02*
G01X1755000Y0205000D01*
G01X1735000Y0430000D02*
G01X1735000Y0290000D01*
G01X1805000Y0480000D02*
G01X1805000Y0475000D01*
G01X1795000Y0465000D02*
G01X1805000Y0475000D01*
G01X1795000Y0430000D02*
G01X1795000Y0405000D01*
G01X1795000Y0410000D02*
G01X1795000Y0135000D01*
G01X1795000Y0430000D02*
G01X1845000Y0430000D01*
G01X1855000Y0445000D02*
G01X1855000Y0440000D01*
G01X1845000Y0430000D02*
G01X1855000Y0440000D01*
G01X1824990Y0440000D02*
G01X1835000Y0430000D01*
G01X1824990Y0445000D02*
G01X1824990Y0440000D01*
G01X1775000Y0465000D02*
G01X1795000Y0465000D01*
G01X1775000Y0475000D02*
G01X1785000Y0465000D01*
G01X1775000Y0480000D02*
G01X1775000Y0475000D01*
G01X2000000Y0440000D02*
G01X2000000Y0410000D01*
G01X1855000Y0410000D02*
G01X2000000Y0410000D01*
G01X1970000Y0440000D02*
G01X1970000Y0410000D01*
G01X1855000Y0410000D02*
G01X1855000Y0220000D01*
G01X1855000Y0220000D02*
G01X1970000Y0220000D01*
G01X1970000Y0260000D02*
G01X1970000Y0165000D01*
G01X1995000Y0260000D02*
G01X1995000Y0140000D01*
G01X1970000Y0260000D02*
G01X1995000Y0260000D01*
G01X1819990Y0145000D02*
G01X1970000Y0165000D01*
G01X1819990Y0145000D02*
G01X1819990Y0135000D01*
G01X1819990Y0135000D02*
G01X1995000Y0140000D01*
G01X1600000Y0290000D02*
G01X1735000Y0290000D01*
G01X1520000Y0135000D02*
G01X1795000Y0135000D01*
G01X1515000Y0165000D02*
G01X1775000Y0165000D01*
G01X1595000Y0205000D02*
G01X1755000Y0205000D01*
G01X1540000Y0200000D02*
G01X1590000Y0200000D01*
G01X1515000Y0180000D02*
G01X1515000Y0150000D01*
G01X1510000Y0145000D02*
G01X1520000Y0135000D01*
G01X1485000Y0180000D02*
G01X1515000Y0180000D01*
G01X1485000Y0180000D02*
G01X1485000Y0150000D01*
G01X1500000Y0135000D02*
G01X1515000Y0150000D01*
G01X1485000Y0150000D02*
G01X1500000Y0135000D01*
G01X1500000Y0350000D02*
G01X1500000Y0310000D01*
G01X1500000Y0275000D02*
G01X1500000Y0270000D01*
G01X1500000Y0290000D02*
G01X1500000Y0285000D01*
G01X1485000Y0255000D02*
G01X1515000Y0255000D01*
G01X1525000Y0290000D02*
G01X1529990Y0285000D01*
G01X1529990Y0285000D02*
G01X1545000Y0285000D01*
G01X1525000Y0310000D02*
G01X1529990Y0315000D01*
G01X1529990Y0315000D02*
G01X1545000Y0315000D01*
G01X1515000Y0310000D02*
G01X1515000Y0290000D01*
G01X1505000Y0300000D02*
G01X1525000Y0300000D01*
G01X1485000Y0240000D02*
G01X1515000Y0240000D01*
G01X1485000Y0225000D02*
G01X1515000Y0225000D01*
G01X1485000Y0210000D02*
G01X1515000Y0210000D01*
G01X1500000Y0260000D02*
G01X1500000Y0180000D01*
G01X1540000Y0330000D02*
G01X1540000Y0270000D01*
G01X1540000Y0270000D02*
G01X1600000Y0270000D01*
G01X1529990Y0260000D02*
G01X1590000Y0260000D01*
G01X1590000Y0260000D02*
G01X1605000Y0245000D01*
G01X1529990Y0230000D02*
G01X1540000Y0230000D01*
G01X1540000Y0230000D02*
G01X1540000Y0200000D01*
G01X1540000Y0330000D02*
G01X1600000Y0330000D01*
G01X1600000Y0330000D02*
G01X1600000Y0270000D01*
G01X1555000Y0300000D02*
G01X1570000Y0285000D01*
G01X1570000Y0285000D02*
G01X1585000Y0300000D01*
G01X1570000Y0315000D02*
G01X1585000Y0300000D01*
G01X1555000Y0300000D02*
G01X1570000Y0315000D01*
G01X1590000Y0200000D02*
G01X1605000Y0215000D01*
G01X1605000Y0245000D02*
G01X1605000Y0215000D01*
G01X1570000Y0245000D02*
G01X1585000Y0230000D01*
G01X1555000Y0230000D02*
G01X1570000Y0245000D01*
G01X1555000Y0230000D02*
G01X1570000Y0215000D01*
G01X1570000Y0215000D02*
G01X1585000Y0230000D01*
G01X1435000Y0205000D02*
G01X1435000Y0160000D01*
G01X1460000Y0160000D02*
G01X1460000Y0145000D01*
G01X1250000Y0585000D02*
G01X2030000Y0585000D01*
G01X2030000Y0585000D02*
G01X2030000Y0105000D01*
G01X1250000Y0105000D02*
G01X2030000Y0105000D01*
G01X1435000Y0185000D02*
G01X1465000Y0215000D01*
G01X1435000Y0245000D02*
G01X1465000Y0215000D01*
G01X1475000Y0440000D02*
G01X1475000Y0410000D01*
G01X1410000Y0410000D02*
G01X1475000Y0410000D01*
G54D19*
G01X1547000Y0375800D02*
G01X1547000Y0365000D01*
G01X1544300Y0378490D02*
G01X1547000Y0375800D01*
G01X1537820Y0378490D02*
G01X1544300Y0378490D01*
G01X1535120Y0375800D02*
G01X1537820Y0378490D01*
G01X1535120Y0375800D02*
G01X1535120Y0367700D01*
G01X1525400Y0367700D02*
G01X1547000Y0367700D01*
G01X1525400Y0375800D02*
G01X1525400Y0365000D01*
G01X1525400Y0375800D02*
G01X1528100Y0378490D01*
G01X1528100Y0378490D02*
G01X1532420Y0378490D01*
G01X1532420Y0378490D02*
G01X1535120Y0375800D01*
G01X1525400Y0384980D02*
G01X1544300Y0384980D01*
G01X1544300Y0384980D02*
G01X1547000Y0387680D01*
G01X1536200Y0393080D02*
G01X1544300Y0393080D01*
G01X1544300Y0393080D02*
G01X1547000Y0395780D01*
G01X1547000Y0401180D02*
G01X1547000Y0395780D01*
G01X1544300Y0403880D02*
G01X1547000Y0401180D01*
G01X1536200Y0403880D02*
G01X1544300Y0403880D01*
G01X1547000Y0421160D02*
G01X1547000Y0413060D01*
G01X1544300Y0410350D02*
G01X1547000Y0413060D01*
G01X1538900Y0410350D02*
G01X1544300Y0410350D01*
G01X1536200Y0413060D02*
G01X1538900Y0410350D01*
G01X1536200Y0418450D02*
G01X1536200Y0413060D01*
G01X1536200Y0418450D02*
G01X1538900Y0421160D01*
G01X1541590Y0421160D02*
G01X1541590Y0410350D01*
G01X1538900Y0421160D02*
G01X1541590Y0421160D01*
G01X1465400Y0370000D02*
G01X1487000Y0370000D01*
G01X1465400Y0370000D02*
G01X1487000Y0383500D01*
G01X1465400Y0383500D02*
G01X1487000Y0383500D01*
G01X1487000Y0400780D02*
G01X1487000Y0393750D01*
G01X1483220Y0389980D02*
G01X1487000Y0393750D01*
G01X1469180Y0389980D02*
G01X1483220Y0389980D01*
G01X1465400Y0393750D02*
G01X1469180Y0389980D01*
G01X1465400Y0400780D02*
G01X1465400Y0393750D01*
G54D20*
G01X1421500Y0395600D02*
G01X1421500Y0388700D01*
G01X1417790Y0385000D02*
G01X1421500Y0388700D01*
G01X1404010Y0385000D02*
G01X1417790Y0385000D01*
G01X1400300Y0388700D02*
G01X1404010Y0385000D01*
G01X1400300Y0395600D02*
G01X1400300Y0388700D01*
G01X1435300Y0370000D02*
G01X1456500Y0370000D01*
G01X1435300Y0370000D02*
G01X1456500Y0383250D01*
G01X1435300Y0383250D02*
G01X1456500Y0383250D01*
G01X1437950Y0389610D02*
G01X1453850Y0389610D01*
G01X1435300Y0392250D02*
G01X1437950Y0389610D01*
G01X1435300Y0397560D02*
G01X1435300Y0392250D01*
G01X1435300Y0397560D02*
G01X1437950Y0400210D01*
G01X1437950Y0400210D02*
G01X1453850Y0400210D01*
G01X1453850Y0400210D02*
G01X1456500Y0397560D01*
G01X1456500Y0397560D02*
G01X1456500Y0392250D01*
G01X1453850Y0389610D02*
G01X1456500Y0392250D01*
G54D19*
G01X1320800Y0234600D02*
G01X1323500Y0231900D01*
G01X1312700Y0234600D02*
G01X1320800Y0234600D01*
G01X1310000Y0231900D02*
G01X1312700Y0234600D01*
G01X1310000Y0231900D02*
G01X1310000Y0226500D01*
G01X1310000Y0226500D02*
G01X1312700Y0223800D01*
G01X1312700Y0223800D02*
G01X1320800Y0223800D01*
G01X1320800Y0223800D02*
G01X1323500Y0221100D01*
G01X1323500Y0221100D02*
G01X1323500Y0215700D01*
G01X1320800Y0213000D02*
G01X1323500Y0215700D01*
G01X1312700Y0213000D02*
G01X1320800Y0213000D01*
G01X1310000Y0215700D02*
G01X1312700Y0213000D01*
G01X1332680Y0213000D02*
G01X1340780Y0213000D01*
G01X1329980Y0215700D02*
G01X1332680Y0213000D01*
G01X1329980Y0221100D02*
G01X1329980Y0215700D01*
G01X1329980Y0221100D02*
G01X1332680Y0223800D01*
G01X1332680Y0223800D02*
G01X1338080Y0223800D01*
G01X1338080Y0223800D02*
G01X1340780Y0221100D01*
G01X1329980Y0218390D02*
G01X1340780Y0218390D01*
G01X1340780Y0221100D02*
G01X1340780Y0218390D01*
G01X1349960Y0221100D02*
G01X1349960Y0213000D01*
G01X1349960Y0221100D02*
G01X1352660Y0223800D01*
G01X1352660Y0223800D02*
G01X1358060Y0223800D01*
G01X1347260Y0223800D02*
G01X1349960Y0221100D01*
G01X1364540Y0223800D02*
G01X1369940Y0213000D01*
G01X1369940Y0213000D02*
G01X1375340Y0223800D01*
G01X1381820Y0221100D02*
G01X1381820Y0215700D01*
G01X1381820Y0221100D02*
G01X1384520Y0223800D01*
G01X1384520Y0223800D02*
G01X1389920Y0223800D01*
G01X1389920Y0223800D02*
G01X1392620Y0221100D01*
G01X1392620Y0221100D02*
G01X1392620Y0215700D01*
G01X1389920Y0213000D02*
G01X1392620Y0215700D01*
G01X1384520Y0213000D02*
G01X1389920Y0213000D01*
G01X1381820Y0215700D02*
G01X1384520Y0213000D01*
G01X1615000Y0229600D02*
G01X1615000Y0208000D01*
G01X1628500Y0229600D02*
G01X1628500Y0208000D01*
G01X1615000Y0218800D02*
G01X1628500Y0218800D01*
G01X1637680Y0208000D02*
G01X1645780Y0208000D01*
G01X1634980Y0210700D02*
G01X1637680Y0208000D01*
G01X1634980Y0216090D02*
G01X1634980Y0210700D01*
G01X1634980Y0216090D02*
G01X1637680Y0218800D01*
G01X1637680Y0218800D02*
G01X1643080Y0218800D01*
G01X1643080Y0218800D02*
G01X1645780Y0216090D01*
G01X1634980Y0213400D02*
G01X1645780Y0213400D01*
G01X1645780Y0216090D02*
G01X1645780Y0213400D01*
G01X1660360Y0218800D02*
G01X1663060Y0216090D01*
G01X1654960Y0218800D02*
G01X1660360Y0218800D01*
G01X1652260Y0216090D02*
G01X1654960Y0218800D01*
G01X1652260Y0216090D02*
G01X1652260Y0210700D01*
G01X1652260Y0210700D02*
G01X1654960Y0208000D01*
G01X1663060Y0218800D02*
G01X1663060Y0210700D01*
G01X1663060Y0210700D02*
G01X1665760Y0208000D01*
G01X1654960Y0208000D02*
G01X1660360Y0208000D01*
G01X1660360Y0208000D02*
G01X1663060Y0210700D01*
G01X1674940Y0229600D02*
G01X1674940Y0210700D01*
G01X1674940Y0210700D02*
G01X1677640Y0208000D01*
G01X1672240Y0221500D02*
G01X1677640Y0221500D01*
G01X1685740Y0208000D02*
G01X1693840Y0208000D01*
G01X1693840Y0208000D02*
G01X1696540Y0210700D01*
G01X1693840Y0213400D02*
G01X1696540Y0210700D01*
G01X1685740Y0213400D02*
G01X1693840Y0213400D01*
G01X1683040Y0216090D02*
G01X1685740Y0213400D01*
G01X1683040Y0216090D02*
G01X1685740Y0218800D01*
G01X1685740Y0218800D02*
G01X1693840Y0218800D01*
G01X1693840Y0218800D02*
G01X1696540Y0216090D01*
G01X1683040Y0210700D02*
G01X1685740Y0208000D01*
G54D15*
G01X1703020Y0224200D02*
G01X1703020Y0223660D01*
G54D19*
G01X1703020Y0216090D02*
G01X1703020Y0208000D01*
G01X1711120Y0216090D02*
G01X1711120Y0208000D01*
G01X1711120Y0216090D02*
G01X1713820Y0218800D01*
G01X1713820Y0218800D02*
G01X1716520Y0218800D01*
G01X1716520Y0218800D02*
G01X1719220Y0216090D01*
G01X1719220Y0216090D02*
G01X1719220Y0208000D01*
G01X1708420Y0218800D02*
G01X1711120Y0216090D01*
G01X1725700Y0229600D02*
G01X1725700Y0208000D01*
G01X1725700Y0216090D02*
G01X1733800Y0208000D01*
G01X1725700Y0216090D02*
G01X1731100Y0221500D01*
G01X1312700Y0184600D02*
G01X1312700Y0163000D01*
G01X1310000Y0184600D02*
G01X1320800Y0184600D01*
G01X1320800Y0184600D02*
G01X1323500Y0181900D01*
G01X1323500Y0181900D02*
G01X1323500Y0176500D01*
G01X1320800Y0173800D02*
G01X1323500Y0176500D01*
G01X1312700Y0173800D02*
G01X1320800Y0173800D01*
G01X1332680Y0171100D02*
G01X1332680Y0163000D01*
G01X1332680Y0171100D02*
G01X1335380Y0173800D01*
G01X1335380Y0173800D02*
G01X1340780Y0173800D01*
G01X1329980Y0173800D02*
G01X1332680Y0171100D01*
G01X1347260Y0171100D02*
G01X1347260Y0165700D01*
G01X1347260Y0171100D02*
G01X1349960Y0173800D01*
G01X1349960Y0173800D02*
G01X1355360Y0173800D01*
G01X1355360Y0173800D02*
G01X1358060Y0171100D01*
G01X1358060Y0171100D02*
G01X1358060Y0165700D01*
G01X1355360Y0163000D02*
G01X1358060Y0165700D01*
G01X1349960Y0163000D02*
G01X1355360Y0163000D01*
G01X1347260Y0165700D02*
G01X1349960Y0163000D01*
G01X1364540Y0184600D02*
G01X1364540Y0163000D01*
G01X1364540Y0165700D02*
G01X1367240Y0163000D01*
G01X1367240Y0163000D02*
G01X1372640Y0163000D01*
G01X1372640Y0163000D02*
G01X1375340Y0165700D01*
G01X1375340Y0171100D02*
G01X1375340Y0165700D01*
G01X1372640Y0173800D02*
G01X1375340Y0171100D01*
G01X1367240Y0173800D02*
G01X1372640Y0173800D01*
G01X1364540Y0171100D02*
G01X1367240Y0173800D01*
G01X1384520Y0163000D02*
G01X1392620Y0163000D01*
G01X1381820Y0165700D02*
G01X1384520Y0163000D01*
G01X1381820Y0171100D02*
G01X1381820Y0165700D01*
G01X1381820Y0171100D02*
G01X1384520Y0173800D01*
G01X1384520Y0173800D02*
G01X1389920Y0173800D01*
G01X1389920Y0173800D02*
G01X1392620Y0171100D01*
G01X1381820Y0168400D02*
G01X1392620Y0168400D01*
G01X1392620Y0171100D02*
G01X1392620Y0168400D01*
G01X1525000Y0189600D02*
G01X1535800Y0189600D01*
G01X1530400Y0189600D02*
G01X1530400Y0168000D01*
G01X1542280Y0189600D02*
G01X1542280Y0168000D01*
G01X1542280Y0176100D02*
G01X1544980Y0178800D01*
G01X1544980Y0178800D02*
G01X1550380Y0178800D01*
G01X1550380Y0178800D02*
G01X1553080Y0176100D01*
G01X1553080Y0176100D02*
G01X1553080Y0168000D01*
G01X1562260Y0168000D02*
G01X1570360Y0168000D01*
G01X1559560Y0170690D02*
G01X1562260Y0168000D01*
G01X1559560Y0176100D02*
G01X1559560Y0170690D01*
G01X1559560Y0176100D02*
G01X1562260Y0178800D01*
G01X1562260Y0178800D02*
G01X1567660Y0178800D01*
G01X1567660Y0178800D02*
G01X1570360Y0176100D01*
G01X1559560Y0173400D02*
G01X1570360Y0173400D01*
G01X1570360Y0176100D02*
G01X1570360Y0173400D01*
G01X1579540Y0176100D02*
G01X1579540Y0168000D01*
G01X1579540Y0176100D02*
G01X1582240Y0178800D01*
G01X1582240Y0178800D02*
G01X1587640Y0178800D01*
G01X1576840Y0178800D02*
G01X1579540Y0176100D01*
G01X1596820Y0176100D02*
G01X1596820Y0168000D01*
G01X1596820Y0176100D02*
G01X1599520Y0178800D01*
G01X1599520Y0178800D02*
G01X1602220Y0178800D01*
G01X1602220Y0178800D02*
G01X1604920Y0176100D01*
G01X1604920Y0176100D02*
G01X1604920Y0168000D01*
G01X1604920Y0176100D02*
G01X1607620Y0178800D01*
G01X1607620Y0178800D02*
G01X1610320Y0178800D01*
G01X1610320Y0178800D02*
G01X1613020Y0176100D01*
G01X1613020Y0176100D02*
G01X1613020Y0168000D01*
G01X1594120Y0178800D02*
G01X1596820Y0176100D01*
G54D15*
G01X1619500Y0184200D02*
G01X1619500Y0183660D01*
G54D19*
G01X1619500Y0176100D02*
G01X1619500Y0168000D01*
G01X1627600Y0168000D02*
G01X1635700Y0168000D01*
G01X1635700Y0168000D02*
G01X1638400Y0170690D01*
G01X1635700Y0173400D02*
G01X1638400Y0170690D01*
G01X1627600Y0173400D02*
G01X1635700Y0173400D01*
G01X1624900Y0176100D02*
G01X1627600Y0173400D01*
G01X1624900Y0176100D02*
G01X1627600Y0178800D01*
G01X1627600Y0178800D02*
G01X1635700Y0178800D01*
G01X1635700Y0178800D02*
G01X1638400Y0176100D01*
G01X1624900Y0170690D02*
G01X1627600Y0168000D01*
G01X1647580Y0189600D02*
G01X1647580Y0170690D01*
G01X1647580Y0170690D02*
G01X1650280Y0168000D01*
G01X1644880Y0181500D02*
G01X1650280Y0181500D01*
G01X1655680Y0176100D02*
G01X1655680Y0170690D01*
G01X1655680Y0176100D02*
G01X1658380Y0178800D01*
G01X1658380Y0178800D02*
G01X1663780Y0178800D01*
G01X1663780Y0178800D02*
G01X1666480Y0176100D01*
G01X1666480Y0176100D02*
G01X1666480Y0170690D01*
G01X1663780Y0168000D02*
G01X1666480Y0170690D01*
G01X1658380Y0168000D02*
G01X1663780Y0168000D01*
G01X1655680Y0170690D02*
G01X1658380Y0168000D01*
G01X1675660Y0176100D02*
G01X1675660Y0168000D01*
G01X1675660Y0176100D02*
G01X1678360Y0178800D01*
G01X1678360Y0178800D02*
G01X1683760Y0178800D01*
G01X1672960Y0178800D02*
G01X1675660Y0176100D01*
G01X1529990Y0159590D02*
G01X1529990Y0138000D01*
G01X1543500Y0159590D02*
G01X1543500Y0138000D01*
G01X1529990Y0148800D02*
G01X1543500Y0148800D01*
G01X1552680Y0138000D02*
G01X1560780Y0138000D01*
G01X1549970Y0140700D02*
G01X1552680Y0138000D01*
G01X1549970Y0146100D02*
G01X1549970Y0140700D01*
G01X1549970Y0146100D02*
G01X1552680Y0148800D01*
G01X1552680Y0148800D02*
G01X1558080Y0148800D01*
G01X1558080Y0148800D02*
G01X1560780Y0146100D01*
G01X1549970Y0143400D02*
G01X1560780Y0143400D01*
G01X1560780Y0146100D02*
G01X1560780Y0143400D01*
G01X1575360Y0148800D02*
G01X1578060Y0146100D01*
G01X1569960Y0148800D02*
G01X1575360Y0148800D01*
G01X1567260Y0146100D02*
G01X1569960Y0148800D01*
G01X1567260Y0146100D02*
G01X1567260Y0140700D01*
G01X1567260Y0140700D02*
G01X1569960Y0138000D01*
G01X1578060Y0148800D02*
G01X1578060Y0140700D01*
G01X1578060Y0140700D02*
G01X1580760Y0138000D01*
G01X1569960Y0138000D02*
G01X1575360Y0138000D01*
G01X1575360Y0138000D02*
G01X1578060Y0140700D01*
G01X1589940Y0159590D02*
G01X1589940Y0140700D01*
G01X1589940Y0140700D02*
G01X1592640Y0138000D01*
G01X1587240Y0151500D02*
G01X1592640Y0151500D01*
G01X1600740Y0138000D02*
G01X1608840Y0138000D01*
G01X1598040Y0140700D02*
G01X1600740Y0138000D01*
G01X1598040Y0146100D02*
G01X1598040Y0140700D01*
G01X1598040Y0146100D02*
G01X1600740Y0148800D01*
G01X1600740Y0148800D02*
G01X1606140Y0148800D01*
G01X1606140Y0148800D02*
G01X1608840Y0146100D01*
G01X1598040Y0143400D02*
G01X1608840Y0143400D01*
G01X1608840Y0146100D02*
G01X1608840Y0143400D01*
G01X1618020Y0146100D02*
G01X1618020Y0138000D01*
G01X1618020Y0146100D02*
G01X1620720Y0148800D01*
G01X1620720Y0148800D02*
G01X1626120Y0148800D01*
G01X1615320Y0148800D02*
G01X1618020Y0146100D01*
G01X1330400Y0450800D02*
G01X1330400Y0440000D01*
G01X1330400Y0450800D02*
G01X1333100Y0453500D01*
G01X1333100Y0453500D02*
G01X1338500Y0453500D01*
G01X1338500Y0453500D02*
G01X1341200Y0450800D01*
G01X1341200Y0450800D02*
G01X1341200Y0442700D01*
G01X1330400Y0442700D02*
G01X1352000Y0442700D01*
G01X1341200Y0447020D02*
G01X1352000Y0453500D01*
G01X1352000Y0470780D02*
G01X1352000Y0462680D01*
G01X1349300Y0459980D02*
G01X1352000Y0462680D01*
G01X1343900Y0459980D02*
G01X1349300Y0459980D01*
G01X1341200Y0462680D02*
G01X1343900Y0459980D01*
G01X1341200Y0468080D02*
G01X1341200Y0462680D01*
G01X1341200Y0468080D02*
G01X1343900Y0470780D01*
G01X1346600Y0470780D02*
G01X1346600Y0459980D01*
G01X1343900Y0470780D02*
G01X1346600Y0470780D01*
G01X1330400Y0488060D02*
G01X1352000Y0488060D01*
G01X1349300Y0488060D02*
G01X1352000Y0485360D01*
G01X1352000Y0485360D02*
G01X1352000Y0479960D01*
G01X1349300Y0477260D02*
G01X1352000Y0479960D01*
G01X1343900Y0477260D02*
G01X1349300Y0477260D01*
G01X1341200Y0479960D02*
G01X1343900Y0477260D01*
G01X1341200Y0485360D02*
G01X1341200Y0479960D01*
G01X1341200Y0485360D02*
G01X1343900Y0488060D01*
G01X1341200Y0505340D02*
G01X1341200Y0494540D01*
G01X1335800Y0499940D02*
G01X1346600Y0499940D01*
G54D20*
G01X1381500Y0425600D02*
G01X1381500Y0415000D01*
G01X1378850Y0428250D02*
G01X1381500Y0425600D01*
G01X1372490Y0428250D02*
G01X1378850Y0428250D01*
G01X1369840Y0425600D02*
G01X1372490Y0428250D01*
G01X1369840Y0425600D02*
G01X1369840Y0417650D01*
G01X1360300Y0417650D02*
G01X1381500Y0417650D01*
G01X1360300Y0425600D02*
G01X1360300Y0415000D01*
G01X1360300Y0425600D02*
G01X1362950Y0428250D01*
G01X1362950Y0428250D02*
G01X1367190Y0428250D01*
G01X1367190Y0428250D02*
G01X1369840Y0425600D01*
G01X1360300Y0434610D02*
G01X1378850Y0434610D01*
G01X1378850Y0434610D02*
G01X1381500Y0437260D01*
G01X1370900Y0450510D02*
G01X1373550Y0453160D01*
G01X1370900Y0450510D02*
G01X1370900Y0445210D01*
G01X1370900Y0445210D02*
G01X1373550Y0442560D01*
G01X1373550Y0442560D02*
G01X1378850Y0442560D01*
G01X1378850Y0442560D02*
G01X1381500Y0445210D01*
G01X1370900Y0453160D02*
G01X1378850Y0453160D01*
G01X1378850Y0453160D02*
G01X1381500Y0455810D01*
G01X1381500Y0450510D02*
G01X1381500Y0445210D01*
G01X1378850Y0453160D02*
G01X1381500Y0450510D01*
G01X1370900Y0472770D02*
G01X1370900Y0464820D01*
G01X1370900Y0464820D02*
G01X1373550Y0462170D01*
G01X1373550Y0462170D02*
G01X1378850Y0462170D01*
G01X1378850Y0462170D02*
G01X1381500Y0464820D01*
G01X1381500Y0472770D02*
G01X1381500Y0464820D01*
G01X1360300Y0479130D02*
G01X1381500Y0479130D01*
G01X1373550Y0479130D02*
G01X1381500Y0487080D01*
G01X1368250Y0484430D02*
G01X1373550Y0479130D01*
G01X1370900Y0504040D02*
G01X1370900Y0493440D01*
G01X1318850Y0425000D02*
G01X1321500Y0427650D01*
G01X1300300Y0427650D02*
G01X1302950Y0425000D01*
G01X1302950Y0425000D02*
G01X1318850Y0425000D01*
G01X1300300Y0436660D02*
G01X1321500Y0436660D01*
G01X1300300Y0444610D02*
G01X1300300Y0434010D01*
G01X1300300Y0444610D02*
G01X1302950Y0447260D01*
G01X1302950Y0447260D02*
G01X1308250Y0447260D01*
G01X1308250Y0447260D02*
G01X1310900Y0444610D01*
G01X1310900Y0444610D02*
G01X1310900Y0436660D01*
G01X1300300Y0453620D02*
G01X1310900Y0453620D01*
G01X1310900Y0453620D02*
G01X1321500Y0456270D01*
G01X1310900Y0461570D02*
G01X1321500Y0456270D01*
G01X1310900Y0461570D02*
G01X1321500Y0466870D01*
G01X1310900Y0469520D02*
G01X1321500Y0466870D01*
G01X1300300Y0469520D02*
G01X1310900Y0469520D01*
G01X1300300Y0475880D02*
G01X1321500Y0475880D01*
G01X1300300Y0475880D02*
G01X1310900Y0483830D01*
G01X1300300Y0491780D02*
G01X1310900Y0483830D01*
G01X1300300Y0491780D02*
G01X1321500Y0491780D01*
G01X1300300Y0498140D02*
G01X1302950Y0500790D01*
G01X1302950Y0500790D02*
G01X1318850Y0500790D01*
G01X1318850Y0500790D02*
G01X1321500Y0498140D01*
G01X1706500Y0445600D02*
G01X1706500Y0435000D01*
G01X1703850Y0448250D02*
G01X1706500Y0445600D01*
G01X1697490Y0448250D02*
G01X1703850Y0448250D01*
G01X1694840Y0445600D02*
G01X1697490Y0448250D01*
G01X1694840Y0445600D02*
G01X1694840Y0437650D01*
G01X1685300Y0437650D02*
G01X1706500Y0437650D01*
G01X1685300Y0445600D02*
G01X1685300Y0435000D01*
G01X1685300Y0445600D02*
G01X1687950Y0448250D01*
G01X1687950Y0448250D02*
G01X1692190Y0448250D01*
G01X1692190Y0448250D02*
G01X1694840Y0445600D01*
G01X1685300Y0454610D02*
G01X1703850Y0454610D01*
G01X1703850Y0454610D02*
G01X1706500Y0457260D01*
G01X1695900Y0470510D02*
G01X1698550Y0473160D01*
G01X1695900Y0470510D02*
G01X1695900Y0465210D01*
G01X1695900Y0465210D02*
G01X1698550Y0462560D01*
G01X1698550Y0462560D02*
G01X1703850Y0462560D01*
G01X1703850Y0462560D02*
G01X1706500Y0465210D01*
G01X1695900Y0473160D02*
G01X1703850Y0473160D01*
G01X1703850Y0473160D02*
G01X1706500Y0475810D01*
G01X1706500Y0470510D02*
G01X1706500Y0465210D01*
G01X1703850Y0473160D02*
G01X1706500Y0470510D01*
G01X1695900Y0492770D02*
G01X1695900Y0484820D01*
G01X1695900Y0484820D02*
G01X1698550Y0482170D01*
G01X1698550Y0482170D02*
G01X1703850Y0482170D01*
G01X1703850Y0482170D02*
G01X1706500Y0484820D01*
G01X1706500Y0492770D02*
G01X1706500Y0484820D01*
G01X1685300Y0499130D02*
G01X1706500Y0499130D01*
G01X1698550Y0499130D02*
G01X1706500Y0507080D01*
G01X1693250Y0504430D02*
G01X1698550Y0499130D01*
G01X1695900Y0524040D02*
G01X1695900Y0513440D01*
G54D19*
G01X1655400Y0470800D02*
G01X1655400Y0460000D01*
G01X1655400Y0470800D02*
G01X1658100Y0473500D01*
G01X1658100Y0473500D02*
G01X1663500Y0473500D01*
G01X1663500Y0473500D02*
G01X1666200Y0470800D01*
G01X1666200Y0470800D02*
G01X1666200Y0462700D01*
G01X1655400Y0462700D02*
G01X1677000Y0462700D01*
G01X1666200Y0467020D02*
G01X1677000Y0473500D01*
G01X1677000Y0490780D02*
G01X1677000Y0482680D01*
G01X1674300Y0479980D02*
G01X1677000Y0482680D01*
G01X1668900Y0479980D02*
G01X1674300Y0479980D01*
G01X1666200Y0482680D02*
G01X1668900Y0479980D01*
G01X1666200Y0488080D02*
G01X1666200Y0482680D01*
G01X1666200Y0488080D02*
G01X1668900Y0490780D01*
G01X1671600Y0490780D02*
G01X1671600Y0479980D01*
G01X1668900Y0490780D02*
G01X1671600Y0490780D01*
G01X1655400Y0508060D02*
G01X1677000Y0508060D01*
G01X1674300Y0508060D02*
G01X1677000Y0505360D01*
G01X1677000Y0505360D02*
G01X1677000Y0499960D01*
G01X1674300Y0497260D02*
G01X1677000Y0499960D01*
G01X1668900Y0497260D02*
G01X1674300Y0497260D01*
G01X1666200Y0499960D02*
G01X1668900Y0497260D01*
G01X1666200Y0505360D02*
G01X1666200Y0499960D01*
G01X1666200Y0505360D02*
G01X1668900Y0508060D01*
G01X1666200Y0525340D02*
G01X1666200Y0514540D01*
G01X1660800Y0519940D02*
G01X1671600Y0519940D01*
G01X1550400Y0350790D02*
G01X1553100Y0353500D01*
G01X1550400Y0350790D02*
G01X1550400Y0342690D01*
G01X1550400Y0342690D02*
G01X1553100Y0340000D01*
G01X1553100Y0340000D02*
G01X1569290Y0340000D01*
G01X1569290Y0340000D02*
G01X1572000Y0342690D01*
G01X1572000Y0350790D02*
G01X1572000Y0342690D01*
G01X1569290Y0353500D02*
G01X1572000Y0350790D01*
G01X1563900Y0353500D02*
G01X1569290Y0353500D01*
G01X1561190Y0350790D02*
G01X1563900Y0353500D01*
G01X1561190Y0350790D02*
G01X1561190Y0345400D01*
G01X1563900Y0362670D02*
G01X1572000Y0362670D01*
G01X1561190Y0365380D02*
G01X1563900Y0362670D01*
G01X1561190Y0370770D02*
G01X1561190Y0365380D01*
G01X1561190Y0359980D02*
G01X1563900Y0362670D01*
G01X1572000Y0388060D02*
G01X1572000Y0379960D01*
G01X1569290Y0377260D02*
G01X1572000Y0379960D01*
G01X1563900Y0377260D02*
G01X1569290Y0377260D01*
G01X1561190Y0379960D02*
G01X1563900Y0377260D01*
G01X1561190Y0385360D02*
G01X1561190Y0379960D01*
G01X1561190Y0385360D02*
G01X1563900Y0388060D01*
G01X1566600Y0388060D02*
G01X1566600Y0377260D01*
G01X1563900Y0388060D02*
G01X1566600Y0388060D01*
G01X1572000Y0405340D02*
G01X1572000Y0397240D01*
G01X1569290Y0394530D02*
G01X1572000Y0397240D01*
G01X1563900Y0394530D02*
G01X1569290Y0394530D01*
G01X1561190Y0397240D02*
G01X1563900Y0394530D01*
G01X1561190Y0402630D02*
G01X1561190Y0397240D01*
G01X1561190Y0402630D02*
G01X1563900Y0405340D01*
G01X1566600Y0405340D02*
G01X1566600Y0394530D01*
G01X1563900Y0405340D02*
G01X1566600Y0405340D01*
G01X1563900Y0414510D02*
G01X1572000Y0414510D01*
G01X1561190Y0417220D02*
G01X1563900Y0414510D01*
G01X1561190Y0419920D02*
G01X1561190Y0417220D01*
G01X1561190Y0419920D02*
G01X1563900Y0422620D01*
G01X1563900Y0422620D02*
G01X1572000Y0422620D01*
G01X1561190Y0411820D02*
G01X1563900Y0414510D01*
G01X1610400Y0380800D02*
G01X1610400Y0370000D01*
G01X1610400Y0380800D02*
G01X1613100Y0383500D01*
G01X1613100Y0383500D02*
G01X1618500Y0383500D01*
G01X1618500Y0383500D02*
G01X1621200Y0380800D01*
G01X1621200Y0380800D02*
G01X1621200Y0372700D01*
G01X1610400Y0372700D02*
G01X1632000Y0372700D01*
G01X1621200Y0377020D02*
G01X1632000Y0383500D01*
G01X1632000Y0400780D02*
G01X1632000Y0392680D01*
G01X1629300Y0389980D02*
G01X1632000Y0392680D01*
G01X1623900Y0389980D02*
G01X1629300Y0389980D01*
G01X1621200Y0392680D02*
G01X1623900Y0389980D01*
G01X1621200Y0398080D02*
G01X1621200Y0392680D01*
G01X1621200Y0398080D02*
G01X1623900Y0400780D01*
G01X1626600Y0400780D02*
G01X1626600Y0389980D01*
G01X1623900Y0400780D02*
G01X1626600Y0400780D01*
G01X1610400Y0418060D02*
G01X1632000Y0418060D01*
G01X1629300Y0418060D02*
G01X1632000Y0415360D01*
G01X1632000Y0415360D02*
G01X1632000Y0409960D01*
G01X1629300Y0407260D02*
G01X1632000Y0409960D01*
G01X1623900Y0407260D02*
G01X1629300Y0407260D01*
G01X1621200Y0409960D02*
G01X1623900Y0407260D01*
G01X1621200Y0415360D02*
G01X1621200Y0409960D01*
G01X1621200Y0415360D02*
G01X1623900Y0418060D01*
G01X1602000Y0360800D02*
G01X1602000Y0350000D01*
G01X1599300Y0363500D02*
G01X1602000Y0360800D01*
G01X1592820Y0363500D02*
G01X1599300Y0363500D01*
G01X1590120Y0360800D02*
G01X1592820Y0363500D01*
G01X1590120Y0360800D02*
G01X1590120Y0352700D01*
G01X1580400Y0352700D02*
G01X1602000Y0352700D01*
G01X1580400Y0360800D02*
G01X1580400Y0350000D01*
G01X1580400Y0360800D02*
G01X1583100Y0363500D01*
G01X1583100Y0363500D02*
G01X1587420Y0363500D01*
G01X1587420Y0363500D02*
G01X1590120Y0360800D01*
G01X1580400Y0369980D02*
G01X1599300Y0369980D01*
G01X1599300Y0369980D02*
G01X1602000Y0372680D01*
G01X1591200Y0386180D02*
G01X1593900Y0388870D01*
G01X1591200Y0386180D02*
G01X1591200Y0380780D01*
G01X1591200Y0380780D02*
G01X1593900Y0378080D01*
G01X1593900Y0378080D02*
G01X1599300Y0378080D01*
G01X1599300Y0378080D02*
G01X1602000Y0380780D01*
G01X1591200Y0388870D02*
G01X1599300Y0388870D01*
G01X1599300Y0388870D02*
G01X1602000Y0391580D01*
G01X1602000Y0386180D02*
G01X1602000Y0380780D01*
G01X1599300Y0388870D02*
G01X1602000Y0386180D01*
G01X1591200Y0408850D02*
G01X1591200Y0400750D01*
G01X1591200Y0400750D02*
G01X1593900Y0398060D01*
G01X1593900Y0398060D02*
G01X1599300Y0398060D01*
G01X1599300Y0398060D02*
G01X1602000Y0400750D01*
G01X1602000Y0408850D02*
G01X1602000Y0400750D01*
G01X1580400Y0415340D02*
G01X1602000Y0415340D01*
G01X1593900Y0415340D02*
G01X1602000Y0423440D01*
G01X1588500Y0420740D02*
G01X1593900Y0415340D01*
G01X1620800Y0319600D02*
G01X1623500Y0316900D01*
G01X1612700Y0319600D02*
G01X1620800Y0319600D01*
G01X1610000Y0316900D02*
G01X1612700Y0319600D01*
G01X1610000Y0316900D02*
G01X1610000Y0311500D01*
G01X1610000Y0311500D02*
G01X1612700Y0308800D01*
G01X1612700Y0308800D02*
G01X1620800Y0308800D01*
G01X1620800Y0308800D02*
G01X1623500Y0306100D01*
G01X1623500Y0306100D02*
G01X1623500Y0300700D01*
G01X1620800Y0298000D02*
G01X1623500Y0300700D01*
G01X1612700Y0298000D02*
G01X1620800Y0298000D01*
G01X1610000Y0300700D02*
G01X1612700Y0298000D01*
G01X1632680Y0319600D02*
G01X1632680Y0300700D01*
G01X1632680Y0300700D02*
G01X1635380Y0298000D01*
G01X1629980Y0311500D02*
G01X1635380Y0311500D01*
G01X1643480Y0298000D02*
G01X1651580Y0298000D01*
G01X1640780Y0300700D02*
G01X1643480Y0298000D01*
G01X1640780Y0306100D02*
G01X1640780Y0300700D01*
G01X1640780Y0306100D02*
G01X1643480Y0308800D01*
G01X1643480Y0308800D02*
G01X1648880Y0308800D01*
G01X1648880Y0308800D02*
G01X1651580Y0306100D01*
G01X1640780Y0303400D02*
G01X1651580Y0303400D01*
G01X1651580Y0306100D02*
G01X1651580Y0303400D01*
G01X1660760Y0306100D02*
G01X1660760Y0289900D01*
G01X1658060Y0308800D02*
G01X1660760Y0306100D01*
G01X1660760Y0306100D02*
G01X1663460Y0308800D01*
G01X1663460Y0308800D02*
G01X1668860Y0308800D01*
G01X1668860Y0308800D02*
G01X1671560Y0306100D01*
G01X1671560Y0306100D02*
G01X1671560Y0300700D01*
G01X1668860Y0298000D02*
G01X1671560Y0300700D01*
G01X1663460Y0298000D02*
G01X1668860Y0298000D01*
G01X1660760Y0300700D02*
G01X1663460Y0298000D01*
G01X1680740Y0306100D02*
G01X1680740Y0289900D01*
G01X1678040Y0308800D02*
G01X1680740Y0306100D01*
G01X1680740Y0306100D02*
G01X1683440Y0308800D01*
G01X1683440Y0308800D02*
G01X1688840Y0308800D01*
G01X1688840Y0308800D02*
G01X1691540Y0306100D01*
G01X1691540Y0306100D02*
G01X1691540Y0300700D01*
G01X1688840Y0298000D02*
G01X1691540Y0300700D01*
G01X1683440Y0298000D02*
G01X1688840Y0298000D01*
G01X1680740Y0300700D02*
G01X1683440Y0298000D01*
G01X1700720Y0298000D02*
G01X1708820Y0298000D01*
G01X1698020Y0300700D02*
G01X1700720Y0298000D01*
G01X1698020Y0306100D02*
G01X1698020Y0300700D01*
G01X1698020Y0306100D02*
G01X1700720Y0308800D01*
G01X1700720Y0308800D02*
G01X1706120Y0308800D01*
G01X1706120Y0308800D02*
G01X1708820Y0306100D01*
G01X1698020Y0303400D02*
G01X1708820Y0303400D01*
G01X1708820Y0306100D02*
G01X1708820Y0303400D01*
G01X1718000Y0306100D02*
G01X1718000Y0298000D01*
G01X1718000Y0306100D02*
G01X1720700Y0308800D01*
G01X1720700Y0308800D02*
G01X1726100Y0308800D01*
G01X1715300Y0308800D02*
G01X1718000Y0306100D01*
G54D20*
G01X2006500Y0325600D02*
G01X2006500Y0315000D01*
G01X2003850Y0328250D02*
G01X2006500Y0325600D01*
G01X1997490Y0328250D02*
G01X2003850Y0328250D01*
G01X1994840Y0325600D02*
G01X1997490Y0328250D01*
G01X1994840Y0325600D02*
G01X1994840Y0317650D01*
G01X1985300Y0317650D02*
G01X2006500Y0317650D01*
G01X1985300Y0325600D02*
G01X1985300Y0315000D01*
G01X1985300Y0325600D02*
G01X1987950Y0328250D01*
G01X1987950Y0328250D02*
G01X1992190Y0328250D01*
G01X1992190Y0328250D02*
G01X1994840Y0325600D01*
G01X1985300Y0334610D02*
G01X2003850Y0334610D01*
G01X2003850Y0334610D02*
G01X2006500Y0337260D01*
G01X1995900Y0350510D02*
G01X1998550Y0353160D01*
G01X1995900Y0350510D02*
G01X1995900Y0345210D01*
G01X1995900Y0345210D02*
G01X1998550Y0342560D01*
G01X1998550Y0342560D02*
G01X2003850Y0342560D01*
G01X2003850Y0342560D02*
G01X2006500Y0345210D01*
G01X1995900Y0353160D02*
G01X2003850Y0353160D01*
G01X2003850Y0353160D02*
G01X2006500Y0355810D01*
G01X2006500Y0350510D02*
G01X2006500Y0345210D01*
G01X2003850Y0353160D02*
G01X2006500Y0350510D01*
G01X1995900Y0372770D02*
G01X1995900Y0364820D01*
G01X1995900Y0364820D02*
G01X1998550Y0362170D01*
G01X1998550Y0362170D02*
G01X2003850Y0362170D01*
G01X2003850Y0362170D02*
G01X2006500Y0364820D01*
G01X2006500Y0372770D02*
G01X2006500Y0364820D01*
G01X1985300Y0379130D02*
G01X2006500Y0379130D01*
G01X1998550Y0379130D02*
G01X2006500Y0387080D01*
G01X1993250Y0384430D02*
G01X1998550Y0379130D01*
G01X1995900Y0404040D02*
G01X1995900Y0393440D01*
G54D19*
G01X1955400Y0350790D02*
G01X1955400Y0340000D01*
G01X1955400Y0350790D02*
G01X1958100Y0353500D01*
G01X1958100Y0353500D02*
G01X1963500Y0353500D01*
G01X1963500Y0353500D02*
G01X1966200Y0350790D01*
G01X1966200Y0350790D02*
G01X1966200Y0342690D01*
G01X1955400Y0342690D02*
G01X1977000Y0342690D01*
G01X1966200Y0347020D02*
G01X1977000Y0353500D01*
G01X1977000Y0370770D02*
G01X1977000Y0362670D01*
G01X1974300Y0359980D02*
G01X1977000Y0362670D01*
G01X1968900Y0359980D02*
G01X1974300Y0359980D01*
G01X1966200Y0362670D02*
G01X1968900Y0359980D01*
G01X1966200Y0368080D02*
G01X1966200Y0362670D01*
G01X1966200Y0368080D02*
G01X1968900Y0370770D01*
G01X1971600Y0370770D02*
G01X1971600Y0359980D01*
G01X1968900Y0370770D02*
G01X1971600Y0370770D01*
G01X1955400Y0388060D02*
G01X1977000Y0388060D01*
G01X1974300Y0388060D02*
G01X1977000Y0385360D01*
G01X1977000Y0385360D02*
G01X1977000Y0379960D01*
G01X1974300Y0377260D02*
G01X1977000Y0379960D01*
G01X1968900Y0377260D02*
G01X1974300Y0377260D01*
G01X1966200Y0379960D02*
G01X1968900Y0377260D01*
G01X1966200Y0385360D02*
G01X1966200Y0379960D01*
G01X1966200Y0385360D02*
G01X1968900Y0388060D01*
G01X1966200Y0405340D02*
G01X1966200Y0394530D01*
G01X1960800Y0399940D02*
G01X1971600Y0399940D01*
G01X1868780Y0238000D02*
G01X1875800Y0238000D01*
G01X1865000Y0241780D02*
G01X1868780Y0238000D01*
G01X1865000Y0255820D02*
G01X1865000Y0241780D01*
G01X1865000Y0255820D02*
G01X1868780Y0259600D01*
G01X1868780Y0259600D02*
G01X1875800Y0259600D01*
G01X1882270Y0246090D02*
G01X1882270Y0240700D01*
G01X1882270Y0246090D02*
G01X1884980Y0248800D01*
G01X1884980Y0248800D02*
G01X1890370Y0248800D01*
G01X1890370Y0248800D02*
G01X1893080Y0246090D01*
G01X1893080Y0246090D02*
G01X1893080Y0240700D01*
G01X1890370Y0238000D02*
G01X1893080Y0240700D01*
G01X1884980Y0238000D02*
G01X1890370Y0238000D01*
G01X1882270Y0240700D02*
G01X1884980Y0238000D01*
G01X1899560Y0246090D02*
G01X1899560Y0240700D01*
G01X1899560Y0246090D02*
G01X1902250Y0248800D01*
G01X1902250Y0248800D02*
G01X1907660Y0248800D01*
G01X1907660Y0248800D02*
G01X1910360Y0246090D01*
G01X1910360Y0246090D02*
G01X1910360Y0240700D01*
G01X1907660Y0238000D02*
G01X1910360Y0240700D01*
G01X1902250Y0238000D02*
G01X1907660Y0238000D01*
G01X1899560Y0240700D02*
G01X1902250Y0238000D01*
G01X1916840Y0259600D02*
G01X1916840Y0240700D01*
G01X1916840Y0240700D02*
G01X1919540Y0238000D01*
G54D15*
G01X1924940Y0254200D02*
G01X1924940Y0253660D01*
G54D19*
G01X1924940Y0246090D02*
G01X1924940Y0238000D01*
G01X1933040Y0246090D02*
G01X1933040Y0238000D01*
G01X1933040Y0246090D02*
G01X1935740Y0248800D01*
G01X1935740Y0248800D02*
G01X1938440Y0248800D01*
G01X1938440Y0248800D02*
G01X1941140Y0246090D01*
G01X1941140Y0246090D02*
G01X1941140Y0238000D01*
G01X1930340Y0248800D02*
G01X1933040Y0246090D01*
G01X1955720Y0248800D02*
G01X1958420Y0246090D01*
G01X1950320Y0248800D02*
G01X1955720Y0248800D01*
G01X1947620Y0246090D02*
G01X1950320Y0248800D01*
G01X1947620Y0246090D02*
G01X1947620Y0240700D01*
G01X1947620Y0240700D02*
G01X1950320Y0238000D01*
G01X1950320Y0238000D02*
G01X1955720Y0238000D01*
G01X1955720Y0238000D02*
G01X1958420Y0240700D01*
G01X1947620Y0232600D02*
G01X1950320Y0229900D01*
G01X1950320Y0229900D02*
G01X1955720Y0229900D01*
G01X1955720Y0229900D02*
G01X1958420Y0232600D01*
G01X1958420Y0248800D02*
G01X1958420Y0232600D01*
G54D12*
G01X0683000Y0353000D02*
G01X0683000Y0298000D01*
G01X0683000Y0298000D02*
G01X0698000Y0298000D01*
G01X0698000Y0353000D02*
G01X0698000Y0338000D01*
G01X0698000Y0318000D02*
G01X0708000Y0328000D01*
G01X0698000Y0318000D02*
G01X0698000Y0298000D01*
G01X0638000Y0328000D02*
G01X0683000Y0328000D01*
G01X0683000Y0353000D02*
G01X0698000Y0353000D01*
G54D19*
G01X0663400Y0368180D02*
G01X0685000Y0368180D01*
G01X0663400Y0376280D02*
G01X0663400Y0365480D01*
G01X0663400Y0376280D02*
G01X0666100Y0378980D01*
G01X0666100Y0378980D02*
G01X0671500Y0378980D01*
G01X0674200Y0376280D02*
G01X0671500Y0378980D01*
G01X0674200Y0376280D02*
G01X0674200Y0368180D01*
G01X0676900Y0388160D02*
G01X0685000Y0388160D01*
G01X0676900Y0388160D02*
G01X0674200Y0390860D01*
G01X0674200Y0396260D02*
G01X0674200Y0390860D01*
G01X0674200Y0385460D02*
G01X0676900Y0388160D01*
G01X0676900Y0402740D02*
G01X0682300Y0402740D01*
G01X0676900Y0402740D02*
G01X0674200Y0405440D01*
G01X0674200Y0410840D02*
G01X0674200Y0405440D01*
G01X0674200Y0410840D02*
G01X0676900Y0413540D01*
G01X0676900Y0413540D02*
G01X0682300Y0413540D01*
G01X0685000Y0410840D02*
G01X0682300Y0413540D01*
G01X0685000Y0410840D02*
G01X0685000Y0405440D01*
G01X0682300Y0402740D02*
G01X0685000Y0405440D01*
G01X0663400Y0420020D02*
G01X0685000Y0420020D01*
G01X0682300Y0420020D02*
G01X0685000Y0422720D01*
G01X0685000Y0428120D02*
G01X0685000Y0422720D01*
G01X0685000Y0428120D02*
G01X0682300Y0430820D01*
G01X0676900Y0430820D02*
G01X0682300Y0430820D01*
G01X0674200Y0428120D02*
G01X0676900Y0430820D01*
G01X0674200Y0428120D02*
G01X0674200Y0422720D01*
G01X0676900Y0420020D02*
G01X0674200Y0422720D01*
G01X0685000Y0448100D02*
G01X0685000Y0440000D01*
G01X0682300Y0437300D02*
G01X0685000Y0440000D01*
G01X0676900Y0437300D02*
G01X0682300Y0437300D01*
G01X0676900Y0437300D02*
G01X0674200Y0440000D01*
G01X0674200Y0445400D02*
G01X0674200Y0440000D01*
G01X0674200Y0445400D02*
G01X0676900Y0448100D01*
G01X0679600Y0448100D02*
G01X0679600Y0437300D01*
G01X0676900Y0448100D02*
G01X0679600Y0448100D01*
G54D12*
G01X0695000Y0450000D02*
G01X0695000Y0353000D01*
G54D20*
G01X0698850Y0489610D02*
G01X0701500Y0492250D01*
G01X0701500Y0497560D02*
G01X0701500Y0492250D01*
G01X0698850Y0500210D02*
G01X0701500Y0497560D01*
G01X0682950Y0500210D02*
G01X0698850Y0500210D01*
G01X0680300Y0497560D02*
G01X0682950Y0500210D01*
G01X0680300Y0497560D02*
G01X0680300Y0492250D01*
G01X0680300Y0492250D02*
G01X0682950Y0489610D01*
G01X0682950Y0489610D02*
G01X0698850Y0489610D01*
G01X0680300Y0483250D02*
G01X0701500Y0483250D01*
G01X0680300Y0470000D02*
G01X0701500Y0483250D01*
G01X0680300Y0470000D02*
G01X0701500Y0470000D01*
G01X0645300Y0495600D02*
G01X0645300Y0488700D01*
G01X0645300Y0488700D02*
G01X0649010Y0485000D01*
G01X0649010Y0485000D02*
G01X0662790Y0485000D01*
G01X0662790Y0485000D02*
G01X0666500Y0488700D01*
G01X0666500Y0495600D02*
G01X0666500Y0488700D01*
G54D19*
G01X0710400Y0500780D02*
G01X0710400Y0493750D01*
G01X0710400Y0493750D02*
G01X0714180Y0489980D01*
G01X0714180Y0489980D02*
G01X0728220Y0489980D01*
G01X0728220Y0489980D02*
G01X0732000Y0493750D01*
G01X0732000Y0500780D02*
G01X0732000Y0493750D01*
G01X0710400Y0483500D02*
G01X0732000Y0483500D01*
G01X0710400Y0470000D02*
G01X0732000Y0483500D01*
G01X0710400Y0470000D02*
G01X0732000Y0470000D01*
G54D12*
G01X0720000Y0540000D02*
G01X0720000Y0510000D01*
G01X0660000Y0540000D02*
G01X0660000Y0510000D01*
G01X0690000Y0540000D02*
G01X0690000Y0510000D01*
G01X0660000Y0510000D02*
G01X0745000Y0510000D01*
G01X0745000Y0510000D02*
G01X0745000Y0450000D01*
G01X0695000Y0450000D02*
G01X0745000Y0450000D01*
G01X0625000Y0275000D02*
G01X0765000Y0275000D01*
G01X0765000Y0585000D02*
G01X0765000Y0275000D01*
G01X0625000Y0585000D02*
G01X0765000Y0585000D01*
G01X0625000Y0585000D02*
G01X0625000Y0275000D01*
G01X0828000Y0353000D02*
G01X0828000Y0298000D01*
G01X0828000Y0298000D02*
G01X0843000Y0298000D01*
G01X0843000Y0353000D02*
G01X0843000Y0338000D01*
G01X0843000Y0318000D02*
G01X0853000Y0328000D01*
G01X0843000Y0318000D02*
G01X0843000Y0298000D01*
G01X0783000Y0328000D02*
G01X0828000Y0328000D01*
G01X0828000Y0353000D02*
G01X0843000Y0353000D01*
G54D19*
G01X0808400Y0368180D02*
G01X0830000Y0368180D01*
G01X0808400Y0376280D02*
G01X0808400Y0365480D01*
G01X0808400Y0376280D02*
G01X0811100Y0378980D01*
G01X0811100Y0378980D02*
G01X0816500Y0378980D01*
G01X0819200Y0376280D02*
G01X0816500Y0378980D01*
G01X0819200Y0376280D02*
G01X0819200Y0368180D01*
G01X0821900Y0388160D02*
G01X0830000Y0388160D01*
G01X0821900Y0388160D02*
G01X0819200Y0390860D01*
G01X0819200Y0396260D02*
G01X0819200Y0390860D01*
G01X0819200Y0385460D02*
G01X0821900Y0388160D01*
G01X0821900Y0402740D02*
G01X0827300Y0402740D01*
G01X0821900Y0402740D02*
G01X0819200Y0405440D01*
G01X0819200Y0410840D02*
G01X0819200Y0405440D01*
G01X0819200Y0410840D02*
G01X0821900Y0413540D01*
G01X0821900Y0413540D02*
G01X0827300Y0413540D01*
G01X0830000Y0410840D02*
G01X0827300Y0413540D01*
G01X0830000Y0410840D02*
G01X0830000Y0405440D01*
G01X0827300Y0402740D02*
G01X0830000Y0405440D01*
G01X0808400Y0420020D02*
G01X0830000Y0420020D01*
G01X0827300Y0420020D02*
G01X0830000Y0422720D01*
G01X0830000Y0428120D02*
G01X0830000Y0422720D01*
G01X0830000Y0428120D02*
G01X0827300Y0430820D01*
G01X0821900Y0430820D02*
G01X0827300Y0430820D01*
G01X0819200Y0428120D02*
G01X0821900Y0430820D01*
G01X0819200Y0428120D02*
G01X0819200Y0422720D01*
G01X0821900Y0420020D02*
G01X0819200Y0422720D01*
G01X0830000Y0448100D02*
G01X0830000Y0440000D01*
G01X0827300Y0437300D02*
G01X0830000Y0440000D01*
G01X0821900Y0437300D02*
G01X0827300Y0437300D01*
G01X0821900Y0437300D02*
G01X0819200Y0440000D01*
G01X0819200Y0445400D02*
G01X0819200Y0440000D01*
G01X0819200Y0445400D02*
G01X0821900Y0448100D01*
G01X0824600Y0448100D02*
G01X0824600Y0437300D01*
G01X0821900Y0448100D02*
G01X0824600Y0448100D01*
G54D12*
G01X0840000Y0450000D02*
G01X0840000Y0353000D01*
G54D20*
G01X0843850Y0489610D02*
G01X0846500Y0492250D01*
G01X0846500Y0497560D02*
G01X0846500Y0492250D01*
G01X0843850Y0500210D02*
G01X0846500Y0497560D01*
G01X0827950Y0500210D02*
G01X0843850Y0500210D01*
G01X0825300Y0497560D02*
G01X0827950Y0500210D01*
G01X0825300Y0497560D02*
G01X0825300Y0492250D01*
G01X0825300Y0492250D02*
G01X0827950Y0489610D01*
G01X0827950Y0489610D02*
G01X0843850Y0489610D01*
G01X0825300Y0483250D02*
G01X0846500Y0483250D01*
G01X0825300Y0470000D02*
G01X0846500Y0483250D01*
G01X0825300Y0470000D02*
G01X0846500Y0470000D01*
G01X0790300Y0495600D02*
G01X0790300Y0488700D01*
G01X0790300Y0488700D02*
G01X0794010Y0485000D01*
G01X0794010Y0485000D02*
G01X0807790Y0485000D01*
G01X0807790Y0485000D02*
G01X0811500Y0488700D01*
G01X0811500Y0495600D02*
G01X0811500Y0488700D01*
G54D19*
G01X0855400Y0500780D02*
G01X0855400Y0493750D01*
G01X0855400Y0493750D02*
G01X0859180Y0489980D01*
G01X0859180Y0489980D02*
G01X0873220Y0489980D01*
G01X0873220Y0489980D02*
G01X0877000Y0493750D01*
G01X0877000Y0500780D02*
G01X0877000Y0493750D01*
G01X0855400Y0483500D02*
G01X0877000Y0483500D01*
G01X0855400Y0470000D02*
G01X0877000Y0483500D01*
G01X0855400Y0470000D02*
G01X0877000Y0470000D01*
G54D12*
G01X0865000Y0540000D02*
G01X0865000Y0510000D01*
G01X0805000Y0540000D02*
G01X0805000Y0510000D01*
G01X0835000Y0540000D02*
G01X0835000Y0510000D01*
G01X0805000Y0510000D02*
G01X0890000Y0510000D01*
G01X0890000Y0510000D02*
G01X0890000Y0450000D01*
G01X0840000Y0450000D02*
G01X0890000Y0450000D01*
G01X0770000Y0275000D02*
G01X0910000Y0275000D01*
G01X0910000Y0585000D02*
G01X0910000Y0275000D01*
G01X0770000Y0585000D02*
G01X0910000Y0585000D01*
G01X0770000Y0585000D02*
G01X0770000Y0275000D01*
G01X0993000Y0353000D02*
G01X0993000Y0298000D01*
G01X0993000Y0298000D02*
G01X1008000Y0298000D01*
G01X1008000Y0353000D02*
G01X1008000Y0338000D01*
G01X1008000Y0318000D02*
G01X1018000Y0328000D01*
G01X1008000Y0318000D02*
G01X1008000Y0298000D01*
G01X0948000Y0328000D02*
G01X0993000Y0328000D01*
G01X0993000Y0353000D02*
G01X1008000Y0353000D01*
G54D19*
G01X0973400Y0368180D02*
G01X0995000Y0368180D01*
G01X0973400Y0376280D02*
G01X0973400Y0365480D01*
G01X0973400Y0376280D02*
G01X0976100Y0378980D01*
G01X0976100Y0378980D02*
G01X0981500Y0378980D01*
G01X0984200Y0376280D02*
G01X0981500Y0378980D01*
G01X0984200Y0376280D02*
G01X0984200Y0368180D01*
G01X0986900Y0388160D02*
G01X0995000Y0388160D01*
G01X0986900Y0388160D02*
G01X0984200Y0390860D01*
G01X0984200Y0396260D02*
G01X0984200Y0390860D01*
G01X0984200Y0385460D02*
G01X0986900Y0388160D01*
G01X0986900Y0402740D02*
G01X0992300Y0402740D01*
G01X0986900Y0402740D02*
G01X0984200Y0405440D01*
G01X0984200Y0410840D02*
G01X0984200Y0405440D01*
G01X0984200Y0410840D02*
G01X0986900Y0413540D01*
G01X0986900Y0413540D02*
G01X0992300Y0413540D01*
G01X0995000Y0410840D02*
G01X0992300Y0413540D01*
G01X0995000Y0410840D02*
G01X0995000Y0405440D01*
G01X0992300Y0402740D02*
G01X0995000Y0405440D01*
G01X0973400Y0420020D02*
G01X0995000Y0420020D01*
G01X0992300Y0420020D02*
G01X0995000Y0422720D01*
G01X0995000Y0428120D02*
G01X0995000Y0422720D01*
G01X0995000Y0428120D02*
G01X0992300Y0430820D01*
G01X0986900Y0430820D02*
G01X0992300Y0430820D01*
G01X0984200Y0428120D02*
G01X0986900Y0430820D01*
G01X0984200Y0428120D02*
G01X0984200Y0422720D01*
G01X0986900Y0420020D02*
G01X0984200Y0422720D01*
G01X0995000Y0448100D02*
G01X0995000Y0440000D01*
G01X0992300Y0437300D02*
G01X0995000Y0440000D01*
G01X0986900Y0437300D02*
G01X0992300Y0437300D01*
G01X0986900Y0437300D02*
G01X0984200Y0440000D01*
G01X0984200Y0445400D02*
G01X0984200Y0440000D01*
G01X0984200Y0445400D02*
G01X0986900Y0448100D01*
G01X0989600Y0448100D02*
G01X0989600Y0437300D01*
G01X0986900Y0448100D02*
G01X0989600Y0448100D01*
G54D12*
G01X1005000Y0450000D02*
G01X1005000Y0353000D01*
G54D20*
G01X1008850Y0489610D02*
G01X1011500Y0492250D01*
G01X1011500Y0497560D02*
G01X1011500Y0492250D01*
G01X1008850Y0500210D02*
G01X1011500Y0497560D01*
G01X0992950Y0500210D02*
G01X1008850Y0500210D01*
G01X0990300Y0497560D02*
G01X0992950Y0500210D01*
G01X0990300Y0497560D02*
G01X0990300Y0492250D01*
G01X0990300Y0492250D02*
G01X0992950Y0489610D01*
G01X0992950Y0489610D02*
G01X1008850Y0489610D01*
G01X0990300Y0483250D02*
G01X1011500Y0483250D01*
G01X0990300Y0470000D02*
G01X1011500Y0483250D01*
G01X0990300Y0470000D02*
G01X1011500Y0470000D01*
G01X0955300Y0495600D02*
G01X0955300Y0488700D01*
G01X0955300Y0488700D02*
G01X0959010Y0485000D01*
G01X0959010Y0485000D02*
G01X0972790Y0485000D01*
G01X0972790Y0485000D02*
G01X0976500Y0488700D01*
G01X0976500Y0495600D02*
G01X0976500Y0488700D01*
G54D19*
G01X1020400Y0500780D02*
G01X1020400Y0493750D01*
G01X1020400Y0493750D02*
G01X1024180Y0489980D01*
G01X1024180Y0489980D02*
G01X1038220Y0489980D01*
G01X1038220Y0489980D02*
G01X1042000Y0493750D01*
G01X1042000Y0500780D02*
G01X1042000Y0493750D01*
G01X1020400Y0483500D02*
G01X1042000Y0483500D01*
G01X1020400Y0470000D02*
G01X1042000Y0483500D01*
G01X1020400Y0470000D02*
G01X1042000Y0470000D01*
G54D12*
G01X1030000Y0540000D02*
G01X1030000Y0510000D01*
G01X0970000Y0540000D02*
G01X0970000Y0510000D01*
G01X1000000Y0540000D02*
G01X1000000Y0510000D01*
G01X0970000Y0510000D02*
G01X1055000Y0510000D01*
G01X1055000Y0510000D02*
G01X1055000Y0450000D01*
G01X1005000Y0450000D02*
G01X1055000Y0450000D01*
G01X0935000Y0275000D02*
G01X1075000Y0275000D01*
G01X1075000Y0585000D02*
G01X1075000Y0275000D01*
G01X0935000Y0585000D02*
G01X1075000Y0585000D01*
G01X0935000Y0585000D02*
G01X0935000Y0275000D01*
G01X1138000Y0353000D02*
G01X1138000Y0298000D01*
G01X1138000Y0298000D02*
G01X1153000Y0298000D01*
G01X1153000Y0353000D02*
G01X1153000Y0338000D01*
G01X1153000Y0318000D02*
G01X1163000Y0328000D01*
G01X1153000Y0318000D02*
G01X1153000Y0298000D01*
G01X1093000Y0328000D02*
G01X1138000Y0328000D01*
G01X1138000Y0353000D02*
G01X1153000Y0353000D01*
G54D19*
G01X1118400Y0368180D02*
G01X1140000Y0368180D01*
G01X1118400Y0376280D02*
G01X1118400Y0365480D01*
G01X1118400Y0376280D02*
G01X1121100Y0378980D01*
G01X1121100Y0378980D02*
G01X1126500Y0378980D01*
G01X1129200Y0376280D02*
G01X1126500Y0378980D01*
G01X1129200Y0376280D02*
G01X1129200Y0368180D01*
G01X1131900Y0388160D02*
G01X1140000Y0388160D01*
G01X1131900Y0388160D02*
G01X1129200Y0390860D01*
G01X1129200Y0396260D02*
G01X1129200Y0390860D01*
G01X1129200Y0385460D02*
G01X1131900Y0388160D01*
G01X1131900Y0402740D02*
G01X1137300Y0402740D01*
G01X1131900Y0402740D02*
G01X1129200Y0405440D01*
G01X1129200Y0410840D02*
G01X1129200Y0405440D01*
G01X1129200Y0410840D02*
G01X1131900Y0413540D01*
G01X1131900Y0413540D02*
G01X1137300Y0413540D01*
G01X1140000Y0410840D02*
G01X1137300Y0413540D01*
G01X1140000Y0410840D02*
G01X1140000Y0405440D01*
G01X1137300Y0402740D02*
G01X1140000Y0405440D01*
G01X1118400Y0420020D02*
G01X1140000Y0420020D01*
G01X1137300Y0420020D02*
G01X1140000Y0422720D01*
G01X1140000Y0428120D02*
G01X1140000Y0422720D01*
G01X1140000Y0428120D02*
G01X1137300Y0430820D01*
G01X1131900Y0430820D02*
G01X1137300Y0430820D01*
G01X1129200Y0428120D02*
G01X1131900Y0430820D01*
G01X1129200Y0428120D02*
G01X1129200Y0422720D01*
G01X1131900Y0420020D02*
G01X1129200Y0422720D01*
G01X1140000Y0448100D02*
G01X1140000Y0440000D01*
G01X1137300Y0437300D02*
G01X1140000Y0440000D01*
G01X1131900Y0437300D02*
G01X1137300Y0437300D01*
G01X1131900Y0437300D02*
G01X1129200Y0440000D01*
G01X1129200Y0445400D02*
G01X1129200Y0440000D01*
G01X1129200Y0445400D02*
G01X1131900Y0448100D01*
G01X1134600Y0448100D02*
G01X1134600Y0437300D01*
G01X1131900Y0448100D02*
G01X1134600Y0448100D01*
G54D12*
G01X1150000Y0450000D02*
G01X1150000Y0353000D01*
G54D20*
G01X1153850Y0489610D02*
G01X1156500Y0492250D01*
G01X1156500Y0497560D02*
G01X1156500Y0492250D01*
G01X1153850Y0500210D02*
G01X1156500Y0497560D01*
G01X1137950Y0500210D02*
G01X1153850Y0500210D01*
G01X1135300Y0497560D02*
G01X1137950Y0500210D01*
G01X1135300Y0497560D02*
G01X1135300Y0492250D01*
G01X1135300Y0492250D02*
G01X1137950Y0489610D01*
G01X1137950Y0489610D02*
G01X1153850Y0489610D01*
G01X1135300Y0483250D02*
G01X1156500Y0483250D01*
G01X1135300Y0470000D02*
G01X1156500Y0483250D01*
G01X1135300Y0470000D02*
G01X1156500Y0470000D01*
G01X1100300Y0495600D02*
G01X1100300Y0488700D01*
G01X1100300Y0488700D02*
G01X1104010Y0485000D01*
G01X1104010Y0485000D02*
G01X1117790Y0485000D01*
G01X1117790Y0485000D02*
G01X1121500Y0488700D01*
G01X1121500Y0495600D02*
G01X1121500Y0488700D01*
G54D19*
G01X1165400Y0500780D02*
G01X1165400Y0493750D01*
G01X1165400Y0493750D02*
G01X1169180Y0489980D01*
G01X1169180Y0489980D02*
G01X1183220Y0489980D01*
G01X1183220Y0489980D02*
G01X1187000Y0493750D01*
G01X1187000Y0500780D02*
G01X1187000Y0493750D01*
G01X1165400Y0483500D02*
G01X1187000Y0483500D01*
G01X1165400Y0470000D02*
G01X1187000Y0483500D01*
G01X1165400Y0470000D02*
G01X1187000Y0470000D01*
G54D12*
G01X1175000Y0540000D02*
G01X1175000Y0510000D01*
G01X1115000Y0540000D02*
G01X1115000Y0510000D01*
G01X1145000Y0540000D02*
G01X1145000Y0510000D01*
G01X1115000Y0510000D02*
G01X1200000Y0510000D01*
G01X1200000Y0510000D02*
G01X1200000Y0450000D01*
G01X1150000Y0450000D02*
G01X1200000Y0450000D01*
G01X1080000Y0275000D02*
G01X1220000Y0275000D01*
G01X1220000Y0585000D02*
G01X1220000Y0275000D01*
G01X1080000Y0585000D02*
G01X1220000Y0585000D01*
G01X1080000Y0585000D02*
G01X1080000Y0275000D01*
G01X0000000Y0000000D02*
G01X1100000Y2400000D02*
G01X1100000Y2355000D01*
G01X1100000Y2355000D02*
G01X1070000Y2325000D01*
G01X1070000Y2325000D02*
G01X1070000Y2305000D01*
G01X1400000Y2400000D02*
G01X1400000Y2355000D01*
G01X1400000Y2355000D02*
G01X1370000Y2325000D01*
G01X1370000Y2325000D02*
G01X1370000Y2305000D01*
G01X1370000Y2700000D02*
G01X1370000Y2685000D01*
G01X1070000Y2700000D02*
G01X1070000Y2685000D01*
G01X1585000Y2735000D02*
G01X1585000Y2750000D01*
G01X1040000Y1245000D02*
G01X1040000Y1550000D01*
G01X1855000Y0465000D02*
G01X1855000Y0475000D01*
G01X1855000Y0475000D02*
G01X1890000Y0510000D01*
G01X1890000Y0510000D02*
G01X1890000Y0645000D01*
G01X0690000Y0560000D02*
G01X0690000Y0645000D01*
G01X1100000Y2500000D02*
G01X1140000Y2460000D01*
G01X1140000Y2460000D02*
G01X1140000Y2350000D01*
G01X1140000Y2350000D02*
G01X1115000Y2325000D01*
G01X1400000Y2500000D02*
G01X1440000Y2460000D01*
G01X1440000Y2460000D02*
G01X1440000Y2350000D01*
G01X1440000Y2350000D02*
G01X1415000Y2325000D01*
G01X1415000Y2325000D02*
G01X1415000Y2305000D01*
G01X1115000Y2325000D02*
G01X1115000Y2305000D01*
G01X1010000Y1245000D02*
G01X1010000Y1550000D01*
G01X0660000Y0560000D02*
G01X0660000Y0645000D01*
G01X1410000Y2750000D02*
G01X1410000Y2735000D01*
G01X1115000Y2750000D02*
G01X1115000Y2735000D01*
G01X1545000Y2700000D02*
G01X1545000Y2685000D01*
G01X1824990Y0465000D02*
G01X1825000Y0465000D01*
G01X1825000Y0465000D02*
G01X1870000Y0510000D01*
G01X1870000Y0510000D02*
G01X1870000Y0645000D01*
G01X1000000Y2400000D02*
G01X1000000Y2355000D01*
G01X1000000Y2355000D02*
G01X0970000Y2325000D01*
G01X0970000Y2325000D02*
G01X0970000Y2305000D01*
G01X1300000Y2400000D02*
G01X1300000Y2355000D01*
G01X1300000Y2355000D02*
G01X1270000Y2325000D01*
G01X1270000Y2325000D02*
G01X1270000Y2305000D01*
G01X1270000Y2700000D02*
G01X1270000Y2685000D01*
G01X0975000Y2700000D02*
G01X0975000Y2685000D01*
G01X1070000Y1245000D02*
G01X1070000Y1550000D01*
G01X2000000Y0460000D02*
G01X2000000Y0645000D01*
G01X0835000Y0560000D02*
G01X0835000Y0645000D01*
G01X1000000Y2500000D02*
G01X1040000Y2460000D01*
G01X1040000Y2460000D02*
G01X1040000Y2350000D01*
G01X1040000Y2350000D02*
G01X1015000Y2325000D01*
G01X1300000Y2500000D02*
G01X1340000Y2460000D01*
G01X1340000Y2460000D02*
G01X1340000Y2350000D01*
G01X1340000Y2350000D02*
G01X1315000Y2325000D01*
G01X1315000Y2325000D02*
G01X1315000Y2305000D01*
G01X1015000Y2325000D02*
G01X1015000Y2305000D01*
G01X1315000Y2750000D02*
G01X1315000Y2735000D01*
G01X1015000Y2750000D02*
G01X1015000Y2735000D01*
G01X1970000Y0460000D02*
G01X1970000Y0645000D01*
G01X1695000Y0565000D02*
G01X1695000Y0645000D01*
G01X1620000Y0480000D02*
G01X1620000Y0645000D01*
G01X1000000Y0560000D02*
G01X1000000Y0645000D01*
G01X1600000Y2500000D02*
G01X1640000Y2460000D01*
G01X1640000Y2460000D02*
G01X1640000Y2350000D01*
G01X1640000Y2350000D02*
G01X1615000Y2325000D01*
G01X1615000Y2325000D02*
G01X1615000Y2305000D01*
G01X1615000Y2750000D02*
G01X1615000Y2735000D01*
G01X1200000Y2400000D02*
G01X1200000Y2355000D01*
G01X1200000Y2355000D02*
G01X1170000Y2325000D01*
G01X1170000Y2325000D02*
G01X1170000Y2305000D01*
G01X0700000Y2400000D02*
G01X0700000Y2355000D01*
G01X0700000Y2355000D02*
G01X0670000Y2325000D01*
G01X0670000Y2325000D02*
G01X0670000Y2305000D01*
G01X0670000Y2700000D02*
G01X0670000Y2685000D01*
G01X1170000Y2700000D02*
G01X1170000Y2685000D01*
G01X1180000Y1245000D02*
G01X1180000Y1550000D01*
G01X0700000Y2500000D02*
G01X0740000Y2460000D01*
G01X0715000Y2325000D02*
G01X0715000Y2305000D01*
G01X0715000Y2750000D02*
G01X0715000Y2735000D01*
G01X1150000Y1245000D02*
G01X1150000Y1550000D01*
G01X0970000Y0560000D02*
G01X0970000Y0645000D01*
G01X1600000Y2400000D02*
G01X1600000Y2355000D01*
G01X1600000Y2355000D02*
G01X1570000Y2325000D01*
G01X1570000Y2325000D02*
G01X1570000Y2305000D01*
G01X1570000Y2700000D02*
G01X1570000Y2685000D01*
G01X1665000Y0565000D02*
G01X1665000Y0645000D01*
G01X1540000Y0480000D02*
G01X1540000Y0645000D01*
G01X1200000Y2500000D02*
G01X1240000Y2460000D01*
G01X1240000Y2460000D02*
G01X1240000Y2350000D01*
G01X1240000Y2350000D02*
G01X1215000Y2325000D01*
G01X1215000Y2325000D02*
G01X1215000Y2305000D01*
G01X1215000Y2750000D02*
G01X1215000Y2735000D01*
G01X0740000Y2460000D02*
G01X0740000Y2350000D01*
G01X0740000Y2350000D02*
G01X0715000Y2325000D01*
G01X1420000Y1245000D02*
G01X1420000Y1550000D01*
G01X1260000Y1395000D02*
G01X1260000Y1550000D01*
G01X1260000Y1285000D02*
G01X1260000Y1245000D01*
G01X1450000Y1285000D02*
G01X1450000Y1485000D01*
G01X1450000Y1485000D02*
G01X1420000Y1515000D01*
G01X1795000Y0645000D02*
G01X1795000Y0510000D01*
G01X1795000Y0510000D02*
G01X1805000Y0500000D01*
G01X1565000Y0460000D02*
G01X1565000Y0645000D01*
G01X1145000Y0560000D02*
G01X1145000Y0645000D01*
G01X1500000Y2500000D02*
G01X1540000Y2460000D01*
G01X1540000Y2460000D02*
G01X1540000Y2350000D01*
G01X1540000Y2350000D02*
G01X1515000Y2325000D01*
G01X1515000Y2325000D02*
G01X1515000Y2305000D01*
G01X1515000Y2750000D02*
G01X1515000Y2735000D01*
G01X0900000Y2400000D02*
G01X0900000Y2355000D01*
G01X0900000Y2355000D02*
G01X0870000Y2325000D01*
G01X0870000Y2325000D02*
G01X0870000Y2305000D01*
G01X0800000Y2400000D02*
G01X0800000Y2355000D01*
G01X0800000Y2355000D02*
G01X0770000Y2325000D01*
G01X0770000Y2325000D02*
G01X0770000Y2305000D01*
G01X0870000Y2700000D02*
G01X0870000Y2685000D01*
G01X0770000Y2700000D02*
G01X0770000Y2685000D01*
G01X0940000Y2460000D02*
G01X0940000Y2350000D01*
G01X0900000Y2500000D02*
G01X0940000Y2460000D01*
G01X0840000Y2460000D02*
G01X0840000Y2350000D01*
G01X0900000Y2500000D02*
G01X0840000Y2460000D01*
G01X0915000Y2750000D02*
G01X0915000Y2735000D01*
G01X0815000Y2750000D02*
G01X0815000Y2735000D01*
G01X0915000Y2325000D02*
G01X0915000Y2305000D01*
G01X0940000Y2350000D02*
G01X0915000Y2325000D01*
G01X0815000Y2325000D02*
G01X0815000Y2305000D01*
G01X0840000Y2350000D02*
G01X0815000Y2325000D01*
G01X0800000Y2500000D02*
G01X0840000Y2460000D01*
G01X1500000Y2400000D02*
G01X1500000Y2355000D01*
G01X1775000Y0500000D02*
G01X1775000Y0645000D01*
G01X1595000Y0460000D02*
G01X1595000Y0645000D01*
G01X1500000Y2355000D02*
G01X1470000Y2325000D01*
G01X1470000Y2325000D02*
G01X1470000Y2305000D01*
G01X1470000Y2700000D02*
G01X1470000Y2685000D01*
G01X1390000Y1245000D02*
G01X1390000Y1550000D01*
G01X1230000Y1375000D02*
G01X1230000Y1550000D01*
G54D21*
G01X1824990Y0465000D03*
G01X1855000Y0465000D03*
G01X1775000Y0500000D03*
G01X1805000Y0500000D03*
G01X1970000Y0460000D03*
G01X2000000Y0460000D03*
G01X1665000Y0565000D03*
G01X1315000Y0560000D03*
G01X1345000Y0560000D03*
G01X1375000Y0560000D03*
G01X1695000Y0565000D03*
G01X1540000Y0480000D03*
G01X1565000Y0460000D03*
G01X1415000Y0460000D03*
G01X1445000Y0460000D03*
G01X1475000Y0460000D03*
G01X1595000Y0460000D03*
G01X1620000Y0480000D03*
G54D22*
G01X1400000Y2500000D03*
G01X1400000Y2400000D03*
G01X1300000Y2500000D03*
G01X1300000Y2400000D03*
G54D10*
G36*
G01X1570000Y2530000D02*
G01X1570000Y2470000D01*
G01X1630000Y2470000D01*
G01X1630000Y2530000D01*
G01X1570000Y2530000D01*
G37*
G54D22*
G01X1600000Y2400000D03*
G01X1500000Y2500000D03*
G01X1500000Y2400000D03*
G01X1200000Y2500000D03*
G01X1200000Y2400000D03*
G01X1100000Y2500000D03*
G01X1000000Y2500000D03*
G01X0900000Y2500000D03*
G01X0800000Y2500000D03*
G01X0700000Y2500000D03*
G01X1100000Y2400000D03*
G01X1000000Y2400000D03*
G01X0900000Y2400000D03*
G01X0800000Y2400000D03*
G01X0700000Y2400000D03*
G54D21*
G01X0720000Y0560000D03*
G01X0690000Y0560000D03*
G01X0660000Y0560000D03*
G01X0865000Y0560000D03*
G01X0835000Y0560000D03*
G01X0805000Y0560000D03*
G01X1030000Y0560000D03*
G01X1175000Y0560000D03*
G01X1145000Y0560000D03*
G01X1115000Y0560000D03*
G01X1000000Y0560000D03*
G01X0970000Y0560000D03*
G01X1070000Y1285000D03*
G01X1260000Y1395000D03*
G01X1230000Y1375000D03*
G01X1420000Y1340000D03*
G01X1390000Y1315000D03*
G01X1260000Y1285000D03*
G01X1450000Y1285000D03*
G01X1180000Y1320000D03*
G01X1040000Y1320000D03*
G01X1010000Y1350000D03*
G01X1150000Y1350000D03*
G01X0000000Y0000000D02*
G54D12*
G01X0000000Y2800000D02*
G01X2100000Y2800000D01*
G01X2100000Y2800000D02*
G01X2100000Y0050000D01*
G01X2100000Y0050000D02*
G01X0000000Y0050000D01*
G01X0000000Y2800000D02*
G01X0000000Y0050000D01*
G01X0000000Y0000000D02*
G54D24*
G01X1824990Y0465000D03*
G01X1855000Y0465000D03*
G01X1775000Y0500000D03*
G01X1805000Y0500000D03*
G01X1970000Y0460000D03*
G01X2000000Y0460000D03*
G01X1665000Y0565000D03*
G01X1315000Y0560000D03*
G01X1345000Y0560000D03*
G01X1375000Y0560000D03*
G01X1695000Y0565000D03*
G01X1540000Y0480000D03*
G01X1565000Y0460000D03*
G01X1415000Y0460000D03*
G01X1445000Y0460000D03*
G01X1475000Y0460000D03*
G01X1595000Y0460000D03*
G01X1620000Y0480000D03*
G54D25*
G01X1400000Y2500000D03*
G01X1400000Y2400000D03*
G01X1300000Y2500000D03*
G01X1300000Y2400000D03*
G54D10*
G36*
G01X1567000Y2533000D02*
G01X1567000Y2467000D01*
G01X1633000Y2467000D01*
G01X1633000Y2533000D01*
G01X1567000Y2533000D01*
G37*
G54D25*
G01X1600000Y2400000D03*
G01X1500000Y2500000D03*
G01X1500000Y2400000D03*
G01X1200000Y2500000D03*
G01X1200000Y2400000D03*
G01X1100000Y2500000D03*
G01X1000000Y2500000D03*
G01X0900000Y2500000D03*
G01X0800000Y2500000D03*
G01X0700000Y2500000D03*
G01X1100000Y2400000D03*
G01X1000000Y2400000D03*
G01X0900000Y2400000D03*
G01X0800000Y2400000D03*
G01X0700000Y2400000D03*
G54D24*
G01X0720000Y0560000D03*
G01X0690000Y0560000D03*
G01X0660000Y0560000D03*
G01X0865000Y0560000D03*
G01X0835000Y0560000D03*
G01X0805000Y0560000D03*
G01X1030000Y0560000D03*
G01X1175000Y0560000D03*
G01X1145000Y0560000D03*
G01X1115000Y0560000D03*
G01X1000000Y0560000D03*
G01X0970000Y0560000D03*
G01X0000000Y0000000D02*
G54D11*
G01X0660000Y0560000D03*
G01X0690000Y0560000D03*
G01X0720000Y0560000D03*
G01X0805000Y0560000D03*
G01X0835000Y0560000D03*
G01X0865000Y0560000D03*
G01X0970000Y0560000D03*
G01X1000000Y0560000D03*
G01X1010000Y1350000D03*
G01X1030000Y0560000D03*
G01X1040000Y1320000D03*
G01X1070000Y1285000D03*
G01X1115000Y0560000D03*
G01X1145000Y0560000D03*
G01X1150000Y1350000D03*
G01X1175000Y0560000D03*
G01X1180000Y1320000D03*
G01X1230000Y1375000D03*
G01X1260000Y1395000D03*
G01X1260000Y1285000D03*
G01X1315000Y0560000D03*
G01X1345000Y0560000D03*
G01X1375000Y0560000D03*
G01X1390000Y1315000D03*
G01X1415000Y0460000D03*
G01X1420000Y1340000D03*
G01X1445000Y0460000D03*
G01X1450000Y1285000D03*
G01X1475000Y0460000D03*
G01X1540000Y0480000D03*
G01X1565000Y0460000D03*
G01X1595000Y0460000D03*
G01X1620000Y0480000D03*
G01X1665000Y0565000D03*
G01X1695000Y0565000D03*
G01X1775000Y0500000D03*
G01X1805000Y0500000D03*
G01X1825000Y0465000D03*
G01X1855000Y0465000D03*
G01X1970000Y0460000D03*
G01X2000000Y0460000D03*
G54D23*
G01X0700000Y2500000D03*
G01X0700000Y2400000D03*
G01X0800000Y2500000D03*
G01X0800000Y2400000D03*
G01X0900000Y2500000D03*
G01X0900000Y2400000D03*
G01X1000000Y2500000D03*
G01X1000000Y2400000D03*
G01X1100000Y2500000D03*
G01X1100000Y2400000D03*
G01X1200000Y2500000D03*
G01X1200000Y2400000D03*
G01X1300000Y2500000D03*
G01X1300000Y2400000D03*
G01X1400000Y2500000D03*
G01X1400000Y2400000D03*
G01X1500000Y2500000D03*
G01X1500000Y2400000D03*
G01X1600000Y2500000D03*
G01X1600000Y2400000D03*
M02*
